<?xml version="1.0" encoding="UTF-8" standalone="no"?>
<svg
   xmlns:dc="http://purl.org/dc/elements/1.1/"
   xmlns:cc="http://creativecommons.org/ns#"
   xmlns:rdf="http://www.w3.org/1999/02/22-rdf-syntax-ns#"
   xmlns:svg="http://www.w3.org/2000/svg"
   xmlns="http://www.w3.org/2000/svg"
   xmlns:xlink="http://www.w3.org/1999/xlink"
   xmlns:sodipodi="http://sodipodi.sourceforge.net/DTD/sodipodi-0.dtd"
   xmlns:inkscape="http://www.inkscape.org/namespaces/inkscape"
   width="134.555"
   height="180.847"
   viewBox="0 0 35.601 47.849"
   version="1.1"
   id="svg628"
   sodipodi:docname="Seal of the City of Blitar (1).svg"
   inkscape:version="1.0.1 (3bc2e813f5, 2020-09-07)">
  <metadata
     id="metadata632">
    <rdf:RDF>
      <cc:Work
         rdf:about="">
        <dc:format>image/svg+xml</dc:format>
        <dc:type
           rdf:resource="http://purl.org/dc/dcmitype/StillImage" />
      </cc:Work>
    </rdf:RDF>
  </metadata>
  <sodipodi:namedview
     pagecolor="#ffffff"
     bordercolor="#666666"
     borderopacity="1"
     objecttolerance="10"
     gridtolerance="10"
     guidetolerance="10"
     inkscape:pageopacity="0"
     inkscape:pageshadow="2"
     inkscape:window-width="1366"
     inkscape:window-height="705"
     id="namedview630"
     showgrid="false"
     inkscape:zoom="2.4879316"
     inkscape:cx="66.836288"
     inkscape:cy="116.04335"
     inkscape:window-x="-8"
     inkscape:window-y="-8"
     inkscape:window-maximized="1"
     inkscape:current-layer="svg628" />
  <style
     id="style2"><![CDATA[.B{stroke:#8b0000}.C{fill:#f5c742}.D{fill:#ffeba3}.E{fill:#018f50}.F{stroke:#a07843}.G{stroke-width:.165}.H{fill:none}.I{stroke-width:.15}.J{fill:#a07843}.K{stroke-width:.1}.L{stroke:#005b31}.M{fill:#fff}.N{stroke-width:.265}.O{stroke:#7c909b}.P{stroke-linejoin:round}.Q{opacity:.999}.R{fill-rule:evenodd}.S{stroke:#005a31}.T{fill:#c8d3d9}.U{stroke:#969fa5}.V{fill:#a6b4bb}.W{stroke-width:.154}.X{stroke-width:.106}]]></style>
  <defs
     id="defs72">
    <linearGradient
       id="A"
       gradientUnits="userSpaceOnUse">
      <stop
         offset="0"
         stop-color="#fff"
         id="stop4" />
      <stop
         offset="1"
         stop-color="#a6b4bb"
         id="stop6" />
    </linearGradient>
    <linearGradient
       id="B"
       gradientUnits="userSpaceOnUse">
      <stop
         offset="0"
         stop-color="red"
         id="stop9" />
      <stop
         offset="1"
         stop-color="#8b0000"
         id="stop11" />
    </linearGradient>
    <linearGradient
       id="C"
       x1="105"
       y1="173.779"
       x2="105"
       y2="169.028"
       gradientUnits="userSpaceOnUse"
       gradientTransform="translate(-87.2,-147.239)">
      <stop
         offset="0"
         stop-color="#18b2ff"
         id="stop14" />
      <stop
         offset="1"
         stop-color="#0093dd"
         id="stop16" />
    </linearGradient>
    <linearGradient
       xlink:href="#B"
       id="D"
       x1="141.402"
       y1="162.628"
       x2="144.936"
       y2="160.411" />
    <linearGradient
       xlink:href="#A"
       id="E"
       x1="141.632"
       y1="162.946"
       x2="146.087"
       y2="160.451" />
    <linearGradient
       xlink:href="#B"
       id="F"
       x1="143.799"
       y1="159.44"
       x2="148.374"
       y2="159.44" />
    <linearGradient
       xlink:href="#A"
       id="G"
       x1="143.799"
       y1="159.787"
       x2="148.583"
       y2="159.787" />
    <linearGradient
       xlink:href="#B"
       id="H"
       x1="159.541"
       y1="159.44"
       x2="154.966"
       y2="159.44" />
    <linearGradient
       xlink:href="#A"
       id="I"
       x1="159.541"
       y1="159.787"
       x2="154.757"
       y2="159.787" />
    <linearGradient
       xlink:href="#A"
       id="J"
       x1="161.708"
       y1="162.946"
       x2="157.254"
       y2="160.451" />
    <linearGradient
       xlink:href="#B"
       id="K"
       x1="161.938"
       y1="162.628"
       x2="158.405"
       y2="160.411" />
    <linearGradient
       xlink:href="#B"
       id="L"
       x1="141.713"
       y1="185.42"
       x2="145.338"
       y2="187.421" />
    <linearGradient
       xlink:href="#B"
       id="M"
       x1="141.668"
       y1="185.42"
       x2="145.139"
       y2="187.421"
       gradientTransform="matrix(-1.0441912,0,0,1,306.13584,-5e-6)" />
    <path
       id="N"
       d="M100.882 147.314v.432h-.729v2.006h-.513v-2.006h-.733v-.432z" />
    <path
       id="O"
       d="M101.597 148.83h.619l-.304-.959zm.031-1.517h.576l.863 2.438h-.552l-.157-.501h-.898l-.169.501h-.533zm.284 0z" />
    <path
       id="P"
       d="M94.529 175.996h4.591v6.731h-2.274c-.902-1.289-2.317-3.791-2.317-6.731z" />
    <path
       id="Q"
       d="M97.689 167.282c.187-.118.038-.434-.326-.69l-.341-.24-.278.185c-.434.289-.557.407-.557.537 0 .194.303.138.447-.083l.133-.203.233.282c.231.281.465.352.689.21z" />
    <path
       id="R"
       d="M97.198 167.984c.584.017.838-.089.803-.337-.022-.154-.074-.174-.45-.174-.362-.001-.453-.033-.609-.214-.18-.21-.185-.211-.323-.059-.077.085-.222.154-.322.154-.229 0-.331.176-.285.491.035.238.043.242.363.184.18-.033.55-.053.823-.045z" />
    <path
       id="S"
       d="M95.816 168.618c-.015-.541-.108-.711-.302-.551-.067.056-.123.157-.123.224 0 .102.368.813.421.813.009 0 .011-.219.003-.486z" />
    <path
       id="T"
       d="M98.532 168.867c.23-.445.12-.938-.188-.84-.138.044-.169.117-.169.396 0 .188-.023.459-.052.6-.049.244-.043.253.118.167a.88.88 0 0 0 .29-.323z" />
    <path
       id="U"
       d="M97.252 168.753c-.049-.126.096-.444.202-.444s.149.186.077.378c-.075.202-.214.235-.279.066z" />
    <path
       id="V"
       d="M96.3 168.672c-.027-.107-.024-.234.006-.282.084-.137.279.064.279.287 0 .252-.221.248-.284-.005z" />
    <path
       id="W"
       d="M97.359 172.073c.017-.052-.101-.24-.262-.418-.214-.237-.303-.415-.329-.662-.042-.391.113-.644.718-1.177.405-.357.53-.665.531-1.308v-.398l-.616.006c-.339.003-.802.034-1.028.069-.347.053-.419.094-.461.261-.053.212.069.667.256.955.098.151.1.296.014 1-.094.767-.09.844.052 1.135a1.49 1.49 0 0 0 .428.495c.282.188.642.21.697.043z" />
    <path
       id="X"
       d="M96.225 173.32c.546 0 .58-.01.541-.161-.061-.233-.368-.447-.725-.504-.454-.073-.522-.195-.457-.828.082-.801.225-.839.158-.042l-.054.651.23.049.406.085c.097.02.263.129.368.242.123.133.211.175.246.118.03-.048.169-.089.308-.089.422-.002.465-.074.496-.833.027-.653.064-.834.152-.746.02.02.011.393-.02.829l-.056.792-.318.043c-.392.052-.517.126-.517.302 0 .119.077.132.616.107.911-.042 1.049-.252 1.052-1.605.002-1.127-.23-2.089-.533-2.206-.069-.027-.325.172-.664.514-.494.5-.551.589-.551.872 0 .244.062.387.278.64.29.338.346.559.183.722-.265.265-1.002-.135-1.271-.689-.16-.331-.164-.387-.069-1.126.142-1.113.063-1.261-.525-.982-.433.206-.485.392-.549 1.995l-.058 1.445.251.251c.156.156.298.233.375.204.068-.026.386-.048.707-.048z" />
    <path
       id="Y"
       d="M97.937 173.957c.088-.088.159-.228.159-.313 0-.145-.069-.154-1.249-.155-1.28-.002-1.455.036-1.455.315 0 .25.246.307 1.332.31.95.002 1.07-.013 1.213-.157z" />
    <path
       id="Z"
       d="M98.336 174.831c.279-.143.555-.493.555-.705 0-.13-.404-.567-.524-.567-.062 0-.112.056-.112.125s-.103.229-.229.355c-.203.203-.225.271-.189.59.022.199.073.361.113.361s.213-.072.386-.16z" />
    <path
       id="a"
       d="M97.747 174.876c.024-.063-.004-.215-.063-.338-.089-.187-.163-.228-.456-.249-.383-.027-.481.052-.483.39-.002.284.045.312.532.312.298 0 .44-.035.471-.114z" />
    <path
       id="b"
       d="M96.632 174.633c.007-.344-.001-.358-.224-.358-.353 0-.539.133-.539.387 0 .293.046.329.431.329h.325l.008-.358z" />
    <path
       id="c"
       d="M95.746 174.62c-.006-.292-.04-.383-.164-.429-.232-.086-.375-.292-.327-.473.052-.2.004-.199-.326.002-.293.179-.527.64-.449.886.067.211.465.378.913.382l.36.003-.007-.371z" />
    <path
       id="d"
       d="M97.007 166.513c-.251.363.658.907.428.351-.122-.141-.303-.213-.428-.351z" />
    <path
       id="e"
       d="M96.673 167.337c-.539.121-.276.622.192.446.422.095.397-.17.057-.285-.071-.053-.165-.418-.249-.161z" />
    <path
       id="f"
       d="M96.623 168.44c-.027.65-.185 1.284-.308 1.918-.08.506-.183 1.149.374 1.428.227.152.5.161.174-.089-.285-.469-.27-1.067-.182-1.591.105-.405.492-.714.396-1.168.017-.325.003-.778-.454-.499z" />
    <path
       id="g"
       d="M95.594 169.89c-.549.112-.448.811-.527 1.23.056.582-.261 1.276.085 1.782.309.334.542-.009.212-.26-.177-.462-.068-.975-.02-1.452-.045-.476.522-.868.393-1.278l-.06-.017z" />
    <path
       id="h"
       d="M98.196 171.342c.119.557.07 1.16-.048 1.665.537-.394.224-1.255.175-1.832-.114-.381.198-1.199-.26-1.157-.495.512.266.847.133 1.324z" />
    <path
       id="i"
       d="M97.453 170.46c-.408.115-.188 1.051.094.703-.019-.193.001-.636-.094-.703z" />
    <path
       id="j"
       d="M95.002 173.932c-.139.223-.49.551-.164.782.312.197.652-.217.247-.378-.075-.124.007-.285-.083-.404z" />
    <path
       id="k"
       d="M96.257 174.406c-.426-.138-.192.733-.019.267.006-.089.003-.179.019-.267z" />
    <path
       id="l"
       d="M97.094 174.425c-.406-.011-.022.746.074.254.016-.086.039-.223-.074-.254z" />
    <path
       id="m"
       d="M95.836 173.62c.283.264.702.055 1.045.123.291-.087.53.14.723.222.268-.053.325-.492-.035-.377-.533.01-1.066.105-1.6.065-.045-.007-.09-.018-.133-.033z" />
    <path
       id="n"
       d="M98.445 173.91c-.097.278-.371.482-.289.8-.48-.145.003-.632.145-.883.079-.226.162-.045.144.083z" />
    <path
       id="o"
       d="M96.265 168.426c-.2.033.032.501.143.497.086-.003.049-.529-.143-.497z" />
    <path
       id="p"
       d="M97.499 168.36c-.16-.065-.258.438-.182.495.104.079.382-.414.182-.495z" />
    <path
       id="q"
       d="M158.882 178.409c-.046-.535.463-.628.849-.403.598-.644.932.058.731.31.636.115.342.738.05.712l-1.326.297z" />
    <path
       id="r"
       d="M159.724 178.514c-.273.018-.528.34-.83-.149-.521.865-.356 1.578-.31 2.317.782-.317 1.38-.95 1.933-1.66-.333-.106-.882-.01-.793-.508z" />
    <path
       id="s"
       d="M160.028 178.081c-.203.056-.408.167-.618.073-.186-.001-.202.228.008.2.245-.026.552-.075.652.218.051.147.484.198.333-.006-.19-.081-.257-.268-.237-.461-.016-.065-.096-.043-.138-.024z" />
    <path
       id="t"
       d="M158.087 183.17c-.246-.608-.555-1.189-.26-2.02.616.296.479.129.706.186l.087-1.437c.09.222-.104.192.273.669.671-.704 1.378-1.342 2.342-1.524l-1.103 1.512c.355-.051.564.094.83.161-.332.428-.836.684-1.363.917l.892-.025c-.192.654-.171 1.348-2.404 1.561z" />
    <path
       id="u"
       d="M158.113 181.624l.062 1.276 1.747-.793" />
    <path
       id="v"
       d="M158.77 180.98l-.508 1.896 1.896-1.921" />
    <path
       id="w"
       d="M158.275 182.839c.678-1.197 1.348-2.41 2.218-3.222" />
    <path
       id="x"
       d="M153.877 181.708c.059.938.624 1.2.999 1.717.565-.509 1.169-.998 1.419-1.665-.271 0-.521-.092-.859.193.703-.433.852-1.245 1.139-1.963l-.718.403c-.002-.454-.198-.819-.456-1.157-.498.674-.362 1.229-.526 1.84-.232-.264-.481-.33-.736-.315.184.397.05.794.561 1.192z" />
    <path
       id="y"
       d="M154.247 182.194l.694.682.88-.768" />
    <path
       id="z"
       d="M154.892 183.421c.362-1.506.422-2.778.483-3.618" />
    <path
       id="AA"
       d="M154.452 181.135l.695.779.835-1.163" />
    <path
       id="AB"
       d="M89.451 180.508c1.186-.037 2.304.493 3.303 2.041-2.108.166-2.782-.874-3.303-2.041z" />
    <path
       id="AC"
       d="M90.634 181.244c.441.507.866 1.019 1.989 1.253-.792-.314-1.43-.752-1.989-1.253z" />
    <path
       id="AD"
       d="M89.942 180.735c.648.162 1.533.461 1.849 1.222-.434-.279-.802-.731-1.27-.819.287.566.715.835 1.108 1.135-.621-.124-1.022-.352-1.687-1.538z" />
  </defs>
  <g
     id="g2044">
    <path
       d="M 6.839,0.075 H 7.34 V 1.079 L 8.281,0.075 H 8.939 L 7.94,1.079 8.99,2.513 H 8.335 L 7.582,1.448 7.339,1.698 V 2.513 H 6.838 Z m 3.516,2.074 q 0.303,0 0.48,-0.223 0.179,-0.223 0.179,-0.635 0,-0.41 -0.179,-0.633 -0.177,-0.225 -0.48,-0.225 -0.303,0 -0.483,0.223 -0.18,0.223 -0.18,0.635 0,0.412 0.18,0.635 0.18,0.223 0.483,0.223 z m 1.168,-0.858 q 0,0.657 -0.369,1.006 -0.276,0.284 -0.799,0.284 -0.523,0 -0.799,-0.284 -0.37,-0.349 -0.37,-1.006 0,-0.67 0.37,-1.006 0.276,-0.284 0.799,-0.284 0.523,0 0.799,0.284 0.369,0.336 0.369,1.006 z m -1.168,-1.29 z"
       id="path74" />
    <path
       id="use76"
       d="M 13.682,0.075 V 0.507 H 12.953 V 2.513 H 12.44 V 0.507 H 11.707 V 0.075 Z" />
    <path
       id="use78"
       d="m 14.397,1.591 h 0.619 L 14.712,0.632 Z m 0.031,-1.517 h 0.576 l 0.863,2.438 H 15.315 L 15.158,2.011 H 14.26 l -0.169,0.501 h -0.533 z m 0.284,0 z" />
    <path
       d="m 17.488,0.498 v 0.538 h 0.599 q 0.16,0 0.26,-0.06 0.101,-0.061 0.101,-0.215 0,-0.17 -0.132,-0.225 -0.114,-0.038 -0.291,-0.038 z m 0,0.941 v 0.65 h 0.599 q 0.16,0 0.25,-0.043 0.162,-0.079 0.162,-0.304 0,-0.19 -0.157,-0.261 -0.088,-0.04 -0.246,-0.041 z m 0.698,-1.364 q 0.448,0.007 0.635,0.26 0.112,0.155 0.112,0.372 0,0.223 -0.112,0.359 -0.063,0.076 -0.185,0.139 0.187,0.068 0.281,0.215 0.096,0.147 0.096,0.357 0,0.217 -0.109,0.389 Q 18.834,2.28 18.73,2.358 18.613,2.447 18.452,2.48 18.293,2.513 18.106,2.513 H 17.001 V 0.075 Z m 1.254,0 h 0.509 v 2 h 1.207 v 0.438 h -1.717 z m 2.535,2.437 H 21.469 V 0.074 h 0.506 z M 21.722,0.026 Z"
       id="path80" />
    <path
       id="use82"
       d="M 24.221,0.075 V 0.507 H 23.492 V 2.513 H 22.979 V 0.507 H 22.246 V 0.075 Z" />
    <path
       id="use84"
       d="m 24.935,1.591 h 0.619 L 25.25,0.632 Z m 0.031,-1.517 h 0.576 l 0.863,2.438 H 25.853 L 25.696,2.011 h -0.898 l -0.169,0.501 h -0.533 z m 0.284,0 z" />
    <path
       d="m 27.224,0.498 v 0.655 h 0.577 q 0.172,0 0.258,-0.04 0.152,-0.07 0.152,-0.275 0,-0.222 -0.147,-0.298 -0.083,-0.043 -0.248,-0.043 z m 0.698,-0.423 q 0.256,0.005 0.394,0.063 0.139,0.058 0.235,0.17 0.079,0.093 0.126,0.205 0.046,0.112 0.046,0.256 0,0.174 -0.088,0.342 -0.088,0.167 -0.289,0.237 0.169,0.068 0.238,0.194 0.071,0.124 0.071,0.38 v 0.164 q 0,0.167 0.013,0.227 0.02,0.094 0.093,0.139 V 2.513 H 28.2 Q 28.177,2.432 28.167,2.382 28.147,2.279 28.145,2.172 L 28.142,1.945 Q 28.139,1.712 28.056,1.634 27.975,1.556 27.75,1.556 H 27.224 V 2.512 H 26.726 V 0.074 Z"
       id="path86" />
    <path
       d="M 6.865,3.884 C 6.359,5.08 5.253,8.641 0.627,12.295 1.746,15.573 3.187,16.229 1.398,23.93 -3.687,45.826 12.743,40.451 17.8,47.131 22.857,40.451 39.287,45.826 34.202,23.93 32.413,16.228 33.854,15.573 34.973,12.295 30.347,8.641 29.24,5.08 28.735,3.884 H 17.8 Z"
       stroke="#f5c742"
       stroke-width="0.865"
       id="path88" />
  </g>
  <g
     id="g2049">
    <g
       class="R"
       id="g94"
       transform="translate(-87.2,-147.239)">
      <path
         d="m 104.999,152.952 -0.42,1.291 h -1.358 l 1.099,0.798 -0.42,1.291 1.099,-0.798 1.099,0.798 -0.42,-1.292 1.099,-0.798 h -1.358 z"
         class="C Q"
         id="path90" />
      <path
         d="m 104.999,152.952 -0.42,1.291 0.42,0.578 -1.778,-0.578 1.099,0.798 0.68,-0.221 -1.099,1.512 1.099,-0.798 0.001,-0.714 1.099,1.512 -0.42,-1.292 -0.678,-0.22 1.777,-0.578 h -1.358 l -0.419,0.578 z"
         class="D Q"
         id="path92" />
    </g>
  </g>
  <g
     id="g2580">
    <path
       d="m 7.102,27.899 h 5.228 v 0.363 H 7.102 Z"
       fill="#ff0000"
       stroke-width="0.16"
       class="B P Q R"
       id="path156" />
    <path
       d="m 7.206,28.263 h 4.714 v 0.493 H 7.206 Z"
       fill="#ff0000"
       class="B P Q R W"
       id="path112" />
    <path
       id="use114"
       d="m 7.329,28.757 h 4.591 v 6.731 H 9.646 C 8.744,34.199 7.329,31.697 7.329,28.757 Z"
       style="fill:#ff0000;stroke:#8b0000;stroke-width:0.265" />
    <path
       d="M 7.403,29.934 H 11.92 M 7.563,30.863 H 11.92 M 7.817,31.817 H 11.92 M 8.207,32.883 H 11.92"
       id="path116"
       style="fill:none;stroke:#8b0000;stroke-width:0.265" />
    <path
       d="M 8.639,33.812 H 11.92 M 8.678,28.757 v 1.177"
       id="path118"
       style="fill:none;stroke:#8b0000;stroke-width:0.265" />
    <path
       d="m 10.168,29.934 v 0.929 m -0.771,0 v 0.954 m -0.192,3 h 2.715 m -1.225,-1.005 v 1.005"
       id="path120"
       style="fill:none;stroke:#8b0000;stroke-width:0.265" />
    <path
       d="m 9.563,32.883 v 0.929 m 0.745,-1.995 v 1.066"
       id="path122"
       style="fill:none;stroke:#8b0000;stroke-width:0.265" />
    <path
       id="use128"
       d="m 10.489,20.043 c 0.187,-0.118 0.038,-0.434 -0.326,-0.69 l -0.341,-0.24 -0.278,0.185 c -0.434,0.289 -0.557,0.407 -0.557,0.537 0,0.194 0.303,0.138 0.447,-0.083 L 9.567,19.549 9.8,19.831 c 0.231,0.281 0.465,0.352 0.689,0.21 z"
       style="fill:#f5c742" />
    <path
       id="use130"
       d="m 9.998,20.745 c 0.584,0.017 0.838,-0.089 0.803,-0.337 -0.022,-0.154 -0.074,-0.174 -0.45,-0.174 C 9.989,20.233 9.898,20.201 9.742,20.02 9.562,19.81 9.557,19.809 9.419,19.961 c -0.077,0.085 -0.222,0.154 -0.322,0.154 -0.229,0 -0.331,0.176 -0.285,0.491 0.035,0.238 0.043,0.242 0.363,0.184 0.18,-0.033 0.55,-0.053 0.823,-0.045 z"
       style="fill:#f5c742" />
    <path
       id="use132"
       d="M 8.616,21.379 C 8.601,20.838 8.508,20.668 8.314,20.828 c -0.067,0.056 -0.123,0.157 -0.123,0.224 0,0.102 0.368,0.813 0.421,0.813 0.009,0 0.011,-0.219 0.003,-0.486 z"
       style="fill:#f5c742" />
    <path
       id="use134"
       d="m 11.332,21.628 c 0.23,-0.445 0.12,-0.938 -0.188,-0.84 -0.138,0.044 -0.169,0.117 -0.169,0.396 0,0.188 -0.023,0.459 -0.052,0.6 -0.049,0.244 -0.043,0.253 0.118,0.167 a 0.88,0.88 0 0 0 0.29,-0.323 z"
       style="fill:#f5c742" />
    <path
       id="use136"
       d="m 10.052,21.514 c -0.049,-0.126 0.096,-0.444 0.202,-0.444 0.106,0 0.149,0.186 0.077,0.378 -0.075,0.202 -0.214,0.235 -0.279,0.066 z"
       style="fill:#f5c742" />
    <path
       id="use138"
       d="m 9.1,21.433 c -0.027,-0.107 -0.024,-0.234 0.006,-0.282 0.084,-0.137 0.279,0.064 0.279,0.287 0,0.252 -0.221,0.248 -0.284,-0.005 z"
       style="fill:#f5c742" />
    <path
       id="use140"
       d="M 10.159,24.834 C 10.176,24.782 10.058,24.594 9.897,24.416 9.683,24.179 9.594,24.001 9.568,23.754 9.526,23.363 9.681,23.11 10.286,22.577 c 0.405,-0.357 0.53,-0.665 0.531,-1.308 v -0.398 l -0.616,0.006 c -0.339,0.003 -0.802,0.034 -1.028,0.069 -0.347,0.053 -0.419,0.094 -0.461,0.261 -0.053,0.212 0.069,0.667 0.256,0.955 0.098,0.151 0.1,0.296 0.014,1 -0.094,0.767 -0.09,0.844 0.052,1.135 a 1.49,1.49 0 0 0 0.428,0.495 c 0.282,0.188 0.642,0.21 0.697,0.043 z"
       style="fill:#f5c742" />
    <path
       id="use142"
       d="m 9.025,26.081 c 0.546,0 0.58,-0.01 0.541,-0.161 C 9.505,25.687 9.198,25.473 8.841,25.416 8.387,25.343 8.319,25.221 8.384,24.588 8.466,23.787 8.609,23.749 8.542,24.546 l -0.054,0.651 0.23,0.049 0.406,0.085 c 0.097,0.02 0.263,0.129 0.368,0.242 0.123,0.133 0.211,0.175 0.246,0.118 0.03,-0.048 0.169,-0.089 0.308,-0.089 0.422,-0.002 0.465,-0.074 0.496,-0.833 0.027,-0.653 0.064,-0.834 0.152,-0.746 0.02,0.02 0.011,0.393 -0.02,0.829 l -0.056,0.792 -0.318,0.043 c -0.392,0.052 -0.517,0.126 -0.517,0.302 0,0.119 0.077,0.132 0.616,0.107 0.911,-0.042 1.049,-0.252 1.052,-1.605 0.002,-1.127 -0.23,-2.089 -0.533,-2.206 -0.069,-0.027 -0.325,0.172 -0.664,0.514 -0.494,0.5 -0.551,0.589 -0.551,0.872 0,0.244 0.062,0.387 0.278,0.64 0.29,0.338 0.346,0.559 0.183,0.722 C 9.899,25.298 9.162,24.898 8.893,24.344 8.733,24.013 8.729,23.957 8.824,23.218 8.966,22.105 8.887,21.957 8.299,22.236 7.866,22.442 7.814,22.628 7.75,24.231 l -0.058,1.445 0.251,0.251 c 0.156,0.156 0.298,0.233 0.375,0.204 0.068,-0.026 0.386,-0.048 0.707,-0.048 z"
       style="fill:#f5c742" />
    <path
       id="use144"
       d="m 10.737,26.718 c 0.088,-0.088 0.159,-0.228 0.159,-0.313 0,-0.145 -0.069,-0.154 -1.249,-0.155 -1.28,-0.002 -1.455,0.036 -1.455,0.315 0,0.25 0.246,0.307 1.332,0.31 0.95,0.002 1.07,-0.013 1.213,-0.157 z"
       style="fill:#f5c742" />
    <path
       id="use146"
       d="m 11.136,27.592 c 0.279,-0.143 0.555,-0.493 0.555,-0.705 0,-0.13 -0.404,-0.567 -0.524,-0.567 -0.062,0 -0.112,0.056 -0.112,0.125 0,0.069 -0.103,0.229 -0.229,0.355 -0.203,0.203 -0.225,0.271 -0.189,0.59 0.022,0.199 0.073,0.361 0.113,0.361 0.04,0 0.213,-0.072 0.386,-0.16 z"
       style="fill:#f5c742" />
    <path
       id="use148"
       d="m 10.547,27.637 c 0.024,-0.063 -0.004,-0.215 -0.063,-0.338 -0.089,-0.187 -0.163,-0.228 -0.456,-0.249 -0.383,-0.027 -0.481,0.052 -0.483,0.39 -0.002,0.284 0.045,0.312 0.532,0.312 0.298,0 0.44,-0.035 0.471,-0.114 z"
       style="fill:#f5c742" />
    <path
       id="use150"
       d="M 9.432,27.394 C 9.439,27.05 9.431,27.036 9.208,27.036 c -0.353,0 -0.539,0.133 -0.539,0.387 0,0.293 0.046,0.329 0.431,0.329 h 0.325 l 0.008,-0.358 z"
       style="fill:#f5c742" />
    <path
       id="use152"
       d="M 8.546,27.381 C 8.54,27.089 8.506,26.998 8.382,26.952 8.15,26.866 8.007,26.66 8.055,26.479 c 0.052,-0.2 0.004,-0.199 -0.326,0.002 -0.293,0.179 -0.527,0.64 -0.449,0.886 0.067,0.211 0.465,0.378 0.913,0.382 l 0.36,0.003 z"
       style="fill:#f5c742" />
    <path
       id="use158"
       d="m 9.807,19.274 c -0.251,0.363 0.658,0.907 0.428,0.351 -0.122,-0.141 -0.303,-0.213 -0.428,-0.351 z"
       style="fill:#ffeba3" />
    <path
       id="use160"
       d="m 9.473,20.098 c -0.539,0.121 -0.276,0.622 0.192,0.446 0.422,0.095 0.397,-0.17 0.057,-0.285 C 9.651,20.206 9.557,19.841 9.473,20.098 Z"
       style="fill:#ffeba3" />
    <path
       id="use162"
       d="m 9.423,21.201 c -0.027,0.65 -0.185,1.284 -0.308,1.918 -0.08,0.506 -0.183,1.149 0.374,1.428 0.227,0.152 0.5,0.161 0.174,-0.089 C 9.378,23.989 9.393,23.391 9.481,22.867 9.586,22.462 9.973,22.153 9.877,21.699 9.894,21.374 9.88,20.921 9.423,21.2 Z"
       style="fill:#ffeba3" />
    <path
       id="use164"
       d="m 8.394,22.651 c -0.549,0.112 -0.448,0.811 -0.527,1.23 0.056,0.582 -0.261,1.276 0.085,1.782 0.309,0.334 0.542,-0.009 0.212,-0.26 C 7.987,24.941 8.096,24.428 8.144,23.951 8.099,23.475 8.666,23.083 8.537,22.673 l -0.06,-0.017 z"
       style="fill:#ffeba3" />
    <path
       id="use166"
       d="m 10.996,24.103 c 0.119,0.557 0.07,1.16 -0.048,1.665 0.537,-0.394 0.224,-1.255 0.175,-1.832 -0.114,-0.381 0.198,-1.199 -0.26,-1.157 -0.495,0.512 0.266,0.847 0.133,1.324 z"
       style="fill:#ffeba3" />
    <path
       id="use168"
       d="m 10.253,23.221 c -0.408,0.115 -0.188,1.051 0.094,0.703 -0.019,-0.193 0.001,-0.636 -0.094,-0.703 z"
       style="fill:#ffeba3" />
    <path
       id="use170"
       d="M 7.802,26.693 C 7.663,26.916 7.312,27.244 7.638,27.475 7.95,27.672 8.29,27.258 7.885,27.097 7.81,26.973 7.892,26.812 7.802,26.693 Z"
       style="fill:#ffeba3" />
    <path
       id="use172"
       d="M 9.057,27.167 C 8.631,27.029 8.865,27.9 9.038,27.434 9.044,27.345 9.041,27.255 9.057,27.167 Z"
       style="fill:#ffeba3" />
    <path
       id="use174"
       d="M 9.894,27.186 C 9.488,27.175 9.872,27.932 9.968,27.44 9.984,27.354 10.007,27.217 9.894,27.186 Z"
       style="fill:#ffeba3" />
    <path
       id="use176"
       d="m 8.636,26.381 c 0.283,0.264 0.702,0.055 1.045,0.123 0.291,-0.087 0.53,0.14 0.723,0.222 0.268,-0.053 0.325,-0.492 -0.035,-0.377 -0.533,0.01 -1.066,0.105 -1.6,0.065 -0.045,-0.007 -0.09,-0.018 -0.133,-0.033 z"
       style="fill:#ffeba3" />
    <path
       id="use178"
       d="m 11.245,26.671 c -0.097,0.278 -0.371,0.482 -0.289,0.8 -0.48,-0.145 0.003,-0.632 0.145,-0.883 0.079,-0.226 0.162,-0.045 0.144,0.083 z"
       style="fill:#ffeba3" />
    <path
       id="use182"
       d="m 9.065,21.187 c -0.2,0.033 0.032,0.501 0.143,0.497 0.086,-0.003 0.049,-0.529 -0.143,-0.497 z"
       style="fill:#8a6807" />
    <path
       id="use184"
       d="m 10.299,21.121 c -0.16,-0.065 -0.258,0.438 -0.182,0.495 0.104,0.079 0.382,-0.414 0.182,-0.495 z"
       style="fill:#8a6807" />
    <path
       d="m 10.147,34.817 v 0.671"
       class="B H N"
       id="path188" />
    <path
       d="m 28.39388,28.263 h -4.714 v 0.493 h 4.714 z"
       class="P Q R W"
       id="path190"
       style="fill:#ff0000;stroke:#8b0000" />
    <path
       id="use192"
       d="m 28.27088,28.757 h -4.591 v 6.731 h 2.274 c 0.902,-1.289 2.317,-3.791 2.317,-6.731 z"
       style="fill:#ff0000;stroke:#8b0000;stroke-width:0.265" />
    <path
       d="m 28.19688,29.934 h -4.517 m 4.357,0.929 h -4.357 m 4.103,0.954 h -4.103 m 3.713,1.066 h -3.713"
       id="path196"
       style="fill:none;stroke:#8b0000;stroke-width:0.265" />
    <path
       d="m 26.96088,33.812 h -3.281 m 3.242,-5.055 v 1.177"
       id="path198"
       style="fill:none;stroke:#8b0000;stroke-width:0.265" />
    <path
       d="m 25.43188,29.934 v 0.929 m 0.771,0 v 0.954 m 0.192,3 h -2.715 m 1.225,-1.005 v 1.005"
       id="path200"
       style="fill:none;stroke:#8b0000;stroke-width:0.265" />
    <path
       d="m 26.03688,32.883 v 0.929 m -0.745,-1.995 v 1.066"
       id="path202"
       style="fill:none;stroke:#8b0000;stroke-width:0.265" />
    <path
       id="use206"
       d="m 25.11088,20.043 c -0.187,-0.118 -0.038,-0.434 0.326,-0.69 l 0.341,-0.24 0.278,0.185 c 0.434,0.289 0.557,0.407 0.557,0.537 0,0.194 -0.303,0.138 -0.447,-0.083 l -0.133,-0.203 -0.233,0.282 c -0.231,0.281 -0.465,0.352 -0.689,0.21 z"
       style="fill:#f5c742" />
    <path
       id="use208"
       d="m 25.60188,20.745 c -0.584,0.017 -0.838,-0.089 -0.803,-0.337 0.022,-0.154 0.074,-0.174 0.45,-0.174 0.362,-0.001 0.453,-0.033 0.609,-0.214 0.18,-0.21 0.185,-0.211 0.323,-0.059 0.077,0.085 0.222,0.154 0.322,0.154 0.229,0 0.331,0.176 0.285,0.491 -0.035,0.238 -0.043,0.242 -0.363,0.184 -0.18,-0.033 -0.55,-0.053 -0.823,-0.045 z"
       style="fill:#f5c742" />
    <path
       id="use210"
       d="m 26.98388,21.379 c 0.015,-0.541 0.108,-0.711 0.302,-0.551 0.067,0.056 0.123,0.157 0.123,0.224 0,0.102 -0.368,0.813 -0.421,0.813 -0.009,0 -0.011,-0.219 -0.003,-0.486 z"
       style="fill:#f5c742" />
    <path
       id="use212"
       d="m 24.26788,21.628 c -0.23,-0.445 -0.12,-0.938 0.188,-0.84 0.138,0.044 0.169,0.117 0.169,0.396 0,0.188 0.023,0.459 0.052,0.6 0.049,0.244 0.043,0.253 -0.118,0.167 a -0.88,0.88 0 0 1 -0.29,-0.323 z"
       style="fill:#f5c742" />
    <path
       id="use214"
       d="m 25.54788,21.514 c 0.049,-0.126 -0.096,-0.444 -0.202,-0.444 -0.106,0 -0.149,0.186 -0.077,0.378 0.075,0.202 0.214,0.235 0.279,0.066 z"
       style="fill:#f5c742" />
    <path
       id="use216"
       d="m 26.49988,21.433 c 0.027,-0.107 0.024,-0.234 -0.006,-0.282 -0.084,-0.137 -0.279,0.064 -0.279,0.287 0,0.252 0.221,0.248 0.284,-0.005 z"
       style="fill:#f5c742" />
    <path
       id="use218"
       d="m 25.44088,24.834 c -0.017,-0.052 0.101,-0.24 0.262,-0.418 0.214,-0.237 0.303,-0.415 0.329,-0.662 0.042,-0.391 -0.113,-0.644 -0.718,-1.177 -0.405,-0.357 -0.53,-0.665 -0.531,-1.308 v -0.398 l 0.616,0.006 c 0.339,0.003 0.802,0.034 1.028,0.069 0.347,0.053 0.419,0.094 0.461,0.261 0.053,0.212 -0.069,0.667 -0.256,0.955 -0.098,0.151 -0.1,0.296 -0.014,1 0.094,0.767 0.09,0.844 -0.052,1.135 a -1.49,1.49 0 0 1 -0.428,0.495 c -0.282,0.188 -0.642,0.21 -0.697,0.043 z"
       style="fill:#f5c742" />
    <path
       id="use220"
       d="m 26.57488,26.081 c -0.546,0 -0.58,-0.01 -0.541,-0.161 0.061,-0.233 0.368,-0.447 0.725,-0.504 0.454,-0.073 0.522,-0.195 0.457,-0.828 -0.082,-0.801 -0.225,-0.839 -0.158,-0.042 l 0.054,0.651 -0.23,0.049 -0.406,0.085 c -0.097,0.02 -0.263,0.129 -0.368,0.242 -0.123,0.133 -0.211,0.175 -0.246,0.118 -0.03,-0.048 -0.169,-0.089 -0.308,-0.089 -0.422,-0.002 -0.465,-0.074 -0.496,-0.833 -0.027,-0.653 -0.064,-0.834 -0.152,-0.746 -0.02,0.02 -0.011,0.393 0.02,0.829 l 0.056,0.792 0.318,0.043 c 0.392,0.052 0.517,0.126 0.517,0.302 0,0.119 -0.077,0.132 -0.616,0.107 -0.911,-0.042 -1.049,-0.252 -1.052,-1.605 -0.002,-1.127 0.23,-2.089 0.533,-2.206 0.069,-0.027 0.325,0.172 0.664,0.514 0.494,0.5 0.551,0.589 0.551,0.872 0,0.244 -0.062,0.387 -0.278,0.64 -0.29,0.338 -0.346,0.559 -0.183,0.722 0.265,0.265 1.002,-0.135 1.271,-0.689 0.16,-0.331 0.164,-0.387 0.069,-1.126 -0.142,-1.113 -0.063,-1.261 0.525,-0.982 0.433,0.206 0.485,0.392 0.549,1.995 l 0.058,1.445 -0.251,0.251 c -0.156,0.156 -0.298,0.233 -0.375,0.204 -0.068,-0.026 -0.386,-0.048 -0.707,-0.048 z"
       style="fill:#f5c742" />
    <path
       id="use222"
       d="m 24.86288,26.718 c -0.088,-0.088 -0.159,-0.228 -0.159,-0.313 0,-0.145 0.069,-0.154 1.249,-0.155 1.28,-0.002 1.455,0.036 1.455,0.315 0,0.25 -0.246,0.307 -1.332,0.31 -0.95,0.002 -1.07,-0.013 -1.213,-0.157 z"
       style="fill:#f5c742" />
    <path
       id="use224"
       d="m 24.46388,27.592 c -0.279,-0.143 -0.555,-0.493 -0.555,-0.705 0,-0.13 0.404,-0.567 0.524,-0.567 0.062,0 0.112,0.056 0.112,0.125 0,0.069 0.103,0.229 0.229,0.355 0.203,0.203 0.225,0.271 0.189,0.59 -0.022,0.199 -0.073,0.361 -0.113,0.361 -0.04,0 -0.213,-0.072 -0.386,-0.16 z"
       style="fill:#f5c742" />
    <path
       id="use226"
       d="m 25.05288,27.637 c -0.024,-0.063 0.004,-0.215 0.063,-0.338 0.089,-0.187 0.163,-0.228 0.456,-0.249 0.383,-0.027 0.481,0.052 0.483,0.39 0.002,0.284 -0.045,0.312 -0.532,0.312 -0.298,0 -0.44,-0.035 -0.471,-0.114 z"
       style="fill:#f5c742" />
    <path
       id="use228"
       d="m 26.16788,27.394 c -0.007,-0.344 0.001,-0.358 0.224,-0.358 0.353,0 0.539,0.133 0.539,0.387 0,0.293 -0.046,0.329 -0.431,0.329 h -0.325 l -0.008,-0.358 z"
       style="fill:#f5c742" />
    <path
       id="use230"
       d="m 27.05388,27.381 c 0.006,-0.292 0.04,-0.383 0.164,-0.429 0.232,-0.086 0.375,-0.292 0.327,-0.473 -0.052,-0.2 -0.004,-0.199 0.326,0.002 0.293,0.179 0.527,0.64 0.449,0.886 -0.067,0.211 -0.465,0.378 -0.913,0.382 l -0.36,0.003 z"
       style="fill:#f5c742" />
    <path
       d="m 28.49788,27.899 h -5.228 v 0.363 h 5.228 z"
       fill="#ff0000"
       stroke-width="0.16"
       class="B P Q R"
       id="path234" />
    <path
       id="use236"
       d="m 25.79288,19.274 c 0.251,0.363 -0.658,0.907 -0.428,0.351 0.122,-0.141 0.303,-0.213 0.428,-0.351 z"
       style="fill:#ffeba3" />
    <path
       id="use238"
       d="m 26.12688,20.098 c 0.539,0.121 0.276,0.622 -0.192,0.446 -0.422,0.095 -0.397,-0.17 -0.057,-0.285 0.071,-0.053 0.165,-0.418 0.249,-0.161 z"
       style="fill:#ffeba3" />
    <path
       id="use240"
       d="m 26.17688,21.201 c 0.027,0.65 0.185,1.284 0.308,1.918 0.08,0.506 0.183,1.149 -0.374,1.428 -0.227,0.152 -0.5,0.161 -0.174,-0.089 0.285,-0.469 0.27,-1.067 0.182,-1.591 -0.105,-0.405 -0.492,-0.714 -0.396,-1.168 -0.017,-0.325 -0.003,-0.778 0.454,-0.499 z"
       style="fill:#ffeba3" />
    <path
       id="use242"
       d="m 27.20588,22.651 c 0.549,0.112 0.448,0.811 0.527,1.23 -0.056,0.582 0.261,1.276 -0.085,1.782 -0.309,0.334 -0.542,-0.009 -0.212,-0.26 0.177,-0.462 0.068,-0.975 0.02,-1.452 0.045,-0.476 -0.522,-0.868 -0.393,-1.278 l 0.06,-0.017 z"
       style="fill:#ffeba3" />
    <path
       id="use244"
       d="m 24.60388,24.103 c -0.119,0.557 -0.07,1.16 0.048,1.665 -0.537,-0.394 -0.224,-1.255 -0.175,-1.832 0.114,-0.381 -0.198,-1.199 0.26,-1.157 0.495,0.512 -0.266,0.847 -0.133,1.324 z"
       style="fill:#ffeba3" />
    <path
       id="use246"
       d="m 25.34688,23.221 c 0.408,0.115 0.188,1.051 -0.094,0.703 0.019,-0.193 -0.001,-0.636 0.094,-0.703 z"
       style="fill:#ffeba3" />
    <path
       id="use248"
       d="m 27.79788,26.693 c 0.139,0.223 0.49,0.551 0.164,0.782 -0.312,0.197 -0.652,-0.217 -0.247,-0.378 0.075,-0.124 -0.007,-0.285 0.083,-0.404 z"
       style="fill:#ffeba3" />
    <path
       id="use250"
       d="m 26.54288,27.167 c 0.426,-0.138 0.192,0.733 0.019,0.267 -0.006,-0.089 -0.003,-0.179 -0.019,-0.267 z"
       style="fill:#ffeba3" />
    <path
       id="use252"
       d="m 25.70588,27.186 c 0.406,-0.011 0.022,0.746 -0.074,0.254 -0.016,-0.086 -0.039,-0.223 0.074,-0.254 z"
       style="fill:#ffeba3" />
    <path
       id="use254"
       d="m 26.96388,26.381 c -0.283,0.264 -0.702,0.055 -1.045,0.123 -0.291,-0.087 -0.53,0.14 -0.723,0.222 -0.268,-0.053 -0.325,-0.492 0.035,-0.377 0.533,0.01 1.066,0.105 1.6,0.065 0.045,-0.007 0.09,-0.018 0.133,-0.033 z"
       style="fill:#ffeba3" />
    <path
       id="use256"
       d="m 24.35488,26.671 c 0.097,0.278 0.371,0.482 0.289,0.8 0.48,-0.145 -0.003,-0.632 -0.145,-0.883 -0.079,-0.226 -0.162,-0.045 -0.144,0.083 z"
       style="fill:#ffeba3" />
    <path
       id="use260"
       d="m 26.53488,21.187 c 0.2,0.033 -0.032,0.501 -0.143,0.497 -0.086,-0.003 -0.049,-0.529 0.143,-0.497 z"
       style="fill:#8a6807" />
    <path
       id="use262"
       d="m 25.30088,21.121 c 0.16,-0.065 0.258,0.438 0.182,0.495 -0.104,0.079 -0.382,-0.414 -0.182,-0.495 z"
       style="fill:#8a6807" />
    <path
       d="m 25.45288,34.817 v 0.671"
       class="B H N"
       id="path266" />
  </g>
  <g
     id="g2208">
    <path
       d="m 28.917,35.116 c -0.427,0.458 -0.796,0.933 -1.636,1.264 0.088,0.536 0.244,0.902 0.595,0.781 0.418,-0.676 0.845,-1.344 1.586,-1.698 z"
       class="E K L"
       id="path270" />
    <g
       transform="matrix(0.656652,-0.639555,0.639555,0.656652,-190.8269,2.69943)"
       id="g280">
      <g
         class="I"
         id="g276">
        <path
           id="use272"
           d="m 158.882,178.409 c -0.046,-0.535 0.463,-0.628 0.849,-0.403 0.598,-0.644 0.932,0.058 0.731,0.31 0.636,0.115 0.342,0.738 0.05,0.712 l -1.326,0.297 z"
           style="fill:#c8d3d9;stroke:#7c909b" />
        <path
           id="use274"
           d="m 159.724,178.514 c -0.273,0.018 -0.528,0.34 -0.83,-0.149 -0.521,0.865 -0.356,1.578 -0.31,2.317 0.782,-0.317 1.38,-0.95 1.933,-1.66 -0.333,-0.106 -0.882,-0.01 -0.793,-0.508 z"
           style="fill:#018f50;stroke:#005b31" />
      </g>
      <path
         id="use278"
         d="m 160.028,178.081 c -0.203,0.056 -0.408,0.167 -0.618,0.073 -0.186,-0.001 -0.202,0.228 0.008,0.2 0.245,-0.026 0.552,-0.075 0.652,0.218 0.051,0.147 0.484,0.198 0.333,-0.006 -0.19,-0.081 -0.257,-0.268 -0.237,-0.461 -0.016,-0.065 -0.096,-0.043 -0.138,-0.024 z"
         style="fill:#ffffff" />
    </g>
    <g
       transform="matrix(0.728842,-0.489107,0.489107,0.728842,-175.27951,-34.11436)"
       class="S"
       id="g292">
      <path
         id="use282"
         d="m 158.087,183.17 c -0.246,-0.608 -0.555,-1.189 -0.26,-2.02 0.616,0.296 0.479,0.129 0.706,0.186 l 0.087,-1.437 c 0.09,0.222 -0.104,0.192 0.273,0.669 0.671,-0.704 1.378,-1.342 2.342,-1.524 l -1.103,1.512 c 0.355,-0.051 0.564,0.094 0.83,0.161 -0.332,0.428 -0.836,0.684 -1.363,0.917 l 0.892,-0.025 c -0.192,0.654 -0.171,1.348 -2.404,1.561 z"
         style="fill:#018f50;stroke-width:0.15" />
      <g
         class="H K"
         id="g290">
        <path
           id="use284"
           d="m 158.113,181.624 0.062,1.276 1.747,-0.793" />
        <path
           id="use286"
           d="m 158.77,180.98 -0.508,1.896 1.896,-1.921" />
        <path
           id="use288"
           d="m 158.275,182.839 c 0.678,-1.197 1.348,-2.41 2.218,-3.222" />
      </g>
    </g>
    <g
       transform="rotate(-36.866013,-148.53491,290.69468)"
       class="L"
       id="g304">
      <path
         id="use294"
         d="m 153.877,181.708 c 0.059,0.938 0.624,1.2 0.999,1.717 0.565,-0.509 1.169,-0.998 1.419,-1.665 -0.271,0 -0.521,-0.092 -0.859,0.193 0.703,-0.433 0.852,-1.245 1.139,-1.963 l -0.718,0.403 c -0.002,-0.454 -0.198,-0.819 -0.456,-1.157 -0.498,0.674 -0.362,1.229 -0.526,1.84 -0.232,-0.264 -0.481,-0.33 -0.736,-0.315 0.184,0.397 0.05,0.794 0.561,1.192 z"
         style="fill:#018f50;stroke-width:0.15" />
      <g
         class="H K"
         id="g302">
        <path
           id="use296"
           d="m 154.247,182.194 0.694,0.682 0.88,-0.768" />
        <path
           id="use298"
           d="m 154.892,183.421 c 0.362,-1.506 0.422,-2.778 0.483,-3.618" />
        <path
           id="use300"
           d="m 154.452,181.135 0.695,0.779 0.835,-1.163" />
      </g>
    </g>
    <g
       transform="matrix(0.656652,-0.639555,0.639555,0.656652,-189.5652,6.97517)"
       id="g314">
      <g
         class="I"
         id="g310">
        <path
           id="use306"
           d="m 158.882,178.409 c -0.046,-0.535 0.463,-0.628 0.849,-0.403 0.598,-0.644 0.932,0.058 0.731,0.31 0.636,0.115 0.342,0.738 0.05,0.712 l -1.326,0.297 z"
           style="fill:#c8d3d9;stroke:#7c909b" />
        <path
           id="use308"
           d="m 159.724,178.514 c -0.273,0.018 -0.528,0.34 -0.83,-0.149 -0.521,0.865 -0.356,1.578 -0.31,2.317 0.782,-0.317 1.38,-0.95 1.933,-1.66 -0.333,-0.106 -0.882,-0.01 -0.793,-0.508 z"
           style="fill:#018f50;stroke:#005b31" />
      </g>
      <path
         id="use312"
         d="m 160.028,178.081 c -0.203,0.056 -0.408,0.167 -0.618,0.073 -0.186,-0.001 -0.202,0.228 0.008,0.2 0.245,-0.026 0.552,-0.075 0.652,0.218 0.051,0.147 0.484,0.198 0.333,-0.006 -0.19,-0.081 -0.257,-0.268 -0.237,-0.461 -0.016,-0.065 -0.096,-0.043 -0.138,-0.024 z"
         style="fill:#ffffff" />
    </g>
    <g
       transform="matrix(0.772348,-0.518303,0.518303,0.772348,-186.30995,-33.1224)"
       class="S"
       id="g326">
      <path
         id="use316"
         d="m 158.087,183.17 c -0.246,-0.608 -0.555,-1.189 -0.26,-2.02 0.616,0.296 0.479,0.129 0.706,0.186 l 0.087,-1.437 c 0.09,0.222 -0.104,0.192 0.273,0.669 0.671,-0.704 1.378,-1.342 2.342,-1.524 l -1.103,1.512 c 0.355,-0.051 0.564,0.094 0.83,0.161 -0.332,0.428 -0.836,0.684 -1.363,0.917 l 0.892,-0.025 c -0.192,0.654 -0.171,1.348 -2.404,1.561 z"
         style="fill:#018f50;stroke-width:0.15" />
      <g
         class="H K"
         id="g324">
        <path
           id="use318"
           d="m 158.113,181.624 0.062,1.276 1.747,-0.793" />
        <path
           id="use320"
           d="m 158.77,180.98 -0.508,1.896 1.896,-1.921" />
        <path
           id="use322"
           d="m 158.275,182.839 c 0.678,-1.197 1.348,-2.41 2.218,-3.222" />
      </g>
    </g>
    <g
       transform="rotate(-36.866013,-141.64291,290.83669)"
       class="L"
       id="g338">
      <path
         id="use328"
         d="m 153.877,181.708 c 0.059,0.938 0.624,1.2 0.999,1.717 0.565,-0.509 1.169,-0.998 1.419,-1.665 -0.271,0 -0.521,-0.092 -0.859,0.193 0.703,-0.433 0.852,-1.245 1.139,-1.963 l -0.718,0.403 c -0.002,-0.454 -0.198,-0.819 -0.456,-1.157 -0.498,0.674 -0.362,1.229 -0.526,1.84 -0.232,-0.264 -0.481,-0.33 -0.736,-0.315 0.184,0.397 0.05,0.794 0.561,1.192 z"
         style="fill:#018f50;stroke-width:0.15" />
      <g
         class="H K"
         id="g336">
        <path
           id="use330"
           d="m 154.247,182.194 0.694,0.682 0.88,-0.768" />
        <path
           id="use332"
           d="m 154.892,183.421 c 0.362,-1.506 0.422,-2.778 0.483,-3.618" />
        <path
           id="use334"
           d="m 154.452,181.135 0.695,0.779 0.835,-1.163" />
      </g>
    </g>
    <g
       transform="rotate(-14.904988,-487.92061,591.93084)"
       id="g348">
      <g
         class="I"
         id="g344">
        <path
           id="use340"
           d="m 158.882,178.409 c -0.046,-0.535 0.463,-0.628 0.849,-0.403 0.598,-0.644 0.932,0.058 0.731,0.31 0.636,0.115 0.342,0.738 0.05,0.712 l -1.326,0.297 z"
           style="fill:#c8d3d9;stroke:#7c909b" />
        <path
           d="m 159.724,178.514 c -0.273,0.018 -0.528,0.34 -0.83,-0.149 -0.521,0.865 -0.153,1.683 -0.107,2.422 0.782,-0.317 1.177,-1.055 1.73,-1.766 -0.333,-0.106 -0.882,-0.01 -0.793,-0.508 z"
           class="E L"
           id="path342" />
      </g>
      <path
         id="use346"
         d="m 160.028,178.081 c -0.203,0.056 -0.408,0.167 -0.618,0.073 -0.186,-0.001 -0.202,0.228 0.008,0.2 0.245,-0.026 0.552,-0.075 0.652,0.218 0.051,0.147 0.484,0.198 0.333,-0.006 -0.19,-0.081 -0.257,-0.268 -0.237,-0.461 -0.016,-0.065 -0.096,-0.043 -0.138,-0.024 z"
         style="fill:#ffffff" />
    </g>
    <g
       transform="matrix(0.930766,-0.30641,0.306411,0.930766,-169.06822,-92.272043)"
       class="L"
       id="g360">
      <path
         id="use350"
         d="m 153.877,181.708 c 0.059,0.938 0.624,1.2 0.999,1.717 0.565,-0.509 1.169,-0.998 1.419,-1.665 -0.271,0 -0.521,-0.092 -0.859,0.193 0.703,-0.433 0.852,-1.245 1.139,-1.963 l -0.718,0.403 c -0.002,-0.454 -0.198,-0.819 -0.456,-1.157 -0.498,0.674 -0.362,1.229 -0.526,1.84 -0.232,-0.264 -0.481,-0.33 -0.736,-0.315 0.184,0.397 0.05,0.794 0.561,1.192 z"
         style="fill:#018f50;stroke-width:0.15" />
      <g
         class="H K"
         id="g358">
        <path
           id="use352"
           d="m 154.247,182.194 0.694,0.682 0.88,-0.768" />
        <path
           id="use354"
           d="m 154.892,183.421 c 0.362,-1.506 0.422,-2.778 0.483,-3.618" />
        <path
           id="use356"
           d="m 154.452,181.135 0.695,0.779 0.835,-1.163" />
      </g>
    </g>
    <g
       transform="matrix(0.848291,-0.258035,0.258035,0.848291,-150.0015,-84.029925)"
       class="S"
       id="g372">
      <path
         id="use362"
         d="m 158.087,183.17 c -0.246,-0.608 -0.555,-1.189 -0.26,-2.02 0.616,0.296 0.479,0.129 0.706,0.186 l 0.087,-1.437 c 0.09,0.222 -0.104,0.192 0.273,0.669 0.671,-0.704 1.378,-1.342 2.342,-1.524 l -1.103,1.512 c 0.355,-0.051 0.564,0.094 0.83,0.161 -0.332,0.428 -0.836,0.684 -1.363,0.917 l 0.892,-0.025 c -0.192,0.654 -0.171,1.348 -2.404,1.561 z"
         style="fill:#018f50;stroke-width:0.15" />
      <g
         class="H K"
         id="g370">
        <path
           id="use364"
           d="m 158.113,181.624 0.062,1.276 1.747,-0.793" />
        <path
           id="use366"
           d="m 158.77,180.98 -0.508,1.896 1.896,-1.921" />
        <path
           id="use368"
           d="m 158.275,182.839 c 0.678,-1.197 1.348,-2.41 2.218,-3.222" />
      </g>
    </g>
    <g
       transform="rotate(-16.918976,-413.51052,534.26054)"
       class="S"
       id="g384">
      <path
         id="use374"
         d="m 158.087,183.17 c -0.246,-0.608 -0.555,-1.189 -0.26,-2.02 0.616,0.296 0.479,0.129 0.706,0.186 l 0.087,-1.437 c 0.09,0.222 -0.104,0.192 0.273,0.669 0.671,-0.704 1.378,-1.342 2.342,-1.524 l -1.103,1.512 c 0.355,-0.051 0.564,0.094 0.83,0.161 -0.332,0.428 -0.836,0.684 -1.363,0.917 l 0.892,-0.025 c -0.192,0.654 -0.171,1.348 -2.404,1.561 z"
         style="fill:#018f50;stroke-width:0.15" />
      <g
         class="H K"
         id="g382">
        <path
           id="use376"
           d="m 158.113,181.624 0.062,1.276 1.747,-0.793" />
        <path
           id="use378"
           d="m 158.77,180.98 -0.508,1.896 1.896,-1.921" />
        <path
           id="use380"
           d="m 158.275,182.839 c 0.678,-1.197 1.348,-2.41 2.218,-3.222" />
      </g>
    </g>
    <g
       transform="matrix(0.930766,-0.30641,0.306411,0.930766,-169.19088,-90.782543)"
       class="L"
       id="g396">
      <path
         id="use386"
         d="m 153.877,181.708 c 0.059,0.938 0.624,1.2 0.999,1.717 0.565,-0.509 1.169,-0.998 1.419,-1.665 -0.271,0 -0.521,-0.092 -0.859,0.193 0.703,-0.433 0.852,-1.245 1.139,-1.963 l -0.718,0.403 c -0.002,-0.454 -0.198,-0.819 -0.456,-1.157 -0.498,0.674 -0.362,1.229 -0.526,1.84 -0.232,-0.264 -0.481,-0.33 -0.736,-0.315 0.184,0.397 0.05,0.794 0.561,1.192 z"
         style="fill:#018f50;stroke-width:0.15" />
      <g
         class="H K"
         id="g394">
        <path
           id="use388"
           d="m 154.247,182.194 0.694,0.682 0.88,-0.768" />
        <path
           id="use390"
           d="m 154.892,183.421 c 0.362,-1.506 0.422,-2.778 0.483,-3.618" />
        <path
           id="use392"
           d="m 154.452,181.135 0.695,0.779 0.835,-1.163" />
      </g>
    </g>
    <g
       class="I"
       id="g402"
       transform="translate(-87.2,-147.239)">
      <path
         id="use398"
         d="m 117.208,178.409 c -0.046,-0.535 0.463,-0.628 0.849,-0.403 0.598,-0.644 0.932,0.058 0.731,0.31 0.636,0.115 0.342,0.738 0.05,0.712 l -1.326,0.297 z"
         style="fill:#c8d3d9;stroke:#7c909b" />
      <path
         id="use400"
         d="m 118.05,178.514 c -0.273,0.018 -0.528,0.34 -0.83,-0.149 -0.521,0.865 -0.356,1.578 -0.31,2.317 0.782,-0.317 1.38,-0.95 1.933,-1.66 -0.333,-0.106 -0.882,-0.01 -0.793,-0.508 z"
         style="fill:#018f50;stroke:#005b31" />
    </g>
    <path
       id="use404"
       d="m 31.154,30.842 c -0.203,0.056 -0.408,0.167 -0.618,0.073 -0.186,-10e-4 -0.202,0.228 0.008,0.2 0.245,-0.026 0.552,-0.075 0.652,0.218 0.051,0.147 0.484,0.198 0.333,-0.006 -0.19,-0.081 -0.257,-0.268 -0.237,-0.461 -0.016,-0.065 -0.096,-0.043 -0.138,-0.024 z"
       style="fill:#ffffff" />
    <g
       class="S"
       id="g416"
       transform="translate(-87.2,-147.239)">
      <path
         id="use406"
         d="m 116.343,183.17 c -0.246,-0.608 -0.555,-1.189 -0.26,-2.02 0.616,0.296 0.479,0.129 0.706,0.186 l 0.087,-1.437 c 0.09,0.222 -0.104,0.192 0.273,0.669 0.671,-0.704 1.378,-1.342 2.342,-1.524 l -1.103,1.512 c 0.355,-0.051 0.564,0.094 0.83,0.161 -0.332,0.428 -0.836,0.684 -1.363,0.917 l 0.892,-0.025 c -0.192,0.654 -0.171,1.348 -2.404,1.561 z"
         style="fill:#018f50;stroke-width:0.15" />
      <g
         class="H K"
         id="g414">
        <path
           id="use408"
           d="m 116.369,181.624 0.062,1.276 1.747,-0.793" />
        <path
           id="use410"
           d="m 117.026,180.98 -0.508,1.896 1.896,-1.921" />
        <path
           id="use412"
           d="m 116.531,182.839 c 0.678,-1.197 1.348,-2.41 2.218,-3.222" />
      </g>
    </g>
    <g
       class="L"
       id="g428"
       transform="translate(-87.2,-147.239)">
      <path
         id="use418"
         d="m 115.13,181.69 c 0.059,0.938 0.624,1.2 0.999,1.717 0.565,-0.509 1.169,-0.998 1.419,-1.665 -0.271,0 -0.521,-0.092 -0.859,0.193 0.703,-0.433 0.852,-1.245 1.139,-1.963 l -0.718,0.403 c -0.002,-0.454 -0.198,-0.819 -0.456,-1.157 -0.498,0.674 -0.362,1.229 -0.526,1.84 -0.232,-0.264 -0.481,-0.33 -0.736,-0.315 0.184,0.397 0.05,0.794 0.561,1.192 z"
         style="fill:#018f50;stroke-width:0.15" />
      <g
         class="H K"
         id="g426">
        <path
           id="use420"
           d="m 115.5,182.176 0.694,0.682 0.88,-0.768" />
        <path
           id="use422"
           d="m 116.145,183.403 c 0.362,-1.506 0.422,-2.778 0.483,-3.618" />
        <path
           id="use424"
           d="m 115.705,181.117 0.695,0.779 0.835,-1.163" />
      </g>
    </g>
  </g>
  <g
     id="g2067">
    <g
       transform="translate(-133.87,-147.239)"
       stroke-width="0.079"
       id="g460">
      <path
         d="m 145.518,159.873 0.501,1.244 a 13.36,13.36 0 0 0 -3.928,2.466 l -0.92,-1.274 c 1.72,-1.343 3.258,-2.328 4.346,-2.437 z"
         fill="url(#E)"
         class="U"
         id="path430"
         style="fill:url(#E);" />
      <path
         d="m 145.518,159.873 0.251,0.622 c -1.787,0.738 -3.137,1.575 -4.137,2.451 l -0.46,-0.637 c 1.72,-1.343 3.258,-2.328 4.346,-2.437 z"
         fill="url(#D)"
         class="B"
         id="path432"
         style="fill:url(#D);" />
      <path
         d="m 143.851,159.704 0.582,1.388 1.586,0.025 -0.501,-1.244 z"
         class="U V"
         id="path434" />
      <path
         d="m 143.851,159.704 0.582,1.388 c 0.456,-0.201 1.654,-0.77 4.098,-1.254 l -0.418,-1.367 c -2.084,0.252 -3.41,0.892 -4.263,1.233 z"
         fill="url(#G)"
         class="O"
         id="path436"
         style="fill:url(#G);" />
      <path
         d="m 143.851,159.704 0.291,0.694 c 0.456,-0.201 1.736,-0.759 4.18,-1.243 l -0.209,-0.683 c -2.084,0.252 -3.41,0.892 -4.263,1.233 z"
         fill="url(#F)"
         class="B"
         id="path438"
         style="fill:url(#F);" />
      <path
         d="m 146.045,157.933 0.397,1.586 2.091,0.32 -0.418,-1.367 z"
         class="O P V"
         id="path440" />
      <path
         d="m 157.822,159.873 -0.501,1.244 a 13.36,13.36 0 0 1 3.928,2.466 l 0.92,-1.274 c -1.72,-1.343 -3.258,-2.328 -4.346,-2.437 z"
         fill="url(#J)"
         class="U"
         id="path442"
         style="fill:url(#J);" />
      <path
         d="m 157.822,159.873 -0.251,0.622 c 1.787,0.738 3.137,1.575 4.137,2.451 l 0.46,-0.637 c -1.72,-1.343 -3.258,-2.328 -4.346,-2.437 z"
         fill="url(#K)"
         class="B"
         id="path444"
         style="fill:url(#K);" />
      <path
         d="m 159.489,159.704 -0.582,1.388 -1.586,0.025 0.501,-1.244 z"
         class="U V"
         id="path446" />
      <path
         d="m 159.489,159.704 -0.582,1.388 c -0.456,-0.201 -1.654,-0.77 -4.098,-1.254 l 0.418,-1.367 c 2.084,0.252 3.41,0.892 4.263,1.233 z"
         fill="url(#I)"
         class="O"
         id="path448"
         style="fill:url(#I);" />
      <path
         d="m 159.489,159.704 -0.291,0.694 c -0.456,-0.201 -1.736,-0.759 -4.18,-1.243 l 0.209,-0.683 c 2.084,0.252 3.41,0.892 4.263,1.233 z"
         fill="url(#H)"
         class="B"
         id="path450"
         style="fill:url(#H);" />
      <g
         class="O P"
         id="g456">
        <path
           d="m 157.296,157.933 -0.397,1.586 -2.091,0.32 0.418,-1.367 z"
           class="V"
           id="path452" />
        <path
           d="m 151.67,157.078 c -1.74,0.059 -3.497,0.148 -5.625,0.855 l 0.396,1.586 c 1.218,-0.395 2.141,-0.845 5.229,-0.892 3.088,0.047 4.011,0.497 5.229,0.892 l 0.396,-1.586 c -2.128,-0.707 -3.886,-0.796 -5.625,-0.855 z"
           class="M"
           id="path454" />
      </g>
      <path
         d="m 151.67,157.078 c -1.74,0.059 -3.497,0.148 -5.625,0.855 l 0.198,0.793 c 1.218,-0.395 2.339,-0.827 5.427,-0.874 3.088,0.047 4.209,0.479 5.427,0.874 l 0.198,-0.793 c -2.128,-0.707 -3.886,-0.796 -5.625,-0.855 z"
         fill="#ff0000"
         class="B P"
         id="path458" />
    </g>
  </g>
  <g
     id="g2126">
    <g
       class="C F"
       id="g472"
       transform="translate(-87.2,-147.239)">
      <path
         d="m 93.325,183.303 c -0.342,-0.485 -1.015,-0.742 -0.885,-1.551 0.02,-0.739 -0.332,-0.6 -0.546,-1.017 -0.981,-2.359 -2.134,-4.914 0.485,-10.295 0.442,-1.246 0.781,-2.414 1.091,-3.561 l 0.149,0.037 c -0.254,1.231 -0.593,2.424 -1.078,3.556 -0.606,1.754 -1.41,3.332 -1.475,5.464 -0.037,1.21 -0.214,1.8 1.203,4.786 0.52,0.355 0.448,0.91 0.618,1.223 0.375,0.692 0.489,0.619 0.718,0.909 z"
         class="K"
         id="path468" />
      <path
         id="use470"
         d="m 89.451,180.508 c 1.186,-0.037 2.304,0.493 3.303,2.041 -2.108,0.166 -2.782,-0.874 -3.303,-2.041 z"
         style="stroke-width:0.165" />
    </g>
    <path
       id="use474"
       d="M 3.434,34.005 C 3.875,34.512 4.3,35.024 5.423,35.258 4.631,34.944 3.993,34.506 3.434,34.005 Z"
       style="fill:#a07843" />
    <path
       id="use476"
       d="m 2.742,33.496 c 0.648,0.162 1.533,0.461 1.849,1.222 -0.434,-0.279 -0.802,-0.731 -1.27,-0.819 0.287,0.566 0.715,0.835 1.108,1.135 C 3.808,34.91 3.407,34.682 2.742,33.496 Z"
       style="fill:#ffeba3" />
    <g
       transform="matrix(0.849636,0.176662,-0.176662,0.849636,-81.015202,-146.2431)"
       id="g484">
      <path
         id="use478"
         d="m 135.433,180.508 c 1.186,-0.037 2.304,0.493 3.303,2.041 -2.108,0.166 -2.782,-0.874 -3.303,-2.041 z"
         style="fill:#f5c742;stroke:#a07843;stroke-width:0.165" />
      <path
         id="use480"
         d="m 136.616,181.244 c 0.441,0.507 0.866,1.019 1.989,1.253 -0.792,-0.314 -1.43,-0.752 -1.989,-1.253 z"
         style="fill:#a07843" />
      <path
         id="use482"
         d="m 135.924,180.735 c 0.648,0.162 1.533,0.461 1.849,1.222 -0.434,-0.279 -0.802,-0.731 -1.27,-0.819 0.287,0.566 0.715,0.835 1.108,1.135 -0.621,-0.124 -1.022,-0.352 -1.687,-1.538 z"
         style="fill:#ffeba3" />
    </g>
    <g
       transform="matrix(0.6638,0.558981,-0.558981,0.6638,13.52926,-168.11241)"
       id="g492">
      <path
         id="use486"
         d="m 135.433,180.508 c 1.186,-0.037 2.304,0.493 3.303,2.041 -2.108,0.166 -2.782,-0.874 -3.303,-2.041 z"
         style="fill:#f5c742;stroke:#a07843;stroke-width:0.165" />
      <path
         id="use488"
         d="m 136.616,181.244 c 0.441,0.507 0.866,1.019 1.989,1.253 -0.792,-0.314 -1.43,-0.752 -1.989,-1.253 z"
         style="fill:#a07843" />
      <path
         id="use490"
         d="m 135.924,180.735 c 0.648,0.162 1.533,0.461 1.849,1.222 -0.434,-0.279 -0.802,-0.731 -1.27,-0.819 0.287,0.566 0.715,0.835 1.108,1.135 -0.621,-0.124 -1.022,-0.352 -1.687,-1.538 z"
         style="fill:#ffeba3" />
    </g>
    <g
       transform="matrix(0.53061,0.609971,-0.609971,0.53061,41.34417,-153.75169)"
       id="g500">
      <path
         id="use494"
         d="m 135.433,180.508 c 1.186,-0.037 2.304,0.493 3.303,2.041 -2.108,0.166 -2.782,-0.874 -3.303,-2.041 z"
         style="fill:#f5c742;stroke:#a07843;stroke-width:0.165" />
      <path
         id="use496"
         d="m 136.616,181.244 c 0.441,0.507 0.866,1.019 1.989,1.253 -0.792,-0.314 -1.43,-0.752 -1.989,-1.253 z"
         style="fill:#a07843" />
      <path
         id="use498"
         d="m 135.924,180.735 c 0.648,0.162 1.533,0.461 1.849,1.222 -0.434,-0.279 -0.802,-0.731 -1.27,-0.819 0.287,0.566 0.715,0.835 1.108,1.135 -0.621,-0.124 -1.022,-0.352 -1.687,-1.538 z"
         style="fill:#ffeba3" />
    </g>
    <g
       transform="matrix(0.4221,0.689524,-0.689524,0.4221,71.69372,-147.6787)"
       id="g508">
      <path
         id="use502"
         d="m 135.433,180.508 c 1.186,-0.037 2.304,0.493 3.303,2.041 -2.108,0.166 -2.782,-0.874 -3.303,-2.041 z"
         style="fill:#f5c742;stroke:#a07843;stroke-width:0.165" />
      <path
         id="use504"
         d="m 136.616,181.244 c 0.441,0.507 0.866,1.019 1.989,1.253 -0.792,-0.314 -1.43,-0.752 -1.989,-1.253 z"
         style="fill:#a07843" />
      <path
         id="use506"
         d="m 135.924,180.735 c 0.648,0.162 1.533,0.461 1.849,1.222 -0.434,-0.279 -0.802,-0.731 -1.27,-0.819 0.287,0.566 0.715,0.835 1.108,1.135 -0.621,-0.124 -1.022,-0.352 -1.687,-1.538 z"
         style="fill:#ffeba3" />
    </g>
    <g
       transform="matrix(0.481148,0.500167,-0.500167,0.481148,30.0516,-135.07446)"
       id="g516">
      <path
         id="use510"
         d="m 135.433,180.508 c 1.186,-0.037 2.304,0.493 3.303,2.041 -2.108,0.166 -2.782,-0.874 -3.303,-2.041 z"
         style="fill:#f5c742;stroke:#a07843;stroke-width:0.165" />
      <path
         id="use512"
         d="m 136.616,181.244 c 0.441,0.507 0.866,1.019 1.989,1.253 -0.792,-0.314 -1.43,-0.752 -1.989,-1.253 z"
         style="fill:#a07843" />
      <path
         id="use514"
         d="m 135.924,180.735 c 0.648,0.162 1.533,0.461 1.849,1.222 -0.434,-0.279 -0.802,-0.731 -1.27,-0.819 0.287,0.566 0.715,0.835 1.108,1.135 -0.621,-0.124 -1.022,-0.352 -1.687,-1.538 z"
         style="fill:#ffeba3" />
    </g>
    <g
       transform="matrix(0.478437,0.486943,-0.486943,0.478437,28.60847,-134.77984)"
       id="g524">
      <path
         id="use518"
         d="m 135.433,180.508 c 1.186,-0.037 2.304,0.493 3.303,2.041 -2.108,0.166 -2.782,-0.874 -3.303,-2.041 z"
         style="fill:#f5c742;stroke:#a07843;stroke-width:0.165" />
      <path
         id="use520"
         d="m 136.616,181.244 c 0.441,0.507 0.866,1.019 1.989,1.253 -0.792,-0.314 -1.43,-0.752 -1.989,-1.253 z"
         style="fill:#a07843" />
      <path
         id="use522"
         d="m 135.924,180.735 c 0.648,0.162 1.533,0.461 1.849,1.222 -0.434,-0.279 -0.802,-0.731 -1.27,-0.819 0.287,0.566 0.715,0.835 1.108,1.135 -0.621,-0.124 -1.022,-0.352 -1.687,-1.538 z"
         style="fill:#ffeba3" />
    </g>
    <g
       transform="matrix(-0.633626,0.254035,0.254035,0.633626,47.85116,-131.19083)"
       id="g532">
      <path
         id="use526"
         d="m 135.433,180.508 c 1.186,-0.037 2.304,0.493 3.303,2.041 -2.108,0.166 -2.782,-0.874 -3.303,-2.041 z"
         style="fill:#f5c742;stroke:#a07843;stroke-width:0.165" />
      <path
         id="use528"
         d="m 136.616,181.244 c 0.441,0.507 0.866,1.019 1.989,1.253 -0.792,-0.314 -1.43,-0.752 -1.989,-1.253 z"
         style="fill:#a07843" />
      <path
         id="use530"
         d="m 135.924,180.735 c 0.648,0.162 1.533,0.461 1.849,1.222 -0.434,-0.279 -0.802,-0.731 -1.27,-0.819 0.287,0.566 0.715,0.835 1.108,1.135 -0.621,-0.124 -1.022,-0.352 -1.687,-1.538 z"
         style="fill:#ffeba3" />
    </g>
    <g
       transform="matrix(-0.474494,0.093529,0.093529,0.474494,55.02197,-78.812819)"
       id="g540">
      <path
         id="use534"
         d="m 135.433,180.508 c 1.186,-0.037 2.304,0.493 3.303,2.041 -2.108,0.166 -2.782,-0.874 -3.303,-2.041 z"
         style="fill:#f5c742;stroke:#a07843;stroke-width:0.165" />
      <path
         id="use536"
         d="m 136.616,181.244 c 0.441,0.507 0.866,1.019 1.989,1.253 -0.792,-0.314 -1.43,-0.752 -1.989,-1.253 z"
         style="fill:#a07843" />
      <path
         id="use538"
         d="m 135.924,180.735 c 0.648,0.162 1.533,0.461 1.849,1.222 -0.434,-0.279 -0.802,-0.731 -1.27,-0.819 0.287,0.566 0.715,0.835 1.108,1.135 -0.621,-0.124 -1.022,-0.352 -1.687,-1.538 z"
         style="fill:#ffeba3" />
    </g>
    <g
       transform="matrix(-0.600077,0.230565,0.230565,0.600077,46.69739,-118.5578)"
       id="g548">
      <path
         id="use542"
         d="m 135.433,180.508 c 1.186,-0.037 2.304,0.493 3.303,2.041 -2.108,0.166 -2.782,-0.874 -3.303,-2.041 z"
         style="fill:#f5c742;stroke:#a07843;stroke-width:0.165" />
      <path
         id="use544"
         d="m 136.616,181.244 c 0.441,0.507 0.866,1.019 1.989,1.253 -0.792,-0.314 -1.43,-0.752 -1.989,-1.253 z"
         style="fill:#a07843" />
      <path
         id="use546"
         d="m 135.924,180.735 c 0.648,0.162 1.533,0.461 1.849,1.222 -0.434,-0.279 -0.802,-0.731 -1.27,-0.819 0.287,0.566 0.715,0.835 1.108,1.135 -0.621,-0.124 -1.022,-0.352 -1.687,-1.538 z"
         style="fill:#ffeba3" />
    </g>
    <g
       transform="matrix(-0.63663,0.089186,0.089186,0.63663,76.74147,-103.49788)"
       id="g556">
      <path
         id="use550"
         d="m 135.433,180.508 c 1.186,-0.037 2.304,0.493 3.303,2.041 -2.108,0.166 -2.782,-0.874 -3.303,-2.041 z"
         style="fill:#f5c742;stroke:#a07843;stroke-width:0.165" />
      <path
         id="use552"
         d="m 136.616,181.244 c 0.441,0.507 0.866,1.019 1.989,1.253 -0.792,-0.314 -1.43,-0.752 -1.989,-1.253 z"
         style="fill:#a07843" />
      <path
         id="use554"
         d="m 135.924,180.735 c 0.648,0.162 1.533,0.461 1.849,1.222 -0.434,-0.279 -0.802,-0.731 -1.27,-0.819 0.287,0.566 0.715,0.835 1.108,1.135 -0.621,-0.124 -1.022,-0.352 -1.687,-1.538 z"
         style="fill:#ffeba3" />
    </g>
    <g
       transform="matrix(-0.683643,0.101265,0.095772,0.722849,81.22883,-118.07966)"
       id="g564">
      <path
         id="use558"
         d="m 135.433,180.508 c 1.186,-0.037 2.304,0.493 3.303,2.041 -2.108,0.166 -2.782,-0.874 -3.303,-2.041 z"
         style="fill:#f5c742;stroke:#a07843;stroke-width:0.165" />
      <path
         id="use560"
         d="m 136.616,181.244 c 0.441,0.507 0.866,1.019 1.989,1.253 -0.792,-0.314 -1.43,-0.752 -1.989,-1.253 z"
         style="fill:#a07843" />
      <path
         id="use562"
         d="m 135.924,180.735 c 0.648,0.162 1.533,0.461 1.849,1.222 -0.434,-0.279 -0.802,-0.731 -1.27,-0.819 0.287,0.566 0.715,0.835 1.108,1.135 -0.621,-0.124 -1.022,-0.352 -1.687,-1.538 z"
         style="fill:#ffeba3" />
    </g>
    <g
       transform="matrix(-0.561904,0.402352,0.415374,0.599289,6.27819,-134.14154)"
       id="g572">
      <path
         id="use566"
         d="m 135.433,180.508 c 1.186,-0.037 2.304,0.493 3.303,2.041 -2.108,0.166 -2.782,-0.874 -3.303,-2.041 z"
         style="fill:#f5c742;stroke:#a07843;stroke-width:0.165" />
      <path
         id="use568"
         d="m 136.616,181.244 c 0.441,0.507 0.866,1.019 1.989,1.253 -0.792,-0.314 -1.43,-0.752 -1.989,-1.253 z"
         style="fill:#a07843" />
      <path
         id="use570"
         d="m 135.924,180.735 c 0.648,0.162 1.533,0.461 1.849,1.222 -0.434,-0.279 -0.802,-0.731 -1.27,-0.819 0.287,0.566 0.715,0.835 1.108,1.135 -0.621,-0.124 -1.022,-0.352 -1.687,-1.538 z"
         style="fill:#ffeba3" />
    </g>
    <g
       transform="matrix(-0.447042,0.560218,0.651323,0.432295,-51.395366,-122.66409)"
       id="g580">
      <path
         id="use574"
         d="m 135.433,180.508 c 1.186,-0.037 2.304,0.493 3.303,2.041 -2.108,0.166 -2.782,-0.874 -3.303,-2.041 z"
         style="fill:#f5c742;stroke:#a07843;stroke-width:0.165" />
      <path
         id="use576"
         d="m 136.616,181.244 c 0.441,0.507 0.866,1.019 1.989,1.253 -0.792,-0.314 -1.43,-0.752 -1.989,-1.253 z"
         style="fill:#a07843" />
      <path
         id="use578"
         d="m 135.924,180.735 c 0.648,0.162 1.533,0.461 1.849,1.222 -0.434,-0.279 -0.802,-0.731 -1.27,-0.819 0.287,0.566 0.715,0.835 1.108,1.135 -0.621,-0.124 -1.022,-0.352 -1.687,-1.538 z"
         style="fill:#ffeba3" />
    </g>
  </g>
  <g
     id="g2325">
    <path
       d="M 12.901,33.605 V 16.964 h 1.104 c 0.741,-1.558 1.94,-2.526 3.662,-2.822 h 0.265 c 1.722,0.296 2.921,1.264 3.662,2.822 h 1.104 v 16.641 z"
       fill="url(#C)"
       id="path96"
       style="fill:url(#C);" />
    <g
       class="N"
       id="g102"
       transform="translate(-87.2,-147.239)">
      <path
         d="m 109.944,179.803 v 1.041 h -9.888 v -1.041 c 0.471,0.028 0.932,-0.14 1.32,-0.395 0.39,-0.162 0.74,-0.564 1.199,-0.45 0.603,0.176 0.808,0.978 1.474,1.023 0.699,0.213 1.436,0.082 2.151,0.152 0.348,-0.003 0.7,-0.108 0.978,-0.322 0.682,-0.138 1.291,-0.588 2.008,-0.555 0.334,0.057 0.413,0.544 0.758,0.547 z"
         class="E L"
         id="path98" />
      <path
         d="m 100.056,173.359 v 5.08 l 2.28,-1.338 0.05,1.19 0.793,-0.843 0.124,0.719 2.528,-1.14 -0.223,1.115 1.536,-1.016 -0.149,0.966 1.512,-0.942 -0.223,0.942 1.66,-0.719 v -3.767 c -2.421,-0.403 -3.054,-2.685 -4.263,-4.362 -0.46,-0.108 -0.795,-0.491 -1.561,0.074 -1.05,1.504 -1.257,3.444 -4.064,4.04 z"
         class="M O"
         id="path100" />
    </g>
    <path
       d="m 12.744,28.078 v 1.338 c 0.853,-0.092 1.535,-0.453 2.23,-0.793 v 0.793 c 0.612,-0.113 1.166,-0.4 1.735,-0.644 l 0.347,0.694 c 1.103,-0.113 1.708,-0.543 2.478,-0.867 l 0.173,0.991 c 0.715,-0.242 1.16,-0.6 1.413,-1.041 l 0.099,0.793 c 0.779,0.207 1.123,-0.263 1.636,-0.471 v -1.388 c -0.516,0.148 -0.98,0.158 -1.586,0.545 l -0.025,-0.892 c -0.508,0.32 -0.751,0.773 -1.611,0.917 l 0.099,-0.917 c -0.975,0.402 -1.95,0.907 -2.924,0.966 l 0.124,-1.016 c -0.503,0.383 -0.851,0.76 -1.859,1.165 l 0.025,-1.165 c -0.734,0.373 -1.341,0.855 -2.354,0.991 z"
       fill="#ff0000"
       class="B G"
       id="path104" />
    <g
       class="N"
       id="g110"
       transform="translate(-87.2,-147.239)">
      <path
         d="m 104.868,160.645 c -1.463,0.031 -3.139,0.955 -4.031,2.856 h -1.349 v 0.561 h -0.999 v 0.491 h 1.042 v 10.949 l -0.411,10e-4 v 7.225 c 0.646,0 0.981,-0.76 0.981,-1.457 v -17.068 h 1.104 c 0.741,-1.558 1.94,-2.526 3.662,-2.822 h 0.265 c 1.722,0.296 2.921,1.264 3.662,2.822 h 1.104 v 17.068 c 0,0.697 0.335,1.457 0.981,1.457 v -7.225 l -0.41,-10e-4 v -10.949 h 1.041 v -0.491 h -0.999 v -0.561 h -1.349 c -0.892,-1.901 -2.567,-2.825 -4.03,-2.856 z"
         class="C F"
         id="path106" />
      <path
         d="m 105,162.963 c -0.208,1.134 -1.301,1.625 -0.533,3.47 -1.028,0.036 -1.097,-1.192 -1.338,-2.193 -1.016,4.336 0.52,3.776 1.871,3.569 1.351,0.207 2.887,0.767 1.871,-3.569 -0.242,1.001 -0.311,2.23 -1.338,2.193 0.768,-1.844 -0.325,-2.335 -0.533,-3.47 z"
         fill="#ff0000"
         class="B"
         id="path108" />
    </g>
    <path
       d="m 14.929,35.065 c -0.295,0.176 -0.639,0.245 -0.939,0.411 l -0.86,0.382 c -0.253,0.125 -0.526,0.248 -0.738,0.438 -0.118,0.219 0.103,0.429 0.284,0.522 0.199,0.131 0.479,0.2 0.656,-0.007 0.241,-0.181 0.276,-0.55 0.576,-0.671 0.328,-0.206 0.684,-0.376 0.974,-0.636 0.112,-0.076 0.307,-0.456 0.046,-0.441 z"
       class="M"
       id="path462" />
    <path
       d="m 14.106,37.308 c 1.148,-1.755 4.524,-2.128 6.747,-2.085 m -0.001,1.103 c -2.027,-0.533 -4.438,-0.073 -5.835,1.315 m 1.63,-0.276 c -0.757,0.616 -0.075,0.922 0.896,0.672 0.693,-0.179 1.801,-0.85 2.398,-0.415 0.609,0.443 -0.217,1.393 -1.332,1.273"
       stroke="#ffffff"
       stroke-width="0.465"
       stroke-linecap="round"
       class="H"
       id="path464" />
    <path
       d="m 21.626,37.483 c -0.332,-0.059 -0.729,0.218 -0.355,0.421 0.209,0.114 0.746,0.238 0.758,-0.103 0.008,-0.224 -0.23,-0.288 -0.403,-0.319 z m 0.462,-1.456 c 0.228,0.328 0.521,0.581 0.851,0.697 0.378,0.133 0.594,-0.247 0.333,-0.613 -0.212,-0.298 -0.396,-0.502 -0.76,-0.652 -0.463,-0.19 -0.667,0.219 -0.424,0.568 z"
       class="M"
       id="path466" />
    <g
       stroke-width="0.132"
       class="C F"
       id="g586"
       transform="translate(-87.2,-147.239)">
      <path
         d="m 104.913,181.265 h 0.979 c -0.063,0.436 -0.285,0.9 -0.099,1.307 0.441,0.968 0.06,1.344 -0.415,1.592 -0.44,0.23 -0.966,0.045 -1.183,-0.62 0.362,-0.009 0.877,0.042 0.793,-0.477 -0.06,-0.371 -0.195,-0.609 -0.037,-1.146 0.055,-0.185 0.002,-0.424 -0.037,-0.657 z"
         id="path582" />
      <path
         d="m 105.018,180.466 h 0.898 c -0.022,0.26 0.018,0.512 -0.235,0.799 h -0.632 c -0.074,-0.242 -0.079,-0.51 -0.031,-0.799 z"
         id="path584" />
    </g>
    <path
       d="m 18.294,34.197 c -0.008,0.173 -0.447,0 -0.292,0.305 -0.046,0.401 -0.025,0.819 0.248,1.132 -0.008,0.208 -0.058,0.869 0.235,0.444 0.107,-0.415 -0.27,-0.793 -0.134,-1.214 -0.008,-0.167 0.226,-0.663 -0.057,-0.666 z m -0.587,2.305 c -0.202,0.025 -0.428,0.049 -0.138,0.216 0.284,0.198 0.572,-0.236 0.138,-0.216 z"
       class="D"
       id="path588" />
    <path
       d="m 17.672,17.252 c -0.376,0.662 -0.358,1.521 -0.175,2.462 -0.796,0.131 -1.12,-0.368 -1.595,-0.666 0.325,0.446 0.125,1.249 1.393,1.052 0.268,0.905 -0.2,1.816 -0.491,2.804 -0.286,0.972 -0.48,2.027 0.088,2.952 0.389,0.635 0.405,1.525 -0.254,3.085 -0.643,1.522 0.536,2.356 0.543,3.431 h 2.462 c -0.203,-0.646 -0.694,-1.316 -1.087,-2.117 -0.609,-1.242 -0.078,-1.807 0.088,-2.69 0.219,-1.167 -0.162,-2.01 -0.561,-2.909 -0.535,-1.206 -0.089,-1.891 0.035,-2.822 0.088,-0.658 0.143,-1.239 -0.158,-1.805 1.19,0.575 1.137,-0.376 1.411,-0.815 -0.465,0.232 -0.872,0.619 -1.489,0.438 0.308,-1.137 0.106,-1.819 -0.21,-2.4 z"
       stroke="#808080"
       class="M X"
       id="path590" />
    <path
       d="m 17.762,32.372 h 0.65 c -0.039,-0.651 -0.443,-1.358 -0.675,-2.038 -0.243,-0.568 -0.187,-1.413 0.149,-2.72 0.42,-1.637 0.033,-1.707 -0.161,-2.54 -0.194,-0.833 -0.566,-1.893 -0.112,-3.271 -0.403,0.905 -0.605,1.784 -0.384,2.633 0.204,0.783 0.472,1.503 0.366,2.243 l -0.458,2.596 c -0.197,1.012 0.527,1.641 0.626,3.098 z"
       fill="#d3d3d3"
       id="path592" />
    <path
       id="rect594"
       style="opacity:0.999;fill:#ffffff;fill-rule:evenodd;stroke:#808080;stroke-width:0.106;stroke-linejoin:round"
       d="m 16.894998,32.371994 h 2.851 c 0.236558,0 0.427,0.190442 0.427,0.427 v 10e-4 c 0,0.236558 -0.190442,0.427 -0.427,0.427 h -2.851 c -0.236558,0 -0.426999,-0.190442 -0.426999,-0.427 v -10e-4 c 0,-0.236558 0.190441,-0.427 0.426999,-0.427 z"
       class="M P Q R X" />
  </g>
  <g
     id="g2225">
    <g
       transform="translate(-132.16,-147.239)"
       stroke-width="0.102"
       class="B"
       id="g606">
      <path
         d="m 141.664,183.904 -0.065,1.09 -0.957,0.211 c 1.567,1.837 3.055,2.455 4.632,2.714 l 0.194,-1.524 c -0.75,-0.164 -2.557,-1.335 -3.804,-2.491 z"
         fill="url(#L)"
         id="path596"
         style="fill:url(#L);" />
      <path
         d="m 143.556,186.019 -0.659,1.735 2.377,0.165 0.194,-1.524 z"
         fill="#800000"
         id="path598" />
      <path
         d="m 158.256,183.904 0.065,1.09 0.957,0.211 c -1.567,1.837 -3.055,2.455 -4.632,2.714 l -0.194,-1.524 c 0.75,-0.164 2.557,-1.335 3.804,-2.491 z"
         fill="url(#M)"
         id="path600"
         style="fill:url(#M);" />
      <path
         d="m 156.365,186.019 0.659,1.735 -2.377,0.165 -0.194,-1.524 z"
         fill="#800000"
         id="path602" />
      <path
         d="m 143.556,186.019 -0.659,1.735 c 2.094,1.479 4.533,1.898 7.063,2.033 2.53,-0.135 4.968,-0.553 7.063,-2.033 l -0.658,-1.735 c -2.076,1.34 -4.231,1.704 -6.405,1.84 -2.173,-0.136 -4.328,-0.5 -6.404,-1.84 z"
         fill="#ff0000"
         id="path604" />
    </g>
    <g
       class="M"
       id="g624"
       transform="translate(-87.2,-147.239)">
      <path
         d="m 98.797,187.685 0.376,-0.715 0.144,0.076 -0.167,0.318 0.459,-0.164 0.194,0.102 -0.416,0.137 0.054,0.586 -0.187,-0.098 -0.02,-0.439 -0.18,0.058 -0.114,0.216 z m 0.723,0.374 0.329,-0.738 0.314,0.14 q 0.118,0.053 0.163,0.097 0.045,0.044 0.055,0.109 0.01,0.065 -0.02,0.131 -0.037,0.083 -0.11,0.116 -0.073,0.032 -0.176,0.003 0.036,0.05 0.052,0.097 0.017,0.048 0.032,0.158 l 0.026,0.184 -0.178,-0.079 -0.036,-0.209 q -0.019,-0.112 -0.03,-0.143 -0.011,-0.032 -0.031,-0.051 -0.02,-0.019 -0.071,-0.042 l -0.03,-0.013 -0.137,0.308 z m 0.339,-0.36 0.11,0.049 q 0.107,0.048 0.138,0.051 0.031,0.003 0.056,-0.013 0.025,-0.015 0.04,-0.049 0.017,-0.037 0.007,-0.069 -0.009,-0.032 -0.043,-0.054 -0.017,-0.011 -0.108,-0.051 l -0.116,-0.052 z"
         id="path608" />
      <path
         d="m 100.263,188.38 0.295,-0.752 0.152,0.06 -0.295,0.752 z m 0.557,-0.646 0.282,0.096 q 0.095,0.033 0.141,0.064 0.06,0.043 0.091,0.11 0.031,0.067 0.031,0.149 0,0.082 -0.037,0.189 -0.032,0.094 -0.079,0.155 -0.057,0.074 -0.128,0.107 -0.054,0.025 -0.129,0.024 -0.057,-10e-4 -0.142,-0.03 l -0.291,-0.099 z m 0.11,0.182 -0.173,0.507 0.115,0.039 q 0.065,0.022 0.096,0.025 0.041,0.003 0.073,-0.011 0.033,-0.014 0.066,-0.06 0.033,-0.046 0.064,-0.135 0.03,-0.089 0.031,-0.142 0.001,-0.053 -0.018,-0.089 -0.019,-0.036 -0.059,-0.06 -0.03,-0.018 -0.124,-0.051 z"
         id="path610" />
      <path
         d="m 101.333,188.757 0.211,-0.78 0.157,0.043 -0.083,0.307 0.309,0.083 0.083,-0.307 0.157,0.043 -0.211,0.78 -0.157,-0.043 0.092,-0.341 -0.309,-0.083 -0.092,0.341 z m 1.502,0.353 -0.174,-0.036 -0.032,-0.194 -0.316,-0.065 -0.102,0.167 -0.17,-0.035 0.47,-0.729 0.169,0.035 z m -0.23,-0.373 -0.049,-0.316 -0.167,0.272 z m 0.586,0.425 0.092,-0.803 0.162,0.019 -0.036,0.316 0.318,0.036 0.036,-0.316 0.162,0.019 -0.092,0.803 -0.162,-0.019 0.04,-0.351 -0.318,-0.036 -0.04,0.351 z m 1.537,0.124 -0.177,-0.009 -0.061,-0.187 -0.323,-0.016 -0.076,0.18 -0.173,-0.009 0.355,-0.791 0.172,0.009 z m -0.284,-0.334 -0.096,-0.305 -0.124,0.294 z m 0.373,0.333 -0.011,-0.808 0.159,-0.002 0.338,0.535 -0.007,-0.54 0.152,-0.002 0.011,0.808 -0.164,0.002 -0.333,-0.522 0.007,0.527 z"
         id="path612" />
      <path
         d="m 105.982,188.943 -0.011,-0.136 0.351,-0.028 0.026,0.321 q -0.047,0.054 -0.141,0.099 -0.094,0.045 -0.193,0.053 -0.126,0.01 -0.225,-0.035 -0.098,-0.046 -0.153,-0.14 -0.055,-0.095 -0.065,-0.211 -0.01,-0.126 0.035,-0.228 0.045,-0.102 0.142,-0.162 0.074,-0.046 0.19,-0.056 0.15,-0.012 0.239,0.044 0.09,0.056 0.123,0.165 l -0.159,0.043 q -0.022,-0.058 -0.072,-0.088 -0.049,-0.031 -0.12,-0.025 -0.107,0.009 -0.164,0.081 -0.057,0.073 -0.047,0.206 0.012,0.143 0.081,0.21 0.07,0.066 0.173,0.058 0.051,-0.004 0.101,-0.028 0.05,-0.024 0.084,-0.056 l -0.008,-0.102 z"
         id="path614" />
      <path
         d="m 106.386,188.393 0.161,-0.024 0.064,0.433 q 0.015,0.103 0.026,0.133 0.018,0.048 0.061,0.072 0.044,0.024 0.111,0.014 0.069,-0.01 0.1,-0.043 0.031,-0.034 0.032,-0.076 10e-4,-0.042 -0.013,-0.137 l -0.065,-0.442 0.161,-0.024 0.062,0.42 q 0.021,0.144 0.017,0.205 -0.004,0.061 -0.034,0.108 -0.029,0.046 -0.084,0.079 -0.055,0.033 -0.15,0.047 -0.115,0.017 -0.178,0 -0.063,-0.018 -0.103,-0.055 -0.041,-0.037 -0.058,-0.082 -0.026,-0.066 -0.046,-0.201 z"
         id="path616" />
      <path
         d="m 107.142,188.278 0.292,-0.062 q 0.099,-0.021 0.154,-0.017 0.074,0.006 0.135,0.047 0.061,0.042 0.103,0.112 0.042,0.07 0.066,0.181 0.021,0.098 0.012,0.173 -0.011,0.093 -0.055,0.158 -0.033,0.049 -0.099,0.087 -0.049,0.028 -0.138,0.047 l -0.3,0.064 z m 0.188,0.1 0.112,0.523 0.119,-0.025 q 0.067,-0.014 0.095,-0.028 0.037,-0.018 0.057,-0.047 0.021,-0.029 0.026,-0.085 0.005,-0.057 -0.015,-0.148 -0.02,-0.092 -0.046,-0.137 -0.027,-0.046 -0.062,-0.067 -0.035,-0.021 -0.082,-0.021 -0.035,0 -0.133,0.02 z"
         id="path618" />
      <path
         d="m 108.102,188.89 -0.204,-0.782 0.158,-0.041 0.204,0.782 z m 0.633,-1.029 0.154,-0.051 0.16,0.486 q 0.031,0.095 0.031,0.152 0,0.074 -0.046,0.135 -0.046,0.06 -0.143,0.092 -0.114,0.037 -0.196,-0.006 -0.082,-0.044 -0.123,-0.167 l 0.141,-0.065 q 0.024,0.065 0.05,0.087 0.039,0.033 0.09,0.016 0.052,-0.017 0.064,-0.053 0.012,-0.037 -0.019,-0.13 z"
         id="path620" />
      <path
         d="m 109.985,188.256 -0.165,0.064 -0.132,-0.145 -0.301,0.117 0.004,0.195 -0.161,0.063 v -0.867 l 0.161,-0.063 z m -0.396,-0.189 -0.213,-0.239 0.007,0.319 z m 0.572,0.103 -0.14,-0.31 -0.463,-0.304 0.174,-0.079 0.305,0.213 0.038,-0.368 0.171,-0.078 -0.077,0.55 0.14,0.309 z m 1.042,-0.522 -0.157,0.083 -0.148,-0.13 -0.286,0.15 0.026,0.193 -0.153,0.081 -0.098,-0.862 0.153,-0.08 z m -0.415,-0.143 -0.238,-0.214 0.043,0.316 z"
         id="path622" />
    </g>
  </g>
</svg>
