<?xml version="1.0" encoding="UTF-8" standalone="no"?>
<svg
   xmlns:dc="http://purl.org/dc/elements/1.1/"
   xmlns:cc="http://creativecommons.org/ns#"
   xmlns:rdf="http://www.w3.org/1999/02/22-rdf-syntax-ns#"
   xmlns:svg="http://www.w3.org/2000/svg"
   xmlns="http://www.w3.org/2000/svg"
   xmlns:sodipodi="http://sodipodi.sourceforge.net/DTD/sodipodi-0.dtd"
   xmlns:inkscape="http://www.inkscape.org/namespaces/inkscape"
   width="553.002"
   height="703.483"
   viewBox="0 0 146.315 186.13"
   version="1.1"
   id="svg316"
   sodipodi:docname="Kota Magelang.svg"
   inkscape:version="1.0.1 (3bc2e813f5, 2020-09-07)">
  <metadata
     id="metadata320">
    <rdf:RDF>
      <cc:Work
         rdf:about="">
        <dc:format>image/svg+xml</dc:format>
        <dc:type
           rdf:resource="http://purl.org/dc/dcmitype/StillImage" />
      </cc:Work>
    </rdf:RDF>
  </metadata>
  <sodipodi:namedview
     pagecolor="#ffffff"
     bordercolor="#666666"
     borderopacity="1"
     objecttolerance="10"
     gridtolerance="10"
     guidetolerance="10"
     inkscape:pageopacity="0"
     inkscape:pageshadow="2"
     inkscape:window-width="1366"
     inkscape:window-height="705"
     id="namedview318"
     showgrid="false"
     inkscape:zoom="0.60968272"
     inkscape:cx="402.3015"
     inkscape:cy="428.79955"
     inkscape:window-x="-8"
     inkscape:window-y="-8"
     inkscape:window-maximized="1"
     inkscape:current-layer="svg316"
     inkscape:document-rotation="0" />
  <style
     id="style2"><![CDATA[.B{stroke-width:.265}.C{fill:#f5c742}.D{fill:#ffeba3}.E{fill:#fff}.F{fill:#d3d3d3}.G{stroke:#d3d3d3}.H{fill:#018f50}.I{stroke:#005b31}.J{fill:#00a75d}.K{fill:#005b31}.L{fill:#a07843}.M{stroke-width:.241}]]></style>
  <g
     id="g1494">
    <path
       d="m 0.981,1.103 v 77.928 c 0,81.437 52.94,94.105 72.176,105.967 19.236,-11.862 72.176,-24.529 72.176,-105.967 V 1.103 H 73.157 Z"
       id="path4"
       style="fill:#ffffff;stroke:#000000;stroke-width:1.465" />
    <path
       d="M73.157 114.89h0l-46.089 30.724c2.312 2.861 4.736 5.453 7.225 7.812 13.086 12.408 27.992 18.154 38.864 24.146v.001c10.873-5.992 25.778-11.739 38.864-24.147 2.489-2.36 4.913-4.951 7.225-7.812h-.001L73.157 114.89h-.001z"
       fill="#00a870"
       id="path10" />
    <path
       d="M 16.096,127.4 C 10.807,115.196 7.43,99.567 7.43,79.032 V 32.085 h 54.424 m 0,0 V 96.262 L 16.096,127.4"
       id="path12" />
    <path
       d="m 37.23,32.085 v 80.933 L 61.853,96.262 V 32.085 Z"
       fill="#d2091e"
       id="path14" />
    <path
       d="m 130.219,127.4 c 5.289,-12.204 8.666,-27.833 8.666,-48.369 V 32.085 H 84.46 m 0,0 v 64.177 l 45.758,31.139"
       id="path16" />
    <path
       d="m 109.084,32.085 v 80.933 L 84.46,96.262 V 32.085 Z"
       fill="#d2091e"
       id="path18" />
  </g>
  <g
     id="g1368">
    <path
       id="rect6"
       style="fill:none;stroke:#000000;stroke-width:1.465;stroke-opacity:0.998;"
       d="M 7.4299998,7.552 H 138.885 V 26.917 H 7.4299998 Z" />
    <path
       d="M10.9 22.358V12.11h2.069v4.551l4.18-4.551h2.782l-3.859 3.992 4.068 6.256h-2.677l-2.817-4.809-1.678 1.713v3.097zm9.892-5.061q0-1.566.468-2.628.35-.783.951-1.405.608-.622 1.328-.923.958-.405 2.209-.405 2.265 0 3.621 1.405 1.363 1.405 1.363 3.908 0 2.482-1.349 3.887-1.349 1.398-3.607 1.398-2.286 0-3.635-1.391-1.349-1.398-1.349-3.845zm2.132-.07q0 1.741.804 2.642.804.895 2.041.895 1.237 0 2.027-.888.797-.895.797-2.677 0-1.762-.776-2.628-.769-.867-2.048-.867-1.279 0-2.062.881-.783.874-.783 2.642zm11.73 5.131v-8.514h-3.041V12.11h8.144v1.734h-3.034v8.514zm14.617 0H47.02l-.895-2.328h-4.096l-.846 2.328h-2.195L42.98 12.11h2.188zm-3.81-4.054l-1.412-3.803-1.384 3.803zm8.326 4.054V12.11h3.097l1.859 6.99 1.838-6.99h3.104v10.248h-1.922v-8.067l-2.034 8.067h-1.992l-2.027-8.067v8.067zm21.195 0h-2.251l-.895-2.328H67.74l-.846 2.328h-2.195L68.69 12.11h2.188zm-3.81-4.054l-1.412-3.803-1.384 3.803z"
       id="path20" />
    <path
       id="use22"
       d="m 80.847,18.59 v -1.727 h 4.46 v 4.082 q -0.65,0.629 -1.887,1.111 -1.23,0.475 -2.496,0.475 -1.608,0 -2.803,-0.671 -1.195,-0.678 -1.797,-1.929 -0.601,-1.258 -0.601,-2.733 0,-1.601 0.671,-2.845 0.671,-1.244 1.964,-1.908 0.986,-0.51 2.454,-0.51 1.908,0 2.978,0.804 1.077,0.797 1.384,2.209 l -2.055,0.384 q -0.217,-0.755 -0.818,-1.188 -0.594,-0.44 -1.489,-0.44 -1.356,0 -2.16,0.86 -0.797,0.86 -0.797,2.552 0,1.825 0.811,2.74 0.811,0.909 2.125,0.909 0.65,0 1.3,-0.252 0.657,-0.259 1.125,-0.622 v -1.3 z" />
    <path
       d="M87.215 22.358V12.11h7.599v1.734h-5.529v2.272h5.145v1.727h-5.145v2.789h5.725v1.727zm9.605 0V12.194h2.069v8.437h5.145v1.727zm17.93 0h-2.251l-.895-2.328h-4.096l-.846 2.328h-2.195l3.992-10.248h2.188zm-3.81-4.054l-1.412-3.803-1.384 3.803zm4.929 4.054V12.11h2.013l4.194 6.844V12.11h1.922v10.248h-2.076l-4.131-6.683v6.683z"
       id="path24" />
    <path
       id="use26"
       d="m 130.954,18.59 v -1.727 h 4.46 v 4.082 q -0.65,0.629 -1.887,1.111 -1.23,0.475 -2.496,0.475 -1.608,0 -2.803,-0.671 -1.195,-0.678 -1.797,-1.929 -0.601,-1.258 -0.601,-2.733 0,-1.601 0.671,-2.845 0.671,-1.244 1.964,-1.908 0.986,-0.51 2.454,-0.51 1.908,0 2.978,0.804 1.077,0.797 1.384,2.209 l -2.055,0.384 q -0.217,-0.755 -0.818,-1.188 -0.594,-0.44 -1.489,-0.44 -1.356,0 -2.16,0.86 -0.797,0.86 -0.797,2.552 0,1.825 0.811,2.74 0.811,0.909 2.125,0.909 0.65,0 1.3,-0.252 0.657,-0.259 1.125,-0.622 v -1.3 z" />
  </g>
  <g
     id="g1435">
    <path
       d="M23.955 116.875c.345-.379.459-.818.579-2.22.114-1.334.33-1.92.893-2.429.331-.299.702-.496 1.349-.716.91-.309 1.403-.725 1.878-1.583.538-.971.765-1.902 1.174-4.814l.659-3.653.127-.433-1.188 1.124c-3.724 3.525-3.903 3.755-4.1 5.252-.055.421-.136.834-.178.917-.128.249-.353.462-.488.462-.112 0-.126-.064-.126-.571 0-.895.133-2.794.242-3.48.217-1.358.4-1.634 1.496-2.251.827-.466 1.289-.822 1.9-1.466 1.304-1.373 1.787-2.475 2.108-4.801l.515-3.175.089-.288-.631.624c-.347.343-1.207 1.059-1.912 1.591-1.676 1.265-1.923 1.519-2.63 2.701-.678 1.133-1.008 1.509-1.296 1.476l-.194-.022-.02-.824c-.039-1.632.135-2.338.754-3.065.168-.197.819-.808 1.447-1.357 1.181-1.033 1.654-1.539 2.216-2.371 1.168-1.73 1.818-4.065 1.974-7.097l.044-.866-.179.302c-.307.519-.583.837-1.839 2.121l-1.502 1.593c-.481.59-1.261 1.832-1.672 2.666l-.393.796.018.878.018.878-.187.147c-.129.101-.264.141-.433.127l-.246-.021-.191-1.904c-.286-2.862-.192-4.388.337-5.463.371-.754 1.053-1.429 2.352-2.332 1.242-.863 1.848-1.395 2.284-2.005.759-1.064 1.009-1.984 1.382-5.088.129-1.075.336-2.097.525-2.595l.131-.345-.376.38-2.668 2.803-2.493 2.839c-.11.229-.341.952-.514 1.608-.33 1.254-.509 1.699-.73 1.817-.333.178-.326.218-.377-2.196-.05-2.384-.009-3.051.224-3.576.175-.395 1.731-2.459 2.054-2.725.145-.12.563-.346.928-.503 2.034-.874 3.204-2.165 3.575-3.946.052-.248.188-1.309.304-2.358l.302-2.39.091-.482-.595.59c-.327.324-1.229 1.102-2.004 1.728-2.254 1.822-2.969 2.565-3.497 3.639-.312.635-.431 1.13-.523 2.181-.042.476-.123 1.053-.18 1.281-.116.464-.392.935-.549.935-.089 0-.103-.339-.102-2.545.001-2.865.036-3.169.451-3.959.39-.742.931-1.215 2.01-1.755 1.044-.523 1.611-.929 2.132-1.526.842-.964 1.333-1.913 1.585-3.059.111-.504.144-.985.173-2.49l.036-1.866-.358.43c-.876 1.053-1.906 2.017-3.19 2.986-.852.643-1.466 1.289-1.724 1.813-.192.391-.226.547-.278 1.294-.053.763-.083.896-.292 1.314-.128.256-.283.474-.344.485-.155.028-.2-.659-.201-3.038v-1.91l.212-.32c.316-.477.899-.982 1.937-1.677 2.408-1.613 3.124-3.008 3.106-6.051l-.12-2.327c-.014.181-.301.612-.661.994-.157.166-.799.69-1.428 1.164-1.414 1.067-2.075 1.637-2.314 1.996-.101.152-.259.526-.349.831l-.326 1.1c-.119.406-.21.583-.352.689-.129.096-.213.119-.261.072-.076-.076-.203-2.609-.205-4.067-.001-1.056.051-1.205.599-1.706.434-.397.903-.633 2.066-1.042l1.316-.536c.885-.445 1.626-1.397 1.825-2.346.041-.195.093-.865.115-1.489.049-1.377.137-2.152.304-2.688l.126-.405-.975.876c-3.239 2.909-4.233 4.109-4.94 5.966-.123.324-.227.526-.231.45l-.007-.138-.06.138c-.081.188-.082-.454-.003-1.54.039-.542.103-.929.176-1.073a5.17 5.17 0 0 0 .222-.538c.059-.171.225-.546.368-.831.376-.749.484-1.174.484-1.899-.001-1.171-.126-1.656-.796-3.086-.707-1.511-.82-2.001-.826-3.608-.006-1.34.027-1.341-.628.028-.72 1.505-1.564 3.765-1.905 5.103-.125.489-.146.736-.125 1.454.023.806.04.897.246 1.32.301.62.834 1.428 1.446 2.191l.511.638v.977c0 .893-.01.975-.121.954-.128-.024-.64-.867-.813-1.337l-.252-.692c-.195-.54-.878-1.227-2.319-2.336-1.373-1.056-1.81-1.469-2.439-2.303l-.821-1.063-.299-.37.001.508c.005 1.871.25 4.068.549 4.933.365 1.052 1.048 1.877 1.898 2.29.272.132 1.024.38 1.672.551 1.886.498 2.993.924 3.044 1.171.017.082.064 1.177.105 2.434l.11 2.615c.029.261.013.339-.075.373-.219.084-.526-.348-1.141-1.603-.732-1.493-1.053-2.002-1.617-2.563-.58-.577-.952-.817-2.012-1.3-1.354-.616-2.036-1.119-2.657-1.954l-.154-.208.034.277.11.935c.183 1.582.619 3.319 1.106 4.404.647 1.442 1.773 2.581 3.035 3.067.598.231 1.521.423 2.027.423h.34l.275.433c.348.547.667 1.363.847 2.164.121.542.144.946.171 3.099l.032 2.476h-.191c-.327 0-.78-.324-1.062-.759-.142-.22-.471-.958-.731-1.638-1.05-2.752-1.615-3.492-3.536-4.63-1.047-.62-1.946-1.262-2.292-1.637-.119-.129-.364-.437-.544-.684l-.328-.45.045 1.177c.09 2.359.286 3.512.769 4.529.77 1.622 2.041 2.671 5.018 4.146 1.863.922 2.215 1.193 2.482 1.908.301.803.357 1.428.357 3.968 0 2.353-.002 2.38-.142 2.38-.427 0-1.025-.625-1.643-1.716-1.061-1.873-1.735-2.566-3.538-3.637-1.14-.677-1.488-.962-2.025-1.652-.523-.673-.92-1.106-.871-.95.019.061.118.638.22 1.281.538 3.413.764 4.282 1.351 5.177.416.634.792.974 1.599 1.445.848.495 1.462.733 2.313.897l1.205.231c.293.056.625.172.775.272.728.481 1.027 1.811 1.054 4.678l.013 1.42-.291.021c-.55.04-.797-.268-1.505-1.878l-.665-1.333c-.283-.411-.831-.81-1.847-1.347-1.194-.631-1.694-.985-2.218-1.575l-.971-1.051-.503-.525.041.485c.27 3.187.914 5.343 1.939 6.485 1.277 1.423 1.469 1.573 2.939 2.308l1.397.773c1.254.829 1.84 2.024 1.996 4.069.076.997.094 3.221.028 3.394-.059.154-.321.136-.54-.036-.243-.191-.438-.593-.836-1.724-.714-2.03-1.257-2.708-3.194-3.983-1.379-.908-1.934-1.35-2.677-2.133l-.537-.566.171.507c.094.279.316 1.104.493 1.835l1.19 4.493c.536 1.379 1.371 2.175 3.839 3.655.85.51 1.52 1.142 1.786 1.687.389.795.412 1.751.098 4.081-.109.813-.131.885-.257.866-.274-.041-.404-.344-.507-1.173-.118-.96-.296-1.545-.648-2.137-.563-.947-1.448-1.815-2.91-2.853-1.764-1.254-2.961-2.289-3.431-2.968-.105-.151-.201-.264-.214-.251-.024.024.126.549.828 2.899l.671 2.701c.417 2.06.757 2.957 1.488 3.919.596.785 1.095 1.087 2.597 1.575l1.28.415.416.415c.526.526.843 1.115.93 1.729.062.436.035 2.999-.035 3.344-.024.119-.08.156-.234.156-.33 0-.536-.254-.874-1.073-.77-1.871-1.312-2.449-4.352-4.639-1.522-1.097-2.339-1.872-3.031-2.875-.089-.129-.075-.042.054.348.273.822.485 1.735.722 3.116l.387 1.785c.445 1.345 1.406 2.784 2.668 3.998.882.848 1.509 1.3 2.152 1.553l1.077.424c.982.388 1.358.754 1.438 1.402.027.221-.025 1.005-.134 2.025l-.178 1.854c0 .185.005.187.19.09a1.46 1.46 0 0 0 .338-.261z"
       stroke="#a07843"
       stroke-width=".5"
       class="C"
       id="path28" />
    <path
       d="M17.165 103.928c1.822 1.717 4.782 2.296 5.051 5.566-2.667-.234-3.505-3.484-5.051-5.566zm8.817 5.028c2.687-.886 2.149-3.385 2.947-5.215-1.177 1.536-3.178 2.214-2.947 5.215zm-8.628-14.075c1.704 1.834 4.62 2.606 4.673 5.887-2.645-.409-3.268-3.708-4.673-5.887zm-.374-8.513c1.704 1.834 4.62 2.606 4.673 5.887-2.645-.409-3.268-3.708-4.673-5.887zm-.575-8.531c1.711 1.406 4.346 1.725 4.796 4.614-2.355-.031-3.303-2.866-4.796-4.614zm-.842-8.232c1.711 1.406 4.346 1.725 4.796 4.614-2.355-.031-3.303-2.866-4.796-4.614zm-.235-9.775c1.682 1.44 4.311 1.81 4.704 4.708-2.354-.078-3.246-2.93-4.704-4.708zm.561-7.858c1.682 1.44 4.311 1.81 4.704 4.708-2.354-.078-3.246-2.93-4.704-4.708zm.094-6.735c1.314 1.125 3.368 1.415 3.675 3.679-1.839-.061-2.536-2.29-3.675-3.679zm9.665 54.728c2.8-.409 2.7-2.963 3.802-4.629-1.424 1.31-3.513 1.633-3.802 4.629zm.569-8.65c1.698-1.084 1.814-3.002 2.586-4.574-.939 1.391-2.208 2.213-2.586 4.574zm-.518-10.399c1.838-.825 2.233-2.705 3.225-4.148-1.132 1.239-2.507 1.867-3.225 4.148zm-.402-8.298c2.837-1.265 3.493-4.259 5.053-6.536-1.768 1.947-3.89 2.911-5.053 6.536zm.172-8.542c2.289-.833 2.946-3.116 4.28-4.798-1.481 1.416-3.194 2.053-4.28 4.798zm-.845-7.622c1.927-.587 2.555-2.403 3.721-3.71-1.279 1.087-2.722 1.537-3.721 3.71zm.349-7.459c1.899-.672 2.446-2.514 3.552-3.872-1.229 1.143-2.651 1.657-3.552 3.872zm-3.124-3.717c1.016-1.74.242-3.499.21-5.25-.2 1.666-.953 2.977-.21 5.25z"
       class="D"
       id="path30" />
  </g>
  <g
     id="g1501">
    <path
       d="m 58.737,142.412 -5.424,12.568 c 9.709,-1.359 15.195,0.34 19.844,2.646 v -12.039 c -3.316,-2.031 -7.104,-3.753 -14.42,-3.175 z"
       fill="#f5f5f5"
       id="path32"
       style="stroke:#808080;stroke-width:0.265" />
    <path
       d="m 55.364,158.618 -2.051,-3.638 c 9.709,-1.359 15.195,0.34 19.844,2.646 v 4.696 C 70.106,157.91 62.68,158.04 55.364,158.618 Z"
       class="F"
       id="path34"
       style="stroke:#808080;stroke-width:0.265" />
    <path
       d="m 87.577,142.412 5.424,12.568 c -9.709,-1.359 -15.195,0.34 -19.844,2.646 v -12.039 c 3.316,-2.031 7.104,-3.753 14.42,-3.175 z"
       fill="#f5f5f5"
       id="path36"
       style="stroke:#808080;stroke-width:0.265" />
    <path
       d="m 90.95,158.618 2.051,-3.638 c -9.709,-1.359 -15.195,0.34 -19.844,2.646 v 4.696 c 3.051,-4.412 10.477,-4.282 17.793,-3.704 z"
       class="F"
       id="path38"
       style="stroke:#808080;stroke-width:0.265" />
    <path
       d="m 73.157,158.137 -1.731,3.391 c 0.23,0.442 0.899,0.883 1.731,0.935 0.832,-0.052 1.5,-0.493 1.731,-0.935 z"
       class="E"
       id="path40"
       style="stroke:#808080;stroke-width:0.265" />
  </g>
  <g
     id="g1431">
    <path
       d="M123.665 43.849c-.315-1.064.9-2.552 2.409-1.637-.014-5.752 7.063-5.224 4.747.094 3.469-.853 4.721 4.471 1.871 5.893l-5.543 1.099z"
       class="B E G"
       id="path44" />
    <path
       d="M132.108 43.452c.73.686.184 1.832.579 2.464 1.052.062.749-1.519.076-1.915-.157-.239-.355-.494-.655-.55zm-2.923-4.093c-1.208-.324-2.152 1.015-2.032 2.114.314.974-.516 1.766-1.433 1.195-.919-.112-.496 1.074.262.948.168.64.798.972 1.41.467.682-.518 1.583-.565 2.368-.269 1.257.28.136-.869-.023-1.293-.058-.863 1.22-1.247.838-2.153-.248-.516-.822-.951-1.389-1.009z"
       class="F"
       id="path46" />
    <path
       d="m 117.4663,60.773881 c -2.75484,1.239945 -5.66433,-2.907936 -2.62784,-4.40725 -3.99888,-0.724342 -0.6655,-7.022963 3.14978,-3.842285 -0.45016,-2.316493 4.02383,-5.014559 4.78374,0.0052 l -0.185,8.394572 z"
       class="B E G"
       id="path48" />
    <path
       d="m 119.51406,50.876458 c 0.70935,-0.336427 1.67388,0.762554 1.97503,0.548571 -0.21465,-0.779385 -1.39374,-1.128932 -1.97503,-0.548571 z"
       id="path50"
       style="fill:#e2e2e2" />
    <path
       id="use52"
       d="m 115.81707,57.31507 c -0.73048,0.638281 -0.6068,1.968943 0.32498,2.343609 0.79675,0.376092 1.94195,-0.18574 1.74389,-1.160773 -0.28278,-0.904218 -1.23786,-1.867437 -0.4107,-2.822056 0.55038,-0.760445 2.07589,-0.617361 2.22049,-1.638648 -0.64154,-0.311143 -1.8164,0.505797 -2.341,-0.541574 -0.78823,-0.665526 -2.66475,-1.108269 -2.94907,0.259783 -0.24264,1.296648 1.42771,1.2799 1.77444,2.273071 0.22718,0.489818 -0.0648,0.923619 -0.361,1.287522 z"
       style="fill:#e2e2e2" />
    <path
       d="M126.262 58.837c-1.149-2.794 2.901-5.431 4.299-2.348.855-3.973 7.041-.435 3.737 3.274 2.33-.374 4.348 4.73-.695 5.325l-6.284-.298z"
       class="B E G"
       id="path58" />
    <path
       d="m 135.896,61.342 c 0.313,0.72 -0.817,1.648 -0.613,1.956 0.786,-0.189 1.174,-1.356 0.613,-1.956 z"
       id="path60"
       style="fill:#e2e2e2" />
    <path
       id="use62"
       d="m 129.582,57.435998 c -0.614,-0.751 -1.948,-0.671 -2.353,0.248 -0.402,0.784 0.122,1.947 1.103,1.781 0.913,-0.253 1.907,-1.176 2.834,-0.318 0.742,0.575 0.549,2.095 1.565,2.273 0.332,-0.631 -0.446,-1.832 0.618,-2.322 0.691,-0.766 1.195,-2.627 -0.163,-2.956 -1.288,-0.285 -1.326,1.385 -2.33,1.699 -0.497,0.211 -0.921,-0.095 -1.275,-0.403 z"
       style="fill:#e2e2e2" />
    <path
       d="M125.402 92.77c-.103-3.491 4.463-3.146 5.027-1.885.523-4.924 8.045-2.063 4.299 2.183 3.58 1.424 2.002 6.114-.033 6.085l-6.648 1.819z"
       class="B E G"
       id="path66" />
    <path
       d="M135.853 95.73c-.032.153-.085.305-.066.463.024.046.017.158.044.221l-.005.362a.29.29 0 0 1-.081.176c-.06.071-.118.148-.194.207-.085.057-.136.148-.217.208-.057.081-.13.152-.193.221-.057.076-.134.13-.134.23.074.041.207.025.29-.009.096-.013.173-.082.258-.13.057-.062.121-.094.167-.157.086-.027.127-.128.172-.157.044-.087.103-.155.141-.244.027-.104.045-.211.041-.318.025-.081.011-.17.011-.255a1.38 1.38 0 0 0-.056-.337c-.024-.09-.019-.184-.053-.269-.023-.088-.056-.162-.083-.239-.018-.01-.029.018-.041.025zm-6.284-3.853c-.564-.197-1.08-.646-1.713-.56-.359.047-.87.015-.926.496-.132.448-.169.999.171 1.368.284.345.737.478 1.169.482.452.037.926-.05 1.362.098.484.262.95.648 1.531.64.415-.012.878.03 1.226-.242l.78-.713c.38-.367.684-.871.652-1.417-.022-.333.143-.679.022-.999-.181-.393-.652-.541-1.056-.507-.474-.005-.963.178-1.29.526-.266.335-.342.864-.795 1.016-.393.147-.748-.176-1.134-.186z"
       class="F"
       id="path68" />
    <path
       d="m 115.06309,68.867744 c -3.56328,0.368461 -2.26525,5.777832 1.99412,5.437956 l 3.60368,-0.185898 2.11253,-4.84339 c 0.98157,-2.867486 -2.34366,-6.095194 -4.33848,-3.484578 -1.8397,-4.172894 -7.50216,0.521971 -3.37282,3.075688 z"
       class="B E G"
       id="path70" />
    <path
       id="use72"
       d="m 120.52331,66.164809 c -0.36673,-0.114459 -0.17004,0.412508 0.064,0.456685 0.31029,0.177483 0.50737,0.464524 0.67691,0.768871 0.20563,0.290019 0.27327,0.64086 0.34867,0.980141 0.24302,0.467791 0.42814,-0.307453 0.38349,-0.543298 -0.0721,-0.376465 -0.22295,-0.753488 -0.47618,-1.046163 -0.31401,-0.228592 -0.57059,-0.60101 -0.99666,-0.617211 z"
       style="fill:#d3d3d3" />
    <path
       id="use74"
       d="m 116.16911,69.823778 c -1.20728,-0.372949 -2.65822,1.261198 -1.27887,2.084722 0.94719,0.771061 2.84009,0.135265 2.43372,-1.266273 -0.54571,-1.253839 0.33121,-2.219952 1.07686,-3.105245 0.42724,-1.103606 -1.35829,-2.084441 -2.18431,-1.332369 -0.29431,0.844692 0.80228,1.68472 0.28862,2.668087 -0.0615,0.332643 -0.12457,0.676233 -0.33699,0.950855 z"
       style="fill:#d3d3d3" />
    <path
       d="m 116.12993,84.253219 c -3.74088,0.660566 -2.3348,6.252729 2.34908,5.845857 l 3.83943,-0.455814 1.65236,-5.590443 c 1.78526,-2.673406 -0.88622,-7.494148 -4.52041,-4.037585 -1.83283,-5.51728 -9.75076,0.812419 -3.3194,4.238168 z"
       class="E G M"
       id="path80" />
    <path
       id="use82"
       d="m 121.7189,80.200271 c -0.40364,-0.103304 -0.13023,0.475451 0.12383,0.508927 0.35138,0.17805 0.59586,0.487081 0.8132,0.81747 0.25394,0.311786 0.36869,0.701484 0.49029,1.077649 0.31539,0.509033 0.4173,-0.375206 0.34103,-0.637227 -0.12258,-0.418197 -0.329,-0.831567 -0.63384,-1.143049 -0.36158,-0.235244 -0.67972,-0.636131 -1.13439,-0.624881 z"
       style="fill:#d3d3d3;stroke-width:1.09671" />
    <path
       id="use84"
       d="m 116.49056,85.636703 c -1.32831,-0.335747 -1.7345,2.068893 -0.16828,2.899226 1.61874,0.92761 4.08549,0.915902 5.31357,-0.0045 0.69325,-0.569911 -0.56384,-4.362388 -0.19996,-4.91875 0.31901,-1.270086 -5.25253,-2.904112 -6.03822,-2.001605 -0.20943,0.969855 2.50882,1.744714 2.08223,2.885434 -0.0247,0.378174 -0.79816,0.815507 -0.99029,1.138893 z"
       style="fill:#d3d3d3;stroke-width:1.09671" />
    <path
       d="M115.667 97.871c-3.392 1.152-2.736 6.286 1.871 4.911l3.648-1.263.982-5.192c1.389-2.634-1.983-6.039-5.005-2.432-2.337-1.971-6.091 2.405-1.497 3.976z"
       class="B E G"
       id="path90" />
    <path
       id="use92"
       d="m 119.713,93.264 c -0.383,-0.03 -0.074,0.44 0.164,0.431 0.342,0.104 0.598,0.34 0.831,0.599 0.265,0.237 0.409,0.564 0.558,0.878 0.341,0.402 0.349,-0.395 0.253,-0.615 -0.154,-0.351 -0.385,-0.685 -0.697,-0.914 -0.357,-0.153 -0.69,-0.459 -1.109,-0.38 z"
       style="fill:#d3d3d3" />
    <path
       id="use94"
       d="m 116.322,99.133999 c -1.26,-0.095 -2.311,1.821001 -0.783,2.317001 1.095,0.541 2.799,-0.5 2.091,-1.776001 -0.811,-1.101 -0.171,-2.238 0.359,-3.267 0.171,-1.171 -1.788,-1.73 -2.426,-0.813 -0.099,0.889 1.157,1.464 0.875,2.537 0.014,0.338 0.029,0.687 -0.117,1.002 z"
       style="fill:#d3d3d3" />
    <path
       d="m 129.76042,76.044072 c -1.89225,-3.293919 -6.06546,-0.399951 -4.3735,3.587383 l 1.35918,4.344252 5.81929,-0.345302 c 2.88699,1.98683 7.07487,-4.50243 1.09282,-6.232123 4.56637,-3.598325 -3.42165,-8.56731 -3.89798,-1.355272 z"
       class="E G M"
       id="path98" />
    <path
       id="use100"
       d="m 135.42495,80.20433 c -0.04,-0.414721 -0.49142,0.03905 -0.43658,0.289376 -0.0481,0.390968 -0.25566,0.725904 -0.49256,1.042565 -0.20696,0.34476 -0.53449,0.585094 -0.84696,0.827262 -0.3716,0.469576 0.49466,0.264994 0.71518,0.104237 0.35168,-0.257369 0.67033,-0.591958 0.85971,-0.984488 0.0984,-0.419996 0.36735,-0.855411 0.20229,-1.279219 z"
       style="fill:#d3d3d3;stroke-width:1.09671" />
    <path
       id="use102"
       d="m 128.53555,77.134057 c -0.13552,-1.363369 -2.53512,-0.928405 -2.78393,0.826756 -0.32246,1.837602 0.52664,4.153641 1.80953,4.995959 0.77155,0.458386 3.91132,-2.012442 4.55822,-1.859231 1.30292,-0.131482 0.94679,-5.926764 -0.16898,-6.359087 -0.98331,0.132546 -0.78854,2.952354 -2.00634,2.938705 -0.36408,0.10523 -1.03818,-0.473611 -1.4076,-0.544431 z"
       style="fill:#d3d3d3;stroke-width:1.09671" />
    <path
       d="M117.377 89.926c1.044-.509 2.016-.927 2.811-1.124.135-.187-.031-1.579-.331-3.506.88.366 1.839.653 2.547 1.191.398-1.405.719-1.511 1.058-1.918.479 1.838-.905 4.581 1.554 5.457l-.628 2.084c-2.412 1.066-3.479-1.402-7.011-2.183z"
       class="B H I"
       id="path108" />
    <path
       d="M120.446 89.452c-.439-.01-1.577-.04-1.51.357.696.062 1.416.079 2.028.461.599.306 1.224.001 1.634-.458.562-.55.314-1.453.483-2.162-.02-.385.102-1.174-.063-1.353-.341.425-.607 1.356-1.051 1.43-.382-.396-.765-1.107-1.268-1.19.118.668.151 1.338.13 2.023 0 .32-.07.731-.382.892z"
       class="J"
       id="path110" />
    <path
       d="M120.772 90.14c.197.39.373.816.701 1.116.238.145.525.182.76.342.269.112.567.129.853.088.203.115.711-.046.315-.233l-1.116-.652c-.278-.1-.526-.269-.79-.4-.236-.097-.453-.282-.723-.262z"
       class="K"
       id="path112" />
    <path
       d="M124.212 106.429l.364-1.918c-.248-.308-1.168-.939-1.124-2.183.631-3.916-2.167-3.072-1.455-6.284-.372.776-.761 1.467-1.091 2.447-1.267-.478-1.776.231-2.613-.248.239 1.235 1.372 1.973 1.323 2.96-1.46.327-1.928 1.582-2.811 1.72 2.695.029 4.457 1.943 5.622 1.554l1.786 1.951z"
       class="B H I"
       id="path114" />
    <path
       d="M120.394 102.887c.037.227.088.473.266.634.096.134.173.306.349.349.166.051.337.066.509.075.152-.046.354.084.469-.05-.042-.152-.212-.221-.317-.328a4.12 4.12 0 0 0-.589-.394c-.193-.091-.391-.172-.603-.206-.042-.008-.064-.048-.085-.081z"
       class="K"
       id="path116" />
    <path
       d="M119.83 99.274c.157.28.469.428.629.703.097.206-.025.454.077.654.133.225.313.427.557.533.189.103.404.174.55.339.187.174.482.344.474.631.022.142.122.492.112.511a1.06 1.06 0 0 0 .15.313c.023-.295.041-.596.127-.881.105-.185.098-.398.212-.583.057-.304.084-.619.065-.929-.082-.08-.12-.351-.163-.315-.029-.065-.151-.316-.075-.213-.107-.282-.29-.525-.412-.799-.053-.176-.179-.331-.214-.536-.084-.145.019-.433-.124-.505-.171.133-.212.365-.305.55-.091.281-.082.584-.08.877.036.212.028.425.105.631-.141-.043-.25-.221-.398-.257-.134-.223-.384-.28-.574-.442-.185-.149-.419-.189-.608-.3-.035 0-.07.009-.104.017z"
       class="J"
       id="path118" />
    <path
       d="M117.255 74.345c.683-.241 1.189-.986 1.978-.891.414-.323.255-.893.207-1.338.018-.572.113-1.199.347-1.711.466-.112.733.54 1.216.568.278.211.939.555.797-.066.074-.685.295-1.373.697-1.935.457-.36.123.441.144.68-.073.645.301 1.216.729 1.66.364.376.509.892.845 1.289.62.833 1.285 1.731 1.334 2.81.043.476.096 1-.205 1.411-.348.543-.983.899-1.635.829-.463-.05-.938-.042-1.388-.163-.474-.165-.799-.555-1.222-.81-.72-.655-1.27-1.551-2.215-1.917-.519-.212-1.075-.332-1.628-.414z"
       class="B H I"
       id="path120" />
    <path
       d="M120.555 75.046c.163.124.179.371.368.469.137.132.188.335.348.447.146.155.339.257.488.409.194.145.429.216.648.311.466.148.962.12 1.444.119.2-.087-.046-.303-.168-.343-.23-.152-.448-.334-.72-.406-.153-.076-.291-.181-.456-.231-.208-.081-.395-.208-.601-.292-.195-.066-.372-.183-.579-.209-.213-.046-.417-.129-.607-.234l-.166-.042z"
       class="K"
       id="path122" />
    <path
       d="M120.415 71.702c.256.837.373 1.796 1.032 2.433.444.311 1.021.361 1.443.719.405.36.986.486 1.313.932.155.263-.136-.424-.125-.591-.102-.531-.337-1.026-.647-1.465-.393-.716-.457-1.555-.823-2.281-.139-.147-.113.455-.241.585-.183.381-.058.801-.131 1.191-.315.097-.447-.539-.743-.697-.284-.301-.496-.822-.981-.801-.03.022-.082.009-.098-.025z"
       class="J"
       id="path124" />
    <path
       d="M122.689 53.991s.373 1.852.794 2.643c.567.745.962 1.599 1.381 2.43.246.59.266 1.235.378 1.855.038.397.006.797-.038 1.192-.277.437-.408 1.099-1.001 1.208-.677.164-1.368-.037-2.036-.145-1.541-.908-3.017-1.598-4.655-2.019 1.178-1.213 1.528-1.151 2.041-1.399-.236-1.457-.037-2.844-.085-4.168 1.837 1.356 2.041 1.344 2.712 1.687.146-1.702-.004-2.461.509-3.284z"
       class="B H I"
       id="path126" />
    <path
       d="M120.756 61.466c.322.275.704.479.983.8.343.076.717.091 1.068.062.318-.125.805-.249.884-.609-.24-.187-.641-.024-.944-.071-.526.013-1.055.016-1.568-.118-.142-.014-.281-.129-.423-.063z"
       class="K"
       id="path128" />
    <path
       d="M120.368 57.46c.022.277.198.513.216.792l.259.895c.086.343.173.707.414.979.219.102.394.298.645.328.514.133 1.048.121 1.574.131.338.001.713-.238.734-.598.041-.232-.102-.433-.235-.607-.141-.192-.188-.433-.301-.641-.135-.233-.152-.515-.301-.742l-.152-.495c-.01-.15-.098-.294-.125-.472-.011-.103-.07-.364-.07-.114-.037.392-.005.787-.015 1.18-.01.24.035.486-.058.71-.01.138.017.332-.183.214-.166-.08-.399-.273-.523-.298.1.061.176.103.033.025l-.895-.513c-.216-.144-.397-.334-.619-.471-.102-.141-.305-.154-.398-.304z"
       class="J"
       id="path130" />
    <path
       d="m 125.349,52.432 -0.748,6.361 -0.047,4.584 0.702,1.731 v 3.461 l -0.561,4.63 -0.281,4.677 0.374,0.561 c 1.154,2.712 0.97,2.999 1.45,4.49 l -1.45,7.296 -0.655,2.152 c 0.202,0.114 0.527,0.372 0.531,0.801 0.019,2.027 0.764,3.964 1.293,5.513 l -1.777,7.717 c -0.86,5.577 1.891,11.708 3.789,12.067 0.862,-0.955 0.762,-2.423 1.029,-3.695 -3.299,0.039 -4.858,-6.713 -3.414,-9.682 l 1.076,-6.642 -1.403,-6.08 c -0.031,-1.039 -0.103,-2.127 1.024,-4.597 0.695,-1.524 0.716,-3.253 1.081,-4.897 l -0.608,-3.882 c -1.45,-2.546 -1.933,-5.7 -0.655,-9.962 l -0.047,-7.624 -0.702,-1.871 c 0.048,-2.893 0.779,-4.646 1.169,-6.969 z"
       id="path132"
       style="fill:#018f50;stroke:#005b31;stroke-width:0.265" />
    <path
       d="m 125.309,92.703 c -0.415,3.898 -1.183,8.003 -0.608,11.319 l 0.935,1.076 c 3.069,-0.813 4.782,-4.586 9.261,-5.8 l -4.49,0.234 c -0.397,-1.31 -0.084,-2.619 -0.094,-3.929 -0.932,0.543 -1.754,1.159 -2.853,1.59 -0.802,-1.581 -1.47,-3.029 -2.152,-4.49 z"
       id="path134"
       style="fill:#018f50;stroke:#005b31;stroke-width:0.265" />
    <path
       id="use138"
       d="m 128.916,101.356 c -0.324,0.16 -0.695,0.265 -0.94,0.547 -0.146,0.134 -0.331,0.216 -0.484,0.341 -0.205,0.123 -0.424,0.225 -0.613,0.375 -0.136,0.086 -0.162,0.267 -0.294,0.358 -0.018,0.139 0.21,0.143 0.313,0.167 a 3.49,3.49 0 0 0 0.532,0.024 c 0.103,-0.083 0.214,-0.153 0.335,-0.205 0.137,-0.082 0.248,-0.202 0.35,-0.323 0.098,-0.142 0.142,-0.315 0.243,-0.456 0.053,-0.152 0.147,-0.277 0.246,-0.401 0.078,-0.119 0.171,-0.227 0.286,-0.31 0.031,-0.03 0.047,-0.078 0.024,-0.118 z"
       style="fill:#005b31" />
    <path
       id="use140"
       d="m 125.77,96.024 c 0.012,0.659 0.064,1.325 -0.024,1.98 l -0.381,1.147 c -0.123,0.572 -0.124,1.167 -0.098,1.746 0.111,0.347 0.246,0.696 0.48,0.98 0.09,0.165 0.074,0.425 0.255,0.519 -0.068,-0.382 0.127,-0.738 0.373,-1.011 0.192,-0.311 0.464,-0.563 0.778,-0.747 0.389,-0.287 0.815,-0.538 1.29,-0.648 0.4,-0.191 0.482,-0.681 0.531,-1.077 0.044,-0.398 0.121,-0.793 0.19,-1.187 0.079,-0.114 0.089,-0.251 -0.063,-0.12 -0.514,0.256 -0.958,0.623 -1.425,0.951 a 5.79,5.79 0 0 1 -0.77,0.639 c -0.191,-0.228 0.03,-0.573 -0.047,-0.85 -0.053,-0.612 -0.437,-1.117 -0.672,-1.666 -0.131,-0.22 -0.225,-0.477 -0.416,-0.655 z"
       style="fill:#00a75d" />
    <path
       d="m 126.22683,76.432635 c -0.55694,3.431198 -1.40946,6.982903 -1.13736,10.07482 l 0.68982,1.142823 c 2.51324,-0.159596 4.10626,-3.236284 7.77574,-3.493939 l -2.85048,-0.602761 c -0.244,-1.253141 -0.40815,-3.004736 -0.34117,-4.184824 -0.7802,0.31499 -1.87369,1.464301 -2.78174,1.648245 -0.55399,-1.572574 -0.89126,-3.14146 -1.35492,-4.582564 z"
       stroke-width="0.264753"
       class="H I"
       id="path142" />
    <path
       id="use144"
       d="m 128.62998,84.893643 c -0.26958,0.08361 -0.57378,0.10895 -0.78686,0.3171 -0.12502,0.09339 -0.27841,0.132709 -0.40855,0.216695 -0.17181,0.07249 -0.35367,0.123472 -0.51417,0.223249 -0.11424,0.05205 -0.14551,0.210122 -0.25682,0.267421 -0.0224,0.121757 0.16059,0.167866 0.242,0.208671 a 3.2846036,2.7222834 67.437312 0 0 0.42621,0.120788 c 0.0875,-0.0555 0.18076,-0.09782 0.281,-0.122062 0.11481,-0.04827 0.2109,-0.135583 0.29981,-0.225477 0.0869,-0.109543 0.13218,-0.257056 0.22144,-0.365139 0.0513,-0.126933 0.13402,-0.22192 0.2207,-0.315074 0.0695,-0.09257 0.15045,-0.172441 0.24763,-0.225708 0.0266,-0.02122 0.0422,-0.06145 0.0261,-0.101737 z"
       style="fill:#005b31;stroke-width:0.856806" />
    <path
       id="use146"
       d="m 126.40702,79.5078 c -0.0281,0.595399 -0.0245,1.204558 -0.13276,1.777713 l -0.37196,0.961376 c -0.13164,0.491922 -0.16654,1.027292 -0.17883,1.553295 0.0693,0.333027 0.15783,0.67233 0.32963,0.971584 0.0629,0.165295 0.0351,0.396336 0.17521,0.514691 -0.0328,-0.356514 0.14436,-0.640593 0.35773,-0.840454 0.17214,-0.244134 0.40519,-0.420246 0.66811,-0.527322 0.3291,-0.185802 0.68587,-0.332303 1.07395,-0.342755 0.33243,-0.09734 0.42642,-0.523101 0.4885,-0.870403 0.0582,-0.350035 0.1427,-0.691217 0.22074,-1.03299 0.07,-0.08788 0.0859,-0.209331 -0.0438,-0.119757 -0.42779,0.134595 -0.80568,0.382151 -1.19982,0.590315 a 5.449242,4.5163384 67.437312 0 1 -0.65549,0.431603 c -0.14045,-0.240832 0.057,-0.510162 0.0109,-0.773844 -0.008,-0.560739 -0.28722,-1.08688 -0.44463,-1.624845 -0.0927,-0.222444 -0.1535,-0.471294 -0.29681,-0.667121 z"
       style="fill:#00a75d;stroke-width:0.856806" />
    <path
       d="m 126.21821,58.634249 c -0.58295,3.224867 -1.47527,6.590239 -1.19047,9.419827 l 0.72203,0.987696 c 3.50512,-0.15212 4.43766,-3.356943 8.13873,-3.995409 l -3.21732,-1.024459 c -0.25539,-1.13362 -0.14702,-2.314825 -0.0761,-3.411561 -0.81662,0.368016 -1.61047,1.163836 -2.56085,1.422571 -0.8515,-2.825508 -1.401,-1.286293 -1.81605,-3.398665 z"
       stroke-width="0.2654"
       class="H I"
       id="path150" />
    <path
       id="use152"
       d="m 128.73353,66.213677 c -0.28216,0.103852 -0.60056,0.157292 -0.82358,0.370622 -0.13087,0.09862 -0.29142,0.150085 -0.42762,0.240522 -0.17984,0.08393 -0.37019,0.14898 -0.53819,0.257002 -0.11956,0.05936 -0.15229,0.208483 -0.2688,0.272405 -0.0235,0.114699 0.16809,0.13923 0.2533,0.168892 a 2.9989005,2.8831556 44.098644 0 0 0.4461,0.06952 c 0.0916,-0.05992 0.18921,-0.108211 0.29412,-0.140504 0.12017,-0.05592 0.22074,-0.146075 0.31381,-0.237901 0.091,-0.109778 0.13835,-0.250527 0.23178,-0.35919 0.0537,-0.122331 0.14028,-0.218248 0.231,-0.312864 0.0728,-0.09238 0.15747,-0.174159 0.25919,-0.232963 0.0279,-0.02224 0.0442,-0.06094 0.0273,-0.09656 z"
       style="fill:#005b31;stroke-width:0.842538" />
    <path
       id="use154"
       d="m 126.40681,61.457433 c -0.0294,0.552832 -0.0256,1.115241 -0.13897,1.655434 l -0.38932,0.924877 c -0.13778,0.467454 -0.17432,0.965497 -0.18717,1.452654 0.0726,0.300822 0.16519,0.605548 0.34501,0.865053 0.0658,0.1465 0.0368,0.362687 0.18339,0.458199 -0.0343,-0.326129 0.1511,-0.606058 0.37443,-0.81176 0.18017,-0.242533 0.42411,-0.428239 0.6993,-0.553113 0.34446,-0.204138 0.71789,-0.3747 1.12408,-0.422663 0.34796,-0.122745 0.44634,-0.525357 0.51131,-0.852338 0.0609,-0.329119 0.14936,-0.652661 0.23104,-0.976109 0.0733,-0.0881 0.0899,-0.20187 -0.0458,-0.106318 -0.44776,0.166573 -0.84329,0.432577 -1.25583,0.663795 a 4.9752532,4.7832295 44.098644 0 1 -0.68609,0.463438 c -0.147,-0.208627 0.0596,-0.476931 0.0114,-0.71599 -0.008,-0.517293 -0.30062,-0.975756 -0.46538,-1.457213 -0.097,-0.196355 -0.16067,-0.420249 -0.31067,-0.587016 z"
       style="fill:#00a75d;stroke-width:0.842538" />
    <path
       d="M123.716 44.053c-.397 1.563.254 8.07 2.136 8.688 1.023-.15 1.903-1.032 2.757-1.51.549-.844 1.423-1.316 2.138-1.863l1.709-1.241c-.4-.179-1.048.096-1.464-.037-.527-.189-.856-.195-1.363-.119-.562-.15-.319-.877-.585-1.29-.071-.367-.021-.877-.421-.467l-1.843.839c-.79-.04-2.044-1.868-2.78-2.381-.116-.196-.221-.4-.283-.62z"
       class="B H I"
       id="path158" />
    <path
       d="M124.46 49.163c.217.917.556 1.818 1.066 2.611.372.594 1.342.079.995-.553-.503-.449-.675-1.143-1.135-1.626-.285-.187-.584-.374-.926-.431z"
       class="K"
       id="path160" />
    <path
       d="M128.483 47.03c-.924.467-1.46 1.477-1.371 2.496-.041.756.705.772 1.123.34.84-.225 1.6-.634 2.385-.989.482-.068.657-.701.008-.546-.674-.157-1.598.269-2.111-.055.017-.284.592-1.388-.033-1.248z"
       class="J"
       id="path162" />
  </g>
  <g
     id="g1482">
    <path
       d="m 73.157,51.512 c -3.98,0 -6.822,2.754 -8.41,4.661 h 1.396 l 0.16,3.859 h 1.739 l 5.115,69.085 5.115,-69.085 h 1.739 l 0.16,-3.859 h 1.396 c -1.587,-1.907 -4.43,-4.661 -8.41,-4.661 z"
       stroke="#000000"
       class="B E"
       id="path164"
       style="opacity:0.999" />
    <path
       d="m 70.565,59.879 v 0 l 2.593,0.563 h -5.084 l -0.03,-0.41 H 66.305 L 66.161,56.56 h 4.24 z m -3.738,-3.886 h 4.448 c -1.367,-0.975 -2.121,-2.009 -0.298,-3.291 a 8.89,8.89 0 0 0 -4.151,3.291 z"
       id="path166"
       style="opacity:0.999" />
    <path
       id="rect168"
       style="opacity:0.999;fill-rule:evenodd;"
       d="m 70.598,61.268002 h 2.56 v 0.562 h -2.56 z" />
    <path
       id="rect170"
       style="opacity:0.999;fill-rule:evenodd;"
       d="m 70.598,62.591 h 2.56 v 0.562 h -2.56 z" />
    <path
       id="rect172"
       style="opacity:0.999;fill-rule:evenodd;"
       d="m 70.598,63.914001 h 2.56 v 0.562 h -2.56 z" />
    <path
       id="rect174"
       style="opacity:0.999;fill-rule:evenodd;"
       d="m 70.598,65.237 h 2.56 v 0.561999 h -2.56 z" />
    <path
       d="M 73.157,129.117 V 66.675 h -2.493 v 0.841 h -2.067 z"
       id="path178"
       style="opacity:0.999" />
  </g>
  <g
     id="g1473">
    <path
       d="M55.737 126.502l5.661-20.155 11.759-3.821v12.364z"
       class="D"
       id="path182" />
    <path
       d="M55.737 126.502l17.42-23.976-11.759 3.821z"
       class="C"
       id="path184" />
    <path
       d="M 73.157,72.89 80.424,92.523 73.157,102.526 65.89,92.523 Z"
       class="D"
       id="path186" />
    <path
       d="m 73.157,72.89 v 29.636 l 7.267,-10.003 z"
       id="path188"
       style="fill:#f5c742" />
    <path
       d="M 90.577,126.502 84.916,106.347 73.157,102.526 V 114.89 Z"
       id="path190"
       style="fill:#f5c742" />
    <path
       d="M90.577 126.502l-17.42-23.976 11.759 3.821z"
       class="D"
       id="path194" />
    <path
       d="M101.343 93.368l-20.918-.845-7.267 10.003 11.759 3.821z"
       class="C"
       id="path196" />
    <path
       d="m 101.343,93.368 -28.186,9.158 7.267,-10.003 z"
       id="path198"
       style="fill:#ffeba3" />
    <path
       d="m 44.972,93.368 20.918,-0.845 7.267,10.003 -11.759,3.821 z"
       id="path200"
       style="fill:#ffeba3" />
    <path
       d="M44.972 93.368l28.186 9.158-7.267-10.003z"
       class="C"
       id="path204" />
  </g>
  <g
     id="g1361">
    <path
       id="use206"
       d="m 58.171,90.498 c 1.734,-0.314 3.133,-2.073 2.857,-3.592 -0.092,-0.509 -0.306,-0.908 -0.844,-1.573 -1.2,-1.487 -1.313,-1.844 -1.673,-5.285 -0.286,-2.742 -0.562,-3.879 -1.26,-5.193 L 55.672,71.668 C 55.135,70.334 54.715,68.822 54.536,67.585 L 54.327,65.75 C 54.055,63.074 53.795,62.326 51.982,58.999 51.2,57.564 50.94,57.007 50.615,56.075 50.08,54.539 49.909,53.599 49.821,51.727 49.745,50.115 49.629,49.335 49.33,48.443 49.054,47.619 48.824,47.203 47.977,45.993 46.917,44.48 46.298,43.227 45.915,41.819 45.817,41.46 45.611,40.423 45.456,39.516 45.163,37.794 45.074,37.474 44.76,37.01 44.367,36.429 43.754,36.154 41.975,35.762 40.668,35.474 40.03,35.272 39.364,34.936 l -0.512,-0.242 c -0.017,0 0.094,0.319 0.248,0.71 l 3.065,8.712 0.592,2.973 c 0.674,3.79 0.778,4.119 2.55,8.032 0.925,2.043 1.202,3.046 1.676,6.059 0.586,3.722 0.796,4.373 2.386,7.375 1.412,2.666 1.609,3.322 1.943,6.474 0.255,2.41 0.599,3.505 1.694,5.401 0.63,1.09 1.114,2.092 1.473,3.047 0.566,1.504 0.741,2.503 0.742,4.227 0.001,1.528 0.198,2.045 0.937,2.463 0.649,0.367 1.266,0.469 2.011,0.334 z"
       style="fill:#a07843" />
    <path
       id="use208"
       d="m 41.486,36.875 a 5.18,5.18 0 0 1 -1.468,-0.734 c -0.294,-0.233 -0.557,-0.597 -0.485,-0.669 0.025,-0.025 0.301,0.037 0.615,0.138 0.593,0.191 1.3,0.372 2.214,0.569 0.482,0.104 0.537,0.132 0.537,0.276 0,0.313 -0.217,0.475 -0.665,0.497 -0.225,0.011 -0.561,-0.024 -0.747,-0.077 z" />
    <path
       id="use210"
       d="m 59.459,88.122 c 0.283,-0.39 0.267,-0.731 -0.058,-1.258 l -0.589,-0.959 -0.335,-0.517 c 0,0.017 0.046,0.404 0.103,0.859 0.176,1.414 0.117,2.144 -0.214,2.632 l -0.169,0.249 0.532,-0.368 c 0.293,-0.202 0.621,-0.49 0.728,-0.639 z" />
    <path
       id="use212"
       d="m 58.514,89.884 c 0.747,-0.259 1.476,-0.896 1.816,-1.59 0.162,-0.33 0.19,-0.474 0.19,-0.976 0,-0.694 -0.07,-0.843 -0.893,-1.884 -1.105,-1.399 -1.253,-1.876 -1.597,-5.138 l -0.196,-1.677 c -0.012,-0.012 -0.207,0.102 -0.434,0.252 -0.227,0.15 -0.423,0.243 -0.436,0.205 -0.013,-0.038 -0.06,-0.047 -0.104,-0.021 -0.044,0.026 0.14,-0.189 0.41,-0.479 0.43,-0.462 0.487,-0.554 0.46,-0.74 -0.034,-0.234 -0.155,-0.274 -0.299,-0.101 -0.051,0.062 -0.323,0.267 -0.604,0.457 -0.362,0.244 -0.533,0.323 -0.585,0.271 -0.052,-0.052 0.03,-0.176 0.282,-0.424 0.445,-0.438 0.736,-0.858 0.843,-1.214 0.074,-0.246 0.063,-0.328 -0.099,-0.76 -0.1,-0.266 -0.41,-0.905 -0.69,-1.419 -1.073,-1.97 -1.585,-3.151 -2.016,-4.649 -0.359,-1.248 -0.505,-2.06 -0.695,-3.859 l -0.21,-1.76 c -0.033,-0.107 -0.094,-0.084 -0.465,0.18 l -0.574,0.38 c -0.258,0.136 -0.161,-0.142 0.141,-0.407 a 3.04,3.04 0 0 0 0.467,-0.546 c 0.273,-0.429 0.257,-0.917 -0.019,-0.584 -0.165,0.199 -1.102,0.796 -1.177,0.75 -0.041,-0.026 0.123,-0.247 0.384,-0.517 0.486,-0.504 0.661,-0.821 0.661,-1.198 0,-0.27 -0.448,-1.214 -1.394,-2.935 -1.732,-3.153 -2.265,-4.928 -2.377,-7.914 -0.034,-0.913 -0.201,-2.327 -0.286,-2.416 -0.014,-0.015 -0.084,0.016 -0.156,0.069 l -0.605,0.424 c -0.632,0.436 -0.719,0.311 -0.179,-0.256 0.219,-0.23 0.471,-0.538 0.561,-0.686 0.148,-0.243 0.155,-0.292 0.076,-0.519 -0.128,-0.37 -0.527,-1.026 -1.308,-2.155 -1.042,-1.505 -1.674,-2.852 -2.046,-4.362 -0.099,-0.4 -0.29,-1.396 -0.426,-2.214 l -0.385,-1.8 c -0.132,-0.299 -0.514,-0.763 -0.628,-0.763 -0.03,0 -0.1,0.089 -0.156,0.198 -0.301,0.583 -1.568,0.556 -3.047,-0.064 l -0.491,-0.185 c -0.006,0.009 0.22,0.608 0.503,1.332 0.704,1.804 1.621,4.572 1.916,5.782 0.281,1.153 0.574,2.744 0.837,4.536 0.255,1.741 0.292,1.887 0.503,2.026 0.098,0.064 0.377,0.167 0.62,0.228 0.243,0.061 0.448,0.14 0.456,0.175 0.008,0.035 -0.226,0.073 -0.52,0.084 l -0.534,0.02 0.179,0.499 c 0.099,0.275 0.579,1.343 1.067,2.374 1.548,3.271 1.662,3.643 2.246,7.31 l 0.697,3.39 c 0.233,0.457 0.782,0.747 1.683,0.888 0.415,0.065 0.638,0.142 0.418,0.144 -0.081,0.001 -0.08,0.013 0.006,0.072 0.073,0.05 -0.176,0.065 -0.837,0.051 l -0.941,-0.02 0.199,0.45 c 0.109,0.248 0.464,0.949 0.789,1.558 1.713,3.218 1.926,3.876 2.279,7.028 0.185,1.653 0.433,2.921 0.642,3.279 0.188,0.321 0.52,0.514 0.971,0.563 0.515,0.056 0.762,0.114 0.654,0.154 -0.048,0.018 -0.069,0.06 -0.048,0.095 0.021,0.035 -0.227,0.063 -0.588,0.063 -0.345,0 -0.627,0.02 -0.627,0.046 0,0.026 0.326,0.625 0.724,1.333 0.767,1.363 1.247,2.413 1.65,3.611 0.379,1.125 0.47,1.723 0.527,3.463 0.048,1.475 0.06,1.579 0.219,1.867 0.127,0.23 0.262,0.353 0.549,0.499 0.677,0.345 1.301,0.383 2.044,0.125 z"
       style="fill:#f5c742" />
    <path
       d="m 49.493,65.599 a 0.27,0.27 0 0 0 -0.173,0 c -0.047,0.019 -0.009,0.035 0.087,0.035 0.096,0 0.134,-0.016 0.087,-0.035 z M 45.159,42.291 c -0.019,-0.048 -0.035,-0.009 -0.035,0.087 0,0.096 0.016,0.134 0.035,0.087 a 0.27,0.27 0 0 0 0,-0.173 z"
       id="path214"
       style="fill:#a07843" />
    <path
       id="use216"
       d="m 46.792,48.066 c 0.214,-0.344 0.201,-0.976 -0.033,-1.637 -0.178,-0.504 -1.11,-2.531 -1.146,-2.495 -0.011,0.011 0.148,0.468 0.355,1.015 l 0.454,1.362 a 5.34,5.34 0 0 1 -0.014,1.862 l -0.092,0.355 0.16,-0.105 c 0.088,-0.058 0.231,-0.219 0.317,-0.357 z"
       style="fill:#a07843" />
    <path
       id="use218"
       d="m 51.045,62.97 c 0.355,-0.287 0.647,-0.849 0.647,-1.244 0,-0.487 -0.249,-1.134 -0.771,-2.003 l -0.833,-1.418 -0.335,-0.547 c 0,0.098 0.288,0.865 0.621,1.651 0.506,1.194 0.582,1.475 0.584,2.151 0.002,0.607 -0.124,1.127 -0.381,1.577 l -0.129,0.227 0.154,-0.08 c 0.085,-0.044 0.284,-0.185 0.442,-0.313 z"
       style="fill:#a07843" />
    <path
       id="use220"
       d="m 55.666,76.922 c 0.297,-0.347 0.418,-0.769 0.355,-1.232 -0.056,-0.408 -0.479,-1.312 -1.008,-2.155 l -0.631,-1.069 c -0.355,-0.65 -0.334,-0.446 0.049,0.485 0.831,2.017 0.814,1.965 0.847,2.674 0.033,0.729 -0.072,1.243 -0.363,1.769 l -0.159,0.288 0.338,-0.243 c 0.186,-0.134 0.444,-0.366 0.572,-0.516 z"
       style="fill:#a07843" />
    <path
       id="use224"
       d="m 41.768,38.821 c 1.85,3.146 1.582,6.893 2.423,10.329 2.371,1.313 -0.136,-2.845 0.618,-4.115 0.055,-2.134 0.265,-6.447 -2.697,-6.237 l -0.343,0.024 z"
       style="fill:#ffeba3" />
    <path
       id="use226"
       d="m 47.661,51.263 c -3.787,1.39 0.461,4.463 0.394,7.099 0.946,0.928 0.155,6.548 1.192,3.314 0.134,-2.383 -0.341,-4.88 -1.034,-7.202 -0.292,-1.015 -0.989,-2.159 -0.553,-3.212 z"
       style="fill:#ffeba3" />
    <path
       id="use228"
       d="m 52.759,65.902 c -1.108,1.366 -4.797,0.674 -1.885,2.436 1.913,2.531 1.694,5.906 2.267,8.884 -0.039,-2.1 -0.556,-7.234 0.142,-7.053 -0.952,-1.577 0.957,-3.662 -0.398,-4.588 z"
       style="fill:#ffeba3" />
    <path
       id="use230"
       d="m 55.799,78.952 c -1.805,0.166 -2.617,0.874 -0.802,2.046 1.614,1.99 1.358,4.682 1.932,7.009 0.894,1.992 4.161,-0.613 1.527,-1.223 -1.309,-1.927 0.403,-4.965 -1.51,-6.477 -0.914,-0.139 -0.597,-1.085 -1.146,-1.356 z"
       style="fill:#ffeba3" />
  </g>
  <g
     id="g1382">
    <path
       id="use234"
       d="m 88.142309,90.498002 c -1.734,-0.314 -3.133,-2.073 -2.857,-3.592 0.092,-0.509 0.306,-0.908 0.844,-1.573 1.2,-1.487 1.313,-1.844 1.673,-5.285 0.286,-2.742 0.562,-3.879 1.26,-5.193 l 1.579,-3.187 c 0.537,-1.334 0.957,-2.846 1.136,-4.083 l 0.209,-1.835 c 0.272,-2.676 0.532,-3.424 2.345,-6.751 0.782,-1.435 1.042,-1.992 1.367,-2.924 0.535,-1.536 0.706,-2.476 0.794,-4.348 0.076,-1.612 0.192,-2.392 0.491,-3.284 0.276,-0.824 0.506,-1.24 1.353,-2.45 1.06,-1.513 1.679001,-2.766 2.062001,-4.174 0.098,-0.359 0.304,-1.396 0.459,-2.303 0.293,-1.722 0.382,-2.042 0.696,-2.506 0.393,-0.581 1.006,-0.856 2.785,-1.248 1.307,-0.288 1.945,-0.49 2.611,-0.826 l 0.512,-0.242 c 0.017,0 -0.094,0.319 -0.248,0.71 l -3.065,8.712 -0.592,2.973 c -0.674,3.79 -0.778,4.119 -2.55,8.032 -0.925,2.043 -1.202001,3.046 -1.676001,6.059 -0.586,3.722 -0.796,4.373 -2.386,7.375 -1.412,2.666 -1.609,3.322 -1.943,6.474 -0.255,2.41 -0.599,3.505 -1.694,5.401 -0.63,1.09 -1.114,2.092 -1.473,3.047 -0.566,1.504 -0.741,2.503 -0.742,4.227 -0.001,1.528 -0.198,2.045 -0.937,2.463 -0.649,0.367 -1.266,0.469 -2.011,0.334 z"
       style="fill:#a07843" />
    <path
       id="use236"
       d="m 104.82731,36.875002 a -5.18,5.18 0 0 0 1.468,-0.734 c 0.294,-0.233 0.557,-0.597 0.485,-0.669 -0.025,-0.025 -0.301,0.037 -0.615,0.138 -0.593,0.191 -1.3,0.372 -2.214,0.569 -0.482,0.104 -0.537,0.132 -0.537,0.276 0,0.313 0.217,0.475 0.665,0.497 0.225,0.011 0.561,-0.024 0.747,-0.077 z" />
    <path
       id="use238"
       d="m 86.854309,88.122002 c -0.283,-0.39 -0.267,-0.731 0.058,-1.258 l 0.589,-0.959 0.335,-0.517 c 0,0.017 -0.046,0.404 -0.103,0.859 -0.176,1.414 -0.117,2.144 0.214,2.632 l 0.169,0.249 -0.532,-0.368 c -0.293,-0.202 -0.621,-0.49 -0.728,-0.639 z" />
    <path
       id="use240"
       d="m 87.799309,89.884002 c -0.747,-0.259 -1.476,-0.896 -1.816,-1.59 -0.162,-0.33 -0.19,-0.474 -0.19,-0.976 0,-0.694 0.07,-0.843 0.893,-1.884 1.105,-1.399 1.253,-1.876 1.597,-5.138 l 0.196,-1.677 c 0.012,-0.012 0.207,0.102 0.434,0.252 0.227,0.15 0.423,0.243 0.436,0.205 0.013,-0.038 0.06,-0.047 0.104,-0.021 0.044,0.026 -0.14,-0.189 -0.41,-0.479 -0.43,-0.462 -0.487,-0.554 -0.46,-0.74 0.034,-0.234 0.155,-0.274 0.299,-0.101 0.051,0.062 0.323,0.267 0.604,0.457 0.362,0.244 0.533,0.323 0.585,0.271 0.052,-0.052 -0.03,-0.176 -0.282,-0.424 -0.445,-0.438 -0.736,-0.858 -0.843,-1.214 -0.074,-0.246 -0.063,-0.328 0.099,-0.76 0.1,-0.266 0.41,-0.905 0.69,-1.419 1.073,-1.97 1.585,-3.151 2.016,-4.649 0.359,-1.248 0.505,-2.06 0.695,-3.859 l 0.21,-1.76 c 0.033,-0.107 0.094,-0.084 0.465,0.18 l 0.574,0.38 c 0.258,0.136 0.161,-0.142 -0.141,-0.407 a -3.04,3.04 0 0 1 -0.467,-0.546 c -0.273,-0.429 -0.257,-0.917 0.019,-0.584 0.165,0.199 1.102,0.796 1.177,0.75 0.041,-0.026 -0.123,-0.247 -0.384,-0.517 -0.486,-0.504 -0.661,-0.821 -0.661,-1.198 0,-0.27 0.448,-1.214 1.394,-2.935 1.732,-3.153 2.265,-4.928 2.377,-7.914 0.034,-0.913 0.201,-2.327 0.286,-2.416 0.014,-0.015 0.084,0.016 0.156,0.069 l 0.605,0.424 c 0.632,0.436 0.719,0.311 0.179,-0.256 -0.219,-0.23 -0.471,-0.538 -0.561,-0.686 -0.148,-0.243 -0.155,-0.292 -0.076,-0.519 0.128,-0.37 0.527,-1.026 1.308,-2.155 1.042,-1.505 1.674001,-2.852 2.046001,-4.362 0.099,-0.4 0.29,-1.396 0.426,-2.214 l 0.385,-1.8 c 0.132,-0.299 0.514,-0.763 0.628,-0.763 0.03,0 0.1,0.089 0.156,0.198 0.301,0.583 1.568,0.556 3.047,-0.064 l 0.491,-0.185 c 0.006,0.009 -0.22,0.608 -0.503,1.332 -0.704,1.804 -1.621,4.572 -1.916,5.782 -0.281,1.153 -0.574,2.744 -0.837,4.536 -0.255,1.741 -0.292,1.887 -0.503,2.026 -0.098,0.064 -0.377,0.167 -0.62,0.228 -0.243,0.061 -0.448,0.14 -0.456,0.175 -0.008,0.035 0.226,0.073 0.52,0.084 l 0.534,0.02 -0.179,0.499 c -0.099,0.275 -0.579,1.343 -1.067,2.374 -1.548001,3.271 -1.662001,3.643 -2.246001,7.31 l -0.697,3.39 c -0.233,0.457 -0.782,0.747 -1.683,0.888 -0.415,0.065 -0.638,0.142 -0.418,0.144 0.081,0.001 0.08,0.013 -0.006,0.072 -0.073,0.05 0.176,0.065 0.837,0.051 l 0.941,-0.02 -0.199,0.45 c -0.109,0.248 -0.464,0.949 -0.789,1.558 -1.713,3.218 -1.926,3.876 -2.279,7.028 -0.185,1.653 -0.433,2.921 -0.642,3.279 -0.188,0.321 -0.52,0.514 -0.971,0.563 -0.515,0.056 -0.762,0.114 -0.654,0.154 0.048,0.018 0.069,0.06 0.048,0.095 -0.021,0.035 0.227,0.063 0.588,0.063 0.345,0 0.627,0.02 0.627,0.046 0,0.026 -0.326,0.625 -0.724,1.333 -0.767,1.363 -1.247,2.413 -1.65,3.611 -0.379,1.125 -0.47,1.723 -0.527,3.463 -0.048,1.475 -0.06,1.579 -0.219,1.867 -0.127,0.23 -0.262,0.353 -0.549,0.499 -0.677,0.345 -1.301,0.383 -2.044,0.125 z"
       style="fill:#f5c742" />
    <path
       d="m 96.82032,65.599 a -0.27,0.27 0 0 1 0.173,0 c 0.047,0.019 0.009,0.035 -0.087,0.035 -0.096,0 -0.134,-0.016 -0.087,-0.035 z m 4.334,-23.307 c 0.019,-0.048 0.035,-0.009 0.035,0.087 0,0.096 -0.016,0.134 -0.035,0.087 a -0.27,0.27 0 0 1 0,-0.173 z"
       id="path242"
       style="fill:#a07843" />
    <path
       id="use244"
       d="m 99.521309,48.066002 c -0.214,-0.344 -0.201,-0.976 0.033,-1.637 0.178,-0.504 1.110001,-2.531 1.146001,-2.495 0.011,0.011 -0.148,0.468 -0.355,1.015 l -0.454001,1.362 a -5.34,5.34 0 0 0 0.014,1.862 l 0.092,0.355 -0.16,-0.105 c -0.088,-0.058 -0.231,-0.219 -0.317,-0.357 z"
       style="fill:#a07843" />
    <path
       id="use246"
       d="m 95.268309,62.970002 c -0.355,-0.287 -0.647,-0.849 -0.647,-1.244 0,-0.487 0.249,-1.134 0.771,-2.003 l 0.833,-1.418 0.335,-0.547 c 0,0.098 -0.288,0.865 -0.621,1.651 -0.506,1.194 -0.582,1.475 -0.584,2.151 -0.002,0.607 0.124,1.127 0.381,1.577 l 0.129,0.227 -0.154,-0.08 c -0.085,-0.044 -0.284,-0.185 -0.442,-0.313 z"
       style="fill:#a07843" />
    <path
       id="use248"
       d="m 90.647309,76.922002 c -0.297,-0.347 -0.418,-0.769 -0.355,-1.232 0.056,-0.408 0.479,-1.312 1.008,-2.155 l 0.631,-1.069 c 0.355,-0.65 0.334,-0.446 -0.049,0.485 -0.831,2.017 -0.814,1.965 -0.847,2.674 -0.033,0.729 0.072,1.243 0.363,1.769 l 0.159,0.288 -0.338,-0.243 c -0.186,-0.134 -0.444,-0.366 -0.572,-0.516 z"
       style="fill:#a07843" />
    <path
       id="use252"
       d="m 104.54531,38.821002 c -1.85,3.146 -1.582,6.893 -2.423,10.329 -2.371001,1.313 0.136,-2.845 -0.618,-4.115 -0.055,-2.134 -0.265,-6.447 2.697,-6.237 l 0.343,0.024 z"
       style="fill:#ffeba3" />
    <path
       id="use254"
       d="m 98.652309,51.263002 c 3.787001,1.39 -0.461,4.463 -0.394,7.099 -0.946,0.928 -0.155,6.548 -1.192,3.314 -0.134,-2.383 0.341,-4.88 1.034,-7.202 0.292,-1.015 0.989,-2.159 0.553,-3.212 z"
       style="fill:#ffeba3" />
    <path
       id="use256"
       d="m 93.554309,65.902002 c 1.108,1.366 4.797,0.674 1.885,2.436 -1.913,2.531 -1.694,5.906 -2.267,8.884 0.039,-2.1 0.556,-7.234 -0.142,-7.053 0.952,-1.577 -0.957,-3.662 0.398,-4.588 z"
       style="fill:#ffeba3" />
    <path
       id="use258"
       d="m 90.514309,78.952002 c 1.805,0.166 2.617,0.874 0.802,2.046 -1.614,1.99 -1.358,4.682 -1.932,7.009 -0.894,1.992 -4.161,-0.613 -1.527,-1.223 1.309,-1.927 -0.403,-4.965 1.51,-6.477 0.914,-0.139 0.597,-1.085 1.146,-1.356 z"
       style="fill:#ffeba3" />
  </g>
  <g
     id="g1516">
    <path
       d="m 73.158,136.715 c -3.469,-0.07 -6.208,1.794 -7.215,6.267 -0.693,3.436 -2.139,3.359 -2.139,4.631 1.05,2.655 6.334,2.338 9.355,2.338 3.021,0 8.304,0.316 9.354,-2.338 0,-1.272 -1.447,-1.195 -2.139,-4.631 -1.007,-4.474 -3.745,-6.338 -7.215,-6.267 z"
       fill="#009b4c"
       class="B"
       id="path264"
       style="stroke:#005027" />
    <path
       d="m 66.017,142.668 c 6.014,-0.278 9.207,5.622 9.901,7.289 m -2.473,-3.862 c 1.186,-2.614 2.57,-4.786 5.721,-6.231"
       fill="none"
       stroke-width="0.465"
       id="path266"
       style="stroke:#005027" />
    <path
       d="M65.325 146.48c-1.583 1.529 1.629 2.187 2.759 2.079.295-.362-2.304-.8-2.563-1.776zm4.371-1.088c1.803.655 2.283 2.879 3.814 3.605 1.516-.478-.79-2.211-1.534-2.783-.714-.365-1.446-.853-2.279-.822zm10.512.278c.265 1.374-1.544 2.625-1.893 2.917 1.084-.022 4.233-.431 2.957-2.046-.3-.333-.619-.738-1.064-.871zm-1.389-4.73c-1.348.14-3.407 3.149-.956 2.159 1.884.07 2.117-.792.956-2.159zm-11.812.757c.9-1.692 2.289-3.191 4.228-3.624 1.692-.441 4.244-.885 5.538.232-.807-.068-2.979.369-1.003.706 1.33 1.175-3.299-.116-1.911 1.034 2.318.812-1.791.98-2.542 1.038-1.442-.02-2.922.742-4.309.613z"
       fill="#00b559"
       id="path270" />
    <path
       d="M71.511 143.529l.535-1.905 1.111-.361v1.168z"
       class="D"
       id="path272" />
    <path
       d="M71.511 143.529l1.646-2.266-1.111.361z"
       class="C"
       id="path274" />
    <path
       d="M73.157 138.463l.687 1.855-.687.945-.687-.945z"
       class="D"
       id="path276" />
    <path
       d="m 73.157,138.463 v 2.801 l 0.687,-0.945 z"
       id="path278"
       style="fill:#f5c742" />
    <path
       d="m 74.803,143.529 -0.535,-1.905 -1.111,-0.361 v 1.168 z"
       id="path280"
       style="fill:#f5c742" />
    <path
       d="M74.803 143.529l-1.646-2.266 1.111.361z"
       class="D"
       id="path284" />
    <path
       d="M75.821 140.398l-1.977-.08-.687.945 1.111.361z"
       class="C"
       id="path286" />
    <path
       d="m 75.821,140.398 -2.663,0.865 0.687,-0.945 z"
       id="path288"
       style="fill:#ffeba3" />
    <path
       d="m 70.494,140.398 1.977,-0.08 0.687,0.945 -1.111,0.361 z"
       id="path290"
       style="fill:#ffeba3" />
    <path
       d="M70.494 140.398l2.663.865-.687-.945z"
       class="C"
       id="path294" />
  </g>
  <defs
     id="defs314">
    <path
       id="B"
       d="M80.847 18.59v-1.727h4.46v4.082q-.65.629-1.887 1.111-1.23.475-2.496.475-1.608 0-2.803-.671-1.195-.678-1.797-1.929-.601-1.258-.601-2.733 0-1.601.671-2.845.671-1.244 1.964-1.908.986-.51 2.454-.51 1.908 0 2.978.804 1.077.797 1.384 2.209l-2.055.384q-.217-.755-.818-1.188-.594-.44-1.489-.44-1.356 0-2.16.86-.797.86-.797 2.552 0 1.825.811 2.74.811.909 2.125.909.65 0 1.3-.252.657-.259 1.125-.622v-1.3z" />
    <path
       id="C"
       d="M-27.953 121.072c-.614-.751-1.948-.671-2.353.248-.402.784.122 1.947 1.103 1.781.913-.253 1.907-1.176 2.834-.318.742.575.549 2.095 1.565 2.273.332-.631-.446-1.832.618-2.322.691-.766 1.195-2.627-.163-2.956-1.288-.285-1.326 1.385-2.33 1.699-.497.211-.921-.095-1.275-.403z" />
    <path
       id="D"
       d="M-38.253 157.43c-.383-.03-.074.44.164.431.342.104.598.34.831.599.265.237.409.564.558.878.341.402.349-.395.253-.615-.154-.351-.385-.685-.697-.914-.357-.153-.69-.459-1.109-.38z" />
    <path
       id="E"
       d="M-41.684 161.966c-1.26-.095-2.311 1.821-.783 2.317 1.095.541 2.799-.5 2.091-1.776-.811-1.101-.171-2.238.359-3.267.171-1.171-1.788-1.73-2.426-.813-.099.889 1.157 1.464.875 2.537.014.338.029.687-.117 1.002z" />
    <path
       id="F"
       d="M-42.123 162.499c-1.26-.095-1.401 2.092.127 2.588 1.586.574 3.864.189 4.909-.811.585-.609-.946-3.77-.664-4.317.171-1.171-5.136-1.769-5.774-.852-.099.889 2.488 1.161 2.205 2.234.014.338-.658.842-.804 1.157z" />
    <path
       id="G"
       d="M128.916 101.356c-.324.16-.695.265-.94.547-.146.134-.331.216-.484.341-.205.123-.424.225-.613.375-.136.086-.162.267-.294.358-.018.139.21.143.313.167a3.49 3.49 0 0 0 .532.024c.103-.083.214-.153.335-.205.137-.082.248-.202.35-.323.098-.142.142-.315.243-.456.053-.152.147-.277.246-.401.078-.119.171-.227.286-.31.031-.03.047-.078.024-.118z" />
    <path
       id="H"
       d="M125.77 96.024c.012.659.064 1.325-.024 1.98l-.381 1.147c-.123.572-.124 1.167-.098 1.746.111.347.246.696.48.98.09.165.074.425.255.519-.068-.382.127-.738.373-1.011.192-.311.464-.563.778-.747.389-.287.815-.538 1.29-.648.4-.191.482-.681.531-1.077.044-.398.121-.793.19-1.187.079-.114.089-.251-.063-.12-.514.256-.958.623-1.425.951a5.79 5.79 0 0 1-.77.639c-.191-.228.03-.573-.047-.85-.053-.612-.437-1.117-.672-1.666-.131-.22-.225-.477-.416-.655z" />
    <path
       id="I"
       d="M58.171 90.498c1.734-.314 3.133-2.073 2.857-3.592-.092-.509-.306-.908-.844-1.573-1.2-1.487-1.313-1.844-1.673-5.285-.286-2.742-.562-3.879-1.26-5.193l-1.579-3.187c-.537-1.334-.957-2.846-1.136-4.083l-.209-1.835c-.272-2.676-.532-3.424-2.345-6.751-.782-1.435-1.042-1.992-1.367-2.924-.535-1.536-.706-2.476-.794-4.348-.076-1.612-.192-2.392-.491-3.284-.276-.824-.506-1.24-1.353-2.45-1.06-1.513-1.679-2.766-2.062-4.174-.098-.359-.304-1.396-.459-2.303-.293-1.722-.382-2.042-.696-2.506-.393-.581-1.006-.856-2.785-1.248-1.307-.288-1.945-.49-2.611-.826l-.512-.242c-.017 0 .094.319.248.71l3.065 8.712.592 2.973c.674 3.79.778 4.119 2.55 8.032.925 2.043 1.202 3.046 1.676 6.059.586 3.722.796 4.373 2.386 7.375 1.412 2.666 1.609 3.322 1.943 6.474.255 2.41.599 3.505 1.694 5.401.63 1.09 1.114 2.092 1.473 3.047.566 1.504.741 2.503.742 4.227.001 1.528.198 2.045.937 2.463.649.367 1.266.469 2.011.334z" />
    <path
       id="J"
       d="M41.486 36.875a5.18 5.18 0 0 1-1.468-.734c-.294-.233-.557-.597-.485-.669.025-.025.301.037.615.138.593.191 1.3.372 2.214.569.482.104.537.132.537.276 0 .313-.217.475-.665.497-.225.011-.561-.024-.747-.077z" />
    <path
       id="K"
       d="M59.459 88.122c.283-.39.267-.731-.058-1.258l-.589-.959-.335-.517c0 .017.046.404.103.859.176 1.414.117 2.144-.214 2.632l-.169.249.532-.368c.293-.202.621-.49.728-.639z" />
    <path
       id="L"
       d="M58.514 89.884c.747-.259 1.476-.896 1.816-1.59.162-.33.19-.474.19-.976 0-.694-.07-.843-.893-1.884-1.105-1.399-1.253-1.876-1.597-5.138l-.196-1.677c-.012-.012-.207.102-.434.252s-.423.243-.436.205-.06-.047-.104-.021.14-.189.41-.479c.43-.462.487-.554.46-.74-.034-.234-.155-.274-.299-.101-.051.062-.323.267-.604.457-.362.244-.533.323-.585.271s.03-.176.282-.424c.445-.438.736-.858.843-1.214.074-.246.063-.328-.099-.76-.1-.266-.41-.905-.69-1.419-1.073-1.97-1.585-3.151-2.016-4.649-.359-1.248-.505-2.06-.695-3.859l-.21-1.76c-.033-.107-.094-.084-.465.18l-.574.38c-.258.136-.161-.142.141-.407a3.04 3.04 0 0 0 .467-.546c.273-.429.257-.917-.019-.584-.165.199-1.102.796-1.177.75-.041-.026.123-.247.384-.517.486-.504.661-.821.661-1.198 0-.27-.448-1.214-1.394-2.935-1.732-3.153-2.265-4.928-2.377-7.914-.034-.913-.201-2.327-.286-2.416-.014-.015-.084.016-.156.069l-.605.424c-.632.436-.719.311-.179-.256.219-.23.471-.538.561-.686.148-.243.155-.292.076-.519-.128-.37-.527-1.026-1.308-2.155-1.042-1.505-1.674-2.852-2.046-4.362-.099-.4-.29-1.396-.426-2.214l-.385-1.8c-.132-.299-.514-.763-.628-.763-.03 0-.1.089-.156.198-.301.583-1.568.556-3.047-.064l-.491-.185c-.006.009.22.608.503 1.332.704 1.804 1.621 4.572 1.916 5.782.281 1.153.574 2.744.837 4.536.255 1.741.292 1.887.503 2.026.098.064.377.167.62.228s.448.14.456.175-.226.073-.52.084l-.534.02.179.499c.099.275.579 1.343 1.067 2.374 1.548 3.271 1.662 3.643 2.246 7.31l.697 3.39c.233.457.782.747 1.683.888.415.065.638.142.418.144-.081.001-.08.013.006.072.073.05-.176.065-.837.051l-.941-.02.199.45c.109.248.464.949.789 1.558 1.713 3.218 1.926 3.876 2.279 7.028.185 1.653.433 2.921.642 3.279.188.321.52.514.971.563.515.056.762.114.654.154-.048.018-.069.06-.048.095s-.227.063-.588.063c-.345 0-.627.02-.627.046s.326.625.724 1.333c.767 1.363 1.247 2.413 1.65 3.611.379 1.125.47 1.723.527 3.463.048 1.475.06 1.579.219 1.867.127.23.262.353.549.499.677.345 1.301.383 2.044.125z" />
    <path
       id="M"
       d="M46.792 48.066c.214-.344.201-.976-.033-1.637-.178-.504-1.11-2.531-1.146-2.495-.011.011.148.468.355 1.015l.454 1.362a5.34 5.34 0 0 1-.014 1.862l-.092.355.16-.105c.088-.058.231-.219.317-.357z" />
    <path
       id="N"
       d="M51.045 62.97c.355-.287.647-.849.647-1.244 0-.487-.249-1.134-.771-2.003l-.833-1.418-.335-.547c0 .098.288.865.621 1.651.506 1.194.582 1.475.584 2.151.002.607-.124 1.127-.381 1.577l-.129.227.154-.08c.085-.044.284-.185.442-.313z" />
    <path
       id="O"
       d="M55.666 76.922c.297-.347.418-.769.355-1.232-.056-.408-.479-1.312-1.008-2.155l-.631-1.069c-.355-.65-.334-.446.049.485.831 2.017.814 1.965.847 2.674.033.729-.072 1.243-.363 1.769l-.159.288.338-.243c.186-.134.444-.366.572-.516z" />
    <path
       id="P"
       d="M41.768 38.821c1.85 3.146 1.582 6.893 2.423 10.329 2.371 1.313-.136-2.845.618-4.115.055-2.134.265-6.447-2.697-6.237l-.343.024z" />
    <path
       id="Q"
       d="M47.661 51.263c-3.787 1.39.461 4.463.394 7.099.946.928.155 6.548 1.192 3.314.134-2.383-.341-4.88-1.034-7.202-.292-1.015-.989-2.159-.553-3.212z" />
    <path
       id="R"
       d="M52.759 65.902c-1.108 1.366-4.797.674-1.885 2.436 1.913 2.531 1.694 5.906 2.267 8.884-.039-2.1-.556-7.234.142-7.053-.952-1.577.957-3.662-.398-4.588z" />
    <path
       id="S"
       d="M55.799 78.952c-1.805.166-2.617.874-.802 2.046 1.614 1.99 1.358 4.682 1.932 7.009.894 1.992 4.161-.613 1.527-1.223-1.309-1.927.403-4.965-1.51-6.477-.914-.139-.597-1.085-1.146-1.356z" />
  </defs>
</svg>
