<?xml version="1.0" encoding="UTF-8" standalone="no"?>
<svg
   xmlns:dc="http://purl.org/dc/elements/1.1/"
   xmlns:cc="http://creativecommons.org/ns#"
   xmlns:rdf="http://www.w3.org/1999/02/22-rdf-syntax-ns#"
   xmlns:svg="http://www.w3.org/2000/svg"
   xmlns="http://www.w3.org/2000/svg"
   xmlns:sodipodi="http://sodipodi.sourceforge.net/DTD/sodipodi-0.dtd"
   xmlns:inkscape="http://www.inkscape.org/namespaces/inkscape"
   width="325.383"
   height="421.032"
   viewBox="0 0 86.091 111.398"
   version="1.1"
   id="svg69"
   sodipodi:docname="Seal of the City of Madiun (1).svg"
   inkscape:version="1.0.1 (3bc2e813f5, 2020-09-07)">
  <metadata
     id="metadata73">
    <rdf:RDF>
      <cc:Work
         rdf:about="">
        <dc:format>image/svg+xml</dc:format>
        <dc:type
           rdf:resource="http://purl.org/dc/dcmitype/StillImage" />
      </cc:Work>
    </rdf:RDF>
  </metadata>
  <sodipodi:namedview
     pagecolor="#ffffff"
     bordercolor="#666666"
     borderopacity="1"
     objecttolerance="10"
     gridtolerance="10"
     guidetolerance="10"
     inkscape:pageopacity="0"
     inkscape:pageshadow="2"
     inkscape:window-width="1366"
     inkscape:window-height="705"
     id="namedview71"
     showgrid="false"
     inkscape:zoom="0.50934537"
     inkscape:cx="93.335168"
     inkscape:cy="109.44114"
     inkscape:window-x="-8"
     inkscape:window-y="-8"
     inkscape:window-maximized="1"
     inkscape:current-layer="svg69"
     inkscape:document-rotation="0" />
  <g
     id="g1078">
    <path
       d="M11.087 11.598c-1.213 4.01-4.046 7.035-7.231 8.823 1.014 3.175 1.343 6.319 1.242 9.766-.127 4.329-.81 9.209-1.426 15.961-1.288 14.105-1.004 33.431 12.95 45.307 5.525 4.702 10.278 6.653 14.939 8.64 3.921 1.671 7.858 3.433 11.485 6.818 3.627-3.385 7.565-5.147 11.485-6.818 4.66-1.987 9.414-3.938 14.939-8.64 13.954-11.876 14.238-31.202 12.95-45.307-.617-6.752-1.3-11.632-1.426-15.961-.101-3.447.228-6.591 1.242-9.766-3.185-1.788-6.018-4.814-7.231-8.823H43.046z"
       fill="#307a4b"
       id="path12" />
    <path
       d="M8.946 8.931C8.28 14.006 4.3 17.749.52 19.042c3.194 7.316 1.739 13.242.496 26.864C-.295 60.26-.122 80.707 14.893 93.487c11.659 9.923 20.613 8.493 28.152 17.249 7.539-8.756 16.493-7.326 28.152-17.249 15.016-12.78 15.188-33.227 13.878-47.581-1.244-13.622-2.698-19.548.496-26.864-3.779-1.293-7.76-5.035-8.426-10.111h-34.1-34.1zm2.141 2.667h31.959 31.959c1.213 4.01 4.046 7.035 7.231 8.823-1.014 3.175-1.343 6.319-1.242 9.766.127 4.329.81 9.209 1.426 15.961 1.288 14.105 1.004 33.431-12.95 45.307-5.525 4.702-10.278 6.653-14.939 8.64-3.921 1.671-7.858 3.433-11.485 6.818-3.627-3.385-7.565-5.147-11.485-6.818-4.66-1.987-9.414-3.938-14.939-8.64C2.668 79.579 2.384 60.253 3.672 46.148c.617-6.752 1.3-11.632 1.426-15.961.101-3.447-.228-6.591-1.242-9.766 3.185-1.788 6.018-4.814 7.231-8.823z"
       fill="#c8d3d9"
       stroke="#7c909b"
       stroke-width=".465"
       id="path14"
       style="stroke:#2b2b2b;stroke-opacity:1" />
    <path
       d="M9.524 9.649c-.885 4.771-4.445 8.287-8.096 9.789 1.405 3.497 1.836 6.787 1.721 10.692-.122 4.161-.798 9.046-1.419 15.841C.427 60.258.629 80.403 15.359 92.94c5.747 4.892 10.793 6.968 15.437 8.948 4.429 1.888 8.519 3.73 12.249 7.797 3.73-4.067 7.82-5.909 12.249-7.797 4.644-1.98 9.69-4.057 15.437-8.948 14.73-12.536 14.932-32.681 13.628-46.969-.62-6.795-1.297-11.68-1.419-15.841-.114-3.905.316-7.195 1.721-10.692-3.651-1.502-7.211-5.018-8.096-9.789H43.046zm1.562 1.23h31.96 31.959a.72.72 0 0 1 .688.511c1.152 3.809 3.853 6.697 6.895 8.405a.72.72 0 0 1 .332.845c-.986 3.086-1.307 6.137-1.208 9.526.125 4.269.806 9.148 1.424 15.917 1.294 14.174 1.043 33.797-13.2 45.92-5.605 4.77-10.468 6.769-15.123 8.753-3.913 1.668-7.748 3.389-11.276 6.682a.72.72 0 0 1-.981 0c-3.529-3.293-7.364-5.014-11.276-6.682-4.654-1.984-9.518-3.983-15.123-8.753C1.913 79.88 1.662 60.257 2.956 46.083c.618-6.769 1.299-11.648 1.424-15.917.099-3.389-.222-6.44-1.208-9.526a.72.72 0 0 1 .332-.845c3.042-1.708 5.743-4.596 6.895-8.405a.72.72 0 0 1 .687-.511z"
       fill="#fff"
       id="path16" />
  </g>
  <g
     id="g1085">
    <path
       d="M9.699.214h1.439v2.883L13.84.214h1.89l-2.868 2.883 3.016 4.117h-1.881l-2.161-3.058-.698.717v2.341H9.699zm10.096 5.955q.869 0 1.377-.641.513-.641.513-1.824 0-1.178-.513-1.819-.508-.646-1.377-.646-.869 0-1.387.641-.518.641-.518 1.824 0 1.183.518 1.824.518.641 1.387.641zm3.353-2.465q0 1.885-1.059 2.887-.793.817-2.294.817-1.501 0-2.294-.817-1.064-1.002-1.064-2.887 0-1.923 1.064-2.887Q18.294 0 19.795 0q1.501 0 2.294.817 1.059.964 1.059 2.887zM19.795 0zm9.555.214v1.239h-2.094v5.761h-1.472V1.453H23.68V.214z"
       id="path2" />
    <path
       id="use4"
       d="m 31.402,4.569 h 1.776 L 32.304,1.815 Z m 0.09,-4.355 h 1.653 l 2.479,7 H 34.038 L 33.587,5.775 h -2.579 l -0.484,1.439 h -1.529 z m 0.817,0 z" />
    <path
       d="M43.497.214h2.104v7h-1.363V2.479q0-.204.005-.57.005-.37.005-.57l-1.325 5.875h-1.42l-1.315-5.875q0 .199.005.57.005.366.005.57v4.735h-1.363v-7h2.128l1.273 5.504z"
       id="path6" />
    <path
       id="use8"
       d="m 48.873001,4.569 h 1.776 l -0.874,-2.754 z m 0.09,-4.355 h 1.653 l 2.479,7 h -1.586 l -0.451,-1.439 h -2.579 l -0.484,1.439 h -1.529 z m 0.817,0 z" />
    <path
       d="M55.403 1.43v4.569h1.349q1.035 0 1.444-1.021.223-.56.223-1.334 0-1.069-.337-1.638-.332-.575-1.33-.575zM56.999.214q.651.01 1.083.152.736.242 1.192.888.366.522.499 1.13.133.608.133 1.159 0 1.396-.56 2.365-.76 1.306-2.346 1.306h-3.016v-7zm5.347 7h-1.453v-7h1.453zM61.619.076zm2.09.138h1.486v4.303q0 .722.171 1.054.266.589 1.159.589.888 0 1.154-.589.171-.332.171-1.054V.214h1.486v4.303q0 1.116-.347 1.738-.646 1.14-2.465 1.14-1.819 0-2.469-1.14-.347-.622-.347-1.738zm2.816 0zm4.184 0h1.534L75.03 5.1V.214h1.363v7H74.93l-2.859-4.972v4.972h-1.363zM73.606.2z"
       id="path10" />
  </g>
  <g
     id="g1064">
    <g
       id="g937">
      <path
         d="M60.099 16.247l.419.75c.853 1.528 1.219 2.357 1.578 3.578l.684 2.018c.704 1.708 2.097 3.408 3.819 4.662.676.492.97.787 1.096 1.099l.417 1.033.244.606-.63-.681a11.66 11.66 0 0 0-1.625-1.363c-1.033-.708-1.862-1.511-2.534-2.454-.216-.302-.407-.504-.426-.447s.147.714.367 1.461.582 2.256.803 3.353c.663 3.299 1.207 4.042 3.958 5.414 2.141 1.067 2.611 1.59 3.275 3.645.203.627.435 1.193.516 1.258.307.248.572 3.128.288 3.128-.299 0-.685-.794-.902-1.858-.416-2.038-1.244-3.277-2.967-4.44-1.036-.699-1.622-1.229-2.649-2.392l-.781-.821c0 .035.183.689.406 1.454a19.27 19.27 0 0 1 .572 2.815l.331 1.999c.359 1.25 1.565 2.642 3.305 3.813 1.215.818 1.908 1.529 2.169 2.225.182.487.218.995.257 3.643.043 2.926-.053 4.273-.305 4.273-.138 0-.539-.48-.753-.905-.134-.265-.186-.58-.159-.969l.043-1.943c.004-2.026-.322-2.812-1.909-4.602-.447-.504-1.021-1.348-1.433-2.108l-.867-1.495c-.165-.211-.172-.172-.092.513.143 1.22.077 2.601-.187 3.967-.457 2.359-.285 3.799.637 5.353.411.692.857 1.154 2.681 2.78 1.13 1.007 1.254 1.289 1.32 3.003.051 1.319.036 1.434-.375 2.906l-.603 1.874-.176.342-.149-.363c-.082-.2-.258-.784-.391-1.297-.237-.914-.238-.953-.046-1.871.136-.646.182-1.27.149-2.008-.066-1.503-.394-2.159-1.946-3.888-1.053-1.173-1.258-1.472-1.683-2.45l-.572-1.21c-.048-.053-.117.511-.154 1.254l-.184 3.131c-.134 2.03-.031 3.132.399 4.274.344.914.958 1.884 1.65 2.606.458.478.614.767.973 1.796l.427 1.226-.061 1.508c-.049 1.196-.123 1.696-.358 2.419-.323.994-.744 1.808-.923 1.789-.063-.007-.156-.271-.208-.588-.075-.455-.046-.725.134-1.287.508-1.579.587-2.561.296-3.678-.214-.823-.551-1.418-1.48-2.616-.917-1.183-1.135-1.632-1.535-3.154-.315-1.202-.455-1.577-.456-1.224-.003.598-.385 3.809-.572 4.787-.125.652-.256 1.596-.292 2.097-.121 1.692.453 3.55 1.545 4.997.381.505.493.77.591 1.394.174 1.119.083 2.038-.282 2.83-.562 1.219-2.05 3.256-2.379 3.256-.266 0-.007-1.405.41-2.229.847-1.671.947-3.134.346-5.064-.599-1.922-.743-2.587-.871-4.019-.072-.801-.166-1.416-.21-1.367s-.299.755-.566 1.569l-1.039 2.716c-.904 2.015-1.047 2.614-.984 4.103.055 1.3.379 2.541.85 3.258.15.229.194.569.199 1.551.006 1.239 0 1.272-.44 2.165-.351.713-.668 1.128-1.483 1.944-.944.945-1.71 1.514-1.85 1.375-.03-.03.008-.37.084-.756a2.41 2.41 0 0 1 .582-1.236c.639-.767 1.208-1.994 1.368-2.951.117-.697.105-1.088-.074-2.575-.204-1.696-.203-3.201.005-4.751.065-.483.021-.43-.751.912-.451.783-1.298 2.014-1.882 2.735s-1.192 1.573-1.353 1.892c-.628 1.251-.666 2.643-.117 4.379.272.861.291 1.047.221 2.094-.072 1.06-.109 1.197-.484 1.776-1.283 1.503-2.461 2.487-3.962 3.771l2.684 1.995c.741-.729 1.269-1.83 2.07-2.45.18-.113.656-.155 1.681-.152 1.267.004 1.533.041 2.341.325.791.278 1.085.321 2.222.325 1.62.006 2.032-.154 3.748-1.455 1.592-1.207 2.062-1.483 3.614-2.125l1.326-.548-1.979.058c-1.664.049-2.22.02-3.491-.184-1.785-.286-2.594-.303-3.479-.072-.782.204-1.801.705-2.394 1.178-.425.34-1.053.565-1.191.427-.107-.107.744-.941 1.51-1.481 1.542-1.087 3.187-1.468 5.162-1.197 1.471.202 3.284-.058 4.559-.654.495-.231 1.013-.67 2.186-1.852l2.735-2.662 1.196-1.114-.695.337c-1.522.739-1.967.83-4.49.919-2.012.071-2.427.118-2.989.335-.845.326-1.918 1.046-2.402 1.611-.33.385-1.082.791-1.467.791-.058 0 .094-.243.34-.541a12.01 12.01 0 0 0 .853-1.225c.478-.802.987-1.313 1.62-1.625.641-.316 1.169-.399 2.735-.43 1.486-.03 2.3-.202 3.424-.725.908-.422 1.354-.83 2.497-2.28.524-.664 1.444-1.639 2.045-2.167l1.093-.992c0-.018-.214.042-.474.134-1.189.42-2.656.738-3.912.85-2.573.229-3.587.656-4.853 2.042-.433.474-.787.8-.787.724 0-.318 1.136-2.516 1.496-2.893.793-.83 1.178-.995 3.153-1.359 3.006-.554 4.545-1.254 5.312-2.415.219-.331.666-1.217.994-1.969s.862-1.803 1.187-2.336c.765-1.254 1.134-1.987.941-1.87a23.53 23.53 0 0 0-.835.594c-.892.655-1.537.976-2.946 1.465-2.389.829-3.528 1.677-4.411 3.287-.484.882-.972 1.298-1.743 1.488-.284.07-.318.053-.261-.134.735-2.42.906-2.802 1.572-3.524s1.325-1.101 3.152-1.811l2.146-.935c1.106-.648 1.946-1.741 2.133-2.776.04-.219.148-1.168.24-2.108.118-1.193.289-2.137.567-3.128l.361-1.456c-.021-.02-.26.259-.533.621-.801 1.064-1.449 1.709-2.841 2.827-.721.579-1.484 1.269-1.696 1.534-.547.683-1.026 1.694-1.17 2.47-.195 1.051-.269 1.165-.959 1.481-.348.159-.66.264-.692.232-.104-.104.639-3.618.888-4.197.314-.731.854-1.193 2.774-2.377.953-.588 1.872-1.26 2.336-1.709 1.065-1.032 1.25-1.552 1.375-3.874l.214-2.38a8.87 8.87 0 0 0 .117-1.424l-.003-.811-.429.809c-.624 1.176-1.019 1.622-2.445 2.763-1.908 1.526-2.561 2.524-2.84 4.334-.122.79-.194.986-.419 1.135l-.272.18.082-1.021c.188-2.35.336-2.624 2.691-4.953 1.556-1.539 1.959-2.004 2.217-2.564.406-.877.477-1.838.246-3.311-.297-1.896-.302-1.977-.178-3.544l.077-1.645c-.023-.07-.239.378-.479.996-.573 1.477-1.004 2.165-2.131 3.402-.588.645-1.065 1.3-1.287 1.766-.325.681-.355.846-.376 2.045-.019 1.077-.061 1.355-.239 1.593l-.215.288-.161-.283c-.113-.199-.16-.671-.158-1.593.003-1.085.049-1.438.271-2.051.423-1.169.967-2.302 1.839-3.825 1.804-3.154 2.005-4.801.898-7.372l-.852-2.215-.824-2.037-.327-.646.005 1.752.005 1.752-.533 1.455c-.688 1.877-.897 2.918-.897 4.468v1.251l-.463-1.023c-.447-.988-.461-1.055-.404-1.935.042-.647.21-1.379.577-2.518.678-2.104.819-2.918.659-3.825-.269-1.53-.965-2.5-3.123-4.352-.429-.369-1.18-1.215-1.69-1.906-.89-1.206-1.058-1.399-.958-1.101.393 1.165.789 2.912.973 4.295.321 2.405.747 3.531 2.031 5.362.429.613.516.823.505 1.219-.031 1.073-.177.965-1.123-.833-.985-1.871-1.355-2.785-1.471-3.639-.238-1.746-.657-3.579-.97-4.249-.554-1.185-1.85-2.373-3.798-3.483-1.555-.886-1.865-1.105-3.433-2.422z"
         fill="#6b6503"
         id="path18" />
      <path
         d="M61.89 18.481c.066-.013.413.164.842.431l2.002 1.2c1.452.841 2.54 1.915 3.094 3.054.328.673.438 1.09.583 2.198l.354 1.994c.186.668 1.179 3.026 2.122 5.041l.573 1.224.282-.597c.171-.362.305-.891.34-1.342l.057-.745-.659-.965c-1.226-1.794-1.671-3.037-1.935-5.408l-.23-1.596c-.043-.126.171.034.476.356a19 19 0 0 0 1.425 1.297c1 .819 1.555 1.5 2.002 2.458.277.593.313.799.299 1.7-.014.872-.087 1.238-.49 2.45-.619 1.86-.798 2.639-.8 3.49-.003.709-.004.701 1.051 3.005l.436.96.201.446.173-.413c.137-.328.147-.503.049-.845-.068-.238-.122-1.073-.119-1.857.006-1.577.131-2.184.918-4.449.251-.723.495-1.617.541-1.987l.084-.672.306.905.805 2.101c.479 1.149.499 1.244.504 2.393.007 1.428-.201 2.136-1.087 3.704-1.977 3.497-2.61 5.128-2.61 6.718 0 1.031.216 1.923.579 2.384l.238.302.504-.65c.366-.471.484-.713.431-.88-.04-.127-.076-.617-.077-1.09-.008-1.461.393-2.271 1.907-3.857.318-.332.741-.863.941-1.18.472-.748.534-.798.439-.354-.046.216.024 1.041.171 1.994.487 3.17.295 3.594-3.034 6.699-1.182 1.103-1.512 1.676-1.799 3.131-.194.981-.445 3.254-.368 3.331.026.026.37-.228.764-.563l.717-.609.142-.987c.243-1.685.841-2.603 2.642-4.063l1.596-1.431c.54-.587.662-.615.469-.109-.069.181-.164 1.15-.212 2.152-.106 2.215-.271 2.691-1.247 3.617-.65.617-1.103.937-2.866 2.024-2.098 1.295-2.326 1.646-2.913 4.494-.438 2.126-.483 2.683-.218 2.683.256 0 1.486-.518 1.858-.783.271-.193.346-.364.468-1.062.294-1.685 1.029-2.754 2.894-4.208l1.529-1.278c.495-.474.577-.448.363.117-.067.176-.193 1.115-.28 2.087-.196 2.198-.364 2.777-1.011 3.493-.667.738-1.441 1.184-3.269 1.883-.84.321-1.851.787-2.245 1.036-.87.548-1.633 1.455-1.964 2.335-.279.74-.907 2.863-.908 3.069 0 .22 1.345-.208 1.998-.636.449-.294.659-.542.964-1.134.779-1.516 1.921-2.381 4.159-3.148l1.64-.642.777-.329c.027 0-.057.149-.187.331-.219.308-.504.889-1.517 3.093-.217.473-.561 1.049-.763 1.279-.781.89-2.237 1.461-5.015 1.968-1.364.249-1.745.364-2.222.67-1.068.685-1.414 1.189-2.474 3.597l-.382.852c-.086.187-.141.354-.122.373s.322-.077.674-.212c.439-.168.739-.375.951-.657.762-1.014 1.87-1.766 3.016-2.046.292-.071 1.149-.184 1.905-.25s1.606-.189 1.89-.275.517-.119.517-.075-.186.257-.412.473-.783.854-1.239 1.418l-1.212 1.39c-.881.833-3.024 1.475-4.582 1.374-.489-.032-1.11.012-1.548.109-1.398.31-1.968.737-2.91 2.185l-1.022 1.439c-.169.188-.382.483-.474.655l-.167.313h.512c.881 0 1.533-.3 2.345-1.08.797-.766 1.757-1.313 2.685-1.532.318-.075 1.42-.153 2.449-.174l2.306-.121c.418-.081.369-.019-1.29 1.611l-2.162 1.943c-1.127.641-3.154.964-4.622.736-1.314-.204-2.902-.014-3.957.474-1.461.675-2.586 1.592-3.395 2.767l-.346.503.319-.004c.707-.009 1.74-.316 2.163-.643 1.566-1.21 3.234-1.554 5.368-1.106.483.101 1.389.217 2.014.256l1.136.072-.567.294c-.312.162-1.117.711-1.788 1.221l-1.822 1.245c-.559.295-.694.317-1.912.312-1.126-.005-1.427-.048-2.143-.309-.747-.272-1.002-.305-2.49-.319l-1.658-.016c-.817.75-1.348 1.578-2.094 2.501l-2.013-1.507c1.003-.448 1.705-1.29 2.348-1.893.523-.49 1.159-1.213 1.411-1.608.45-.703.461-.744.528-2.009.058-1.103.036-1.383-.154-1.922-.381-1.085-.518-2.313-.355-3.196.169-.917.49-1.468 1.787-3.07l1.213-1.663.255-.481.074 1.253.2 1.994c.345 2.026-.035 3.59-1.242 5.117-.392.496-.508.761-.653 1.499-.144.729-.149.929-.031 1.071.359.433 1.175.006 2.495-1.305 1.04-1.033 1.659-1.977 1.971-3.002.351-1.155.235-2.537-.309-3.684-.242-.509-.46-1.222-.57-1.857-.158-.915-.16-1.138-.012-1.991a9.3 9.3 0 0 1 .59-1.909l1.255-2.987c.056-.172.109-.033.184.487.058.4.278 1.271.49 1.937.472 1.483.633 2.243.633 2.994 0 .812-.293 1.857-.751 2.682-.345.621-.394.812-.411 1.601-.021 1.009.035 1.169.419 1.169s.813-.401 1.558-1.439c1.516-2.113 1.826-3.081 1.592-4.969-.115-.93-.198-1.227-.405-1.454-.966-1.059-1.629-2.645-1.738-4.159-.062-.871-.025-1.225.346-3.304l.242-1.584.08-.672.261.642c.144.354.66 1.169 1.148 1.812 1.291 1.703 1.478 2.154 1.472 3.562-.004.916-.066 1.336-.318 2.139-.289.922-.303 1.055-.185 1.709.128.709.356 1.108.634 1.108.345 0 1.081-1.383 1.485-2.792.144-.502.197-1.122.199-2.336.003-1.598-.01-1.688-.387-2.735-.264-.734-.523-1.229-.805-1.538-1.07-1.175-1.783-2.407-2.056-3.55-.143-.601-.149-2.359-.016-4.597l.084-1.425.269.546c.148.3.745 1.06 1.328 1.689s1.228 1.46 1.436 1.847c.332.62.382.831.424 1.775.033.738-.013 1.359-.147 1.998-.212 1.01-.169 1.336.406 3.104.253.779.441 1.001.76.9.301-.095.537-.654 1.055-2.486.492-1.741.584-2.959.33-4.367-.167-.924-.522-1.393-1.986-2.622-1.618-1.357-2.067-1.949-2.562-3.371-.308-.884-.332-2.256-.063-3.514.101-.47.211-1.29.246-1.823.086-1.322.119-1.375.45-.711.158.317.676 1.029 1.152 1.583 1.579 1.839 1.861 2.519 1.857 4.465-.003.668-.049 1.415-.106 1.659-.144.622.201 1.503.852 2.173.276.284.553.516.617.516.182 0 .431-.572.566-1.305.159-.86.161-5.582.003-6.557-.238-1.467-.63-1.982-2.529-3.323-1.488-1.051-2.358-1.935-2.813-2.859-.295-.6-.408-1.069-.632-2.633l-.352-2.156c-.061-.193.052-.131.478.266.306.285.967.795 1.468 1.133 1.84 1.241 2.612 2.387 2.962 4.397.104.599.275 1.151.42 1.363.304.444.883.85 1.212.85.238 0 .249-.047.247-.997-.004-1.95-.341-3.375-1.164-4.928-.924-1.743-1.49-2.282-3.164-3.014-1.532-.67-2.616-1.564-3.141-2.589-.163-.319-.435-1.337-.675-2.531l-.515-2.294c-.198-.52-.126-.523.489-.022.331.269.976.741 1.433 1.048.938.629 1.53 1.253 1.965 2.068.301.564.709 1.727.846 2.416.042.208.233.557.424.776.411.468 1.339 1.132 1.339.958 0-.152-.646-1.785-1.902-4.809l-.979-2.355-.796-.544c-1.108-.757-2.447-2.119-3.074-3.126-.636-1.022-1.528-3.314-2.115-5.436-.003-.01.001-.015.01-.017z"
         fill="#f9eb11"
         id="path20" />
    </g>
    <path
       style="fill:#e93435;"
       d="m 63.364,85.766 c -0.117,-0.009 -0.305,0.038 -0.552,0.167 -0.798,0.416 -2.054,0.392 -3.113,-0.061 -0.135,-0.058 -0.222,-0.025 -0.271,0.103 -0.094,0.246 -0.044,0.286 0.666,0.539 v 0 c 0.854,0.305 2.245,0.241 2.91,-0.133 0.536,-0.301 0.617,-0.595 0.359,-0.615 z"
       id="path1018" />
    <path
       style="fill:#e93435;"
       d="m 63.444,84.462 c -0.122,0.021 -0.331,0.125 -0.68,0.322 -0.758,0.428 -1.721,0.546 -2.493,0.306 -0.43,-0.134 -0.561,-0.139 -0.656,-0.024 -0.145,0.174 0.06,0.372 0.532,0.514 0.509,0.153 1.547,0.13 2.135,-0.047 0.686,-0.206 1.317,-0.633 1.318,-0.891 10e-4,-0.138 -0.034,-0.201 -0.156,-0.18 z"
       id="path1016" />
    <path
       style="fill:#e93435;"
       d="m 69.196,79.671 c -0.111,-0.023 -0.31,0.105 -0.574,0.378 -0.542,0.559 -1.373,0.884 -2.332,0.913 -0.797,0.023 -1.082,0.188 -0.737,0.425 0.216,0.148 1.525,0.032 2.172,-0.193 0.632,-0.219 1.573,-1.007 1.573,-1.318 0,-0.123 -0.036,-0.191 -0.102,-0.205 z"
       id="path1014" />
    <path
       style="fill:#e93435;"
       d="m 69.075,78.586 c -0.12,-0.024 -0.339,0.106 -0.643,0.387 -0.724,0.667 -1.312,0.907 -2.232,0.91 -0.817,0.003 -1.069,0.155 -0.707,0.428 0.302,0.228 1.399,0.105 2.157,-0.242 0.647,-0.296 1.534,-1.032 1.534,-1.273 0,-0.126 -0.037,-0.196 -0.109,-0.21 z"
       id="path1012" />
    <path
       style="fill:#e93435;"
       d="m 56.242,75.822 c -0.19,-0.034 -0.472,0.342 -0.614,0.853 -0.264,0.95 -0.033,2.708 0.414,3.155 0.345,0.345 0.422,0.008 0.165,-0.733 -0.312,-0.902 -0.311,-1.799 0.004,-2.531 0.192,-0.446 0.215,-0.598 0.106,-0.705 -0.023,-0.022 -0.048,-0.036 -0.075,-0.04 z"
       id="path1010" />
    <path
       style="fill:#e93435;"
       d="m 57.277,75.487 c -0.027,-10e-4 -0.058,0.006 -0.093,0.019 -0.087,0.033 -0.281,0.323 -0.431,0.644 -0.348,0.743 -0.391,2.393 -0.08,3.08 0.369,0.815 0.666,0.436 0.369,-0.472 a 3.47,3.47 0 0 1 0.166,-2.438 c 0.235,-0.486 0.256,-0.828 0.069,-0.834 z"
       id="path1008" />
    <path
       style="fill:#e93435;"
       d="m 72.425,73.432 c -0.089,-0.014 -0.212,0.066 -0.421,0.265 -0.591,0.562 -1.275,0.846 -2.209,0.916 -0.783,0.059 -0.999,0.175 -0.764,0.41 0.115,0.115 0.982,0.091 1.616,-0.045 1.017,-0.218 2.191,-1.169 1.857,-1.503 -0.024,-0.025 -0.051,-0.039 -0.081,-0.044 z"
       id="path1006" />
    <path
       style="fill:#e93435;"
       d="m 72.49,72.086 c -0.123,-0.019 -0.341,0.143 -0.635,0.479 a 3.13,3.13 0 0 1 -2.072,1.107 c -0.56,0.076 -0.733,0.228 -0.513,0.45 0.149,0.151 1.203,-0.047 1.811,-0.34 0.608,-0.293 1.522,-1.173 1.522,-1.465 0,-0.143 -0.039,-0.22 -0.113,-0.232 z"
       id="path1004" />
    <path
       style="fill:#e93435;"
       d="m 60.816,70.086 c -0.283,0 -0.52,0.692 -0.517,1.506 0.003,0.713 0.301,1.661 0.728,2.313 0.102,0.156 0.233,0.283 0.29,0.283 0.265,0 0.227,-0.305 -0.123,-0.994 -0.315,-0.62 -0.379,-0.877 -0.382,-1.501 -0.002,-0.414 0.041,-0.945 0.095,-1.18 0.083,-0.362 0.069,-0.427 -0.091,-0.427 z"
       id="path1002" />
    <path
       style="fill:#e93435;"
       d="m 61.928,69.647 c -0.567,0.049 -0.935,2.071 -0.537,3.256 0.101,0.3 0.235,0.609 0.299,0.687 0.064,0.078 0.157,0.143 0.209,0.143 0.221,0 0.221,-0.272 10e-4,-0.86 a 3.26,3.26 0 0 1 0.042,-2.48 c 0.231,-0.563 0.247,-0.672 0.102,-0.728 a 0.26,0.26 0 0 0 -0.116,-0.018 z"
       id="path1000" />
    <path
       style="fill:#e93435;"
       d="m 64.056,63.762 c -0.318,0 -0.41,0.794 -0.19,1.636 0.204,0.781 0.491,1.297 1.109,2.001 0.197,0.224 0.425,0.408 0.507,0.408 0.312,0 0.234,-0.302 -0.2,-0.778 -0.666,-0.73 -1.033,-1.615 -1.046,-2.52 -0.008,-0.583 -0.048,-0.747 -0.181,-0.747 z"
       id="path998" />
    <path
       style="fill:#e93435;"
       d="m 64.944,63.044 c -0.415,-0.08 -0.408,1.704 0.011,2.652 0.119,0.268 0.407,0.699 0.64,0.958 0.233,0.259 0.496,0.47 0.583,0.47 0.269,0 0.173,-0.398 -0.176,-0.733 -0.56,-0.536 -0.854,-1.357 -0.861,-2.4 -0.005,-0.758 -0.038,-0.917 -0.197,-0.947 z"
       id="path996" />
    <path
       style="fill:#e93435;"
       d="m 76.634,65.642 c -0.09,-0.023 -0.216,0.057 -0.322,0.254 -0.378,0.701 -1.148,1.269 -2.084,1.535 -0.573,0.164 -0.693,0.239 -0.627,0.393 0.069,0.162 0.156,0.177 0.578,0.1 1.136,-0.207 2.426,-1.175 2.56,-1.92 0.038,-0.214 -0.015,-0.34 -0.105,-0.363 z"
       id="path994" />
    <path
       style="fill:#e93435;"
       d="m 76.4,64.333 a 0.31,0.31 0 0 0 -0.056,-0.01 c -0.147,-0.015 -0.271,0.132 -0.464,0.547 a 3.21,3.21 0 0 1 -2.119,1.732 c -0.121,0.027 -0.198,0.126 -0.189,0.243 0.021,0.273 0.127,0.283 0.741,0.069 0.951,-0.332 1.807,-1.177 2.071,-2.045 0.118,-0.386 0.128,-0.501 0.015,-0.535 z"
       id="path992" />
    <path
       style="fill:#e93435;"
       d="m 66.232,55.552 c -0.087,-0.013 -0.196,0.119 -0.27,0.403 -0.24,0.927 0.271,2.448 1.123,3.34 0.331,0.346 0.444,0.405 0.573,0.298 0.135,-0.112 0.099,-0.21 -0.224,-0.604 -0.76,-0.927 -1.117,-1.927 -1.065,-2.975 0.015,-0.293 -0.05,-0.45 -0.137,-0.463 z"
       id="path990" />
    <path
       style="fill:#e93435;"
       d="m 67.25,54.724 c -0.057,0.012 -0.125,0.054 -0.203,0.132 -0.162,0.162 -0.199,0.405 -0.198,1.305 0,1.208 0.18,1.782 0.785,2.498 0.184,0.218 0.375,0.339 0.474,0.301 0.234,-0.09 0.207,-0.242 -0.111,-0.619 -0.622,-0.739 -0.893,-2.033 -0.626,-2.994 0.114,-0.412 0.05,-0.657 -0.121,-0.622 z"
       id="path988" />
    <path
       style="fill:#e93435;"
       d="m 78.59,49.973 c -0.135,0.003 -0.288,0.231 -0.288,0.506 0,0.569 -0.556,1.472 -1.21,1.966 -0.337,0.255 -0.613,0.534 -0.613,0.62 0,0.474 1.151,-0.222 1.691,-1.022 0.531,-0.787 0.763,-1.636 0.543,-1.991 -0.035,-0.056 -0.077,-0.08 -0.122,-0.079 z"
       id="path986" />
    <path
       style="fill:#e93435;"
       d="m 77.783,48.917 c -0.108,0.013 -0.154,0.177 -0.205,0.667 -0.087,0.832 -0.521,1.698 -1.083,2.162 -0.255,0.211 -0.366,0.383 -0.321,0.501 0.038,0.099 0.123,0.179 0.19,0.179 0.227,0 1.094,-0.973 1.364,-1.53 0.335,-0.692 0.401,-1.916 0.106,-1.976 -0.018,-0.004 -0.035,-0.005 -0.051,-0.003 z"
       id="path984" />
    <path
       style="fill:#e93435;"
       d="m 67.245,48.245 c -0.078,-0.004 -0.167,0.078 -0.251,0.263 -0.323,0.71 0.557,2.622 1.539,3.345 0.436,0.321 0.652,0.355 0.652,0.103 0,-0.063 -0.257,-0.366 -0.573,-0.673 -0.718,-0.7 -1.133,-1.559 -1.135,-2.349 -0.001,-0.431 -0.102,-0.681 -0.233,-0.688 z"
       id="path982" />
    <path
       style="fill:#e93435;"
       d="m 68.168,47.24 c -0.439,0 -0.421,1.741 0.028,2.723 0.149,0.326 0.438,0.782 0.642,1.014 0.402,0.458 0.546,0.514 0.646,0.254 0.037,-0.097 -0.107,-0.369 -0.342,-0.643 C 68.601,49.956 68.34,49.149 68.334,48.095 68.331,47.433 68.293,47.24 68.167,47.24 Z"
       id="path980" />
    <path
       style="fill:#e93435;"
       d="m 77.959,42.91 c -0.128,0 -0.188,0.187 -0.237,0.741 -0.076,0.857 -0.285,1.311 -0.926,2.006 -0.282,0.306 -0.433,0.565 -0.393,0.671 0.101,0.263 0.213,0.215 0.724,-0.312 0.738,-0.76 1.002,-1.368 1.002,-2.307 0,-0.633 -0.035,-0.798 -0.171,-0.798 z"
       id="path978" />
    <path
       style="fill:#e93435;"
       d="m 76.989,41.956 c -0.022,-0.002 -0.045,10e-4 -0.069,0.009 -0.115,0.038 -0.145,0.266 -0.118,0.907 0.039,0.934 -0.112,1.447 -0.623,2.117 -0.16,0.21 -0.262,0.457 -0.228,0.548 0.089,0.231 0.222,0.206 0.485,-0.091 0.397,-0.449 0.608,-0.859 0.787,-1.535 0.236,-0.89 0.097,-1.932 -0.234,-1.954 z"
       id="path976" />
    <path
       style="fill:#e93435;"
       d="m 67.239,39.321 c -0.22,0 -0.243,0.359 -0.055,0.852 0.257,0.673 0.897,1.355 1.659,1.767 0.728,0.394 1.025,0.433 1.025,0.133 0,-0.137 -0.15,-0.272 -0.427,-0.384 -0.824,-0.334 -1.359,-0.834 -1.735,-1.622 -0.196,-0.41 -0.406,-0.746 -0.468,-0.746 z"
       id="path974" />
    <path
       style="fill:#e93435;"
       d="m 67.79,38.296 c -0.208,0 -0.224,0.051 -0.161,0.512 0.072,0.527 0.484,1.42 0.841,1.825 a 5.57,5.57 0 0 0 0.601,0.54 c 0.436,0.34 0.912,0.416 0.912,0.146 0,-0.092 -0.144,-0.243 -0.32,-0.334 -0.757,-0.391 -1.387,-1.303 -1.563,-2.261 -0.06,-0.327 -0.133,-0.427 -0.31,-0.427 z"
       id="path972" />
    <path
       style="fill:#e93435;"
       d="m 76.407,33.422 c -0.025,-0.005 -0.051,-0.003 -0.079,0.006 -0.092,0.031 -0.122,0.302 -0.095,0.853 0.046,0.918 -0.097,1.463 -0.57,2.171 -0.181,0.271 -0.299,0.54 -0.263,0.598 0.208,0.336 0.658,-0.116 1.092,-1.098 0.369,-0.835 0.29,-2.456 -0.086,-2.531 z"
       id="path970" />
    <path
       style="fill:#e93435;"
       d="m 75.369,32.846 c -0.027,0.003 -0.056,0.01 -0.087,0.022 -0.134,0.052 -0.168,0.136 -0.107,0.273 0.048,0.109 0.11,0.573 0.138,1.03 0.047,0.756 0.019,0.898 -0.303,1.552 l -0.355,0.792 c 0,0.039 0.098,0.071 0.219,0.071 0.299,0 0.657,-0.616 0.877,-1.507 0.148,-0.601 0.158,-0.848 0.053,-1.352 -0.141,-0.675 -0.244,-0.9 -0.435,-0.882 z"
       id="path968" />
    <path
       style="fill:#e93435;"
       d="m 65.272,30.138 c -0.077,0.014 -0.125,0.172 -0.112,0.484 0.035,0.804 0.664,1.715 1.629,2.359 0.333,0.222 0.528,0.238 0.642,0.053 0.049,-0.08 -0.029,-0.204 -0.193,-0.307 -0.152,-0.095 -0.535,-0.433 -0.853,-0.752 -0.438,-0.441 -0.618,-0.73 -0.75,-1.203 -0.121,-0.434 -0.266,-0.653 -0.364,-0.634 z"
       id="path966" />
    <path
       style="fill:#e93435;"
       d="m 66.173,29.546 c -0.016,-10e-4 -0.032,0 -0.05,0.004 -0.144,0.03 -0.181,0.161 -0.166,0.584 0.025,0.724 0.501,1.673 1.091,2.178 0.456,0.39 0.807,0.505 0.932,0.303 0.034,-0.054 -0.188,-0.308 -0.491,-0.564 a 3.12,3.12 0 0 1 -1.098,-1.998 c -0.055,-0.365 -0.109,-0.499 -0.217,-0.507 z"
       id="path964" />
    <path
       style="fill:#e93435;"
       d="m 71.686,25.991 c -0.287,0 -0.285,0.25 0.003,0.511 0.124,0.112 0.335,0.492 0.468,0.844 0.195,0.515 0.231,0.799 0.183,1.456 -0.033,0.449 -0.03,0.847 0.007,0.883 h 0.001 c 0.427,0.427 0.657,-1.26 0.323,-2.37 -0.2,-0.666 -0.689,-1.323 -0.984,-1.323 z"
       id="path962" />
    <path
       style="fill:#e93435;"
       d="m 70.709,25.829 c -0.053,0.007 -0.1,0.036 -0.143,0.088 -0.094,0.113 -0.043,0.241 0.209,0.523 0.518,0.581 0.731,1.129 0.776,2 l 0.091,0.95 c 0.027,0.084 0.114,0.131 0.192,0.105 0.187,-0.062 0.254,-1.49 0.096,-2.028 -0.147,-0.5 -0.762,-1.444 -1.036,-1.59 -0.071,-0.038 -0.131,-0.054 -0.185,-0.048 z"
       id="path960" />
    <path
       style="fill:#e93435;"
       d="m 63.876,20.903 c -0.016,0.002 -0.029,0.006 -0.04,0.012 -0.232,0.143 -0.117,0.375 0.333,0.673 0.544,0.36 1.107,1.294 1.21,2.009 0.041,0.282 0.098,0.554 0.127,0.605 0.029,0.051 0.112,0.072 0.185,0.049 0.378,-0.124 0.079,-1.547 -0.487,-2.316 -0.37,-0.503 -1.093,-1.055 -1.328,-1.031 z"
       id="path958" />
    <path
       style="fill:#e93435;"
       d="m 64.894,20.832 c -0.06,-0.004 -0.114,0.007 -0.159,0.036 -0.132,0.082 -0.064,0.201 0.337,0.59 0.514,0.499 1.034,1.436 1.036,1.869 a 3.96,3.96 0 0 0 0.073,0.604 c 0.05,0.252 0.128,0.349 0.256,0.323 0.259,-0.053 0.207,-1.003 -0.098,-1.82 -0.301,-0.803 -1.025,-1.574 -1.445,-1.602 z"
       id="path956" />
    <path
       style="fill:#e93435;"
       d="m 78.227,57.615 c -0.092,0.008 -0.185,0.125 -0.221,0.346 -0.127,0.786 -0.669,1.575 -1.466,2.133 -0.488,0.342 -0.576,0.452 -0.464,0.577 0.118,0.13 0.206,0.116 0.578,-0.095 1.005,-0.568 1.908,-1.905 1.79,-2.652 -0.034,-0.215 -0.126,-0.316 -0.218,-0.308 z"
       id="path954" />
    <path
       style="fill:#e93435;"
       d="m 77.577,56.454 a 0.38,0.38 0 0 0 -0.056,0.008 c -0.144,0.034 -0.213,0.214 -0.259,0.669 -0.094,0.932 -0.661,1.853 -1.435,2.33 -0.106,0.065 -0.146,0.184 -0.099,0.292 0.109,0.252 0.213,0.226 0.723,-0.178 0.79,-0.625 1.322,-1.704 1.287,-2.611 -0.015,-0.403 -0.044,-0.515 -0.161,-0.511 z"
       id="path952" />
  </g>
  <g
     id="g1025">
    <path
       d="m 27.114,16.361 c -0.067,-0.063 -3.223,1.252 -3.757,1.565 -0.292,0.171 -0.812,0.568 -1.155,0.882 l -0.625,0.572 -0.073,-0.371 c -0.105,-0.531 -0.346,-0.815 -0.579,-0.684 -0.663,0.371 -2.333,2.444 -2.8,3.476 l -0.142,0.313 -0.383,-0.292 -0.383,-0.292 -0.18,0.43 c -0.099,0.237 -0.283,0.841 -0.41,1.344 -0.286,1.133 -0.23,2.085 0.209,3.54 0.392,1.299 0.413,2.352 0.063,3.255 -0.135,0.348 -0.312,0.724 -0.393,0.835 -0.128,0.174 -0.15,0.12 -0.164,-0.406 -0.009,-0.334 -0.122,-1.043 -0.251,-1.576 -0.129,-0.533 -0.235,-1.264 -0.235,-1.626 l -10e-4,-0.658 -0.313,0.194 A 5.68,5.68 0 0 0 14.9,27.349 c -0.242,0.216 -0.343,0.253 -0.383,0.14 -0.155,-0.43 -0.748,-0.917 -1.285,-1.055 -0.481,-0.123 -0.567,-0.186 -0.567,-0.417 0,-0.337 -0.582,-0.938 -0.908,-0.938 -0.326,0 -0.871,0.293 -0.958,0.518 -0.122,0.318 -0.077,0.79 0.098,1.04 0.149,0.214 0.148,0.257 -0.008,0.387 -0.324,0.269 -0.535,0.836 -0.535,1.437 v 0.596 L 10.022,28.885 C 9.839,28.791 9.49,28.729 9.245,28.748 l -0.444,0.035 0.221,0.492 c 0.122,0.271 0.346,1.046 0.498,1.722 0.35,1.553 0.72,2.3 1.344,2.712 0.416,0.276 0.582,0.314 1.355,0.311 l 0.881,-0.003 0.351,1.427 c 0.668,2.717 0.667,2.693 0.194,5.524 l -0.461,2.545 C 13.16,43.537 13.076,43.437 12.998,43.292 12.775,42.875 12.82,41.848 13.096,41.065 13.6,39.634 13.561,39.213 12.924,39.209 12.635,39.207 12.613,39.136 12.474,37.783 12.385,36.918 12.366,36.87 12.088,36.837 11.83,36.807 11.766,36.702 11.543,35.946 11.299,35.115 11.281,35.091 10.981,35.154 10.638,35.226 10.727,35.348 9.76,33.482 L 9.204,32.485 c -0.022,0 -0.157,0.436 -0.3,0.968 -0.231,0.859 -0.29,0.968 -0.522,0.968 -0.42,0 -0.617,0.408 -0.617,1.279 0,0.748 -0.009,0.772 -0.285,0.772 -0.344,0 -0.348,0.065 -0.057,1.112 l 0.228,0.884 c 0,0.034 -0.128,0.11 -0.284,0.169 l -0.284,0.108 0.232,0.589 c 0.295,0.75 0.419,0.98 0.775,1.45 0.242,0.32 0.266,0.416 0.15,0.601 -0.266,0.425 0.176,0.871 1.836,1.852 1.186,0.701 1.595,1.088 2.174,2.057 0.382,0.639 0.4,0.714 0.337,1.424 -0.076,0.86 -0.254,1.327 -0.263,0.693 -0.008,-0.539 -0.339,-1.232 -0.994,-2.082 -0.3,-0.389 -0.676,-0.981 -0.837,-1.316 l -0.291,-0.609 -0.306,0.442 c -0.169,0.243 -0.307,0.504 -0.307,0.579 0,0.187 -0.078,0.174 -0.66,-0.107 C 8.501,44.111 8.35,44.091 7.935,44.186 7.478,44.29 7.436,44.28 7.322,44.029 7.076,43.488 6.12,43.417 5.772,43.913 c -0.263,0.376 -0.216,0.959 0.1,1.253 0.236,0.219 0.263,0.327 0.214,0.839 -0.039,0.409 0,0.7 0.128,0.958 0.231,0.462 0.232,0.449 -0.059,0.449 -0.347,0 -1.124,0.246 -1.124,0.356 0,0.051 0.148,0.202 0.328,0.335 0.18,0.133 0.574,0.584 0.873,1 0.679,0.944 1.382,1.695 1.784,1.906 0.493,0.259 1.437,0.204 1.998,-0.117 l 0.483,-0.276 0.386,0.476 c 0.212,0.262 0.62,0.836 0.908,1.275 l 0.523,0.797 -0.081,0.798 c -0.068,0.668 -0.114,0.797 -0.289,0.797 -0.158,0 -0.298,-0.237 -0.572,-0.968 l -0.363,-0.968 -0.402,0.03 c -0.37,0.028 -0.451,-0.029 -1.023,-0.72 L 8.963,51.382 8.605,51.773 8.246,52.164 7.692,51.718 C 6.91,51.087 5.819,50.343 5.761,50.401 c -0.058,0.058 0.144,2.611 0.248,3.128 0.065,0.325 0.041,0.373 -0.225,0.44 -0.164,0.041 -0.298,0.102 -0.298,0.134 0,0.185 0.54,0.882 0.99,1.278 0.412,0.363 0.482,0.472 0.335,0.528 -0.102,0.039 -0.185,0.132 -0.185,0.207 0,0.223 0.822,0.955 1.292,1.15 0.338,0.141 0.419,0.227 0.358,0.376 -0.187,0.452 -0.175,0.562 0.08,0.727 0.367,0.238 1.258,0.507 2.182,0.659 0.98,0.161 1.985,0.532 2.114,0.781 0.054,0.105 0.133,0.448 0.175,0.761 l 0.139,0.891 c 0.061,0.311 0.047,0.305 -0.442,-0.184 -0.29,-0.29 -0.889,-0.691 -1.407,-0.942 C 10.621,60.095 9.995,59.724 9.725,59.51 9.455,59.296 9.21,59.144 9.181,59.173 9.152,59.202 9.116,59.515 9.102,59.869 L 9.076,60.511 8.724,60.446 c -0.373,-0.069 -1.09,0.173 -1.431,0.482 -0.178,0.162 -0.221,0.161 -0.457,-0.004 -0.6,-0.42 -1.372,0.012 -1.372,0.768 0,0.5 0.25,0.829 0.707,0.929 0.253,0.056 0.334,0.152 0.393,0.469 0.046,0.246 0.247,0.571 0.524,0.848 0.247,0.247 0.405,0.45 0.35,0.45 -0.179,0 -0.952,0.777 -0.884,0.888 0.037,0.06 0.235,0.142 0.44,0.182 0.205,0.04 0.941,0.36 1.636,0.71 1.105,0.557 1.349,0.637 1.951,0.643 0.823,0.008 1.323,-0.254 1.799,-0.941 0.174,-0.251 0.338,-0.456 0.364,-0.456 0.026,0 0.276,0.057 0.555,0.128 0.489,0.123 0.514,0.15 0.693,0.769 a 18.02,18.02 0 0 0 0.512,1.439 c 0.389,0.955 0.391,0.987 0.086,1.178 -0.22,0.137 -0.284,0.101 -0.773,-0.445 -0.489,-0.546 -0.552,-0.582 -0.774,-0.444 -0.213,0.133 -0.284,0.115 -0.609,-0.159 -0.202,-0.17 -0.515,-0.386 -0.696,-0.479 -0.324,-0.168 -0.331,-0.164 -0.523,0.239 -0.151,0.317 -0.247,0.395 -0.427,0.35 A 18.66,18.66 0 0 0 9.758,67.812 L 8.413,67.566 C 8.112,67.497 7.841,67.464 7.811,67.494 c -0.084,0.084 1.19,2.733 1.445,3.003 l 0.226,0.241 -0.398,0.35 -0.398,0.349 0.536,0.341 c 0.295,0.187 0.805,0.427 1.134,0.534 0.622,0.201 0.684,0.264 0.472,0.476 -0.07,0.07 -0.089,0.188 -0.042,0.264 0.141,0.228 0.984,0.543 1.679,0.627 0.521,0.063 0.655,0.121 0.655,0.281 0,0.415 0.841,0.446 1.974,0.072 1.174,-0.388 1.387,-0.426 1.902,-0.344 0.413,0.066 0.538,0.174 1.198,1.029 l 0.737,1.014 c 0,0.032 -0.105,0.003 -0.233,-0.065 -0.128,-0.068 -0.827,-0.202 -1.554,-0.297 -0.727,-0.095 -1.575,-0.272 -1.886,-0.394 l -0.564,-0.223 0.079,0.487 c 0.043,0.268 0.151,0.601 0.239,0.739 0.219,0.345 0.22,0.344 -0.309,0.434 -0.529,0.09 -1.318,0.722 -1.425,1.149 -0.055,0.219 -0.105,0.248 -0.275,0.157 -0.382,-0.204 -0.8,-0.124 -1.145,0.221 -0.453,0.453 -0.448,0.937 0.014,1.399 0.307,0.307 0.399,0.338 0.8,0.274 0.401,-0.064 0.465,-0.042 0.552,0.186 0.175,0.454 1.088,1.113 1.543,1.113 0.227,0 0.225,0.159 -0.003,0.349 -0.163,0.135 -0.618,0.924 -0.618,1.071 0,0.034 0.35,0.062 0.777,0.062 0.427,0 1.081,0.058 1.453,0.13 0.372,0.072 1.148,0.129 1.724,0.129 h 1.049 l 0.075,0.341 c 0.084,0.381 -0.056,0.529 -0.519,0.549 -0.157,0.007 -0.812,0.072 -1.457,0.144 l -1.172,0.132 1.178,0.715 c 0.648,0.393 1.509,0.825 1.913,0.96 l 0.778,0.278 c 0.024,0.018 -0.045,0.219 -0.153,0.448 -0.139,0.292 -0.161,0.451 -0.076,0.536 0.067,0.067 0.603,0.126 1.193,0.131 l 1.072,0.01 -0.057,0.427 -0.057,0.427 h 0.741 c 0.408,0 0.962,-0.078 1.232,-0.173 0.489,-0.173 0.581,-0.146 0.707,0.21 0.059,0.167 0.642,-0.052 1.34,-0.503 l 0.681,-0.44 v 0.396 c 0,0.218 0.039,0.396 0.086,0.395 0.047,-0.001 0.376,-0.25 0.731,-0.553 l 0.645,-0.552 1.199,-0.081 1.199,-0.08 0.808,0.605 2.4,1.969 -0.004,0.002 0.35,0.447 3.023,-1.367 -0.568,-0.209 c -0.432,-0.216 -3.485,-2.527 -3.689,-2.74 -0.046,-0.048 0.122,-0.056 0.373,-0.019 0.296,0.044 0.656,-0.001 1.026,-0.129 0.577,-0.2 0.668,-0.358 0.472,-0.824 -0.054,-0.128 0.071,-0.216 0.497,-0.351 l 0.748,-0.228 c 0.267,-0.071 0.908,-0.238 0.46,-0.543 -0.212,-0.186 -0.551,-0.3 -0.646,-0.574 0.088,-0.088 0.226,-0.268 0.357,-0.265 0.38,-0.281 0.772,-0.508 1.177,-0.751 0.315,-0.16 0.434,-0.422 0.149,-0.372 -0.305,0.055 -0.699,-0.139 -0.96,-0.107 -0.306,0.037 -0.304,0.021 -0.089,-0.495 0.211,-0.506 0.216,-1.205 0.013,-1.966 -0.086,-0.322 -0.129,-0.842 -0.098,-1.168 0.035,-0.368 0.012,-0.588 -0.063,-0.588 -0.065,0 -0.136,0.046 -0.157,0.102 -0.021,0.056 -0.261,0.342 -0.533,0.636 l -0.496,0.534 -0.273,-0.256 c -0.15,-0.141 -0.294,-0.236 -0.32,-0.209 -0.238,0.242 -1.207,1.522 -1.207,1.594 0,0.051 -0.172,0.065 -0.382,0.03 -0.371,-0.06 -0.395,-0.04 -0.797,0.68 l -0.415,0.742 -0.44,-0.059 -0.439,-0.059 -0.131,0.519 c -0.176,0.698 -0.165,1.522 0.029,2.166 0.088,0.292 0.135,0.531 0.104,0.531 -0.031,0 -0.744,-0.512 -1.584,-1.138 L 27.595,81.37 v -0.618 c 0,-0.966 0,-0.965 1.009,-0.896 0.745,0.051 0.951,0.024 1.347,-0.178 0.624,-0.319 1.16,-0.967 1.682,-2.037 0.237,-0.486 0.584,-1.105 0.771,-1.377 0.187,-0.272 0.319,-0.515 0.294,-0.541 -0.086,-0.086 -1.056,-0.104 -1.286,-0.024 -0.192,0.067 -0.276,-0.021 -0.541,-0.565 -0.308,-0.633 -0.31,-0.648 -0.099,-0.88 0.492,-0.539 0.38,-1.295 -0.239,-1.615 -0.626,-0.324 -1.457,0.147 -1.457,0.826 0,0.235 -0.054,0.269 -0.427,0.27 -0.235,0 -0.574,0.077 -0.753,0.171 -0.415,0.217 -0.414,0.217 -0.414,-0.075 0,-0.141 -0.207,-0.442 -0.483,-0.705 l -0.483,-0.46 -0.141,0.634 c -0.077,0.349 -0.379,1.038 -0.671,1.531 -0.632,1.068 -0.843,1.625 -0.843,2.226 0,0.621 0.245,1.142 0.784,1.664 0.417,0.404 0.455,0.488 0.394,0.864 -0.037,0.229 -0.093,0.417 -0.125,0.417 -0.118,0 -2.057,-1.701 -3.296,-2.89 -0.891,-0.856 -1.289,-1.316 -1.289,-1.493 0,-0.443 0.482,-0.823 1.382,-1.089 1.622,-0.479 2.86,-1.356 3.016,-2.136 0.059,-0.294 0.036,-0.368 -0.112,-0.368 -0.252,0 -0.234,-0.08 0.107,-0.485 0.303,-0.361 0.961,-1.586 0.961,-1.791 0,-0.065 -0.115,-0.117 -0.256,-0.117 h -0.256 l 0.035,-1.908 0.035,-1.909 -0.757,0.826 c -0.416,0.454 -0.817,0.826 -0.891,0.826 -0.074,0 -0.198,-0.103 -0.276,-0.228 -0.078,-0.125 -0.206,-0.228 -0.284,-0.228 -0.142,0 -1.279,1.249 -1.362,1.496 -0.033,0.1 -0.104,0.1 -0.287,0.002 -0.434,-0.232 -0.561,-0.143 -0.929,0.656 l -0.362,0.787 -0.434,-0.058 -0.434,-0.058 -0.159,0.554 c -0.207,0.725 -0.186,1.763 0.054,2.565 0.179,0.602 0.161,1.165 -0.042,1.291 -0.165,0.102 -1.353,-1.725 -2.283,-3.511 -1.043,-2.001 -1.029,-1.876 -0.306,-2.737 l 0.369,-0.439 0.604,0.375 c 1.176,0.731 2.031,0.473 3.571,-1.073 0.521,-0.523 1.114,-1.047 1.318,-1.165 0.204,-0.118 0.371,-0.246 0.371,-0.284 0,-0.038 -0.269,-0.192 -0.598,-0.341 l -0.631,-0.29 c -0.018,-0.01 0.077,-0.205 0.211,-0.432 0.178,-0.301 0.233,-0.553 0.204,-0.926 -0.022,-0.282 0,-0.513 0.051,-0.513 0.248,0 0.651,-0.584 0.651,-0.944 0,-0.799 -1.03,-1.196 -1.581,-0.61 -0.241,0.257 -0.276,0.262 -0.713,0.111 -0.437,-0.151 -0.765,-0.122 -1.355,0.122 -0.129,0.053 -0.246,-0.09 -0.452,-0.557 -0.152,-0.346 -0.311,-0.629 -0.353,-0.629 -0.042,0 -0.144,0.165 -0.227,0.365 -0.083,0.2 -0.58,0.817 -1.103,1.369 -0.523,0.552 -1.05,1.221 -1.17,1.487 -0.247,0.545 -0.287,1.386 -0.095,2.026 0.114,0.38 0.099,0.48 -0.123,0.84 -0.139,0.225 -0.295,0.408 -0.346,0.408 -0.211,0 -1.044,-3.334 -1.431,-5.723 -0.159,-0.979 -0.17,-1.256 -0.056,-1.393 0.265,-0.319 0.831,-0.324 1.841,-0.016 1.196,0.365 2.181,0.474 2.779,0.307 0.737,-0.205 0.813,-0.285 0.589,-0.626 -0.105,-0.16 -0.191,-0.31 -0.191,-0.333 0,-0.023 0.218,-0.108 0.485,-0.188 0.554,-0.166 1.474,-0.613 1.945,-0.945 l 0.321,-0.226 -0.243,-0.258 -0.242,-0.258 0.309,-0.327 c 0.17,-0.18 0.453,-0.635 0.628,-1.011 0.175,-0.376 0.424,-0.837 0.552,-1.025 0.32,-0.47 0.3,-0.513 -0.227,-0.513 -0.253,0 -0.978,-0.086 -1.609,-0.191 -0.868,-0.144 -1.256,-0.162 -1.587,-0.073 -0.387,0.103 -0.448,0.092 -0.507,-0.095 a 0.68,0.68 0 0 0 -0.291,-0.332 c -0.218,-0.117 -0.742,0.101 -1.662,0.691 -0.221,0.142 -0.277,0.135 -0.487,-0.054 -0.234,-0.211 -0.242,-0.209 -0.643,0.176 -0.503,0.483 -0.872,1.194 -1.115,2.142 -0.232,0.909 -0.496,1.473 -0.755,1.611 -0.302,0.161 -0.346,-0.174 -0.418,-3.196 l -0.064,-2.681 0.686,-0.424 c 0.377,-0.233 0.732,-0.423 0.789,-0.423 0.057,0 0.166,0.176 0.244,0.391 0.185,0.51 0.807,1.049 1.397,1.208 0.59,0.159 1.103,0.075 2.575,-0.414 0.639,-0.212 1.344,-0.387 1.566,-0.387 0.222,0 0.405,-0.03 0.405,-0.068 0,-0.125 -0.489,-0.784 -0.73,-0.983 -0.131,-0.108 -0.174,-0.198 -0.096,-0.199 0.23,-0.004 1.025,-0.782 1.099,-1.075 0.049,-0.196 0.175,-0.29 0.463,-0.344 0.453,-0.085 0.86,-0.532 0.86,-0.944 0,-0.344 -0.578,-0.945 -0.91,-0.945 -0.134,0 -0.346,0.055 -0.47,0.121 -0.187,0.1 -0.279,0.063 -0.542,-0.218 -0.31,-0.332 -1.169,-0.662 -1.382,-0.53 -0.066,0.041 -0.08,-0.223 -0.038,-0.679 0.039,-0.41 0.035,-0.745 -0.006,-0.745 -0.041,0 -0.27,0.129 -0.508,0.286 -0.238,0.157 -0.839,0.42 -1.336,0.582 -1.97,0.643 -2.677,1.283 -2.855,2.584 -0.057,0.418 -0.137,0.535 -0.54,0.794 l -0.472,0.304 -0.035,-0.765 c -0.042,-0.923 0.144,-3.093 0.328,-3.824 0.241,-0.957 0.996,-1.193 2.385,-0.745 0.892,0.288 2.386,0.347 2.934,0.115 0.412,-0.174 0.454,-0.303 0.194,-0.591 -0.163,-0.18 -0.12,-0.222 0.577,-0.548 0.414,-0.194 0.907,-0.462 1.096,-0.596 l 0.342,-0.243 -0.243,-0.259 -0.243,-0.258 0.342,-0.243 c 0.188,-0.134 0.651,-0.716 1.031,-1.295 l 0.69,-1.052 -0.882,-0.104 c -0.485,-0.057 -1.317,-0.109 -1.849,-0.114 -0.884,-0.009 -0.99,-0.035 -1.214,-0.294 l -0.245,-0.284 -0.496,0.274 -0.985,0.606 c -0.477,0.324 -0.498,0.327 -0.79,0.136 -0.292,-0.191 -0.306,-0.189 -0.554,0.099 -0.14,0.162 -0.362,0.593 -0.495,0.957 -0.389,1.069 -0.596,1.497 -0.822,1.701 -0.117,0.105 -0.21,0.145 -0.209,0.088 0.01,-0.408 0.563,-3.389 0.64,-3.456 l 1.264,-1.082 1.166,-0.998 0.48,0.411 c 0.63,0.539 1.237,0.707 1.916,0.53 0.643,-0.168 1.088,-0.461 2.164,-1.429 0.469,-0.422 1.052,-0.869 1.296,-0.993 l 0.443,-0.226 -0.385,-0.234 c -0.212,-0.129 -0.521,-0.282 -0.689,-0.34 L 23.06,35.092 23.333,34.69 c 0.308,-0.455 0.451,-1.042 0.339,-1.395 -0.055,-0.174 -0.026,-0.238 0.109,-0.238 0.308,0 0.743,-0.527 0.743,-0.9 0,-0.478 -0.422,-0.934 -0.877,-0.947 -0.384,-0.011 -0.946,0.284 -0.946,0.496 0,0.084 -0.047,0.089 -0.143,0.012 -0.471,-0.374 -1.159,-0.404 -1.937,-0.086 -0.162,0.066 -0.2,0.02 -0.204,-0.244 -0.003,-0.179 -0.098,-0.501 -0.211,-0.714 l -0.207,-0.388 -0.3,0.445 c -0.273,0.406 -1.901,1.904 -1.982,1.824 -0.019,-0.019 0.369,-0.877 0.862,-1.907 0.994,-2.077 1.187,-2.307 2.686,-3.19 0.864,-0.509 3.145,-2.031 3.145,-2.098 0,-0.19 -0.304,-0.63 -0.473,-0.684 -0.312,-0.099 -0.262,-0.22 0.263,-0.635 0.568,-0.45 1.464,-1.635 1.464,-1.936 0,-0.118 -0.103,-0.319 -0.229,-0.444 l -0.229,-0.228 0.291,-0.44 c 0.191,-0.288 0.381,-0.875 0.552,-1.706 0.18,-0.873 0.394,-1.519 0.686,-2.078 0.234,-0.446 0.408,-0.826 0.389,-0.844 z M 15.712,32.648 c 0.017,0.017 -0.103,0.384 -0.266,0.817 -0.351,0.932 -0.363,0.948 -0.438,0.6 -0.138,-0.642 -0.118,-0.724 0.273,-1.082 0.22,-0.201 0.413,-0.352 0.43,-0.335 z m 1.044,2.292 c 0.041,-0.025 0.129,0.191 0.196,0.48 0.121,0.522 0.118,0.53 -0.326,0.989 -0.316,0.327 -0.431,0.396 -0.391,0.235 0.226,-0.907 0.457,-1.666 0.52,-1.704 z m -4.391,13.251 c 0.032,0.015 0.052,0.301 0.058,0.845 l -0.036,1.111 c -0.026,0 -0.157,-0.177 -0.291,-0.393 -0.234,-0.379 -0.236,-0.406 -0.047,-0.769 a 3.89,3.89 0 0 0 0.279,-0.718 c 0.014,-0.056 0.026,-0.081 0.037,-0.076 z m 3.41,22.522 c 0.038,-0.007 0.164,0.17 0.351,0.514 0.171,0.314 0.29,0.57 0.264,0.57 -0.107,0 -0.417,-0.423 -0.533,-0.728 -0.089,-0.235 -0.112,-0.351 -0.083,-0.356 z m 5.039,7.164 c 0.041,0.008 0.105,0.056 0.164,0.128 0.09,0.108 0.099,0.174 0.023,0.174 -0.138,0 -0.299,-0.216 -0.22,-0.295 0.007,-0.007 0.019,-0.009 0.032,-0.006 z m 1.483,2.125 c 0.64,-0.022 0.819,0.128 1.458,0.712 0.756,0.69 0.775,0.722 0.637,1.025 -0.168,0.369 -0.112,0.363 -0.904,0.089 l -0.627,-0.217 -0.228,0.285 c -0.213,0.266 -0.262,0.277 -0.741,0.166 -0.282,-0.065 -0.704,-0.119 -0.939,-0.121 -0.399,-0.003 -0.427,0.02 -0.427,0.34 0,0.34 -0.003,0.343 -0.655,0.34 l -0.655,-0.003 0.285,-0.223 c 0.157,-0.123 0.317,-0.224 0.355,-0.225 0.174,-0.006 0.674,-0.912 0.796,-1.441 l 0.134,-0.584 0.684,-0.071 0.828,-0.071 z"
       fill="#6b6503"
       id="path22" />
    <path
       d="m 12.501,78.057 c 0.162,0.008 0.332,0.1 0.458,0.292 0.173,0.264 0.173,0.306 0,0.57 -0.311,0.475 -0.979,0.293 -0.979,-0.268 0,-0.385 0.251,-0.607 0.521,-0.594 z m 17.584,-5.109 c 0.107,0.006 0.214,0.077 0.353,0.216 0.274,0.274 0.289,0.493 0.049,0.733 -0.213,0.212 -0.632,0.234 -0.824,0.042 -0.201,-0.201 -0.166,-0.599 0.072,-0.814 0.136,-0.123 0.243,-0.183 0.35,-0.177 z M 22.724,61.485 c 0.358,0.033 0.6,0.518 0.286,0.832 -0.075,0.075 -0.219,0.136 -0.319,0.136 -0.456,0 -0.63,-0.696 -0.228,-0.912 a 0.46,0.46 0 0 1 0.261,-0.057 z M 6.293,61.227 c 0.075,-0.011 0.156,0.012 0.274,0.066 0.351,0.16 0.388,0.641 0.064,0.814 C 6.326,62.27 6.232,62.256 6.015,62.017 5.77,61.746 5.777,61.622 6.055,61.371 6.149,61.286 6.219,61.239 6.294,61.228 Z M 22.275,48.245 c 0.093,-10e-4 0.194,0.022 0.297,0.077 0.277,0.148 0.301,0.487 0.053,0.735 -0.229,0.229 -0.308,0.225 -0.62,-0.028 -0.387,-0.313 -0.134,-0.778 0.27,-0.784 z M 6.541,44.006 c 0.323,0.036 0.569,0.531 0.305,0.849 A 0.5,0.5 0 0 1 6.51,45.019 c -0.46,0 -0.606,-0.701 -0.199,-0.956 0.077,-0.049 0.156,-0.065 0.23,-0.057 z M 23.613,31.645 a 0.42,0.42 0 0 1 0.112,0.012 c 0.232,0.061 0.408,0.502 0.281,0.707 -0.041,0.066 -0.165,0.169 -0.278,0.229 -0.259,0.139 -0.695,-0.143 -0.695,-0.45 0,-0.242 0.311,-0.49 0.58,-0.499 z M 11.694,25.534 c 0.528,0 0.703,0.651 0.259,0.962 v 0.001 c -0.315,0.221 -0.371,0.22 -0.593,-0.002 -0.362,-0.362 -0.154,-0.96 0.334,-0.96 z"
       id="path24"
       style="fill:#f9eb11;" />
    <path
       d="m 26.034,17.293 c 0.105,0.018 0.057,0.167 -0.094,0.528 -0.093,0.222 -0.246,0.846 -0.34,1.385 -0.197,1.131 -0.286,1.335 -0.823,1.898 l -0.393,0.411 0.407,0.24 c 0.224,0.132 0.407,0.289 0.407,0.348 0,0.204 -0.893,1.236 -1.641,1.897 -0.413,0.365 -0.721,0.692 -0.685,0.729 0.036,0.037 0.25,0.118 0.474,0.181 0.224,0.063 0.426,0.166 0.446,0.228 0.036,0.109 -1.859,1.418 -2.937,2.028 -1.34,0.759 -1.65,1.114 -2.483,2.848 -1.653,3.439 -2.295,5.175 -2.91,7.868 l -0.074,0.326 0.5,-0.41 a 11.35,11.35 0 0 0 1.092,-1.09 l 0.592,-0.681 -0.19,-0.652 c -0.177,-0.611 -0.177,-0.691 0.008,-1.286 0.173,-0.555 0.342,-0.773 1.353,-1.747 0.802,-0.771 1.168,-1.056 1.195,-0.931 0.078,0.369 -0.108,0.71 -0.834,1.535 -0.662,0.751 -0.92,1.249 -0.651,1.249 0.051,0 0.453,-0.398 0.894,-0.884 0.972,-1.071 1.791,-1.569 2.394,-1.456 0.542,0.102 1.369,0.951 1.475,1.514 0.157,0.838 -0.725,1.811 -2.605,2.872 -0.36,0.203 -0.627,0.416 -0.592,0.472 0.135,0.218 0.602,0.083 1.466,-0.423 0.992,-0.58 1.489,-0.761 1.813,-0.658 0.186,0.059 0.157,0.115 -0.223,0.427 l -1.123,0.973 c -1.45,1.298 -2.363,1.344 -3.42,0.174 l -0.342,-0.378 -1.499,1.276 c -1.358,1.157 -1.506,1.319 -1.574,1.732 l -0.713,4.159 c -0.066,0.268 -0.037,0.258 0.49,-0.17 l 0.762,-0.684 c 0.257,-0.291 0.653,-1.029 0.654,-1.221 0.001,-0.081 0.133,-0.429 0.294,-0.774 l 0.292,-0.627 0.275,0.318 0.275,0.319 0.335,-0.382 c 0.37,-0.422 1.429,-1.047 1.596,-0.944 0.059,0.036 0.076,0.257 0.038,0.489 l -0.069,0.423 0.276,-0.199 c 0.546,-0.394 0.818,-0.445 1.956,-0.364 0.611,0.043 1.111,0.128 1.111,0.189 0,0.436 -1.053,1.664 -1.666,1.944 -0.343,0.156 -0.34,0.239 0.01,0.427 0.154,0.083 0.253,0.195 0.219,0.25 -0.106,0.172 -1.35,0.756 -1.784,0.837 l -0.415,0.078 0.248,0.336 c 0.213,0.289 0.225,0.352 0.08,0.451 -0.246,0.168 -1.706,0.029 -2.499,-0.239 -1.128,-0.38 -1.762,-0.28 -2.612,0.411 -0.024,0.019 -0.138,0.43 -0.253,0.914 -0.243,1.022 -0.45,5.346 -0.252,5.27 0.063,-0.024 0.506,-0.3 0.985,-0.613 0.83,-0.543 0.87,-0.59 0.871,-1.001 0.002,-0.727 0.469,-1.441 1.255,-1.922 0.348,-0.213 2.501,-0.937 2.572,-0.866 0.154,0.154 -0.564,0.736 -1.402,1.137 -0.87,0.416 -1.189,0.678 -1.025,0.842 0.033,0.033 0.359,-0.091 0.726,-0.275 1.683,-0.845 2.7,-0.986 3.207,-0.446 0.554,0.59 0.766,1.722 0.415,2.223 -0.358,0.512 -1.57,0.93 -3.217,1.109 -0.462,0.05 -0.702,0.125 -0.673,0.209 0.031,0.09 0.531,0.131 1.594,0.131 1.063,0 1.593,0.043 1.689,0.138 0.111,0.11 0.106,0.148 -0.022,0.186 l -1.244,0.396 -1.443,0.42 c -0.914,0.178 -1.705,-0.327 -2.055,-1.312 -0.185,-0.52 -0.205,-0.538 -0.484,-0.42 -0.774,0.328 -1.811,1.022 -1.873,1.253 -0.114,0.424 -0.077,3.459 0.061,5.116 0.147,1.755 0.179,1.801 0.899,1.316 0.503,-0.339 0.727,-0.745 1.077,-1.954 0.274,-0.947 0.848,-2.005 1.088,-2.005 0.06,0 0.109,0.186 0.109,0.413 v 0.413 l 0.501,-0.462 c 0.489,-0.45 1.295,-0.934 1.557,-0.934 0.083,0 0.115,0.164 0.087,0.456 -0.024,0.251 -0.024,0.456 0,0.456 0.024,0 0.196,-0.109 0.384,-0.243 0.478,-0.34 1.144,-0.384 2.324,-0.153 l 1.052,0.229 c 0.02,0.017 -0.149,0.396 -0.374,0.843 -0.286,0.569 -0.544,0.905 -0.857,1.122 -0.515,0.356 -0.543,0.428 -0.229,0.595 0.125,0.067 0.228,0.173 0.228,0.236 0,0.153 -1.467,0.849 -2.166,1.028 l -0.556,0.143 0.238,0.333 c 0.197,0.277 0.211,0.352 0.079,0.442 -0.257,0.176 -1.597,0.021 -2.651,-0.308 -1.075,-0.335 -1.466,-0.323 -2.109,0.07 -0.382,0.233 -0.385,0.24 -0.313,0.883 0.279,2.51 1.548,7.542 1.902,7.542 0.055,0 0.358,-0.384 0.675,-0.853 l 0.576,-0.853 -0.173,-0.414 c -0.247,-0.591 -0.22,-1.445 0.064,-2 0.271,-0.531 1.983,-2.358 2.1,-2.241 0.178,0.178 -0.116,0.823 -0.75,1.642 -0.372,0.481 -0.675,0.935 -0.675,1.011 0,0.333 0.175,0.234 0.658,-0.372 1.068,-1.34 1.817,-1.96 2.37,-1.96 0.319,0 1.001,0.451 1.331,0.881 0.354,0.462 0.407,0.999 0.148,1.501 -0.209,0.403 -1.214,1.327 -2.046,1.879 -0.351,0.233 -0.637,0.472 -0.637,0.531 0,0.269 0.606,0.057 1.441,-0.505 0.895,-0.603 1.554,-0.865 1.676,-0.667 0.054,0.088 -1.36,1.547 -2.055,2.121 -0.63,0.52 -1.589,0.428 -2.309,-0.222 -0.238,-0.215 -0.463,-0.391 -0.5,-0.391 -0.053,0 -0.87,0.993 -1.459,1.774 -0.119,0.157 1.68,3.715 2.419,4.784 l 0.971,1.29 0.412,0.481 0.275,-0.775 c 0.275,-0.771 0.275,-0.777 0.077,-1.515 -0.285,-1.062 -0.242,-2.621 0.072,-2.621 0.058,0 0.196,0.154 0.307,0.342 0.257,0.436 0.339,0.43 0.425,-0.028 0.091,-0.482 0.738,-1.848 0.831,-1.755 0.04,0.04 0.191,0.265 0.335,0.5 0.232,0.378 0.264,0.397 0.267,0.161 0.005,-0.382 0.284,-0.907 0.797,-1.499 l 0.445,-0.513 0.182,0.433 0.182,0.433 0.577,-0.632 c 0.318,-0.348 0.617,-0.632 0.665,-0.632 0.048,0 0.115,0.314 0.15,0.698 0.069,0.765 -0.115,1.575 -0.44,1.934 -0.19,0.21 -0.182,0.217 0.22,0.217 0.312,0 0.417,0.047 0.417,0.189 0,0.253 -0.643,1.243 -0.979,1.507 -0.266,0.209 -0.266,0.213 -0.043,0.414 0.124,0.112 0.224,0.293 0.224,0.404 0,0.428 -1.397,1.27 -2.799,1.687 -0.451,0.134 -0.909,0.353 -1.041,0.498 -0.249,0.273 -0.604,0.915 -0.604,1.093 0,0.251 2.915,3.011 4.802,4.547 l 0.871,0.709 0.05,-0.881 c 0.028,-0.484 0.084,-0.958 0.126,-1.052 0.051,-0.116 -0.032,-0.232 -0.258,-0.361 -0.184,-0.104 -0.492,-0.407 -0.684,-0.672 -0.492,-0.679 -0.481,-1.325 0.036,-2.292 1.183,-2.209 1.174,-2.196 1.314,-1.935 0.151,0.282 0.117,0.462 -0.403,2.104 -0.253,0.799 -0.355,1.292 -0.292,1.405 0.07,0.125 0.152,-0.046 0.289,-0.599 0.206,-0.836 0.527,-1.572 0.881,-2.022 0.53,-0.674 1.756,-0.672 2.506,0.006 1,0.904 0.841,1.99 -0.504,3.426 -0.335,0.358 -0.269,0.483 0.138,0.265 0.109,-0.058 0.488,-0.533 0.843,-1.055 0.561,-0.825 1.249,-1.473 1.403,-1.319 0.062,0.062 -0.545,1.304 -1.055,2.16 -0.648,1.087 -1.475,1.452 -2.632,1.162 -0.398,-0.1 -0.752,-0.153 -0.787,-0.118 -0.114,0.114 -0.253,1.025 -0.258,1.692 l -0.005,0.65 0.883,0.67 3.104,2.189 c 0.167,0 0.138,-0.655 -0.057,-1.3 -0.245,-0.808 -0.207,-2.232 0.06,-2.232 0.049,0 0.194,0.165 0.322,0.367 0.209,0.33 0.24,0.345 0.3,0.143 0.105,-0.35 0.89,-1.877 0.965,-1.877 0.037,0 0.166,0.184 0.287,0.408 l 0.22,0.408 0.187,-0.573 c 0.179,-0.548 0.867,-1.601 1.052,-1.608 0.048,-0.002 0.146,0.125 0.218,0.282 0.072,0.157 0.16,0.285 0.197,0.285 0.037,0 0.211,-0.18 0.386,-0.399 0.175,-0.219 0.357,-0.399 0.404,-0.399 0.118,0 0.408,1.348 0.38,1.766 -0.013,0.188 -0.178,0.564 -0.367,0.835 l -0.344,0.493 0.345,0.13 c 0.19,0.072 0.346,0.188 0.346,0.257 0,0.187 -0.459,0.563 -0.9,0.738 l -0.388,0.153 0.435,0.365 0.435,0.365 -0.367,0.19 c -0.202,0.104 -0.62,0.22 -0.93,0.256 -0.31,0.036 -0.564,0.104 -0.564,0.15 0,0.046 0.109,0.221 0.242,0.391 0.35,0.445 0.152,0.582 -0.802,0.553 -0.677,-0.02 -0.808,0.01 -1.02,0.235 l -0.242,0.258 3.197,2.441 0.679,0.467 -1.679,0.729 -0.486,-0.345 -2.901,-2.337 -1.429,0.005 c -1.416,0.005 -1.433,0.008 -1.824,0.342 -0.217,0.185 -0.435,0.337 -0.484,0.337 -0.049,0 -0.09,-0.213 -0.09,-0.472 v -0.472 l -0.605,0.572 c -0.561,0.531 -1.182,0.943 -1.422,0.943 -0.056,0 -0.157,-0.123 -0.226,-0.273 l -0.125,-0.273 -0.54,0.273 c -0.342,0.173 -0.736,0.273 -1.075,0.273 h -0.535 l 0.089,-0.484 c 0.049,-0.266 0.075,-0.499 0.057,-0.517 -0.018,-0.018 -0.257,0.019 -0.532,0.083 -0.747,0.172 -1.577,0.152 -1.651,-0.04 -0.034,-0.088 0.019,-0.317 0.118,-0.507 0.099,-0.19 0.179,-0.368 0.179,-0.394 0,-0.026 -0.213,-0.082 -0.474,-0.124 -0.533,-0.085 -1.952,-0.651 -2.373,-0.945 -0.276,-0.193 -0.274,-0.194 0.516,-0.332 l 1.152,-0.148 c 0.353,-0.009 0.359,-0.018 0.299,-0.465 -0.068,-0.508 0.027,-0.554 0.73,-0.352 0.387,0.111 0.492,0.011 0.492,-0.468 0,-0.211 0.047,-0.224 0.541,-0.152 0.298,0.043 0.658,0.153 0.8,0.245 0.243,0.156 0.271,0.146 0.456,-0.179 0.239,-0.419 0.392,-0.428 1.039,-0.058 0.275,0.157 0.509,0.272 0.52,0.255 l 0.266,-0.43 0.246,-0.399 1.239,1.271 c 1.346,1.38 1.798,1.677 2.755,1.807 l 0.627,0.085 -0.684,-0.551 -4.415,-3.829 -1.225,-1.136 -1.424,0.081 -1.425,0.081 v 0.473 c 0,0.616 -0.413,1.421 -0.891,1.739 -0.557,0.37 -1.214,0.425 -2.627,0.219 l -1.601,-0.183 c -0.432,0 -0.445,-0.138 -0.038,-0.405 0.217,-0.142 0.69,-0.235 1.567,-0.306 1.278,-0.104 1.767,-0.244 1.861,-0.531 0.044,-0.134 -0.149,-0.149 -1.188,-0.086 -2.835,0.17 -4.009,-0.43 -3.881,-1.985 0.144,-1.751 1.109,-2.142 3.738,-1.515 0.688,0.164 1.283,0.266 1.323,0.225 0.169,-0.169 -0.337,-0.435 -1.289,-0.679 -1.163,-0.297 -1.698,-0.547 -1.872,-0.872 -0.067,-0.125 -0.103,-0.227 -0.08,-0.227 0.322,0 2.675,0.388 3.101,0.511 0.979,0.284 1.715,1.075 1.931,2.078 0.065,0.302 0.143,0.376 0.441,0.422 0.654,0.1 1.444,0.153 1.444,0.098 0,-0.03 -0.539,-0.621 -1.199,-1.314 l -2.239,-2.605 c -1.024,-1.324 -1.05,-1.347 -1.639,-1.469 -0.627,-0.13 -1.418,0.003 -2.366,0.399 -0.393,0.164 -1.217,0.24 -1.217,0.111 0,-0.033 0.074,-0.174 0.165,-0.313 l 0.165,-0.253 H 13.08 c -1.006,0 -1.675,-0.131 -1.675,-0.329 0,-0.081 0.103,-0.241 0.228,-0.355 0.125,-0.114 0.228,-0.238 0.228,-0.276 0,-0.038 -0.299,-0.127 -0.665,-0.196 C 10.83,72.004 10.288,71.839 9.991,71.708 L 9.451,71.469 9.754,71.072 10.057,70.675 9.703,70.3 C 9.373,69.951 8.81,68.909 8.617,68.29 c -0.07,-0.225 -0.05,-0.257 0.127,-0.202 0.116,0.036 0.585,0.118 1.043,0.182 0.458,0.064 0.98,0.193 1.16,0.286 0.324,0.167 0.328,0.165 0.458,-0.228 0.072,-0.219 0.193,-0.397 0.27,-0.397 0.077,0 0.403,0.244 0.726,0.543 0.559,0.517 0.59,0.531 0.652,0.285 0.036,-0.142 0.107,-0.258 0.158,-0.258 0.075,0 0.556,0.6 0.95,1.185 0.05,0.074 0.159,0.044 0.297,-0.081 0.282,-0.256 0.364,-0.156 0.749,0.922 l 0.464,1.151 c 0.264,0.51 0.937,1.04 1.321,1.04 0.186,0 0.338,-0.016 0.338,-0.035 0,-0.019 -0.377,-0.776 -0.837,-1.681 -0.998,-1.963 -1.6,-3.352 -2.021,-4.665 l -0.31,-0.969 -0.834,-0.271 c -0.785,-0.255 -0.84,-0.259 -0.951,-0.071 -0.975,1.652 -1.521,1.75 -3.714,0.671 -1.393,-0.686 -1.412,-0.7 -1.107,-0.843 0.269,-0.126 0.467,-0.103 1.467,0.165 1.059,0.285 1.698,0.316 1.698,0.084 0,-0.05 -0.412,-0.21 -0.915,-0.355 -1.919,-0.555 -2.845,-1.21 -2.845,-2.013 0,-0.473 0.32,-1.134 0.739,-1.525 0.601,-0.561 1.528,-0.332 3.184,0.785 0.656,0.443 0.914,0.506 0.795,0.196 -0.032,-0.083 -0.482,-0.438 -0.999,-0.79 -0.857,-0.582 -1.351,-1.115 -1.186,-1.281 0.104,-0.104 2.089,0.939 2.538,1.333 0.582,0.511 0.854,1.103 0.854,1.858 0,0.622 0.006,0.632 0.467,0.867 0.257,0.131 0.494,0.211 0.528,0.177 0.034,-0.034 -0.048,-0.64 -0.182,-1.347 L 13.255,60.59 13.054,59.457 12.429,59.143 C 12.085,58.97 11.368,58.748 10.835,58.65 9.621,58.426 8.67,58.132 8.67,57.979 8.67,57.915 8.778,57.748 8.91,57.607 9.2,57.298 9.134,57.16 8.652,57.063 8.183,56.969 7.303,56.455 7.303,56.274 7.303,56.198 7.406,56.071 7.531,55.993 7.833,55.805 7.818,55.688 7.474,55.532 7.076,55.351 6.153,54.481 6.229,54.358 6.263,54.302 6.422,54.289 6.582,54.33 6.857,54.399 6.864,54.388 6.729,54.136 6.476,53.663 6.28,52.738 6.279,52.007 6.278,51.615 6.311,51.294 6.351,51.294 c 0.04,0 0.284,0.172 0.541,0.381 0.843,0.686 1.566,1.215 1.66,1.215 0.051,0 0.126,-0.18 0.167,-0.399 0.041,-0.219 0.115,-0.399 0.164,-0.399 0.115,0 1.032,1.122 1.183,1.446 l 0.116,0.25 0.194,-0.24 c 0.107,-0.132 0.243,-0.209 0.303,-0.172 0.06,0.037 0.26,0.533 0.445,1.102 0.262,0.807 0.374,1.019 0.507,0.963 0.499,-0.208 0.57,-0.19 0.589,0.141 0.01,0.18 0.005,0.574 -0.011,0.876 -0.023,0.428 0.051,0.714 0.334,1.29 0.2,0.407 0.383,0.722 0.405,0.699 C 12.97,58.424 12.94,58.075 12.881,57.67 12.822,57.265 12.739,56.012 12.697,54.886 L 12.619,52.838 12.194,52.181 11.171,50.739 10.572,49.954 10.067,50.34 C 9.036,51.127 8.049,50.84 7.073,49.469 L 6.177,48.312 5.794,47.875 h 0.344 c 0.329,0 1.208,0.582 1.604,1.062 0.251,0.305 0.888,0.655 1.066,0.587 C 8.923,49.48 8.687,49.181 8.021,48.531 7.497,48.02 6.942,47.385 6.786,47.12 6.221,46.155 6.509,45.32 7.587,44.798 c 0.621,-0.301 1.05,-0.235 1.597,0.245 0.352,0.309 1.305,1.682 1.311,1.889 0.001,0.049 0.096,0.211 0.211,0.36 0.155,0.201 0.233,0.234 0.299,0.127 0.054,-0.088 -0.147,-0.601 -0.513,-1.311 -0.469,-0.909 -0.585,-1.234 -0.525,-1.472 0.073,-0.291 0.111,-0.258 0.796,0.697 0.812,1.132 1.035,1.529 1.146,2.048 0.093,0.43 -0.103,1.227 -0.405,1.652 l -0.217,0.305 0.689,1.031 0.783,1.089 c 0.051,0.032 0.127,-1.056 0.167,-2.417 l 0.135,-2.874 C 13.113,45.833 13.044,45.649 12.636,45.03 11.967,44.016 11.455,43.534 10.407,42.929 9.914,42.645 9.316,42.244 9.079,42.039 8.675,41.69 8.656,41.646 8.788,41.357 8.916,41.076 8.897,41.012 8.571,40.642 8.179,40.195 7.757,39.433 7.757,39.172 c 0,-0.092 0.145,-0.198 0.322,-0.237 L 8.401,38.865 8.142,38.328 A 4.56,4.56 0 0 1 7.807,37.364 c -0.07,-0.397 -0.055,-0.427 0.201,-0.427 0.275,0 0.276,-0.002 0.226,-1.042 C 8.179,34.74 8.11,34.827 8.89,35.069 9.062,35.122 9.099,35.091 9.057,34.926 9.028,34.81 9.07,34.49 9.152,34.214 L 9.3,33.713 9.733,34.442 c 0.238,0.401 0.492,0.915 0.564,1.143 0.126,0.401 0.138,0.409 0.394,0.241 0.146,-0.095 0.287,-0.152 0.314,-0.125 0.076,0.076 0.4,1.373 0.4,1.601 0,0.238 0.124,0.262 0.324,0.063 0.2,-0.199 0.356,0.075 0.358,0.609 10e-4,0.226 0.035,0.727 0.075,1.113 l 0.073,0.702 0.382,-0.072 c 0.462,-0.087 0.463,-0.08 0.099,1.06 -0.426,1.334 -0.394,2.179 0.12,3.208 0.224,0.447 0.449,0.813 0.5,0.813 0.051,0 0.119,-0.167 0.15,-0.371 l 0.536,-3.162 0.48,-2.792 -0.18,-1.083 c -0.099,-0.595 -0.353,-1.723 -0.564,-2.507 -0.329,-1.224 -0.413,-1.42 -0.599,-1.394 -1.117,0.156 -1.387,0.155 -1.777,-0.008 -0.644,-0.269 -1.062,-0.945 -1.339,-2.164 L 9.678,29.781 c -0.304,-1.159 0.414,-0.497 1.169,1.078 0.374,0.779 0.634,1.185 0.793,1.236 0.13,0.041 0.256,0.057 0.278,0.034 0.022,-0.023 -0.138,-0.45 -0.357,-0.95 -0.543,-1.243 -0.878,-2.497 -0.791,-2.962 0.201,-1.069 1.603,-1.731 2.633,-1.243 0.209,0.099 0.453,0.292 0.541,0.427 0.244,0.375 0.521,1.314 0.594,2.013 0.156,1.477 0.183,1.595 0.359,1.595 0.152,0 0.163,-0.191 0.093,-1.463 -0.057,-1.03 -0.042,-1.536 0.051,-1.709 0.16,-0.299 0.352,-0.321 0.352,-0.039 0,0.114 0.109,0.613 0.242,1.111 0.133,0.498 0.247,1.265 0.253,1.705 0.01,0.683 -0.035,0.881 -0.305,1.342 -0.174,0.297 -0.511,0.669 -0.749,0.826 l -0.431,0.286 0.095,0.652 0.29,1.581 0.196,0.93 0.426,-1.299 c 0.392,-1.195 1.711,-4.397 1.92,-4.663 0.172,-0.219 0.313,-1.6 0.227,-2.222 -0.048,-0.345 -0.199,-0.986 -0.335,-1.424 -0.357,-1.146 -0.417,-2.132 -0.19,-3.146 0.266,-1.188 0.307,-1.234 0.785,-0.87 l 0.392,0.299 0.127,-0.421 c 0.29,-0.963 2.18,-3.554 2.593,-3.554 0.124,0 0.162,0.184 0.162,0.797 0,0.839 0.087,0.965 0.377,0.542 0.815,-1.192 2.304,-2.215 4.196,-2.883 0.184,-0.065 0.303,-0.101 0.366,-0.09 z"
       id="path26"
       style="fill:#f9eb11;" />
    <path
       d="m 18.827,27.012 c -0.04,-0.065 0.161,-0.432 0.447,-0.816 0.344,-0.464 0.502,-0.779 0.468,-0.937 -0.071,-0.333 -0.088,-0.63 -0.062,-1.093 0.022,-0.375 0.031,-0.363 0.168,0.203 0.08,0.331 0.17,0.626 0.199,0.655 0.029,0.029 0.22,-0.153 0.423,-0.406 0.354,-0.44 0.366,-0.49 0.295,-1.168 -0.042,-0.403 -0.025,-0.831 0.041,-0.993 0.111,-0.274 0.116,-0.27 0.128,0.114 a 2.45,2.45 0 0 0 0.156,0.736 l 0.144,0.337 0.366,-0.533 c 0.35,-0.509 0.361,-0.556 0.237,-1.048 a 2.47,2.47 0 0 1 -0.045,-0.944 l 0.085,-0.429 0.134,0.574 c 0.074,0.316 0.169,0.631 0.213,0.701 0.049,0.079 0.341,-0.139 0.769,-0.574 l 0.691,-0.701 -0.469,0.782 c -0.258,0.43 -0.452,0.799 -0.431,0.82 0.021,0.021 0.233,-0.006 0.471,-0.059 0.423,-0.095 0.428,-0.093 0.232,0.124 -0.11,0.122 -0.42,0.277 -0.688,0.344 -0.466,0.117 -1.066,0.681 -1.066,1.002 0,0.172 0.391,0.151 0.887,-0.049 l 0.424,-0.171 -0.309,0.275 c -0.17,0.151 -0.581,0.336 -0.913,0.411 -0.502,0.112 -0.659,0.212 -0.928,0.586 -0.178,0.248 -0.301,0.473 -0.273,0.501 0.028,0.028 0.302,-0.026 0.61,-0.119 l 0.617,-0.168 c 0.164,0.007 -0.915,0.584 -1.277,0.683 -0.313,0.086 -0.56,0.291 -0.957,0.796 -0.543,0.691 -0.658,0.773 -0.788,0.563 z m -7.67,15.604 A 5.71,5.71 0 0 1 10.971,41.963 C 10.908,41.674 10.759,41.505 10.341,41.248 10.04,41.063 9.76,40.825 9.72,40.721 9.653,40.545 9.662,40.545 9.852,40.716 c 0.227,0.205 0.831,0.463 0.831,0.354 0,-0.391 -0.304,-0.954 -0.574,-1.066 A 1.99,1.99 0 0 1 9.527,39.582 c -0.276,-0.301 -0.255,-0.304 0.274,-0.038 0.39,0.196 0.47,0.122 0.369,-0.339 A 0.81,0.81 0 0 0 9.749,38.656 C 9.264,38.39 8.839,38.054 8.904,37.988 c 0.031,-0.031 0.173,0.026 0.316,0.127 0.346,0.243 0.714,0.244 0.621,0.002 A 3.88,3.88 0 0 1 9.714,37.462 L 9.657,36.988 9.92,37.54 c 0.265,0.557 0.37,0.571 0.577,0.075 0.039,-0.094 0.042,0.034 0.006,0.285 -0.206,1.439 0.11,2.017 0.498,0.912 l 0.12,-0.342 0.009,0.311 c 0.005,0.171 -0.074,0.517 -0.175,0.77 -0.184,0.461 -0.143,1.255 0.065,1.255 0.055,0 0.176,-0.218 0.271,-0.484 0.143,-0.404 0.173,-0.435 0.18,-0.185 0.005,0.164 -0.069,0.52 -0.164,0.79 -0.156,0.441 -0.155,0.553 0.008,1.112 0.124,0.426 0.144,0.658 0.063,0.739 -0.081,0.081 -0.15,0.031 -0.221,-0.158 z m 5.45,0.542 c 0,-0.085 0.205,-0.248 0.456,-0.361 0.251,-0.113 0.456,-0.236 0.456,-0.274 0,-0.038 0.106,-0.241 0.234,-0.451 0.251,-0.412 0.441,-0.426 0.221,-0.016 -0.172,0.322 -0.098,0.382 0.267,0.215 0.173,-0.079 0.348,-0.291 0.419,-0.508 0.068,-0.205 0.199,-0.436 0.292,-0.513 0.146,-0.121 0.153,-0.098 0.051,0.169 -0.065,0.17 -0.118,0.358 -0.118,0.419 0,0.213 0.682,-0.247 0.852,-0.575 0.228,-0.441 0.439,-0.574 0.29,-0.183 -0.126,0.33 -0.004,0.373 0.509,0.178 0.403,-0.153 0.268,0.058 -0.188,0.294 -0.398,0.206 -0.382,0.241 0.209,0.452 0.347,0.124 0.379,0.156 0.159,0.16 a 2.22,2.22 0 0 1 -0.644,-0.128 0.85,0.85 0 0 0 -0.742,0.023 l -0.376,0.156 0.45,0.202 c 0.508,0.228 0.256,0.279 -0.403,0.081 -0.342,-0.102 -0.486,-0.093 -0.754,0.049 l -0.331,0.175 0.399,0.184 0.399,0.184 -0.399,-0.068 c -0.661,-0.113 -0.836,-0.1 -1.282,0.099 -0.343,0.153 -0.427,0.16 -0.427,0.036 z m 0.058,14.51 c -0.038,-0.061 0.164,-0.225 0.45,-0.364 0.286,-0.139 0.519,-0.316 0.519,-0.394 0,-0.078 0.131,-0.286 0.292,-0.462 0.252,-0.276 0.274,-0.284 0.164,-0.057 -0.171,0.35 -0.109,0.47 0.185,0.359 0.133,-0.05 0.356,-0.326 0.494,-0.613 0.138,-0.287 0.31,-0.522 0.379,-0.522 0.087,0 0.084,0.043 -0.01,0.137 -0.075,0.075 -0.137,0.256 -0.137,0.402 0,0.256 0.011,0.259 0.334,0.092 0.184,-0.095 0.365,-0.271 0.403,-0.391 a 0.86,0.86 0 0 1 0.22,-0.344 c 0.12,-0.1 0.14,-0.067 0.096,0.16 l -0.055,0.286 0.424,-0.177 c 0.561,-0.235 0.628,-0.139 0.121,0.174 -0.223,0.138 -0.405,0.274 -0.405,0.303 0,0.029 0.167,0.13 0.37,0.223 l 0.37,0.17 -0.399,-0.072 c -1.09,-0.196 -1.747,0.023 -1.017,0.34 0.308,0.133 0.337,0.17 0.141,0.174 a 1.86,1.86 0 0 1 -0.562,-0.115 c -0.225,-0.085 -0.404,-0.082 -0.634,0.014 -0.404,0.167 -0.406,0.283 -0.008,0.429 0.172,0.063 0.231,0.118 0.131,0.123 -0.1,0.005 -0.339,-0.046 -0.531,-0.113 -0.287,-0.1 -0.429,-0.08 -0.808,0.113 -0.276,0.141 -0.487,0.19 -0.529,0.123 z m -5.589,0.107 C 10.721,57.263 10.486,57.1 10.091,57.094 A 1.37,1.37 0 0 1 9.542,56.926 c -0.268,-0.154 -0.253,-0.16 0.274,-0.092 0.605,0.078 0.603,0.085 0.166,-0.547 C 9.825,56.06 9.65,55.975 9.25,55.93 8.961,55.897 8.665,55.808 8.592,55.732 8.488,55.624 8.565,55.611 8.944,55.672 9.498,55.762 9.523,55.713 9.178,55.209 8.967,54.901 8.84,54.836 8.372,54.791 8.066,54.762 7.734,54.656 7.634,54.555 7.467,54.388 7.486,54.383 7.86,54.498 c 0.225,0.069 0.491,0.094 0.593,0.055 0.162,-0.062 0.152,-0.122 -0.083,-0.5 -0.466,-0.748 -0.466,-0.781 -0.005,-0.342 0.461,0.439 0.606,0.45 0.61,0.036 0.003,-0.46 0.222,0.078 0.228,0.56 0.006,0.482 0.354,1.044 0.565,0.914 0.064,-0.04 0.12,-0.236 0.124,-0.436 0.007,-0.358 0.009,-0.36 0.123,-0.079 0.063,0.157 0.088,0.458 0.055,0.669 -0.045,0.283 0.008,0.485 0.201,0.769 0.302,0.444 0.408,0.4 0.424,-0.174 0.01,-0.371 0.02,-0.382 0.103,-0.123 0.05,0.157 0.096,0.483 0.103,0.725 0.008,0.312 0.127,0.599 0.408,0.98 0.355,0.484 0.406,0.687 0.17,0.687 -0.044,0 -0.224,-0.208 -0.4,-0.463 z m 3.871,14.594 C 14.525,72.07 14.439,72.05 14,72.148 c -0.312,0.07 -0.55,0.069 -0.675,-0.004 -0.158,-0.092 -0.131,-0.113 0.149,-0.118 0.59,-0.009 0.694,-0.166 0.298,-0.448 -0.301,-0.214 -0.449,-0.24 -1.065,-0.184 -0.71,0.065 -0.703,0.021 0.045,-0.26 0.234,-0.088 0.224,-0.107 -0.176,-0.354 -0.371,-0.229 -0.481,-0.247 -0.887,-0.144 -0.255,0.065 -0.57,0.078 -0.7,0.03 -0.193,-0.071 -0.149,-0.101 0.241,-0.164 0.263,-0.042 0.477,-0.123 0.477,-0.179 0,-0.056 -0.207,-0.267 -0.461,-0.468 -0.541,-0.429 -0.529,-0.565 0.021,-0.23 0.508,0.31 0.649,0.298 0.582,-0.05 -0.085,-0.444 0.076,-0.336 0.32,0.214 0.209,0.473 0.734,0.964 0.878,0.82 0.036,-0.036 0.01,-0.249 -0.058,-0.472 -0.107,-0.348 -0.101,-0.386 0.039,-0.27 0.09,0.075 0.23,0.363 0.311,0.642 0.104,0.356 0.256,0.575 0.512,0.737 0.323,0.205 0.364,0.209 0.364,0.041 0,-0.104 -0.055,-0.293 -0.123,-0.42 -0.068,-0.127 -0.094,-0.259 -0.059,-0.295 0.035,-0.036 0.197,0.225 0.36,0.58 0.213,0.465 0.435,0.741 0.799,0.991 0.495,0.341 0.643,0.569 0.362,0.559 -0.078,-0.003 -0.351,-0.153 -0.607,-0.334 z m 6.674,0.958 c 0,-0.036 0.131,-0.289 0.291,-0.562 0.227,-0.388 0.275,-0.584 0.217,-0.894 -0.041,-0.22 -0.02,-0.49 0.047,-0.606 0.105,-0.181 0.122,-0.161 0.125,0.143 0.005,0.505 0.124,0.553 0.369,0.15 0.177,-0.292 0.193,-0.416 0.092,-0.722 -0.08,-0.244 -0.085,-0.463 -0.012,-0.644 0.105,-0.262 0.11,-0.264 0.117,-0.027 0.01,0.327 0.122,0.608 0.243,0.608 0.192,0 0.372,-0.522 0.347,-1.007 -0.017,-0.322 0.016,-0.469 0.094,-0.421 0.066,0.041 0.12,0.148 0.12,0.238 0,0.265 0.149,0.185 0.497,-0.267 0.273,-0.353 0.313,-0.376 0.245,-0.138 -0.045,0.157 -0.158,0.405 -0.25,0.551 -0.227,0.359 -0.118,0.429 0.435,0.282 0.399,-0.106 0.441,-0.101 0.304,0.036 -0.088,0.088 -0.378,0.198 -0.643,0.244 -0.374,0.065 -0.536,0.167 -0.717,0.454 -0.259,0.409 -0.195,0.448 0.444,0.264 0.203,-0.058 0.37,-0.085 0.37,-0.06 0,0.095 -0.681,0.394 -0.898,0.394 -0.217,0 -0.698,0.489 -0.698,0.714 0,0.067 0.196,0.087 0.484,0.048 l 0.484,-0.065 -0.342,0.16 a 1.85,1.85 0 0 1 -0.601,0.165 c -0.183,0.004 -0.351,0.157 -0.569,0.518 -0.17,0.282 -0.374,0.513 -0.453,0.513 -0.079,0 -0.143,-0.029 -0.143,-0.065 z M 32.104,83.65 c 0,-0.061 0.102,-0.279 0.227,-0.484 0.145,-0.237 0.234,-0.602 0.246,-1 0.012,-0.408 0.035,-0.497 0.065,-0.256 0.104,0.842 0.523,0.183 0.434,-0.684 l -0.061,-0.598 0.178,0.386 0.178,0.386 0.184,-0.263 c 0.115,-0.164 0.177,-0.46 0.164,-0.785 -0.019,-0.49 -0.011,-0.505 0.133,-0.253 l 0.153,0.269 0.301,-0.383 c 0.324,-0.411 0.4,-0.336 0.133,0.13 -0.33,0.577 -0.224,0.648 0.588,0.39 0.204,-0.065 0.204,-0.062 0,0.105 -0.115,0.095 -0.404,0.205 -0.64,0.245 -0.308,0.052 -0.467,0.153 -0.559,0.355 -0.185,0.406 -0.174,0.419 0.298,0.339 0.363,-0.061 0.393,-0.052 0.203,0.064 -0.123,0.075 -0.379,0.167 -0.568,0.206 a 0.8,0.8 0 0 0 -0.514,0.373 c -0.214,0.381 -0.142,0.453 0.318,0.321 0.226,-0.065 0.34,-0.064 0.299,0.002 -0.036,0.059 -0.287,0.162 -0.556,0.23 -0.394,0.099 -0.54,0.211 -0.741,0.57 -0.236,0.419 -0.464,0.584 -0.464,0.335 z"
       id="path30"
       style="fill:#e93435;" />
    <path
       style="fill:#e93435;"
       d="m 24.755,85.539 c 0.379,-0.336 0.427,-0.424 0.285,-0.519 -0.308,-0.207 -0.972,-0.139 -1.207,0.125 -0.197,0.221 -0.821,0.554 -1.037,0.554 -0.048,0 0.105,-0.158 0.338,-0.35 0.233,-0.192 0.425,-0.392 0.425,-0.444 0,-0.052 -0.218,-0.117 -0.484,-0.146 -0.409,-0.044 -0.537,-0.004 -0.826,0.259 -0.38,0.347 -0.764,0.567 -0.987,0.567 -0.081,0 0.044,-0.158 0.277,-0.35 0.233,-0.192 0.425,-0.393 0.425,-0.446 0,-0.053 -0.32,-0.171 -0.712,-0.263 l -0.712,-0.167 0.655,-0.013 c 0.702,-0.014 0.788,-0.109 0.427,-0.469 -0.377,-0.377 0.047,-0.279 0.496,0.114 0.264,0.232 0.564,0.366 0.929,0.416 0.519,0.071 0.534,0.065 0.413,-0.162 -0.07,-0.13 -0.268,-0.349 -0.441,-0.487 l -0.314,-0.251 0.285,0.083 c 0.157,0.046 0.492,0.283 0.745,0.527 0.397,0.383 0.529,0.443 0.969,0.439 l 0.508,-0.005 -0.446,-0.394 c -0.693,-0.612 -0.182,-0.45 0.628,0.199 0.313,0.251 0.582,0.347 1.139,0.409 0.92,0.101 0.862,0.308 -0.087,0.308 -0.534,0 -0.78,0.057 -1.026,0.239 a 5.8,5.8 0 0 1 -0.722,0.435 l -0.399,0.197 0.456,-0.404 z"
       id="path32" />
  </g>
  <g
     id="g1073">
    <path
       d="M25.368 25.685v25.64h35.356v-25.64H43.046z"
       opacity=".999"
       fill="#fff212"
       fill-rule="evenodd"
       id="path36" />
    <g
       stroke-width=".265"
       id="g42">
      <path
         d="M36.29 34.265l-1.04 1.508-1.508-1.014c-2.27 2.071-3.947 4.486-8.242 5.381l.001 4.082v.013l-.116 5.731-.017 1.36h35.356V39.607c-1.695-.187-3.64-1.935-4.211-4.719l-.832.936-1.196-.988-1.144 1.04-1.352-.728c-.906 1.595-1.768 3.021-3.698 4.248-1.374.501-2.615.691-3.553.172-2.252-1.193-4.935-2.622-6.759-5.278l-.858 1.196z"
         fill="#fff"
         stroke="#fff"
         id="path38" />
      <path
         d="M25.501 48.303V40.14c4.295-.895 5.971-3.311 8.242-5.381l1.508 1.014 1.04-1.508.832 1.222.858-1.196c1.824 2.655 4.507 4.085 6.759 5.277-6.949 1.636-11.116 9.368-19.238 8.735zm-.133 1.662c6.186.216 7.924-1.464 10.516-3.53 3.716-2.961 6.313-4.501 9.609-5.699 4.077-1.482 5.238-3.372 6.497-5.588l1.352.728 1.144-1.04 1.196.988.832-.936c.571 2.784 2.516 4.531 4.211 4.719v11.718H25.368z"
         fill="#00afef"
         stroke="#006488"
         id="path40" />
    </g>
    <path
       d="M60.724 51.325H25.368v3.27c0 11.92 11.672 17.158 17.678 17.158s17.678-5.239 17.678-17.158z"
       opacity=".999"
       fill="#00ad57"
       fill-rule="evenodd"
       id="path44" />
    <path
       d="M51.518 48.228c-1.939.004-3.432.711-4.442 1.269s-1.525.838-1.918.861c-1.395.082-2.219-.215-3.352-.656s-2.596-1.079-4.541-1.07c-1.876.009-3.321.535-4.533.939s-2.226.722-3.778.722a5.1 5.1 0 0 1-2.699-.658l-.888-.479v4.461a9.69 9.69 0 0 0 3.587.676c2.146 0 3.779-.507 5.045-.93s2.132-.727 3.286-.733c1.085-.005 1.847.32 3.07.797s2.883 1.048 5.037.922c1.648-.097 2.765-.879 3.621-1.353s1.465-.767 2.511-.769c.94-.002 1.227.268 2.232.897s2.687 1.478 4.941 1.324c.705-.048 1.377-.149 2.025-.284v-4.141c-.758.223-1.517.379-2.299.433-1.326.091-1.673-.176-2.547-.722s-2.315-1.51-4.361-1.506z"
       fill="#fff"
       stroke="#484848"
       stroke-width=".2"
       id="path46" />
    <path
       d="M25.368 25.685v28.909c0 11.92 11.672 17.158 17.678 17.158s17.679-5.239 17.679-17.158V25.685H43.046z"
       fill="none"
       stroke="#000"
       stroke-width=".5"
       id="path48" />
  </g>
  <g
     id="g933">
    <path
       d="m 37.088,80.328 -4.1,11.566 H 43.046 53.104 L 49.003,80.328 h -5.958 z"
       id="path50"
       style="fill:#ffffff;stroke:#7c909b;stroke-width:0.794;" />
    <path
       d="M 35.532,84.716 H 50.56 m -7.514,-29.933 -2.325,3.504 -1.808,22.037 h 4.133 4.133 L 45.371,58.287 Z"
       id="path52"
       style="fill:#ffffff;stroke:#7c909b;stroke-width:0.794;" />
    <path
       d="M42.499 86.34c-6.167.071-12.789 1.378-19.244 4.528l-.271.133a.56.56 0 0 0-.315.504v.379a.56.56 0 0 0 .027.174l.023.072 1.301 3.965a.56.56 0 0 0 .797.32l.506-.269c3.637-1.943 7.891-3.153 12.285-3.681l-2.46 1.672 5.798-.078.026 2.73c-3.112 2.786.596 4.472 1.586 4.42 1.455-.077 3.351-1.361 3.334-2.443.301-1.503.255-3.18.378-4.773 2.068.197 4.777.692 7.111.966-1.273-1.503-2.069-1.576-3.029-2.141 3.716.667 7.182 1.83 10.071 3.462l.492.277a.56.56 0 0 0 .8-.291l1.67-4.455a.56.56 0 0 0-.264-.693l-.375-.197c-4.575-2.42-10.749-4.227-17.635-4.536a46.47 46.47 0 0 0-2.614-.043z"
       fill="#7c909b"
       id="path56" />
    <path
       d="M45.088 86.945c-6.802-.305-14.301.873-21.586 4.428l-.271.133v.379l.023.072 1.301 3.963.506-.27c10.579-5.646 26.074-5.262 35.639.141l.492.277 1.67-4.455-.375-.197c-4.492-2.376-10.596-4.166-17.398-4.471z"
       fill="#fff"
       id="path58"
       style="fill:#ffffff;" />
    <path
       d="M45.062 87.921c6.488.293 12.263 1.982 16.58 4.195l-.975 2.598c-9.799-5.275-24.809-5.621-35.543-.146l-.812-2.484c7.004-3.332 14.211-4.458 20.75-4.162z"
       fill="red"
       id="path60"
       style="fill:#ff0000;" />
    <path
       d="M30.217 89.165l-.906.332 1.238 3.395.906-.33zm7.65-1.492l-.937.232.869 3.52.938-.23zm10.053-.056l-.994 3.568.93.258.994-3.568zm7.736 1.527l-1.447 3.41.889.377 1.447-3.41z"
       fill="#fff"
       id="path62"
       style="fill:#ffffff;" />
    <path
       d="M42.876 56.726c-.367 4.45-1.07 11.03-1.041 15.687.037 5.963-.557 11.501-.842 17.248 0 1.167-1.402 2.474-3.148 3.668l3.891-.112v4.176c-2.39.959-.594 2.948.863 2.899 1.641-.055 2.318-1.016 2.507-1.858l.205-5.294c1.89.047 3.232.317 4.827.486-2.219-1.275-5.111-2.645-5.65-4.683-.38-5.865-.715-10.532-.868-16.877-.112-4.669-.49-11.004-.744-15.34z"
       opacity=".999"
       stroke="#fff"
       stroke-width=".794"
       stroke-miterlimit="10"
       id="path64"
       style="stroke:#ffffff;fill:#000000;" />
  </g>
  <defs
     id="defs67">
    <path
       id="B"
       d="M31.402 4.569h1.776l-.874-2.754zm.09-4.355h1.653l2.479 7h-1.586l-.451-1.439h-2.579l-.484 1.439h-1.529zm.817 0z" />
  </defs>
</svg>
