<?xml version="1.0" encoding="UTF-8" standalone="no"?>
<svg
   xmlns:dc="http://purl.org/dc/elements/1.1/"
   xmlns:cc="http://creativecommons.org/ns#"
   xmlns:rdf="http://www.w3.org/1999/02/22-rdf-syntax-ns#"
   xmlns:svg="http://www.w3.org/2000/svg"
   xmlns="http://www.w3.org/2000/svg"
   xmlns:sodipodi="http://sodipodi.sourceforge.net/DTD/sodipodi-0.dtd"
   xmlns:inkscape="http://www.inkscape.org/namespaces/inkscape"
   width="262.057"
   height="243.621"
   viewBox="0 0 69.336 64.458"
   version="1.1"
   id="svg87"
   sodipodi:docname="Seal of the City of Serang (1).svg"
   inkscape:version="1.0.1 (3bc2e813f5, 2020-09-07)">
  <metadata
     id="metadata91">
    <rdf:RDF>
      <cc:Work
         rdf:about="">
        <dc:format>image/svg+xml</dc:format>
        <dc:type
           rdf:resource="http://purl.org/dc/dcmitype/StillImage" />
      </cc:Work>
    </rdf:RDF>
  </metadata>
  <sodipodi:namedview
     pagecolor="#ffffff"
     bordercolor="#666666"
     borderopacity="1"
     objecttolerance="10"
     gridtolerance="10"
     guidetolerance="10"
     inkscape:pageopacity="0"
     inkscape:pageshadow="2"
     inkscape:window-width="1366"
     inkscape:window-height="705"
     id="namedview89"
     showgrid="false"
     inkscape:zoom="2.3859016"
     inkscape:cx="162.53417"
     inkscape:cy="204.1968"
     inkscape:window-x="-8"
     inkscape:window-y="-8"
     inkscape:window-maximized="1"
     inkscape:current-layer="svg87"
     inkscape:document-rotation="0" />
  <style
     id="style2"><![CDATA[.B{opacity:.998}.C{filter:url(#A)}.D{fill-rule:evenodd}.E{stroke-width:.397}.F{stroke-linejoin:round}]]></style>
  <defs
     id="defs7">
    <filter
       id="A"
       x="0"
       width="1"
       y="0"
       height="1"
       color-interpolation-filters="sRGB">
      <feGaussianBlur
         stdDeviation="0"
         id="feGaussianBlur4" />
    </filter>
  </defs>
  <g
     class="D"
     id="g19"
     transform="translate(-70.332,-93.633)">
    <path
       d="m 105,93.633 c -1.042,0 -2.084,0.27 -3.017,0.808 l -21.707,12.534 c -1.866,1.077 -3.017,3.07 -3.017,5.224 v 25.066 c 0,1.768 0.777,3.427 2.087,4.561 -0.231,0.175 -0.45,0.366 -0.65,0.58 -0.336,0.36 -0.629,0.794 -0.77,1.336 -0.141,0.542 -0.081,1.193 0.197,1.731 l -0.033,-0.069 0.387,0.874 c -0.854,0.005 -1.713,0.144 -2.537,0.34 -1.694,0.401 -3.287,1.077 -4.442,1.621 l -1.166,0.547 0.584,1.148 4.104,8.086 1.138,-0.646 c 1.6,-0.909 2.844,-0.891 4.287,-0.594 0.951,0.196 1.96,0.554 3.063,0.852 l 0.173,0.391 0.052,-0.332 1.567,0.324 0.006,0.002 h 0.008 c 0.995,0.132 1.813,0.089 2.518,-0.155 0.705,-0.244 1.347,-0.764 1.563,-1.514 a 1.93,1.93 0 0 0 0.043,-0.86 h 10e-4 l -0.003,-0.008 a 2.23,2.23 0 0 0 -0.234,-0.67 l -1.229,-3.512 c 1.487,-0.52 3.287,-0.974 5.217,-1.351 l 8.792,5.077 a 6.04,6.04 0 0 0 6.035,0 l 8.867,-5.12 c 1.9,0.364 3.683,0.802 5.175,1.304 l -1.265,3.615 a 2.23,2.23 0 0 0 -0.228,0.654 l -0.005,0.012 h 0.002 c -0.048,0.28 -0.041,0.573 0.042,0.862 0.215,0.749 0.857,1.27 1.562,1.514 0.705,0.244 1.525,0.286 2.52,0.155 l 0.006,-0.002 h 0.008 a 15.26,15.26 0 0 0 1.857,-0.4 l 0.065,0.406 0.214,-0.483 2.718,-0.757 c 1.443,-0.297 2.687,-0.317 4.287,0.592 l 1.139,0.646 4.687,-9.232 -1.164,-0.549 c -1.155,-0.544 -2.747,-1.22 -4.442,-1.621 -0.729,-0.173 -1.485,-0.297 -2.24,-0.329 l 0.392,-0.885 -0.034,0.069 c 0.278,-0.537 0.338,-1.189 0.197,-1.731 -0.141,-0.542 -0.434,-0.976 -0.769,-1.336 a 5.15,5.15 0 0 0 -0.817,-0.705 c 1.226,-1.129 1.95,-2.731 1.95,-4.436 v -25.066 c 0,-2.154 -1.152,-4.147 -3.018,-5.224 L 108.016,94.443 c -0.933,-0.539 -1.976,-0.808 -3.018,-0.808 z m 23.401,49.621 c 0.597,0.247 1.133,0.591 1.38,0.857 0.124,0.133 0.156,0.218 0.164,0.24 l -0.002,0.004 -1.098,2.478 -0.383,0.182 -1.692,3.815 c -0.496,-0.424 -1.046,-0.805 -1.666,-1.102 -1.396,-0.668 -3.099,-1.235 -4.958,-1.709 z m -46.672,0.075 8.217,4.744 c -1.777,0.463 -3.405,1.012 -4.749,1.655 -0.711,0.34 -1.334,0.79 -1.884,1.29 l -1.774,-4.003 -0.002,-10e-4 -1.178,-2.66 -0.002,-0.002 c 0.008,-0.021 0.04,-0.107 0.166,-0.242 0.223,-0.239 0.682,-0.543 1.207,-0.782 z m -3.214,5.467 c 0.464,0.002 0.823,0.104 1.172,0.213 l 2.275,5.135 -0.003,-0.009 0.225,0.507 -1.234,-0.311 c -1.419,-0.292 -3.068,-0.162 -4.768,0.457 l -2.404,-4.736 c 0.88,-0.369 1.756,-0.772 2.736,-1.004 0.708,-0.168 1.392,-0.254 2,-0.252 z m 52.969,0 c 0.607,-0.002 1.294,0.086 2.002,0.254 0.981,0.232 1.854,0.635 2.734,1.004 l -2.402,4.734 c -1.7,-0.619 -3.348,-0.749 -4.768,-0.457 l -0.888,0.216 2.498,-5.636 c 0.247,-0.064 0.511,-0.114 0.824,-0.115 z"
       fill="#00008b"
       class="B"
       id="path9" />
    <path
       d="m 105,95.098 c 0.789,0 1.578,0.203 2.285,0.611 l 21.707,12.533 c 1.415,0.817 2.285,2.324 2.285,3.957 v 25.066 c 0,1.633 -0.871,3.14 -2.285,3.957 l -21.707,12.533 a 4.57,4.57 0 0 1 -4.57,0 L 81.008,141.222 c -1.415,-0.817 -2.285,-2.324 -2.285,-3.957 v -25.066 c 0,-1.633 0.871,-3.14 2.285,-3.957 l 21.707,-12.533 c 0.707,-0.408 1.497,-0.611 2.285,-0.611 z"
       fill="#ff0000"
       class="B"
       id="path11" />
    <path
       d="m 105,96.049 a 3.61,3.61 0 0 0 -1.809,0.484 l -21.707,12.533 a 3.61,3.61 0 0 0 -1.811,3.133 v 25.066 a 3.61,3.61 0 0 0 1.811,3.133 l 21.707,12.533 a 3.61,3.61 0 0 0 3.617,0 l 21.707,-12.533 a 3.61,3.61 0 0 0 1.811,-3.133 v -25.066 a 3.61,3.61 0 0 0 -1.811,-3.133 L 106.808,96.533 a 3.61,3.61 0 0 0 -1.809,-0.484 z"
       fill="#ffffff"
       class="B"
       id="path13" />
    <path
       d="m 129.379,124.732 c -13.514,5.561 -36.316,-0.192 -45.373,15.402 l -0.465,0.358 20.123,11.619 a 2.66,2.66 0 0 0 2.672,0 l 21.707,-12.533 a 2.66,2.66 0 0 0 1.336,-2.313 z"
       fill="#1e90ff"
       class="B"
       id="path15" />
    <path
       d="m 105,96.996 c -0.463,0 -0.922,0.119 -1.336,0.358 l -21.707,12.533 a 2.66,2.66 0 0 0 -1.336,2.313 v 11.079 c 1.2,0.506 8.96,-1.472 14.727,-4.811 a 18.95,18.95 0 0 1 9.891,-2.586 c 8.466,0.086 16.887,5.181 24.14,8.852 v -12.533 a 2.66,2.66 0 0 0 -1.336,-2.313 L 106.336,97.355 C 105.922,97.116 105.462,96.997 105,96.997 Z"
       fill="#ffff00"
       class="B"
       id="path17" />
  </g>
  <path
     d="m 34.907,22.248 a 18.95,18.95 0 0 0 -9.891,2.586 c -5.768,3.339 -13.527,5.317 -14.727,4.811 v 13.987 a 2.66,2.66 0 0 0 1.336,2.313 l 1.583,0.914 0.465,-0.358 C 22.731,30.907 45.532,36.66 59.046,31.099 51.793,27.429 43.372,22.333 34.906,22.247 Z"
     fill="#00cb6a"
     id="path21" />
  <path
     d="m 34.668,8.529 -1.572,4.838 h -5.088 l 4.116,2.99 -1.573,4.839 4.116,-2.991 4.116,2.991 -1.573,-4.839 4.116,-2.99 h -5.088 z"
     fill="#b8860b"
     class="B D"
     id="path23" />
  <g
     opacity="0.99"
     fill="#ffffff"
     stroke="#000000"
     class="E"
     id="g41"
     transform="translate(-70.332,-93.633)">
    <path
       d="m 88.629,139.932 v -9.782 l -2.532,-1.39 c -1.093,-1.587 0.795,-2.379 1.465,-1.912 l 1.569,0.906 c 1.173,0.348 1.305,-0.925 0.757,-1.311 l -1.714,-0.99 c -1.67,-1.425 0.26,-2.795 1.22,-2.113 l 4.216,2.434 v 14.159 z"
       id="path25" />
    <g
       class="D F"
       id="g39">
      <path
         d="m 90.417,129.901 h 10.428 v 10.031 H 90.417 Z"
         class="B"
         id="path27" />
      <path
         d="m 93.049,131.466 h 5.04 v 4.643 h -5.04 z m -0.881,-3.831 h 8.657 l 0.013,2.26 H 90.424 c 0,-1.154 0.812,-2.26 1.744,-2.26 z"
         class="B"
         id="path29" />
      <path
         d="m 93.899,125.389 h 6.974 l -0.048,2.246 h -8.657 c 0,-1.154 0.799,-2.246 1.731,-2.246 z"
         class="B"
         id="path31" />
      <path
         d="m 95.631,123.142 h 5.291 l -0.048,2.246 H 93.9 c 0,-1.154 0.799,-2.246 1.731,-2.246 z"
         class="B"
         id="path33" />
      <path
         d="m 97.362,120.896 h 3.524 l -0.048,2.246 h -5.207 c 0,-1.154 0.799,-2.246 1.731,-2.246 z"
         class="B"
         id="path35" />
      <path
         d="m 99.094,118.65 h 1.792 l -0.048,2.246 h -3.476 c 0,-1.154 0.799,-2.246 1.731,-2.246 z"
         class="B"
         id="path37" />
    </g>
  </g>
  <g
     opacity="0.99"
     fill="#ffffff"
     stroke="#000000"
     class="E"
     id="g59"
     transform="translate(-70.332,-93.633)">
    <path
       d="m 121.37,139.932 v -9.782 l 2.532,-1.39 c 1.093,-1.587 -0.795,-2.379 -1.465,-1.912 l -1.569,0.906 c -1.173,0.348 -1.305,-0.925 -0.757,-1.311 l 1.714,-0.99 c 1.67,-1.425 -0.26,-2.795 -1.22,-2.113 l -4.216,2.434 v 14.159 z"
       id="path43" />
    <g
       class="D F"
       id="g57">
      <path
         d="m 119.583,129.901 h -10.428 v 10.031 h 10.428 z"
         class="B"
         id="path45" />
      <path
         d="m 116.951,131.466 h -5.04 v 4.643 h 5.04 z m 0.881,-3.831 h -8.657 l -0.013,2.26 h 10.414 c 0,-1.154 -0.812,-2.26 -1.744,-2.26 z"
         class="B"
         id="path47" />
      <path
         d="m 116.1,125.389 h -6.974 l 0.048,2.246 h 8.657 c 0,-1.154 -0.799,-2.246 -1.731,-2.246 z"
         class="B"
         id="path49" />
      <path
         d="m 114.369,123.142 h -5.291 l 0.048,2.246 h 6.974 c 0,-1.154 -0.799,-2.246 -1.731,-2.246 z"
         class="B"
         id="path51" />
      <path
         d="m 112.637,120.896 h -3.524 l 0.048,2.246 h 5.207 c 0,-1.154 -0.799,-2.246 -1.731,-2.246 z"
         class="B"
         id="path53" />
      <path
         d="m 110.906,118.65 h -1.792 l 0.048,2.246 h 3.476 c 0,-1.154 -0.799,-2.246 -1.731,-2.246 z"
         class="B"
         id="path55" />
    </g>
  </g>
  <path
     d="m 10.837,45.256 a 2.65,2.65 0 0 0 0.229,0.26 c -0.082,-0.082 -0.159,-0.169 -0.229,-0.26 z"
     fill="#ffff00"
     class="B D"
     id="path61" />
  <g
     fill="#b8860b"
     stroke="#725307"
     stroke-width="0.4"
     id="g67"
     transform="translate(-70.332,-93.633)">
    <path
       d="m 81.616,142.018 c -1.591,0.598 -2.967,1.753 -2.383,2.88 l 3.873,8.74 c 0.192,-1.221 1.152,-2.072 2.632,-2.781 4.54,-2.173 13.279,-3.376 19.414,-3.376 6.135,0 14.875,1.203 19.414,3.376 1.48,0.708 2.44,1.56 2.632,2.781 l 3.873,-8.74 c 0.584,-1.127 -0.792,-2.282 -2.383,-2.88 -7.747,-2.911 -15.639,-4.02 -23.536,-4.02 -7.897,0 -15.789,1.109 -23.536,4.02 z"
       id="path63" />
    <path
       d="m 72.03,149.368 3.511,6.917 c 3.757,-2.134 6.683,0.024 9.937,0.492 3.448,0.456 3.337,-1.818 1.369,-2.107 -1.313,-0.193 -3.058,1.192 -3.741,-1.033 l -2.522,-5.691 c -2.438,-1.151 -6.329,0.374 -8.554,1.422 z m 65.941,0.001 -3.511,6.917 c -3.757,-2.134 -6.683,0.024 -9.937,0.492 -3.448,0.456 -3.337,-1.818 -1.369,-2.107 1.313,-0.193 3.058,1.192 3.741,-1.033 l 2.522,-5.691 c 2.438,-1.151 6.329,0.374 8.554,1.422 z"
       id="path65" />
  </g>
  <g
     id="g969">
    <path
       d="m 21.233,50.692 -0.737,0.177 -1.219,-1.677 -0.482,1.108 0.222,0.925 -0.659,0.158 -0.878,-3.658 0.659,-0.158 0.461,1.922 q 0.079,-0.226 0.117,-0.314 l 0.818,-1.942 0.667,-0.16 -0.58,1.412 z m 1.874,-0.28 q -0.738,0.131 -1.249,-0.35 -0.508,-0.481 -0.652,-1.295 -0.143,-0.809 0.197,-1.429 0.34,-0.623 1.057,-0.75 0.722,-0.128 1.236,0.343 0.517,0.468 0.662,1.285 0.152,0.858 -0.191,1.464 -0.341,0.603 -1.06,0.731 z m -0.09,-0.538 q 0.361,-0.064 0.558,-0.407 0.197,-0.343 0.058,-1.127 -0.113,-0.638 -0.383,-0.962 -0.271,-0.327 -0.705,-0.25 -0.858,0.152 -0.613,1.533 0.119,0.67 0.397,0.979 0.281,0.306 0.688,0.234 z m 3.602,-0.042 -0.722,0.091 -0.397,-3.156 -0.993,0.125 -0.073,-0.577 2.707,-0.341 0.073,0.577 -0.993,0.125 z m 4.347,-0.398 -0.723,0.057 -0.37,-0.869 -1.442,0.114 -0.223,0.916 -0.577,0.046 0.947,-3.849 0.832,-0.066 z m -1.317,-1.339 -0.679,-1.63 -0.414,1.717 z m 2.776,0.37 0.657,-0.148 q 0.125,0.558 0.916,0.549 0.361,-0.004 0.552,-0.15 0.194,-0.145 0.192,-0.358 -0.002,-0.154 -0.091,-0.283 -0.09,-0.131 -0.38,-0.202 L 33.55,47.694 q -0.37,-0.092 -0.548,-0.212 -0.178,-0.122 -0.288,-0.344 -0.107,-0.222 -0.11,-0.476 -0.006,-0.504 0.366,-0.812 0.371,-0.31 0.956,-0.317 0.485,-0.005 0.868,0.203 0.385,0.208 0.495,0.595 l -0.643,0.167 q -0.154,-0.425 -0.699,-0.419 -0.317,0.004 -0.484,0.138 -0.164,0.134 -0.162,0.338 0.004,0.322 0.529,0.446 l 0.641,0.153 q 0.583,0.14 0.785,0.424 0.202,0.282 0.205,0.626 0.006,0.554 -0.409,0.878 -0.413,0.322 -1.077,0.329 -0.559,0.006 -0.984,-0.223 -0.422,-0.23 -0.565,-0.724 z m 6.072,0.967 -2.443,-0.081 0.124,-3.76 2.419,0.08 -0.019,0.559 -1.741,-0.058 -0.034,1.019 1.399,0.046 -0.018,0.545 -1.399,-0.046 -0.035,1.052 1.766,0.058 z m 3.507,0.269 -0.714,-0.058 -0.457,-1.588 -0.95,-0.077 -0.125,1.541 -0.676,-0.055 0.305,-3.75 1.626,0.132 q 0.679,0.055 0.972,0.389 0.294,0.331 0.254,0.817 -0.059,0.722 -0.757,0.939 z m -2.078,-2.265 0.841,0.068 q 0.365,0.03 0.556,-0.11 0.191,-0.139 0.213,-0.409 0.02,-0.247 -0.143,-0.413 -0.163,-0.168 -0.479,-0.194 l -0.896,-0.073 z m 5.694,2.74 -0.718,-0.097 -0.178,-0.928 -1.434,-0.194 -0.412,0.848 -0.574,-0.077 1.741,-3.561 0.828,0.112 z m -1.004,-1.587 -0.319,-1.737 -0.768,1.59 z m 4.24,2.205 -0.647,-0.125 -0.945,-2.631 q -0.022,-0.06 -0.072,-0.196 -0.022,-0.06 -0.067,-0.19 l -0.523,2.706 -0.536,-0.104 0.714,-3.694 0.736,0.142 0.873,2.426 q 0.011,0.03 0.159,0.443 l 0.498,-2.573 0.525,0.101 z m 4.055,-0.962 -0.484,1.862 -0.291,-0.076 -0.073,-0.543 q -0.46,0.464 -1.126,0.291 -0.744,-0.193 -0.965,-0.855 -0.218,-0.66 -0.025,-1.405 0.205,-0.787 0.754,-1.225 0.553,-0.44 1.289,-0.249 0.549,0.143 0.821,0.555 0.272,0.41 0.242,0.909 l -0.597,-0.047 q 0.013,-0.708 -0.592,-0.866 -0.387,-0.101 -0.714,0.15 -0.325,0.252 -0.494,0.905 -0.359,1.379 0.506,1.604 0.336,0.087 0.615,-0.088 0.282,-0.175 0.381,-0.556 l -0.752,-0.196 0.137,-0.528 z"
       fill="#ffffff"
       id="path69" />
  </g>
  <g
     id="g883">
    <path
       d="m 30.83,52.923 -0.478,0.037 -0.135,-1.748 -0.582,1.804 -0.404,0.031 -0.852,-1.679 0.134,1.734 -0.464,0.036 -0.193,-2.494 0.64,-0.049 0.888,1.743 0.592,-1.857 0.661,-0.051 z"
       id="path71"
       style="fill:#00008b;" />
    <path
       d="m 33.098,52.842 -0.228,-0.564 -1.015,0.035 -0.188,0.578 -0.515,0.018 0.873,-2.533 0.564,-0.019 1.038,2.467 z m -0.783,-1.936 -0.313,0.957 0.691,-0.024 z"
       id="path73"
       style="fill:#00008b;" />
    <path
       d="m 34.436,52.373 h 0.388 q 0.328,0 0.54,-0.204 0.212,-0.204 0.212,-0.593 0,-0.388 -0.211,-0.593 -0.211,-0.208 -0.536,-0.209 h -0.392 z m 0.405,0.452 -0.893,-0.001 0.002,-2.501 h 0.896 q 0.547,0 0.889,0.336 0.345,0.335 0.345,0.918 0,0.579 -0.346,0.913 -0.346,0.335 -0.893,0.334 z"
       id="path75"
       style="fill:#00008b;" />
    <path
       d="m 38.079,52.896 -0.187,-0.579 -1.015,-0.037 -0.229,0.564 -0.515,-0.019 1.049,-2.465 0.564,0.02 0.862,2.534 z m -0.645,-1.986 -0.38,0.932 0.691,0.025 z"
       id="path77"
       style="fill:#00008b;" />
    <path
       d="m 41.056,53.094 -0.51,-0.038 -1.002,-1.854 -0.131,1.77 -0.486,-0.036 0.185,-2.494 0.605,0.045 0.915,1.727 0.122,-1.65 0.486,0.036 z"
       id="path79"
       style="fill:#00008b;" />
    <path
       d="m 42.117,53.205 -0.491,-0.05 0.255,-2.488 0.491,0.05 z"
       id="path81"
       style="fill:#00008b;" />
  </g>
</svg>
