<svg xmlns="http://www.w3.org/2000/svg" width="720" height="640" viewBox="0 0 720 640"><rect width="720" height="640" style="fill:none"/><polygon points="62.618 442.104 85.81 435.358 80.248 415.703 62.618 442.104" style="fill:olive;stroke:#807b00;stroke-linecap:round;stroke-linejoin:round"/><polygon points="657.382 442.104 634.19 435.358 639.752 415.703 657.382 442.104" style="fill:olive;stroke:#807b00;stroke-linecap:round;stroke-linejoin:round"/><path d="M62.618,442.1l47.174-70.646a139.483,139.483,0,0,0-15.916-27.952A139.666,139.666,0,0,0,70.864,319a68.242,68.242,0,0,1,0,42.885,58.726,58.726,0,0,0-11.578-11.967C39.121,334.332,13.026,336.887,5.6,337.954a126.705,126.705,0,0,1,40.315,42.734A126.664,126.664,0,0,1,62.618,442.1Z" style="fill:#fff500;stroke:#807b00;stroke-miterlimit:10"/><path d="M657.382,442.1l-47.174-70.646A139.489,139.489,0,0,1,649.136,319a68.242,68.242,0,0,0,0,42.885,58.726,58.726,0,0,1,11.578-11.967c20.165-15.586,46.26-13.031,53.686-11.964A125.973,125.973,0,0,0,657.382,442.1Z" style="fill:#fff500;stroke:#807b00;stroke-miterlimit:10"/><path d="M641.568,381.448c-5.5-13.6-23.16-22.312-45.384-23.112h-.032c-1.948-.063-4.011-.073-6.178-.009-2.249.066-4.383.2-6.39.393a224,224,0,0,1-447.168,0c-2.007-.188-4.141-.327-6.39-.393-2.167-.064-4.23-.054-6.178.009h-.032c-22.224.8-39.88,9.512-45.384,23.112-1.32,3.256-1.672,15.7-.856,22.2v.024C103.9,535.592,220.344,635,360,635s256.1-99.408,282.424-231.328v-.024C643.24,397.152,642.888,384.7,641.568,381.448Z" style="fill:#fff500;stroke:#807b00;stroke-miterlimit:10"/><path d="M95.334,402.314l27.908-7.027,2.986,11.86a20.936,20.936,0,0,1,.885,6.691,6.612,6.612,0,0,1-1.858,3.919,8.3,8.3,0,0,1-4.09,2.326,7.683,7.683,0,0,1-5.653-.541,9.146,9.146,0,0,1-3.969-4.871,13.578,13.578,0,0,1-1.582,3.607,32.966,32.966,0,0,1-3.723,4.349l-4.587,4.778-1.7-6.739,5.046-5.6a40.691,40.691,0,0,0,3.355-4,4.457,4.457,0,0,0,.735-1.988,9.578,9.578,0,0,0-.4-2.915l-.288-1.142-11.651,2.933Zm17.524,1.581,1.05,4.168a22.157,22.157,0,0,0,1.617,4.978,3.13,3.13,0,0,0,1.579,1.283,3.753,3.753,0,0,0,2.237.043,3.455,3.455,0,0,0,2.086-1.324,3.564,3.564,0,0,0,.56-2.4q-.078-.709-.94-4.136l-1.108-4.4Z"/><path d="M103.363,432.184,130.318,422.1l7.477,19.985-4.56,1.706-5.441-14.543-5.976,2.235,5.063,13.533-4.541,1.7-5.063-13.532-7.336,2.744,5.634,15.058-4.541,1.7Z"/><path d="M139.437,445.931l2.627,5.182-13.9,7.048a32.341,32.341,0,0,0-4.193,2.367,4.658,4.658,0,0,0-1.726,2.868,6.189,6.189,0,0,0,.78,3.907,5.863,5.863,0,0,0,2.589,2.869,4,4,0,0,0,2.9.225,32.391,32.391,0,0,0,4.475-1.982l14.2-7.2,2.627,5.182-13.482,6.835a38.9,38.9,0,0,1-6.744,2.891,8.106,8.106,0,0,1-4.008.083,8.775,8.775,0,0,1-3.623-1.959,14.74,14.74,0,0,1-3.283-4.543A15.929,15.929,0,0,1,116.7,463.7a8.951,8.951,0,0,1,.683-4.121,7.923,7.923,0,0,1,2.109-2.895,34.869,34.869,0,0,1,6.256-3.81Z"/><path d="M144.439,491.785l4.034-2.692,6.952,10.418-9.535,6.364a15.763,15.763,0,0,1-5.525-2.673,19.256,19.256,0,0,1-5.015-5.092,15.747,15.747,0,0,1-2.794-7.6,12.044,12.044,0,0,1,1.706-7.2,17.513,17.513,0,0,1,5.439-5.661,16.565,16.565,0,0,1,7.692-2.868,12.693,12.693,0,0,1,7.52,1.614,14.9,14.9,0,0,1,5.017,4.935q2.975,4.458,2.778,8.212a10.153,10.153,0,0,1-3.016,6.675l-4.1-4.2a6.1,6.1,0,0,0,1.515-3.761,6.912,6.912,0,0,0-1.306-4.167,7.873,7.873,0,0,0-5.371-3.7q-3.256-.529-7.207,2.108-4.263,2.844-5.129,6.16a7.6,7.6,0,0,0,1.182,6.386,9.988,9.988,0,0,0,2.629,2.647,12.539,12.539,0,0,0,3.194,1.657l3.037-2.027Z"/><path d="M147.165,513.955l21.875-18.7,7.947,9.3a20.927,20.927,0,0,1,3.766,5.6,6.617,6.617,0,0,1,.079,4.337,8.3,8.3,0,0,1-2.63,3.9,7.684,7.684,0,0,1-5.3,2.028,9.142,9.142,0,0,1-5.721-2.6,13.568,13.568,0,0,1,.186,3.934,32.789,32.789,0,0,1-1.4,5.551l-1.984,6.319-4.516-5.282,2.031-7.263A40.55,40.55,0,0,0,162.717,516a4.442,4.442,0,0,0-.225-2.105,9.6,9.6,0,0,0-1.654-2.435l-.766-.895-9.132,7.807Zm16.4-6.375,2.793,3.268a22.245,22.245,0,0,0,3.663,3.74,3.125,3.125,0,0,0,1.983.447,3.74,3.74,0,0,0,2.024-.955,3.461,3.461,0,0,0,1.28-2.114,3.565,3.565,0,0,0-.565-2.4q-.384-.6-2.68-3.286l-2.947-3.447Z"/><path d="M167.617,537.132l19.7-20.985,15.559,14.6-3.332,3.55-11.322-10.627-4.366,4.652,10.535,9.888-3.319,3.536-10.535-9.889-5.36,5.712,11.723,11-3.318,3.535Z"/><path d="M206.043,533.473l4.647,3.488-9.357,12.466a32.14,32.14,0,0,0-2.714,3.976,4.657,4.657,0,0,0-.283,3.335,6.181,6.181,0,0,0,2.428,3.16,5.857,5.857,0,0,0,3.59,1.431,3.991,3.991,0,0,0,2.7-1.079,32.422,32.422,0,0,0,3.139-3.756l9.558-12.732,4.646,3.488-9.074,12.089a38.785,38.785,0,0,1-4.773,5.573,8.112,8.112,0,0,1-3.557,1.846,8.78,8.78,0,0,1-4.117-.157,14.741,14.741,0,0,1-4.952-2.624,15.962,15.962,0,0,1-4.429-4.516,8.92,8.92,0,0,1-1.207-4,7.925,7.925,0,0,1,.611-3.529,35.031,35.031,0,0,1,3.929-6.183Z"/><path d="M230.809,572.415l2.429-4.2,10.839,6.275-5.744,9.922a15.764,15.764,0,0,1-6.137.042,19.268,19.268,0,0,1-6.748-2.353,15.742,15.742,0,0,1-5.863-5.583,12.044,12.044,0,0,1-1.652-7.216,17.516,17.516,0,0,1,2.379-7.481,16.569,16.569,0,0,1,5.635-5.971,12.7,12.7,0,0,1,7.459-1.874,14.891,14.891,0,0,1,6.681,2.212q4.638,2.685,6.12,6.14a10.156,10.156,0,0,1,.243,7.32l-5.536-1.958a6.092,6.092,0,0,0-.3-4.042,6.919,6.919,0,0,0-3.012-3.162,7.876,7.876,0,0,0-6.451-.944q-3.156.963-5.536,5.075-2.566,4.434-1.879,7.792a7.6,7.6,0,0,0,3.881,5.207,10.006,10.006,0,0,0,3.528,1.215,12.517,12.517,0,0,0,3.6.074l1.829-3.159Z"/><path d="M253.871,595.966l10.271-26.884,8.71,3.328a33.892,33.892,0,0,1,6.3,2.869,7.545,7.545,0,0,1,2.864,4.111,8.936,8.936,0,0,1-.441,5.831,9.4,9.4,0,0,1-2.489,3.819,7.89,7.89,0,0,1-3.3,1.777,8.437,8.437,0,0,1-3.3.2,33.321,33.321,0,0,1-5.777-1.766l-3.539-1.353L259.3,598.04ZM267.832,575.7l-2.915,7.628,2.972,1.136a15.076,15.076,0,0,0,4.452,1.217,3.819,3.819,0,0,0,2.2-.672,3.874,3.874,0,0,0,1.413-1.856,3.725,3.725,0,0,0,.063-2.75,4.027,4.027,0,0,0-1.727-2.026,28.161,28.161,0,0,0-3.836-1.676Z"/><path d="M302.851,611.733l-6.1-1.658-.71-6.967-11.1-3.018-4.007,5.685-5.948-1.617,18.367-24.83,5.929,1.611Zm-7.337-13.794L294.489,586.6l-6.553,9.285Z"/><path d="M322.71,604.162l.7-4.8,12.392,1.817-1.662,11.342a15.751,15.751,0,0,1-5.686,2.312,19.269,19.269,0,0,1-7.139.313,15.74,15.74,0,0,1-7.514-3.016,12.038,12.038,0,0,1-4.207-6.092,17.5,17.5,0,0,1-.558-7.83,16.56,16.56,0,0,1,3.023-7.632,12.69,12.69,0,0,1,6.235-4.5,14.885,14.885,0,0,1,7.025-.419q5.3.779,7.959,3.439a10.153,10.153,0,0,1,2.935,6.71l-5.867.231a6.091,6.091,0,0,0-1.778-3.643,6.912,6.912,0,0,0-3.969-1.823,7.876,7.876,0,0,0-6.342,1.511q-2.576,2.064-3.263,6.764-.744,5.07,1.139,7.934a7.6,7.6,0,0,0,5.533,3.4A10.019,10.019,0,0,0,325.4,610a12.527,12.527,0,0,0,3.37-1.263l.529-3.612Z"/><path d="M340.9,616.937l.9-28.765,21.328.669-.152,4.866-15.521-.487-.2,6.377,14.441.453-.151,4.846-14.442-.453-.246,7.829,16.07.5-.152,4.847Z"/><path d="M367.329,588.79l5.793-.449,1.2,15.541a32.479,32.479,0,0,0,.587,4.778,4.663,4.663,0,0,0,1.99,2.692,6.192,6.192,0,0,0,3.909.769,5.851,5.851,0,0,0,3.641-1.3,3.993,3.993,0,0,0,1.316-2.593,32.589,32.589,0,0,0-.123-4.892l-1.23-15.874,5.793-.448,1.168,15.07a38.831,38.831,0,0,1,.1,7.337,8.114,8.114,0,0,1-1.453,3.735,8.786,8.786,0,0,1-3.2,2.6,14.745,14.745,0,0,1-5.452,1.3,15.983,15.983,0,0,1-6.307-.466,8.956,8.956,0,0,1-3.547-2.206,7.937,7.937,0,0,1-1.872-3.055,35.037,35.037,0,0,1-1.131-7.237Z"/><path d="M400.5,614.634l-5.5-28.249,5.7-1.111,2.163,11.12,11.177-2.175L411.886,583.1l5.7-1.11,5.5,28.249-5.7,1.11L414.979,599,403.8,601.173l2.4,12.351Z"/><path d="M442.338,604.878l-9.934-27.01,11.479-4.222a20.942,20.942,0,0,1,6.559-1.586,6.613,6.613,0,0,1,4.093,1.433,8.3,8.3,0,0,1,2.745,3.822,7.684,7.684,0,0,1,.059,5.678,9.142,9.142,0,0,1-4.425,4.462,13.594,13.594,0,0,1,3.754,1.192,32.944,32.944,0,0,1,4.718,3.244l5.235,4.056-6.522,2.4-6.1-4.427a40.512,40.512,0,0,0-4.334-2.914,4.465,4.465,0,0,0-2.053-.521,9.584,9.584,0,0,0-2.857.706l-1.105.407,4.147,11.275Zm-.279-17.593,4.035-1.484a22.182,22.182,0,0,0,4.779-2.134,3.123,3.123,0,0,0,1.108-1.705,3.746,3.746,0,0,0-.192-2.23,3.448,3.448,0,0,0-1.537-1.933,3.555,3.555,0,0,0-2.444-.3q-.7.153-4.014,1.372l-4.256,1.566Z"/><path d="M471.193,593.74,458.325,568l19.086-9.542,2.178,4.356-13.89,6.943,2.853,5.706L481.476,569l2.168,4.337L470.721,579.8l3.5,7.006,14.381-7.19,2.167,4.337Z"/><path d="M496.637,580.562,481.111,556.33l7.852-5.031a33.782,33.782,0,0,1,6.051-3.364,7.547,7.547,0,0,1,5.007.137,8.937,8.937,0,0,1,4.429,3.82,9.381,9.381,0,0,1,1.594,4.27,7.9,7.9,0,0,1-.527,3.707,8.425,8.425,0,0,1-1.8,2.775,33.154,33.154,0,0,1-4.852,3.6l-3.19,2.044,5.856,9.141Zm-8.007-23.268,4.406,6.876,2.678-1.715a15.049,15.049,0,0,0,3.624-2.858,3.821,3.821,0,0,0,.766-2.17,3.859,3.859,0,0,0-.653-2.239,3.721,3.721,0,0,0-2.176-1.685,4.026,4.026,0,0,0-2.655.186,28.03,28.03,0,0,0-3.626,2.09Z"/><path d="M520.538,564.763l-18-22.458,16.651-13.344,3.045,3.8-12.117,9.711,3.99,4.978,11.275-9.035,3.032,3.783-11.274,9.035,4.9,6.113,12.547-10.054,3.032,3.783Z"/><path d="M542.716,546.52l-20.348-20.352,4.11-4.108,8.008,8.009,8.052-8.049-8.009-8.011,4.11-4.109,20.347,20.352-4.109,4.108-8.9-8.9-8.051,8.051,8.9,8.9Z"/><path d="M571.943,515.089l-23.3-16.894,7.179-9.9a20.916,20.916,0,0,1,4.563-4.972,6.618,6.618,0,0,1,4.2-1.091,8.286,8.286,0,0,1,4.408,1.645,7.681,7.681,0,0,1,3.213,4.682,9.142,9.142,0,0,1-1.187,6.17,13.53,13.53,0,0,1,3.781-1.1,32.877,32.877,0,0,1,5.723.064l6.609.452-4.079,5.626-7.536-.275a40.62,40.62,0,0,0-5.223,0,4.461,4.461,0,0,0-2,.711,9.607,9.607,0,0,0-1.979,2.179l-.691.953,9.726,7.053Zm-10.035-14.453,2.525-3.481a22.218,22.218,0,0,0,2.778-4.435,3.129,3.129,0,0,0-.028-2.033,3.754,3.754,0,0,0-1.4-1.745,3.459,3.459,0,0,0-2.354-.75,3.563,3.563,0,0,0-2.2,1.111q-.495.514-2.569,3.375L556,496.349Z"/><path d="M602.505,467.109l-3.1,5.509-6.929-1.016-5.642,10.025,4.532,5.276-3.023,5.372L568.76,468.393l3.013-5.355Zm-15.17,3.741-11.251-1.783,7.4,8.625Z"/><path d="M604.523,462.523l-26.488-11.251,3.646-8.583a33.98,33.98,0,0,1,3.1-6.191,7.556,7.556,0,0,1,4.213-2.711,8.939,8.939,0,0,1,5.811.655,9.4,9.4,0,0,1,3.725,2.628,7.888,7.888,0,0,1,1.656,3.359,8.425,8.425,0,0,1,.078,3.306,33.172,33.172,0,0,1-1.978,5.708l-1.48,3.488,9.991,4.245Zm-19.735-14.7,7.517,3.193,1.243-2.927a15.036,15.036,0,0,0,1.38-4.405,3.81,3.81,0,0,0-.591-2.223,3.87,3.87,0,0,0-1.8-1.481,3.725,3.725,0,0,0-2.746-.164,4.02,4.02,0,0,0-2.087,1.652,27.918,27.918,0,0,0-1.815,3.771Z"/><path d="M614.938,436.587l-27.263-9.215,1.86-5.5,27.264,9.215Z"/><path d="M619.082,424.532l-27.914-7,1.413-5.636,10.987,2.755,2.771-11.043-10.987-2.756,1.414-5.636,27.914,7-1.413,5.636-12.206-3.062-2.771,11.044L620.5,418.9Z"/><path d="M584,5V345a224,224,0,0,1-447.584,13.72Q136,351.916,136,345V5Z" style="fill:#fe0000;stroke:#7f0000"/><path d="M568,20.6v324a208,208,0,1,1-416,0V20.6Z" style="fill:#2cb32c;stroke:#134d13;stroke-miterlimit:10"/><path d="M180.386,264.911a24.5,24.5,0,0,1,10.744,12.246,25.5,25.5,0,0,1,.138,17.9,34.62,34.62,0,0,0-17.006-19.538" style="fill:#fff;stroke:gray;stroke-miterlimit:10"/><path d="M191.319,294.2c.627-1.718,1.229-5.829-2.17-14.095A24.584,24.584,0,0,0,178.5,268.17l.734-1.271a24.578,24.578,0,0,1,10.644,11.938c3.4,8.265,2.064,13.647,1.437,15.365" style="fill:#d1d3d4"/><circle cx="177.324" cy="270.214" r="6.124" style="fill:#fff;stroke:gray;stroke-miterlimit:10"/><path d="M174.4,273.75a4.16,4.16,0,0,0,.629.442,4.593,4.593,0,1,0,4.593-7.955,4.179,4.179,0,0,0-.7-.324,4.588,4.588,0,0,1-4.524,7.837Z" style="fill:#d1d3d4"/><path d="M221.468,245.632a24.508,24.508,0,0,0-15.428,5.234,25.5,25.5,0,0,0-9.068,15.432,34.618,34.618,0,0,1,24.5-8.418" style="fill:#fff;stroke:gray;stroke-miterlimit:10"/><path d="M197.355,265.533c.316-1.8,1.849-5.663,8.926-11.122a24.577,24.577,0,0,1,15.187-5.015v-1.468a24.587,24.587,0,0,0-15.187,5.016c-7.077,5.459-8.61,10.787-8.926,12.589" style="fill:#d1d3d4"/><circle cx="221.468" cy="251.756" r="6.124" style="fill:#fff;stroke:gray;stroke-miterlimit:10"/><path d="M222.234,256.28a4.181,4.181,0,0,1-.766.069,4.593,4.593,0,0,1,0-9.186,4.181,4.181,0,0,1,.766.069,4.587,4.587,0,0,0,0,9.048Z" style="fill:#d1d3d4"/><path d="M234.98,177.288a24.509,24.509,0,0,0-16.257,1.062,25.5,25.5,0,0,0-12.753,12.56,34.612,34.612,0,0,1,25.84-1.791" style="fill:#fff;stroke:gray;stroke-miterlimit:10"/><path d="M206.538,190.269c.771-1.658,3.252-4.991,11.5-8.432a24.588,24.588,0,0,1,15.967-.914l.38-1.417a24.591,24.591,0,0,0-15.968.914c-8.248,3.441-11.109,8.191-11.88,9.849" style="fill:#d1d3d4"/><circle cx="233.395" cy="183.203" r="6.124" style="fill:#fff;stroke:gray;stroke-miterlimit:10"/><path d="M232.964,187.771a4.224,4.224,0,0,1-.758-.131,4.593,4.593,0,0,1,2.378-8.873,4.245,4.245,0,0,1,.722.264,4.588,4.588,0,0,0-2.342,8.74Z" style="fill:#d1d3d4"/><path d="M252.452,140.809a24.5,24.5,0,0,0-15.825,3.87,25.494,25.494,0,0,0-10.379,14.583,34.624,34.624,0,0,1,25.137-6.251" style="fill:#fff;stroke:gray;stroke-miterlimit:10"/><path d="M226.7,158.533c.472-1.767,2.336-5.48,9.862-10.3a24.58,24.58,0,0,1,15.566-3.673l.128-1.462a24.579,24.579,0,0,0-15.566,3.673c-7.526,4.821-9.518,10-9.99,11.763" style="fill:#d1d3d4"/><circle cx="251.919" cy="146.91" r="6.124" style="fill:#fff;stroke:gray;stroke-miterlimit:10"/><path d="M252.287,151.484a4.29,4.29,0,0,1-.769,0,4.593,4.593,0,0,1,.8-9.151,4.135,4.135,0,0,1,.756.135,4.588,4.588,0,0,0-.788,9.014Z" style="fill:#d1d3d4"/><path d="M247.9,293.361c-3.329,19.586-21.331,29.006-21.331,29.006s-13.694-15.009-10.123-34.552c3.385-18.489,21.216-28.359,21.216-28.359S251.047,274.83,247.9,293.361Z" style="fill:#009940;stroke:#005926;stroke-miterlimit:10"/><polygon points="227.005 317.038 236.742 264.699 227.99 317.211 227.005 317.038" style="fill:#00662b"/><path d="M219.123,299.431c1.793,1.075,3.539,2.217,5.277,3.37.878.563,1.725,1.171,2.587,1.758l2.575,1.774-.314-.055,3.027-.787c1.011-.256,2.014-.539,3.032-.768,2.028-.488,4.059-.965,6.112-1.361-1.971.7-3.965,1.313-5.961,1.917-.994.317-2,.58-3,.871l-3.009.851-.171.048-.143-.1-2.537-1.829c-.842-.615-1.7-1.209-2.525-1.846C222.4,302.02,220.738,300.759,219.123,299.431Z" style="fill:#00662b"/><path d="M219.014,288.6c2.112,1.127,4.18,2.325,6.242,3.532,1.039.592,2.049,1.228,3.073,1.843l3.064,1.86-.274-.048,3.514-.7c1.173-.227,2.34-.481,3.518-.681,2.351-.429,4.7-.847,7.074-1.183-2.306.641-4.63,1.2-6.956,1.748-1.159.289-2.331.523-3.5.784l-3.5.766-.147.032-.127-.08-3.028-1.918c-1.006-.643-2.025-1.266-3.017-1.933C222.955,291.312,220.963,289.991,219.014,288.6Z" style="fill:#00662b"/><path d="M222.821,278.461q2.634,1.689,5.222,3.448c1.727,1.167,3.429,2.372,5.145,3.556l-.209-.037c2.017-.527,4.028-1.075,6.051-1.583s4.05-1,6.086-1.453q-2.981.954-5.985,1.824c-2,.585-4.014,1.129-6.021,1.694l-.114.032-.1-.069c-1.692-1.218-3.4-2.417-5.078-3.652S224.472,279.737,222.821,278.461Z" style="fill:#00662b"/><path d="M230.781,269.053c1.456,1.986,2.833,4.026,4.216,6.061l-.178-.031c2-1.44,3.987-2.886,6.035-4.254-1.926,1.536-3.909,2.993-5.887,4.456l-.106.078-.072-.11C233.431,273.2,232.066,271.154,230.781,269.053Z" style="fill:#00662b"/><path d="M221.607,306c15.266,17.966,10.1,41.517,10.1,41.517s-24.089,1-39.132-17.154c-14.226-17.18-9.6-40.919-9.6-40.919S207.158,289.011,221.607,306Z" style="fill:#009940;stroke:#005926;stroke-miterlimit:10"/><polygon points="227.261 343.003 187.037 294.287 228.027 342.36 227.261 343.003" style="fill:#00662b"/><path d="M205.171,336.8c2.352-.782,4.726-1.485,7.1-2.175,1.185-.36,2.383-.669,3.574-1l3.579-.982-.244.205,1.588-3.354c.535-1.116,1.045-2.243,1.6-3.347,1.094-2.22,2.2-4.435,3.377-6.616-.9,2.311-1.87,4.587-2.853,6.858-.478,1.142-1.006,2.261-1.509,3.391l-1.528,3.383-.073.161-.171.044-3.6.916c-1.2.3-2.394.624-3.6.9C210.013,335.752,207.6,336.315,205.171,336.8Z" style="fill:#00662b"/><path d="M195.242,328.636c2.645-1.033,5.316-1.987,7.99-2.929,1.332-.486,2.681-.92,4.023-1.379l4.029-1.36-.213.179,2.038-3.732c.686-1.241,1.346-2.5,2.056-3.723,1.393-2.47,2.8-4.934,4.273-7.359-1.2,2.572-2.478,5.1-3.764,7.632-.63,1.27-1.309,2.515-1.963,3.772l-1.98,3.764-.07.133-.143.046-4.05,1.3c-1.352.427-2.7.878-4.057,1.277C200.7,327.081,197.984,327.9,195.242,328.636Z" style="fill:#00662b"/><path d="M188.928,317.44q3.553-1.082,7.127-2.082c2.381-.673,4.774-1.3,7.16-1.954l-.162.136c1.056-2.237,2.092-4.484,3.167-6.713s2.167-4.449,3.289-6.656q-1.431,3.426-2.94,6.818c-1,2.262-2.042,4.507-3.063,6.761l-.049.107-.114.029c-2.4.613-4.788,1.249-7.19,1.842S191.343,316.9,188.928,317.44Z" style="fill:#00662b"/><path d="M186.448,303.028c2.915.206,5.815.546,8.723.814l-.137.116c.24-2.911.409-5.826.712-8.732-.088,2.92-.311,5.832-.464,8.748l-.006.132-.131-.016C192.246,303.733,189.34,303.447,186.448,303.028Z" style="fill:#00662b"/><path d="M254.952,352.413c19.395,13.4,20.5,37.489,20.5,37.489s-23.01,7.2-42.238-6.441c-18.188-12.913-19.86-37.041-19.86-37.041S236.6,339.739,254.952,352.413Z" style="fill:#009940;stroke:#005926;stroke-miterlimit:10"/><polygon points="269.989 386.688 218.527 350.043 270.562 385.869 269.989 386.688" style="fill:#00662b"/><path d="M247.046,386.412c2.07-1.365,4.18-2.658,6.3-3.94,1.051-.654,2.128-1.262,3.193-1.891l3.2-1.875-.183.261.665-3.651c.228-1.216.429-2.437.685-3.648.481-2.427.974-4.853,1.549-7.264-.268,2.464-.619,4.914-.981,7.363-.166,1.226-.387,2.444-.58,3.665l-.6,3.663-.029.175-.154.086-3.237,1.816c-1.082.6-2.151,1.223-3.246,1.8C251.452,384.149,249.269,385.316,247.046,386.412Z" style="fill:#00662b"/><path d="M235.343,381.1c2.287-1.681,4.62-3.294,6.959-4.9,1.162-.814,2.352-1.583,3.529-2.373l3.54-2.357-.16.228,1-4.133c.341-1.376.654-2.758,1.022-4.128.706-2.746,1.424-5.489,2.223-8.214-.5,2.8-1.073,5.572-1.661,8.346-.28,1.39-.613,2.768-.92,4.152l-.938,4.148-.033.146-.127.082-3.577,2.3c-1.2.762-2.377,1.545-3.587,2.283C240.212,378.183,237.8,379.675,235.343,381.1Z" style="fill:#00662b"/><path d="M226.346,371.918q3.153-1.965,6.345-3.857c2.126-1.265,4.275-2.492,6.411-3.74l-.122.174c.441-2.435.861-4.873,1.322-7.3s.942-4.859,1.455-7.281q-.5,3.681-1.076,7.346c-.383,2.445-.806,4.883-1.209,7.324l-.019.116-.1.058c-2.157,1.212-4.3,2.445-6.468,3.64S228.539,370.767,226.346,371.918Z" style="fill:#00662b"/><path d="M220.221,358.638c2.868-.555,5.758-.977,8.636-1.471l-.1.147c-.521-2.873-1.112-5.733-1.571-8.619.67,2.845,1.208,5.715,1.816,8.571l.027.129-.13.019C226,357.819,223.122,358.3,220.221,358.638Z" style="fill:#00662b"/><path d="M225.158,241.875c-16.319,13.867-37.711,9.172-37.711,9.172s-.908-21.882,15.581-35.545c15.606-12.922,37.169-8.717,37.169-8.717S240.594,228.751,225.158,241.875Z" style="fill:#009940;stroke:#005926;stroke-miterlimit:10"/><polygon points="191.522 246.976 235.801 210.474 192.165 247.742 191.522 246.976" style="fill:#00662b"/><path d="M197.187,226.946c.724,2.133,1.369,4.287,2,6.444.33,1.075.61,2.164.913,3.246l.9,3.25-.205-.244,3.046,1.445c1.012.487,2.037.949,3.037,1.462,2.015,1,4.024,2.007,6,3.091-2.1-.8-4.176-1.679-6.241-2.567-1.039-.43-2.054-.911-3.082-1.367l-3.073-1.384-.162-.073-.043-.172-.829-3.267c-.271-1.091-.567-2.175-.811-3.273C198.117,231.349,197.612,229.158,197.187,226.946Z" style="fill:#00662b"/><path d="M204.6,217.927c.951,2.4,1.824,4.822,2.686,7.249.444,1.209.839,2.435,1.257,3.653l1.238,3.659-.179-.213,3.389,1.854c1.126.624,2.266,1.223,3.379,1.872,2.241,1.27,4.476,2.55,6.672,3.9-2.343-1.079-4.647-2.232-6.945-3.4-1.156-.568-2.286-1.186-3.429-1.778l-3.42-1.8-.133-.07-.046-.143-1.174-3.68c-.386-1.229-.8-2.449-1.155-3.686C205.994,222.891,205.259,220.422,204.6,217.927Z" style="fill:#00662b"/><path d="M214.77,212.192q1,3.224,1.909,6.469c.615,2.162,1.185,4.335,1.78,6.5l-.136-.163c2.031.961,4.072,1.9,6.095,2.882s4.038,1.976,6.039,3q-3.119-1.289-6.2-2.654c-2.057-.907-4.1-1.852-6.144-2.778l-.107-.048-.03-.115c-.554-2.178-1.132-4.349-1.667-6.532S215.256,214.388,214.77,212.192Z" style="fill:#00662b"/><path d="M227.862,209.939c-.178,2.649-.489,5.283-.729,7.925l-.115-.138c2.643.222,5.292.373,7.931.659-2.654-.07-5.3-.276-7.948-.41l-.132-.007.016-.131C227.214,215.205,227.471,212.565,227.862,209.939Z" style="fill:#00662b"/><path d="M203.357,225.4c-1.722,21.192-20.035,32.914-20.035,32.914s-16-14.724-14.016-35.893c1.884-20.027,19.974-32.213,19.974-32.213S204.98,205.353,203.357,225.4Z" style="fill:#009940;stroke:#005926;stroke-miterlimit:10"/><polygon points="183.32 252.598 188.784 195.886 184.316 252.685 183.32 252.598" style="fill:#00662b"/><path d="M173.24,234.559c2.006.988,3.971,2.047,5.93,3.117.987.522,1.947,1.09,2.92,1.637l2.91,1.653-.318-.027,3.153-1.124c1.053-.368,2.1-.763,3.159-1.1,2.115-.714,4.234-1.416,6.382-2.039-2.04.916-4.109,1.753-6.183,2.58-1.031.428-2.082.8-3.123,1.2l-3.129,1.186-.166.062-.152-.09-2.876-1.712c-.956-.576-1.924-1.129-2.866-1.729C176.983,237,175.09,235.814,173.24,234.559Z" style="fill:#00662b"/><path d="M172.113,223.022c2.352,1.015,4.666,2.1,6.975,3.2,1.161.536,2.3,1.12,3.447,1.681l3.438,1.7-.277-.024,3.681-1.077c1.229-.353,2.449-.732,3.686-1.058,2.465-.681,4.933-1.351,7.426-1.941-2.4.888-4.829,1.7-7.259,2.493-1.21.413-2.437.773-3.656,1.159l-3.661,1.141-.144.045-.134-.069-3.407-1.76c-1.133-.591-2.278-1.16-3.4-1.777C176.574,225.531,174.325,224.313,172.113,223.022Z" style="fill:#00662b"/><path d="M175.226,211.857q2.961,1.565,5.882,3.2c1.949,1.086,3.876,2.212,5.815,3.315l-.212-.018c2.1-.752,4.195-1.523,6.3-2.256s4.222-1.446,6.348-2.129q-3.093,1.284-6.216,2.49c-2.08.807-4.175,1.575-6.262,2.364l-.111.041-.1-.06c-1.918-1.14-3.849-2.258-5.757-3.416S177.108,213.058,175.226,211.857Z" style="fill:#00662b"/><path d="M182.835,201.085c1.735,1.983,3.366,4.051,5.053,6.074l-.179-.016c2.012-1.7,3.977-3.452,6.03-5.1-1.912,1.814-3.912,3.526-5.866,5.292l-.1.089-.082-.1C186.076,205.237,184.4,203.2,182.835,201.085Z" style="fill:#00662b"/><path d="M290.4,97.985c-17.257,10.106-36.168,2.32-36.168,2.32s2.713-20.271,20.093-30.162c16.447-9.353,35.6-1.989,35.6-1.989S306.718,88.418,290.4,97.985Z" style="fill:#009940;stroke:#005926;stroke-miterlimit:10"/><polygon points="258.618 97.193 305.274 70.833 259.118 98.059 258.618 97.193" style="fill:#00662b"/><path d="M267.092,79.72c.331,2.078.579,4.163.815,6.249.133,1.042.213,2.088.317,3.133l.3,3.134-.159-.276,2.565,1.824c.852.614,1.719,1.2,2.555,1.841,1.688,1.247,3.37,2.5,5,3.831-1.812-1.07-3.576-2.209-5.334-3.358-.887-.561-1.743-1.169-2.614-1.753l-2.6-1.77-.146-.1-.013-.177-.23-3.139c-.072-1.047-.168-2.092-.211-3.141C267.218,83.921,267.114,81.824,267.092,79.72Z" style="fill:#00662b"/><path d="M275.373,72.628c.5,2.358.911,4.728,1.313,7.1.216,1.184.379,2.375.567,3.563l.548,3.565-.139-.241,2.814,2.257c.934.757,1.885,1.493,2.8,2.272,1.852,1.534,3.7,3.078,5.491,4.687-1.986-1.364-3.921-2.794-5.848-4.234-.973-.707-1.911-1.459-2.867-2.189L277.2,87.2l-.119-.092-.02-.149-.481-3.575c-.155-1.192-.335-2.381-.461-3.578C275.834,77.421,275.563,75.03,275.373,72.628Z" style="fill:#00662b"/><path d="M285.655,69q.4,3.124.719,6.257c.217,2.088.39,4.18.587,6.269l-.107-.184c1.712,1.214,3.436,2.411,5.137,3.641s3.388,2.479,5.059,3.753q-2.664-1.683-5.279-3.437c-1.746-1.165-3.468-2.365-5.2-3.547l-.1-.066-.009-.118c-.155-2.093-.335-4.184-.47-6.279S285.74,71.1,285.655,69Z" style="fill:#00662b"/><path d="M298.06,69.054c-.59,2.408-1.272,4.789-1.947,7.172l-.09-.156c2.4.607,4.8,1.207,7.185,1.9-2.43-.492-4.836-1.078-7.245-1.657l-.127-.031.037-.125C296.576,73.782,297.272,71.4,298.06,69.054Z" style="fill:#00662b"/><path d="M259.807,128.633c-10.131,17.8-30.892,20.579-30.892,20.579s-7.975-19.369,2.376-37.043c9.8-16.719,30.553-19.993,30.553-19.993S269.387,111.788,259.807,128.633Z" style="fill:#009940;stroke:#005926;stroke-miterlimit:10"/><polygon points="231.226 144.209 259.1 96.929 232.092 144.709 231.226 144.209" style="fill:#00662b"/><path d="M229.785,124.365c1.354,1.676,2.64,3.4,3.917,5.13.65.857,1.257,1.744,1.884,2.616l1.869,2.628-.276-.159,3.21.3c1.069.108,2.141.188,3.208.324,2.137.24,4.272.492,6.4.828-2.155-.025-4.3-.133-6.449-.254-1.075-.044-2.145-.145-3.218-.217l-3.215-.238-.177-.013-.1-.146-1.813-2.667c-.6-.892-1.22-1.769-1.8-2.677C232.052,128.024,230.885,126.218,229.785,124.365Z" style="fill:#00662b"/><path d="M233.5,113.834c1.644,1.84,3.224,3.73,4.794,5.629.8.94,1.552,1.913,2.327,2.87l2.311,2.882-.241-.139,3.652.56c1.216.193,2.436.358,3.649.579,2.429.411,4.856.834,7.272,1.339-2.46-.2-4.908-.477-7.355-.768-1.225-.13-2.442-.316-3.664-.474l-3.661-.494-.149-.02-.092-.119-2.258-2.925c-.748-.978-1.516-1.94-2.242-2.936C236.365,117.845,234.9,115.865,233.5,113.834Z" style="fill:#00662b"/><path d="M240.761,105.353q1.953,2.568,3.839,5.185c1.26,1.741,2.484,3.508,3.729,5.26l-.184-.106c2.14.2,4.282.378,6.42.6s4.276.461,6.41.733q-3.225-.132-6.442-.349c-2.145-.141-4.287-.323-6.43-.484l-.118-.009-.066-.1c-1.21-1.776-2.44-3.539-3.634-5.327S241.913,107.17,240.761,105.353Z" style="fill:#00662b"/><path d="M251.79,99.046c.712,2.437,1.292,4.907,1.943,7.359l-.156-.09c2.449-.663,4.879-1.395,7.345-2-2.406.809-4.851,1.489-7.275,2.237l-.127.039-.029-.129C252.927,103.991,252.293,101.534,251.79,99.046Z" style="fill:#00662b"/><path d="M230.835,153.806c-3.679,21.646-23.574,32.056-23.574,32.056s-15.134-16.587-11.188-38.186c3.741-20.433,23.448-31.341,23.448-31.341S234.309,133.325,230.835,153.806Z" style="fill:#009940;stroke:#005926;stroke-miterlimit:10"/><polygon points="207.791 179.981 218.499 122.129 208.775 180.155 207.791 179.981" style="fill:#00662b"/><path d="M199.027,160.514c1.973,1.2,3.9,2.47,5.815,3.749.968.627,1.905,1.3,2.856,1.947l2.844,1.964-.314-.055,3.344-.873c1.117-.285,2.226-.6,3.35-.855,2.239-.545,4.482-1.079,6.746-1.532-2.183.754-4.387,1.427-6.595,2.089-1.1.346-2.215.637-3.322.956l-3.327.938-.17.048-.144-.1-2.805-2.019c-.932-.677-1.878-1.334-2.794-2.035C202.663,163.355,200.821,161.968,199.027,160.514Z" style="fill:#00662b"/><path d="M198.907,148.545c2.325,1.26,4.607,2.589,6.882,3.93,1.146.657,2.264,1.36,3.394,2.041l3.384,2.058-.274-.048,3.883-.778c1.3-.252,2.586-.532,3.887-.758,2.6-.481,5.2-.95,7.812-1.337-2.552.692-5.122,1.3-7.694,1.9-1.282.314-2.577.574-3.865.862l-3.87.842-.147.032-.127-.08-3.348-2.116c-1.113-.71-2.239-1.4-3.337-2.132C203.275,151.52,201.069,150.067,198.907,148.545Z" style="fill:#00662b"/><path d="M203.114,137.338q2.9,1.88,5.76,3.827c1.906,1.294,3.787,2.625,5.682,3.936l-.209-.037c2.229-.585,4.452-1.191,6.686-1.756s4.474-1.111,6.722-1.625q-3.3,1.04-6.621,2c-2.213.643-4.437,1.244-6.656,1.867l-.113.032-.1-.069c-1.871-1.345-3.757-2.67-5.616-4.031S204.944,138.741,203.114,137.338Z" style="fill:#00662b"/><path d="M211.911,126.941c1.6,2.2,3.1,4.473,4.648,6.706l-.177-.031c2.222-1.568,4.4-3.2,6.662-4.712-2.133,1.692-4.345,3.274-6.514,4.913l-.106.08-.072-.111C214.875,131.5,213.337,129.26,211.911,126.941Z" style="fill:#00662b"/><path d="M264.542,338.481c.939,2.889,0,7.954-2.894,8.893s-6.629-2.6-7.568-5.493a5.5,5.5,0,0,1,10.462-3.4Z" style="fill:#fff;stroke:gray;stroke-miterlimit:10"/><path d="M263.315,339.155a5.267,5.267,0,0,1,.169.7,4.123,4.123,0,0,0-7.742,2.515,5.254,5.254,0,0,1-.273-.663,4.125,4.125,0,1,1,7.846-2.549Z" style="fill:#d1d3d4"/><path d="M252.185,344.489c3.038,0,7.563,2.463,7.563,5.5s-4.525,5.5-7.563,5.5a5.5,5.5,0,0,1,0-11Z" style="fill:#fff;stroke:gray;stroke-miterlimit:10"/><path d="M252.446,345.864a5.3,5.3,0,0,1,.715.055,4.123,4.123,0,0,0,0,8.141,5.3,5.3,0,0,1-.715.055,4.126,4.126,0,0,1,0-8.251Z" style="fill:#d1d3d4"/><path d="M254.08,358.1c.939-2.889,4.679-6.432,7.568-5.493s3.833,6,2.894,8.892a5.5,5.5,0,1,1-10.462-3.4Z" style="fill:#fff;stroke:gray;stroke-miterlimit:10"/><path d="M255.469,358.274a5.316,5.316,0,0,1,.273-.663,4.123,4.123,0,0,0,7.742,2.516,5.305,5.305,0,0,1-.169.7,4.125,4.125,0,1,1-7.846-2.55Z" style="fill:#d1d3d4"/><path d="M267.609,360.5c-2.458-1.785-4.671-6.438-2.886-8.895s6.894-1.79,9.352,0a5.5,5.5,0,0,1-6.466,8.9Z" style="fill:#fff;stroke:gray;stroke-miterlimit:10"/><path d="M268.205,359.235a5.173,5.173,0,0,1-.546-.465,4.123,4.123,0,0,0,4.785-6.586,5.336,5.336,0,0,1,.611.376,4.125,4.125,0,1,1-4.85,6.675Z" style="fill:#d1d3d4"/><path d="M274.075,348.377c-2.458,1.786-7.566,2.453-9.352,0s.428-7.11,2.886-8.895a5.5,5.5,0,0,1,6.466,8.9Z" style="fill:#fff;stroke:gray;stroke-miterlimit:10"/><path d="M273.055,347.418a5.2,5.2,0,0,1-.611.376,4.123,4.123,0,0,0-4.785-6.586,5.281,5.281,0,0,1,.546-.464,4.125,4.125,0,1,1,4.85,6.674Z" style="fill:#d1d3d4"/><path d="M259.656,344.669a9.647,9.647,0,0,0-2.007-1.354,8.851,8.851,0,0,0,2.842,5.32,9.66,9.66,0,0,0,2.007,1.354A8.851,8.851,0,0,0,259.656,344.669Z" style="fill:#fff500;stroke:#dfd700;stroke-linecap:round;stroke-linejoin:round;stroke-width:0.5px"/><path d="M257.072,347.355a9.717,9.717,0,0,0-2.421.085,8.855,8.855,0,0,0,5.427,2.634,9.661,9.661,0,0,0,2.42-.085A8.853,8.853,0,0,0,257.072,347.355Z" style="fill:#fff500;stroke:#dfd700;stroke-linecap:round;stroke-linejoin:round;stroke-width:0.5px"/><path d="M256.56,351.048a9.683,9.683,0,0,0-1.909,1.491,8.856,8.856,0,0,0,5.939-1.059,9.647,9.647,0,0,0,1.908-1.491A8.855,8.855,0,0,0,256.56,351.048Z" style="fill:#fff500;stroke:#dfd700;stroke-linecap:round;stroke-linejoin:round;stroke-width:0.5px"/><path d="M258.316,354.336a9.634,9.634,0,0,0-.667,2.328,8.852,8.852,0,0,0,4.182-4.347,9.679,9.679,0,0,0,.667-2.328A8.856,8.856,0,0,0,258.316,354.336Z" style="fill:#fff500;stroke:#dfd700;stroke-linecap:round;stroke-linejoin:round;stroke-width:0.5px"/><path d="M261.67,355.964a9.667,9.667,0,0,0,.828,2.276,8.854,8.854,0,0,0,.828-5.975,9.667,9.667,0,0,0-.828-2.276A8.854,8.854,0,0,0,261.67,355.964Z" style="fill:#fff500;stroke:#dfd700;stroke-linecap:round;stroke-linejoin:round;stroke-width:0.5px"/><path d="M265.34,355.31a9.666,9.666,0,0,0,2.008,1.354,8.861,8.861,0,0,0-2.842-5.32,9.671,9.671,0,0,0-2.008-1.355A8.85,8.85,0,0,0,265.34,355.31Z" style="fill:#fff500;stroke:#dfd700;stroke-linecap:round;stroke-linejoin:round;stroke-width:0.5px"/><path d="M267.925,352.623a9.662,9.662,0,0,0,2.42-.084,8.855,8.855,0,0,0-5.427-2.634,9.662,9.662,0,0,0-2.42.084A8.855,8.855,0,0,0,267.925,352.623Z" style="fill:#fff500;stroke:#dfd700;stroke-linecap:round;stroke-linejoin:round;stroke-width:0.5px"/><path d="M268.436,348.931a9.721,9.721,0,0,0,1.909-1.491,8.851,8.851,0,0,0-5.939,1.058,9.743,9.743,0,0,0-1.908,1.491A8.847,8.847,0,0,0,268.436,348.931Z" style="fill:#fff500;stroke:#dfd700;stroke-linecap:round;stroke-linejoin:round;stroke-width:0.5px"/><path d="M266.68,345.642a9.688,9.688,0,0,0,.668-2.327,8.849,8.849,0,0,0-4.182,4.346,9.7,9.7,0,0,0-.668,2.328A8.852,8.852,0,0,0,266.68,345.642Z" style="fill:#fff500;stroke:#dfd700;stroke-linecap:round;stroke-linejoin:round;stroke-width:0.5px"/><path d="M263.326,344.014a9.659,9.659,0,0,0-.828-2.275,8.853,8.853,0,0,0-.828,5.975,9.659,9.659,0,0,0,.828,2.275A8.852,8.852,0,0,0,263.326,344.014Z" style="fill:#fff500;stroke:#dfd700;stroke-linecap:round;stroke-linejoin:round;stroke-width:0.5px"/><path d="M245.411,306.43c.939,2.889,0,7.953-2.894,8.892s-6.63-2.6-7.568-5.493a5.5,5.5,0,1,1,10.462-3.4Z" style="fill:#fff;stroke:gray;stroke-miterlimit:10"/><path d="M244.184,307.1a5.152,5.152,0,0,1,.168.7,4.123,4.123,0,0,0-7.742,2.516,5.316,5.316,0,0,1-.273-.663,4.125,4.125,0,1,1,7.847-2.55Z" style="fill:#d1d3d4"/><path d="M233.054,312.437c3.037,0,7.563,2.463,7.563,5.5s-4.526,5.5-7.563,5.5a5.5,5.5,0,1,1,0-11Z" style="fill:#fff;stroke:gray;stroke-miterlimit:10"/><path d="M233.315,313.812a5.312,5.312,0,0,1,.715.055,4.123,4.123,0,0,0,0,8.141,5.312,5.312,0,0,1-.715.055,4.126,4.126,0,0,1,0-8.251Z" style="fill:#d1d3d4"/><path d="M234.949,326.046c.938-2.889,4.679-6.431,7.568-5.493s3.833,6,2.894,8.893a5.5,5.5,0,0,1-10.462-3.4Z" style="fill:#fff;stroke:gray;stroke-miterlimit:10"/><path d="M236.337,326.223a5.254,5.254,0,0,1,.273-.663,4.123,4.123,0,0,0,7.742,2.515,5.116,5.116,0,0,1-.168.7,4.125,4.125,0,0,1-7.847-2.549Z" style="fill:#d1d3d4"/><path d="M248.477,328.45c-2.457-1.786-4.671-6.438-2.885-8.9s6.894-1.79,9.351,0a5.5,5.5,0,0,1-6.466,8.9Z" style="fill:#fff;stroke:gray;stroke-miterlimit:10"/><path d="M249.074,327.183a5.281,5.281,0,0,1-.546-.464,4.123,4.123,0,0,0,4.785-6.586,5.283,5.283,0,0,1,.611.376,4.125,4.125,0,0,1-4.85,6.674Z" style="fill:#d1d3d4"/><path d="M254.943,316.326c-2.457,1.785-7.566,2.453-9.351,0s.428-7.11,2.885-8.9a5.5,5.5,0,0,1,6.466,8.9Z" style="fill:#fff;stroke:gray;stroke-miterlimit:10"/><path d="M253.924,315.367a5.425,5.425,0,0,1-.611.376,4.123,4.123,0,0,0-4.785-6.586,5.173,5.173,0,0,1,.546-.465,4.125,4.125,0,0,1,4.85,6.675Z" style="fill:#d1d3d4"/><path d="M240.525,312.617a9.666,9.666,0,0,0-2.008-1.354,8.848,8.848,0,0,0,2.842,5.32,9.671,9.671,0,0,0,2.008,1.355A8.856,8.856,0,0,0,240.525,312.617Z" style="fill:#fff500;stroke:#dfd700;stroke-linecap:round;stroke-linejoin:round;stroke-width:0.5px"/><path d="M237.94,315.3a9.662,9.662,0,0,0-2.42.084,8.853,8.853,0,0,0,5.427,2.634,9.662,9.662,0,0,0,2.42-.084A8.855,8.855,0,0,0,237.94,315.3Z" style="fill:#fff500;stroke:#dfd700;stroke-linecap:round;stroke-linejoin:round;stroke-width:0.5px"/><path d="M237.428,319a9.714,9.714,0,0,0-1.908,1.491,8.847,8.847,0,0,0,5.938-1.058,9.721,9.721,0,0,0,1.909-1.491A8.851,8.851,0,0,0,237.428,319Z" style="fill:#fff500;stroke:#dfd700;stroke-linecap:round;stroke-linejoin:round;stroke-width:0.5px"/><path d="M239.185,322.285a9.682,9.682,0,0,0-.668,2.328,8.856,8.856,0,0,0,4.182-4.347,9.7,9.7,0,0,0,.668-2.328A8.848,8.848,0,0,0,239.185,322.285Z" style="fill:#fff500;stroke:#dfd700;stroke-linecap:round;stroke-linejoin:round;stroke-width:0.5px"/><path d="M242.539,323.913a9.659,9.659,0,0,0,.828,2.275,8.852,8.852,0,0,0,.828-5.975,9.7,9.7,0,0,0-.828-2.275A8.852,8.852,0,0,0,242.539,323.913Z" style="fill:#fff500;stroke:#dfd700;stroke-linecap:round;stroke-linejoin:round;stroke-width:0.5px"/><path d="M246.209,323.258a9.665,9.665,0,0,0,2.007,1.355,8.85,8.85,0,0,0-2.842-5.321,9.686,9.686,0,0,0-2.007-1.354A8.851,8.851,0,0,0,246.209,323.258Z" style="fill:#fff500;stroke:#dfd700;stroke-linecap:round;stroke-linejoin:round;stroke-width:0.5px"/><path d="M248.793,320.572a9.707,9.707,0,0,0,2.42-.085,8.85,8.85,0,0,0-5.426-2.634,9.707,9.707,0,0,0-2.42.085A8.85,8.85,0,0,0,248.793,320.572Z" style="fill:#fff500;stroke:#dfd700;stroke-linecap:round;stroke-linejoin:round;stroke-width:0.5px"/><path d="M249.305,316.879a9.647,9.647,0,0,0,1.908-1.491,8.855,8.855,0,0,0-5.938,1.059,9.647,9.647,0,0,0-1.908,1.491A8.855,8.855,0,0,0,249.305,316.879Z" style="fill:#fff500;stroke:#dfd700;stroke-linecap:round;stroke-linejoin:round;stroke-width:0.5px"/><path d="M247.549,313.591a9.679,9.679,0,0,0,.667-2.328,8.852,8.852,0,0,0-4.182,4.347,9.679,9.679,0,0,0-.667,2.328A8.856,8.856,0,0,0,247.549,313.591Z" style="fill:#fff500;stroke:#dfd700;stroke-linecap:round;stroke-linejoin:round;stroke-width:0.5px"/><path d="M244.2,311.963a9.712,9.712,0,0,0-.828-2.276,8.854,8.854,0,0,0-.828,5.975,9.667,9.667,0,0,0,.828,2.276A8.854,8.854,0,0,0,244.2,311.963Z" style="fill:#fff500;stroke:#dfd700;stroke-linecap:round;stroke-linejoin:round;stroke-width:0.5px"/><path d="M195.818,246.513c.939,2.889-.005,7.954-2.894,8.892s-6.63-2.6-7.568-5.493a5.5,5.5,0,1,1,10.462-3.4Z" style="fill:#fff;stroke:gray;stroke-miterlimit:10"/><path d="M194.591,247.186a5.152,5.152,0,0,1,.168.7,4.123,4.123,0,0,0-7.742,2.516,5.254,5.254,0,0,1-.273-.663,4.125,4.125,0,0,1,7.847-2.55Z" style="fill:#d1d3d4"/><path d="M183.46,252.521c3.038,0,7.563,2.462,7.563,5.5s-4.525,5.5-7.563,5.5a5.5,5.5,0,1,1,0-11Z" style="fill:#fff;stroke:gray;stroke-miterlimit:10"/><path d="M183.722,253.9a5.153,5.153,0,0,1,.715.055,4.123,4.123,0,0,0,0,8.14,5.312,5.312,0,0,1-.715.055,4.125,4.125,0,1,1,0-8.25Z" style="fill:#d1d3d4"/><path d="M185.356,266.13c.938-2.89,4.679-6.432,7.568-5.494s3.833,6,2.894,8.893a5.5,5.5,0,0,1-10.462-3.4Z" style="fill:#fff;stroke:gray;stroke-miterlimit:10"/><path d="M186.744,266.306a5.254,5.254,0,0,1,.273-.663,4.123,4.123,0,0,0,7.742,2.516,5.152,5.152,0,0,1-.168.7,4.125,4.125,0,0,1-7.847-2.55Z" style="fill:#d1d3d4"/><path d="M198.884,268.533c-2.458-1.786-4.671-6.438-2.885-8.9s6.894-1.79,9.351,0a5.5,5.5,0,0,1-6.466,8.9Z" style="fill:#fff;stroke:gray;stroke-miterlimit:10"/><path d="M199.481,267.267a5.314,5.314,0,0,1-.546-.465,4.123,4.123,0,0,0,4.785-6.586,5.184,5.184,0,0,1,.61.376,4.125,4.125,0,0,1-4.849,6.675Z" style="fill:#d1d3d4"/><path d="M205.35,256.409c-2.457,1.785-7.566,2.453-9.351,0s.427-7.109,2.885-8.9a5.5,5.5,0,0,1,6.466,8.9Z" style="fill:#fff;stroke:gray;stroke-miterlimit:10"/><path d="M204.33,255.45a5.321,5.321,0,0,1-.61.376,4.123,4.123,0,0,0-4.785-6.586,5.191,5.191,0,0,1,.546-.465,4.125,4.125,0,0,1,4.849,6.675Z" style="fill:#d1d3d4"/><path d="M190.932,252.7a9.692,9.692,0,0,0-2.008-1.354,8.85,8.85,0,0,0,2.842,5.321,9.666,9.666,0,0,0,2.008,1.354A8.861,8.861,0,0,0,190.932,252.7Z" style="fill:#fff500;stroke:#dfd700;stroke-linecap:round;stroke-linejoin:round;stroke-width:0.5px"/><path d="M188.347,255.387a9.662,9.662,0,0,0-2.42.084,8.853,8.853,0,0,0,5.426,2.634,9.67,9.67,0,0,0,2.421-.084A8.855,8.855,0,0,0,188.347,255.387Z" style="fill:#fff500;stroke:#dfd700;stroke-linecap:round;stroke-linejoin:round;stroke-width:0.5px"/><path d="M187.835,259.08a9.643,9.643,0,0,0-1.908,1.49,8.848,8.848,0,0,0,5.938-1.058,9.683,9.683,0,0,0,1.909-1.491A8.856,8.856,0,0,0,187.835,259.08Z" style="fill:#fff500;stroke:#dfd700;stroke-linecap:round;stroke-linejoin:round;stroke-width:0.5px"/><path d="M189.592,262.368a9.682,9.682,0,0,0-.668,2.328,8.856,8.856,0,0,0,4.182-4.347,9.682,9.682,0,0,0,.668-2.328A8.848,8.848,0,0,0,189.592,262.368Z" style="fill:#fff500;stroke:#dfd700;stroke-linecap:round;stroke-linejoin:round;stroke-width:0.5px"/><path d="M192.945,264a9.661,9.661,0,0,0,.829,2.275,8.85,8.85,0,0,0,.828-5.974,9.7,9.7,0,0,0-.828-2.276A8.853,8.853,0,0,0,192.945,264Z" style="fill:#fff500;stroke:#dfd700;stroke-linecap:round;stroke-linejoin:round;stroke-width:0.5px"/><path d="M196.616,263.341a9.665,9.665,0,0,0,2.007,1.355,8.85,8.85,0,0,0-2.842-5.321,9.686,9.686,0,0,0-2.007-1.354A8.851,8.851,0,0,0,196.616,263.341Z" style="fill:#fff500;stroke:#dfd700;stroke-linecap:round;stroke-linejoin:round;stroke-width:0.5px"/><path d="M199.2,260.655a9.659,9.659,0,0,0,2.42-.085,8.85,8.85,0,0,0-5.426-2.634,9.707,9.707,0,0,0-2.42.085A8.85,8.85,0,0,0,199.2,260.655Z" style="fill:#fff500;stroke:#dfd700;stroke-linecap:round;stroke-linejoin:round;stroke-width:0.5px"/><path d="M199.712,256.962a9.647,9.647,0,0,0,1.908-1.491,8.855,8.855,0,0,0-5.938,1.059,9.647,9.647,0,0,0-1.908,1.491A8.855,8.855,0,0,0,199.712,256.962Z" style="fill:#fff500;stroke:#dfd700;stroke-linecap:round;stroke-linejoin:round;stroke-width:0.5px"/><path d="M197.956,253.674a9.679,9.679,0,0,0,.667-2.328,8.856,8.856,0,0,0-4.182,4.347,9.634,9.634,0,0,0-.667,2.328A8.856,8.856,0,0,0,197.956,253.674Z" style="fill:#fff500;stroke:#dfd700;stroke-linecap:round;stroke-linejoin:round;stroke-width:0.5px"/><path d="M194.6,252.046a9.712,9.712,0,0,0-.828-2.276,8.854,8.854,0,0,0-.829,5.975,9.669,9.669,0,0,0,.829,2.276A8.854,8.854,0,0,0,194.6,252.046Z" style="fill:#fff500;stroke:#dfd700;stroke-linecap:round;stroke-linejoin:round;stroke-width:0.5px"/><path d="M199.172,171.4c.939,2.889,0,7.954-2.894,8.892s-6.629-2.6-7.568-5.493a5.5,5.5,0,1,1,10.462-3.4Z" style="fill:#fff;stroke:gray;stroke-miterlimit:10"/><path d="M197.945,172.076a5.305,5.305,0,0,1,.169.7,4.123,4.123,0,0,0-7.742,2.516,5.178,5.178,0,0,1-.274-.663,4.125,4.125,0,0,1,7.847-2.55Z" style="fill:#d1d3d4"/><path d="M186.815,177.41c3.037,0,7.563,2.463,7.563,5.5s-4.526,5.5-7.563,5.5a5.5,5.5,0,1,1,0-11Z" style="fill:#fff;stroke:gray;stroke-miterlimit:10"/><path d="M187.076,178.786a5.141,5.141,0,0,1,.715.055,4.123,4.123,0,0,0,0,8.14,5.3,5.3,0,0,1-.715.055,4.125,4.125,0,1,1,0-8.25Z" style="fill:#d1d3d4"/><path d="M188.71,191.019c.939-2.889,4.679-6.431,7.568-5.493s3.833,6,2.894,8.893a5.5,5.5,0,0,1-10.462-3.4Z" style="fill:#fff;stroke:gray;stroke-miterlimit:10"/><path d="M190.1,191.2a5.119,5.119,0,0,1,.274-.663,4.123,4.123,0,0,0,7.742,2.515,5.267,5.267,0,0,1-.169.7A4.125,4.125,0,0,1,190.1,191.2Z" style="fill:#d1d3d4"/><path d="M202.238,193.423c-2.457-1.786-4.671-6.438-2.885-8.9s6.894-1.79,9.351,0a5.5,5.5,0,0,1-6.466,8.9Z" style="fill:#fff;stroke:gray;stroke-miterlimit:10"/><path d="M202.835,192.157a5.422,5.422,0,0,1-.546-.465,4.123,4.123,0,0,0,4.785-6.586,5.283,5.283,0,0,1,.611.376,4.125,4.125,0,0,1-4.85,6.675Z" style="fill:#d1d3d4"/><path d="M208.7,181.3c-2.457,1.785-7.566,2.453-9.351,0s.428-7.109,2.885-8.9a5.5,5.5,0,0,1,6.466,8.9Z" style="fill:#fff;stroke:gray;stroke-miterlimit:10"/><path d="M207.685,180.34a5.425,5.425,0,0,1-.611.376,4.123,4.123,0,0,0-4.785-6.586,5.3,5.3,0,0,1,.546-.465,4.125,4.125,0,0,1,4.85,6.675Z" style="fill:#d1d3d4"/><path d="M194.286,177.59a9.666,9.666,0,0,0-2.008-1.354,8.863,8.863,0,0,0,2.842,5.321,9.666,9.666,0,0,0,2.008,1.354A8.85,8.85,0,0,0,194.286,177.59Z" style="fill:#fff500;stroke:#dfd700;stroke-linecap:round;stroke-linejoin:round;stroke-width:0.5px"/><path d="M191.7,180.277a9.662,9.662,0,0,0-2.42.084A8.855,8.855,0,0,0,194.708,183a9.662,9.662,0,0,0,2.42-.084A8.855,8.855,0,0,0,191.7,180.277Z" style="fill:#fff500;stroke:#dfd700;stroke-linecap:round;stroke-linejoin:round;stroke-width:0.5px"/><path d="M191.189,183.97a9.7,9.7,0,0,0-1.908,1.49,8.851,8.851,0,0,0,5.939-1.058,9.706,9.706,0,0,0,1.908-1.491A8.852,8.852,0,0,0,191.189,183.97Z" style="fill:#fff500;stroke:#dfd700;stroke-linecap:round;stroke-linejoin:round;stroke-width:0.5px"/><path d="M192.946,187.258a9.682,9.682,0,0,0-.668,2.328,8.852,8.852,0,0,0,4.182-4.347,9.682,9.682,0,0,0,.668-2.328A8.852,8.852,0,0,0,192.946,187.258Z" style="fill:#fff500;stroke:#dfd700;stroke-linecap:round;stroke-linejoin:round;stroke-width:0.5px"/><path d="M196.3,188.886a9.659,9.659,0,0,0,.828,2.275,8.852,8.852,0,0,0,.828-5.975,9.659,9.659,0,0,0-.828-2.275A8.853,8.853,0,0,0,196.3,188.886Z" style="fill:#fff500;stroke:#dfd700;stroke-linecap:round;stroke-linejoin:round;stroke-width:0.5px"/><path d="M199.97,188.231a9.692,9.692,0,0,0,2.007,1.355,8.85,8.85,0,0,0-2.842-5.321,9.66,9.66,0,0,0-2.007-1.354A8.851,8.851,0,0,0,199.97,188.231Z" style="fill:#fff500;stroke:#dfd700;stroke-linecap:round;stroke-linejoin:round;stroke-width:0.5px"/><path d="M202.554,185.545a9.669,9.669,0,0,0,2.421-.085,8.855,8.855,0,0,0-5.427-2.634,9.709,9.709,0,0,0-2.42.085A8.853,8.853,0,0,0,202.554,185.545Z" style="fill:#fff500;stroke:#dfd700;stroke-linecap:round;stroke-linejoin:round;stroke-width:0.5px"/><path d="M203.066,181.852a9.683,9.683,0,0,0,1.909-1.491,8.856,8.856,0,0,0-5.939,1.059,9.647,9.647,0,0,0-1.908,1.491A8.855,8.855,0,0,0,203.066,181.852Z" style="fill:#fff500;stroke:#dfd700;stroke-linecap:round;stroke-linejoin:round;stroke-width:0.5px"/><path d="M201.31,178.564a9.634,9.634,0,0,0,.667-2.328,8.856,8.856,0,0,0-4.182,4.347,9.679,9.679,0,0,0-.667,2.328A8.856,8.856,0,0,0,201.31,178.564Z" style="fill:#fff500;stroke:#dfd700;stroke-linecap:round;stroke-linejoin:round;stroke-width:0.5px"/><path d="M197.956,176.936a9.667,9.667,0,0,0-.828-2.276,8.854,8.854,0,0,0-.828,5.975,9.667,9.667,0,0,0,.828,2.276A8.854,8.854,0,0,0,197.956,176.936Z" style="fill:#fff500;stroke:#dfd700;stroke-linecap:round;stroke-linejoin:round;stroke-width:0.5px"/><path d="M247.324,96.384c.938,2.889-.005,7.954-2.894,8.893s-6.63-2.6-7.569-5.493a5.5,5.5,0,0,1,10.463-3.4Z" style="fill:#fff;stroke:gray;stroke-miterlimit:10"/><path d="M246.1,97.058a5.307,5.307,0,0,1,.168.7,4.123,4.123,0,0,0-7.742,2.515,5.194,5.194,0,0,1-.273-.663,4.125,4.125,0,1,1,7.847-2.549Z" style="fill:#d1d3d4"/><path d="M234.966,102.392c3.038,0,7.563,2.463,7.563,5.5s-4.525,5.5-7.563,5.5a5.5,5.5,0,0,1,0-11Z" style="fill:#fff;stroke:gray;stroke-miterlimit:10"/><path d="M235.228,103.767a5.324,5.324,0,0,1,.715.055,4.123,4.123,0,0,0,0,8.141,5.324,5.324,0,0,1-.715.055,4.126,4.126,0,1,1,0-8.251Z" style="fill:#d1d3d4"/><path d="M236.861,116c.939-2.889,4.679-6.432,7.569-5.493s3.832,6,2.894,8.893a5.5,5.5,0,0,1-10.463-3.4Z" style="fill:#fff;stroke:gray;stroke-miterlimit:10"/><path d="M238.25,116.178a5.194,5.194,0,0,1,.273-.663,4.123,4.123,0,0,0,7.742,2.515,5.307,5.307,0,0,1-.168.7,4.125,4.125,0,1,1-7.847-2.549Z" style="fill:#d1d3d4"/><path d="M250.39,118.4c-2.458-1.785-4.671-6.437-2.886-8.895s6.894-1.79,9.352,0a5.5,5.5,0,0,1-6.466,8.9Z" style="fill:#fff;stroke:gray;stroke-miterlimit:10"/><path d="M250.987,117.138a5.075,5.075,0,0,1-.546-.465,4.123,4.123,0,0,0,4.785-6.585,5.181,5.181,0,0,1,.61.375,4.125,4.125,0,1,1-4.849,6.675Z" style="fill:#d1d3d4"/><path d="M256.856,106.28c-2.458,1.786-7.566,2.454-9.352,0s.428-7.11,2.886-8.895a5.5,5.5,0,1,1,6.466,8.9Z" style="fill:#fff;stroke:gray;stroke-miterlimit:10"/><path d="M255.836,105.322a5.181,5.181,0,0,1-.61.375,4.123,4.123,0,0,0-4.785-6.585,5.075,5.075,0,0,1,.546-.465,4.125,4.125,0,1,1,4.849,6.675Z" style="fill:#d1d3d4"/><path d="M242.437,102.572a9.66,9.66,0,0,0-2.007-1.354,8.851,8.851,0,0,0,2.842,5.32,9.647,9.647,0,0,0,2.007,1.354A8.851,8.851,0,0,0,242.437,102.572Z" style="fill:#fff500;stroke:#dfd700;stroke-linecap:round;stroke-linejoin:round;stroke-width:0.5px"/><path d="M239.853,105.258a9.707,9.707,0,0,0-2.42.085,8.85,8.85,0,0,0,5.426,2.634,9.659,9.659,0,0,0,2.42-.085A8.85,8.85,0,0,0,239.853,105.258Z" style="fill:#fff500;stroke:#dfd700;stroke-linecap:round;stroke-linejoin:round;stroke-width:0.5px"/><path d="M239.341,108.951a9.647,9.647,0,0,0-1.908,1.491,8.855,8.855,0,0,0,5.938-1.059,9.647,9.647,0,0,0,1.908-1.491A8.855,8.855,0,0,0,239.341,108.951Z" style="fill:#fff500;stroke:#dfd700;stroke-linecap:round;stroke-linejoin:round;stroke-width:0.5px"/><path d="M241.1,112.239a9.692,9.692,0,0,0-.667,2.328,8.852,8.852,0,0,0,4.182-4.347,9.634,9.634,0,0,0,.667-2.328A8.856,8.856,0,0,0,241.1,112.239Z" style="fill:#fff500;stroke:#dfd700;stroke-linecap:round;stroke-linejoin:round;stroke-width:0.5px"/><path d="M244.451,113.867a9.7,9.7,0,0,0,.828,2.276,8.854,8.854,0,0,0,.829-5.975,9.669,9.669,0,0,0-.829-2.276A8.854,8.854,0,0,0,244.451,113.867Z" style="fill:#fff500;stroke:#dfd700;stroke-linecap:round;stroke-linejoin:round;stroke-width:0.5px"/><path d="M248.121,113.213a9.692,9.692,0,0,0,2.008,1.354,8.851,8.851,0,0,0-2.842-5.32,9.671,9.671,0,0,0-2.008-1.355A8.861,8.861,0,0,0,248.121,113.213Z" style="fill:#fff500;stroke:#dfd700;stroke-linecap:round;stroke-linejoin:round;stroke-width:0.5px"/><path d="M250.706,110.526a9.662,9.662,0,0,0,2.42-.084,8.853,8.853,0,0,0-5.426-2.634,9.67,9.67,0,0,0-2.421.084A8.85,8.85,0,0,0,250.706,110.526Z" style="fill:#fff500;stroke:#dfd700;stroke-linecap:round;stroke-linejoin:round;stroke-width:0.5px"/><path d="M251.218,106.834a9.647,9.647,0,0,0,1.908-1.491,8.855,8.855,0,0,0-5.938,1.059,9.717,9.717,0,0,0-1.909,1.49A8.85,8.85,0,0,0,251.218,106.834Z" style="fill:#fff500;stroke:#dfd700;stroke-linecap:round;stroke-linejoin:round;stroke-width:0.5px"/><path d="M249.461,103.545a9.675,9.675,0,0,0,.668-2.327,8.852,8.852,0,0,0-4.182,4.347,9.688,9.688,0,0,0-.668,2.327A8.848,8.848,0,0,0,249.461,103.545Z" style="fill:#fff500;stroke:#dfd700;stroke-linecap:round;stroke-linejoin:round;stroke-width:0.5px"/><path d="M246.108,101.918a9.652,9.652,0,0,0-.829-2.276,8.853,8.853,0,0,0-.828,5.975,9.687,9.687,0,0,0,.828,2.275A8.85,8.85,0,0,0,246.108,101.918Z" style="fill:#fff500;stroke:#dfd700;stroke-linecap:round;stroke-linejoin:round;stroke-width:0.5px"/><path d="M409.355,65.538c.853,2.568,12.664,27.191,33.6,31.244a37.862,37.862,0,0,0,18.357-1.244,33.656,33.656,0,0,0-7.323-18.39C444.479,65.6,426.774,60.967,409.355,65.538Z" style="fill:#fff500;stroke:#807b00;stroke-linecap:round;stroke-linejoin:round"/><path d="M461.316,95.538A54.908,54.908,0,0,0,450.95,81.929c-15.6-14.906-35.564-16.219-41.595-16.391,8.766,1.26,25.89,5.038,41.13,18.278A73.159,73.159,0,0,1,461.316,95.538Z" style="fill:#dfd700"/><path d="M457.718,88.54c.159,2.7,5.195,29.543,24.372,38.877a37.863,37.863,0,0,0,18.054,3.55,33.649,33.649,0,0,0-2.314-19.659C491.629,97.693,475.727,88.634,457.718,88.54Z" style="fill:#fff500;stroke:#807b00;stroke-linecap:round;stroke-linejoin:round"/><path d="M500.144,130.967a54.9,54.9,0,0,0-6.49-15.828C482.44,96.7,463.5,90.268,457.718,88.54c8.141,3.486,23.7,11.567,35,28.3A73.148,73.148,0,0,1,500.144,130.967Z" style="fill:#dfd700"/><path d="M441.718,88.54c.159,2.7,5.195,29.543,24.372,38.877a37.863,37.863,0,0,0,18.054,3.55,33.649,33.649,0,0,0-2.314-19.659C475.629,97.693,459.727,88.634,441.718,88.54Z" style="fill:#fff500;stroke:#807b00;stroke-linecap:round;stroke-linejoin:round"/><path d="M484.144,130.967a54.9,54.9,0,0,0-6.49-15.828C466.44,96.7,447.5,90.268,441.718,88.54c8.141,3.486,23.7,11.567,35,28.3A73.148,73.148,0,0,1,484.144,130.967Z" style="fill:#dfd700"/><path d="M493.921,119.039c-.545,2.651-2.629,29.881,13.48,43.86a37.854,37.854,0,0,0,16.52,8.1,33.653,33.653,0,0,0,2.852-19.588C524.308,136.657,511.292,123.791,493.921,119.039Z" style="fill:#fff500;stroke:#807b00;stroke-linecap:round;stroke-linejoin:round"/><path d="M523.921,171a54.933,54.933,0,0,0-2.173-16.968c-6.06-20.711-22.69-31.829-27.827-34.994,6.961,5.474,19.9,17.308,26.48,36.395A73.167,73.167,0,0,1,523.921,171Z" style="fill:#dfd700"/><path d="M481.921,119.039c-.545,2.651-2.629,29.881,13.48,43.86a37.854,37.854,0,0,0,16.52,8.1,33.653,33.653,0,0,0,2.852-19.588C512.308,136.657,499.292,123.791,481.921,119.039Z" style="fill:#fff500;stroke:#807b00;stroke-linecap:round;stroke-linejoin:round"/><path d="M511.921,171a54.933,54.933,0,0,0-2.173-16.968c-6.06-20.711-22.69-31.829-27.827-34.994,6.961,5.474,19.9,17.308,26.48,36.395A73.167,73.167,0,0,1,511.921,171Z" style="fill:#dfd700"/><path d="M522.465,161.845c-1.212,2.419-10.272,28.182,1.669,45.855a37.865,37.865,0,0,0,13.86,12.1,33.651,33.651,0,0,0,7.825-18.182C547.257,186.727,538.015,170.931,522.465,161.845Z" style="fill:#fff500;stroke:#807b00;stroke-linecap:round;stroke-linejoin:round"/><path d="M537.994,219.8a54.864,54.864,0,0,0,2.293-16.953c-.493-21.573-13.678-36.616-17.822-41,5.308,7.09,14.746,21.87,16.159,42.008A73.118,73.118,0,0,1,537.994,219.8Z" style="fill:#dfd700"/><path d="M512.865,161.845c-1.212,2.419-10.272,28.182,1.669,45.855a37.865,37.865,0,0,0,13.86,12.1,33.651,33.651,0,0,0,7.825-18.182C537.657,186.727,528.415,170.931,512.865,161.845Z" style="fill:#fff500;stroke:#807b00;stroke-linecap:round;stroke-linejoin:round"/><path d="M528.394,219.8a54.864,54.864,0,0,0,2.293-16.953c-.493-21.573-13.678-36.616-17.822-41,5.308,7.09,14.746,21.87,16.159,42.008A73.118,73.118,0,0,1,528.394,219.8Z" style="fill:#dfd700"/><path d="M501.665,161.845c-1.212,2.419-10.272,28.182,1.669,45.855a37.865,37.865,0,0,0,13.86,12.1,33.651,33.651,0,0,0,7.825-18.182C526.457,186.727,517.215,170.931,501.665,161.845Z" style="fill:#fff500;stroke:#807b00;stroke-linecap:round;stroke-linejoin:round"/><path d="M517.194,219.8a54.864,54.864,0,0,0,2.293-16.953c-.493-21.573-13.678-36.616-17.822-41,5.308,7.09,14.746,21.87,16.159,42.008A73.118,73.118,0,0,1,517.194,219.8Z" style="fill:#dfd700"/><path d="M537.249,203.8c-1.8,2.022-17.216,24.563-10.255,44.724A37.864,37.864,0,0,0,537.249,263.8a33.654,33.654,0,0,0,12.265-15.537C554.757,234.252,549.918,216.6,537.249,203.8Z" style="fill:#fff500;stroke:#807b00;stroke-linecap:round;stroke-linejoin:round"/><path d="M537.249,263.8a54.87,54.87,0,0,0,6.6-15.782c5.107-20.965-3.736-38.908-6.6-44.218,3.292,8.221,8.583,24.941,4.736,44.758A73.146,73.146,0,0,1,537.249,263.8Z" style="fill:#dfd700"/><path d="M526.049,203.8c-1.8,2.022-17.216,24.563-10.255,44.724A37.864,37.864,0,0,0,526.049,263.8a33.654,33.654,0,0,0,12.265-15.537C543.557,234.252,538.718,216.6,526.049,203.8Z" style="fill:#fff500;stroke:#807b00;stroke-linecap:round;stroke-linejoin:round"/><path d="M526.049,263.8a54.87,54.87,0,0,0,6.6-15.782c5.107-20.965-3.736-38.908-6.6-44.218,3.292,8.221,8.583,24.941,4.736,44.758A73.146,73.146,0,0,1,526.049,263.8Z" style="fill:#dfd700"/><path d="M515.649,203.8c-1.8,2.022-17.216,24.563-10.255,44.724A37.864,37.864,0,0,0,515.649,263.8a33.654,33.654,0,0,0,12.265-15.537C533.157,234.252,528.318,216.6,515.649,203.8Z" style="fill:#fff500;stroke:#807b00;stroke-linecap:round;stroke-linejoin:round"/><path d="M515.649,263.8a54.87,54.87,0,0,0,6.6-15.782c5.107-20.965-3.736-38.908-6.6-44.218,3.292,8.221,8.583,24.941,4.736,44.758A73.146,73.146,0,0,1,515.649,263.8Z" style="fill:#dfd700"/><path d="M540.192,252.245c-2.259,1.489-22.987,19.271-21.482,40.546a37.867,37.867,0,0,0,5.953,17.41,33.658,33.658,0,0,0,15.868-11.834C549.222,286.19,549.116,267.888,540.192,252.245Z" style="fill:#fff500;stroke:#807b00;stroke-linecap:round;stroke-linejoin:round"/><path d="M524.663,310.2a54.9,54.9,0,0,0,10.462-13.535c10.36-18.929,6.462-38.55,5.067-44.421,1.052,8.794,1.835,26.313-7.01,44.459A73.173,73.173,0,0,1,524.663,310.2Z" style="fill:#dfd700"/><path d="M530.592,252.245c-2.259,1.489-22.987,19.271-21.482,40.546a37.867,37.867,0,0,0,5.953,17.41,33.658,33.658,0,0,0,15.868-11.834C539.622,286.19,539.516,267.888,530.592,252.245Z" style="fill:#fff500;stroke:#807b00;stroke-linecap:round;stroke-linejoin:round"/><path d="M515.063,310.2a54.9,54.9,0,0,0,10.462-13.535c10.36-18.929,6.462-38.55,5.067-44.421,1.052,8.794,1.835,26.313-7.01,44.459A73.173,73.173,0,0,1,515.063,310.2Z" style="fill:#dfd700"/><path d="M522.592,252.245c-2.259,1.489-22.987,19.271-21.482,40.546a37.867,37.867,0,0,0,5.953,17.41,33.658,33.658,0,0,0,15.868-11.834C531.622,286.19,531.516,267.888,522.592,252.245Z" style="fill:#fff500;stroke:#807b00;stroke-linecap:round;stroke-linejoin:round"/><path d="M507.063,310.2a54.9,54.9,0,0,0,10.462-13.535c10.36-18.929,6.462-38.55,5.067-44.421,1.052,8.794,1.835,26.313-7.01,44.459A73.173,73.173,0,0,1,507.063,310.2Z" style="fill:#dfd700"/><path d="M529.461,301.819c-2.568.853-27.191,12.664-31.244,33.6a37.866,37.866,0,0,0,1.244,18.358,33.659,33.659,0,0,0,18.39-7.324C529.4,336.944,534.032,319.239,529.461,301.819Z" style="fill:#fff500;stroke:#807b00;stroke-linecap:round;stroke-linejoin:round"/><path d="M499.461,353.781a54.932,54.932,0,0,0,13.609-10.366c14.906-15.6,16.219-35.564,16.391-41.6-1.26,8.766-5.038,25.891-18.278,41.13A73.169,73.169,0,0,1,499.461,353.781Z" style="fill:#dfd700"/><path d="M517.461,301.819c-2.568.853-27.191,12.664-31.244,33.6a37.866,37.866,0,0,0,1.244,18.358,33.659,33.659,0,0,0,18.39-7.324C517.4,336.944,522.032,319.239,517.461,301.819Z" style="fill:#fff500;stroke:#807b00;stroke-linecap:round;stroke-linejoin:round"/><path d="M487.461,353.781a54.932,54.932,0,0,0,13.609-10.366c14.906-15.6,16.219-35.564,16.391-41.6-1.26,8.766-5.038,25.891-18.278,41.13A73.169,73.169,0,0,1,487.461,353.781Z" style="fill:#dfd700"/><path d="M502.03,348.837c-2.7.159-29.542,5.195-38.876,24.372a37.851,37.851,0,0,0-3.55,18.054,33.65,33.65,0,0,0,19.659-2.314C492.878,382.748,501.937,366.846,502.03,348.837Z" style="fill:#fff500;stroke:#807b00;stroke-linecap:round;stroke-linejoin:round"/><path d="M459.6,391.263a54.914,54.914,0,0,0,15.828-6.49c18.436-11.214,24.871-30.154,26.6-35.936-3.485,8.141-11.567,23.7-28.3,35A73.1,73.1,0,0,1,459.6,391.263Z" style="fill:#dfd700"/><polygon points="278.117 415.238 227.372 466.2 227.372 440.834 278.117 389.872 278.117 415.238" style="fill:#fff;stroke:gray;stroke-miterlimit:10;fill-rule:evenodd"/><polygon points="441.653 415.238 492.628 466.2 492.628 440.834 441.653 389.872 441.653 415.238" style="fill:#fff;stroke:gray;stroke-miterlimit:10;fill-rule:evenodd"/><polygon points="252.745 389.872 202 440.834 227.372 440.834 278.117 389.872 252.745 389.872" style="fill:#fe0000;stroke:#7f0000;fill-rule:evenodd"/><polygon points="467.025 389.872 518 440.834 492.628 440.834 441.653 389.872 467.025 389.872" style="fill:#fe0000;stroke:#7f0000;fill-rule:evenodd"/><rect x="250.207" y="399.19" width="74.041" height="18.448" style="fill:#fff;stroke:gray;stroke-miterlimit:10"/><rect x="395.665" y="399.261" width="74.041" height="18.448" style="fill:#fff;stroke:gray;stroke-miterlimit:10"/><rect x="250.207" y="380.742" width="74.041" height="18.448" style="fill:#fe0000;stroke:#7f0000"/><rect x="395.665" y="380.813" width="74.041" height="18.448" style="fill:#fe0000;stroke:#7f0000"/><polygon points="303.028 401.496 324.248 417.638 324.248 401.496 303.028 401.496" style="fill:#6c7a69;stroke:gray;stroke-linejoin:round;fill-rule:evenodd"/><polygon points="416.972 401.496 395.521 417.638 395.521 401.496 416.972 401.496" style="fill:#6c7a69;stroke:gray;stroke-linejoin:round;fill-rule:evenodd"/><polygon points="360 383.048 303.028 383.048 303.028 401.496 360 401.496 416.972 401.496 416.972 383.048 360 383.048" style="fill:#fff;stroke:gray;stroke-miterlimit:10;fill-rule:evenodd"/><polygon points="360 364.6 303.028 364.6 303.028 383.048 360 383.048 416.972 383.048 416.972 364.6 360 364.6" style="fill:#fe0000;stroke:#7f0000;fill-rule:evenodd"/><path d="M422.07,280.708c-.8-21.709-11.764-37.384-17.161-44.091v0a9.594,9.594,0,0,0,2.336-15.231,9.582,9.582,0,0,0-3.312-12.573,9.55,9.55,0,0,0-3.453-10.943,9.558,9.558,0,0,0-3.825-11.565,9.567,9.567,0,0,0-6.692-12.422l0-.013c-7.862-5.33-19.853-15.449-25.324-31.332-3.719-10.795-3.831-22.517-3.888-28.944a120.872,120.872,0,0,1,.864-15.552c-25.769,16.139-40.661,39.182-36.636,58.933a34.488,34.488,0,0,0,6.108,13.5,33.564,33.564,0,0,0-.638,59.183c36.16,23.741,43.087,65.393,27.017,86.038-15.818,20.323-50.127,15.422-51.579,15.195a68.411,68.411,0,0,1,39.888,31.536l5.184,3.456v16.16l-6.24,23.52v99.2a14.4,14.4,0,0,0,28.8,0v-99.2l-5.424-23.52V365.88l5.184-3.456,2.544-7.776C405.032,338.742,423.155,310.2,422.07,280.708Zm-37.683-97.536a3.2,3.2,0,1,1,3.2,3.2A3.2,3.2,0,0,1,384.387,183.172Zm3.945,11.24a3.2,3.2,0,1,1,3.2,3.2A3.2,3.2,0,0,1,388.332,194.412Zm3.344,11.24a3.2,3.2,0,1,1,3.2,3.2A3.2,3.2,0,0,1,391.676,205.652Zm3.888,11.24a3.2,3.2,0,1,1,3.2,3.2A3.2,3.2,0,0,1,395.564,216.892Zm4.856,14.439a3.2,3.2,0,1,1,3.2-3.2A3.2,3.2,0,0,1,400.42,231.331Z" style="fill:#fff;stroke:gray;stroke-linecap:square;stroke-linejoin:round"/><path d="M330.93,170a36.135,36.135,0,0,1,7.317-1.428,35.54,35.54,0,0,1,7.429.117,36.343,36.343,0,0,1,13.92,4.739,36.083,36.083,0,0,0-13.972-4.241,34.945,34.945,0,0,0-14.386,1.765l-.473.162-.313-.968Z" style="fill:gray"/><path d="M417.932,288.992c-2.024,40.216-43.816,61.1-45.808,62.056l-2.048,8.976-5.184,3.456V371L364,381.56l5.98,24v96.8a3.625,3.625,0,0,1-7.2,0v-96.8L353.356,371v-7.52l-5.184-3.456a127.992,127.992,0,0,0-8.592-12.048c12.728.632,21.5-2.664,26.68-5.344,23.688-12.272,36.1-44.984,30.872-81.968l12.816-5.568A65.226,65.226,0,0,1,417.932,288.992Z" style="fill:#9e9998"/><path d="M400.42,233.4A73.98,73.98,0,0,0,384,245.064q-15.828-25.332-31.656-50.648c2.288-2.976,15.112-19.152,30.576-17.176a20.752,20.752,0,0,1,4.664,1.152c.064.264.128.528.184.792a1.356,1.356,0,0,0-.184-.008,4,4,0,1,0,1.936,7.5c.3,1.3.608,2.592.9,3.888a4,4,0,0,0,1.1,7.848,4.208,4.208,0,0,0,.712-.064c.288,1.232.576,2.472.864,3.7a4,4,0,0,0,1.768,7.592h.008c.336,1.48.688,2.952,1.032,4.432a4,4,0,0,0,1.536,6.584c.312,1.344.624,2.68.936,4.024a3.993,3.993,0,0,0,1.728,7.424C400.22,232.544,400.316,232.968,400.42,233.4Z" style="fill:#dededd"/><path d="M369.223,274.147a41.6,41.6,0,0,0,2.853-13.867c.193-6.542-1.223-12.619-4.9-20.928-9.545-21.593-24.82-36.755-35.616-39.456-1.506-.377-4.829-1.16-7.43.573-3.661,2.439-3.559,8.309-3.541,8.918.259,8.551,9.883,11,24.123,24.781,12.014,11.625,17.245,21.571,18.528,24.1A77.644,77.644,0,0,1,369.223,274.147Z" style="fill:#dededd"/><path d="M356.14,109.272a35.125,35.125,0,0,0-8.736,6.912c-3.958,16.379-.1,31.783,10.053,38.918a24.479,24.479,0,0,0,11.355,4.186,62.047,62.047,0,0,1-7.237-11.6C354.1,132.089,355.018,117.087,356.14,109.272Z" style="fill:#dededd"/><path d="M384,377a6.088,6.088,0,0,1-4.8,5.812,7.008,7.008,0,0,1-1.6.188H342.4a6.013,6.013,0,1,1,0-12h35.2a6.952,6.952,0,0,1,1.6.188A6.087,6.087,0,0,1,384,377Z" style="fill:#fff;stroke:gray;stroke-linecap:square;stroke-linejoin:round"/><path d="M384,389a6.088,6.088,0,0,1-4.8,5.812,7.008,7.008,0,0,1-1.6.188H342.4a6.013,6.013,0,1,1,0-12h35.2a6.952,6.952,0,0,1,1.6.188A6.087,6.087,0,0,1,384,389Z" style="fill:#fff;stroke:gray;stroke-linecap:square;stroke-linejoin:round"/><path d="M384,401a6.088,6.088,0,0,1-4.8,5.812,7.008,7.008,0,0,1-1.6.188H342.4a6.013,6.013,0,1,1,0-12h35.2a6.952,6.952,0,0,1,1.6.188A6.087,6.087,0,0,1,384,401Z" style="fill:#fff;stroke:gray;stroke-linecap:square;stroke-linejoin:round"/><path d="M384,413a6.088,6.088,0,0,1-4.8,5.812,7.008,7.008,0,0,1-1.6.188H342.4a6.013,6.013,0,1,1,0-12h35.2a6.952,6.952,0,0,1,1.6.188A6.087,6.087,0,0,1,384,413Z" style="fill:#fff;stroke:gray;stroke-linecap:square;stroke-linejoin:round"/><path d="M364,379.4a1.217,1.217,0,0,1-.96,1.16,1.4,1.4,0,0,1-.32.04H341.28a1.2,1.2,0,1,1,0-2.4h21.44a1.4,1.4,0,0,1,.32.04A1.217,1.217,0,0,1,364,379.4Z" style="fill:#9e9998"/><path d="M364,391.4a1.217,1.217,0,0,1-.96,1.16,1.4,1.4,0,0,1-.32.04H341.28a1.2,1.2,0,1,1,0-2.4h21.44a1.4,1.4,0,0,1,.32.04A1.217,1.217,0,0,1,364,391.4Z" style="fill:#9e9998"/><path d="M364,403.4a1.217,1.217,0,0,1-.96,1.16,1.4,1.4,0,0,1-.32.04H341.28a1.2,1.2,0,1,1,0-2.4h21.44a1.4,1.4,0,0,1,.32.04A1.217,1.217,0,0,1,364,403.4Z" style="fill:#9e9998"/><path d="M364,415.4a1.217,1.217,0,0,1-.96,1.16,1.4,1.4,0,0,1-.32.04H341.28a1.2,1.2,0,1,1,0-2.4h21.44a1.4,1.4,0,0,1,.32.04A1.217,1.217,0,0,1,364,415.4Z" style="fill:#9e9998"/><polygon points="360 36.645 367.91 61.087 393.6 61.056 372.798 76.132 380.766 100.555 360 85.43 339.234 100.555 347.202 76.132 326.4 61.056 352.09 61.087 360 36.645" style="fill:#faec24;stroke:#7b7412;stroke-linecap:round;stroke-linejoin:round"/></svg>