<?xml version="1.0" encoding="UTF-8" standalone="no"?>
<svg
   xmlns:dc="http://purl.org/dc/elements/1.1/"
   xmlns:cc="http://creativecommons.org/ns#"
   xmlns:rdf="http://www.w3.org/1999/02/22-rdf-syntax-ns#"
   xmlns:svg="http://www.w3.org/2000/svg"
   xmlns="http://www.w3.org/2000/svg"
   xmlns:xlink="http://www.w3.org/1999/xlink"
   xmlns:sodipodi="http://sodipodi.sourceforge.net/DTD/sodipodi-0.dtd"
   xmlns:inkscape="http://www.inkscape.org/namespaces/inkscape"
   width="300.556"
   height="361.946"
   viewBox="0 0 79.522 95.765"
   version="1.1"
   id="svg335"
   sodipodi:docname="Seal of Pandeglang Regency (1).svg"
   inkscape:version="1.0.1 (3bc2e813f5, 2020-09-07)">
  <metadata
     id="metadata339">
    <rdf:RDF>
      <cc:Work
         rdf:about="">
        <dc:format>image/svg+xml</dc:format>
        <dc:type
           rdf:resource="http://purl.org/dc/dcmitype/StillImage" />
      </cc:Work>
    </rdf:RDF>
  </metadata>
  <sodipodi:namedview
     pagecolor="#ffffff"
     bordercolor="#666666"
     borderopacity="1"
     objecttolerance="10"
     gridtolerance="10"
     guidetolerance="10"
     inkscape:pageopacity="0"
     inkscape:pageshadow="2"
     inkscape:window-width="1366"
     inkscape:window-height="705"
     id="namedview337"
     showgrid="false"
     inkscape:zoom="1.1934666"
     inkscape:cx="130.9552"
     inkscape:cy="195.01316"
     inkscape:window-x="-8"
     inkscape:window-y="-8"
     inkscape:window-maximized="1"
     inkscape:current-layer="svg335" />
  <style
     id="style2"><![CDATA[.B{stroke:#846008}.C{fill:#ffff4e}.D{fill:#f1c729}.E{stroke-width:.365}.F{fill:#fff}.G{fill:#00923f}.H{stroke:#005f29}.I{stroke-width:.465}.J{stroke-width:.265}.K{fill:#dcdcdc}.L{stroke:#a9a9a9}.M{fill:#00a145}.N{opacity:.999}.O{fill-rule:evenodd}]]></style>
  <defs
     id="defs15">
    <radialGradient
       id="A"
       cx="150.276"
       cy="215.365"
       fx="150.276"
       fy="215.365"
       r="113.364"
       gradientTransform="matrix(0.264583,0,0,0.30644085,2.78e-4,-9.0150313)"
       gradientUnits="userSpaceOnUse">
      <stop
         offset="0"
         stop-color="#0093dd"
         id="stop4" />
      <stop
         offset="1"
         stop-color="#007dbc"
         id="stop6" />
    </radialGradient>
    <path
       id="B"
       d="M246.439 170.927c-3.104-2.344.779-5.816 2.531-4.045 1.685-1.27 3.202.027 3.497.574l.574 6.315-5.506.939c-.167.055-2.729-1.495-1.096-3.784z" />
    <path
       id="C"
       d="M246.935 174.711c.842-.728 1.536-1.579 2.766-1.983-.506-.764-1.046-1.494-1.148-2.662.908.195 2.087.282 3.34.339.008-1.192.032-2.379.652-3.366 1.004 2.041 2.547 3.066 2.401 7.28-2.715 2.416-5.364 1.448-8.011.391z" />
    <path
       id="D"
       d="M247.3 167.665c-.364.069-.82.136-.998.508-.083.275-.067.572-.08.857-.009.412.164.838.523 1.062.287.208.685.428.684.832-.06.373-.466.575-.511.96-.093.381-.109.801.052 1.166.409.035.778-.179 1.147-.321-.023-.39.08-.806-.109-1.17-.127-.439-.307-.893-.204-1.357.024-.302-.133-.655.077-.916.188-.161.459-.109.689-.139l1.614-.004c.248.011.532.172.755.005.106-.223.075-.49.119-.732.016-.247.082-.492.119-.732-.056-.303-.415-.347-.666-.383-.315-.039-.626-.185-.948-.098-.219.046-.432.163-.532.371-.133.218-.384.464-.658.334-.314-.117-.619-.377-.974-.284-.034.01-.068.024-.1.041z" />
    <path
       id="E"
       d="M248.297 174.622c1.304.094 2.576-.238 3.783-1.421 2.134-1.775.676-3.015.757-4.484-.341 1.003.251 2.454-1.107 2.971-.294-.315-.826-.392-1.513-.314.075.685.233 1.27.554 1.661-1.012.341-1.686 1.021-2.473 1.587z" />
    <path
       id="F"
       d="M115.488 173.515c-1.007-1.721-.653-3.544.996-5.462l.48-1.181-.406 1.236c1.224 4.288-.106 4.25-1.07 5.406z" />
    <path
       id="G"
       d="M116.412 169.404c-.195.946-.56 1.843-.443 2.878 1.065-1.039.384-1.927.443-2.878z" />
  </defs>
  <g
     id="g1328">
    <path
       d="m 15.952,8.498 c 6.239,3.617 14.629,6.354 23.809,6.354 9.18,0 17.569,-2.737 23.809,-6.354 l 11.732,9.105 c -1.367,0.944 -2.632,1.97 -3.578,3.293 -1.238,1.731 -1.969,3.895 -1.969,6.57 v 32.785 c 0,3.86 -1.206,6.796 -3.217,9.387 -2.011,2.591 -4.861,4.809 -8.084,7 C 52.337,80.796 44.953,84.918 39.761,91.72 34.569,84.918 27.185,80.796 21.068,76.638 17.845,74.447 14.995,72.229 12.984,69.638 10.973,67.047 9.767,64.111 9.767,60.251 V 27.466 C 9.767,24.79 9.036,22.627 7.798,20.896 6.852,19.573 5.587,18.547 4.22,17.603 Z"
       class="F"
       id="path17" />
    <path
       d="M 69.755205,28.558516 H 56.993308 l -5.57397,-4.337573 -5.082375,4.410069 -6.575946,-6.388621 -6.57621,6.388621 -5.081846,-4.410069 -5.574234,4.337838 H 9.7665657 v 31.693604 c 0,3.860001 1.2059693,6.79555 3.2168003,9.386611 2.010831,2.591061 4.860919,4.809061 8.084333,7.000072 6.117159,4.157922 13.501406,8.280655 18.693318,15.08229 5.191913,-6.801635 12.576424,-10.924368 18.693319,-15.08229 3.22315,-2.191011 6.072709,-4.409275 8.083804,-7.000072 2.011095,-2.590797 3.2168,-5.52661 3.2168,-9.386611 z"
       fill="url(#A)"
       id="path19"
       style="fill:url(#A);stroke-width:0.264583" />
    <path
       d="m 39.761,19.455 -6.652,6.463 -4.936,-4.285 -6.332,4.926 H 9.767 v 2 h 12.762 l 5.574,-4.338 5.082,4.41 6.576,-6.389 6.576,6.389 5.082,-4.41 5.574,4.338 h 12.762 v -2 H 57.681 l -6.332,-4.926 -4.936,4.285 z"
       fill="#d8d8d8"
       stroke="#414141"
       stroke-width="0.5"
       class="N"
       id="path21" />
    <path
       d="m 39.761,20.284 -6.238,6.061 a 0.593,0.593 0 0 1 -0.803,0.022 l -4.568,-3.965 -5.945,4.627 a 0.593,0.593 0 0 1 -0.365,0.125 H 10.361 v 0.813 h 11.965 l 5.412,-4.213 a 0.593,0.593 0 0 1 0.754,0.022 l 4.67,4.053 6.186,-6.01 a 0.593,0.593 0 0 1 0.828,0 l 6.186,6.01 4.67,-4.053 a 0.593,0.593 0 0 1 0.754,-0.022 l 5.412,4.213 H 69.161 V 27.155 H 57.681 A 0.593,0.593 0 0 1 57.316,27.03 l -5.945,-4.627 -4.568,3.965 A 0.593,0.593 0 0 1 46,26.346 Z"
       class="F N"
       id="path23" />
    <path
       d="M 15.757,5.91 15.169,6.365 0.498,17.753 1.842,18.569 c 1.769,1.075 3.208,2.206 4.195,3.586 0.987,1.38 1.565,3.106 1.565,5.401 V 60.25 c 0,4.324 1.423,7.816 3.672,10.713 2.249,2.897 5.287,5.228 8.578,7.465 6.584,4.475 14.191,8.607 19.022,15.56 l 0.888,1.28 0.889,-1.28 c 4.83,-6.953 12.438,-11.085 19.022,-15.56 3.292,-2.238 6.33,-4.569 8.578,-7.465 2.248,-2.896 3.672,-6.389 3.672,-10.713 V 27.556 c 0,-2.296 0.578,-4.021 1.565,-5.401 0.987,-1.38 2.427,-2.511 4.195,-3.586 L 79.027,17.753 63.767,5.909 63.13,6.294 C 57.175,9.89 48.812,12.686 39.762,12.686 30.712,12.686 22.35,9.89 16.395,6.294 Z m 0.195,2.588 c 6.239,3.617 14.628,6.354 23.808,6.354 9.18,0 17.57,-2.737 23.809,-6.354 l 11.732,9.105 c -1.367,0.944 -2.632,1.97 -3.578,3.293 -1.238,1.731 -1.968,3.986 -1.968,6.661 v 32.694 c 0,3.86 -1.206,6.796 -3.217,9.387 -2.011,2.591 -4.861,4.809 -8.084,7 C 52.337,80.796 44.953,84.918 39.761,91.72 34.569,84.918 27.185,80.796 21.068,76.638 17.845,74.447 14.995,72.229 12.984,69.638 10.973,67.047 9.767,64.111 9.767,60.251 V 27.557 c 0,-2.676 -0.731,-4.93 -1.969,-6.661 C 6.852,19.573 5.587,18.547 4.22,17.603 Z"
       stroke-width="0.565"
       class="B D"
       id="path25" />
    <path
       d="M 15.847,6.717 1.71,17.688 c 1.267,0.763 2.562,1.575 3.727,2.721 1.333,1.286 2.319,2.967 2.656,4.855 0.302,1.548 0.177,2.988 0.199,4.254 a 1.221,1.221 0 0 1 0,0.022 l 0.004,30.996 c 0.028,2.68 0.699,5.359 1.992,7.686 a 1.221,1.221 0 0 1 0.004,0.006 c 1.397,2.548 3.501,4.715 5.84,6.617 3.116,2.519 6.611,4.638 10.061,6.938 3.726,2.468 7.461,5.132 10.6,8.529 1.112,1.193 2.083,2.486 2.988,3.809 0.684,-0.984 1.333,-1.978 2.166,-2.93 l 0.002,-0.002 c 3.274,-3.812 7.329,-6.719 11.359,-9.391 l 0.004,-0.002 c 3.349,-2.232 6.736,-4.296 9.785,-6.719 2.421,-1.93 4.612,-4.129 6.07,-6.732 a 1.221,1.221 0 0 1 0.002,-0.004 c 1.248,-2.208 1.942,-4.737 2.043,-7.285 0.038,-1.437 0.008,-2.903 0.018,-4.4 v -0.008 l 0.002,-29.365 a 1.221,1.221 0 0 1 0,-0.008 c 0.011,-1.763 0.417,-3.609 1.467,-5.186 1.242,-1.901 3.052,-3.156 4.762,-4.191 L 77.463,17.896 77.809,17.687 63.682,6.722 c -1.424,0.854 -2.868,1.687 -4.4,2.381 -5.717,2.608 -11.949,4.069 -18.232,4.26 a 1.221,1.221 0 0 1 -0.004,0 45.49,45.49 0 0 1 -2.445,0.002 47.5,47.5 0 0 1 -14.715,-2.779 1.221,1.221 0 0 1 -0.004,0 L 22.802,10.18 22.8,10.178 C 20.373,9.246 18.064,8.057 15.847,6.717 Z m 0.182,1.195 a 1.221,1.221 0 0 1 0.572,0.16 l 0.275,0.156 c 4.854,2.7 10.206,4.505 15.701,5.367 a 1.221,1.221 0 0 1 0.002,0.002 46.23,46.23 0 0 0 15.008,-0.105 1.221,1.221 0 0 1 0.002,0 C 52.727,12.613 57.731,10.91 62.3,8.418 l 0.613,-0.342 a 1.221,1.221 0 0 1 1.359,0.092 l 10.889,8.451 a 1.221,1.221 0 0 1 -0.033,1.955 c -1.364,0.984 -2.565,2.13 -3.332,3.484 a 1.221,1.221 0 0 1 -0.008,0.014 c -0.965,1.653 -1.378,3.648 -1.342,5.639 a 1.221,1.221 0 0 1 0,0.022 l -0.002,32.785 a 1.221,1.221 0 0 1 0,0.019 c -0.005,0.345 -0.021,0.691 -0.045,1.014 -0.16,2.425 -0.901,4.807 -2.187,6.885 -1.665,2.721 -4.017,4.823 -6.398,6.646 a 1.221,1.221 0 0 1 -0.004,0.004 c -2.879,2.185 -5.915,4.047 -8.82,5.996 a 1.221,1.221 0 0 1 -0.002,0.002 c -3.866,2.577 -7.593,5.328 -10.672,8.672 a 34.38,34.38 0 0 0 -1.6,1.865 1.221,1.221 0 0 1 -1.91,0 C 36.012,88.104 32.464,85.19 28.706,82.568 A 1.221,1.221 0 0 1 28.704,82.566 C 25.477,80.301 22.039,78.232 18.739,75.851 A 1.221,1.221 0 0 1 18.733,75.847 C 16.322,74.087 13.914,72.109 12.057,69.554 10.64,67.619 9.649,65.356 9.282,62.95 v -0.004 a 16.63,16.63 0 0 1 -0.176,-1.592 1.221,1.221 0 0 1 0,-0.023 C 9.1,61.199 9.084,60.95 9.081,60.718 a 1.221,1.221 0 0 1 0,-0.012 L 9.075,51.278 a 1.221,1.221 0 0 1 0,-0.002 L 9.071,27.171 C 9.038,25.107 8.465,23.047 7.311,21.411 A 1.221,1.221 0 0 1 7.303,21.399 C 6.564,20.326 5.533,19.403 4.387,18.569 A 1.221,1.221 0 0 1 4.358,16.618 L 15.249,8.167 a 1.221,1.221 0 0 1 0.779,-0.256 z"
       class="C"
       id="path27" />
  </g>
  <g
     id="g1334">
    <g
       class="O"
       id="g33"
       transform="translate(-65.239,-99.82)">
      <path
         d="m 105,100.773 -2.315,7.123 h -7.489 l 6.059,4.402 -2.315,7.123 6.059,-4.402 6.059,4.402 -2.315,-7.123 6.059,-4.402 h -7.489 z"
         opacity="0.994"
         fill="#f2c829"
         id="path29" />
      <path
         d="m 105,100.773 -2.315,7.123 2.315,3.186 -9.804,-3.186 6.059,4.402 3.745,-1.217 -6.059,8.339 6.059,-4.402 v -3.937 l 6.059,8.339 -2.315,-7.123 -3.745,-1.217 9.804,-3.186 h -7.489 L 105,111.081 Z"
         opacity="0.994"
         class="C"
         id="path31" />
    </g>
    <path
       d="m 29.957,8.076 7.495,-0.019 2.309,-7.104 2.309,7.104 7.495,0.019 -6.059,4.402 2.315,7.123 -6.059,-4.402 -6.059,4.402 2.315,-7.123 z"
       fill="none"
       stroke-width="0.589"
       class="B"
       id="path35" />
  </g>
  <path
     d="m 36.053,63.021 c -0.514,0.019 -1.11,0.17 -1.837,0.532 -1.568,0.78 -2.872,1.029 -4.008,0.903 l 0.511,1.876 c 1.183,-0.082 2.226,-0.764 3.339,-1.157 3.153,-1.114 3.806,0.881 5.702,0.881 1.896,0 2.55,-1.994 5.703,-0.881 1.113,0.393 2.156,1.075 3.339,1.157 l 0.511,-1.876 c -1.136,0.127 -2.439,-0.123 -4.007,-0.903 -2.905,-1.446 -3.938,0.737 -5.545,0.776 -1.607,0.039 -2.166,-1.364 -3.708,-1.307 z m -0.494,-4.317 c -0.582,0.019 -1.258,0.17 -2.081,0.53 -3.403,1.489 -5.716,1.049 -7.675,-0.281 l 1.928,2.773 c 2.151,0.819 3.779,-0.321 5.569,-0.877 3.572,-1.11 4.312,0.877 6.461,0.877 2.149,0 2.889,-1.987 6.461,-0.877 1.79,0.556 3.418,1.696 5.569,0.877 l 1.928,-2.773 c -1.958,1.33 -4.272,1.77 -7.675,0.281 -3.291,-1.441 -4.462,0.734 -6.283,0.773 -1.821,0.039 -2.454,-1.359 -4.202,-1.302 z"
     class="F N"
     id="path37" />
  <g
     id="g1370">
    <path
       d="m 48.437,78.23 -0.316,2.423 C 45.448,79.291 40.342,78.22 36.183,77.036 7.992,66.003 18.884,38.06 34.199,34.216 l 0.298,0.527 C 13.816,42.16 16.884,66.776 32.403,74.16 c 3.737,1.778 10.058,3.555 16.034,4.07 z"
       class="G H I"
       id="path39" />
    <g
       transform="matrix(-0.199783,0.641303,-0.646087,-0.190707,192.37607,-92.674178)"
       id="g49">
      <use
         xlink:href="#B"
         class="J K L"
         id="use41"
         x="0"
         y="0"
         width="100%"
         height="100%" />
      <use
         xlink:href="#C"
         class="G H I"
         id="use43"
         x="0"
         y="0"
         width="100%"
         height="100%" />
      <use
         xlink:href="#D"
         class="F"
         id="use45"
         x="0"
         y="0"
         width="100%"
         height="100%" />
      <use
         xlink:href="#E"
         class="M"
         id="use47"
         x="0"
         y="0"
         width="100%"
         height="100%" />
    </g>
    <g
       transform="matrix(-0.01916,0.774117,-0.776559,-0.007587,163.4948,-153.73634)"
       id="g59">
      <use
         xlink:href="#B"
         class="J K L"
         id="use51"
         x="0"
         y="0"
         width="100%"
         height="100%" />
      <use
         xlink:href="#C"
         class="G H I"
         id="use53"
         x="0"
         y="0"
         width="100%"
         height="100%" />
      <use
         xlink:href="#D"
         class="F"
         id="use55"
         x="0"
         y="0"
         width="100%"
         height="100%" />
      <use
         xlink:href="#E"
         class="M"
         id="use57"
         x="0"
         y="0"
         width="100%"
         height="100%" />
    </g>
    <g
       transform="matrix(0.175787,0.860877,-0.860631,0.189205,124.00363,-202.5992)"
       id="g69">
      <use
         xlink:href="#B"
         class="J K L"
         id="use61"
         x="0"
         y="0"
         width="100%"
         height="100%" />
      <use
         xlink:href="#C"
         class="G H I"
         id="use63"
         x="0"
         y="0"
         width="100%"
         height="100%" />
      <use
         xlink:href="#D"
         class="F"
         id="use65"
         x="0"
         y="0"
         width="100%"
         height="100%" />
      <use
         xlink:href="#E"
         class="M"
         id="use67"
         x="0"
         y="0"
         width="100%"
         height="100%" />
    </g>
    <g
       transform="matrix(0.673392,0.564405,-0.555861,0.683742,-54.79299,-204.30667)"
       id="g79">
      <use
         xlink:href="#B"
         class="J K L"
         id="use71"
         x="0"
         y="0"
         width="100%"
         height="100%" />
      <use
         xlink:href="#C"
         class="G H I"
         id="use73"
         x="0"
         y="0"
         width="100%"
         height="100%" />
      <use
         xlink:href="#D"
         class="F"
         id="use75"
         x="0"
         y="0"
         width="100%"
         height="100%" />
      <use
         xlink:href="#E"
         class="M"
         id="use77"
         x="0"
         y="0"
         width="100%"
         height="100%" />
    </g>
    <g
       transform="rotate(22.954007,402.24529,-447.35923)"
       id="g89">
      <use
         xlink:href="#B"
         class="J K L"
         id="use81"
         x="0"
         y="0"
         width="100%"
         height="100%" />
      <use
         xlink:href="#C"
         class="G H I"
         id="use83"
         x="0"
         y="0"
         width="100%"
         height="100%" />
      <use
         xlink:href="#D"
         class="F"
         id="use85"
         x="0"
         y="0"
         width="100%"
         height="100%" />
      <use
         xlink:href="#E"
         class="M"
         id="use87"
         x="0"
         y="0"
         width="100%"
         height="100%" />
    </g>
    <use
       xlink:href="#B"
       x="-157.737"
       class="J K L"
       id="use91"
       y="0"
       width="100%"
       height="100%"
       transform="translate(-65.239,-99.82)" />
    <use
       xlink:href="#C"
       x="-157.737"
       class="G H I"
       id="use93"
       y="0"
       width="100%"
       height="100%"
       transform="translate(-65.239,-99.82)" />
    <use
       xlink:href="#D"
       x="-157.737"
       class="F"
       id="use95"
       y="0"
       width="100%"
       height="100%"
       transform="translate(-65.239,-99.82)" />
    <use
       xlink:href="#E"
       x="-157.737"
       class="M"
       id="use97"
       y="0"
       width="100%"
       height="100%"
       transform="translate(-65.239,-99.82)" />
  </g>
  <g
     id="g1484">
    <g
       class="B D"
       id="g103"
       transform="translate(-65.239,-99.82)">
      <path
         d="m 97.671,178.05 0.316,2.423 c 2.673,-1.362 7.779,-2.433 11.938,-3.617 28.191,-11.033 17.299,-38.976 1.984,-42.82 l -0.298,0.527 c 20.681,7.417 17.613,32.033 2.094,39.417 -3.737,1.778 -10.058,3.555 -16.034,4.07 z"
         class="J"
         id="path99" />
      <use
         xlink:href="#F"
         class="E"
         id="use101"
         x="0"
         y="0"
         width="100%"
         height="100%" />
    </g>
    <use
       xlink:href="#G"
       class="C"
       id="use105"
       x="0"
       y="0"
       width="100%"
       height="100%"
       transform="translate(-65.239,-99.82)" />
    <g
       transform="matrix(0.935289,-0.036925,0.036925,0.935289,-208.85769,-80.706882)"
       id="g111">
      <use
         xlink:href="#F"
         x="157.737"
         class="B D E"
         id="use107"
         y="0"
         width="100%"
         height="100%" />
      <use
         xlink:href="#G"
         x="157.737"
         class="C"
         id="use109"
         y="0"
         width="100%"
         height="100%" />
    </g>
    <g
       transform="matrix(0.91384,-0.202549,0.202549,0.91384,-229.10459,-33.967773)"
       id="g117">
      <use
         xlink:href="#F"
         x="157.737"
         class="B D E"
         id="use113"
         y="0"
         width="100%"
         height="100%" />
      <use
         xlink:href="#G"
         x="157.737"
         class="C"
         id="use115"
         y="0"
         width="100%"
         height="100%" />
    </g>
    <g
       transform="matrix(0.875883,-0.330089,0.330089,0.875883,-238.70902,4.53629)"
       id="g123">
      <use
         xlink:href="#F"
         x="157.737"
         class="B D E"
         id="use119"
         y="0"
         width="100%"
         height="100%" />
      <use
         xlink:href="#G"
         x="157.737"
         class="C"
         id="use121"
         y="0"
         width="100%"
         height="100%" />
    </g>
    <g
       transform="matrix(0.751349,-0.468986,0.468986,0.751349,-227.03054,61.06029)"
       id="g129">
      <use
         xlink:href="#F"
         x="157.737"
         class="B D E"
         id="use125"
         y="0"
         width="100%"
         height="100%" />
      <use
         xlink:href="#G"
         x="157.737"
         class="C"
         id="use127"
         y="0"
         width="100%"
         height="100%" />
    </g>
    <g
       transform="matrix(0.698702,-0.5534,0.5534,0.698702,-226.32907,90.01683)"
       id="g135">
      <use
         xlink:href="#F"
         x="157.737"
         class="B D E"
         id="use131"
         y="0"
         width="100%"
         height="100%" />
      <use
         xlink:href="#G"
         x="157.737"
         class="C"
         id="use133"
         y="0"
         width="100%"
         height="100%" />
    </g>
    <g
       transform="matrix(0.509252,-0.593676,0.593676,0.509252,-180.69098,130.62012)"
       id="g141">
      <use
         xlink:href="#F"
         x="157.737"
         class="B D E"
         id="use137"
         y="0"
         width="100%"
         height="100%" />
      <use
         xlink:href="#G"
         x="157.737"
         class="C"
         id="use139"
         y="0"
         width="100%"
         height="100%" />
    </g>
    <g
       transform="matrix(0.39489,-0.675167,0.675167,0.39489,-163.49653,169.27745)"
       id="g147">
      <use
         xlink:href="#F"
         x="157.737"
         class="B D E"
         id="use143"
         y="0"
         width="100%"
         height="100%" />
      <use
         xlink:href="#G"
         x="157.737"
         class="C"
         id="use145"
         y="0"
         width="100%"
         height="100%" />
    </g>
    <g
       transform="matrix(0.313209,-0.716721,0.716721,0.313209,-148.85773,191.83817)"
       id="g153">
      <use
         xlink:href="#F"
         x="157.737"
         class="B D E"
         id="use149"
         y="0"
         width="100%"
         height="100%" />
      <use
         xlink:href="#G"
         x="157.737"
         class="C"
         id="use151"
         y="0"
         width="100%"
         height="100%" />
    </g>
    <g
       transform="matrix(0.176711,-0.709748,0.709748,0.176711,-111.30681,210.69792)"
       id="g159">
      <use
         xlink:href="#F"
         x="157.737"
         class="B D E"
         id="use155"
         y="0"
         width="100%"
         height="100%" />
      <use
         xlink:href="#G"
         x="157.737"
         class="C"
         id="use157"
         y="0"
         width="100%"
         height="100%" />
    </g>
    <g
       transform="matrix(0.085422,-0.680012,0.680012,0.085422,-82.28171,216.00682)"
       id="g165">
      <use
         xlink:href="#F"
         x="157.737"
         class="B D E"
         id="use161"
         y="0"
         width="100%"
         height="100%" />
      <use
         xlink:href="#G"
         x="157.737"
         class="C"
         id="use163"
         y="0"
         width="100%"
         height="100%" />
    </g>
    <g
       transform="matrix(0.038927,-0.642532,0.642532,0.038927,-64.38343,211.69485)"
       id="g171">
      <use
         xlink:href="#F"
         x="157.737"
         class="B D E"
         id="use167"
         y="0"
         width="100%"
         height="100%" />
      <use
         xlink:href="#G"
         x="157.737"
         class="C"
         id="use169"
         y="0"
         width="100%"
         height="100%" />
    </g>
    <g
       transform="matrix(-0.063699,-0.610314,0.610314,-0.063699,-32.18645,218.66571)"
       id="g177">
      <use
         xlink:href="#F"
         x="157.737"
         class="B D E"
         id="use173"
         y="0"
         width="100%"
         height="100%" />
      <use
         xlink:href="#G"
         x="157.737"
         class="C"
         id="use175"
         y="0"
         width="100%"
         height="100%" />
    </g>
    <g
       transform="matrix(-0.067175,-0.643619,0.643619,-0.067175,-38.49816,226.94942)"
       id="g183">
      <use
         xlink:href="#F"
         x="157.737"
         class="B D E"
         id="use179"
         y="0"
         width="100%"
         height="100%" />
      <use
         xlink:href="#G"
         x="157.737"
         class="C"
         id="use181"
         y="0"
         width="100%"
         height="100%" />
    </g>
    <g
       transform="matrix(-0.152278,-0.53737,0.53737,-0.152278,1.4077,211.2248)"
       id="g189">
      <use
         xlink:href="#F"
         x="157.737"
         class="B D E"
         id="use185"
         y="0"
         width="100%"
         height="100%" />
      <use
         xlink:href="#G"
         x="157.737"
         class="C"
         id="use187"
         y="0"
         width="100%"
         height="100%" />
    </g>
    <g
       transform="matrix(-0.154912,-0.546664,0.546664,-0.154912,-1.02435,213.20293)"
       id="g195">
      <use
         xlink:href="#F"
         x="157.737"
         class="B D E"
         id="use191"
         y="0"
         width="100%"
         height="100%" />
      <use
         xlink:href="#G"
         x="157.737"
         class="C"
         id="use193"
         y="0"
         width="100%"
         height="100%" />
    </g>
    <g
       transform="matrix(-0.237191,-0.509119,0.509119,-0.237191,26.25223,216.19014)"
       id="g201">
      <use
         xlink:href="#F"
         x="157.737"
         class="B D E"
         id="use197"
         y="0"
         width="100%"
         height="100%" />
      <use
         xlink:href="#G"
         x="157.737"
         class="C"
         id="use199"
         y="0"
         width="100%"
         height="100%" />
    </g>
    <g
       transform="matrix(-0.285195,-0.460956,0.460956,-0.285195,45.99723,210.54466)"
       id="g207">
      <use
         xlink:href="#F"
         x="157.737"
         class="B D E"
         id="use203"
         y="0"
         width="100%"
         height="100%" />
      <use
         xlink:href="#G"
         x="157.737"
         class="C"
         id="use205"
         y="0"
         width="100%"
         height="100%" />
    </g>
    <g
       transform="matrix(0.172321,-0.985041,-0.985041,-0.172321,174.27348,372.97486)"
       id="g213">
      <use
         xlink:href="#F"
         x="157.737"
         class="B D E"
         id="use209"
         y="0"
         width="100%"
         height="100%" />
      <use
         xlink:href="#G"
         x="157.737"
         class="C"
         id="use211"
         y="0"
         width="100%"
         height="100%" />
    </g>
    <g
       transform="matrix(0.165572,-0.986198,-0.986198,-0.165572,179.29374,369.95025)"
       id="g219">
      <use
         xlink:href="#F"
         x="157.737"
         class="B D E"
         id="use215"
         y="0"
         width="100%"
         height="100%" />
      <use
         xlink:href="#G"
         x="157.737"
         class="C"
         id="use217"
         y="0"
         width="100%"
         height="100%" />
    </g>
    <g
       transform="matrix(-0.010974,-0.947835,-0.947835,0.010974,223.43496,326.4408)"
       id="g225">
      <use
         xlink:href="#F"
         x="157.737"
         class="B D E"
         id="use221"
         y="0"
         width="100%"
         height="100%" />
      <use
         xlink:href="#G"
         x="157.737"
         class="C"
         id="use223"
         y="0"
         width="100%"
         height="100%" />
    </g>
    <g
       transform="matrix(-0.223732,-0.921117,-0.921117,0.223732,279.07648,279.26357)"
       id="g231">
      <use
         xlink:href="#F"
         x="157.737"
         class="B D E"
         id="use227"
         y="0"
         width="100%"
         height="100%" />
      <use
         xlink:href="#G"
         x="157.737"
         class="C"
         id="use229"
         y="0"
         width="100%"
         height="100%" />
    </g>
    <g
       transform="matrix(-0.342618,-0.82461,-0.82461,0.342618,296.52445,229.27885)"
       id="g237">
      <use
         xlink:href="#F"
         x="157.737"
         class="B D E"
         id="use233"
         y="0"
         width="100%"
         height="100%" />
      <use
         xlink:href="#G"
         x="157.737"
         class="C"
         id="use235"
         y="0"
         width="100%"
         height="100%" />
    </g>
    <g
       transform="matrix(-0.436872,-0.778788,-0.778788,0.436872,315.32588,197.0491)"
       id="g243">
      <use
         xlink:href="#F"
         x="157.737"
         class="B D E"
         id="use239"
         y="0"
         width="100%"
         height="100%" />
      <use
         xlink:href="#G"
         x="157.737"
         class="C"
         id="use241"
         y="0"
         width="100%"
         height="100%" />
    </g>
    <g
       transform="matrix(-0.475819,-0.633617,-0.633617,0.475819,301.48175,147.34469)"
       id="g249">
      <use
         xlink:href="#F"
         x="157.737"
         class="B D E"
         id="use245"
         y="0"
         width="100%"
         height="100%" />
      <use
         xlink:href="#G"
         x="157.737"
         class="C"
         id="use247"
         y="0"
         width="100%"
         height="100%" />
    </g>
    <g
       transform="matrix(-0.511424,-0.557014,-0.557014,0.511424,297.88137,116.66859)"
       id="g255">
      <use
         xlink:href="#F"
         x="157.737"
         class="B D E"
         id="use251"
         y="0"
         width="100%"
         height="100%" />
      <use
         xlink:href="#G"
         x="157.737"
         class="C"
         id="use253"
         y="0"
         width="100%"
         height="100%" />
    </g>
    <g
       transform="matrix(-0.617921,-0.435881,-0.435881,0.617921,305.46414,62.2234)"
       id="g261">
      <use
         xlink:href="#F"
         x="157.737"
         class="B D E"
         id="use257"
         y="0"
         width="100%"
         height="100%" />
      <use
         xlink:href="#G"
         x="157.737"
         class="C"
         id="use259"
         y="0"
         width="100%"
         height="100%" />
    </g>
    <g
       transform="matrix(-0.683143,-0.324244,-0.324244,0.683143,303.11665,17.62601)"
       id="g267">
      <use
         xlink:href="#F"
         x="157.737"
         class="B D E"
         id="use263"
         y="0"
         width="100%"
         height="100%" />
      <use
         xlink:href="#G"
         x="157.737"
         class="C"
         id="use265"
         y="0"
         width="100%"
         height="100%" />
    </g>
    <g
       transform="matrix(-0.644601,-0.236278,-0.236278,0.644601,276.32701,-2.378833)"
       id="g273">
      <use
         xlink:href="#F"
         x="157.737"
         class="B D E"
         id="use269"
         y="0"
         width="100%"
         height="100%" />
      <use
         xlink:href="#G"
         x="157.737"
         class="C"
         id="use271"
         y="0"
         width="100%"
         height="100%" />
    </g>
    <g
       transform="matrix(-0.564032,-0.18968,-0.181447,0.615852,243.4902,-12.208024)"
       id="g279">
      <use
         xlink:href="#F"
         x="157.737"
         class="B D E"
         id="use275"
         y="0"
         width="100%"
         height="100%" />
      <use
         xlink:href="#G"
         x="157.737"
         class="C"
         id="use277"
         y="0"
         width="100%"
         height="100%" />
    </g>
    <g
       transform="matrix(-0.6333,-0.088953,-0.087657,0.615044,244.62865,-41.63062)"
       id="g285">
      <use
         xlink:href="#F"
         x="157.737"
         class="B D E"
         id="use281"
         y="0"
         width="100%"
         height="100%" />
      <use
         xlink:href="#G"
         x="157.737"
         class="C"
         id="use283"
         y="0"
         width="100%"
         height="100%" />
    </g>
    <g
       transform="matrix(-0.595517,-0.020751,-0.020751,0.595517,221.1941,-58.345719)"
       id="g291">
      <use
         xlink:href="#F"
         x="157.737"
         class="B D E"
         id="use287"
         y="0"
         width="100%"
         height="100%" />
      <use
         xlink:href="#G"
         x="157.737"
         class="C"
         id="use289"
         y="0"
         width="100%"
         height="100%" />
    </g>
    <g
       transform="matrix(-0.570718,0.029358,0.029358,0.570718,204.00007,-69.281202)"
       id="g297">
      <use
         xlink:href="#F"
         x="157.737"
         class="B D E"
         id="use293"
         y="0"
         width="100%"
         height="100%" />
      <use
         xlink:href="#G"
         x="157.737"
         class="C"
         id="use295"
         y="0"
         width="100%"
         height="100%" />
    </g>
    <g
       transform="matrix(-0.565746,0.080702,0.080702,0.565746,192.19759,-83.363039)"
       id="g303">
      <use
         xlink:href="#F"
         x="157.737"
         class="B D E"
         id="use299"
         y="0"
         width="100%"
         height="100%" />
      <use
         xlink:href="#G"
         x="157.737"
         class="C"
         id="use301"
         y="0"
         width="100%"
         height="100%" />
    </g>
    <g
       transform="matrix(-0.530803,0.130444,0.130444,0.530803,172.21986,-92.064653)"
       id="g309">
      <use
         xlink:href="#F"
         x="157.737"
         class="B D E"
         id="use305"
         y="0"
         width="100%"
         height="100%" />
      <use
         xlink:href="#G"
         x="157.737"
         class="C"
         id="use307"
         y="0"
         width="100%"
         height="100%" />
    </g>
    <g
       transform="matrix(-0.514741,0.183873,0.183873,0.514741,156.85521,-104.56276)"
       id="g315">
      <use
         xlink:href="#F"
         x="157.737"
         class="B D E"
         id="use311"
         y="0"
         width="100%"
         height="100%" />
      <use
         xlink:href="#G"
         x="157.737"
         class="C"
         id="use313"
         y="0"
         width="100%"
         height="100%" />
    </g>
    <g
       transform="matrix(-0.342659,0.533492,0.533492,0.342659,47.83163,-170.68873)"
       id="g321">
      <use
         xlink:href="#F"
         x="157.737"
         class="B D E"
         id="use317"
         y="0"
         width="100%"
         height="100%" />
      <use
         xlink:href="#G"
         x="157.737"
         class="C"
         id="use319"
         y="0"
         width="100%"
         height="100%" />
    </g>
  </g>
  <g
     transform="rotate(-45,35.965101,411.21744)"
     id="g327">
    <path
       d="m 274.283,172.008 a 3.054,3.054 0 0 0 -3.01,3.29 h -0.009 a 3.054,3.054 0 1 0 0,6.108 h 0.009 a 3.054,3.054 0 0 0 6.089,0 h 0.009 a 3.054,3.054 0 1 0 0,-6.108 3.054,3.054 0 0 0 -0.009,0 3.054,3.054 0 0 0 -3.045,-3.29 3.054,3.054 0 0 0 -0.035,0 z"
       stroke="#414141"
       stroke-width="0.5"
       class="F N O"
       id="path323" />
    <path
       d="m 269.412,178.349 c 0.694,0.259 0.748,0.662 1.938,0.773 -0.339,0.586 -0.088,0.744 -0.132,1.034 1.074,-0.181 1.411,-0.662 2.057,-1.807 -0.646,-1.145 -0.983,-1.625 -2.057,-1.806 0.043,0.291 -0.207,0.448 0.132,1.034 -1.19,0.11 -1.244,0.514 -1.938,0.773 z m 4.912,4.92 c 0.259,-0.694 0.662,-0.748 0.773,-1.938 0.586,0.339 0.744,0.088 1.034,0.132 -0.181,-1.074 -0.662,-1.411 -1.807,-2.057 -1.145,0.646 -1.625,0.983 -1.807,2.057 0.291,-0.043 0.448,0.207 1.034,-0.132 0.11,1.19 0.514,1.244 0.773,1.938 z m 4.92,-4.912 c -0.694,-0.259 -0.748,-0.662 -1.938,-0.773 0.339,-0.586 0.088,-0.744 0.132,-1.034 -1.074,0.181 -1.411,0.662 -2.057,1.807 0.646,1.145 0.983,1.625 2.057,1.806 -0.043,-0.291 0.207,-0.448 -0.132,-1.034 1.19,-0.11 1.244,-0.514 1.938,-0.773 z m -4.918,-4.934 c -0.259,0.694 -0.662,0.748 -0.773,1.938 -0.586,-0.339 -0.744,-0.088 -1.034,-0.132 0.181,1.074 0.662,1.411 1.807,2.057 1.145,-0.646 1.625,-0.983 1.807,-2.057 -0.291,0.043 -0.448,-0.207 -1.034,0.132 -0.11,-1.19 -0.514,-1.244 -0.773,-1.938 z"
       stroke-width="0.202"
       class="G H"
       id="path325" />
  </g>
  <g
     id="g1338">
    <path
       d="m 38.976,43.393 c -1.26,-0.046 -2.485,0.401 -3.683,1.517 -0.591,-0.333 -1.158,-0.361 -1.715,-0.256 l 0.046,0.112 c 1.569,1.257 2.053,2.489 1.531,3.697 -1.299,-0.551 -1.372,-1.592 -1.891,-2.454 -0.567,0.006 -0.931,-0.04 -1.855,0.055 -0.357,-0.258 -0.548,-0.571 -0.655,-0.912 -0.13,-0.14 -0.202,-0.309 -0.286,-0.472 -0.472,0.28 -0.425,0.824 -0.683,1.042 -0.279,-0.055 -0.443,-0.264 -0.531,-0.579 -0.153,0.793 0.251,1.33 0.339,2.114 -0.726,0.87 -1.591,1.462 -3.131,0.704 -0.049,0.54 0.436,1.062 0.652,1.461 -0.536,0.307 -0.273,0.882 0,0.887 0.427,0.008 0.735,0.234 0.626,0.561 0.356,0.226 1.236,0.143 1.888,0.018 1.471,-0.283 0.628,0.487 0.996,0.591 0.819,-1.035 2.627,-1.133 4.76,-0.923 0.682,0.446 0.838,1.239 1.698,1.661 0.207,0.849 0.278,1.95 -0.48,2.177 -0.116,1.404 0.775,1.439 0.775,1.439 l 2.634,-0.049 c 1.682,-0.763 0.953,-1.863 1.055,-2.847 -0.139,-0.17 -0.309,-0.303 -0.546,-0.337 -0.389,-0.091 -0.41,-0.713 -0.03,-0.829 0.33,-0.01 0.596,-0.213 0.454,-0.571 -0.186,-0.334 -0.32,-0.717 -0.593,-0.996 -0.19,-0.298 -0.274,-0.666 -0.494,-0.934 -0.18,-0.325 -0.11,-0.719 -0.187,-1.073 -0.059,-0.411 -0.02,-0.809 0.135,-1.191 0.169,-0.627 0.088,-1.302 0.351,-1.906 0.16,-0.302 0.1,-0.738 0.434,-0.919 0.071,-0.085 0.147,-0.123 0.22,-0.127 0.218,-0.013 0.41,0.277 0.38,0.523 0.19,0.801 0.069,1.624 0.069,2.436 0.009,0.464 -0.067,0.92 -0.092,1.38 0.035,0.41 0.207,0.821 0.492,1.12 0.285,0.194 0.643,0.369 0.657,0.78 0.034,0.099 0.095,0.185 0.042,0.3 l -0.206,0.744 c 0.076,0.428 0.45,0.887 1.313,1.101 0.99,-0.576 1.834,-0.596 2.546,-0.111 1.513,2.113 -0.34,2.105 -0.922,2.694 -0.108,0.758 2.094,0.529 2.288,-0.443 l 0.146,-1.019 v -10e-4 c -0.079,-0.648 -0.177,-1.297 -0.839,-1.998 -0.823,-0.304 -1.098,-1.071 -1.018,-2.14 0.017,-0.961 0.514,-2.356 0,-2.831 -0.386,-0.357 -0.19,-0.917 -0.157,-1.474 l -0.108,-1.26 c -1.029,0.518 -2.157,0.972 -4.119,0.112 -0.783,-0.343 -1.552,-0.548 -2.308,-0.575 z m 3.178,7.944 c -0.026,-0.144 -0.017,-0.285 0.019,-0.412 -0.036,0.127 -0.045,0.267 -0.019,0.412 z m 0.019,-0.412 z m 0.002,-0.007 c 0.017,-0.06 0.041,-0.116 0.07,-0.168 a 0.82,0.82 0 0 0 -0.07,0.168 z m 0.07,-0.168 0.011,-0.018 z m 0.011,-0.018 c 0.03,-0.051 0.064,-0.098 0.104,-0.139 a 0.73,0.73 0 0 0 -0.104,0.139 z M 30.754,45.151 a 0.82,0.82 0 0 0 0.089,0.083 0.85,0.85 0 0 1 -0.089,-0.083 z m 0.089,0.083 c 0.007,0.006 0.015,0.011 0.023,0.016 z m 0.023,0.016 a 0.83,0.83 0 0 0 0.091,0.061 0.83,0.83 0 0 1 -0.091,-0.061 z m 0.091,0.061 c 0.018,0.01 0.04,0.018 0.06,0.028 z m 0.06,0.028 0.078,0.036 c -0.028,-0.011 -0.052,-0.024 -0.078,-0.036 z m 0.078,0.036 c 0.053,0.02 0.112,0.037 0.177,0.052 a 1.29,1.29 0 0 1 -0.177,-0.052 z m 0.177,0.052 0.465,-0.153 z m 0.465,-0.153 0.064,-0.022 z m 0.064,-0.022 0.46,-0.176 z m 1.779,-0.598 c -0.148,0.028 -0.294,0.067 -0.441,0.111 z m -0.441,0.111 -0.235,0.075 z m -0.235,0.075 -0.448,0.161 z m -0.448,0.161 -0.141,0.053 z M 46.704,43.45 c 0.077,-0.003 0.15,10e-4 0.221,0.007 -0.071,-0.007 -0.144,-0.01 -0.221,-0.007 z m 0.221,0.007 c 0.04,0.004 0.077,0.011 0.115,0.018 z m 0.115,0.018 0.081,0.013 C 47.095,43.482 47.067,43.479 47.04,43.475 Z m 0.081,0.013 0.145,0.04 z m 0.145,0.04 0.033,0.01 z m 0.033,0.01 0.159,0.061 z m 0.159,0.061 -0.563,1.387 c -0.373,0.554 0.086,0.991 0.365,1.122 0.55,0.257 -0.048,1.436 -0.13,2.192 2.149,-1.027 2.593,0.219 3.353,1.044 -1.042,0.061 -1.906,-0.422 -3.366,0.926 l 0.706,1.209 c 1.799,1.392 -0.648,3.915 0.295,4.096 0.868,-0.149 1.864,0.023 1.882,-2.251 0.025,-1.058 -0.94,-3.112 0.074,-3.173 1.451,-0.088 0.504,-1.465 1.144,-1.55 1.66,0.019 0.362,2.034 1.845,2.288 -1.53,-1.657 1.46,-6.386 -4.022,-6.633 -0.664,-0.029 -1.06,-0.432 -1.582,-0.656 z m -11.324,1.099 c 0.89,0.582 1.211,1.339 1.393,2.14 0.053,0.633 0.151,1.243 0.544,1.706 a 3.25,3.25 0 0 1 0.563,1.615 c 0.091,0.491 -0.007,1.212 0.286,1.457 0.22,0.198 0.419,0.413 0.277,0.876 l -0.286,-0.055 0.055,1.218 c -0.017,0.363 0.243,0.356 0.434,0.443 l -0.046,0.535 c -0.187,0.224 0.237,0.687 -0.692,0.618 -0.646,-0.048 -0.715,0.259 -1.375,-0.655 0.272,-0.938 0.189,-1.942 0.073,-2.952 -0.464,-0.177 -0.34,-1.045 -0.424,-1.67 -0.207,-0.648 0.126,-1.686 -0.646,-1.929 -0.553,-0.03 -0.376,-1.011 -0.489,-1.614 -0.181,-0.438 -0.338,-0.883 -0.276,-1.393 z m -5.169,1.358 c 0.038,0.009 0.071,0.031 0.098,0.058 0.091,0.226 0.354,0.253 0.563,0.285 l 0.845,0.043 c 0.214,-0.055 0.443,0.141 0.273,0.344 -0.14,0.159 -0.347,0.252 -0.463,0.442 -0.142,0.174 -0.411,0.296 -0.386,0.558 -0.034,0.26 0.195,0.409 0.336,0.583 0.156,0.194 0.277,0.406 0.377,0.633 0.089,0.201 0.365,0.371 0.237,0.618 -0.082,0.186 -0.289,0.243 -0.439,0.355 -0.216,0.093 -0.435,0.343 -0.685,0.248 -0.209,-0.102 -0.427,-0.185 -0.52,-0.422 -0.136,-0.173 -0.251,-0.358 -0.358,-0.551 -0.062,-0.183 -0.417,-0.349 -0.208,-0.552 0.089,-0.129 0.287,-0.457 0.052,-0.52 -0.215,-0.008 -0.483,-0.065 -0.56,-0.296 -0.022,-0.235 -0.046,-0.507 0.087,-0.716 0.129,-0.218 0.378,-0.303 0.553,-0.472 0.139,-0.175 0.156,-0.423 0.197,-0.638 z m -1.646,1.953 a 0.79,0.79 0 0 1 0.309,0.048 c 0.076,0.03 0.145,0.085 0.172,0.165 0.027,0.08 0.058,0.165 0.063,0.254 0.003,0.119 0.042,0.236 0.03,0.356 0,0.077 -0.03,0.155 -0.104,0.189 a 0.37,0.37 0 0 1 -0.246,0.065 c -0.1,-0.007 -0.199,0.014 -0.3,0.01 -0.12,0.002 -0.26,-0.017 -0.335,-0.123 -0.044,-0.08 -0.114,-0.15 -0.127,-0.244 -0.013,-0.094 -0.066,-0.181 -0.06,-0.279 -0.01,-0.097 0.055,-0.177 0.066,-0.27 0.106,-0.062 0.218,-0.112 0.327,-0.169 V 48.01 c 0.063,0.017 0.137,-0.013 0.205,-10e-4 z m 12.161,3.092 a 3.02,3.02 0 0 0 -0.304,0.333 c 0.097,-0.123 0.198,-0.234 0.304,-0.333 z"
       id="path329" />
    <path
       d="m 46.704,43.451 c -0.331,0.012 -0.728,0.116 -1.232,0.372 l -0.068,0.033 0.108,1.261 c -0.034,0.557 -0.229,1.117 0.157,1.474 0.514,0.475 0.017,1.871 0,2.831 -0.081,1.069 0.195,1.836 1.018,2.14 0.662,0.701 0.761,1.35 0.839,1.998 l 0.297,-2.081 -0.706,-1.209 c 1.46,-1.348 2.325,-0.865 3.366,-0.926 -0.76,-0.825 -1.204,-2.071 -3.353,-1.044 0.083,-0.756 0.68,-1.935 0.13,-2.192 -0.28,-0.131 -0.738,-0.568 -0.365,-1.122 -0.005,0.02 0.294,-0.724 0.563,-1.387 -0.219,-0.094 -0.46,-0.159 -0.753,-0.149 z m -5.892,0.604 c -0.073,0.004 -0.148,0.043 -0.22,0.127 -0.334,0.182 -0.274,0.618 -0.434,0.919 -0.264,0.604 -0.183,1.279 -0.351,1.906 -0.156,0.382 -0.194,0.781 -0.135,1.191 0.077,0.354 0.007,0.748 0.187,1.073 0.22,0.268 0.305,0.636 0.494,0.934 0.272,0.278 0.407,0.662 0.593,0.996 0.142,0.358 -0.125,0.561 -0.454,0.571 -0.38,0.116 -0.359,0.738 0.03,0.829 0.238,0.034 0.407,0.167 0.546,0.337 l -0.036,-1.311 c 0.371,-0.536 0.81,-0.891 1.329,-1.033 0.053,-0.115 -0.007,-0.201 -0.042,-0.3 -0.014,-0.411 -0.372,-0.587 -0.657,-0.78 -0.285,-0.299 -0.457,-0.71 -0.492,-1.12 l 0.092,-1.38 c 10e-4,-0.812 0.121,-1.635 -0.069,-2.436 0.029,-0.246 -0.162,-0.536 -0.38,-0.523 z m 1.548,6.539 c -0.171,0.174 -0.258,0.452 -0.206,0.744 z m -6.228,-5.895 -0.609,0.341 c -0.061,0.51 0.096,0.955 0.277,1.393 0.113,0.603 -0.065,1.584 0.489,1.615 0.772,0.242 0.438,1.28 0.646,1.928 0.084,0.624 -0.039,1.492 0.424,1.67 0.115,1.01 0.198,2.015 -0.074,2.952 0.66,0.914 0.729,0.607 1.375,0.655 0.929,0.069 0.505,-0.394 0.692,-0.618 L 39.398,54.1 c -0.19,-0.087 -0.451,-0.08 -0.434,-0.443 l -0.055,-1.218 0.286,0.055 C 39.337,52.03 39.139,51.816 38.918,51.618 38.626,51.373 38.723,50.651 38.632,50.16 a 3.25,3.25 0 0 0 -0.563,-1.615 c -0.393,-0.463 -0.492,-1.073 -0.544,-1.707 -0.182,-0.801 -0.504,-1.559 -1.393,-2.14 z m -2.554,-0.044 c -0.778,0.146 -1.536,0.554 -2.308,0.773 a 0.94,0.94 0 0 1 -0.517,-0.275 c 0.107,0.341 0.299,0.654 0.655,0.912 0.924,-0.095 1.287,-0.049 1.855,-0.055 0.52,0.862 0.593,1.903 1.891,2.454 0.523,-1.208 0.038,-2.44 -1.531,-3.697 z m -2.615,1.402 c -0.042,0.215 -0.058,0.463 -0.197,0.637 -0.176,0.169 -0.424,0.254 -0.553,0.472 -0.133,0.209 -0.109,0.48 -0.087,0.716 0.077,0.231 0.345,0.288 0.56,0.296 0.235,0.063 0.038,0.392 -0.052,0.52 -0.209,0.202 0.146,0.369 0.208,0.552 a 4.09,4.09 0 0 0 0.358,0.551 c 0.093,0.237 0.311,0.319 0.52,0.421 0.25,0.095 0.469,-0.155 0.685,-0.248 0.15,-0.112 0.357,-0.169 0.439,-0.355 0.129,-0.247 -0.147,-0.417 -0.237,-0.618 -0.1,-0.227 -0.221,-0.439 -0.377,-0.633 -0.141,-0.174 -0.37,-0.323 -0.336,-0.583 -0.026,-0.262 0.244,-0.384 0.386,-0.558 0.116,-0.19 0.322,-0.283 0.463,-0.442 0.171,-0.203 -0.059,-0.399 -0.273,-0.344 -0.282,0.003 -0.564,-0.023 -0.845,-0.043 -0.21,-0.032 -0.472,-0.059 -0.563,-0.285 -0.027,-0.028 -0.06,-0.05 -0.098,-0.058 z m -1.852,1.954 -0.327,0.169 c -0.011,0.093 -0.076,0.173 -0.066,0.269 -0.006,0.098 0.049,0.184 0.06,0.279 0.011,0.095 0.083,0.163 0.127,0.244 0.075,0.106 0.215,0.125 0.335,0.123 0.1,0.004 0.199,-0.017 0.3,-0.01 a 0.37,0.37 0 0 0 0.246,-0.065 c 0.074,-0.034 0.104,-0.112 0.104,-0.189 0.012,-0.12 -0.027,-0.236 -0.031,-0.356 -0.005,-0.089 -0.04,-0.17 -0.063,-0.254 -0.023,-0.084 -0.096,-0.135 -0.172,-0.165 a 0.79,0.79 0 0 0 -0.309,-0.048 c -0.068,-0.012 -0.142,0.018 -0.205,10e-4 z"
       fill-opacity="0.41"
       class="F"
       id="path331" />
  </g>
</svg>
