<?xml version="1.0" encoding="UTF-8" standalone="no"?>
<svg
   xmlns:dc="http://purl.org/dc/elements/1.1/"
   xmlns:cc="http://creativecommons.org/ns#"
   xmlns:rdf="http://www.w3.org/1999/02/22-rdf-syntax-ns#"
   xmlns:svg="http://www.w3.org/2000/svg"
   xmlns="http://www.w3.org/2000/svg"
   xmlns:xlink="http://www.w3.org/1999/xlink"
   xmlns:sodipodi="http://sodipodi.sourceforge.net/DTD/sodipodi-0.dtd"
   xmlns:inkscape="http://www.inkscape.org/namespaces/inkscape"
   width="240.408"
   height="271.529"
   viewBox="0 0 63.608 71.842"
   version="1.1"
   id="svg270"
   sodipodi:docname="Seal of Wonosobo Regency (1).svg"
   inkscape:version="1.0.1 (3bc2e813f5, 2020-09-07)">
  <metadata
     id="metadata274">
    <rdf:RDF>
      <cc:Work
         rdf:about="">
        <dc:format>image/svg+xml</dc:format>
        <dc:type
           rdf:resource="http://purl.org/dc/dcmitype/StillImage" />
      </cc:Work>
    </rdf:RDF>
  </metadata>
  <sodipodi:namedview
     pagecolor="#ffffff"
     bordercolor="#666666"
     borderopacity="1"
     objecttolerance="10"
     gridtolerance="10"
     guidetolerance="10"
     inkscape:pageopacity="0"
     inkscape:pageshadow="2"
     inkscape:window-width="1366"
     inkscape:window-height="705"
     id="namedview272"
     showgrid="false"
     inkscape:zoom="1.1717057"
     inkscape:cx="118.93314"
     inkscape:cy="150.87553"
     inkscape:window-x="-8"
     inkscape:window-y="-8"
     inkscape:window-maximized="1"
     inkscape:current-layer="svg270" />
  <style
     id="style2"><![CDATA[.B{stroke:#971116}.C{stroke-width:.265}.D{stroke-linejoin:round}.E{fill:#fff}.F{opacity:.998}.G{fill:#a6a6a6}.H{fill:#a51318}.I{fill-rule:evenodd}]]></style>
  <defs
     id="defs36">
    <linearGradient
       inkscape:collect="always"
       id="linearGradient1563">
      <stop
         style="stop-color:#ff0000;stop-opacity:1;"
         offset="0"
         id="stop1559" />
      <stop
         style="stop-color:#b60000;stop-opacity:1"
         offset="0.52034771"
         id="stop1567" />
      <stop
         style="stop-color:#ff0000;stop-opacity:1"
         offset="1"
         id="stop1561" />
    </linearGradient>
    <linearGradient
       inkscape:collect="always"
       id="linearGradient1515">
      <stop
         style="stop-color:#ff0000;stop-opacity:1"
         offset="0"
         id="stop1511" />
      <stop
         style="stop-color:#b80000;stop-opacity:1"
         offset="1"
         id="stop1513" />
    </linearGradient>
    <linearGradient
       id="A"
       gradientUnits="userSpaceOnUse">
      <stop
         offset="0"
         stop-color="#fff"
         id="stop4" />
      <stop
         offset="1"
         stop-color="#b0b0b0"
         id="stop6" />
    </linearGradient>
    <linearGradient
       id="B"
       gradientUnits="userSpaceOnUse">
      <stop
         offset="0"
         stop-color="#888"
         id="stop9" />
      <stop
         offset="1"
         stop-color="#cecece"
         id="stop11" />
    </linearGradient>
    <linearGradient
       id="C"
       gradientUnits="userSpaceOnUse">
      <stop
         offset="0"
         stop-color="#dcdcdc"
         id="stop14" />
      <stop
         offset="1"
         stop-color="#fff"
         id="stop16" />
    </linearGradient>
    <linearGradient
       xlink:href="#C"
       id="D"
       x1="15.984"
       y1="180.112"
       x2="17.675"
       y2="180.287" />
    <linearGradient
       xlink:href="#B"
       id="E"
       x1="15.512"
       y1="179.106"
       x2="17.163"
       y2="179.062" />
    <linearGradient
       xlink:href="#A"
       id="F"
       x1="14.997"
       y1="180.421"
       x2="18.563"
       y2="180.708" />
    <linearGradient
       xlink:href="#A"
       id="G"
       x1="20.197"
       y1="181.087"
       x2="18.429"
       y2="181.363" />
    <linearGradient
       xlink:href="#A"
       id="H"
       x1="32.363"
       y1="175.561"
       x2="34.131"
       y2="186.889" />
    <linearGradient
       xlink:href="#A"
       id="I"
       x1="37.563"
       y1="158.479"
       x2="33.997"
       y2="202.65" />
    <linearGradient
       xlink:href="#C"
       id="J"
       x1="36.576"
       y1="172.049"
       x2="34.885"
       y2="188.35" />
    <linearGradient
       xlink:href="#B"
       id="K"
       x1="37.047"
       y1="209.632"
       x2="35.397"
       y2="148.537" />
    <path
       id="L"
       d="M12.657 147.995h1.434v23.16h-1.434z" />
    <path
       id="M"
       d="M12.623 173.412c.947 0 1.737-.62 2.731-.62s1.784.62 2.731.62 1.737-.62 2.731-.62 1.784.62 2.731.62 1.737-.62 2.731-.62 1.784.62 2.731.62 1.737-.62 2.731-.62 1.784.62 2.731.62 1.737-.62 2.731-.62 1.784.62 2.731.62" />
    <path
       id="N"
       d="M-91.211 146.302l4.939 7.227c2.298-.236 4.505-1.686 6.665-3.79l-4.037-7.351c-.664.696-3.985 3.837-7.567 3.914z" />
    <path
       id="O"
       d="M-91.211 146.302l.776 1.136c3.701-.89 3.972-1.25 7.572-3.627l-.782-1.423c-.664.696-3.985 3.837-7.567 3.914z" />
    <path
       id="P"
       d="M-86.968 152.51l.696 1.019c2.298-.236 4.505-1.686 6.665-3.79l-.577-1.05c-2.627 2.141-3.63 3.255-6.784 3.822z" />
    <path
       id="Q"
       d="M-84.192 139.387l1.508 8.267 3.077 2.085-.809-7.463z" />
    <path
       id="R"
       d="M-84.192 139.387c-1.076 2.668.556 7.193 1.508 8.267l3.557.827c.618-3.149 1.064-4.225 3.098-6.338-2.662-.977-4.804-2.475-8.163-2.756z" />
    <path
       id="S"
       d="M-84.192 139.387c-.098.242-.173.5-.229.769 1.973.23 6.316 1.766 7.812 2.61l.579-.623c-2.662-.977-4.804-2.475-8.163-2.756z" />
    <path
       id="T"
       d="M-83.225 146.807c.189.368.375.66.541.847l3.557.827.127-.626c-1.359-.415-2.669-.895-4.225-1.047z" />
    <linearGradient
       inkscape:collect="always"
       xlink:href="#linearGradient1515"
       id="linearGradient1509"
       x1="7.6775599"
       y1="13.605037"
       x2="12.871203"
       y2="9.9356146"
       gradientUnits="userSpaceOnUse" />
    <linearGradient
       inkscape:collect="always"
       xlink:href="#C"
       id="linearGradient1523"
       x1="16.014166"
       y1="9.5354404"
       x2="8.6892509"
       y2="14.22101"
       gradientUnits="userSpaceOnUse" />
    <linearGradient
       inkscape:collect="always"
       xlink:href="#linearGradient1515"
       id="linearGradient1549"
       gradientUnits="userSpaceOnUse"
       x1="7.7904649"
       y1="7.6775093"
       x2="18.629374"
       y2="10.838858" />
    <linearGradient
       inkscape:collect="always"
       xlink:href="#C"
       id="linearGradient1557"
       x1="19.008162"
       y1="10.704578"
       x2="11.566998"
       y2="8.8879995"
       gradientUnits="userSpaceOnUse" />
    <linearGradient
       inkscape:collect="always"
       xlink:href="#linearGradient1563"
       id="linearGradient1565"
       x1="15.273001"
       y1="143.424"
       x2="35.68885"
       y2="143.424"
       gradientUnits="userSpaceOnUse"
       gradientTransform="translate(5.524,-134.923)" />
    <linearGradient
       inkscape:collect="always"
       xlink:href="#linearGradient1515"
       id="linearGradient1584"
       gradientUnits="userSpaceOnUse"
       x1="7.6775599"
       y1="13.605037"
       x2="12.871203"
       y2="9.9356146" />
    <linearGradient
       inkscape:collect="always"
       xlink:href="#linearGradient1515"
       id="linearGradient1586"
       gradientUnits="userSpaceOnUse"
       x1="7.6775599"
       y1="13.605037"
       x2="12.871203"
       y2="9.9356146" />
    <linearGradient
       inkscape:collect="always"
       xlink:href="#linearGradient1515"
       id="linearGradient1588"
       gradientUnits="userSpaceOnUse"
       x1="7.7904649"
       y1="7.6775093"
       x2="18.629374"
       y2="10.838858" />
    <linearGradient
       inkscape:collect="always"
       xlink:href="#linearGradient1515"
       id="linearGradient1590"
       gradientUnits="userSpaceOnUse"
       x1="7.7904649"
       y1="7.6775093"
       x2="18.629374"
       y2="10.838858" />
    <linearGradient
       inkscape:collect="always"
       xlink:href="#linearGradient1515"
       id="linearGradient1633"
       gradientUnits="userSpaceOnUse"
       x1="7.7904649"
       y1="7.6775093"
       x2="18.629374"
       y2="10.838858" />
    <linearGradient
       inkscape:collect="always"
       xlink:href="#linearGradient1515"
       id="linearGradient1635"
       gradientUnits="userSpaceOnUse"
       x1="7.7904649"
       y1="7.6775093"
       x2="18.629374"
       y2="10.838858" />
    <linearGradient
       inkscape:collect="always"
       xlink:href="#linearGradient1515"
       id="linearGradient1637"
       gradientUnits="userSpaceOnUse"
       x1="7.7904649"
       y1="7.6775093"
       x2="18.629374"
       y2="10.838858" />
    <linearGradient
       inkscape:collect="always"
       xlink:href="#C"
       id="linearGradient1639"
       gradientUnits="userSpaceOnUse"
       x1="19.008162"
       y1="10.704578"
       x2="11.566998"
       y2="8.8879995"
       gradientTransform="matrix(-1,0,0,1,63.632001,0)" />
    <linearGradient
       inkscape:collect="always"
       xlink:href="#linearGradient1515"
       id="linearGradient1641"
       gradientUnits="userSpaceOnUse"
       x1="7.6775599"
       y1="13.605037"
       x2="12.871203"
       y2="9.9356146" />
    <linearGradient
       inkscape:collect="always"
       xlink:href="#linearGradient1515"
       id="linearGradient1643"
       gradientUnits="userSpaceOnUse"
       x1="7.6775599"
       y1="13.605037"
       x2="12.871203"
       y2="9.9356146" />
    <linearGradient
       inkscape:collect="always"
       xlink:href="#linearGradient1515"
       id="linearGradient1645"
       gradientUnits="userSpaceOnUse"
       x1="7.6775599"
       y1="13.605037"
       x2="12.871203"
       y2="9.9356146" />
    <linearGradient
       inkscape:collect="always"
       xlink:href="#C"
       id="linearGradient1647"
       gradientUnits="userSpaceOnUse"
       x1="16.014166"
       y1="9.5354404"
       x2="8.6892509"
       y2="14.22101"
       gradientTransform="matrix(-1,0,0,1,63.632001,0)" />
  </defs>
  <path
     d="m 0.276,0.276 v 54.387 c 0,1.677 0.92,3.212 2.38,3.973 L 31.803,71.539 60.95,58.636 c 1.461,-0.761 2.381,-2.296 2.38,-3.973 V 0.276 H 31.804 Z"
     opacity="0.999"
     fill="#e62129"
     stroke="#890f14"
     stroke-width="0.553"
     id="path38" />
  <g
     id="g1241">
    <path
       d="m 22.949,63.43 c -1.319,-0.08 -2.597,-0.36 -3.666,-0.803 -0.295,-0.122 -1.056,-0.502 -1.037,-0.517 0.005,-0.004 0.163,0.017 0.351,0.046 a 8.84,8.84 0 0 0 0.798,0.072 c 1.565,0.066 2.738,-0.403 4.046,-1.618 l 0.823,-0.802 0.595,-0.59 h -0.367 c -0.428,0 -0.758,-0.033 -1.19,-0.119 l -0.309,-0.062 -0.232,0.232 c -0.976,0.976 -2.269,1.594 -3.722,1.779 -2.3,0.294 -5.13,-0.565 -7.451,-2.262 -1.131,-0.827 -2.138,-1.897 -2.723,-2.895 -0.08,-0.137 -0.107,-0.152 0.347,0.199 0.671,0.519 1.414,0.895 2.137,1.081 0.301,0.078 0.801,0.157 0.979,0.155 0.097,-10e-4 0.062,-0.02 -0.242,-0.129 C 10.088,56.481 8.356,54.748 7.153,52.261 6.476,50.861 6.03,49.314 5.87,47.812 5.807,47.218 5.829,45.618 5.9,45.618 c 0.012,0 0.044,0.101 0.072,0.225 0.143,0.625 0.418,1.353 0.705,1.871 0.518,0.934 1.24,1.623 2.337,2.228 0.291,0.161 1.499,0.732 1.548,0.732 0.01,0 -0.08,-0.108 -0.201,-0.24 C 9.801,49.82 9.35,48.901 9.139,47.938 8.99,47.261 8.972,47.077 8.961,46.114 L 8.951,45.2 8.696,45.147 C 8.133,45.031 7.489,44.744 6.994,44.389 6.663,44.151 6.02,43.499 5.752,43.128 4.91,41.964 4.312,40.452 4.162,39.11 A 9.7,9.7 0 0 1 4.206,37.366 C 4.275,36.911 4.415,36.321 4.691,35.318 5.081,33.901 5.18,33.375 5.209,32.572 A 6.1,6.1 0 0 0 5.067,31.009 C 5.03,30.845 5.01,30.72 5.022,30.733 c 0.078,0.082 0.432,0.707 0.621,1.098 0.267,0.553 0.468,1.055 0.858,2.15 l 0.851,2.121 0.216,0.436 0.019,-0.465 c 0.046,-1.134 0.3,-2.206 0.751,-3.172 0.131,-0.28 0.145,-0.327 0.104,-0.343 C 8.416,32.548 8.286,32.473 8.153,32.392 7.219,31.822 6.431,30.864 5.829,29.566 A 5.92,5.92 0 0 1 5.227,26.703 C 5.246,26.072 5.275,25.868 5.518,24.611 L 5.803,22.664 C 5.836,22.079 5.742,21.342 5.562,20.771 l -0.081,-0.257 0.09,0.064 c 0.158,0.114 0.844,0.811 1.137,1.155 0.634,0.745 1.312,1.732 1.897,2.759 0.099,0.174 0.179,0.286 0.186,0.261 A 5.78,5.78 0 0 0 8.85,24.511 c 0.129,-0.555 0.385,-1.214 0.668,-1.723 0.379,-0.681 0.716,-1.07 2.036,-2.347 l 0.701,-0.726 a 5.77,5.77 0 0 0 0.713,-1.129 c 0.139,-0.301 0.349,-0.9 0.386,-1.104 0.01,-0.06 0.029,-0.109 0.041,-0.109 0.031,0 0.267,0.526 0.367,0.818 0.671,1.956 0.463,4.715 -0.521,6.903 -0.664,1.475 -1.58,2.538 -2.657,3.084 l -0.345,0.162 c -0.044,0.014 -0.06,0.036 -0.05,0.069 0.077,0.253 0.178,0.944 0.21,1.451 l 0.019,0.299 0.399,-0.374 c 0.476,-0.447 0.912,-0.903 1.129,-1.182 0.54,-0.694 0.928,-1.483 1.172,-2.388 l 0.091,-0.337 0.15,0.317 c 0.333,0.704 0.549,1.491 0.683,2.481 a 17.53,17.53 0 0 1 0.014,2.513 c -0.375,3.46 -1.978,6.409 -4.079,7.505 l -0.499,0.238 -0.181,0.075 a 1.07,1.07 0 0 0 0.076,0.22 c 0.261,0.645 0.376,1.279 0.378,2.082 l 0.01,0.436 A 10.56,10.56 0 0 0 9.92,41.371 c 0.39,-0.94 0.91,-1.844 1.505,-2.615 a 11.75,11.75 0 0 1 1.251,-1.288 c 0.272,-0.211 0.587,-0.427 0.6,-0.413 0.006,0.007 -0.02,0.141 -0.061,0.298 -0.19,0.738 -0.275,1.439 -0.275,2.258 0.001,1.002 0.089,1.608 0.501,3.437 0.342,1.519 0.439,2.171 0.439,2.943 0,1.235 -0.279,2.153 -1.036,3.406 -0.46,0.762 -0.72,1.267 -0.89,1.727 l -0.066,0.18 0.191,0.109 c 1.625,0.922 2.641,2.097 3.393,3.922 0.155,0.375 0.363,0.984 0.446,1.3 0.051,0.195 0.054,0.198 0.134,0.182 a 17.51,17.51 0 0 1 1.191,-0.162 c 0.559,-0.05 1.173,-0.034 1.78,0.047 l 0.143,0.019 -0.278,-0.295 c -1.534,-1.633 -2.661,-3.8 -3.013,-5.793 -0.088,-0.501 -0.08,-0.513 0.116,-0.152 0.806,1.483 1.773,2.315 3.19,2.744 0.431,0.131 0.881,0.22 1.756,0.349 l 1.99,0.363 c 1.772,0.465 3.054,1.435 4.195,3.174 l 0.289,0.413 c 0.01,0 0.155,-0.045 0.321,-0.099 a 6.96,6.96 0 0 1 1.221,-0.268 c 0.533,-0.075 1.673,-0.069 2.344,0.013 l 0.506,0.062 0.487,-0.057 c 1.367,-0.159 2.512,-0.08 3.608,0.249 l 0.064,0.019 -0.062,-0.141 c -0.094,-0.215 -0.087,-0.522 0.018,-0.758 a 1.08,1.08 0 0 1 0.494,-0.51 c 0.207,-0.096 0.566,-0.09 0.78,0.012 0.205,0.098 0.381,0.277 0.473,0.482 l 0.072,0.161 0.245,-0.263 c 0.508,-0.545 1.023,-0.924 1.727,-1.272 0.538,-0.266 0.925,-0.408 1.98,-0.725 l 1.154,-0.369 c 1.423,-0.53 2.278,-1.306 2.921,-2.65 l 0.298,-0.7 0.126,-0.349 c 0.018,-0.044 0.038,0.004 0.083,0.203 0.342,1.498 0.165,3.347 -0.466,4.874 l -0.089,0.225 a 6.73,6.73 0 0 0 0.144,-0.044 0.95,0.95 0 0 1 0.937,0.215 0.87,0.87 0 0 1 0.299,0.676 c 0.012,0.225 0.005,0.269 -0.062,0.417 a 1.39,1.39 0 0 1 -0.149,0.256 l -0.075,0.091 0.31,0.074 c 0.271,0.065 0.311,0.069 0.318,0.029 0.005,-0.025 -0.082,-0.332 -0.193,-0.683 -0.417,-1.319 -0.485,-2.136 -0.267,-3.196 0.154,-0.746 0.364,-1.282 1.101,-2.804 0.729,-1.506 0.945,-2.047 1.147,-2.886 0.162,-0.67 0.26,-1.56 0.236,-2.129 -0.006,-0.151 -0.003,-0.271 0.009,-0.266 0.035,0.013 0.363,0.402 0.53,0.628 0.665,0.901 1.216,2.225 1.483,3.571 0.077,0.387 0.078,0.389 0.149,0.371 a 2.27,2.27 0 0 1 0.277,-0.034 c 0.192,-0.014 0.284,0.002 0.495,0.091 0.041,0.017 0.041,-0.003 0.004,-0.222 -0.027,-0.154 -0.042,-0.445 -0.043,-0.808 -10e-4,-0.59 0.033,-0.894 0.154,-1.379 0.032,-0.128 0.047,-0.236 0.033,-0.24 -0.089,-0.03 -0.509,-0.297 -0.686,-0.435 -1.979,-1.545 -3.052,-5.245 -2.414,-8.318 0.107,-0.514 0.352,-1.208 0.57,-1.612 0.121,-0.225 0.126,-0.229 0.144,-0.145 0.195,0.888 0.453,1.508 0.877,2.111 0.17,0.241 0.643,0.809 0.675,0.809 0.009,0 0.037,-0.075 0.064,-0.167 a 0.78,0.78 0 0 1 0.357,-0.463 c 0.105,-0.063 0.175,-0.08 0.361,-0.09 0.212,-0.011 0.244,-0.004 0.4,0.077 l 0.175,0.082 c 0.003,-0.003 0.057,-0.119 0.119,-0.258 l 0.114,-0.252 -0.161,-0.065 c -2.016,-0.816 -3.723,-3.393 -4.155,-6.273 -0.036,-0.24 -0.05,-0.511 -0.051,-0.959 0,-0.641 0.023,-0.877 0.133,-1.344 l 0.06,-0.255 0.141,0.268 a 5.01,5.01 0 0 0 0.52,0.823 c 0.221,0.29 0.671,0.728 0.975,0.951 0.203,0.148 1.382,0.893 1.414,0.893 0.006,0 0.005,-0.077 -0.003,-0.171 a 0.85,0.85 0 0 1 0.152,-0.56 c 0.086,-0.126 0.301,-0.276 0.434,-0.303 l 0.092,-0.019 -0.215,-0.12 c -1.395,-0.776 -2.589,-2.544 -3.093,-4.58 -0.176,-0.709 -0.212,-1.019 -0.211,-1.815 0,-0.756 0.026,-0.977 0.169,-1.479 l 0.049,-0.171 0.178,0.352 c 0.236,0.465 0.453,0.771 0.798,1.126 0.315,0.324 0.558,0.517 1.077,0.855 l 0.348,0.227 0.017,-0.166 c 0.037,-0.367 0.304,-0.662 0.657,-0.724 l 0.113,-0.02 -0.302,-0.244 C 51.252,23.992 50.247,22.218 49.896,20.456 49.7,19.474 49.702,18.428 49.899,17.682 l 0.061,-0.229 0.161,0.316 c 0.233,0.456 0.432,0.737 0.771,1.086 0.339,0.349 0.52,0.491 1.069,0.841 l 1.472,1.028 c 0.268,0.238 0.632,0.666 0.849,0.996 l 0.136,0.208 0.018,-0.159 c 0.067,-0.582 0.646,-0.905 1.156,-0.645 0.286,0.146 0.423,0.38 0.426,0.732 l 0.003,0.199 0.121,-0.095 A 7.98,7.98 0 0 0 56.62,21.5 c 0.509,-0.522 0.802,-0.992 1.04,-1.667 l 0.094,-0.268 0.103,0.23 c 0.533,1.184 0.633,2.558 0.286,3.925 -0.386,1.518 -1.361,3.181 -2.728,4.652 l -0.192,0.225 c 0,0.01 0.022,0.019 0.05,0.019 0.095,0.001 0.287,0.111 0.405,0.231 0.118,0.12 0.118,0.12 0.185,0.068 l 1.165,-0.996 c 0.532,-0.514 0.97,-1.225 1.16,-1.881 0.02,-0.068 0.043,-0.123 0.053,-0.123 0.01,0 0.061,0.102 0.114,0.225 0.722,1.67 0.635,3.466 -0.263,5.393 -0.504,1.081 -1.327,2.254 -2.315,3.299 l -0.323,0.341 0.124,0.089 c 0.068,0.049 0.159,0.149 0.201,0.223 a 0.53,0.53 0 0 0 0.092,0.133 c 0.038,0 0.588,-0.475 0.858,-0.741 0.515,-0.507 0.858,-1.033 1.122,-1.722 l 0.148,-0.386 0.076,0.153 c 0.204,0.414 0.412,1.122 0.498,1.693 0.059,0.393 0.067,1.224 0.015,1.612 -0.09,0.674 -0.294,1.434 -0.56,2.081 -0.519,1.262 -1.471,2.683 -2.6,3.878 l -0.345,0.385 0.148,0.088 c 0.12,0.07 0.28,0.247 0.313,0.346 0.019,0.058 0.837,-0.633 1.262,-1.067 0.303,-0.309 0.454,-0.491 0.619,-0.744 0.233,-0.359 0.45,-0.8 0.577,-1.176 l 0.099,-0.256 c 0.022,-0.026 0.244,0.491 0.359,0.834 0.095,0.284 0.198,0.706 0.253,1.035 0.063,0.38 0.087,1.279 0.044,1.69 -0.167,1.596 -0.884,3.313 -2.056,4.925 l -0.197,0.29 c 0,0.01 0.052,0.064 0.115,0.119 0.137,0.119 0.221,0.277 0.246,0.459 l 0.018,0.132 0.085,-0.081 c 0.146,-0.14 0.476,-0.592 0.641,-0.878 0.2,-0.347 0.404,-0.823 0.536,-1.252 l 0.123,-0.39 c 0.027,-0.072 0.189,0.594 0.233,0.956 a 8.4,8.4 0 0 1 -0.015,1.569 c -0.186,1.428 -0.791,2.895 -1.713,4.15 -0.809,1.102 -1.811,1.988 -2.889,2.557 -0.767,0.405 -1.429,0.611 -2.347,0.732 l -0.139,0.018 0.087,0.092 c 0.143,0.151 0.244,0.41 0.245,0.63 0,0.104 -0.009,0.225 -0.02,0.269 l -0.021,0.08 0.163,-0.073 c 0.372,-0.168 0.88,-0.517 1.298,-0.892 l 0.234,-0.21 -0.136,0.261 c -0.332,0.639 -0.854,1.333 -1.485,1.976 -2.213,2.256 -5.252,3.32 -7.552,2.642 -0.682,-0.201 -1.259,-0.506 -1.798,-0.949 l -0.231,-0.19 0.053,0.141 c 0.031,0.083 0.053,0.217 0.053,0.325 0,0.436 -0.2,0.696 -0.68,0.882 -0.061,0.024 -0.038,0.041 0.221,0.163 0.359,0.17 0.834,0.318 1.243,0.388 0.555,0.095 1.826,0.057 2.251,-0.067 0.232,-0.067 -0.575,0.354 -1.026,0.536 -2.087,0.842 -4.663,1.038 -6.908,0.524 -1.363,-0.312 -2.613,-0.905 -3.492,-1.656 a 7.83,7.83 0 0 1 -0.93,-0.969 6.22,6.22 0 0 1 -1.09,-2.449 c -0.038,-0.187 -0.075,-0.32 -0.083,-0.296 -0.008,0.024 -0.036,0.161 -0.062,0.305 -0.106,0.581 -0.42,1.388 -0.755,1.947 -1.009,1.681 -2.998,2.867 -5.451,3.252 a 12.69,12.69 0 0 1 -2.577,0.133 z"
       fill="#8c7600"
       id="path40" />
    <g
       fill="#ffd700"
       id="g92"
       transform="translate(5.524,-134.923)">
      <path
         d="m 49.982,157.36 c 0.059,-0.031 0.154,-0.108 0.21,-0.171 0.356,-0.402 0.059,-1.055 -0.479,-1.055 -0.478,0 -0.773,0.478 -0.57,0.923 0.067,0.146 0.193,0.271 0.331,0.327 0.123,0.05 0.39,0.038 0.508,-0.024 z"
         id="path42" />
      <path
         d="m 49.611,157.582 c -0.084,-0.012 -0.211,-0.054 -0.284,-0.093 l -0.132,-0.07 0.101,0.258 0.101,0.258 0.183,-0.165 0.183,-0.165 z"
         id="path44" />
      <path
         d="m 47.89,160.009 a 7.61,7.61 0 0 1 0.299,-0.522 l 0.17,-0.268 -0.433,-0.404 c -0.933,-0.871 -1.4,-1.444 -1.623,-1.995 -0.12,-0.296 -0.114,-0.33 0.014,-0.087 0.32,0.606 0.772,1.118 1.749,1.98 l 0.4,0.353 0.217,-0.28 0.407,-0.492 c 0.224,-0.249 0.223,-0.227 0.026,-0.703 -0.255,-0.617 -0.594,-1.116 -1.085,-1.6 -0.349,-0.344 -0.574,-0.518 -1.35,-1.045 -0.828,-0.563 -1.103,-0.776 -1.439,-1.119 a 4.3,4.3 0 0 1 -0.696,-0.939 c -0.035,-0.069 -0.069,-0.12 -0.077,-0.112 -0.039,0.04 -0.098,0.523 -0.114,0.935 -0.045,1.146 0.227,2.379 0.788,3.579 0.502,1.072 1.117,1.892 1.908,2.543 0.167,0.137 0.625,0.43 0.673,0.43 0.02,0 0.095,-0.114 0.166,-0.254 z m -0.514,1.295 a 6.16,6.16 0 0 1 0.176,-0.548 l 0.098,-0.285 c 0,-0.041 -0.182,-0.136 -0.307,-0.16 -0.051,-0.01 -0.16,-0.004 -0.24,0.014 -0.118,0.026 -0.176,0.061 -0.295,0.183 -0.119,0.122 -0.153,0.177 -0.179,0.309 -0.053,0.272 -0.027,0.321 0.295,0.563 0.157,0.118 0.305,0.215 0.33,0.216 0.034,0.002 0.065,-0.072 0.123,-0.293 z"
         id="path46" />
      <path
         d="m 5.081,162.918 c 1.543,-0.817 2.783,-2.885 3.23,-5.386 0.123,-0.689 0.147,-0.987 0.146,-1.845 -0.001,-0.871 -0.03,-1.184 -0.172,-1.829 -0.073,-0.332 -0.239,-0.86 -0.324,-1.029 l -0.049,-0.098 -0.107,0.316 a 5.47,5.47 0 0 1 -0.916,1.626 c -0.102,0.127 -0.594,0.648 -1.092,1.16 -1.108,1.137 -1.442,1.553 -1.807,2.252 -0.258,0.493 -0.529,1.314 -0.579,1.752 -0.017,0.144 -0.008,0.171 0.211,0.631 l 0.377,0.843 0.17,0.387 c 0.012,0.013 0.123,-0.111 0.248,-0.276 l 0.64,-0.84 c 0.985,-1.284 1.355,-1.93 1.578,-2.758 0.075,-0.278 0.092,-0.206 0.03,0.125 a 4.38,4.38 0 0 1 -0.368,1.06 c -0.283,0.576 -0.547,0.981 -1.398,2.141 l -0.604,0.901 0.16,0.538 0.157,0.515 c 0.013,0.043 0.118,0.002 0.469,-0.184 z m 44.464,0.53 c 0.624,-0.635 1.022,-1.128 1.48,-1.834 a 10.27,10.27 0 0 0 0.812,-1.445 c 0.805,-1.716 1.04,-3.359 0.666,-4.669 -0.069,-0.244 -0.242,-0.649 -0.265,-0.622 a 0.98,0.98 0 0 0 -0.072,0.169 c -0.249,0.7 -0.693,1.258 -1.767,2.218 -0.946,0.846 -1.412,1.336 -1.861,1.956 -0.521,0.719 -0.936,1.596 -1.101,2.324 l -0.044,0.193 0.24,0.249 c 0.212,0.221 0.532,0.622 0.611,0.765 0.015,0.028 0.033,0.045 0.039,0.037 0.006,-0.008 0.06,-0.158 0.12,-0.334 0.235,-0.691 0.618,-1.528 0.974,-2.126 0.412,-0.693 0.975,-1.346 1.435,-1.665 0.069,-0.048 0.033,0.003 -0.114,0.162 -0.918,0.989 -1.625,2.271 -2.119,3.842 l -0.131,0.415 0.153,0.311 0.217,0.492 c 0.059,0.167 0.069,0.178 0.123,0.149 0.032,-0.018 0.304,-0.282 0.605,-0.587 z"
         id="path48" />
      <path
         d="m 49.602,164.59 0.408,-0.439 c 0.116,-0.109 0.123,-0.123 0.088,-0.188 -0.075,-0.144 -0.436,-0.315 -0.563,-0.268 -0.015,0.005 -0.152,0.133 -0.305,0.284 l -0.277,0.274 0.052,0.235 c 0.041,0.185 0.071,0.255 0.143,0.329 0.05,0.052 0.109,0.094 0.131,0.094 0.022,0 0.167,-0.145 0.322,-0.322 z"
         id="path50" />
      <path
         d="m 49.173,165.088 c 0.009,-0.015 0.004,-0.035 -0.013,-0.045 -0.017,-0.01 -0.029,0.002 -0.029,0.027 0,0.051 0.017,0.059 0.041,0.018 z"
         id="path52" />
      <path
         d="m 48.347,166.4 0.18,-0.356 -0.546,-0.528 c -1.491,-1.444 -1.918,-1.956 -2.156,-2.585 -0.11,-0.292 -0.109,-0.351 0.003,-0.11 0.254,0.548 0.7,1.087 1.556,1.877 l 1.137,1.064 0.116,0.11 0.191,-0.288 c 0.105,-0.158 0.191,-0.315 0.191,-0.349 0,-0.132 -0.153,-0.792 -0.259,-1.115 a 4.71,4.71 0 0 0 -1.255,-2.043 c -0.343,-0.338 -0.542,-0.496 -1.321,-1.044 -0.731,-0.515 -0.998,-0.727 -1.296,-1.032 -0.287,-0.293 -0.491,-0.564 -0.674,-0.896 -0.088,-0.16 -0.14,-0.229 -0.154,-0.203 -0.014,0.026 -0.044,0.169 -0.072,0.329 a 8.31,8.31 0 0 0 -0.016,1.729 c 0.096,0.698 0.281,1.412 0.53,2.045 0.629,1.599 1.626,2.847 2.75,3.443 0.245,0.13 0.785,0.326 0.865,0.315 0.034,-0.005 0.112,-0.126 0.232,-0.364 z"
         id="path54" />
      <path
         d="m 48.105,166.916 c 0,-0.016 -0.014,-0.029 -0.03,-0.029 -0.016,0 -0.022,0.013 -0.013,0.029 0.009,0.016 0.023,0.029 0.03,0.029 0.007,0 0.013,-0.013 0.013,-0.029 z m -44.897,0.168 a 8.13,8.13 0 0 1 0.376,-0.567 l 0.218,-0.298 -0.192,-0.327 -0.666,-1.082 -1.01,-1.726 c -0.328,-0.667 -0.445,-1.093 -0.44,-1.595 0.004,-0.338 -10e-4,-0.35 0.082,0.213 0.064,0.434 0.268,0.968 0.602,1.581 0.11,0.201 0.552,0.905 0.984,1.564 l 0.784,1.198 0.357,-0.37 0.357,-0.37 -0.017,-0.363 C 4.595,163.887 4.252,162.569 3.663,161.18 2.89,159.356 1.63,157.371 0.593,156.343 l -0.22,-0.218 0.017,0.116 c 0.009,0.064 0.025,0.399 0.035,0.744 0.024,0.868 -0.031,1.393 -0.276,2.611 -0.22,1.091 -0.259,1.385 -0.275,2.063 -0.017,0.704 0.017,1.035 0.165,1.62 0.344,1.359 1.304,2.865 2.313,3.625 0.146,0.11 0.671,0.45 0.695,0.45 0.003,0 0.075,-0.121 0.161,-0.269 z"
         id="path56" />
      <path
         d="m 47.675,168.057 c 0.089,-0.047 0.102,-0.071 0.161,-0.312 l 0.124,-0.432 0.059,-0.171 -0.058,-0.083 c -0.132,-0.19 -0.441,-0.295 -0.676,-0.23 -0.151,0.041 -0.339,0.209 -0.408,0.365 a 0.69,0.69 0 0 0 0.138,0.73 c 0.183,0.176 0.47,0.234 0.661,0.134 z"
         id="path58" />
      <path
         d="m 47.717,168.379 c 0.01,-0.075 0.015,-0.139 0.01,-0.143 -0.005,-0.004 -0.07,0.006 -0.145,0.022 l -0.138,0.03 0.108,0.113 c 0.06,0.062 0.117,0.113 0.127,0.113 0.01,0 0.027,-0.061 0.037,-0.135 z"
         id="path60" />
      <path
         d="m 49.501,170.29 a 12.08,12.08 0 0 0 1.038,-1.049 c 1.379,-1.601 2.322,-3.536 2.57,-5.274 a 6.53,6.53 0 0 0 -0.001,-1.627 c -0.057,-0.326 -0.211,-0.833 -0.314,-1.031 -0.059,-0.113 -0.071,-0.123 -0.089,-0.073 -0.142,0.4 -0.354,0.802 -0.589,1.114 -0.227,0.301 -0.576,0.653 -1.275,1.284 -1.307,1.18 -1.892,1.877 -2.39,2.846 -0.328,0.639 -0.576,1.418 -0.62,1.945 l -0.019,0.231 0.157,0.183 c 0.183,0.215 0.492,0.637 0.552,0.755 0.023,0.045 0.051,0.082 0.062,0.082 0.011,0 0.083,-0.199 0.158,-0.443 0.541,-1.74 1.403,-3.27 2.251,-3.996 0.396,-0.339 0.45,-0.357 0.169,-0.055 -0.845,0.907 -1.515,2.087 -2.005,3.532 l -0.368,1.294 c 0,0.033 0.06,0.194 0.134,0.357 l 0.134,0.297 0.13,-0.106 0.315,-0.267 z"
         id="path62" />
      <path
         d="m 49.613,171.209 0.41,-0.37 c 0.146,-0.118 0.161,-0.14 0.147,-0.218 -0.019,-0.112 -0.145,-0.27 -0.268,-0.337 l -0.096,-0.053 -0.226,0.209 -0.34,0.311 -0.114,0.102 0.077,0.276 0.09,0.298 c 0.028,0.049 0.084,0.011 0.32,-0.218 z"
         id="path64" />
      <path
         d="m 48.015,173.257 0.29,-0.469 c 0.08,-0.118 0.135,-0.224 0.123,-0.235 l -1.68,-1.56 c -0.566,-0.581 -0.941,-1.126 -1.108,-1.611 -0.065,-0.189 -0.049,-0.172 0.095,0.1 a 5.2,5.2 0 0 0 0.306,0.494 c 0.249,0.347 0.938,1.041 1.624,1.635 l 0.75,0.657 0.151,0.139 0.201,-0.254 0.316,-0.376 0.115,-0.122 -0.052,-0.198 c -0.361,-1.375 -0.959,-2.339 -1.957,-3.149 -0.162,-0.131 -0.576,-0.428 -0.921,-0.659 l -1.315,-0.925 c -0.493,-0.4 -0.886,-0.846 -1.142,-1.296 -0.072,-0.126 -0.14,-0.218 -0.153,-0.205 -0.013,0.013 -0.044,0.187 -0.07,0.386 -0.056,0.436 -0.042,1.293 0.029,1.772 a 11.74,11.74 0 0 0 0.386,1.579 c 0.672,1.988 1.932,3.631 3.334,4.348 0.265,0.135 0.416,0.198 0.488,0.201 0.029,0.001 0.1,-0.092 0.191,-0.252 z m -43.992,0.368 c 1.202,-0.521 2.286,-1.647 3.078,-3.197 1.322,-2.587 1.677,-6.004 0.876,-8.428 -0.16,-0.485 -0.216,-0.618 -0.245,-0.585 -0.013,0.014 -0.063,0.15 -0.112,0.302 -0.203,0.63 -0.645,1.404 -1.16,2.034 -0.137,0.168 -0.694,0.756 -1.236,1.307 l -1.223,1.293 a 7.24,7.24 0 0 0 -1.671,3.864 12.08,12.08 0 0 0 -0.061,0.962 l -0.017,0.643 0.094,0.142 c 0.134,0.203 0.51,0.68 0.535,0.678 0.012,-10e-4 0.133,-0.164 0.27,-0.362 l 0.955,-1.284 c 1.06,-1.388 1.394,-1.882 1.716,-2.536 a 5.22,5.22 0 0 0 0.401,-1.061 l 0.085,-0.32 -0.018,0.216 c -0.048,0.585 -0.325,1.331 -0.784,2.108 -0.282,0.478 -0.47,0.752 -1.267,1.845 l -0.923,1.283 -0.234,0.339 0.173,0.238 0.29,0.438 c 0.064,0.11 0.136,0.2 0.159,0.2 0.023,0 0.167,-0.053 0.317,-0.119 z m 43.162,1.797 c 0.015,-0.02 0.043,-0.115 0.062,-0.211 0.019,-0.096 0.08,-0.322 0.134,-0.504 0.111,-0.367 0.11,-0.374 -0.077,-0.471 -0.413,-0.215 -0.861,0.043 -0.927,0.533 l -0.018,0.137 0.266,0.276 c 0.261,0.271 0.268,0.276 0.399,0.276 0.074,0 0.146,-0.016 0.161,-0.036 z m -0.02,0.241 c 0,-0.039 -0.014,-0.052 -0.043,-0.04 -0.029,0.012 -0.036,0.026 -0.01,0.057 0.044,0.054 0.054,0.051 0.054,-0.017 z"
         id="path66" />
      <path
         d="m 48.795,177.954 c 1.22,-0.991 2.368,-2.449 3.123,-3.969 0.928,-1.866 1.239,-3.633 0.889,-5.049 -0.077,-0.311 -0.222,-0.709 -0.296,-0.812 -0.033,-0.046 -0.044,-0.031 -0.103,0.134 -0.155,0.436 -0.413,0.863 -0.795,1.316 -0.231,0.273 -0.517,0.548 -1.229,1.178 -0.591,0.523 -1.283,1.23 -1.592,1.627 -0.821,1.052 -1.339,2.178 -1.489,3.233 -0.033,0.229 -0.031,0.251 0.02,0.319 l 0.237,0.312 a 6.84,6.84 0 0 1 0.362,0.546 c 0.099,0.169 0.186,0.288 0.192,0.266 0.247,-0.861 0.545,-1.641 0.92,-2.409 0.533,-1.091 1.153,-1.94 1.762,-2.414 0.273,-0.212 0.27,-0.201 -0.038,0.144 -1.067,1.198 -1.775,2.58 -2.33,4.549 l -0.155,0.551 0.115,0.312 0.115,0.345 c 0,0.05 0.036,0.029 0.291,-0.179 z"
         id="path68" />
      <path
         d="m 49.288,178.675 0.411,-0.406 0.211,-0.193 -0.084,-0.139 c -0.063,-0.103 -0.125,-0.16 -0.245,-0.222 l -0.161,-0.084 -0.386,0.359 c -0.429,0.398 -0.422,0.382 -0.284,0.628 0.064,0.114 0.241,0.269 0.309,0.27 0.016,0 0.119,-0.095 0.228,-0.212 z m -0.358,0.358 c -10e-4,-0.008 -0.056,-0.056 -0.123,-0.106 l -0.121,-0.09 0.025,0.163 c 0.04,0.259 0.044,0.263 0.138,0.149 0.046,-0.055 0.082,-0.108 0.081,-0.116 z"
         id="path70" />
      <path
         d="m 3.479,179.756 c 0.019,-0.354 -0.477,-1.499 -1.391,-3.208 l -1.076,-2.214 c -0.269,-0.707 -0.379,-1.31 -0.322,-1.762 0.052,-0.415 0.074,-0.418 0.077,-0.011 0.004,0.45 0.069,0.818 0.239,1.329 0.226,0.681 0.483,1.206 1.338,2.731 l 1.13,2.194 0.11,0.261 0.025,-0.131 0.331,-1.386 c 0.077,-0.294 0.127,-0.987 0.106,-1.49 -0.053,-1.295 -0.428,-2.28 -1.218,-3.196 -0.372,-0.431 -0.462,-0.55 -0.717,-0.944 -0.435,-0.672 -0.752,-1.392 -1.348,-3.065 l -0.807,-2.026 -0.081,-0.164 v 0.565 c 0,0.853 -0.103,1.51 -0.425,2.686 l -0.27,0.988 c -0.281,1.031 -0.378,1.663 -0.377,2.455 a 6.11,6.11 0 0 0 0.348,2.121 c 0.703,2.149 2.07,3.758 3.639,4.283 0.234,0.078 0.599,0.162 0.652,0.15 0.016,-0.004 0.032,-0.078 0.037,-0.165 z m 43.674,2.276 0.311,-0.763 0.1,-0.203 -0.58,-0.879 -0.728,-1.136 c -0.456,-0.793 -0.69,-1.438 -0.729,-2.009 l -0.016,-0.232 0.057,0.266 c 0.121,0.564 0.387,1.174 0.802,1.838 l 1.303,1.884 c 0.012,0.004 0.088,-0.107 0.17,-0.247 0.128,-0.219 0.332,-0.521 0.685,-1.01 0.081,-0.113 0.083,-0.122 0.059,-0.32 a 5.79,5.79 0 0 0 -0.706,-2.165 c -0.299,-0.534 -0.577,-0.89 -1.422,-1.821 l -0.79,-0.895 a 5.52,5.52 0 0 1 -1.059,-2.005 l -0.048,-0.174 -0.093,0.203 c -0.223,0.486 -0.423,1.245 -0.514,1.947 a 13.32,13.32 0 0 0 -0.015,2.121 c 0.289,2.577 1.363,4.662 2.888,5.607 0.115,0.071 0.224,0.13 0.242,0.13 0.018,0 0.056,-0.061 0.083,-0.137 z m 3.821,2.502 c 0.165,-0.136 0.216,-0.225 0.229,-0.394 a 0.45,0.45 0 0 0 -0.055,-0.284 c -0.056,-0.111 -0.219,-0.265 -0.277,-0.26 -0.009,0.001 -0.064,0.063 -0.121,0.138 l -0.306,0.376 c -0.112,0.132 -0.203,0.257 -0.203,0.278 0,0.021 0.029,0.067 0.064,0.101 a 0.52,0.52 0 0 0 0.668,0.046 z m -1.515,0.859 a 10.81,10.81 0 0 0 1.054,-0.532 c 0.101,-0.064 0.107,-0.075 0.057,-0.092 a 0.77,0.77 0 0 1 -0.335,-0.184 c -0.059,-0.055 -0.111,-0.094 -0.115,-0.088 -0.004,0.006 -0.224,0.237 -0.489,0.513 l -0.466,0.501 c 0.009,0 0.141,-0.053 0.294,-0.118 z"
         id="path72" />
      <path
         d="m 5.927,185.3 c -0.018,-0.749 -0.049,-1.11 -0.205,-2.361 -0.304,-2.447 -0.302,-3.434 0.01,-4.375 0.069,-0.207 0.242,-0.591 0.189,-0.419 -0.193,0.626 -0.228,0.903 -0.228,1.801 0,0.898 -0.003,0.881 0.243,2.629 l 0.281,2.76 c 0.017,0.589 0.025,0.671 0.056,0.596 0.217,-0.524 0.494,-1.057 0.868,-1.671 0.542,-0.89 0.825,-1.588 0.958,-2.368 0.059,-0.344 0.084,-0.946 0.057,-1.377 -0.045,-0.726 -0.125,-1.19 -0.478,-2.763 -0.297,-1.322 -0.376,-1.793 -0.435,-2.586 -0.056,-0.754 -0.001,-1.641 0.15,-2.406 0.032,-0.165 0.051,-0.307 0.042,-0.316 -0.047,-0.048 -0.799,0.655 -1.156,1.081 -1.414,1.687 -2.358,3.987 -2.627,6.406 a 13.16,13.16 0 0 0 0.014,2.15 c 0.236,1.739 0.927,3.019 2.05,3.798 a 1.18,1.18 0 0 0 0.202,0.123 c 0.014,0 0.018,-0.295 0.009,-0.704 z m 41.735,0.356 c 0.432,-1.938 1.229,-3.825 2.131,-5.05 0.261,-0.355 0.74,-0.862 1.002,-1.061 0.3,-0.228 0.308,-0.225 0.073,0.028 -1.179,1.263 -2.017,2.847 -2.609,4.931 l -0.365,1.499 c 0.005,0.006 0.159,-0.046 0.341,-0.116 0.415,-0.16 0.603,-0.307 1.297,-1.013 1.654,-1.681 2.855,-3.783 3.346,-5.856 a 6.67,6.67 0 0 0 0.203,-1.54 c 0.024,-0.79 -0.075,-1.421 -0.32,-2.044 -0.153,-0.39 -0.161,-0.396 -0.239,-0.175 -0.086,0.243 -0.264,0.604 -0.413,0.839 -0.307,0.483 -0.717,0.917 -1.682,1.783 -1.557,1.396 -2.256,2.257 -2.847,3.507 -0.416,0.88 -0.613,1.706 -0.614,2.574 -10e-4,0.471 0.031,0.746 0.13,1.151 0.107,0.436 0.387,1.106 0.437,1.048 a 4.54,4.54 0 0 0 0.129,-0.505 z m -0.937,0.919 c 0.191,-0.091 0.337,-0.225 0.409,-0.377 0.079,-0.167 0.076,-0.213 -0.044,-0.594 -0.114,-0.361 -0.166,-0.427 -0.408,-0.514 -0.204,-0.073 -0.553,-0.039 -0.59,0.058 -0.009,0.022 0.005,0.227 0.029,0.456 l 0.063,0.712 c 0.021,0.331 0.012,0.319 0.254,0.325 a 0.63,0.63 0 0 0 0.287,-0.065 z m -0.415,0.257 c 0,-0.007 -0.026,-0.013 -0.057,-0.013 -0.031,0 -0.057,0.019 -0.057,0.045 0,0.036 0.012,0.038 0.057,0.013 0.031,-0.017 0.057,-0.037 0.057,-0.045 z"
         id="path74" />
      <path
         d="m 46.352,191.334 a 6.13,6.13 0 0 0 1.853,-0.607 c 2.724,-1.367 4.732,-4.708 4.621,-7.685 -0.017,-0.446 -0.06,-0.817 -0.106,-0.901 -0.02,-0.036 -0.027,-0.034 -0.044,0.015 -0.074,0.21 -0.44,1.006 -0.57,1.241 -0.52,0.938 -1.202,1.536 -2.335,2.046 l -1.077,0.444 c -1.152,0.449 -1.779,0.748 -2.248,1.073 l -0.236,0.164 -0.033,0.494 c -0.036,0.542 -0.096,1.02 -0.178,1.424 l -0.045,0.271 c 0.012,0.013 1.593,-0.825 1.937,-1.025 0.855,-0.5 1.439,-0.983 1.861,-1.541 l 0.065,-0.087 -0.048,0.102 c -0.129,0.272 -0.469,0.681 -0.814,0.978 -0.496,0.427 -1.019,0.763 -2.288,1.469 l -0.796,0.443 -0.146,0.436 c -0.165,0.493 -0.281,0.778 -0.441,1.081 -0.075,0.142 -0.1,0.214 -0.077,0.225 0.059,0.029 0.849,-0.012 1.144,-0.059 z m -6.518,0.731 a 0.84,0.84 0 0 0 -0.064,-0.146 c -0.039,-0.078 -0.07,-0.165 -0.07,-0.193 0,-0.115 -0.057,-0.071 -0.194,0.148 l -0.144,0.231 0.233,-0.018 z"
         id="path76" />
      <path
         d="m 41.165,192.055 a 0.79,0.79 0 0 0 0.022,-1.121 c -0.373,-0.395 -0.98,-0.307 -1.24,0.18 -0.149,0.279 -0.122,0.621 0.067,0.854 0.083,0.102 0.099,0.109 0.25,0.111 a 4.29,4.29 0 0 1 0.432,0.04 l 0.314,0.041 c 0.024,0.002 0.093,-0.045 0.154,-0.105 z m -32.778,0.109 1.529,-0.301 c 0.025,-0.026 -0.579,-0.573 -0.917,-0.832 -0.512,-0.39 -0.915,-0.66 -1.909,-1.277 -1.563,-0.971 -2.225,-1.448 -2.763,-1.991 a 4.42,4.42 0 0 1 -0.752,-0.981 c -0.15,-0.277 -0.15,-0.311 0,-0.092 0.595,0.87 1.321,1.448 3.287,2.614 1.716,1.018 2.419,1.51 3.113,2.176 0.129,0.124 0.235,0.207 0.235,0.184 0,-0.066 -0.194,-0.675 -0.327,-1.025 -0.659,-1.734 -1.568,-2.927 -2.894,-3.798 -0.539,-0.354 -1.106,-0.642 -2.449,-1.242 -1.746,-0.78 -2.658,-1.462 -3.338,-2.497 -0.213,-0.323 -0.454,-0.792 -0.597,-1.158 l -0.103,-0.239 c -0.009,-0.008 -0.008,0.169 0.003,0.394 0.111,2.482 1.083,5.135 2.616,7.146 a 12.13,12.13 0 0 0 1.449,1.505 c 0.922,0.747 1.935,1.233 2.977,1.429 0.282,0.053 0.405,0.051 0.841,-0.014 z m 23.113,0.458 a 1.26,1.26 0 0 0 0.153,-0.211 l 0.256,-0.385 c 0.143,-0.203 0.147,-0.215 0.122,-0.33 -0.082,-0.372 -0.388,-0.618 -0.765,-0.617 a 0.66,0.66 0 0 0 -0.514,0.203 c -0.327,0.301 -0.343,0.849 -0.033,1.152 0.179,0.174 0.655,0.289 0.782,0.188 z m 12.761,-6.373 c 10e-4,-0.034 0.008,-0.041 0.017,-0.018 0.009,0.023 0.008,0.046 -0.003,0.056 -0.011,0.01 -0.016,-0.007 -0.015,-0.038 z"
         id="path78" />
      <path
         d="m 43.836,192.725 c 0.938,-0.777 1.573,-1.895 1.931,-3.403 0.28,-1.179 0.337,-2.637 0.155,-3.985 -0.179,-1.33 -0.605,-2.644 -1.173,-3.623 -0.23,-0.395 -0.616,-0.937 -0.625,-0.877 l -0.036,0.494 c -0.064,0.958 -0.256,1.794 -0.633,2.756 -0.078,0.2 -0.409,0.919 -0.736,1.598 -0.91,1.893 -1.116,2.498 -1.195,3.499 -0.056,0.708 0.041,1.354 0.354,2.373 l 0.226,0.738 c 0.029,0.096 0.054,0.122 0.143,0.153 a 0.99,0.99 0 0 0 0.19,0.044 l 0.082,0.007 0.182,-0.552 0.615,-1.656 c 0.766,-1.952 0.928,-2.542 0.963,-3.501 0.02,-0.554 0.054,-0.512 0.082,0.102 0.037,0.819 -0.164,1.702 -0.744,3.269 l -0.827,2.435 c 0.026,0.026 0.771,0.206 0.861,0.208 0.058,0.001 0.125,-0.027 0.185,-0.077 z"
         id="path80" />
      <path
         d="m 45.416,192.862 0.321,-0.079 c 0.168,-0.045 0.186,-0.057 0.234,-0.167 0.126,-0.284 0.039,-0.678 -0.2,-0.897 -0.157,-0.144 -0.22,-0.166 -0.482,-0.165 l -0.219,0.001 -0.128,0.194 -0.292,0.399 c -0.112,0.14 -0.164,0.23 -0.164,0.286 0,0.099 0.095,0.297 0.195,0.409 0.075,0.083 0.077,0.083 0.335,0.066 0.143,-0.009 0.322,-0.03 0.399,-0.047 z"
         id="path82" />
      <path
         d="m 44.419,192.793 a 1.23,1.23 0 0 1 -0.083,-0.192 c -0.016,-0.062 -0.025,-0.058 -0.19,0.088 -0.095,0.084 -0.167,0.16 -0.159,0.168 0.008,0.008 0.283,0.05 0.434,0.06 l 0.063,0.004 z m -24.904,1.127 c 0.052,-0.008 0.168,-0.082 0.285,-0.181 0.405,-0.345 0.727,-0.576 1.133,-0.813 l 0.252,-0.147 -0.18,-0.092 c -0.481,-0.247 -1.12,-0.469 -2.667,-0.926 l -1.461,-0.454 c -1.139,-0.404 -1.888,-0.856 -2.339,-1.413 l -0.125,-0.155 0.182,0.166 c 0.378,0.345 0.879,0.644 1.52,0.906 0.498,0.204 0.972,0.35 2.301,0.711 1.489,0.405 2.218,0.653 2.827,0.965 0.232,0.119 0.322,0.136 0.401,0.076 0.043,-0.033 0.022,-0.075 -0.211,-0.429 -0.914,-1.384 -1.96,-2.298 -3.203,-2.798 -0.66,-0.266 -1.287,-0.411 -2.664,-0.617 l -1.182,-0.191 c -1.353,-0.272 -2.184,-0.692 -2.978,-1.506 a 6.77,6.77 0 0 1 -0.541,-0.618 1.49,1.49 0 0 0 -0.175,-0.225 c -0.032,-0.001 0.17,0.652 0.335,1.083 a 11.74,11.74 0 0 0 1.195,2.315 c 1.673,2.554 4.045,4.19 6.314,4.355 a 6.07,6.07 0 0 0 0.981,-0.013 z m 16.81,0.919 c -0.01,-0.017 -0.04,-0.031 -0.067,-0.03 -0.042,0.001 -0.041,0.006 0.006,0.043 0.059,0.045 0.091,0.038 0.06,-0.013 z"
         id="path84" />
      <path
         d="m 34.694,195.113 c 0.175,-0.04 0.473,-0.126 0.661,-0.191 a 9.8,9.8 0 0 0 1.524,-0.741 8.68,8.68 0 0 0 3.06,-3.469 c 0.744,-1.525 0.99,-3.048 0.754,-4.67 -0.017,-0.116 -0.039,-0.211 -0.049,-0.211 -0.01,0 -0.132,0.232 -0.27,0.516 -0.562,1.151 -0.881,1.581 -1.528,2.06 -0.619,0.459 -1.196,0.707 -2.69,1.157 l -1.726,0.609 c -1.089,0.497 -1.938,1.255 -2.646,2.365 -0.115,0.181 -0.199,0.339 -0.185,0.351 0.014,0.012 0.189,0.13 0.389,0.263 l 0.364,0.241 0.491,-0.233 1.33,-0.602 c 1.67,-0.735 2.278,-1.106 2.897,-1.767 0.294,-0.314 0.289,-0.258 -0.012,0.125 -0.538,0.687 -1.249,1.148 -3.111,2.018 l -1.341,0.653 c 0,0.01 0.095,0.099 0.212,0.198 a 37.82,37.82 0 0 1 1.368,1.311 c 0.046,0.05 0.108,0.091 0.137,0.091 a 3.92,3.92 0 0 0 0.372,-0.073 z m -21.208,0.683 c 1.379,-0.18 2.593,-0.745 3.528,-1.642 l 0.233,-0.244 c 0,-0.05 -0.497,-0.18 -0.801,-0.21 -0.462,-0.045 -1.66,-0.013 -2.761,0.075 l -2.668,0.105 c -0.529,-0.032 -1.025,-0.109 -1.335,-0.206 -0.223,-0.07 -0.621,-0.232 -0.606,-0.248 0.005,-0.005 0.112,0.022 0.237,0.062 0.606,0.192 1.454,0.27 2.383,0.219 l 1.031,-0.075 2.967,-0.218 h 0.342 l -0.356,-0.207 a 9.49,9.49 0 0 1 -1.574,-1.138 c -0.134,-0.119 -0.229,-0.181 -0.313,-0.2 -0.512,-0.117 -1.389,-0.167 -2.002,-0.114 -0.569,0.05 -1.04,0.126 -2.094,0.338 -1.512,0.304 -1.602,0.316 -2.507,0.316 -0.743,0 -0.802,-0.004 -1.141,-0.078 -0.617,-0.135 -1.124,-0.328 -1.661,-0.633 l -0.322,-0.174 c -0.009,0 0.046,0.075 0.122,0.167 0.68,0.825 1.41,1.478 2.391,2.141 a 10.38,10.38 0 0 0 1.451,0.849 10.7,10.7 0 0 0 4.034,1.155 13.01,13.01 0 0 0 1.425,-0.041 z"
         id="path86" />
      <path
         d="m 35.033,195.716 c -0.008,-0.116 0.005,-0.218 0.044,-0.335 0.053,-0.16 0.053,-0.167 0.004,-0.151 a 5.15,5.15 0 0 1 -0.31,0.067 c -0.142,0.028 -0.261,0.062 -0.264,0.077 -0.003,0.015 0.511,0.509 0.535,0.509 0.003,0 -0.001,-0.075 -0.008,-0.167 z m 5.677,0.616 c 1.433,-0.097 3.187,-0.87 4.617,-2.037 a 12.85,12.85 0 0 0 1.347,-1.331 c 0.246,-0.298 0.53,-0.683 0.515,-0.698 a 0.82,0.82 0 0 0 -0.181,0.105 6.08,6.08 0 0 1 -0.971,0.5 c -0.445,0.162 -0.749,0.209 -1.351,0.208 -0.645,-0.001 -0.894,-0.04 -1.795,-0.28 -1.919,-0.511 -2.019,-0.53 -2.835,-0.532 -0.831,-0.001 -0.821,-0.004 -1.012,0.253 a 12.04,12.04 0 0 1 -1.123,1.185 c -0.087,0.071 -0.158,0.136 -0.158,0.145 0,0.009 0.17,0.032 0.378,0.051 l 1.149,0.149 2.134,0.216 c 0.586,0.001 0.882,-0.038 1.286,-0.169 0.122,-0.04 0.227,-0.067 0.232,-0.062 0.016,0.016 -0.273,0.149 -0.464,0.215 -0.35,0.12 -0.588,0.155 -1.157,0.171 -0.625,0.018 -0.933,-0.004 -2.134,-0.151 l -1.619,-0.16 c -0.128,0 -0.176,0.017 -0.313,0.112 l -0.476,0.296 -0.326,0.194 c -0.02,0.016 0.281,0.319 0.497,0.501 0.783,0.658 1.798,1.065 2.821,1.133 0.335,0.022 0.424,0.021 0.939,-0.014 z"
         id="path88" />
      <path
         d="m 36.217,196.313 a 0.76,0.76 0 0 0 0.369,-0.458 0.54,0.54 0 0 0 0.013,-0.32 c -0.058,-0.287 -0.297,-0.539 -0.542,-0.573 a 1.29,1.29 0 0 0 -0.68,0.224 0.73,0.73 0 0 0 -0.013,0.94 c 0.24,0.257 0.559,0.328 0.853,0.188 z m -0.421,1.794 c 0.984,-0.12 1.878,-0.328 2.65,-0.618 0.327,-0.123 0.385,-0.167 0.185,-0.142 -0.208,0.027 -0.923,-0.029 -1.28,-0.099 a 5.04,5.04 0 0 1 -1.885,-0.809 c -0.465,-0.319 -0.788,-0.603 -1.651,-1.449 l -1.552,-1.416 c -0.948,-0.72 -1.846,-1.099 -3.034,-1.283 -0.414,-0.064 -1.456,-0.085 -2.007,-0.04 l -0.456,0.055 c 0.001,0.01 0.176,0.103 0.39,0.207 0.719,0.349 1.404,0.801 2.415,1.596 l 2.551,1.828 c 0.415,0.221 0.701,0.337 1.097,0.445 l 0.313,0.085 -0.212,-0.016 c -0.512,-0.04 -1.194,-0.294 -1.872,-0.699 -0.417,-0.249 -0.966,-0.635 -1.868,-1.313 -1.275,-0.959 -1.801,-1.311 -2.402,-1.607 -0.264,-0.13 -0.649,-0.29 -0.697,-0.29 -0.012,0 -0.004,0.101 0.017,0.225 0.385,2.268 1.92,3.97 4.352,4.827 a 10.4,10.4 0 0 0 2.411,0.525 l 0.456,0.043 a 20.95,20.95 0 0 0 2.08,-0.055 z M 19.47,198.106 c 2.189,-0.27 3.935,-1.058 5.098,-2.298 a 5.74,5.74 0 0 0 1.47,-2.897 l 0.058,-0.304 c 0.017,-0.084 -0.001,-0.082 -0.25,0.019 -0.761,0.308 -1.45,0.744 -2.857,1.808 -1.278,0.966 -1.762,1.289 -2.393,1.598 -0.535,0.262 -1.139,0.439 -1.464,0.43 -0.087,-0.002 -0.075,-0.009 0.076,-0.043 0.475,-0.106 1.113,-0.384 1.643,-0.716 0.444,-0.278 0.851,-0.576 1.711,-1.255 1.396,-1.1 2.11,-1.585 2.87,-1.95 l 0.363,-0.193 c 10e-4,-0.082 -1.949,-0.094 -2.45,-0.015 -1.465,0.232 -2.553,0.775 -3.736,1.867 l -0.955,0.923 -1.035,0.966 c -1.092,0.893 -2.096,1.278 -3.382,1.297 l -0.409,0.022 c 0,0.016 0.612,0.241 0.898,0.33 0.642,0.201 1.64,0.382 2.493,0.453 a 18.16,18.16 0 0 0 2.251,-0.043 z"
         id="path90" />
    </g>
  </g>
  <g
     id="g1737">
    <g
       id="g1369">
      <g
         stroke="#000000"
         stroke-width="0.848"
         class="E F I"
         id="g132"
         transform="translate(5.524,-134.923)">
        <path
           id="use94"
           d="m 12.657,147.995 h 1.434 v 23.16 h -1.434 z" />
        <path
           d="m 14.09,147.995 h 1.434 v 23.16 H 14.09 Z"
           id="path96" />
        <path
           id="use98"
           d="m 15.524,147.995 h 1.434 v 23.16 h -1.434 z" />
        <path
           id="use100"
           d="m 16.958,147.995 h 1.434 v 23.16 h -1.434 z" />
        <path
           id="use102"
           d="m 18.391,147.995 h 1.434 v 23.16 h -1.434 z" />
        <path
           id="use104"
           d="m 19.825,147.995 h 1.434 v 23.16 h -1.434 z" />
        <path
           id="use106"
           d="m 21.259,147.995 h 1.434 v 23.16 h -1.434 z" />
        <path
           id="use108"
           d="m 22.693,147.995 h 1.434 v 23.16 h -1.434 z" />
        <path
           id="use110"
           d="m 24.126,147.995 h 1.434 v 23.16 h -1.434 z" />
        <path
           d="m 25.56,147.995 h 1.434 v 23.16 H 25.56 Z"
           id="path112" />
        <path
           id="use114"
           d="m 26.994,147.995 h 1.434 v 23.16 h -1.434 z" />
        <path
           id="use116"
           d="m 28.427,147.995 h 1.434 v 23.16 h -1.434 z" />
        <path
           id="use118"
           d="m 29.861,147.995 h 1.434 v 23.16 h -1.434 z" />
        <path
           id="use120"
           d="m 31.295,147.995 h 1.434 v 23.16 h -1.434 z" />
        <path
           id="use122"
           d="m 32.727999,147.995 h 1.434 v 23.16 h -1.434 z" />
        <path
           id="use124"
           d="m 34.161999,147.995 h 1.434 v 23.16 h -1.434 z" />
        <path
           id="use126"
           d="m 35.595999,147.995 h 1.434 v 23.16 h -1.434 z" />
        <path
           id="use128"
           d="m 37.029,147.995 h 1.434 v 23.16 h -1.434 z" />
        <path
           id="use130"
           d="m 38.463,147.995 h 1.434 v 23.16 h -1.434 z" />
        <path
           id="path1582"
           d="m 16.958,147.995 h 1.434 v 23.16 h -1.434 z" />
      </g>
      <path
         d="m 18.186,36.232 h 27.235 v 10.134 c 0,0.971 -0.659,1.907 -1.573,2.236 L 31.803,52.94 19.76,48.602 h -0.002 a 2.44,2.44 0 0 1 -1.573,-2.236 z"
         fill="#009b4c"
         class="I"
         id="path134" />
      <g
         fill="none"
         stroke="#ffffff"
         stroke-width="0.474"
         id="g144"
         transform="translate(5.524,-134.923)">
        <path
           id="use136"
           d="m 12.623,173.412 c 0.947,0 1.737,-0.62 2.731,-0.62 0.994,0 1.784,0.62 2.731,0.62 0.947,0 1.737,-0.62 2.731,-0.62 0.994,0 1.784,0.62 2.731,0.62 0.947,0 1.737,-0.62 2.731,-0.62 0.994,0 1.784,0.62 2.731,0.62 0.947,0 1.737,-0.62 2.731,-0.62 0.994,0 1.784,0.62 2.731,0.62 0.947,0 1.737,-0.62 2.731,-0.62 0.994,0 1.784,0.62 2.731,0.62"
           style="opacity:0.998" />
        <path
           id="use138"
           d="m 12.623,175.12 c 0.947,0 1.737,-0.62 2.731,-0.62 0.994,0 1.784,0.62 2.731,0.62 0.947,0 1.737,-0.62 2.731,-0.62 0.994,0 1.784,0.62 2.731,0.62 0.947,0 1.737,-0.62 2.731,-0.62 0.994,0 1.784,0.62 2.731,0.62 0.947,0 1.737,-0.62 2.731,-0.62 0.994,0 1.784,0.62 2.731,0.62 0.947,0 1.737,-0.62 2.731,-0.62 0.994,0 1.784,0.62 2.731,0.62"
           style="opacity:0.998" />
        <path
           id="use140"
           d="m 12.623,176.828 c 0.947,0 1.737,-0.62 2.731,-0.62 0.994,0 1.784,0.62 2.731,0.62 0.947,0 1.737,-0.62 2.731,-0.62 0.994,0 1.784,0.62 2.731,0.62 0.947,0 1.737,-0.62 2.731,-0.62 0.994,0 1.784,0.62 2.731,0.62 0.947,0 1.737,-0.62 2.731,-0.62 0.994,0 1.784,0.62 2.731,0.62 0.947,0 1.737,-0.62 2.731,-0.62 0.994,0 1.784,0.62 2.731,0.62"
           style="opacity:0.998" />
        <path
           id="use142"
           d="m 12.623,175.12 c 0.947,0 1.737,-0.62 2.731,-0.62 0.994,0 1.784,0.62 2.731,0.62 0.947,0 1.737,-0.62 2.731,-0.62 0.994,0 1.784,0.62 2.731,0.62 0.947,0 1.737,-0.62 2.731,-0.62 0.994,0 1.784,0.62 2.731,0.62 0.947,0 1.737,-0.62 2.731,-0.62 0.994,0 1.784,0.62 2.731,0.62 0.947,0 1.737,-0.62 2.731,-0.62 0.994,0 1.784,0.62 2.731,0.62"
           style="opacity:0.998" />
      </g>
      <g
         fill="#ffd700"
         id="g150"
         transform="translate(5.524,-134.923)">
        <path
           d="m 19.467,166.282 c -2.366,0 -2.825,3.909 -6.81,3.909 v 0.965 h 6.81 6.81 6.81 6.81 v -0.965 c -3.985,0 -4.444,-3.909 -6.81,-3.909 -2.366,0 -2.825,3.909 -6.81,3.909 -3.985,0 -4.444,-3.909 -6.81,-3.909 z"
           stroke="#000000"
           stroke-width="0.241"
           id="path146" />
        <path
           d="m 11.23,147.245 v 34.045 a 3.81,3.81 0 0 0 2.52,3.585 l 12.53,4.511 12.531,-4.511 a 3.81,3.81 0 0 0 2.52,-3.585 v -34.045 z m 1.432,1.433 h 27.235 v 32.611 c 0,0.971 -0.659,1.907 -1.573,2.236 l -12.045,4.338 -12.043,-4.338 a 2.44,2.44 0 0 1 -1.574,-2.236 z"
           stroke="#8c7600"
           stroke-width="0.459"
           class="I"
           id="path148" />
      </g>
    </g>
    <g
       id="g1268">
      <g
         stroke="#a9a9a9"
         stroke-width="0.133"
         id="g170"
         transform="translate(5.524,-134.923)">
        <path
           d="m 37.499,179.275 0.126,2.292 c -0.585,-1.335 -1.611,-1.125 -2.662,-0.827 l 0.074,-2.306 c 0.45,-1.024 2.633,-0.509 2.462,0.841 z"
           fill="url(#K)"
           id="path152"
           style="fill:url(#K);" />
        <path
           d="m 36.436,178.924 c -0.173,0.5 -1.292,0.208 -1.398,-0.491 l -0.077,2.305 c -0.139,1.286 1.355,1.804 1.792,0.871 z"
           fill="url(#J)"
           id="path154"
           style="fill:url(#J);" />
        <path
           d="m 37.626,181.567 c -1.698,1.703 -2.954,0.052 -5.324,0.376 l 0.164,-2.305 c 0.473,-0.441 1.013,-0.952 2.942,0.162 1.512,0.874 1.545,-0.185 2.092,-0.526 z"
           fill="url(#I)"
           id="path156"
           style="fill:url(#I);" />
        <path
           d="m 35.186,182.702 -0.818,-2.514 c -0.896,-0.553 -1.046,-0.503 -1.903,-0.55 -1.014,1.001 -0.165,1.544 -0.164,2.305 z"
           fill="url(#H)"
           id="path158"
           style="fill:url(#H);" />
        <path
           d="m 15.06,179.275 -0.126,2.292 c 0.585,-1.335 1.611,-1.125 2.662,-0.827 l -0.074,-2.306 c -0.45,-1.024 -2.633,-0.509 -2.462,0.841 z"
           fill="url(#E)"
           id="path160"
           style="fill:url(#E);" />
        <path
           d="m 16.124,178.924 c 0.173,0.5 1.292,0.208 1.398,-0.491 l 0.077,2.305 c 0.139,1.286 -1.355,1.804 -1.792,0.871 z"
           fill="url(#D)"
           id="path162"
           style="fill:url(#D);" />
        <path
           d="m 14.934,181.567 c 1.698,1.703 2.954,0.052 5.324,0.376 l -0.164,-2.305 c -0.473,-0.441 -1.013,-0.952 -2.942,0.162 -1.512,0.874 -1.545,-0.185 -2.092,-0.526 z"
           fill="url(#F)"
           id="path164"
           style="fill:url(#F);" />
        <path
           d="m 17.373,182.702 0.818,-2.514 c 0.896,-0.553 1.046,-0.503 1.903,-0.55 1.014,1.001 0.165,1.544 0.164,2.305 z"
           fill="url(#G)"
           id="path166"
           style="fill:url(#G);" />
        <path
           d="m 18.191,180.188 c -0.554,0.181 -1.457,1.265 -0.818,2.514 2.672,1.489 6.699,2.095 8.907,2.095 2.208,0 6.234,-0.606 8.907,-2.095 0.64,-1.249 -0.264,-2.334 -0.818,-2.514 -2.543,0.694 -3.629,1.966 -8.089,1.966 -4.46,0 -5.546,-1.273 -8.089,-1.966 z"
           class="E"
           id="path168" />
      </g>
      <g
         fill="#e62129"
         id="g200"
         transform="translate(5.524,-134.923)">
        <path
           d="m 17.98,181.796 q -0.019,0.056 -0.008,0.089 0.018,0.058 0.119,0.105 0.059,0.028 0.102,0.026 0.043,-0.001 0.06,-0.036 0.016,-0.034 -0.004,-0.064 -0.02,-0.031 -0.18,-0.158 -0.115,-0.093 -0.145,-0.167 -0.031,-0.073 0.011,-0.163 0.05,-0.106 0.168,-0.143 0.119,-0.037 0.27,0.034 0.143,0.067 0.206,0.167 0.064,0.099 0.011,0.246 l -0.2,-0.094 q 0.014,-0.041 0.007,-0.071 -0.014,-0.056 -0.093,-0.093 -0.065,-0.031 -0.103,-0.024 -0.037,0.007 -0.05,0.035 -0.016,0.034 0.006,0.064 0.022,0.03 0.182,0.153 0.106,0.084 0.139,0.169 0.032,0.085 -0.009,0.172 -0.053,0.114 -0.172,0.146 -0.118,0.032 -0.295,-0.051 -0.18,-0.085 -0.231,-0.201 -0.05,-0.117 0.006,-0.235 z m 0.407,-0.469 z"
           id="path172" />
        <path
           d="m 19.287,181.745 0.208,0.083 -0.104,0.613 0.347,-0.517 0.214,0.085 -0.539,0.695 -0.211,-0.084 0.103,-0.621 -0.351,0.523 -0.213,-0.084 0.091,-0.873 0.221,0.087 -0.101,0.612 z"
           id="path174" />
        <path
           d="m 20.428,182.617 q -0.024,0.006 -0.047,0.007 -0.022,0.001 -0.06,-0.004 l -0.05,-0.007 q -0.07,-0.01 -0.104,-0.002 -0.058,0.013 -0.078,0.073 -0.018,0.054 0.004,0.088 0.023,0.033 0.065,0.047 0.068,0.022 0.138,0.001 0.07,-0.021 0.107,-0.126 z m -0.096,-0.14 q 0.061,0.012 0.089,0.009 0.051,-0.005 0.064,-0.045 0.016,-0.049 -0.013,-0.079 -0.028,-0.03 -0.094,-0.052 -0.074,-0.024 -0.117,0.003 -0.031,0.02 -0.053,0.064 l -0.203,-0.066 q 0.041,-0.103 0.115,-0.154 0.118,-0.079 0.321,-0.013 0.132,0.043 0.217,0.129 0.085,0.086 0.038,0.231 l -0.12,0.369 q -0.012,0.038 -0.029,0.093 -0.011,0.042 -0.006,0.06 0.006,0.018 0.023,0.034 l -0.01,0.031 -0.228,-0.074 q -0.002,-0.027 0.002,-0.05 0.003,-0.023 0.01,-0.051 -0.059,0.033 -0.126,0.048 -0.081,0.017 -0.166,-0.011 -0.109,-0.036 -0.16,-0.121 -0.05,-0.086 -0.013,-0.2 0.048,-0.148 0.184,-0.177 0.074,-0.016 0.201,0.008 z m 0.121,-0.333 z"
           id="path176" />
        <path
           d="m 20.9,182.481 0.042,-0.152 0.114,0.032 0.063,-0.227 0.211,0.059 -0.063,0.227 0.132,0.037 -0.042,0.152 -0.132,-0.037 -0.12,0.43 q -0.014,0.05 -0.005,0.066 0.009,0.016 0.074,0.034 0.01,0.003 0.02,0.006 0.011,0.002 0.022,0.005 l -0.044,0.159 -0.102,-0.024 q -0.152,-0.037 -0.192,-0.11 -0.026,-0.047 -0.005,-0.123 l 0.139,-0.501 z"
           id="path178" />
        <path
           d="m 21.96,183.031 q -0.023,0.008 -0.046,0.012 -0.022,0.003 -0.06,0.001 l -0.05,-0.002 q -0.071,-0.004 -0.104,0.007 -0.057,0.018 -0.071,0.08 -0.013,0.055 0.012,0.087 0.025,0.031 0.069,0.042 0.069,0.016 0.137,-0.011 0.068,-0.027 0.096,-0.135 z M 21.853,182.9 q 0.061,0.006 0.09,0.001 0.051,-0.009 0.06,-0.05 0.012,-0.051 -0.019,-0.078 -0.03,-0.028 -0.098,-0.043 -0.076,-0.018 -0.117,0.013 -0.029,0.023 -0.048,0.069 l -0.208,-0.048 q 0.032,-0.106 0.102,-0.163 0.111,-0.089 0.318,-0.041 0.135,0.031 0.228,0.109 0.093,0.078 0.058,0.227 l -0.088,0.378 q -0.009,0.039 -0.021,0.095 -0.008,0.043 0,0.06 0.007,0.018 0.026,0.032 l -0.007,0.032 -0.234,-0.054 q -0.004,-0.027 -0.003,-0.05 0.001,-0.023 0.006,-0.051 -0.056,0.038 -0.122,0.059 -0.079,0.024 -0.166,0.004 -0.112,-0.026 -0.17,-0.106 -0.058,-0.081 -0.03,-0.198 0.035,-0.152 0.168,-0.193 0.073,-0.022 0.201,-0.009 z m 0.091,-0.342 z"
           id="path180" />
        <path
           d="m 22.988,182.771 q 0.129,0.023 0.199,0.105 0.071,0.082 0.043,0.238 l -0.098,0.56 -0.223,-0.039 0.088,-0.506 q 0.011,-0.066 0,-0.104 -0.021,-0.07 -0.111,-0.085 -0.111,-0.019 -0.168,0.067 -0.03,0.046 -0.043,0.123 l -0.079,0.451 -0.217,-0.038 0.145,-0.831 0.21,0.037 -0.021,0.121 q 0.053,-0.057 0.096,-0.079 0.076,-0.039 0.179,-0.021 z m -0.08,-0.016 z"
           id="path182" />
        <path
           d="m 23.44,183.03 0.02,-0.156 0.117,0.015 0.03,-0.234 0.217,0.028 -0.03,0.234 0.136,0.017 -0.02,0.156 -0.136,-0.017 -0.057,0.443 q -0.007,0.052 0.005,0.066 0.012,0.014 0.078,0.023 0.01,0.001 0.021,0.003 0.012,0.001 0.022,0.001 l -0.021,0.164 -0.104,-0.009 q -0.156,-0.014 -0.205,-0.081 -0.032,-0.042 -0.022,-0.121 l 0.066,-0.516 z"
           id="path184" />
        <path
           d="m 24.605,182.971 q 0.006,0.001 0.01,0.002 0.005,0 0.019,0.003 l -0.021,0.225 q -0.021,-0.004 -0.037,-0.006 -0.016,-0.002 -0.026,-0.003 -0.133,-0.012 -0.186,0.07 -0.03,0.046 -0.039,0.147 l -0.037,0.402 -0.222,-0.02 0.077,-0.841 0.21,0.019 -0.013,0.147 q 0.059,-0.079 0.099,-0.107 0.066,-0.046 0.165,-0.037 z"
           id="path186" />
        <path
           d="m 25.275,183.464 q -0.022,0.012 -0.044,0.02 -0.021,0.007 -0.059,0.012 l -0.05,0.007 q -0.07,0.009 -0.101,0.026 -0.052,0.028 -0.055,0.091 -0.003,0.056 0.027,0.083 0.031,0.026 0.076,0.028 0.071,0.003 0.133,-0.036 0.062,-0.039 0.07,-0.15 z m -0.129,-0.109 q 0.062,-0.005 0.088,-0.015 0.048,-0.018 0.05,-0.06 0.002,-0.052 -0.033,-0.073 -0.035,-0.022 -0.104,-0.025 -0.078,-0.004 -0.113,0.034 -0.025,0.028 -0.035,0.076 l -0.213,-0.01 q 0.012,-0.11 0.07,-0.179 0.093,-0.107 0.306,-0.098 0.139,0.006 0.244,0.066 0.105,0.06 0.098,0.212 l -0.018,0.387 q -0.002,0.04 -0.003,0.098 0,0.043 0.01,0.06 0.01,0.016 0.031,0.027 l -0.002,0.032 -0.24,-0.011 q -0.009,-0.026 -0.012,-0.049 -0.003,-0.023 -0.004,-0.051 -0.048,0.047 -0.109,0.08 -0.073,0.038 -0.163,0.034 -0.115,-0.005 -0.187,-0.074 -0.071,-0.069 -0.066,-0.189 0.007,-0.156 0.13,-0.22 0.068,-0.035 0.196,-0.045 z m 0.028,-0.353 z m 1.514,0.029 0.224,-0.01 0.155,0.602 0.105,-0.614 0.23,-0.01 -0.208,0.855 -0.227,0.01 -0.159,-0.609 -0.107,0.621 -0.229,0.01 -0.274,-0.834 0.237,-0.01 0.158,0.6 z"
           id="path188" />
        <path
           d="m 28.025,183.625 q 0.096,-0.01 0.141,-0.084 0.044,-0.074 0.031,-0.201 -0.014,-0.126 -0.073,-0.189 -0.059,-0.063 -0.155,-0.053 -0.096,0.01 -0.141,0.085 -0.044,0.073 -0.031,0.2 0.014,0.126 0.073,0.189 0.06,0.063 0.156,0.053 z m 0.402,-0.31 q 0.02,0.185 -0.072,0.328 -0.092,0.142 -0.309,0.166 -0.217,0.023 -0.337,-0.096 -0.121,-0.12 -0.14,-0.305 -0.02,-0.182 0.072,-0.327 0.092,-0.145 0.309,-0.168 0.217,-0.023 0.337,0.099 0.121,0.122 0.14,0.304 z m -0.477,-0.398 z"
           id="path190" />
        <path
           d="m 29.054,182.766 q 0.129,-0.022 0.222,0.033 0.094,0.054 0.12,0.21 l 0.093,0.561 -0.223,0.037 -0.084,-0.507 q -0.011,-0.066 -0.034,-0.098 -0.043,-0.059 -0.133,-0.044 -0.111,0.018 -0.137,0.119 -0.013,0.053 0,0.13 l 0.075,0.451 -0.217,0.036 -0.138,-0.832 0.21,-0.035 0.02,0.122 q 0.031,-0.071 0.064,-0.106 0.059,-0.062 0.162,-0.079 z m -0.081,0.011 z m 1.156,0.499 q 0.095,-0.021 0.13,-0.1 0.035,-0.079 0.008,-0.203 -0.028,-0.124 -0.094,-0.179 -0.066,-0.056 -0.16,-0.035 -0.095,0.021 -0.131,0.1 -0.036,0.078 -0.008,0.202 0.028,0.124 0.094,0.18 0.067,0.056 0.161,0.034 z m 0.364,-0.354 q 0.041,0.181 -0.034,0.334 -0.075,0.152 -0.288,0.2 -0.212,0.048 -0.346,-0.057 -0.134,-0.106 -0.174,-0.287 -0.04,-0.178 0.035,-0.333 0.075,-0.154 0.287,-0.202 0.212,-0.048 0.346,0.059 0.134,0.107 0.174,0.286 z m -0.519,-0.34 z"
           id="path192" />
        <path
           d="m 30.932,182.958 q 0.023,0.055 0.052,0.072 0.052,0.031 0.158,0.001 0.063,-0.018 0.094,-0.047 0.032,-0.029 0.021,-0.066 -0.01,-0.036 -0.045,-0.046 -0.035,-0.01 -0.24,-0.001 -0.148,0.005 -0.219,-0.03 -0.071,-0.035 -0.098,-0.13 -0.032,-0.113 0.033,-0.218 0.066,-0.107 0.226,-0.152 0.152,-0.043 0.265,-0.009 0.113,0.033 0.17,0.178 l -0.212,0.06 q -0.016,-0.04 -0.042,-0.058 -0.047,-0.033 -0.132,-0.009 -0.069,0.02 -0.093,0.05 -0.023,0.03 -0.015,0.059 0.01,0.036 0.046,0.044 0.036,0.008 0.238,-0.004 0.135,-0.006 0.216,0.036 0.08,0.043 0.106,0.135 0.034,0.121 -0.034,0.223 -0.068,0.102 -0.256,0.155 -0.192,0.054 -0.306,0 -0.114,-0.055 -0.15,-0.181 z m -10e-4,-0.621 z"
           id="path194" />
        <path
           d="m 32.097,182.716 q 0.092,-0.032 0.118,-0.114 0.027,-0.082 -0.015,-0.202 -0.041,-0.12 -0.113,-0.168 -0.072,-0.048 -0.163,-0.017 -0.092,0.032 -0.119,0.114 -0.027,0.081 0.015,0.202 0.041,0.12 0.113,0.168 0.072,0.048 0.164,0.016 z m 0.322,-0.392 q 0.061,0.176 0.003,0.336 -0.058,0.159 -0.264,0.231 -0.206,0.071 -0.35,-0.018 -0.144,-0.09 -0.205,-0.266 -0.06,-0.173 -0.002,-0.335 0.057,-0.162 0.263,-0.233 0.206,-0.071 0.351,0.021 0.145,0.092 0.205,0.265 z m -0.554,-0.281 z"
           id="path196" />
        <path
           d="m 32.897,181.655 q 0.154,-0.063 0.287,0.012 0.133,0.075 0.205,0.251 0.075,0.182 0.038,0.337 -0.037,0.155 -0.191,0.218 -0.097,0.04 -0.171,0.025 -0.045,-0.008 -0.109,-0.049 l 0.04,0.098 -0.2,0.082 -0.434,-1.055 0.204,-0.084 0.154,0.376 q 0.016,-0.07 0.051,-0.118 0.04,-0.059 0.126,-0.094 z m 0.215,0.672 q 0.079,-0.032 0.096,-0.114 0.017,-0.082 -0.025,-0.186 -0.034,-0.083 -0.078,-0.129 -0.083,-0.086 -0.193,-0.041 -0.111,0.046 -0.111,0.164 10e-4,0.063 0.036,0.148 0.041,0.1 0.113,0.148 0.072,0.048 0.163,0.01 z m 0.956,-0.421 q 0.087,-0.042 0.104,-0.127 0.017,-0.085 -0.038,-0.199 -0.055,-0.115 -0.131,-0.154 -0.077,-0.04 -0.164,0.002 -0.087,0.042 -0.105,0.127 -0.017,0.084 0.038,0.199 0.055,0.115 0.132,0.154 0.077,0.039 0.165,-0.003 z m 0.275,-0.426 q 0.081,0.168 0.041,0.333 -0.039,0.165 -0.236,0.259 -0.196,0.094 -0.35,0.022 -0.154,-0.073 -0.234,-0.241 -0.079,-0.165 -0.041,-0.332 0.038,-0.167 0.235,-0.261 0.196,-0.094 0.351,-0.02 0.154,0.075 0.234,0.239 z m -0.582,-0.216 z"
           id="path198" />
      </g>
    </g>
  </g>
  <g
     id="g1678">
    <path
       id="path1607"
       d="m 60.413003,11.379 -4.939,7.227 c -2.298,-0.236 -4.505,-1.686 -6.665001,-3.79 l 4.037001,-7.351 c 0.664,0.696 3.985,3.837 7.567,3.914 z"
       style="fill:url(#linearGradient1647);fill-opacity:1;stroke:#971116;stroke-width:0.265;stroke-linejoin:round" />
    <g
       id="g1613"
       style="fill:url(#linearGradient1645);fill-opacity:1"
       transform="matrix(-1,0,0,1,63.632001,0)">
      <path
         id="path1609"
         d="m 3.2189982,11.379 0.776,1.136 c 3.701,-0.89 3.972,-1.25 7.5719998,-3.627 l -0.782,-1.423 c -0.664,0.696 -3.9849998,3.837 -7.5669998,3.914 z"
         style="fill:url(#linearGradient1641);fill-opacity:1;stroke:#971116;stroke-width:0.265;stroke-linejoin:round" />
      <path
         id="path1611"
         d="m 7.4619982,17.587 0.696,1.019 C 10.455998,18.37 12.662998,16.92 14.822998,14.816 l -0.577,-1.05 c -2.627,2.141 -3.63,3.255 -6.7839998,3.822 z"
         style="fill:url(#linearGradient1643);fill-opacity:1;stroke:#971116;stroke-width:0.265;stroke-linejoin:round" />
    </g>
    <g
       class="B C D"
       id="g1619"
       transform="matrix(-1,0,0,1,58.108001,-134.923)">
      <path
         id="path1615"
         d="m 4.7139982,139.387 1.508,8.267 3.077,2.085 -0.809,-7.463 z"
         style="fill:#a6a6a6" />
      <path
         d="m 6.076,146.853 0.146,0.801 3.077,2.085 -0.091,-0.84 z"
         class="H"
         id="path1617" />
    </g>
    <path
       id="path1621"
       d="m 53.394003,4.464 c 1.076,2.668 -0.556,7.193 -1.508,8.267 l -3.557001,0.827 c -0.618,-3.149 -1.064,-4.225 -3.098,-6.338 2.662,-0.977 4.804,-2.475 8.163001,-2.756 z"
       style="fill:url(#linearGradient1639);fill-opacity:1;stroke:#971116;stroke-width:0.265;stroke-linejoin:round" />
    <g
       id="g1627"
       style="fill:url(#linearGradient1637);fill-opacity:1"
       transform="matrix(-1,0,0,1,63.632001,0)">
      <path
         id="path1623"
         d="m 10.237998,4.464 c -0.098,0.242 -0.173,0.5 -0.229,0.769 1.973,0.23 6.316,1.766 7.812,2.61 l 0.579,-0.623 c -2.662,-0.977 -4.804,-2.475 -8.163,-2.756 z"
         style="fill:url(#linearGradient1633);fill-opacity:1;stroke:#971116;stroke-width:0.265;stroke-linejoin:round" />
      <path
         id="path1625"
         d="m 11.204998,11.884 c 0.189,0.368 0.375,0.66 0.541,0.847 l 3.557,0.827 0.127,-0.626 c -1.359,-0.415 -2.669,-0.895 -4.225,-1.047 z"
         style="fill:url(#linearGradient1635);fill-opacity:1;stroke:#971116;stroke-width:0.265;stroke-linejoin:round" />
    </g>
    <path
       d="m 46.359,3.079 2.303,6.792 -0.416,3.328 C 48.086,10.957 45.379,8.212 44.099,5.504 Z"
       class="G"
       id="path1629"
       style="stroke:#971116;stroke-width:0.265;stroke-linejoin:round" />
    <path
       d="M 48.198,8.501 48.663,9.872 48.247,13.2 C 48.201,12.555 47.944,11.868 47.571,11.152 Z"
       class="H"
       id="path1631"
       style="stroke:#971116;stroke-width:0.265;stroke-linejoin:round" />
    <path
       id="use230"
       d="m 3.2189982,11.379 4.939,7.227 C 10.455998,18.37 12.662998,16.92 14.822998,14.816 l -4.037,-7.351 c -0.664,0.696 -3.9849998,3.837 -7.5669998,3.914 z"
       style="fill:url(#linearGradient1523);fill-opacity:1;stroke:#971116;stroke-width:0.265;stroke-linejoin:round" />
    <g
       id="g1501"
       style="fill:url(#linearGradient1509);fill-opacity:1">
      <path
         id="use232"
         d="m 3.2189982,11.379 0.776,1.136 c 3.701,-0.89 3.972,-1.25 7.5719998,-3.627 l -0.782,-1.423 c -0.664,0.696 -3.9849998,3.837 -7.5669998,3.914 z"
         style="fill:url(#linearGradient1584);fill-opacity:1;stroke:#971116;stroke-width:0.265;stroke-linejoin:round" />
      <path
         id="use234"
         d="m 7.4619982,17.587 0.696,1.019 C 10.455998,18.37 12.662998,16.92 14.822998,14.816 l -0.577,-1.05 c -2.627,2.141 -3.63,3.255 -6.7839998,3.822 z"
         style="fill:url(#linearGradient1586);fill-opacity:1;stroke:#971116;stroke-width:0.265;stroke-linejoin:round" />
    </g>
    <g
       class="B C D"
       id="g244"
       transform="translate(5.524,-134.923)">
      <path
         id="use240"
         d="m 4.7139982,139.387 1.508,8.267 3.077,2.085 -0.809,-7.463 z"
         style="fill:#a6a6a6" />
      <path
         d="m 6.076,146.853 0.146,0.801 3.077,2.085 -0.091,-0.84 z"
         class="H"
         id="path242" />
    </g>
    <path
       id="use246"
       d="m 10.237998,4.464 c -1.0759998,2.668 0.556,7.193 1.508,8.267 l 3.557,0.827 c 0.618,-3.149 1.064,-4.225 3.098,-6.338 -2.662,-0.977 -4.804,-2.475 -8.163,-2.756 z"
       style="fill:url(#linearGradient1557);fill-opacity:1;stroke:#971116;stroke-width:0.265;stroke-linejoin:round" />
    <g
       id="g1533"
       style="fill:url(#linearGradient1549);fill-opacity:1">
      <path
         id="use248"
         d="m 10.237998,4.464 c -0.098,0.242 -0.173,0.5 -0.229,0.769 1.973,0.23 6.316,1.766 7.812,2.61 l 0.579,-0.623 c -2.662,-0.977 -4.804,-2.475 -8.163,-2.756 z"
         style="fill:url(#linearGradient1588);fill-opacity:1;stroke:#971116;stroke-width:0.265;stroke-linejoin:round" />
      <path
         id="use250"
         d="m 11.204998,11.884 c 0.189,0.368 0.375,0.66 0.541,0.847 l 3.557,0.827 0.127,-0.626 c -1.359,-0.415 -2.669,-0.895 -4.225,-1.047 z"
         style="fill:url(#linearGradient1590);fill-opacity:1;stroke:#971116;stroke-width:0.265;stroke-linejoin:round" />
    </g>
    <path
       d="m 17.273,3.079 -2.303,6.792 0.416,3.328 c 0.16,-2.242 2.867,-4.987 4.147,-7.695 z"
       class="G"
       id="path256"
       style="stroke:#971116;stroke-width:0.265;stroke-linejoin:round" />
    <path
       d="m 15.434,8.501 -0.465,1.371 0.416,3.328 c 0.046,-0.645 0.303,-1.332 0.676,-2.048 z"
       class="H"
       id="path258"
       style="stroke:#971116;stroke-width:0.265;stroke-linejoin:round" />
    <path
       d="M 19.025,2.757 C 18.397,2.762 17.811,2.859 17.273,3.079 L 14.97,9.871 c 2.276,-2.478 9.911,3.06 16.846,2.755 6.936,0.304 14.57,-5.234 16.846,-2.755 L 46.359,3.079 c -3.441,-1.41 -8.869,2.269 -14.543,2.269 -4.788,0 -9.4,-2.619 -12.791,-2.591 z"
       class="E"
       id="path260"
       style="stroke:#971116;stroke-width:0.265;stroke-linejoin:round" />
    <path
       d="m 16.811,8.271 c -0.497,0.01 -0.96,0.092 -1.39,0.269 l -0.452,1.332 c 2.276,-2.478 9.911,3.06 16.846,2.755 6.936,0.304 14.57,-5.234 16.846,-2.755 L 48.21,8.54 C 44.769,7.13 39.181,11.708 31.815,11.708 25.37,11.708 20.286,8.203 16.81,8.271 Z M 19.025,2.757 C 18.397,2.762 17.811,2.859 17.273,3.079 L 16.982,3.937 C 20.199,2.838 27.307,6.46 31.816,6.266 36.325,6.46 43.433,2.838 46.65,3.937 L 46.359,3.079 c -3.441,-1.41 -8.869,2.269 -14.543,2.269 -4.788,0 -9.4,-2.619 -12.791,-2.591 z"
       fill="#ff0000"
       id="path262"
       style="fill:url(#linearGradient1565);fill-opacity:1;stroke:#971116;stroke-width:0.265;stroke-linejoin:round" />
    <path
       d="m 45.764,4.683 -0.138,0.063 -0.138,0.063 0.223,0.232 0.223,0.232 -0.05,0.627 -0.051,0.627 0.26,0.258 c 0.143,0.142 0.273,0.258 0.289,0.258 0.027,0 0.196,-0.081 0.224,-0.108 C 46.613,6.928 46.507,6.807 46.37,6.665 L 46.121,6.408 46.17,5.782 46.219,5.156 45.991,4.92 Z m -2.426,0.068 a 0.33,0.33 0 0 0 -0.249,0.171 c -0.096,0.168 -0.032,0.395 0.137,0.485 0.129,0.068 0.291,0.039 0.398,-0.072 0.075,-0.077 0.088,-0.113 0.088,-0.237 0,-0.124 -0.013,-0.16 -0.088,-0.237 -0.082,-0.085 -0.188,-0.12 -0.286,-0.109 z m 2.038,0.118 -0.141,0.061 -0.141,0.061 0.189,0.196 0.189,0.196 -0.05,0.628 -0.05,0.628 0.292,0.289 0.318,0.288 c 0.014,0 0.078,-0.022 0.143,-0.048 L 46.242,7.119 45.951,6.817 45.66,6.515 45.71,5.891 45.76,5.267 45.568,5.068 Z M 17.691,4.905 c -0.005,0.005 0.011,0.125 0.035,0.268 l 0.044,0.259 -0.096,0.12 -0.384,0.473 c -0.159,0.194 -0.289,0.38 -0.288,0.412 0.001,0.08 0.137,0.784 0.155,0.804 0.008,0.008 0.063,0.025 0.122,0.037 h 0.001 l 0.131,0.025 C 17.424,7.305 17.427,7.27 17.419,7.226 L 17.341,6.814 17.279,6.483 17.632,6.048 18.024,5.563 C 18.055,5.522 18.056,5.475 18.03,5.313 17.969,4.935 17.981,4.958 17.834,4.926 a 0.52,0.52 0 0 0 -0.142,-0.02 z m 0.433,0.083 c -0.005,0.006 0.009,0.122 0.033,0.258 l 0.042,0.319 c 0,0.047 -0.117,0.214 -0.35,0.501 L 17.467,6.54 c -0.025,0.034 -0.018,0.132 0.03,0.412 l 0.063,0.368 0.127,0.034 v 0.001 c 0.174,0.047 0.173,0.047 0.156,-0.027 L 17.776,6.962 17.725,6.662 18.116,6.181 18.507,5.701 18.454,5.381 18.388,5.047 C 18.369,5.028 18.137,4.976 18.124,4.988 Z m 25.262,0.051 c 0.038,0 0.057,0.02 0.057,0.059 0,0.039 -0.019,0.059 -0.057,0.059 -0.038,0 -0.057,-0.02 -0.057,-0.059 0,-0.039 0.019,-0.059 0.057,-0.059 z M 20.101,5.245 c -0.158,0 -0.225,0.029 -0.356,0.157 -0.082,0.08 -0.125,0.193 -0.353,0.917 l -0.263,0.866 a 0.28,0.28 0 0 0 0.24,0.1 c 0.01,-0.012 0.129,-0.379 0.265,-0.814 l 0.29,-0.861 c 0.098,-0.154 0.312,-0.102 0.342,0.084 0.011,0.065 -0.028,0.249 -0.12,0.577 l -0.135,0.481 -0.14,0.011 c -0.251,0.02 -0.376,0.173 -0.352,0.428 0.016,0.177 0.084,0.284 0.212,0.34 0.135,0.058 0.248,0.028 0.345,-0.094 l 0.08,-0.099 0.099,0.138 c 0.157,0.22 0.511,0.361 0.552,0.22 l 0.245,-0.89 c 0.244,-0.89 0.268,-0.943 0.43,-0.943 0.099,0 0.17,0.093 0.17,0.225 0,0.052 -0.089,0.437 -0.197,0.855 l -0.207,0.818 c -0.008,0.046 0.016,0.063 0.119,0.09 l 0.128,0.033 0.221,-0.855 0.221,-0.926 C 21.938,5.765 21.649,5.509 21.366,5.596 21.23,5.638 21.072,5.773 21.028,5.886 A 13.86,13.86 0 0 0 20.852,6.497 C 20.579,7.498 20.601,7.438 20.534,7.376 20.502,7.346 20.426,7.234 20.364,7.127 L 20.252,6.932 20.34,6.597 20.484,6.075 C 20.625,5.599 20.463,5.247 20.103,5.247 Z m 20.786,0.161 c -0.035,0.002 -0.069,0.011 -0.103,0.025 a 0.34,0.34 0 0 0 -0.208,0.337 c 0,0.111 0.015,0.142 0.106,0.229 0.082,0.077 0.132,0.101 0.214,0.101 h 0.107 l -0.096,0.079 c -0.037,0.03 -0.066,0.066 -0.092,0.105 l -10e-4,-0.005 -0.321,0.294 0.255,0.05 a 9.21,9.21 0 0 0 0.198,0.746 l 0.214,0.799 c 0,0.078 -0.085,0.199 -0.141,0.199 -0.075,0 -0.175,-0.066 -0.211,-0.139 -0.022,-0.045 -0.1,-0.373 -0.173,-0.73 l -0.187,-0.77 c -0.06,-0.134 -0.199,-0.259 -0.322,-0.291 -0.261,-0.067 -0.563,0.196 -0.563,0.49 0,0.051 0.077,0.474 0.171,0.939 l 0.172,0.865 c 0,0.025 0.011,0.024 0.152,-0.013 L 40.179,8.685 40.014,7.87 C 39.828,6.953 39.817,6.831 39.912,6.762 c 0.09,-0.065 0.173,-0.057 0.246,0.023 0.049,0.054 0.094,0.219 0.205,0.753 l 0.18,0.778 c 0.045,0.112 0.219,0.276 0.32,0.302 a 0.7,0.7 0 0 0 0.202,0.004 C 41.3,8.595 41.478,8.331 41.432,8.078 41.422,8.023 41.326,7.683 41.219,7.322 41,6.587 40.999,6.583 41.027,6.474 41.069,6.308 41.27,6.356 41.328,6.545 l 0.249,0.906 0.23,0.822 C 41.813,8.28 41.874,8.267 41.942,8.244 L 42.067,8.202 41.829,7.335 41.56,6.389 A 0.68,0.68 0 0 0 41.432,6.213 C 41.357,6.138 41.305,6.114 41.195,6.103 L 41.054,6.089 41.14,6.009 C 41.208,5.946 41.229,5.899 41.24,5.783 41.252,5.655 41.244,5.624 41.177,5.542 41.098,5.445 40.993,5.396 40.888,5.402 Z m 2.883,0.118 c -0.129,0 -0.257,0.018 -0.324,0.055 -0.227,0.127 -0.322,0.316 -0.323,0.638 -10e-4,0.37 0.139,0.711 0.467,1.137 l 0.169,0.219 -0.1,0.043 C 43.521,7.676 43.407,7.67 43.319,7.599 43.259,7.55 43.202,7.401 43.015,6.809 42.774,6.046 42.71,5.914 42.529,5.817 42.254,5.67 41.874,5.932 41.874,6.268 c 0,0.073 0.487,1.73 0.532,1.808 0.006,0.011 0.068,10e-4 0.137,-0.024 0.118,-0.042 0.125,-0.049 0.101,-0.124 -0.536,-1.711 -0.54,-1.727 -0.395,-1.838 0.064,-0.049 0.085,-0.053 0.143,-0.021 0.037,0.02 0.083,0.059 0.102,0.084 0.019,0.025 0.139,0.368 0.266,0.76 l 0.294,0.807 c 0.183,0.278 0.684,0.278 0.912,-10e-4 0.118,-0.145 0.103,-0.227 -0.088,-0.455 -0.393,-0.469 -0.571,-0.969 -0.45,-1.267 0.057,-0.141 0.146,-0.194 0.326,-0.194 0.297,0 0.447,0.15 0.38,0.38 -0.039,0.134 -0.104,0.199 -0.299,0.297 -0.179,0.09 -0.238,0.19 -0.184,0.312 0.026,0.059 0.094,0.109 0.25,0.182 0.118,0.055 0.337,0.191 0.486,0.302 l 0.349,0.238 C 44.81,7.549 44.82,7.544 44.91,7.437 L 45.005,7.323 44.874,7.259 C 44.802,7.224 44.636,7.114 44.505,7.016 A 2.97,2.97 0 0 0 44.156,6.784 C 44.095,6.755 44.046,6.722 44.045,6.712 44.044,6.702 44.09,6.663 44.145,6.628 44.299,6.53 44.414,6.3 44.414,6.09 44.414,5.842 44.33,5.704 44.101,5.581 44.031,5.543 43.901,5.524 43.772,5.524 Z m -2.853,0.163 c 0.052,0 0.075,0.074 0.036,0.114 v 0 C 40.91,5.846 40.876,5.842 40.857,5.791 40.838,5.74 40.866,5.687 40.916,5.687 Z M 22.683,5.925 a 0.44,0.44 0 0 0 -0.287,0.1 C 22.289,6.106 22.26,6.174 21.904,7.176 l -0.257,0.725 0.131,0.049 0.131,0.049 0.071,-0.217 0.306,-0.875 c 0.225,-0.631 0.237,-0.659 0.306,-0.692 0.096,-0.047 0.214,0.012 0.243,0.12 0.019,0.071 -0.014,0.186 -0.243,0.838 l -0.29,0.815 c -0.023,0.055 -0.015,0.063 0.141,0.12 0.091,0.034 0.241,0.075 0.334,0.093 l 0.306,0.069 c 0.351,0.092 0.516,0.113 0.533,0.07 0.01,-0.023 0.106,-0.374 0.215,-0.78 0.23,-0.853 0.27,-0.966 0.358,-0.996 0.144,-0.049 0.279,0.022 0.282,0.146 0.001,0.037 -0.096,0.404 -0.214,0.814 -0.301,1.043 -0.285,0.943 -0.16,0.989 0.07,0.026 0.115,0.028 0.136,0.005 0.021,-0.023 0.129,-0.373 0.247,-0.787 L 24.743,6.862 A 0.38,0.38 0 0 0 24.624,6.422 L 24.623,6.421 C 24.507,6.293 24.272,6.246 24.085,6.312 24.036,6.329 24.016,6.321 23.943,6.252 a 0.44,0.44 0 0 0 -0.716,0.157 l -0.041,0.1 0.116,0.027 c 0.098,0.022 0.124,0.016 0.166,-0.039 0.071,-0.093 0.133,-0.119 0.212,-0.089 0.158,0.059 0.154,0.103 -0.055,0.874 -0.197,0.726 -0.22,0.795 -0.259,0.78 C 23.351,8.056 23.352,8.023 23.367,7.986 23.407,7.888 23.323,7.721 23.213,7.681 23.054,7.622 22.883,7.69 22.821,7.838 22.784,7.926 22.775,7.932 22.705,7.906 L 22.629,7.878 22.771,7.48 C 23.098,6.566 23.131,6.456 23.113,6.312 23.091,6.134 22.96,5.984 22.788,5.939 22.753,5.93 22.719,5.925 22.686,5.923 Z m 2.815,0.635 c -0.172,0.004 -0.352,0.105 -0.441,0.28 a 24.5,24.5 0 0 0 -0.399,1.814 0.49,0.49 0 0 0 0.248,0.042 c 0.01,-0.011 0.099,-0.405 0.198,-0.874 0.196,-0.925 0.22,-0.987 0.393,-0.987 0.203,0 0.207,0.126 0.036,0.951 L 25.389,8.58 c 0.002,0.321 0.295,0.552 0.535,0.423 0.215,-0.115 0.258,-0.225 0.431,-1.088 l 0.182,-0.789 a 0.2,0.2 0 0 1 0.332,0.009 c 0.039,0.073 0.029,0.146 -0.13,0.987 l -0.164,0.919 c 0.005,0.006 0.051,0.021 0.102,0.034 l 0.126,0.026 c 0.027,0.003 0.2,-0.832 0.338,-1.638 0.05,-0.293 0.017,-0.443 -0.128,-0.579 a 0.45,0.45 0 0 0 -0.729,0.132 c -0.023,0.046 -0.107,0.406 -0.187,0.799 l -0.192,0.818 c -0.084,0.183 -0.233,0.142 -0.233,-0.064 0,-0.063 0.06,-0.396 0.133,-0.74 C 25.98,7.007 25.976,6.857 25.777,6.665 25.701,6.592 25.601,6.559 25.497,6.561 Z M 38.893,6.68 C 38.783,6.672 38.667,6.708 38.568,6.794 38.486,6.865 38.478,6.866 38.397,6.823 38.239,6.739 38,6.778 37.85,6.913 37.811,6.948 37.789,6.947 37.694,6.906 c -0.3,-0.13 -0.611,0.085 -0.611,0.421 v 0.115 l 0.119,-0.017 c 0.101,-0.014 0.122,-0.03 0.141,-0.1 0.031,-0.119 0.079,-0.167 0.164,-0.167 0.171,10e-4 0.185,0.046 0.287,0.892 0.096,0.796 0.101,0.874 0.059,0.874 -0.016,0 -0.028,-0.034 -0.028,-0.076 0,-0.112 -0.144,-0.248 -0.263,-0.248 a 0.3,0.3 0 0 0 -0.307,0.302 c -0.001,0.101 -0.007,0.11 -0.083,0.11 H 37.09 L 37.069,8.563 C 37.022,7.53 37.01,7.408 36.937,7.271 36.847,7.102 36.666,7 36.488,7.019 36.343,7.035 36.235,7.108 36.156,7.248 36.087,7.369 36.086,7.447 36.14,8.578 l 0.039,0.818 h 0.142 0.142 L 36.445,9.153 36.393,8.167 C 36.36,7.455 36.361,7.422 36.412,7.363 c 0.072,-0.082 0.205,-0.067 0.274,0.03 0.045,0.064 0.058,0.191 0.096,0.926 l 0.043,0.92 c 0,0.064 0.011,0.068 0.178,0.068 a 2.46,2.46 0 0 0 0.349,-0.03 l 0.314,-0.044 c 0.365,-0.038 0.528,-0.077 0.528,-0.127 0,-0.027 -0.045,-0.413 -0.1,-0.858 -0.115,-0.936 -0.12,-1.062 -0.05,-1.125 0.116,-0.103 0.269,-0.083 0.321,0.042 0.015,0.037 0.066,0.438 0.114,0.891 0.121,1.152 0.098,1.045 0.232,1.045 0.076,0 0.118,-0.015 0.13,-0.046 C 38.85,9.03 38.818,8.636 38.769,8.179 L 38.68,7.215 c 0,-0.164 0.08,-0.272 0.192,-0.258 0.145,0.018 0.169,0.099 0.307,1.068 l 0.136,0.916 a 1.04,1.04 0 0 0 0.128,-0.009 c 0.105,-0.011 0.121,-0.023 0.121,-0.083 0,-0.11 -0.225,-1.661 -0.261,-1.804 C 39.247,6.825 39.077,6.692 38.894,6.679 Z M 27.811,6.976 c -0.077,0.003 -0.154,0.027 -0.225,0.076 -0.183,0.125 -0.214,0.235 -0.328,1.153 l -0.116,0.888 c -0.012,0.057 0,0.065 0.121,0.076 l 0.141,0.01 a 36.89,36.89 0 0 0 0.109,-0.841 l 0.135,-0.922 c 0.071,-0.193 0.279,-0.216 0.35,-0.038 0.036,0.088 0.027,0.183 -0.086,0.963 l -0.12,0.87 a 1.72,1.72 0 0 0 0.137,0.024 l 0.132,0.02 0.036,-0.282 c 0.02,-0.155 0.046,-0.288 0.058,-0.296 0.012,-0.008 0.061,0.019 0.107,0.059 0.046,0.04 0.104,0.066 0.131,0.056 0.035,-0.014 0.046,10e-4 0.046,0.066 0.001,0.246 0.125,0.467 0.319,0.566 V 9.423 c 0.26,0.133 0.594,0.054 0.777,-0.183 L 29.622,9.127 29.63,8.38 29.608,7.515 C 29.483,7.034 28.826,6.939 28.539,7.36 l -0.087,0.128 -0.01,0.498 c -0.009,0.439 -0.016,0.498 -0.057,0.498 a 0.38,0.38 0 0 0 -0.14,0.059 c -0.051,0.032 -0.093,0.052 -0.093,0.043 0,-0.009 0.034,-0.244 0.074,-0.522 0.04,-0.278 0.069,-0.569 0.061,-0.645 -0.025,-0.27 -0.249,-0.451 -0.479,-0.442 z m -7.94,0.066 c 0.08,0 0.08,0.002 0.027,0.134 -0.047,0.117 -0.06,0.123 -0.099,0.048 C 19.755,7.138 19.792,7.042 19.871,7.042 Z M 35.438,7.19 c -0.102,0 -0.168,0.02 -0.245,0.074 L 35.088,7.338 34.994,7.279 a 0.48,0.48 0 0 0 -0.485,0.01 C 34.412,7.357 34.408,7.358 34.341,7.305 34.083,7.102 33.717,7.287 33.65,7.654 L 33.632,7.75 h 0.139 c 0.128,0 0.14,-0.006 0.158,-0.081 0.011,-0.044 0.033,-0.097 0.05,-0.118 0.046,-0.057 0.179,-0.044 0.239,0.025 0.051,0.058 0.055,0.126 0.063,0.987 H 34.28 l 0.009,0.924 h 0.127 0.127 V 8.603 c 0,-0.948 0.015,-1.061 0.142,-1.103 0.106,-0.035 0.201,0.01 0.242,0.112 0.025,0.063 0.044,0.316 0.056,0.757 l 0.035,0.876 0.017,0.213 h 0.125 0.125 L 35.284,9.215 35.257,8.343 C 35.228,7.65 35.242,7.547 35.382,7.481 c 0.099,-0.047 0.208,0.029 0.23,0.159 0.009,0.053 0.039,0.48 0.066,0.95 l 0.049,0.854 0.128,-0.01 A 0.7,0.7 0 0 0 35.992,9.415 C 35.997,9.41 35.975,8.988 35.944,8.477 35.892,7.622 35.883,7.537 35.823,7.427 35.736,7.267 35.613,7.192 35.438,7.192 Z m -5.219,0.058 c -0.141,0.004 -0.28,0.095 -0.366,0.273 L 29.78,7.673 V 8.58 9.487 h 0.143 0.143 v -0.9 L 30.095,7.63 c 0.067,-0.13 0.215,-0.134 0.274,-0.007 0.013,0.029 0.031,0.444 0.039,0.923 0.015,0.866 0.015,0.872 0.085,0.977 a 0.67,0.67 0 0 0 0.171,0.168 h 10e-4 c 0.076,0.047 0.136,0.06 0.246,0.052 0.181,-0.013 0.3,-0.097 0.38,-0.266 0.055,-0.119 0.06,-0.179 0.063,-0.935 l 0.022,-0.879 c 0.011,-0.039 0.042,-0.086 0.07,-0.103 0.041,-0.026 0.059,-0.021 0.092,0.025 0.033,0.046 0.041,0.226 0.041,1.009 v 0.951 h 0.144 0.144 L 31.858,8.566 C 31.85,7.64 31.846,7.581 31.791,7.484 31.706,7.334 31.559,7.24 31.44,7.259 31.339,7.276 31.265,7.319 31.208,7.393 L 30.816,7.648 31.103,7.74 31.094,8.419 C 31.093,9.28 31.079,9.386 30.95,9.457 30.86,9.507 30.758,9.451 30.707,9.325 30.674,9.244 30.666,9.053 30.665,8.419 30.664,7.641 30.663,7.612 30.6,7.499 30.505,7.326 30.362,7.243 30.22,7.247 Z m 2.193,0.009 c -0.213,-0.018 -0.434,0.148 -0.48,0.411 l -0.02,0.111 h 0.146 c 0.121,0 0.146,-0.009 0.146,-0.052 0,-0.16 0.177,-0.237 0.285,-0.125 0.055,0.056 0.057,0.098 0.057,1.001 v 0.942 h 0.143 0.143 V 8.616 7.687 l 0.07,-0.072 c 0.09,-0.092 0.229,-0.096 0.32,-0.008 l 0.066,0.064 v 0.937 0.937 h 0.143 0.143 L 33.573,8.61 C 33.572,7.764 33.567,7.664 33.519,7.555 A 0.5,0.5 0 0 0 32.782,7.342 L 32.689,7.4 32.615,7.34 A 0.37,0.37 0 0 0 32.412,7.257 Z m -3.381,0.115 c 0.088,-0.002 0.177,0.032 0.247,0.104 l 0.073,0.076 v 0.717 l -0.027,0.717 c -0.015,0 -0.082,-0.07 -0.15,-0.157 C 29.043,8.661 28.915,8.558 28.797,8.528 L 28.724,8.509 V 8.043 c 0,-0.455 0.002,-0.468 0.072,-0.554 0.062,-0.076 0.147,-0.115 0.235,-0.117 z m -6.147,0.5 c 0.013,0.005 0.021,0.021 0.017,0.035 C 22.897,7.921 22.888,7.931 22.882,7.929 22.876,7.927 22.87,7.911 22.866,7.893 22.862,7.875 22.871,7.866 22.884,7.871 Z m 0.575,0.574 c -0.518,-0.033 -1.014,0.187 -1.49,0.368 -0.014,0.005 -0.031,0.002 -0.045,0.008 l 0.051,0.256 c 0.553,-0.011 1.07,-0.045 1.637,0.192 L 23.715,9.026 A 2.93,2.93 0 0 0 22.748,8.793 C 23.032,8.714 23.359,8.678 23.627,8.735 L 23.682,8.477 C 23.607,8.461 23.533,8.451 23.459,8.447 Z m 5.297,0.364 c 0.034,0 0.365,0.352 0.366,0.39 0.001,0.012 -0.034,0.022 -0.078,0.022 C 28.95,9.222 28.795,9.13 28.753,9.049 28.711,8.968 28.714,8.81 28.755,8.81 Z m 8.78,0.088 c 0.017,0 0.03,0.013 0.03,0.029 0,0.016 -0.006,0.03 -0.013,0.03 -0.007,0 -0.02,-0.013 -0.03,-0.03 -0.01,-0.017 -0.004,-0.029 0.012,-0.029 z m -8.787,0.69 c -0.11,0 -0.216,0.003 -0.298,0.087 a 0.26,0.26 0 0 0 -0.097,0.232 c 0,0.157 0.077,0.274 0.221,0.336 0.096,0.042 0.163,0.035 0.284,-0.026 0.052,-0.026 0.078,-0.019 0.152,0.046 a 0.34,0.34 0 0 0 0.526,-0.115 C 29.642,9.919 29.386,9.682 29.169,9.656 l -0.036,0.13 C 29.495,10 29.318,10.338 28.945,9.971 28.566,10.239 28.384,9.855 28.771,9.757 Z"
       fill="#ff0000"
       id="path266" />
  </g>
</svg>
