<svg xmlns="http://www.w3.org/2000/svg" xmlns:xlink="http://www.w3.org/1999/xlink" width="477.921" height="487.638" viewBox="0 0 126.45 129.021" xmlns:v="https://vecta.io/nano"><style><![CDATA[.B{stroke:#000}.C{opacity:.999}.D{stroke-width:.254}.E{fill:#fff}.F{fill-rule:evenodd}.G{stroke-linejoin:round}.H{stroke-width:.265}.I{stroke-width:.257}]]></style><path d="M63.225 3c13.871 0 24.782 2.256 37.92 6.471 8.453 55.783-18.357 83.845-37.92 97.207-19.563-13.362-46.373-41.424-37.92-97.207C38.443 5.256 49.354 3 63.225 3z" fill="#28a228"/><g fill="#ff0" stroke="red" stroke-width="2"><path d="M9.647 121.049l-7.182 6.973h27.829V114H3.41z"/><path d="M30.294 128.022V114l-11.292-2.873v12.284z" class="G"/><path d="M116.803 121.049l7.182 6.973H96.156V114h26.884z"/><g class="G"><path d="M96.156 128.022V114l11.292-2.873v12.284z"/><path d="M19.002 111.127h88.446v12.284H19.002z" class="C F"/></g></g><path d="M40.15 121.479c-.241-.057-.826-.363-1.3-.68-.722-.482-.974-.576-1.552-.576-.754 0-.846-.203-.239-.526.513-.273 1.27-.113 2.213.469s1.28.55 1.36-.114c.055-.455-.546-.958-2.166-1.812-1.579-.833-1.993-1.265-2.08-2.173-.063-.656-.037-.727.441-1.206.5-.5.522-.507 1.391-.437.883.071 2.254.588 2.75 1.036.214.194.353.736.189.736-.032 0-.35-.125-.706-.278-1.041-.446-1.597-.319-1.597.365 0 .425.537.81 1.618 1.159 1.612.521 1.993.96 1.993 2.302 0 .707-.047.831-.472 1.257-.26.26-.598.472-.752.472s-.364.025-.465.055-.382.008-.623-.049zm-6.671-.341l-.39-.335-.074-2.269c-.081-2.473-.193-2.894-.773-2.894-.889 0-1.279.644-1.713 2.833-.294 1.483-.549 2.194-.854 2.383-.246.152-1.241.094-1.456-.085-.157-.13-.199-.645-.2-2.474l-.104-2.461c-.056-.084-.274-.194-.484-.246-.247-.06-.382-.185-.382-.353 0-.2.14-.28.61-.351.756-.113 1.299.013 1.476.345.074.139.136.741.136 1.338.001 1.522.159 3.377.287 3.377.154 0 .362-.741.546-1.944.195-1.276.518-2.493.74-2.795.536-.726 1.795-1.02 2.596-.605.66.341.827.841.844 2.525l.104 2.327c.079.736.128.837.436.908.221.051.363.194.392.39.035.242-.063.355-.447.515-.666.278-.837.261-1.291-.13zm12.494.134c-.868-.387-1.008-.844-1.009-3.295-.001-2.315-.081-2.614-.705-2.614-.188 0-.268-.097-.268-.325 0-.671 1.444-.905 1.912-.309.226.287.279.67.357 2.558l.177 2.444c.132.344.494.465.99.331.612-.166.906-.788 1.294-2.733.379-1.903.679-2.432 1.414-2.493.98-.082 1.078.072 1.078 1.693l.091 2.503c.088 1.038.103 1.073.486 1.149.302.06.396.157.396.409 0 .309-.05.33-.807.33-1.332 0-1.334-.004-1.415-2.755l-.176-2.467c-.237-.236-.393.253-.605 1.897-.123.95-.326 2.007-.453 2.348-.406 1.095-1.787 1.763-2.756 1.331zm13.158-.047c-.406-.328-.544-1.116-.554-3.154-.011-2.237-.265-2.701-1.255-2.291-.532.22-.79.818-1.191 2.753-.352 1.699-.625 2.253-1.181 2.392-.325.081-1.049-.051-1.222-.222-.047-.047-.117-1.187-.155-2.534l-.069-2.449-.451-.129c-.287-.082-.451-.217-.451-.371 0-.351 1.409-.522 1.861-.226.373.244.497 1.139.498 3.598.001 1.248.036 1.493.214 1.493.28 0 .296-.06.55-2.083.263-2.096.578-2.843 1.39-3.296 1.014-.566 2.109-.329 2.597.564.099.181.196 1.248.242 2.662l.077 2.36.417.071c.289.049.429.161.459.365.033.23-.081.343-.524.52-.716.287-.875.284-1.252-.022zm11.973.155c-.398-.16-.552-.85-.646-2.893-.079-1.717-.139-2.127-.341-2.332-.564-.573-1.415.288-1.683 1.704-.502 2.65-.733 3.112-1.549 3.089-.746-.021-.812-.243-.814-2.73l-.104-2.385c-.056-.085-.243-.199-.415-.252-.186-.058-.312-.209-.312-.372 0-.251.082-.271.937-.234l.937.041.069 2.454.176 2.56c.22.22.355-.195.512-1.579.222-1.953.462-2.693 1.039-3.2.861-.756 1.723-.698 2.357.157.256.345.299.643.36 2.5.057 1.744.105 2.108.276 2.108.14 0 .288-.315.458-.972.92-3.568 1.167-4.097 1.913-4.097.207 0 .523.118.702.263.275.223.339.44.421 1.423l.107 2.24c.01 1.019.031 1.087.358 1.212.519.197.451.649-.14.931-.467.223-.503.22-.868-.051-.435-.324-.557-.91-.577-2.778-.014-1.318-.085-1.574-.439-1.574-.363 0-.465.249-1.031 2.511-.303 1.212-.591 2.071-.729 2.176-.231.176-.653.211-.976.081zm21.147-.126c-.871-.454-1.34-1.16-1.612-2.426-.282-1.315.215-2.47 1.347-3.134.814-.477 1.477-.617 2.104-.444l.506.14-.339.261c-.187.143-.483.262-.658.264-.858.008-1.563 1.735-1.151 2.819.31.815 1.059 1.033 1.732.504.483-.38.675-.784 1.052-2.21.172-.649.411-1.35.532-1.556.277-.473.856-.719 1.408-.598.764.168.843.443.843 2.944 0 2.088.02 2.266.269 2.399.148.079.434.144.635.144.267 0 .354.063.322.231-.056.29-.836.578-1.602.592-.867.016-.928-.175-.988-3.079-.039-1.886-.092-2.465-.229-2.465-.234 0-.409.48-.765 2.096-.674 3.064-1.882 4.312-3.405 3.518zm-67.998-.288c-.14-.168-.209-.899-.26-2.738l-.069-2.509-.451-.129c-.285-.082-.451-.218-.451-.369 0-.33 1.239-.501 1.775-.245.354.169.383.253.468 1.359l.104 2.436c.015 1.371.117 1.59.736 1.59.556 0 .5.384-.093.632-.654.273-1.519.26-1.758-.028zm60.555-.094c-1.475-.778-2.146-2.715-1.433-4.135.49-.976 1.854-1.676 2.712-1.391.781.259 1.372.684 1.372.987 0 .35-.075.349-.951-.016-.673-.28-.729-.283-1.066-.062-.444.291-.622.746-.618 1.582.008 1.717 1.445 2.827 2.543 1.964.537-.422.647-1.061.648-3.768.001-2.045.037-2.492.219-2.673.352-.352.877-.416 1.394-.17.382.182.471.304.471.644 0 .368-.048.419-.398.419-.369 0-.404.047-.488.66-.05.363-.05 1.285-.001 2.048.102 1.594-.086 2.773-.533 3.342-.714.908-2.681 1.198-3.87.571zm-6.905-.088c-.911-.574-1.064-1.793-.517-4.135.341-1.462.51-1.621 1.686-1.591a10.56 10.56 0 0 1 1.721.202c.715.166.764.204.764.591v.413l-1.092-.04c-1.186-.044-1.755.167-1.755.651 0 .366.267.542.904.594.484.039.559.092.597.417.04.345-.004.379-.601.469-.758.114-1.016.476-.801 1.125.181.546.664.773 1.429.672 1.114-.147 1.171-.143 1.218.088.067.329-.955.702-2.12.774-.812.05-1.048.012-1.432-.23zm23.583.184c-.51-.202-.555-.469-.555-3.254 0-3.327-.036-3.557-.571-3.675-.343-.075-.401-.154-.401-.544v-.456l.927-.095c.825-.085.959-.063 1.215.193.271.271.292.483.357 3.582l.069 3.295.451.043c.37.036.451.103.451.374 0 .182-.064.37-.142.418-.206.127-1.556.216-1.802.118zm-4.769-56.049H29.733c7.851 20.838 21.935 33.865 33.492 41.759 11.557-7.894 25.641-20.92 33.492-41.759z"/><path d="M49.352 97.614l2.642-2.241 1.694.532 2.02-1.741 1.679.258 1.414-.322 1.602-1.166 1.451.228 2.418 3.283 1.627-.137 2.286-3.648h2.11l1.583-.821.703 2.326 2.418-.091 2.286-1.186 3.825.502m-41.657-7.577l3.202.226 2.02-1.967 3.264 1.29 1.647-1.29 2.611 1.516 3.233-2.644 2.456 1.29 2.343-.921 3.517 3.055 1.758-.912 2.022.547 1.011-1.687 1.231.274 1.714-1.961 2.901 2.143.835-.821 1.319.182 2.066-2.235 2.33 2.235 2.945-2.827 1.143.684.659-1.003 3.209.912m-56.898-7.21l4.538-2.225.622.903 1.71-.226 1.181 3.128 2.735-.032.964-2.451 3.544 2.451 2.487-1.774 1.243 1.612 2.331-.419 1.523.709.497-3.644.86-.516 1.471.806 1.274-.548 1.088.709 1.212-.838 1.057.451 1.088-.967 5.03 3.65 4.088-2.235 1.583 1.186 2.022-1.14 2.242 2.417L84.4 72.43l.995 1.096 3.108-.065 5.906-2.644" fill="none" stroke="#fff" stroke-width=".948"/><path d="M63.225 3l-2.551.026 1.05 17.375 1.501 9.837 1.501-9.837 1.05-17.375L63.225 3zm-6.292.164l-3.599.252 3.255 20.228 1.668 7.634-.69-10.186zm12.584 0l-.633 17.928-.691 10.186 1.669-7.634 3.255-20.228-3.6-.252zm-19.594.605l-5.321.784 10.915 37.403zm26.604 0l-5.593 38.187L81.849 4.553l-5.322-.784zm-35.13 1.385l-4.815 1.086 15.722 42.018-3.18-13.608zm43.656.001l-7.727 29.495-3.18 13.608L89.868 6.239l-4.815-1.085zM34.061 6.887l-4.972 1.412 16.624 36.76 3.876 8.845-2.83-9.254zm15.527 47.017l2.81 9.189c-.446-3.04-.985-4.875-2.81-9.189zM92.389 6.887L79.692 44.65l-2.83 9.255 3.876-8.846 16.624-36.76-4.972-1.412zM76.861 53.905c-1.825 4.313-2.364 6.148-2.81 9.188zM25.305 9.471a147.63 147.63 0 0 0-.977 7.844l16.069 29.347 8.448 16.431-7.099-17.962zm75.84 0l-16.44 35.66-7.099 17.962 8.447-16.431 16.069-29.348a147.63 147.63 0 0 0-.977-7.843zm1.47 14.736l-15.46 29.13-4.74 9.756 20.322-31.895a123.26 123.26 0 0 0-.122-6.991zm-78.78.001a123.27 123.27 0 0 0-.123 6.991l20.322 31.895-4.739-9.756zm.211 14.501a103.44 103.44 0 0 0 1.004 8.442l15.242 15.942zm78.358 0L86.158 63.093 101.4 47.151a103.44 103.44 0 0 0 1.004-8.442zm-2.172 14.472l-9.129 9.912h2.272l5.299-3.974 1.559-5.938zm-74.013.001l1.558 5.937 5.299 3.974h2.272z" fill="#ff0"/><g class="B E F"><g stroke-width=".282"><use xlink:href="#B" class="C"/><use xlink:href="#B" x="4.404" class="C"/><use xlink:href="#B" x="8.809" class="C"/><use xlink:href="#B" x="13.214" class="C"/><use xlink:href="#B" x="17.618" class="C"/><use xlink:href="#B" x="22.023" class="C"/><use xlink:href="#B" x="26.428" class="C"/><path d="M58.82 63.093h4.405v1.826H58.82z" class="C"/><use xlink:href="#B" x="35.237" class="C"/><path d="M67.63 63.093h4.405v1.826H67.63z" class="C"/><use xlink:href="#B" x="44.046" class="C"/><use xlink:href="#B" x="48.451" class="C"/><use xlink:href="#B" x="52.856" class="C"/><use xlink:href="#B" x="57.26" class="C"/><use xlink:href="#B" x="61.665" class="C"/><use xlink:href="#B" x="66.07" class="C"/></g><path d="M71.081 27.462c0 3.967-3.517 7.183-7.856 7.183-2.084 0-4.082-.757-5.555-2.104s-2.301-3.174-2.301-5.079.828-3.732 2.301-5.079 3.472-2.104 5.555-2.104c4.339 0 7.856 3.216 7.856 7.183z" class="C G H"/></g><g class="D B"><path d="M53.136 30.602l-5.52 4.261v16.409l15.609-.001 15.609.001V34.863l-5.52-4.261H63.225z" class="E"/><path d="M55.715 62.921H31.463l-.045-1.225 1.448-.861-.181-.771 1.674-1.042-.136-.952 1.493-1.314 3.62-5.484h16.38z" class="E"/><g fill="none"><path d="M32.866 60.835l1.648 2.087 1.76-1.224.352-.705-1.088-1.923-1.179-.048m1.178.047l.992-1.25 1.28-.385.896.609-.352 1.987-1.728.962"/><path d="M36.273 61.698l.352 1.224h3.167l-.32-2.249-1.12-.641m-2.636-3.277l.813 1.064m1.28-.384l.17-2.085-.885-.681m.884.681l1.267-.499 1.538.997-.792 2.062-1.287.133m1.288-.132l.882 1.201-1.402 1.56m1.402-1.56l.747.045.792 1.36-.611 2.404m.611-2.404h1.176l1.199 2.404m-1.199-2.404l.747-1.224 1.471.227.837 2.289-1.041 1.112m1.04-1.112l1.312.068.633 1.044m-.633-1.044l.498-1.065 1.493-1.042.792.793-.113 2.359m.113-2.359h1.81l.566.68-.769 1.679m.769-1.679l1.448-.045 1.154.907-.724.817m-.43-1.725l1.154-1.586m-3.168.952l1.063-2.312 2.104-.068m-5.769 1.586l-.023-1.36 1.471-1.133 1.561-.068.656 1.042m-.656-1.041l1.086-1.632 1.674.771m-1.674-.771l-.339-1.405.701-1.428 1.312.453m-1.312-.453l.204-1.473m-2.602 0l-.181.589 2.579.884"/><path d="M51.824 51.86l-.882 1.564.928.929 1.833-.181m-1.834.181l-.837 1.518.362 1.405m-5.588 2.244l1.674-.657.973 1.949m-.973-1.949l.792-1.586 1.652 1.133"/><path d="M48.272 57.277l1.719-1.858 1.041.453m-1.04-.454l-.023-1.881.973-.113m-1.584-2.153l-.113 1.858.724.408m-.724-.408l-2.262 2.538.498 3.195m-.498-3.194h-1.652l-.339 1.292.882.861-.068 1.7m-1.47-.227l.249-.725-1.222-1.065-.588.068-1.154 1.586"/><path d="M40.784 55.849l1.719.363.272 1.36m.588-.069l1.629-.544m-5.747-2.107l.113-1.904 1.131-.159.905 1.405-.611 1.654m-2.215-3.413l.791.513m1.131-.159l1.109-1.518m-.204 2.923l1.493-.793.792 1.02-1.176 1.79m1.176-1.79l1.154-.113.498 1.36m-.499-1.36l1.29-1.428 1.29.091.701 1.428"/><path d="M47.412 52.971l.973-.589-.86-1.11m-4.637 2.129l.045-2.13m3.19 1.609l-1.176-1.609"/></g><path d="M70.735 62.921h24.252l.045-1.225-1.448-.861.181-.771-1.674-1.042.136-.952-1.493-1.314-3.62-5.484h-16.38z" class="E"/><g fill="none"><path d="M93.584 60.835l-1.648 2.087-1.76-1.224-.352-.705 1.088-1.923 1.179-.048m-1.178.047l-.992-1.25-1.28-.385-.896.609.352 1.987 1.728.962"/><path d="M90.177 61.698l-.352 1.224h-3.167l.32-2.249 1.12-.641m2.636-3.277l-.813 1.064m-1.28-.384l-.17-2.085.885-.681m-.884.681l-1.267-.499-1.538.997.792 2.062 1.287.133m-1.288-.132l-.882 1.201 1.402 1.56m-1.402-1.56l-.747.045-.792 1.36.611 2.404m-.611-2.404h-1.176l-1.199 2.404m1.199-2.404l-.747-1.224-1.471.227-.837 2.289 1.041 1.112m-1.04-1.112l-1.312.068-.633 1.044m.633-1.044l-.498-1.065-1.493-1.042-.792.793.113 2.359m-.113-2.359h-1.81l-.566.68.769 1.679m-.769-1.679l-1.448-.045-1.154.907.724.817m.43-1.725l-1.154-1.586m3.168.952l-1.063-2.312-2.104-.068m5.769 1.586l.023-1.36-1.471-1.133-1.561-.068-.656 1.042m.656-1.041l-1.086-1.632-1.674.771"/><path d="M72.409 55.577l.339-1.405-.701-1.428-1.312.453m1.312-.453l-.204-1.473m2.602 0l.181.589-2.579.884m2.579-.884l.882 1.564-.928.929-1.833-.181m1.834.181l.837 1.518-.362 1.405m5.588 2.244l-1.674-.657-.973 1.949"/><path d="M78.97 58.863l-.792-1.586-1.652 1.133m1.652-1.133l-1.719-1.858-1.041.453m1.04-.454l.023-1.881-.973-.113m1.584-2.153l.113 1.858-.724.408"/><path d="M77.205 53.129l2.262 2.538-.498 3.195m.498-3.194h1.652l.339 1.292-.882.861.068 1.7m1.47-.227l-.249-.725 1.222-1.065.588.068 1.154 1.586m.837-3.309l-1.719.363-.272 1.36m-.588-.069l-1.629-.544m5.747-2.107l-.113-1.904-1.131-.159-.905 1.405.611 1.654m2.215-3.413l-.791.513m-1.131-.159l-1.109-1.518"/><path d="M85.055 54.194l-1.493-.793-.792 1.02 1.176 1.79m-1.176-1.79l-1.154-.113-.498 1.36m.499-1.36l-1.29-1.428-1.29.091-.701 1.428m.702-1.428l-.973-.589.86-1.11"/><path d="M83.562 53.401l-.045-2.13m-3.19 1.609l1.176-1.609"/></g><g class="E F"><path d="M55.715 51.271h2.308v11.65h-2.308zm12.712 0h2.308v11.65h-2.308z" class="C"/><path d="M58.023 51.271h10.404v2.33H58.023z" class="C"/><path d="M58.023 53.601h10.404v2.33H58.023z" class="C"/><path d="M58.023 55.931h10.404v2.33H58.023z" class="C"/><path d="M58.023 58.261h10.404v2.33H58.023z" class="C"/><path d="M58.023 60.591h10.404v2.33H58.023zm-15.09-15.88v6.561h12.783v-6.561z" class="C"/></g></g><path d="M56.864 41.887c-.636.002-1.149.306-1.149.68h0v8.705h2.31v-8.705h0c0-.18-.121-.353-.338-.481s-.51-.199-.817-.199zm-15.091-.529c-.636.002-1.149.306-1.149.68h0v9.234h2.31v-9.234h0c0-.376-.517-.68-1.155-.68z" class="C B E F" stroke-width=".28"/><path d="M39.604 43.397h19.625c.363 0 .656.293.656.657s-.293.657-.656.657H39.604c-.363 0-.656-.293-.656-.657s.293-.657.656-.657z" class="B C E F I"/><g fill="none" class="D B"><path d="M45.014 44.711l.091 2.095.724.748.882-.884v-1.959m0 1.959l.792.635.385-.499.385.317.86-.725.837.771.611-.657.995.816.724-.793.905.635.86-.544-.045-1.914"/><path d="M47.888 46.806l-.158-2.095m1.402 1.687l-.136-1.687m1.584 1.801l.136-1.801m1.583 1.823l-.045-1.823m-7.149 2.095l-.792 1.02-.023 1.79.656 1.654m-.498-1.255l1.177-1.033.769.567-.023 1.722"/><path d="M45.829 47.554l-.204 1.428m.769.567l.882-.589.226-1.654m-.225 1.653l.43.703.656-.476-.091-2.062m-.565 2.538l-.181 1.609m.837-2.085l.656.589.905-.657.045-1.949m-.95 2.606l-.079 1.496m.984-2.153l.498.589.091 1.564m-.092-1.564l1.131-.567.023-1.813m-.022 1.814l.792.771-.082 1.36m.081-1.361l.984-.601-.124-2.142m.125 2.143l.916.601-.305 1.36m.305-1.361l.667-.725-.136-1.632-.713-.929"/></g><g class="E F B"><path d="M83.517 44.71v6.561H70.735V44.71z" class="C D"/><path d="M69.587 41.886c.636.002 1.149.306 1.149.68h0v8.705h-2.31v-8.705h0c0-.18.121-.353.338-.481s.51-.199.817-.199zm15.091-.529c.636.002 1.149.306 1.149.68h0v9.234h-2.31v-9.234h.001c0-.376.517-.68 1.155-.68z" class="C" stroke-width=".28"/><path d="M86.846 43.396H67.221c-.363 0-.656.293-.656.657s.293.657.656.657h19.625c.363 0 .656-.293.656-.657s-.293-.657-.656-.657z" class="C I"/></g><g fill="none" class="D B"><path d="M81.436 44.71l-.091 2.095-.724.748-.882-.884V44.71"/><path d="M79.739 46.669l-.792.635-.385-.499-.385.317-.86-.725-.837.771-.611-.657-.995.816-.724-.793-.905.635-.86-.544.045-1.914"/><path d="M78.563 46.805l.158-2.095m-1.402 1.687l.136-1.687m-1.584 1.801l-.136-1.801m-1.584 1.823l.045-1.823m7.15 2.095l.792 1.02.023 1.79-.656 1.654m.497-1.255l-1.177-1.033-.769.567.023 1.722m.543-3.717l.204 1.428m-.77.566l-.882-.589-.226-1.654m.226 1.654l-.43.703-.656-.476.091-2.062m.565 2.538l.181 1.609m-.837-2.085l-.656.589-.905-.657-.045-1.949m.95 2.606l.079 1.496m-.984-2.153l-.498.589-.09 1.564m.09-1.564l-1.131-.567-.023-1.813m.023 1.814l-.792.771.082 1.36m-.082-1.361l-.984-.601.124-2.142m-.124 2.143l-.916.601.305 1.36m-.305-1.361l-.667-.725.136-1.632.713-.929"/></g><g class="E B"><path d="M53.136 30.603l-5.52 4.261c2.472-.174 4.812-1.921 7.104-4.261z" class="D G"/><path d="M47.616 35.513h1.679c-.16 1.408-.734 2.338-1.679 2.84z" class="D"/><path d="M47.616 34.071h1.679v1.442h-1.679z" class="C D F"/><path d="M73.314 30.603l5.52 4.261c-2.472-.174-4.812-1.921-7.104-4.261z" class="D G"/><path d="M78.834 35.513h-1.679c.16 1.408.734 2.338 1.679 2.84z" class="D"/><g class="F"><path d="M78.834 34.071h-1.679v1.442h1.679z" class="C D"/><path d="M53.136 27.628v2.974h9.533 3.263 7.382v-2.974h-7.382-3.263z" class="C D G"/><path d="M56.677 33.743h13.096v6.481H56.677z" class="C H"/></g></g><path d="M63.225 0c-14.53 0-26.028 2.425-39.752 6.888l-.875.283-.143.908c-9.2 58.289 19.628 88.111 39.935 101.707l.834.559.834-.559C84.366 96.191 113.194 66.37 103.994 8.081l-.143-.908-.875-.283C89.253 2.425 77.755 0 63.225 0zm0 3c13.871 0 24.782 2.256 37.92 6.471 8.453 55.783-18.357 83.845-37.92 97.207-19.563-13.362-46.373-41.424-37.92-97.207C38.443 5.256 49.354 3 63.225 3z" fill="red"/><defs ><path id="B" d="M27.988 63.093h4.405v1.826h-4.405z"/></defs></svg>