<?xml version="1.0" encoding="UTF-8" standalone="no"?>
<svg
   xmlns:dc="http://purl.org/dc/elements/1.1/"
   xmlns:cc="http://creativecommons.org/ns#"
   xmlns:rdf="http://www.w3.org/1999/02/22-rdf-syntax-ns#"
   xmlns:svg="http://www.w3.org/2000/svg"
   xmlns="http://www.w3.org/2000/svg"
   xmlns:xlink="http://www.w3.org/1999/xlink"
   xmlns:sodipodi="http://sodipodi.sourceforge.net/DTD/sodipodi-0.dtd"
   xmlns:inkscape="http://www.inkscape.org/namespaces/inkscape"
   width="377.953"
   height="572.999"
   viewBox="0 0 100 151.606"
   version="1.1"
   id="svg303"
   sodipodi:docname="Coat_of_arms_of_Tuban_Regency (1).svg"
   inkscape:version="1.0.1 (3bc2e813f5, 2020-09-07)">
  <metadata
     id="metadata307">
    <rdf:RDF>
      <cc:Work
         rdf:about="">
        <dc:format>image/svg+xml</dc:format>
        <dc:type
           rdf:resource="http://purl.org/dc/dcmitype/StillImage" />
      </cc:Work>
    </rdf:RDF>
  </metadata>
  <sodipodi:namedview
     pagecolor="#ffffff"
     bordercolor="#666666"
     borderopacity="1"
     objecttolerance="10"
     gridtolerance="10"
     guidetolerance="10"
     inkscape:pageopacity="0"
     inkscape:pageshadow="2"
     inkscape:window-width="1366"
     inkscape:window-height="705"
     id="namedview305"
     showgrid="false"
     inkscape:zoom="0.78522814"
     inkscape:cx="83.477141"
     inkscape:cy="311.64869"
     inkscape:window-x="-8"
     inkscape:window-y="-8"
     inkscape:window-maximized="1"
     inkscape:current-layer="svg303" />
  <style
     id="style2"><![CDATA[.g{opacity:.995}.h{fill:#fff100}.i{stroke:#ffd600}.j{fill:#fed700}.k{fill:#167c3a}.l{fill:#0b3e1d}.m{stroke-width:.1}.n{opacity:.996}.o{stroke-width:.081}.p{stroke:#0b3e1d}.q{stroke-width:.165}.r{stroke-width:.07}.s{stroke-width:.078}.t{stroke-width:.079}]]></style>
  <defs
     id="defs19">
    <filter
       id="A"
       x="0"
       width="1"
       y="0"
       height="1"
       color-interpolation-filters="sRGB">
      <feGaussianBlur
         id="feGaussianBlur4" />
    </filter>
    <path
       id="B"
       d="M55.453 103.809c-.341 0-.724.022-.93.265-.26.307-.398-.184-.603-.033s.003.177-.039.304c-.057.17-.383-.151-.461.069-.096.27.266.242.264.409-.002.116-.296.03-.3.207-.003.137.121.269.316.313l-.015.234a1.77 1.77 0 0 0 3.131 1.125l1.701.821-.368-.803-1.025-.562a1.75 1.75 0 0 0 .098-.581 1.77 1.77 0 0 0-1.77-1.768z" />
    <path
       id="C"
       d="M57.072 105.576a1.62 1.62 0 0 1-1.618 1.618 1.62 1.62 0 0 1-1.618-1.618 1.62 1.62 0 0 1 1.618-1.618 1.62 1.62 0 0 1 1.618 1.618z" />
    <path
       id="D"
       d="M59.818 108.939c-3.863 15.575 7.575 16.923 10.891 13.43 6.751-9.415-4.68-13.753-10.891-13.43z" />
    <path
       id="E"
       d="M63.362 111.35c.437 2.602.662 3.217 1.001 4.421-.175.088-.344.148-.559.101-1.397-.288-1.488-.658-3.507-1.976 1.064 1.205 2.349 2.254 3.396 2.494.325.071.634-.027.92-.172l1.889 1.1.594 1.821c-.708.034-1.331-.128-1.916-.498-.611-.119-.522-.588-2.342-1.348 1.127 1.189 1.626 1.516 2.061 1.795.712.451 1.531.753 2.5.623l1.928.963 1.23 1.948.445-.282-1.203-1.906c.03-.123.073-.23.131-.375a1.71 1.71 0 0 0 .121-.748c-.402-.916-.109-1.914-1.687-3.754.547 1.807 1.082 2.7 1.158 3.783a1.06 1.06 0 0 1-.084.521c-.028.07-.054.155-.08.236l-1.662-.83-.703-2.154c.313-.675.273-1.44.037-2.226-.39-.494-.015-.846-1.408-2.589l.902 2.738a2.53 2.53 0 0 1-.029 1.664l-1.577-.914c-.619-.887-.523-2.263-1.555-4.435z" />
    <path
       id="F"
       d="M119.736 104.953l-.164.031c-1.16.225-2.036.836-2.43 1.672-.384.815-.275 1.834.418 2.854-.576.929-.699 1.878-.389 2.613.318.755 1.079 1.265 2.137 1.287.663.014 1.445-.48 1.836-1.246.377-.739.312-1.748-.582-2.756.019-.023.032-.034.059-.07.056-.076.125-.177.197-.301.145-.247.3-.58.379-.961.158-.763-.027-1.728-1.219-2.453a.55.55 0 0 1-.174-.205c-.049-.095-.078-.206-.074-.297z" />
    <path
       id="G"
       d="M117.702 109.509c-1.443-2.034-.362-3.955 1.896-4.394-3.21 2.614-.857 3.149-.857 4.276 0 .97-1.707 1.504.571 3.887-2.035-.043-2.806-1.92-1.609-3.769z" />
    <path
       id="H"
       d="M129.631 83.941c1.773-.906 1.754-2.737.355-3.959 1.232 3.187-.602 2.636-1.03 3.458-.368.706.612 1.778-1.873 2.604 1.427.782 2.675-.277 2.548-2.103z" />
    <path
       id="I"
       d="M121.557 68.517l-.102.088c-.719.628-1.094 1.423-1.049 2.189.043.747.506 1.446 1.374 1.912-.046.907.229 1.647.724 2.059.507.423 1.228.49 1.97.084.465-.255.82-.927.799-1.642-.02-.689-.448-1.398-1.451-1.775l.014-.075c.01-.077.019-.179.022-.298a2.82 2.82 0 0 0-.102-.852c-.18-.619-.675-1.248-1.777-1.3-.05-.002-.128-.03-.198-.08a.51.51 0 0 1-.164-.187z" />
    <path
       id="J"
       d="M121.878 72.65c-1.773-.906-1.754-2.737-.355-3.959-1.232 3.187.602 2.636 1.031 3.458.368.706-.612 1.778 1.873 2.604-1.427.782-2.675-.277-2.548-2.103z" />
    <path
       id="K"
       d="M130.636 71.64l.102.088c.719.628 1.094 1.423 1.049 2.189-.043.747-.506 1.446-1.374 1.912.046.907-.229 1.647-.724 2.059-.507.423-1.228.49-1.97.084-.465-.255-.82-.927-.799-1.642.02-.689.448-1.398 1.451-1.775l-.014-.075a3.2 3.2 0 0 1-.023-.298 2.82 2.82 0 0 1 .102-.852c.18-.619.675-1.248 1.777-1.3.05-.002.128-.03.198-.08a.51.51 0 0 0 .164-.187z" />
    <path
       id="L"
       d="M122.106 38.731l-.09.075c-.637.531-.969 1.203-.929 1.851.038.632.448 1.222 1.217 1.616-.041.767.203 1.393.641 1.741.449.357 1.088.414 1.745.071.412-.215.726-.784.708-1.388-.017-.582-.397-1.182-1.285-1.501.004-.021.008-.032.012-.063.009-.065.017-.151.02-.252.006-.201-.011-.458-.091-.72-.16-.523-.598-1.055-1.574-1.099-.044-.002-.113-.026-.176-.068s-.117-.101-.145-.158z" />
    <path
       id="M"
       d="M122.39 42.224c-1.571-.765-1.554-2.314-.315-3.347-1.091 2.694.533 2.229.913 2.923.326.597-.542 1.503 1.659 2.201-1.264.661-2.37-.234-2.257-1.777z" />
  </defs>
  <g
     id="g1159"
     transform="translate(-9.8227816e-4)">
    <path
       d="M 23.817,0 0.006,7.33 0.001,96.282 c 0,25.739 19.45,46.933 44.454,49.693 h -0.029 c 4.327,0.835 4.875,3.717 5.575,5.631 0.7,-1.914 1.248,-4.796 5.575,-5.631 h -0.029 c 25.004,-2.76 44.454,-23.953 44.454,-49.693 L 99.996,95.581 100.001,7.33 76.179,0 Z"
       class="n"
       id="path21" />
    <path
       d="M 24.047,1.537 1.542,8.465 1.537,96.282 c 0,24.965 18.848,45.49 43.086,48.165 a 1.55,1.55 0 0 1 0.438,0.116 c 2.272,0.521 3.84,1.645 4.76,2.925 0.07,0.098 0.116,0.195 0.18,0.294 0.064,-0.098 0.109,-0.196 0.18,-0.294 0.92,-1.28 2.488,-2.404 4.76,-2.925 a 1.54,1.54 0 0 1 0.438,-0.116 C 79.616,141.772 98.464,121.248 98.465,96.284 L 98.46,95.593 98.465,8.465 75.949,1.537 Z"
       fill="#ffffff"
       class="n"
       id="path23" />
    <path
       d="M 24.339,3.475 3.48,9.896 3.475,96.282 c 0,25.736 20.789,46.525 46.525,46.525 25.736,0 46.524,-20.787 46.525,-46.522 L 96.52,95.607 V 95.581 L 96.525,9.896 75.655,3.474 Z"
       class="h n"
       id="path25" />
    <path
       d="m 7.885,96.282 c 0,23.362 18.754,42.115 42.115,42.115 23.361,0 42.111,-18.75 42.115,-42.108 z"
       fill="#040db2"
       class="g"
       id="path27" />
    <path
       d="M 7.885,96.282 7.889,8.538 24.339,3.474 H 50 v 92.457 z"
       fill="#ed1b24"
       filter="url(#A)"
       id="path29" />
    <path
       d="m 50.464,102.559 0.004,-87.744 16.45,-5.064 h 25.661 v 92.457 z"
       transform="matrix(-1,0,0,1,142.57911,-6.277)"
       filter="url(#A)"
       id="path31" />
    <path
       d="M 50,65.482 7.885,89.294 v 6.988 h 84.231 v -6.988 z"
       fill="#01a54f"
       id="path33" />
    <path
       d="m 24.339,3.475 c 3.619,3.13 11.701,10.98 13.459,38.951 V 95.932 H 50 62.202 V 42.425 C 63.961,14.455 72.043,6.605 75.661,3.474 H 50 Z"
       fill="#00adef"
       class="n"
       id="path35" />
    <g
       fill="#ed1b24"
       id="g45">
      <path
         d="m 40.724,138.476 -0.478,2.196 -0.001,0.003 c 2.381,0.518 4.831,0.853 7.337,0.983 l 0.119,-2.251 a 43.52,43.52 0 0 1 -6.978,-0.932 z"
         class="n"
         id="path37" />
      <path
         d="m 29.641,134.412 -1.048,1.982 a 45.11,45.11 0 0 0 6.787,2.937 l 0.008,-0.003 0.716,-2.126 a 42.89,42.89 0 0 1 -6.463,-2.791 z m -9.3,-6.679 -1.525,1.637 a 45.48,45.48 0 0 0 5.774,4.619 l 1.244,-1.862 c -1.952,-1.315 -3.787,-2.786 -5.493,-4.394 z m -7.336,-9.088 -1.909,1.174 c 1.279,2.115 2.728,4.115 4.324,5.985 l 1.694,-1.463 a 43.08,43.08 0 0 1 -4.109,-5.695 z"
         id="path39" />
      <path
         d="m 59.277,138.476 0.478,2.196 v 0.003 c -2.381,0.518 -4.831,0.853 -7.337,0.983 l -0.119,-2.251 c 2.384,-0.124 4.714,-0.441 6.978,-0.932 z"
         class="n"
         id="path41" />
      <path
         d="m 70.359,134.412 1.048,1.982 a 45.11,45.11 0 0 1 -6.787,2.937 l -0.008,-0.003 -0.716,-2.126 a 42.89,42.89 0 0 0 6.463,-2.791 z m 9.3,-6.679 1.525,1.637 a 45.48,45.48 0 0 1 -5.774,4.619 l -1.244,-1.862 c 1.952,-1.315 3.787,-2.786 5.493,-4.394 z m 7.336,-9.088 1.909,1.174 c -1.279,2.115 -2.728,4.115 -4.324,5.985 l -1.694,-1.463 a 43.08,43.08 0 0 0 4.109,-5.695 z"
         id="path43" />
    </g>
  </g>
  <g
     id="g1163">
    <path
       d="M50 9.486l-2.225 5.046-5.486.556 4.111 3.675-1.166 5.39L50 21.378l4.766 2.775-1.166-5.39 4.111-3.675-5.486-.557z"
       class="h n"
       id="path47" />
    <path
       d="M50 9.486l-2.225 5.046L50 17.594l-7.711-2.506 4.111 3.675 3.599-1.169-4.766 6.559 4.766-2.775v-3.785l4.766 6.559-1.166-5.39L50 17.593l7.711-2.506-5.486-.557-2.224 3.062z"
       fill="#f7ea00"
       class="n"
       id="path49" />
  </g>
  <g
     id="g1290">
    <g
       fill="#fff"
       id="g55">
      <path
         d="M44.345 101.287c-1.728 0-2.799.306-3.668.608s-1.506.582-2.539.619c-1.081.039-1.94-.345-2.924-.676s-2.108-.583-3.511-.121c-.109.036-.199.114-.251.216a.43.43 0 0 0-.024.33c.036.109.114.199.216.251a.43.43 0 0 0 .33.024c1.194-.394 2.035-.194 2.965.119s1.931.766 3.231.719c1.179-.043 1.958-.376 2.793-.666s1.753-.558 3.383-.558c1.428 0 2.136.334 2.87.693s1.51.755 2.777.715c1.29.047 2.077-.356 2.81-.715s1.442-.693 2.869-.693c1.63 0 2.548.268 3.383.558s1.614.624 2.793.666c1.299.047 2.301-.406 3.23-.719s1.771-.512 2.965-.119c.109.036.228.028.331-.024a.43.43 0 0 0 .216-.251.44.44 0 0 0-.024-.33c-.051-.102-.142-.18-.251-.216-1.403-.463-2.528-.21-3.512.121s-1.843.715-2.924.676c-1.033-.037-1.67-.317-2.539-.619s-1.939-.608-3.668-.608l-.027.001a6.73 6.73 0 0 0-3.223.78c-.745.364-1.29.666-2.389.627h-.048c-1.099.04-1.64-.26-2.388-.627s-1.669-.775-3.223-.78l-.027-.001zm.758 9.762c-1.134 0-2.152.323-2.996.629s-1.547.574-1.883.574c-.115 0-.225.046-.306.127s-.126.192-.126.307c.001.238.194.431.432.431.678 0 1.362-.331 2.178-.627s1.732-.576 2.701-.576c1.143 0 1.841.221 2.531.461.683.237 1.374.503 2.337.508l.028.001.028-.001c.963-.005 1.654-.271 2.337-.508.69-.239 1.39-.461 2.533-.461.969 0 1.886.281 2.701.576s1.5.627 2.178.627c.238 0 .431-.193.432-.431 0-.115-.045-.225-.126-.307a.43.43 0 0 0-.306-.127c-.335 0-1.038-.268-1.883-.574s-1.862-.629-2.996-.629c-1.26 0-2.108.264-2.816.51s-1.259.461-2.082.461-1.372-.215-2.08-.461-1.557-.51-2.816-.51zm-8.386-3.138c-.238 0-.431.193-.432.431s.193.434.432.434c1.445-.348 2.016-.233 2.86.073s1.862.629 2.996.629c1.26 0 2.108-.264 2.816-.51s1.257-.461 2.08-.461c1.143 0 1.841.221 2.531.461.683.237 1.374.503 2.337.508l.028.001.028-.001c.963-.005 1.654-.271 2.337-.508.69-.239 1.39-.461 2.533-.461.969 0 1.886.281 2.701.576s1.5.627 2.178.627c.238 0 .431-.193.432-.431s-.193-.434-.432-.434c-.335 0-1.038-.268-1.883-.574s-1.862-.629-2.996-.629c-1.26 0-2.108.264-2.816.51s-1.259.461-2.082.461-1.372-.215-2.08-.461-1.557-.51-2.816-.51v.001l-.028.001c-.963.005-1.654.271-2.337.508-.69.239-1.388.461-2.531.461-.969 0-1.886-.281-2.701-.576s-2.367-.364-3.155-.126z"
         id="path51" />
      <path
         d="M37.848 28.97l-4.63 6.662h4.536v7.56h-5.953v3.284c.759.02 1.48.341 2.003.893s.805 1.288.785 2.047v4.171H28.4v3.874h4.63v28.582h-7.923v5.689h-4.741v4.552h24.003v-4.552-5.689-32.456-10.394-7.56-6.662zm24.48 0l4.63 6.662h-4.536v7.56h5.953v3.284c-.759.02-1.48.341-2.003.893s-.805 1.288-.785 2.047v4.171h6.189v3.874h-4.63v28.582h7.923v5.689h4.741v4.552H55.807v-4.552-5.689-32.456-10.394-7.56-6.662z"
         opacity=".991"
         id="path53" />
    </g>
    <path
       d="M36.415 82.616v6.833h-5.546v6.833H50h19.13v-6.833h-5.545v-6.833H50z"
       class="g"
       id="path57" />
    <g
       stroke="#696969"
       id="g63">
      <path
         d="M49.79 36.823c-.948.53-2.184.545-3.192.752-.278.058-.48.104-.631.193-.122.072-.182.096-.236.1s-.134-.012-.285-.067c-.271-.098-.434-.163-.623-.135a.37.37 0 0 0-.252.172.49.49 0 0 0-.053.252 1.14 1.14 0 0 1-.055.219c-.037.109-.092.242-.155.375-.126.267-.293.546-.398.666-.056.064-.178.118-.349.121s-.38-.042-.574-.143c-.101-.052-.178-.092-.273-.113-.048-.011-.106-.021-.178.004a.3.3 0 0 0-.162.158c-.048.123-.025.205-.004.317l.105.422c.082.295.299.668.523.924.176.201.241.303.242.309s.004-.005-.008.025a1.54 1.54 0 0 1-.088.168c-.08.14-.136.266-.152.404s.012.274.063.408c.011.029.045.207.06.41s-.115 1.003-.122 1.233c.67 1.971.162 3.308.519 4.437.285.535.666 1.003 1.002 1.385.031.012.054.016.072.018.297-.032.53-.202.805-.318v.002c.012.007.044.031.09.072a.87.87 0 0 0 .334.215.45.45 0 0 0 .4-.088c.212-.18.324-.477.517-.987.235-.618.53-1.137.846-1.508.293-.343.577-.812.691-1.156l.016.416c-.001 1.696-.652 3.041-2.629 5.346-.488.569-1.003 1.231-1.186 1.543-.138.236-.205.323-.252.35s-.155.041-.428.041c-.606 0-1.843-.386-3.291-1.076-.557-.266-.957-.421-1.289-.463s-.621.064-.803.283c-.715.727.117 2.225.355 2.491-.027.13.067.58-.099.991-.771 1.783-1.177 2.327-1.653 3.178-.374.132-.785.38-.8.789-.035.935.247 2.34.533 3.942.503 1.25 1.633 1.678 2.053 1.845.518-.341.416-.304.619-.591.214-.489.21-1.273-.097-1.687-.175-.228-.442-.367-.777-.451-.189-.048-.298-.095-.332-.119s-.019.005-.019-.043c-.087-.583-.323-1.082-.553-1.654l.207-.277a5.31 5.31 0 0 0 .484-.805c.183-.393.588-1.067.965-1.632l.514-.725c.018.577.123.824.137 1.076.021.384-.049.633-.01.948-.018.144.228.415.325.541 1.147.963 2.007 1.803 3.026 2.277.216.199 1.966-.077 2.535-.269.075-.33.018-.557-.013-.746l-1.132-1.213c-.25-.061-.48.034-.781.18-.208.101-.341.15-.405.16l-1.584-.819c-.065-.059-.058-.052-.058-.156 0-.366-.155-.921-.35-1.471l-.313-.767c1.406.96 2.196 1.717 4.725 2.824.093.148.703.823.91 1.055a20.47 20.47 0 0 0 1.654 1.625l4.032 2.865-.002.001c.217.373-1.064 1.851 1.735 5.969.173.254.399.558-.059 1.04l-3.839 3.543c-.224.181-.469.238-.614.467-.157.246-.172.504-.224.779-.25.172-1.896 1.584-1.169 4.678.097.16.401.113.854-.083l.652-.332c.366-.187.773-.475 1.107-.76a4.4 4.4 0 0 0 .431-.416c.116-.131.205-.237.242-.387.068-.415-.063-.72-.138-1.101.146-.184.316-.409.415-.64.635.023.821-.465 1.07-.838.505-.761 2.817-3.083 3.603-3.617.398-.27.835-.626 1.034-.861l.379-.449.642 1.334c.162.683-.164 1.435-.384 1.829-.964 1.722-1.588 2.442-2.264 3.231-.186.217-.327.326-.538.595s-.185.509-.259.76c-.791.586-1.229 1.3-1.533 2.063l.675-.03 3.024-.07-.014-.213-.033-.596c-.017-.291-.005-.424.002-.44.201-.105.469-.252.652-.4.107-.125.169-.275.221-.459.085-.71.497-1.211.936-1.871l1.547-2.213c.408-.55.669-.973.807-1.371s.142-.769.045-1.156c-.164-.652-.134-1.511.045-1.957.053-.133.366-.534.685-.846a4.78 4.78 0 0 1 .457-.396c.015-.011.024-.015.039-.025-.046.195-.133.493-.324 1.109-.28.901-.372 1.85-.299 2.639s.293 1.447.783 1.709c.085.046.062.007.076.09s.011.294-.018.668c-.054.709-.011 1.009.211 1.525.155.359.418.721.697 1.006.14.143.283.266.424.358s.276.16.438.16c-.001 0 .131.064.228.258.446.883 1.123 1.342 2.01 1.342h1.006l-.961-1.037c-.655-.708-1.277-1.881-1.523-2.877-.237-.958-.178-3.159.17-5.064.289-1.583.375-2.74.195-3.723s-.632-1.779-1.371-2.608l-.428-.529-.121-.188c-.026-.046-.024-.098-.024-.021 0-.164-.06-.302-.144-.512l-.332-.725c-.263-.528-.589-1.103-.859-1.482a8.64 8.64 0 0 0-2.31-2.209l-1.592-1.015c-1.285-.818-2.235-1.804-2.721-2.795-.434-.885-.84-2.383-.84-2.996 0-.358.06-.827.141-1.195a3.2 3.2 0 0 1 .117-.414c.052.039.262.679.316.669-.028-.539-.023-.794.294-1.181.081-.099.212-.146.171.326-.078.892-.043 1.629.402 2.475-.256-1.928 1.5-3.343 1.086-5.068a3.11 3.11 0 0 0-.317-.714c-.302-.54-.931-1.642-.476-1.857.361-.171.518 1.878 1.211 2.132-.122-.245-.331-.527-.077-1.431s.288-1.523.063-1.955c-.067-.127-.184-.264-.361-.471l-.631-.698c-.453-.477-.715-.8-.819-.992-.166-.307.223-.432.421-.194.331.398.594.627.861 1.524.246-.738.376-1.075.386-1.412.008-.579-.121-1.051-.471-1.422s-.91-.495-1.708-.745c-.876-.275-1.621-1.184-1.598-1.17.985.629 1.353.749 2.23.631-.935-.447-1.248-.803-1.402-1.062-.222-.379-.474-.98-.85-1.05-.504-.094-2.278.068-3.154.16.241-.604.522-.592.972-.756-1.135-1.154-2.895.174-3.835.469.573-.435 1.452-.81 1.716-1.487z"
         stroke-width=".01"
         fill="#fff"
         id="path59" />
      <path
         d="M49.789 36.823c-1.006.551-3.124.347-4.059 1.046-.42-.227-.783-.22-1.201-.237.104.479-.342 1.313-.62 1.719-.553.311-1.166-.091-1.487-.473-.273.963.152 1.945.818 2.472.001.003.004-.005-.008.025-.103.218-.281.441-.403.622.22.343.174.224.225.358.011.029.045.207.06.41s-.188 1.012-.122 1.233c.6 1.994.079 3.375.435 4.504.285.535.749.936 1.086 1.318.031.012.054.016.072.018.297-.032.53-.202.805-.318v.002c.013.007.044.031.09.072a.87.87 0 0 0 .334.215.45.45 0 0 0 .4-.088c.212-.18.324-.477.517-.987.235-.618.53-1.137.846-1.508.293-.343.577-.812.691-1.156l.016.416c-.001 1.696-.652 3.041-2.629 5.346-.488.569-1.003 1.231-1.186 1.543-.138.236-.205.323-.252.35s-.155.041-.428.041c-.606 0-1.843-.386-3.291-1.076-.557-.266-.957-.421-1.289-.463s-.621.064-.803.283c-.099.119-.096.228-.098.351a2.18 2.18 0 0 0 .043.412c.054.296.153.623.291.887l.098.176c.015.024.029.048.053.074s.058.064.137.08.172-.029.209-.067a.26.26 0 0 0 .06-.092c.023-.051.037-.097.057-.158.017-.053.153-.232.316-.359.123-.096.224-.129.301-.157-.014.021-.007.025-.033.047-.329.273-.528.755-.678 1.463-.027.13-.15.48-.316.89l-.596 1.354-.568 1.254c-.164.365-.13.567-.231.812-.374.132-.783.424-.875.823.053 1.054-.059 2.52.684 3.361.111.067.236.05.317.029.274.916 1.035 1.238 1.837 1.462.214-.489.21-1.273-.097-1.687-.175-.228-.442-.367-.777-.451-.189-.048-.298-.095-.332-.119s-.019.005-.019-.043c-.087-.583-.323-1.082-.553-1.654l.207-.277a5.31 5.31 0 0 0 .484-.805c.183-.393.588-1.067.965-1.632l.514-.725.158-.189c.005.022.005.045.012.07l.066.233.215.594.213.611c.003.033.003.028-.004.041a.69.69 0 0 1-.08.1c-.079.087-.159.186-.178.33s.044.282.141.408c.194.252.564.555 1.258 1.119l.966.779c.465.252.569.186.668-.09.229.484.499.647 1.051.633a1.65 1.65 0 0 0 .858-.25c.279-.17.606-.313.654-.562l-1.131-1.213c-.25-.061-.48.034-.781.18-.208.101-.341.15-.405.16l-1.584-.819c-.065-.059-.058-.052-.058-.156 0-.366-.155-.921-.35-1.471l-.313-.767c-.132-.311-.41-.533-.75-.854.002-.07-.014-.151.132-.314 1.901 1.816 4.761 4.044 7.521 3.774 2.524-.247 3.908-1.18 4.261-3.633.377 2.93-3.266 4.576-6.44 3.85.093.148.703.823.91 1.055a20.47 20.47 0 0 0 1.654 1.625c1.415 1.115 2.857 2.183 4.397 3.086-.374 2.548.532 3.826 1.453 4.985.348.361.574.738.547 1.133-.042.336-.082.503-.205.682l-3.029 2.867-1.107 1.157c-.186.192-.27.168-.411.373a3.23 3.23 0 0 1-.18.449 3.45 3.45 0 0 1-.225.314c-.839 1.379-.931 2.687-.525 4.215l.652-.332c.366-.187.773-.475 1.107-.76a4.4 4.4 0 0 0 .431-.416c.116-.131.205-.237.242-.387.068-.415-.063-.72-.138-1.101.146-.184.316-.409.415-.64.634.023.82-.465 1.069-.839.505-.761 2.817-3.083 3.603-3.617.398-.27.835-.626 1.034-.861l.379-.449c-1.192-2.58-2.954-7.2.162-8.721-2.775 2.088-1.093 6.277-.061 8.318.61 1.2.882 1.839.826 2.451s-.455 1.282-1.287 2.512l-.965 1.385-.566.74a1.61 1.61 0 0 0-.254.34c-.066.118-.119.225-.119.365-.226.598-.738 1.1-1.053 1.711l-.344.68 3.024-.07-.014-.213-.033-.596c-.017-.291-.005-.424.002-.44.201-.105.469-.252.652-.4.107-.125.169-.275.221-.459.085-.71.497-1.211.936-1.871l1.547-2.213c.408-.55.669-.973.807-1.371s.142-.769.045-1.156c-.164-.652-.133-1.511.045-1.957.053-.133.366-.534.685-.846a4.76 4.76 0 0 1 .457-.396c.015-.011.024-.015.039-.025-.046.195-.133.493-.324 1.109-.28.901-.372 1.85-.299 2.639s.293 1.447.783 1.709c.085.046.062.007.076.09s.011.294-.018.668c-.054.709-.011 1.009.211 1.525.155.359.418.721.697 1.006.14.143.283.266.424.358s.276.16.438.16c-.001 0 .131.064.228.258.446.883 1.123 1.342 2.01 1.342h1.006l-.961-1.037c-.655-.708-1.277-1.881-1.523-2.877-.237-.958-.178-3.159.17-5.064.289-1.583.375-2.74.195-3.723s-.632-1.779-1.371-2.608l-.428-.529-.121-.188c-.026-.046-.024-.098-.024-.021 0-.164-.06-.302-.144-.512l-.332-.725c-.263-.528-.589-1.103-.859-1.482a8.64 8.64 0 0 0-2.31-2.209l-1.592-1.015c-1.285-.818-2.235-1.804-2.721-2.795-.434-.885-.84-2.383-.84-2.996 0-.358.06-.827.141-1.195a3.2 3.2 0 0 1 .117-.414c.052.039.263.68.316.67-.028-.539-.024-.795.294-1.181.081-.099.213-.146.171.326-.078.892-.043 1.629.402 2.475-.256-1.928 1.5-3.343 1.085-5.068a3.11 3.11 0 0 0-.318-.714c-.302-.54-.931-1.642-.476-1.857.361-.171.518 1.878 1.212 2.132-.122-.245-.331-.527-.077-1.431s.288-1.523.063-1.955c-.067-.127-.184-.264-.361-.471l-.631-.698c-.453-.477-.715-.8-.819-.992-.166-.307.223-.432.421-.194.331.398.594.627.861 1.525.246-.738.377-1.075.386-1.412.008-.579-.121-1.051-.471-1.422s-.91-.495-1.709-.745c-.876-.275-1.621-1.184-1.598-1.17.985.629 1.353.748 2.23.631-.935-.447-1.248-.803-1.402-1.062-.222-.379-.474-.98-.849-1.05-.504-.094-2.278.068-3.154.16.241-.604.522-.592.971-.756-1.135-1.154-2.895.174-3.835.469.496-.355 1.565-.581 1.716-1.487z"
         stroke-width=".014"
         id="path61" />
    </g>
    <path
       d="M50 84.948c-.514.464-.631.962-.686 1.748-.895-.785-2.342-.515-2.681-.094 1.794.203 2.303 1.346 2.315 2.834.009 1.175-1.03 6.799-7.183 6.564-6.372 0-4.806-5.639-8.929-4.863 1.068 1.149 2.757.427 3.04 5.865.086 1.651 1.951 4.063 3.275 4.826 4.194 1.877 5.031-.342 10.848 4.806 5.817-5.148 6.654-2.929 10.848-4.806 1.324-.763 3.189-3.174 3.275-4.826.283-5.438 1.972-4.716 3.04-5.865C63.04 90.361 64.606 96 58.233 96c-6.153.234-7.192-5.389-7.183-6.564.012-1.489.521-2.631 2.315-2.834-.339-.421-1.787-.691-2.681.094-.054-.786-.172-1.284-.686-1.748z"
       fill="#deae26"
       id="path65" />
    <path
       d="M44.346 44.644l-.175.217c-.46-.489-.07-1.176.121-1.157.246.03.267.294.226.422-.329-.019-.447.361-.171.518zm.042 3.124c.267.123.27.331.221.476-.35-.041-.389-.371-.221-.476z"
       fill="#fff"
       id="path67" />
  </g>
  <g
     id="g1220">
    <g
       transform="matrix(-1.02321 .264896 .257461 1.052761 46.92526 -33.86878)"
       id="g73">
      <use
         xlink:href="#B"
         class="g l"
         id="use69" />
      <use
         xlink:href="#C"
         class="g k"
         id="use71" />
    </g>
    <g
       transform="matrix(-.969772 .244015 .244015 .969772 47.25945 -15.955567)"
       id="g79">
      <use
         xlink:href="#B"
         class="g l"
         id="use75" />
      <use
         xlink:href="#C"
         class="g k"
         id="use77" />
    </g>
    <g
       transform="matrix(-.969772 .244015 .244015 .969772 45.445488 -19.71298)"
       id="g85">
      <use
         xlink:href="#B"
         class="g l"
         id="use81" />
      <use
         xlink:href="#C"
         class="g k"
         id="use83" />
    </g>
    <g
       transform="rotate(15.073 80.91 -62.737)"
       id="g91">
      <use
         xlink:href="#B"
         class="g l"
         id="use87" />
      <use
         xlink:href="#C"
         class="g k"
         id="use89" />
    </g>
    <g
       transform="rotate(15.073 191.121 -67.77)"
       id="g97">
      <use
         xlink:href="#B"
         class="g l"
         id="use93" />
      <use
         xlink:href="#C"
         class="g k"
         id="use95" />
    </g>
    <g
       transform="matrix(-.965596 .260047 .260047 .965596 46.121118 -49.040075)"
       id="g103">
      <use
         xlink:href="#B"
         class="g l"
         id="use99" />
      <use
         xlink:href="#C"
         class="g k"
         id="use101" />
    </g>
    <g
       transform="matrix(-.965596 .260047 .260047 .965596 46.179529 -54.971417)"
       id="g109">
      <use
         xlink:href="#B"
         class="g l"
         id="use105" />
      <use
         xlink:href="#C"
         class="g k"
         id="use107" />
    </g>
    <g
       transform="rotate(15.073 214.137 -71.541)"
       id="g115">
      <use
         xlink:href="#B"
         class="g l"
         id="use111" />
      <use
         xlink:href="#C"
         class="g k"
         id="use113" />
    </g>
    <g
       transform="matrix(-.965596 .260047 .260047 .965596 46.204919 -61.024152)"
       id="g121">
      <use
         xlink:href="#B"
         class="g l"
         id="use117" />
      <use
         xlink:href="#C"
         class="g k"
         id="use119" />
    </g>
    <g
       transform="matrix(.877164 .225316 -.236231 .836634 -8.952732 -68.63449)"
       id="g127">
      <use
         xlink:href="#B"
         class="g l"
         id="use123" />
      <use
         xlink:href="#C"
         class="g k"
         id="use125" />
    </g>
    <g
       transform="matrix(-.877164 .225316 .236231 .836634 43.90087 -66.045359)"
       id="g133">
      <use
         xlink:href="#B"
         class="g l"
         id="use129" />
      <use
         xlink:href="#C"
         class="g k"
         id="use131" />
    </g>
    <g
       transform="matrix(-.877164 .225316 .236231 .836634 43.541948 -71.241195)"
       id="g139">
      <use
         xlink:href="#B"
         class="g l"
         id="use135" />
      <use
         xlink:href="#C"
         class="g k"
         id="use137" />
    </g>
    <g
       transform="matrix(.877164 .225316 -.236231 .836634 -9.164455 -73.765831)"
       id="g145">
      <use
         xlink:href="#B"
         class="g l"
         id="use141" />
      <use
         xlink:href="#C"
         class="g k"
         id="use143" />
    </g>
    <g
       transform="matrix(-.877164 .225316 .236231 .836634 43.68363 -76.037996)"
       id="g151">
      <use
         xlink:href="#B"
         class="g l"
         id="use147" />
      <use
         xlink:href="#C"
         class="g k"
         id="use149" />
    </g>
    <g
       class="k p"
       id="g157">
      <path
         d="M17.73 23.752l-.842.201.617 2.578-.807 2.467.758 2.697-.803 2.695.793 2.801-.645 1.379-.08 15.986.762 2.85-.73 2.945.709 3.098-.682 2.941.623 3.01-.672 2.072.307 15.965c-3.476 4.482-3.41 10.436-.162 15.459 2.35 3.635 5.31 7.509 8.314 10.607.977 1.007 1.781 1.966 2.747 2.777 2.007 1.684 3.571 2.997 5.34 3.418 1.085.258 1.774-1.032.555-1.451-1.461-.502-3.137-1.226-5.335-2.69-.995-.663-1.753-1.695-2.686-2.656-2.951-3.044-5.887-6.883-8.209-10.475-3.121-4.827-3.16-10.418.207-14.621l.098-.121-.309-16.084.697-2.152-.631-3.049.686-2.949-.709-3.092.734-2.961-.789-2.953.078-15.682.701-1.498-.812-2.869.803-2.693-.754-2.687.801-2.447z"
         class="q"
         id="path153" />
      <use
         xlink:href="#D"
         x="-42.579"
         y="-6.277"
         class="m"
         id="use155" />
    </g>
    <use
       xlink:href="#E"
       x="-42.649"
       y="-6.389"
       class="l"
       id="use159" />
    <use
       xlink:href="#D"
       stroke-width=".102"
       transform="matrix(.77667 .598713 -.5946 .782042 35.48227 -49.471433)"
       class="k p"
       id="use161" />
    <use
       xlink:href="#E"
       transform="matrix(.77667 .598713 -.5946 .782042 35.048048 -49.57203)"
       class="l"
       id="use163" />
    <use
       xlink:href="#D"
       stroke-width=".11"
       transform="matrix(.711973 .555298 -.545069 .725334 34.024721 -73.56732)"
       class="k p"
       id="use165" />
    <use
       xlink:href="#E"
       transform="matrix(.711973 .555298 -.545069 .725334 33.534856 -73.624256)"
       class="l"
       id="use167" />
    <use
       xlink:href="#D"
       transform="matrix(.482698 .36717 -.369542 .479599 28.561254 -60.817704)"
       class="k p q"
       id="use169" />
    <g
       class="l"
       id="g175">
      <use
         xlink:href="#E"
         transform="matrix(.482698 .36717 -.369542 .479599 28.405231 -60.87725)"
         id="use171" />
      <use
         xlink:href="#B"
         x="-42.579"
         y="-6.277"
         class="g"
         id="use173" />
    </g>
    <use
       xlink:href="#C"
       x="-42.579"
       y="-6.277"
       class="g k"
       id="use177" />
  </g>
  <g
     id="g1279">
    <g
       class="h"
       id="g183">
      <path
         d="M84.019 19.39c-.042-.068-.07-.085-.112-.166-.58-.826-.773-2.472-1.065-2.445-.281.027.056 2.151.387 2.798.171.328.343.587.535.774.015.014.04.019.055.033l-.021.043a13.74 13.74 0 0 0-.981 2.854l-.814-1.348-.654.394 1.344 2.227.09-.055c.083.511.157 1.033.342 1.473.269.639.521 1.233.521 1.912s-.24 1.272-.502 1.899c-.107.254-.121.574-.214.847l-1.201-1.828-.639.42 1.584 2.41c-.005.088-.063.147-.061.238v.002c.021.792.334 1.449.606 2.041s.498 1.114.486 1.654c-.012.553-.243 1.156-.506 1.809-.151.373-.23.808-.349 1.219l-.846-1.396-.654.398 1.295 2.135.006-.004c.018.716.253 1.375.528 1.953.306.644.581 1.227.576 1.771-.005.552-.282 1.198-.58 1.875-.143.324-.165.686-.277 1.027l-1.024-2.234-.695.318 1.449 3.17.013-.006c.076.655.338 1.194.588 1.678.27.522.499 1.01.504 1.693.005.668-.266 1.314-.566 1.996-.129.293-.155.644-.266.955l-.986-1.873-.676.358 1.365 2.594c-.003.068-.054.118-.053.188.019.806.35 1.433.644 1.994s.551 1.057.572 1.672c.021.602-.233 1.222-.525 1.887-.122.279-.15.614-.258.912l-1.235-1.961-.649.408 1.606 2.545c-.009.098-.079.172-.078.273.009.786.305 1.452.574 2.061s.511 1.163.529 1.728c.017.544-.23 1.105-.523 1.719-.169.353-.243.781-.371 1.178l-1.008-1.549-.641.418 1.434 2.205c.048.673.279 1.292.521 1.849.269.62.487 1.183.439 1.731-.047.541-.399 1.194-.785 1.897-.198.361-.271.795-.43 1.192l-1.18-1.7-.629.436 1.488 2.147c-.012.088-.084.154-.088.244-.035.826.305 1.516.615 2.131s.591 1.162.607 1.717c.017.582-.158.887-.379 1.326-.043.086-.043.266-.086.362l-1.232-1.719-.621.447 1.619 2.254.002-.002c-.028.195-.131.278-.121.514.039.931.605 1.681 1.103 2.381s.927 1.347.944 1.98c.023.887-.163 1.237-.406 1.686-.14.258-.229.751-.353 1.139l-1.092-1.604-.633.431 1.521 2.234a4.47 4.47 0 0 0 .533 2.045c.306.577.568 1.04.549 1.799s-.256 1.017-.666 1.461c-.346.375-.801.998-1.194 1.816l-1.164-1.719-.633.429 1.533 2.262.043-.029a8.05 8.05 0 0 0-.01 1.983c.103.819.09 1.485-.448 2.265-.696 1.011-1.361 1.174-2.352 1.384-.786.167-1.797.381-2.583.917l-.162-2.469-.764.051.152 2.989c-.52.666-.82 1.678-1.05 2.605-.249 1.008-.546 2.04-1.147 2.778-.901 1.107-2.276 2.115-3.73 2.904s-3.093 1.02-4.048 1.145c-.836.572-.495 1.689.415 1.578 1.124-.146 2.716-.944 4.232-1.767s2.878-2.088 3.878-3.316c.237-.27.71-1.007.677-1.042l2.432-1.251-.357-.678-1.818 1.01.349-1.105c.252-1.017.519-1.802.926-2.236.728-.775 1.521-.91 2.542-1.127s2.176-.53 3.014-1.746c.205-.297.308-.711.401-1.008l.023.027 1.84-1.568-.498-.582-1.152.984-.016-.836c-.109-.869-.262-1.608-.029-2.226.378-1 .829-1.436 1.258-1.901s.843-1.012.867-1.961c.003-.112-.067-.152-.074-.256l1.41-2.318-.654-.396-1.047 1.721c-.115-.29-.143-.684-.271-.926-.301-.568-.551-1.051-.504-1.869.049-.843.27-1.187.523-1.654a3.75 3.75 0 0 0 .5-2.072c-.005-.204-.108-.372-.158-.561l1.355-2.102-.644-.414-1.034 1.606a11.84 11.84 0 0 0-.605-.932c-.499-.702-.935-1.349-.961-1.971-.029-.7.144-1.053.358-1.478s.481-.933.459-1.691c-.006-.222-.142-.374-.193-.576l1.065-1.932-.67-.369-.727 1.318c-.073-.149-.091-.339-.164-.482-.306-.605-.559-1.157-.533-1.752.026-.617.365-1.29.746-1.984s.808-1.406.877-2.197c.016-.178-.096-.308-.113-.476l.027.018 1.301-2.146-.656-.395-.914 1.512c-.074-.195-.067-.43-.147-.613-.273-.629-.522-1.204-.515-1.744s.272-1.104.568-1.723.625-1.294.6-2.074c-.01-.317-.164-.557-.248-.84l1.346-2.225-.654-.394-.984 1.629c-.025-.055-.031-.127-.055-.182-.268-.605-.503-1.167-.51-1.762-.007-.578.257-1.19.551-1.859s.619-1.395.59-2.221c-.007-.192-.12-.3-.157-.473l1.141-1.869.021.01.067-.168-.682-.34-.861 1.412c-.083-.175-.105-.413-.19-.574-.294-.561-.545-1.052-.559-1.656-.014-.592.249-1.21.551-1.894s.64-1.438.633-2.31c-.001-.135-.078-.196-.092-.32l1.586-2.114-.613-.459-1.24 1.653c-.097-.25-.121-.588-.23-.799-.279-.539-.52-.976-.551-1.502-.029-.497.219-1.118.516-1.791s.637-1.393.644-2.176c.002-.173-.113-.298-.142-.461l.031.014 1.225-2.631-.693-.322-.883 1.897c-.085-.191-.099-.422-.186-.604-.302-.636-.555-1.221-.516-1.793.042-.613.292-1.242.557-1.897s.545-1.337.561-2.08c.001-.063-.044-.104-.047-.166l1.084-2.086-.68-.353-.705 1.362c-.092-.239-.107-.522-.209-.744-.272-.593-.521-1.146-.537-1.745s.211-1.145.475-1.773c.194-.463.314-1.038.412-1.615l.065.041 1.131-1.828-.65-.403-.576.932c-.11-.538-.216-1.09-.4-1.529-.267-.634-.485-1.187-.439-1.785.064-.834.701-2.323 1.093-3.127l.102-.199c1.387-1.076 1.387-3.642 1.243-3.666-.436-.072-.582 2.074-1.162 2.533-.229-.934.337-5.394.033-5.394s-.633 4.453-.683 5.353z"
         stroke="#fed700"
         class="q"
         id="path179" />
      <use
         xlink:href="#F"
         x="-42.579"
         y="-6.277"
         class="i m"
         id="use181" />
    </g>
    <use
       xlink:href="#G"
       x="-42.579"
       y="-6.277"
       class="j"
       id="use185" />
    <g
       transform="matrix(-.545833 -.837894 -.837894 .545833 241.72986 151.63205)"
       id="g191">
      <use
         xlink:href="#F"
         x="2.822"
         y="2.968"
         class="h i m"
         id="use187" />
      <use
         xlink:href="#G"
         x="2.822"
         y="2.968"
         class="j"
         id="use189" />
    </g>
    <g
       transform="matrix(-.603032 -.643583 -.622863 .623092 230.27612 110.09518)"
       id="g197">
      <use
         xlink:href="#F"
         x="2.822"
         y="2.968"
         class="h i m"
         id="use193" />
      <use
         xlink:href="#G"
         x="2.822"
         y="2.968"
         class="j"
         id="use195" />
    </g>
    <g
       transform="matrix(.699803 -.561823 .495642 .793245 -57.854721 76.623101)"
       id="g203">
      <use
         xlink:href="#F"
         class="h i m"
         id="use199" />
      <use
         xlink:href="#G"
         class="j"
         id="use201" />
    </g>
    <g
       transform="matrix(.705463 -.543411 .499651 .767249 -57.857332 69.347347)"
       id="g209">
      <use
         xlink:href="#F"
         class="h i m"
         id="use205" />
      <use
         xlink:href="#G"
         class="j"
         id="use207" />
    </g>
    <g
       transform="matrix(-.755912 -.473828 -.450521 .766793 230.74566 63.483589)"
       id="g215">
      <use
         xlink:href="#F"
         x="2.822"
         y="2.968"
         class="h i m"
         id="use211" />
      <use
         xlink:href="#G"
         x="2.822"
         y="2.968"
         class="j"
         id="use213" />
    </g>
    <path
       d="M78.589 76.403l-.111.092c-.786.654-1.196 1.483-1.147 2.281.047.778.554 1.506 1.503 1.992-.051.945.251 1.717.791 2.146.555.44 1.343.511 2.155.087.508-.265.896-.966.874-1.71-.022-.718-.49-1.457-1.586-1.85.005-.025.01-.04.015-.078.011-.081.021-.187.025-.31.007-.248-.013-.565-.112-.887-.197-.645-.738-1.301-1.943-1.355a.48.48 0 0 1-.217-.083.54.54 0 0 1-.18-.194z"
       stroke-width=".087"
       class="h i"
       id="path217" />
    <path
       d="M78.939 80.709c-1.939-.944-1.918-2.852-.389-4.125-1.347 3.321.658 2.747 1.127 3.603.403.736-.67 1.852 2.048 2.713-1.561.815-2.925-.289-2.786-2.191z"
       class="j"
       id="path219" />
    <path
       d="M89.231 80.247l.11.102c.776.723 1.162 1.606 1.083 2.433-.077.807-.618 1.536-1.602 1.99.017.986-.318 1.771-.884 2.188-.58.428-1.385.459-2.195-.025-.508-.303-.876-1.053-.826-1.825.048-.745.552-1.488 1.682-1.837-.004-.027-.009-.042-.013-.082-.008-.084-.015-.195-.014-.324a2.95 2.95 0 0 1 .147-.916c.224-.659.799-1.312 2.026-1.304a.47.47 0 0 0 .224-.075c.08-.05.152-.121.19-.192z"
       stroke-width=".089"
       class="h i"
       id="path221" />
    <path
       d="M88.717 84.705c2.007-.876 2.056-2.862.547-4.268 1.249 3.525-.771 2.82-1.278 3.685-.437.743.613 1.962-2.182 2.71 1.558.931 2.986-.142 2.914-2.127z"
       class="j"
       id="path223" />
    <path
       d="M87.372 73.532l.102.088c.719.628 1.094 1.423 1.049 2.189-.043.747-.506 1.446-1.374 1.912.046.907-.229 1.647-.724 2.059-.507.423-1.228.49-1.97.084-.465-.255-.82-.927-.799-1.642.02-.689.448-1.398 1.451-1.775l-.014-.075c-.01-.077-.019-.179-.022-.298a2.83 2.83 0 0 1 .102-.852c.18-.619.675-1.248 1.777-1.3.05-.002.128-.03.198-.08a.51.51 0 0 0 .164-.187z"
       class="h i o"
       id="path225" />
    <use
       xlink:href="#H"
       x="-42.579"
       y="-6.277"
       class="j"
       id="use227" />
    <use
       xlink:href="#I"
       x="-42.579"
       y="-6.277"
       class="h i o"
       id="use229" />
    <use
       xlink:href="#J"
       x="-42.579"
       y="-6.277"
       class="j"
       id="use231" />
    <use
       xlink:href="#K"
       x="-42.579"
       y="-6.277"
       class="h i o"
       id="use233" />
    <use
       xlink:href="#H"
       x="-41.894"
       y="-14.446"
       class="j"
       id="use235" />
    <path
       d="M79.221 54.642l-.101.082c-.711.585-1.081 1.325-1.037 2.038.043.695.5 1.346 1.358 1.78-.046.845.227 1.534.715 1.917.502.393 1.214.456 1.948.078.46-.237.81-.863.79-1.528-.019-.641-.443-1.302-1.434-1.653.004-.023.009-.035.014-.069.01-.072.019-.167.022-.277a2.48 2.48 0 0 0-.101-.793c-.178-.576-.667-1.162-1.757-1.21-.049-.002-.126-.028-.196-.074s-.131-.111-.162-.174z"
       class="h i s"
       id="path237" />
    <path
       d="M79.538 58.489c-1.753-.843-1.734-2.548-.351-3.686-1.218 2.967.595 2.454 1.019 3.219.364.658-.605 1.655 1.851 2.424-1.411.728-2.645-.258-2.519-1.957z"
       class="j"
       id="path239" />
    <use
       xlink:href="#K"
       x="-42.545"
       y="-14.262"
       class="h i o"
       id="use241" />
    <use
       xlink:href="#H"
       x="-41.861"
       y="-22.43"
       class="j"
       id="use243" />
    <path
       d="M79.227 47.14l-.101.081c-.714.576-1.087 1.305-1.042 2.007.043.685.503 1.325 1.365 1.753-.046.832.228 1.51.719 1.888.504.387 1.221.45 1.958.077.462-.234.815-.85.794-1.505-.02-.631-.445-1.282-1.441-1.627l.014-.068a2.47 2.47 0 0 0 .022-.273 2.39 2.39 0 0 0-.102-.781c-.179-.567-.671-1.144-1.766-1.192a.44.44 0 0 1-.197-.073.48.48 0 0 1-.163-.171z"
       stroke-width=".077"
       class="h i"
       id="path245" />
    <path
       d="M79.545 50.928c-1.762-.83-1.743-2.509-.353-3.629-1.224 2.922.598 2.417 1.024 3.17.366.648-.608 1.63 1.861 2.387-1.418.717-2.658-.254-2.531-1.928z"
       class="j"
       id="path247" />
    <path
       d="M87.881 50.541l.1.083c.707.587 1.075 1.331 1.031 2.048-.043.699-.498 1.352-1.351 1.788.046.849-.225 1.541-.711 1.926-.499.395-1.208.459-1.937.078-.457-.238-.806-.867-.786-1.536.019-.644.441-1.308 1.426-1.661l-.014-.07c-.01-.072-.019-.168-.022-.279-.006-.222.012-.507.101-.797.177-.579.664-1.168 1.747-1.216.049-.002.126-.028.195-.075s.13-.111.161-.175z"
       class="h i s"
       id="path249" />
    <path
       d="M87.566 54.407c1.743-.847 1.724-2.56.349-3.703 1.211 2.981-.592 2.466-1.013 3.234-.362.661.602 1.663-1.841 2.436 1.403.732 2.63-.259 2.504-1.967z"
       class="j"
       id="path251" />
    <path
       d="M79.175 39.458l-.102.084c-.717.596-1.091 1.351-1.047 2.078.043.709.505 1.373 1.371 1.815-.046.861.229 1.564.722 1.955.506.401 1.225.466 1.965.08.464-.242.818-.88.797-1.559-.02-.654-.447-1.327-1.447-1.685l.014-.071a2.64 2.64 0 0 0 .022-.283 2.55 2.55 0 0 0-.102-.808c-.18-.587-.673-1.185-1.773-1.234a.43.43 0 0 1-.198-.076.49.49 0 0 1-.164-.177z"
       class="h i t"
       id="path253" />
    <path
       d="M79.494 43.381c-1.769-.86-1.749-2.599-.354-3.759-1.229 3.026.601 2.503 1.028 3.283.367.671-.611 1.688 1.868 2.472-1.424.742-2.668-.263-2.541-1.996z"
       class="j"
       id="path255" />
    <path
       d="M87.984 42.988l.102.085c.717.604 1.091 1.368 1.047 2.104-.043.718-.505 1.389-1.371 1.837.046.872-.229 1.583-.722 1.979-.506.406-1.226.471-1.966.081-.464-.245-.818-.891-.798-1.578.02-.662.447-1.344 1.448-1.706-.004-.023-.009-.036-.014-.072-.01-.074-.019-.172-.022-.286-.006-.228.012-.521.102-.818.18-.594.674-1.2 1.773-1.249a.43.43 0 0 0 .198-.077c.07-.048.132-.114.164-.179z"
       class="h i t"
       id="path257" />
    <path
       d="M87.664 46.96c1.77-.87 1.75-2.63.355-3.805 1.23 3.063-.601 2.534-1.028 3.323-.368.679.611 1.708-1.869 2.502 1.424.752 2.67-.266 2.543-2.021z"
       class="j"
       id="path259" />
    <use
       xlink:href="#L"
       x="-42.579"
       y="-6.277"
       class="h i r"
       id="use261" />
    <use
       xlink:href="#M"
       x="-42.579"
       y="-6.277"
       class="j"
       id="use263" />
    <path
       d="M87.833 35.131l.099.081c.695.575 1.057 1.302 1.014 2.003-.042.684-.489 1.323-1.328 1.749.045.83-.222 1.507-.699 1.884-.49.387-1.188.449-1.905.077-.45-.233-.793-.848-.773-1.502.019-.63.433-1.279 1.402-1.624-.004-.022-.009-.035-.013-.068a2.47 2.47 0 0 1-.022-.273 2.45 2.45 0 0 1 .099-.779c.174-.566.653-1.142 1.718-1.19.048-.002.124-.028.192-.073s.128-.109.159-.171z"
       stroke-width=".076"
       class="h i"
       id="path265" />
    <path
       d="M87.523 38.912c1.714-.829 1.696-2.504.343-3.622 1.191 2.916-.582 2.412-.996 3.164-.356.646.592 1.627-1.81 2.382 1.38.716 2.586-.254 2.463-1.924z"
       class="j"
       id="path267" />
    <path
       d="M87.6 28.279l.09.075c.637.531.969 1.203.929 1.851-.038.632-.448 1.222-1.217 1.616.041.767-.203 1.393-.641 1.741-.449.357-1.088.414-1.745.071-.412-.215-.726-.784-.708-1.388.017-.582.397-1.182 1.285-1.501-.004-.021-.008-.032-.012-.063a2.39 2.39 0 0 1-.02-.252c-.006-.201.011-.458.091-.72.16-.523.598-1.055 1.574-1.099a.39.39 0 0 0 .176-.068c.063-.042.117-.101.145-.158z"
       class="h i r"
       id="path269" />
    <path
       d="M87.316 31.773c1.571-.765 1.554-2.314.315-3.347 1.091 2.694-.533 2.229-.913 2.923-.326.597.542 1.503-1.659 2.201 1.264.661 2.37-.234 2.257-1.777z"
       class="j"
       id="path271" />
    <use
       xlink:href="#L"
       x="-42.572"
       y="-14.077"
       class="h i r"
       id="use273" />
    <use
       xlink:href="#M"
       x="-42.572"
       y="-14.076"
       class="j"
       id="use275" />
    <g
       transform="matrix(-.55128 -.301958 -.302149 .550467 185.05674 .204276)"
       id="g281">
      <use
         xlink:href="#F"
         class="h i m"
         id="use277" />
      <use
         xlink:href="#G"
         class="j"
         id="use279" />
    </g>
    <g
       transform="matrix(.55128 -.301958 .302149 .550467 -18.143178 -4.14818)"
       id="g287">
      <use
         xlink:href="#F"
         class="h i m"
         id="use283" />
      <use
         xlink:href="#G"
         class="j"
         id="use285" />
    </g>
    <use
       xlink:href="#I"
       x="-43.44"
       y="1.187"
       class="h i o"
       id="use289" />
    <use
       xlink:href="#J"
       x="-43.44"
       y="1.186"
       class="j"
       id="use291" />
  </g>
  <g
     id="g1297">
    <g
       stroke="#fff"
       stroke-width=".402"
       id="g299">
      <path
         d="M33.262 132.052l6.415-3.193-2.389-4.619-6.223 3.096zm33.476 0l-6.415-3.193 2.389-4.619 6.223 3.096z"
         class="k"
         id="path293" />
      <path
         d="M32.459 122.178l2.351 5.728 4.867.953-2.389-4.619zm35.082 0l-2.351 5.728-4.867.953 2.389-4.619z"
         stroke-linejoin="round"
         class="l"
         id="path295" />
      <path
         d="M50 117.868c-4.256.174-9.414.222-17.542 4.31l2.268 5.528c7.113-3.516 11.097-3.442 15.273-3.59 4.177.148 8.16.074 15.273 3.59l2.268-5.528c-8.128-4.088-13.285-4.136-17.541-4.31z"
         class="k"
         id="path297" />
    </g>
    <path
       d="M34.962 121.82l3.874-1.432.377 1.019-1.299.48 1.148 3.106-1.274.471-1.148-3.106-1.299.48zm9.124-2.577l1.338-.219.424 2.587q.063.385-.002.748-.062.36-.277.659-.213.296-.477.446-.367.209-.914.299-.317.052-.7.069-.38.017-.653-.072-.273-.092-.523-.3-.248-.208-.366-.453-.192-.394-.245-.713l-.424-2.587 1.338-.219.435 2.649q.058.355.287.524.231.166.58.109.346-.057.51-.284.166-.231.106-.592zm4.031-.361l2.543.006q.636.002.974.318.341.316.34.781-.001.39-.244.668-.162.185-.475.293.473.115.694.395.224.277.223.696-.001.342-.16.614-.16.272-.436.431-.171.098-.516.142-.459.059-.609.059l-2.345-.006zm1.366 1.727l.591.001q.318 0 .441-.107.126-.111.126-.318 0-.192-.125-.3-.123-.108-.431-.109l-.6-.001zm-.004 1.727l.693.002q.351.001.495-.122.144-.126.145-.336 0-.195-.143-.312-.141-.12-.498-.121l-.69-.002zm7.135.72l-1.532-.22-.314.688-1.375-.197 2.26-4.117 1.467.211 1.012 4.587-1.407-.202zm-.147-.982l-.256-1.634-.702 1.496zm4.618-1.792l1.193.431.73 2.85.827-2.287 1.204.435-1.495 4.134-1.204-.435-.727-2.831-.821 2.27-1.202-.434z"
       fill="#fff"
       id="path301" />
  </g>
</svg>
