<?xml version="1.0" encoding="UTF-8" standalone="no"?>
<svg
   xmlns:dc="http://purl.org/dc/elements/1.1/"
   xmlns:cc="http://creativecommons.org/ns#"
   xmlns:rdf="http://www.w3.org/1999/02/22-rdf-syntax-ns#"
   xmlns:svg="http://www.w3.org/2000/svg"
   xmlns="http://www.w3.org/2000/svg"
   xmlns:xlink="http://www.w3.org/1999/xlink"
   xmlns:sodipodi="http://sodipodi.sourceforge.net/DTD/sodipodi-0.dtd"
   xmlns:inkscape="http://www.inkscape.org/namespaces/inkscape"
   width="961.969"
   height="1133.858"
   viewBox="0 0 254.521 300"
   version="1.1"
   id="svg274"
   sodipodi:docname="Seal of Sleman Regency (1).svg"
   inkscape:version="1.0.1 (3bc2e813f5, 2020-09-07)">
  <metadata
     id="metadata278">
    <rdf:RDF>
      <cc:Work
         rdf:about="">
        <dc:format>image/svg+xml</dc:format>
        <dc:type
           rdf:resource="http://purl.org/dc/dcmitype/StillImage" />
      </cc:Work>
    </rdf:RDF>
  </metadata>
  <sodipodi:namedview
     pagecolor="#ffffff"
     bordercolor="#666666"
     borderopacity="1"
     objecttolerance="10"
     gridtolerance="10"
     guidetolerance="10"
     inkscape:pageopacity="0"
     inkscape:pageshadow="2"
     inkscape:window-width="1366"
     inkscape:window-height="705"
     id="namedview276"
     showgrid="false"
     inkscape:snap-bbox="true"
     inkscape:object-paths="true"
     inkscape:snap-intersection-paths="true"
     inkscape:snap-smooth-nodes="true"
     inkscape:snap-midpoints="true"
     inkscape:zoom="0.28312758"
     inkscape:cx="435.02095"
     inkscape:cy="291.77089"
     inkscape:window-x="-8"
     inkscape:window-y="-8"
     inkscape:window-maximized="1"
     inkscape:current-layer="svg274" />
  <style
     id="style2"><![CDATA[.B{opacity:.998}.C{fill:#fff}.D{fill:#007d44}.E{fill:#f7d12c}.F{stroke:#705a30}.G{stroke-width:.5}.H{stroke:#004d2a}.I{fill:#89765b}.J{opacity:.999}.K{fill:#004d2a}.L{stroke:#89765b}.M{stroke-width:.7}.N{fill:#c3a144}.O{fill:#e62129}.P{stroke:#000}.Q{fill:#a88848}.R{stroke:#696969}.S{stroke-width:.165}.T{opacity:.995}.U{stroke-width:.265}.V{fill:#563c09}.W{stroke-width:.976}.X{stroke-width:.176}]]></style>
  <defs
     id="defs16">
    <linearGradient
       id="A"
       x1="143.983"
       y1="163.824"
       x2="143.983"
       y2="133.893"
       gradientUnits="userSpaceOnUse"
       gradientTransform="translate(-16.723,-69.32)">
      <stop
         offset="0"
         stop-color="#fff"
         id="stop4" />
      <stop
         offset="1"
         stop-color="#fff"
         stop-opacity="0"
         id="stop6" />
    </linearGradient>
    <path
       id="B"
       d="M141.361 205.013l-.945 2.646-2.646-21.97z" />
    <path
       id="C"
       d="M139.707 209.077l-1.417 1.512-5.008-17.954z" />
    <path
       id="D"
       d="M115.145 224.537l12.695 7.751 3.608-8.152-6.916-9.254 5.078 9.388-10.691-10.323 9.521 11.927-17.239-13.096 16.37 15.168-13.898-7.818 13.23 9.555z" />
    <path
       id="E"
       d="M111.099 244.772l10.323 1.512 2.41-5.268-8.032-7.229 5.811 7.323-11.623-6.426 10.631 7.182-10.583-3.213 9.591 4.205-9.461-.661 9.225 2.41z" />
    <path
       id="F"
       d="M91.817 309.429c2.986 0 4.98 1.703 6.735 1.703s4.372-1.703 7.554-1.703 4.98 1.703 6.735 1.703 4.177-1.703 7.359-1.703 5.175 1.703 6.931 1.703 4.177-1.703 7.359-1.703 5.175 1.703 6.931 1.703 4.177-1.703 7.359-1.703 4.372 1.703 6.128 1.703 4.035-1.751 7.217-1.751 4.784 1.751 6.539 1.751 3.542-1.937 6.724-1.937 4.34 2.071 6.096 2.071 2.589-2.12 5.771-2.12 3.947 1.987 5.702 1.987 4.12-1.77 7.497-1.77" />
    <path
       id="G"
       d="M122.425 292.686v-2.735h-3.007v-4.944h1.604v-1.938h-3.541l.134-1.537-1.737-.668-.334-2.071-2.272-2.806v-2.272l-.935-2.405h0l-.935 2.405v2.272l-2.272 2.806-.334 2.071-1.737.668.134 1.537h-3.541v1.938h1.604v4.944h-3.007v2.735z" />
    <path
       id="H"
       d="M112.335 269.701l-1.518 3.904v2.174l-2.238 2.768-.307 1.893-1.834.707.117 1.34h-3.488v3.104h1.604v3.779h-3.008v3.316h1.166v-2.152h3.006v-6.109h-1.604v-.773h3.596l-.152-1.732 1.641-.631.363-2.248 2.305-2.848v-2.367l.354-.908.352.908v2.367l2.305 2.848.363 2.248 1.641.631-.152 1.732h3.596v.773h-1.604v6.109h3.006v2.152h1.164v-3.316h-3.006v-3.779h1.604v-3.104h-3.488l.117-1.34-1.834-.707-.307-1.893-2.238-2.768v-2.174z" />
  </defs>
  <g
     id="g1648">
    <path
       d="M 0,300 H 254.521 V 0 H 0 Z"
       fill="#dab834"
       class="T"
       id="path18" />
    <path
       d="M 4.763,295.237 H 249.757 V 4.764 H 4.763 Z"
       class="C T"
       id="path20" />
    <path
       d="M 8.998,291.002 H 245.523 V 8.998 H 8.998 Z"
       fill="#047bc3"
       class="T"
       id="path22" />
  </g>
  <path
     d="m 115.02,31.84 c -0.211,0.02 -0.408,0.104 -0.548,0.258 -0.145,0.16 -0.173,0.337 -0.173,1.117 l 0.08,1.614 0.079,0.687 -0.901,0.21 c -1.182,0.275 -1.361,0.349 -1.481,0.613 -0.14,0.307 0.003,0.636 0.372,0.861 0.458,0.279 0.949,0.239 1.488,-0.121 0.25,-0.168 0.55,-0.329 0.667,-0.358 0.189,-0.048 0.206,-0.028 0.162,0.19 -0.027,0.134 -0.096,0.861 -0.153,1.614 -0.219,2.89 0.141,4.915 1.046,5.875 0.59,0.626 1.454,0.877 2.254,0.655 1.551,-0.431 3.01,-3.802 3.01,-6.957 v -0.905 l 0.659,-0.316 c 1.563,-0.749 1.851,-0.26 1.959,3.319 l 0.058,1.946 0.266,0.419 c 0.0429,0.067 0.09,0.13108 0.141,0.192 0.062,0.136 0.129,0.268 0.206,0.389 0.462,0.727 1.189,1.142 1.965,1.305 1.377,0.29 2.947,-0.088 4.29,-0.601 0.049,0.057 1.428,-0.255 1.66,-0.376 0.648,-0.338 1.057,-1.07 1.234,-2.202 0.087,-0.557 0.084,-0.992 -0.011,-2.088 l -0.194,-3.439 c 0.037,-0.37 0.09,-0.509 0.203,-0.53 0.249,-0.047 0.292,0.742 0.228,4.23 l 0.031,3.522 c 0.116,0.42 0.681,1.078 1.063,1.237 0.452,0.189 1.728,0.161 2.178,-0.048 0.50471,-0.24756 0.89903,-0.67433 1.106,-1.197 0.199,-0.527 0.269,-3.189 0.145,-5.501 l -0.026,-1.918 c 0.143,-0.697 0.216,0.208 0.283,3.493 l 0.176,3.893 c 0.156,0.684 0.414,0.888 1.176,0.931 0.87,0.049 1.289,-0.091 1.875,-0.626 0.503,-0.46 1.024,-1.341 1.525,-2.578 0.117,-0.29 0.257,-0.513 0.31,-0.496 0.172,0.056 0.773,0.991 0.962,1.496 0.356,0.952 0.164,1.399 -0.684,1.589 -0.518,0.116 -0.711,0.259 -0.816,0.607 -0.046,0.151 0,0.266 0.177,0.443 0.214,0.214 0.286,0.233 0.668,0.179 0.236,-0.033 0.652,-0.171 0.927,-0.306 0.275,-0.135 0.623,-0.404 0.776,-0.597 0.264,-0.333 0.278,-0.393 0.278,-1.187 0,-0.772 -0.025,-0.89 -0.329,-1.524 -0.181,-0.378 -0.598,-1.019 -0.928,-1.424 l -0.599,-0.736 0.126,-0.54 c 0.533,-2.28 -0.056,-3.873 -1.432,-3.873 -0.83,0 -2.057,0.59 -2.332,1.121 -0.396,0.766 -0.016,1.641 1.264,2.906 l 0.904,0.894 -0.405,1.009 c -0.682,1.698 -1.299,2.472 -1.971,2.472 -0.227,0 -0.371,-0.048 -0.404,-0.135 -0.029,-0.074 -0.098,-1.502 -0.154,-3.173 l -0.224,-3.793 c -0.209,-1.293 -0.608,-1.848 -1.326,-1.848 -0.386,0 -0.605,0.133 -0.796,0.482 -0.143,0.262 -0.157,0.505 -0.119,2.257 l -0.112,5.77 c -0.213,0.694 -0.476,0.897 -1.161,0.897 -0.913,0 -0.862,0.232 -0.915,-4.187 l -0.238,-4.214 c -0.287,-0.614 -0.515,-0.777 -1.079,-0.772 -1.411,0.013 -1.803,1.123 -1.476,4.185 0.262,2.453 0.158,3.682 -0.349,4.159 -0.156,0.146 -0.42,0.241 -0.869,0.312 l -0.238,0.046 v -10e-4 c -0.239,0.054 -0.407,0.116 -0.407,0.158 -1.258,0.48 -2.726,0.801 -3.752,0.585 -0.569,-0.12 -0.988,-0.366 -1.285,-0.834 -0.198,-0.312 -0.342,-0.749 -0.389,-1.34 0.031,-0.283 0.038,-0.631 0.038,-1.217 0,-2.694 -0.407,-4.062 -1.34,-4.505 -0.45,-0.213 -1.369,-0.148 -2.088,0.148 l -0.551,0.227 -0.289,-0.605 c -0.347,-0.728 -0.781,-1.073 -1.45,-1.152 -1.202,-0.142 -1.716,0.74 -1.115,1.917 0.281,0.551 0.952,1.214 1.416,1.4 l 0.415,0.166 -0.054,0.776 c -0.104,1.517 -0.49,3.128 -1.018,4.247 -0.532,1.129 -0.942,1.422 -1.651,1.18 -0.474,-0.162 -0.73,-0.496 -0.977,-1.271 -0.181,-0.57 -0.203,-0.831 -0.203,-2.42 l 0.075,-2.564 0.076,-0.783 0.379,-0.085 c 0.509,-0.113 0.726,-0.464 0.518,-0.836 -0.083,-0.148 -0.268,-0.287 -0.457,-0.343 l -0.317,-0.094 v -1.461 c 0,-1.256 -0.023,-1.495 -0.164,-1.703 -0.206,-0.303 -0.591,-0.449 -0.942,-0.416 z m 65.532,1.352 c -0.3765,8e-4 -0.75072,0.0584 -1.11,0.171 -1.059,0.327 -1.697,1.099 -1.9,2.298 -0.054,0.32 -0.157,2.061 -0.229,3.869 l -0.323,3.698 c -0.202,0 -0.292,-1.093 -0.362,-4.384 l -0.155,-3.835 -0.08,-0.32 -0.613,-0.027 c -0.337,-0.015 -0.613,0.006 -0.613,0.046 0,0.04 0.046,0.217 0.103,0.392 0.063,0.196 0.13,1.687 0.173,3.88 l 0.204,4.022 c 0.332,1.145 0.717,1.544 1.419,1.473 0.215,-0.022 0.47,-0.11 0.565,-0.196 0.555,-0.503 0.789,-1.801 0.871,-4.842 0.102,-3.777 0.238,-4.434 1.004,-4.833 0.381,-0.198 1.215,-0.257 1.705,-0.121 0.416,0.116 0.786,0.506 0.997,1.053 0.164,0.424 0.209,0.768 0.242,1.846 0.023,0.728 -0.005,1.714 -0.062,2.192 -0.057,0.478 -0.129,1.656 -0.16,2.621 -0.049,1.546 -0.038,1.781 0.097,1.986 0.115,0.175 0.231,0.233 0.466,0.233 0.509,0 0.596,-0.22 0.598,-1.504 l 0.136,-2.742 c 0.254,-3.093 0.142,-4.485 -0.449,-5.57 -0.489,-0.897 -1.443,-1.405 -2.523,-1.407 z m -18.626,0.093 c -0.277,-0.003 -0.557,0.059 -0.826,0.195 -0.467,0.236 -0.763,0.633 -0.957,1.284 -0.113,0.381 -0.126,0.968 -0.077,3.615 l -0.055,3.823 c -0.167,0.98 -0.256,0.9 -0.419,-0.371 -0.031,-0.242 -0.006,-1.646 0.054,-3.122 0.1,-2.439 0.096,-2.739 -0.043,-3.294 -0.195,-0.778 -0.411,-1.192 -0.828,-1.593 -0.308,-0.296 -0.375,-0.319 -0.905,-0.319 -0.486,0 -0.624,0.039 -0.906,0.254 -0.82,0.625 -0.969,1.309 -0.974,4.449 l -0.068,3.379 c -0.099,2.026 -0.194,0.998 -0.203,-2.192 -0.01,-3.328 -0.098,-3.768 -0.903,-4.495 -0.765,-0.692 -1.594,-0.493 -1.437,0.345 0.055,0.296 0.417,0.68 0.64,0.68 0.059,0 0.186,0.154 0.282,0.343 0.158,0.31 0.18,0.631 0.227,3.356 0.05,2.874 0.062,3.039 0.265,3.553 0.392,0.995 1.015,1.434 1.496,1.056 0.645,-0.507 0.787,-1.413 0.878,-5.568 l 0.165,-3.471 c 0.052,-0.126 0.183,-0.309 0.292,-0.407 0.291,-0.262 0.469,-0.102 0.721,0.643 0.213,0.629 0.214,0.643 0.124,2.961 -0.134,3.469 0.03,4.816 0.667,5.452 0.261,0.261 0.363,0.302 0.758,0.302 0.407,0 0.487,-0.034 0.736,-0.318 0.582,-0.663 0.607,-0.867 0.607,-5.04 l 0.192,-4.018 c 0.37,-0.498 0.977,-0.318 1.32,0.392 l 0.206,0.427 -0.082,2.932 0.056,4.952 c 0.153,0.546 0.376,0.721 0.911,0.713 0.895,-0.013 1.168,-0.453 1.694,-2.733 0.408,-1.767 0.678,-2.623 1.099,-3.48 0.328,-0.668 1.018,-1.521 1.517,-1.876 0.254,-0.181 0.241,-0.149 -0.129,0.305 -1.368,1.679 -1.931,3.071 -1.936,4.777 -0.005,2.162 0.977,3.519 2.543,3.513 1.069,-0.004 1.704,-0.501 2.372,-1.858 0.668,-1.357 1.049,-2.94 1.197,-4.967 0.034,-0.465 0.099,-0.844 0.144,-0.844 0.045,0 0.081,1.563 0.081,3.641 l 0.19,3.881 c 0.242,0.307 0.654,0.326 0.856,0.038 0.123,-0.175 0.142,-0.686 0.14,-3.767 -0.003,-4.636 -0.104,-5.678 -0.602,-6.216 -0.152,-0.164 -0.304,-0.225 -0.561,-0.225 -0.826,0 -1.221,1.03 -1.486,3.881 -0.173,1.852 -0.456,2.917 -1.112,4.181 -0.444,0.855 -0.689,1.071 -1.214,1.071 -0.703,0 -1.144,-0.565 -1.325,-1.696 -0.219,-1.372 0.303,-2.979 1.432,-4.406 0.226,-0.285 0.88,-0.972 1.453,-1.525 1.099,-1.06 1.184,-1.219 0.87,-1.607 -0.146,-0.18 -0.246,-0.21 -0.65,-0.192 -2.262,0.098 -4.181,1.556 -5.113,3.884 -0.528,1.319 -1.097,3.644 -1.097,4.483 0,0.231 -0.039,0.42 -0.086,0.42 -0.125,0 -0.15,-0.678 -0.082,-2.283 l 0.068,-3.307 c 0.008,-1.684 -0.011,-1.945 -0.174,-2.382 -0.372,-0.993 -1.175,-1.596 -2.007,-1.606 z m -78.827,0.23 c -0.467,0.012 -0.797,0.251 -1.06,0.765 -0.434,0.85 -0.172,1.83 0.588,2.198 0.46,0.223 0.442,0.086 0.307,2.276 l -0.178,5.304 c 0.219,0.139 0.712,0.092 0.889,-0.085 0.189,-0.189 0.196,-0.254 0.426,-4.398 l 0.183,-2.789 c 0.027,-0.128 0.188,-0.24 0.512,-0.357 0.26,-0.094 0.731,-0.365 1.046,-0.604 l 0.572,-0.433 0.099,0.569 c 0.122,0.699 0.125,2.825 0.007,4.298 l -0.145,2.146 c -0.054,1.003 -0.047,1.065 0.161,1.37 0.218,0.321 0.719,0.639 1.007,0.639 0.085,0 0.255,-0.039 0.379,-0.086 0.268,-0.102 0.572,-0.408 0.76,-0.767 0.234,-0.446 0.393,-1.452 0.49,-3.091 0.14,-2.36 0.38,-3.088 1.323,-4.001 l 0.519,-0.502 -0.363,0.731 c -0.735,1.478 -1.079,3.013 -1.005,4.496 0.053,1.067 0.287,1.694 0.807,2.164 0.978,0.883 2.443,0.555 3.384,-0.759 0.39,-0.545 0.714,-1.451 0.733,-2.053 0.007,-0.208 0.049,-0.009 0.094,0.443 0.182,1.833 0.659,2.603 1.611,2.603 0.465,0 1.347,-0.515 1.692,-0.987 0.433,-0.592 1.251,-2.066 1.565,-2.817 l 0.279,-0.65 c 0.009,-0.014 0.082,0.001 0.163,0.031 0.127,0.049 0.115,0.105 -0.088,0.427 -0.407,0.644 -0.931,1.802 -1.043,2.303 -0.31,1.385 0.415,2.234 1.912,2.238 0.841,0.003 1.198,-0.158 1.666,-0.749 0.954,-1.207 0.949,-3.299 -0.01,-4.389 l -0.368,-0.419 0.677,-0.805 c 0.723,-0.86 1.551,-1.678 2.062,-2.037 l 0.314,-0.221 -0.279,0.407 c -0.988,1.44 -1.583,3.574 -1.461,5.238 0.093,1.273 0.464,2.15 1.025,2.424 0.418,0.205 1.351,0.235 1.81,0.06 0.848,-0.324 1.63,-1.473 1.777,-2.612 0.104,-0.807 0.042,-5.229 -0.08,-5.682 -0.118,-0.436 -0.044,-0.569 0.109,-0.198 0.153,0.371 0.204,3.786 0.097,6.428 l -0.01,2.349 c 0.149,0.393 0.934,0.384 1.085,-0.012 0.137,-0.36 0.224,-6.647 0.105,-7.606 -0.153,-1.238 -0.402,-1.962 -0.791,-2.303 -0.555,-0.487 -1.198,-0.309 -1.369,0.38 -0.078,0.312 -0.188,0.322 -0.263,0.024 -0.068,-0.272 -0.481,-0.504 -0.895,-0.503 -0.166,0 -0.515,0.1 -0.777,0.222 -1.153,0.537 -2.217,1.471 -3.61,3.171 -0.706,0.862 -0.73,0.881 -0.99,0.79 -0.147,-0.051 -0.267,-0.12 -0.266,-0.152 0.001,-0.032 0.082,-0.45 0.181,-0.927 0.209,-1.007 0.22,-1.276 0.08,-1.936 -0.079,-0.373 -0.192,-0.573 -0.49,-0.872 -0.343,-0.344 -0.434,-0.388 -0.807,-0.388 -0.337,0 -0.482,0.055 -0.733,0.275 -0.946,0.831 -1.038,2.632 -0.195,3.801 l 0.38,0.571 c 0.071,0.15 -1.202,2.701 -1.652,3.31 -0.179,0.243 -0.434,0.465 -0.599,0.522 -0.278,0.097 -0.292,0.089 -0.439,-0.24 -0.131,-0.294 -0.152,-0.76 -0.157,-3.49 l -0.163,-3.621 c -0.211,-0.628 -0.668,-1.036 -1.16,-1.036 -0.528,0 -0.797,0.163 -1.014,0.612 -0.167,0.344 -0.194,0.561 -0.191,1.516 l 0.064,2.347 c 0.106,2.144 -0.165,3.286 -0.928,3.914 -0.43,0.354 -0.764,0.43 -1.109,0.251 -0.422,-0.218 -0.523,-0.588 -0.513,-1.882 0.008,-0.96 0.049,-1.271 0.256,-1.959 0.296,-0.979 0.826,-2.03 1.339,-2.65 0.826,-1 0.929,-1.669 0.298,-1.933 -0.19233,-0.0829 -0.40445,-0.10854 -0.611,-0.074 -0.496,0.105 -1.448,0.658 -2.153,1.251 -1.279,1.075 -1.764,2.087 -1.925,4.019 l -0.403,3.501 c -0.174,0.474 -0.175,0.333 -0.007,-1.835 0.23,-2.982 0.157,-5.198 -0.199,-6.089 -0.198,-0.494 -0.598,-0.806 -1.035,-0.806 -0.282,0 -0.44,0.076 -0.785,0.374 -0.388,0.336 -1.071,0.813 -1.164,0.813 -0.02,0 -0.056,-0.209 -0.081,-0.464 -0.073,-0.756 -0.623,-1.321 -1.27,-1.304 z m 0.033,1.26 c 0.044,0.004 0.072,0.124 0.072,0.32 0,0.379 -0.015,0.417 -0.122,0.31 -0.094,-0.094 -0.072,-0.561 0.031,-0.624 0.007,-0.004 0.013,-0.006 0.02,-0.006 z m 16.123,0.188 0.102,0.257 c 0.128,0.32 0.119,0.881 -0.024,1.478 -0.106,0.443 -0.113,0.45 -0.229,0.239 -0.209,-0.379 -0.222,-1.196 -0.024,-1.609 z m 7.571,0.232 -0.037,2.898 c -0.042,3.292 -0.085,3.553 -0.674,4.142 -0.304,0.304 -0.411,0.355 -0.754,0.355 -0.22,0 -0.441,-0.052 -0.49,-0.114 -0.394,-0.496 -0.46,-2.343 -0.128,-3.584 0.257,-0.961 0.827,-2.107 1.324,-2.66 0.22,-0.245 0.481,-0.578 0.579,-0.741 z m -12.335,0.033 c 0.012,-0.009 0.028,0.011 0.048,0.056 0.057,0.126 0.124,0.886 0.149,1.689 0.05,1.609 0,2.212 -0.095,1.142 l -0.109,-1.872 z m 24.536,0.175 c 0.022,0 0.061,0.021 0.119,0.069 0.144,0.119 0.444,0.634 0.37,0.634 -0.022,0 -0.146,-0.126 -0.276,-0.281 -0.196,-0.233 -0.28,-0.422 -0.212,-0.422 z m 23.427,0.079 c 0.362,0 0.477,0.302 0.465,1.114 -0.006,0.409 -0.037,0.865 -0.069,1.014 l -0.058,0.271 -0.388,-0.35 c -0.512,-0.462 -1.027,-1.173 -1.027,-1.416 0,-0.228 0.44,-0.528 0.906,-0.615 0.0563,-0.0113 0.11357,-0.0173 0.171,-0.018 z M 70.823,36.04 c -0.312,-0.016 -0.509,0.189 -0.768,0.762 -0.367,0.808 -0.814,1.396 -1.417,1.861 l -0.504,0.389 -0.524,-0.233 c -0.78,-0.347 -1.282,-0.396 -1.784,-0.174 -0.53,0.234 -0.738,0.552 -0.738,1.124 0,0.503 0.186,0.822 0.673,1.153 0.525,0.357 0.967,0.278 2.299,-0.412 0.033,-0.017 0.655,0.556 1.382,1.275 l 1.963,1.853 c 0.353,0.301 0.62,0.583 0.593,0.627 -0.104,0.168 -0.923,-0.015 -1.697,-0.378 -0.442,-0.207 -1.291,-0.666 -1.888,-1.019 l -1.551,-0.825 c -0.552,-0.218 -1.364,-0.241 -1.733,-0.051 -1.165,0.602 -1.01,2.256 0.262,2.808 0.229,0.099 1.013,0.387 1.741,0.64 2.934,1.017 3.69,1.708 3.139,2.87 -0.345,0.728 -0.816,0.665 -3.029,-0.407 -1.984,-0.961 -2.549,-1.147 -3.489,-1.148 -1.182,-0.001 -1.735,0.334 -1.735,1.05 0,0.653 0.729,1.25 1.761,1.441 2.198,0.406 5.18,2.013 5.18,2.792 v 0.26 l -0.89,-0.051 c -1.018,-0.059 -2.324,-0.33 -2.991,-0.622 l -0.482,-0.221 c -0.014,-0.012 0.023,-0.204 0.083,-0.427 0.138,-0.516 0.057,-0.837 -0.245,-0.975 -0.368,-0.168 -0.696,0.032 -0.85,0.517 -0.097,0.306 -0.158,0.38 -0.274,0.331 -1.185,-0.492 -2.47,-0.77 -2.974,-0.644 -0.665,0.167 -0.803,0.867 -0.302,1.532 0.412,0.547 0.963,0.798 2.029,0.925 l 0.874,0.104 -0.057,0.382 c -0.074,0.494 10e-4,0.712 0.289,0.844 0.372,0.169 0.695,-0.035 0.843,-0.536 l 0.157,-0.525 c 0.106,-0.342 1.576,0.253 2.43,0.983 0.666,0.57 1.007,1.454 0.668,1.735 -0.239,0.198 -1.039,0.043 -2.846,-0.552 -2.086,-0.687 -2.838,-0.781 -3.494,-0.438 -0.271,0.142 -0.466,0.33 -0.586,0.567 -0.456,0.896 -0.083,1.337 1.556,1.838 l 3.773,1.334 c 0.431,0.312 0.548,0.562 0.548,1.167 0,0.336 -0.048,0.48 -0.21,0.633 -0.299,0.281 -0.91,0.341 -1.619,0.16 -1.38,-0.353 -2.464,-1.4 -2.916,-2.813 -0.208,-0.65 -0.905,-0.915 -1.395,-0.53 -0.356,0.28 -0.642,1.045 -0.69,1.851 -0.038,0.63 -0.016,0.76 0.203,1.207 0.375,0.766 1.084,1.334 3.078,2.466 1.773,1.006 2.405,1.465 2.552,1.851 0.51,1.342 -3.948,1.896 -5.269,0.655 l -0.195,-0.183 0.177,-0.565 c 0.26,-0.83 0.316,-1.693 0.132,-2.049 -0.203,-0.392 -0.489,-0.572 -0.909,-0.572 -0.454,0 -0.8,0.208 -1.09,0.655 -0.431,0.665 -0.4,1.609 0.08,2.43 l 0.228,0.391 -0.299,0.522 -0.299,0.522 -0.062,-0.308 c -0.07,-0.342 -0.206,-0.463 -0.521,-0.465 -0.556,-0.004 -0.737,0.399 -0.561,1.246 0.182,0.879 0.717,1.234 1.358,0.903 v 0 c 0.304,-0.157 0.748,-0.646 1.026,-1.13 l 0.201,-0.349 0.601,0.307 c 1.807,0.924 4.964,0.646 6.098,-0.537 0.607,-0.634 0.718,-1.308 0.339,-2.068 -0.317,-0.636 -0.904,-1.126 -2.249,-1.878 -1.527,-0.854 -2.024,-1.195 -2.694,-1.85 -0.541,-0.529 -0.933,-1.163 -0.937,-1.518 -0.004,-0.304 0.279,-0.159 0.446,0.228 0.719,1.665 2.841,3.013 4.532,2.877 0.647,-0.052 1.01,-0.22 1.468,-0.677 0.749,-0.749 0.995,-1.935 0.542,-2.603 -0.503,-0.74 -2.145,-1.523 -4.48,-2.135 -1.453,-0.381 -1.635,-0.453 -1.384,-0.549 0.297,-0.114 1.06,0.037 2.286,0.453 1.763,0.598 2.505,0.786 3.098,0.786 0.68,0 1.074,-0.168 1.403,-0.6 0.237,-0.311 0.263,-0.413 0.26,-1.037 -0.003,-0.696 -0.187,-1.239 -0.569,-1.673 -0.132,-0.15 -0.11,-0.16 0.353,-0.16 1.012,-10e-4 1.613,-0.352 1.807,-1.054 0.199,-0.722 -0.198,-1.503 -1.123,-2.206 -0.306,-0.232 -0.474,-0.393 -0.373,-0.356 0.67,0.246 1.39,0.248 1.872,0.004 0.505,-0.255 0.95,-0.992 1.105,-1.83 0.213,-1.152 -0.442,-2.115 -1.938,-2.848 -0.421,-0.206 -1.483,-0.622 -2.361,-0.924 -0.911,-0.314 -1.647,-0.619 -1.715,-0.712 -0.189,-0.259 -0.098,-0.437 0.241,-0.469 0.392,-0.037 0.652,0.072 1.883,0.789 2.557,1.49 3.845,1.907 4.738,1.534 0.392,-0.164 0.696,-0.595 0.696,-0.988 0,-0.493 -0.398,-0.994 -2.269,-2.853 l -1.741,-1.73 0.543,-0.491 c 0.345412,-0.32423 0.655784,-0.68387 0.926,-1.073 0.211,-0.32 0.411,-0.565 0.444,-0.544 0.033,0.021 0.468,0.699 0.965,1.506 2.054,3.337 2.706,4.247 3.238,4.522 0.35,0.181 0.423,0.171 0.684,-0.09 0.311,-0.311 0.281,-0.549 -0.121,-0.944 -0.501,-0.491 -0.969,-1.155 -1.977,-2.804 -1.845,-3.019 -2.376,-3.724 -2.885,-3.836 -0.05,-0.011 -0.097,-0.018 -0.141,-0.02 z m 121.376,1.424 -1.05,0.68 -2.531,1.528 c -2.685,1.538 -3.665,2.45 -3.749,3.491 -0.032,0.397 0.007,0.565 0.225,0.98 0.503,0.957 1.415,1.384 2.528,1.183 1.158,-0.21 1.965,-0.614 5.144,-2.579 l 0.927,-0.52 c 0.194,0 -0.112,0.744 -0.404,0.985 -0.515,0.424 -2.382,1.517 -4.195,2.455 -1.987,1.028 -2.512,1.439 -2.512,1.968 0,0.642 0.963,1.16 1.941,1.044 0.482,-0.057 1.847,-0.697 4.885,-2.291 0.716,-0.376 1.446,-0.71 1.622,-0.743 0.523,-0.098 1.121,0.036 1.443,0.324 0.266,0.238 0.289,0.304 0.283,0.798 -0.01,0.746 -0.348,1.449 -1.015,2.112 -0.865,0.859 -1.944,1.363 -4.723,2.207 -1.635,0.496 -1.981,0.637 -2.312,0.94 -0.41,0.374 -0.16,1.133 0.528,1.601 0.283,0.193 0.392,0.211 1.002,0.173 0.377,-0.024 1.134,-0.171 1.683,-0.328 0.642,-0.184 1.203,-0.285 1.573,-0.285 0.513,0 0.609,0.03 0.899,0.285 0.432,0.38 0.346,0.467 -0.809,0.82 l -3.012,1.05 c -0.75,0.51 -0.98,1.688 -0.492,2.519 0.322,0.548 0.77,0.918 1.6,1.321 1.243,0.603 3.214,0.834 4.6,0.54 1.587,-0.336 2.572,-1.314 2.58,-2.559 0.002,-0.303 -0.026,-0.674 -0.063,-0.825 -0.063,-0.258 -0.053,-0.253 0.158,0.084 0.123,0.197 0.251,0.519 0.284,0.715 0.093,0.547 -0.369,1.411 -1.182,2.215 -2.038,2.012 -5.221,3.059 -7.324,2.41 -0.522,-0.161 -0.704,-0.276 -1.129,-0.713 -0.279,-0.286 -0.601,-0.693 -0.717,-0.904 l -0.211,-0.383 h 0.281 c 0.338,0 1.456,0.379 1.914,0.649 0.18,0.106 0.467,0.356 0.636,0.553 0.553,0.645 1.062,0.302 0.781,-0.527 -0.242,-0.715 -1.555,-1.56 -2.76,-1.775 -0.822,-0.147 -1.25,-0.063 -1.633,0.321 -0.42,0.42 -0.417,0.893 0.013,1.748 0.601,1.194 1.472,1.925 2.708,2.27 0.715,0.2 2.634,0.134 3.589,-0.123 2.5,-0.673 4.914,-2.388 5.805,-4.125 0.708,-1.38 0.53,-2.734 -0.535,-4.082 -0.393,-0.498 -1.416,-1.364 -1.901,-1.61 -0.765,-0.389 -1.401,0.03 -1.252,0.824 0.032,0.171 0.264,0.649 0.515,1.062 0.587,0.966 0.801,1.518 0.801,2.065 0.007,0.49786 -0.25561,0.96065 -0.686,1.211 -1.357,0.793 -4.378,0.462 -5.487,-0.601 -0.347,-0.333 -0.403,-0.436 -0.403,-0.76 0,-0.536 0.22,-0.668 1.884,-1.128 1.671,-0.461 2.451,-0.819 2.748,-1.26 0.504,-0.75 0.027,-1.712 -1.162,-2.344 -0.493,-0.262 -1.55,-0.212 -2.739,0.128 l -1.324,0.328 -0.365,0.053 0.365,-0.128 1.734,-0.558 c 3.125,-0.982 4.533,-1.9 5.3,-3.457 0.829,-1.683 0.54,-3.138 -0.748,-3.769 -0.459,-0.225 -0.638,-0.261 -1.308,-0.26 -0.943,0.001 -1.222,0.113 -4.052,1.622 l -3.051,1.434 c -0.172,-0.001 0.263,-0.266 1.422,-0.864 l 3.695,-2.132 c 0.824,-0.546 0.913,-0.635 1.178,-1.174 0.20446,-0.38946 0.31765,-0.82033 0.331,-1.26 0.042,-0.659 0.036,-0.686 -0.235,-0.957 -0.2,-0.2 -0.365,-0.279 -0.585,-0.279 -0.412,0 -1.327,0.451 -2.911,1.435 -2.397,1.489 -3.204,1.853 -4.108,1.853 -0.414,0 -0.506,-0.037 -0.79,-0.321 -0.277,-0.277 -0.313,-0.362 -0.263,-0.614 0.116,-0.581 0.969,-1.257 3.251,-2.579 1.263,-0.731 3.05,-1.893 3.143,-2.044 0.029,-0.046 -0.019,-0.317 -0.107,-0.603 z m -90.816,2.162 c 0.185,0.114 0.468,0.816 0.516,1.276 0.066,0.641 -0.107,1.313 -0.443,1.721 -0.253,0.307 -0.313,0.333 -0.756,0.333 -0.362,0 -0.521,-0.045 -0.643,-0.179 -0.122,-0.134 -0.148,-0.257 -0.098,-0.525 0.134,-0.719 1.233,-2.744 1.424,-2.626 z m -34.914,0.061 c 0.055,0 0.117,0.007 0.183,0.024 0.19,0.048 0.213,0.078 0.109,0.144 -0.172,0.109 -0.427,0.11 -0.494,0.002 -0.062,-0.101 0.038,-0.169 0.202,-0.169 z m -2.738,8.215 c 0.396,0.023 1.347,0.272 1.802,0.486 0.548,0.257 0.453,0.28 -0.2,0.048 -0.261,-0.093 -0.795,-0.242 -1.187,-0.331 -0.392,-0.089 -0.639,-0.178 -0.548,-0.198 0.04395,-0.007 0.08863,-0.009 0.133,-0.005 z M 199.507,61.44 c -0.164,-0.003 -0.305,0.041 -0.424,0.135 -0.473,0.372 -0.411,0.826 0.266,1.962 0.585,0.981 0.751,1.424 0.751,2.003 0,1.078 -0.926,1.616 -2.781,1.616 -2.365,0 -4.273,-1.128 -3.705,-2.19 0.092,-0.172 0.767,-0.42 2.341,-0.861 1.097,-0.307 1.579,-0.521 1.99,-0.881 0.392,-0.344 0.716,-0.926 0.675,-1.212 -0.054,-0.383 -0.703,-0.316 -1.204,0.123 -0.416,0.365 -0.886,0.563 -2.263,0.95 -2.037,0.573 -2.527,0.885 -2.784,1.771 -0.239,0.821 0.009,1.543 0.756,2.2 1.557,1.37 4.988,1.757 6.807,0.766 0.999,-0.544 1.528,-1.511 1.409,-2.577 l -0.057,-0.51 0.192,0.296 c 0.486,0.751 0.235,1.578 -0.817,2.693 -2.081,2.206 -5.691,3.332 -7.788,2.43 -0.288,-0.124 -0.614,-0.375 -0.894,-0.689 -0.479,-0.538 -0.81,-1.081 -0.716,-1.176 0.094,-0.095 0.988,0.148 1.668,0.463 0.367,0.17 0.793,0.457 1,0.673 0.421,0.44 0.731,0.494 0.887,0.152 0.082,-0.179 0.07,-0.312 -0.055,-0.64 -0.402,-1.052 -2.524,-2.039 -3.808,-1.77 -0.879,0.184 -1.127,0.918 -0.651,1.922 0.697,1.468 1.712,2.261 3.251,2.537 0.593,0.107 1.844,0.047 2.67,-0.127 1.86364,-0.41857 3.58553,-1.31692 4.995,-2.606 2.12,-1.983 2.244,-4.225 0.339,-6.13 -0.87,-0.87 -1.561,-1.315 -2.053,-1.326 z m 1.676,10.202 c -1.172,-0.025 -2.523,0.204 -4.091,0.683 -0.843,0.257 -1.377,0.674 -1.377,1.075 0,0.497 0.357,0.533 1.536,0.154 2.226,-0.715 4.016,-0.876 5.3,-0.477 0.745,0.232 0.822,0.36 0.127,0.211 -2.355,-0.505 -4.778,0.061 -6.233,1.457 -0.657,0.629 -0.947,1.256 -0.948,2.046 -0.001,0.68 0.109,0.982 0.545,1.5 0.419,0.498 0.885,0.676 1.886,0.72 1.556,0.068 3.101,-0.263 4.909,-1.052 l 1.553,-0.629 c 0,0.022 -1.017,0.603 -2.26,1.292 l -4.226,2.51 c -0.153,0.285 -0.1,0.776 0.119,1.102 0.417,0.62 1.366,0.686 2.655,0.186 0.395,-0.153 0.909,-0.306 1.142,-0.34 l 0.424,-0.061 -0.639,0.488 c -0.725,0.553 -3.61378,2.64969 -3.75378,2.64969 l 1.052,1.306 2.59578,-1.93469 2.127,-1.553 1.018,-0.817 0.763,-0.062 c 1.663,-0.136 1.625,-0.124 1.689,-0.525 0.075,-0.47 0.192,-0.525 0.267,-0.125 0.033,0.178 0.093,0.343 0.132,0.367 0.039,0.024 0.468,-0.056 0.953,-0.179 2.716,-0.689 3.738,-2.055 2.464,-3.293 -1.322,-1.285 -2.946,-0.814 -6.386,1.854 -0.431,0.334 -0.56,0.376 -2.301,0.742 l -2.052,0.358 -0.208,-0.03 0.235,-0.153 c 0.129,-0.084 1.279,-0.737 2.554,-1.45 2.735,-1.529 3.138,-1.787 3.634,-2.325 0.287,-0.311 0.374,-0.479 0.374,-0.72 0,-0.44 -0.075,-0.59 -0.372,-0.744 -0.577,-0.298 -1.394,-0.118 -3.599,0.797 -1.949,0.808 -2.978,1.081 -4.294,1.139 -0.906,0.04 -1.034,0.025 -1.307,-0.147 -0.166,-0.105 -0.365,-0.34 -0.441,-0.522 -0.126,-0.301 -0.124,-0.369 0.02,-0.746 0.478,-1.253 2.609,-2.229 4.513,-2.068 0.984,0.083 1.917,0.285 3.014,0.65 1.108,0.369 1.392,0.398 1.644,0.17 0.292,-0.264 0.226,-0.609 -0.236,-1.223 -1.12,-1.49 -2.573,-2.24 -4.525,-2.282 z m 8.195,7.671 c 0.10157,-0.004 0.20238,0.019 0.292,0.067 0.161,0.102 -0.759,0.511 -1.678,0.746 -0.877,0.224 -0.964,0.223 -0.677,-0.006 0.582,-0.465 1.532,-0.816 2.064,-0.807 z"
     fill="#f6d02c"
     stroke-width="0.291"
     stroke="#bd9d35"
     id="path24"
     sodipodi:nodetypes="ccccccccccccccsccccccccccccccccccccccccccccccscsssccccsccccscccscccsccccccccccscscccccccccccccccccccsccccccccccccsccccccccccsccsccccccccccccccsccccccsccccccccccsccccccccccccccscscccscsccsccccccssccccccccccscccccccccscccccccccccscccccccccccccccccccscccccccccccssccsccccccccscccccccccccccccscsccccsscccccccscccsscccccccccccccsccccccccsccccccccsccccccccccccccscscccccccccccccccccccccccsccccccccccscsccccccccsscccccccccccccccsccccccccccccsccsccccsccsccscccccscccccsscccccccccccscccccccccccccccsccccccccccccccccscccccccccccccccccsssssccccccccsscccccccccccscccccsssccccccccccccccssccccccccsccccsccccccccccccccccccccccscsccccccsccscccccccccccccccccc" />
  <g
     id="g1643">
    <path
       d="m 82.615,55.063 h 89.291 l 12.767,43.845 -2.675,5.034 4.671,1.818 12.412,42.624 -32.632,26.327 -5.489,-1.561 -0.831,6.661 -32.867,26.517 -32.867,-26.517 -0.831,-6.661 -5.49,1.561 -32.632,-26.327 12.412,-42.624 4.669,-1.818 -2.674,-5.034 z"
       fill="#00afec"
       class="B"
       id="path26" />
    <path
       d="m 78.253,49.241 -13.596,46.668 3.388,6.368 -5.914,2.305 -13.373,45.906 35.477,28.613 6.631,-1.886 1.01,8.049 35.384,28.539 35.384,-28.539 1.009,-8.049 6.631,1.886 35.477,-28.613 -13.373,-45.906 -5.914,-2.305 3.388,-6.368 -13.596,-46.667 h -44.119 l -4.889,5.821 -4.888,-5.821 z m 2.38,3.175 h 41.74 l 4.888,5.821 4.889,-5.821 h 41.74 l 12.565,43.141 -4.455,8.385 7.779,3.027 12.34,42.371 -32.547,26.258 -8.611,-2.449 -1.305,10.452 -32.393,26.124 -32.394,-26.124 -1.304,-10.452 -8.611,2.449 -32.547,-26.258 12.34,-42.371 7.777,-3.027 -4.453,-8.385 z"
       fill-opacity="0.992"
       class="B O"
       id="path28" />
    <path
       d="m 202.117,149.34 -12.34,-42.371 -3.108,-1.21 12.412,42.624 -32.632,26.327 3.121,0.888 z m -107.25,34.26 -0.473,-3.791 32.867,26.517 32.867,-26.517 -0.473,3.791 -32.393,26.124 z M 184.674,98.908 171.907,55.063 h -41.98 l 2.222,-2.646 h 41.74 l 12.565,43.141 z m -132.269,50.432 12.34,-42.371 3.108,-1.21 -12.412,42.624 32.632,26.327 -3.121,0.888 z M 69.848,98.908 82.615,55.063 h 41.979 l -2.222,-2.646 H 80.632 L 68.067,95.558 Z"
       class="C"
       id="path30" />
    <path
       d="m 199.08,148.383 -32.632,26.327 -5.489,-1.561 -0.833,6.662 -32.865,26.515 -32.867,-26.516 -0.831,-6.661 -5.49,1.561 -32.632,-26.327 c 5.151,-0.163 45.259,-25.294 67.874,-55.401 3.566,2.289 6.602,1.806 8.504,0.283 l 9.834,8.965 3.742,-0.535 12.829,14.967 4.276,-0.267 c 3.295,5.484 7.989,9.193 11.626,12.428 l 3.948,0.16 c 4.704,8.95 17.743,17.21 21.006,19.399"
       fill="#385a98"
       id="path32" />
    <path
       d="m 97.687,123.813 c 2.429,-2.628 4.554,-5.658 7.849,-7.886 3.917,-2.649 7.715,-2.238 12.396,-12.36 2.166,1.77 -4.854,10.848 -7.751,12.161 -1.262,0.538 -3.345,0.771 -5.071,2.515 -2.561,1.849 -5.135,5.016 -7.424,5.569 z"
       stroke-opacity="0.08"
       class="P U"
       id="path34" />
    <path
       d="m 136.748,102.254 c 0,0 -0.504,0.102 -0.325,0.404 2.148,3.623 7.43,5.377 18.36,17.68 1.96,2.206 8.505,6.731 12.461,9.956 1.254,0.966 1.327,-0.382 0.535,-1.203 -3.764,-2.962 -7.004,-4.876 -11.292,-8.816 -4.891,-4.494 -13.366,-16.764 -19.738,-18.021 z m 7.043,11.001 c 1.78,1.775 3.803,4.801 5.745,6.827 3.946,4.118 11.525,8.72 15.436,14.888 -5.447,-4.663 -6.784,-4.309 -8.219,-5.679 -2.039,-1.949 -3.167,-4.454 -6.08,-6.682 -3.063,-3.152 -4.014,-5.116 -6.515,-7.584 -0.593,-0.978 -0.257,-1.19 -0.368,-1.771 z"
       id="path36" />
    <path
       d="m 127.26,64.573 -13.042,9.475 c -0.796,2.847 5.304,4.255 4.839,7.357 -1.301,8.689 0.445,8.138 4.257,11.577 3.566,2.289 6.602,1.806 8.504,0.283 0.509,-1.937 2.476,-3.971 1.654,-5.693 -1.106,-2.315 3.086,-3.928 3.791,-5.281 0.579,-1.112 0.233,-2.541 1.17,-3.577 1.104,-1.221 1.64,-2.847 1.869,-4.665 z"
       fill="url(#A)"
       id="path38"
       style="fill:url(#A)" />
    <g
       class="C"
       id="g68"
       transform="translate(-16.723,-69.32)">
      <path
         d="m 143.983,180.728 v 20.978 h -1.3 z"
         id="path46" />
      <use
         xlink:href="#B"
         id="use48"
         x="0"
         y="0"
         width="100%"
         height="100%" />
      <use
         xlink:href="#C"
         id="use50"
         x="0"
         y="0"
         width="100%"
         height="100%" />
      <use
         xlink:href="#D"
         id="use52"
         x="0"
         y="0"
         width="100%"
         height="100%" />
      <use
         xlink:href="#E"
         id="use54"
         x="0"
         y="0"
         width="100%"
         height="100%" />
      <g
         transform="matrix(-1,0,0,1,287.9669,0)"
         class="B"
         id="g66">
        <path
           d="m 143.983,180.728 v 20.978 h -1.3 z"
           id="path56" />
        <use
           xlink:href="#B"
           id="use58"
           x="0"
           y="0"
           width="100%"
           height="100%" />
        <use
           xlink:href="#C"
           id="use60"
           x="0"
           y="0"
           width="100%"
           height="100%" />
        <use
           xlink:href="#D"
           id="use62"
           x="0"
           y="0"
           width="100%"
           height="100%" />
        <use
           xlink:href="#E"
           id="use64"
           x="0"
           y="0"
           width="100%"
           height="100%" />
      </g>
    </g>
  </g>
  <g
     id="g1622">
    <path
       d="m 127.261,33.91 -4.982,15.332 h -16.121 l 13.042,9.476 -4.982,15.332 13.042,-9.476 13.042,9.476 -4.982,-15.332 13.042,-9.476 h -16.12 z"
       opacity="0.99"
       fill="#6e5b1f"
       id="path40" />
    <path
       d="M 127.261,37.341 123.05,50.3 h -13.637 l 11.029,8.016 -4.207,12.965 11.026,-8.016 11.025,8.016 -4.207,-12.965 11.029,-8.016 h -13.637 z"
       opacity="0.99"
       fill="#bd9d35"
       id="path42" />
    <path
       d="m 127.261,37.341 -4.211,12.959 4.211,6.13 -17.848,-6.13 11.029,8.016 6.818,-1.886 -11.025,14.851 11.026,-8.016 V 56.43 l 11.026,14.85 -4.207,-12.965 -6.818,-1.886 17.848,-6.13 h -13.637 l -4.211,6.13 z"
       opacity="0.99"
       class="E"
       id="path44" />
  </g>
  <g
     stroke="#ffffff"
     id="g82"
     transform="translate(-16.723,-69.32)">
    <path
       d="m 80.608,291.98 11.607,29.249 103.556,-0.023 11.608,-29.226 z"
       fill="#00afec"
       stroke-width="1.103"
       class="J"
       id="path72" />
    <g
       fill="none"
       stroke-width="1.438"
       id="g80">
      <use
         xlink:href="#F"
         id="use74"
         x="0"
         y="0"
         width="100%"
         height="100%" />
      <use
         xlink:href="#F"
         y="-5.7480001"
         id="use76"
         x="0"
         width="100%"
         height="100%" />
      <use
         xlink:href="#F"
         y="-11.489"
         id="use78"
         x="0"
         width="100%"
         height="100%" />
    </g>
  </g>
  <g
     id="g1617">
    <use
       xlink:href="#G"
       class="C P U"
       id="use84"
       x="0"
       y="0"
       width="100%"
       height="100%"
       transform="translate(-16.723,-69.32)" />
    <use
       xlink:href="#H"
       class="O"
       id="use86"
       x="0"
       y="0"
       width="100%"
       height="100%"
       transform="translate(-16.723,-69.32)" />
    <g
       transform="matrix(-1,0,0,1,271.24643,-69.32)"
       id="g92">
      <use
         xlink:href="#G"
         x="0.003"
         class="C P U"
         id="use88"
         y="0"
         width="100%"
         height="100%" />
      <use
         xlink:href="#H"
         x="0.003"
         class="O"
         id="use90"
         y="0"
         width="100%"
         height="100%" />
    </g>
    <g
       class="C"
       id="g98"
       transform="translate(-16.723,-69.32)">
      <path
         d="m 143.984,205.25 -1.536,4.394 -5.622,6.52 v 7.418 l -4.121,6.463 1.958,5.298 -2.798,-6.8 -2.663,6.943 -0.159,5.347 1.323,6.048 -2.66,-6.903 -2.137,6.944 2.472,11.092 -3.475,-13.364 -3.341,8.686 -0.468,6.415 5.226,4.779 v 6.647 h -2.754 v 5.579 h 2.706 v 12.528 l -2.973,-3.475 -1.871,6.582 h 22.892 v 10e-4 h 22.892 l -1.871,-6.582 -2.973,3.475 v -12.528 h 2.706 v -5.579 h -2.754 v -6.647 l 5.226,-4.779 -0.468,-6.415 -3.341,-8.686 -3.475,13.364 2.472,-11.092 -2.138,-6.944 -2.659,6.903 1.323,-6.048 -0.159,-5.347 -2.663,-6.943 -2.798,6.8 1.958,-5.298 -4.121,-6.463 v -7.418 l -5.622,-6.52 -1.536,-4.394 z"
         class="B"
         id="path94" />
      <path
         d="m 166.959,292.687 -1.871,-6.582 -2.973,3.475 v -12.528 h 2.706 v -5.579 l -2.838,-0.297 v -6.647 l 5.226,-4.779 -0.468,-6.415 -3.341,-8.686 -3.475,13.364 2.472,-11.092 -2.138,-6.944 -2.659,6.903 1.323,-6.048 -0.159,-5.347 -2.663,-6.943 -2.798,6.8 1.958,-5.298 -4.121,-6.463 v -7.418 l -5.622,-6.52 -1.536,-4.394 -1.536,4.394 -5.622,6.52 v 7.418 l -4.121,6.463 1.958,5.298 -2.798,-6.8 -2.663,6.943 -0.159,5.347 1.323,6.048 -2.66,-6.903 -2.137,6.944 2.472,11.092 -3.475,-13.364 -3.341,8.686 -0.468,6.415 5.226,4.779 v 6.647 h -2.754 v 5.579 h 2.706 v 12.528 l -2.973,-3.475 -1.871,7.175"
         class="B"
         id="path96" />
    </g>
    <g
       class="O"
       id="g122"
       transform="translate(-16.723,-69.32)">
      <path
         d="m 143.984,202.728 -2.27,6.492 -5.721,6.634 v 7.484 l -3.263,5.118 -0.892,-2.168 -3.463,9.031 -0.112,3.783 -0.643,-1.67 -2.205,7.165 -0.693,-2.667 -4.315,11.221 -0.506,6.94 5.253,4.803 v 5.448 H 122.4 v 7.244 h 2.706 v 9.443 l -2.518,-2.942 -2.295,8.074 -0.149,0.524 h 1.731 l 0.02,-0.069 1.446,-5.089 3.429,4.008 v -15.614 h -2.706 v -3.914 h 2.754 v -7.847 l -5.199,-4.754 0.429,-5.889 2.366,-6.152 2.823,10.855 1.618,-0.39 -2.424,-10.877 1.365,-4.434 1.795,4.659 1.59,-0.477 -1.301,-5.947 0.151,-5.104 1.862,-4.854 2.001,4.863 1.551,-0.605 -0.011,-0.028 -1.804,-4.882 4.029,-6.319 v -7.351 l 5.524,-6.406 0.803,-2.295 0.803,2.295 5.524,6.406 v 7.351 l 4.029,6.319 -1.804,4.882 -0.011,0.028 1.551,0.605 2.001,-4.863 1.862,4.854 0.151,5.104 -1.301,5.947 1.59,0.477 1.795,-4.659 1.365,4.434 -2.424,10.877 1.618,0.39 2.823,-10.855 2.366,6.152 0.429,5.889 -5.199,4.754 v 7.847 h 2.754 v 3.914 h -2.706 v 15.614 l 3.429,-4.008 1.446,5.089 0.02,0.069 h 1.731 l -0.149,-0.524 -2.295,-8.074 -2.518,2.942 v -9.443 h 2.706 v -7.244 h -2.754 v -5.448 l 5.253,-4.803 -0.506,-6.94 -4.315,-11.221 -0.693,2.667 -2.206,-7.165 -0.643,1.669 -0.112,-3.782 -3.463,-9.031 -0.892,2.168 -3.263,-5.118 v -7.484 l -5.721,-6.634 -2.27,-6.493 z"
         class="B"
         id="path100" />
      <g
         class="G P"
         id="g120">
        <path
           d="m 128.557,300.312 v 2.834 h 30.853 v -2.835 z"
           class="B"
           id="path102" />
        <path
           d="m 133.447,295.044 v 2.811 h -2.433 v 2.457 h 12.97 v -0.001 h 12.969 v -2.456 h -2.433 v -2.811 h -10.536 -0.001 z"
           class="B"
           id="path104" />
        <path
           d="m 135.502,292.404 v 2.64 l 16.962,-0.014 v -2.64 z m 16.963,-0.014 v 2.64 z"
           class="B"
           id="path106" />
        <path
           d="m 152.465,271.019 h -2.403 v 21.385 h 2.403 z"
           class="B"
           id="path108" />
        <path
           d="m 143.983,258.966 v 10e-4 c -0.886,0.466 -2.186,1.34 -2.746,4.242 l -2.406,0.501 -0.768,2.038 c -2.088,-0.059 -3.78,0.465 -5.133,-2.04 -0.369,1.763 -0.528,4.725 0.757,6.03 h 1.815 v 1.281 h 8.481 0.001 8.481 v -1.281 h 1.815 c 1.285,-1.306 1.125,-4.268 0.757,-6.031 -1.354,2.504 -3.045,1.98 -5.133,2.04 l -0.768,-2.038 -2.406,-0.501 c -0.56,-2.903 -1.859,-3.776 -2.746,-4.242 z m 18.191,30.715 h -9.709 v 2.426 h 9.709 z"
           class="B"
           id="path110" />
        <path
           d="m 155.205,289.681 -2.74,-5.835 v 5.835 z m -17.3,-15.821 v 3.247 l 6.078,5.733 6.079,-5.733 v -3.247 l -6.079,4.902 z"
           id="path112" />
        <path
           d="m 135.502,271.019 h 2.403 v 21.385 h -2.403 z"
           class="B"
           id="path114" />
        <path
           d="m 125.793,289.681 h 9.709 v 2.426 h -9.709 z"
           class="B"
           id="path116" />
        <path
           d="m 132.762,289.681 2.74,-5.835 v 5.835 z"
           id="path118" />
      </g>
    </g>
  </g>
  <g
     id="g1737">
    <path
       d="M 51.17,230.41438 53.421,266.212 H 21.168 l 14.363,-37.87043 h 10.961 c 3.016,0 4.678,0.24281 4.678,2.07281 z"
       class="W"
       id="path1729"
       sodipodi:nodetypes="ccccsc"
       style="fill:#a88848;stroke:#705a30" />
    <path
       d="m 51.684,238.922 c -4.559,0.235 -9.62652,1.77009 -10.31752,-2.21491 -1.186,-4.646 10.03852,-1.64269 9.80352,-6.29271 z"
       id="path1733"
       sodipodi:nodetypes="cccc"
       style="fill:#563c09;stroke:#705a30;stroke-width:0.7" />
  </g>
  <g
     id="g1386">
    <path
       d="m 64.587,82.635 c 1.989,-2.562 0.805,-10.769 5.339,-14.08 0.337,1.243 1.779,2.077 2.676,3.238 1.253,-1.968 2.118,-1.105 4.505,-3.852 0.627,1.654 3.04,1.689 3.197,3.352 5.253,-2.592 8.869,2.045 11.025,1.609 1.088,2.766 -2.176,5.033 -6.473,7.182 0.687,0.267 1.339,0.327 2.268,1.984 -3.316,2.03 -6.608,3.938 -9.308,2.882 -1.771,0.019 -1.162,4.373 -0.614,6.048 -1.849,-4.019 -7.23,-1.513 -12.615,-8.363 z"
       class="D G H"
       id="path124" />
    <path
       d="m 64.587,82.635 c 1.534,-0.962 3.068,-2.844 4.603,-5.06 l -2.005,4.209 c 1.484,-0.02 4.645,-4.824 7.165,-7.798 -1.079,2.003 -2.838,4.685 -3.022,5.793 3.301,-1.243 4.873,-4.214 6.949,-6.682 -0.864,1.474 -2.13,2.916 -2.21,4.453 4.833,-3.135 4.486,-3.143 6.353,-4.487 -1.262,1.253 -2.703,2.439 -3.742,3.775 4.501,-1.528 6.815,-1.67 10.223,-2.506 -3.845,1.155 -7.765,1.959 -11.526,3.508 3.581,-0.138 4.558,0.899 6.715,1.403 -3.883,-0.104 -6.341,-1.934 -13.23,1.604 4.78,-0.092 5.459,0.727 7.684,1.203 -3.343,-0.227 -6.547,-0.72 -10.673,0.56 2.509,0.263 4.1,0.92 5.292,1.748 -4.826,-1.079 -5.989,-1.394 -8.575,-1.725 z"
       class="K"
       id="path126" />
    <g
       class="G"
       id="g136"
       transform="translate(-16.723,-69.32)">
      <path
         d="m 64.965,147.53 c -1.523,-2.031 1.44,-3.405 2.291,-1.784 0.507,-2.969 3,-2.314 3.709,-1.234 1.347,-2.704 3.99,-1.873 4.891,0.892 2.311,-3.355 7.69,2.369 6.334,5.902 3.579,1.982 3.889,5.873 2.42,7.7 2.95,3.143 0.18,5.871 -1.364,6.675 -2.57,-1.075 -3.166,-1.879 -3.496,-2.646 -3.457,3.775 -6.257,-1.654 -6.767,-4.179 -1.068,-0.506 -1.842,0.656 -3.391,-2.577 -1.196,-0.274 -1.356,-0.943 -1.654,-1.559 -3.525,1.349 -4.604,-0.828 -5.381,-3.441 -1.076,-3.776 1.447,-4.85 2.407,-3.749 z"
         class="C R"
         id="path128" />
      <g
         class="D H"
         id="g134">
        <path
           d="m 61.758,148.499 c -0.413,7.749 3.26,9.992 3.093,17.159 11.511,4.406 15.824,-1.924 18.396,0.023 -2.57,-1.075 -3.166,-1.879 -3.496,-2.646 -3.457,3.775 -6.257,-1.654 -6.767,-4.179 -1.068,-0.506 -1.842,0.656 -3.391,-2.577 -1.196,-0.274 -1.356,-0.943 -1.654,-1.559 -4.763,1.823 -5.06,-2.793 -6.181,-6.22 z"
           id="path130" />
        <path
           d="m 50.243,181.849 c -7.076,-5.881 -5.676,-10.568 -6.525,-14.909 1.214,-0.347 2.592,-0.217 3.994,0.437 -0.531,-2.823 2.187,-5.72 1.831,-6.91 1.014,0.311 2.325,1.22 3.027,2.717 0.182,-1.67 1.355,-2.098 1.784,-4.776 2.947,-0.503 3.693,0.668 5.142,1.328 0.869,-1.632 3.528,-1.832 5.538,-2.551 0.298,1.378 0.129,2.596 -0.067,4.744 3.109,-0.034 4.753,1.586 5.679,2.339 -1.927,1.204 -2.782,2.352 -4.092,3.864 2.644,0.622 3.611,2.083 5.094,3.286 -1.826,0.104 -1.543,4.826 -4.261,6.944 1.047,0.77 2.054,1.914 2.658,2.611 -4.183,0.398 -7.174,2.852 -11.223,4.082 -4.446,0.775 -7.372,-2.134 -8.577,-3.205 z"
           id="path132" />
      </g>
    </g>
    <path
       d="m 33.075,117.365 c 2.769,-2.486 3.996,-4.752 8.72,-7.517 -1.668,0.655 -2.515,0.695 -5.546,2.372 2.017,-2.981 4.02,-5.969 7.45,-8.152 -2.148,1.486 -4.142,2.279 -6.515,4.777 -0.247,0.26 2.83,-8.358 9.187,-10.925 -1.865,0.96 -3.402,1.55 -6.147,3.508 1.673,-3.644 4.098,-7.038 6.147,-10.557 -2.098,2.995 -4.238,5.488 -6.281,9.154 l 0.301,-5.78 c -0.438,2.574 -0.469,4.995 -1.837,7.918 -0.841,-2.152 -1.035,-3.334 -1.537,-4.978 0.36,2.263 1.214,7.44 -0.482,10.794 0.02,-0.262 -1.592,-5.997 -1.523,-6.618 0.103,3.73 1.388,6.967 -0.071,11.349 -0.473,-2.371 -1.081,-3.224 -1.633,-4.701 0.3,2.419 1.02,4.519 -1.373,8.67 z"
       class="K"
       id="path138" />
    <g
       class="G"
       id="g148"
       transform="translate(-16.723,-69.32)">
      <path
         d="m 44.079,182.949 c 0.722,-3.669 5.346,-3.441 6.163,-1.1 1.346,-0.225 2.562,0.739 2.819,1.594 0.859,-0.463 2.571,-0.059 2.791,0.932 3.406,-4.153 9.243,0.548 7.087,4.397 1.274,-0.034 3.115,0.104 2.699,2.108 5.291,0.433 6.019,7.67 1.682,10.517 -0.612,2.201 -2.422,4.591 -5.83,3.43 0,0.628 -2.419,2.779 -4.745,0.466 -0.728,2.688 -2.582,1.902 -4.343,1.403 -2.057,5.32 -6.04,3.607 -6.949,-0.535 -3.091,4.794 -6.388,-0.436 -6.08,-2.606 -1.076,-0.596 -2.165,-1.106 -2.873,-4.276 -0.435,2.773 -1.226,-2.637 1.23,-2.843 -5.63,-2.979 -1.683,-8.649 0.345,-8.337 -1.839,-5.315 5.508,-6.961 6.003,-5.151 z"
         class="C R"
         id="path140" />
      <g
         class="D H"
         id="g146">
        <path
           d="m 42.473,213.943 c 8.719,-0.19 13.289,-3.037 15.544,-7.848 -0.961,0.109 -1.19,-0.294 -1.27,-0.802 -0.728,2.688 -2.582,1.902 -4.343,1.403 -2.057,5.32 -6.04,3.607 -6.949,-0.535 -3.091,4.794 -6.388,-0.436 -6.08,-2.606 -1.076,-0.596 -2.165,-1.106 -2.873,-4.276 -1.015,6.47 4.666,9.892 5.972,14.663 z"
           id="path142" />
        <path
           d="m 30.407,227.019 c 1.352,-0.209 2.523,0.144 3.041,1.339 1.406,3.242 3.668,12.43 15.025,11.618 5.331,-2.859 5.533,-9.435 5.519,-16.82 -0.002,-0.897 0.645,-2.411 0.624,-3.307 -1.252,0.226 -3.242,0.683 -4.158,0.118 0.313,-2.026 -0.558,-2.425 -0.094,-5.126 -1.109,0.22 -3.499,-0.301 -4.158,0.52 -0.305,-2.106 -0.6,-4.359 -0.289,-6.774 -2.094,0.693 -4.748,0.096 -5.948,1.435 -2.481,-3.205 -4.321,-1.885 -5.936,-3.868 -0.624,4.722 1.967,6.214 1.306,10.104 -2.3,0.361 -4.32,1.282 -6.378,2.126 2.769,0.131 3.587,0.213 7.701,7.512 -1.257,-1.086 -3.146,-0.08 -6.255,1.122 z"
           id="path144" />
      </g>
    </g>
    <path
       d="m 34.703,177.554 c -2.642,-5.882 -4.847,-12.385 -12.024,-16.962 1.908,0.752 3.815,1.78 5.723,3.199 -1.254,-2.495 -2.841,-5.767 -6.479,-8.491 2.083,1.356 3.712,2.485 5.976,4.989 -0.451,-2.716 -2.852,-8.629 -8.622,-11.603 1.861,0.905 3.628,1.541 6,3.922 l -5.055,-10.961 5.197,9.449 0.094,-5.811 1.181,8.174 c 0.8,-0.731 1.263,-2.98 1.89,-4.488 -0.464,3.183 -1.707,4.666 -0.283,10.111 0.732,-0.826 1.507,-3.956 2.268,-6.378 -0.32,3.881 -1.799,7.678 -0.921,11.646 0.455,-1.857 1.212,-3.229 1.819,-4.843 -1.732,3.131 -0.729,10.933 4.992,16.6 z"
       class="K"
       id="path150" />
    <g
       class="G"
       id="g166"
       transform="translate(-16.723,-69.32)">
      <path
         d="m 71.714,245.25 c 0,0 3.423,-1.294 1.704,-4.74 4.098,-4.22 -0.423,-5.215 -0.184,-5.509 5.162,-6.773 -2.09,-8.404 -3.829,-8.312 -0.493,-2.602 -3.108,-5.634 -7.104,-3.409 -1.323,-2.118 -4.634,-0.776 -4.485,1.057 -0.253,-0.062 -3.325,0.16 -2.816,2.23 0.232,0.943 0.67,1.868 2.064,2.731 -3.175,1.296 -2.709,8.299 2.321,8.293 -0.082,1.431 -0.534,3.938 2.067,4.143 -0.225,1.94 0.488,1.908 1.242,2.381 -1.838,2.039 -1.967,3.998 0.466,5.837 4.558,2.349 4.612,0.244 5.214,-1.026 3.595,-0.481 3.152,-2.173 3.341,-3.675 z"
         class="C R"
         id="path154" />
      <path
         d="m 49.865,261.62 c -1.794,-11.182 0.129,-14.88 1.069,-16.036 -1.607,-10.771 2.253,-14.774 4.009,-21.382 -0.006,1.838 -0.381,3.546 2.121,5.095 -3.175,1.296 -2.709,8.299 2.321,8.293 -0.082,1.431 -0.534,3.938 2.067,4.143 -0.225,1.94 0.488,1.908 1.242,2.381 -2.444,2.712 -1.866,5.283 3.742,7.617 -6.564,0.148 -8.799,-3.61 -13.764,-3.608 -2.142,4.17 -0.541,8.547 -0.668,12.829 z"
         class="D H"
         id="path156" />
      <path
         d="m 43.796,285.003 c 6.995,0.14 10.565,-1.69 10.725,-5.481 11.853,-1.142 10.812,-7.035 11.009,-12.473 5.062,0.294 9.769,-3.089 9.769,-3.089 1.075,-0.782 -1.927,-5.286 -5.3,-3.796 -2.054,-3.24 -4.154,-3.956 -7.47,-2.79 -0.27,-3.207 -4.098,-5.608 -7.824,-2.091 -2.43,-0.131 -4.487,0.12 -5.265,2.055 -1.046,-0.305 -3.256,-1.4 -4.881,2.321 -3.748,-1.955 -7.287,4.738 -4.202,7.598 -2.146,0.585 -1.738,5.567 2.066,5.609 -3.012,2.461 -0.897,6.146 1.087,7.083 -1.477,0.649 -2.352,4.366 0.286,5.054 z"
         class="C R"
         id="path158" />
      <g
         class="D H"
         id="g164">
        <path
           d="m 43.796,285.003 c 6.995,0.14 10.565,-1.69 10.725,-5.481 11.853,-1.142 10.812,-7.035 11.009,-12.473 8.7,0.506 10.415,-4.109 13.654,-7.607 5.358,12.53 1.751,22.242 -10.529,29.229 -12.168,7.125 -20.057,-0.949 -24.859,-3.668 z"
           id="path160" />
        <path
           d="m 65.233,289.817 c 6.842,-2.053 12.63,-5.483 20.68,-5.746 -4.986,-1.486 -4.503,-2.991 -7.617,-1.904 1.646,-3.905 7.66,-2.262 9.966,-5.893 -2.395,0.258 -5.108,-2.577 -6.421,-2.044 1.156,-2.303 4.124,-3.546 8.54,-5.243 -2.072,-1.348 -2.9,-3.676 -5.169,-3.958 1.745,-2.101 -0.182,-6.61 -1.336,-10.824 -0.031,0.733 -6.601,1.924 -8.285,7.55 -1.256,-0.491 -5.304,4.202 -9.288,2.071 1.536,1.294 2.339,4.787 2.272,10.891 -1.708,-0.975 -3.28,-0.19 -4.811,1.136 2.623,3.41 1.164,6.946 1.47,13.965 z"
           id="path162" />
      </g>
    </g>
    <path
       d="m 48.51,220.497 c 6.698,-5.913 4.048,-10.187 4.266,-13.508 l 1.536,4.819 c 0.874,-4.124 -0.016,-7.434 -0.024,-11.15 0.973,3.016 1.165,4.353 1.417,5.93 2.02,-4.49 0.64,-7.009 0.756,-10.323 0.232,1.748 0.77,3.409 1.441,5.032 1.113,-2.469 1.429,-5.257 1.725,-8.103 l -0.236,6.189 c 1.109,-2.858 4.122,-6.55 6.189,-9.827 -2.043,3.649 -4.624,7.083 -6.095,10.961 2.618,-2.426 4.883,-3.909 7.323,-5.859 -4.36,3.938 -7.829,7.255 -10.489,13.371 2.589,-2.404 4.429,-3.403 6.567,-4.961 -2.795,2.41 -5.438,5.189 -7.3,8.221 2.863,-1.652 3.665,-1.763 5.457,-2.457 -4.307,2.459 -7.707,6.837 -11.511,11.347 z"
       class="K"
       id="path168" />
    <path
       d="m 20.066,208.665 c 1.033,3.962 0.331,10.278 2.802,12.167 -1.804,2.142 -1.993,6.582 -3.513,9.244 3.219,-1.001 7.685,0.088 12.988,-1.456 l -0.815,6.877 c 7.686,-2.752 21.023,1.652 26.94,-1.082 -1.193,-8.693 -4.977,-12.116 -4.48,-19.465 -1.131,1.025 -3.046,0.476 -3.784,1.971 1.434,-3.801 -5.855,-6.094 -6.879,-13.007 -0.982,0.782 -2.234,1.662 -2.694,4.144 -0.969,-1.702 -2.738,-3.203 -3.421,-4.881 -1.508,1.571 -3.549,1.646 -4.413,5.109 -6.633,-1.505 -9.615,1.309 -12.732,0.378 z"
       class="D G H"
       id="path170" />
    <path
       d="m 56.596,235.013 c -8.011,-6.131 -16.803,-6.242 -18.467,-5.96 3.124,-0.936 5.114,-0.9 7.418,-1.134 -2.564,-1.39 -5.797,-3.504 -11.803,-3.63 3.164,-0.43 6.302,-0.188 9.421,0.585 -3.585,-2.352 -8.946,-5.789 -17.131,-7.065 3.785,0.152 7.318,0.557 10.536,1.276 -2.889,-2.603 -7.873,-4.735 -11.835,-7.087 3.362,1.453 7.377,2.674 9.993,4.299 0.036,-1.714 -0.847,-3.336 -1.573,-4.883 1.427,2.826 3.649,5.354 5.758,7.924 l -0.452,-6.537 c 0.743,4.48 1.947,8.429 4.725,10.566 0.526,-2.453 -0.167,-5.108 -0.661,-7.731 0.93,1.491 1.836,9.733 4.712,12.014 0.758,0.601 -0.394,-2.274 -0.284,-6.178 1.741,4.131 0.15,8.759 11.216,13.076 z"
       class="K"
       id="path172" />
    <path
       d="m 62.217,248.141 c -2.512,-4.696 -3.245,-10.913 -5.155,-14.815 1.046,-0.718 3.477,-0.811 5.345,-0.167 -3.884,-2.357 -3.285,-8.349 -5.546,-13.664 2.314,0.448 4.427,-1.159 5.947,-0.067 -1.217,-2.193 -2.837,-4.139 -3.541,-6.648 1.948,-0.686 4.884,-1.988 8.007,-0.889 -0.071,-7.442 6.517,-8.846 6.626,-10.637 3.058,3.888 5.203,8.107 4.811,12.161 1.7,-0.091 3.466,0.026 5.479,0.935 -0.113,5.609 -3.549,9.051 -4.112,13.168 2.413,-0.866 3.881,0.732 5.314,1.398 -2.908,4.871 -4.697,11.598 -9.154,13.531 0.642,-0.018 1.587,-0.176 2.347,0.041 -0.917,1.602 -1.977,3.305 -3.951,5.653 z"
       class="D G H"
       id="path174" />
    <path
       d="m 69.123,248.141 c 1.013,-6.577 -1.8,-10.456 -3.925,-14.669 1.438,0.853 3.059,3.413 4.619,5.459 -0.277,-5.214 -3.584,-9.688 -5.873,-14.225 l 5.306,7.453 c -0.301,-7.835 -2.92,-9.427 -4.705,-13.266 1.515,1.537 3.029,3.629 4.544,5.579 -0.253,-4.157 -0.871,-7.871 -2.005,-10.958 1.011,2.471 2.094,4.9 2.806,7.55 0.8,-5.752 2.237,-9.592 3.374,-14.332 -0.908,5.333 -2.213,10.547 -2.56,16.049 2.197,-4.218 4.394,-7.432 6.591,-10.335 -4.34,5.507 -5.701,14.527 -6.756,20.765 3.793,-6.637 4.642,-6.815 6.331,-8.835 -3.101,3.354 -4.815,8.789 -5.575,12.993 2.155,-2.306 4.144,-4.047 5.859,-4.843 -3.499,2.948 -6.665,9.614 -7.521,15.828 z"
       class="K"
       id="path176" />
  </g>
  <g
     id="g1747">
    <path
       d="m 62.642,242.68 4.636,32.137 H 47.975 l -6.60852,-38.10991 c 0.691,3.985 5.75752,2.44891 10.31652,2.21391 5.418,-0.279 10.179,-0.972 10.959,3.759 z"
       class="M"
       id="path1731"
       sodipodi:nodetypes="cccccc"
       style="fill:#a88848;stroke:#705a30" />
    <path
       d="m 203.352,230.41438 -2.251,35.79762 h 32.253 L 218.991,228.34157 H 208.03 c -3.016,0 -4.678,0.24281 -4.678,2.07281 z"
       class="W"
       id="path236"
       sodipodi:nodetypes="ccccsc"
       style="fill:#a88848;stroke:#705a30" />
    <path
       d="m 191.88,242.68 -4.636,32.137 h 19.303 l 6.60852,-38.10991 c -0.691,3.985 -5.75752,2.44891 -10.31652,2.21391 -5.418,-0.279 -10.179,-0.972 -10.959,3.759 z"
       class="M"
       id="path238"
       sodipodi:nodetypes="cccccc"
       style="fill:#a88848;stroke:#705a30" />
    <path
       d="m 63.429,248.141 h -5.542 c -1.991,0 -2.531,-1.02 -2.531,-2.059 0,-1.956 5.325,-1.399 7.286,-3.402 z"
       class="B F M V"
       id="path250" />
    <path
       d="m 199.166,246.082 c 0,1.039 -0.54,2.059 -2.531,2.059 h -5.543 -60.71 l -3.121,3.768 -3.121,-3.768 H 63.43 57.887 c -1.991,0 -2.531,-1.02 -2.531,-2.059 v 30.589 c 0,1.531 0.765,2.653 2.531,2.653 h 65.334 l 4.04,2.732 4.04,-2.732 h 65.334 c 1.766,0 2.531,-1.121 2.531,-2.653 z"
       class="B F M Q"
       id="path252" />
    <path
       d="m 76.139,269.234 5.05,-0.908 q 0.637,2.142 3.271,2.142 2.051,0 2.051,-1.09 0,-0.571 -0.48,-0.883 -0.467,-0.324 -1.688,-0.571 -4.66,-0.895 -5.984,-2.337 -1.324,-1.441 -1.324,-3.388 0,-2.505 1.895,-4.167 1.908,-1.662 5.478,-1.662 5.413,0 7.153,4.349 l -4.505,1.363 q -0.701,-1.778 -2.843,-1.778 -1.778,0 -1.778,1.104 0,0.493 0.402,0.766 0.402,0.273 1.558,0.519 3.18,0.674 4.518,1.194 1.337,0.519 2.233,1.778 0.895,1.246 0.895,2.947 0,2.687 -2.181,4.362 -2.181,1.662 -5.725,1.662 -6.478,0 -7.997,-5.4 z m 30.403,0.779 v 4.349 H 94.119 v -17.72 h 5.439 v 13.371 z m 15.228,0.117 v 4.232 h -13.332 v -17.72 h 13.332 v 4.089 h -7.997 v 2.57 h 6.465 v 3.933 h -6.465 v 2.895 z m 21.419,-13.488 v 17.72 h -5.05 v -12.67 l -3.284,12.67 h -3.453 l -3.401,-12.67 v 12.67 h -4.076 v -17.72 h 7.101 l 2.57,9.412 2.454,-9.412 z m 12.865,17.72 -1,-3.492 h -4.751 l -1.065,3.492 h -4.414 l 5.478,-17.72 h 5.751 l 5.543,17.72 z m -4.829,-7.361 h 2.882 l -1.441,-5.141 z m 27.157,7.361 h -4.427 l -4.855,-7.828 q -0.935,-1.506 -1.882,-3.661 0.428,1.714 0.428,2.908 v 8.581 h -4.414 v -17.72 h 5.141 l 4.128,6.491 q 1.233,1.934 1.869,3.401 -0.416,-2.272 -0.416,-4.647 v -5.245 h 4.427 z"
       class="C"
       id="path254" />
    <path
       d="m 191.092,248.141 h 5.543 c 1.991,0 2.531,-1.02 2.531,-2.059 0,-1.956 -5.325,-1.399 -7.286,-3.402 z"
       class="B"
       id="path242"
       style="fill:#563c09;stroke:#705a30;stroke-width:0.7" />
    <path
       d="m 202.838,238.922 c 4.559,0.235 9.62652,1.77009 10.31752,-2.21491 1.186,-4.646 -10.03852,-1.64269 -9.80352,-6.29271 z"
       id="path244"
       sodipodi:nodetypes="cccc"
       style="fill:#563c09;stroke:#705a30;stroke-width:0.7" />
  </g>
  <g
     id="g1829">
    <g
       transform="rotate(-24.38,-74.627917,254.99517)"
       class="L N"
       id="g270">
      <path
         d="m 238.933,211.457 c -6.628,-2.982 -9.447,-6.614 -9.7,-9.24 -0.698,-7.255 -0.655,-13.475 -5.663,-21.599 6.509,4.761 12.384,6.802 18.851,15.563 2.127,3.783 4.174,8.96 0.029,13.898 3.853,8.74 5.5128,14.49991 4.8298,21.05991 -0.549,-0.196 -3.27836,3.71718 -3.26436,3.29018 4.695,-3.182 -4.06444,-21.77909 -5.08144,-22.97209 z"
         class="X"
         id="path262"
         sodipodi:nodetypes="ccccccccc" />
      <g
         stroke="none"
         id="g268">
        <path
           d="m 228.021,187.403 c 0.938,3.314 2.195,7.58 1.996,13.039 -0.114,3.142 3.143,6.414 5.224,7.514 0.364,-5.124 0.483,-11.873 -7.22,-20.553 z"
           class="I"
           id="path264" />
        <path
           d="m 237.388,208.788 c 8.04,-2.41 -0.853,-15.869 -6.767,-20.149 8.155,9.782 8.692,16.964 6.767,20.149 z"
           class="E"
           id="path266" />
      </g>
    </g>
    <g
       class="L"
       id="g190"
       transform="translate(-16.723,-69.32)">
      <g
         transform="rotate(-45.504,156.396,208.324)"
         id="g186">
        <path
           d="m 226.243,249.47 c 4.95,-1.4 8.317,-2.624 10.615,-6.113 3.131,-3.898 -0.823,-15.53 7.867,-26.736 -8.027,5.771 -15.005,11.678 -18.92,19.803 -2.063,3.989 -1.353,9.48 -1.187,11.359 l -2.966,8.288 1.547,1.544 z"
           class="N S"
           id="path178" />
        <g
           stroke="none"
           id="g184">
          <path
             d="m 233.472,228.371 c -2.873,2.477 -4.142,4.605 -5.596,6.999 -2.069,3.49 -1.855,4.998 -2.121,8.189 2.949,-2.674 3.007,-2.356 5.092,-5.642 1.737,-4.08 2.415,-6.908 2.624,-9.546 z"
             class="I"
             id="path180" />
          <path
             d="m 226.084,245.312 c 6.559,5.186 10.002,-9.03 9.476,-15.509 -4.109,12.224 -5.249,14.519 -9.476,15.509 z"
             class="E"
             id="path182" />
        </g>
      </g>
      <path
         d="m 222.438,187.603 c -0.252,-5.138 -7.322,-16.225 -10.205,-19.248 -3.232,-3.883 -10.62,-6.828 -16.17,-10.493 0.031,5.123 1.775,16.544 10.647,24.087 3.423,2.907 13.787,8.629 15.656,8.89 l 8.166,4.421 0.908,-1.728 z"
         class="N S"
         id="path188" />
    </g>
    <path
       d="m 182.468,100.069 c 2.95,4.801 6.951,12.65 19.041,17.245 -2.915,-2.257 -6.39,-3.917 -10.938,-9.969 -4.14,-5.51 -4.74,-7.012 -8.103,-7.276 z"
       class="I"
       id="path192" />
    <path
       d="m 183.413,94.579 c 15.22,6.117 18.91,18.54 18.723,22.877 -0.696,-0.432 -2.288,-1.276 -2.559,-2.116 -3.973,-12.306 -10.332,-16.101 -16.163,-20.761 z"
       class="E"
       id="path194" />
    <path
       d="m 222.96,143.21 c -8.008,-1.15 -8.551,-3.866 -10.984,-8.566 -2.535,-7.013 -0.318,-13.88 -5.326,-22.005 6.509,4.761 12.384,6.802 18.851,15.563 2.127,3.783 4.174,8.96 0.029,13.898 0.857,6.657 0.161,4.362 3.42,12.753 -0.549,-0.196 -1.921,1.057 -2.071,0.657 -2.239,-5.946 -1.61,-4.941 -3.919,-12.3 z"
       class="L N X"
       id="path196" />
    <path
       d="m 211.562,120.917 c 0.835,9.89 2.843,18.195 9.418,20.533 -6.223,-7.638 -7.689,-14.582 -9.418,-20.533 z"
       class="I"
       id="path198" />
    <path
       d="m 223.143,140.95 c 8.04,-2.41 -3.659,-16.284 -9.573,-20.564 8.155,9.782 11.498,17.378 9.573,20.564 z"
       class="E"
       id="path200" />
    <path
       d="m 227.012,161.764 c -2.122,-3.31 -3.837,-10.874 -2.408,-16.545 0.579,-1.761 9.14,-11.285 10.998,-21.564 1.64,8.146 4.193,14.494 3.005,26.211 -1.021,4.665 -3.192,9.025 -8.529,12.551 -4.001,6.495 -5.849,11.171 -11.514,16.541 -0.282,-0.502 -1.337,-0.885 -1.104,-1.311 3.551,-6.504 6.17,-7.895 9.554,-15.883 z"
       stroke-width="0.185"
       class="L N"
       id="path202" />
    <path
       d="m 233.917,134.154 c -2.375,5.573 -6.777,9.008 -7.634,11.87 -1.193,4.16 0.014,8.584 0.112,12.044 1.344,-4.331 0.008,-5.538 1.288,-9.494 0.668,-2.487 7.286,-4.933 6.234,-14.42 z"
       class="I"
       id="path204" />
    <path
       d="m 227.834,159.626 c 9.284,4.067 9.641,-18.385 8.119,-25.744 -0.614,13.638 -4.112,24.742 -8.119,25.744 z"
       class="E"
       id="path206" />
    <g
       id="g1789">
      <path
         d="m 216.524,176.552 c -9.21,-2.685 -10.215,-18.726 -8.62,-29.56 3.815,12.654 10.947,15.487 12.509,18.96 0.656,2.127 0.369,5.111 -1.249,10.131 0.816,6.983 1.273,8.602 0.904,16.837 l -2.065,1.851 c 0.761,-9.703 -0.161,-11.508 -1.479,-18.22 z"
         fill="#c89d46"
         class="L S"
         id="path256" />
      <path
         d="m 208.697,159.464 c -0.083,3.792 0.817,6.249 1.622,8.93 1.208,3.873 3.083,3.487 4.872,6.225 -0.027,-3.563 0.236,-3.415 -0.809,-7.163 -1.868,-4.022 -3.866,-6.072 -5.685,-7.992 z"
         class="I"
         id="path258" />
      <path
         d="m 218.224,173.244 c 4.346,-3.074 -3.203,-10.755 -7.468,-14.425 5.092,7.293 7.772,10.234 7.468,14.425 z"
         class="E"
         id="path260" />
    </g>
    <path
       d="m 222.101,189.427 c -0.844,-3.504 -1.023,-10.279 1.637,-15.084 0.936,-1.46 10.371,-8.573 14.6,-17.456 -0.827,7.776 1.038,13.418 -3.029,23.764 -2.063,3.989 -5.139,7.778 -10.401,9.712 -4.965,4.944 -8.488,10.03 -14.504,13.559 -1.225,-6.665 6.426,-7.504 11.698,-14.495 z"
       fill="#c89d46"
       class="L S"
       id="path208" />
    <path
       d="m 233.059,168.179 c -2.873,2.477 -6.213,4.981 -7.666,7.374 -2.069,3.49 -1.72,6.336 -2.557,9.498 5.554,-2.279 6.3,-4.532 8.386,-7.818 1.737,-4.08 1.628,-6.417 1.837,-9.054 z"
       class="I"
       id="path210" />
    <path
       d="m 223.101,187.878 c 6.453,5.887 12.688,-14.392 13.402,-21.428 -4.109,12.224 -9.886,21.468 -13.402,21.428 z"
       class="E"
       id="path212" />
    <g
       stroke="#054427"
       stroke-width="0.2"
       id="g234"
       transform="translate(-16.723,-69.32)">
      <path
         d="m 242.415,299.369 c -9.37276,-15.23911 -22.79824,1.64502 -27.413,0.029 -1.658,1.373 -3.096,2.603 -4.337,3.82 10.28431,2.72384 22.12598,-10.84628 31.749,-3.849 z"
         class="D J"
         id="path214"
         sodipodi:nodetypes="ccccc" />
      <path
         d="m 212.593,301.44 c 8.871,2.95 18.97,-13.422 29.019,-2.993"
         fill="none"
         id="path216" />
      <g
         class="D"
         id="g222">
        <path
           d="m 195.789,317.461 c -0.863,-18.537 12.957,-27.214 21.928,-32.556 4.614,-2.747 14.732,-23.505 24.185,-23.668 3.219,1.149 2.346,4.402 3.496,6.615 -1.135,-1.281 -3.194,-0.958 -5.181,1.146 -6.969,7.377 -15.824,22.582 -19.051,25.307 -11.057,9.337 -15.651,11.377 -17.061,23.157 z"
           class="J"
           id="path218" />
        <path
           d="m 210.593,235.987 c 1.466,9.641 9.555,16.189 15.145,39.124 l 2.878,-3.805 c -0.217,-17.21 -9.361,-35.268 -9.658,-38.621 -0.843,-9.519 -1.048,-19.809 -2.171,-24.886 -3.96,7.913 -7.627,18.769 -6.195,28.188 z"
           class="J"
           id="path220" />
      </g>
      <path
         d="m 199.947,317.461 c 1.858,-17.004 9.592,-20.002 19.667,-28.747 7.458,-6.473 17.187,-24.946 24.637,-25.135"
         fill="none"
         id="path224" />
      <path
         d="m 238.428,285.492 c 9.901,-7.938 5.821,-19.853 6.971,-17.64 -1.135,-1.281 -3.194,-0.958 -5.181,1.146 a 44.52,44.52 0 0 0 -0.999,1.095 c 0.313,5.015 0.745,6.534 -0.791,15.399 z"
         fill="#005e33"
         class="J"
         id="path226" />
      <path
         d="m 238.428,285.492 c 3.434,-8.288 4.955,-10.299 3.644,-17.951"
         fill="none"
         id="path228" />
      <path
         d="m 210.862,289.295 5.674,-3.67 c 8.489,-15.337 -11.051,-28.38 0.217,-35.224 -17.845,7.965 1.59,14.702 -5.891,38.894 z"
         class="D J"
         id="path230" />
      <path
         d="m 214.164,287.078 c 6.609,-25.856 -12.474,-24.944 2.589,-36.676 m 10.373,22.84 c -5.622,-32.992 -10.373,-27.077 -12.885,-41.127 -0.951,-5.322 0.767,-13.771 2.547,-24.316"
         fill="none"
         id="path232" />
    </g>
  </g>
</svg>
