<?xml version="1.0" encoding="UTF-8" standalone="no"?>
<svg
   xmlns:dc="http://purl.org/dc/elements/1.1/"
   xmlns:cc="http://creativecommons.org/ns#"
   xmlns:rdf="http://www.w3.org/1999/02/22-rdf-syntax-ns#"
   xmlns:svg="http://www.w3.org/2000/svg"
   xmlns="http://www.w3.org/2000/svg"
   xmlns:xlink="http://www.w3.org/1999/xlink"
   xmlns:sodipodi="http://sodipodi.sourceforge.net/DTD/sodipodi-0.dtd"
   xmlns:inkscape="http://www.inkscape.org/namespaces/inkscape"
   width="345.15607"
   height="458.64182"
   viewBox="0 0 91.322078 121.34948"
   version="1.1"
   id="svg245"
   sodipodi:docname="Seal of Kebumen Regency (1).svg"
   inkscape:version="1.0.1 (3bc2e813f5, 2020-09-07)">
  <metadata
     id="metadata249">
    <rdf:RDF>
      <cc:Work
         rdf:about="">
        <dc:format>image/svg+xml</dc:format>
        <dc:type
           rdf:resource="http://purl.org/dc/dcmitype/StillImage" />
        <dc:title></dc:title>
      </cc:Work>
    </rdf:RDF>
  </metadata>
  <sodipodi:namedview
     pagecolor="#ffffff"
     bordercolor="#666666"
     borderopacity="1"
     objecttolerance="10"
     gridtolerance="10"
     guidetolerance="10"
     inkscape:pageopacity="0"
     inkscape:pageshadow="2"
     inkscape:window-width="1366"
     inkscape:window-height="705"
     id="namedview247"
     showgrid="false"
     inkscape:zoom="1.2787695"
     inkscape:cx="81.031135"
     inkscape:cy="418.48908"
     inkscape:window-x="-8"
     inkscape:window-y="-8"
     inkscape:window-maximized="1"
     inkscape:current-layer="svg245"
     inkscape:document-rotation="0"
     fit-margin-top="0"
     fit-margin-left="0"
     fit-margin-right="0"
     fit-margin-bottom="0" />
  <style
     id="style2"><![CDATA[.B{opacity:.998}.C{stroke-linejoin:round}.D{fill-rule:evenodd}.E{fill:#fff}.F{stroke-width:.385}.G{stroke-width:.416}.H{fill:gold}.I{fill:none}.J{fill:#37dd60}.K{stroke:#000}.L{stroke-linecap:round}.M{fill:#ffed00}.N{opacity:.995}.O{stroke-width:.265}.P{stroke-width:.794}]]></style>
  <path
     d="M 0.66104429,0.66146106 V 72.550461 c 0,25.503 26.23599971,42.739999 44.99999971,48.110999 18.764,-5.37 45,-22.607999 45,-48.110999 V 0.66146106 h -45 z"
     opacity="0.999"
     stroke-width="1.323"
     class="C D K M"
     id="path4"
     style="stroke-width:1.32292;stroke-linejoin:miter;stroke-miterlimit:4;stroke-dasharray:none" />
  <g
     id="g1413"
     style="stroke-width:1.00013;stroke-miterlimit:4;stroke-dasharray:none"
     transform="translate(0.52904429,0.52946106)">
    <g
       transform="matrix(1.010986,0,0,1.013511,-0.500789,-0.149141)"
       id="g22"
       style="stroke-width:0.988028;stroke-miterlimit:4;stroke-dasharray:none">
      <path
         d="M 76.087,16.242 V 4.893 h 2.25 l 4.688,7.579 V 4.893 h 2.149 V 16.242 H 82.853 L 78.235,8.841 v 7.401 z m -10.973,0 V 4.893 h 8.493 v 1.92 h -6.181 v 2.516 h 5.751 v 1.912 h -5.751 v 3.089 h 6.399 v 1.912 z m -13.638,0 V 4.893 h 3.461 l 2.078,7.741 2.055,-7.741 h 3.469 V 16.242 H 60.39 V 7.309 l -2.274,8.934 H 55.889 L 53.623,7.309 v 8.934 z M 39.659,4.893 h 2.313 v 6.147 q 0,1.463 0.086,1.897 0.148,0.697 0.703,1.122 0.563,0.418 1.531,0.418 0.985,0 1.485,-0.395 0.5,-0.403 0.602,-0.983 0.102,-0.581 0.102,-1.928 V 4.893 h 2.313 v 5.961 q 0,2.044 -0.188,2.888 -0.188,0.844 -0.695,1.424 -0.5,0.581 -1.344,0.929 -0.844,0.341 -2.203,0.341 -1.641,0 -2.493,-0.372 -0.844,-0.379 -1.336,-0.975 -0.492,-0.604 -0.649,-1.262 -0.227,-0.975 -0.227,-2.88 z m -11.809,0 h 4.579 q 1.36,0 2.024,0.116 0.672,0.108 1.195,0.464 0.531,0.356 0.883,0.952 0.352,0.588 0.352,1.324 0,0.797 -0.438,1.463 -0.43,0.666 -1.172,0.999 1.047,0.302 1.61,1.03 0.563,0.728 0.563,1.711 0,0.774 -0.367,1.51 -0.359,0.728 -0.992,1.169 -0.625,0.434 -1.547,0.534 -0.578,0.062 -2.789,0.077 h -3.899 z m 2.313,1.889 v 2.624 h 1.516 q 1.352,0 1.68,-0.039 0.594,-0.07 0.93,-0.403 0.344,-0.341 0.344,-0.89 0,-0.526 -0.297,-0.852 Q 34.047,6.889 33.469,6.819 33.125,6.78 31.492,6.78 Z m 0,4.513 v 3.035 h 2.141 q 1.25,0 1.586,-0.07 0.516,-0.093 0.836,-0.449 0.328,-0.364 0.328,-0.968 0,-0.511 -0.25,-0.867 -0.25,-0.356 -0.727,-0.519 -0.469,-0.163 -2.047,-0.163 z M 16.892,16.242 V 4.893 h 8.493 v 1.92 h -6.181 v 2.516 h 5.751 v 1.912 h -5.751 v 3.089 h 6.399 v 1.912 z m -11.802,0 V 4.893 h 2.313 v 5.04 l 4.673,-5.04 h 3.11 l -4.313,4.42 4.548,6.929 H 12.428 L 9.279,10.916 7.404,12.813 v 3.429 z"
         id="path6"
         style="stroke-width:0.988028;stroke-miterlimit:4;stroke-dasharray:none" />
      <path
         d="M 5.09,4.225 A 0.668,0.668 0 0 0 4.422,4.893 v 11.35 A 0.668,0.668 0 0 0 5.09,16.911 H 7.403 A 0.668,0.668 0 0 0 8.071,16.243 V 13.089 L 9.145,12 l 2.709,4.582 a 0.668,0.668 0 0 0 0.574,0.328 h 2.992 a 0.668,0.668 0 0 0 0.559,-1.035 L 11.725,9.396 15.664,5.359 A 0.668,0.668 0 0 0 15.185,4.224 h -3.109 a 0.668,0.668 0 0 0 -0.49,0.215 L 8.07,8.23 V 4.893 A 0.668,0.668 0 0 0 7.402,4.225 Z m 11.801,0 a 0.668,0.668 0 0 0 -0.668,0.668 v 11.35 a 0.668,0.668 0 0 0 0.668,0.668 h 8.713 a 0.668,0.668 0 0 0 0.668,-0.668 V 14.33 a 0.668,0.668 0 0 0 -0.668,-0.668 h -5.73 V 11.91 h 5.082 a 0.668,0.668 0 0 0 0.668,-0.668 V 9.33 A 0.668,0.668 0 0 0 24.956,8.662 H 19.874 V 7.48 h 5.512 A 0.668,0.668 0 0 0 26.054,6.812 V 4.892 A 0.668,0.668 0 0 0 25.386,4.224 Z m 10.959,0 a 0.668,0.668 0 0 0 -0.668,0.668 v 11.35 a 0.668,0.668 0 0 0 0.668,0.668 h 3.898 a 0.668,0.668 0 0 0 0.004,0 l 2.855,-0.082 a 0.668,0.668 0 0 0 0.002,0 c 0.701,-0.076 1.332,-0.285 1.855,-0.648 a 0.668,0.668 0 0 0 0.002,0 3.74,3.74 0 0 0 1.209,-1.42 v -0.002 a 4.03,4.03 0 0 0 0.438,-1.805 c 0,-0.783 -0.237,-1.519 -0.701,-2.119 A 3.39,3.39 0 0 0 36.478,10.026 C 36.643,9.861 36.877,9.774 37.005,9.575 37.362,9.03 37.55,8.402 37.55,7.751 37.55,7.154 37.402,6.583 37.105,6.085 36.825,5.61 36.456,5.215 36.017,4.921 35.587,4.629 35.092,4.439 34.56,4.353 34.043,4.263 33.351,4.226 32.427,4.226 Z m 11.809,0 a 0.668,0.668 0 0 0 -0.668,0.668 v 6.055 c 0,1.296 0.071,2.286 0.244,3.029 a 0.668,0.668 0 0 0 0,0.004 c 0.13,0.547 0.4,1.061 0.781,1.529 a 0.668,0.668 0 0 0 0.002,0.004 c 0.403,0.488 0.94,0.873 1.578,1.16 a 0.668,0.668 0 0 0 0.006,0.002 c 0.713,0.311 1.618,0.428 2.762,0.428 0.962,0 1.775,-0.115 2.453,-0.389 a 0.668,0.668 0 0 0 0.004,-0.002 c 0.639,-0.264 1.181,-0.632 1.592,-1.107 v -0.002 c 0.417,-0.477 0.7,-1.062 0.846,-1.717 0.15,-0.674 0.203,-1.65 0.203,-3.033 V 4.893 A 0.668,0.668 0 0 0 48.794,4.225 H 46.48 a 0.668,0.668 0 0 0 -0.668,0.668 v 6.279 c 0,0.881 -0.039,1.512 -0.092,1.813 -0.04,0.228 -0.133,0.392 -0.357,0.574 -0.168,0.131 -0.504,0.25 -1.07,0.25 -0.547,0 -0.899,-0.115 -1.127,-0.283 A 1.14,1.14 0 0 1 42.711,12.801 C 42.682,12.65 42.639,12 42.639,11.041 V 4.893 A 0.668,0.668 0 0 0 41.971,4.225 Z m 11.818,0 a 0.668,0.668 0 0 0 -0.668,0.668 v 11.35 a 0.668,0.668 0 0 0 0.668,0.668 h 2.148 a 0.668,0.668 0 0 0 0.668,-0.668 v -3.586 l 0.951,3.75 a 0.668,0.668 0 0 0 0.646,0.504 h 2.227 a 0.668,0.668 0 0 0 0.646,-0.504 l 0.959,-3.768 v 3.604 a 0.668,0.668 0 0 0 0.668,0.668 h 2.15 a 0.668,0.668 0 0 0 0.668,-0.668 V 4.893 A 0.668,0.668 0 0 0 62.54,4.225 h -3.47 a 0.668,0.668 0 0 0 -0.646,0.496 l -1.412,5.322 -1.43,-5.324 A 0.668,0.668 0 0 0 54.937,4.225 Z m 13.637,0 a 0.668,0.668 0 0 0 -0.668,0.668 v 11.35 a 0.668,0.668 0 0 0 0.668,0.668 h 8.713 a 0.668,0.668 0 0 0 0.668,-0.668 V 14.33 A 0.668,0.668 0 0 0 73.827,13.662 H 68.095 V 11.91 h 5.084 a 0.668,0.668 0 0 0 0.668,-0.668 V 9.33 A 0.668,0.668 0 0 0 73.179,8.662 H 68.095 V 7.48 h 5.514 A 0.668,0.668 0 0 0 74.277,6.812 V 4.892 A 0.668,0.668 0 0 0 73.609,4.224 Z m 10.975,0 a 0.668,0.668 0 0 0 -0.668,0.668 v 11.35 a 0.668,0.668 0 0 0 0.668,0.668 h 2.148 a 0.668,0.668 0 0 0 0.668,-0.668 v -5.068 l 3.383,5.422 a 0.668,0.668 0 0 0 0.566,0.314 h 2.32 a 0.668,0.668 0 0 0 0.668,-0.668 V 4.893 A 0.668,0.668 0 0 0 85.174,4.225 h -2.148 a 0.668,0.668 0 0 0 -0.668,0.668 v 5.229 L 78.907,4.542 A 0.668,0.668 0 0 0 78.339,4.226 Z M 30.83,7.451 h 0.66 l 1.896,0.033 c 0.273,0.033 0.38,0.103 0.443,0.176 a 0.668,0.668 0 0 0 0.01,0.014 c 0.077,0.084 0.123,0.175 0.123,0.4 0,0.225 -0.045,0.316 -0.146,0.416 -0.101,0.1 -0.249,0.179 -0.537,0.213 -0.114,0.013 -0.707,0.035 -1.602,0.035 h -0.848 z m 0,4.512 h 1.199 c 1.029,0 1.733,0.094 1.828,0.127 a 0.668,0.668 0 0 0 0.004,0.002 c 0.212,0.072 0.316,0.157 0.395,0.27 0.079,0.113 0.129,0.251 0.129,0.482 0,0.282 -0.06,0.413 -0.156,0.52 -0.114,0.127 -0.238,0.199 -0.459,0.238 a 0.668,0.668 0 0 0 -0.016,0.004 c -0.064,0.013 -0.63,0.057 -1.451,0.057 H 30.83 Z"
         id="path8"
         style="stroke-width:0.988028;stroke-miterlimit:4;stroke-dasharray:none" />
      <g
         class="E"
         id="g20"
         style="stroke-width:0.988028;stroke-miterlimit:4;stroke-dasharray:none">
        <path
           d="M 5.09,16.242 V 4.893 h 2.313 v 5.04 l 4.673,-5.04 h 3.11 l -4.313,4.42 4.548,6.929 H 12.428 L 9.279,10.916 7.404,12.813 v 3.429 z"
           id="path10"
           style="stroke-width:0.988028;stroke-miterlimit:4;stroke-dasharray:none" />
        <use
           xlink:href="#B"
           id="use12"
           style="stroke-width:0.988028;stroke-miterlimit:4;stroke-dasharray:none"
           x="0"
           y="0"
           width="100%"
           height="100%" />
        <path
           d="m 27.849,4.893 h 4.579 q 1.36,0 2.024,0.116 0.672,0.108 1.195,0.464 0.531,0.356 0.883,0.952 0.352,0.588 0.352,1.324 0,0.797 -0.438,1.463 -0.43,0.666 -1.172,0.999 1.047,0.302 1.61,1.03 0.563,0.728 0.563,1.711 0,0.774 -0.367,1.51 -0.359,0.728 -0.992,1.169 -0.625,0.434 -1.547,0.534 -0.578,0.062 -2.789,0.077 h -3.899 z m 2.313,1.889 v 2.624 h 1.516 q 1.352,0 1.68,-0.039 0.594,-0.07 0.93,-0.403 0.344,-0.341 0.344,-0.89 0,-0.526 -0.297,-0.852 Q 34.046,6.889 33.468,6.819 33.124,6.78 31.491,6.78 Z m 0,4.513 v 3.035 h 2.141 q 1.25,0 1.586,-0.07 0.516,-0.093 0.836,-0.449 0.328,-0.364 0.328,-0.968 0,-0.511 -0.25,-0.867 -0.25,-0.356 -0.727,-0.519 -0.469,-0.163 -2.047,-0.163 z m 9.497,-6.402 h 2.313 v 6.147 q 0,1.463 0.086,1.897 0.148,0.697 0.703,1.122 0.563,0.418 1.531,0.418 0.985,0 1.485,-0.395 0.5,-0.403 0.602,-0.983 0.102,-0.581 0.102,-1.928 V 4.893 h 2.313 v 5.961 q 0,2.044 -0.188,2.888 -0.188,0.844 -0.695,1.424 -0.5,0.581 -1.344,0.929 -0.844,0.341 -2.203,0.341 -1.641,0 -2.493,-0.372 -0.844,-0.379 -1.336,-0.975 -0.492,-0.604 -0.649,-1.262 -0.227,-0.975 -0.227,-2.88 z M 51.476,16.242 V 4.893 h 3.461 l 2.078,7.741 2.055,-7.741 h 3.469 V 16.242 H 60.39 V 7.309 l -2.274,8.934 H 55.889 L 53.623,7.309 v 8.934 z"
           id="path14"
           style="stroke-width:0.988028;stroke-miterlimit:4;stroke-dasharray:none" />
        <use
           xlink:href="#B"
           x="48.222"
           id="use16"
           style="stroke-width:0.988028;stroke-miterlimit:4;stroke-dasharray:none"
           y="0"
           width="100%"
           height="100%" />
        <path
           d="M 76.087,16.242 V 4.893 h 2.25 l 4.688,7.579 V 4.893 h 2.149 V 16.242 H 82.853 L 78.235,8.841 v 7.401 z"
           id="path18"
           style="stroke-width:0.988028;stroke-miterlimit:4;stroke-dasharray:none" />
      </g>
    </g>
  </g>
  <path
     d="m 4.9520443,72.160461 v 0.39 c 0,3.306 0.499,6.463 1.409,9.466 H 84.961044 c 0.91,-3.004 1.409,-6.16 1.409,-9.466 v -0.39 z m 63.7759997,-52.179 h 17.642 v 50.09 h -17.642 z m -63.7759997,0 H 22.594044 v 50.09 H 4.9520443 Z m 2.117,64.125 c 2.394,6.38 6.6569997,12.027 11.9559997,16.886999 7.939,7.283 18.131,12.534 26.636,15.165 8.505,-2.632 18.696,-7.882 26.636,-15.165 5.299,-4.860999 9.562,-10.506999 11.956,-16.886999 z"
     fill="#307b29"
     class="D K N P"
     id="path24" />
  <g
     id="g1342"
     transform="translate(0.52904429,0.52946106)">
    <path
       d="m 16.59,21.973 c 0.129,0.007 0.238,0.116 0.486,0.431 a 6.83,6.83 0 0 1 1.262,2.76 8.46,8.46 0 0 1 0.028,2.22 c -0.262,1.673 -1.255,3.343 -2.401,4.034 -0.347,0.209 -0.839,0.403 -1.024,0.403 -0.2,0 -0.344,0.39 -0.451,1.219 -0.047,0.366 -0.216,0.943 -0.376,1.282 -0.023,0.049 -0.018,0.089 0.011,0.089 0.029,0 0.11,-0.124 0.181,-0.275 0.344,-0.738 1.35,-1.777 2.264,-2.339 1.446,-0.89 1.982,-1.345 2.453,-2.083 l 0.291,-0.457 h 0.285 c 0.285,0 0.285,0 0.428,0.254 0.139,0.247 0.143,0.282 0.14,1.32 -0.003,1.098 -0.044,1.476 -0.347,3.149 -0.179,0.986 -0.384,1.584 -0.82,2.386 -0.6,1.104 -1.442,1.944 -2.387,2.377 a 9.13,9.13 0 0 1 -1.215,0.418 c -1.235,0.324 -1.228,0.317 -1.228,1.193 0,0.646 -10e-4,0.653 -0.162,0.802 l -0.162,0.15 0.074,0.564 c 0.041,0.31 0.091,0.546 0.111,0.526 0.02,-0.02 0.107,-0.22 0.193,-0.444 a 7.45,7.45 0 0 1 0.423,-0.864 c 0.365,-0.628 1.052,-1.235 2.238,-1.978 1.16,-0.727 1.848,-1.327 2.131,-1.859 0.112,-0.211 0.248,-0.417 0.302,-0.457 0.133,-0.098 0.583,-0.096 0.655,0.004 0.306,0.424 0.329,2.032 0.053,3.727 -0.326,1.998 -0.713,3.074 -1.466,4.075 -0.865,1.15 -1.899,1.801 -3.418,2.152 -0.569,0.131 -0.713,0.185 -0.848,0.314 -0.186,0.177 -0.185,0.229 0.017,0.879 0.139,0.448 0.132,0.831 -0.025,1.346 a 2.38,2.38 0 0 0 -0.084,0.584 l 10e-4,0.305 0.299,-0.513 c 0.548,-0.941 0.935,-1.311 2.354,-2.254 1.257,-0.836 1.479,-1.018 1.92,-1.581 0.628,-0.801 0.809,-0.936 1.081,-0.807 0.272,0.129 0.31,0.305 0.332,1.549 0.025,1.356 -0.044,2.146 -0.276,3.174 -0.201,0.891 -0.485,1.675 -0.861,2.381 -0.845,1.583 -1.977,2.438 -3.738,2.826 -0.812,0.179 -0.737,0.144 -1.015,0.474 l -0.242,0.286 0.138,0.254 c 0.185,0.338 0.223,0.954 0.096,1.553 -0.114,0.543 -0.116,0.863 -0.004,1.19 0.112,0.327 0.111,0.977 -0.005,1.65 -0.077,0.448 -0.081,0.612 -0.025,1.024 0.056,0.412 0.052,0.592 -0.032,1.158 -0.126,0.845 -0.091,1.448 0.115,2.005 0.14,0.378 0.145,0.424 0.083,0.769 a 1.56,1.56 0 0 0 0.034,0.838 c 0.057,0.198 -0.19,0.418 -0.742,0.661 -0.489,0.215 -0.873,0.284 -1.101,0.198 -0.3,-0.113 -0.302,-0.53 -0.009,-1.74 0.13,-0.538 0.172,-0.835 0.164,-1.155 -0.029,-1.092 -0.017,-1.237 0.147,-1.771 0.154,-0.503 0.159,-0.547 0.095,-0.942 -0.037,-0.228 -0.068,-0.593 -0.068,-0.811 0,-0.625 -0.21,-0.891 -0.766,-0.973 C 11.806,59.569 11.06,59.348 10.687,59.182 9.883,58.825 9.175,58.245 8.628,57.495 8.059,56.715 7.781,56.122 7.494,55.074 7.135,53.763 6.98,52.558 6.979,51.069 c -0.001,-1.204 0.05,-1.397 0.365,-1.397 0.19,0 0.21,0.019 0.435,0.39 0.67,1.11 1.307,1.658 2.794,2.403 l 0.92,0.486 a 3.34,3.34 0 0 1 0.958,0.911 l 0.179,0.279 0.04,-0.33 a 4.65,4.65 0 0 1 0.134,-0.644 l 0.095,-0.314 -0.203,-0.18 C 12.584,52.574 12.461,52.4 12.423,52.286 12.34,52.04 12.275,52.005 11.796,51.937 10.037,51.687 8.584,50.578 7.741,48.842 6.834,46.973 6.348,43.677 6.777,42.317 c 0.06,-0.189 0.278,-0.438 0.385,-0.438 0.156,0 0.475,0.285 0.796,0.711 0.501,0.663 0.737,0.866 1.986,1.701 1.519,1.015 2.111,1.583 2.537,2.428 0.198,0.393 0.497,1.186 0.608,1.614 l 0.084,0.325 -0.027,-0.312 C 13.131,48.174 13.069,47.912 13.008,47.762 12.916,47.536 12.892,47.301 12.866,46.373 12.834,45.24 12.73,44.415 12.578,44.091 12.519,43.965 12.447,43.904 12.334,43.881 10.76,43.569 10.049,43.258 9.197,42.51 7.674,41.174 6.779,38.558 6.757,35.378 6.751,34.499 6.821,34.135 7.042,33.902 7.328,33.6 7.625,33.739 8.009,34.355 c 0.305,0.489 1.188,1.25 2.164,1.864 0.846,0.533 1.559,1.099 1.891,1.501 0.288,0.349 0.672,1.053 0.83,1.52 0.075,0.222 0.152,0.403 0.172,0.403 0.02,0 0.054,-0.412 0.077,-0.915 l 0.042,-0.916 -0.149,-0.265 C 12.954,37.401 12.798,37.175 12.69,37.045 12.508,36.826 12.454,36.797 11.99,36.671 L 11.137,36.393 C 9.138,35.588 7.808,33.536 7.431,30.677 7.287,29.582 7.332,27.588 7.52,26.759 c 0.073,-0.321 0.301,-0.522 0.593,-0.522 0.229,0 0.258,0.029 0.55,0.56 0.424,0.772 0.774,1.143 1.796,1.905 0.854,0.637 1.007,0.766 1.296,1.09 0.535,0.601 0.988,1.61 1.255,2.793 l 0.131,0.584 0.073,-0.353 c 0.04,-0.195 0.116,-0.453 0.168,-0.573 0.116,-0.269 0.079,-0.893 -0.09,-1.513 -0.281,-1.034 -0.293,-1.961 -0.035,-2.892 0.303,-1.095 0.824,-1.973 1.825,-3.073 0.607,-0.667 0.867,-1.15 0.985,-1.828 0.125,-0.719 0.189,-0.877 0.383,-0.937 0.054,-0.017 0.099,-0.025 0.142,-0.023 z"
       id="path26" />
    <path
       d="m 16.573,22.239 c -0.097,-0.016 -0.141,0.148 -0.191,0.482 -0.138,0.924 -0.369,1.384 -1.101,2.193 -0.914,1.01 -1.454,1.899 -1.751,2.883 -0.133,0.442 -0.15,0.591 -0.152,1.384 -0.003,0.758 0.015,0.955 0.124,1.337 a 7.73,7.73 0 0 1 0.189,0.914 c 0.063,0.475 0.057,0.516 -0.146,1.151 -0.049,0.154 -0.152,0.825 -0.229,1.492 -0.132,1.148 -0.201,1.513 -0.201,1.068 0,-0.289 -0.154,-1.425 -0.285,-2.108 C 12.535,31.502 12.076,30.457 11.399,29.774 11.266,29.64 10.769,29.24 10.296,28.885 9.295,28.135 8.841,27.658 8.454,26.95 l -0.28,-0.501 c -0.008,-0.008 -0.08,0.008 -0.16,0.035 -0.09,0.03 -0.168,0.113 -0.206,0.217 -0.191,0.526 -0.268,2.911 -0.127,3.926 0.436,3.135 1.877,5.108 4.205,5.76 0.705,0.198 0.808,0.252 1.046,0.556 0.486,0.619 0.496,0.65 0.479,1.53 a 17.27,17.27 0 0 1 -0.127,1.625 l -0.112,0.876 c 0,0.021 -0.025,0.038 -0.055,0.038 -0.03,0 -0.071,-0.085 -0.091,-0.19 C 12.749,39.387 12.384,38.496 11.775,37.777 11.419,37.356 11.088,37.1 10.001,36.401 8.962,35.733 8.148,35.043 7.86,34.587 7.619,34.206 7.411,33.953 7.337,33.953 c -0.032,0 -0.114,0.109 -0.183,0.241 -0.116,0.223 -0.125,0.314 -0.12,1.206 0.012,2.155 0.407,3.985 1.164,5.393 0.345,0.642 0.618,1.012 1.052,1.424 0.786,0.747 1.581,1.125 2.89,1.375 0.375,0.072 0.505,0.12 0.587,0.218 0.225,0.268 0.444,1.821 0.444,3.149 0,0.39 0.029,0.578 0.125,0.821 0.194,0.49 0.175,1.205 -0.054,1.992 l -0.197,0.736 C 13.034,50.578 13.007,50.269 12.986,49.822 12.94,48.857 12.841,48.316 12.577,47.601 12.224,46.645 11.727,45.905 11.096,45.399 10.932,45.268 10.34,44.853 9.779,44.477 8.569,43.667 8.185,43.335 7.707,42.681 7.51,42.412 7.312,42.179 7.265,42.163 7.058,42.092 6.944,42.468 6.902,43.354 c -0.086,1.841 0.461,4.297 1.282,5.756 0.349,0.62 0.657,0.993 1.21,1.462 0.881,0.748 1.396,0.967 2.769,1.177 0.268,0.041 0.494,0.229 0.494,0.411 0,0.093 0.08,0.205 0.257,0.36 0.141,0.124 0.257,0.247 0.257,0.273 0,0.026 -0.053,0.218 -0.117,0.426 -0.155,0.501 -0.158,1.057 -0.009,1.604 0.143,0.523 0.228,1.374 0.13,1.291 -0.036,-0.03 -0.144,-0.304 -0.241,-0.609 -0.206,-0.653 -0.695,-1.582 -0.993,-1.888 -0.269,-0.277 -0.739,-0.572 -1.6,-1.002 C 8.93,51.909 8.309,51.378 7.596,50.267 7.425,50 7.339,49.909 7.306,49.957 7.225,50.072 7.21,51.401 7.28,52.232 c 0.172,2.027 0.594,3.623 1.221,4.623 0.507,0.808 1.171,1.481 1.857,1.883 0.478,0.28 0.824,0.405 1.674,0.604 0.758,0.178 0.813,0.204 1.004,0.493 0.139,0.211 0.16,0.306 0.198,0.901 l 0.081,0.869 c 0.029,0.152 -0.008,0.36 -0.145,0.809 -0.178,0.59 -0.182,0.621 -0.143,1.319 0.038,0.691 0.033,0.743 -0.166,1.597 -0.193,0.829 -0.255,1.366 -0.167,1.444 0.071,0.063 0.358,0.034 0.649,-0.064 h 10e-4 a 3.99,3.99 0 0 0 0.577,-0.262 c 0.244,-0.139 0.284,-0.183 0.255,-0.283 l -0.07,-0.253 c -0.02,-0.073 -0.004,-0.319 0.036,-0.546 0.07,-0.398 0.067,-0.428 -0.081,-0.844 -0.206,-0.578 -0.239,-1.096 -0.12,-1.853 0.074,-0.467 0.087,-0.776 0.057,-1.32 -0.031,-0.559 -0.018,-0.83 0.06,-1.269 0.108,-0.606 0.091,-1.026 -0.055,-1.391 -0.117,-0.292 -0.112,-0.523 0.029,-1.225 0.135,-0.678 0.114,-1.007 -0.094,-1.415 -0.076,-0.15 -0.138,-0.312 -0.138,-0.359 0,-0.092 0.508,-0.704 0.637,-0.767 0.042,-0.021 0.386,-0.106 0.764,-0.191 0.766,-0.171 1.169,-0.315 1.657,-0.592 1.432,-0.814 2.476,-2.588 2.913,-4.953 a 17.02,17.02 0 0 0 0.153,-3.218 c -0.086,-0.906 -0.188,-0.941 -0.724,-0.246 -0.525,0.68 -0.99,1.079 -2.172,1.866 -1.182,0.787 -1.538,1.088 -1.946,1.648 -0.809,1.111 -1.098,2.172 -1.161,4.255 l -0.091,1.244 c -0.03,0.007 -0.106,-0.068 -0.171,-0.166 -0.17,-0.257 -0.155,-0.938 0.042,-1.853 0.193,-0.899 0.269,-1.625 0.27,-2.59 0,-0.528 0.027,-0.839 0.086,-1.011 0.127,-0.373 0.105,-0.799 -0.067,-1.33 -0.177,-0.545 -0.151,-0.664 0.206,-0.951 0.168,-0.135 0.325,-0.195 0.751,-0.287 1.112,-0.241 1.753,-0.528 2.44,-1.093 1.087,-0.895 1.764,-2.065 2.126,-3.679 0.435,-1.934 0.565,-3.661 0.343,-4.56 -0.055,-0.222 -0.087,-0.266 -0.19,-0.266 -0.184,10e-4 -0.22,0.039 -0.464,0.482 -0.286,0.521 -0.929,1.099 -1.889,1.697 -1.582,0.986 -2.076,1.422 -2.51,2.213 -0.309,0.562 -0.749,1.768 -0.87,2.384 -0.089,0.451 -0.083,1.628 0.013,2.338 0.025,0.188 0.011,0.28 -0.054,0.356 -0.082,0.094 -0.089,0.071 -0.091,-0.316 -10e-4,-0.229 -0.066,-0.796 -0.145,-1.259 -0.14,-0.821 -0.142,-0.849 -0.046,-1.132 0.113,-0.332 0.135,-1.189 0.053,-2.021 -0.048,-0.484 -0.044,-0.518 0.068,-0.61 0.206,-0.171 0.241,-0.334 0.172,-0.798 -0.06,-0.401 -0.056,-0.44 0.065,-0.663 0.17,-0.312 0.428,-0.442 1.385,-0.698 0.419,-0.112 0.928,-0.285 1.132,-0.384 1.203,-0.585 2.119,-1.661 2.712,-3.189 0.419,-1.079 0.871,-4.299 0.729,-5.192 -0.087,-0.548 -0.147,-0.674 -0.322,-0.674 -0.116,0 -0.177,0.061 -0.348,0.349 -0.417,0.705 -0.979,1.195 -2.312,2.015 -0.741,0.456 -1.523,1.115 -1.877,1.581 a 4.87,4.87 0 0 0 -0.985,2.275 l -0.167,0.838 -0.054,0.228 0.028,-0.279 c 0.089,-0.882 0.093,-1.707 0.008,-1.92 -0.082,-0.208 -0.079,-0.234 0.049,-0.515 0.128,-0.281 0.227,-0.693 0.364,-1.518 0.034,-0.205 0.117,-0.485 0.183,-0.623 0.114,-0.235 0.14,-0.254 0.442,-0.332 0.517,-0.132 0.84,-0.303 1.287,-0.68 1.098,-0.927 1.812,-2.45 1.951,-4.163 0.103,-1.274 -0.314,-2.769 -1.089,-3.905 -0.264,-0.386 -0.414,-0.582 -0.512,-0.598 z"
       class="H"
       id="path28" />
    <path
       d="m 16.745,23.389 a 4.43,4.43 0 0 1 -1.061,1.891 c -0.879,0.971 -1.364,1.78 -1.635,2.676 -0.127,0.421 -0.126,0.441 -0.129,1.227 -0.003,0.748 0.006,0.836 0.105,1.188 0.083,0.29 0.164,0.695 0.203,0.992 0.034,-0.028 0.037,-0.07 0.088,-0.107 0.178,-0.133 0.325,-0.157 0.482,-0.197 a 2.21,2.21 0 0 0 1.07,-0.568 c 0.963,-0.813 1.631,-2.203 1.76,-3.791 0.085,-1.044 -0.274,-2.308 -0.885,-3.309 z m -8.521,4.164 -0.059,0.945 c -0.025,0.769 -0.004,1.616 0.057,2.053 0.418,3.003 1.702,4.72 3.811,5.311 0.359,0.101 0.588,0.165 0.809,0.283 0.208,0.111 0.361,0.276 0.49,0.436 l 0.016,-0.143 v -0.002 l 0.037,-0.643 -0.137,0.066 a 161.63,161.63 0 0 1 -0.178,0.01 c 0,0 -0.168,-0.047 -0.168,-0.047 A 63.17,63.17 0 0 1 12.705,35.67 1.44,1.44 0 0 1 12.635,35.559 C 12.621,35.53 12.612,35.508 12.606,35.489 12.594,35.451 12.59,35.426 12.587,35.405 l -0.012,-0.094 c -0.004,-0.054 -0.004,-0.105 -0.004,-0.168 a 13.19,13.19 0 0 0 -0.09,-0.832 L 12.295,33.139 C 12.011,31.664 11.58,30.731 11.012,30.159 A 21.89,21.89 0 0 0 9.969,29.323 C 9.109,28.679 8.62,28.156 8.225,27.553 Z m 11.145,2.982 c -0.456,0.584 -1.047,1.107 -2.139,1.779 -0.687,0.423 -1.458,1.09 -1.729,1.445 -0.502,0.661 -0.72,1.164 -0.883,2.045 l -0.172,0.863 -0.055,0.231 c -0.065,0.268 -0.32,0.446 -0.594,0.414 0.019,0.045 0.066,0.083 0.082,0.133 0.099,0.313 0.085,0.595 0.076,1.037 -0.002,0.131 -0.028,0.31 -0.037,0.471 0.076,-0.059 0.112,-0.143 0.199,-0.187 0.277,-0.14 0.604,-0.238 1.094,-0.369 0.391,-0.104 0.93,-0.294 1.035,-0.346 1.064,-0.517 1.885,-1.465 2.441,-2.896 0.167,-0.431 0.398,-1.516 0.543,-2.545 0.127,-0.903 0.153,-1.684 0.137,-2.074 z M 7.583,35.078 7.577,35.396 c 0.012,2.09 0.399,3.835 1.1,5.139 0.329,0.613 0.549,0.909 0.947,1.287 0.719,0.683 1.367,0.997 2.617,1.236 0.198,0.038 0.344,0.069 0.49,0.123 a 1.05,1.05 0 0 1 0.375,0.252 3.16,3.16 0 0 0 0.059,-0.557 9.34,9.34 0 0 0 -0.045,-1.129 C 13.112,41.663 13.118,41.617 13.112,41.554 12.853,41.552 12.741,41.423 12.682,41.357 12.623,41.291 12.597,41.241 12.575,41.195 12.53,41.102 12.507,41.019 12.489,40.925 12.221,39.536 11.892,38.76 11.358,38.128 11.039,37.75 10.784,37.551 9.706,36.858 8.743,36.239 8.023,35.653 7.583,35.077 Z m 11.766,3.016 c -0.403,0.514 -0.952,1.003 -1.746,1.498 -1.564,0.975 -1.929,1.299 -2.32,2.012 a 11.78,11.78 0 0 0 -0.814,2.229 c -0.053,0.269 -0.066,1.525 0.019,2.16 0.007,0.052 -10e-4,0.109 0.002,0.162 0.124,-0.04 0.187,-0.105 0.344,-0.139 1.066,-0.231 1.581,-0.465 2.209,-0.982 0.992,-0.817 1.594,-1.848 1.938,-3.377 0.332,-1.476 0.41,-2.701 0.369,-3.562 z M 7.466,43.221 c -0.006,0.072 -0.016,0.078 -0.019,0.16 -0.08,1.71 0.469,4.141 1.213,5.463 0.328,0.583 0.568,0.873 1.088,1.314 0.841,0.714 1.162,0.85 2.498,1.055 a 1.24,1.24 0 0 1 0.613,0.271 c 0.174,0.144 0.344,0.362 0.344,0.678 0,-0.043 0.017,0.014 0.014,-0.01 0.07,-0.388 0.098,-0.796 0.123,-1.184 l -0.06,0.041 c 0,0 -0.197,0.055 -0.197,0.055 a 310.02,310.02 0 0 1 -0.209,-0.025 c 0,0 -0.148,-0.074 -0.148,-0.074 A 99.42,99.42 0 0 1 12.593,50.83 1.38,1.38 0 0 1 12.546,50.75 c -0.01,-0.02 -0.015,-0.036 -0.019,-0.049 L 12.509,50.644 C 12.502,50.616 12.5,50.599 12.497,50.583 12.487,50.521 12.483,50.474 12.478,50.405 L 12.443,49.848 C 12.399,48.911 12.316,48.462 12.068,47.789 11.741,46.903 11.295,46.256 10.757,45.824 10.657,45.744 10.034,45.3 9.48,44.929 8.401,44.206 7.92,43.781 7.468,43.218 Z m 11.9,3.119 c -0.485,0.564 -1.012,1.024 -2.035,1.705 -1.169,0.778 -1.433,1 -1.807,1.514 -0.748,1.028 -0.996,1.911 -1.057,3.949 l -0.041,0.85 0.135,-0.033 0.52,-0.123 c 0.741,-0.165 1.061,-0.281 1.508,-0.535 1.235,-0.702 2.227,-2.316 2.645,-4.576 0.105,-0.567 0.158,-2.014 0.133,-2.75 z m -11.568,5.004 0.025,0.844 c 0.168,1.977 0.594,3.508 1.141,4.381 0.465,0.742 1.08,1.356 1.67,1.701 0.441,0.258 0.691,0.348 1.523,0.543 0.382,0.089 0.601,0.134 0.83,0.246 0.229,0.112 0.4,0.318 0.504,0.477 0.008,0.012 0.013,0.034 0.022,0.047 0.009,-0.246 0.046,-0.534 -0.016,-0.687 -0.078,-0.195 -0.127,-0.43 -0.121,-0.674 0.006,-0.244 0.049,-0.5 0.121,-0.861 0.096,-0.479 0.034,-0.608 -0.033,-0.805 -0.038,0.027 -0.023,0.055 -0.078,0.076 -0.23,0.088 -0.476,-0.023 -0.562,-0.096 -0.109,-0.092 -0.113,-0.127 -0.133,-0.16 L 12.644,56.29 12.57,56.116 12.416,55.673 C 12.328,55.393 12.162,55.016 11.99,54.689 11.818,54.362 11.613,54.064 11.553,54.002 11.37,53.814 10.942,53.529 10.1,53.107 9.042,52.578 8.386,52.022 7.799,51.345 Z m 5.697,13.119 c -0.019,0.273 0.011,0.506 -0.102,0.992 l -0.131,0.697 0.314,-0.143 c -0.036,-0.163 -0.029,-0.241 -0.022,-0.348 0.008,-0.121 0.026,-0.254 0.049,-0.387 0.068,-0.39 0.088,-0.156 -0.059,-0.566 -0.029,-0.081 -0.028,-0.165 -0.051,-0.246 z"
       class="M"
       id="path30" />
  </g>
  <g
     id="g1383"
     transform="translate(0.52904429,0.52946106)">
    <path
       d="m 25.12,19.452 h 40.024 v 50.09 H 25.12 Z"
       fill="#48cefe"
       class="D N"
       id="path32" />
    <path
       d="M 65.144,38.32 V 69.542 H 26.323 L 37.26,59.025 c 2.686,-1.045 5.543,-2.719 8.933,-6.345 l 5.176,-2.004 c 1.395,-0.474 2.737,-0.337 4.342,-2.298 0.868,-1.06 2.056,-0.386 2.125,-1.978 0.03,-0.679 0.661,-0.67 1.122,-1.063 0.993,-0.844 0.325,-2.043 2.627,-3.04 1.901,-0.824 2.753,-2.288 3.559,-3.977 z"
       fill="#7d2e1a"
       id="path34" />
    <path
       d="m 65.144,49.199 c -1.28,0.007 -3.233,-0.804 -3.736,1.245 -0.292,1.188 -1.273,0.25 -2.022,1.919 -0.954,2.126 -3.143,0.638 -3.8,1.528 -0.529,0.717 0.188,1.417 -4.113,0.939 -3.072,-0.341 -2.119,1.996 -3.752,2.237 -3.151,0.465 -8.264,8.307 -12.381,12.475 h 29.805 z"
       id="path36" />
    <path
       d="m 65.144,60.274 c -0.748,0 -1.24,-1.058 -2.001,-1.058 -0.761,0 -1.253,1.058 -2.001,1.058 -0.748,0 -1.24,-1.058 -2.001,-1.058 -0.761,0 -1.253,1.058 -2.001,1.058 -0.748,0 -1.24,-1.058 -2.001,-1.058 -0.761,0 -1.253,1.058 -2.001,1.058 -0.748,0 -1.24,-1.058 -2.001,-1.058 -0.761,0 -1.253,1.058 -2.001,1.058 -0.748,0 -1.24,-1.058 -2.001,-1.058 -0.761,0 -1.253,1.058 -2.001,1.058 -0.748,0 -1.24,-1.058 -2.001,-1.058 -0.761,0 -1.253,1.058 -2.001,1.058 -0.748,0 -1.24,-1.058 -2.001,-1.058 -0.761,0 -1.253,1.058 -2.001,1.058 -0.748,0 -1.24,-1.058 -2.001,-1.058 -0.761,0 -1.253,1.058 -2.001,1.058 -0.748,0 -1.24,-1.058 -2.001,-1.058 -0.761,0 -1.253,1.058 -2.001,1.058 -0.748,0 -1.24,-1.058 -2.001,-1.058 -0.761,0 -1.253,1.058 -2.001,1.058 v 9.268 h 40.024 z"
       fill="#039ee1"
       class="B"
       id="path38" />
    <g
       class="I"
       id="g48">
      <g
         stroke="#ffffff"
         id="g44">
        <path
           d="m 65.144,60.274 c -0.748,0 -1.24,-1.058 -2.001,-1.058 -0.761,0 -1.253,1.058 -2.001,1.058 -0.748,0 -1.24,-1.058 -2.001,-1.058 -0.761,0 -1.253,1.058 -2.001,1.058 -0.748,0 -1.24,-1.058 -2.001,-1.058 -0.761,0 -1.253,1.058 -2.001,1.058 -0.748,0 -1.24,-1.058 -2.001,-1.058 -0.761,0 -1.253,1.058 -2.001,1.058 -0.748,0 -1.24,-1.058 -2.001,-1.058 -0.761,0 -1.253,1.058 -2.001,1.058 -0.748,0 -1.24,-1.058 -2.001,-1.058 -0.761,0 -1.253,1.058 -2.001,1.058 -0.748,0 -1.24,-1.058 -2.001,-1.058 -0.761,0 -1.253,1.058 -2.001,1.058 -0.748,0 -1.24,-1.058 -2.001,-1.058 -0.761,0 -1.253,1.058 -2.001,1.058 -0.748,0 -1.24,-1.058 -2.001,-1.058 -0.761,0 -1.253,1.058 -2.001,1.058 -0.748,0 -1.24,-1.058 -2.001,-1.058 -0.761,0 -1.253,1.058 -2.001,1.058"
           stroke-width="1.341"
           id="path40" />
        <path
           d="m 65.144,65.675 c -0.68,0 -1.127,-1.058 -1.819,-1.058 -0.692,0 -1.139,1.058 -1.819,1.058 -0.68,0 -1.127,-1.058 -1.819,-1.058 -0.692,0 -1.139,1.058 -1.819,1.058 -0.68,0 -1.127,-1.058 -1.819,-1.058 -0.692,0 -1.139,1.058 -1.819,1.058 -0.68,0 -1.127,-1.058 -1.819,-1.058 -0.692,0 -1.139,1.058 -1.819,1.058 -0.68,0 -1.127,-1.058 -1.819,-1.058 -0.692,0 -1.139,1.058 -1.819,1.058 -0.68,0 -1.127,-1.058 -1.819,-1.058 -0.692,0 -1.139,1.058 -1.819,1.058 -0.68,0 -1.127,-1.058 -1.819,-1.058 -0.692,0 -1.139,1.058 -1.819,1.058 -0.68,0 -1.127,-1.058 -1.819,-1.058 -0.692,0 -1.139,1.058 -1.819,1.058 -0.68,0 -1.127,-1.058 -1.819,-1.058 -0.692,0 -1.139,1.058 -1.819,1.058 -0.68,0 -1.127,-1.058 -1.819,-1.058 -0.692,0 -1.139,1.058 -1.819,1.058 -0.68,0 -1.127,-1.058 -1.819,-1.058 -0.692,0 -1.139,1.058 -1.819,1.058"
           stroke-width="1.278"
           id="path42" />
      </g>
      <path
         d="m 25.12,19.452 h 40.024 v 50.09 H 25.12 Z"
         class="K N P"
         id="path46" />
    </g>
    <path
       d="m 45.132,22.823 -1.601,4.928 h -5.182 l 4.192,3.046 -1.601,4.929 4.192,-3.046 4.193,3.046 -1.601,-4.929 4.192,-3.046 h -5.182 z"
       stroke-width="0.71"
       class="D H K N"
       id="path50" />
    <path
       d="m 51.39,41.433 c -0.031,0.002 -0.067,0.018 -0.118,0.048 -0.249,0.145 -2.603,2.25 -3.11,2.782 -1.37,1.437 -2.367,2.727 -2.701,3.497 -0.428,0.987 -0.351,1.891 0.187,2.186 0.114,0.063 0.223,0.171 0.243,0.24 0.045,0.159 -0.013,0.545 -0.107,0.719 -0.075,0.139 -0.122,0.165 -0.734,0.406 -0.398,0.157 -0.73,0.411 -0.89,0.683 -0.102,0.172 -0.462,1.171 -0.517,1.434 -0.031,0.146 -0.028,0.149 0.076,0.067 0.232,-0.184 0.432,-0.206 1.993,-0.228 l 1.684,-0.024 c 0.078,-0.001 0.399,0.117 0.714,0.264 l 0.716,0.308 c 0.079,0.023 0.477,0.035 0.886,0.025 0.814,-0.018 1.258,-0.12 2.028,-0.464 0.678,-0.303 3.79,-2.11 4.486,-2.605 0.848,-0.603 1.741,-1.366 1.97,-1.684 0.176,-0.243 0.226,-0.458 0.106,-0.458 -0.036,0 -0.341,0.158 -0.677,0.351 l -1.009,0.529 c -0.454,0.203 -2.204,0.753 -2.766,0.869 l -0.622,0.155 c -0.136,0.042 -0.316,0.077 -0.402,0.077 -0.152,0 -0.155,-0.006 -0.13,-0.241 0.051,-0.468 -0.138,-0.774 -0.475,-0.774 -0.064,0 -0.043,-0.071 0.087,-0.3 0.644,-1.133 1.643,-1.847 5.089,-3.635 l 1.91,-1.008 c 0.501,-0.312 -0.449,0.011 -2,0.681 l -1.371,0.532 c -0.707,0.243 -2.041,0.555 -2.176,0.51 -0.202,-0.069 0.016,-0.724 0.627,-1.883 l 0.78,-1.473 c 0.391,-0.734 0.643,-1.3 0.598,-1.339 -0.054,-0.047 -0.135,0.067 -0.899,1.264 -0.848,1.329 -1.631,2.344 -2.453,3.18 -1.129,1.148 -1.547,1.458 -2.28,1.691 l -0.867,0.294 -0.523,0.16 c -0.011,-0.01 0.106,-0.189 0.26,-0.397 0.315,-0.425 0.523,-0.869 0.498,-1.063 -0.021,-0.162 -0.223,-0.257 -0.546,-0.258 -0.134,0 -0.243,-0.015 -0.243,-0.032 0,-0.085 0.663,-1.517 0.856,-1.848 0.122,-0.209 0.274,-0.507 0.339,-0.66 0.065,-0.153 0.362,-0.61 0.662,-1.015 0.698,-0.943 0.995,-1.446 0.902,-1.529 -0.026,-0.023 -0.051,-0.034 -0.082,-0.032 z m -9.69,1.719 -0.299,0.042 -0.711,0.104 c -0.725,0.102 -1.088,0.341 -1.516,1.001 -0.251,0.387 -0.322,0.429 -0.739,0.436 -0.391,0.007 -0.512,-0.051 -0.664,-0.317 -0.271,-0.476 -0.723,-0.643 -1.627,-0.6 -0.979,0.046 -1.897,0.384 -3.783,1.393 -1.162,0.622 -2.028,1.167 -3.456,2.179 -1.212,0.859 -1.336,0.986 -0.958,0.986 0.155,0 1.126,-0.362 1.918,-0.716 0.309,-0.138 0.735,-0.286 0.944,-0.33 0.209,-0.044 0.473,-0.113 0.584,-0.155 0.167,-0.063 1.389,-0.355 2.083,-0.498 l 0.165,-0.034 -0.034,0.259 c -0.086,0.645 0.277,0.711 1.384,0.251 l 0.494,-0.187 c 0.028,0.028 -0.901,1.488 -1.1,1.729 -0.259,0.314 -0.818,0.712 -1.866,1.329 -1.094,0.644 -2.331,1.202 -3.836,1.732 -1.521,0.535 -1.799,0.694 -0.886,0.503 0.35,-0.073 2.447,-0.644 3.36,-0.916 a 4.77,4.77 0 0 1 0.927,-0.157 c 0.442,-0.028 0.515,-0.021 0.546,0.052 0.094,0.217 -0.909,2.073 -1.651,3.055 l -0.499,0.686 -0.448,0.656 -0.294,0.468 c 0,0.126 0.27,-0.158 1.47,-1.545 l 3.028,-3.182 c 0.476,-0.397 0.654,-0.508 1.188,-0.739 0.847,-0.366 0.886,-0.375 0.886,-0.193 a 0.48,0.48 0 0 0 0.086,0.253 c 0.118,0.15 0.553,0.29 0.778,0.251 0.177,-0.031 0.179,-0.03 0.144,0.133 -0.082,0.375 -1.378,2.749 -1.816,3.326 -0.161,0.213 -0.451,0.548 -0.644,0.746 -0.378,0.387 -0.546,0.587 -0.546,0.65 0,0.098 0.351,0.023 0.657,-0.141 0.948,-0.507 2.235,-1.626 3.825,-3.324 l 1.831,-2.087 c 0.648,-0.983 0.865,-1.975 0.599,-2.737 -0.273,-0.78 -0.288,-0.898 -0.169,-1.291 0.06,-0.198 0.138,-0.6 0.174,-0.893 a 9.68,9.68 0 0 1 0.205,-1.067 l 0.165,-0.638 a 1.1,1.1 0 0 1 0.167,-0.292 c 0.123,-0.161 0.148,-0.203 -0.066,-0.18 z"
       fill="#000100"
       id="path52" />
  </g>
  <g
     id="g1370"
     transform="translate(0.52904429,0.52946106)">
    <use
       xlink:href="#C"
       class="E"
       id="use54"
       x="0"
       y="0"
       width="100%"
       height="100%"
       style="stroke:#000000;stroke-width:0.397" />
    <use
       xlink:href="#D"
       class="C J"
       id="use56"
       x="0"
       y="0"
       width="100%"
       height="100%"
       style="stroke:#000000;stroke-width:0.397" />
    <use
       xlink:href="#E"
       id="use58"
       x="0"
       y="0"
       width="100%"
       height="100%"
       style="fill:none;stroke:#000000;stroke-width:0.397;stroke-linecap:round" />
    <use
       xlink:href="#F"
       id="use60"
       x="0"
       y="0"
       width="100%"
       height="100%"
       style="fill:none;stroke:#000000;stroke-width:0.397;stroke-linecap:round" />
    <use
       xlink:href="#G"
       class="H"
       id="use64"
       x="0"
       y="0"
       width="100%"
       height="100%"
       style="stroke:#000000;stroke-width:0.397" />
    <use
       xlink:href="#C"
       x="0.132"
       y="8.1219997"
       class="E"
       id="use66"
       width="100%"
       height="100%"
       style="stroke:#000000;stroke-width:0.397" />
    <use
       xlink:href="#D"
       x="0.132"
       y="8.1219997"
       class="C J"
       id="use68"
       width="100%"
       height="100%"
       style="stroke:#000000;stroke-width:0.397" />
    <use
       xlink:href="#E"
       x="0.132"
       y="8.1219997"
       id="use70"
       width="100%"
       height="100%"
       style="fill:none;stroke:#000000;stroke-width:0.397;stroke-linecap:round" />
    <use
       xlink:href="#F"
       x="0.132"
       y="8.1219997"
       id="use72"
       width="100%"
       height="100%"
       style="fill:none;stroke:#000000;stroke-width:0.397;stroke-linecap:round" />
    <use
       xlink:href="#G"
       x="0.132"
       y="8.1210003"
       class="H"
       id="use76"
       width="100%"
       height="100%"
       style="stroke:#000000;stroke-width:0.397" />
    <use
       xlink:href="#C"
       x="0.132"
       y="16.547001"
       class="E"
       id="use78"
       width="100%"
       height="100%"
       style="stroke:#000000;stroke-width:0.397" />
    <use
       xlink:href="#D"
       x="0.132"
       y="16.547001"
       class="C J"
       id="use80"
       width="100%"
       height="100%"
       style="stroke:#000000;stroke-width:0.397" />
    <use
       xlink:href="#E"
       x="0.132"
       y="16.547001"
       id="use82"
       width="100%"
       height="100%"
       style="fill:none;stroke:#000000;stroke-width:0.397;stroke-linecap:round" />
    <use
       xlink:href="#F"
       x="0.132"
       y="16.547001"
       id="use84"
       width="100%"
       height="100%"
       style="fill:none;stroke:#000000;stroke-width:0.397;stroke-linecap:round" />
    <use
       xlink:href="#G"
       x="0.132"
       y="16.547001"
       class="H"
       id="use88"
       width="100%"
       height="100%"
       style="stroke:#000000;stroke-width:0.397" />
    <use
       xlink:href="#C"
       x="0.264"
       y="24.669001"
       class="E"
       id="use90"
       width="100%"
       height="100%"
       style="stroke:#000000;stroke-width:0.397" />
    <use
       xlink:href="#D"
       x="0.264"
       y="24.667999"
       class="C J"
       id="use92"
       width="100%"
       height="100%"
       style="stroke:#000000;stroke-width:0.397" />
    <use
       xlink:href="#E"
       x="0.264"
       y="24.669001"
       id="use94"
       width="100%"
       height="100%"
       style="fill:none;stroke:#000000;stroke-width:0.397;stroke-linecap:round" />
    <use
       xlink:href="#F"
       x="0.264"
       y="24.669001"
       id="use96"
       width="100%"
       height="100%"
       style="fill:none;stroke:#000000;stroke-width:0.397;stroke-linecap:round" />
    <use
       xlink:href="#G"
       x="0.264"
       y="24.667999"
       class="H"
       id="use100"
       width="100%"
       height="100%"
       style="stroke:#000000;stroke-width:0.397" />
    <path
       d="m 76.778,63.47 c 0.078,1.255 0.471,2.552 -0.044,3.542 -0.672,0.802 0.691,1.342 1.432,0.458 0.639,-1.318 0.524,-2.637 0.31,-3.955 z"
       class="J"
       id="path102"
       style="stroke:#000000;stroke-width:0.397" />
    <use
       xlink:href="#C"
       x="0.264"
       y="33.094002"
       class="E"
       id="use104"
       width="100%"
       height="100%"
       style="stroke:#000000;stroke-width:0.397" />
    <use
       xlink:href="#D"
       x="0.264"
       y="33.094002"
       class="C J"
       id="use106"
       width="100%"
       height="100%"
       style="stroke:#000000;stroke-width:0.397" />
    <use
       xlink:href="#E"
       x="0.264"
       y="33.094002"
       id="use108"
       width="100%"
       height="100%"
       style="fill:none;stroke:#000000;stroke-width:0.397;stroke-linecap:round" />
    <use
       xlink:href="#F"
       x="0.264"
       y="33.094002"
       id="use110"
       width="100%"
       height="100%"
       style="fill:none;stroke:#000000;stroke-width:0.397;stroke-linecap:round" />
    <use
       xlink:href="#G"
       x="0.264"
       y="33.092999"
       class="H"
       id="use114"
       width="100%"
       height="100%"
       style="stroke:#000000;stroke-width:0.397" />
  </g>
  <g
     id="g1402"
     transform="translate(0.52904429,0.52946106)">
    <use
       xlink:href="#H"
       class="B F"
       id="use118"
       x="0"
       y="0"
       width="100%"
       height="100%"
       style="fill:#ffed00;fill-rule:evenodd;stroke:#000000;stroke-linejoin:round" />
    <use
       xlink:href="#I"
       class="B G"
       id="use120"
       x="0"
       y="0"
       width="100%"
       height="100%"
       style="fill:#ffed00;fill-rule:evenodd;stroke:#000000;stroke-linejoin:round" />
    <use
       xlink:href="#H"
       x="9.3430004"
       class="B F"
       id="use122"
       y="0"
       width="100%"
       height="100%"
       style="fill:#ffed00;fill-rule:evenodd;stroke:#000000;stroke-linejoin:round" />
    <use
       xlink:href="#I"
       x="9.342"
       class="B G"
       id="use124"
       y="0"
       width="100%"
       height="100%"
       style="fill:#ffed00;fill-rule:evenodd;stroke:#000000;stroke-linejoin:round" />
    <use
       xlink:href="#J"
       class="B F"
       id="use126"
       x="0"
       y="0"
       width="100%"
       height="100%"
       style="fill:#ffed00;fill-rule:evenodd;stroke:#000000;stroke-linejoin:round" />
    <use
       xlink:href="#I"
       x="18.684999"
       class="B G"
       id="use128"
       y="0"
       width="100%"
       height="100%"
       style="fill:#ffed00;fill-rule:evenodd;stroke:#000000;stroke-linejoin:round" />
    <use
       xlink:href="#J"
       x="9.3430004"
       class="B F"
       id="use130"
       y="0"
       width="100%"
       height="100%"
       style="fill:#ffed00;fill-rule:evenodd;stroke:#000000;stroke-linejoin:round" />
    <use
       xlink:href="#I"
       x="28.028"
       y="0.001"
       class="B G"
       id="use132"
       width="100%"
       height="100%"
       style="fill:#ffed00;fill-rule:evenodd;stroke:#000000;stroke-linejoin:round" />
    <use
       xlink:href="#J"
       x="18.684999"
       class="B F"
       id="use134"
       y="0"
       width="100%"
       height="100%"
       style="fill:#ffed00;fill-rule:evenodd;stroke:#000000;stroke-linejoin:round" />
    <use
       xlink:href="#I"
       x="37.370998"
       y="0.001"
       class="B G"
       id="use136"
       width="100%"
       height="100%"
       style="fill:#ffed00;fill-rule:evenodd;stroke:#000000;stroke-linejoin:round" />
    <use
       xlink:href="#J"
       x="28.028"
       class="B F"
       id="use138"
       y="0"
       width="100%"
       height="100%"
       style="fill:#ffed00;fill-rule:evenodd;stroke:#000000;stroke-linejoin:round" />
    <use
       xlink:href="#I"
       x="46.714001"
       y="0.001"
       class="B G"
       id="use140"
       width="100%"
       height="100%"
       style="fill:#ffed00;fill-rule:evenodd;stroke:#000000;stroke-linejoin:round" />
    <use
       xlink:href="#J"
       x="37.370998"
       class="B F"
       id="use142"
       y="0"
       width="100%"
       height="100%"
       style="fill:#ffed00;fill-rule:evenodd;stroke:#000000;stroke-linejoin:round" />
    <use
       xlink:href="#I"
       x="56.056999"
       y="0.001"
       class="B G"
       id="use144"
       width="100%"
       height="100%"
       style="fill:#ffed00;fill-rule:evenodd;stroke:#000000;stroke-linejoin:round" />
    <use
       xlink:href="#J"
       x="46.714001"
       class="B F"
       id="use146"
       y="0"
       width="100%"
       height="100%"
       style="fill:#ffed00;fill-rule:evenodd;stroke:#000000;stroke-linejoin:round" />
    <use
       xlink:href="#I"
       x="65.400002"
       y="0.001"
       class="B"
       id="use148"
       width="100%"
       height="100%"
       style="fill:#ffed00;fill-rule:evenodd;stroke:#000000;stroke-width:0.416;stroke-linejoin:round" />
    <use
       xlink:href="#I"
       x="74.742996"
       y="0.001"
       class="B"
       id="use150"
       width="100%"
       height="100%"
       style="fill:#ffed00;fill-rule:evenodd;stroke:#000000;stroke-width:0.416;stroke-linejoin:round" />
  </g>
  <g
     id="g1319"
     transform="translate(0.52904429,0.52946106)">
    <path
       d="m 36.72,87.555 -0.841,0.576 c 0.249,0.382 0.344,0.826 1.254,0.93 h 3.778 l 0.148,-0.45 c 0.195,-0.476 0.759,-0.174 0.841,0.118 0.145,0.512 0.242,0.871 0.922,0.871 1.025,0 0.614,-0.973 0.428,-1.004 -0.186,-0.031 -0.461,-0.067 -0.642,-0.413 -0.565,-1.08 -1.799,-0.756 -2.044,-0.435 -0.168,0.22 -0.388,0.391 -0.701,0.391 H 37.24 Z m 16.825,0 0.841,0.576 c -0.249,0.382 -0.344,0.826 -1.254,0.93 h -3.778 l -0.148,-0.45 c -0.195,-0.476 -0.759,-0.174 -0.841,0.118 -0.145,0.512 -0.242,0.871 -0.922,0.871 -1.025,0 -0.614,-0.973 -0.428,-1.004 0.186,-0.031 0.461,-0.067 0.642,-0.413 0.565,-1.08 1.799,-0.756 2.044,-0.435 0.168,0.22 0.388,0.391 0.701,0.391 h 2.624 z"
       fill="#ff0000"
       class="C O"
       id="path156"
       style="stroke:#000000" />
    <use
       xlink:href="#K"
       class="B"
       id="use158"
       x="0"
       y="0"
       width="100%"
       height="100%"
       style="fill:#ff0000;fill-rule:evenodd;stroke:#000000;stroke-width:0.265;stroke-linejoin:round" />
    <use
       xlink:href="#K"
       x="4.3390002"
       class="B"
       id="use160"
       y="0"
       width="100%"
       height="100%"
       style="fill:#ff0000;fill-rule:evenodd;stroke:#000000;stroke-width:0.265;stroke-linejoin:round" />
    <use
       xlink:href="#K"
       x="8.6789999"
       class="B"
       id="use162"
       y="0"
       width="100%"
       height="100%"
       style="fill:#ff0000;fill-rule:evenodd;stroke:#000000;stroke-width:0.265;stroke-linejoin:round" />
    <use
       xlink:href="#K"
       x="2.1689999"
       y="-1.554"
       class="B"
       id="use164"
       width="100%"
       height="100%"
       style="fill:#ff0000;fill-rule:evenodd;stroke:#000000;stroke-width:0.265;stroke-linejoin:round" />
    <use
       xlink:href="#K"
       x="6.5089998"
       y="-1.554"
       class="B"
       id="use166"
       width="100%"
       height="100%"
       style="fill:#ff0000;fill-rule:evenodd;stroke:#000000;stroke-width:0.265;stroke-linejoin:round" />
    <path
       d="m 41.605,93.229 h 2.17 v 1.554 h -2.17 z"
       class="B"
       id="path168"
       style="fill:#ff0000;fill-rule:evenodd;stroke:#000000;stroke-width:0.265;stroke-linejoin:round" />
    <use
       xlink:href="#K"
       x="4.3390002"
       y="-3.108"
       class="B"
       id="use170"
       width="100%"
       height="100%"
       style="fill:#ff0000;fill-rule:evenodd;stroke:#000000;stroke-width:0.265;stroke-linejoin:round" />
    <use
       xlink:href="#K"
       x="8.6789999"
       y="-3.108"
       class="B"
       id="use172"
       width="100%"
       height="100%"
       style="fill:#ff0000;fill-rule:evenodd;stroke:#000000;stroke-width:0.265;stroke-linejoin:round" />
    <path
       d="m 41.605,90.121 h 2.17 v 1.554 h -2.17 z"
       class="B"
       id="path174"
       style="fill:#ff0000;fill-rule:evenodd;stroke:#000000;stroke-width:0.265;stroke-linejoin:round" />
    <use
       xlink:href="#K"
       x="-120.89"
       class="B"
       id="use178"
       y="0"
       width="100%"
       height="100%"
       style="fill:#ff0000;fill-rule:evenodd;stroke:#000000;stroke-width:0.265;stroke-linejoin:round"
       transform="matrix(-1,0,0,1,-30.62554,0)" />
    <use
       xlink:href="#K"
       x="-116.551"
       class="B"
       id="use180"
       y="0"
       width="100%"
       height="100%"
       style="fill:#ff0000;fill-rule:evenodd;stroke:#000000;stroke-width:0.265;stroke-linejoin:round"
       transform="matrix(-1,0,0,1,-30.62554,0)" />
    <use
       xlink:href="#K"
       x="-112.211"
       class="B"
       id="use182"
       y="0"
       width="100%"
       height="100%"
       style="fill:#ff0000;fill-rule:evenodd;stroke:#000000;stroke-width:0.265;stroke-linejoin:round"
       transform="matrix(-1,0,0,1,-30.62554,0)" />
    <use
       xlink:href="#K"
       x="-118.721"
       y="-1.554"
       class="B"
       id="use184"
       width="100%"
       height="100%"
       style="fill:#ff0000;fill-rule:evenodd;stroke:#000000;stroke-width:0.265;stroke-linejoin:round"
       transform="matrix(-1,0,0,1,-30.62554,0)" />
    <use
       xlink:href="#K"
       x="-114.381"
       y="-1.554"
       class="B"
       id="use186"
       width="100%"
       height="100%"
       style="fill:#ff0000;fill-rule:evenodd;stroke:#000000;stroke-width:0.265;stroke-linejoin:round"
       transform="matrix(-1,0,0,1,-30.62554,0)" />
    <path
       d="m 48.65946,93.229 h -2.17 v 1.554 h 2.17 z"
       class="B"
       id="path188"
       style="fill:#ff0000;fill-rule:evenodd;stroke:#000000;stroke-width:0.265;stroke-linejoin:round" />
    <use
       xlink:href="#K"
       x="-116.551"
       y="-3.108"
       class="B"
       id="use190"
       width="100%"
       height="100%"
       style="fill:#ff0000;fill-rule:evenodd;stroke:#000000;stroke-width:0.265;stroke-linejoin:round"
       transform="matrix(-1,0,0,1,-30.62554,0)" />
    <use
       xlink:href="#K"
       x="-112.211"
       y="-3.108"
       class="B"
       id="use192"
       width="100%"
       height="100%"
       style="fill:#ff0000;fill-rule:evenodd;stroke:#000000;stroke-width:0.265;stroke-linejoin:round"
       transform="matrix(-1,0,0,1,-30.62554,0)" />
    <path
       d="m 48.65946,90.121 h -2.17 v 1.554 h 2.17 z"
       class="B"
       id="path194"
       style="fill:#ff0000;fill-rule:evenodd;stroke:#000000;stroke-width:0.265;stroke-linejoin:round" />
  </g>
  <g
     id="g1331"
     transform="translate(0.52904429,0.52946106)">
    <path
       d="m 44.246,85.271 v 18.972 c 0,0.289 1.785,0.313 1.785,0 V 88.037 c 0.061,-1.228 -0.593,-2.122 -1.785,-2.765 z"
       class="M"
       id="path198"
       style="stroke:#000000;stroke-width:0.265" />
    <use
       xlink:href="#L"
       id="use200"
       x="0"
       y="0"
       width="100%"
       height="100%"
       style="fill:none;stroke:#000000;stroke-width:0.265" />
    <use
       xlink:href="#L"
       y="-1.878"
       id="use202"
       x="0"
       width="100%"
       height="100%"
       style="fill:none;stroke:#000000;stroke-width:0.265" />
    <use
       xlink:href="#L"
       y="-3.579"
       id="use204"
       x="0"
       width="100%"
       height="100%"
       style="fill:none;stroke:#000000;stroke-width:0.265" />
    <use
       xlink:href="#L"
       y="-5.3429999"
       id="use206"
       x="0"
       width="100%"
       height="100%"
       style="fill:none;stroke:#000000;stroke-width:0.265" />
    <use
       xlink:href="#L"
       y="-7.2010002"
       id="use208"
       x="0"
       width="100%"
       height="100%"
       style="fill:none;stroke:#000000;stroke-width:0.265" />
    <use
       xlink:href="#L"
       y="-9.1630001"
       id="use210"
       x="0"
       width="100%"
       height="100%"
       style="fill:none;stroke:#000000;stroke-width:0.265" />
    <use
       xlink:href="#L"
       y="-10.968"
       id="use212"
       x="0"
       width="100%"
       height="100%"
       style="fill:none;stroke:#000000;stroke-width:0.265" />
    <use
       xlink:href="#L"
       y="-13.201"
       id="use214"
       x="0"
       width="100%"
       height="100%"
       style="fill:none;stroke:#000000;stroke-width:0.265" />
    <path
       d="m 44.246,85.271 c -0.172,1.329 1.1,2.602 1.785,2.765"
       id="path216"
       style="fill:none;stroke:#000000;stroke-width:0.265" />
  </g>
  <g
     id="g1337"
     transform="translate(0.52904429,0.52946106)">
    <path
       d="m 26.074,102.66 4.537,-2.033 c -0.244,-1.34 0.438,-2.938 -2.898,-5.452 l -3.319,3.882 c 1.167,1.183 2.307,2.366 1.679,3.603 z m 38.117,0.027 -4.537,-2.033 c 0.244,-1.34 -0.438,-2.938 2.898,-5.452 l 3.319,3.882 c -1.167,1.183 -2.307,2.366 -1.679,3.603 z"
       class="E"
       id="path220"
       style="stroke:#000000;stroke-width:0.265" />
    <path
       d="m 61.408,99.248 c -4.367,3.698 -10.029,5.813 -16.275,5.827 -6.246,0.014 -11.908,-2.102 -16.275,-5.799 l -2.783,3.385 c 5.185,4.411 11.737,6.829 19.059,6.816 7.322,-0.013 13.874,-2.432 19.059,-6.843 z"
       stroke-width="0.331"
       class="B C D E"
       id="path224"
       style="stroke:#000000" />
    <path
       d="m 28.943,101.192 0.537,0.378 q 0.159,0.112 0.227,0.181 0.07,0.068 0.101,0.154 0.033,0.086 0.024,0.185 -0.008,0.099 -0.069,0.186 -0.066,0.094 -0.173,0.137 -0.106,0.043 -0.22,0.022 0.098,0.122 0.103,0.255 0.005,0.132 -0.076,0.249 -0.064,0.092 -0.169,0.148 -0.103,0.056 -0.214,0.056 -0.109,0 -0.226,-0.064 -0.073,-0.04 -0.333,-0.221 l -0.457,-0.322 z m 0.114,0.414 -0.218,0.31 0.178,0.125 q 0.158,0.111 0.2,0.134 0.075,0.041 0.142,0.029 0.069,-0.012 0.114,-0.077 0.044,-0.062 0.036,-0.125 -0.006,-0.063 -0.068,-0.119 -0.037,-0.033 -0.228,-0.168 z m -0.376,0.534 -0.253,0.359 0.251,0.177 q 0.147,0.103 0.192,0.123 0.068,0.031 0.135,0.016 0.069,-0.016 0.119,-0.087 0.043,-0.06 0.043,-0.123 0,-0.063 -0.042,-0.121 -0.041,-0.058 -0.226,-0.188 z m 0.899,1.483 0.851,-1.404 0.283,0.172 -0.335,0.553 0.555,0.336 0.335,-0.553 0.283,0.172 -0.851,1.404 -0.283,-0.172 0.372,-0.614 -0.555,-0.336 -0.372,0.614 z m 2.402,-0.484 0.295,0.152 -0.407,0.79 q -0.097,0.188 -0.115,0.25 -0.027,0.099 0.015,0.19 0.044,0.091 0.167,0.154 0.125,0.065 0.215,0.047 0.09,-0.019 0.142,-0.087 0.051,-0.068 0.141,-0.241 l 0.416,-0.807 0.295,0.152 -0.395,0.767 q -0.135,0.263 -0.215,0.359 -0.08,0.096 -0.183,0.138 -0.102,0.042 -0.233,0.031 -0.13,-0.011 -0.303,-0.101 -0.209,-0.108 -0.293,-0.211 -0.082,-0.104 -0.106,-0.213 -0.023,-0.11 0.001,-0.205 0.036,-0.14 0.162,-0.385 z m 0.963,2.323 0.641,-1.511 0.457,0.194 -0.163,1.147 0.708,-0.916 0.458,0.194 -0.641,1.511 -0.283,-0.12 0.505,-1.189 -0.805,1.062 -0.294,-0.125 0.206,-1.316 -0.505,1.189 z m 2.009,0.816 0.556,-1.544 0.312,0.112 -0.556,1.544 z m 2.077,0.671 0.361,-1.315 -0.47,-0.129 0.073,-0.268 1.258,0.345 -0.073,0.268 -0.469,-0.129 -0.361,1.315 z m 1.245,0.319 0.362,-1.601 0.323,0.073 -0.362,1.601 z m 0.891,0.199 0.284,-1.617 0.687,0.121 q 0.259,0.046 0.368,0.11 0.11,0.064 0.162,0.187 0.051,0.124 0.026,0.267 -0.032,0.182 -0.16,0.282 -0.128,0.099 -0.346,0.093 0.095,0.08 0.15,0.166 0.057,0.086 0.14,0.295 l 0.142,0.35 -0.39,-0.069 -0.174,-0.393 q -0.093,-0.211 -0.13,-0.267 -0.038,-0.058 -0.086,-0.085 -0.049,-0.028 -0.161,-0.048 l -0.066,-0.012 -0.118,0.675 z m 0.49,-0.876 0.242,0.042 q 0.235,0.041 0.297,0.032 0.062,-0.01 0.104,-0.052 0.042,-0.043 0.054,-0.116 0.014,-0.082 -0.021,-0.139 -0.034,-0.058 -0.111,-0.085 -0.039,-0.013 -0.237,-0.047 l -0.255,-0.045 z"
       id="path228" />
    <path
       d="m 41.428,107.818 0.157,-1.355 -0.484,-0.056 0.032,-0.276 1.296,0.151 -0.032,0.276 -0.483,-0.056 -0.157,1.355 z m 2.598,0.208 -0.36,-0.022 -0.12,-0.381 -0.655,-0.04 -0.158,0.364 -0.351,-0.021 0.738,-1.6 0.35,0.021 z m -0.57,-0.685 -0.189,-0.622 -0.258,0.594 z m 1.828,0.695 -0.042,-1.641 0.532,-0.013 q 0.302,-0.008 0.395,0.015 0.142,0.033 0.24,0.155 0.098,0.121 0.103,0.317 0.004,0.151 -0.048,0.255 -0.052,0.104 -0.136,0.166 -0.082,0.06 -0.169,0.082 -0.118,0.026 -0.343,0.032 l -0.216,0.005 0.016,0.619 z m 0.297,-1.372 0.012,0.466 0.181,-0.005 q 0.196,-0.005 0.261,-0.032 0.065,-0.027 0.101,-0.083 0.037,-0.056 0.035,-0.129 -0.002,-0.09 -0.056,-0.146 -0.054,-0.057 -0.135,-0.069 -0.06,-0.01 -0.239,-0.005 z m 1.497,1.311 -0.139,-1.636 0.695,-0.059 q 0.262,-0.022 0.384,0.012 0.123,0.033 0.204,0.14 0.081,0.107 0.093,0.252 0.016,0.184 -0.082,0.314 -0.098,0.129 -0.311,0.178 0.112,0.053 0.188,0.122 0.077,0.069 0.211,0.25 l 0.227,0.302 -0.395,0.034 -0.269,-0.336 q -0.143,-0.18 -0.194,-0.225 -0.051,-0.046 -0.105,-0.06 -0.054,-0.014 -0.168,-0.005 l -0.067,0.006 0.058,0.683 z m 0.25,-0.972 0.244,-0.021 q 0.238,-0.02 0.295,-0.045 0.057,-0.025 0.087,-0.077 0.029,-0.052 0.023,-0.126 -0.007,-0.083 -0.056,-0.129 -0.048,-0.048 -0.129,-0.054 -0.041,-0.002 -0.241,0.015 l -0.258,0.022 z m 3.125,0.572 -0.357,0.053 -0.197,-0.348 -0.649,0.097 -0.079,0.389 -0.348,0.052 0.39,-1.718 0.347,-0.052 z m -0.699,-0.552 -0.314,-0.569 -0.129,0.635 z m 1.373,-1.264 0.323,-0.068 0.214,1.017 q 0.042,0.199 0.029,0.314 -0.018,0.15 -0.123,0.262 -0.106,0.11 -0.309,0.153 -0.238,0.05 -0.394,-0.056 -0.156,-0.107 -0.212,-0.364 l 0.298,-0.099 q 0.034,0.137 0.082,0.187 0.071,0.076 0.178,0.053 0.108,-0.023 0.14,-0.094 0.032,-0.072 -0.009,-0.267 z m 2.69,1.01 -0.348,0.095 -0.236,-0.322 -0.633,0.172 -0.033,0.395 -0.339,0.092 0.185,-1.752 0.338,-0.092 z m -0.759,-0.466 -0.378,-0.528 -0.054,0.646 z m 1.949,0.071 -0.593,-1.531 0.463,-0.179 0.682,0.937 -0.13,-1.15 0.464,-0.179 0.593,1.531 -0.287,0.111 -0.466,-1.205 0.163,1.323 -0.298,0.115 -0.769,-1.088 0.466,1.205 z m 1.317,-2.293 0.299,-0.142 0.381,0.803 q 0.091,0.191 0.129,0.243 0.062,0.082 0.161,0.103 0.099,0.02 0.224,-0.039 0.127,-0.061 0.168,-0.143 0.04,-0.083 0.017,-0.165 -0.023,-0.082 -0.106,-0.258 l -0.389,-0.82 0.299,-0.142 0.37,0.779 q 0.127,0.267 0.155,0.389 0.028,0.122 -0.002,0.229 -0.029,0.107 -0.116,0.204 -0.088,0.096 -0.264,0.18 -0.212,0.101 -0.346,0.105 -0.133,0.002 -0.233,-0.045 -0.101,-0.049 -0.162,-0.125 -0.09,-0.114 -0.208,-0.362 z m 2.436,0.638 -0.804,-1.431 0.289,-0.162 0.357,0.635 0.226,-0.963 0.388,-0.218 -0.225,0.86 1.059,0.554 -0.374,0.21 -0.771,-0.45 -0.1,0.371 0.243,0.432 z m 1.968,-1.161 -0.743,-1.143 -0.408,0.265 -0.151,-0.233 1.094,-0.711 0.151,0.233 -0.407,0.265 0.743,1.143 z m 1.066,-0.719 -0.956,-1.334 0.269,-0.193 0.956,1.334 z"
       id="path230" />
  </g>
  <defs
     id="defs243">
    <path
       id="B"
       d="M 16.892,16.242 V 4.893 h 8.493 v 1.92 h -6.181 v 2.516 h 5.751 v 1.912 h -5.751 v 3.089 h 6.399 v 1.912 z" />
    <path
       id="C"
       d="m 77.352,21.334 a 2.37,2.37 0 0 0 -1.518,0.882 c -0.84,-0.68 -1.479,-0.425 -1.982,0.462 -0.782,-0.03 -2.514,0.134 -1.835,2.311 -1.564,2.576 3.394,4.048 5.335,4.013 1.941,0.035 6.899,-1.437 5.335,-4.013 0.679,-2.178 -1.052,-2.341 -1.835,-2.311 C 80.349,21.79 79.71,21.536 78.87,22.216 a 2.37,2.37 0 0 0 -1.518,-0.882 z" />
    <path
       id="D"
       d="m 77.334,25.986 c -1.403,0 -2.628,0.571 -2.416,2.05 -1.981,-0.019 -2.862,-0.963 -3.996,-1.694 0.417,1.02 1.008,1.911 2.207,2.348 -0.884,0.047 -1.247,0.297 -1.491,0.594 1.258,0.444 2.611,0.77 3.221,2.021 l 0.447,-1.902 c 0.289,1.538 1.199,2.018 2.028,2.021 0.829,-0.003 1.739,-0.482 2.028,-2.021 l 0.447,1.902 c 0.61,-1.251 1.963,-1.577 3.221,-2.021 -0.244,-0.297 -0.607,-0.547 -1.491,-0.594 1.199,-0.436 1.789,-1.327 2.207,-2.348 -1.134,0.731 -2.015,1.675 -3.996,1.694 0.213,-1.479 -1.013,-2.05 -2.416,-2.05 z" />
    <path
       id="E"
       d="m 73.05,23.95 c 0.578,0.778 1.228,0.793 1.619,0.445 0.474,-0.422 0.556,-1.464 -0.818,-1.716" />
    <path
       id="F"
       d="m 81.653,23.95 c -0.578,0.778 -1.228,0.793 -1.619,0.445 -0.474,-0.422 -0.556,-1.464 0.818,-1.716" />
    <path
       id="G"
       d="m 77.334,24.902 c -0.495,0 -2.223,3.328 0,3.373 2.223,0.045 0.495,-3.373 0,-3.373 z" />
    <path
       id="H"
       d="m 9.579,73.774 c -0.822,0 -1.485,0.653 -1.485,1.463 v 2.85 c 0,0.81 0.663,1.462 1.485,1.462 h 5.181 a 1.47,1.47 0 0 0 1.484,-1.462 v -2.85 c 0,-0.81 -0.662,-1.463 -1.484,-1.463 z m 1.125,1.373 h 2.932 a 0.77,0.77 0 0 1 0.779,0.767 v 1.496 c 0,0.425 -0.347,0.767 -0.779,0.767 h -2.932 c -0.432,0 -0.779,-0.342 -0.779,-0.767 v -1.496 a 0.77,0.77 0 0 1 0.779,-0.767 z" />
    <path
       id="I"
       d="m 5.389,75.748 c 1.633,-0.186 3.195,-0.116 4.744,0 0.349,0.026 0.631,0.411 0.631,0.922 0,0.511 -0.283,0.894 -0.631,0.922 -1.609,0.129 -3.218,0.252 -4.744,0 -0.345,-0.057 -0.631,-0.411 -0.631,-0.922 0,-0.511 0.284,-0.882 0.631,-0.922 z" />
    <path
       id="J"
       d="m 28.265,73.774 c -0.822,0 -1.485,0.653 -1.485,1.463 v 2.85 c 0,0.81 0.663,1.462 1.485,1.462 h 5.181 a 1.47,1.47 0 0 0 1.484,-1.462 v -2.85 c 0,-0.81 -0.662,-1.463 -1.484,-1.463 z m 1.125,1.373 h 2.932 a 0.77,0.77 0 0 1 0.779,0.767 v 1.496 c 0,0.425 -0.347,0.767 -0.779,0.767 H 29.39 c -0.431,0 -0.779,-0.342 -0.779,-0.767 v -1.496 a 0.77,0.77 0 0 1 0.779,-0.767 z" />
    <path
       id="K"
       d="m 30.757,94.783 h 4.34 v 1.554 h -4.34 z" />
    <path
       id="L"
       d="m 44.246,102.198 c 0,0.379 1.785,0.416 1.785,0" />
  </defs>
</svg>
