<?xml version="1.0" encoding="UTF-8" standalone="no"?>
<svg
   xmlns:dc="http://purl.org/dc/elements/1.1/"
   xmlns:cc="http://creativecommons.org/ns#"
   xmlns:rdf="http://www.w3.org/1999/02/22-rdf-syntax-ns#"
   xmlns:svg="http://www.w3.org/2000/svg"
   xmlns="http://www.w3.org/2000/svg"
   xmlns:xlink="http://www.w3.org/1999/xlink"
   xmlns:sodipodi="http://sodipodi.sourceforge.net/DTD/sodipodi-0.dtd"
   xmlns:inkscape="http://www.inkscape.org/namespaces/inkscape"
   width="280.176"
   height="348.132"
   viewBox="0 0 74.13 92.11"
   version="1.1"
   id="svg126"
   sodipodi:docname="Coat of arms of Sumenep Regency (1) (1).svg"
   inkscape:version="1.0.1 (3bc2e813f5, 2020-09-07)">
  <metadata
     id="metadata130">
    <rdf:RDF>
      <cc:Work
         rdf:about="">
        <dc:format>image/svg+xml</dc:format>
        <dc:type
           rdf:resource="http://purl.org/dc/dcmitype/StillImage" />
      </cc:Work>
    </rdf:RDF>
  </metadata>
  <sodipodi:namedview
     pagecolor="#ffffff"
     bordercolor="#666666"
     borderopacity="1"
     objecttolerance="10"
     gridtolerance="10"
     guidetolerance="10"
     inkscape:pageopacity="0"
     inkscape:pageshadow="2"
     inkscape:window-width="1366"
     inkscape:window-height="705"
     id="namedview128"
     showgrid="false"
     inkscape:zoom="0.91388344"
     inkscape:cx="151.64287"
     inkscape:cy="215.26089"
     inkscape:window-x="-8"
     inkscape:window-y="-8"
     inkscape:window-maximized="1"
     inkscape:current-layer="svg126" />
  <style
     id="style2"><![CDATA[.B{stroke-width:.265}.C{fill:#fefd02}.D{fill:none}.E{stroke:#737d02}.F{fill:#b6b6b6}.G{stroke-width:.4}.H{stroke-width:.423}.I{stroke-linecap:round}]]></style>
  <defs
     id="defs24">
    <linearGradient
       id="A"
       gradientUnits="userSpaceOnUse">
      <stop
         offset="0"
         stop-color="#d3d3d3"
         id="stop4" />
      <stop
         offset="1"
         stop-color="#fff"
         id="stop6" />
    </linearGradient>
    <linearGradient
       xlink:href="#A"
       id="B"
       x1="26.942"
       y1="68.44"
       x2="17.133"
       y2="69.39" />
    <linearGradient
       xlink:href="#A"
       id="C"
       x1="22.823"
       y1="68.188"
       x2="11.254"
       y2="68.725" />
    <linearGradient
       xlink:href="#A"
       id="D"
       x1="210.174"
       y1="181.405"
       x2="200.671"
       y2="182.356"
       gradientTransform="matrix(-1.0322064,0,0,0.9996604,264.13178,-112.90394)" />
    <linearGradient
       xlink:href="#A"
       id="E"
       x1="206.184"
       y1="181.153"
       x2="194.975"
       y2="181.691"
       gradientTransform="matrix(-1.0322064,0,0,0.9996604,264.13178,-112.90394)" />
    <linearGradient
       id="F"
       x1="23.867"
       y1="71.951"
       x2="50.265"
       y2="71.951"
       gradientUnits="userSpaceOnUse">
      <stop
         offset="0"
         stop-color="#fff"
         id="stop13" />
      <stop
         offset=".277"
         stop-color="#d3d3d3"
         id="stop15" />
      <stop
         offset=".497"
         stop-color="#fff"
         id="stop17" />
      <stop
         offset=".709"
         stop-color="#dcdcdc"
         id="stop19" />
      <stop
         offset="1"
         stop-color="#fff"
         id="stop21" />
    </linearGradient>
  </defs>
  <g
     id="g1009">
    <path
       d="M16.31 3.36l.869.457c6.802 3.578 14.325 4.144 19.887 4.144s13.086-.566 19.889-4.144l.869-.457.309.932c1.873 5.663 5.596 10.875 12.312 14.828l.697.41-.391.709c-1.875 3.407-3.615 6.582-4.486 10.58-1.078 4.946-.775 10.961 1.748 19.961 2.423 8.642 2.253 14.257.781 18.058-1.465 3.784-4.266 6.083-8.018 7.996-6.765 3.449-16.448 5.001-23.139 11.336l-.572.541-.573-.541c-6.691-6.334-16.374-7.886-23.139-11.336-3.752-1.913-6.553-4.212-8.018-7.996-1.471-3.802-1.642-9.416.781-18.058 2.523-9 2.826-15.015 1.748-19.961-.871-3.999-2.611-7.173-4.487-10.58l-.391-.709.698-.41C10.4 15.167 14.125 9.955 15.998 4.292z"
       fill="#01693b"
       id="path26" />
    <g
       fill="#018f50"
       class="B"
       id="g32">
      <path
         d="M15.016.222c-1.5 7.39-5.179 14.022-14.833 18.576 4.806 9.014 8.814 13.788 3.875 31.404-9.978 35.591 21.178 26.616 33.008 41.694 11.83-15.078 42.986-6.103 33.008-41.694-4.939-17.615-.931-22.389 3.875-31.404C64.295 14.244 60.616 7.612 59.116.222c-7.119 4.886-16.444 5.613-22.05 5.613s-14.93-.727-22.05-5.613zM16.31 3.36l.869.457c6.802 3.578 14.325 4.144 19.887 4.144s13.086-.566 19.889-4.144l.869-.457.309.932c1.873 5.663 5.596 10.875 12.312 14.828l.697.41-.391.709c-1.875 3.407-3.615 6.582-4.486 10.58-1.078 4.946-.775 10.961 1.748 19.961 2.423 8.642 2.253 14.257.781 18.058-1.465 3.784-4.266 6.083-8.018 7.996-6.765 3.449-16.448 5.001-23.139 11.336l-.572.541-.573-.541c-6.691-6.334-16.374-7.886-23.139-11.336-3.752-1.913-6.553-4.212-8.018-7.996-1.471-3.802-1.642-9.416.781-18.058 2.523-9 2.826-15.015 1.748-19.961-.871-3.999-2.611-7.173-4.487-10.58l-.391-.709.698-.41C10.4 15.167 14.125 9.955 15.998 4.292l.309-.932z"
         stroke="#014e2c"
         id="path28" />
      <path
         d="M17.974 7.542c6.668 3.013 13.567 3.297 19.092 3.297s12.423-.284 19.092-3.297c2.097 4.904 5.628 9.535 11.066 13.17-1.532 2.856-2.971 5.805-3.775 9.494-1.204 5.526-.809 12.09 1.787 21.352 2.326 8.296 2.025 13.255.869 16.24s-3.212 4.722-6.639 6.469c-5.754 2.934-15.086 4.471-22.4 10.556-7.314-6.085-16.646-7.622-22.401-10.556-3.427-1.747-5.483-3.483-6.638-6.469s-1.457-7.944.869-16.24c2.596-9.261 2.991-15.826 1.787-21.352-.804-3.689-2.243-6.638-3.775-9.494 5.438-3.635 8.969-8.265 11.067-13.17z"
         stroke="#007d54"
         id="path30" />
    </g>
    <path
       d="M15.466 1.301c-1.617 6.982-5.421 13.35-14.343 17.78 2.257 4.178 4.365 7.611 5.331 12.045 1.016 4.661.76 10.393-1.727 19.264-2.471 8.814-2.363 14.766-.736 18.969S8.77 76.116 12.7 78.12c7.635 3.893 18.142 5.45 24.365 12.711 6.223-7.261 16.73-8.818 24.365-12.711 3.929-2.004 7.082-4.558 8.709-8.761s1.735-10.155-.736-18.969c-2.487-8.871-2.742-14.603-1.727-19.264.966-4.434 3.074-7.867 5.331-12.045-8.922-4.43-12.725-10.799-14.343-17.78-7.198 4.536-16.144 5.231-21.599 5.231s-14.401-.695-21.599-5.231zm.838 1.363c.115-.001.228.026.329.08l.869.457c6.642 3.494 14.048 4.065 19.563 4.065s12.922-.571 19.564-4.064l.87-.457c.181-.095.395-.106.585-.029a.7.7 0 0 1 .401.427l.309.932c1.826 5.524 5.422 10.573 12.004 14.447l.697.41c.325.191.439.606.257.937l-.391.708c-1.875 3.407-3.569 6.508-4.415 10.393-1.047 4.805-.768 10.689 1.737 19.625 2.446 8.726 2.309 14.498.761 18.498-1.538 3.975-4.523 6.414-8.351 8.365-6.929 3.533-16.488 5.078-22.976 11.221l-.572.542a.7.7 0 0 1-.958 0l-.573-.541c-6.489-6.143-16.048-7.688-22.977-11.222-3.828-1.952-6.813-4.391-8.351-8.365-1.548-4-1.686-9.772.761-18.498 2.505-8.936 2.785-14.82 1.738-19.625-.846-3.885-2.541-6.986-4.416-10.392h0l-.391-.708c-.182-.331-.068-.746.257-.937l.697-.409.001-.001C9.915 14.649 13.512 9.6 15.339 4.077l.309-.932c.094-.283.358-.475.656-.477z"
       fill="#00ce73"
       id="path34" />
    <path
       d="M17.231 5.634c-2.002 5.483-5.772 10.562-12.055 14.461 1.75 3.188 3.443 6.37 4.314 10.369 1.152 5.285.794 11.613-1.771 20.766-2.367 8.441-2.114 13.684-.828 17.008 1.293 3.341 3.643 5.289 7.221 7.113 6.195 3.159 15.831 4.822 22.953 11.194 7.123-6.372 16.758-8.035 22.953-11.194 3.578-1.825 5.928-3.772 7.221-7.113 1.286-3.324 1.538-8.566-.828-17.008-2.566-9.153-2.923-15.48-1.771-20.766.871-3.999 2.565-7.181 4.314-10.369-6.284-3.899-10.053-8.978-12.055-14.461-6.953 3.404-14.376 3.992-19.834 3.992s-12.881-.587-19.834-3.992zm.742 1.908c6.668 3.013 13.567 3.297 19.092 3.297s12.423-.284 19.092-3.297c2.097 4.904 5.628 9.535 11.066 13.17-1.532 2.856-2.971 5.805-3.775 9.494-1.204 5.526-.809 12.09 1.787 21.352 2.326 8.296 2.025 13.255.869 16.24s-3.212 4.722-6.639 6.469c-5.754 2.934-15.086 4.471-22.4 10.556-7.314-6.085-16.646-7.622-22.401-10.556-3.427-1.747-5.483-3.483-6.638-6.469s-1.457-7.944.869-16.24c2.596-9.261 2.991-15.826 1.787-21.352-.804-3.689-2.243-6.638-3.775-9.494 5.438-3.635 8.969-8.265 11.067-13.17z"
       fill="#018f50"
       stroke="#014e2c"
       class="B"
       id="path36" />
    <path
       d="M17.476 6.24c-2.033 5.289-5.729 10.192-11.702 14.002 1.682 3.074 3.311 6.21 4.164 10.125 1.172 5.379.8 11.792-1.778 20.986-2.351 8.386-2.077 13.528-.842 16.719 1.247 3.223 3.469 5.069 7.002 6.871 6 3.059 15.533 4.753 22.745 11.02 7.213-6.267 16.746-7.961 22.745-11.02 3.533-1.802 5.755-3.648 7.002-6.871 1.235-3.192 1.509-8.333-.842-16.719-2.578-9.195-2.95-15.608-1.778-20.986.853-3.915 2.482-7.05 4.164-10.124-5.973-3.81-9.669-8.713-11.702-14.002-6.919 3.263-14.213 3.843-19.589 3.843s-12.67-.58-19.589-3.843zm.49.845c.067-.001.134.013.195.041 6.57 2.969 13.394 3.256 18.904 3.256s12.333-.287 18.904-3.256a.46.46 0 0 1 .609.236c2.065 4.829 5.535 9.383 10.9 12.969.196.131.26.389.149.596-1.527 2.845-2.941 5.748-3.731 9.375-1.183 5.432-.804 11.912 1.78 21.131 2.341 8.352 2.063 13.409.855 16.529-1.2 3.1-3.388 4.942-6.857 6.711-5.875 2.996-15.12 4.514-22.315 10.501-.169.141-.415.141-.585 0-7.196-5.987-16.441-7.505-22.316-10.501-3.47-1.769-5.657-3.611-6.857-6.711-1.207-3.119-1.486-8.177.855-16.529 2.585-9.219 2.964-15.699 1.78-21.131-.79-3.627-2.205-6.53-3.732-9.375-.111-.207-.047-.465.149-.596 5.365-3.586 8.834-8.14 10.9-12.969a.46.46 0 0 1 .414-.278z"
       fill="#00ce73"
       id="path38" />
  </g>
  <g
     id="g1000">
    <g
       transform="translate(0 .409)"
       id="g62">
      <g
         stroke="#8e8e8e"
         stroke-width=".269"
         stroke-linejoin="round"
         id="g58">
        <path
           d="M20.876 64.423l.097 7.061c-.016-1.165-3.018-1.389-5.121-1.134s-3.438.181-4.462-.52l3.999-2.196c-1.546-.828-3.154-1.6-3.755-3.283 3.13.829 8.191-2.066 9.242.071z"
           fill="url(#C)"
           id="path40" />
        <path
           d="M19.242 66.124l.171 6.636c.191-1.15 1.298-.155 1.561-1.275l-.097-7.061c-.19 1.374-1.098.361-1.634 1.7z"
           class="F"
           id="path42" />
        <path
           d="M19.272 66.051c-.845 2.291-.513 4.473-.448 6.679-.017 1.932 4.872.237 7.656.401v-6.245c-.387-1.4-5.575 1.188-7.207-.835z"
           fill="url(#B)"
           id="path44" />
        <path
           d="M24.927 75.636c-1.237-2.034-1.218-4.139-.069-6.679.248-.633 1.19-.803 1.621-2.071.069 3.902 1.311 6.227-1.552 8.75z"
           class="F"
           id="path46" />
        <path
           d="M53.255 64.423l-.097 7.061c.016-1.165 3.018-1.389 5.121-1.134s3.438.181 4.462-.52l-3.999-2.196c1.546-.828 3.154-1.6 3.755-3.283-3.13.829-8.191-2.066-9.242.071z"
           fill="url(#E)"
           id="path48" />
        <path
           d="M54.889 66.124l-.171 6.636c-.191-1.15-1.298-.155-1.561-1.275l.097-7.061c.19 1.374 1.098.361 1.634 1.7z"
           class="F"
           id="path50" />
        <path
           d="M54.86 66.051c.845 2.291.513 4.473.448 6.679.017 1.932-4.872.237-7.656.401v-6.245c.387-1.4 5.575 1.188 7.207-.835z"
           fill="url(#D)"
           id="path52" />
        <path
           d="M49.204 75.636c1.237-2.034 1.218-4.139.069-6.679-.248-.633-1.19-.803-1.621-2.071-.069 3.902-1.311 6.227 1.552 8.75z"
           class="F"
           id="path54" />
        <path
           d="M37.066 67.954c-3.548 0-6.821 1.551-10.805.916-.478-.076-1.15-.473-1.402.086-1.149 2.541-1.168 4.645.069 6.679 5.265 1.173 9.676-1.336 12.139-1.336s6.874 2.509 12.139 1.336c1.237-2.034 1.218-4.139.069-6.679-.253-.559-.925-.162-1.402-.086-3.984.635-7.257-.916-10.805-.916z"
           fill="url(#F)"
           id="path56" />
      </g>
      <path
         d="M26.215 73.186q.01.211.085.321.138.201.512.235.224.02.369-.017.274-.071.297-.328.013-.15-.111-.244-.125-.092-.401-.179l-.315-.101q-.464-.15-.634-.292-.288-.238-.248-.684.037-.408.357-.651.321-.243.895-.191.48.043.794.329.317.284.29.769l-.609-.055q.008-.275-.204-.411-.141-.089-.362-.109-.245-.022-.4.064-.155.086-.171.263-.015.163.122.256.088.062.384.161l.512.173q.336.113.499.267.252.239.216.644-.037.416-.381.663-.342.245-.922.193-.593-.053-.908-.354-.315-.302-.273-.776zm.813-2.135zm1.413.18l.642-.083.242 1.857q.041.312.133.445.148.239.533.189.383-.05.465-.319.055-.153.014-.465l-.242-1.857.642-.083.242 1.857q.063.482-.052.77-.215.528-1 .63-.785.102-1.13-.353-.185-.249-.247-.731zm1.216-.158zm3.706-.859l.886-.232.773 2.947-.574.15-.523-1.993q-.023-.086-.061-.24-.039-.156-.061-.24l.091 2.62-.598.157-1.202-2.328q.022.084.065.239.042.153.065.239l.523 1.993-.574.15-.773-2.947.896-.235 1.143 2.177zm4.796-.098l-1.612.012.005.647 1.48-.011.004.529-1.48.011.006.783 1.687-.012.004.548-2.309.017-.022-3.047 2.234-.016zm1.693-.15l.606.16-.32 1.213 1.457-.913.795.21-1.527.895.812 2.068-.791-.209-.57-1.527-.373.224-.26.985-.606-.16zm3.499 2.849l.763.125-.182-1.245zm.344-1.864l.71.116.573 3.181-.681-.111-.093-.65-1.108-.181-.309.584-.657-.107zm.351.057zm2.161.724l.047.817.72-.041q.215-.012.319-.068.185-.098.17-.353-.016-.277-.205-.361-.106-.048-.313-.036zm.841-.578q.32-.012.496.05.177.062.305.196.106.11.172.247.066.137.076.317.012.217-.085.433-.097.215-.344.316.215.072.311.224.098.15.116.47l.012.204q.012.208.033.282.031.116.126.167l.004.076-.7.04q-.035-.1-.051-.161-.032-.127-.042-.261l-.02-.282q-.021-.291-.13-.382-.107-.091-.387-.075l-.656.038.069 1.193-.621.036-.175-3.042z"
         fill="red"
         id="path60" />
    </g>
  </g>
  <g
     id="g986">
    <g
       class="E"
       id="g74">
      <path
         d="M51.473 41.726c-1.189.713-2.462 1.359-3.396 2.411-.166.669-1.54.948-1.072 1.699.512.88 1.285-.13 1.887-.368.578-.439 1.253-.788 2.003-.667.816.138.853 1.211.66 1.844-.185.859-.51 1.857-.052 2.685a15.33 15.33 0 0 0 1.162 1.938c.386.648.918 1.315 1.322 1.863.226.174.307 1.534.452.723.122-.671.12-1.616.476-2.097l.286 2.381c.263-.498.376-1.104.76-1.52-.105 1.014.83 1.98.359 2.975-.308.28.395-.548.522-.661.406-.253.562-1.079.722-1.191.628.424 1.155.959 1.51 1.626.133.349.612 1.001.465.179-.007-.797.157-1.668.386-2.372.211.576.309 1.266.669 1.76-.029-1.342-.002-2.688.146-4.023.057-1.014-.532-1.915-1.348-2.467-.778-.535-1.537-1.156-1.928-2.041-.593-.93-1.283-1.822-1.609-2.894-.381-.9-.847-1.948-1.815-2.331-.827-.295-1.925-.281-2.515.462l-.052.085z"
         class="C H"
         id="path64" />
      <g
         class="B"
         id="g72">
        <path
           d="M50.279 43.825c.618-.416 1.637-.952 2.163-.112.224.356.41 1.472.681.593.538-.698 1.38-.043 1.376.672l.16.946m-1.413.362c-.452.742-.178 1.581.179 2.269.071.448-.015.9.002 1.35m.742-3.112c-.561.874.643 1.477.616 2.274-.044.396-.17.821.018 1.201m.361-2.317c.452.825.797 1.739.739 2.692l.032.063.044.032m.09-2.534c.527.789.794 1.735.799 2.641l.017.077-.037.051m.198-2.28c.634.749.927 1.743.923 2.714h-.036m.271-2.207c.123.876.937 1.699.461 2.608l.009.088m.471-1.991c-.155.976 1.102 1.525.796 2.551"
           class="D"
           id="path66" />
        <path
           d="M34.826 50.738c.968 1.453 2.005 2.994 3.609 3.8.939.542 1.695 1.342 2.225 2.289-.246-.195-.795-.569-1.139-.607-.406-.045-.566.118-.451.645-.278-.304-.325-.281-.602-.464-.133-.088-.329-.133-.555-.141-.049-.002.132.585.081.586-.033.001-.298-.584-.333-.582-.534.036-1.162.233-1.547.512-.087.048.521.231.439.286-.056.038-.546-.203-.6-.161a3.82 3.82 0 0 0-.403.358c-.028.029.738.493.71.522-.021.023-.835-.389-.856-.366-.485.545-.84 1.211-1.097 1.834-.664.587-1.608 2.297-.342 2.681.817-.366 2.291.067 2.489-1.082-.275-1.18.401-1.846 1.58-1.727a2.7 2.7 0 0 1 2.625-.886c1.125-.092 2.315.173 3.397-.12.851-.792-.027-2.012-.374-2.862-.777-1.412-1.73-2.747-2.162-4.321-.32-1.299-1.806-1.37-2.899-1.351-1.232.164-3.135.116-3.795 1.16z"
           class="C"
           id="path68" />
        <path
           d="M39.042 53.271l1.597-1.235-.011.002.061-.051m-1.05 1.791c.397-.451.873-.824 1.194-1.339m-.778 1.954c.427-.544 1.124-.783 1.556-1.321m-1.067 1.846c.487-.356.944-.782 1.194-1.339m-.597 1.682c.323-.269.695-.48 1.004-.776.093-.102.269-.184.245-.346m-.815 1.538c.415-.197.833-.393 1.176-.706m-.705 1.249c.293-.186.632-.28.941-.434m-.272.67l.977-.09m-.995.741l1.683.163m-1.882.38c.396-.055.7.3 1.086.308"
           class="D"
           id="path70" />
      </g>
    </g>
    <path
       d="M36.396 60.343l-3.041.612c-.052.434.092.814.611.972.817-.366 2.291.067 2.489-1.082-.042-.18-.059-.347-.058-.502z"
       fill="#fff"
       stroke="#000"
       class="B"
       id="path76" />
    <path
       d="M14.813 45.997c-.182 1.617-.821 3.141-1.156 4.727-.252 1.449-.873 3.286.584 4.304.829.42 1.182 1.835 1.884 2.005.25-.871 2.29-2.407.423-2.632-.17-.444-1.182-.772-.97-.775.373-1.082.155-2.319.336-3.481-.482-1.19.716-2.251 1.872-1.957 1.311.316 2.436 1.133 3.744 1.482 1.59.69 3.324.784 5.032.763 1.224.11 1.963-1.837.788-2.421-1.222-.138-2.479.066-3.622-.591-1.604-.487-3.298-.604-4.856-1.252-1.101-.4-2.271-.093-3.41-.247-.226-.035-.431.04-.649.075z"
       class="B C E"
       id="path78" />
    <path
       d="M16.63 54.416l-1.18 2.032c.205.289.416.521.675.584.245-.856 2.214-2.352.505-2.616z"
       fill="#fff"
       stroke="#000"
       class="B"
       id="path80" />
    <g
       class="E"
       id="g116">
      <path
         d="M13.7 52.674c.336.231.71.397 1.059.606m-.869-1.348c.219-.016.401.14.589.23.133.095.276.206.425.249m-.815-1.393l.959.76m-.886-1.637c.024.341.409.426.632.6.065.068.114.151.192.205m-.598-1.62l.769.633m-.57-1.311c.259.178.557.325.747.582l.04.024"
         class="D B"
         id="path82" />
      <path
         d="M27.947 29.261l5.374 9.366 2.354-13.051c1.446-2.736.297-3.629-.017-4.477l-1.556 3.728c.456-2.047 1.932-3.868.832-6.261l-1.918 5.247c1.038-2.98 2.3-6.072.724-7.745l-1.846 6.55c1.81-5.312 1.124-8.202-.326-10.35.603 7.371-2.573 10.219-3.622 16.993z"
         class="C G"
         id="path84" />
      <path
         d="M26.104 31.847c.01 1.819-.484 3.569-1.181 5.225-.659 1.466.683 2.935-.364 4.221-.636 1.243-1.124 2.6-.908 4.018-.213 1.943 2.276 2.12 3.376 3.15-1.584 2.817 2.181 3.088 5.6 3.223 2.057.082 4.022-.507 6.023-.789 1.734.125 1.979 2.521 3.742 2.889 1.446.821 3.254.909 4.521 2.056 1.706.613 1.789 2.714 2.23 4.198-.427 1.432.84 2.677.044 3.913-1.072 1.738 2.007 1.584 2.317.322.996-1.228-.496-2.495-.417-3.826-.435-1.456.762-3.083-.331-4.318-1.047-1.29-2.542-2.509-2.622-4.293.231-1.806.6-3.711-.231-5.448-.573-1.653-2.439-2.282-3.959-2.78-1.952-.039-3.295-1.703-5.08-2.16-1.776-.161-3.367-.917-4.833-1.89-1.899-.915-2.777-2.888-3.796-4.596-1.29-.843-1.133-2.664-2.371-3.499-.517-.086-1.806-.629-1.761.384z"
         class="C G"
         id="path86" />
      <g
         class="D"
         id="g94">
        <path
           d="M27.335 35.773c-.186.553-.447 1.093-.489 1.683m.778-1.339c-.05.484-.442.867-.434 1.357m.959-.977c-.314.427-.39.979-.615 1.448m.868-.833l.036 1.737c-.015.074-.104.103-.109.181m.435-1.701c.184.879.156 1.785.291 2.671l.017.008m.217-2.19c-.13.829.263 1.607.407 2.406-.022.108.025.223-.026.327m.053-1.919c.206.528.403 1.081.363 1.657.01.193.09.406-.019.586m.29-1.591c-.052.708.128 1.408.073 2.117m.343-1.52l.004.118c.027.131.023.769.03 1.085-.001.202-.009.405-.034.606m.524-1.158c-.022.507 0 1.021-.109 1.52m.544-.778c-.191.484-.052 1.026-.223 1.52l-.013.091m.67-1.321l-.036 1.556c-.028-.013-.024.024-.036.036m.47-.832l-.055 1.61m-6.349-4.398c.153.394.232.85.174 1.265-.158.339-.445.605-.562.969-.245.4-.335.865-.315 1.332 0 .418-.119.902.139 1.268l.052-.023m.333-.742c.401.298.785.621 1.245.826 0 .014.228.11.034.07m-.946-1.638c.252.409.895.461 1.178.742m-1.025-1.638c.142.469.763.405 1.047.742l.079.025m-1.023-1.56c.355.387.883.527 1.305.819M26.8 40.381c.447.22.93.401 1.331.691"
           class="B"
           id="path88" />
        <path
           d="M37.792 49.261c1.11.035 2.302 1.392 2.467 2.662"
           stroke-width=".45"
           class="I"
           id="path90" />
        <path
           d="M30.465 47.616l-.072.968m.959-.877l-.072.968m1.058-.851l-.072.968m1.013-.886l-.072.968m-3.203 1.04l.389.887m.152-.914l.389.887m.217-.869l.389.887m.316-.896l.389.887m.354-.925l.389.887m.263-.9l.389.887m.276-.951l.389.887m.328-.887l.389.887m.276-.925l.389.887m.251-.977l.389.887m5.098-5.63l.537.87m-.013-1.049l.525 1.075m.064-.998l.525 1.062m.14-1.113l.32 1.1m.179-1.011l.141.908m.55-.869l-.115.819m.653-.551l-.32.576m.294.115l.537-.192m-.025.333l.576.345m-.653-.038l.409.486m-.409-.013l.307.678m-.422-.281l-.064.832m-.282-.602l-1.036.589m.499-.755l-1.279.64m.409-.538l-1.382.115m-.896-.409l1.574.064m-1.689-.652l1.318.32m-1.241-.986l1.164.742"
           class="B"
           id="path92" />
      </g>
      <path
         d="M51.783 63.757c-1.01.481-2.071.739-2.715.421-.671 1.493 2.141 1.299 2.437.095.139-.171.225-.343.279-.516z"
         fill="#fff"
         class="H"
         id="path96" />
      <path
         d="M49.519 62.897h1.013m-.38-.778l.597-.054m-.669-.507l.959-.036m-1.194-.76h1.212m-1.05-.742l.941-.018m-1.122-.615h1.176m-1.429-.724l.778.018m-1.013-.814l.887.018m-1.502-.416l1.52-.054m-.507-.887l-1.429.434m.47-1.049l-.796.489m.362-.905l-.796.47m.144-.923l-.923.452m-.597-.796l1.14-.145m-.794-.356l-1.356.243m.921-.806l-1.868.32m-.665-.384l1.318-.269m-2.022-.255l1.459-.307m-1.958-.18l1.292-.166m-1.893-.396l1.523-.154m-3.916-2.943l1.791-.115m-1.574.614h1.958m-1.177.563l1.382.026m-.921.627l1.164.038m-.768.742l1.51.038m4.341-3.593l-1.158.651m1.285-.144l-1.068.47m.905-.036l-.742.688m.905-.036l-.796.489m.806.079l-.755.333m.794.089l-.704.243m.563.23l-.473.179m.486.218l-.397.115m.358.23l-.461.269m.692.55l-.384.409m.691.116l-.461.409m.717.026l-.358.473"
         class="B D"
         id="path98" />
      <g
         class="C G"
         id="g104">
        <path
           d="M26.864 25.26c-1.106.534-1.574 1.844-1.532 3.009-.134.634.408 1.155.295 1.745-.173-.562-.466-1.141-1.036-1.389-.873-.328-2.035-.164-2.599.63-.308.653-.329 1.393-.328 2.098-.21.844-.151 1.643.222 2.419.13.74.251 1.48.226 2.234.087.657.023 1.33.158 1.983.559.646 1.515.536 2.285.543.702.001 1.156-.604 1.245-1.246.124-.592.184-1.175.372-1.751.132-.543.429-.995.705-1.473.351-.652.601-1.373.564-2.123-.01-.281.139-.878.122-.241-.014.991-.09 1.993.1 2.972.247-.081.391-.561.297.005-.169.53.575.886.59.293-.118.675.288 1.086.623.786.061.368-.056 1.406.513.83.306-.013-.06 1.097.522 1.042.238-.143.258-1.071.296-.371-.024.483-.003 1.179.431 1.275-.101.815 1.109 1.017 1.236.163.294-.714.44-1.47.479-2.235.138-.655-.249-1.478-1.027-1.282-.758-.241-.084-.254.358-.727-.431.048-.957-.127-1.546-.622.558-.146.597-.198 1.119-.679-.379-.161-1.269-.365-1.925-.549.436-.043.569-.211 1.129-.555l-1.49-.448c.469-.121.686-.116 1.323-.527-.696-.148-1.267-.323-1.939-.691.326.138 1.377-.399.983-.683-.678.223-1.139-.168-1.332-.787-.197-.687-.832-.341-.959.159.112-.6.396-1.235.189-1.855-.134-.629-.212-1.335-.566-1.87zm-5.338 4.56c-1.084-.765-.668-1.597-1.068-2.533.783.149 1.208.291 1.846.923z"
           id="path100" />
        <path
           d="M24.168 26.473c0 .385.095 1.06-.517.797-.432-.212-1.111-.266-1.282.306-.117.539-.381 1.036-.818 1.384-.377.447-.684.973-.845 1.537-.288.408-.595 1.392.258.986.577-.051 1.042-.423 1.545-.672.19-.268.451-.321.304.075-.128.383.227.631.387.2.184-.293.615-1.111.635-.361.192.335.236 1.08.586 1.115.424-.699-.126-1.611.384-2.27.312-.345.602.911.7.206l-.015-2.436c.329-.448.015-.945-.527-.847-.259-.051-.54-.139-.794-.022z"
           id="path102" />
      </g>
      <path
         d="M22.719 33.228c-.132-.627-.948.078-.373.338.052 1.034.982.044.373-.338zm1.189.87c-.57.196-.509 1.668.129 1.168.166-.328.144-.949-.129-1.168zm1.37-1.292c-.852-.112-.387 1.537.124.633.057-.165.192-.678-.124-.633zm-.359 3.698c-.457.173-1.327.655-1.021 1.207.536.398 1.266-.103 1.285-.722.053-.198.012-.519-.263-.484z"
         fill="#737d02"
         stroke="none"
         id="path106" />
      <g
         class="C G"
         id="g112">
        <path
           d="M35.28 23.42l-.568 16.638c2.126-1.122 4.77-.597 6.281-3.675-.798.465-1.127.383-1.57.434 1.278-.606 2.311-1.364 2.773-2.472-.954.616-1.804 1.024-2.506 1.136 1.402-.718 2.816-1.43 3.174-2.639-1.338.905-2.227 1.135-3.207 1.503 2.073-1.111 3.365-2.193 3.675-3.241-1.37.947-2.41 1.454-3.408 1.904 3.992-2.457 3.59-3.11 4.276-4.209-1.347 1.294-2.695 1.949-4.042 2.773 1.907-1.482 3.923-2.935 4.243-4.844-1.86 1.626-2.901 2.023-4.176 2.773 2.442-1.719 5.018-3.393 4.276-6.214-1.623 2.309-2.92 3.229-4.31 4.544 1.897-2.324 4.407-4.471 4.042-7.45-1.268 1.738-2.337 3.676-4.009 5.011 2.662-3.199 4.426-6.174 4.076-8.619-2.264 4.921-4.923 6.838-4.711 6.982 1.831-3.178 5.448-6.552 4.143-9.388-1.635 3.951-3.762 6.038-4.777 8.118 1.032-2.957 4.646-5.706 4.343-11.058-2.93 3.906-4.346 9.109-8.018 11.994z"
           id="path108" />
        <path
           d="M31.681 39.452a.61.61 0 0 1 .091.689c.46.149.316.51.368.802 1.154-.547 1.802-.571.919.986l.117 2.038 2.84-3.107c.412-.465.865-.853 1.036-1.771-.619.432-1.175.714-1.637.768.91-.54 1.932-.982 1.871-2.372-.6.471-1.206.831-1.837.802.877-.454 1.834-.799 2.105-2.071-1.094.606-1.54.519-2.238.702.879-.405 1.93-.444 2.37-1.786-.881.43-1.423.484-2.036.617.942-.381 1.8-.91 2.305-2.071-1.007.653-1.629.653-2.339.802 1.097-.424 2.336-.658 2.372-2.506-.943.899-1.384.928-1.871 1.036.961-.567 1.962-1.082 2.005-2.873-.614.773-1.298 1.231-2.038 1.437.969-.764 2.258-1.24 2.005-3.107-.729 1.055-1.515 1.388-2.305 1.67 1.316-.903 2.546-1.491 2.232-3.693-.621.867-1.527 1.622-2.252 1.71 1.075-.635 2.503-1.454 1.891-3.362-.59.822-1.092 1.758-2.071 2.071 1.993-1.719 1.826-3.242 1.069-4.711-5.855 4.918-3.02 10.154-4.969 17.301z"
           id="path110" />
      </g>
      <path
         d="M34.272 36.44c-.022.938-.342 1.649-.87 2.201m1.361-.38c-.059.769-.369 1.218-.688 1.656"
         class="B D"
         id="path114" />
    </g>
    <path
       d="M27.19 45.599c1.437.027 2.508 1.473 2.058 2.842-.139 1.603-1.627.921-2.63.719-1.71-.205-3.22-1.135-4.909-1.446-.622-.455-2.654-.641-1.683.6.548 1.278.038 2.88.943 4.01.638.781 2.156.156 1.762 1.613-.242.654.263 2.928-.926 1.675-.801-.859-2.109-1.176-2.629-2.317-.905-.548-.842-1.76-1.263-2.625-.491-1.114-.242-2.377-.771-3.476-.572-1.074.032-2.568 1.248-2.824 1.019.322 1.793 1.395 3.039.858 1.321-.139 2.67-.267 3.947.19.594.186 1.208.129 1.814.182z"
       class="C"
       id="path118" />
    <path
       d="M19.228 51.516l.76-.615m-1.031-.29l.706-.579m-1.195-.38l.887-.579m-.923-.109l.651-.416m-1.031-.398l1.031-.796m1.195-1.086l.018.869m.597-.941l-.018.905m.778-.688l.054.832m.778-.651l.109 1.049m.669-.995l.181 1.122m.724-1.031l.054 1.14m.742-.959l.091 1.249m.561-1.123l.235 1.285m.561-1.14l.235 1.212m.579-1.067l.253 1.158m.417-1.086l.308 1.23"
       fill="#f4a460"
       class="B E"
       id="path120" />
    <path
       d="M26.618 49.16c-1.71-.205-3.22-1.135-4.909-1.446-.622-.455-2.654-.641-1.683.6.548 1.278.038 2.88.943 4.01.638.781 2.156.156 1.762 1.613-.242.654.263 2.928-.926 1.675-.801-.859-2.109-1.176-2.629-2.317-.905-.548-.842-1.76-1.263-2.625-.491-1.114-.242-2.377-.771-3.476-.572-1.074.032-2.568 1.248-2.824 1.019.322 1.793 1.395 3.039.858 1.321-.139 2.67-.267 3.947.19.594.186 1.208.129 1.814.182"
       class="D E H I"
       id="path122" />
    <path
       d="M22.016 52.82l-.367 2.636.157.156c1.189 1.253.683-1.022.926-1.675.231-.852-.196-.991-.715-1.117z"
       fill="#fff"
       stroke="#000"
       class="B"
       id="path124" />
  </g>
</svg>
