<?xml version="1.0" encoding="UTF-8" standalone="no"?>
<svg
   xmlns:dc="http://purl.org/dc/elements/1.1/"
   xmlns:cc="http://creativecommons.org/ns#"
   xmlns:rdf="http://www.w3.org/1999/02/22-rdf-syntax-ns#"
   xmlns:svg="http://www.w3.org/2000/svg"
   xmlns="http://www.w3.org/2000/svg"
   xmlns:xlink="http://www.w3.org/1999/xlink"
   xmlns:sodipodi="http://sodipodi.sourceforge.net/DTD/sodipodi-0.dtd"
   xmlns:inkscape="http://www.inkscape.org/namespaces/inkscape"
   width="199.457"
   height="281.477"
   viewBox="0 0 52.773 74.474"
   version="1.1"
   id="svg449"
   sodipodi:docname="Seal of Situbondo Regency (2).svg"
   inkscape:version="1.0.1 (3bc2e813f5, 2020-09-07)">
  <metadata
     id="metadata453">
    <rdf:RDF>
      <cc:Work
         rdf:about="">
        <dc:format>image/svg+xml</dc:format>
        <dc:type
           rdf:resource="http://purl.org/dc/dcmitype/StillImage" />
      </cc:Work>
    </rdf:RDF>
  </metadata>
  <sodipodi:namedview
     pagecolor="#ffffff"
     bordercolor="#666666"
     borderopacity="1"
     objecttolerance="10"
     gridtolerance="10"
     guidetolerance="10"
     inkscape:pageopacity="0"
     inkscape:pageshadow="2"
     inkscape:window-width="1366"
     inkscape:window-height="705"
     id="namedview451"
     showgrid="false"
     inkscape:zoom="1.5984787"
     inkscape:cx="65.392009"
     inkscape:cy="204.59128"
     inkscape:window-x="-8"
     inkscape:window-y="-8"
     inkscape:window-maximized="1"
     inkscape:current-layer="svg449"
     inkscape:snap-global="false" />
  <style
     id="style2"><![CDATA[.B{opacity:.998}.C{stroke-width:.265}.D{fill:#ffeba3}.E{fill:#f4c643}.F{stroke:#9f7844}.G{fill:#fff}.H{fill-rule:evenodd}.I{stroke-linejoin:round}.J{stroke:#a07843}.K{fill:#f5c742}.L{opacity:.996}.M{stroke:#b1b1b1}.N{fill:#27541f}.O{stroke:#1e4218}.P{stroke-width:.465}.Q{fill:#357129}.R{fill:#e7e7e7}.S{stroke-width:.238}.T{opacity:.999}.U{opacity:.997}]]></style>
  <defs
     id="defs25">
    <linearGradient
       id="A"
       gradientUnits="userSpaceOnUse">
      <stop
         stop-color="#fff"
         offset="0"
         id="stop4" />
      <stop
         stop-color="#c8d3d9"
         offset=".618"
         id="stop6" />
    </linearGradient>
    <linearGradient
       xlink:href="#A"
       id="B"
       x1="89.638"
       y1="199.24"
       x2="106.458"
       y2="215.039" />
    <linearGradient
       xlink:href="#A"
       id="C"
       x1="120.362"
       y1="198.187"
       x2="103.542"
       y2="216.093" />
    <linearGradient
       id="D"
       x1="99.729"
       y1="104.4"
       x2="99.729"
       y2="161.509"
       gradientUnits="userSpaceOnUse">
      <stop
         offset="0"
         stop-color="#ffeba3"
         id="stop11" />
      <stop
         offset="1"
         stop-color="#f5c742"
         id="stop13" />
    </linearGradient>
    <path
       id="E"
       d="M34.184 199.19c-3.136-.735-2.347-2.133-3.302-3.237 1.096.806 2.174.398 3.302 3.237z" />
    <path
       id="F"
       d="M31.94 196.894c.424.271.788.106 1.339 1.3-.661-.39-1.02-.841-1.339-1.3z" />
    <path
       id="G"
       d="M207.257 195.265c-1.213-1.273-3.292-1.426-4.367-2.733-.07-1.331 1.401-1.974 2.041-2.978.907-1.172 2.532-1.106 3.842-1.46 1.604-.479 3.338-.972 4.885.009 1.165.648 2.935.32 3.564 1.801.928.982 1.008 2.774-.341 3.446-1.718 1.287-3.855 1.79-5.814 2.582-1.342.373-2.57-.44-3.809-.667z" />
    <path
       id="H"
       d="M204.778 193.783c1.002.062 1.394-.386 1.638-1.378 1.317 1.774 2.247.863 3.12-.208.795 2.328 1.69.668 2.548.208.678 2.283 1.878.93 2.47.364 1.536 2.588-.585 6.174-4.55 7.175-4.338-.877-3.586-3.281-5.225-6.161z" />
    <path
       id="I"
       d="M206.052 194.614c1.396.07 1.915.08 2.912-.624.616.955 2.505.674 2.912.208.248.597 1.132.686 2.106.702-.97.788-2.25 1.374-4.342 1.43-1.443-.284-2.994-.441-3.588-1.716z" />
    <path
       id="J"
       d="M210.143 188.372c-1.054.011-2.05.422-3.028.772-.572.383-1.282.571-1.746 1.107-.291.494-.732.811-1.192 1.119-.36.526.464 1.082.851 1.304.483-.078.689-.625 1.025-.93.337-.55.995-.227 1.191.262.335.554.924.089 1.251-.214.361-.306.83-.859 1.348-.546.399.27.716 1.194 1.135.411.202-.53.103-1.12.056-1.672-.172-.473.058-.999-.155-1.45-.163-.232-.493-.174-.736-.163z" />
    <path
       id="K"
       d="M93.796 201.141h3.067v1.432h-3.067z" />
    <path
       id="L"
       d="M116.787 197.831c-.783.592-1.428.942-2.357.942s-1.575-.35-2.357-.942c-.783.592-1.428.942-2.357.942s-1.575-.35-2.357-.942c-.783.592-1.428.942-2.357.942s-1.575-.35-2.357-.942c-.783.592-1.428.942-2.357.942s-1.575-.35-2.357-.942c-.783.592-1.428.942-2.357.942s-1.575-.35-2.357-.942" />
    <path
       id="M"
       d="M118.264 205.727l-4.029-2.684c.613.863-1.38 2.179-1.462 3.38l3.002 3.68c.303-1.504 3.047-3.227 2.49-4.377z" />
  </defs>
  <path
     d="M 26.385,0.003 C 17.647,0.069 12.553,1.022 8.072,2.118 L 7.861,2.171 7.797,2.378 C 6.227,7.493 3.078,10.68 0.336,11.013 L 0,11.054 v 28.59 0.002 c 0.15,10.576 3.299,17.817 8.129,23.123 4.83,5.306 11.312,8.678 18.105,11.639 l 0.152,0.066 0.152,-0.066 c 6.794,-2.96 13.275,-6.332 18.105,-11.639 4.83,-5.307 7.979,-12.547 8.129,-23.123 V 39.644 11.054 L 52.436,11.013 C 49.694,10.68 46.545,7.493 44.975,2.378 L 44.913,2.171 44.7,2.118 C 39.93,0.951 35.126,-0.063 26.384,0.003 Z"
     id="path27" />
  <path
     d="M 26.399,1.718 C 18.145,1.78 13.378,2.643 9.108,3.663 7.535,8.162 4.841,11.297 1.713,12.276 v 27.357 c 0.148,10.241 3.125,16.973 7.684,21.98 4.432,4.869 10.481,8.085 16.99,10.953 6.509,-2.868 12.558,-6.084 16.99,-10.953 4.56,-5.01 7.539,-11.745 7.684,-21.994 V 12.275 C 47.933,11.296 45.235,8.159 43.663,3.658 39.132,2.564 34.644,1.655 26.399,1.717 Z"
     fill="#2cb1e9"
     id="path29"
     style="fill:#2a6cfb;fill-opacity:1;" />
  <path
     d="M 26.391,0.769 23.986,0.814 23.908,0.794 23.655,0.823 C 16.714,1.043 12.351,1.875 8.433,2.828 6.841,7.807 3.832,11.078 0.763,11.654 v 27.981 0.006 c 0.149,10.426 3.223,17.441 7.931,22.614 4.672,5.133 10.989,8.448 17.691,11.377 6.702,-2.929 13.019,-6.244 17.691,-11.377 4.709,-5.174 7.784,-12.189 7.932,-22.619 V 11.656 C 48.939,11.08 45.928,7.809 44.336,2.83 39.639,1.685 34.966,0.707 26.389,0.771 Z m 9.129,1.378 c 3.13,0.359 5.632,0.907 8.142,1.513 1.573,4.501 4.27,7.638 7.399,8.617 V 39.621 C 50.916,49.87 47.938,56.605 43.378,61.615 38.946,66.484 32.896,69.701 26.387,72.568 19.878,69.7 13.829,66.484 9.397,61.615 4.839,56.607 1.861,49.876 1.714,39.634 V 12.276 C 4.841,11.297 7.536,8.162 9.108,3.663 11.499,3.092 14.047,2.57 17.275,2.21 l 1.4,4.239 a 59.82,59.82 0 0 0 -6.468,1.032 c -1.457,3.203 -3.448,5.935 -6.158,7.638 v 24.443 c 0.016,1.12 0.067,2.182 0.149,3.194 H 7.395 C 7.312,41.744 7.26,40.676 7.244,39.546 V 15.683 C 9.747,13.936 11.664,11.456 13.066,8.528 14.85,8.166 16.75,7.845 19.06,7.612 l 3.225,9.764 -0.449,0.438 c -2.492,1.686 -5.077,3.247 -7.606,4.883 0.186,-0.064 1.589,-0.397 2.151,-0.73 0.753,-0.223 1.376,-0.695 2.107,-0.95 1.044,-0.221 1.777,-1.032 2.7,-1.502 1.295,-0.535 1.935,-1.872 2.846,-2.845 0.601,-0.829 1.232,-0.011 1.799,0.22 a 1.64,1.64 0 0 1 2.181,0.257 c 0.512,0.871 1.362,1.36 2.101,2.039 0.982,0.602 2.131,0.904 3.1,1.548 1.825,0.524 3.534,1.378 5.331,1.985 L 30.344,17.811 33.735,7.545 c 2.268,0.228 4.139,0.564 5.96,0.953 1.404,2.94 3.323,5.431 5.834,7.184 v 23.857 c -0.016,1.132 -0.067,2.202 -0.151,3.216 h 1.197 a 47.88,47.88 0 0 0 0.149,-3.198 V 15.117 C 44.006,13.41 42.012,10.667 40.554,7.453 38.581,7.015 36.572,6.634 34.12,6.378 l 1.399,-4.235 z"
     class="G"
     id="path33" />
  <g
     class="H"
     id="g47"
     transform="translate(-78.613,-155.852)">
    <path
       d="M 125.189,198.61 H 84.811 A 20.189,21.61 0 0 0 105,220.22 20.189,21.61 0 0 0 125.189,198.61 Z"
       fill="#1e4218"
       class="T"
       id="path35" />
    <path
       d="m 123.02,198.857 2.431,0.027 1.905,0.021 -0.125,2.197 -1.898,-0.202 -0.29,1.994 1.87,0.386 -0.511,2.166 -1.823,-0.569 -0.715,2.166 1.75,0.765 -0.72,1.672 -1.685,-0.904 -1.058,1.998 1.579,1.08 -1.178,1.774 -1.471,-1.22 a 21.13,21.13 0 0 1 -1.351,1.688 l 1.34,1.363 -0.287,0.315 -1.057,1.057 -1.223,-1.463 -1.563,-1.87 0.675,-0.685 c 0.572,-0.612 1.101,-1.27 1.591,-1.961 l -0.002,-10e-4 0.934,-1.453 0.003,0.002 0.925,-1.774 -0.005,-0.003 0.574,-1.356 10e-4,0.001 0.624,-1.916 h -0.002 l 0.405,-1.748 0.253,-1.761 0.102,-1.784 z m -36.039,0 -2.431,0.027 -1.905,0.021 0.125,2.197 1.898,-0.202 0.29,1.994 -1.87,0.386 0.511,2.166 1.823,-0.569 0.715,2.166 -1.75,0.765 0.72,1.672 1.685,-0.904 1.058,1.998 -1.579,1.08 1.178,1.774 1.471,-1.22 a 21.13,21.13 0 0 0 1.351,1.688 l -1.34,1.363 0.287,0.315 1.057,1.057 1.223,-1.463 1.563,-1.87 -0.675,-0.685 c -0.572,-0.612 -1.101,-1.27 -1.591,-1.961 l 0.002,-10e-4 -0.934,-1.453 -0.003,0.002 -0.925,-1.774 0.005,-0.003 -0.574,-1.356 -0.001,0.001 -0.624,-1.916 h 0.002 l -0.405,-1.748 -0.253,-1.761 -0.102,-1.784 z"
       stroke-width="0.27"
       class="I J T"
       id="path37" />
    <path
       d="m 118.706,181.592 c -0.886,-0.001 -1.768,-0.036 -2.629,-0.296 -1.377,-0.439 -2.397,-1.38 -3.916,-1.227 -1.274,-0.739 -2.607,-0.268 -3.894,-0.883 -1.198,-0.946 -2.682,-1.86 -4.28,-1.704 -1.747,-0.248 -2.88,1.981 -4.676,1 -1.558,0.885 -3.156,1.474 -5.016,1.305 -0.966,0.346 -1.898,0.799 -2.839,1.235 -0.873,2.973 -1.324,6.199 -1.324,9.462 0,2.776 0.327,5.529 0.964,8.125 h 27.81 c 0.637,-2.596 0.964,-5.349 0.964,-8.125 0,-3.054 -0.396,-6.078 -1.163,-8.893 z"
       fill="#749ffc"
       class="T"
       id="path39"
       style="fill:#97b7fd;fill-opacity:1;" />
    <path
       d="m 46.117,104.91 c -1.713,8.409 -2.585,17.172 -2.586,25.986 0,10.492 1.235,20.896 3.645,30.707 h 105.109 c 2.409,-9.811 3.643,-20.216 3.643,-30.707 0,-8.814 -0.871,-17.577 -2.584,-25.986 z"
       transform="matrix(0.264583,0,0,0.264583,78.613284,155.85245)"
       fill="url(#D)"
       class="B"
       id="path41"
       style="fill:url(#D);" />
    <path
       d="m 105,157.655 -1.419,4.368 h -4.593 l 3.716,2.699 -1.419,4.368 3.716,-2.7 3.716,2.7 -1.419,-4.368 3.716,-2.699 h -4.593 z"
       class="B K"
       id="path43" />
    <path
       d="m 105,157.655 -1.419,4.368 1.419,1.953 -6.012,-1.953 3.716,2.699 2.296,-0.746 -3.716,5.114 3.716,-2.7 v -2.415 l 3.715,5.114 -1.419,-4.368 -2.296,-0.746 6.012,-1.953 h -4.593 L 105,163.976 Z"
       class="B D"
       id="path45" />
  </g>
  <g
     class="J"
     id="g53"
     transform="translate(-78.613,-155.852)">
    <path
       d="m 98.988,162.023 3.716,2.699 -1.419,4.368 3.716,-2.7 3.716,2.7 -1.419,-4.368 3.716,-2.699 h -4.593 l -1.421,-4.368 -1.419,4.368 z"
       fill="none"
       stroke-width="0.382"
       id="path49" />
    <path
       d="m 94.921,214.593 c -1.169,-0.709 -2.713,-0.329 -3.422,0.84 -0.709,1.169 -0.332,2.713 0.837,3.422 l 1.874,1.136 c 1.169,0.709 2.714,0.33 3.423,-0.839 0.709,-1.169 0.33,-2.714 -0.839,-3.423 z m -0.766,1.263 1.874,1.136 c 0.492,0.298 0.64,0.903 0.342,1.395 -0.298,0.492 -0.903,0.64 -1.395,0.342 l -1.874,-1.136 c -0.492,-0.298 -0.64,-0.903 -0.342,-1.395 0.298,-0.492 0.903,-0.64 1.395,-0.342 z"
       class="H I K L S"
       id="path51" />
  </g>
  <path
     d="m 16.077,59.122 c -0.96,-0.582 -2.227,-0.271 -2.81,0.69 -0.583,0.961 -0.273,2.228 0.687,2.81 l 1.874,1.136 a 2.06,2.06 0 0 0 2.812,-0.689 2.06,2.06 0 0 0 -0.689,-2.812 z m -0.304,0.501 1.874,1.136 c 0.686,0.416 0.908,1.32 0.492,2.007 -0.416,0.687 -1.32,0.908 -2.007,0.492 l -1.874,-1.136 c -0.686,-0.416 -0.908,-1.32 -0.492,-2.007 0.416,-0.687 1.32,-0.908 2.007,-0.492 z"
     class="D H L"
     id="path55" />
  <path
     d="m 22.054,61.015 c -1.35,-0.218 -2.638,0.713 -2.856,2.063 -0.218,1.35 0.71,2.64 2.06,2.858 l 2.163,0.35 c 1.35,0.218 2.64,-0.712 2.858,-2.062 0.218,-1.35 -0.712,-2.64 -2.062,-2.858 z m -0.236,1.458 2.163,0.35 c 0.568,0.092 0.932,0.597 0.84,1.165 -0.092,0.568 -0.597,0.932 -1.165,0.84 l -2.163,-0.35 c -0.568,-0.092 -0.932,-0.597 -0.84,-1.165 0.092,-0.568 0.597,-0.932 1.165,-0.84 z"
     class="H I J K L S"
     id="path57" />
  <path
     d="m 21.986,61.435 c -1.12,-0.181 -2.188,0.591 -2.369,1.711 -0.181,1.12 0.589,2.188 1.709,2.369 l 2.164,0.352 c 1.12,0.181 2.188,-0.591 2.369,-1.711 a 2.08,2.08 0 0 0 -1.711,-2.371 z m -0.1,0.617 2.164,0.352 c 0.782,0.126 1.318,0.871 1.191,1.652 -0.127,0.781 -0.871,1.318 -1.652,1.191 l -2.164,-0.35 c -0.782,-0.126 -1.318,-0.871 -1.191,-1.652 0.127,-0.781 0.87,-1.32 1.652,-1.193 z"
     class="D H L"
     id="path59" />
  <path
     d="m 17.402,61.607 a 0.582,0.582 0 0 0 -0.191,1.133 l 3.77,1.301 a 0.58300193,0.58300193 0 1 0 0.381,-1.102 l -3.77,-1.301 a 0.582,0.582 0 0 0 -0.189,-0.031 z"
     class="B J K S"
     id="path61" />
  <path
     d="m 17.4,61.957 c -0.097,0 -0.189,0.065 -0.221,0.156 -0.04,0.116 0.029,0.257 0.145,0.297 l 3.77,1.301 c 0.116,0.04 0.257,-0.029 0.297,-0.145 0.04,-0.116 -0.029,-0.257 -0.145,-0.297 l -3.768,-1.301 c -0.024,-0.008 -0.05,-0.012 -0.076,-0.012 a 0.349,0.349 0 0 1 -0.002,0 z"
     class="B D"
     id="path63" />
  <g
     class="H"
     id="g73"
     transform="translate(-78.613,-155.852)">
    <path
       d="m 115.079,214.593 c 1.169,-0.709 2.713,-0.329 3.421,0.84 0.708,1.169 0.332,2.713 -0.837,3.422 l -1.874,1.136 c -1.169,0.709 -2.714,0.33 -3.423,-0.839 -0.709,-1.169 -0.33,-2.714 0.839,-3.423 z m 0.766,1.263 -1.874,1.136 c -0.492,0.298 -0.64,0.903 -0.342,1.395 0.298,0.492 0.903,0.64 1.395,0.342 l 1.874,-1.136 c 0.492,-0.298 0.64,-0.903 0.342,-1.395 -0.298,-0.492 -0.903,-0.64 -1.395,-0.342 z"
       class="I J K L S"
       id="path65" />
    <path
       d="m 115.31,214.974 c 0.96,-0.582 2.227,-0.271 2.81,0.69 0.583,0.961 0.273,2.228 -0.687,2.81 l -1.874,1.136 a 2.06,2.06 0 0 1 -2.812,-0.689 2.06,2.06 0 0 1 0.689,-2.811 z m 0.304,0.501 -1.874,1.136 c -0.686,0.416 -0.908,1.32 -0.492,2.007 0.416,0.687 1.32,0.908 2.007,0.492 l 1.874,-1.136 c 0.686,-0.416 0.908,-1.32 0.492,-2.007 -0.416,-0.687 -1.32,-0.908 -2.007,-0.492 z"
       class="D L"
       id="path67" />
    <path
       d="m 109.333,216.867 c 1.35,-0.218 2.638,0.713 2.856,2.063 0.218,1.35 -0.71,2.64 -2.06,2.858 l -2.163,0.35 c -1.35,0.218 -2.64,-0.712 -2.858,-2.062 -0.218,-1.35 0.712,-2.64 2.062,-2.858 z m 0.236,1.458 -2.163,0.35 c -0.568,0.092 -0.932,0.597 -0.84,1.165 0.092,0.568 0.597,0.932 1.165,0.84 l 2.163,-0.35 c 0.568,-0.092 0.932,-0.597 0.84,-1.165 -0.092,-0.568 -0.597,-0.932 -1.165,-0.84 z"
       class="I J K L S"
       id="path69" />
    <path
       d="m 109.401,217.287 c 1.12,-0.181 2.188,0.591 2.369,1.711 0.181,1.12 -0.589,2.188 -1.709,2.369 l -2.164,0.352 c -1.12,0.181 -2.188,-0.591 -2.369,-1.711 a 2.08,2.08 0 0 1 1.711,-2.371 z m 0.1,0.617 -2.164,0.352 c -0.782,0.126 -1.318,0.871 -1.191,1.652 0.127,0.781 0.871,1.318 1.652,1.191 l 2.164,-0.35 c 0.782,-0.126 1.318,-0.871 1.191,-1.652 -0.127,-0.781 -0.87,-1.32 -1.652,-1.193 z"
       class="D L"
       id="path71" />
  </g>
  <path
     d="M 35.372,61.607 A 0.582,0.582 0 0 1 35.925,62 0.582,0.582 0 0 1 35.564,62.74 l -3.77,1.301 a 0.582,0.582 0 0 1 -0.74,-0.361 0.582,0.582 0 0 1 0.359,-0.74 l 3.77,-1.301 a 0.582,0.582 0 0 1 0.189,-0.031 z"
     class="B J K S"
     id="path75" />
  <path
     d="m 35.374,61.957 c 0.097,0 0.189,0.065 0.221,0.156 0.04,0.116 -0.029,0.257 -0.145,0.297 l -3.77,1.301 c -0.116,0.04 -0.257,-0.029 -0.297,-0.145 -0.04,-0.116 0.029,-0.257 0.145,-0.297 l 3.768,-1.301 c 0.024,-0.008 0.05,-0.012 0.076,-0.012 a 0.349,0.349 0 0 0 0.002,0 z"
     class="B D"
     id="path77" />
  <path
     d="M 28.569,63.297 A 0.582,0.582 0 0 1 28.38,64.43 h -3.988 a 0.58300021,0.58300021 0 0 1 -0.001,-1.166 h 3.988 a 0.582,0.582 0 0 1 0.189,0.032 z"
     class="B J K S"
     id="path79" />
  <path
     d="m 28.457,63.628 c 0.092,0.031 0.158,0.123 0.158,0.22 0,0.122 -0.111,0.234 -0.233,0.233 h -3.988 c -0.122,0 -0.234,-0.111 -0.233,-0.233 10e-4,-0.122 0.111,-0.233 0.233,-0.233 l 3.986,-0.001 c 0.026,0 0.052,0.005 0.076,0.014 a 0.349,0.349 0 0 0 0.002,10e-4 z"
     class="B D"
     id="path81" />
  <g
     transform="matrix(0.888025,0,0,0.888025,-16.152284,-135.96997)"
     id="g335">
    <g
       transform="matrix(0.174271,-0.151306,0.281974,0.304279,-32.747098,145.41165)"
       id="g263">
      <path
         id="use255"
         d="m 207.257,195.265 c -1.213,-1.273 -3.292,-1.426 -4.367,-2.733 -0.07,-1.331 1.401,-1.974 2.041,-2.978 0.907,-1.172 2.532,-1.106 3.842,-1.46 1.604,-0.479 3.338,-0.972 4.885,0.009 1.165,0.648 2.935,0.32 3.564,1.801 0.928,0.982 1.008,2.774 -0.341,3.446 -1.718,1.287 -3.855,1.79 -5.814,2.582 -1.342,0.373 -2.57,-0.44 -3.809,-0.667 z"
         style="fill:#ffffff;stroke:#b1b1b1;stroke-width:0.265" />
      <path
         id="use257"
         d="m 204.778,193.783 c 1.002,0.062 1.394,-0.386 1.638,-1.378 1.317,1.774 2.247,0.863 3.12,-0.208 0.795,2.328 1.69,0.668 2.548,0.208 0.678,2.283 1.878,0.93 2.47,0.364 1.536,2.588 -0.585,6.174 -4.55,7.175 -4.338,-0.877 -3.586,-3.281 -5.225,-6.161 z"
         style="fill:#27541f;stroke:#1e4218;stroke-width:0.465" />
      <path
         id="use259"
         d="m 206.052,194.614 c 1.396,0.07 1.915,0.08 2.912,-0.624 0.616,0.955 2.505,0.674 2.912,0.208 0.248,0.597 1.132,0.686 2.106,0.702 -0.97,0.788 -2.25,1.374 -4.342,1.43 -1.443,-0.284 -2.994,-0.441 -3.588,-1.716 z"
         style="fill:#357129" />
      <path
         id="use261"
         d="m 210.143,188.372 c -1.054,0.011 -2.05,0.422 -3.028,0.772 -0.572,0.383 -1.282,0.571 -1.746,1.107 -0.291,0.494 -0.732,0.811 -1.192,1.119 -0.36,0.526 0.464,1.082 0.851,1.304 0.483,-0.078 0.689,-0.625 1.025,-0.93 0.337,-0.55 0.995,-0.227 1.191,0.262 0.335,0.554 0.924,0.089 1.251,-0.214 0.361,-0.306 0.83,-0.859 1.348,-0.546 0.399,0.27 0.716,1.194 1.135,0.411 0.202,-0.53 0.103,-1.12 0.056,-1.672 -0.172,-0.473 0.058,-0.999 -0.155,-1.45 -0.163,-0.232 -0.493,-0.174 -0.736,-0.163 z"
         style="fill:#e7e7e7" />
    </g>
    <g
       transform="matrix(0.334796,-0.209894,0.267712,0.427021,-61.386082,136.88102)"
       id="g273">
      <path
         id="use265"
         d="m 207.257,195.265 c -1.213,-1.273 -3.292,-1.426 -4.367,-2.733 -0.07,-1.331 1.401,-1.974 2.041,-2.978 0.907,-1.172 2.532,-1.106 3.842,-1.46 1.604,-0.479 3.338,-0.972 4.885,0.009 1.165,0.648 2.935,0.32 3.564,1.801 0.928,0.982 1.008,2.774 -0.341,3.446 -1.718,1.287 -3.855,1.79 -5.814,2.582 -1.342,0.373 -2.57,-0.44 -3.809,-0.667 z"
         style="fill:#ffffff;stroke:#b1b1b1;stroke-width:0.265" />
      <path
         id="use267"
         d="m 204.778,193.783 c 1.002,0.062 1.394,-0.386 1.638,-1.378 1.317,1.774 2.247,0.863 3.12,-0.208 0.795,2.328 1.69,0.668 2.548,0.208 0.678,2.283 1.878,0.93 2.47,0.364 1.536,2.588 -0.585,6.174 -4.55,7.175 -4.338,-0.877 -3.586,-3.281 -5.225,-6.161 z"
         style="fill:#27541f;stroke:#1e4218;stroke-width:0.465" />
      <path
         id="use269"
         d="m 206.052,194.614 c 1.396,0.07 1.915,0.08 2.912,-0.624 0.616,0.955 2.505,0.674 2.912,0.208 0.248,0.597 1.132,0.686 2.106,0.702 -0.97,0.788 -2.25,1.374 -4.342,1.43 -1.443,-0.284 -2.994,-0.441 -3.588,-1.716 z"
         style="fill:#357129" />
      <path
         id="use271"
         d="m 210.143,188.372 c -1.054,0.011 -2.05,0.422 -3.028,0.772 -0.572,0.383 -1.282,0.571 -1.746,1.107 -0.291,0.494 -0.732,0.811 -1.192,1.119 -0.36,0.526 0.464,1.082 0.851,1.304 0.483,-0.078 0.689,-0.625 1.025,-0.93 0.337,-0.55 0.995,-0.227 1.191,0.262 0.335,0.554 0.924,0.089 1.251,-0.214 0.361,-0.306 0.83,-0.859 1.348,-0.546 0.399,0.27 0.716,1.194 1.135,0.411 0.202,-0.53 0.103,-1.12 0.056,-1.672 -0.172,-0.473 0.058,-0.999 -0.155,-1.45 -0.163,-0.232 -0.493,-0.174 -0.736,-0.163 z"
         style="fill:#e7e7e7" />
    </g>
    <g
       transform="matrix(0.384033,-0.17,0.216828,0.489821,-59.708325,119.71524)"
       id="g283">
      <path
         id="use275"
         d="m 207.257,195.265 c -1.213,-1.273 -3.292,-1.426 -4.367,-2.733 -0.07,-1.331 1.401,-1.974 2.041,-2.978 0.907,-1.172 2.532,-1.106 3.842,-1.46 1.604,-0.479 3.338,-0.972 4.885,0.009 1.165,0.648 2.935,0.32 3.564,1.801 0.928,0.982 1.008,2.774 -0.341,3.446 -1.718,1.287 -3.855,1.79 -5.814,2.582 -1.342,0.373 -2.57,-0.44 -3.809,-0.667 z"
         style="fill:#ffffff;stroke:#b1b1b1;stroke-width:0.265" />
      <path
         id="use277"
         d="m 204.778,193.783 c 1.002,0.062 1.394,-0.386 1.638,-1.378 1.317,1.774 2.247,0.863 3.12,-0.208 0.795,2.328 1.69,0.668 2.548,0.208 0.678,2.283 1.878,0.93 2.47,0.364 1.536,2.588 -0.585,6.174 -4.55,7.175 -4.338,-0.877 -3.586,-3.281 -5.225,-6.161 z"
         style="fill:#27541f;stroke:#1e4218;stroke-width:0.465" />
      <path
         id="use279"
         d="m 206.052,194.614 c 1.396,0.07 1.915,0.08 2.912,-0.624 0.616,0.955 2.505,0.674 2.912,0.208 0.248,0.597 1.132,0.686 2.106,0.702 -0.97,0.788 -2.25,1.374 -4.342,1.43 -1.443,-0.284 -2.994,-0.441 -3.588,-1.716 z"
         style="fill:#357129" />
      <path
         id="use281"
         d="m 210.143,188.372 c -1.054,0.011 -2.05,0.422 -3.028,0.772 -0.572,0.383 -1.282,0.571 -1.746,1.107 -0.291,0.494 -0.732,0.811 -1.192,1.119 -0.36,0.526 0.464,1.082 0.851,1.304 0.483,-0.078 0.689,-0.625 1.025,-0.93 0.337,-0.55 0.995,-0.227 1.191,0.262 0.335,0.554 0.924,0.089 1.251,-0.214 0.361,-0.306 0.83,-0.859 1.348,-0.546 0.399,0.27 0.716,1.194 1.135,0.411 0.202,-0.53 0.103,-1.12 0.056,-1.672 -0.172,-0.473 0.058,-0.999 -0.155,-1.45 -0.163,-0.232 -0.493,-0.174 -0.736,-0.163 z"
         style="fill:#e7e7e7" />
    </g>
    <g
       transform="matrix(0.419978,0,0,0.535667,-24.415323,78.83026)"
       id="g293">
      <path
         id="use285"
         d="m 207.257,195.265 c -1.213,-1.273 -3.292,-1.426 -4.367,-2.733 -0.07,-1.331 1.401,-1.974 2.041,-2.978 0.907,-1.172 2.532,-1.106 3.842,-1.46 1.604,-0.479 3.338,-0.972 4.885,0.009 1.165,0.648 2.935,0.32 3.564,1.801 0.928,0.982 1.008,2.774 -0.341,3.446 -1.718,1.287 -3.855,1.79 -5.814,2.582 -1.342,0.373 -2.57,-0.44 -3.809,-0.667 z"
         style="fill:#ffffff;stroke:#b1b1b1;stroke-width:0.265" />
      <path
         id="use287"
         d="m 204.778,193.783 c 1.002,0.062 1.394,-0.386 1.638,-1.378 1.317,1.774 2.247,0.863 3.12,-0.208 0.795,2.328 1.69,0.668 2.548,0.208 0.678,2.283 1.878,0.93 2.47,0.364 1.536,2.588 -0.585,6.174 -4.55,7.175 -4.338,-0.877 -3.586,-3.281 -5.225,-6.161 z"
         style="fill:#27541f;stroke:#1e4218;stroke-width:0.465" />
      <path
         id="use289"
         d="m 206.052,194.614 c 1.396,0.07 1.915,0.08 2.912,-0.624 0.616,0.955 2.505,0.674 2.912,0.208 0.248,0.597 1.132,0.686 2.106,0.702 -0.97,0.788 -2.25,1.374 -4.342,1.43 -1.443,-0.284 -2.994,-0.441 -3.588,-1.716 z"
         style="fill:#357129" />
      <path
         id="use291"
         d="m 210.143,188.372 c -1.054,0.011 -2.05,0.422 -3.028,0.772 -0.572,0.383 -1.282,0.571 -1.746,1.107 -0.291,0.494 -0.732,0.811 -1.192,1.119 -0.36,0.526 0.464,1.082 0.851,1.304 0.483,-0.078 0.689,-0.625 1.025,-0.93 0.337,-0.55 0.995,-0.227 1.191,0.262 0.335,0.554 0.924,0.089 1.251,-0.214 0.361,-0.306 0.83,-0.859 1.348,-0.546 0.399,0.27 0.716,1.194 1.135,0.411 0.202,-0.53 0.103,-1.12 0.056,-1.672 -0.172,-0.473 0.058,-0.999 -0.155,-1.45 -0.163,-0.232 -0.493,-0.174 -0.736,-0.163 z"
         style="fill:#e7e7e7" />
    </g>
    <g
       transform="matrix(0.434411,0,0,0.554075,-27.341631,79.26299)"
       id="g303">
      <path
         id="use295"
         d="m 207.257,195.265 c -1.213,-1.273 -3.292,-1.426 -4.367,-2.733 -0.07,-1.331 1.401,-1.974 2.041,-2.978 0.907,-1.172 2.532,-1.106 3.842,-1.46 1.604,-0.479 3.338,-0.972 4.885,0.009 1.165,0.648 2.935,0.32 3.564,1.801 0.928,0.982 1.008,2.774 -0.341,3.446 -1.718,1.287 -3.855,1.79 -5.814,2.582 -1.342,0.373 -2.57,-0.44 -3.809,-0.667 z"
         style="fill:#ffffff;stroke:#b1b1b1;stroke-width:0.265" />
      <path
         id="use297"
         d="m 204.778,193.783 c 1.002,0.062 1.394,-0.386 1.638,-1.378 1.317,1.774 2.247,0.863 3.12,-0.208 0.795,2.328 1.69,0.668 2.548,0.208 0.678,2.283 1.878,0.93 2.47,0.364 1.536,2.588 -0.585,6.174 -4.55,7.175 -4.338,-0.877 -3.586,-3.281 -5.225,-6.161 z"
         style="fill:#27541f;stroke:#1e4218;stroke-width:0.465" />
      <path
         id="use299"
         d="m 206.052,194.614 c 1.396,0.07 1.915,0.08 2.912,-0.624 0.616,0.955 2.505,0.674 2.912,0.208 0.248,0.597 1.132,0.686 2.106,0.702 -0.97,0.788 -2.25,1.374 -4.342,1.43 -1.443,-0.284 -2.994,-0.441 -3.588,-1.716 z"
         style="fill:#357129" />
      <path
         id="use301"
         d="m 210.143,188.372 c -1.054,0.011 -2.05,0.422 -3.028,0.772 -0.572,0.383 -1.282,0.571 -1.746,1.107 -0.291,0.494 -0.732,0.811 -1.192,1.119 -0.36,0.526 0.464,1.082 0.851,1.304 0.483,-0.078 0.689,-0.625 1.025,-0.93 0.337,-0.55 0.995,-0.227 1.191,0.262 0.335,0.554 0.924,0.089 1.251,-0.214 0.361,-0.306 0.83,-0.859 1.348,-0.546 0.399,0.27 0.716,1.194 1.135,0.411 0.202,-0.53 0.103,-1.12 0.056,-1.672 -0.172,-0.473 0.058,-0.999 -0.155,-1.45 -0.163,-0.232 -0.493,-0.174 -0.736,-0.163 z"
         style="fill:#e7e7e7" />
    </g>
    <g
       transform="matrix(0.434411,0,0,0.554075,-27.341631,83.307228)"
       id="g313">
      <path
         id="use305"
         d="m 207.257,195.265 c -1.213,-1.273 -3.292,-1.426 -4.367,-2.733 -0.07,-1.331 1.401,-1.974 2.041,-2.978 0.907,-1.172 2.532,-1.106 3.842,-1.46 1.604,-0.479 3.338,-0.972 4.885,0.009 1.165,0.648 2.935,0.32 3.564,1.801 0.928,0.982 1.008,2.774 -0.341,3.446 -1.718,1.287 -3.855,1.79 -5.814,2.582 -1.342,0.373 -2.57,-0.44 -3.809,-0.667 z"
         style="fill:#ffffff;stroke:#b1b1b1;stroke-width:0.265" />
      <path
         id="use307"
         d="m 204.778,193.783 c 1.002,0.062 1.394,-0.386 1.638,-1.378 1.317,1.774 2.247,0.863 3.12,-0.208 0.795,2.328 1.69,0.668 2.548,0.208 0.678,2.283 1.878,0.93 2.47,0.364 1.536,2.588 -0.585,6.174 -4.55,7.175 -4.338,-0.877 -3.586,-3.281 -5.225,-6.161 z"
         style="fill:#27541f;stroke:#1e4218;stroke-width:0.465" />
      <path
         id="use309"
         d="m 206.052,194.614 c 1.396,0.07 1.915,0.08 2.912,-0.624 0.616,0.955 2.505,0.674 2.912,0.208 0.248,0.597 1.132,0.686 2.106,0.702 -0.97,0.788 -2.25,1.374 -4.342,1.43 -1.443,-0.284 -2.994,-0.441 -3.588,-1.716 z"
         style="fill:#357129" />
      <path
         id="use311"
         d="m 210.143,188.372 c -1.054,0.011 -2.05,0.422 -3.028,0.772 -0.572,0.383 -1.282,0.571 -1.746,1.107 -0.291,0.494 -0.732,0.811 -1.192,1.119 -0.36,0.526 0.464,1.082 0.851,1.304 0.483,-0.078 0.689,-0.625 1.025,-0.93 0.337,-0.55 0.995,-0.227 1.191,0.262 0.335,0.554 0.924,0.089 1.251,-0.214 0.361,-0.306 0.83,-0.859 1.348,-0.546 0.399,0.27 0.716,1.194 1.135,0.411 0.202,-0.53 0.103,-1.12 0.056,-1.672 -0.172,-0.473 0.058,-0.999 -0.155,-1.45 -0.163,-0.232 -0.493,-0.174 -0.736,-0.163 z"
         style="fill:#e7e7e7" />
    </g>
    <g
       transform="matrix(0.497582,0,0,0.634647,-40.632615,72.031185)"
       id="g323">
      <path
         id="use315"
         d="m 207.257,195.265 c -1.213,-1.273 -3.292,-1.426 -4.367,-2.733 -0.07,-1.331 1.401,-1.974 2.041,-2.978 0.907,-1.172 2.532,-1.106 3.842,-1.46 1.604,-0.479 3.338,-0.972 4.885,0.009 1.165,0.648 2.935,0.32 3.564,1.801 0.928,0.982 1.008,2.774 -0.341,3.446 -1.718,1.287 -3.855,1.79 -5.814,2.582 -1.342,0.373 -2.57,-0.44 -3.809,-0.667 z"
         style="fill:#ffffff;stroke:#b1b1b1;stroke-width:0.265" />
      <path
         id="use317"
         d="m 204.778,193.783 c 1.002,0.062 1.394,-0.386 1.638,-1.378 1.317,1.774 2.247,0.863 3.12,-0.208 0.795,2.328 1.69,0.668 2.548,0.208 0.678,2.283 1.878,0.93 2.47,0.364 1.536,2.588 -0.585,6.174 -4.55,7.175 -4.338,-0.877 -3.586,-3.281 -5.225,-6.161 z"
         style="fill:#27541f;stroke:#1e4218;stroke-width:0.465" />
      <path
         id="use319"
         d="m 206.052,194.614 c 1.396,0.07 1.915,0.08 2.912,-0.624 0.616,0.955 2.505,0.674 2.912,0.208 0.248,0.597 1.132,0.686 2.106,0.702 -0.97,0.788 -2.25,1.374 -4.342,1.43 -1.443,-0.284 -2.994,-0.441 -3.588,-1.716 z"
         style="fill:#357129" />
      <path
         id="use321"
         d="m 210.143,188.372 c -1.054,0.011 -2.05,0.422 -3.028,0.772 -0.572,0.383 -1.282,0.571 -1.746,1.107 -0.291,0.494 -0.732,0.811 -1.192,1.119 -0.36,0.526 0.464,1.082 0.851,1.304 0.483,-0.078 0.689,-0.625 1.025,-0.93 0.337,-0.55 0.995,-0.227 1.191,0.262 0.335,0.554 0.924,0.089 1.251,-0.214 0.361,-0.306 0.83,-0.859 1.348,-0.546 0.399,0.27 0.716,1.194 1.135,0.411 0.202,-0.53 0.103,-1.12 0.056,-1.672 -0.172,-0.473 0.058,-0.999 -0.155,-1.45 -0.163,-0.232 -0.493,-0.174 -0.736,-0.163 z"
         style="fill:#e7e7e7" />
    </g>
    <g
       transform="matrix(0.497582,0,0,0.634647,-40.632615,76.516612)"
       id="g333">
      <path
         id="use325"
         d="m 207.257,195.265 c -1.213,-1.273 -3.292,-1.426 -4.367,-2.733 -0.07,-1.331 1.401,-1.974 2.041,-2.978 0.907,-1.172 2.532,-1.106 3.842,-1.46 1.604,-0.479 3.338,-0.972 4.885,0.009 1.165,0.648 2.935,0.32 3.564,1.801 0.928,0.982 1.008,2.774 -0.341,3.446 -1.718,1.287 -3.855,1.79 -5.814,2.582 -1.342,0.373 -2.57,-0.44 -3.809,-0.667 z"
         style="fill:#ffffff;stroke:#b1b1b1;stroke-width:0.265" />
      <path
         id="use327"
         d="m 204.778,193.783 c 1.002,0.062 1.394,-0.386 1.638,-1.378 1.317,1.774 2.247,0.863 3.12,-0.208 0.795,2.328 1.69,0.668 2.548,0.208 0.678,2.283 1.878,0.93 2.47,0.364 1.536,2.588 -0.585,6.174 -4.55,7.175 -4.338,-0.877 -3.586,-3.281 -5.225,-6.161 z"
         style="fill:#27541f;stroke:#1e4218;stroke-width:0.465" />
      <path
         id="use329"
         d="m 206.052,194.614 c 1.396,0.07 1.915,0.08 2.912,-0.624 0.616,0.955 2.505,0.674 2.912,0.208 0.248,0.597 1.132,0.686 2.106,0.702 -0.97,0.788 -2.25,1.374 -4.342,1.43 -1.443,-0.284 -2.994,-0.441 -3.588,-1.716 z"
         style="fill:#357129" />
      <path
         id="use331"
         d="m 210.143,188.372 c -1.054,0.011 -2.05,0.422 -3.028,0.772 -0.572,0.383 -1.282,0.571 -1.746,1.107 -0.291,0.494 -0.732,0.811 -1.192,1.119 -0.36,0.526 0.464,1.082 0.851,1.304 0.483,-0.078 0.689,-0.625 1.025,-0.93 0.337,-0.55 0.995,-0.227 1.191,0.262 0.335,0.554 0.924,0.089 1.251,-0.214 0.361,-0.306 0.83,-0.859 1.348,-0.546 0.399,0.27 0.716,1.194 1.135,0.411 0.202,-0.53 0.103,-1.12 0.056,-1.672 -0.172,-0.473 0.058,-0.999 -0.155,-1.45 -0.163,-0.232 -0.493,-0.174 -0.736,-0.163 z"
         style="fill:#e7e7e7" />
    </g>
  </g>
  <g
     transform="matrix(0.935639,0,0,0.935639,-71.855082,-146.00556)"
     stroke="#adadad"
     class="C"
     id="g355">
    <path
       d="m 105,176.858 c -1.741,6.907 -4.958,10.283 -7.799,14.558 2.124,0.902 5.441,3.183 7.799,5.667 2.358,-2.484 5.675,-4.766 7.799,-5.667 -2.841,-4.276 -6.058,-7.652 -7.799,-14.558 z"
       class="G"
       id="path337" />
    <g
       fill="none"
       id="g345">
      <path
         d="m 99.281,191.911 c 5.224,3.176 4.26,3.644 5.719,5.173"
         id="path339" />
      <path
         d="m 103.336,193.107 1.664,2.158 m -7.799,-3.848 c 2.099,-3.346 4.458,-4.082 7.799,-11.924 m 5.72,12.418 c -5.224,3.176 -4.26,3.644 -5.719,5.173 m 1.663,-3.977 -1.664,2.157"
         id="path341" />
      <path
         d="M 112.799,191.417 C 110.7,188.071 108.341,187.335 105,179.493"
         id="path343" />
    </g>
    <g
       class="G"
       id="g351">
      <path
         d="m 99.307,198.133 5.311,6.425 h 0.766 l 5.311,-6.425 -5.311,-2.31 h -0.766 z"
         id="path347" />
      <path
         d="m 104.617,196.658 v 6.697 l -4.072,-4.928 z"
         id="path349" />
    </g>
    <path
       d="m 105.383,196.658 v 6.697 l 4.072,-4.928 z"
       fill="#2f2f2f"
       id="path353" />
  </g>
  <g
     id="g1535">
    <g
       class="H"
       id="g411"
       transform="translate(-78.613,-155.852)">
      <path
         d="m 93.213,200.88 v 8.007 h 10.586 10.586 2.401 v -8.007 h -2.401 -10.586 z"
         fill="#dcdcdc"
         class="B"
         id="path357" />
      <g
         fill="#ff0000"
         stroke="#8b0000"
         stroke-width="0.102"
         class="I"
         id="g409">
        <path
           id="use359"
           d="m 93.796,201.141 h 3.067 v 1.432 h -3.067 z"
           style="opacity:0.998" />
        <path
           d="m 97.02,201.141 h 3.067 v 1.432 H 97.02 Z"
           class="B"
           id="path361" />
        <path
           id="use363"
           d="m 100.243,201.141 h 3.067 v 1.432 h -3.067 z"
           style="opacity:0.998" />
        <path
           id="use365"
           d="m 103.466,201.141 h 3.067 v 1.432 h -3.067 z"
           style="opacity:0.998" />
        <path
           id="use367"
           d="m 106.69,201.141 h 3.067 v 1.432 h -3.067 z"
           style="opacity:0.998" />
        <path
           id="use369"
           d="m 109.913,201.141 h 3.067 v 1.432 h -3.067 z"
           style="opacity:0.998" />
        <path
           id="use371"
           d="m 113.136,201.141 h 3.067 v 1.432 h -3.067 z"
           style="opacity:0.998" />
        <path
           id="use373"
           d="m 95.665,202.874 h 3.067 v 1.432 h -3.067 z"
           style="opacity:0.998" />
        <path
           id="use375"
           d="m 98.937,202.874 h 3.067 v 1.432 h -3.067 z"
           style="opacity:0.998" />
        <path
           id="use377"
           d="m 102.213,202.874 h 3.067 v 1.432 h -3.067 z"
           style="opacity:0.998" />
        <path
           id="use379"
           d="m 105.488,202.874 h 3.067 v 1.432 h -3.067 z"
           style="opacity:0.998" />
        <path
           id="use381"
           d="m 108.763,202.874 h 3.067 v 1.432 h -3.067 z"
           style="opacity:0.998" />
        <path
           id="use383"
           d="m 112.035,202.874 h 3.067 v 1.432 h -3.067 z"
           style="opacity:0.998" />
        <path
           d="m 97.17,204.522 h 3.067 v 1.432 H 97.17 Z"
           class="B"
           id="path385" />
        <path
           id="use387"
           d="m 100.445,204.522 h 3.067 v 1.432 h -3.067 z"
           style="opacity:0.998" />
        <path
           id="use389"
           d="m 103.72,204.522 h 3.067 v 1.432 h -3.067 z"
           style="opacity:0.998" />
        <path
           id="use391"
           d="m 106.996,204.522 h 3.067 v 1.432 h -3.067 z"
           style="opacity:0.998" />
        <path
           id="use393"
           d="m 110.268,204.522 h 3.067 v 1.432 h -3.067 z"
           style="opacity:0.998" />
        <path
           id="use395"
           d="m 99.041,206.198 h 3.067 v 1.432 h -3.067 z"
           style="opacity:0.998" />
        <path
           id="use397"
           d="m 102.317,206.198 h 3.067 v 1.432 h -3.067 z"
           style="opacity:0.998" />
        <path
           id="use399"
           d="m 105.592,206.198 h 3.067 v 1.432 h -3.067 z"
           style="opacity:0.998" />
        <path
           id="use401"
           d="m 108.864,206.198 h 3.067 v 1.432 h -3.067 z"
           style="opacity:0.998" />
        <path
           id="use403"
           d="m 100.393,207.873 h 3.067 v 1.432 h -3.067 z"
           style="opacity:0.998" />
        <path
           id="use405"
           d="m 103.668,207.873 h 3.067 v 1.432 h -3.067 z"
           style="opacity:0.998" />
        <path
           id="use407"
           d="m 106.94,207.873 h 3.067 v 1.432 h -3.067 z"
           style="opacity:0.998" />
      </g>
    </g>
    <path
       d="m 14.6,41.979 c 0.783,0.592 1.428,0.942 2.357,0.942 0.929,0 1.575,-0.35 2.357,-0.942 0.783,0.592 1.428,0.942 2.357,0.942 0.929,0 1.575,-0.35 2.357,-0.942 0.783,0.592 1.428,0.942 2.357,0.942 0.929,0 1.575,-0.35 2.357,-0.942 0.783,0.592 1.428,0.942 2.357,0.942 0.929,0 1.575,-0.35 2.357,-0.942 0.783,0.592 1.428,0.942 2.357,0.942 0.929,0 1.575,-0.35 2.357,-0.942 v 3.049 H 14.6 Z"
       fill="#073fc2"
       id="path413" />
    <g
       fill="none"
       stroke="#000000"
       stroke-width="0.452"
       id="g421"
       transform="translate(-78.613,-155.852)">
      <path
         id="use415"
         d="m 116.787,197.831 c -0.783,0.592 -1.428,0.942 -2.357,0.942 -0.929,0 -1.575,-0.35 -2.357,-0.942 -0.783,0.592 -1.428,0.942 -2.357,0.942 -0.929,0 -1.575,-0.35 -2.357,-0.942 -0.783,0.592 -1.428,0.942 -2.357,0.942 -0.929,0 -1.575,-0.35 -2.357,-0.942 -0.783,0.592 -1.428,0.942 -2.357,0.942 -0.929,0 -1.575,-0.35 -2.357,-0.942 -0.783,0.592 -1.428,0.942 -2.357,0.942 -0.929,0 -1.575,-0.35 -2.357,-0.942" />
      <path
         id="use417"
         d="m 116.787,198.809 c -0.783,0.592 -1.428,0.942 -2.357,0.942 -0.929,0 -1.575,-0.35 -2.357,-0.942 -0.783,0.592 -1.428,0.942 -2.357,0.942 -0.929,0 -1.575,-0.35 -2.357,-0.942 -0.783,0.592 -1.428,0.942 -2.357,0.942 -0.929,0 -1.575,-0.35 -2.357,-0.942 -0.783,0.592 -1.428,0.942 -2.357,0.942 -0.929,0 -1.575,-0.35 -2.357,-0.942 -0.783,0.592 -1.428,0.942 -2.357,0.942 -0.929,0 -1.575,-0.35 -2.357,-0.942" />
      <path
         id="use419"
         d="m 116.787,199.789 c -0.783,0.592 -1.428,0.942 -2.357,0.942 -0.929,0 -1.575,-0.35 -2.357,-0.942 -0.783,0.592 -1.428,0.942 -2.357,0.942 -0.929,0 -1.575,-0.35 -2.357,-0.942 -0.783,0.592 -1.428,0.942 -2.357,0.942 -0.929,0 -1.575,-0.35 -2.357,-0.942 -0.783,0.592 -1.428,0.942 -2.357,0.942 -0.929,0 -1.575,-0.35 -2.357,-0.942 -0.783,0.592 -1.428,0.942 -2.357,0.942 -0.929,0 -1.575,-0.35 -2.357,-0.942" />
    </g>
  </g>
  <g
     id="g1706">
    <g
       class="C E F"
       id="g87"
       transform="matrix(0.976231,-0.025906,0.02724,0.928401,-26.799235,-141.92644)">
      <path
         d="m 34.626,199.697 -0.494,-0.533"
         id="path83" />
      <path
         id="use85"
         d="m 34.184,199.19 c -3.136,-0.735 -2.347,-2.133 -3.302,-3.237 1.096,0.806 2.174,0.398 3.302,3.237 z" />
    </g>
    <path
       id="use89"
       d="m 9.7449757,40.042709 c 0.4213043,0.240612 0.7721573,0.078 1.3425853,1.172233 -0.655912,-0.344953 -1.018664,-0.754361 -1.3425853,-1.172233 z"
       style="fill:#ffeba3;stroke-width:0.952386" />
    <g
       transform="matrix(0.97421212,0.06505626,-0.06840851,0.9264811,-8.3005124,-147.72975)"
       id="g99">
      <g
         class="C E F"
         id="g95">
        <path
           d="M 34.743,199.723 34.249,199.19"
           id="path91" />
        <path
           id="use93"
           d="m 34.301,199.216 c -3.136,-0.735 -2.347,-2.133 -3.302,-3.237 1.096,0.806 2.174,0.398 3.302,3.237 z" />
      </g>
      <path
         id="use97"
         d="m 32.057,196.92 c 0.424,0.271 0.788,0.106 1.339,1.3 -0.661,-0.39 -1.02,-0.841 -1.339,-1.3 z"
         style="fill:#ffeba3" />
    </g>
    <g
       transform="matrix(0.94557323,0.23228676,-0.24425449,0.89924546,27.680077,-150.79757)"
       id="g109">
      <g
         class="C E F"
         id="g105">
        <path
           d="M 34.743,199.723 34.249,199.19"
           id="path101" />
        <path
           id="use103"
           d="m 34.301,199.216 c -3.136,-0.735 -2.347,-2.133 -3.302,-3.237 1.096,0.806 2.174,0.398 3.302,3.237 z" />
      </g>
      <path
         id="use107"
         d="m 32.057,196.92 c 0.424,0.271 0.788,0.106 1.339,1.3 -0.661,-0.39 -1.02,-0.841 -1.339,-1.3 z"
         style="fill:#ffeba3" />
    </g>
    <g
       transform="matrix(0.9282805,0.28855443,-0.30342098,0.88280002,40.028325,-152.41557)"
       id="g119">
      <g
         class="C E F"
         id="g115">
        <path
           d="M 34.743,199.723 34.249,199.19"
           id="path111" />
        <path
           id="use113"
           d="m 34.301,199.216 c -3.136,-0.735 -2.347,-2.133 -3.302,-3.237 1.096,0.806 2.174,0.398 3.302,3.237 z" />
      </g>
      <path
         id="use117"
         d="m 32.057,196.92 c 0.424,0.271 0.788,0.106 1.339,1.3 -0.661,-0.39 -1.02,-0.841 -1.339,-1.3 z"
         style="fill:#ffeba3" />
    </g>
    <g
       transform="matrix(0.89523208,0.37117007,-0.39029284,0.85137085,58.711491,-151.79434)"
       id="g129">
      <g
         class="C E F"
         id="g125">
        <path
           d="M 34.743,199.723 34.249,199.19"
           id="path121" />
        <path
           id="use123"
           d="m 34.301,199.216 c -3.136,-0.735 -2.347,-2.133 -3.302,-3.237 1.096,0.806 2.174,0.398 3.302,3.237 z" />
      </g>
      <path
         id="use127"
         d="m 32.057,196.92 c 0.424,0.271 0.788,0.106 1.339,1.3 -0.661,-0.39 -1.02,-0.841 -1.339,-1.3 z"
         style="fill:#ffeba3" />
    </g>
    <g
       transform="matrix(0.7894633,0.4743234,-0.49876043,0.75078422,84.261623,-138.16718)"
       id="g139">
      <g
         class="C E F"
         id="g135">
        <path
           d="M 34.82,199.683 34.249,199.19"
           id="path131" />
        <path
           id="use133"
           d="m 34.301,199.216 c -3.136,-0.735 -2.347,-2.133 -3.302,-3.237 1.096,0.806 2.174,0.398 3.302,3.237 z" />
      </g>
      <path
         id="use137"
         d="m 32.057,196.92 c 0.424,0.271 0.788,0.106 1.339,1.3 -0.661,-0.39 -1.02,-0.841 -1.339,-1.3 z"
         style="fill:#ffeba3" />
    </g>
    <g
       transform="matrix(0.68495706,0.60360523,-0.63470262,0.65139831,115.69204,-126.32755)"
       id="g149">
      <g
         class="C E F"
         id="g145">
        <path
           d="M 34.912,199.745 34.248,199.19"
           id="path141" />
        <path
           id="use143"
           d="m 34.301,199.216 c -3.136,-0.735 -2.347,-2.133 -3.302,-3.237 1.096,0.806 2.174,0.398 3.302,3.237 z" />
      </g>
      <path
         id="use147"
         d="m 32.057,196.92 c 0.424,0.271 0.788,0.106 1.339,1.3 -0.661,-0.39 -1.02,-0.841 -1.339,-1.3 z"
         style="fill:#ffeba3" />
    </g>
    <g
       transform="matrix(0.52205044,0.7363248,-0.77425961,0.49647331,150.20653,-102.84389)"
       id="g159">
      <g
         class="C E F"
         id="g155">
        <path
           d="M 35.145,199.842 34.248,199.19"
           id="path151" />
        <path
           id="use153"
           d="m 34.301,199.216 c -3.136,-0.735 -2.347,-2.133 -3.302,-3.237 1.096,0.806 2.174,0.398 3.302,3.237 z" />
      </g>
      <path
         id="use157"
         d="m 32.057,196.92 c 0.424,0.271 0.788,0.106 1.339,1.3 -0.661,-0.39 -1.02,-0.841 -1.339,-1.3 z"
         style="fill:#ffeba3" />
    </g>
    <path
       d="m 15.576793,19.336661 c -1.736317,1.624657 -3.194159,5.548011 -3.822103,10.418417 -0.627945,4.870407 -0.401886,10.677007 1.345546,16.0242 L 13.4412,45.679176 C 11.712107,40.39096 11.486216,34.623379 12.10858,29.79586 c 0.622364,-4.827519 2.117225,-8.721194 3.716615,-10.217715 z"
       fill="#9f7844"
       id="path171"
       style="stroke-width:0.952386;" />
    <g
       transform="matrix(-0.94781047,0.22389141,0.23542537,0.90137279,-1.480057,-144.69556)"
       id="g181">
      <g
         class="C E F"
         id="g177">
        <path
           d="M 34.743,199.723 34.249,199.19"
           id="path173" />
        <path
           id="use175"
           d="m 34.301,199.216 c -3.136,-0.735 -2.347,-2.133 -3.302,-3.237 1.096,0.806 2.174,0.398 3.302,3.237 z" />
      </g>
      <path
         id="use179"
         d="m 32.057,196.92 c 0.424,0.271 0.788,0.106 1.339,1.3 -0.661,-0.39 -1.02,-0.841 -1.339,-1.3 z"
         style="fill:#ffeba3" />
    </g>
    <g
       transform="matrix(-0.96341519,0.15215997,0.15999841,0.91621301,13.690747,-148.17065)"
       id="g191">
      <g
         class="C E F"
         id="g187">
        <path
           d="M 34.743,199.723 34.249,199.19"
           id="path183" />
        <path
           id="use185"
           d="m 34.301,199.216 c -3.136,-0.735 -2.347,-2.133 -3.302,-3.237 1.096,0.806 2.174,0.398 3.302,3.237 z" />
      </g>
      <path
         id="use189"
         d="m 32.057,196.92 c 0.424,0.271 0.788,0.106 1.339,1.3 -0.661,-0.39 -1.02,-0.841 -1.339,-1.3 z"
         style="fill:#ffeba3" />
    </g>
    <g
       transform="matrix(-0.97571886,0.03969826,0.04174282,0.92791394,37.039103,-149.95387)"
       id="g251">
      <g
         class="C E F"
         id="g197">
        <path
           d="m 34.546,200.094 -0.494,-0.533"
           id="path193" />
        <path
           id="use195"
           d="m 34.104,199.587 c -3.136,-0.735 -2.347,-2.133 -3.302,-3.237 1.096,0.806 2.174,0.398 3.302,3.237 z" />
      </g>
      <path
         id="use199"
         d="m 31.86,197.291 c 0.424,0.271 0.788,0.106 1.339,1.3 -0.661,-0.39 -1.02,-0.841 -1.339,-1.3 z"
         style="fill:#ffeba3" />
      <g
         transform="rotate(-7.353,12.937,200.447)"
         id="g209">
        <g
           class="C E F"
           id="g205">
          <path
             d="M 34.743,199.723 34.249,199.19"
             id="path201" />
          <path
             id="use203"
             d="m 34.301,199.216 c -3.136,-0.735 -2.347,-2.133 -3.302,-3.237 1.096,0.806 2.174,0.398 3.302,3.237 z" />
        </g>
        <path
           id="use207"
           d="m 32.057,196.92 c 0.424,0.271 0.788,0.106 1.339,1.3 -0.661,-0.39 -1.02,-0.841 -1.339,-1.3 z"
           style="fill:#ffeba3" />
      </g>
      <g
         transform="rotate(-7.353,-8.472,200.969)"
         id="g219">
        <g
           class="C E F"
           id="g215">
          <path
             d="M 34.743,199.723 34.249,199.19"
             id="path211" />
          <path
             id="use213"
             d="m 34.301,199.216 c -3.136,-0.735 -2.347,-2.133 -3.302,-3.237 1.096,0.806 2.174,0.398 3.302,3.237 z" />
        </g>
        <path
           id="use217"
           d="m 32.057,196.92 c 0.424,0.271 0.788,0.106 1.339,1.3 -0.661,-0.39 -1.02,-0.841 -1.339,-1.3 z"
           style="fill:#ffeba3" />
      </g>
      <g
         transform="rotate(-7.353,-34.141,202.949)"
         id="g229">
        <g
           class="C E F"
           id="g225">
          <path
             d="M 34.743,199.723 34.249,199.19"
             id="path221" />
          <path
             id="use223"
             d="m 34.301,199.216 c -3.136,-0.735 -2.347,-2.133 -3.302,-3.237 1.096,0.806 2.174,0.398 3.302,3.237 z" />
        </g>
        <path
           id="use227"
           d="m 32.057,196.92 c 0.424,0.271 0.788,0.106 1.339,1.3 -0.661,-0.39 -1.02,-0.841 -1.339,-1.3 z"
           style="fill:#ffeba3" />
      </g>
      <g
         transform="rotate(-13.166,-18.453,201.746)"
         id="g239">
        <g
           class="C E F"
           id="g235">
          <path
             d="M 34.743,199.723 34.249,199.19"
             id="path231" />
          <path
             id="use233"
             d="m 34.301,199.216 c -3.136,-0.735 -2.347,-2.133 -3.302,-3.237 1.096,0.806 2.174,0.398 3.302,3.237 z" />
        </g>
        <path
           id="use237"
           d="m 32.057,196.92 c 0.424,0.271 0.788,0.106 1.339,1.3 -0.661,-0.39 -1.02,-0.841 -1.339,-1.3 z"
           style="fill:#ffeba3" />
      </g>
      <g
         transform="rotate(-17.704,-14.775,201.251)"
         id="g249">
        <g
           class="C E F"
           id="g245">
          <path
             d="M 34.743,199.723 34.249,199.19"
             id="path241" />
          <path
             id="use243"
             d="m 34.301,199.216 c -3.136,-0.735 -2.347,-2.133 -3.302,-3.237 1.096,0.806 2.174,0.398 3.302,3.237 z" />
        </g>
        <path
           id="use247"
           d="m 32.057,196.92 c 0.424,0.271 0.788,0.106 1.339,1.3 -0.661,-0.39 -1.02,-0.841 -1.339,-1.3 z"
           style="fill:#ffeba3" />
      </g>
    </g>
    <g
       transform="matrix(0.04053006,1.0595776,-1.1141656,0.038545,235.7549,-24.011453)"
       id="g169">
      <g
         class="C E F"
         id="g165">
        <path
           id="use163"
           d="m 34.301,199.216 c -3.136,-0.735 -2.347,-2.133 -3.302,-3.237 1.096,0.806 2.174,0.398 3.302,3.237 z" />
      </g>
      <path
         id="use167"
         d="m 32.057,196.92 c 0.424,0.271 0.788,0.106 1.339,1.3 -0.661,-0.39 -1.02,-0.841 -1.339,-1.3 z"
         style="fill:#ffeba3" />
    </g>
  </g>
  <g
     id="g1500">
    <g
       stroke="#7c909b"
       stroke-width="0.344"
       id="g435"
       transform="translate(-78.613,-155.852)">
      <path
         d="m 93.325,197.342 -2.326,3.528 -2.72,-3.26 c -0.304,4.787 1.379,9.742 5.947,12.493 l 3.002,-3.68 c -0.177,-0.172 -0.352,-0.347 -0.518,-0.531 -2.057,-2.264 -3.278,-5.382 -3.384,-8.551 z"
         fill="url(#B)"
         class="H I U"
         id="path423"
         style="fill:url(#B);" />
      <path
         d="m 91.736,205.727 4.029,-2.684 c -0.613,0.863 1.38,2.179 1.462,3.38 l -3.002,3.68 c -0.303,-1.504 -3.047,-3.227 -2.49,-4.377 z"
         fill="#617580"
         class="B"
         id="path425" />
      <path
         id="use427"
         d="m 118.264,205.727 -4.029,-2.684 c 0.613,0.863 -1.38,2.179 -1.462,3.38 l 3.002,3.68 c 0.303,-1.504 3.047,-3.227 2.49,-4.377 z"
         style="opacity:0.998;fill:#dcdcdc" />
      <path
         d="m 116.675,197.342 2.326,3.528 2.72,-3.26 c 0.304,4.787 -1.379,9.742 -5.947,12.493 l -3.002,-3.68 c 0.177,-0.172 0.352,-0.347 0.518,-0.531 2.057,-2.264 3.278,-5.382 3.384,-8.551 z"
         fill="url(#C)"
         class="H I U"
         id="path429"
         style="fill:url(#C);" />
      <path
         id="use431"
         d="m 118.264,205.727 -4.029,-2.684 c 0.613,0.863 -1.38,2.179 -1.462,3.38 l 3.002,3.68 c 0.303,-1.504 3.047,-3.227 2.49,-4.377 z"
         style="opacity:0.998;fill:#617580" />
      <path
         d="m 95.765,203.043 -4.029,2.684 c 0.584,1.009 1.267,1.958 2.049,2.82 2.846,3.133 6.994,5.064 11.215,5.064 4.221,0 8.368,-1.932 11.215,-5.064 0.783,-0.862 1.465,-1.811 2.049,-2.82 l -4.029,-2.684 a 10.794,11.881 0 0 1 -9.235,5.73 10.794,11.881 0 0 1 -9.235,-5.73 z"
         class="G H I U"
         id="path433" />
    </g>
    <g
       class="B"
       id="g445"
       transform="translate(-78.613,-155.852)">
      <path
         d="m 93.481,206.08 1.393,-1.088 0.18,0.23 -0.619,0.483 0.983,-0.017 0.243,0.311 -0.879,-0.007 -0.496,1.118 -0.233,-0.298 0.408,-0.825 -0.379,-0.005 -0.421,0.329 z m 1.904,2.148 -0.224,-0.226 0.196,-0.373 -0.408,-0.411 -0.369,0.198 -0.219,-0.221 1.652,-0.845 0.218,0.22 z m 0.117,-0.875 0.325,-0.603 -0.604,0.322 z m 1.198,-0.327 0.45,0.365 q 0.184,0.15 0.232,0.244 0.048,0.095 0.03,0.221 -0.018,0.127 -0.105,0.235 -0.081,0.099 -0.19,0.144 -0.109,0.044 -0.21,0.025 0.071,0.117 0.058,0.249 -0.013,0.132 -0.113,0.256 -0.122,0.15 -0.278,0.195 -0.156,0.044 -0.274,-0.011 -0.082,-0.039 -0.331,-0.241 l -0.383,-0.311 z m 0.041,0.412 -0.257,0.317 0.15,0.122 q 0.135,0.109 0.171,0.131 0.066,0.038 0.13,0.025 0.065,-0.014 0.121,-0.082 0.049,-0.061 0.053,-0.12 0.005,-0.06 -0.026,-0.1 -0.03,-0.04 -0.21,-0.186 z m -0.443,0.546 -0.298,0.367 0.211,0.171 q 0.139,0.112 0.189,0.13 0.052,0.017 0.112,-0.004 0.062,-0.021 0.115,-0.087 0.055,-0.067 0.061,-0.134 0.008,-0.067 -0.027,-0.121 -0.033,-0.055 -0.179,-0.173 z m 1.482,-0.097 0.245,0.159 -0.521,0.803 q -0.121,0.187 -0.149,0.25 -0.048,0.109 -0.022,0.202 0.027,0.094 0.127,0.159 0.085,0.055 0.163,0.053 0.079,-0.004 0.141,-0.058 0.064,-0.055 0.208,-0.276 l 0.532,-0.82 0.246,0.16 -0.505,0.779 q -0.194,0.298 -0.313,0.411 -0.117,0.112 -0.283,0.122 -0.164,0.01 -0.347,-0.109 -0.19,-0.123 -0.253,-0.261 -0.062,-0.138 -0.03,-0.293 0.033,-0.155 0.249,-0.488 z m 0.37,2.318 0.811,-1.571 0.418,0.216 q 0.234,0.121 0.294,0.18 0.096,0.096 0.108,0.253 0.014,0.158 -0.083,0.345 -0.088,0.17 -0.212,0.253 -0.123,0.081 -0.244,0.079 -0.12,-0.004 -0.356,-0.125 l -0.17,-0.088 -0.306,0.592 z m 0.933,-1.171 -0.23,0.446 0.144,0.074 q 0.145,0.075 0.207,0.081 0.063,0.007 0.123,-0.029 0.061,-0.036 0.101,-0.114 0.04,-0.078 0.034,-0.149 -0.007,-0.071 -0.048,-0.115 -0.041,-0.044 -0.204,-0.128 z m 1.45,2.25 -0.295,-0.119 0.032,-0.42 -0.537,-0.216 -0.26,0.328 -0.289,-0.116 1.182,-1.43 0.288,0.115 z m -0.24,-0.85 0.06,-0.683 -0.427,0.535 z m 0.665,0.972 0.418,-1.408 -0.413,-0.123 0.085,-0.287 1.104,0.328 -0.085,0.287 -0.411,-0.122 -0.418,1.408 z m 0.983,0.277 0.337,-1.735 1.056,0.205 -0.057,0.294 -0.769,-0.149 -0.075,0.385 0.715,0.139 -0.057,0.292 -0.715,-0.139 -0.092,0.472 0.795,0.155 -0.057,0.292 z m 1.438,0.26 0.141,-1.762 0.284,0.023 0.497,1.224 0.094,-1.177 0.272,0.022 -0.141,1.762 -0.293,-0.024 -0.49,-1.196 -0.092,1.149 z m 2.112,-0.482 0.282,-0.059 q 0.078,0.333 0.344,0.31 0.132,-0.012 0.202,-0.087 0.07,-0.076 0.061,-0.178 -0.005,-0.06 -0.035,-0.1 -0.03,-0.04 -0.087,-0.061 -0.056,-0.023 -0.27,-0.068 -0.191,-0.04 -0.283,-0.099 -0.092,-0.059 -0.153,-0.161 -0.06,-0.104 -0.071,-0.227 -0.013,-0.144 0.042,-0.265 0.056,-0.121 0.166,-0.19 0.11,-0.069 0.28,-0.084 0.255,-0.022 0.41,0.103 0.155,0.126 0.186,0.382 l -0.291,0.041 q -0.032,-0.14 -0.1,-0.191 -0.069,-0.051 -0.186,-0.041 -0.118,0.01 -0.177,0.065 -0.059,0.055 -0.053,0.128 0.006,0.072 0.068,0.116 0.062,0.044 0.275,0.085 0.225,0.044 0.329,0.107 0.105,0.061 0.166,0.168 0.061,0.106 0.075,0.265 0.02,0.229 -0.108,0.398 -0.127,0.168 -0.427,0.195 -0.531,0.047 -0.644,-0.552 z m 1.565,0.409 -0.293,-1.743 0.288,-0.048 0.293,1.743 z m 0.988,-0.193 -0.348,-1.427 -0.418,0.102 -0.071,-0.291 1.119,-0.273 0.071,0.291 -0.417,0.102 0.348,1.427 z m 0.394,-1.921 0.275,-0.098 0.32,0.902 q 0.075,0.21 0.107,0.27 0.057,0.104 0.147,0.14 0.091,0.036 0.203,-0.004 0.095,-0.034 0.141,-0.097 0.045,-0.065 0.04,-0.147 -0.004,-0.084 -0.093,-0.333 l -0.327,-0.922 0.276,-0.098 0.31,0.875 q 0.119,0.335 0.136,0.498 0.018,0.161 -0.076,0.299 -0.092,0.136 -0.298,0.209 -0.214,0.076 -0.361,0.042 -0.147,-0.035 -0.25,-0.154 -0.103,-0.121 -0.236,-0.495 z m 1.3,-0.474 0.523,-0.251 q 0.214,-0.103 0.32,-0.105 0.106,-0.003 0.213,0.068 0.107,0.07 0.167,0.195 0.055,0.115 0.049,0.233 -0.007,0.117 -0.067,0.201 0.136,-0.014 0.249,0.054 0.114,0.068 0.183,0.212 0.083,0.174 0.058,0.335 -0.026,0.16 -0.127,0.243 -0.07,0.058 -0.359,0.197 l -0.445,0.213 z m 0.39,0.139 0.177,0.368 0.174,-0.083 q 0.157,-0.075 0.191,-0.098 0.062,-0.043 0.078,-0.107 0.016,-0.065 -0.023,-0.144 -0.034,-0.071 -0.086,-0.099 -0.052,-0.03 -0.102,-0.019 -0.049,0.01 -0.257,0.11 z m 0.304,0.634 0.205,0.426 0.245,-0.117 q 0.161,-0.077 0.199,-0.115 0.037,-0.039 0.044,-0.103 0.008,-0.065 -0.029,-0.141 -0.038,-0.078 -0.095,-0.112 -0.057,-0.035 -0.121,-0.027 -0.064,0.007 -0.233,0.088 z"
         id="path437" />
      <path
         d="m 111.401,209.468 q -0.167,-0.268 -0.196,-0.49 -0.029,-0.224 0.047,-0.388 0.075,-0.165 0.257,-0.278 0.264,-0.164 0.555,-0.066 0.292,0.098 0.524,0.47 0.235,0.377 0.19,0.698 -0.038,0.284 -0.303,0.449 -0.267,0.166 -0.537,0.077 -0.308,-0.102 -0.538,-0.472 z m 0.25,-0.17 q 0.161,0.259 0.34,0.328 0.179,0.068 0.324,-0.023 0.146,-0.091 0.163,-0.279 0.016,-0.189 -0.15,-0.455 -0.163,-0.261 -0.334,-0.327 -0.171,-0.067 -0.322,0.027 -0.151,0.094 -0.168,0.28 -0.017,0.185 0.148,0.449 z"
         id="path439" />
      <path
         d="m 113.331,209.264 -1.093,-1.39 0.224,-0.176 1.196,0.561 -0.73,-0.928 0.214,-0.168 1.093,1.39 -0.231,0.182 -1.171,-0.545 0.712,0.906 z m -0.018,-2.248 0.382,-0.373 q 0.145,-0.142 0.25,-0.18 0.105,-0.041 0.242,-0.024 0.137,0.016 0.292,0.104 0.155,0.088 0.333,0.27 0.16,0.164 0.242,0.322 0.081,0.157 0.093,0.283 0.012,0.126 -0.034,0.242 -0.046,0.114 -0.172,0.238 l -0.393,0.384 z m 0.418,0.01 0.818,0.838 0.157,-0.153 q 0.101,-0.099 0.127,-0.161 0.027,-0.064 0.019,-0.129 -0.009,-0.067 -0.071,-0.169 -0.062,-0.101 -0.194,-0.237 -0.137,-0.141 -0.236,-0.202 -0.098,-0.062 -0.185,-0.069 -0.086,-0.007 -0.159,0.036 -0.055,0.032 -0.181,0.155 z"
         id="path441" />
      <path
         d="m 114.942,206.667 q -0.247,-0.198 -0.348,-0.397 -0.101,-0.202 -0.085,-0.382 0.016,-0.18 0.15,-0.348 0.195,-0.243 0.502,-0.247 0.308,-0.005 0.651,0.27 0.346,0.277 0.411,0.595 0.058,0.28 -0.137,0.524 -0.197,0.246 -0.481,0.251 -0.324,0.006 -0.664,-0.266 z m 0.179,-0.243 q 0.238,0.191 0.43,0.196 0.191,0.005 0.298,-0.129 0.108,-0.135 0.061,-0.317 -0.048,-0.183 -0.292,-0.379 -0.24,-0.192 -0.424,-0.198 -0.183,-0.006 -0.295,0.133 -0.112,0.139 -0.066,0.32 0.046,0.18 0.288,0.375 z"
         id="path443" />
    </g>
  </g>
</svg>
