<?xml version="1.0" encoding="UTF-8" standalone="no"?>
<svg
   xmlns:dc="http://purl.org/dc/elements/1.1/"
   xmlns:cc="http://creativecommons.org/ns#"
   xmlns:rdf="http://www.w3.org/1999/02/22-rdf-syntax-ns#"
   xmlns:svg="http://www.w3.org/2000/svg"
   xmlns="http://www.w3.org/2000/svg"
   xmlns:sodipodi="http://sodipodi.sourceforge.net/DTD/sodipodi-0.dtd"
   xmlns:inkscape="http://www.inkscape.org/namespaces/inkscape"
   width="364.694"
   height="482.328"
   viewBox="0 0 96.492 127.616"
   version="1.1"
   id="svg275"
   sodipodi:docname="Seal of Rembang Regency (1).svg"
   inkscape:version="1.0.1 (3bc2e813f5, 2020-09-07)">
  <metadata
     id="metadata279">
    <rdf:RDF>
      <cc:Work
         rdf:about="">
        <dc:format>image/svg+xml</dc:format>
        <dc:type
           rdf:resource="http://purl.org/dc/dcmitype/StillImage" />
      </cc:Work>
    </rdf:RDF>
  </metadata>
  <sodipodi:namedview
     pagecolor="#ffffff"
     bordercolor="#666666"
     borderopacity="1"
     objecttolerance="10"
     gridtolerance="10"
     guidetolerance="10"
     inkscape:pageopacity="0"
     inkscape:pageshadow="2"
     inkscape:window-width="1366"
     inkscape:window-height="705"
     id="namedview277"
     showgrid="false"
     inkscape:snap-bbox="true"
     inkscape:bbox-paths="true"
     inkscape:bbox-nodes="true"
     inkscape:snap-bbox-edge-midpoints="true"
     inkscape:snap-bbox-midpoints="true"
     inkscape:object-paths="true"
     inkscape:snap-intersection-paths="true"
     inkscape:snap-smooth-nodes="true"
     inkscape:snap-midpoints="true"
     inkscape:snap-object-midpoints="true"
     inkscape:snap-center="true"
     inkscape:zoom="0.88923184"
     inkscape:cx="77.429034"
     inkscape:cy="455.67655"
     inkscape:window-x="-8"
     inkscape:window-y="-8"
     inkscape:window-maximized="1"
     inkscape:current-layer="svg275"
     inkscape:document-rotation="0" />
  <style
     id="style2"><![CDATA[.B{stroke-width:.265}.C{fill:#fff}.D{opacity:.998}.E{fill-rule:evenodd}.F{fill:#fff000}.G{fill:#f5c742}.H{fill:#009b4c}.I{stroke:#006a34}.J{stroke:#000}.K{fill:#ffeba3}.L{stroke-width:.529}.M{fill:#e8e8e8}.N{stroke:#a9a9a9}.O{fill:#a9a9a9}.P{stroke:#c8bd00}.Q{stroke:#c1c100}.R{fill:#ffff69}.S{fill:#ffff8d}.T{stroke-width:.232}.U{stroke-width:.241}.V{stroke-width:.268}.W{stroke-width:.199}.X{stroke-width:.248}.Y{stroke-width:.165}]]></style>
  <defs
     id="defs29">
    <radialGradient
       id="A"
       cx="104.98"
       cy="143.604"
       fx="104.98"
       fy="143.604"
       r="26.733"
       gradientTransform="matrix(0.49961926,0,0,0.45623575,52.530134,79.064252)"
       gradientUnits="userSpaceOnUse">
      <stop
         offset="0"
         stop-color="#d3edfb"
         id="stop4" />
      <stop
         offset="1"
         stop-color="#a0d9f6"
         id="stop6" />
    </radialGradient>
    <linearGradient
       id="B"
       x1="96.845"
       y1="215.203"
       x2="96.845"
       y2="214.244"
       gradientUnits="userSpaceOnUse"
       gradientTransform="translate(-56.754,-117.426)">
      <stop
         offset="0"
         stop-color="red"
         id="stop9" />
      <stop
         offset="1"
         stop-color="#ff0"
         id="stop11" />
    </linearGradient>
    <path
       id="C"
       d="M91.485 128.149h-1.651l-.227.843h-1.482l1.763-5.106h1.581l1.763 5.106h-1.517zm-.304-1.104l-.518-1.836-.515 1.836z" />
    <path
       id="D"
       d="M97.975 123.886h3.885v1.09h-2.432v.812h2.256v1.041h-2.256v1.007h2.503v1.156h-3.956z" />
    <path
       id="E"
       d="M102.721 123.886h1.354l1.767 2.825v-2.825h1.367v5.106h-1.367l-1.757-2.804v2.804h-1.363z" />
    <path
       id="F"
       d="M92.478 175.976l-2.056 7.096 1.094-.043v1.242l-.606.329v.379l.606-.178v.738l-.614.167v.712h1.576 1.576v-.712l-.614-.167v-.738l.606.178v-.379l-.606-.329v-1.242l1.094.043z" />
    <path
       id="G"
       d="M89.984 175.539l-2.138 7.009 1.137-.045v1.628l-.63.342v.394l.63-.185v.802l-.638.173v.741h1.639 1.639v-.741l-.638-.173v-.802l.63.185v-.394l-.63-.342v-1.628l1.137.045z" />
    <path
       id="H"
       d="M87.575 175.102l-2.224 7.053 1.183-.046v1.448l-.656.356v.41l.656-.193v1.318l-.664.18v.771h1.705 1.705v-.771l-.664-.18v-1.318l.656.193v-.41l-.656-.356v-1.448l1.183.046z" />
    <path
       id="I"
       d="M85.081 174.665l-2.31 7.4 1.229-.048v1.172l-.681.37v.425l.681-.2v1.628l-.69.187v.801h1.771 1.771v-.801l-.69-.187v-1.628l.681.2v-.425l-.681-.37v-1.172l1.229.048z" />
    <path
       id="J"
       d="M82.516 174.325l-2.377 7.038 1.265-.05v1.305l-.701.38v.438l.701-.206v2.151l-.71.193v.824h1.823 1.823v-.824l-.71-.193v-2.151l.701.206v-.438l-.701-.38v-1.305l1.265.05z" />
    <path
       id="K"
       d="M67.262 148.151c-.429.405-1.169 1.062-1.29 1.984-.656-.178-1.351.064-2.051.364.446.634 1.019 1.232 1.753 1.373-.485.761-.638 1.736-.595 2.497.731-.167 1.625-.589 2.183-.992.558.403 1.452.825 2.183.992.043-.761-.11-1.736-.595-2.497.734-.14 1.307-.739 1.753-1.373-.7-.3-1.394-.542-2.051-.364-.121-.922-.861-1.579-1.29-1.984z" />
    <path
       id="L"
       d="M67.262 149.583c-.231.218-.629.571-.694 1.067-.353-.096-.727.034-1.103.196.24.341.548.663.943.738-.261.409-.343.934-.32 1.343.393-.09.874-.317 1.174-.534a3.63 3.63 0 0 0 1.174.534c.023-.409-.059-.934-.32-1.343.395-.076.703-.397.943-.738-.376-.161-.75-.292-1.103-.196-.065-.496-.463-.849-.694-1.067z" />
    <path
       id="M"
       d="M67.212 137.842c-.643.24-2.606.388-2.724 3.064-1.287.89-1.13 2.908-.187 3.69l1.695 1.327 1.215-.295 1.215.295 1.695-1.327c.944-.782 1.101-2.8-.187-3.69-.118-2.676-2.08-2.824-2.724-3.064z" />
    <path
       id="N"
       d="M64.62 140.798l-.263.215c.37.752.828.907 1.457.92-.457-.306-1.099-.386-1.194-1.135z" />
    <path
       id="O"
       d="M69.805 140.798l.263.215c-.37.752-.828.907-1.457.92.457-.306 1.099-.386 1.194-1.135z" />
    <path
       id="P"
       d="M65.377 143.124c-.089.952.097 1.758.645 2.183l-1.72-.711c.565 1.891 2.267 1.126 2.91 3.158.643-2.032 2.346-1.268 2.91-3.158l-1.72.711c.548-.425.734-1.231.645-2.183-.354 1.168-1.094 1.332-1.836 1.488-.742-.156-1.481-.32-1.836-1.488z" />
    <path
       id="Q"
       d="M64.715 142.313c-.987.221.119 2.547.061 1.094.079-1.083 1.23-.864 1.58-.084.797.63 1.734.095 2.209-.64 1.07-.85.932.9 1.32 1.222.832-.398.645-2.312-.429-1.919-.454.51-2.118.214-1.143-.467 1.183-.242.873-1.687.018-2.141-.864-.561-2.62-.361-2.779.831.01.749 1.498 2.072.025 2.21-.29.005-.578-.045-.861-.106z" />
  </defs>
  <g
     id="g1840">
    <path
       d="m 0.685,0.332 v 76.937 c 0,12.244 6.334,24.269 15.336,33.48 9.002,9.211 20.727,15.697 32.08,16.521 l 0.145,0.012 0.144,-0.012 c 11.353,-0.824 23.078,-7.31 32.08,-16.521 9.002,-9.211 15.336,-21.236 15.336,-33.48 V 0.332 h -47.56 z"
       class="C"
       id="path31" />
    <path
       d="m 5.961,5.607 v 6.814 H 16.502 79.99 90.531 V 5.607 H 48.246 Z"
       id="path33" />
    <g
       class="C"
       id="g59"
       transform="translate(-56.754,-117.426)">
      <path
         d="m 63.483,123.886 h 1.45 v 1.93 l 1.52,-1.93 h 1.927 l -1.709,1.926 1.786,3.18 H 66.67 l -0.989,-2.1 -0.749,0.853 v 1.247 h -1.45 z"
         id="path35" />
      <path
         d="m 71.822,128.149 h -1.651 l -0.227,0.843 h -1.482 l 1.763,-5.106 h 1.581 l 1.763,5.106 h -1.517 z m -0.304,-1.104 -0.518,-1.836 -0.515,1.836 z m 2.519,-3.159 h 2.714 q 0.678,0 1.04,0.366 0.365,0.366 0.365,0.906 0,0.453 -0.259,0.777 -0.173,0.216 -0.506,0.341 0.506,0.132 0.742,0.456 0.24,0.32 0.24,0.808 0,0.397 -0.17,0.714 -0.17,0.317 -0.464,0.502 -0.182,0.115 -0.55,0.167 -0.49,0.07 -0.65,0.07 h -2.503 z m 1.463,2.003 h 0.63 q 0.339,0 0.47,-0.125 0.134,-0.129 0.134,-0.369 0,-0.223 -0.134,-0.348 -0.131,-0.125 -0.461,-0.125 h -0.64 z m 0,2.006 h 0.739 q 0.374,0 0.528,-0.143 0.154,-0.146 0.154,-0.39 0,-0.226 -0.154,-0.362 -0.15,-0.139 -0.531,-0.139 H 75.5 Z m 6.515,-4.009 h 1.447 v 3.044 q 0,0.453 -0.131,0.857 -0.128,0.401 -0.406,0.704 -0.275,0.3 -0.579,0.421 -0.422,0.171 -1.014,0.171 -0.342,0 -0.749,-0.052 -0.403,-0.052 -0.675,-0.206 -0.272,-0.157 -0.499,-0.442 -0.224,-0.286 -0.307,-0.589 -0.134,-0.488 -0.134,-0.864 v -3.044 h 1.447 v 3.117 q 0,0.418 0.211,0.655 0.214,0.233 0.592,0.233 0.374,0 0.586,-0.23 0.214,-0.233 0.214,-0.658 z m 2.401,0 h 2.41 q 0.787,0 1.178,0.408 0.394,0.408 0.394,1.16 0,0.773 -0.429,1.209 -0.426,0.435 -1.303,0.435 h -0.794 v 1.895 h -1.456 z m 1.456,2.177 h 0.355 q 0.419,0 0.589,-0.157 0.17,-0.16 0.17,-0.408 0,-0.24 -0.147,-0.408 -0.147,-0.167 -0.554,-0.167 h -0.413 z"
         id="path37" />
      <path
         id="use39"
         d="m 91.485,128.149 h -1.651 l -0.227,0.843 h -1.482 l 1.763,-5.106 h 1.581 l 1.763,5.106 h -1.517 z m -0.304,-1.104 -0.518,-1.836 -0.515,1.836 z" />
      <path
         d="m 92.916,123.886 h 4.407 v 1.261 h -1.479 v 3.845 h -1.45 v -3.845 h -1.479 z"
         id="path41" />
      <path
         id="use43"
         d="m 97.975,123.886 h 3.885 v 1.09 h -2.432 v 0.812 h 2.256 v 1.041 h -2.256 v 1.007 h 2.503 v 1.156 h -3.956 z" />
      <path
         id="use45"
         d="m 102.721,123.886 h 1.354 l 1.767,2.825 v -2.825 h 1.367 v 5.106 h -1.367 l -1.757,-2.804 v 2.804 h -1.363 z" />
      <path
         d="m 110.377,128.992 v -5.106 h 2.416 q 0.672,0 1.027,0.125 0.355,0.125 0.573,0.467 0.218,0.338 0.218,0.826 0,0.425 -0.166,0.735 -0.166,0.307 -0.458,0.498 -0.186,0.122 -0.509,0.202 0.259,0.094 0.378,0.188 0.08,0.063 0.23,0.268 0.154,0.206 0.205,0.317 l 0.701,1.48 h -1.639 l -0.774,-1.56 q -0.147,-0.303 -0.262,-0.394 -0.157,-0.118 -0.355,-0.118 h -0.128 v 2.072 z m 1.456,-3.037 h 0.611 q 0.099,0 0.384,-0.07 0.144,-0.031 0.234,-0.16 0.093,-0.129 0.093,-0.296 0,-0.247 -0.144,-0.38 -0.144,-0.132 -0.541,-0.132 h -0.637 z"
         id="path47" />
      <path
         id="use49"
         d="m 115.452,123.886 h 3.885 v 1.09 h -2.432 v 0.812 h 2.256 v 1.041 h -2.256 v 1.007 h 2.503 v 1.156 h -3.956 z" />
      <path
         d="m 120.173,123.886 h 1.907 l 0.736,3.107 0.733,-3.107 h 1.901 v 5.106 h -1.184 v -3.894 l -0.918,3.894 h -1.072 l -0.915,-3.894 v 3.894 h -1.187 z m 6.205,0 h 2.714 q 0.678,0 1.04,0.366 0.365,0.366 0.365,0.906 0,0.453 -0.259,0.777 -0.173,0.216 -0.506,0.341 0.506,0.132 0.742,0.456 0.24,0.32 0.24,0.808 0,0.397 -0.17,0.714 -0.17,0.317 -0.464,0.502 -0.182,0.115 -0.55,0.167 -0.49,0.07 -0.65,0.07 h -2.503 z m 1.463,2.003 h 0.63 q 0.339,0 0.47,-0.125 0.134,-0.129 0.134,-0.369 0,-0.223 -0.134,-0.348 -0.131,-0.125 -0.461,-0.125 h -0.64 z m 0,2.006 h 0.739 q 0.374,0 0.528,-0.143 0.154,-0.146 0.154,-0.39 0,-0.226 -0.154,-0.362 -0.15,-0.139 -0.531,-0.139 h -0.736 z"
         id="path51" />
      <path
         id="use53"
         d="m 134.248,128.149 h -1.651 l -0.227,0.843 h -1.482 l 1.763,-5.106 h 1.581 l 1.763,5.106 h -1.517 z m -0.304,-1.104 -0.518,-1.836 -0.515,1.836 z" />
      <path
         id="use55"
         d="m 136.469,123.886 h 1.354 l 1.767,2.825 v -2.825 h 1.367 v 5.106 h -1.367 l -1.757,-2.804 v 2.804 h -1.363 z" />
      <path
         d="m 144.277,127.142 v -1.062 h 2.24 v 2.177 q -0.643,0.477 -1.139,0.651 -0.493,0.171 -1.171,0.171 -0.835,0 -1.363,-0.31 -0.525,-0.31 -0.816,-0.923 -0.288,-0.613 -0.288,-1.407 0,-0.836 0.317,-1.452 0.317,-0.62 0.928,-0.94 0.477,-0.247 1.283,-0.247 0.778,0 1.162,0.153 0.387,0.153 0.64,0.477 0.256,0.32 0.384,0.815 l -1.399,0.272 q -0.086,-0.289 -0.294,-0.442 -0.205,-0.153 -0.525,-0.153 -0.477,0 -0.762,0.362 -0.282,0.359 -0.282,1.139 0,0.829 0.285,1.184 0.288,0.355 0.8,0.355 0.243,0 0.464,-0.077 0.221,-0.077 0.506,-0.261 v -0.481 z"
         id="path57" />
    </g>
    <g
       class="L"
       id="g69"
       transform="translate(-56.754,-117.426)">
      <path
         d="m 57.439,117.758 v 76.937 c 0,12.244 6.334,24.269 15.336,33.48 9.002,9.211 20.727,15.697 32.08,16.521 l 0.145,0.012 0.144,-0.012 c 11.353,-0.824 23.078,-7.31 32.08,-16.521 9.002,-9.211 15.336,-21.236 15.336,-33.48 V 117.758 H 105 Z m 4,4 H 105 148.561 v 9.365 H 136.744 73.256 61.44 Z m 0,13.365 h 11.816 v 59.573 c 0,6.86 4.037,15.471 10.832,22.423 6.365,6.513 14.518,10.686 20.612,11.615 l 0.301,0.047 0.301,-0.047 c 6.093,-0.929 14.246,-5.103 20.611,-11.615 6.795,-6.953 10.832,-15.563 10.832,-22.423 v -59.573 h 11.817 v 59.573 c 0,10.848 -5.762,22.052 -14.198,30.683 -8.396,8.591 -19.385,14.53 -29.363,15.303 C 95.022,239.909 84.032,233.97 75.636,225.379 67.2,216.747 61.439,205.543 61.439,194.696 Z m 15.817,0 h 55.488 v 59.573 c 0,5.185 -3.531,13.323 -9.693,19.629 -5.631,5.762 -13.262,9.549 -18.051,10.375 -4.788,-0.826 -12.42,-4.613 -18.051,-10.375 -6.162,-6.305 -9.693,-14.444 -9.693,-19.629 z"
         stroke="#a07843"
         class="G"
         id="path61" />
      <path
         d="m 78.531,136.398 v 58.297 c 0,4.606 3.381,12.651 9.33,18.738 5.347,5.471 12.743,9.121 17.139,9.947 4.395,-0.826 11.792,-4.476 17.139,-9.947 5.949,-6.087 9.33,-14.133 9.33,-18.738 v -58.297 z"
         class="J"
         id="path63" />
      <path
         d="m 62.715,136.398 v 58.297 c 0,10.396 5.581,21.348 13.834,29.793 8.185,8.375 18.926,14.132 28.451,14.902 9.525,-0.77 20.266,-6.527 28.451,-14.902 8.253,-8.445 13.834,-19.397 13.834,-29.793 v -58.297 h -9.266 v 58.297 c 0,7.361 -4.209,16.166 -11.195,23.314 -6.553,6.705 -14.839,10.993 -21.326,11.984 l -0.301,0.047 a 1.276,1.276 0 0 1 -0.395,0 l -0.295,-0.045 -0.006,-0.002 C 98.014,229.002 89.728,224.714 83.175,218.009 76.189,210.86 71.98,202.055 71.98,194.695 v -58.297 z"
         fill="#ff0000"
         stroke="#8b0000"
         id="path65" />
      <path
         d="m 78.531,136.398 h 52.938 v 50 H 78.531 Z"
         fill="url(#A)"
         stroke="#117db4"
         class="D E"
         id="path67"
         style="fill:url(#A);" />
    </g>
    <g
       id="g1499">
      <path
         d="m 42.466377,25.347 3.456,2.549 -10e-4,0.006"
         class="K"
         id="path71" />
      <path
         d="m 54.046377,25.331 -4.312,0.009 h -0.01 l -1.48,-4.224 -0.006,0.02 -1.465,4.198 -0.003,0.006 -4.325,-0.009 0.022,0.016 3.455,2.554 -1.262,4.246 0.027,-0.018 3.551,-2.554 0.006,-0.005 3.588,2.422 -0.003,-0.008 -1.32,-4.129 h 10e-4 l 3.529,-2.52 z"
         class="C"
         id="path73" />
      <path
         fill="#a07843"
         d="m 44.659377,32.404 c -0.052,0 -0.104,-0.016 -0.148,-0.047 -0.089,-0.064 -0.129,-0.177 -0.097,-0.282 l 1.211,-4.074 -3.332,-2.463 c -0.089,-0.066 -0.126,-0.181 -0.091,-0.287 0.035,-0.106 0.133,-0.176 0.243,-0.176 v 0 l 4.143,0.009 1.414,-4.052 c 0.036,-0.103 0.133,-0.172 0.242,-0.172 v 0 c 0.109,0 0.206,0.069 0.242,0.172 l 1.42,4.052 4.14,-0.009 v 0 c 0.111,0 0.21,0.072 0.244,0.178 0.034,0.106 -0.004,0.222 -0.095,0.287 l -3.385,2.416 1.254,3.925 c 0.016,0.034 0.025,0.071 0.025,0.111 0,0.141 -0.115,0.256 -0.256,0.256 a 0.25,0.25 0 0 1 -0.068,-0.009 c -0.027,-0.007 -0.054,-0.018 -0.078,-0.035 l -3.439,-2.322 -3.439,2.473 a 0.25,0.25 0 0 1 -0.149,0.047 z m -1.434,-6.815 2.849,2.106 c 0.087,0.064 0.124,0.176 0.093,0.279 l -1.048,3.527 2.969,-2.135 c 0.087,-0.063 0.211,-0.069 0.3,-0.009 l 2.975,2.008 -1.097,-3.432 c -0.034,-0.105 0.004,-0.22 0.093,-0.285 l 2.885,-2.06 -3.51,0.008 v 0 c -0.109,0 -0.215,-0.069 -0.251,-0.172 l -1.238,-3.531 -1.23,3.526 c -0.036,0.103 -0.135,0.178 -0.244,0.178 v 0 l -3.545,-0.008 z"
         id="path75" />
      <path
         d="m 49.724377,25.341 -1.48,-4.224 -0.006,0.02 v 6.01 l 1.497,-1.806 z"
         class="G"
         id="path77" />
      <path
         d="m 48.237377,27.147 -5.771,-1.8 3.456,2.549 -10e-4,0.006 2.316,-0.75 z"
         id="path79"
         style="fill:#ffeba3;" />
      <path
         d="m 46.772377,25.334 1.461,1.811 0.004,0.001 v -6.011 z"
         id="path81"
         style="fill:#ffeba3;" />
      <path
         d="m 46.772377,25.334 -0.003,0.006 -4.325,-0.009 0.022,0.016 5.767,1.798 z"
         class="G"
         id="path85" />
      <path
         d="m 48.241377,27.142 5.799,-1.806 0.006,-0.005 -4.312,0.009 z"
         class="K"
         id="path87" />
      <path
         d="m 48.241377,27.142 -0.004,0.004 v 0 l 2.273,0.709 3.529,-2.52 z"
         class="G"
         id="path89" />
      <path
         d="m 50.509377,27.856 h 10e-4 l -2.273,-0.709 v 0.005 l 3.592,4.833 z"
         class="K"
         id="path91" />
      <path
         d="m 48.237377,27.152 v 2.424 l 0.006,-0.005 3.588,2.422 -0.003,-0.008 z m -3.551,4.978 3.54,-4.974 -2.304,0.746 -1.262,4.246 z"
         class="G"
         id="path93" />
    </g>
    <path
       d="m 48.238,27.152 -0.012,0.004 -3.54,4.974 3.551,-2.554 z M 1.947,1.594 V 77.27 c 0,11.809 6.151,23.567 14.977,32.598 8.826,9.031 20.33,15.352 31.27,16.146 a 1.262,1.262 0 0 1 0.01,0 l 0.043,0.004 0.043,-0.004 a 1.262,1.262 0 0 1 0.01,0 C 59.239,125.22 70.743,118.899 79.57,109.868 88.397,100.837 94.547,89.08 94.547,77.27 V 1.594 H 48.246 Z m 2.738,1.477 h 43.561 43.561 a 1.262,1.262 0 0 1 1.262,1.262 v 9.365 A 1.262,1.262 0 0 1 91.807,14.96 H 79.991 16.503 4.687 A 1.262,1.262 0 0 1 3.425,13.698 V 4.333 A 1.262,1.262 0 0 1 4.687,3.071 Z m 0,13.365 h 11.816 a 1.262,1.262 0 0 1 1.262,1.262 V 77.27 c 0,6.365 3.867,14.782 10.473,21.541 6.177,6.32 14.196,10.381 19.898,11.25 a 1.262,1.262 0 0 1 0.004,0.002 l 0.107,0.016 0.107,-0.016 a 1.262,1.262 0 0 1 0.004,-0.002 c 5.702,-0.869 13.722,-4.93 19.898,-11.25 C 74.86,92.052 78.727,83.635 78.727,77.27 V 17.698 a 1.262,1.262 0 0 1 1.262,-1.262 h 11.816 a 1.262,1.262 0 0 1 1.262,1.262 V 77.27 c 0,11.294 -5.94,22.75 -14.557,31.566 -8.577,8.777 -19.765,14.872 -30.168,15.678 a 1.262,1.262 0 0 1 -0.195,0 C 37.744,123.708 26.556,117.613 17.979,108.836 9.362,100.019 3.422,88.564 3.422,77.27 V 17.698 a 1.262,1.262 0 0 1 1.262,-1.262 z m 15.816,0 h 55.488 a 1.262,1.262 0 0 1 1.262,1.262 V 77.27 c 0,5.758 -3.68,13.991 -10.053,20.512 -5.837,5.972 -13.535,9.838 -18.738,10.736 a 1.262,1.262 0 0 1 -0.43,0 C 42.827,107.62 35.128,103.754 29.292,97.782 22.919,91.261 19.239,83.028 19.239,77.27 V 17.698 a 1.262,1.262 0 0 1 1.262,-1.262 z"
       class="K"
       id="path95" />
  </g>
  <g
     id="g1805">
    <g
       id="g1366"
       transform="translate(-0.06877972)">
      <g
         class="H I"
         id="g109"
         transform="translate(-56.754,-117.426)">
        <path
           id="use99"
           d="m 92.478,175.976 -2.056,7.096 1.094,-0.043 v 1.242 L 90.91,184.6 v 0.379 l 0.606,-0.178 v 0.738 l -0.614,0.167 v 0.712 h 1.576 1.576 v -0.712 l -0.614,-0.167 v -0.738 l 0.606,0.178 V 184.6 l -0.606,-0.329 v -1.242 l 1.094,0.043 z"
           style="stroke-width:0.232;" />
        <path
           id="use101"
           d="m 89.984,175.539 -2.138,7.009 1.137,-0.045 v 1.628 l -0.63,0.342 v 0.394 l 0.63,-0.185 v 0.802 l -0.638,0.173 v 0.741 h 1.639 1.639 v -0.741 l -0.638,-0.173 v -0.802 l 0.63,0.185 v -0.394 l -0.63,-0.342 v -1.628 l 1.137,0.045 z"
           style="stroke-width:0.241;" />
        <path
           id="use103"
           d="m 87.575,175.102 -2.224,7.053 1.183,-0.046 v 1.448 l -0.656,0.356 v 0.41 l 0.656,-0.193 v 1.318 l -0.664,0.18 v 0.771 h 1.705 1.705 v -0.771 l -0.664,-0.18 v -1.318 l 0.656,0.193 v -0.41 l -0.656,-0.356 v -1.448 l 1.183,0.046 z"
           style="stroke-width:0.25;" />
        <path
           id="use105"
           d="m 85.081,174.665 -2.31,7.4 1.229,-0.048 v 1.172 l -0.681,0.37 v 0.425 l 0.681,-0.2 v 1.628 l -0.69,0.187 v 0.801 h 1.771 1.771 v -0.801 l -0.69,-0.187 v -1.628 l 0.681,0.2 v -0.425 l -0.681,-0.37 v -1.172 l 1.229,0.048 z"
           style="stroke-width:0.26;" />
        <path
           id="use107"
           d="m 82.516,174.325 -2.377,7.038 1.265,-0.05 v 1.305 l -0.701,0.38 v 0.438 l 0.701,-0.206 v 2.151 l -0.71,0.193 v 0.824 h 1.823 1.823 v -0.824 l -0.71,-0.193 v -2.151 l 0.701,0.206 v -0.438 l -0.701,-0.38 v -1.305 l 1.265,0.05 z"
           style="stroke-width:0.268;" />
      </g>
      <g
         transform="matrix(-1,0,0,1,320.23642,-117.426)"
         class="H I"
         id="g121">
        <path
           id="use111"
           d="m 259.469,175.976 -2.056,7.096 1.094,-0.043 v 1.242 l -0.606,0.329 v 0.379 l 0.606,-0.178 v 0.738 l -0.614,0.167 v 0.712 h 1.576 1.576 v -0.712 l -0.614,-0.167 v -0.738 l 0.606,0.178 V 184.6 l -0.606,-0.329 v -1.242 l 1.094,0.043 z"
           style="stroke-width:0.232;" />
        <path
           id="use113"
           d="m 256.975,175.539 -2.138,7.009 1.137,-0.045 v 1.628 l -0.63,0.342 v 0.394 l 0.63,-0.185 v 0.802 l -0.638,0.173 v 0.741 h 1.639 1.639 v -0.741 l -0.638,-0.173 v -0.802 l 0.63,0.185 v -0.394 l -0.63,-0.342 v -1.628 l 1.137,0.045 z"
           style="stroke-width:0.241;" />
        <path
           id="use115"
           d="m 254.566,175.102 -2.224,7.053 1.183,-0.046 v 1.448 l -0.656,0.356 v 0.41 l 0.656,-0.193 v 1.318 l -0.664,0.18 v 0.771 h 1.705 1.705 v -0.771 l -0.664,-0.18 v -1.318 l 0.656,0.193 v -0.41 l -0.656,-0.356 v -1.448 l 1.183,0.046 z"
           style="stroke-width:0.25;" />
        <path
           id="use117"
           d="m 252.072,174.665 -2.31,7.4 1.229,-0.048 v 1.172 l -0.681,0.37 v 0.425 l 0.681,-0.2 v 1.628 l -0.69,0.187 v 0.801 h 1.771 1.771 v -0.801 l -0.69,-0.187 v -1.628 l 0.681,0.2 v -0.425 l -0.681,-0.37 v -1.172 l 1.229,0.048 z"
           style="stroke-width:0.26;" />
        <path
           id="use119"
           d="m 249.507,174.325 -2.377,7.038 1.265,-0.05 v 1.305 l -0.701,0.38 v 0.438 l 0.701,-0.206 v 2.151 l -0.71,0.193 v 0.824 h 1.823 1.823 v -0.824 l -0.71,-0.193 v -2.151 l 0.701,0.206 v -0.438 l -0.701,-0.38 v -1.305 l 1.265,0.05 z"
           style="stroke-width:0.268;" />
      </g>
    </g>
  </g>
  <g
     id="g1422"
     transform="translate(-0.06877972)">
    <path
       d="m 16.502,77.27 c 0,6.86 4.037,15.471 10.832,22.423 a 43.33,43.33 0 0 0 1.43,1.395 h 2.802 3.505 24.004 2.345 6.307 a 43.34,43.34 0 0 0 1.43,-1.395 C 75.952,92.74 79.989,84.13 79.989,77.27 h -4 H 59.074 35.07 20.501 Z"
       class="J L"
       id="path97" />
    <g
       class="C E"
       id="g141"
       transform="translate(-56.754,-117.426)">
      <g
         class="J L"
         id="g127">
        <path
           d="m 73.256,193.793 h 63.488 v 0.902 H 73.256 Z"
           class="D"
           id="path123" />
        <path
           d="m 73.256,191.235 h 63.488 v 2.558 H 73.256 Z m 5.275,-4.836 h 52.938 v 1.542 H 78.531 Z"
           class="D"
           id="path125" />
      </g>
      <g
         stroke="#696969"
         id="g139">
        <path
           d="m 112.577,184.521 -4.808,6.747 h 9.616 z"
           class="D W"
           id="path129" />
        <path
           d="m 108.574,182.845 -5.987,8.402 h 11.975 z"
           class="D X"
           id="path131" />
        <path
           d="m 97.423,184.521 4.808,6.747 h -9.616 z"
           class="D W"
           id="path133" />
        <path
           d="m 101.427,182.845 5.987,8.402 H 95.44 Z"
           class="D X"
           id="path135" />
        <path
           d="m 105,181.943 6.622,9.292 H 98.378 Z"
           stroke-width="0.275"
           class="D"
           id="path137" />
      </g>
    </g>
  </g>
  <g
     id="g1790">
    <path
       d="m 37.25022,47.039 c -1.512,-0.011 -3.155,0.105 -4.881,0.295 3.103,1.61 6.526,2.929 8.771,5.319 2.188,2.33 3.91,6.054 7.038,5.93 3.128,0.124 4.85,-3.6 7.038,-5.93 2.245,-2.39 5.669,-3.708 8.771,-5.319 -6.904,-0.757 -12.485,-0.342 -13.658,4.677 -0.435,1.862 -1.025,4.262 -2.151,4.21 -1.127,0.053 -1.717,-2.348 -2.151,-4.21 -0.879,-3.765 -4.239,-4.939 -8.776,-4.972 z"
       class="B H I"
       id="path143" />
    <path
       d="m 36.60222,48.253 2.051,1.058 -0.463,0.298 2.282,0.661 -0.463,0.165 2.315,1.621 -0.397,0.232 1.786,0.959 -0.033,0.728 1.389,1.257 -0.959,-1.554 0.033,-0.827 -1.141,-0.595 0.149,-0.446 -2.017,-1.025 0.232,-0.347 -1.654,-0.86 -0.198,-0.347 -0.827,-0.364 0.281,-0.083 -0.116,-0.298 1.869,0.976 0.463,-0.546 1.406,1.472 0.397,-0.132 1.058,1.753 0.695,0.198 0.794,1.339 -0.364,-1.769 -0.711,-0.05 -1.257,-2.265 -0.364,0.298 -1.455,-1.356 -0.695,0.397 -2.447,-1.058 -0.083,0.762 z m 23.151,0 -2.051,1.058 0.463,0.298 -2.282,0.661 0.463,0.165 -2.315,1.621 0.397,0.232 -1.786,0.959 0.033,0.728 -1.389,1.257 0.959,-1.554 -0.033,-0.827 1.141,-0.595 -0.149,-0.446 2.017,-1.025 -0.232,-0.347 1.654,-0.86 0.198,-0.347 0.827,-0.364 -0.281,-0.083 0.116,-0.298 -1.869,0.976 -0.463,-0.546 -1.406,1.472 -0.397,-0.132 -1.058,1.753 -0.695,0.198 -0.794,1.339 0.364,-1.769 0.711,-0.05 1.257,-2.265 0.364,0.298 1.455,-1.356 0.695,0.397 2.447,-1.058 0.083,0.762 z"
       class="C"
       id="path145" />
    <path
       d="m 48.17722,38.54 c -1.287,1.196 -2.363,3.162 -2.002,7.303 l 2.002,-0.501 2.003,0.501 c 0.36,-4.142 -0.716,-6.107 -2.003,-7.303 z"
       fill="#f5f5f5"
       stroke="#696969"
       class="B"
       id="path147" />
    <path
       d="m 46.93122,40.227 c -0.423,0.234 -0.761,0.518 -0.465,1.167 0.985,0.375 1.362,1.217 1.712,2.081 0.349,-0.864 0.727,-1.706 1.712,-2.081 0.296,-0.649 -0.042,-0.933 -0.465,-1.167 -0.711,0.293 -0.937,0.711 -1.246,1.108 -0.309,-0.397 -0.536,-0.815 -1.246,-1.108 z"
       stroke-width="0.27"
       id="path149"
       style="fill:#f5c742;stroke:#a07843;" />
    <path
       d="m 46.22622,44.648 c -0.015,0.622 -0.251,1.279 0.24,1.819 1.361,1.191 0.903,3.152 1.027,4.663 0.084,1.029 0.378,1.191 0.684,1.191 0.306,0 0.6,-0.162 0.684,-1.191 0.123,-1.512 -0.335,-3.472 1.027,-4.663 0.49,-0.54 0.255,-1.197 0.24,-1.819 -0.532,0.673 -1.299,0.695 -1.951,0.695 -0.652,0 -1.418,-0.022 -1.951,-0.695 z"
       stroke-width="0.269"
       id="path151"
       style="fill:#f5c742;stroke:#a07843;" />
    <path
       d="m 47.024,46.936 c -0.434,0 -0.012,0.427 0.112,0.854 0.1,0.344 0.009,0.55 0.405,0.55 h 0.705 0.705 c 0.397,0 0.306,-0.206 0.406,-0.55 0.124,-0.426 0.546,-0.854 0.111,-0.854 h -1.222 z"
       id="path155"
       style="fill:#009b4c;stroke:#006a34;stroke-width:0.265" />
  </g>
  <g
     id="g1782">
    <path
       id="use157"
       d="m 10.508,30.725 c -0.429,0.405 -1.169,1.062 -1.29,1.984 -0.656,-0.178 -1.351,0.064 -2.051,0.364 0.446,0.634 1.019,1.232 1.753,1.373 -0.485,0.761 -0.638,1.736 -0.595,2.497 0.731,-0.167 1.625,-0.589 2.183,-0.992 0.558,0.403 1.452,0.825 2.183,0.992 0.043,-0.761 -0.11,-1.736 -0.595,-2.497 0.734,-0.14 1.307,-0.739 1.753,-1.373 -0.7,-0.3 -1.394,-0.542 -2.051,-0.364 -0.121,-0.922 -0.861,-1.579 -1.29,-1.984 z"
       style="fill:#009b4c;stroke:#006a34;stroke-width:0.265" />
    <path
       style="fill:#fff000"
       d="m 10.43922,32.157 c -0.231,0.218 -0.6289997,0.571 -0.6939997,1.067 -0.353,-0.096 -0.727,0.034 -1.103,0.196 0.24,0.341 0.548,0.663 0.943,0.738 -0.261,0.409 -0.343,0.934 -0.32,1.343 0.393,-0.09 0.8739997,-0.317 1.1739997,-0.534 a 3.63,3.63 0 0 0 1.174,0.534 c 0.023,-0.409 -0.059,-0.934 -0.32,-1.343 0.395,-0.076 0.703,-0.397 0.943,-0.738 -0.376,-0.161 -0.75,-0.292 -1.103,-0.196 -0.065,-0.496 -0.463,-0.849 -0.694,-1.067 z"
       id="use161" />
    <path
       style="fill:#e8e8e8;stroke:#a9a9a9;stroke-width:0.265"
       d="m 10.38922,20.416 c -0.6429997,0.24 -2.6059997,0.388 -2.7239997,3.064 -1.287,0.89 -1.13,2.908 -0.187,3.69 l 1.695,1.327 1.2149997,-0.295 1.215,0.295 1.695,-1.327 c 0.944,-0.782 1.101,-2.8 -0.187,-3.69 -0.118,-2.676 -2.08,-2.824 -2.724,-3.064 z"
       id="use163" />
    <path
       style="fill:#a9a9a9"
       d="m 7.79722,23.372 -0.263,0.215 c 0.37,0.752 0.828,0.907 1.457,0.92 -0.457,-0.306 -1.099,-0.386 -1.194,-1.135 z"
       id="use165" />
    <path
       style="fill:#a9a9a9"
       d="m 12.98222,23.372 0.263,0.215 c -0.37,0.752 -0.828,0.907 -1.457,0.92 0.457,-0.306 1.099,-0.386 1.194,-1.135 z"
       id="use167" />
    <path
       style="fill:#fff000;stroke:#c8bd00;stroke-width:0.265"
       d="m 8.5542203,25.698 c -0.089,0.952 0.097,1.758 0.645,2.183 l -1.72,-0.711 c 0.565,1.891 2.267,1.126 2.9099997,3.158 0.643,-2.032 2.346,-1.268 2.91,-3.158 l -1.72,0.711 c 0.548,-0.425 0.734,-1.231 0.645,-2.183 -0.354,1.168 -1.094,1.332 -1.836,1.488 C 9.6462203,27.03 8.9072203,26.866 8.5522203,25.698 Z"
       id="use171" />
    <path
       style="fill:#ffffff"
       d="m 7.8922203,24.887 c -0.987,0.221 0.119,2.547 0.061,1.094 0.079,-1.083 1.23,-0.864 1.58,-0.084 0.7969997,0.63 1.7339997,0.095 2.2089997,-0.64 1.07,-0.85 0.932,0.9 1.32,1.222 0.832,-0.398 0.645,-2.312 -0.429,-1.919 -0.454,0.51 -2.118,0.214 -1.143,-0.467 1.183,-0.242 0.873,-1.687 0.018,-2.141 -0.864,-0.561 -2.6199997,-0.361 -2.7789997,0.831 0.01,0.749 1.4979997,2.072 0.025,2.21 -0.29,0.005 -0.578,-0.045 -0.861,-0.106 z"
       id="use173" />
    <path
       style="fill:#009b4c;stroke:#006a34;stroke-width:0.265"
       d="m 10.43922,47.844 c -0.429,0.405 -1.1689997,1.062 -1.2899997,1.984 -0.656,-0.178 -1.351,0.064 -2.051,0.364 0.446,0.634 1.019,1.232 1.753,1.373 -0.485,0.761 -0.638,1.736 -0.595,2.497 0.731,-0.167 1.625,-0.589 2.1829997,-0.992 0.558,0.403 1.452,0.825 2.183,0.992 0.043,-0.761 -0.11,-1.736 -0.595,-2.497 0.734,-0.14 1.307,-0.739 1.753,-1.373 -0.7,-0.3 -1.394,-0.542 -2.051,-0.364 -0.121,-0.922 -0.861,-1.579 -1.29,-1.984 z"
       id="use175" />
    <path
       style="fill:#fff000"
       d="m 10.43922,49.276 c -0.231,0.218 -0.6289997,0.571 -0.6939997,1.067 -0.353,-0.096 -0.727,0.034 -1.103,0.196 0.24,0.341 0.548,0.663 0.943,0.738 -0.261,0.409 -0.343,0.934 -0.32,1.343 0.393,-0.09 0.8739997,-0.317 1.1739997,-0.534 a 3.63,3.63 0 0 0 1.174,0.534 c 0.023,-0.409 -0.059,-0.934 -0.32,-1.343 0.395,-0.076 0.703,-0.397 0.943,-0.738 -0.376,-0.161 -0.75,-0.292 -1.103,-0.196 -0.065,-0.496 -0.463,-0.849 -0.694,-1.067 z"
       id="use177" />
    <path
       style="fill:#e8e8e8;stroke:#a9a9a9;stroke-width:0.265"
       d="m 10.38922,37.535 c -0.6429997,0.24 -2.6059997,0.388 -2.7239997,3.064 -1.287,0.89 -1.13,2.908 -0.187,3.69 l 1.695,1.327 1.2149997,-0.295 1.215,0.295 1.695,-1.327 c 0.944,-0.782 1.101,-2.8 -0.187,-3.69 -0.118,-2.676 -2.08,-2.824 -2.724,-3.064 z"
       id="use179" />
    <path
       style="fill:#a9a9a9"
       d="m 7.79722,40.491 -0.263,0.215 c 0.37,0.752 0.828,0.907 1.457,0.92 -0.457,-0.306 -1.099,-0.386 -1.194,-1.135 z"
       id="use181" />
    <path
       style="fill:#a9a9a9"
       d="m 12.98222,40.491 0.263,0.215 c -0.37,0.752 -0.828,0.907 -1.457,0.92 0.457,-0.306 1.099,-0.386 1.194,-1.135 z"
       id="use183" />
    <path
       style="fill:#fff000;stroke:#c8bd00;stroke-width:0.265"
       d="m 8.5542203,42.817 c -0.089,0.952 0.097,1.758 0.645,2.183 l -1.72,-0.711 c 0.565,1.891 2.267,1.126 2.9099997,3.158 0.643,-2.032 2.346,-1.268 2.91,-3.158 l -1.72,0.711 c 0.548,-0.425 0.734,-1.231 0.645,-2.183 -0.354,1.168 -1.094,1.332 -1.836,1.488 -0.7419997,-0.156 -1.4809997,-0.32 -1.8359997,-1.488 z"
       id="use187" />
    <path
       style="fill:#ffffff"
       d="m 7.8922203,42.006 c -0.987,0.221 0.119,2.547 0.061,1.094 0.079,-1.083 1.23,-0.864 1.58,-0.084 0.7969997,0.63 1.7339997,0.095 2.2089997,-0.64 1.07,-0.85 0.932,0.9 1.32,1.222 0.832,-0.398 0.645,-2.312 -0.429,-1.919 -0.454,0.51 -2.118,0.214 -1.143,-0.467 1.183,-0.242 0.873,-1.687 0.018,-2.141 -0.864,-0.561 -2.6199997,-0.361 -2.7789997,0.831 0.01,0.749 1.4979997,2.072 0.025,2.21 -0.29,0.005 -0.578,-0.045 -0.861,-0.106 z"
       id="use189" />
    <path
       style="fill:#009b4c;stroke:#006a34;stroke-width:0.265"
       d="m 10.43922,65.149 c -0.429,0.405 -1.1689997,1.062 -1.2899997,1.984 -0.656,-0.178 -1.351,0.064 -2.051,0.364 0.446,0.634 1.019,1.232 1.753,1.373 -0.485,0.761 -0.638,1.736 -0.595,2.497 0.731,-0.167 1.625,-0.589 2.1829997,-0.992 0.558,0.403 1.452,0.825 2.183,0.992 0.043,-0.761 -0.11,-1.736 -0.595,-2.497 0.734,-0.14 1.307,-0.739 1.753,-1.373 -0.7,-0.3 -1.394,-0.542 -2.051,-0.364 -0.121,-0.922 -0.861,-1.579 -1.29,-1.984 z"
       id="use191" />
    <path
       style="fill:#fff000"
       d="m 10.43922,66.581 c -0.231,0.218 -0.6289997,0.571 -0.6939997,1.067 -0.353,-0.096 -0.727,0.034 -1.103,0.196 0.24,0.341 0.548,0.663 0.943,0.738 -0.261,0.409 -0.343,0.934 -0.32,1.343 0.393,-0.09 0.8739997,-0.317 1.1739997,-0.534 a 3.63,3.63 0 0 0 1.174,0.534 c 0.023,-0.409 -0.059,-0.934 -0.32,-1.343 0.395,-0.076 0.703,-0.397 0.943,-0.738 -0.376,-0.161 -0.75,-0.292 -1.103,-0.196 -0.065,-0.496 -0.463,-0.849 -0.694,-1.067 z"
       id="use193" />
    <path
       style="fill:#e8e8e8;stroke:#a9a9a9;stroke-width:0.265"
       d="m 10.38922,54.84 c -0.6429997,0.24 -2.6059997,0.388 -2.7239997,3.064 -1.287,0.89 -1.13,2.908 -0.187,3.69 l 1.695,1.327 1.2149997,-0.295 1.215,0.295 1.695,-1.327 c 0.944,-0.782 1.101,-2.8 -0.187,-3.69 -0.118,-2.676 -2.08,-2.824 -2.724,-3.064 z"
       id="use195" />
    <path
       style="fill:#a9a9a9"
       d="m 7.79722,57.796 -0.263,0.215 c 0.37,0.752 0.828,0.907 1.457,0.92 -0.457,-0.306 -1.099,-0.386 -1.194,-1.135 z"
       id="use197" />
    <path
       style="fill:#a9a9a9"
       d="m 12.98222,57.796 0.263,0.215 c -0.37,0.752 -0.828,0.907 -1.457,0.92 0.457,-0.306 1.099,-0.386 1.194,-1.135 z"
       id="use199" />
    <path
       style="fill:#fff000;stroke:#c8bd00;stroke-width:0.265"
       d="m 8.5542203,60.122 c -0.089,0.952 0.097,1.758 0.645,2.183 l -1.72,-0.711 c 0.565,1.891 2.267,1.126 2.9099997,3.158 0.643,-2.032 2.346,-1.268 2.91,-3.158 l -1.72,0.711 c 0.548,-0.425 0.734,-1.231 0.645,-2.183 -0.354,1.168 -1.094,1.332 -1.836,1.488 C 9.6462203,61.454 8.9072203,61.29 8.5522203,60.122 Z"
       id="use203" />
    <path
       style="fill:#ffffff"
       d="m 7.8922203,59.311 c -0.987,0.221 0.119,2.547 0.061,1.094 0.079,-1.083 1.23,-0.864 1.58,-0.084 0.7969997,0.63 1.7339997,0.095 2.2089997,-0.64 1.07,-0.85 0.932,0.9 1.32,1.222 0.832,-0.398 0.645,-2.312 -0.429,-1.919 -0.454,0.51 -2.118,0.214 -1.143,-0.467 1.183,-0.242 0.873,-1.687 0.018,-2.141 -0.864,-0.561 -2.6199997,-0.361 -2.7789997,0.831 0.01,0.749 1.4979997,2.072 0.025,2.21 -0.29,0.005 -0.578,-0.045 -0.861,-0.106 z"
       id="use205" />
    <path
       style="fill:#e8e8e8;stroke:#a9a9a9;stroke-width:0.265"
       d="m 9.5045227,72.142658 c -0.586751,0.356051 -2.4874094,0.868662 -2.1027189,3.519495 -1.0977843,1.115051 -0.5660427,3.068055 0.5066007,3.659839 l 1.9133223,0.986485 1.1383642,-0.517086 1.248737,0.0625 1.41683,-1.620662 C 14.406702,77.288436 14.183417,75.276691 12.75166,74.643353 12.135136,72.03667 10.180086,72.25832 9.502558,72.143032 Z"
       id="use207" />
    <path
       style="fill:#a9a9a9"
       d="M 7.5112696,75.531366 7.2931333,75.791771 C 7.7972802,76.461278 8.276191,76.527862 8.8965186,76.422964 8.3903421,76.207858 7.7447101,76.249371 7.5112696,75.531366 Z"
       id="use209" />
    <path
       style="fill:#a9a9a9"
       d="m 12.604734,74.561393 0.298577,0.162004 c -0.222789,0.807941 -0.643707,1.045884 -1.259171,1.176323 0.391688,-0.38609 1.007388,-0.584778 0.960594,-1.338327 z"
       id="use211" />
    <path
       style="fill:#fff000;stroke:#c8bd00;stroke-width:0.265"
       d="m 8.6898503,77.673706 c 0.090665,0.951843 0.4241619,1.708818 1.0419935,2.0238 L 7.9091997,79.320823 c 0.9087806,1.75192 2.4376223,0.682027 3.4494033,2.557866 0.251516,-2.116415 2.067375,-1.684488 2.267851,-3.646631 l -1.556627,1.020214 c 0.45882,-0.520013 0.490755,-1.34658 0.225233,-2.265124 -0.129249,1.213604 -0.825505,1.513143 -1.525223,1.805197 -0.758084,-0.01444 -1.5147173,-0.0373 -2.0819514,-1.118265 z"
       id="use215" />
    <path
       style="fill:#ffffff"
       d="m 7.8880081,77.001848 c -0.9282324,0.40174 0.5933741,2.479774 0.2645809,1.063275 -0.1249947,-1.078659 1.0466546,-1.078846 1.5363926,-0.378092 0.9007854,0.469781 1.7211604,-0.231062 2.0502754,-1.041946 0.892098,-1.035162 1.083912,0.70976 1.5253,0.953491 0.742857,-0.546619 0.201101,-2.391846 -0.780419,-1.804868 -0.350578,0.585928 -2.040576,0.606443 -1.210185,-0.244931 1.116844,-0.459035 0.541996,-1.820533 -0.382841,-2.10657 -0.9536949,-0.389465 -2.6412799,0.135504 -2.5744819,1.336205 0.1499411,0.733907 1.8591699,1.755186 0.43799,2.166308 -0.283945,0.05916 -0.5762143,0.06392 -0.8656297,0.05694 z"
       id="use217" />
    <path
       d="m 12.52322,87.941 c 0.984,3.008 2.423,5.789 4.465,8.268"
       id="path221"
       style="fill:none;stroke:#000000" />
    <path
       style="fill:#009b4c;stroke:#006a34;stroke-width:0.265"
       d="m 11.691688,82.683131 c -0.358024,0.468919 -0.982308,1.23672 -0.952942,2.166162 -0.676126,-0.06981 -1.3229668,0.281168 -1.9653828,0.690193 0.5424617,0.553722 1.2044497,1.051421 1.9515828,1.07213 -0.355843,0.82929 -0.349505,1.816201 -0.184268,2.560289 0.694471,-0.282771 1.508658,-0.843503 1.994314,-1.331264 0.615718,0.307676 1.566099,0.579883 2.314467,0.626735 -0.08036,-0.757965 -0.388692,-1.695498 -0.990136,-2.368262 0.701789,-0.256609 1.170621,-0.940222 1.508469,-1.637882 C 14.628556,84.27812 13.9046,84.15128 13.284934,84.432966 13.016739,83.542575 12.180419,83.013597 11.691688,82.683131 Z"
       id="use223" />
    <path
       style="fill:#fff000"
       d="m 11.922765,84.096364 c -0.192794,0.252418 -0.528616,0.665016 -0.512726,1.165005 -0.363865,-0.03778 -0.711986,0.150868 -1.056916,0.371419 0.29188,0.297803 0.647804,0.565882 1.04973,0.576159 -0.19158,0.445757 -0.187788,0.977108 -0.09909,1.377037 0.373326,-0.152238 0.811392,-0.453881 1.072444,-0.716447 a 3.63,3.63 0 0 0 1.244784,0.337557 c -0.0433,-0.407352 -0.208944,-0.912239 -0.532522,-1.273762 0.377559,-0.138744 0.629724,-0.505238 0.811552,-0.880497 -0.397052,-0.09822 -0.78729,-0.167148 -1.120172,-0.01544 -0.144186,-0.479011 -0.593933,-0.76316 -0.857084,-0.941027 z"
       id="use225" />
  </g>
  <g
     id="g1316"
     transform="translate(-0.06877972)">
    <path
       d="m 80.166,95.072 0.559,-0.444 2.84,-2.457 c 1.408,-1.343 2.252,-2.36 2.675,-3.222 l 0.59,-1.079 c 1.143,-1.919 1.522,-3.755 1.14,-5.523 -0.105,-0.487 -0.149,-0.874 -0.152,-1.345 -0.003,-0.534 -0.017,-0.632 -0.069,-0.513 -0.316,0.715 -0.583,1.182 -0.965,1.686 -0.564,0.744 -0.814,1.187 -1.064,1.886 -0.481,1.345 -0.553,2.893 -0.202,4.319 l 0.115,0.574 c 0,0.149 -0.77,1.152 -1.396,1.82 -0.499,0.532 -0.522,0.548 -0.578,0.414 -0.032,-0.077 -0.059,-0.566 -0.059,-1.086 -10e-4,-1.115 0.157,-2.146 0.583,-3.808 l 0.263,-1.027 0.762,-1.162 c 1.653,-2.521 2.507,-4.184 2.798,-5.447 0.064,-0.279 0.247,-0.786 0.407,-1.128 0.551,-1.178 0.856,-2.311 0.925,-3.431 a 5.76,5.76 0 0 0 -0.313,-2.307 c -0.234,-0.688 -0.367,-1.34 -0.375,-1.834 l -0.005,-0.325 -0.147,0.503 c -0.181,0.619 -0.38,1.051 -0.807,1.759 -0.629,1.043 -0.895,2.059 -0.895,3.418 0,0.988 0.103,1.588 0.451,2.625 l 0.246,0.732 -0.163,0.472 c -0.147,0.427 -0.832,1.939 -0.878,1.939 -0.011,0 -0.01,-0.552 0.001,-1.228 l -0.073,-2.795 -0.131,-2.574 -0.038,-1.006 0.217,-0.362 c 0.583,-0.973 0.917,-2.105 0.966,-3.274 l 0.033,-0.795 0.31,-0.477 0.477,-0.818 c 0.092,-0.188 0.198,-0.33 0.236,-0.315 0.085,0.032 0.663,-1.175 0.875,-1.828 a 7.69,7.69 0 0 0 0.431,-2.544 c 0.038,-1.243 -0.06,-1.799 -0.502,-2.844 -0.284,-0.672 -0.478,-1.388 -0.491,-1.812 l -0.006,-0.195 -0.058,0.237 -0.175,0.71 c -0.065,0.26 -0.288,0.833 -0.497,1.272 -0.427,0.898 -0.583,1.433 -0.68,2.332 -0.115,1.066 0.105,2.523 0.537,3.549 0.097,0.23 0.176,0.452 0.176,0.494 0,0.11 -0.556,1.201 -0.701,1.376 -0.118,0.142 -0.123,0.143 -0.125,0.023 -10e-4,-0.069 -0.148,-0.413 -0.327,-0.765 l -0.325,-0.64 v -2.357 -2.357 l 0.181,-0.358 c 0.256,-0.506 0.567,-1.469 0.677,-2.094 0.057,-0.324 0.089,-0.81 0.083,-1.242 l -0.011,-0.71 0.236,-0.385 0.403,-0.678 c 0.156,-0.276 0.17,-0.286 0.225,-0.163 0.032,0.072 0.076,0.131 0.097,0.131 0.055,0 0.549,-1.019 0.731,-1.509 0.723,-1.942 0.773,-4.092 0.129,-5.544 -0.306,-0.689 -0.439,-1.123 -0.525,-1.703 l -0.074,-0.503 -0.075,0.385 c -0.132,0.679 -0.248,1.018 -0.63,1.834 -0.427,0.911 -0.587,1.461 -0.681,2.335 -0.111,1.035 0.074,2.339 0.487,3.419 l 0.175,0.459 -0.313,0.592 -0.344,0.588 C 87.336,56.94 87.154,56.601 86.95,56.188 l -0.372,-0.751 0.002,-2.324 0.002,-2.324 0.176,-0.348 c 0.513,-1.015 0.72,-1.878 0.747,-3.108 l 0.021,-0.945 0.398,-0.674 c 0.351,-0.595 0.405,-0.66 0.454,-0.549 0.031,0.069 0.072,0.125 0.091,0.125 0.061,-10e-4 0.409,-0.675 0.626,-1.214 0.462,-1.146 0.681,-2.26 0.68,-3.459 -0.001,-1.005 -0.13,-1.663 -0.49,-2.492 -0.309,-0.712 -0.386,-0.97 -0.482,-1.62 l -0.07,-0.473 -0.073,0.385 c -0.129,0.676 -0.246,1.017 -0.63,1.834 -0.428,0.91 -0.588,1.459 -0.682,2.335 -0.112,1.041 0.072,2.335 0.485,3.415 l 0.174,0.455 -0.188,0.374 -0.337,0.631 -0.15,0.258 -0.098,-0.258 C 87.18,45.319 87.011,44.974 86.859,44.695 l -0.277,-0.509 v -2.371 -2.371 l 0.239,-0.492 c 0.403,-0.831 0.708,-2.044 0.708,-2.814 0,-0.281 0.035,-0.381 0.264,-0.749 0.282,-0.453 0.972,-1.864 1.308,-2.676 a 9.08,9.08 0 0 0 0.675,-3.432 c 0,-1.003 -0.114,-1.594 -0.471,-2.447 -0.332,-0.792 -0.406,-1.042 -0.501,-1.686 l -0.07,-0.473 -0.073,0.385 c -0.132,0.69 -0.246,1.023 -0.629,1.834 -0.207,0.439 -0.432,1.018 -0.5,1.285 -0.384,1.516 -0.245,3.149 0.403,4.722 l 0.24,0.584 -0.225,0.506 c -0.286,0.643 -0.467,0.942 -0.5,0.828 l -0.127,-0.44 c -0.056,-0.195 -0.246,-0.625 -0.422,-0.955 l -0.32,-0.6 v -2.183 -2.183 l 0.227,-0.56 c 0.841,-2.069 0.801,-3.98 -0.115,-5.483 -0.347,-0.569 -0.543,-1.033 -0.647,-1.526 l -0.075,-0.355 -0.081,0.473 c -0.107,0.629 -0.219,0.955 -0.557,1.627 -0.611,1.213 -0.722,2.449 -0.344,3.844 a 7.48,7.48 0 0 0 0.828,1.813 l 0.236,0.363 -0.017,2.01 -0.017,2.01 -0.424,0.852 -0.452,0.941 c -0.018,0.057 -0.063,0.008 -0.125,-0.136 -0.169,-0.391 -0.171,-0.543 -0.016,-1.146 a 8.06,8.06 0 0 0 0.304,-2.504 c -0.002,-1.757 -0.302,-2.793 -1.187,-4.092 -0.35,-0.514 -0.477,-0.767 -0.705,-1.41 l -0.137,-0.385 -0.006,0.621 c -0.006,0.644 -0.053,0.922 -0.324,1.923 -0.469,1.728 -0.094,3.823 0.996,5.561 0.102,0.163 0.233,0.482 0.292,0.71 0.059,0.228 0.228,0.707 0.378,1.065 0.264,0.633 0.272,0.67 0.291,1.361 0.032,1.197 0.293,2.152 0.855,3.133 l 0.295,0.514 -0.017,2.181 -0.017,2.181 -0.352,0.684 -0.392,0.684 c -0.022,0 -0.1,-0.147 -0.173,-0.327 l -0.133,-0.327 0.126,-0.605 c 0.505,-2.427 0.188,-4.555 -0.911,-6.107 -0.308,-0.435 -0.595,-0.998 -0.768,-1.509 l -0.131,-0.385 -0.033,0.799 c -0.027,0.652 -0.066,0.909 -0.211,1.398 -0.251,0.844 -0.329,1.458 -0.284,2.237 0.082,1.424 0.506,2.637 1.363,3.901 0.208,0.306 0.5,0.814 0.649,1.129 0.262,0.552 0.269,0.582 0.211,0.879 -0.091,0.47 -0.073,1.555 0.035,2.078 a 6.83,6.83 0 0 0 0.744,1.954 l 0.295,0.514 -0.017,2.151 -0.017,2.151 -0.354,0.685 -0.392,0.685 c -0.021,0 -0.098,-0.147 -0.171,-0.327 l -0.133,-0.327 0.126,-0.605 c 0.487,-2.347 0.205,-4.438 -0.804,-5.946 -0.45,-0.673 -0.625,-1.004 -0.851,-1.611 l -0.166,-0.444 -0.005,0.592 c -0.005,0.633 -0.07,1.015 -0.33,1.952 -0.145,0.524 -0.164,0.696 -0.168,1.509 -0.003,0.676 0.024,1.046 0.103,1.408 a 8.02,8.02 0 0 0 1.235,2.86 c 0.213,0.314 0.51,0.828 0.659,1.142 0.262,0.552 0.269,0.582 0.211,0.879 a 7.77,7.77 0 0 0 0.005,1.934 c 0.139,0.764 0.462,1.604 0.854,2.216 l 0.211,0.33 v 1.946 c 0,2.225 -0.002,2.236 -0.515,3.187 l -0.297,0.55 -0.138,-0.313 c -0.17,-0.388 -0.172,-0.641 -0.009,-1.319 0.206,-0.857 0.285,-1.965 0.203,-2.855 -0.122,-1.326 -0.411,-2.198 -1.045,-3.147 -0.438,-0.656 -0.583,-0.932 -0.81,-1.541 l -0.165,-0.444 -0.005,0.592 c -0.005,0.633 -0.07,1.015 -0.33,1.952 -0.145,0.524 -0.164,0.696 -0.168,1.509 -0.002,0.549 0.027,1.06 0.073,1.272 0.232,1.069 0.611,2.001 1.151,2.828 0.177,0.271 0.382,0.677 0.457,0.903 0.075,0.226 0.226,0.599 0.337,0.829 l 0.201,0.418 -0.05,0.574 a 5.94,5.94 0 0 0 0.543,3.074 l 0.202,0.426 0.032,1.302 0.129,2.869 c 0.119,1.917 0.093,4.094 -0.057,4.834 -0.146,0.722 -0.218,0.884 -0.756,1.713 l -0.492,0.758 -0.039,-0.916 -0.201,-2.548 -0.162,-1.632 0.181,-0.47 a 11.05,11.05 0 0 0 0.329,-1.06 c 0.505,-2.018 0.396,-3.692 -0.338,-5.162 -0.289,-0.579 -0.469,-1.1 -0.578,-1.67 l -0.074,-0.385 -0.069,0.473 c -0.091,0.626 -0.221,1.058 -0.535,1.781 -0.431,0.993 -0.526,1.476 -0.525,2.686 10e-4,0.92 0.018,1.105 0.157,1.659 0.191,0.762 0.382,1.278 0.697,1.883 0.24,0.461 0.24,0.463 0.389,1.846 l 0.181,2.834 0.032,1.449 -0.271,1.046 c -0.646,2.495 -0.821,4.271 -0.531,5.403 l 0.091,0.355 -0.174,0.148 -0.7,0.623 -1.994,1.68 c -0.059,0.046 0.033,-0.14 0.203,-0.414 0.567,-0.911 1.037,-2.137 1.289,-3.367 0.079,-0.387 0.198,-0.724 0.382,-1.083 0.726,-1.421 1.097,-2.979 1.025,-4.3 -0.033,-0.599 -0.107,-0.947 -0.423,-2 -0.084,-0.28 -0.165,-0.737 -0.188,-1.061 l -0.04,-0.57 -0.129,0.446 c -0.164,0.568 -0.4,1.067 -0.82,1.733 -0.374,0.593 -0.629,1.206 -0.821,1.972 -0.107,0.428 -0.129,0.69 -0.131,1.55 -0.003,1.166 0.069,1.622 0.419,2.654 0.196,0.578 0.204,0.631 0.137,0.917 -0.367,1.579 -1.059,2.922 -2.142,4.161 -0.398,0.455 -0.512,0.547 -0.858,0.695 z"
       fill="#a07843"
       id="path229" />
    <path
       d="m 81.382,89.732 c -0.622,-1.683 -0.603,-3.609 0.05,-5.177 0.204,-0.49 0.675,-1.238 0.922,-1.464 l 0.162,-0.148 -0.041,0.942 c -0.069,1.612 -0.319,3.481 -0.726,5.433 -0.087,0.415 -0.176,0.754 -0.199,0.754 -0.023,0 -0.098,-0.153 -0.167,-0.34 z m 4.439,-1.033 c -0.307,-0.777 -0.384,-2.824 -0.142,-3.786 0.285,-1.134 0.762,-2.057 1.427,-2.766 0.197,-0.21 0.372,-0.369 0.388,-0.352 0.051,0.051 -0.191,1.632 -0.413,2.709 -0.206,0.998 -0.672,2.738 -1.024,3.823 -0.163,0.503 -0.176,0.523 -0.236,0.372 z m -2.244,-9.968 c -0.987,-1.893 -1.15,-3.981 -0.45,-5.756 0.15,-0.38 0.549,-1.091 0.589,-1.051 0.012,0.012 0.068,0.432 0.126,0.935 0.085,0.738 0.104,1.358 0.098,3.222 l -0.058,2.721 -0.051,0.414 z m 3.992,-0.51 c -0.132,-0.306 -0.365,-1.055 -0.463,-1.489 -0.051,-0.227 -0.079,-0.739 -0.079,-1.42 0.001,-1.184 0.089,-1.689 0.448,-2.55 0.2,-0.481 0.664,-1.225 0.881,-1.414 l 0.136,-0.118 -0.036,1.213 c -0.048,1.621 -0.248,3.279 -0.624,5.177 l -0.164,0.828 z m -1.654,-5.567 c -1.041,-1.762 -1.068,-3.862 -0.07,-5.364 l 0.32,-0.437 c 0.116,-0.071 0.238,1.404 0.238,2.871 0,1.07 -0.067,2.285 -0.169,3.073 l -0.042,0.325 z m -1.316,-5.676 c -0.89,-1.223 -1.373,-2.298 -1.567,-3.488 -0.087,-0.538 -0.073,-1.745 0.026,-2.21 0.155,-0.727 0.464,-1.499 0.529,-1.32 0.173,0.479 0.576,2.401 0.744,3.55 l 0.348,3.55 c -0.012,0 -0.048,-0.036 -0.08,-0.081 z m 3.583,-0.518 c -0.973,-2.094 -0.837,-4.786 0.324,-6.419 L 88.695,59.775 88.733,60 c 0.082,0.494 0.109,2.871 0.044,3.922 l -0.301,3.034 c -0.023,0.026 -0.155,-0.198 -0.294,-0.497 z m -2.204,-4.706 c -0.599,-1 -0.848,-1.912 -0.839,-3.067 0.005,-0.652 0.031,-0.85 0.165,-1.302 0.168,-0.564 0.461,-1.15 0.763,-1.532 l 0.183,-0.231 0.042,0.156 c 0.224,0.837 0.226,4.347 0.003,6.123 l -0.04,0.316 -0.278,-0.464 z M 84.51,55.982 C 83.739,54.94 83.218,53.748 83.032,52.604 a 8.73,8.73 0 0 1 0.026,-2.21 c 0.155,-0.727 0.464,-1.499 0.529,-1.32 0.173,0.479 0.576,2.401 0.744,3.55 l 0.345,3.55 c -0.014,0 -0.088,-0.086 -0.166,-0.191 z m 3.684,-0.384 c -0.432,-0.935 -0.606,-1.685 -0.649,-2.798 -0.046,-1.193 0.135,-2.088 0.615,-3.047 0.114,-0.228 0.281,-0.514 0.371,-0.637 l 0.164,-0.223 0.037,0.223 c 0.082,0.492 0.109,2.87 0.044,3.92 l -0.301,3.034 c -0.023,0.026 -0.15,-0.187 -0.282,-0.473 z m -2.202,-5.095 c -0.607,-1.021 -0.854,-1.92 -0.85,-3.087 0.003,-0.689 0.025,-0.871 0.16,-1.321 0.188,-0.623 0.317,-0.89 0.677,-1.398 0.264,-0.373 0.271,-0.378 0.313,-0.222 0.182,0.679 0.226,3.698 0.08,5.364 l -0.113,1.055 c -0.012,0.012 -0.132,-0.164 -0.267,-0.391 z m -1.621,-6.014 c -0.618,-0.842 -1.136,-2.043 -1.311,-3.041 -0.101,-0.578 -0.114,-1.725 -0.025,-2.23 0.069,-0.391 0.312,-1.159 0.439,-1.386 0.099,-0.178 0.088,-0.204 0.322,0.74 0.2,0.807 0.433,2.016 0.564,2.928 l 0.318,3.372 c -0.013,0 -0.151,-0.173 -0.306,-0.383 z m 3.868,-0.068 c -0.279,-0.59 -0.508,-1.336 -0.624,-2.03 -0.132,-0.788 -0.093,-1.991 0.088,-2.719 0.137,-0.551 0.48,-1.327 0.777,-1.759 l 0.195,-0.283 0.047,0.175 c 0.089,0.33 0.124,2.813 0.055,3.932 l -0.303,3.037 C 88.45,44.801 88.344,44.643 88.24,44.421 Z M 86.024,39.2 a 6.29,6.29 0 0 1 -0.898,-2.807 c -0.071,-1.04 0.239,-2.182 0.817,-3.005 0.296,-0.422 0.306,-0.43 0.348,-0.274 0.182,0.68 0.227,3.697 0.08,5.366 l -0.112,1.054 C 86.248,39.545 86.141,39.395 86.023,39.2 Z M 84.33,33.084 a 8.11,8.11 0 0 1 -1.268,-2.96 c -0.118,-0.621 -0.115,-1.814 0.005,-2.397 0.124,-0.603 0.437,-1.419 0.501,-1.306 0.14,0.251 0.577,2.283 0.761,3.542 0.182,1.245 0.401,3.55 0.338,3.55 -0.019,0 -0.17,-0.193 -0.337,-0.429 z m 3.907,-0.009 c -1.03,-2.272 -0.93,-4.809 0.259,-6.543 l 0.182,-0.265 0.045,0.206 c 0.089,0.41 0.123,2.806 0.055,3.904 l -0.307,3.043 c -0.03,0.032 -0.126,-0.11 -0.233,-0.345 z m -2.203,-4.848 c -1.304,-1.964 -1.383,-4.29 -0.203,-6.009 0.161,-0.235 0.184,-0.249 0.224,-0.141 0.088,0.239 0.24,1.651 0.29,2.702 0.043,0.911 -0.017,3.684 -0.081,3.748 -0.01,0.01 -0.113,-0.125 -0.23,-0.299 z"
       class="K"
       id="path231" />
    <path
       d="m 81.53,90.143 c -0.021,-0.034 -0.014,-0.071 0.015,-0.082 0.057,-0.021 0.337,-1.333 0.538,-2.524 a 33.9,33.9 0 0 0 0.392,-3.653 c 0.041,-0.922 0.039,-0.94 -0.071,-0.853 -0.104,0.082 -0.107,0.081 -0.032,-0.015 0.045,-0.057 0.101,-0.104 0.124,-0.104 0.068,0 0.397,0.759 0.513,1.183 0.079,0.289 0.105,0.606 0.106,1.272 a 6.89,6.89 0 0 1 -0.385,2.471 c -0.298,0.912 -1.104,2.46 -1.2,2.304 z m 4.309,-1.323 c -0.026,-0.045 -0.024,-0.06 0.005,-0.033 0.06,0.055 0.254,-0.533 0.703,-2.121 0.354,-1.253 0.685,-2.779 0.829,-3.813 l 0.127,-0.878 c 0.024,-0.147 0.014,-0.186 -0.04,-0.154 -0.054,0.032 -0.057,0.02 -0.024,-0.033 0.071,-0.114 0.187,0.071 0.334,0.531 0.175,0.549 0.214,1.678 0.084,2.426 -0.192,1.102 -0.703,2.347 -1.374,3.343 -0.463,0.687 -0.587,0.829 -0.644,0.731 z M 83.88,78.786 c 0.031,-0.252 0.059,-1.483 0.062,-2.736 l -0.1,-3.189 -0.136,-0.976 c -0.018,-0.036 0.037,0.015 0.12,0.112 0.238,0.277 0.605,1.025 0.737,1.5 0.432,1.557 0.215,3.673 -0.553,5.41 l -0.168,0.337 c -0.01,0 0.007,-0.206 0.038,-0.458 z m 3.731,-0.379 c -0.024,-0.038 -0.017,-0.052 0.016,-0.032 0.033,0.02 0.134,-0.372 0.247,-0.982 0.39,-2.104 0.534,-3.331 0.582,-4.952 l 0.036,-1.213 -0.142,0.116 -0.142,0.116 0.136,-0.146 0.136,-0.146 0.113,0.148 c 0.3,0.391 0.591,1.579 0.591,2.411 0,0.947 -0.264,2.175 -0.688,3.204 -0.188,0.456 -0.767,1.544 -0.822,1.544 -0.012,0 -0.041,-0.031 -0.064,-0.068 z m -1.343,-5.862 c 0.18,-1.478 0.153,-4.902 -0.045,-5.627 l -0.051,-0.186 0.222,0.245 c 0.258,0.285 0.563,0.883 0.698,1.368 0.236,0.846 0.154,2.269 -0.19,3.299 -0.133,0.398 -0.642,1.508 -0.692,1.508 -0.009,0 0.018,-0.273 0.058,-0.606 z m -1.604,-5.96 -0.572,-4.496 -0.528,-2.145 c -0.115,-0.201 0.052,-0.102 0.298,0.177 0.887,1.004 1.353,2.614 1.282,4.422 -0.031,0.799 -0.193,1.838 -0.36,2.316 l -0.08,0.228 z m 3.808,0.37 c 0.031,-0.057 0.099,-0.529 0.149,-1.05 0.207,-2.116 0.255,-3.814 0.152,-5.324 l -0.032,-0.789 c 0.038,-0.038 0.344,0.489 0.486,0.838 0.654,1.61 0.477,3.899 -0.461,5.941 -0.123,0.268 -0.253,0.488 -0.288,0.488 -0.043,0 -0.045,-0.034 -0.007,-0.104 z m -2.161,-5.177 c 0.119,-1.135 0.149,-1.753 0.149,-3.062 0.001,-1.832 -0.107,-3.12 -0.253,-3.038 -0.044,0.025 -0.042,0.01 0.005,-0.041 0.086,-0.092 0.118,-0.059 0.49,0.497 0.706,1.057 0.846,2.659 0.376,4.291 -0.145,0.502 -0.687,1.722 -0.765,1.722 -0.022,0 -0.023,-0.166 -0.001,-0.37 z m -1.647,-6.079 -0.572,-4.496 -0.528,-2.145 c -0.132,-0.231 0.07,-0.086 0.35,0.25 0.872,1.048 1.301,2.563 1.231,4.35 -0.031,0.799 -0.193,1.838 -0.36,2.316 l -0.08,0.228 z m 3.808,0.37 c 0.031,-0.057 0.099,-0.529 0.149,-1.05 0.207,-2.116 0.255,-3.814 0.152,-5.324 l -0.035,-0.786 c 0.042,-0.042 0.396,0.586 0.529,0.939 0.347,0.923 0.446,2.31 0.246,3.456 -0.172,0.985 -0.851,2.869 -1.034,2.869 -0.043,0 -0.045,-0.034 -0.007,-0.104 z m -2.18,-5.221 c -0.002,-0.049 0.035,-0.515 0.082,-1.035 0.147,-1.628 0.098,-4.627 -0.088,-5.354 l -0.053,-0.207 0.223,0.247 c 0.885,0.98 1.136,2.84 0.623,4.621 -0.147,0.51 -0.78,1.9 -0.787,1.729 z m 2.171,-5.947 c -0.022,-0.023 -0.017,-0.085 0.012,-0.139 0.067,-0.123 0.214,-1.601 0.302,-3.026 0.065,-1.053 0.038,-3.49 -0.043,-3.893 -0.023,-0.114 -0.063,-0.172 -0.104,-0.15 -0.041,0.022 -0.032,0 0.01,-0.045 0.065,-0.07 0.094,-0.06 0.19,0.065 0.719,0.94 0.98,2.875 0.622,4.616 -0.185,0.901 -0.873,2.688 -0.989,2.571 z M 84.665,44.399 84.358,41.5 c -0.193,-1.341 -0.648,-3.485 -0.795,-3.742 -0.138,-0.241 0.077,-0.08 0.374,0.28 0.846,1.025 1.282,2.606 1.207,4.37 -0.035,0.831 -0.147,1.564 -0.326,2.138 l -0.111,0.355 z m 1.58,-4.827 c 0.02,-0.036 0.077,-0.528 0.127,-1.094 0.141,-1.6 0.114,-4.071 -0.058,-5.289 l -0.033,-0.237 0.214,0.237 c 0.252,0.279 0.571,0.92 0.706,1.42 0.053,0.195 0.111,0.674 0.13,1.065 a 6.08,6.08 0 0 1 -0.339,2.359 c -0.175,0.523 -0.598,1.43 -0.72,1.546 -0.042,0.04 -0.051,0.038 -0.027,-0.006 z M 84.643,33.049 C 84.61,31.958 84.339,29.798 84.062,28.426 l -0.504,-2.023 c -0.111,-0.207 0.053,-0.108 0.288,0.174 1.086,1.303 1.529,3.255 1.225,5.395 -0.088,0.62 -0.305,1.523 -0.375,1.566 -0.021,0.012 -0.045,-0.208 -0.053,-0.489 z m 3.817,0.491 c -0.024,-0.024 -0.021,-0.073 0.008,-0.109 0.065,-0.081 0.219,-1.611 0.308,-3.052 0.065,-1.049 0.039,-3.373 -0.043,-3.859 -0.023,-0.138 -0.062,-0.207 -0.104,-0.184 -0.036,0.02 -0.031,0 0.012,-0.046 0.098,-0.103 0.171,-0.015 0.459,0.551 0.8,1.574 0.659,4.109 -0.347,6.22 -0.137,0.288 -0.269,0.503 -0.293,0.479 z m -2.17,-5.173 0.053,-1.302 c 0.077,-1.706 -0.08,-4.358 -0.297,-4.998 l -0.06,-0.176 0.238,0.232 c 0.302,0.295 0.679,1.018 0.842,1.612 0.18,0.657 0.181,2.006 0.003,2.778 -0.131,0.566 -0.543,1.689 -0.693,1.887 -0.084,0.111 -0.087,0.109 -0.086,-0.033 z"
       class="G"
       id="path233" />
  </g>
  <g
     id="g1409"
     transform="translate(-0.06877972)">
    <path
       d="M 83.888,97.991 83.784,97.9 c -1.336,-0.697 -2.145,-2.123 -4.007,-2.09 -2.214,0.039 -4.378,2.748 -6.542,2.748 -1.123,-0.099 -3.944,-2.748 -5.397,-2.748 -1.837,0 -3.979,2.475 -5.923,2.475 -2.477,0 -4.568,-2.475 -7.43,-2.475 -1.98,0 -4.489,2.37 -6.238,2.37 -1.749,0 -4.258,-2.37 -6.238,-2.37 -2.862,0 -4.953,2.475 -7.43,2.475 -1.944,0 -4.087,-2.475 -5.923,-2.475 -1.452,0 -4.274,2.649 -5.397,2.748 -2.165,0 -4.328,-2.709 -6.542,-2.748 -1.862,-0.033 -2.672,1.393 -4.008,2.09 l -0.104,0.091 c 2.037,3.223 4.467,6.284 7.191,9.071 8.185,8.375 18.926,14.132 28.451,14.902 9.525,-0.77 20.266,-6.527 28.451,-14.902 2.724,-2.787 5.154,-5.848 7.191,-9.071 z"
       class="J L"
       id="path235" />
    <path
       d="m 81.576,101.591 c -0.502,-0.304 -1.07,-0.515 -1.8,-0.502 -2.214,0.039 -4.378,2.748 -6.542,2.748 -1.123,-0.099 -3.944,-2.748 -5.396,-2.748 -1.837,0 -3.978,2.476 -5.923,2.476 -2.477,0 -4.568,-2.476 -7.43,-2.476 -1.98,0 -4.489,2.37 -6.238,2.37 -1.749,0 -4.258,-2.37 -6.238,-2.37 -2.862,0 -4.953,2.476 -7.43,2.476 -1.944,0 -4.086,-2.476 -5.923,-2.476 -1.452,0 -4.274,2.649 -5.396,2.748 -2.165,0 -4.329,-2.709 -6.542,-2.748 -0.687,-0.012 -1.231,0.174 -1.711,0.45 M 12.708,97.9 c 1.336,-0.697 2.145,-2.123 4.008,-2.09 2.214,0.039 4.378,2.748 6.542,2.748 1.123,-0.099 3.944,-2.748 5.396,-2.748 1.837,0 3.978,2.476 5.923,2.476 2.477,0 4.568,-2.476 7.43,-2.476 1.98,0 4.489,2.37 6.238,2.37 1.749,0 4.258,-2.37 6.238,-2.37 2.862,0 4.953,2.476 7.43,2.476 1.944,0 4.086,-2.476 5.923,-2.476 1.452,0 4.274,2.649 5.396,2.748 2.165,0 4.329,-2.709 6.542,-2.748 1.862,-0.033 2.672,1.393 4.008,2.09"
       fill="none"
       stroke="#ffffff"
       stroke-width="1.465"
       id="path237" />
    <path
       d="m 48.236,79.71 c -7.19,0.005 -13.015,5.835 -13.015,13.025 0,3.433 1.356,6.728 3.772,9.167 0.935,-0.448 1.917,-0.813 3.014,-0.813 1.98,0 4.489,2.37 6.238,2.37 1.749,0 4.258,-2.37 6.238,-2.37 1.097,0 2.079,0.365 3.014,0.813 2.417,-2.439 3.772,-5.733 3.772,-9.167 0,-3.454 -1.372,-6.767 -3.815,-9.21 -2.443,-2.443 -5.756,-3.815 -9.21,-3.815 z"
       class="C D E"
       id="path239" />
    <path
       d="m 40.837,96.904 c 2.51,1.502 5.564,2.513 10.55,1.786 0.972866,-0.302538 1.875039,-0.463221 2.745115,-0.55955 -6.721877,0 -9.08577,-1.22645 -13.295115,-1.22645 z"
       fill="url(#B)"
       stroke="#af141a"
       class="Y"
       id="path972"
       style="fill:#dcdcdc;stroke:#a9a9a9"
       sodipodi:nodetypes="cccc" />
    <g
       fill="none"
       class="J"
       id="g251"
       transform="translate(-56.754,-117.426)">
      <path
         d="m 104.913,199.511 -0.785,16.822"
         stroke-width="0.665"
         id="path241" />
      <g
         class="Y"
         id="g249">
        <path
           d="m 97.591,214.33 6.667,-0.791 4.996,2.282"
           id="path243" />
        <path
           d="m 98.886,215.028 5.373,-1.49 3.286,2.657 m -7.249,-0.587 3.963,-2.07 2.302,2.756 m -4.179,-0.152 1.876,-2.603 1.026,2.816 m -7.217,-1.751 5.72,-11.74"
           id="path245" />
        <path
           d="m 97.664,210.877 6.508,2.077 m -2.486,-3.48 2.37,2.657"
           id="path247" />
      </g>
    </g>
    <path
       d="m 47.505,96.112 c 0.479,-1.152 1.244,-2.322 3.695,-3.597 -0.277,-4.673 -0.935,-8.813 -0.655,-14.266 -3.026,2.466 -4.707,7.036 -3.04,17.863 z"
       fill="#ffff00"
       class="B Q"
       id="path253" />
    <path
       d="m 47.691,93.861 2.944,-1.124 c -0.18,-4.152 -1.542,-8.109 -0.761,-12.502 -1.471,2.737 -2.549,6.427 -2.183,13.626 z"
       class="R"
       id="path255" />
    <path
       d="m 48.187,92.67 1.687,-0.562 c -0.782,-3.091 -0.744,-5.854 -0.661,-8.599 -0.794,2.737 -1.114,5.806 -1.025,9.161 z"
       class="S"
       id="path257" />
    <path
       d="m 38.522,95.614 0.43,-0.43 1.455,0.298 0.43,1.422 c 2.51,1.502 5.564,2.513 10.55,1.786 2.46,-0.765 4.468,-0.623 6.648,-0.827 l -0.959,1.389 c -3.833,-1.639 -7.378,2.117 -8.83,2.117 -1.127,0 -3.602,-2.189 -5.821,-2.447 h -1.951 c -0.817,-0.746 -1.187,-1.747 -1.389,-2.844 z"
       fill="url(#B)"
       stroke="#af141a"
       class="Y"
       id="path259"
       style="fill:url(#B);" />
    <path
       d="m 59.852,94.901 -12.347,1.212 0.654,-14.027 c 2.189,7.371 9.306,11.026 11.693,12.816 z"
       fill="#ffff00"
       class="B Q"
       id="path261" />
    <path
       d="m 48.462,84.482 c 1.237,2.705 2.881,5.792 9.486,9.817 -3.515,-0.381 -6.858,-0.263 -9.814,0.972 1.045,-4.135 0.255,-7.242 0.327,-10.788 z"
       class="R"
       id="path263" />
    <path
       d="m 48.765,86.878 c 0.9,2.446 1.151,4.902 0,7.549 1.62,-0.626 2.447,-1.396 7.28,-0.732 -3.447,-2.262 -5.641,-4.56 -7.28,-6.818 z"
       class="S"
       id="path265" />
    <path
       d="m 36.887,94.854 8.045,-2.806 c -1.503,-8.059 1.357,-9.894 3.227,-9.962 -6.693,-0.636 -11.645,1.628 -11.272,12.769 z"
       fill="#ffff00"
       class="B Q"
       id="path267" />
    <path
       d="m 37.505,93.629 6.317,-2.117 c 0.384,-3.117 -0.241,-6.585 1.984,-9.062 -5.615,0.505 -8.062,4.593 -8.301,11.179 z"
       class="R"
       id="path269" />
    <path
       d="m 38.332,92.439 4.862,-1.455 c -0.174,-3.866 0.532,-6.648 1.488,-7.706 -5.127,1.466 -6.357,6.782 -6.35,9.161 z"
       class="S"
       id="path271" />
  </g>
</svg>
