<?xml version="1.0" encoding="UTF-8" standalone="no"?>
<svg
   xmlns:dc="http://purl.org/dc/elements/1.1/"
   xmlns:cc="http://creativecommons.org/ns#"
   xmlns:rdf="http://www.w3.org/1999/02/22-rdf-syntax-ns#"
   xmlns:svg="http://www.w3.org/2000/svg"
   xmlns="http://www.w3.org/2000/svg"
   xmlns:xlink="http://www.w3.org/1999/xlink"
   xmlns:sodipodi="http://sodipodi.sourceforge.net/DTD/sodipodi-0.dtd"
   xmlns:inkscape="http://www.inkscape.org/namespaces/inkscape"
   width="221.046"
   height="311.014"
   viewBox="0 0 58.485 82.289"
   version="1.1"
   id="svg539"
   sodipodi:docname="Seal_of_Semarang_Regency (1).svg"
   inkscape:version="1.0.1 (3bc2e813f5, 2020-09-07)">
  <metadata
     id="metadata543">
    <rdf:RDF>
      <cc:Work
         rdf:about="">
        <dc:format>image/svg+xml</dc:format>
        <dc:type
           rdf:resource="http://purl.org/dc/dcmitype/StillImage" />
      </cc:Work>
    </rdf:RDF>
  </metadata>
  <sodipodi:namedview
     pagecolor="#ffffff"
     bordercolor="#666666"
     borderopacity="1"
     objecttolerance="10"
     gridtolerance="10"
     guidetolerance="10"
     inkscape:pageopacity="0"
     inkscape:pageshadow="2"
     inkscape:window-width="1366"
     inkscape:window-height="705"
     id="namedview541"
     showgrid="false"
     inkscape:zoom="1.0229509"
     inkscape:cx="-8.8801844"
     inkscape:cy="244.75163"
     inkscape:window-x="-8"
     inkscape:window-y="-8"
     inkscape:window-maximized="1"
     inkscape:current-layer="svg539" />
  <style
     id="style2"><![CDATA[.i{fill:#fff}.j{stroke-width:.165}.k{fill:#a07843}.l{opacity:.999}.m{fill:#009b4c}.n{stroke:#007338}.o{fill:#00ce65}.p{fill-rule:evenodd}.q{opacity:.998}.r{stroke-linejoin:round}.s{fill:#dadada}.t{stroke:#bcbcbc}.u{fill:#ffeba3}.v{fill:#f5c742}]]></style>
  <defs
     id="defs59">
    <linearGradient
       id="A"
       x1="83.955"
       y1="127.992"
       x2="83.955"
       y2="156.266"
       gradientUnits="userSpaceOnUse"
       gradientTransform="translate(-75.757,-86.662)">
      <stop
         offset="0"
         stop-color="gold"
         id="stop4" />
      <stop
         offset="1"
         stop-color="#228b22"
         id="stop6" />
    </linearGradient>
    <linearGradient
       id="B"
       gradientUnits="userSpaceOnUse">
      <stop
         stop-color="#ad8900"
         offset="0"
         id="stop9" />
      <stop
         stop-color="#ffd631"
         offset=".382"
         id="stop11" />
      <stop
         stop-color="#fff9c7"
         offset=".505"
         id="stop13" />
      <stop
         stop-color="#ffd631"
         offset=".613"
         id="stop15" />
      <stop
         stop-color="#ad8900"
         offset="1"
         id="stop17" />
    </linearGradient>
    <linearGradient
       id="C"
       x1="105"
       y1="110.26147"
       x2="105"
       y2="153.65627"
       gradientUnits="userSpaceOnUse">
      <stop
         offset="0"
         stop-color="#d8effb"
         id="stop20" />
      <stop
         offset="1"
         stop-color="#fff"
         id="stop22" />
    </linearGradient>
    <linearGradient
       xlink:href="#B"
       id="D"
       x1="-53.248"
       y1="274.597"
       x2="-52.368"
       y2="274.597"
       gradientTransform="matrix(0.945772,0,0,1.0236688,14.078449,-261.07473)" />
    <linearGradient
       xlink:href="#B"
       id="E"
       x1="-53.326"
       y1="246.798"
       x2="-52.29"
       y2="246.798"
       gradientTransform="matrix(0.945772,0,0,1.0236688,14.078449,-234.98346)" />
    <linearGradient
       xlink:href="#B"
       id="F"
       x1="-53.248"
       y1="274.596"
       x2="-52.368"
       y2="274.596"
       gradientTransform="matrix(0.945772,0,0,1.0236688,14.078449,-247.02795)" />
    <path
       id="G"
       d="M83.094 167.679l-.44-1.279-.467 1.279zm-.645-1.709h.444l1.051 2.896h-.43l-.294-.867h-1.145l-.313.867h-.402zm.203 0z" />
    <path
       id="H"
       d="M85.647 167.297q.276 0 .436-.11.162-.11.162-.398 0-.31-.225-.422-.12-.059-.321-.059h-.958v.99zm-1.299-1.327h1.341q.331 0 .546.097.408.185.408.684 0 .26-.108.426-.106.166-.3.266.17.069.254.181.087.112.097.365l.014.388q.006.166.028.246.035.138.126.177v.065h-.481q-.02-.037-.032-.097-.012-.059-.02-.229l-.024-.483q-.014-.284-.211-.38-.112-.053-.353-.053h-.893v1.242h-.392z" />
    <path
       id="I"
       d="M87.207 165.97h.562l.832 2.449.826-2.449h.556v2.896h-.373v-1.709q0-.089.004-.294.004-.205.004-.44l-.826 2.443h-.388l-.832-2.443v.089q0 .106.004.325.006.217.006.319v1.709h-.375z" />
    <path
       id="J"
       d="M95.828 165.97v.345h-.976v2.551h-.398v-2.551h-.976v-.345z" />
    <path
       id="K"
       d="M-136.023 265.506v4.696h16.262v-4.311c-1.502-.037-1.66-.69-2.453-1.051-2.051-.423-3.04-1.82-4.556-2.734-.294-.067-.626-.458-.881-.202-.189-.178-.64-.329-.836.097-.964-.414-.877-.46-.946-.561-.259.198-.416.485-.981.421-1.78.901-3.273 2.68-5.608 3.645z" />
    <path
       id="L"
       d="M-129.434 261.44c-.259.198-.416.485-.981.421-.363.184-.713.41-1.061.652l.159.846a1.65 1.65 0 0 1 .57-.322c.037.213.121.399.273.545.141-.193.255-.411.57-.446.019.144.089.277.322.372.349-.226.667-.392.917-.421l.471.372c.234-.186.26-.302.743-.57l.62.298a6.41 6.41 0 0 1 .849-.535l-.788-.544c-.294-.067-.625-.458-.881-.202-.189-.178-.64-.328-.836.097-.964-.414-.877-.46-.946-.561z" />
    <path
       id="M"
       d="M-90.293 128.796h7.064v2.636h-7.064z" />
    <path
       id="N"
       d="M-79.717 109.77l-1.958 16.154h2.549 2.549l-1.958-16.154h-.591z" />
    <path
       id="O"
       d="M-75.166 109.714l-.842 1.407" />
    <path
       id="P"
       d="M-75.166 109.714l.842 1.407" />
    <path
       id="Q"
       d="M-52.368 275.507s-.192-.192-.192-.396v-.961c0-.271.12-.464.12-.464h-.736a.95.95 0 0 0 .12.464v.961c0 .204-.192.396-.192.396z" />
    <path
       id="R"
       d="M-52.368 275.61h-.88c-.042 0-.079-.025-.095-.064s-.007-.083.022-.112c.045-.045.162-.192.162-.323v-.961a.83.83 0 0 0-.105-.409c-.02-.032-.021-.072-.003-.105s.053-.053.09-.053h.736c.037 0 .072.02.09.053s.017.073-.003.105a.86.86 0 0 0-.104.409v.961c0 .157.16.321.162.323.029.029.038.074.022.112s-.054.063-.095.063zm-.674-.206h.467c-.047-.081-.089-.184-.089-.293v-.961a1.08 1.08 0 0 1 .063-.361h-.416a1.08 1.08 0 0 1 .063.361v.961a.6.6 0 0 1-.089.293z" />
    <path
       id="S"
       d="M-52.368 275.507s-.192-.192-.192-.396v-.961c0-.271.12-.464.12-.464h-.736a.95.95 0 0 0 .12.464v.961c0 .204-.192.396-.192.396h.88z" />
    <path
       id="T"
       d="M7.729 17.581c0 .544-.166 1.065-.462 1.45s-.697.6-1.115.6-.819-.216-1.115-.6-.462-.906-.462-1.45.166-1.065.462-1.45.697-.6 1.115-.6.819.216 1.115.6.462.906.462 1.45z" />
    <path
       id="U"
       d="M6.778 21.498c2.566-1.326 2.841-4.425 2.577-5.911-1.843 1.133-3.552 2.38-2.577 5.911z" />
    <path
       id="V"
       d="M4.684 16.731c1.016 1.972 3.177 2.643 2.504 4.375a3 3 0 0 0-.15.726l-.698.058c0-.709-.335-1.073-.426-1.183-1.093-1.317-1.769-2.258-1.23-3.976z" />
    <path
       id="W"
       d="M4.795 17.496c.648.977 2.011 1.535 1.809 3.011-1.663-1.443-1.367-2.074-1.809-3.011z" />
    <path
       id="X"
       d="M6.84 18.958c.203.11.421.328.657.669 1.177-.843 1.158-2.181 1.437-3.395-.79.732-1.736 1.162-2.094 2.726z" />
    <path
       id="Y"
       d="M5.959 15.917c-.489.081-1.023.629-.739 1.135.256.338.586.608.79.979.497.281.191-.612.473-.814.22-.297.788-.694.246-1.004-.234-.14-.482-.324-.77-.296z" />
    <path
       id="Z"
       d="M-140.737 274.101a1.577 2.05 0 0 1-1.577 2.05 1.577 2.05 0 0 1-1.577-2.05 1.577 2.05 0 0 1 1.577-2.05 1.577 2.05 0 0 1 1.577 2.05z" />
    <path
       id="a"
       d="M8.921 20.222c.246 1.925-.168 3.334-1.834 3.767l-.223 1.933c2.945-1.644 2.734-4.198 2.057-5.7z" />
    <path
       id="b"
       d="M7.379 24.189l-.131.613c1.514-.721 1.789-1.806 1.971-2.918-.059.826-.966 2.213-1.84 2.304z" />
    <path
       id="c"
       d="M5.469 19.886c1.766 2.02 3.331 4.103 1.402 7.29-2.235-3.526-3.043-4.441-1.402-7.29z" />
    <path
       id="d"
       d="M5.662 20.868c.308 1.234-.746 1.607 1.139 3.838.394-2.385-.759-2.558-1.139-3.838z" />
    <path
       id="e"
       d="M49.936 44.211c.643.593 1.208 1.274 1.103 2.714z" />
    <path
       id="f"
       d="M54.223 44.211c-.643.593-1.208 1.274-1.103 2.714z" />
    <path
       id="g"
       d="M49.936 23.989c.643.496 1.208 1.065 1.103 2.268z" />
    <path
       id="h"
       d="M54.223 23.989c-.643.496-1.208 1.065-1.103 2.268z" />
    <path
       id="i"
       d="M83.531 95.584l-.18-.909h-.854l-.191.909h-.793l.985-4.612h1.034l.996 4.612zm-.868-1.916h.518l-.259-1.338z" />
    <path
       id="j"
       d="M101.374 94.482v1.102h-2.396v-4.612h2.396v1.064h-1.437v.669h1.162v1.024h-1.162v.753z" />
    <path
       id="k"
       d="M104.484 95.584h-.796l-.873-2.037q-.168-.392-.338-.953.077.446.077.757v2.233h-.793v-4.612h.924l.742 1.689q.222.503.336.885-.075-.591-.075-1.21v-1.365h.796z" />
    <linearGradient
       inkscape:collect="always"
       xlink:href="#B"
       id="linearGradient1368"
       x1="-53.248"
       y1="274.597"
       x2="-52.368"
       y2="274.597"
       gradientTransform="matrix(0.945772,0,0,1.0236688,14.078449,-234.98346)" />
    <linearGradient
       inkscape:collect="always"
       xlink:href="#B"
       id="linearGradient1370"
       x1="-53.248"
       y1="274.597"
       x2="-52.368"
       y2="274.597"
       gradientTransform="matrix(0.945772,0,0,1.0236688,14.078449,-236.98678)" />
    <linearGradient
       inkscape:collect="always"
       xlink:href="#B"
       id="linearGradient1372"
       x1="-53.248"
       y1="274.597"
       x2="-52.368"
       y2="274.597"
       gradientTransform="matrix(0.945772,0,0,1.0236688,14.078449,-239.01467)" />
    <linearGradient
       inkscape:collect="always"
       xlink:href="#B"
       id="linearGradient1374"
       x1="-53.248"
       y1="274.596"
       x2="-52.368"
       y2="274.596"
       gradientTransform="matrix(0.945772,0,0,1.0236688,14.078449,-240.98625)" />
    <linearGradient
       inkscape:collect="always"
       xlink:href="#B"
       id="linearGradient1376"
       x1="-53.248"
       y1="274.596"
       x2="-52.368"
       y2="274.596"
       gradientTransform="matrix(0.945772,0,0,1.0236688,14.078449,-243.01209)" />
    <linearGradient
       inkscape:collect="always"
       xlink:href="#B"
       id="linearGradient1378"
       x1="-53.248"
       y1="274.597"
       x2="-52.368"
       y2="274.597"
       gradientTransform="matrix(0.945772,0,0,1.0236688,14.078449,-249.02922)" />
    <linearGradient
       inkscape:collect="always"
       xlink:href="#B"
       id="linearGradient1380"
       x1="-53.248"
       y1="274.597"
       x2="-52.368"
       y2="274.597"
       gradientTransform="matrix(0.945772,0,0,1.0236688,14.078449,-251.03254)" />
    <linearGradient
       inkscape:collect="always"
       xlink:href="#B"
       id="linearGradient1382"
       x1="-53.248"
       y1="274.597"
       x2="-52.368"
       y2="274.597"
       gradientTransform="matrix(0.945772,0,0,1.0236688,14.078449,-253.06043)" />
    <linearGradient
       inkscape:collect="always"
       xlink:href="#B"
       id="linearGradient1384"
       x1="-53.248"
       y1="274.597"
       x2="-52.368"
       y2="274.597"
       gradientTransform="matrix(0.945772,0,0,1.0236688,14.078449,-255.03304)" />
    <linearGradient
       inkscape:collect="always"
       xlink:href="#B"
       id="linearGradient1386"
       x1="-53.248"
       y1="274.597"
       x2="-52.368"
       y2="274.597"
       gradientTransform="matrix(0.945772,0,0,1.0236688,14.078449,-257.05888)" />
    <linearGradient
       inkscape:collect="always"
       xlink:href="#B"
       id="linearGradient2047"
       x1="-53.248"
       y1="274.596"
       x2="-52.368"
       y2="274.596"
       gradientTransform="matrix(0.945772,0,0,1.0236688,14.078449,-245.03793)" />
    <linearGradient
       inkscape:collect="always"
       xlink:href="#B"
       id="linearGradient2091"
       x1="-53.248"
       y1="274.597"
       x2="-52.368"
       y2="274.597"
       gradientTransform="matrix(0.945772,0,0,1.0236688,14.078449,-259.08472)" />
  </defs>
  <g
     class="p"
     id="g65"
     transform="translate(-75.758,-86.662)">
    <path
       d="m 77.345,97.641 v 41.931 h 55.311 V 97.641 Z"
       fill="#e20000"
       paint-order="markers fill stroke"
       class="q"
       id="path61" />
    <path
       d="m 88.197,97.641 h 33.606 v 41.931 H 88.197 Z"
       fill="url(#C)"
       paint-order="markers fill stroke"
       class="l"
       id="path63"
       style="fill:url(#C)" />
  </g>
  <g
     id="g1644"
     transform="translate(66.60104)">
    <path
       d="m -66.50254,0.099 v 57.866 l 29.144,19.618 29.144,-19.619 V 0.099 h -29.144 z m 1.488,1.488 h 27.655 27.655 v 55.567 l -27.655,18.659 -27.655,-18.659 z"
       fill="#dcdcdc"
       stroke="#808080"
       stroke-width="0.197"
       id="path67" />
    <path
       d="m -66.04154,0.56 v 57.155 l 28.683,19.321 28.683,-19.322 V 0.56 h -28.683 z m 1.028,0.567 h 27.655 27.655 a 0.46,0.46 0 0 1 0.461,0.461 v 55.567 a 0.46,0.46 0 0 1 -0.211,0.387 l -27.655,18.659 a 0.46,0.46 0 0 1 -0.499,0 l -27.655,-18.659 a 0.46,0.46 0 0 1 -0.211,-0.387 V 1.588 a 0.46,0.46 0 0 1 0.461,-0.461 z"
       class="i"
       id="path69" />
  </g>
  <path
     d="M 1.588,1.587 H 56.899 V 10.98 H 1.587 Z"
     paint-order="markers fill stroke"
     class="p q"
     id="path71" />
  <path
     d="m 1.131,81.869 q 0.199,0 0.327,-0.041 0.229,-0.077 0.375,-0.296 0.116,-0.175 0.168,-0.449 0.03,-0.164 0.03,-0.304 0,-0.538 -0.215,-0.836 Q 1.603,79.645 1.128,79.645 H 0.432 v 2.224 z M 0.037,79.308 H 1.21 q 0.597,0 0.927,0.424 0.294,0.382 0.294,0.98 0,0.461 -0.173,0.834 -0.306,0.658 -1.051,0.658 H 0.038 Z m 2.908,0 h 0.396 v 1.197 h 1.506 v -1.197 h 0.396 v 2.896 H 4.847 V 80.85 H 3.341 v 1.354 H 2.945 Z"
     id="path77" />
  <path
     id="use79"
     d="M 7.337,81.017 6.897,79.738 6.43,81.017 Z M 6.692,79.308 h 0.444 l 1.051,2.896 H 7.757 L 7.463,81.337 H 6.318 L 6.005,82.204 H 5.603 Z m 0.203,0 z" />
  <path
     id="use81"
     d="m 9.89,80.635 q 0.276,0 0.436,-0.11 0.162,-0.11 0.162,-0.398 0,-0.31 -0.225,-0.422 -0.12,-0.059 -0.321,-0.059 H 8.984 v 0.99 z M 8.591,79.308 h 1.341 q 0.331,0 0.546,0.097 0.408,0.185 0.408,0.684 0,0.26 -0.108,0.426 -0.106,0.166 -0.3,0.266 0.17,0.069 0.254,0.181 0.087,0.112 0.097,0.365 l 0.014,0.388 q 0.006,0.166 0.028,0.246 0.035,0.138 0.126,0.177 v 0.065 h -0.481 q -0.02,-0.037 -0.032,-0.097 -0.012,-0.059 -0.02,-0.229 L 10.44,81.394 Q 10.426,81.11 10.229,81.014 10.117,80.961 9.876,80.961 H 8.983 v 1.242 H 8.591 Z" />
  <path
     id="use83"
     d="m 11.45,79.308 h 0.562 l 0.832,2.449 0.826,-2.449 h 0.556 v 2.896 h -0.373 v -1.709 q 0,-0.089 0.004,-0.294 0.004,-0.205 0.004,-0.44 l -0.826,2.443 h -0.388 l -0.832,-2.443 v 0.089 q 0,0.106 0.004,0.325 0.006,0.217 0.006,0.319 v 1.709 H 11.45 Z" />
  <path
     d="m 16.073,79.229 q 0.767,0 1.136,0.493 0.288,0.384 0.288,0.984 0,0.649 -0.329,1.078 -0.386,0.505 -1.102,0.505 -0.668,0 -1.051,-0.442 -0.341,-0.426 -0.341,-1.076 0,-0.587 0.292,-1.005 0.375,-0.536 1.108,-0.536 z m 0.039,2.709 q 0.518,0 0.749,-0.371 0.233,-0.373 0.233,-0.856 0,-0.511 -0.268,-0.822 -0.266,-0.311 -0.729,-0.311 -0.449,0 -0.733,0.31 -0.284,0.308 -0.284,0.909 0,0.481 0.242,0.812 0.244,0.329 0.791,0.329 z m -0.028,-2.709 z"
     id="path85" />
  <path
     id="use87"
     d="m 20.071,79.308 v 0.345 h -0.976 v 2.551 h -0.398 v -2.551 h -0.976 v -0.345 z" />
  <path
     id="use89"
     d="m 22.537,79.308 v 0.345 h -0.976 v 2.551 h -0.398 v -2.551 h -0.976 v -0.345 z" />
  <path
     id="use91"
     d="m 24.084,81.017 -0.44,-1.279 -0.467,1.279 z m -0.645,-1.709 h 0.444 l 1.051,2.896 h -0.43 L 24.21,81.337 h -1.145 l -0.313,0.867 H 22.35 Z m 0.203,0 z" />
  <path
     id="use93"
     d="m 25.281,79.308 h 0.562 l 0.832,2.449 0.826,-2.449 h 0.556 v 2.896 h -0.373 v -1.709 q 0,-0.089 0.004,-0.294 0.004,-0.205 0.004,-0.44 l -0.826,2.443 h -0.388 l -0.832,-2.443 v 0.089 q 0,0.106 0.004,0.325 0.006,0.217 0.006,0.319 v 1.709 h -0.375 z" />
  <path
     id="use95"
     d="m 30.141001,81.017 -0.44,-1.279 -0.467,1.279 z m -0.645,-1.709 h 0.444 l 1.051,2.896 h -0.43 l -0.294,-0.867 h -1.145 l -0.313,0.867 h -0.402 z m 0.203,0 z" />
  <path
     d="m 32.504,81.27 q 0.014,0.246 0.116,0.4 0.195,0.288 0.688,0.288 0.221,0 0.402,-0.063 0.351,-0.122 0.351,-0.438 0,-0.237 -0.148,-0.337 -0.15,-0.099 -0.469,-0.172 l -0.392,-0.089 q -0.384,-0.087 -0.544,-0.191 -0.276,-0.181 -0.276,-0.542 0,-0.39 0.27,-0.641 0.27,-0.25 0.765,-0.25 0.455,0 0.773,0.221 0.319,0.219 0.319,0.702 H 33.99 q -0.03,-0.233 -0.126,-0.357 -0.179,-0.227 -0.609,-0.227 -0.347,0 -0.499,0.146 -0.152,0.146 -0.152,0.339 0,0.213 0.177,0.311 0.116,0.063 0.526,0.158 l 0.406,0.093 q 0.294,0.067 0.453,0.183 0.276,0.203 0.276,0.589 0,0.481 -0.351,0.688 -0.349,0.207 -0.812,0.207 -0.54,0 -0.846,-0.276 -0.306,-0.274 -0.3,-0.743 z m 0.793,-2.04 z"
     id="path97" />
  <path
     id="use99"
     d="m 36.428,81.017 -0.44,-1.279 -0.467,1.279 z m -0.645,-1.709 h 0.444 l 1.051,2.896 h -0.43 l -0.294,-0.867 h -1.145 l -0.313,0.867 h -0.402 z m 0.203,0 z" />
  <path
     id="use101"
     d="m 39.443999,79.308 v 0.345 h -0.976 v 2.551 h -0.398 v -2.551 h -0.976 v -0.345 z" />
  <path
     d="m 39.578,79.308 h 0.457 l 0.832,1.392 0.832,-1.392 h 0.459 l -1.094,1.729 v 1.167 h -0.392 v -1.167 z m 1.295,0 z"
     id="path103" />
  <path
     id="use105"
     d="m 43.684,81.017 -0.44,-1.279 -0.467,1.279 z m -0.645,-1.709 h 0.444 l 1.051,2.896 h -0.43 L 43.81,81.337 h -1.145 l -0.313,0.867 H 41.95 Z m 0.203,0 z" />
  <path
     d="m 45.829,79.308 h 1.303 q 0.386,0 0.623,0.219 0.237,0.217 0.237,0.611 0,0.339 -0.211,0.591 -0.211,0.25 -0.649,0.25 h -0.911 v 1.224 h -0.392 z m 1.766,0.832 q 0,-0.319 -0.237,-0.434 -0.13,-0.061 -0.357,-0.061 H 46.22 v 1.003 h 0.781 q 0.264,0 0.428,-0.112 0.166,-0.112 0.166,-0.396 z"
     id="path107" />
  <path
     id="use109"
     d="m 49.831002,80.635 q 0.276,0 0.436,-0.11 0.162,-0.11 0.162,-0.398 0,-0.31 -0.225,-0.422 -0.12,-0.059 -0.321,-0.059 h -0.958 v 0.99 z m -1.299,-1.327 h 1.341 q 0.331,0 0.546,0.097 0.408,0.185 0.408,0.684 0,0.26 -0.108,0.426 -0.106,0.166 -0.3,0.266 0.17,0.069 0.254,0.181 0.087,0.112 0.097,0.365 l 0.014,0.388 q 0.006,0.166 0.028,0.246 0.035,0.138 0.126,0.177 v 0.065 h -0.481 q -0.02,-0.037 -0.032,-0.097 -0.012,-0.059 -0.02,-0.229 l -0.024,-0.483 q -0.014,-0.284 -0.211,-0.38 -0.112,-0.053 -0.353,-0.053 h -0.893 v 1.242 h -0.392 z" />
  <path
     id="use111"
     d="m 52.886999,81.017 -0.44,-1.279 -0.467,1.279 z m -0.645,-1.709 h 0.444 l 1.051,2.896 h -0.43 l -0.294,-0.867 h -1.145 l -0.313,0.867 h -0.402 z m 0.203,0 z" />
  <path
     d="m 55.515,81.341 q 0,0.367 -0.108,0.57 -0.201,0.371 -0.765,0.371 -0.325,0 -0.556,-0.175 -0.231,-0.177 -0.231,-0.629 v -0.207 h 0.369 v 0.207 q 0,0.237 0.104,0.357 0.106,0.118 0.329,0.118 0.313,0 0.41,-0.215 0.059,-0.132 0.059,-0.499 v -1.93 h 0.388 z"
     id="path113" />
  <path
     id="use115"
     d="m 57.599001,81.017 -0.44,-1.279 -0.467,1.279 z m -0.645,-1.709 h 0.444 l 1.051,2.896 h -0.43 l -0.294,-0.867 h -1.145 l -0.313,0.867 h -0.402 z m 0.203,0 z" />
  <g
     id="g2623"
     transform="translate(65.109666)">
    <path
       id="use117"
       d="m -52.66954,38.850042 v 4.964278 h 16.803053 v -4.557283 c -1.551973,-0.03911 -1.71523,-0.729419 -2.534614,-1.111043 -2.119239,-0.447165 -3.141144,-1.923974 -4.707583,-2.89019 -0.303781,-0.07083 -0.646827,-0.484165 -0.910311,-0.21354 -0.195289,-0.188169 -0.661294,-0.347796 -0.863815,0.102541 -0.996073,-0.437651 -0.906179,-0.486279 -0.977474,-0.593049 -0.267618,0.209311 -0.429841,0.512707 -1.013639,0.445051 -1.839223,0.952473 -3.381896,2.833106 -5.794584,3.853235 z"
       style="fill:#00a2e9;stroke-width:1.04513" />
    <path
       id="use119"
       d="m -45.861318,34.551756 c -0.267617,0.209311 -0.42984,0.512707 -1.013638,0.445051 -0.375078,0.194512 -0.736723,0.433423 -1.096301,0.689248 l 0.16429,0.894331 a 1.7048972,1.7442628 0 0 1 0.588965,-0.340395 c 0.03823,0.225168 0.125025,0.421794 0.282083,0.576135 0.145691,-0.204026 0.263484,-0.43448 0.588964,-0.471479 0.01963,0.152226 0.09196,0.292824 0.332713,0.393252 0.360612,-0.238912 0.689192,-0.414395 0.94751,-0.445052 l 0.48667,0.393252 c 0.241786,-0.196626 0.268651,-0.319253 0.767721,-0.602563 l 0.640628,0.315024 a 6.6232671,6.7761969 0 0 1 0.877247,-0.565564 l -0.814218,-0.575078 c -0.303781,-0.07083 -0.645794,-0.484165 -0.910311,-0.21354 -0.195289,-0.188169 -0.661294,-0.346738 -0.863815,0.102541 -0.996073,-0.437651 -0.906179,-0.486279 -0.977474,-0.593049 z"
       style="fill:#ffffff;stroke-width:1.04513" />
    <path
       id="use121"
       d="m -19.063459,38.850042 v 4.964278 h -16.803053 v -4.557283 c 1.551973,-0.03911 1.71523,-0.729419 2.534614,-1.111043 2.119239,-0.447165 3.141144,-1.923974 4.707583,-2.89019 0.303781,-0.07083 0.646827,-0.484165 0.910311,-0.21354 0.195289,-0.188169 0.661294,-0.347796 0.863815,0.102541 0.996073,-0.437651 0.906179,-0.486279 0.977474,-0.593049 0.267618,0.209311 0.429841,0.512707 1.013639,0.445051 1.839223,0.952473 3.381896,2.833106 5.794584,3.853235 z"
       style="fill:#00a2e9;stroke-width:1.04513" />
    <path
       id="use123"
       d="m -25.871681,34.551756 c 0.267617,0.209311 0.42984,0.512707 1.013638,0.445051 0.375078,0.194512 0.736723,0.433423 1.096301,0.689248 l -0.16429,0.894331 a 1.7048972,1.7442628 0 0 0 -0.588965,-0.340395 c -0.03823,0.225168 -0.125025,0.421794 -0.282083,0.576135 -0.145691,-0.204026 -0.263484,-0.43448 -0.588964,-0.471479 -0.01963,0.152226 -0.09196,0.292824 -0.332713,0.393252 -0.360612,-0.238912 -0.689192,-0.414395 -0.94751,-0.445052 l -0.48667,0.393252 c -0.241786,-0.196626 -0.268651,-0.319253 -0.767721,-0.602563 l -0.640628,0.315024 a 6.6232671,6.7761969 0 0 0 -0.877247,-0.565564 l 0.814218,-0.575078 c 0.303781,-0.07083 0.645794,-0.484165 0.910311,-0.21354 0.195289,-0.188169 0.661294,-0.346738 0.863815,0.102541 0.996073,-0.437651 0.906179,-0.486279 0.977474,-0.593049 z"
       style="fill:#ffffff;stroke-width:1.04513" />
    <path
       d="m -35.86622,40.221138 c -0.438838,0.163855 -0.826604,0.454566 -1.273955,0.596221 -0.677172,0.387967 -1.125468,-0.598335 -1.774268,-0.291767 -0.500313,0.352024 -1.10939,0.668105 -1.656992,0.190283 -0.707438,-0.617364 -1.560524,0.06131 -2.313359,0.135312 -0.629884,-0.284367 -1.288141,-0.457737 -1.863171,0.06131 -0.769858,0.271682 -1.452705,-0.359424 -2.208377,-0.334053 -0.680956,-0.134255 -1.350563,0.819275 -1.898165,0.09197 -0.53909,-0.453508 -1.325972,-0.22834 -1.925591,-0.02854 -0.554223,0.349909 -1.270172,0.701933 -1.888707,0.284367 v 4.038233 h 16.802585 16.80164 v -4.038233 c -0.618535,0.418624 -1.333539,0.0666 -1.888707,-0.284367 -0.599619,-0.199798 -1.387447,-0.424966 -1.925592,0.02854 -0.547602,0.728362 -1.218154,-0.226225 -1.898164,-0.09197 -0.755672,-0.02537 -1.438519,0.606792 -2.208378,0.334053 -0.574083,-0.519051 -1.232341,-0.345681 -1.86317,-0.06131 -0.752835,-0.074 -1.605921,-0.752676 -2.313359,-0.135312 -0.547602,0.476765 -1.155733,0.160683 -1.656992,-0.190283 -0.647854,-0.305511 -1.097096,0.679734 -1.774269,0.291767 -0.44735,-0.141655 -0.83417,-0.431308 -1.273009,-0.596221 z"
       class="m q"
       id="path129"
       style="stroke-width:0.999901" />
    <path
       d="m -52.668805,44.963419 h 33.604225 v 7.94221 h -33.604225 z"
       fill="#a0d9f6"
       paint-order="markers fill stroke"
       class="l"
       id="path131"
       style="fill-rule:evenodd;stroke-width:0.999901" />
    <path
       id="use133"
       d="m -52.568553,50.008039 h 6.680933 v 2.786592 h -6.680933 z"
       style="opacity:0.999;fill-rule:evenodd;stroke:#808080;stroke-width:0.211979;stroke-linejoin:round;paint-order:markers fill stroke" />
    <path
       id="use135"
       d="m -45.88762,50.008039 h 6.680934 v 2.786592 h -6.680934 z"
       style="opacity:0.999;fill-rule:evenodd;stroke:#808080;stroke-width:0.211979;stroke-linejoin:round;paint-order:markers fill stroke" />
    <path
       id="use137"
       d="m -39.206686,50.008039 h 6.680933 v 2.786592 h -6.680933 z"
       style="opacity:0.999;fill-rule:evenodd;stroke:#808080;stroke-width:0.211979;stroke-linejoin:round;paint-order:markers fill stroke" />
    <path
       id="use139"
       d="m -32.527644,50.008039 h 6.680934 v 2.786592 h -6.680934 z"
       style="opacity:0.999;fill-rule:evenodd;stroke:#808080;stroke-width:0.211979;stroke-linejoin:round;paint-order:markers fill stroke" />
    <path
       id="use141"
       d="m -25.846711,50.008039 h 6.680933 v 2.786592 h -6.680933 z"
       style="opacity:0.999;fill-rule:evenodd;stroke:#808080;stroke-width:0.211979;stroke-linejoin:round;paint-order:markers fill stroke" />
    <path
       id="use143"
       d="m -49.228086,47.222504 h 6.680933 v 2.786592 h -6.680933 z"
       style="opacity:0.999;fill-rule:evenodd;stroke:#808080;stroke-width:0.211979;stroke-linejoin:round;paint-order:markers fill stroke" />
    <path
       id="use145"
       d="m -42.547153,47.222504 h 6.680933 v 2.786592 h -6.680933 z"
       style="opacity:0.999;fill-rule:evenodd;stroke:#808080;stroke-width:0.211979;stroke-linejoin:round;paint-order:markers fill stroke" />
    <path
       id="use147"
       d="m -35.867165,47.222504 h 6.680933 v 2.786592 h -6.680933 z"
       style="opacity:0.999;fill-rule:evenodd;stroke:#808080;stroke-width:0.211979;stroke-linejoin:round;paint-order:markers fill stroke" />
    <path
       id="use149"
       d="m -29.187178,47.222504 h 6.680934 v 2.786592 h -6.680934 z"
       style="opacity:0.999;fill-rule:evenodd;stroke:#808080;stroke-width:0.211979;stroke-linejoin:round;paint-order:markers fill stroke" />
    <path
       d="m -38.866208,42.63245 -2.156361,2.330969 h 5.156349 5.156349 l -2.15636,-2.330969 h -2.999989 z m -4.403515,2.330969 h -9.399082 v -2.304541 l 0.375471,-0.445051 c 0.462483,1.223098 1.134927,1.086728 1.547283,0.576135 0.390604,-0.217769 0.781208,0.151169 1.171812,0.313967 0.611914,0.413338 0.998735,-0.292825 2.062729,-0.104656 0.621372,0.353081 1.080071,-0.508479 1.61727,-0.785446 0.568409,1.134299 1.110336,2.288684 2.625463,2.749592 z m 14.807007,0 h 9.399082 v -2.304541 l -0.375472,-0.445051 c -0.462482,1.223098 -1.134926,1.086728 -1.547283,0.576135 -0.390604,-0.217769 -0.781207,0.151169 -1.171811,0.313967 -0.611915,0.413338 -0.998736,-0.292825 -2.062729,-0.104656 -0.621372,0.353081 -1.080072,-0.508479 -1.61727,-0.785446 -0.568409,1.134299 -1.110336,2.288684 -2.625463,2.749592 z"
       id="path155"
       style="stroke-width:0.999901" />
    <path
       d="m -52.178895,45.713981 h 6.140897 m -6.140897,0.822446 h 6.140897 m -6.140897,0.822446 h 2.378616 m -2.378616,0.822447 h 2.355918 m -2.355918,0.822446 h 2.355918 m 30.268487,-3.288728 h -6.140898 m 6.140898,0.821389 h -6.140898 m 6.140898,0.822446 h -2.378617 m 2.378617,0.822447 h -2.355918 m 2.355918,0.822446 h -2.355918 M -32.87758,45.715038 h -6.007544 m 6.007544,0.821389 h -6.007544"
       class="l"
       stroke-width="0.30097"
       stroke-linecap="round"
       stroke-dasharray="0.902911, 0.902911"
       id="path157"
       style="fill:none;stroke:#000000" />
    <path
       id="use159"
       d="m -42.566069,29.895102 -1.851821,17.076862 h 2.410773 2.410773 l -1.851822,-17.076862 h -0.558951 z"
       style="fill:none;stroke:#000000;stroke-width:0.254975" />
    <path
       d="m -44.263729,45.549069 4.667385,1.422895"
       id="path161"
       style="fill:none;stroke:#000000;stroke-width:0.254975" />
    <path
       d="m -39.751451,45.549069 -4.666439,1.422895 m 0.308322,-2.846848 4.358117,1.422895 m -0.308322,-2.845791 -4.049795,1.422896 m 0.308321,-2.845791 3.741474,1.422895 m -0.308321,-2.845791 -3.432207,1.422896 m 0.308322,-2.845792 3.123885,1.422896 m -3.123885,-1.422896 2.815563,-1.422895 m -2.507242,-1.422896 2.506296,1.422896 m -0.308322,-2.846849 -2.197974,1.422896 m 0.308322,-2.845791 1.889652,1.422895 m -1.734545,-2.845791 1.580385,1.422896"
       id="path163"
       style="fill:none;stroke:#000000;stroke-width:0.254975" />
    <path
       d="m -42.875336,32.740894 1.580385,-1.422896"
       id="path165"
       style="fill:none;stroke:#000000;stroke-width:0.254975" />
    <path
       d="m -42.720229,31.317998 h 1.426224 m 0.154161,1.422896 h -1.734546 m -1.389339,12.808175 h 4.512278"
       id="path167"
       style="fill:none;stroke:#000000;stroke-width:0.254975" />
    <path
       id="use169"
       d="m -30.284273,29.895102 -1.851822,17.076862 h 2.410773 2.410773 l -1.851822,-17.076862 h -0.558951 z"
       style="fill:none;stroke:#000000;stroke-width:0.254975" />
    <path
       d="m -27.469656,45.549069 -4.666439,1.422895"
       id="path171"
       style="fill:none;stroke:#000000;stroke-width:0.254975" />
    <path
       d="m -28.858049,32.740894 -1.889653,1.427124 2.19892,1.423953 -2.508187,1.423952 2.816509,1.422896 -3.200492,1.40281 3.433152,1.442981 -3.665812,1.422896 v 0 l 4.050741,1.422895 -4.359063,1.422896 4.667385,1.418667 m -1.698607,-15.653966 -1.579439,1.422896"
       stroke-linejoin="bevel"
       id="path173"
       style="fill:none;stroke:#000000;stroke-width:0.254975" />
    <path
       d="m -30.438434,31.317998 1.580385,1.422896"
       id="path175"
       style="fill:none;stroke:#000000;stroke-width:0.254975" />
    <path
       d="m -30.43938,31.317998 h 1.426224 m 0.155107,1.422896 h -1.734546"
       id="path177"
       style="fill:none;stroke:#000000;stroke-width:0.254975" />
    <path
       d="m -31.981934,45.549069 h 4.512278 m -2.814617,-15.653967 h -11.163893 m 0.154161,1.422896 h 10.855571"
       id="path179"
       style="fill:none;stroke:#000000;stroke-width:0.254975" />
    <path
       id="use183"
       d="m -38.26186,29.835903 -0.79634,1.487381"
       style="fill:none;stroke:#000000;stroke-width:0.249975" />
    <path
       id="use185"
       d="m -38.26186,29.835903 0.79634,1.487381"
       style="fill:none;stroke:#000000;stroke-width:0.249975" />
    <path
       id="use187"
       d="m -36.668234,29.835903 -0.79634,1.487381"
       style="fill:none;stroke:#000000;stroke-width:0.249975" />
    <path
       id="use189"
       d="m -36.668234,29.835903 0.79634,1.487381"
       style="fill:none;stroke:#000000;stroke-width:0.249975" />
    <path
       id="use191"
       d="m -35.064205,29.835903 -0.79634,1.487381"
       style="fill:none;stroke:#000000;stroke-width:0.249975" />
    <path
       id="use193"
       d="m -35.064205,29.835903 0.79634,1.487381"
       style="fill:none;stroke:#000000;stroke-width:0.249975" />
    <path
       id="use195"
       d="m -33.470579,29.835903 -0.79634,1.487381"
       style="fill:none;stroke:#000000;stroke-width:0.249975" />
    <path
       id="use197"
       d="m -33.470579,29.835903 0.79634,1.487381"
       style="fill:none;stroke:#000000;stroke-width:0.249975" />
    <path
       id="use199"
       d="m -31.876953,29.835903 -0.79634,1.487381"
       style="fill:none;stroke:#000000;stroke-width:0.249975" />
    <path
       id="use201"
       d="m -31.876953,29.835903 0.79634,1.487381"
       style="fill:none;stroke:#000000;stroke-width:0.249975" />
    <path
       id="use203"
       d="m -39.855486,29.835903 -0.79634,1.487381"
       style="fill:none;stroke:#000000;stroke-width:0.249975" />
    <path
       id="use205"
       d="m -39.855486,29.835903 0.79634,1.487381"
       style="fill:none;stroke:#000000;stroke-width:0.249975" />
    <path
       id="use207"
       d="m -41.449112,29.835903 0.79634,1.487381"
       style="fill:none;stroke:#000000;stroke-width:0.249975" />
    <path
       id="use209"
       d="m -30.284273,29.835903 -0.79634,1.487381"
       style="fill:none;stroke:#000000;stroke-width:0.249975" />
    <path
       id="use215"
       d="m -35.449739,47.04446 c 0,0 -0.181588,-0.196544 -0.181588,-0.405373 v -0.983745 c 0,-0.277415 0.113492,-0.474983 0.113492,-0.474983 h -0.696088 a 0.8984834,0.97248536 0 0 0 0.113493,0.474983 v 0.983745 c 0,0.208829 -0.181588,0.405373 -0.181588,0.405373 z"
       style="fill:#ffffff;stroke-width:0.98395" />
    <path
       id="use217"
       d="m -35.449739,47.149898 h -0.832279 c -0.03972,0 -0.07472,-0.02559 -0.08985,-0.06551 -0.01513,-0.03992 -0.0066,-0.08496 0.02081,-0.114651 0.04256,-0.04606 0.153215,-0.196544 0.153215,-0.330645 v -0.983745 a 0.78499076,0.8496451 0 0 0 -0.09931,-0.418681 c -0.01891,-0.03276 -0.01986,-0.0737 -0.0028,-0.107485 0.01702,-0.03378 0.05013,-0.05425 0.08512,-0.05425 h 0.696089 c 0.03499,0 0.06809,0.02047 0.08512,0.05425 0.01702,0.03378 0.01608,0.07473 -0.0028,0.107485 a 0.81336392,0.88035517 0 0 0 -0.09836,0.418681 v 0.983745 c 0,0.160716 0.151324,0.328598 0.153215,0.330645 0.02743,0.02969 0.03594,0.07575 0.02081,0.114651 -0.01513,0.0389 -0.05107,0.06449 -0.08985,0.06449 z m -0.63745,-0.210876 h 0.441675 c -0.04445,-0.08292 -0.08417,-0.188355 -0.08417,-0.299935 v -0.983745 a 1.0214338,1.1055623 0 0 1 0.05958,-0.369545 h -0.393441 a 1.0214338,1.1055623 0 0 1 0.05958,0.369545 v 0.983745 a 0.5674632,0.61420128 0 0 1 -0.08417,0.299935 z"
       style="fill:#a07843;stroke-width:0.98395" />
    <path
       id="use219"
       d="m -35.449739,47.04446 c 0,0 -0.181588,-0.196544 -0.181588,-0.405373 v -0.983745 c 0,-0.277415 0.113492,-0.474983 0.113492,-0.474983 h -0.696088 a 0.8984834,0.97248536 0 0 0 0.113493,0.474983 v 0.983745 c 0,0.208829 -0.181588,0.405373 -0.181588,0.405373 z"
       style="fill:url(#linearGradient1368);stroke-width:0.98395" />
    <path
       id="use221"
       d="m -35.449739,45.04114 c 0,0 -0.181588,-0.196544 -0.181588,-0.405373 v -0.983745 c 0,-0.277415 0.113492,-0.474983 0.113492,-0.474983 h -0.696088 a 0.8984834,0.97248536 0 0 0 0.113493,0.474983 v 0.983745 c 0,0.208829 -0.181588,0.405373 -0.181588,0.405373 z"
       style="fill:#ffffff;stroke-width:0.98395" />
    <path
       id="use223"
       d="m -35.449739,45.147602 h -0.832279 c -0.03972,0 -0.07472,-0.02559 -0.08985,-0.06551 -0.01513,-0.03992 -0.0066,-0.08497 0.02081,-0.114651 0.04256,-0.04606 0.153215,-0.196544 0.153215,-0.330645 V 43.65305 a 0.78499076,0.8496451 0 0 0 -0.09931,-0.41868 c -0.01891,-0.03276 -0.01986,-0.0737 -0.0028,-0.107485 0.01702,-0.03378 0.05013,-0.05425 0.08512,-0.05425 h 0.696089 c 0.03499,0 0.06809,0.02047 0.08512,0.05425 0.01702,0.03378 0.01608,0.07473 -0.0028,0.107485 a 0.81336392,0.88035517 0 0 0 -0.09836,0.41868 v 0.983746 c 0,0.160716 0.151324,0.328598 0.153215,0.330645 0.02743,0.02969 0.03594,0.07575 0.02081,0.114651 -0.01513,0.0389 -0.05107,0.06449 -0.08985,0.06449 z m -0.63745,-0.210876 h 0.441675 c -0.04445,-0.08292 -0.08417,-0.188355 -0.08417,-0.299935 v -0.983746 a 1.0214338,1.1055623 0 0 1 0.05958,-0.369544 h -0.393441 a 1.0214338,1.1055623 0 0 1 0.05958,0.369544 v 0.983746 a 0.5674632,0.61420128 0 0 1 -0.08417,0.299935 z"
       style="fill:#a07843;stroke-width:0.98395" />
    <path
       id="use225"
       d="m -35.449739,45.04114 c 0,0 -0.181588,-0.196544 -0.181588,-0.405373 v -0.983745 c 0,-0.277415 0.113492,-0.474983 0.113492,-0.474983 h -0.696088 a 0.8984834,0.97248536 0 0 0 0.113493,0.474983 v 0.983745 c 0,0.208829 -0.181588,0.405373 -0.181588,0.405373 z"
       style="fill:url(#linearGradient1370);stroke-width:0.98395" />
    <path
       id="use227"
       d="m -35.449739,43.013252 c 0,0 -0.181588,-0.196544 -0.181588,-0.405372 v -0.983746 c 0,-0.277414 0.113492,-0.474983 0.113492,-0.474983 h -0.696088 a 0.8984834,0.97248536 0 0 0 0.113493,0.474983 v 0.983746 c 0,0.208828 -0.181588,0.405372 -0.181588,0.405372 z"
       style="fill:#ffffff;stroke-width:0.98395" />
    <path
       id="use229"
       d="m -35.449739,43.11869 h -0.832279 c -0.03972,0 -0.07472,-0.02559 -0.08985,-0.06551 -0.01513,-0.03992 -0.0066,-0.08496 0.02081,-0.11465 0.04256,-0.04607 0.153215,-0.196545 0.153215,-0.330645 v -0.983746 a 0.78499076,0.8496451 0 0 0 -0.09931,-0.418681 c -0.01891,-0.03276 -0.01986,-0.0737 -0.0028,-0.107485 0.01702,-0.03378 0.05013,-0.05425 0.08512,-0.05425 h 0.696089 c 0.03499,0 0.06809,0.02047 0.08512,0.05425 0.01702,0.03378 0.01608,0.07473 -0.0028,0.107485 a 0.81336392,0.88035517 0 0 0 -0.09836,0.418681 v 0.983746 c 0,0.160716 0.151324,0.328597 0.153215,0.330645 0.02743,0.02969 0.03594,0.07575 0.02081,0.11465 -0.01513,0.0389 -0.05107,0.06449 -0.08985,0.06449 z m -0.63745,-0.210876 h 0.441675 c -0.04445,-0.08292 -0.08417,-0.188355 -0.08417,-0.299934 v -0.983746 a 1.0214338,1.1055623 0 0 1 0.05958,-0.369545 h -0.393441 a 1.0214338,1.1055623 0 0 1 0.05958,0.369545 v 0.983746 a 0.5674632,0.61420128 0 0 1 -0.08417,0.299934 z"
       style="fill:#a07843;stroke-width:0.98395" />
    <path
       id="use231"
       d="m -35.449739,43.013252 c 0,0 -0.181588,-0.196544 -0.181588,-0.405372 v -0.983746 c 0,-0.277414 0.113492,-0.474983 0.113492,-0.474983 h -0.696088 a 0.8984834,0.97248536 0 0 0 0.113493,0.474983 v 0.983746 c 0,0.208828 -0.181588,0.405372 -0.181588,0.405372 z"
       style="fill:url(#linearGradient1372);stroke-width:0.98395" />
    <path
       id="use233"
       d="m -35.449739,41.041666 c 0,0 -0.181588,-0.196544 -0.181588,-0.405373 v -0.983745 c 0,-0.277415 0.113492,-0.474983 0.113492,-0.474983 h -0.696088 a 0.8984834,0.97248536 0 0 0 0.113493,0.474983 v 0.983745 c 0,0.208829 -0.181588,0.405373 -0.181588,0.405373 z"
       style="fill:#ffffff;stroke-width:0.98395" />
    <path
       id="use235"
       d="m -35.449739,41.147104 h -0.832279 c -0.03972,0 -0.07472,-0.02559 -0.08985,-0.06551 -0.01513,-0.03992 -0.0066,-0.08496 0.02081,-0.114651 0.04256,-0.04606 0.153215,-0.196544 0.153215,-0.330645 v -0.983745 a 0.78499076,0.8496451 0 0 0 -0.09931,-0.418681 c -0.01891,-0.03276 -0.01986,-0.0737 -0.0028,-0.107485 0.01702,-0.03378 0.05013,-0.05425 0.08512,-0.05425 h 0.696089 c 0.03499,0 0.06809,0.02047 0.08512,0.05425 0.01702,0.03378 0.01608,0.07473 -0.0028,0.107485 a 0.81336392,0.88035517 0 0 0 -0.09836,0.418681 v 0.983745 c 0,0.160716 0.151324,0.328598 0.153215,0.330645 0.02743,0.02969 0.03594,0.07575 0.02081,0.114651 -0.01513,0.0389 -0.05107,0.06449 -0.08985,0.06449 z m -0.63745,-0.210876 h 0.441675 c -0.04445,-0.08292 -0.08417,-0.188355 -0.08417,-0.299935 v -0.983745 a 1.0214338,1.1055623 0 0 1 0.05958,-0.369545 h -0.393441 a 1.0214338,1.1055623 0 0 1 0.05958,0.369545 v 0.983745 a 0.5674632,0.61420128 0 0 1 -0.08417,0.299935 z"
       style="fill:#a07843;stroke-width:0.98395" />
    <path
       id="use237"
       d="m -35.449739,41.041666 c 0,0 -0.181588,-0.196544 -0.181588,-0.405373 v -0.983745 c 0,-0.277415 0.113492,-0.474983 0.113492,-0.474983 h -0.696088 a 0.8984834,0.97248536 0 0 0 0.113493,0.474983 v 0.983745 c 0,0.208829 -0.181588,0.405373 -0.181588,0.405373 z"
       style="fill:url(#linearGradient1374);stroke-width:0.98395" />
    <path
       id="use239"
       d="m -35.449739,39.015826 c 0,0 -0.181588,-0.196545 -0.181588,-0.405373 v -0.983746 c 0,-0.277414 0.113492,-0.474982 0.113492,-0.474982 h -0.696088 a 0.8984834,0.97248536 0 0 0 0.113493,0.474982 v 0.983746 c 0,0.208828 -0.181588,0.405373 -0.181588,0.405373 z"
       style="fill:#ffffff;stroke-width:0.98395" />
    <path
       id="use241"
       d="m -35.449739,39.121264 h -0.832279 c -0.03972,0 -0.07472,-0.02559 -0.08985,-0.06551 -0.01513,-0.03992 -0.0066,-0.08496 0.02081,-0.114651 0.04256,-0.04606 0.153215,-0.196545 0.153215,-0.330645 v -0.983746 a 0.78499076,0.8496451 0 0 0 -0.09931,-0.41868 c -0.01891,-0.03276 -0.01986,-0.07371 -0.0028,-0.107486 0.01702,-0.03378 0.05013,-0.05425 0.08512,-0.05425 h 0.696089 c 0.03499,0 0.06809,0.02047 0.08512,0.05425 0.01702,0.03378 0.01608,0.07473 -0.0028,0.107486 a 0.81336392,0.88035517 0 0 0 -0.09836,0.41868 v 0.983746 c 0,0.160716 0.151324,0.328598 0.153215,0.330645 0.02743,0.02969 0.03594,0.07575 0.02081,0.114651 -0.01513,0.0389 -0.05107,0.06449 -0.08985,0.06449 z m -0.63745,-0.210876 h 0.441675 c -0.04445,-0.08292 -0.08417,-0.188355 -0.08417,-0.299935 v -0.983746 a 1.0214338,1.1055623 0 0 1 0.05958,-0.369544 h -0.393441 a 1.0214338,1.1055623 0 0 1 0.05958,0.369544 v 0.983746 a 0.5674632,0.61420128 0 0 1 -0.08417,0.299935 z"
       style="fill:#a07843;stroke-width:0.98395" />
    <path
       id="use243"
       d="m -35.449739,39.015826 c 0,0 -0.181588,-0.196545 -0.181588,-0.405373 v -0.983746 c 0,-0.277414 0.113492,-0.474982 0.113492,-0.474982 h -0.696088 a 0.8984834,0.97248536 0 0 0 0.113493,0.474982 v 0.983746 c 0,0.208828 -0.181588,0.405373 -0.181588,0.405373 z"
       style="fill:url(#linearGradient1376);stroke-width:0.98395" />
    <path
       id="use245"
       d="m -35.449739,36.989985 c 0,0 -0.181588,-0.196544 -0.181588,-0.405373 v -0.983745 c 0,-0.277415 0.113492,-0.474983 0.113492,-0.474983 h -0.696088 a 0.8984834,0.97248536 0 0 0 0.113493,0.474983 v 0.983745 c 0,0.208829 -0.181588,0.405373 -0.181588,0.405373 z"
       style="fill:#ffffff;stroke-width:0.98395" />
    <path
       id="use247"
       d="m -35.449739,37.095423 h -0.832279 c -0.03972,0 -0.07472,-0.02559 -0.08985,-0.06551 -0.01513,-0.03992 -0.0066,-0.08496 0.02081,-0.114651 0.04256,-0.04606 0.153215,-0.196544 0.153215,-0.330645 v -0.983745 a 0.78499076,0.8496451 0 0 0 -0.09931,-0.418681 c -0.01891,-0.03276 -0.01986,-0.0737 -0.0028,-0.107485 0.01702,-0.03378 0.05013,-0.05425 0.08512,-0.05425 h 0.696089 c 0.03499,0 0.06809,0.02047 0.08512,0.05425 0.01702,0.03378 0.01608,0.07473 -0.0028,0.107485 a 0.81336392,0.88035517 0 0 0 -0.09836,0.418681 v 0.983745 c 0,0.160716 0.151324,0.328598 0.153215,0.330645 0.02743,0.02969 0.03594,0.07575 0.02081,0.114651 -0.01513,0.0389 -0.05107,0.06449 -0.08985,0.06449 z m -0.63745,-0.210876 h 0.441675 c -0.04445,-0.08292 -0.08417,-0.188355 -0.08417,-0.299935 v -0.983745 a 1.0214338,1.1055623 0 0 1 0.05958,-0.369545 h -0.393441 a 1.0214338,1.1055623 0 0 1 0.05958,0.369545 v 0.983745 a 0.5674632,0.61420128 0 0 1 -0.08417,0.299935 z"
       style="fill:#a07843;stroke-width:0.98395" />
    <path
       id="use249"
       d="m -35.449739,36.989985 c 0,0 -0.181588,-0.196544 -0.181588,-0.405373 v -0.983745 c 0,-0.277415 0.113492,-0.474983 0.113492,-0.474983 h -0.696088 a 0.8984834,0.97248536 0 0 0 0.113493,0.474983 v 0.983745 c 0,0.208829 -0.181588,0.405373 -0.181588,0.405373 z"
       style="fill:url(#linearGradient2047);stroke-width:0.98395" />
    <path
       id="use251"
       d="m -35.449739,34.999973 c 0,0 -0.181588,-0.196544 -0.181588,-0.405373 v -0.983746 c 0,-0.277414 0.113492,-0.474982 0.113492,-0.474982 h -0.696088 a 0.8984834,0.97248536 0 0 0 0.113493,0.474982 V 34.5946 c 0,0.208829 -0.181588,0.405373 -0.181588,0.405373 z"
       style="fill:#ffffff;stroke-width:0.98395" />
    <path
       id="use253"
       d="m -35.449739,35.105411 h -0.832279 c -0.03972,0 -0.07472,-0.02559 -0.08985,-0.06551 -0.01513,-0.03992 -0.0066,-0.08496 0.02081,-0.114651 0.04256,-0.04606 0.153215,-0.196544 0.153215,-0.330645 v -0.983746 a 0.78499076,0.8496451 0 0 0 -0.09931,-0.41868 c -0.01891,-0.03276 -0.01986,-0.0737 -0.0028,-0.107485 0.01702,-0.03378 0.05013,-0.05425 0.08512,-0.05425 h 0.696089 c 0.03499,0 0.06809,0.02047 0.08512,0.05425 0.01702,0.03378 0.01608,0.07473 -0.0028,0.107485 a 0.81336392,0.88035517 0 0 0 -0.09836,0.41868 V 34.5946 c 0,0.160716 0.151324,0.328598 0.153215,0.330645 0.02743,0.02969 0.03594,0.07575 0.02081,0.114651 -0.01513,0.0389 -0.05107,0.06449 -0.08985,0.06449 z m -0.63745,-0.210876 h 0.441675 c -0.04445,-0.08292 -0.08417,-0.188355 -0.08417,-0.299935 v -0.983746 a 1.0214338,1.1055623 0 0 1 0.05958,-0.369544 h -0.393441 a 1.0214338,1.1055623 0 0 1 0.05958,0.369544 V 34.5946 a 0.5674632,0.61420128 0 0 1 -0.08417,0.299935 z"
       style="fill:#a07843;stroke-width:0.98395" />
    <path
       id="use255"
       d="m -35.449739,34.999973 c 0,0 -0.181588,-0.196544 -0.181588,-0.405373 v -0.983746 c 0,-0.277414 0.113492,-0.474982 0.113492,-0.474982 h -0.696088 a 0.8984834,0.97248536 0 0 0 0.113493,0.474982 V 34.5946 c 0,0.208829 -0.181588,0.405373 -0.181588,0.405373 z"
       style="fill:url(#F);stroke-width:0.98395" />
    <path
       id="use257"
       d="m -35.449739,32.9987 c 0,0 -0.181588,-0.196544 -0.181588,-0.405372 v -0.983746 c 0,-0.277414 0.113492,-0.474982 0.113492,-0.474982 h -0.696088 a 0.8984834,0.97248536 0 0 0 0.113493,0.474982 v 0.983746 c 0,0.208828 -0.181588,0.405372 -0.181588,0.405372 z"
       style="fill:#ffffff;stroke-width:0.98395" />
    <path
       id="use259"
       d="m -35.449739,33.104138 h -0.832279 c -0.03972,0 -0.07472,-0.02559 -0.08985,-0.06551 -0.01513,-0.03992 -0.0066,-0.08496 0.02081,-0.114651 0.04256,-0.04606 0.153215,-0.196545 0.153215,-0.330645 v -0.983746 a 0.78499076,0.8496451 0 0 0 -0.09931,-0.418681 c -0.01891,-0.03276 -0.01986,-0.0737 -0.0028,-0.107485 0.01702,-0.03378 0.05013,-0.05425 0.08512,-0.05425 h 0.696089 c 0.03499,0 0.06809,0.02047 0.08512,0.05425 0.01702,0.03378 0.01608,0.07473 -0.0028,0.107485 a 0.81336392,0.88035517 0 0 0 -0.09836,0.418681 v 0.983746 c 0,0.160716 0.151324,0.328597 0.153215,0.330645 0.02743,0.02969 0.03594,0.07575 0.02081,0.114651 -0.01513,0.0389 -0.05107,0.06449 -0.08985,0.06449 z m -0.63745,-0.210875 h 0.441675 c -0.04445,-0.08292 -0.08417,-0.188355 -0.08417,-0.299935 v -0.983746 a 1.0214338,1.1055623 0 0 1 0.05958,-0.369545 h -0.393441 a 1.0214338,1.1055623 0 0 1 0.05958,0.369545 v 0.983746 a 0.5674632,0.61420128 0 0 1 -0.08417,0.299935 z"
       style="fill:#a07843;stroke-width:0.98395" />
    <path
       id="use261"
       d="m -35.449739,32.9987 c 0,0 -0.181588,-0.196544 -0.181588,-0.405372 v -0.983746 c 0,-0.277414 0.113492,-0.474982 0.113492,-0.474982 h -0.696088 a 0.8984834,0.97248536 0 0 0 0.113493,0.474982 v 0.983746 c 0,0.208828 -0.181588,0.405372 -0.181588,0.405372 z"
       style="fill:url(#linearGradient1378);stroke-width:0.98395" />
    <path
       id="use263"
       d="m -35.449739,30.995381 c 0,0 -0.181588,-0.196545 -0.181588,-0.405373 v -0.983746 c 0,-0.277414 0.113492,-0.474982 0.113492,-0.474982 h -0.696088 a 0.8984834,0.97248536 0 0 0 0.113493,0.474982 v 0.983746 c 0,0.208828 -0.181588,0.405373 -0.181588,0.405373 z"
       style="fill:#ffffff;stroke-width:0.98395" />
    <path
       id="use265"
       d="m -35.449739,31.100819 h -0.832279 c -0.03972,0 -0.07472,-0.02559 -0.08985,-0.06552 -0.01513,-0.03992 -0.0066,-0.08497 0.02081,-0.114651 0.04256,-0.04607 0.153215,-0.196545 0.153215,-0.330645 v -0.983746 a 0.78499076,0.8496451 0 0 0 -0.09931,-0.41868 c -0.01891,-0.03276 -0.01986,-0.07371 -0.0028,-0.107486 0.01702,-0.03378 0.05013,-0.05425 0.08512,-0.05425 h 0.696089 c 0.03499,0 0.06809,0.02047 0.08512,0.05425 0.01702,0.03378 0.01608,0.07473 -0.0028,0.107486 a 0.81336392,0.88035517 0 0 0 -0.09836,0.41868 v 0.983746 c 0,0.160716 0.151324,0.328597 0.153215,0.330645 0.02743,0.02969 0.03594,0.07575 0.02081,0.114651 -0.01513,0.0389 -0.05107,0.06449 -0.08985,0.06449 z m -0.63745,-0.210876 h 0.441675 c -0.04445,-0.08292 -0.08417,-0.188355 -0.08417,-0.299935 v -0.983746 a 1.0214338,1.1055623 0 0 1 0.05958,-0.369544 h -0.393441 a 1.0214338,1.1055623 0 0 1 0.05958,0.369544 v 0.983746 a 0.5674632,0.61420128 0 0 1 -0.08417,0.299935 z"
       style="fill:#a07843;stroke-width:0.98395" />
    <path
       id="use267"
       d="m -35.449739,30.995381 c 0,0 -0.181588,-0.196545 -0.181588,-0.405373 v -0.983746 c 0,-0.277414 0.113492,-0.474982 0.113492,-0.474982 h -0.696088 a 0.8984834,0.97248536 0 0 0 0.113493,0.474982 v 0.983746 c 0,0.208828 -0.181588,0.405373 -0.181588,0.405373 z"
       style="fill:url(#linearGradient1380);stroke-width:0.98395" />
    <path
       id="use269"
       d="m -35.449739,28.967493 c 0,0 -0.181588,-0.196545 -0.181588,-0.405373 v -0.983746 c 0,-0.277414 0.113492,-0.474982 0.113492,-0.474982 h -0.696088 a 0.8984834,0.97248536 0 0 0 0.113493,0.474982 v 0.983746 c 0,0.208828 -0.181588,0.405373 -0.181588,0.405373 z"
       style="fill:#ffffff;stroke-width:0.98395" />
    <path
       id="use271"
       d="m -35.449739,29.072931 h -0.832279 c -0.03972,0 -0.07472,-0.02559 -0.08985,-0.06552 -0.01513,-0.03992 -0.0066,-0.08497 0.02081,-0.114651 0.04256,-0.04607 0.153215,-0.196544 0.153215,-0.330645 v -0.983746 a 0.78499076,0.8496451 0 0 0 -0.09931,-0.41868 c -0.01891,-0.03276 -0.01986,-0.0737 -0.0028,-0.107486 0.01702,-0.03378 0.05013,-0.05425 0.08512,-0.05425 h 0.696089 c 0.03499,0 0.06809,0.02047 0.08512,0.05425 0.01702,0.03378 0.01608,0.07473 -0.0028,0.107486 a 0.81336392,0.88035517 0 0 0 -0.09836,0.41868 v 0.983746 c 0,0.160716 0.151324,0.328598 0.153215,0.330645 0.02743,0.02969 0.03594,0.07575 0.02081,0.114651 -0.01513,0.0389 -0.05107,0.06449 -0.08985,0.06449 z m -0.63745,-0.210876 h 0.441675 c -0.04445,-0.08292 -0.08417,-0.188355 -0.08417,-0.299935 v -0.983746 a 1.0214338,1.1055623 0 0 1 0.05958,-0.369544 h -0.393441 a 1.0214338,1.1055623 0 0 1 0.05958,0.369544 v 0.983746 a 0.5674632,0.61420128 0 0 1 -0.08417,0.299935 z"
       style="fill:#a07843;stroke-width:0.98395" />
    <path
       id="use273"
       d="m -35.449739,28.967493 c 0,0 -0.181588,-0.196545 -0.181588,-0.405373 v -0.983746 c 0,-0.277414 0.113492,-0.474982 0.113492,-0.474982 h -0.696088 a 0.8984834,0.97248536 0 0 0 0.113493,0.474982 v 0.983746 c 0,0.208828 -0.181588,0.405373 -0.181588,0.405373 z"
       style="fill:url(#linearGradient1382);stroke-width:0.98395" />
    <path
       id="use275"
       d="m -35.449739,26.994883 c 0,0 -0.181588,-0.196544 -0.181588,-0.405373 v -0.983746 c 0,-0.277414 0.113492,-0.474982 0.113492,-0.474982 h -0.696088 a 0.8984834,0.97248536 0 0 0 0.113493,0.474982 v 0.983746 c 0,0.208829 -0.181588,0.405373 -0.181588,0.405373 z"
       style="fill:#ffffff;stroke-width:0.98395" />
    <path
       id="use277"
       d="m -35.449739,27.101345 h -0.832279 c -0.03972,0 -0.07472,-0.02559 -0.08985,-0.06551 -0.01513,-0.03992 -0.0066,-0.08497 0.02081,-0.114651 0.04256,-0.04606 0.153215,-0.196545 0.153215,-0.330645 v -0.983746 a 0.78499076,0.8496451 0 0 0 -0.09931,-0.41868 c -0.01891,-0.03276 -0.01986,-0.07371 -0.0028,-0.107486 0.01702,-0.03378 0.05013,-0.05425 0.08512,-0.05425 h 0.696089 c 0.03499,0 0.06809,0.02047 0.08512,0.05425 0.01702,0.03378 0.01608,0.07473 -0.0028,0.107486 a 0.81336392,0.88035517 0 0 0 -0.09836,0.41868 v 0.983746 c 0,0.160716 0.151324,0.328597 0.153215,0.330645 0.02743,0.02969 0.03594,0.07575 0.02081,0.114651 -0.01513,0.0389 -0.05107,0.06449 -0.08985,0.06449 z m -0.63745,-0.210876 h 0.441675 c -0.04445,-0.08292 -0.08417,-0.188355 -0.08417,-0.299935 v -0.983746 a 1.0214338,1.1055623 0 0 1 0.05958,-0.369544 h -0.393441 a 1.0214338,1.1055623 0 0 1 0.05958,0.369544 v 0.983746 a 0.5674632,0.61420128 0 0 1 -0.08417,0.299935 z"
       style="fill:#a07843;stroke-width:0.98395" />
    <path
       id="use279"
       d="m -35.449739,26.994883 c 0,0 -0.181588,-0.196544 -0.181588,-0.405373 v -0.983746 c 0,-0.277414 0.113492,-0.474982 0.113492,-0.474982 h -0.696088 a 0.8984834,0.97248536 0 0 0 0.113493,0.474982 v 0.983746 c 0,0.208829 -0.181588,0.405373 -0.181588,0.405373 z"
       style="fill:url(#linearGradient1384);stroke-width:0.98395" />
    <path
       id="use281"
       d="m -35.449739,24.969042 c 0,0 -0.181588,-0.196544 -0.181588,-0.405372 v -0.983746 c 0,-0.277414 0.113492,-0.474982 0.113492,-0.474982 h -0.696088 a 0.8984834,0.97248536 0 0 0 0.113493,0.474982 v 0.983746 c 0,0.208828 -0.181588,0.405372 -0.181588,0.405372 z"
       style="fill:#ffffff;stroke-width:0.98395" />
    <path
       id="use283"
       d="m -35.449739,25.075504 h -0.832279 c -0.03972,0 -0.07472,-0.02559 -0.08985,-0.06551 -0.01513,-0.03992 -0.0066,-0.08496 0.02081,-0.114651 0.04256,-0.04606 0.153215,-0.196544 0.153215,-0.330645 v -0.983745 a 0.78499076,0.8496451 0 0 0 -0.09931,-0.418681 c -0.01891,-0.03276 -0.01986,-0.0737 -0.0028,-0.107485 0.01702,-0.03378 0.05013,-0.05425 0.08512,-0.05425 h 0.696089 c 0.03499,0 0.06809,0.02047 0.08512,0.05425 0.01702,0.03378 0.01608,0.07473 -0.0028,0.107485 a 0.81336392,0.88035517 0 0 0 -0.09836,0.418681 v 0.983745 c 0,0.160716 0.151324,0.328598 0.153215,0.330645 0.02743,0.02969 0.03594,0.07575 0.02081,0.114651 -0.01513,0.0389 -0.05107,0.06449 -0.08985,0.06449 z m -0.63745,-0.210876 h 0.441675 c -0.04445,-0.08292 -0.08417,-0.188355 -0.08417,-0.299935 v -0.983745 a 1.0214338,1.1055623 0 0 1 0.05958,-0.369545 h -0.393441 a 1.0214338,1.1055623 0 0 1 0.05958,0.369545 v 0.983745 a 0.5674632,0.61420128 0 0 1 -0.08417,0.299935 z"
       style="fill:#a07843;stroke-width:0.98395" />
    <path
       id="use285"
       d="m -35.449739,24.969042 c 0,0 -0.181588,-0.196544 -0.181588,-0.405372 v -0.983746 c 0,-0.277414 0.113492,-0.474982 0.113492,-0.474982 h -0.696088 a 0.8984834,0.97248536 0 0 0 0.113493,0.474982 v 0.983746 c 0,0.208828 -0.181588,0.405372 -0.181588,0.405372 z"
       style="fill:url(#linearGradient1386);stroke-width:0.98395" />
    <path
       id="use287"
       d="m -35.449739,22.943202 c 0,0 -0.181588,-0.196545 -0.181588,-0.405373 v -0.983746 c 0,-0.277414 0.113492,-0.474982 0.113492,-0.474982 h -0.696088 a 0.8984834,0.97248536 0 0 0 0.113493,0.474982 v 0.983746 c 0,0.208828 -0.181588,0.405373 -0.181588,0.405373 z"
       style="fill:#ffffff;stroke-width:0.98395" />
    <path
       id="use289"
       d="m -35.449739,23.049663 h -0.832279 c -0.03972,0 -0.07472,-0.02559 -0.08985,-0.06551 -0.01513,-0.03992 -0.0066,-0.08496 0.02081,-0.114651 0.04256,-0.04606 0.153215,-0.196545 0.153215,-0.330645 v -0.983746 a 0.78499076,0.8496451 0 0 0 -0.09931,-0.418681 c -0.01891,-0.03276 -0.01986,-0.0737 -0.0028,-0.107485 0.01702,-0.03378 0.05013,-0.05425 0.08512,-0.05425 h 0.696089 c 0.03499,0 0.06809,0.02047 0.08512,0.05425 0.01702,0.03378 0.01608,0.07473 -0.0028,0.107485 a 0.81336392,0.88035517 0 0 0 -0.09836,0.418681 v 0.983746 c 0,0.160716 0.151324,0.328597 0.153215,0.330645 0.02743,0.02969 0.03594,0.07575 0.02081,0.114651 -0.01513,0.0389 -0.05107,0.06449 -0.08985,0.06449 z m -0.63745,-0.210875 h 0.441675 c -0.04445,-0.08292 -0.08417,-0.188355 -0.08417,-0.299935 v -0.983746 a 1.0214338,1.1055623 0 0 1 0.05958,-0.369544 h -0.393441 a 1.0214338,1.1055623 0 0 1 0.05958,0.369544 v 0.983746 a 0.5674632,0.61420128 0 0 1 -0.08417,0.299935 z"
       style="fill:#a07843;stroke-width:0.98395" />
    <path
       id="use291"
       d="m -35.449739,22.943202 c 0,0 -0.181588,-0.196545 -0.181588,-0.405373 v -0.983746 c 0,-0.277414 0.113492,-0.474982 0.113492,-0.474982 h -0.696088 a 0.8984834,0.97248536 0 0 0 0.113493,0.474982 v 0.983746 c 0,0.208828 -0.181588,0.405373 -0.181588,0.405373 z"
       style="fill:url(#linearGradient2091);stroke-width:0.98395" />
    <path
       id="use293"
       d="m -35.449739,20.95319 c 0,0 -0.181588,-0.196545 -0.181588,-0.405373 v -0.983746 c 0,-0.277414 0.113492,-0.474982 0.113492,-0.474982 h -0.696088 a 0.8984834,0.97248536 0 0 0 0.113493,0.474982 v 0.983746 c 0,0.208828 -0.181588,0.405373 -0.181588,0.405373 z"
       style="fill:#ffffff;stroke-width:0.98395" />
    <path
       id="use295"
       d="m -35.449739,21.059651 h -0.832279 c -0.03972,0 -0.07472,-0.02559 -0.08985,-0.06551 -0.01513,-0.03992 -0.0066,-0.08496 0.02081,-0.11465 0.04256,-0.04607 0.153215,-0.196545 0.153215,-0.330645 V 19.5651 a 0.78499076,0.8496451 0 0 0 -0.09931,-0.418681 c -0.01891,-0.03276 -0.01986,-0.0737 -0.0028,-0.107485 0.01702,-0.03378 0.05013,-0.05425 0.08512,-0.05425 h 0.696089 c 0.03499,0 0.06809,0.02047 0.08512,0.05425 0.01702,0.03378 0.01608,0.07473 -0.0028,0.107485 a 0.81336392,0.88035517 0 0 0 -0.09836,0.418681 v 0.983746 c 0,0.160716 0.151324,0.328597 0.153215,0.330645 0.02743,0.02969 0.03594,0.07575 0.02081,0.11465 -0.01513,0.0389 -0.05107,0.06449 -0.08985,0.06449 z m -0.63745,-0.210876 h 0.441675 c -0.04445,-0.08292 -0.08417,-0.188355 -0.08417,-0.299934 v -0.983746 a 1.0214338,1.1055623 0 0 1 0.05958,-0.369545 h -0.393441 a 1.0214338,1.1055623 0 0 1 0.05958,0.369545 v 0.983746 a 0.5674632,0.61420128 0 0 1 -0.08417,0.299934 z"
       style="fill:#a07843;stroke-width:0.98395" />
    <path
       id="use297"
       d="m -35.449739,20.95319 c 0,0 -0.181588,-0.196545 -0.181588,-0.405373 v -0.983746 c 0,-0.277414 0.113492,-0.474982 0.113492,-0.474982 h -0.696088 a 0.8984834,0.97248536 0 0 0 0.113493,0.474982 v 0.983746 c 0,0.208828 -0.181588,0.405373 -0.181588,0.405373 z"
       style="fill:url(#D);stroke-width:0.98395" />
    <path
       d="m -35.866825,16.281165 c -0.104034,0.666409 -0.715949,0.931539 -0.287514,2.016628 v 0.509787 l -0.08701,0.222136 h 0.375471 0.375472 l -0.08701,-0.222136 v -0.509787 c 0.428434,-1.085089 -0.184426,-1.350219 -0.288461,-2.016628 z"
       fill="url(#E)"
       stroke="#a07843"
       stroke-width="0.109218"
       class="l r"
       id="path299"
       style="fill:url(#E)" />
    <path
       d="m -35.87912,16.87387 a 0.1484862,0.15662133 0 0 0 -0.125787,0.08804 c -0.191046,0.41561 -0.107818,0.898781 -0.0066,1.183361 a 0.1484862,0.15662133 0 0 0 0.279949,-0.01024 c 0.11633,-0.408444 0.150378,-0.78106 -0.0047,-1.165959 a 0.1484862,0.15662133 0 0 0 -0.142812,-0.0952 z"
       class="l"
       id="path301"
       style="stroke-width:0.98395" />
  </g>
  <g
     transform="matrix(1.125687,0,0,1.125687,-3.674817,-1.63779)"
     id="g337">
    <path
       d="m 26.847,14.748 1.432,1.056 v 0.002"
       class="u"
       id="path307" />
    <path
       d="m 28.631,14.742 -0.001,0.003 -1.792,-0.004 0.009,0.007 1.432,1.059 -0.523,1.76 0.011,-0.007 1.472,-1.058 0.003,-0.002 1.487,1.004 -10e-4,-0.003 -0.547,-1.711 h 10e-4 l 1.463,-1.044 0.003,-0.002 -1.787,0.004 h -0.004 l -0.613,-1.751 -0.003,0.008 z"
       class="i"
       id="path309" />
    <path
       d="m 27.756,17.672 c -0.022,0 -0.043,-0.007 -0.061,-0.02 -0.037,-0.026 -0.053,-0.073 -0.04,-0.117 l 0.502,-1.688 -1.381,-1.021 c -0.037,-0.027 -0.052,-0.075 -0.038,-0.119 0.014,-0.044 0.055,-0.073 0.101,-0.073 v 0 l 1.717,0.004 0.586,-1.679 c 0.015,-0.043 0.055,-0.071 0.1,-0.071 v 0 c 0.045,0 0.085,0.029 0.1,0.071 l 0.588,1.679 1.716,-0.004 v 0 c 0.046,0 0.087,0.03 0.101,0.074 0.014,0.044 -0.002,0.092 -0.039,0.119 l -1.403,1.001 0.52,1.626 c 0.007,0.014 0.01,0.03 0.01,0.046 0,0.059 -0.048,0.106 -0.106,0.106 -0.01,0 -0.019,-0.001 -0.028,-0.004 -0.009,-0.003 -0.022,-0.008 -0.032,-0.014 l -1.425,-0.962 -1.425,1.025 c -0.018,0.013 -0.04,0.02 -0.062,0.02 z m -0.594,-2.824 1.181,0.873 c 0.036,0.027 0.051,0.073 0.039,0.116 l -0.434,1.462 1.23,-0.885 a 0.11,0.11 0 0 1 0.124,-0.004 l 1.233,0.832 -0.455,-1.422 c -0.014,-0.044 0.002,-0.091 0.039,-0.118 l 1.196,-0.854 -1.455,0.003 v 0 c -0.045,0 -0.089,-0.029 -0.104,-0.071 l -0.513,-1.464 -0.51,1.461 a 0.11,0.11 0 0 1 -0.101,0.074 v 0 l -1.469,-0.003 z"
       class="k"
       id="path311" />
    <path
       d="m 29.854,14.745 -0.613,-1.751 -0.003,0.008 v 2.491 l 0.62,-0.748 z"
       class="v"
       id="path313" />
    <g
       class="u"
       id="g319">
      <path
         d="m 29.238,15.493 -2.391,-0.746 1.432,1.056 v 0.002 l 0.96,-0.311 z"
         id="path315" />
      <path
         d="m 29.237,15.493 h 0.002 v -2.491 l -0.607,1.74 z"
         id="path317" />
    </g>
    <path
       d="m 28.631,14.742 -0.001,0.003 -1.792,-0.004 0.009,0.007 2.39,0.745 z"
       class="v"
       id="path321" />
    <path
       d="m 31.643,14.743 0.003,-0.002 -1.787,0.004 -0.619,0.747 z"
       class="u"
       id="path323" />
    <path
       d="m 29.24,15.491 -0.002,0.002 v 0 l 0.942,0.294 1.463,-1.044 z"
       class="v"
       id="path325" />
    <path
       d="m 30.18,15.787 h 0.001 l -0.942,-0.294 v 0.002 l 1.489,2.003 z"
       class="u"
       id="path327" />
    <g
       class="v"
       id="g333">
      <path
         d="M 29.238,15.495 V 16.5 l 0.003,-0.002 1.487,1.004 -0.001,-0.003 z"
         id="path329" />
      <path
         d="m 29.233,15.497 -0.955,0.309 -0.523,1.76 0.011,-0.007 z"
         id="path331" />
    </g>
    <path
       d="M 29.233,15.497 27.766,17.558 29.238,16.5 V 15.496 Z"
       class="u"
       id="path335" />
  </g>
  <g
     id="g1880">
    <path
       d="M 8.9229378,13.814086 A 1.6652997,1.4813411 0 0 1 7.2576381,15.295427 1.6652997,1.4813411 0 0 1 5.5923384,13.814086 1.6652997,1.4813411 0 0 1 7.2576381,12.332745 1.6652997,1.4813411 0 0 1 8.9229378,13.814086 Z"
       stroke-width="0.160731"
       paint-order="markers fill stroke"
       class="p q r s t"
       id="path339" />
    <path
       d="m 6.9419604,12.62285 c -0.2627317,0.178526 -0.9819973,0.465443 -0.4934961,0.83631 0.2147807,0.41231 0.5744135,0.166836 0.7851983,-0.104141 0.348644,-0.321984 0.4865032,0.298607 0.7342503,0.443128 0.2917021,0.09564 0.6932921,-0.396371 0.4765134,-0.676912 -0.345647,-0.17215 -0.6433431,-0.493072 -1.0379402,-0.540891 a 1.4385312,1.5302232 0 0 0 -0.4645257,0.04144 z"
       class="i"
       id="path341"
       style="stroke-width:1.03033;" />
    <path
       d="M 5.4185159,13.267882 C 5.1288117,15.164721 6.012909,16.334704 7.1267717,17.363354 8.5293396,16.40909 8.9788806,14.906496 9.1696858,13.25513 8.8030602,13.619621 8.5273417,14.032993 8.0428364,14.334787 7.9079741,13.998988 7.710176,13.764142 7.51038,13.53142 A 4.5653386,4.8563333 0 0 0 6.7431634,14.255088 C 6.0798407,13.532483 5.8071191,13.502729 5.4185159,13.267882 Z"
       class="j m n"
       id="path343" />
    <path
       d="m 5.716212,13.925665 c 0.3806113,0.587648 0.046952,1.421833 1.5224455,1.632238 1.296676,-0.228471 1.2756974,-0.999958 1.6213445,-1.619486 -0.3856063,0.300731 -0.6093778,0.829934 -1.2627107,0.750234 0.1118858,-0.354926 -0.053945,-0.541954 -0.1608358,-0.764048 L 6.8300747,14.648271 C 6.363551,14.204081 6.0588621,14.104191 5.716212,13.924603 Z"
       class="o"
       id="path345"
       style="stroke-width:1.03033;" />
    <path
       id="use347"
       d="m 7.9908894,17.901058 c 0,0.578084 -0.1658307,1.131727 -0.4615287,1.540849 C 7.2336626,19.851029 6.8330716,20.0795 6.415498,20.0795 c -0.4175737,0 -0.8181647,-0.229533 -1.1138627,-0.637593 -0.2956981,-0.408059 -0.4615288,-0.962765 -0.4615288,-1.540849 0,-0.578085 0.1658307,-1.131728 0.4615288,-1.54085 0.295698,-0.409122 0.696289,-0.637593 1.1138627,-0.637593 0.4175736,0 0.8181646,0.229533 1.1138627,0.637593 0.295698,0.408059 0.4615287,0.962765 0.4615287,1.54085 z"
       style="opacity:0.998;fill:#dadada;fill-rule:evenodd;stroke:#bcbcbc;stroke-width:0.170004;stroke-linejoin:round;paint-order:markers fill stroke;" />
    <path
       id="use349"
       d="m 7.0408594,22.063477 c 2.5633827,-1.40908 2.8381022,-4.702248 2.5743715,-6.281354 -1.8411201,1.203989 -3.548377,2.529119 -2.5743715,6.281354 z"
       style="fill:#009b4c;stroke:#007338;stroke-width:0.170004;" />
    <path
       id="use351"
       d="m 4.9489953,16.997801 c 1.0149637,2.095555 3.1737595,2.808597 2.5014459,4.649115 a 2.99694,3.187965 0 0 0 -0.149847,0.771488 l -0.697288,0.06163 c 0,-0.753422 -0.3346583,-1.140229 -0.4255655,-1.257121 C 5.0858556,19.8234 4.4105451,18.823442 4.9489953,16.997801 Z"
       style="fill:#009b4c;stroke:#007338;stroke-width:0.170004;" />
    <path
       id="use355"
       d="m 5.0598821,17.810732 c 0.647339,1.038214 2.0089488,1.631175 1.8071548,3.199654 C 5.2057332,19.476975 5.5014313,18.80644 5.0598821,17.810732 Z"
       style="fill:#00ce65;stroke-width:1.03033;" />
    <path
       id="use357"
       d="m 7.1027962,19.364333 c 0.2027929,0.116893 0.4205706,0.348551 0.6563299,0.710917 1.1757994,-0.895818 1.1568188,-2.317651 1.4355342,-3.607714 -0.7891942,0.777863 -1.7342293,1.234805 -2.0918641,2.896797 z"
       style="fill:#00ce65;stroke-width:1.03033;" />
    <path
       id="use361"
       d="M 6.2226948,16.1328 C 5.7341936,16.21888 5.2007383,16.80121 5.4844486,17.338913 5.7401875,17.69809 6.0698509,17.985007 6.2736428,18.379252 6.7701359,18.677858 6.464448,17.728907 6.7461603,17.514251 6.9659359,17.198643 7.5333566,16.776769 6.9919094,16.447346 6.7581481,16.298574 6.5104011,16.103045 6.2226948,16.1328 Z"
       style="fill:#ffffff;stroke-width:1.03033;" />
    <path
       id="use363"
       d="M 6.3258883,22.299298 A 1.5753915,2.1784427 0 0 0 7.9012797,24.477741 1.5753915,2.1784427 0 0 0 9.4766712,22.299298 1.5753915,2.1784427 0 0 0 7.9012797,20.120855 1.5753915,2.1784427 0 0 0 6.3258883,22.299298 Z"
       style="opacity:0.998;fill:#dadada;fill-rule:evenodd;stroke:#bcbcbc;stroke-width:0.170004;stroke-linejoin:round;paint-order:markers fill stroke;" />
    <path
       id="use365"
       d="m 8.0940863,20.531029 c 0.4885012,0.08608 1.0219565,0.66841 0.7382462,1.206113 C 8.5765936,22.096319 8.2469302,22.383236 8.0431383,22.777481 7.5466452,23.076087 7.8523331,22.127136 7.5706208,21.91248 7.3508452,21.596872 6.7834245,21.174997 7.3248717,20.845574 7.558633,20.696803 7.80638,20.501274 8.0940863,20.531029 Z"
       style="fill:#ffffff;stroke-width:1.03033;" />
    <path
       id="use369"
       d="M 9.1816736,20.707529 C 9.4274227,22.75314 9.0138449,24.250421 7.3495443,24.710551 L 7.1267717,26.764663 C 10.068768,25.017658 9.857983,22.303637 9.1816736,20.707529 Z"
       style="fill:#009b4c;stroke:#007338;stroke-width:0.170004;" />
    <path
       id="use371"
       d="M 7.6412464,24.923082 7.51038,25.574489 c 1.5124558,-0.766174 1.7871753,-1.919155 1.9689896,-3.100827 -0.05894,0.877753 -0.9650147,2.351656 -1.8381232,2.448357 z"
       style="fill:#00ce65;stroke-width:1.03033;" />
    <path
       id="use373"
       d="m 5.7331946,20.350477 c 1.7641987,2.146563 3.3276024,4.360074 1.40057,7.746755 -2.2327203,-3.746921 -3.0398962,-4.719251 -1.40057,-7.746755 z"
       style="fill:#009b4c;stroke:#007338;stroke-width:0.170004;" />
    <path
       id="use375"
       d="M 5.9259978,21.394005 C 6.2336836,22.705321 5.1807587,23.101691 7.063836,25.472474 7.4574341,22.938042 6.3056102,22.754203 5.9259978,21.394005 Z"
       style="fill:#00ce65;stroke-width:1.03033;" />
    <path
       id="use377"
       d="M 6.3258883,31.463638 A 1.5753915,2.1784427 0 0 0 7.9012797,33.642081 1.5753915,2.1784427 0 0 0 9.4766712,31.463638 1.5753915,2.1784427 0 0 0 7.9012797,29.285195 1.5753915,2.1784427 0 0 0 6.3258883,31.463638 Z"
       style="opacity:0.998;fill:#dadada;fill-rule:evenodd;stroke:#bcbcbc;stroke-width:0.170004;stroke-linejoin:round;paint-order:markers fill stroke;" />
    <path
       id="use379"
       d="m 8.0940863,29.695369 c 0.4885012,0.08608 1.0219565,0.66841 0.7382462,1.206113 C 8.5765936,31.260659 8.2469302,31.547576 8.0431383,31.941821 7.5466452,32.240427 7.8523331,31.291476 7.5706208,31.07682 7.3508452,30.761212 6.7834245,30.339337 7.3248717,30.009914 7.558633,29.861143 7.80638,29.665614 8.0940863,29.695369 Z"
       style="fill:#ffffff;stroke-width:1.03033;" />
    <path
       id="use383"
       d="m 9.1816736,29.871866 c 0.2457491,2.045611 -0.1678287,3.542891 -1.8321293,4.003021 L 7.1267717,35.928999 C 10.068768,34.181994 9.857983,31.467974 9.1816736,29.871866 Z"
       style="fill:#009b4c;stroke:#007338;stroke-width:0.170004;" />
    <path
       id="use385"
       d="M 7.6412464,34.087418 7.51038,34.738826 c 1.5124558,-0.766175 1.7871753,-1.919155 1.9689896,-3.100828 -0.05894,0.877753 -0.9650147,2.351656 -1.8381232,2.448357 z"
       style="fill:#00ce65;stroke-width:1.03033;" />
    <path
       id="use387"
       d="m 5.7331946,29.514814 c 1.7641987,2.146563 3.3276024,4.360073 1.40057,7.746755 -2.2327203,-3.746922 -3.0398962,-4.719251 -1.40057,-7.746755 z"
       style="fill:#009b4c;stroke:#007338;stroke-width:0.170004;" />
    <path
       id="use389"
       d="m 5.9259978,30.558341 c 0.3076858,1.311316 -0.7452391,1.707686 1.1378382,4.07847 0.3935981,-2.534432 -0.7582258,-2.718272 -1.1378382,-4.07847 z"
       style="fill:#00ce65;stroke-width:1.03033;" />
    <path
       id="use391"
       d="m 7.9908894,26.854988 c 0,0.578085 -0.1658307,1.131728 -0.4615287,1.54085 -0.2956981,0.409122 -0.6962891,0.637593 -1.1138627,0.637593 -0.4175737,0 -0.8181647,-0.229534 -1.1138627,-0.637593 -0.2956981,-0.40806 -0.4615288,-0.962765 -0.4615288,-1.54085 0,-0.578084 0.1658307,-1.131727 0.4615288,-1.54085 0.295698,-0.409122 0.696289,-0.637593 1.1138627,-0.637593 0.4175736,0 0.8181646,0.229534 1.1138627,0.637593 0.295698,0.40806 0.4615287,0.962766 0.4615287,1.54085 z"
       style="opacity:0.998;fill:#dadada;fill-rule:evenodd;stroke:#bcbcbc;stroke-width:0.170004;stroke-linejoin:round;paint-order:markers fill stroke;" />
    <path
       id="use393"
       d="m 7.0408594,31.017408 c 2.5633827,-1.409081 2.8381022,-4.702249 2.5743715,-6.281354 -1.8411201,1.203988 -3.548377,2.529119 -2.5743715,6.281354 z"
       style="fill:#009b4c;stroke:#007338;stroke-width:0.170004;" />
    <path
       d="m 4.9489953,25.951732 c 1.0149637,2.095555 3.1737595,2.808597 2.5014459,4.649115 a 2.99694,3.187965 0 0 0 -0.149847,0.771488 l -0.697288,0.06163 c 0,-0.753422 -0.3346583,-1.140229 -0.4255655,-1.257121 C 5.0858556,28.777331 4.4105451,27.777373 4.9489953,25.951732 Z"
       id="path395"
       style="fill:#009b4c;stroke:#007338;stroke-width:0.170004;" />
    <path
       id="use399"
       d="m 5.0598821,26.764663 c 0.647339,1.038213 2.0089488,1.631175 1.8071548,3.199654 C 5.2057332,28.430906 5.5014313,27.76037 5.0598821,26.764663 Z"
       style="fill:#00ce65;stroke-width:1.03033;" />
    <path
       id="use401"
       d="M 7.1027962,28.318264 C 7.3055891,28.435156 7.5233668,28.666815 7.7591261,29.02918 8.9349255,28.133362 8.9159449,26.71153 9.1946603,25.421467 8.4054661,26.19933 7.460431,26.656272 7.1027962,28.318264 Z"
       style="fill:#00ce65;stroke-width:1.03033;" />
    <path
       id="use405"
       d="m 6.2226948,25.08673 c -0.4885012,0.08608 -1.0219565,0.66841 -0.7382462,1.206114 0.2557389,0.359177 0.5854023,0.646094 0.7891942,1.040339 0.4964931,0.298606 0.1908052,-0.650345 0.4725175,-0.865001 0.2197756,-0.315609 0.7871963,-0.737483 0.2457491,-1.066906 -0.2337613,-0.148772 -0.4815083,-0.3443 -0.7692146,-0.314546 z"
       style="fill:#ffffff;stroke-width:1.03033;" />
    <path
       id="use407"
       d="M 6.3258883,31.463638 A 1.5753915,2.1784427 0 0 0 7.9012797,33.642081 1.5753915,2.1784427 0 0 0 9.4766712,31.463638 1.5753915,2.1784427 0 0 0 7.9012797,29.285195 1.5753915,2.1784427 0 0 0 6.3258883,31.463638 Z"
       style="opacity:0.998;fill:#dadada;fill-rule:evenodd;stroke:#bcbcbc;stroke-width:0.170004;stroke-linejoin:round;paint-order:markers fill stroke;" />
    <path
       id="use409"
       d="m 8.0940863,29.695369 c 0.4885012,0.08608 1.0219565,0.66841 0.7382462,1.206113 C 8.5765936,31.260659 8.2469302,31.547576 8.0431383,31.941821 7.5466452,32.240427 7.8523331,31.291476 7.5706208,31.07682 7.3508452,30.761212 6.7834245,30.339337 7.3248717,30.009914 7.558633,29.861143 7.80638,29.665614 8.0940863,29.695369 Z"
       style="fill:#ffffff;stroke-width:1.03033;" />
    <path
       id="use413"
       d="m 9.1816736,29.871866 c 0.2457491,2.045611 -0.1678287,3.542891 -1.8321293,4.003021 L 7.1267717,35.928999 C 10.068768,34.181994 9.857983,31.467974 9.1816736,29.871866 Z"
       style="fill:#009b4c;stroke:#007338;stroke-width:0.170004;" />
    <path
       id="use415"
       d="M 7.6412464,34.087418 7.51038,34.738826 c 1.5124558,-0.766175 1.7871753,-1.919155 1.9689896,-3.100828 -0.05894,0.877753 -0.9650147,2.351656 -1.8381232,2.448357 z"
       style="fill:#00ce65;stroke-width:1.03033;" />
    <path
       id="use417"
       d="m 5.7331946,29.514814 c 1.7641987,2.146563 3.3276024,4.360073 1.40057,7.746755 -2.2327203,-3.746922 -3.0398962,-4.719251 -1.40057,-7.746755 z"
       style="fill:#009b4c;stroke:#007338;stroke-width:0.170004;" />
    <path
       id="use419"
       d="m 5.9259978,30.558341 c 0.3076858,1.311316 -0.7452391,1.707686 1.1378382,4.07847 0.3935981,-2.534432 -0.7582258,-2.718272 -1.1378382,-4.07847 z"
       style="fill:#00ce65;stroke-width:1.03033;" />
    <path
       id="use421"
       d="m 7.9908894,36.862011 c 0,0.578084 -0.1658307,1.131728 -0.4615287,1.54085 -0.2956981,0.409122 -0.6962891,0.637593 -1.1138627,0.637593 -0.4175737,0 -0.8181647,-0.229534 -1.1138627,-0.637593 -0.2956981,-0.40806 -0.4615288,-0.962766 -0.4615288,-1.54085 0,-0.578084 0.1658307,-1.131727 0.4615288,-1.54085 0.295698,-0.409122 0.696289,-0.637593 1.1138627,-0.637593 0.4175736,0 0.8181646,0.229534 1.1138627,0.637593 0.295698,0.40806 0.4615287,0.962766 0.4615287,1.54085 z"
       style="opacity:0.998;fill:#dadada;fill-rule:evenodd;stroke:#bcbcbc;stroke-width:0.170004;stroke-linejoin:round;paint-order:markers fill stroke;" />
    <path
       id="use423"
       d="M 7.0408594,41.024431 C 9.6042421,39.61535 9.8789616,36.322182 9.6152309,34.743077 7.7741108,35.947065 6.0668539,37.272196 7.0408594,41.024431 Z"
       style="fill:#009b4c;stroke:#007338;stroke-width:0.170004;" />
    <path
       id="use425"
       d="m 4.9489953,35.958754 c 1.0149637,2.095556 3.1737595,2.808598 2.5014459,4.649116 a 2.99694,3.187965 0 0 0 -0.149847,0.771488 l -0.697288,0.06163 c 0,-0.753423 -0.3346583,-1.140229 -0.4255655,-1.257121 C 5.0858556,38.784354 4.4105451,37.784396 4.9489953,35.958754 Z"
       style="fill:#009b4c;stroke:#007338;stroke-width:0.170004;" />
    <path
       id="use429"
       d="m 5.0598821,36.771685 c 0.647339,1.038214 2.0089488,1.631176 1.8071548,3.199655 C 5.2057332,38.437929 5.5014313,37.767393 5.0598821,36.771685 Z"
       style="fill:#00ce65;stroke-width:1.03033;" />
    <path
       id="use431"
       d="m 7.1027962,38.325287 c 0.2027929,0.116892 0.4205706,0.348551 0.6563299,0.710916 1.1757994,-0.895818 1.1568188,-2.31765 1.4355342,-3.607713 -0.7891942,0.777863 -1.7342293,1.234805 -2.0918641,2.896797 z"
       style="fill:#00ce65;stroke-width:1.03033;" />
    <path
       id="use435"
       d="m 6.2226948,35.093753 c -0.4885012,0.08608 -1.0219565,0.66841 -0.7382462,1.206114 0.2557389,0.359177 0.5854023,0.646094 0.7891942,1.040339 0.4964931,0.298606 0.1908052,-0.650345 0.4725175,-0.865001 0.2197756,-0.315609 0.7871963,-0.737483 0.2457491,-1.066906 -0.2337613,-0.148772 -0.4815083,-0.3443 -0.7692146,-0.314546 z"
       style="fill:#ffffff;stroke-width:1.03033;" />
    <path
       id="use437"
       d="M 6.3258883,42.208138 A 1.5753915,2.1784427 0 0 0 7.9012797,44.386581 1.5753915,2.1784427 0 0 0 9.4766712,42.208138 1.5753915,2.1784427 0 0 0 7.9012797,40.029695 1.5753915,2.1784427 0 0 0 6.3258883,42.208138 Z"
       style="opacity:0.998;fill:#dadada;fill-rule:evenodd;stroke:#bcbcbc;stroke-width:0.170004;stroke-linejoin:round;paint-order:markers fill stroke;" />
    <path
       id="use439"
       d="m 8.0940863,40.439869 c 0.4885012,0.08608 1.0219565,0.66841 0.7382462,1.206113 C 8.5765936,42.005159 8.2469302,42.292076 8.0431383,42.686321 7.5466452,42.984927 7.8523331,42.035976 7.5706208,41.82132 7.3508452,41.505712 6.7834245,41.083837 7.3248717,40.754414 7.558633,40.605643 7.80638,40.410114 8.0940863,40.439869 Z"
       style="fill:#ffffff;stroke-width:1.03033;" />
    <path
       id="use443"
       d="m 9.1816736,40.616371 c 0.2457491,2.045611 -0.1678287,3.542892 -1.8321293,4.003022 L 7.1267717,46.673505 C 10.068768,44.9265 9.857983,42.212479 9.1816736,40.616371 Z"
       style="fill:#009b4c;stroke:#007338;stroke-width:0.170004;" />
    <path
       id="use445"
       d="M 7.6412464,44.831924 7.51038,45.483331 c 1.5124558,-0.766174 1.7871753,-1.919155 1.9689896,-3.100827 -0.05894,0.877753 -0.9650147,2.351656 -1.8381232,2.448357 z"
       style="fill:#00ce65;stroke-width:1.03033;" />
    <path
       id="use447"
       d="m 5.7331946,40.259319 c 1.7641987,2.146564 3.3276024,4.360074 1.40057,7.746755 -2.2327203,-3.746921 -3.0398962,-4.719251 -1.40057,-7.746755 z"
       style="fill:#009b4c;stroke:#007338;stroke-width:0.170004;" />
    <path
       id="use449"
       d="m 5.9259978,41.302847 c 0.3076858,1.311316 -0.7452391,1.707686 1.1378382,4.07847 0.3935981,-2.534433 -0.7582258,-2.718272 -1.1378382,-4.07847 z"
       style="fill:#00ce65;stroke-width:1.03033;" />
    <path
       id="use451"
       d="M 7.9908928,48.238803 A 1.5753915,2.1784427 0 0 1 6.4155014,50.417245 1.5753915,2.1784427 0 0 1 4.8401099,48.238803 1.5753915,2.1784427 0 0 1 6.4155014,46.06036 1.5753915,2.1784427 0 0 1 7.9908928,48.238803 Z"
       style="opacity:0.998;fill:#dadada;fill-rule:evenodd;stroke:#bcbcbc;stroke-width:0.170004;stroke-linejoin:round;paint-order:markers fill stroke;" />
    <path
       id="use453"
       d="m 6.2226948,46.470537 c -0.4885012,0.08608 -1.0219565,0.66841 -0.7382462,1.206113 0.2557389,0.359178 0.5854023,0.646095 0.7891942,1.04034 0.4964931,0.298606 0.1908052,-0.650345 0.4725175,-0.865001 0.2197756,-0.315609 0.7871963,-0.737483 0.2457491,-1.066906 -0.2337613,-0.148772 -0.4815083,-0.3443 -0.7692146,-0.314546 z"
       style="fill:#ffffff;stroke-width:1.03033;" />
    <path
       id="use455"
       d="M 7.0408594,52.401215 C 9.6042421,50.992134 9.8789616,47.698966 9.6152309,46.119861 7.7741108,47.323849 6.0668539,48.64898 7.0408594,52.401215 Z"
       style="fill:#009b4c;stroke:#007338;stroke-width:0.170004;" />
    <path
       id="use457"
       d="m 4.9489953,47.335538 c 1.0149637,2.095556 3.1737595,2.808597 2.5014459,4.649116 a 2.99694,3.187965 0 0 0 -0.149847,0.771487 l -0.697288,0.06163 c 0,-0.753422 -0.3346583,-1.140228 -0.4255655,-1.257121 C 5.0858556,50.161138 4.4105451,49.161179 4.9489953,47.335538 Z"
       style="fill:#009b4c;stroke:#007338;stroke-width:0.170004;" />
    <path
       id="use461"
       d="m 5.0598821,48.148469 c 0.647339,1.038214 2.0089488,1.631176 1.8071548,3.199654 C 5.2057332,49.814712 5.5014313,49.144177 5.0598821,48.148469 Z"
       style="fill:#00ce65;stroke-width:1.03033;" />
    <path
       id="use463"
       d="m 7.1027962,49.702071 c 0.2027929,0.116892 0.4205706,0.348551 0.6563299,0.710916 1.1757994,-0.895818 1.1568188,-2.317651 1.4355342,-3.607714 -0.7891942,0.777864 -1.7342293,1.234805 -2.0918641,2.896798 z"
       style="fill:#00ce65;stroke-width:1.03033;" />
  </g>
  <g
     id="g1951">
    <path
       d="m 51.570956,51.774893 -0.02496,-1.012451 0.09585,-0.156994 c 0.191709,-0.315056 0.336488,-0.47205 0.803777,-0.873613 0.652008,-0.559624 0.93358,-0.948371 1.121295,-1.550715 0.174734,-0.559625 0.184719,-1.056238 0.05891,-2.865407 l -0.02097,-0.306512 -0.150771,0.228549 c -0.08287,0.126023 -0.307532,0.430399 -0.500239,0.674968 -0.81476,1.040218 -0.879662,1.197212 -1.105318,2.663557 l -0.258607,1.372362 c -0.01498,0.02884 -0.03295,-0.791378 -0.04094,-1.823052 l 0.05492,-1.986454 c 0.146777,-0.234957 0.395398,-0.51477 0.876666,-0.984684 0.885653,-0.865068 1.148253,-1.33071 1.22913,-2.169079 0.01797,-0.186898 -0.0649,-2.001406 -0.09785,-2.143448 -0.004,-0.01495 -0.06989,0.05874 -0.147775,0.165538 a 18.821367,20.131536 0 0 1 -0.60508,0.73691 c -0.71591,0.840505 -0.790796,1.013519 -1.023443,2.370929 l -0.217668,1.063714 -0.07888,0.257385 -0.01698,-1.896743 0.009,-1.959755 c 0.05492,-0.13243 0.404385,-0.517973 0.800782,-0.883224 0.883655,-0.814873 1.109312,-1.102162 1.269069,-1.616931 0.121815,-0.394087 0.13779,-0.72089 0.07688,-1.582755 l -0.05392,-0.861865 c 0,-0.10573 -9.99e-4,-0.10573 -0.145778,0.07369 l -0.648014,0.732639 c -0.706925,0.777493 -0.757848,0.888564 -0.996484,2.169079 -0.134795,0.724095 -0.252616,1.181193 -0.313524,1.221776 -0.01897,0.01282 -0.03195,-0.719822 -0.03195,-1.85616 v -1.877519 l 0.133797,-0.178354 c 0.168743,-0.224277 0.475276,-0.539333 0.916605,-0.940895 0.802779,-0.730503 1.053398,-1.129929 1.158238,-1.844412 0.03095,-0.213597 0.02696,-0.45069 -0.02197,-1.191872 l -0.06091,-0.924876 -0.105839,0.133498 a 26.789245,28.654064 0 0 1 -0.641025,0.721958 c -0.731886,0.80633 -0.805774,0.962256 -1.020447,2.150924 -0.128804,0.712347 -0.251617,1.188669 -0.339484,1.312555 -0.04593,0.06515 -0.05192,-0.110002 -0.05292,-1.635086 l -9.99e-4,-1.70771 0.117821,-0.170878 c 0.145778,-0.211461 0.517213,-0.597004 0.953549,-0.992159 0.836727,-0.75827 1.105319,-1.205756 1.185197,-1.980046 a 20.828314,22.278188 0 0 0 -0.09885,-1.937327 c -0.004,-0.01281 -0.293554,0.294765 -0.644021,0.683512 -0.846711,0.938759 -0.903625,1.053034 -1.119297,2.247042 -0.127805,0.707007 -0.211678,1.053034 -0.314521,1.292263 l -0.06291,0.147382 -0.02197,-0.478458 -0.02496,-1.694893 -0.003,-1.215368 0.103842,-0.147382 c 0.174735,-0.247773 0.507229,-0.599141 0.977513,-1.031675 0.723899,-0.665355 0.943565,-0.956915 1.100326,-1.461005 0.120817,-0.388747 0.136792,-0.718754 0.07489,-1.577415 l -0.05392,-0.861865 c 0,-0.10573 -9.98e-4,-0.10573 -0.145778,0.07369 l -0.648014,0.732639 c -0.706924,0.777493 -0.756849,0.886428 -0.995485,2.166943 -0.141785,0.75827 -0.214674,1.038083 -0.337487,1.294399 l -0.0679,0.140974 -0.02496,-1.624406 -0.02496,-1.624407 0.112829,-0.176218 c 0.164749,-0.25952 0.509225,-0.633315 0.977512,-1.061578 0.704928,-0.643995 0.976515,-0.994295 1.120296,-1.439645 0.134795,-0.41865 0.148774,-0.690987 0.08287,-1.67567 l -0.06091,-0.905652 -0.121815,0.150586 -0.610072,0.684579 c -0.268591,0.293696 -0.542175,0.62584 -0.608075,0.73691 -0.179726,0.303308 -0.285565,0.658948 -0.422357,1.419354 -0.138789,0.76895 -0.22366,1.091481 -0.356458,1.361682 l -0.09086,0.183693 -0.01997,-1.694893 -0.01997,-1.694894 0.07888,-0.151654 c 0.146777,-0.284084 0.429347,-0.601276 1.016454,-1.142745 l 0.760842,-0.764678 a 2.1667038,2.3175296 0 0 0 0.462297,-1.077598 c 0.05592,-0.336416 0.05592,-0.326804 -0.04893,-1.880723 l -0.01997,-0.303308 -0.206686,0.241364 -0.623052,0.692055 c -0.632038,0.683511 -0.716909,0.870409 -0.935577,2.062281 l -0.192707,0.925944 c -0.07389,0.271269 -0.225656,0.607684 -0.27558,0.607684 -0.01598,0 -0.02896,-0.586324 -0.02896,-1.301875 0,-1.533628 0.009,-1.592367 0.346473,-2.312189 0.270588,-0.577781 0.340482,-0.793514 0.365444,-1.137405 0.02596,-0.351368 -0.02097,-0.548945 -0.329499,-1.393722 -0.270588,-0.741182 -0.433341,-1.270904 -0.469286,-1.525084 -0.01298,-0.09612 -0.03395,-0.17515 -0.04593,-0.174082 -0.01198,0.0011 -0.07189,0.146314 -0.132798,0.325736 a 13.499463,14.439171 0 0 1 -0.373432,0.923808 c -0.356458,0.813805 -0.430345,1.053034 -0.45331,1.464209 -0.02496,0.45069 0.05591,0.725162 0.490254,1.667126 l 0.330497,0.716618 -0.02796,1.383042 -0.02796,1.383042 -0.09086,-0.183694 c -0.130801,-0.265928 -0.214673,-0.58312 -0.356458,-1.348866 -0.136791,-0.737978 -0.245626,-1.128861 -0.38741,-1.391586 -0.05092,-0.09291 -0.317517,-0.41865 -0.594096,-0.721958 l -0.658998,-0.748658 -0.15776,-0.195442 -0.02197,0.563897 -0.04393,0.990023 c -0.01697,0.325736 -0.009,0.496613 0.03495,0.72623 0.129803,0.684579 0.359453,1.018859 1.261082,1.833732 0.442327,0.400495 0.685956,0.662152 0.882657,0.948372 l 0.149772,0.217869 -9.98e-4,1.736545 -0.0679,1.644699 c -0.122813,-0.16981 -0.237639,-0.578849 -0.3944,-1.412946 -0.244628,-1.297603 -0.271587,-1.353138 -1.148253,-2.320733 l -0.645019,-0.712347 -0.02197,0.48273 -0.04693,0.998567 c -0.05492,1.117113 0.168743,1.568871 1.274062,2.580254 0.456305,0.417582 0.70293,0.680307 0.891643,0.949439 l 0.12481,0.177286 v 1.663922 l -0.0669,1.556056 c -0.101845,-0.165538 -0.229651,-0.640792 -0.347471,-1.292263 -0.23664,-1.310419 -0.293554,-1.433238 -1.050402,-2.265199 l -0.657999,-0.74759 -0.104841,-0.139906 -0.03095,0.673899 c -0.04693,1.039151 -0.03794,1.557124 0.03395,1.815576 0.139787,0.505158 0.430345,0.90672 1.083352,1.498385 0.470284,0.426126 0.815759,0.788173 0.990493,1.03915 l 0.15077,0.215733 v 0.889633 l -0.02296,1.694893 c -0.02097,0.730503 -0.02696,0.79565 -0.07189,0.704871 -0.105839,-0.215733 -0.189712,-0.546809 -0.337487,-1.338186 -0.237638,-1.269836 -0.285566,-1.364886 -1.225136,-2.391221 l -0.57213,-0.62584 -0.02197,0.557489 -0.04293,0.999635 c -0.02496,0.535061 0.03095,0.871476 0.208683,1.252747 0.177729,0.381271 0.384415,0.629044 1.000477,1.197213 0.593098,0.547877 0.732886,0.694191 0.926591,0.969731 l 0.12481,0.177286 v 1.717321 l -0.03694,1.677806 c -0.08387,-0.08971 -0.213675,-0.582052 -0.359453,-1.36275 -0.237638,-1.275175 -0.285566,-1.369158 -1.225136,-2.396561 l -0.57213,-0.625839 -0.03095,0.648267 c -0.05192,1.10323 -0.04094,1.531492 0.04593,1.827324 0.158759,0.540401 0.409378,0.873613 1.200175,1.593435 0.469286,0.426127 0.762839,0.745455 0.890645,0.966528 0.07489,0.129226 0.07489,0.131362 0.06091,1.981114 l -0.04094,1.833732 c -0.05292,-0.03524 -0.207684,-0.63652 -0.311526,-1.216436 -0.235641,-1.304011 -0.29555,-1.435374 -1.032429,-2.247043 L 48.899,36.662889 l -0.122813,-0.155926 -0.03095,0.671763 c -0.04693,1.034878 -0.03794,1.556056 0.03295,1.814508 0.136792,0.49875 0.424354,0.897108 1.07137,1.484501 0.437334,0.397291 0.779813,0.749726 0.950554,0.977207 l 0.133796,0.178354 -0.004,1.092549 -0.02596,1.921307 -0.02097,0.828757 -0.07888,-0.257384 A 11.27285,12.057562 0 0 1 50.592419,44.18685 c -0.260604,-1.510132 -0.290558,-1.579551 -1.13727,-2.56103 l -0.535186,-0.655744 -0.13779,-0.194373 -0.02996,0.637588 -0.03195,1.245271 c -0.002,0.562829 0.005,0.630112 0.08986,0.902448 0.179727,0.577781 0.339484,0.791378 1.449794,1.935191 l 0.508227,0.573508 0.132798,0.187966 v 1.905287 l -0.02995,1.886063 c -0.05591,-0.03631 -0.14478,-0.457098 -0.28257,-1.334982 -0.254613,-1.624407 -0.299545,-1.738681 -1.06538,-2.720161 l -0.586108,-0.788173 -0.154764,-0.236025 -0.03095,0.714483 c -0.05292,1.237795 -0.04393,1.968298 0.02596,2.261994 a 3.3349265,3.5670732 0 0 0 0.547168,1.156629 6.1306733,6.557434 0 0 0 0.679965,0.663219 c 0.349469,0.300104 0.553159,0.505157 0.679966,0.685647 l 0.180725,0.257385 v 1.040218 1.040218 h 0.364446 0.364445 l -0.02496,-1.01245 z"
       stroke="#b19975"
       stroke-width="0.24164"
       class="v"
       id="path469" />
    <path
       id="use471"
       d="m 49.06377,46.179714 c 0.642023,0.633316 1.206165,1.360614 1.101325,2.898514 z"
       style="fill:#ffeba3;stroke-width:1.03265;" />
    <path
       id="use473"
       d="m 53.344258,46.179714 c -0.642023,0.633316 -1.206165,1.360614 -1.101324,2.898514 z"
       style="fill:#ffeba3;stroke-width:1.03265;" />
    <path
       id="use475"
       d="m 49.06377,41.78602 c 0.642023,0.633316 1.206165,1.360614 1.101325,2.898514 z"
       style="fill:#ffeba3;stroke-width:1.03265;" />
    <path
       id="use477"
       d="m 53.344258,41.78602 c -0.642023,0.633316 -1.206165,1.360614 -1.101324,2.898514 z"
       style="fill:#ffeba3;stroke-width:1.03265;" />
    <path
       d="m 49.06377,37.338926 c 0.642023,0.541469 1.206165,1.161969 1.101325,2.474524 z m 4.280488,0 c -0.642023,0.541469 -1.206165,1.161969 -1.101324,2.474524 z M 49.06377,32.813869 c 0.642023,0.558557 1.206165,1.199349 1.101325,2.553555 z m 4.280488,0 c -0.642023,0.558557 -1.206165,1.199349 -1.101324,2.553555 z"
       id="path479"
       style="fill:#ffeba3;stroke-width:1.03265;" />
    <path
       id="use481"
       d="m 49.06377,28.658336 c 0.642023,0.633315 1.206165,1.360614 1.101325,2.898514 z"
       style="fill:#ffeba3;stroke-width:1.03265;" />
    <path
       id="use483"
       d="m 53.344258,28.658336 c -0.642023,0.633315 -1.206165,1.360614 -1.101324,2.898514 z"
       style="fill:#ffeba3;stroke-width:1.03265;" />
    <path
       id="use485"
       d="m 49.06377,24.582901 c 0.642023,0.529721 1.206165,1.137405 1.101325,2.422192 z"
       style="fill:#ffeba3;stroke-width:1.03265;" />
    <path
       id="use487"
       d="m 53.344258,24.582901 c -0.642023,0.529721 -1.206165,1.137405 -1.101324,2.422192 z"
       style="fill:#ffeba3;stroke-width:1.03265;" />
    <path
       id="use489"
       d="m 49.06377,20.665529 c 0.642023,0.529721 1.206165,1.137405 1.101325,2.422192 z"
       style="fill:#ffeba3;stroke-width:1.03265;" />
    <path
       id="use491"
       d="m 53.344258,20.665529 c -0.642023,0.529721 -1.206165,1.137405 -1.101324,2.422192 z"
       style="fill:#ffeba3;stroke-width:1.03265;" />
    <path
       id="use493"
       d="m 49.06377,16.430964 c 0.642023,0.529721 1.206165,1.137405 1.101325,2.422192 z"
       style="fill:#ffeba3;stroke-width:1.03265;" />
    <path
       id="use495"
       d="m 53.344258,16.430964 c -0.642023,0.529721 -1.206165,1.137405 -1.101324,2.422192 z"
       style="fill:#ffeba3;stroke-width:1.03265;" />
    <path
       d="m 51.154589,13.770611 c -0.113826,0.76361 -0.325504,1.526152 0,2.289762 0.794791,-1.462073 0.02896,-1.551784 0,-2.289762 z"
       id="path497"
       style="fill:#ffeba3;stroke-width:1.03265;" />
  </g>
  <g
     class="i"
     id="g533"
     transform="translate(-75.757,-86.662)">
    <path
       d="m 81.513,95.584 h -1.071 l -0.551,-1.743 -0.329,0.679 v 1.064 H 78.64 v -4.612 h 0.922 v 1.906 l 0.88,-1.906 h 0.877 l -0.805,1.686 z"
       id="path503" />
    <path
       id="use505"
       d="m 83.531,95.584 -0.18,-0.909 h -0.854 l -0.191,0.909 h -0.793 l 0.985,-4.612 h 1.034 l 0.996,4.612 z m -0.868,-1.916 h 0.518 L 82.922,92.33 Z" />
    <path
       d="m 84.822,95.584 v -4.612 h 1.617 q 0.504,0 0.735,0.368 0.231,0.368 0.231,0.841 0,0.345 -0.135,0.625 -0.133,0.277 -0.399,0.382 0.618,0.216 0.618,1.074 0,0.514 -0.219,0.919 -0.217,0.402 -0.931,0.402 z m 0.901,-2.845 h 0.453 q 0.17,0 0.24,-0.125 0.07,-0.125 0.07,-0.267 0,-0.385 -0.327,-0.385 h -0.436 z m 0,1.818 h 0.476 q 0.177,0 0.259,-0.125 0.084,-0.128 0.084,-0.287 0,-0.159 -0.082,-0.291 -0.079,-0.135 -0.294,-0.135 h -0.443 z m 4.752,-3.586 v 3.054 q 0,0.868 -0.357,1.25 -0.355,0.378 -0.926,0.378 -0.602,0 -0.968,-0.365 Q 87.86,94.923 87.86,94.099 V 90.97 h 0.994 v 2.963 q 0,0.331 0.096,0.483 0.098,0.152 0.31,0.152 0.177,0 0.289,-0.108 0.114,-0.112 0.135,-0.25 0.023,-0.139 0.023,-0.541 v -2.7 z m 1.515,2.937 v 1.676 h -0.992 v -4.612 h 1.36 q 0.509,0 0.772,0.169 0.266,0.169 0.42,0.517 0.156,0.348 0.156,0.781 0,0.659 -0.317,1.064 -0.317,0.405 -0.847,0.405 z m -0.014,-0.99 h 0.327 q 0.432,0 0.432,-0.46 0,-0.432 -0.399,-0.432 h -0.359 z"
       id="path507" />
    <path
       id="use509"
       d="m 95.622,95.584 -0.18,-0.909 h -0.854 l -0.191,0.909 h -0.793 l 0.985,-4.612 h 1.034 l 0.996,4.612 z m -0.868,-1.916 h 0.518 L 95.013,92.33 Z" />
    <path
       d="m 98.04,92.076 v 3.507 h -0.926 v -3.507 h -0.66 V 90.971 H 98.7 v 1.105 z"
       id="path511" />
    <path
       id="use513"
       d="m 101.374,94.482 v 1.102 h -2.396 v -4.612 h 2.396 v 1.064 h -1.437 v 0.669 h 1.162 v 1.024 h -1.162 v 0.753 z" />
    <path
       id="use515"
       d="m 104.484,95.584 h -0.796 l -0.873,-2.037 q -0.168,-0.392 -0.338,-0.953 0.077,0.446 0.077,0.757 v 2.233 h -0.793 v -4.612 h 0.924 l 0.742,1.689 q 0.222,0.503 0.336,0.885 -0.075,-0.591 -0.075,-1.21 v -1.365 h 0.796 z" />
    <path
       d="m 105.905,94.249 0.908,-0.237 q 0.114,0.558 0.588,0.558 0.369,0 0.369,-0.284 0,-0.149 -0.086,-0.23 -0.084,-0.084 -0.303,-0.149 -0.838,-0.233 -1.076,-0.608 -0.238,-0.375 -0.238,-0.882 0,-0.652 0.341,-1.085 0.343,-0.432 0.985,-0.432 0.973,0 1.286,1.132 l -0.81,0.355 q -0.126,-0.463 -0.511,-0.463 -0.32,0 -0.32,0.287 0,0.128 0.072,0.199 0.072,0.071 0.28,0.135 0.572,0.176 0.812,0.311 0.24,0.135 0.401,0.463 0.161,0.324 0.161,0.767 0,0.699 -0.392,1.135 -0.392,0.432 -1.029,0.432 -1.164,0 -1.437,-1.406 z"
       id="path517" />
    <path
       id="use519"
       d="m 111.533,94.482 v 1.102 h -2.396 v -4.612 h 2.396 v 1.064 h -1.437 v 0.669 h 1.162 v 1.024 h -1.162 v 0.753 z" />
    <path
       d="m 115.383,90.971 v 4.612 h -0.908 v -3.298 l -0.59,3.298 h -0.621 l -0.611,-3.298 v 3.298 h -0.733 v -4.612 h 1.276 l 0.462,2.45 0.441,-2.45 z"
       id="path521" />
    <path
       id="use523"
       d="m 117.695,95.584 -0.18,-0.909 h -0.854 l -0.191,0.909 h -0.793 l 0.985,-4.612 h 1.034 l 0.996,4.612 z m -0.868,-1.916 h 0.518 l -0.259,-1.338 z" />
    <path
       d="m 121.821,95.584 h -1.085 l -0.464,-1.764 h -0.308 v 1.764 h -0.978 v -4.612 h 1.664 q 0.551,0 0.854,0.375 0.306,0.372 0.306,0.983 0,0.399 -0.112,0.706 -0.112,0.304 -0.453,0.537 z m -1.857,-2.75 h 0.418 q 0.184,0 0.296,-0.112 0.112,-0.112 0.112,-0.328 0,-0.443 -0.376,-0.443 h -0.45 z"
       id="path525" />
    <path
       id="use527"
       d="m 124.04,95.584 -0.18,-0.909 h -0.854 l -0.191,0.909 h -0.793 l 0.985,-4.612 h 1.034 l 0.996,4.612 z m -0.868,-1.916 h 0.518 l -0.259,-1.338 z" />
    <path
       id="use529"
       d="m 128.053,95.584 h -0.796 l -0.873,-2.037 q -0.168,-0.392 -0.338,-0.953 0.077,0.446 0.077,0.757 v 2.233 h -0.793 v -4.612 h 0.924 l 0.742,1.689 q 0.222,0.503 0.336,0.885 -0.075,-0.591 -0.075,-1.21 v -1.365 h 0.796 z" />
    <path
       d="m 131.359,92.999 v 2.585 h -0.478 q -0.058,-0.287 -0.128,-0.483 -0.296,0.554 -0.877,0.554 -0.616,0 -1.013,-0.622 -0.397,-0.625 -0.397,-1.689 0,-1.034 0.383,-1.737 0.385,-0.706 1.143,-0.706 0.569,0 0.917,0.419 0.348,0.419 0.45,1.189 l -0.947,0.135 q -0.07,-0.72 -0.436,-0.72 -0.481,0 -0.481,1.325 0,0.801 0.154,1.058 0.154,0.253 0.373,0.253 0.177,0 0.301,-0.155 0.126,-0.155 0.128,-0.426 h -0.527 v -0.98 z"
       id="path531" />
  </g>
  <g
     id="g2628">
    <path
       d="M 1.588,52.91 1.587,57.153 29.242,75.812 56.897,57.153 56.898,52.91 Z"
       fill="url(#A)"
       id="path73"
       style="fill:url(#A)" />
    <path
       d="M 7.325,52.91 29.242,62.801 51.161,52.91 Z"
       fill="#ffd700"
       id="path75" />
    <path
       d="m 28.03091,51.708 v 0.374 0.374 h -0.493 -0.493 v 0.374 0.373 h -0.528 -0.528 v 0.616 0.616 h -0.58 -0.58 l -0.009,0.7 -0.01,0.699 -0.906,0.009 -0.906,0.009 v 0.69 0.689 h 0.194 0.194 v 0.156 c 0,0.119 0.022,0.182 0.094,0.262 0.052,0.058 0.124,0.105 0.159,0.105 0.061,0 0.064,0.096 0.064,2.053 l -0.038,2.053 c -0.02,0 -0.092,0.044 -0.159,0.098 -0.111,0.09 -0.121,0.114 -0.121,0.299 v 0.2 h -0.194 -0.194 v 0.429 l -0.002,0.429 h 6.248 6.247 v -0.429 -0.429 h -0.194 -0.194 v -0.176 c 0,-0.147 -0.018,-0.195 -0.112,-0.299 -0.062,-0.068 -0.134,-0.123 -0.159,-0.123 -0.037,0 -0.046,-0.39 -0.046,-2.053 l 0.06,-2.053 c 0.033,0 0.105,-0.045 0.159,-0.101 0.078,-0.079 0.099,-0.134 0.099,-0.261 V 57.23 h 0.194 0.194 v -0.69 -0.689 l -0.906,-0.009 -0.906,-0.009 -0.01,-0.7 -0.009,-0.699 h -0.598 -0.597 v -0.616 -0.616 h -0.51 -0.51 v -0.373 -0.374 h -0.492 -0.492 l -0.01,-0.364 -0.01,-0.365 -1.205,-0.009 z m -2.884,5.525 c 0.019,0 0.035,0.071 0.035,0.156 0,0.119 0.023,0.182 0.095,0.262 0.052,0.058 0.123,0.105 0.158,0.105 0.061,0 0.064,0.096 0.064,2.053 l -0.05,2.053 c -0.027,0 -0.099,0.044 -0.158,0.097 -0.097,0.086 -0.108,0.119 -0.108,0.299 0,0.111 -0.015,0.202 -0.035,0.202 -0.02,0 -0.035,-0.084 -0.035,-0.187 0,-0.163 -0.015,-0.201 -0.114,-0.298 -0.063,-0.061 -0.135,-0.111 -0.159,-0.111 -0.035,-10e-4 -0.044,-0.438 -0.044,-2.054 l 0.064,-2.053 c 0.035,0 0.107,-0.047 0.158,-0.105 0.072,-0.08 0.095,-0.143 0.095,-0.262 0,-0.086 0.015,-0.156 0.035,-0.156 z m 1.795,0 c 0.019,0 0.035,0.077 0.035,0.17 0,0.139 0.018,0.186 0.097,0.26 0.053,0.049 0.116,0.091 0.14,0.091 0.035,0.001 0.044,0.438 0.044,2.054 l -0.032,2.053 a 0.46,0.46 0 0 0 -0.14,0.097 c -0.097,0.086 -0.108,0.119 -0.108,0.299 h 10e-4 c 0,0.111 -0.015,0.202 -0.035,0.202 -0.02,0 -0.035,-0.081 -0.035,-0.18 0,-0.154 -0.016,-0.196 -0.116,-0.299 -0.064,-0.066 -0.135,-0.119 -0.158,-0.119 -0.032,0 -0.043,-0.479 -0.043,-2.053 l 0.064,-2.053 c 0.035,0 0.107,-0.047 0.159,-0.105 0.072,-0.08 0.094,-0.142 0.094,-0.261 0,-0.086 0.015,-0.156 0.035,-0.156 z m 1.724,0 h 0.563 0.563 v 0.156 c 0,0.119 0.023,0.182 0.095,0.262 0.052,0.058 0.123,0.105 0.158,0.105 0.061,0 0.064,0.096 0.064,2.053 l -0.046,2.053 c -0.025,0 -0.097,0.055 -0.158,0.123 -0.094,0.103 -0.113,0.152 -0.113,0.299 v 0.176 h -0.563 -0.563 v -0.202 c 0,-0.18 -0.012,-0.213 -0.108,-0.299 -0.06,-0.053 -0.123,-0.097 -0.14,-0.097 -0.017,0 -0.033,-0.823 -0.033,-2.053 l 0.039,-2.053 c 0.021,0 0.084,-0.035 0.14,-0.077 0.089,-0.067 0.102,-0.101 0.102,-0.261 z m 2.886,0 c 0.019,0 0.035,0.071 0.035,0.156 0,0.119 0.023,0.182 0.095,0.262 0.052,0.058 0.123,0.105 0.158,0.105 0.061,0 0.064,0.096 0.064,2.053 l -0.037,2.053 c -0.02,0 -0.091,0.046 -0.158,0.103 -0.11,0.093 -0.122,0.12 -0.122,0.299 0,0.108 -0.015,0.196 -0.035,0.196 -0.02,0 -0.035,-0.09 -0.035,-0.202 0,-0.18 -0.012,-0.213 -0.108,-0.299 -0.059,-0.053 -0.131,-0.097 -0.159,-0.097 -0.043,0 -0.05,-0.302 -0.05,-2.053 l 0.064,-2.053 c 0.035,0 0.107,-0.047 0.159,-0.105 0.072,-0.08 0.094,-0.143 0.094,-0.262 0,-0.086 0.015,-0.156 0.035,-0.156 z m 1.795,0 c 0.019,0 0.035,0.071 0.035,0.156 a 0.33,0.33 0 0 0 0.094,0.261 c 0.052,0.058 0.124,0.105 0.159,0.105 0.061,0 0.063,0.096 0.063,2.053 l -0.041,2.053 c -0.022,0 -0.094,0.042 -0.158,0.096 -0.108,0.087 -0.117,0.112 -0.117,0.299 0,0.112 -0.015,0.203 -0.035,0.203 -0.02,0 -0.035,-0.088 -0.035,-0.196 0,-0.179 -0.011,-0.205 -0.121,-0.299 -0.067,-0.056 -0.137,-0.103 -0.158,-0.103 -0.021,0 -0.037,-0.64 -0.037,-2.053 l 0.063,-2.053 c 0.035,0 0.107,-0.047 0.159,-0.105 0.072,-0.08 0.094,-0.142 0.094,-0.261 0,-0.086 0.015,-0.156 0.035,-0.156 z"
       stroke="#ffffff"
       stroke-width="0.351"
       id="path535" />
  </g>
</svg>
