<?xml version="1.0" encoding="UTF-8" standalone="no"?>
<svg
   xmlns:dc="http://purl.org/dc/elements/1.1/"
   xmlns:cc="http://creativecommons.org/ns#"
   xmlns:rdf="http://www.w3.org/1999/02/22-rdf-syntax-ns#"
   xmlns:svg="http://www.w3.org/2000/svg"
   xmlns="http://www.w3.org/2000/svg"
   xmlns:sodipodi="http://sodipodi.sourceforge.net/DTD/sodipodi-0.dtd"
   xmlns:inkscape="http://www.inkscape.org/namespaces/inkscape"
   width="281.019"
   height="369.475"
   viewBox="0 0 74.353 97.757"
   version="1.1"
   id="svg211"
   sodipodi:docname="Seal of Purwakarta Regency (1).svg"
   inkscape:version="1.0.1 (3bc2e813f5, 2020-09-07)">
  <metadata
     id="metadata215">
    <rdf:RDF>
      <cc:Work
         rdf:about="">
        <dc:format>image/svg+xml</dc:format>
        <dc:type
           rdf:resource="http://purl.org/dc/dcmitype/StillImage" />
      </cc:Work>
    </rdf:RDF>
  </metadata>
  <sodipodi:namedview
     pagecolor="#ffffff"
     bordercolor="#666666"
     borderopacity="1"
     objecttolerance="10"
     gridtolerance="10"
     guidetolerance="10"
     inkscape:pageopacity="0"
     inkscape:pageshadow="2"
     inkscape:window-width="1366"
     inkscape:window-height="705"
     id="namedview213"
     showgrid="false"
     inkscape:zoom="0.82083792"
     inkscape:cx="264.88079"
     inkscape:cy="213.00602"
     inkscape:window-x="-8"
     inkscape:window-y="-8"
     inkscape:window-maximized="1"
     inkscape:current-layer="svg211"
     inkscape:document-rotation="0" />
  <style
     id="style2"><![CDATA[.B{stroke-width:.265}.C{stroke:#000}.D{fill:gold}.E{fill:none}.F{fill:#fff}.G{opacity:.999}.H{fill:#06a557}.I{fill-rule:evenodd}]]></style>
  <defs
     id="defs15">
    <filter
       id="A"
       x="0"
       width="1"
       y="0"
       height="1"
       color-interpolation-filters="sRGB">
      <feGaussianBlur
         stdDeviation="0"
         id="feGaussianBlur4" />
    </filter>
    <path
       id="B"
       d="M74.946 134.097h.867l.312 2.195.456-2.195h.865l.458 2.195.312-2.195h.863l-.651 3.929h-.895l-.518-2.474-.516 2.474h-.895z" />
    <path
       id="C"
       d="M85.945 137.377h-1.04l-.143.649h-.933l1.111-3.929h.996l1.111 3.929h-.956zm-.192-.85l-.327-1.412-.325 1.412z" />
    <path
       id="D"
       d="M102.75 138.026v-3.929h1.522q.423 0 .647.097.224.097.361.359.137.26.137.635 0 .327-.105.566-.105.236-.288.383-.117.094-.321.155.163.072.238.145.05.048.145.206.097.158.129.244l.441 1.139h-1.032l-.488-1.201q-.093-.233-.165-.303-.099-.091-.224-.091h-.081v1.595zm.917-2.337h.385q.063 0 .242-.054.091-.024.147-.123.058-.099.058-.228 0-.19-.091-.292-.091-.102-.341-.102h-.401z" />
    <path
       id="E"
       d="M289.628 152.759c-1.396 0-2.906-1.871-4.67-1.871s-3.274 1.871-4.67 1.871-2.906-1.871-4.67-1.871-3.274 1.871-4.67 1.871-2.906-1.871-4.67-1.871-3.274 1.871-4.67 1.871-2.906-1.871-4.67-1.871-3.274 1.871-4.67 1.871-2.906-1.871-4.67-1.871" />
    <path
       id="F"
       d="M259.24 190.403c2.859-.174 4.445-1.185 6.059.791-1.45.458-2.696 1.174-6.059-.791z" />
    <path
       id="G"
       d="M256.864 182.432c-1.552-1.288-.991-2.96-.41-4.635.587 1.375 2.248 2.345.41 4.635z" />
    <path
       id="H"
       d="M269.995 187.033c.73-2.321 2.834-1.553 3.123-.297 4.061-1.978 3.954 2.336 2.85 2.85 2.612 1.133.335 3.796-1.14 3.073l-4.832-1.784z" />
    <path
       id="I"
       d="M268.607 192.485c3.014-.936 3.497 1.481 7.732.124-.516-.92-1.139-1.7-2.503-1.512.487-.775 1.137-1.482.545-2.701-1.318-.365-2.407-.27-3.197.421.249-1.008.586-2.016-.446-3.023-3.697 2.393-.762 3.934-2.131 6.691z" />
  </defs>
  <path
     d="M 15.148,1.25 C 13.446,5.36 10.5,11.978 1.25,15.22 V 58.852 C 1.678,80.466 22.103,94.889 37.176,96.5 52.25,94.889 72.675,80.467 73.102,58.852 V 15.22 C 63.852,11.978 60.906,5.36 59.204,1.25 H 37.176 Z"
     stroke-width="2.5"
     class="C F"
     id="path17"
     style="fill:#ffffff" />
  <path
     d="m 5.481,35.53 v 23.252 l 0.174,2.69 h 63.042 l 0.175,-2.69 V 35.53 Z"
     fill="#fff112"
     id="path19" />
  <path
     d="M 68.697,61.473 H 5.655 c 0.908,8.299 5.174,15.273 10.937,20.599 6.238,5.765 14.237,9.333 20.584,10.131 6.347,-0.797 14.346,-4.366 20.584,-10.131 5.763,-5.326 10.028,-12.3 10.937,-20.599 z M 17.823,5.482 c -1.938,3.949 -5.424,9.17 -12.342,12.504 v 17.545 h 63.39 V 17.986 C 61.953,14.652 58.469,9.431 56.531,5.482 H 37.176 Z"
     fill="#01a859"
     id="path21" />
  <g
     id="g1083">
    <path
       d="m 5.481,27.529 h 63.39 V 35.53 H 5.481 Z"
       fill="#ff0000"
       class="G I"
       id="path23" />
    <g
       class="F"
       id="g59"
       transform="translate(-67.824,-104.583)">
      <path
         id="use25"
         d="m 74.946,134.097 h 0.867 l 0.312,2.195 0.456,-2.195 h 0.865 l 0.458,2.195 0.312,-2.195 h 0.863 l -0.651,3.929 h -0.895 l -0.518,-2.474 -0.516,2.474 h -0.895 z" />
      <path
         d="m 79.415,134.097 h 0.915 v 3.929 h -0.915 z m 1.572,0 h 1.71 q 0.427,0 0.655,0.281 0.23,0.281 0.23,0.697 0,0.348 -0.163,0.598 -0.109,0.166 -0.319,0.263 0.319,0.102 0.468,0.351 0.151,0.247 0.151,0.622 0,0.306 -0.107,0.549 -0.107,0.244 -0.292,0.386 -0.115,0.088 -0.347,0.129 -0.308,0.054 -0.409,0.054 h -1.577 z m 0.921,1.541 h 0.397 q 0.214,0 0.296,-0.097 0.085,-0.099 0.085,-0.284 0,-0.172 -0.085,-0.268 -0.083,-0.097 -0.29,-0.097 h -0.403 z m 0,1.544 h 0.466 q 0.236,0 0.333,-0.11 0.097,-0.113 0.097,-0.3 0,-0.174 -0.097,-0.279 -0.095,-0.107 -0.335,-0.107 h -0.464 z"
         id="path27" />
      <path
         id="use29"
         d="m 85.945,137.377 h -1.04 l -0.143,0.649 h -0.933 l 1.111,-3.929 h 0.996 l 1.111,3.929 h -0.956 z m -0.192,-0.85 -0.327,-1.412 -0.325,1.412 z" />
      <path
         id="use31"
         d="m 87.066,134.097 h 0.867 l 0.312,2.195 0.456,-2.195 h 0.865 l 0.458,2.195 0.312,-2.195 h 0.863 l -0.651,3.929 h -0.895 l -0.518,-2.474 -0.516,2.474 h -0.895 z" />
      <path
         id="use33"
         d="m 93.317,137.377 h -1.04 l -0.143,0.649 h -0.933 l 1.111,-3.929 h 0.996 l 1.111,3.929 h -0.956 z m -0.192,-0.85 -0.327,-1.412 -0.325,1.412 z" />
      <path
         d="m 96.091,134.097 h 0.913 v 1.485 l 0.958,-1.485 h 1.214 l -1.077,1.482 1.125,2.447 h -1.125 l -0.623,-1.616 -0.472,0.657 v 0.96 h -0.913 z"
         id="path35" />
      <path
         id="use37"
         d="m 101.345,137.377 h -1.04 l -0.143,0.649 h -0.933 l 1.111,-3.929 h 0.996 l 1.111,3.929 h -0.956 z m -0.192,-0.85 -0.327,-1.412 -0.325,1.412 z" />
      <path
         id="use39"
         d="m 102.75,138.026 v -3.929 h 1.522 q 0.423,0 0.647,0.097 0.224,0.097 0.361,0.359 0.137,0.26 0.137,0.635 0,0.327 -0.105,0.566 -0.105,0.236 -0.288,0.383 -0.117,0.094 -0.321,0.155 0.163,0.072 0.238,0.145 0.05,0.048 0.145,0.206 0.097,0.158 0.129,0.244 l 0.441,1.139 h -1.032 l -0.488,-1.201 q -0.093,-0.233 -0.165,-0.303 -0.099,-0.091 -0.224,-0.091 h -0.081 v 1.595 z m 0.917,-2.337 h 0.385 q 0.063,0 0.242,-0.054 0.091,-0.024 0.147,-0.123 0.058,-0.099 0.058,-0.228 0,-0.19 -0.091,-0.292 -0.091,-0.102 -0.341,-0.102 h -0.401 z" />
      <path
         d="m 105.706,134.097 h 2.776 v 0.97 h -0.931 v 2.959 h -0.913 v -2.959 h -0.931 z"
         id="path41" />
      <path
         id="use43"
         d="m 110.433,137.377 h -1.04 l -0.143,0.649 h -0.933 l 1.111,-3.929 h 0.996 l 1.111,3.929 h -0.956 z m -0.192,-0.85 -0.327,-1.412 -0.325,1.412 z" />
      <path
         d="m 113.215,138.026 v -3.929 h 1.522 q 0.423,0 0.647,0.097 0.224,0.097 0.361,0.359 0.137,0.26 0.137,0.635 0,0.327 -0.105,0.566 -0.105,0.236 -0.288,0.383 -0.117,0.094 -0.321,0.155 0.163,0.072 0.238,0.145 0.05,0.048 0.145,0.206 0.097,0.158 0.129,0.244 l 0.442,1.139 h -1.032 l -0.488,-1.201 q -0.093,-0.233 -0.165,-0.303 -0.099,-0.091 -0.224,-0.091 h -0.081 v 1.595 z m 0.917,-2.337 h 0.385 q 0.063,0 0.242,-0.054 0.091,-0.024 0.147,-0.123 0.058,-0.099 0.058,-0.228 0,-0.19 -0.091,-0.292 -0.091,-0.102 -0.341,-0.102 h -0.401 z"
         id="path45" />
      <path
         id="use47"
         d="m 118.233,137.377 h -1.04 l -0.143,0.649 h -0.933 l 1.111,-3.929 h 0.996 l 1.111,3.929 h -0.956 z m -0.192,-0.85 -0.327,-1.412 -0.325,1.412 z" />
      <path
         d="m 119.63,134.097 h 0.913 v 1.375 h 0.998 v -1.375 h 0.917 v 3.929 h -0.917 v -1.589 h -0.998 v 1.589 h -0.913 z"
         id="path49" />
      <path
         id="use51"
         d="m 124.884,137.377 h -1.04 l -0.143,0.649 h -0.933 l 1.111,-3.929 h 0.996 l 1.111,3.929 h -0.956 z m -0.192,-0.85 -0.327,-1.412 -0.325,1.412 z" />
      <path
         id="use53"
         d="m 126.289,138.026 v -3.929 h 1.522 q 0.423,0 0.647,0.097 0.224,0.097 0.361,0.359 0.137,0.26 0.137,0.635 0,0.327 -0.105,0.566 -0.105,0.236 -0.288,0.383 -0.117,0.094 -0.321,0.155 0.163,0.072 0.238,0.145 0.05,0.048 0.145,0.206 0.097,0.158 0.129,0.244 l 0.441,1.139 h -1.032 l -0.488,-1.201 q -0.093,-0.233 -0.165,-0.303 -0.099,-0.091 -0.224,-0.091 h -0.081 v 1.595 z m 0.917,-2.337 h 0.385 q 0.063,0 0.242,-0.054 0.091,-0.024 0.147,-0.123 0.058,-0.099 0.058,-0.228 0,-0.19 -0.091,-0.292 -0.091,-0.102 -0.341,-0.102 h -0.401 z" />
      <path
         d="m 130.718,134.097 h 0.915 v 2.136 q 0,0.673 -0.091,1.024 -0.089,0.351 -0.361,0.595 -0.27,0.244 -0.694,0.244 -0.448,0 -0.693,-0.161 -0.246,-0.161 -0.381,-0.469 -0.133,-0.311 -0.157,-0.767 l 0.873,-0.158 q 0.002,0.26 0.034,0.386 0.032,0.126 0.109,0.204 0.052,0.051 0.149,0.051 0.153,0 0.224,-0.15 0.073,-0.153 0.073,-0.512 z"
         id="path55" />
      <path
         id="use57"
         d="m 133.954,137.377 h -1.04 l -0.143,0.649 h -0.933 l 1.111,-3.929 h 0.996 l 1.111,3.929 H 134.1 Z m -0.192,-0.85 -0.327,-1.412 -0.325,1.412 z" />
    </g>
  </g>
  <g
     id="g1058">
    <path
       id="rect1039"
       style="opacity:0.999;fill:#ffffff;fill-rule:evenodd;stroke:#4682b4;stroke-width:0.4;stroke-linecap:round;stroke-linejoin:round;fill-opacity:0.54447442"
       d="m 58.192,52.92 c -1.396,0 -2.906,-1.871 -4.67,-1.871 -1.764,0 -3.274,1.871 -4.67,1.871 -1.396,0 -2.906,-1.871 -4.67,-1.871 -1.764,0 -3.274,1.871 -4.67,1.871 -1.396,0 -2.906,-1.871 -4.67,-1.871 -1.764,0 -3.274,1.871 -4.67,1.871 -1.396,0 -2.906,-1.871 -4.67,-1.871 -1.764,0 -3.274,1.871 -4.67,1.871 -1.396,0 -2.906,-1.871 -4.67,-1.871 m 0,0 v -4.744 c 1.764,0 3.274,1.871 4.67,1.871 1.396,0 2.906,-1.871 4.67,-1.871 1.764,0 3.274,1.871 4.67,1.871 1.396,0 2.906,-1.871 4.67,-1.871 1.764,0 3.274,1.871 4.67,1.871 1.396,0 2.906,-1.871 4.67,-1.871 1.764,0 3.274,1.871 4.67,1.871 1.396,0 2.906,-1.871 4.67,-1.871 1.764,0 3.274,1.871 4.67,1.871 l 0,4.744" />
    <path
       style="opacity:0.999;fill:none;fill-rule:evenodd;stroke:#4682b4;stroke-width:0.4;stroke-linecap:round;stroke-linejoin:round"
       d="m 58.192,49.362 c -1.396,0 -2.906,-1.871 -4.67,-1.871 -1.764,0 -3.274,1.871 -4.67,1.871 -1.396,0 -2.906,-1.871 -4.67,-1.871 -1.764,0 -3.274,1.871 -4.67,1.871 -1.396,0 -2.906,-1.871 -4.67,-1.871 -1.764,0 -3.274,1.871 -4.67,1.871 -1.396,0 -2.906,-1.871 -4.67,-1.871 -1.764,0 -3.274,1.871 -4.67,1.871 -1.396,0 -2.906,-1.871 -4.67,-1.871"
       id="path1049" />
    <path
       style="opacity:0.999;fill:none;fill-rule:evenodd;stroke:#4682b4;stroke-width:0.4;stroke-linecap:round;stroke-linejoin:round"
       d="m 58.192,51.734 c -1.396,0 -2.906,-1.871 -4.67,-1.871 -1.764,0 -3.274,1.871 -4.67,1.871 -1.396,0 -2.906,-1.871 -4.67,-1.871 -1.764,0 -3.274,1.871 -4.67,1.871 -1.396,0 -2.906,-1.871 -4.67,-1.871 -1.764,0 -3.274,1.871 -4.67,1.871 -1.396,0 -2.906,-1.871 -4.67,-1.871 -1.764,0 -3.274,1.871 -4.67,1.871 -1.396,0 -2.906,-1.871 -4.67,-1.871"
       id="path1047" />
    <path
       style="opacity:0.999;fill:none;fill-rule:evenodd;stroke:#4682b4;stroke-width:0.4;stroke-linecap:round;stroke-linejoin:round"
       d="m 58.192,50.548 c -1.396,0 -2.906,-1.871 -4.67,-1.871 -1.764,0 -3.274,1.871 -4.67,1.871 -1.396,0 -2.906,-1.871 -4.67,-1.871 -1.764,0 -3.274,1.871 -4.67,1.871 -1.396,0 -2.906,-1.871 -4.67,-1.871 -1.764,0 -3.274,1.871 -4.67,1.871 -1.396,0 -2.906,-1.871 -4.67,-1.871 -1.764,0 -3.274,1.871 -4.67,1.871 -1.396,0 -2.906,-1.871 -4.67,-1.871"
       id="path1045" />
  </g>
  <g
     id="g1062">
    <path
       d="M 15.017,15.498 V 27.529 H 59.335 V 15.498 H 55.926 V 19.23 H 52.517 V 15.498 H 49.108 V 19.23 H 45.699 V 15.498 H 42.29 v 3.732 h -3.409 v -3.732 h -3.409 v 3.732 h -3.409 v -3.732 h -3.409 v 3.732 h -3.409 v -3.732 h -3.409 v 3.732 h -3.41 v -3.732 z"
       class="G I"
       id="path73" />
    <path
       d="m 9.065,35.531 v 10.582 h 4.316 v 5.011 l 6.142,3.492 v -8.031 c 4.123,-4.325 11.488,-5.858 17.654,-5.858 6.166,0 13.53,1.533 17.653,5.858 v 8.031 l 6.142,-3.492 v -5.011 h 4.316 V 35.531 H 37.176 Z"
       id="path75" />
  </g>
  <path
     d="M 21.514,54.323 6.843,63.009 H 37.176 67.509 L 52.838,54.323 H 37.176 Z"
     fill="#ff0000"
     stroke="#8b0000"
     class="B"
     id="path77" />
  <g
     fill="#ff0000"
     stroke="#ffff00"
     stroke-width="0.848"
     class="G I"
     id="g89"
     transform="translate(-67.824,-104.583)">
    <path
       d="m 90.299,168.016 h 5.881 v 4.211 h -5.881 z"
       class="G"
       id="path79" />
    <path
       d="m 96.179,168.016 h 5.881 v 4.211 h -5.881 z"
       class="G"
       id="path81" />
    <path
       d="m 102.06,168.016 h 5.881 v 4.211 h -5.881 z"
       class="G"
       id="path83" />
    <path
       d="m 107.941,168.016 h 5.881 v 4.211 h -5.881 z"
       class="G"
       id="path85" />
    <path
       d="m 113.821,168.016 h 5.881 v 4.211 h -5.881 z"
       class="G"
       id="path87" />
  </g>
  <g
     transform="rotate(-0.81,-7244.5208,16530.832)"
     id="g207">
    <path
       d="m 249.401,175.262 c 3.482,4.368 6.424,8.418 17.719,17.397 1.516,0.671 2.433,1.808 3.569,2.776 l 0.743,-0.843 c -1.308,-0.702 -2.244,-1.168 -3.889,-2.503 -7.929,-5.474 -13.575,-11.712 -18.143,-16.827 z"
       id="path91" />
    <g
       class="B C D"
       id="g103">
      <path
         id="use93"
         d="m 259.24,190.403 c 2.859,-0.174 4.445,-1.185 6.059,0.791 -1.45,0.458 -2.696,1.174 -6.059,-0.791 z" />
      <path
         id="use95"
         d="m 257.059,188.669 c 2.859,-0.174 4.445,-1.185 6.059,0.791 -1.45,0.458 -2.696,1.174 -6.059,-0.791 z" />
      <path
         id="use97"
         d="m 254.705,186.81 c 2.859,-0.174 4.445,-1.185 6.059,0.791 -1.45,0.458 -2.696,1.174 -6.059,-0.791 z" />
      <path
         id="use99"
         d="m 254.903,186.81 c 2.859,-0.174 4.445,-1.185 6.059,0.791 -1.45,0.458 -2.696,1.174 -6.059,-0.791 z" />
      <path
         id="use101"
         d="m 252.375,185.001 c 2.859,-0.174 4.445,-1.185 6.059,0.791 -1.45,0.458 -2.696,1.174 -6.059,-0.791 z" />
    </g>
    <path
       d="m 258.348,185.67 1.363,0.471"
       class="B C E"
       id="path105" />
    <path
       id="use107"
       d="m 249.154,182.845 c 2.859,-0.174 4.445,-1.185 6.059,0.791 -1.45,0.458 -2.696,1.174 -6.059,-0.791 z"
       style="fill:#ffd700;stroke:#000000;stroke-width:0.265" />
    <path
       d="m 255.25,183.638 1.834,0.223"
       class="B C E"
       id="path109" />
    <g
       transform="rotate(5.98,272.3,167.531)"
       class="B C"
       id="g115">
      <path
         id="use111"
         d="m 249.154,182.845 c 2.859,-0.174 4.445,-1.185 6.059,0.791 -1.45,0.458 -2.696,1.174 -6.059,-0.791 z"
         style="fill:#ffd700" />
      <path
         d="m 255.25,183.638 1.834,0.223"
         class="E"
         id="path113" />
    </g>
    <g
       transform="rotate(14.787,268.839,169.894)"
       class="B C"
       id="g121">
      <path
         id="use117"
         d="m 249.154,182.845 c 2.859,-0.174 4.445,-1.185 6.059,0.791 -1.45,0.458 -2.696,1.174 -6.059,-0.791 z"
         style="fill:#ffd700" />
      <path
         d="m 255.25,183.638 1.834,0.223"
         class="E"
         id="path119" />
    </g>
    <g
       transform="matrix(0.884951,0.233606,-0.233606,0.884951,67.041905,-45.038337)"
       class="B C"
       id="g127">
      <path
         id="use123"
         d="m 249.154,182.845 c 2.859,-0.174 4.445,-1.185 6.059,0.791 -1.45,0.458 -2.696,1.174 -6.059,-0.791 z"
         style="fill:#ffd700" />
      <path
         d="m 255.25,183.638 1.741,0.247"
         class="E"
         id="path125" />
    </g>
    <g
       class="C"
       id="g167">
      <g
         class="B"
         id="g135">
        <path
           d="m 246.406,171.558 c 1.652,0.517 3.298,1.045 3.4,4.118 -3.439,-0.899 -3.255,-2.542 -3.4,-4.118 z"
           class="D"
           id="path129" />
        <path
           d="m 250.874,176.027 0.526,1.612"
           class="E"
           id="path131" />
        <path
           d="m 250.874,176.044 c -1.461,-1.212 -0.933,-2.786 -0.386,-4.363 0.553,1.294 2.116,2.207 0.386,4.363 z"
           class="D"
           id="path133" />
      </g>
      <path
         d="m 252.679,178.674 c -1.722,-1.428 -1.099,-3.282 -0.454,-5.141 0.651,1.525 2.493,2.601 0.454,5.141 z"
         stroke-width="0.312"
         class="D"
         id="path137" />
      <g
         class="B"
         id="g143">
        <path
           d="m 254.642,180.162 0.526,1.612"
           class="E"
           id="path139" />
        <path
           d="m 254.642,180.18 c -1.461,-1.212 -0.933,-2.786 -0.386,-4.363 0.553,1.294 2.116,2.207 0.386,4.363 z"
           class="D"
           id="path141" />
      </g>
      <g
         stroke-width="0.282"
         id="g165">
        <path
           d="m 256.864,182.414 0.558,1.713"
           class="E"
           id="path145" />
        <path
           id="use147"
           d="m 256.864,182.432 c -1.552,-1.288 -0.991,-2.96 -0.41,-4.635 0.587,1.375 2.248,2.345 0.41,4.635 z"
           style="fill:#ffd700" />
        <path
           d="m 258.872,184.223 0.558,1.713"
           class="E"
           id="path149" />
        <path
           id="use151"
           d="m 258.872,184.241 c -1.552,-1.288 -0.991,-2.96 -0.41,-4.635 0.587,1.375 2.248,2.345 0.41,4.635 z"
           style="fill:#ffd700" />
        <path
           d="m 260.78,186.007 0.558,1.713"
           class="E"
           id="path153" />
        <path
           id="use155"
           d="m 260.78,186.026 c -1.552,-1.288 -0.991,-2.96 -0.41,-4.635 0.587,1.375 2.248,2.345 0.41,4.635 z"
           style="fill:#ffd700" />
        <path
           d="m 262.713,188.039 0.236,1.118"
           class="E"
           id="path157" />
        <path
           id="use159"
           d="m 262.713,188.058 c -1.552,-1.288 -0.991,-2.96 -0.41,-4.635 0.587,1.375 2.248,2.345 0.41,4.635 z"
           style="fill:#ffd700" />
        <path
           d="m 264.819,190.096 0.236,1.118"
           class="E"
           id="path161" />
        <path
           id="use163"
           d="m 264.819,190.115 c -1.552,-1.288 -0.991,-2.96 -0.41,-4.635 0.587,1.375 2.248,2.345 0.41,4.635 z"
           style="fill:#ffd700" />
      </g>
    </g>
    <path
       d="m 271.284,190.205 c -1.949,1.284 -3.838,2.089 -5.849,3.866 -0.93,0.764 -0.127,1.51 0.644,0.942 1.81,-2.183 3.846,-2.898 5.774,-4.312 z"
       id="path169" />
    <g
       transform="matrix(0.672318,-0.061508,0.061508,0.672318,95.373504,64.42325)"
       class="B C"
       id="g175">
      <path
         id="use171"
         d="m 269.995,187.033 c 0.73,-2.321 2.834,-1.553 3.123,-0.297 4.061,-1.978 3.954,2.336 2.85,2.85 2.612,1.133 0.335,3.796 -1.14,3.073 l -4.832,-1.784 z"
         style="fill:#ffffff" />
      <path
         id="use173"
         d="m 268.607,192.485 c 3.014,-0.936 3.497,1.481 7.732,0.124 -0.516,-0.92 -1.139,-1.7 -2.503,-1.512 0.487,-0.775 1.137,-1.482 0.545,-2.701 -1.318,-0.365 -2.407,-0.27 -3.197,0.421 0.249,-1.008 0.586,-2.016 -0.446,-3.023 -3.697,2.393 -0.762,3.934 -2.131,6.691 z"
         style="fill:#06a557" />
    </g>
    <g
       transform="matrix(0.806153,-0.073752,0.073752,0.806153,53.642296,44.819291)"
       class="B C"
       id="g181">
      <path
         id="use177"
         d="m 269.995,187.033 c 0.73,-2.321 2.834,-1.553 3.123,-0.297 4.061,-1.978 3.954,2.336 2.85,2.85 2.612,1.133 0.335,3.796 -1.14,3.073 l -4.832,-1.784 z"
         style="fill:#ffffff" />
      <path
         id="use179"
         d="m 268.607,192.485 c 3.014,-0.936 3.497,1.481 7.732,0.124 -0.516,-0.92 -1.139,-1.7 -2.503,-1.512 0.487,-0.775 1.137,-1.482 0.545,-2.701 -1.318,-0.365 -2.407,-0.27 -3.197,0.421 0.249,-1.008 0.586,-2.016 -0.446,-3.023 -3.697,2.393 -0.762,3.934 -2.131,6.691 z"
         style="fill:#06a557" />
    </g>
    <g
       transform="matrix(0.845277,-0.077331,0.077331,0.845277,38.739108,41.313443)"
       class="B C"
       id="g187">
      <path
         id="use183"
         d="m 269.995,187.033 c 0.73,-2.321 2.834,-1.553 3.123,-0.297 4.061,-1.978 3.954,2.336 2.85,2.85 2.612,1.133 0.335,3.796 -1.14,3.073 l -4.832,-1.784 z"
         style="fill:#ffffff" />
      <path
         id="use185"
         d="m 268.607,192.485 c 3.014,-0.936 3.497,1.481 7.732,0.124 -0.516,-0.92 -1.139,-1.7 -2.503,-1.512 0.487,-0.775 1.137,-1.482 0.545,-2.701 -1.318,-0.365 -2.407,-0.27 -3.197,0.421 0.249,-1.008 0.586,-2.016 -0.446,-3.023 -3.697,2.393 -0.762,3.934 -2.131,6.691 z"
         style="fill:#06a557" />
    </g>
    <g
       transform="matrix(0.912195,-0.083453,0.083453,0.912195,16.039634,33.543589)"
       class="B C"
       id="g193">
      <path
         id="use189"
         d="m 269.995,187.033 c 0.73,-2.321 2.834,-1.553 3.123,-0.297 4.061,-1.978 3.954,2.336 2.85,2.85 2.612,1.133 0.335,3.796 -1.14,3.073 l -4.832,-1.784 z"
         style="fill:#ffffff" />
      <path
         id="use191"
         d="m 268.607,192.485 c 3.014,-0.936 3.497,1.481 7.732,0.124 -0.516,-0.92 -1.139,-1.7 -2.503,-1.512 0.487,-0.775 1.137,-1.482 0.545,-2.701 -1.318,-0.365 -2.407,-0.27 -3.197,0.421 0.249,-1.008 0.586,-2.016 -0.446,-3.023 -3.697,2.393 -0.762,3.934 -2.131,6.691 z"
         style="fill:#06a557" />
    </g>
    <g
       transform="matrix(0.95123,-0.087024,0.087024,0.95123,0.617457,29.952891)"
       class="B C"
       id="g199">
      <path
         id="use195"
         d="m 269.995,187.033 c 0.73,-2.321 2.834,-1.553 3.123,-0.297 4.061,-1.978 3.954,2.336 2.85,2.85 2.612,1.133 0.335,3.796 -1.14,3.073 l -4.832,-1.784 z"
         style="fill:#ffffff" />
      <path
         id="use197"
         d="m 268.607,192.485 c 3.014,-0.936 3.497,1.481 7.732,0.124 -0.516,-0.92 -1.139,-1.7 -2.503,-1.512 0.487,-0.775 1.137,-1.482 0.545,-2.701 -1.318,-0.365 -2.407,-0.27 -3.197,0.421 0.249,-1.008 0.586,-2.016 -0.446,-3.023 -3.697,2.393 -0.762,3.934 -2.131,6.691 z"
         style="fill:#06a557" />
    </g>
    <g
       class="B C"
       id="g205">
      <path
         id="use201"
         d="m 269.995,187.033 c 0.73,-2.321 2.834,-1.553 3.123,-0.297 4.061,-1.978 3.954,2.336 2.85,2.85 2.612,1.133 0.335,3.796 -1.14,3.073 l -4.832,-1.784 z"
         style="fill:#ffffff" />
      <path
         id="use203"
         d="m 268.607,192.485 c 3.014,-0.936 3.497,1.481 7.732,0.124 -0.516,-0.92 -1.139,-1.7 -2.503,-1.512 0.487,-0.775 1.137,-1.482 0.545,-2.701 -1.318,-0.365 -2.407,-0.27 -3.197,0.421 0.249,-1.008 0.586,-2.016 -0.446,-3.023 -3.697,2.393 -0.762,3.934 -2.131,6.691 z"
         style="fill:#06a557" />
    </g>
  </g>
</svg>
