<?xml version="1.0" encoding="UTF-8" standalone="no"?>
<svg
   xmlns:dc="http://purl.org/dc/elements/1.1/"
   xmlns:cc="http://creativecommons.org/ns#"
   xmlns:rdf="http://www.w3.org/1999/02/22-rdf-syntax-ns#"
   xmlns:svg="http://www.w3.org/2000/svg"
   xmlns="http://www.w3.org/2000/svg"
   xmlns:xlink="http://www.w3.org/1999/xlink"
   xmlns:sodipodi="http://sodipodi.sourceforge.net/DTD/sodipodi-0.dtd"
   xmlns:inkscape="http://www.inkscape.org/namespaces/inkscape"
   width="377.813"
   height="438.943"
   viewBox="0 0 99.963 116.137"
   version="1.1"
   id="svg444"
   sodipodi:docname="Seal of Bondowoso Regency.2022_01_19_20_06_52.0.svg"
   inkscape:version="1.0.1 (3bc2e813f5, 2020-09-07)">
  <metadata
     id="metadata448">
    <rdf:RDF>
      <cc:Work
         rdf:about="">
        <dc:format>image/svg+xml</dc:format>
        <dc:type
           rdf:resource="http://purl.org/dc/dcmitype/StillImage" />
      </cc:Work>
    </rdf:RDF>
  </metadata>
  <sodipodi:namedview
     pagecolor="#ffffff"
     bordercolor="#666666"
     borderopacity="1"
     objecttolerance="10"
     gridtolerance="10"
     guidetolerance="10"
     inkscape:pageopacity="0"
     inkscape:pageshadow="2"
     inkscape:window-width="1366"
     inkscape:window-height="705"
     id="namedview446"
     showgrid="false"
     inkscape:zoom="0.97712327"
     inkscape:cx="298.40922"
     inkscape:cy="131.74004"
     inkscape:window-x="-8"
     inkscape:window-y="-8"
     inkscape:window-maximized="1"
     inkscape:current-layer="svg444"
     inkscape:document-rotation="0"
     inkscape:snap-global="false" />
  <style
     id="style2"><![CDATA[.B{opacity:.999}.C{stroke-linecap:round}.D{stroke:#000}.E{fill:none}.F{stroke-linejoin:round}.G{fill:#fff}.H{stroke:gray}.I{stroke:#696969}.J{stroke-width:.265}.K{fill-rule:evenodd}.L{stroke:#464646}.M{fill:silver}.N{fill:#d3d3d3}.O{fill:#dcdcdc}.P{stroke-width:.159}.Q{stroke-width:.556}.R{stroke-width:.083}.S{stroke-width:.365}]]></style>
  <defs
     id="defs62">
    <linearGradient
       id="A"
       gradientUnits="userSpaceOnUse">
      <stop
         offset="0"
         stop-color="#fff"
         id="stop4" />
      <stop
         offset="1"
         stop-color="#acacac"
         id="stop6" />
    </linearGradient>
    <linearGradient
       id="B"
       gradientUnits="userSpaceOnUse">
      <stop
         offset="0"
         stop-color="#fff"
         id="stop9" />
      <stop
         offset="1"
         stop-color="#acacac"
         id="stop11" />
    </linearGradient>
    <linearGradient
       xlink:href="#A"
       id="C"
       x1="575.224"
       y1="87.321"
       x2="610.447"
       y2="87.321" />
    <linearGradient
       xlink:href="#A"
       id="D"
       x1="578.619"
       y1="99.911"
       x2="601.43"
       y2="99.911" />
    <linearGradient
       xlink:href="#B"
       id="E"
       x1="124.98"
       y1="156.553"
       x2="147.421"
       y2="156.553" />
    <linearGradient
       xlink:href="#B"
       id="F"
       x1="190.242"
       y1="156.553"
       x2="167.801"
       y2="156.553" />
    <linearGradient
       xlink:href="#A"
       id="G"
       x1="149.304"
       y1="102.735"
       x2="165.917"
       y2="102.735"
       gradientTransform="translate(-107.629,-71.115)" />
    <radialGradient
       id="H"
       gradientTransform="matrix(-0.96592583,-0.25881905,0.23244332,-0.8674903,178.43947,142.81579)"
       cx="156.817"
       cy="95.607"
       fx="156.817"
       fy="95.607"
       r="46.579"
       gradientUnits="userSpaceOnUse">
      <stop
         offset="0"
         stop-color="#fff9b0"
         id="stop19" />
      <stop
         offset="1"
         stop-color="#ffef20"
         id="stop21" />
    </radialGradient>
    <linearGradient
       xlink:href="#B"
       id="I"
       x1="353.732"
       y1="143.393"
       x2="351.37"
       y2="128.064" />
    <linearGradient
       xlink:href="#A"
       id="J"
       x1="351.277"
       y1="139.321"
       x2="356.194"
       y2="127.478" />
    <linearGradient
       xlink:href="#B"
       id="K"
       x1="353.732"
       y1="143.393"
       x2="351.37"
       y2="128.064" />
    <linearGradient
       xlink:href="#B"
       id="L"
       x1="929.551"
       y1="265.227"
       x2="937.558"
       y2="265.227" />
    <linearGradient
       xlink:href="#B"
       id="M"
       x1="929.551"
       y1="265.227"
       x2="937.558"
       y2="265.227" />
    <linearGradient
       xlink:href="#B"
       id="N"
       x1="153.01"
       y1="150.314"
       x2="175.466"
       y2="150.314"
       gradientTransform="translate(-107.629,-71.115)" />
    <path
       id="O"
       d="M121.941 108.573c-.666 8.359-8.464 12.301-8.032 25.041.613 18.086 28.659 25.993 35.624 17.387-3.921-1.109 3.121-13.461-12.473-18.804-4.596-1.744-11.511-2.448-11.528-11.717-.008-4.085 2.146-8.301-3.591-11.906z" />
    <path
       id="P"
       d="M121.941 108.573c5.116 7.273-4.543 14.391.241 23.612 3.636 7.009 9.062 13.854 27.351 18.816" />
    <path
       id="Q"
       d="M122.931 148.863l5.996.759c1.326.098 2.611-.525 3.947-.223 1.783.339 3.621.738 5.426.307.893-.385 2.203-.75 2.827-1.446" />
    <path
       id="R"
       d="M137.06 132.196c.593 1.333 1.339 2.646 1.409 4.143.159 1.666.831 3.376.148 5.018-.255 1.288-.272 2.632.654 3.662.522 1.129 1.532 2.019 1.856 3.241" />
    <path
       id="S"
       d="M115.056 139.238c5.051 3.007 10.419 3.403 15.821 3.516" />
    <path
       id="T"
       d="M114.372 127.583c2.473 3.222 5.477 5.586 9.108 6.937" />
    <path
       id="U"
       d="M125.532 120.479c-1.158-.906-4.85 9.644-4.02 10.185" />
    <path
       id="V"
       d="M118.478 117.726c.525 2.201 1.96 3.497 3.092 4.012" />
    <path
       id="W"
       d="M149.957 89.343c.194.776.011 1.762-.969 1.417" />
    <path
       id="X"
       d="M151.776 88.445c1.012.059.895-.509.803-1.063" />
    <path
       id="Y"
       d="M149.059 84.146c.001-.283-.008-1.444 1.063-1.583" />
    <path
       id="Z"
       d="M148.728 81.429c-1.023.304-1.127 1.094-.78 1.654" />
    <path
       id="a"
       d="M142.563 78.901c-.096.773-.85 1.509.071 2.339" />
    <path
       id="b"
       d="M144.334 79.09c-.96.857-.007 1.678.496 1.961" />
    <path
       id="c"
       d="M165.265 89.343c-.194.776-.011 1.762.969 1.417" />
    <path
       id="d"
       d="M163.446 88.445c-1.012.059-.895-.509-.803-1.063" />
    <path
       id="e"
       d="M166.163 84.146c-.001-.283.008-1.444-1.063-1.583" />
    <path
       id="f"
       d="M166.493 81.429c1.023.304 1.127 1.094.78 1.654" />
    <path
       id="g"
       d="M172.659 78.901c.096.773.85 1.509-.071 2.339" />
    <path
       id="h"
       d="M170.887 79.09c.96.857.007 1.678-.496 1.961" />
    <path
       id="i"
       d="M355.07 133.331c.209-.087.315-.329.227-.567l-.019-.047c-.122-.254-.407-.339-.617-.212.206-.125.273-.419.07-.661-.006-.008-.013-.015-.02-.023a.45.45 0 0 0-.385-.179v7.101h1.229c.089.028.186.025.275-.014a.47.47 0 0 0 .27-.342c.057-.276-.115-.512-.356-.543.241.031.467-.155.483-.433s-.186-.488-.43-.486c.244-.002.444-.216.427-.489s-.241-.46-.483-.433c.211-.024.374-.202.381-.433a.46.46 0 0 0-.006-.093c-.041-.266-.278-.433-.518-.386.24-.048.394-.293.33-.556s-.317-.409-.55-.339c.234-.07.365-.329.274-.586s-.357-.376-.582-.282" />
    <path
       id="j"
       d="M354.902 133.331c.161-.087.244-.329.176-.567-.004-.016-.009-.031-.015-.047-.094-.254-.315-.339-.477-.212.159-.125.211-.419.054-.661l-.015-.023c-.058-.114-.18-.185-.298-.179v7.101h.951c.069.028.144.025.213-.014.105-.057.184-.185.209-.342.044-.276-.089-.512-.275-.543.187.031.361-.155.374-.433s-.144-.488-.333-.486c.189-.002.343-.216.33-.489s-.186-.46-.374-.433c.163-.024.29-.202.295-.433.001-.031-.001-.062-.004-.093-.032-.266-.215-.433-.4-.386.185-.048.305-.293.255-.556s-.245-.409-.426-.339c.181-.07.283-.329.212-.586s-.276-.376-.451-.282" />
    <path
       id="k"
       d="M354.648 133.331c.09-.087.136-.329.098-.567l-.008-.047c-.053-.254-.176-.339-.266-.212.089-.125.118-.419.03-.661l-.009-.023c-.033-.114-.101-.185-.166-.179v7.101h.53c.039.028.08.025.119-.014.058-.057.103-.185.117-.342.025-.276-.049-.512-.153-.543.104.031.202-.155.209-.433s-.08-.488-.186-.486c.105-.002.191-.216.184-.489s-.104-.46-.209-.433c.091-.024.162-.202.164-.433l-.003-.093c-.018-.266-.12-.433-.223-.386.103-.048.17-.293.142-.556s-.137-.409-.238-.339c.101-.07.158-.329.118-.586s-.154-.376-.251-.282" />
    <path
       id="l"
       d="M353.582 133.331c-.209-.087-.315-.329-.227-.567l.019-.047c.122-.254.407-.339.617-.212-.206-.125-.273-.419-.07-.661.006-.008.013-.015.02-.023a.45.45 0 0 1 .385-.179v7.101h-1.229c-.089.028-.186.025-.275-.014a.47.47 0 0 1-.27-.342c-.057-.276.115-.512.356-.543-.241.031-.467-.155-.483-.433s.186-.488.43-.486c-.244-.002-.444-.216-.427-.489s.241-.46.483-.433c-.211-.024-.374-.202-.381-.433-.001-.031.001-.062.006-.093.041-.266.278-.433.518-.386-.24-.048-.394-.293-.33-.556s.317-.409.55-.339c-.234-.07-.365-.329-.274-.586s.357-.376.582-.282" />
    <path
       id="m"
       d="M353.751 133.331c-.161-.087-.244-.329-.176-.567.004-.016.009-.031.015-.047.094-.254.315-.339.477-.212-.159-.125-.211-.419-.054-.661l.015-.023c.058-.114.18-.185.298-.179v7.101h-.951c-.069.028-.144.025-.213-.014-.105-.057-.184-.185-.209-.342-.044-.276.089-.512.275-.543-.187.031-.361-.155-.374-.433s.144-.488.333-.486c-.189-.002-.343-.216-.33-.489s.186-.46.374-.433c-.163-.024-.29-.202-.295-.433-.001-.031.001-.062.004-.093.032-.266.215-.433.4-.386-.185-.048-.305-.293-.255-.556s.245-.409.426-.339c-.181-.07-.283-.329-.212-.586s.276-.376.451-.282" />
    <path
       id="n"
       d="M354.005 133.331c-.09-.087-.136-.329-.098-.567l.008-.047c.053-.254.176-.339.266-.212-.089-.125-.118-.419-.03-.661l.009-.023c.033-.114.101-.185.166-.179v7.101h-.53c-.039.028-.08.025-.119-.014-.058-.057-.103-.185-.117-.342-.025-.276.049-.512.153-.543-.104.031-.202-.155-.209-.433s.08-.488.186-.486c-.105-.002-.191-.216-.184-.489s.104-.46.209-.433c-.091-.024-.162-.202-.164-.433l.003-.093c.018-.266.12-.433.223-.386-.103-.048-.17-.293-.142-.556s.137-.409.238-.339c-.101-.07-.158-.329-.118-.586s.154-.376.251-.282" />
    <path
       id="o"
       d="M354.326 131.643c-.031-.007-.063.064-.078.179-.002.007-.003.015-.004.023-.041.242-.027.535.014.661-.042-.127-.1-.042-.125.212l-.004.047c-.018.238.004.48.046.567-.046-.094-.099.024-.118.282s.008.516.055.586c-.047-.07-.098.076-.111.339s.018.508.067.556c-.048-.048-.096.12-.105.386l-.001.093c.001.231.034.409.077.433-.049-.027-.094.16-.098.433s.037.488.086.489c-.049-.002-.09.21-.087.486s.049.464.098.433c-.049.031-.083.268-.072.543.007.157.027.285.055.342.018.038.038.041.055.014h.248.248c.018.028.038.025.056-.014.027-.057.048-.185.055-.342.012-.276-.023-.512-.072-.543.049.031.094-.155.098-.433s-.038-.488-.087-.486c.049-.002.09-.216.086-.489s-.048-.46-.098-.433c.043-.024.076-.202.077-.433l-.001-.093c-.008-.266-.056-.433-.105-.386.048-.048.08-.293.067-.556s-.064-.409-.111-.339c.047-.07.074-.329.055-.586s-.072-.375-.117-.282c.042-.088.063-.329.046-.567l-.004-.047c-.025-.254-.082-.339-.125-.212.042-.125.055-.419.014-.661-.001-.008-.003-.015-.004-.023-.015-.114-.047-.185-.078-.179z" />
    <path
       id="p"
       d="M354.326 131.643a.45.45 0 0 0-.384.179c-.007.007-.014.015-.02.023-.176.21-.149.459-.003.603a.27.27 0 0 0-.067.005.45.45 0 0 0-.476.264l-.019.047a.44.44 0 0 0 .189.549c-.222-.06-.46.059-.545.3-.091.257.04.516.274.586-.234-.07-.486.076-.55.339s.09.508.33.556c-.24-.048-.476.12-.518.386-.005.031-.006.062-.006.093.007.231.17.409.381.433-.243-.027-.466.16-.483.433s.182.488.427.489c-.244-.002-.446.21-.43.486s.242.464.483.433c-.241.031-.413.268-.356.543a.47.47 0 0 0 .27.342c.089.038.186.041.275.014h.098c.06.023.122.023.18 0h.32c.033.023.068.023.1 0h.235c.016.023.032.023.047 0h.248.248c.015.023.031.023.047 0h.235c.033.023.067.023.101 0h.32c.058.023.121.023.18 0h.098c.089.028.186.025.275-.014a.47.47 0 0 0 .27-.342c.057-.276-.115-.512-.356-.543.241.031.467-.155.483-.433s-.186-.488-.43-.486c.244-.002.444-.216.427-.489s-.241-.46-.483-.433c.211-.024.374-.202.381-.433a.46.46 0 0 0-.006-.093c-.041-.266-.278-.433-.518-.386.24-.048.394-.293.33-.556s-.317-.409-.55-.339c.234-.07.365-.329.274-.586-.086-.241-.324-.36-.538-.297a.45.45 0 0 0 .183-.552l-.019-.047a.45.45 0 0 0-.476-.264c-.022-.005-.045-.007-.067-.005.145-.144.173-.393-.003-.603-.006-.008-.013-.015-.02-.023-.075-.114-.231-.184-.382-.179z" />
    <path
       id="q"
       d="M354.326 138.744v2.29l-.404-.108-1.158-1.273c-.389-.761-.124-1.622-.484-2.404-.701-.896-.475-.762.631-1.243.716.567 1.246 1.398 1.415 2.739z" />
    <path
       id="r"
       d="M352.911 136.005c.495.186.924.656 1.046 1.385-.95-.416-2.592.338-2.816 1.108.098-1.102.311-2.821 1.77-2.493z" />
    <path
       id="s"
       d="M935.66 260.912l-3.742.031h-.019-3.715l-1.219 4.994-2.783.102.723 3.506h7.012.002 6.693z" />
    <path
       id="t"
       d="M144.086 162.114q0-.85.435-1.34.437-.492 1.208-.492.757 0 1.173.478.418.475.418 1.326 0 .874-.418 1.368-.416.492-1.211.492-.817 0-1.211-.478-.394-.48-.394-1.354zm.521 0q0 .681.277 1.048.279.368.802.368 1.113 0 1.113-1.45 0-1.383-1.07-1.383-1.123 0-1.123 1.416zm1.158-2.023z" />
    <linearGradient
       inkscape:collect="always"
       xlink:href="#A"
       id="linearGradient1273"
       x1="351.277"
       y1="139.321"
       x2="356.194"
       y2="127.478" />
    <linearGradient
       inkscape:collect="always"
       xlink:href="#B"
       id="linearGradient1275"
       x1="353.732"
       y1="143.393"
       x2="351.37"
       y2="128.064" />
    <linearGradient
       inkscape:collect="always"
       xlink:href="#A"
       id="linearGradient1277"
       x1="351.277"
       y1="139.321"
       x2="356.194"
       y2="127.478" />
  </defs>
  <path
     d="m 13.756,3.535 c -0.582,2.762 -1.443,5.511 -2.992,7.961 -1.634,2.583 -4.011,4.849 -7.023,6.09 V 27.84 c 1.448,0.927 2.852,2.039 3.803,3.826 1.359,2.553 1.354,5.835 0.119,9.369 -2.381,6.816 -4.342,10.863 -4.109,27.369 0.153,10.885 5.445,20.103 13.471,27.252 8.026,7.149 18.773,12.048 29.09,13.865 1.543,0.272 2.714,0.884 3.869,1.629 1.155,-0.745 2.327,-1.357 3.869,-1.629 10.316,-1.817 21.065,-6.717 29.09,-13.865 8.025,-7.148 13.315,-16.367 13.469,-27.252 0.232,-16.506 -1.728,-20.553 -4.109,-27.369 -1.235,-3.534 -1.239,-6.816 0.121,-9.369 0.951,-1.787 2.355,-2.899 3.803,-3.826 V 17.586 C 93.214,16.345 90.837,14.079 89.204,11.496 87.655,9.047 86.794,6.297 86.212,3.535 H 49.985 Z"
     opacity="0.998"
     fill="url(#H)"
     stroke="#ffffff"
     stroke-width="0.263"
     stroke-opacity="0"
     id="path64"
     style="fill:url(#H)" />
  <g
     id="g1689">
    <g
       stroke="#8c9e0b"
       class="Q"
       id="g86"
       transform="translate(-107.629,-71.115)">
      <use
         xlink:href="#O"
         fill="#c2dc14"
         id="use66"
         x="0"
         y="0"
         width="100%"
         height="100%" />
      <g
         class="E"
         id="g84">
        <use
           xlink:href="#P"
           id="use68"
           x="0"
           y="0"
           width="100%"
           height="100%" />
        <use
           xlink:href="#Q"
           id="use70"
           x="0"
           y="0"
           width="100%"
           height="100%" />
        <use
           xlink:href="#R"
           id="use72"
           x="0"
           y="0"
           width="100%"
           height="100%" />
        <use
           xlink:href="#S"
           id="use74"
           x="0"
           y="0"
           width="100%"
           height="100%" />
        <path
           d="m 129.467,129.083 c -1.471,4.758 0.5,9.159 1.41,13.671"
           id="path76" />
        <use
           xlink:href="#T"
           id="use78"
           x="0"
           y="0"
           width="100%"
           height="100%" />
        <use
           xlink:href="#U"
           id="use80"
           x="0"
           y="0"
           width="100%"
           height="100%" />
        <use
           xlink:href="#V"
           id="use82"
           x="0"
           y="0"
           width="100%"
           height="100%" />
      </g>
    </g>
    <g
       transform="matrix(-1,0,0,1,313.04348,-71.115)"
       stroke="#8c9e0b"
       class="Q"
       id="g108">
      <use
         xlink:href="#O"
         x="105.45"
         fill="#c2dc14"
         id="use88"
         y="0"
         width="100%"
         height="100%" />
      <g
         class="E"
         id="g106">
        <use
           xlink:href="#P"
           x="105.45"
           id="use90"
           y="0"
           width="100%"
           height="100%" />
        <use
           xlink:href="#Q"
           x="105.45"
           id="use92"
           y="0"
           width="100%"
           height="100%" />
        <use
           xlink:href="#R"
           x="105.45"
           id="use94"
           y="0"
           width="100%"
           height="100%" />
        <use
           xlink:href="#S"
           x="105.45"
           id="use96"
           y="0"
           width="100%"
           height="100%" />
        <path
           d="m 234.917,129.083 c -1.471,4.758 0.5,9.159 1.41,13.671"
           id="path98" />
        <use
           xlink:href="#T"
           x="105.45"
           id="use100"
           y="0"
           width="100%"
           height="100%" />
        <use
           xlink:href="#U"
           x="105.45"
           id="use102"
           y="0"
           width="100%"
           height="100%" />
        <use
           xlink:href="#V"
           x="105.45"
           id="use104"
           y="0"
           width="100%"
           height="100%" />
      </g>
    </g>
  </g>
  <g
     id="g1768">
    <path
       d="m 54.14,15.251 c -0.248,1.877 -0.241,3.532 2.362,2.93 1.002,3.607 3.974,3.966 3.874,-0.756 -0.011,0.429 3.422,2.053 3.78,-2.079 1.44,1.547 5.625,-0.584 3.307,-3.024 2.361,0.337 6.853,-0.617 3.59,-5.575 4.671,0.743 4.108,-1.979 4.063,-3.212 H 24.845 c -0.044,1.233 -0.608,3.954 4.063,3.212 -3.262,4.959 1.229,5.913 3.59,5.575 -2.318,2.44 1.867,4.57 3.307,3.024 0.358,4.132 3.791,2.508 3.78,2.079 -0.1,4.722 2.872,4.363 3.874,0.756 2.603,0.602 2.61,-1.053 2.362,-2.93 0.9,-2 3.878,-2.389 4.158,-1.878 0.28,-0.511 3.258,-0.122 4.158,1.878 z"
       fill="#f3f3f3"
       class="J L"
       id="path110" />
    <path
       d="m 30.988,3.535 c -0.422,0.627 -1.603,1.24 -0.488,1.966 0.898,0.579 1.463,2.066 0.43,2.782 -0.805,0.164 -1.969,0.973 -0.976,1.751 0.882,0.742 2.091,0.632 3.127,0.876 1.068,0.448 1.073,1.731 1.6,2.605 0.355,0.825 1.587,1.174 2.243,0.538 0.306,-0.928 1.168,-1.213 1.431,-2.091 0.42,-0.596 0.993,-1.13 0.835,-1.938 -0.218,-1.035 0.542,-1.863 1.571,-1.896 1.097,-0.352 2.053,0.33 2.464,1.297 0.833,0.382 1.607,1.074 1.268,2.121 -0.288,1.503 -0.359,3.234 -1.536,4.365 -1.002,0.221 -0.453,-1.487 -0.989,-1.96 -0.587,-0.801 -1.757,-0.766 -2.618,-0.598 -0.936,0.484 -0.753,1.804 -0.049,2.408 0.751,0.797 1.673,1.781 2.874,1.28 1.233,-0.209 1.309,-1.743 2.421,-2.136 1.257,-0.34 1.343,-1.824 2.349,-2.458 0.945,-0.391 2.213,-0.534 3.035,0.206 0.822,-0.741 2.09,-0.598 3.035,-0.206 1.006,0.635 1.091,2.118 2.349,2.458 1.111,0.394 1.188,1.928 2.421,2.136 1.201,0.501 2.124,-0.483 2.874,-1.28 0.704,-0.604 0.887,-1.924 -0.049,-2.408 -0.861,-0.167 -2.031,-0.202 -2.618,0.598 -0.536,0.473 0.014,2.181 -0.989,1.96 -1.177,-1.131 -1.248,-2.862 -1.536,-4.365 -0.339,-1.048 0.434,-1.739 1.267,-2.121 0.412,-0.967 1.368,-1.649 2.465,-1.297 1.029,0.033 1.789,0.861 1.57,1.896 -0.159,0.809 0.415,1.342 0.835,1.938 0.263,0.878 1.125,1.163 1.431,2.091 0.656,0.636 1.888,0.288 2.243,-0.538 0.527,-0.874 0.533,-2.157 1.6,-2.605 1.037,-0.243 2.245,-0.134 3.127,-0.876 C 70.998,9.256 69.835,8.447 69.029,8.283 67.997,7.567 68.561,6.08 69.459,5.501 70.574,4.775 69.393,4.161 68.971,3.535 H 49.978 Z"
       fill="#fafafa"
       id="path112" />
    <g
       class="E J C"
       id="g170"
       transform="translate(-107.629,-71.115)">
      <g
         class="D"
         id="g126">
        <use
           xlink:href="#W"
           id="use114"
           x="0"
           y="0"
           width="100%"
           height="100%" />
        <use
           xlink:href="#X"
           id="use116"
           x="0"
           y="0"
           width="100%"
           height="100%" />
        <use
           xlink:href="#Y"
           id="use118"
           x="0"
           y="0"
           width="100%"
           height="100%" />
        <use
           xlink:href="#Z"
           id="use120"
           x="0"
           y="0"
           width="100%"
           height="100%" />
        <use
           xlink:href="#a"
           id="use122"
           x="0"
           y="0"
           width="100%"
           height="100%" />
        <use
           xlink:href="#b"
           id="use124"
           x="0"
           y="0"
           width="100%"
           height="100%" />
      </g>
      <use
         xlink:href="#W"
         class="L"
         id="use128"
         x="0"
         y="0"
         width="100%"
         height="100%" />
      <use
         xlink:href="#X"
         class="D"
         id="use130"
         x="0"
         y="0"
         width="100%"
         height="100%" />
      <g
         class="L"
         id="g140">
        <use
           xlink:href="#Y"
           id="use132"
           x="0"
           y="0"
           width="100%"
           height="100%" />
        <use
           xlink:href="#Z"
           id="use134"
           x="0"
           y="0"
           width="100%"
           height="100%" />
        <use
           xlink:href="#a"
           id="use136"
           x="0"
           y="0"
           width="100%"
           height="100%" />
        <use
           xlink:href="#b"
           id="use138"
           x="0"
           y="0"
           width="100%"
           height="100%" />
      </g>
      <g
         class="D"
         id="g154">
        <use
           xlink:href="#c"
           id="use142"
           x="0"
           y="0"
           width="100%"
           height="100%" />
        <use
           xlink:href="#d"
           id="use144"
           x="0"
           y="0"
           width="100%"
           height="100%" />
        <use
           xlink:href="#e"
           id="use146"
           x="0"
           y="0"
           width="100%"
           height="100%" />
        <use
           xlink:href="#f"
           id="use148"
           x="0"
           y="0"
           width="100%"
           height="100%" />
        <use
           xlink:href="#g"
           id="use150"
           x="0"
           y="0"
           width="100%"
           height="100%" />
        <use
           xlink:href="#h"
           id="use152"
           x="0"
           y="0"
           width="100%"
           height="100%" />
      </g>
      <g
         class="L"
         id="g168">
        <use
           xlink:href="#c"
           id="use156"
           x="0"
           y="0"
           width="100%"
           height="100%" />
        <use
           xlink:href="#d"
           id="use158"
           x="0"
           y="0"
           width="100%"
           height="100%" />
        <use
           xlink:href="#e"
           id="use160"
           x="0"
           y="0"
           width="100%"
           height="100%" />
        <use
           xlink:href="#f"
           id="use162"
           x="0"
           y="0"
           width="100%"
           height="100%" />
        <use
           xlink:href="#g"
           id="use164"
           x="0"
           y="0"
           width="100%"
           height="100%" />
        <use
           xlink:href="#h"
           id="use166"
           x="0"
           y="0"
           width="100%"
           height="100%" />
      </g>
    </g>
    <path
       d="m 51.176,17.054 c 0.185,0.075 0.25,0.303 0.294,0.477 -0.013,0.089 -0.063,0.395 0.089,0.232 0.137,-0.169 0.301,-0.353 0.257,-0.586 -0.015,-0.214 0.04,-0.443 -0.079,-0.637 -0.095,-0.271 0.294,-0.128 0.366,0.008 0.12,0.156 0.194,0.345 0.267,0.527 0.093,0.195 0.075,0.425 0.035,0.63 a 2.7,2.7 0 0 1 -0.315,0.54 c -0.127,0.152 0.091,0.279 0.116,0.428 0.114,0.17 0.186,0.363 0.175,0.571 0.04,0.34 -0.066,0.671 -0.182,0.986 -0.042,0.137 -0.163,0.22 -0.24,0.332 -0.036,0.095 -0.223,0.381 -0.236,0.143 -0.078,-0.235 0.05,-0.445 0.106,-0.664 0.053,-0.225 0.042,-0.478 -0.096,-0.672 -0.067,-0.143 -0.183,-0.331 -0.369,-0.289 -0.161,0.105 -0.167,0.356 -0.271,0.514 -0.194,0.135 -0.222,-0.231 -0.199,-0.359 0.048,-0.176 -0.022,-0.406 -0.23,-0.421 -0.116,-0.009 -0.315,0.063 -0.254,-0.128 -0.056,-0.213 0.086,-0.373 0.218,-0.518 0.127,-0.139 0.225,-0.314 0.216,-0.507 0.011,-0.166 -0.041,-0.342 0.017,-0.501 0.062,-0.105 0.204,-0.137 0.316,-0.106 z m -2.389,0 c -0.185,0.075 -0.25,0.303 -0.294,0.477 0.013,0.089 0.063,0.395 -0.089,0.232 -0.137,-0.169 -0.301,-0.353 -0.257,-0.586 0.015,-0.214 -0.04,-0.443 0.079,-0.637 0.095,-0.271 -0.294,-0.128 -0.366,0.008 -0.12,0.156 -0.194,0.345 -0.267,0.527 -0.093,0.195 -0.075,0.425 -0.035,0.63 a 2.7,2.7 0 0 0 0.315,0.54 c 0.127,0.152 -0.091,0.279 -0.116,0.428 -0.114,0.17 -0.186,0.363 -0.175,0.571 -0.04,0.34 0.066,0.671 0.182,0.986 0.042,0.137 0.163,0.22 0.24,0.332 0.036,0.095 0.223,0.381 0.236,0.143 0.078,-0.235 -0.05,-0.445 -0.106,-0.664 -0.053,-0.225 -0.042,-0.478 0.096,-0.672 0.067,-0.143 0.183,-0.331 0.369,-0.289 0.161,0.105 0.167,0.356 0.271,0.514 0.194,0.135 0.222,-0.231 0.199,-0.359 -0.048,-0.176 0.022,-0.406 0.23,-0.421 0.116,-0.009 0.315,0.063 0.254,-0.128 0.056,-0.213 -0.086,-0.373 -0.218,-0.518 C 49.208,18.029 49.11,17.854 49.119,17.661 49.108,17.495 49.16,17.319 49.102,17.16 49.04,17.055 48.898,17.023 48.786,17.054 Z"
       fill="#464646"
       id="path172" />
  </g>
  <path
     d="M 10.995,0.132 C 10.316,6.739 6.938,14.003 0.337,15.062 v 14.647 c 3.628,1.859 6.204,4.221 4.113,10.205 -2.337,6.69 -4.537,11.726 -4.301,28.538 0.337,23.942 23.497,40.569 45.372,44.422 1.539,0.271 3.993,1.813 4.459,2.921 0.466,-1.108 2.919,-2.65 4.459,-2.921 21.875,-3.853 45.036,-20.48 45.373,-44.422 0.237,-16.812 -1.964,-21.848 -4.301,-28.538 -2.09,-5.984 0.486,-8.346 4.114,-10.205 V 15.063 C 93.024,14.003 89.646,6.739 88.967,0.133 H 49.981 Z m 2.761,3.403 h 36.227 36.226 c 0.582,2.762 1.443,5.511 2.993,7.961 1.634,2.583 4.011,4.849 7.023,6.09 V 27.84 c -1.448,0.927 -2.851,2.04 -3.803,3.826 -1.36,2.553 -1.356,5.834 -0.121,9.369 2.381,6.816 4.342,10.864 4.109,27.369 -0.153,10.885 -5.444,20.103 -13.469,27.252 -8.025,7.149 -18.773,12.048 -29.09,13.865 -1.543,0.272 -2.714,0.884 -3.869,1.629 -1.155,-0.745 -2.327,-1.357 -3.869,-1.629 C 35.797,107.704 25.048,102.804 17.023,95.656 8.998,88.508 3.706,79.29 3.553,68.404 3.321,51.898 5.281,47.85 7.662,41.035 8.897,37.501 8.902,34.219 7.543,31.666 6.592,29.879 5.188,28.767 3.741,27.84 V 17.586 c 3.013,-1.241 5.39,-3.507 7.023,-6.09 1.549,-2.449 2.41,-5.199 2.992,-7.961 z"
     class="D J"
     id="path174" />
  <path
     d="m 44.293,36.34 c -3.635,-0.061 -6.308,0.779 -9.467,1.164 -2,-0.095 -2.708,-2.08 -6.438,0.357 -2.154,-1.156 -2.886,-1.108 -4.88,-0.059 -2.399,1.262 -3.951,-0.196 -5.807,-0.496 1.911,1.946 3.246,4.533 2.362,7.335 -1.419,5.377 -0.895,11.457 5.118,13.363 19.806,6.278 15.189,15.613 16.829,19.399 l 2.116,2.33 c 0.577,-0.393 1.408,-3.477 5.856,-3.816 4.448,0.339 5.278,3.423 5.855,3.816 l 2.116,-2.33 c 1.641,-3.786 -2.977,-13.121 16.829,-19.399 6.013,-1.906 6.537,-7.987 5.118,-13.363 -0.884,-2.802 0.451,-5.39 2.362,-7.335 -1.855,0.3 -3.407,1.758 -5.806,0.496 -1.993,-1.049 -2.725,-1.096 -4.88,0.059 -3.731,-2.437 -4.438,-0.452 -6.438,-0.357 -4.595,-0.56 -8.162,-2.081 -15.156,-0.396 -2.186,-0.526 -4.037,-0.74 -5.689,-0.767 z M 42.151,23.031 c -11.056,9.581 -17.31,9.557 -24.889,12.184 l 0.439,0.604 c 1.855,0.3 3.408,1.758 5.807,0.496 1.993,-1.049 2.726,-1.096 4.88,0.059 3.731,-2.437 4.439,-0.452 6.438,-0.357 3.159,-0.385 5.832,-1.224 9.467,-1.164 1.652,0.028 3.503,0.241 5.689,0.767 2.186,-0.526 4.037,-0.74 5.69,-0.767 3.635,-0.061 6.308,0.779 9.467,1.164 2,-0.095 2.708,-2.08 6.438,0.357 2.154,-1.156 2.886,-1.108 4.88,-0.059 2.399,1.262 3.951,-0.196 5.806,-0.496 l 0.44,-0.604 C 75.124,32.589 68.87,32.612 57.813,23.031 c -1.587,1.267 -4.002,1.884 -7.831,1.884 -3.829,0 -6.244,-0.616 -7.831,-1.884 z"
     fill="#00abe8"
     stroke="#00698f"
     stroke-width="0.764"
     id="path198" />
  <g
     id="g1665">
    <g
       transform="translate(-107.995,-71.115)"
       id="g264">
      <g
         transform="rotate(-37.055,263.167,441.52)"
         id="g230">
        <use
           xlink:href="#i"
           class="M"
           id="use200"
           x="0"
           y="0"
           width="100%"
           height="100%" />
        <use
           xlink:href="#j"
           class="N"
           id="use202"
           x="0"
           y="0"
           width="100%"
           height="100%" />
        <use
           xlink:href="#k"
           class="O"
           id="use204"
           x="0"
           y="0"
           width="100%"
           height="100%" />
        <use
           xlink:href="#l"
           class="M"
           id="use206"
           x="0"
           y="0"
           width="100%"
           height="100%" />
        <use
           xlink:href="#m"
           class="N"
           id="use208"
           x="0"
           y="0"
           width="100%"
           height="100%" />
        <use
           xlink:href="#n"
           class="O"
           id="use210"
           x="0"
           y="0"
           width="100%"
           height="100%" />
        <use
           xlink:href="#o"
           class="G"
           id="use212"
           x="0"
           y="0"
           width="100%"
           height="100%" />
        <use
           xlink:href="#p"
           class="E I R"
           id="use214"
           x="0"
           y="0"
           width="100%"
           height="100%" />
        <g
           class="F P"
           id="g220">
          <use
             xlink:href="#q"
             fill="url(#I)"
             class="H"
             id="use216"
             style="fill:url(#I)"
             x="0"
             y="0"
             width="100%"
             height="100%" />
          <use
             xlink:href="#r"
             fill="url(#J)"
             class="I"
             id="use218"
             style="fill:url(#linearGradient1273)"
             x="0"
             y="0"
             width="100%"
             height="100%" />
        </g>
        <g
           transform="matrix(-1,0,0,1,708.65799,0)"
           class="F P"
           id="g226">
          <use
             xlink:href="#q"
             fill="url(#K)"
             class="H"
             id="use222"
             style="fill:url(#linearGradient1275)"
             x="0"
             y="0"
             width="100%"
             height="100%" />
          <use
             xlink:href="#r"
             fill="url(#J)"
             class="I"
             id="use224"
             style="fill:url(#linearGradient1277)"
             x="0"
             y="0"
             width="100%"
             height="100%" />
        </g>
        <use
           xlink:href="#s"
           transform="matrix(0.264583,0,0,0.264583,107.76177,71.247428)"
           fill="url(#L)"
           stroke-width="0.6"
           class="H"
           id="use228"
           style="fill:url(#L)"
           x="0"
           y="0"
           width="100%"
           height="100%" />
      </g>
      <g
         transform="matrix(-0.798056,-0.602583,-0.602583,0.798056,528.86157,247.74197)"
         id="g262">
        <use
           xlink:href="#i"
           class="M"
           id="use232"
           x="0"
           y="0"
           width="100%"
           height="100%" />
        <use
           xlink:href="#j"
           class="N"
           id="use234"
           x="0"
           y="0"
           width="100%"
           height="100%" />
        <use
           xlink:href="#k"
           class="O"
           id="use236"
           x="0"
           y="0"
           width="100%"
           height="100%" />
        <use
           xlink:href="#l"
           class="M"
           id="use238"
           x="0"
           y="0"
           width="100%"
           height="100%" />
        <use
           xlink:href="#m"
           class="N"
           id="use240"
           x="0"
           y="0"
           width="100%"
           height="100%" />
        <use
           xlink:href="#n"
           class="O"
           id="use242"
           x="0"
           y="0"
           width="100%"
           height="100%" />
        <use
           xlink:href="#o"
           class="G"
           id="use244"
           x="0"
           y="0"
           width="100%"
           height="100%" />
        <use
           xlink:href="#p"
           class="E I R"
           id="use246"
           x="0"
           y="0"
           width="100%"
           height="100%" />
        <g
           class="F P"
           id="g252">
          <use
             xlink:href="#q"
             fill="url(#K)"
             class="H"
             id="use248"
             style="fill:url(#K)"
             x="0"
             y="0"
             width="100%"
             height="100%" />
          <use
             xlink:href="#r"
             fill="url(#J)"
             class="I"
             id="use250"
             style="fill:url(#J)"
             x="0"
             y="0"
             width="100%"
             height="100%" />
        </g>
        <g
           transform="matrix(-1,0,0,1,708.65799,0)"
           class="F P"
           id="g258">
          <use
             xlink:href="#q"
             fill="url(#K)"
             class="H"
             id="use254"
             style="fill:url(#K)"
             x="0"
             y="0"
             width="100%"
             height="100%" />
          <use
             xlink:href="#r"
             fill="url(#J)"
             class="I"
             id="use256"
             style="fill:url(#J)"
             x="0"
             y="0"
             width="100%"
             height="100%" />
        </g>
        <use
           xlink:href="#s"
           transform="matrix(0.264583,0,0,0.264583,107.76177,71.247428)"
           fill="url(#M)"
           stroke-width="0.6"
           class="H"
           id="use260"
           style="fill:url(#M)"
           x="0"
           y="0"
           width="100%"
           height="100%" />
      </g>
    </g>
  </g>
  <g
     id="g1594">
    <g
       stroke="#a5a5a5"
       stroke-width="0.665"
       class="F"
       id="g186"
       transform="translate(-107.629,-71.115)">
      <path
         d="m 132.539,163.386 3.149,-3.031 c -7.579,-2.465 -10.983,-6.242 -14.245,-10.064 0.561,10.379 6.19,11.044 11.096,13.095 z"
         fill="url(#E)"
         id="path176"
         style="fill:url(#E)" />
      <path
         d="m 130.416,159.513 -4.276,3.341 c 2.036,0.789 4.037,1.13 6.399,0.532 l 3.149,-3.031 c -1.954,-0.056 -3.758,-0.284 -5.272,-0.842 z"
         fill="#b7b7b7"
         id="path178" />
      <path
         d="m 182.683,163.386 -3.149,-3.031 c 7.579,-2.465 10.983,-6.242 14.245,-10.064 -0.561,10.379 -6.19,11.044 -11.096,13.095 z"
         fill="url(#F)"
         id="path180"
         style="fill:url(#F)" />
      <path
         d="m 184.805,159.513 4.276,3.341 c -2.036,0.789 -4.037,1.13 -6.399,0.532 l -3.149,-3.031 c 1.954,-0.056 3.758,-0.284 5.272,-0.842 z"
         fill="#b7b7b7"
         id="path182" />
      <path
         d="m 130.416,159.513 -4.276,3.341 c 6.396,6.299 10.51,13.704 31.471,14.967 20.96,-1.263 25.075,-8.668 31.471,-14.967 l -4.276,-3.341 c -6.344,6.532 -13.316,12.538 -27.195,12.762 -13.879,-0.224 -20.85,-6.23 -27.195,-12.762 z"
         class="G"
         id="path184" />
    </g>
    <path
       d="m 22.161,93.288 0.358,0.332 v 0 q -0.442,0.476 0.133,1.009 0.276,0.256 0.531,0.254 0.257,-0.003 0.413,-0.172 0.143,-0.154 0.124,-0.328 -0.018,-0.175 -0.206,-0.472 l -0.331,-0.499 q -0.236,-0.371 -0.241,-0.639 -0.005,-0.268 0.228,-0.519 0.297,-0.32 0.74,-0.261 0.444,0.061 0.843,0.431 0.389,0.361 0.443,0.738 0.057,0.377 -0.228,0.684 v 0 L 24.61,93.514 v 0 q 0.32,-0.394 -0.17,-0.848 -0.251,-0.233 -0.488,-0.257 -0.237,-0.024 -0.398,0.15 -0.16,0.172 -0.115,0.345 0.044,0.173 0.224,0.437 l 0.328,0.512 q 0.222,0.34 0.222,0.627 0,0.287 -0.223,0.526 -0.317,0.341 -0.76,0.312 -0.44,-0.03 -0.877,-0.435 -0.428,-0.398 -0.491,-0.801 -0.063,-0.403 0.3,-0.794 z m 2.672,-1.033 z m -2.452,2.561 z"
       id="path188" />
    <path
       d="m 25.577,93.347 0.387,0.298 -1.07,2.604 v 0 l 2.274,-1.678 0.454,0.349 -1.051,2.601 v 0 l 2.226,-1.698 0.359,0.276 -2.776,2.023 -0.398,-0.306 1.092,-2.702 v 0 l -2.342,1.741 -0.398,-0.306 z m 1.653,5.386 2.903,-2.071 0.414,0.259 -0.595,3.516 -0.425,-0.266 0.147,-0.923 v 0 l -1.293,-0.809 v 0 l -0.75,0.545 z m 1.487,-0.543 v 0 l 1.034,0.648 v 0 l 0.331,-1.677 v 0 z m 1.776,-1.596 z m -0.636,3.784 z m -0.877,-4.52 z m 1.696,3.863 0.433,0.226 v 0 q -0.301,0.576 0.394,0.938 0.333,0.174 0.579,0.105 0.247,-0.071 0.353,-0.275 0.097,-0.187 0.033,-0.349 -0.063,-0.164 -0.323,-0.401 L 31.694,99.57 q -0.325,-0.296 -0.401,-0.553 -0.076,-0.257 0.083,-0.56 0.202,-0.387 0.645,-0.446 0.445,-0.058 0.927,0.194 0.47,0.246 0.622,0.595 0.154,0.348 -0.04,0.719 v 0 l -0.433,-0.226 v 0 q 0.204,-0.464 -0.387,-0.773 -0.304,-0.159 -0.539,-0.12 -0.235,0.039 -0.345,0.249 -0.109,0.208 -0.02,0.363 0.088,0.155 0.331,0.362 l 0.452,0.408 q 0.304,0.27 0.379,0.547 0.075,0.277 -0.076,0.567 -0.216,0.413 -0.651,0.501 -0.432,0.088 -0.96,-0.188 -0.518,-0.271 -0.685,-0.643 -0.167,-0.373 0.08,-0.845 z m 2.306,-1.701 z m -1.691,3.116 z"
       id="path190" />
    <path
       d="m 34.13,98.896 2.459,1.066 -0.155,0.357 -1.019,-0.442 -1.156,2.667 -0.421,-0.183 1.156,-2.667 -1.019,-0.442 z m 1.338,0.309 z m -1.41,3.252 z m 10e-4,-3.668 z m 2.687,1.229 0.434,0.15 -0.463,1.335 1.496,0.518 0.463,-1.335 0.434,0.15 -1.079,3.115 -0.434,-0.15 0.489,-1.411 -1.496,-0.518 -0.489,1.411 -0.434,-0.15 z m 2.966,0.978 0.442,0.125 -0.9,3.171 -0.442,-0.125 z m 0.294,-0.175 z m -0.878,3.436 z m 0.217,-3.437 z m 2.005,2.587 1.121,0.239 -0.073,0.344 -1.121,-0.239 z m 2.718,1.925 0.398,-3.272 1.214,0.148 v 0 l 0.091,0.011 q 0.433,0.053 0.653,0.307 0.222,0.253 0.176,0.633 -0.069,0.565 -0.646,0.673 0.634,0.258 0.556,0.9 -0.05,0.411 -0.352,0.616 -0.3,0.203 -0.858,0.135 z m 0.503,-0.331 0.729,0.089 q 0.311,0.038 0.504,-0.083 0.195,-0.121 0.228,-0.394 0.032,-0.262 -0.126,-0.43 -0.156,-0.168 -0.427,-0.201 l -0.774,-0.094 z m 0.182,-1.5 0.667,0.081 q 0.627,0.076 0.688,-0.431 0.031,-0.253 -0.11,-0.39 -0.139,-0.139 -0.426,-0.174 l -0.698,-0.085 z m 2.456,-1.124 0.459,0.019 -0.059,1.412 1.582,0.065 0.059,-1.412 0.459,0.019 -0.136,3.293 -0.459,-0.019 0.062,-1.492 -1.582,-0.065 -0.062,1.492 -0.459,-0.019 z m 3.057,0.107 0.459,-0.02 0.093,2.078 q 0.021,0.476 0.279,0.676 0.26,0.197 0.674,0.178 0.423,-0.019 0.644,-0.242 0.221,-0.223 0.198,-0.74 l -0.091,-2.031 0.459,-0.02 0.092,2.063 v 0 q 0.027,0.606 -0.32,0.969 -0.347,0.363 -0.946,0.39 -0.635,0.028 -1.028,-0.272 -0.39,-0.303 -0.418,-0.925 l -0.004,-0.081 z m 1.324,-0.308 z m 0.561,3.523 z m -2.318,-3.266 z m 3.274,-0.037 0.483,-0.071 1.127,2.579 v 0 l 0.375,-2.801 0.567,-0.084 1.139,2.564 v 0 l 0.328,-2.78 0.447,-0.066 -0.476,3.402 -0.496,0.073 -1.183,-2.664 v 0 l -0.377,2.894 -0.496,0.073 z m 5.021,2.556 0.522,-3.528 0.474,-0.118 2.12,2.868 -0.487,0.122 -0.563,-0.746 v 0 l -1.479,0.37 v 0 l -0.128,0.918 z m 0.64,-1.448 v 0 l 1.184,-0.296 v 0 l -0.978,-1.401 v 0 z m 0.082,-2.386 z m 2.285,3.083 z m -3.864,-2.503 z m 3.376,-0.794 0.604,-0.207 2.417,2.057 v 0 l -0.885,-2.582 0.4,-0.137 1.069,3.118 -0.555,0.19 -2.482,-2.089 v 0 l 0.902,2.631 -0.4,0.137 z m 1.256,-0.693 z m 1.12,3.363 z m -2.812,-2.594 z m 4.506,2.003 -0.084,-3.565 0.447,-0.197 2.576,2.466 -0.459,0.202 -0.681,-0.639 v 0 l -1.395,0.615 v 0 l 0.029,0.927 z m 0.385,-1.535 v 0 l 1.117,-0.493 v 0 L 65.017,99.74 v 0 z m -0.324,-2.366 z m 2.775,2.651 z M 63.32,99.921 Z m 5.357,-0.889 v 0 l 0.467,-1.937 0.546,-0.317 -0.535,2.021 2.323,0.753 -0.558,0.323 -2.192,-0.754 v 0 l 0.878,1.515 -0.397,0.23 -1.652,-2.852 0.397,-0.23 z m 1.604,1.214 z m 1.535,-0.924 -1.861,-2.721 1.011,-0.691 q 0.449,-0.307 0.803,-0.278 0.356,0.028 0.567,0.337 0.171,0.25 0.147,0.532 -0.023,0.279 -0.218,0.483 0.224,-0.088 0.393,-0.044 0.168,0.043 0.341,0.233 0.159,0.176 0.371,0.408 0.213,0.232 0.432,0.382 l -0.403,0.276 q -0.233,-0.185 -0.649,-0.671 -0.22,-0.259 -0.408,-0.272 -0.189,-0.014 -0.487,0.189 l -0.505,0.345 0.843,1.233 z m -0.684,-1.814 0.599,-0.41 q 0.336,-0.23 0.358,-0.413 0.02,-0.185 -0.1,-0.36 -0.154,-0.226 -0.354,-0.244 -0.201,-0.02 -0.456,0.154 l -0.625,0.427 z m -0.35,-1.773 z m 2.031,2.906 z m -3.222,-1.874 z"
       id="path192" />
    <path
       d="m 72.048,95.165 2.099,-1.667 0.242,0.305 -0.87,0.691 1.807,2.276 -0.36,0.285 -1.807,-2.276 -0.87,0.691 z m 0.903,-1.034 z m 2.204,2.776 z M 71.92,95.178 Z m 4.326,0.87 -1.234,-3.346 0.359,-0.331 3.235,1.5 -0.369,0.34 -0.851,-0.385 v 0 l -1.121,1.034 v 0 l 0.328,0.867 z m -0.133,-1.577 v 0 l 0.897,-0.827 v 0 l -1.53,-0.761 v 0 z m -1.072,-2.134 z m 3.483,1.61 z m -4.591,-0.345 z"
       id="path194" />
    <path
       d="m 73.246,98.932 a 0.229,0.229 0 0 1 -0.458,0 0.229,0.229 0 0 1 0.458,0 z"
       class="B K"
       id="path196" />
  </g>
  <g
     id="g1630">
    <path
       d="m 43.532,82.208 2.332,-1.65 m 0.381,0.259 -1.868,1.841 m 1.05,0.314 1.555,-2.223 m -0.477,2.509 1.295,-2.564 m -0.341,2.728 0.9,-2.782 m -0.164,2.946 0.75,-3 m 1.037,0.204 v 2.714 m -0.409,-2.687 -0.164,2.768 m -9.436,2.81 1.718,-2.345 M 41.773,87.049 43,84.595 m 0.082,3.081 1.009,-2.536 m 1.5,0.273 -0.736,3.027 m 1.909,-2.864 -0.409,3.136 M 47.664,85.904 47.5,88.986 M 49.191,85.958 49,89.067 m 0.982,-3.056 v 3.132"
       class="C D E S"
       id="path266" />
    <g
       class="K"
       id="g300"
       transform="translate(-107.629,-71.115)">
      <circle
         cx="147.07001"
         cy="158.457"
         r="0.34099999"
         id="circle268" />
      <circle
         cx="148.767"
         cy="159.209"
         r="0.34099999"
         id="circle270" />
      <circle
         cx="150.368"
         cy="159.942"
         r="0.34099999"
         id="circle272" />
      <circle
         cx="152.27699"
         cy="160.424"
         r="0.34099999"
         id="circle274" />
      <circle
         cx="153.858"
         cy="160.675"
         r="0.34099999"
         id="circle276" />
      <circle
         cx="155.02499"
         cy="160.82899"
         r="0.34099999"
         id="circle278" />
      <circle
         cx="156.548"
         cy="161.061"
         r="0.34099999"
         id="circle280" />
      <circle
         cx="157.61099"
         cy="161.17799"
         r="0.34099999"
         id="circle282" />
      <circle
         cx="156.674"
         cy="155.873"
         r="0.34099999"
         id="circle284" />
      <circle
         cx="157.61099"
         cy="155.97099"
         r="0.34099999"
         id="circle286" />
      <circle
         cx="155.59399"
         cy="155.748"
         r="0.34099999"
         id="circle288" />
      <circle
         cx="154.658"
         cy="155.603"
         r="0.34099999"
         id="circle290" />
      <circle
         cx="153.66499"
         cy="155.32401"
         r="0.34099999"
         id="circle292" />
      <circle
         cx="152.315"
         cy="155.198"
         r="0.34099999"
         id="circle294" />
      <circle
         cx="151.11"
         cy="154.687"
         r="0.34099999"
         id="circle296" />
      <circle
         cx="149.93401"
         cy="154.23399"
         r="0.34099999"
         id="circle298" />
    </g>
    <path
       d="M 56.432,82.208 54.1,80.558 m -0.382,0.259 1.868,1.841 m -1.05,0.314 -1.555,-2.223 m 0.478,2.509 -1.295,-2.564 m 0.34,2.728 -0.9,-2.782 m 0.164,2.946 -0.75,-3 m -0.627,0.231 0.164,2.768 m 9.436,2.81 -1.718,-2.345 m -0.082,2.999 -1.227,-2.454 m -0.082,3.081 -1.009,-2.536 m -1.5,0.273 0.736,3.027 m -1.909,-2.864 0.409,3.136 m -1.309,-2.808 0.164,3.082 m -1.691,-3.028 0.191,3.109"
       class="C D E S"
       id="path302" />
    <circle
       cx="-60.522995"
       cy="87.342003"
       r="0.34099999"
       id="circle304"
       style="fill-rule:evenodd"
       transform="scale(-1,1)" />
    <circle
       cx="-58.824997"
       cy="88.094002"
       r="0.34099999"
       id="circle306"
       style="fill-rule:evenodd"
       transform="scale(-1,1)" />
    <circle
       cx="-57.224991"
       cy="88.827003"
       r="0.34099999"
       id="circle308"
       style="fill-rule:evenodd"
       transform="scale(-1,1)" />
    <circle
       cx="-55.315994"
       cy="89.308998"
       r="0.34099999"
       id="circle310"
       style="fill-rule:evenodd"
       transform="scale(-1,1)" />
    <circle
       cx="-53.733994"
       cy="89.560005"
       r="0.34099999"
       id="circle312"
       style="fill-rule:evenodd"
       transform="scale(-1,1)" />
    <circle
       cx="-52.568008"
       cy="89.713997"
       r="0.34099999"
       id="circle314"
       style="fill-rule:evenodd"
       transform="scale(-1,1)" />
    <circle
       cx="-51.043991"
       cy="89.946007"
       r="0.34099999"
       id="circle316"
       style="fill-rule:evenodd"
       transform="scale(-1,1)" />
    <circle
       cx="-50.918991"
       cy="84.758003"
       r="0.34099999"
       id="circle318"
       style="fill-rule:evenodd"
       transform="scale(-1,1)" />
    <circle
       cx="-51.999008"
       cy="84.633003"
       r="0.34099999"
       id="circle320"
       style="fill-rule:evenodd"
       transform="scale(-1,1)" />
    <circle
       cx="-52.934006"
       cy="84.487999"
       r="0.34099999"
       id="circle322"
       style="fill-rule:evenodd"
       transform="scale(-1,1)" />
    <circle
       cx="-53.926987"
       cy="84.209007"
       r="0.34099999"
       id="circle324"
       style="fill-rule:evenodd"
       transform="scale(-1,1)" />
    <circle
       cx="-55.276993"
       cy="84.083"
       r="0.34099999"
       id="circle326"
       style="fill-rule:evenodd"
       transform="scale(-1,1)" />
    <circle
       cx="-56.48201"
       cy="83.571999"
       r="0.34099999"
       id="circle328"
       style="fill-rule:evenodd"
       transform="scale(-1,1)" />
    <circle
       cx="-57.659012"
       cy="83.118996"
       r="0.34099999"
       id="circle330"
       style="fill-rule:evenodd"
       transform="scale(-1,1)" />
    <path
       d="m 49.982,77.656 c -0.714,0.039 -1.389,-0.009 -2.21,0.27 -1.885,0.939 -1.471,1.877 -2.123,2.816 h 4.333 4.333 c -0.652,-0.939 -0.239,-1.877 -2.123,-2.816 -0.822,-0.279 -1.496,-0.23 -2.21,-0.27 z"
       fill="url(#N)"
       stroke-width="0.28"
       class="H"
       id="path354"
       style="fill:url(#N)" />
  </g>
  <g
     id="g1581">
    <path
       d="M 30.563,88.579 H 69.4 v 5.008 H 30.563 Z"
       stroke="#a5a5a5"
       stroke-width="0.565"
       class="B F G"
       id="path334"
       style="fill-rule:evenodd" />
    <path
       d="m 33.368,92.757 v -3.516 h 1.304 v 0 h 0.098 q 0.466,0 0.731,0.241 0.267,0.239 0.267,0.647 0,0.607 -0.597,0.795 0.705,0.191 0.705,0.881 0,0.442 -0.294,0.697 -0.291,0.253 -0.891,0.253 z m 0.49,-0.416 h 0.783 q 0.334,0 0.523,-0.153 0.191,-0.153 0.191,-0.447 0,-0.282 -0.189,-0.439 -0.186,-0.158 -0.478,-0.158 h -0.831 z m 0,-1.612 h 0.716 q 0.673,0 0.673,-0.545 0,-0.272 -0.167,-0.399 -0.165,-0.129 -0.473,-0.129 h -0.75 z"
       id="path338" />
    <use
       xlink:href="#t"
       id="use340"
       x="0"
       y="0"
       width="100%"
       height="100%"
       transform="translate(-107.629,-71.115)" />
    <path
       d="m 40.435,89.241 h 0.681 l 1.727,2.911 v 0 -2.911 h 0.451 v 3.516 h -0.626 l -1.782,-2.966 v 0 2.966 h -0.451 z m 1.507,-0.265 z m -0.033,3.781 z m -1.939,-3.59 z m 4.232,3.59 v -3.516 h 1.211 q 0.862,0 1.273,0.492 0.413,0.492 0.413,1.306 0,0.786 -0.382,1.251 -0.38,0.466 -1.325,0.466 z m 0.49,-0.416 h 0.604 q 0.705,0 0.994,-0.344 0.289,-0.346 0.289,-0.967 0,-0.669 -0.301,-1.02 -0.299,-0.353 -0.936,-0.353 h -0.65 z m 0.7,-3.365 z m -1.617,0.191 z"
       id="path342" />
    <use
       xlink:href="#t"
       x="11.141"
       id="use344"
       y="0"
       width="100%"
       height="100%"
       transform="translate(-107.629,-71.115)" />
    <path
       d="m 51.149,89.241 h 0.521 l 0.788,2.897 v 0 l 0.831,-2.897 H 53.9 l 0.802,2.883 v 0 l 0.779,-2.883 h 0.482 l -1.032,3.516 h -0.535 l -0.834,-2.995 v 0 l -0.848,2.995 h -0.535 z"
       id="path346" />
    <use
       xlink:href="#t"
       x="19.837"
       id="use348"
       y="0"
       width="100%"
       height="100%"
       transform="translate(-107.629,-71.115)" />
    <path
       d="m 60.074,91.723 h 0.521 v 0 q 0,0.693 0.836,0.693 0.401,0 0.599,-0.186 0.198,-0.189 0.198,-0.435 0,-0.225 -0.141,-0.346 -0.141,-0.124 -0.504,-0.22 l -0.621,-0.15 q -0.454,-0.119 -0.652,-0.325 -0.198,-0.205 -0.198,-0.571 0,-0.466 0.389,-0.74 0.392,-0.275 0.972,-0.275 0.566,0 0.881,0.256 0.318,0.253 0.318,0.7 v 0 h -0.521 v 0 q -0.036,-0.54 -0.748,-0.54 -0.365,0 -0.568,0.153 -0.203,0.153 -0.203,0.406 0,0.251 0.16,0.353 0.16,0.103 0.492,0.179 l 0.628,0.162 q 0.42,0.105 0.628,0.33 0.208,0.225 0.208,0.573 0,0.497 -0.368,0.795 -0.365,0.296 -1.001,0.296 -0.623,0 -0.965,-0.27 -0.342,-0.27 -0.342,-0.838 z m 1.34,-2.747 z m -0.06,3.781 z"
       id="path350" />
    <use
       xlink:href="#t"
       x="26.903999"
       id="use352"
       y="0"
       width="100%"
       height="100%"
       transform="translate(-107.629,-71.115)" />
  </g>
  <g
     id="g1734">
    <g
       transform="matrix(0.285709,0,0,0.285223,-117.71962,-1.832415)"
       id="g360">
      <path
         d="m 563.482,83.75 9.018,7.143 h 14.465 14.465 l 9.018,-7.143 h -23.482 z"
         fill="url(#C)"
         id="path356"
         style="fill:url(#C)" />
      <path
         d="m 572.5,90.893 v 27.247 h 28.93 V 90.893 Z"
         fill="url(#D)"
         class="B K"
         id="path358"
         style="fill:url(#D)" />
    </g>
    <path
       d="m 41.676,31.149 c 2.75,-0.339 4.318,-1.009 8.306,-0.946 3.988,0.063 5.537,0.631 8.306,0.946 v 2.48 c -2.766,-0.316 -4.021,-0.877 -8.306,-0.946 -4.285,-0.069 -5.985,0.679 -8.306,0.946 z"
       fill="url(#G)"
       class="B K"
       id="path362"
       style="fill:url(#G)" />
    <path
       d="m 49.982,31.914 -0.033,0.002 C 37.64,32.678 30.43,39.49 28.267,45.449 l -0.258,0.715 h 3.299 v 9.721 L 49.982,66.32 68.654,55.885 v -9.721 h 3.301 l -0.26,-0.715 C 69.533,39.49 62.322,32.677 50.013,31.916 Z"
       stroke="#ffffff"
       stroke-width="1.065"
       id="path364" />
    <g
       opacity="0.998"
       class="D G J"
       id="g370"
       transform="translate(-107.629,-71.115)">
      <path
         d="m 152.758,134.69 c -0.251,3.046 1.567,4.688 4.044,5.882 v 1.691 l 0.809,0.147 0.809,-0.147 v -1.691 c 2.477,-1.195 4.295,-2.837 4.044,-5.882 h -4.853 z"
         id="path366" />
      <path
         d="m 153.918,134.69 c 0.385,3.295 2.019,4.288 3.693,5.207 1.674,-0.919 3.308,-1.913 3.693,-5.207 h -3.693 z"
         id="path368" />
    </g>
    <path
       d="M 49.98,32.985 C 61.398,33.702 67.993,39.771 70.289,45.1 H 67.59 V 55.212 L 49.983,66.321 32.374,55.212 V 45.1 h -2.697 c 2.295,-5.329 8.888,-11.397 20.305,-12.115 z"
       id="path372" />
    <g
       stroke="#ffffff"
       stroke-width="0.465"
       class="E F"
       id="g380"
       transform="translate(-107.629,-71.115)">
      <path
         d="m 166.232,116.108 a 8.62,8.62 0 0 1 -8.622,8.622 8.62,8.62 0 0 1 -8.622,-8.622 8.62,8.62 0 0 1 8.622,-8.622 8.62,8.62 0 0 1 8.622,8.622 z"
         class="B"
         id="path374" />
      <path
         d="m 157.611,108.537 c -1.982,0 -3.952,0.815 -5.354,2.217 -1.402,1.402 -2.217,3.371 -2.217,5.354 0,1.983 0.815,3.952 2.217,5.354 1.402,1.402 3.371,2.217 5.354,2.217 1.983,0 3.952,-0.815 5.354,-2.217 1.402,-1.402 2.217,-3.371 2.217,-5.354 0,-1.983 -0.815,-3.952 -2.217,-5.354 -1.402,-1.402 -3.371,-2.217 -5.354,-2.217 z"
         class="B"
         id="path376" />
      <path
         d="m 157.611,109.693 c -3.359,0 -6.414,3.055 -6.414,6.414 0,3.359 3.055,6.414 6.414,6.414 3.359,0 6.414,-3.055 6.414,-6.414 0,-3.359 -3.055,-6.414 -6.414,-6.414 z"
         class="B"
         id="path378" />
    </g>
    <g
       class="G"
       id="g440"
       transform="translate(-107.629,-71.115)">
      <path
         d="m 154.798,112.683 c 0.032,0.848 0.405,1.635 0.855,2.298 -0.806,0.238 -0.995,0.652 -1.314,1.029 0.394,0.563 1.097,0.68 1.544,0.129 0.052,0.505 -0.015,1.393 0.735,2.353 -0.428,0.407 -0.239,0.528 -0.294,1.002 0,0.938 2.573,0.938 2.573,0 -0.055,-0.473 0.134,-0.594 -0.294,-1.002 0.75,-0.961 0.683,-1.848 0.735,-2.353 0.447,0.552 1.151,0.434 1.544,-0.129 -0.319,-0.377 -0.509,-0.791 -1.315,-1.029 0.449,-0.663 0.823,-1.449 0.855,-2.298 -0.368,0.53 -0.656,1.082 -1.448,1.322 -0.581,-0.462 -0.99,-0.341 -1.364,-0.421 -0.374,0.08 -0.783,-0.041 -1.364,0.421 -0.792,-0.24 -1.08,-0.792 -1.448,-1.322 z"
         id="path382" />
      <g
         stroke-width="0.261"
         class="D"
         id="g430">
        <path
           d="m 148.921,130.966 c -0.404,-0.133 -0.72,-0.47 -0.62,-0.821 a 0.32,0.32 0 0 1 0.279,-0.235 c 0.222,0.025 0.543,0.129 0.842,0.298 0.299,0.169 0.552,0.391 0.663,0.619 0.071,0.115 0.067,0.187 -0.006,0.227 -0.146,0.081 -0.785,0.035 -1.158,-0.089 z"
           class="B"
           id="path384" />
        <path
           d="m 149.422,130.209 c -0.525,-0.297 -0.868,-0.7 -0.781,-0.889 0.093,-0.202 0.618,-0.187 1.17,0.064 0.552,0.251 0.918,0.643 0.798,0.898 -0.125,0.268 -0.66,0.225 -1.187,-0.073 z"
           class="B"
           id="path386" />
        <path
           d="m 149.811,129.384 c -0.4,-0.182 -0.723,-0.448 -0.808,-0.675 v 0 c -0.03,-0.076 -0.032,-0.145 -0.006,-0.204 0.114,-0.263 0.653,-0.237 1.188,0.046 0.535,0.283 0.893,0.675 0.804,0.874 -0.023,0.052 -0.073,0.093 -0.147,0.12 v 0 c -0.223,0.083 -0.626,0.023 -1.03,-0.161 z"
           class="B"
           id="path388" />
        <path
           d="m 150.185,128.55 c -0.533,-0.282 -0.876,-0.71 -0.684,-1.011 0.04,-0.063 0.103,-0.112 0.183,-0.141 v 0 c 0.332,-0.12 0.695,0.07 1.001,0.396 0.227,0.243 0.586,0.765 0.634,0.843 v 0 c 0.019,0.057 0.019,0.1 -0.002,0.132 -0.08,0.121 -0.595,0.064 -1.131,-0.219 z"
           class="B"
           id="path390" />
        <path
           d="m 150.684,127.795 c -0.401,-0.429 -0.552,-0.98 -0.124,-1.241 0.389,-0.237 0.739,0.084 0.839,0.606 l 0.022,0.135 0.015,0.135 0.054,1.017 c -0.001,0.002 -0.384,-0.203 -0.805,-0.652 z"
           class="B"
           id="path392" />
        <path
           d="m 151.421,127.295 c -0.079,-0.592 0.107,-1.076 0.514,-1.003 0.397,0.071 0.505,0.613 0.357,1.192 -0.15,0.586 -0.416,0.975 -0.503,0.946 -0.12,-0.041 -0.292,-0.568 -0.368,-1.135 z"
           class="B"
           id="path394" />
        <path
           d="m 152.292,127.484 c 0.145,-0.569 0.502,-0.985 0.853,-0.844 0.047,0.019 0.089,0.049 0.123,0.088 v 0 c 0.157,0.222 0.075,0.682 -0.163,1.133 -0.238,0.451 -0.564,0.777 -0.761,0.817 v 0 c -0.03,0.007 -0.055,0.005 -0.076,-0.008 -0.1,-0.063 -0.12,-0.625 0.023,-1.186 z"
           class="B"
           id="path396" />
        <path
           d="m 153.106,127.861 c 0.286,-0.544 0.705,-0.879 0.926,-0.752 0.205,0.118 0.137,0.652 -0.145,1.196 -0.282,0.544 -0.701,0.883 -0.927,0.753 -0.209,-0.121 -0.14,-0.655 0.145,-1.197 z"
           class="B"
           id="path398" />
        <path
           d="m 153.887,128.305 c 0.146,-0.281 0.333,-0.523 0.501,-0.673 0.144,-0.131 0.264,-0.184 0.343,-0.148 0.156,0.071 0.163,0.608 -0.027,1.19 -0.19,0.582 -0.564,0.991 -0.86,0.856 -0.122,-0.056 -0.193,-0.204 -0.194,-0.411 0,-0.239 0.091,-0.533 0.236,-0.814 z"
           class="B"
           id="path400" />
        <path
           d="m 154.705,128.675 c 0.191,-0.584 0.515,-1.001 0.656,-0.97 0.069,0.015 0.12,0.114 0.158,0.28 a 3.09,3.09 0 0 1 0.056,0.878 c -0.027,0.337 -0.113,0.644 -0.271,0.843 -0.12,0.147 -0.266,0.212 -0.397,0.183 -0.341,-0.075 -0.394,-0.63 -0.203,-1.213 z"
           class="B"
           id="path402" />
        <path
           d="m 155.576,128.862 c 0.048,-0.611 0.257,-1.099 0.409,-1.105 0.159,-0.007 0.402,0.464 0.481,1.077 0.079,0.613 -0.074,1.144 -0.408,1.154 -0.34,0.01 -0.53,-0.513 -0.482,-1.125 z"
           class="B"
           id="path404" />
        <path
           d="m 156.465,128.834 c -0.079,-0.61 0.031,-1.136 0.206,-1.175 0.18,-0.041 0.498,0.39 0.668,0.981 0.17,0.591 0.105,1.142 -0.199,1.21 -0.304,0.068 -0.596,-0.404 -0.675,-1.015 z m 9.836,2.132 c 0.404,-0.133 0.72,-0.47 0.62,-0.821 a 0.32,0.32 0 0 0 -0.279,-0.235 c -0.222,0.025 -0.543,0.129 -0.842,0.298 -0.299,0.169 -0.552,0.391 -0.663,0.619 -0.071,0.115 -0.067,0.187 0.006,0.227 0.146,0.081 0.785,0.035 1.158,-0.089 z"
           class="B"
           id="path406" />
        <path
           d="m 165.8,130.209 c 0.525,-0.297 0.868,-0.7 0.782,-0.889 -0.093,-0.202 -0.618,-0.187 -1.17,0.064 -0.552,0.251 -0.918,0.643 -0.798,0.898 0.125,0.268 0.66,0.225 1.187,-0.073 z"
           class="B"
           id="path408" />
        <path
           d="m 165.411,129.384 c 0.4,-0.182 0.723,-0.448 0.808,-0.675 v 0 c 0.03,-0.076 0.032,-0.145 0.006,-0.204 -0.114,-0.263 -0.653,-0.237 -1.188,0.046 -0.535,0.283 -0.893,0.675 -0.804,0.874 0.023,0.052 0.073,0.093 0.147,0.12 v 0 c 0.223,0.083 0.626,0.023 1.03,-0.161 z"
           class="B"
           id="path410" />
        <path
           d="m 165.037,128.55 c 0.533,-0.282 0.876,-0.71 0.684,-1.011 -0.04,-0.063 -0.103,-0.112 -0.184,-0.141 v 0 c -0.332,-0.12 -0.695,0.07 -1.001,0.396 -0.227,0.243 -0.586,0.765 -0.634,0.843 v 0 c -0.019,0.057 -0.019,0.1 0.002,0.132 0.08,0.121 0.595,0.064 1.131,-0.219 z"
           class="B"
           id="path412" />
        <path
           d="m 164.538,127.795 c 0.401,-0.429 0.552,-0.98 0.124,-1.241 -0.389,-0.237 -0.739,0.084 -0.839,0.606 l -0.022,0.135 -0.015,0.135 -0.054,1.017 c 0.001,0.002 0.384,-0.203 0.805,-0.652 z"
           class="B"
           id="path414" />
        <path
           d="m 163.801,127.295 c 0.079,-0.592 -0.107,-1.076 -0.514,-1.003 -0.397,0.071 -0.504,0.613 -0.357,1.192 0.15,0.586 0.416,0.975 0.503,0.946 0.12,-0.041 0.292,-0.568 0.368,-1.135 z"
           class="B"
           id="path416" />
        <path
           d="m 162.93,127.484 c -0.145,-0.569 -0.502,-0.985 -0.853,-0.844 -0.047,0.019 -0.089,0.049 -0.123,0.088 v 0 c -0.157,0.222 -0.075,0.682 0.163,1.133 0.238,0.451 0.564,0.777 0.761,0.817 v 0 c 0.03,0.007 0.055,0.005 0.076,-0.008 0.1,-0.063 0.12,-0.625 -0.023,-1.186 z"
           class="B"
           id="path418" />
        <path
           d="m 162.116,127.861 c -0.286,-0.544 -0.705,-0.879 -0.926,-0.752 -0.205,0.118 -0.137,0.652 0.144,1.196 0.281,0.544 0.701,0.883 0.927,0.753 0.209,-0.121 0.14,-0.655 -0.145,-1.197 z"
           class="B"
           id="path420" />
        <path
           d="m 161.335,128.305 c -0.146,-0.281 -0.333,-0.523 -0.501,-0.673 -0.144,-0.131 -0.264,-0.184 -0.343,-0.148 -0.156,0.071 -0.163,0.608 0.027,1.19 0.19,0.582 0.564,0.991 0.86,0.856 0.122,-0.056 0.193,-0.204 0.194,-0.411 0,-0.239 -0.091,-0.533 -0.237,-0.814 z"
           class="B"
           id="path422" />
        <path
           d="m 160.517,128.675 c -0.191,-0.584 -0.515,-1.001 -0.656,-0.97 -0.069,0.015 -0.12,0.114 -0.158,0.28 a 3.09,3.09 0 0 0 -0.056,0.878 c 0.027,0.337 0.113,0.644 0.271,0.843 0.12,0.147 0.266,0.212 0.397,0.183 0.341,-0.075 0.394,-0.63 0.203,-1.213 z"
           class="B"
           id="path424" />
        <path
           d="m 159.646,128.862 c -0.048,-0.611 -0.257,-1.099 -0.409,-1.105 -0.159,-0.007 -0.402,0.464 -0.481,1.077 -0.079,0.613 0.074,1.144 0.408,1.154 0.34,0.01 0.53,-0.513 0.482,-1.125 z"
           class="B"
           id="path426" />
        <path
           d="m 158.756,128.834 c 0.079,-0.61 -0.031,-1.136 -0.206,-1.175 -0.18,-0.041 -0.498,0.39 -0.668,0.981 -0.17,0.591 -0.105,1.142 0.199,1.21 0.309,0.07 0.596,-0.404 0.675,-1.015 z"
           class="B"
           id="path428" />
      </g>
      <g
         class="D J"
         id="g438">
        <path
           d="m 137.164,128.661 1.056,0.803 c 2.895,-2.204 15.263,6.828 19.162,8.909 l 1.487,-1.14 c -6.996,-2.951 -18.318,-14.639 -21.706,-8.572 z"
           id="path432" />
        <path
           d="m 158.561,137.47 -0.787,0.603 c 0.901,0.695 1.737,1.421 2.888,2.11 0.525,0.314 1.308,-0.684 0.68,-1.127 -0.7,-0.493 -1.064,-0.545 -2.913,-1.485 m -1.441,-0.101 0.787,0.603 c -0.901,0.695 -1.737,1.421 -2.888,2.11 -0.525,0.314 -1.308,-0.684 -0.68,-1.127 0.7,-0.493 1.064,-0.545 2.913,-1.485"
           id="path434" />
        <path
           d="m 157.12,137.571 0.654,0.503 3.231,-1.869 c 0,0 5.8,2.137 8.623,-2.694 2.114,-3.618 5.469,-5.104 7.15,-5.879 1.681,-0.775 4.073,0.37 4.073,0.37 -2.156,-8.212 -15.198,5.892 -22.81,8.865 z"
           id="path436" />
      </g>
    </g>
  </g>
  <g
     id="g1099"
     transform="matrix(1.0241812,0,0,1.0241812,-86.089202,-0.31332919)"
     style="stroke:#464646;stroke-opacity:1">
    <path
       style="fill:#ffffff;stroke:#464646;stroke-width:0.264583px;stroke-linecap:butt;stroke-linejoin:miter;stroke-opacity:1"
       d="m 138.0105,11.169585 c -2.4123,0.827265 -4.71406,1.405834 -7.81871,3.79089 L 128.2625,13.91121 c 4.27193,-2.76428 7.36895,-3.402556 9.748,-2.741625 z"
       id="path1095"
       sodipodi:nodetypes="cccc" />
    <path
       style="fill:#ffffff;stroke:#464646;stroke-width:0.264583px;stroke-linecap:butt;stroke-linejoin:miter;stroke-opacity:1"
       d="m 127.70559,11.169585 c 2.4123,0.827265 4.71406,1.405834 7.81871,3.79089 l 1.92929,-1.049265 c -4.27193,-2.76428 -7.36895,-3.402556 -9.748,-2.741625 z"
       id="path1093"
       sodipodi:nodetypes="cccc" />
  </g>
</svg>
