<?xml version="1.0" encoding="UTF-8" standalone="no"?>
<svg
   xmlns:dc="http://purl.org/dc/elements/1.1/"
   xmlns:cc="http://creativecommons.org/ns#"
   xmlns:rdf="http://www.w3.org/1999/02/22-rdf-syntax-ns#"
   xmlns:svg="http://www.w3.org/2000/svg"
   xmlns="http://www.w3.org/2000/svg"
   xmlns:xlink="http://www.w3.org/1999/xlink"
   xmlns:sodipodi="http://sodipodi.sourceforge.net/DTD/sodipodi-0.dtd"
   xmlns:inkscape="http://www.inkscape.org/namespaces/inkscape"
   width="494.101"
   height="696.903"
   viewBox="0 0 130.731 184.389"
   version="1.1"
   id="svg282"
   sodipodi:docname="Seal_of_Jepara_Regency.svg"
   inkscape:version="1.0.1 (3bc2e813f5, 2020-09-07)">
  <metadata
     id="metadata286">
    <rdf:RDF>
      <cc:Work
         rdf:about="">
        <dc:format>image/svg+xml</dc:format>
        <dc:type
           rdf:resource="http://purl.org/dc/dcmitype/StillImage" />
      </cc:Work>
    </rdf:RDF>
  </metadata>
  <sodipodi:namedview
     pagecolor="#ffffff"
     bordercolor="#666666"
     borderopacity="1"
     objecttolerance="10"
     gridtolerance="10"
     guidetolerance="10"
     inkscape:pageopacity="0"
     inkscape:pageshadow="2"
     inkscape:window-width="1366"
     inkscape:window-height="705"
     id="namedview284"
     showgrid="false"
     inkscape:zoom="0.64562062"
     inkscape:cx="158.7209"
     inkscape:cy="463.07914"
     inkscape:window-x="-8"
     inkscape:window-y="-8"
     inkscape:window-maximized="1"
     inkscape:current-layer="svg282" />
  <style
     id="style2"><![CDATA[.X{stroke-width:.265}.Y{fill:#fff}.Z{fill:#8b4513}.a{fill:#ebebeb}.b{stroke:#dcdcdc}.c{stroke:#d3d3d3}.d{stroke:#66330e}.e{opacity:.999}.f{opacity:.997}.g{fill-rule:evenodd}]]></style>
  <defs
     id="defs64">
    <linearGradient
       id="linearGradient1369"
       x1="38.265999"
       y1="149.987"
       x2="38.265999"
       y2="17.681"
       spreadMethod="pad"
       gradientUnits="userSpaceOnUse">
      <stop
         offset="0"
         stop-color="#c4d427"
         id="stop1365" />
      <stop
         offset="1"
         stop-color="#9aa61f"
         id="stop1367"
         style="stop-color:#9aa61f;stop-opacity:0.26206896" />
    </linearGradient>
    <linearGradient
       id="linearGradient1198"
       spreadMethod="pad"
       x1="0"
       y1="0"
       x2="130.731"
       y2="0"
       gradientUnits="userSpaceOnUse">
      <stop
         offset="0"
         stop-color="#fff"
         id="stop1194" />
      <stop
         offset="1"
         stop-color="#bebebe"
         id="stop1196"
         style="stop-color:#343434;stop-opacity:1" />
    </linearGradient>
    <linearGradient
       id="A"
       spreadMethod="pad"
       x1="0"
       y1="0"
       x2="130.731"
       y2="0"
       gradientUnits="userSpaceOnUse">
      <stop
         offset="0"
         stop-color="red"
         id="stop4" />
      <stop
         offset="1"
         stop-color="#ac0000"
         id="stop6" />
    </linearGradient>
    <linearGradient
       id="B"
       spreadMethod="pad"
       x1="0"
       y1="0"
       x2="130.731"
       y2="0"
       gradientUnits="userSpaceOnUse">
      <stop
         offset="0"
         stop-color="#dcdcdc"
         id="stop9" />
      <stop
         offset=".5"
         stop-color="#fff"
         id="stop11" />
      <stop
         offset="1"
         stop-color="#c3c3c3"
         id="stop13" />
    </linearGradient>
    <linearGradient
       id="C"
       spreadMethod="pad"
       x1="0"
       y1="0"
       x2="130.731"
       y2="0"
       gradientUnits="userSpaceOnUse">
      <stop
         offset="0"
         stop-color="#c8c8c8"
         id="stop16" />
      <stop
         offset="1"
         stop-color="#909090"
         id="stop18" />
    </linearGradient>
    <linearGradient
       id="D"
       spreadMethod="pad"
       x1="0"
       y1="0"
       x2="130.731"
       y2="0"
       gradientUnits="userSpaceOnUse">
      <stop
         offset="0"
         stop-color="#fff"
         id="stop21" />
      <stop
         offset="1"
         stop-color="#bebebe"
         id="stop23" />
    </linearGradient>
    <linearGradient
       id="E"
       x1="21.444"
       y1="30.137"
       x2="21.444"
       y2="51.291"
       xlink:href="#I">
      <stop
         offset="0"
         stop-color="#a0d9f6"
         id="stop26" />
      <stop
         offset="1"
         stop-color="#e1f3fc"
         id="stop28" />
    </linearGradient>
    <linearGradient
       xlink:href="#D"
       id="F"
       x1="111.58513"
       y1="34.005119"
       x2="142.23598"
       y2="34.005119"
       gradientTransform="scale(0.51141593,1.9553556)"
       gradientUnits="userSpaceOnUse" />
    <linearGradient
       xlink:href="#linearGradient1198"
       id="G"
       x1="57.06641"
       y1="57.783585"
       x2="71.922119"
       y2="57.783585" />
    <linearGradient
       xlink:href="#D"
       id="H"
       x1="39.214432"
       y1="77.459259"
       x2="59.252575"
       y2="77.459259"
       gradientTransform="scale(1.426501,0.70101597)"
       gradientUnits="userSpaceOnUse" />
    <linearGradient
       id="I"
       x1="65.365"
       y1="144.386"
       x2="65.366"
       y2="178.88"
       spreadMethod="pad"
       xlink:href="#d">
      <stop
         offset="0"
         stop-color="#0073ac"
         id="stop34" />
      <stop
         offset="1"
         stop-color="#2f318b"
         id="stop36" />
    </linearGradient>
    <linearGradient
       id="J"
       x1="38.265999"
       y1="149.987"
       x2="38.265999"
       y2="17.681"
       spreadMethod="pad"
       gradientUnits="userSpaceOnUse">
      <stop
         offset="0"
         stop-color="#c4d427"
         id="stop39" />
      <stop
         offset="1"
         stop-color="#9aa61f"
         id="stop41" />
    </linearGradient>
    <linearGradient
       xlink:href="#D"
       id="K"
       x1="-498.81711"
       y1="134.56113"
       x2="-431.37704"
       y2="134.56113"
       gradientTransform="matrix(0.2339528,0,0,0.29922345,173.86852,2.49e-4)"
       gradientUnits="userSpaceOnUse" />
    <linearGradient
       xlink:href="#B"
       id="L"
       x1="-53.015842"
       y1="313.25394"
       x2="-56.800922"
       y2="315.81635"
       gradientTransform="matrix(2.084208,0,0,0.47979855,174.017,0)"
       gradientUnits="userSpaceOnUse" />
    <linearGradient
       xlink:href="#A"
       id="M"
       x1="-89.03685"
       y1="208.51688"
       x2="-84.175026"
       y2="208.80618"
       gradientTransform="matrix(1.4118911,0,0,0.70826992,174.017,0)"
       gradientUnits="userSpaceOnUse" />
    <linearGradient
       xlink:href="#A"
       id="N"
       x1="-45.411118"
       y1="382.05826"
       x2="-47.075092"
       y2="381.78702"
       gradientTransform="matrix(2.6475695,0,0,0.37770491,174.017,0)"
       gradientUnits="userSpaceOnUse" />
    <linearGradient
       xlink:href="#J"
       id="O"
       x1="-41.070721"
       y1="311.33215"
       x2="-48.837505"
       y2="312.18628"
       gradientTransform="matrix(2.084208,0,0,0.47979855,174.017,0)"
       gradientUnits="userSpaceOnUse" />
    <linearGradient
       xlink:href="#A"
       id="P"
       x1="-65.93679"
       y1="206.51324"
       x2="-69.374619"
       y2="207.22923"
       gradientTransform="matrix(1.4118911,0,0,0.70826992,174.017,0)"
       gradientUnits="userSpaceOnUse" />
    <linearGradient
       xlink:href="#A"
       id="Q"
       x1="-37.433777"
       y1="382.64905"
       x2="-35.326832"
       y2="382.64905"
       gradientTransform="matrix(2.6475695,0,0,0.37770491,174.017,0)"
       gradientUnits="userSpaceOnUse" />
    <linearGradient
       xlink:href="#D"
       id="R"
       x1="-346.45898"
       y1="228.31041"
       x2="-307.89734"
       y2="228.31041"
       gradientTransform="matrix(0.33476541,0,0,0.20911409,173.86852,2.49e-4)"
       gradientUnits="userSpaceOnUse" />
    <linearGradient
       xlink:href="#J"
       id="S"
       x1="79.075584"
       y1="84.496063"
       x2="139.22383"
       y2="84.496063"
       gradientTransform="scale(0.64259707,1.5561851)"
       gradientUnits="userSpaceOnUse" />
    <linearGradient
       xlink:href="#B"
       id="T"
       x1="50.209419"
       y1="185.65459"
       x2="65.339066"
       y2="231.07735"
       gradientTransform="scale(1.406679,0.71089422)"
       gradientUnits="userSpaceOnUse" />
    <linearGradient
       xlink:href="#J"
       id="U"
       x1="113.19756"
       y1="126.98238"
       x2="55.389946"
       y2="151.78369"
       gradientTransform="scale(0.83788577,1.1934801)"
       gradientUnits="userSpaceOnUse" />
    <linearGradient
       xlink:href="#J"
       id="V"
       x1="46.98032"
       y1="139.87869"
       x2="90.540581"
       y2="163.24677"
       gradientTransform="scale(0.90976483,1.0991852)"
       gradientUnits="userSpaceOnUse" />
    <linearGradient
       xlink:href="#linearGradient1369"
       id="W"
       x1="44.1726"
       y1="183.17691"
       x2="35.508446"
       y2="224.61829"
       gradientTransform="scale(1.3552505,0.73787098)"
       gradientUnits="userSpaceOnUse" />
    <path
       id="X"
       d="M-188.211 100.409c-.313.472-.704.42-.933 1.455-.482-.066-.938-.313-1.389-.595-.301.479-.084 1.448.165 2.447-.92-.105-1.737-.303-2.414-.628.261.836.481 1.684 1.124 2.414-1.457-.47-3.956 1.189-2.977 2.943 3.761-2.279 5.271 1.976 6.423 3.373 1.152-1.397 2.661-5.652 6.423-3.373.979-1.755-1.52-3.414-2.977-2.943.644-.73.864-1.578 1.124-2.414-.678.325-1.494.524-2.414.628.25-1 .466-1.968.165-2.447-.451.282-.907.529-1.389.595-.228-1.035-.62-.983-.933-1.455z" />
    <path
       id="Y"
       d="M-188.106 102.455c-.391.013-.813.131-1.01.431-.046.107-.069.228-.086.352-.177-.218-.439-.394-.663-.454-.218.304.259.923.444 1.369a.6.6 0 0 1-.228.179c-.537-.132-.584.718-1.152.492-.441-.415-.133.308-.407.398-.368.412.629.81.521 1.352-.189.529-.827-.075-1.223.043-.581.068-.049.527.265.559.542.49 1.316.396 1.966.602.516.223.704.953 1.397.797.527-.146 1.141-.064 1.568-.482.375-.472.778-1.043 1.448-1.08.054.053.136.067.208.05.403-.14 1.243-.114 1.106-.758-.298-.563-.984-.145-1.455-.335-.156-.311-.322-.646-.59-.902.154-.293.22-.595-.131-.731-.182-.001-.331.068-.465.167a6.61 6.61 0 0 1-.376-.686c.311-.394.551-.928-.097-.97a.94.94 0 0 0-.249.221c-.098-.234-.209-.46-.423-.596a2.17 2.17 0 0 0-.371-.019z" />
    <path
       id="Z"
       d="M-190.001 116.486c.606.564 1.214 1.04 1.79 2.69.576-1.65 1.184-2.126 1.79-2.69l-1.79.024z" />
    <path
       id="a"
       d="M-192.418 107.222c1.662.19 3.074 1.792 4.207 4.961v4.895c-5.643-1.061-3.394-6.261-4.207-9.856z" />
    <path
       id="b"
       d="M-184.004 107.222c-1.662.19-3.074 1.792-4.207 4.961v4.895c5.643-1.061 3.394-6.261 4.207-9.856z" />
    <path
       id="c"
       d="M34.839 67.744c-1.433 1.269-1.321 3.794-4.39 3.733 1.929-.839 2.973-2.448 4.39-3.733z" />
    <linearGradient
       id="d"
       gradientUnits="userSpaceOnUse" />
    <linearGradient
       inkscape:collect="always"
       xlink:href="#C"
       id="linearGradient1192"
       gradientUnits="userSpaceOnUse"
       gradientTransform="matrix(0.33476541,0,0,0.20911409,173.86852,2.49e-4)"
       x1="-330.54468"
       y1="228.31041"
       x2="-307.89734"
       y2="228.31041" />
    <linearGradient
       inkscape:collect="always"
       xlink:href="#C"
       id="linearGradient1200"
       x1="57.06641"
       y1="57.783585"
       x2="71.922119"
       y2="57.783585" />
    <linearGradient
       inkscape:collect="always"
       xlink:href="#B"
       id="linearGradient1371"
       gradientUnits="userSpaceOnUse"
       gradientTransform="scale(1.3552505,0.73787098)"
       x1="44.1726"
       y1="183.17691"
       x2="35.508446"
       y2="224.61829" />
    <linearGradient
       inkscape:collect="always"
       xlink:href="#B"
       id="linearGradient1373"
       gradientUnits="userSpaceOnUse"
       gradientTransform="scale(0.64259707,1.5561851)"
       x1="79.075584"
       y1="84.496063"
       x2="139.22383"
       y2="84.496063" />
    <linearGradient
       inkscape:collect="always"
       xlink:href="#B"
       id="linearGradient1375"
       gradientUnits="userSpaceOnUse"
       gradientTransform="scale(0.83788577,1.1934801)"
       x1="113.19756"
       y1="126.98238"
       x2="55.389946"
       y2="151.78369" />
    <linearGradient
       inkscape:collect="always"
       xlink:href="#B"
       id="linearGradient1377"
       gradientUnits="userSpaceOnUse"
       gradientTransform="scale(0.90976483,1.0991852)"
       x1="46.98032"
       y1="139.87869"
       x2="90.540581"
       y2="163.24677" />
    <linearGradient
       inkscape:collect="always"
       xlink:href="#A"
       id="linearGradient1383"
       gradientUnits="userSpaceOnUse"
       gradientTransform="matrix(2.084208,0,0,0.47979855,174.017,0)"
       x1="-59.160454"
       y1="313.89453"
       x2="-53.567112"
       y2="312.04346" />
    <linearGradient
       inkscape:collect="always"
       xlink:href="#A"
       id="linearGradient1385"
       gradientUnits="userSpaceOnUse"
       gradientTransform="matrix(2.084208,0,0,0.47979855,174.017,0)"
       x1="-41.070721"
       y1="311.33215"
       x2="-51.737762"
       y2="311.33215" />
  </defs>
  <g
     id="g1418">
    <path
       d="M125.436 25.074v79.307c-1.838 26.64-10.796 43.401-22.326 54.608-11.233 10.918-25.13 16.541-37.746 19.891-12.616-3.35-26.512-8.973-37.746-19.891-11.531-11.207-20.49-27.968-22.328-54.608V25.074z"
       fill="url(#J)"
       id="path66" />
    <path
       d="M5.292 25.074h120.146v31.245H5.292z"
       fill="url(#E)"
       class="e g"
       id="path68" />
    <path
       d="M69.901 26.6c-.605.773-4.325.965-6.103.063C57.65 32.431 44.03 43.851 33.217 39.79c-6.184-3.348-7.495 8.667-27.925 16.528v11.434c19.964-4.249 39.661-10.934 60.073-11.091 20.412.157 40.109 6.842 60.073 11.091l.001-11.434c-17.814 0-21.237-15.85-27.352-13.8-7.859 2.634-16.769-7.313-28.185-15.918z"
       fill="#2f318b"
       class="e"
       id="path70" />
    <path
       d="M30.521 42.145c-3.594 3.398-9.608 4.636-11.728 9.256 4.939-1.648 9.123-4.725 14.458-5.098 2.778 1.284 6.525-3.797 10.325-3.888 1.508-2.542-6.08.156-8.016-.292-1.672.46-3.584-.983-5.039.021zm32.621-12.812c-4.3 2.614-7.423 6.691-11.684 9.323 2.515-.088 7.137-4.007 10.119-1.751 2.903-.831 4.149.843 7.186.314 4.974 1.072 9.299 2.66 13.779 5.35 2.549.606 6.578 3.535 8.13 3.254-4.405-3.735-10.886-4.954-13.951-10.233-3.284-3.449-5.941-7.925-11.242-7.327-.924-.408-1.872.326-2.339 1.069zm28.13 14.633c3.89 1.408 7.798 5.408 10.847 6.131 2.417 2.141 9.528 5.247 9.79 6.06-4.762-3.146-6.673-10.651-12.867-11.387-2.742.526-5.068-1.049-7.77-.804z"
       fill="#3739a3"
       id="path72" />
    <path
       d="M23.213 5.293c-1.04 3.352-2.299 6.846-4.775 10.221-2.791 3.803-7.093 7.099-13.146 9.561h120.146c-6.053-2.462-10.355-5.758-13.146-9.561-2.476-3.374-3.735-6.868-4.775-10.221h-42.15z"
       fill="#f5f5f5"
       stroke="#818181"
       id="path78" />
    <path
       d="M24.568 7.23c-1 3.042-2.242 6.26-4.568 9.43-1.765 2.404-4.133 4.56-6.99 6.477h104.709c-2.857-1.917-5.226-4.072-6.99-6.477-2.326-3.17-3.568-6.388-4.568-9.43H65.365z"
       class="Y"
       id="path80" />
    <path
       d="M20.102 1.015c-2.381 8.3-4.889 16.56-19.088 21.167v82.399c3.761 55.081 37.784 71.931 64.35 78.761 26.566-6.83 60.59-23.68 64.351-78.761V22.182c-14.199-4.607-16.707-12.867-19.088-21.167H65.365zm3.111 4.277h42.152 42.15c1.04 3.352 2.299 6.847 4.775 10.221 2.791 3.803 7.093 7.098 13.146 9.56v79.307c-1.838 26.64-10.796 43.401-22.326 54.608-11.233 10.918-25.13 16.541-37.746 19.891-12.616-3.35-26.513-8.973-37.746-19.891C16.087 147.781 7.128 131.02 5.29 104.38V25.074c6.053-2.462 10.355-5.757 13.146-9.56 2.476-3.374 3.735-6.869 4.775-10.221z"
       fill="#f5f5f5"
       stroke="#818181"
       stroke-width="1.03"
       id="path82" />
    <path
       d="M21.019 2.244c-1.123 3.879-2.386 7.852-5.038 11.466-2.738 3.731-6.971 6.989-13.738 9.335v81.481c1.869 27.281 11.175 44.911 23.251 56.648 11.988 11.652 26.776 17.495 39.871 20.893 13.095-3.397 27.882-9.241 39.871-20.893 12.076-11.737 21.383-29.368 23.251-56.648V23.045c-6.767-2.346-10.999-5.604-13.738-9.335-2.652-3.614-3.915-7.588-5.038-11.466H65.365zm2.168 1.82h.026 42.152 42.15a1.23 1.23 0 0 1 1.173.865c1.029 3.315 2.238 6.65 4.592 9.858 2.635 3.59 6.732 6.755 12.619 9.149a1.23 1.23 0 0 1 .765 1.138v79.307a1.23 1.23 0 0 1-.003.085c-1.854 26.878-10.955 43.992-22.696 55.404-11.445 11.124-25.558 16.817-38.287 20.197a1.23 1.23 0 0 1-.63 0c-12.729-3.38-26.842-9.073-38.287-20.197-11.742-11.412-20.843-28.526-22.697-55.404a1.23 1.23 0 0 1-.003-.085V25.074a1.23 1.23 0 0 1 .765-1.138c5.887-2.394 9.984-5.558 12.619-9.149 2.355-3.208 3.564-6.543 4.592-9.858a1.23 1.23 0 0 1 1.147-.865z"
       class="Y"
       id="path84" />
    <path
       d="M102.356 8.722l-1.493.001-1.493.001-1.951 5.719c-2.15 6.301-1.98 5.916-2.686 6.095l-.349.089-.021.661-.021.661h1.885 1.885l-.021-.668c-.016-.528-.044-.671-.129-.682-.721-.094-.867-.19-.867-.569 0-.135.15-.589.333-1.007l.333-.76h2.307 2.307l.218.343c.234.369.431.941.427 1.242-.005.373-.265.549-.923.623l-.448.051v.713.713h2.855 2.855v-.711-.711l-.302-.09c-.616-.185-.766-.379-1.092-1.414l-1.787-5.132-1.712-4.861zm-35.134.036l-1.942 5.674-2.103 5.834c-.088.088-.34.205-.558.261l-.398.101-.021.66-.021.66h1.918 1.918v-.649c0-.72.052-.651-.573-.756-.327-.055-.511-.231-.511-.488 0-.115.151-.565.336-1.001l.336-.792h2.321 2.321l.237.397c.265.442.424 1.06.349 1.357-.063.251-.341.391-.901.455l-.447.051v.713.713h2.891 2.891v-.723c0-.608-.018-.723-.113-.723-.222 0-.822-.307-.934-.479-.063-.096-.34-.833-.616-1.637l-1.941-5.546-1.44-4.084h-1.5zm11.803.24v.688.688l.395.082c.217.045.469.142.56.215l.165.134.02 4.432-.064 4.635c-.098.236-.36.389-.779.456l-.297.047v.786h0v.786h2.855 2.855v-.749-.749l-.301-.04c-.166-.022-.385-.103-.488-.179-.337-.249-.389-.465-.397-1.64l-.007-1.087.44-.021.44-.021 1.072 2.244 1.072 2.244h2.193 2.193v-.759-.759l-.199-.001c-.412-.001-.715-.142-.959-.446l-1.316-1.788c-1.032-1.429-1.067-1.49-.908-1.555.701-.286 1.008-.477 1.4-.868 1.812-1.811 1.309-5.217-.924-6.257-.873-.407-1.314-.447-5.351-.485zm-55.074.013v.608.608l.288.049c.158.027.394.12.524.208.458.308.451.252.475 3.912.024 3.695-.028 4.781-.248 5.205-.213.41-.533.558-1.129.519l-.488-.031.001.839c.001.854.023.963.216 1.045h0c.06.025.515.033 1.012.018 1.979-.063 3.085-.526 3.764-1.578.506-.782.524-.957.569-5.403l.185-4.192a1.1 1.1 0 0 1 .449-.398l.303-.145.003-.632.003-.632h-2.963zm9.974 0v.452.452l.376.181c.724.348.671-.059.671 5.119l-.125 4.758c-.156.286-.432.506-.71.567l-.213.047v.681.681h4.77 4.77v-1.59-1.59h-.493-.493l-.357.521c-.497.727-.804.879-1.835.91-.67.02-.791.005-1.001-.127-.427-.268-.447-.401-.447-2.901V14.92l1.572.052c1.74.058 1.713.05 2.052.598.138.224.169.236.574.236h.428v-1.738-1.738l-.406.022-.406.022-.118.318c-.22.594-.3.618-2.111.646l-1.585.024v-1.531V10.3l1.283.027c1.511.032 1.569.052 2.134.747l.378.466.488.002.488.002v-1.265-1.265h-4.841zm15.105 0v.685.685l.199.041.475.114c.499.133.488.015.466 4.95l-.02 4.377-.225.201a1.1 1.1 0 0 1-.56.251l-.335.05v.791.791h2.855 2.855v-.75-.75l-.436-.031c-.704-.051-.751-.132-.78-1.361l-.024-1.01h.782c2.444-.001 3.98-.417 4.883-1.322.728-.73 1.031-1.628 1.027-3.051-.002-1.108-.11-1.594-.551-2.493-.506-1.033-1.252-1.643-2.336-1.91-.787-.194-2.058-.258-5.186-.258zm4.481 1.499l.741.036c1.928.093 2.675.997 2.673 3.236-.001 1.143-.171 1.681-.694 2.204-.437.437-.898.637-1.737.754l-.771.078h-.212v-3.154zm29.994.019h.565c1.526 0 2.397.478 2.732 1.502.192.586.19 1.91-.004 2.504-.275.839-.897 1.375-1.852 1.592-.272.062-.707.112-.967.112h-.474v-2.855zm16.48 1.135c.028.032.45 1.115.939 2.407l1.021 2.692.133.343h-1.986c-1.093 0-1.987-.024-1.987-.054-.002-.165 1.838-5.436 1.881-5.388zm-32.157.001c.03.031.494 1.211 1.03 2.622l1.025 2.692c.047.119-.075.126-1.953.126-1.571 0-1.996-.019-1.971-.09l.923-2.749.946-2.602z"
       fill="red"
       stroke="#8b0000"
       stroke-width=".172"
       id="path86" />
    <path
       d="M24.4 9.32c.062.01.096.048.15.061l.031-.031zm25.023.152l.092.023.004-.004zm51.439.219l-.799.002-.367 1.076.402-.068a939.37 939.37 0 0 1 .611.32l.098.131.033.057.029.057.033.074.07.168.211.535.645 1.686 1.018 2.684.133.342a.969.969 0 0 1-.018.742.969.969 0 0 1 .227.246l.219.342a.969.969 0 0 1 .002.002c.346.546.585 1.038.576 1.773-.005.377-.262.846-.594 1.121h1.109 1.67c-.188-.115-.397-.158-.539-.342-.301-.389-.423-.785-.594-1.326l-1.777-5.1-1.594-4.521h-.803zm-32.949.035l-.348 1.02.119-.039a462.59 462.59 0 0 1 .457.043l.383.242a.969.969 0 0 1 0 .002l.115.145.037.063.033.061.035.08.076.182.232.58.711 1.84 1.02 2.682c.033.083.124.272.053.6-.019.087-.099.106-.143.184a.969.969 0 0 1 .383.359l.236.396a3.74 3.74 0 0 1 .408.988c.087.336.165.641.049 1.102-.081.322-.352.54-.602.727h1.205 1.475c-.008-.005-.016-.008-.023-.014-.124-.087-.246-.147-.418-.41-.148-.227-.125-.236-.17-.346l-.154-.398-.396-1.109-1.938-5.542-1.211-3.437h-.814zm-42.287.254c.077.07.131.079.205.189.191.285.255.587.293.896.075.62.07 1.495.082 3.324l-.033 3.881c-.039.827-.073 1.291-.324 1.775-.176.339-.485.684-.875.863-.209.096-.42.073-.631.096a.89.89 0 0 0 .227.016c1.839-.058 2.491-.375 2.98-1.133.238-.368.245-.303.309-.904s.083-1.763.105-3.984l.055-3.455a4.57 4.57 0 0 1 .066-.684 2 2 0 0 1 .193-.527c.103-.179.267-.236.393-.354h-1.757zm9.916 0c.134.243.293.482.326.738.101.77.072 1.911.072 4.496l-.02 3.885-.045.752c-.026.197-.094.428-.18.586-.147.269-.464.36-.699.543h3.697.32c-.079-.035-.188-.054-.242-.088a.969.969 0 0 1-.002 0c-.134-.084-.354-.23-.529-.482s-.255-.534-.297-.803c-.083-.538-.074-1.183-.074-2.436v-2.254a.969.969 0 0 1 .395-.779.969.969 0 0 1-.395-.779V11.83v-1.531a.969.969 0 0 1 .055-.318zm6.871 0c.074.064.161.114.227.184V9.98zm8.189 0c.057.048.088.017.141.082.296.366.319.692.354 1.059.069.732.052 1.904.041 4.371l-.02 4.377a.969.969 0 0 1-.322.717l-.225.201a.969.969 0 0 1-.002.002c-.123.109-.28.119-.416.191h1.73 1.338c-.146-.11-.314-.17-.4-.32-.33-.576-.251-.954-.266-1.58l-.025-1.012a.969.969 0 0 1 .227-.645.969.969 0 0 1-.215-.607v-3.152-3.154a.969.969 0 0 1 .143-.504c-.308-.002-.21-.025-.564-.025zm30.066.002l.084.068a.969.969 0 0 1 .359.75l.02 4.434-.002 3.496-.023.863-.023.281c-.01.088.008.137-.088.369-.139.335-.375.57-.65.736h1.533 1.471c-.253-.197-.572-.597-.668-.994-.099-.409-.098-.787-.102-1.389l-.006-1.088a.969.969 0 0 1 .219-.617.969.969 0 0 1-.256-.654v-2.853-2.855a.969.969 0 0 1 .156-.527zm5.723.117c.622.363 1.106.948 1.33 1.631.164.499.192 1.007.191 1.551s-.032 1.056-.195 1.555c-.129.395-.412.694-.674 1.004.052-.027.132-.084.156-.094.654-.267.76-.334 1.082-.656 1.319-1.318.903-3.971-.646-4.693-.391-.182-.516-.236-1.168-.295-.013-.001-.063-.001-.076-.002zm-30.137.072c.285.166.588.31.803.57.647.782.837 1.812.836 3.039-.001 1.238-.292 2.206-.977 2.891-.095.095-.273.088-.379.17.892-.18 1.577-.435 1.941-.801.543-.544.747-1.08.744-2.365-.002-1.045-.044-1.239-.451-2.07s-.848-1.184-1.699-1.395c-.099-.024-.679-.018-.818-.039zm-12.812 2.854c-.014.037-.053.095-.068.135l.014.014zm-.947 1.033a1.07 1.07 0 0 1-.256.102c.09.027.163.106.256.154v-.248zm44.203 2.246c-.401.335-.89.569-1.418.709a.969.969 0 0 1 .016.029l1.072 2.244.807 1.693h1.582 1.104c-.286-.14-.633-.151-.824-.389l-1.346-1.828-.953-1.367c-.089-.152-.244-.27-.205-.762.009-.116.106-.21.166-.33zm-44.202 3.94c-.202.227-.369.485-.658.629-.173.086-.374.065-.553.107h1.211v-.621zm53.707.246c-.094.177-.201.349-.342.49h.365.295c-.11-.121-.242-.224-.297-.363-.02-.051-.009-.08-.021-.127zm-32.055.002c-.11.343-.253.448-.33.488h.279.256c-.119-.135-.143-.315-.205-.488zm-29.754.957c-.021.005-.025.032-.047.037l.068-.016z"
       fill="#ff5a5a"
       id="path88" />
  </g>
  <g
     id="g1381">
    <path
       d="M39.69 152.486c-4.327 0-7.371 1.775-12.836 1.775a24.98 24.98 0 0 1-3.902-.31 66.08 66.08 0 0 0 4.666 5.037c11.234 10.918 25.13 16.54 37.746 19.891 12.616-3.35 26.513-8.973 37.746-19.891a66.08 66.08 0 0 0 4.666-5.037 24.98 24.98 0 0 1-3.903.31c-5.465 0-8.508-1.775-12.836-1.775s-7.373 1.775-12.838 1.775-8.508-1.775-12.836-1.775-7.371 1.775-12.836 1.775-8.51-1.775-12.838-1.775z"
       fill="url(#I)"
       id="path74" />
    <path
       d="M39.691 152.486c-4.327 0-7.371 1.775-12.836 1.775a24.98 24.98 0 0 1-3.902-.31 65.65 65.65 0 0 0 1.96 2.242 28.21 28.21 0 0 0 1.942.068c5.882 0 9.095-1.776 12.836-1.776s6.956 1.776 12.838 1.776 9.095-1.776 12.836-1.776 6.954 1.776 12.836 1.776 9.098-1.776 12.838-1.776 6.954 1.776 12.836 1.776a28.19 28.19 0 0 0 1.943-.069 65.64 65.64 0 0 0 1.96-2.242 24.98 24.98 0 0 1-3.903.31c-5.465 0-8.508-1.775-12.836-1.775s-7.373 1.775-12.838 1.775-8.508-1.775-12.836-1.775-7.371 1.775-12.836 1.775-8.51-1.775-12.838-1.775zm0 6.815c-3.518 0-6.189 1.173-10.001 1.612.672.599 1.352 1.179 2.039 1.744 3.089-.525 5.403-1.355 7.962-1.355 3.74 0 6.956 1.775 12.838 1.775s9.095-1.775 12.836-1.775 6.954 1.775 12.836 1.775 9.098-1.775 12.838-1.775c2.559 0 4.873.831 7.963 1.355a66.58 66.58 0 0 0 2.04-1.743c-3.813-.439-6.484-1.613-10.002-1.613-4.328 0-7.373 1.776-12.838 1.776s-8.508-1.776-12.836-1.776-7.371 1.776-12.836 1.776-8.51-1.776-12.838-1.776zm0 7.217a17.28 17.28 0 0 0-2.499.191c.943.631 1.895 1.239 2.855 1.82 3.592.106 6.788 1.765 12.482 1.765 5.882 0 9.095-1.776 12.836-1.776s6.954 1.776 12.836 1.776c5.695 0 8.891-1.659 12.483-1.765a72.09 72.09 0 0 0 2.854-1.82 17.28 17.28 0 0 0-2.5-.191c-4.328 0-7.373 1.775-12.838 1.775s-8.508-1.775-12.836-1.775-7.371 1.775-12.836 1.775-8.51-1.775-12.838-1.775z"
       fill="#008fd7"
       class="f"
       id="path76" />
  </g>
  <g
     id="g1363">
    <path
       d="M54.9 57.012l2.457 2.236h16.015l2.457-2.236z"
       fill="url(#G)"
       id="path90"
       style="fill-opacity:1;fill:url(#linearGradient1200);" />
    <path
       d="m 65.364619,28.9324 c -6.232517,4.081457 -12.904506,9.934298 -4.598188,15.768618 l -0.148695,5.930363 h 4.746883 4.746884 L 69.962807,44.701018 C 78.269126,38.866963 71.597136,33.013857 65.364619,28.9324 Z"
       fill="url(#K)"
       id="path92"
       style="fill:url(#K);stroke-width:0.264583;fill-opacity:1;" />
    <path
       d="m 60.766431,44.700753 -0.148695,5.930363 h 4.746883 4.746884 l -0.148696,-5.930363 z"
       fill="url(#R)"
       id="path94"
       style="fill:url(#linearGradient1192);stroke-width:0.264583;fill-opacity:1;" />
    <path
       d="M54.9 46.728v10.285h20.929V46.728h-2.363v3.904h-2.268v-3.904h-2.22v3.904h-2.41v-3.904h-1.204-1.204v3.904h-2.41v-3.904h-2.221v3.904h-2.268v-3.904z"
       fill="url(#H)"
       id="path98"
       style="fill-opacity:1;fill:url(#H);" />
    <path
       d="M57.357 59.248l.189 61.232h7.818 7.819l.189-61.232z"
       fill="url(#F)"
       id="path100"
       style="fill-opacity:1;fill:url(#F);" />
    <path
       d="m 65.365,31.84 -1.399,4.305 H 59.44 l 3.662,2.661 -1.399,4.305 3.662,-2.661 3.662,2.661 -1.399,-4.305 3.662,-2.661 h -4.526 z"
       fill="#f5c742"
       class="f"
       id="path102"
       style="fill-rule:evenodd;" />
    <path
       d="m 65.365,31.84 -1.399,4.305 1.399,1.926 -5.925,-1.926 3.662,2.661 2.263,-0.735 -3.662,5.04 3.662,-2.661 v -2.38 l 3.662,5.04 -1.399,-4.305 -2.263,-0.735 5.925,-1.926 h -4.526 l -1.399,1.926 z"
       fill="#ffeba3"
       class="f"
       id="path104"
       style="fill-rule:evenodd;" />
  </g>
  <g
     id="g1354">
    <path
       d="M64.733 64.033l.001.149c-3.869 1.095-5.957 5.432-5.534 9.283-2.114 1.012-6.22 1.843-7.709 4.814-1.69 1.719-1.518 5.086-2.616 6.454-5.595.741-8.987 8.077-5.875 12.81 1.462 2.409 1.591 5.286.935 7.967a36.75 36.75 0 0 0-.221 8.724c.636-4.11.479-8.898 3.509-12.116 2.896-2.86 4.81 1.361 3.921 3.989-.133 2.502-.354 5.093.459 7.512-.119-2.679.465-5.354 2.094-7.428.767-2.246 1.196-5.544 4.41-5.143 3.699-.162 4.449 3.836 4.056 6.688-.594 5.076-7.706 12.539-7.706 12.539s3.061-.727 3.549 1.265c2.199-.632 5.966-1.051 7.045 2.575 1.078-3.625 4.845-3.206 7.044-2.575.488-1.992 3.549-1.265 3.549-1.265s-7.112-7.463-7.706-12.539c-.393-2.852.357-6.85 4.056-6.688 3.214-.4 3.643 2.897 4.41 5.143 1.629 2.074 2.213 4.749 2.094 7.428.813-2.418.591-5.01.458-7.512-.89-2.628 1.024-6.849 3.921-3.989 3.031 3.218 2.874 8.006 3.51 12.116a36.75 36.75 0 0 0-.221-8.724c-.656-2.682-.528-5.558.934-7.967 3.112-4.733-.281-12.068-5.875-12.81-1.098-1.369-.926-4.735-2.616-6.454-1.489-2.971-5.595-3.802-7.709-4.814.423-3.851-1.665-8.188-5.534-9.283l.001-.149a5.36 5.36 0 0 0-.316.068l-.316-.068z"
       fill="#3aac4e"
       stroke="#1c5225"
       class="X"
       id="path108" />
    <path
       d="M65.98 68.541c-4.163.537-2.307 6.891-6.606 7.81-2.835 1.17-4.464 3.614-5.648 6.296-1.733 1.497-6.718 5.274-4.231 7.14 2.283-2.585 5.148-1.263 7.696-.032 2.847-1.006 5.05-6.897 8.838-3.195 1.426 2.229 5.647 2.164 2.583-.628-.982-1.657-6.479-2.147-4.914-4.072 2.309.208 6.267.432 2.98-2.35-1.369-1.539-1.678-3.552.636-3.907.194-2.137.258-5.464-1.332-7.061zm4.2 8.299c1.603.713 2.139 2.393.776 3.166.191 2.661 5.923 3.992 1.978 6.237.689 1.795 5.151 2.946 2.31 5.521 1.974 2.612 6.404-.224 8.262 2.738 3.121 3.768 2.31-3.052-.103-4.003-3.242-2.245-3.14-6.288-5.395-9.332-1.564-2.381-3.423-4.97-6.415-5.401-.674-.359-3.127 1.037-1.414 1.074zM47.948 91.286c-3.319.827-2.726 6.334-.73 7.995 2.105-.718 4.279-3.127 6.033-.355 2.943.615 5.59-2.171 8.591-1.307 3.277 1.861 7.294.708 9.337-2.405 1.755-3.108-2.691-5.421-5.182-6.088-3.259.61-6.768.633-9.469 2.748-2.911.857-5.324-3.332-7.74-.453l-.403.015-.437-.151zm15.587 12.818c.36 3.243 1.155 6.93-.942 9.78-1.257 1.338-2.167 2.975-3.443 4.261-1.767 1.221.566 1.431 1.589 1.273 1.873.081 3.59 1.202 5.045 2.141-.51-2.019-.555-4.256.439-6.15-2.131-.75-1.327-3.054-1.289-4.762l.033-5.497c-.15-.678-.955-.711-1.433-1.046zm3.767-.725c-1.166 1.131-1.067 2.744-.673 4.187.406 2.087 1.272 4.054 2.091 5.987.469.668.707 1.565.188.349-.519-1.762-.754-3.132-1.315-4.466-.064-.014-.578-2.234-.369-3.173.116-.955-.147-1.957.078-2.884zm1.159 13.475c-.041 1.539 1.699 2.609 2.998 3.083 1.23.484 1.02-.697.457-.859.57.131 3.004 1.244 1.419.122-1.344-1.117-2.824-2.896-4.723-2.62l-.096.11-.055.164z"
       fill="#46c15b"
       id="path110" />
  </g>
  <g
     id="g1406">
    <path
       d="m 112.921,118.139 c 0.175,0.03 0.94,1.019 1.208,1.58 0.393,0.823 0.521,1.518 0.485,2.65 l -0.029,0.919 0.364,-0.183 c 0.2,-0.101 0.515,-0.293 0.699,-0.427 l 0.37,-0.244 c 0.092,0 0.212,0.679 0.168,0.953 -0.104,0.649 -0.775,1.599 -1.581,2.237 l -0.346,0.274 0.278,0.142 a 3.83,3.83 0 0 1 1.207,1.119 c 0.159,0.273 0.472,1.25 0.472,1.473 0,0.067 -0.08,0.053 -0.287,-0.053 -0.594,-0.303 -1.048,-0.37 -2.148,-0.318 l -1.025,0.049 -0.673,1.2 c -1.272,2.271 -2.024,3.854 -2.184,4.598 -0.034,0.156 0.018,0.099 0.184,-0.204 0.59,-1.072 1.363,-1.446 2.159,-1.043 0.615,0.311 0.815,0.829 0.805,2.078 l -0.007,0.831 0.341,-0.022 c 0.451,-0.029 0.788,0.16 1.054,0.586 0.396,0.635 0.318,1.719 -0.155,2.164 -0.108,0.102 -0.408,0.281 -0.667,0.397 -0.727,0.327 -1.021,0.737 -1.554,2.173 -0.291,0.784 -0.578,1.171 -1.043,1.407 -0.262,0.133 -0.505,0.198 -0.731,0.198 -0.536,0 -1.079,0.129 -1.587,0.377 -0.421,0.205 -0.449,0.232 -0.272,0.256 0.663,0.09 1.001,1.296 0.636,2.271 -0.431,1.152 -1.67,2.354 -3.182,3.088 l -0.686,0.333 -1.266,0.008 c -1.427,0.009 -1.563,0.034 -2.946,0.528 l -1.311,0.439 c -0.394,0.104 -1.452,0.108 -1.902,0.006 -1.514,-0.341 -2.694,-1.281 -2.855,-2.273 -0.038,-0.232 -0.047,-0.237 -0.631,-0.347 -0.973,-0.184 -2.199,-0.836 -3.296,-1.755 -0.28,-0.234 -0.451,-0.327 -0.578,-0.313 -0.32,0.036 -0.201,0.218 0.238,0.364 0.258,0.086 0.462,0.206 0.532,0.313 0.295,0.45 -0.252,1.226 -0.986,1.402 -1.328,0.319 -2.386,-0.601 -2.386,-2.073 V 144.84 H 87.35 c -0.665,0 -1.13,-0.162 -1.552,-0.542 a 1.78,1.78 0 0 1 -0.163,-2.581 c 0.481,-0.546 1.027,-0.709 1.399,-0.417 0.102,0.08 0.255,0.332 0.34,0.56 0.215,0.578 0.333,0.739 0.544,0.739 0.099,0 0.179,-0.014 0.179,-0.03 0,-0.016 -0.252,-0.382 -0.561,-0.813 a 22.24,22.24 0 0 1 -1.847,-3.08 l -0.436,-0.873 -0.117,0.429 c -0.274,1 -0.962,2.127 -1.613,2.642 a 4.58,4.58 0 0 1 -1.623,0.817 c -0.975,0.253 -1.13,0.134 -1.162,-0.888 l -0.051,-0.784 c -0.02,-0.061 -0.166,-0.025 -0.484,0.118 -1.013,0.458 -2.215,0.664 -3.331,0.574 -1.981,-0.161 -3.478,-1.486 -4.021,-3.558 -0.197,-0.752 -0.324,-1.993 -0.267,-2.61 0.116,-1.251 0.536,-2.195 1.343,-3.012 0.799,-0.81 1.55,-1.145 2.57,-1.147 1.044,-0.002 1.915,0.362 2.684,1.121 0.437,0.431 0.537,0.577 0.639,0.93 0.246,0.846 -0.109,1.517 -1.058,1.999 -0.224,0.114 -0.427,0.26 -0.452,0.325 -0.16,0.417 0.116,1.165 0.476,1.292 0.297,0.105 0.69,-0.053 1.155,-0.465 a 5.15,5.15 0 0 0 1.175,-1.661 c 0.171,-0.438 0.227,-1.327 0.114,-1.815 -0.405,-1.745 -2.275,-3.474 -4.384,-4.053 -0.786,-0.215 -2.207,-0.218 -2.993,-0.004 -0.464,0.126 -2.303,0.781 -2.364,0.841 -0.011,0.011 0.036,0.131 0.104,0.267 0.431,0.853 -0.233,2.193 -1.685,3.402 -0.594,0.495 -1.564,1.152 -2.125,1.439 l -0.326,0.166 0.687,0.098 c 1.901,0.272 2.875,0.792 3.366,1.795 0.432,0.884 0.198,1.861 -0.54,2.251 -0.678,0.358 -1.731,0.101 -2.953,-0.722 -0.209,-0.141 -0.379,-0.222 -0.379,-0.18 -0.773,-0.512 -2.08,-1.016 -2.315,-1.508 l 0.04,-2.137 0.313,-0.914 c 0.315,-0.919 1.032,-2.509 1.302,-2.888 0.245,-0.344 0.224,-0.381 -0.28,-0.508 -0.45,-0.114 -0.478,-0.135 -0.665,-0.481 -0.299,-0.555 -0.565,-1.43 -0.563,-1.859 0.003,-0.665 0.359,-1.212 1.055,-1.62 0.177,-0.104 0.367,-0.276 0.423,-0.383 0.168,-0.326 0.704,-0.814 1.087,-0.989 0.443,-0.203 1.176,-0.327 1.594,-0.27 0.285,0.039 0.333,0.021 0.58,-0.22 0.148,-0.144 0.464,-0.359 0.701,-0.477 l 0.432,-0.216 0.338,-0.109 0.709,0.039 c 0.39,0.022 0.745,0.062 0.789,0.089 0.044,0.027 0.164,-0.016 0.265,-0.096 0.328,-0.258 1.084,-0.567 1.576,-0.644 0.629,-0.099 1.14,-10e-4 1.661,0.32 0.531,0.327 0.829,0.366 1.977,0.255 1.079,-0.104 1.515,-0.065 1.854,0.166 0.459,0.313 0.535,0.49 0.55,1.298 0.01,0.515 0.042,0.745 0.108,0.78 a 2.41,2.41 0 0 0 1.084,0.065 c 0.172,-0.049 0.343,-0.038 0.612,0.04 0.71,0.206 1.327,1.033 1.612,2.16 0.127,0.503 0.14,0.521 0.518,0.744 0.872,0.513 1.322,1.416 1.504,3.016 l 0.093,0.652 c 0.233,0.111 0.918,0.641 1.144,0.886 0.473,0.513 0.598,0.87 0.56,1.602 l -0.033,0.616 0.238,0.209 c 0.493,0.433 0.828,1.536 0.693,2.28 -0.052,0.285 -0.043,0.419 0.039,0.589 0.265,0.547 1.597,1.892 2.981,3.011 1.154,0.933 2.137,1.603 2.224,1.516 0.016,-0.016 0.058,-0.261 0.094,-0.545 0.099,-0.787 0.28,-1.132 0.688,-1.313 0.27,-0.12 0.425,-0.141 0.78,-0.107 l 0.443,0.042 0.387,-0.556 c 0.457,-0.657 0.465,-0.868 0.051,-1.327 -0.141,-0.156 -0.256,-0.314 -0.256,-0.35 0,-0.036 -0.139,-0.088 -0.307,-0.116 -0.45,-0.075 -0.532,-0.139 -0.669,-0.521 -0.166,-0.463 -0.227,-1.721 -0.11,-2.25 0.272,-1.224 0.851,-2 2.929,-3.923 l 0.657,-0.651 c 1.002,-1.071 3.392,-1.346 4.433,-0.51 a 4.92,4.92 0 0 0 0.696,0.432 c 0.544,0.277 1.409,0.885 1.767,1.243 l 0.275,0.275 -0.283,-0.553 c -0.549,-1.071 -0.922,-2.558 -0.825,-3.289 0.134,-1.012 0.679,-1.509 1.666,-1.52 0.605,-0.007 0.97,0.108 1.319,0.414 0.33,0.289 0.517,0.716 0.572,1.296 l 0.043,0.458 0.338,-0.366 c 2.262,-2.445 3.224,-4.961 3.624,-9.474 0.049,-0.557 0.114,-1.039 0.143,-1.072 0.006,-0.007 0.015,-0.009 0.027,-0.007 z"
       id="path112"
       style="fill:#8b4513;" />
    <path
       d="m 17.809,118.139 c -0.175,0.03 -0.94,1.019 -1.208,1.58 -0.393,0.823 -0.521,1.518 -0.485,2.65 l 0.029,0.919 -0.364,-0.183 c -0.2,-0.101 -0.515,-0.293 -0.699,-0.427 l -0.37,-0.244 c -0.092,0 -0.212,0.679 -0.168,0.953 0.104,0.649 0.775,1.599 1.581,2.237 l 0.346,0.274 -0.278,0.142 a 3.83,3.83 0 0 0 -1.207,1.119 c -0.159,0.273 -0.472,1.25 -0.472,1.473 0,0.067 0.08,0.053 0.287,-0.053 0.594,-0.303 1.048,-0.37 2.148,-0.318 l 1.025,0.049 0.673,1.2 c 1.272,2.271 2.024,3.854 2.184,4.598 0.034,0.156 -0.018,0.099 -0.184,-0.204 -0.59,-1.072 -1.363,-1.446 -2.159,-1.043 -0.615,0.311 -0.815,0.829 -0.805,2.078 l 0.007,0.831 -0.341,-0.022 c -0.451,-0.029 -0.788,0.16 -1.054,0.586 -0.396,0.635 -0.318,1.719 0.155,2.164 0.108,0.102 0.408,0.281 0.667,0.397 0.727,0.327 1.021,0.737 1.554,2.173 0.291,0.784 0.578,1.171 1.043,1.407 0.262,0.133 0.505,0.198 0.731,0.198 0.536,0 1.079,0.129 1.587,0.377 0.421,0.205 0.449,0.232 0.272,0.256 -0.663,0.09 -1.001,1.296 -0.636,2.271 0.431,1.152 1.67,2.354 3.182,3.088 l 0.686,0.333 1.266,0.008 c 1.427,0.009 1.563,0.034 2.946,0.528 l 1.311,0.439 c 0.394,0.104 1.452,0.108 1.902,0.006 1.514,-0.341 2.694,-1.281 2.855,-2.273 0.038,-0.232 0.047,-0.237 0.631,-0.347 0.973,-0.184 2.199,-0.836 3.296,-1.755 0.28,-0.234 0.451,-0.327 0.578,-0.313 0.32,0.036 0.201,0.218 -0.238,0.364 -0.258,0.086 -0.462,0.206 -0.532,0.313 -0.295,0.45 0.252,1.226 0.986,1.402 1.328,0.319 2.386,-0.601 2.386,-2.073 v -0.457 h 0.457 c 0.665,0 1.13,-0.162 1.552,-0.542 a 1.78,1.78 0 0 0 0.163,-2.581 c -0.481,-0.546 -1.027,-0.709 -1.399,-0.417 -0.102,0.08 -0.255,0.332 -0.34,0.56 -0.215,0.578 -0.333,0.739 -0.544,0.739 -0.099,0 -0.179,-0.014 -0.179,-0.03 0,-0.016 0.252,-0.382 0.561,-0.813 a 22.24,22.24 0 0 0 1.847,-3.08 l 0.436,-0.873 0.117,0.429 c 0.274,1 0.962,2.127 1.613,2.642 a 4.58,4.58 0 0 0 1.623,0.817 c 0.975,0.253 1.13,0.134 1.162,-0.888 l 0.051,-0.784 c 0.02,-0.061 0.166,-0.025 0.484,0.118 1.013,0.458 2.215,0.664 3.331,0.574 1.981,-0.161 3.478,-1.486 4.021,-3.558 0.197,-0.752 0.324,-1.993 0.267,-2.61 -0.116,-1.251 -0.536,-2.195 -1.343,-3.012 -0.799,-0.81 -1.55,-1.145 -2.57,-1.147 -1.044,-0.002 -1.915,0.362 -2.684,1.121 -0.437,0.431 -0.537,0.577 -0.639,0.93 -0.246,0.846 0.109,1.517 1.058,1.999 0.224,0.114 0.427,0.26 0.452,0.325 0.16,0.417 -0.116,1.165 -0.476,1.292 -0.297,0.105 -0.69,-0.053 -1.155,-0.465 a 5.15,5.15 0 0 1 -1.175,-1.661 c -0.171,-0.438 -0.227,-1.327 -0.114,-1.815 0.405,-1.745 2.275,-3.474 4.384,-4.053 0.786,-0.215 2.207,-0.218 2.993,-0.004 0.464,0.126 2.303,0.781 2.364,0.841 0.011,0.011 -0.036,0.131 -0.104,0.267 -0.431,0.853 0.233,2.193 1.685,3.402 0.594,0.495 1.564,1.152 2.125,1.439 l 0.326,0.166 -0.687,0.098 c -1.901,0.272 -2.875,0.792 -3.366,1.795 -0.432,0.884 -0.198,1.861 0.54,2.251 0.678,0.358 1.731,0.101 2.953,-0.722 0.209,-0.141 0.379,-0.222 0.379,-0.18 0.773,-0.512 2.08,-1.016 2.315,-1.508 l -0.04,-2.137 -0.313,-0.914 c -0.315,-0.919 -1.032,-2.509 -1.302,-2.888 -0.245,-0.344 -0.224,-0.381 0.28,-0.508 0.45,-0.114 0.478,-0.135 0.665,-0.481 0.299,-0.555 0.565,-1.43 0.563,-1.859 -0.003,-0.665 -0.359,-1.212 -1.055,-1.62 -0.177,-0.104 -0.367,-0.276 -0.423,-0.383 -0.168,-0.326 -0.704,-0.814 -1.087,-0.989 -0.443,-0.203 -1.176,-0.327 -1.594,-0.27 -0.285,0.039 -0.333,0.021 -0.58,-0.22 -0.148,-0.144 -0.464,-0.359 -0.701,-0.477 l -0.432,-0.216 -0.338,-0.109 -0.709,0.039 c -0.39,0.022 -0.745,0.062 -0.789,0.089 -0.044,0.027 -0.164,-0.016 -0.265,-0.096 -0.328,-0.258 -1.084,-0.567 -1.576,-0.644 -0.629,-0.099 -1.14,-10e-4 -1.661,0.32 -0.531,0.327 -0.829,0.366 -1.977,0.255 -1.079,-0.104 -1.515,-0.065 -1.854,0.166 -0.459,0.313 -0.535,0.49 -0.55,1.298 -0.01,0.515 -0.042,0.745 -0.108,0.78 a 2.41,2.41 0 0 1 -1.084,0.065 c -0.172,-0.049 -0.343,-0.038 -0.612,0.04 -0.71,0.206 -1.327,1.033 -1.612,2.16 -0.127,0.503 -0.14,0.521 -0.518,0.744 -0.872,0.513 -1.322,1.416 -1.504,3.016 l -0.093,0.652 c -0.233,0.111 -0.918,0.641 -1.144,0.886 -0.473,0.513 -0.598,0.87 -0.56,1.602 l 0.033,0.616 -0.238,0.209 c -0.493,0.433 -0.828,1.536 -0.693,2.28 0.052,0.285 0.043,0.419 -0.039,0.589 -0.265,0.547 -1.597,1.892 -2.981,3.011 -1.154,0.933 -2.137,1.603 -2.224,1.516 -0.016,-0.016 -0.058,-0.261 -0.094,-0.545 -0.099,-0.787 -0.28,-1.132 -0.688,-1.313 -0.27,-0.12 -0.425,-0.141 -0.78,-0.107 l -0.443,0.042 -0.387,-0.556 c -0.457,-0.657 -0.465,-0.868 -0.051,-1.327 0.141,-0.156 0.256,-0.314 0.256,-0.35 0,-0.036 0.139,-0.088 0.307,-0.116 0.45,-0.075 0.532,-0.139 0.669,-0.521 0.166,-0.463 0.227,-1.721 0.11,-2.25 -0.272,-1.224 -0.851,-2 -2.929,-3.923 l -0.657,-0.651 c -1.002,-1.071 -3.392,-1.346 -4.433,-0.51 a 4.92,4.92 0 0 1 -0.696,0.432 c -0.544,0.277 -1.409,0.885 -1.767,1.243 l -0.275,0.275 0.283,-0.553 c 0.549,-1.071 0.922,-2.558 0.825,-3.289 -0.134,-1.012 -0.679,-1.509 -1.666,-1.52 -0.605,-0.007 -0.97,0.108 -1.319,0.414 -0.33,0.289 -0.517,0.716 -0.572,1.296 l -0.043,0.458 -0.338,-0.366 c -2.262,-2.445 -3.224,-4.961 -3.624,-9.474 -0.049,-0.557 -0.114,-1.039 -0.143,-1.072 -0.006,-0.007 -0.015,-0.009 -0.027,-0.007 z"
       id="path114"
       style="fill:#8b4513;" />
    <path
       d="m 34.196,143.077 0.36,0.392 c 0.692,0.753 1.065,1.473 1.065,2.06 0,0.127 -0.075,0.372 -0.166,0.544 -0.091,0.172 -0.197,0.319 -0.235,0.326 -0.038,0.007 -0.228,-0.066 -0.422,-0.163 -0.541,-0.27 -1.182,-0.376 -2.721,-0.45 -2.112,-0.101 -3.305,-0.38 -4.806,-1.127 -0.437,-0.218 -0.958,-0.518 -1.157,-0.666 l -0.361,-0.27 0.506,-0.049 c 0.278,-0.027 0.648,-0.1 0.822,-0.163 l 0.344,-0.115 c 0.015,0 0.17,0.222 0.344,0.494 0.398,0.622 0.667,0.771 1.381,0.771 0.432,0 0.586,-0.038 1.049,-0.26 0.542,-0.259 1.012,-0.652 1.012,-0.845 0,-0.07 0.04,-0.086 0.127,-0.049 0.07,0.03 0.317,0.085 0.549,0.122 0.559,0.091 1.246,-0.03 1.846,-0.325 z m 9.991,-1.186 c 0.171,-0.036 0.601,0.458 0.657,0.753 0.111,0.593 -0.094,1.031 -0.623,1.327 -0.261,0.146 -0.434,0.179 -1.001,0.196 -0.501,0.015 -0.716,0.051 -0.798,0.133 -0.082,0.082 -0.126,0.329 -0.159,0.822 -0.055,0.82 -0.223,1.235 -0.59,1.459 -0.316,0.193 -0.944,0.192 -1.262,-0.002 -0.311,-0.189 -0.297,-0.261 0.064,-0.319 0.202,-0.032 0.378,-0.127 0.542,-0.291 0.332,-0.332 0.341,-0.721 0.023,-1.082 l -0.221,-0.251 0.654,-0.707 0.654,-0.76 c 0,-0.029 0.121,-0.001 0.268,0.06 0.617,0.258 1.17,-0.068 1.501,-0.882 0.096,-0.237 0.227,-0.441 0.291,-0.455 z m -15.593,-1.013 c 0.133,0.017 0.348,0.174 0.702,0.495 0.306,0.278 0.617,0.506 0.689,0.506 0.104,0 0.183,0.156 0.367,0.717 0.275,0.84 0.277,0.836 -0.408,1.163 -0.472,0.225 -1.028,0.286 -1.279,0.139 -0.069,-0.04 -0.209,-0.217 -0.312,-0.392 -0.164,-0.279 -0.186,-0.391 -0.172,-0.883 0.014,-0.527 0.14,-1.342 0.251,-1.63 0.033,-0.085 0.083,-0.125 0.163,-0.115 z m 4.551,-0.709 c 0.058,-0.009 0.101,0.04 0.203,0.164 0.254,0.312 0.681,1.183 0.73,1.49 0.06,0.377 -0.094,0.576 -0.665,0.857 -0.656,0.323 -1.432,0.374 -1.91,0.125 -0.271,-0.141 -0.348,-0.232 -0.48,-0.564 l -0.157,-0.396 0.245,-0.167 c 0.244,-0.166 0.245,-0.169 0.245,-0.742 v -0.576 h 0.743 c 0.57,0 0.782,-0.027 0.912,-0.118 0.061,-0.042 0.1,-0.069 0.135,-0.074 z m -0.183,-1.706 -0.051,0.316 a 3.17,3.17 0 0 1 -0.184,0.624 c -0.106,0.244 -0.168,0.304 -0.3,0.293 l -0.906,-0.054 -0.739,-0.04 1.09,-0.569 z m -6.179,-2.437 c 0.097,0.006 0.185,0.049 0.21,0.124 0.162,0.493 0.432,0.916 0.703,1.103 0.529,0.366 0.538,0.38 0.593,1.008 0.051,0.58 0.054,0.589 0.373,0.87 0.582,0.512 1.25,0.718 1.827,0.563 l 0.181,-0.049 0.005,0.756 0.005,0.756 h -0.303 c -0.266,0 -0.359,-0.05 -0.759,-0.407 -0.536,-0.478 -0.864,-0.635 -1.196,-0.573 -0.419,0.079 -0.7,0.568 -0.865,1.504 v 10e-4 c -0.026,0.15 -0.069,0.284 -0.094,0.298 -0.072,0.041 -0.613,-0.167 -0.725,-0.279 -0.086,-0.086 -0.067,-0.143 0.134,-0.397 a 2.92,2.92 0 0 0 0.367,-0.645 l 0.132,-0.348 -0.35,-0.267 c -0.378,-0.288 -0.942,-0.87 -0.942,-0.972 0,-0.034 0.164,-0.201 0.364,-0.369 0.657,-0.554 0.69,-1.026 0.111,-1.559 l -0.331,-0.304 0.11,-0.312 c 0.06,-0.172 0.146,-0.355 0.19,-0.408 0.058,-0.07 0.164,-0.1 0.26,-0.094 z m 36.032,-1.07 c 0.032,0.006 0.01,0.026 -0.05,0.062 l -1.027,0.66 -0.883,0.575 0.188,0.283 c 0.103,0.156 0.2,0.283 0.216,0.283 0.016,0 0.361,-0.223 0.767,-0.496 l 1.163,-0.734 c 0.469,-0.264 0.458,-0.285 0.203,0.385 -0.11,0.289 -0.23,0.422 -0.705,0.78 a 8.8,8.8 0 0 1 -1.108,0.698 c -0.416,0.207 -0.641,0.273 -1.012,0.294 -0.431,0.024 -0.493,0.01 -0.643,-0.15 -0.353,-0.377 -0.268,-1.118 0.19,-1.653 0.391,-0.456 1.338,-0.833 2.434,-0.967 l 0.266,-0.02 z m -35.104,-1.75 c 0.727,-0.002 1.15,0.137 1.584,0.519 0.416,0.366 0.577,0.68 0.708,1.375 l 0.103,0.547 -0.731,-0.353 c -1.323,-0.639 -2.031,-0.692 -2.281,-0.174 -0.092,0.19 -0.144,0.218 -0.42,0.224 -0.4,0.009 -0.658,0.194 -0.865,0.622 -0.369,0.762 -0.333,1.217 0.126,1.585 0.158,0.127 0.288,0.289 0.288,0.36 0,0.071 -0.145,0.228 -0.325,0.352 -0.718,0.494 -0.689,0.944 0.116,1.774 l 0.498,0.55 c 0,0.02 -0.13,0.21 -0.289,0.423 -0.177,0.237 -0.289,0.466 -0.289,0.591 0,0.285 0.422,0.728 0.886,0.93 l 0.379,0.164 -0.242,0.101 c -0.133,0.055 -0.406,0.131 -0.606,0.169 -0.543,0.103 -1.151,0.028 -1.47,-0.181 -0.23,-0.151 -0.728,-1.009 -0.942,-1.623 -0.419,-1.204 -0.501,-3.221 -0.182,-4.434 0.548,-2.082 2.16,-3.518 3.954,-3.523 z m 33.152,-4.391 a 2.19,2.19 0 0 1 1.345,0.411 c 0.56,0.406 1.307,1.546 1.748,2.669 l 0.153,0.39 -0.568,-0.534 c -0.74,-0.695 -1.787,-1.583 -1.868,-1.583 -0.035,0 -0.152,0.11 -0.259,0.245 l -0.196,0.246 0.522,0.432 c 1.198,0.991 2.248,2.03 2.737,2.709 0.079,0.109 0.132,0.197 0.12,0.194 -0.146,-0.032 -0.641,-0.248 -1.111,-0.484 -0.978,-0.492 -1.904,-1.16 -2.677,-1.929 -1.041,-1.037 -1.321,-1.687 -0.973,-2.259 0.194,-0.318 0.585,-0.489 1.028,-0.507 z m -43.836,-2.417 c 0.016,0 0.027,0.004 0.034,0.012 0.015,0.019 0.146,0.303 0.291,0.631 0.152,0.343 0.227,0.59 0.176,0.581 -0.051,-0.009 -0.502,-0.026 -1.009,-0.038 -0.507,-0.012 -0.921,-0.052 -0.921,-0.087 0,-0.202 1.194,-1.1 1.43,-1.099 z m 38.761,-0.318 c 1.091,-0.015 2.211,0.276 3.443,0.866 0.678,0.325 1.981,1.089 1.981,1.162 0,0.012 -0.165,0.023 -0.366,0.025 a 2.82,2.82 0 0 0 -0.709,0.116 l -0.343,0.114 -0.944,-0.36 c -1.876,-0.716 -2.953,-0.927 -4.072,-0.799 -3.591,0.412 -6.541,3.535 -5.976,6.325 0.18,0.887 0.55,1.55 1.277,2.286 0.609,0.617 0.978,0.866 1.422,0.962 1.004,0.217 1.971,-1.134 1.585,-2.214 -0.11,-0.309 -0.067,-0.349 0.379,-0.346 0.857,0.005 1.634,0.932 1.633,1.95 0,0.795 -0.362,1.278 -1.201,1.606 -0.506,0.198 -2.189,0.253 -2.822,0.093 -1.384,-0.35 -2.517,-1.516 -2.918,-3 -0.086,-0.32 -0.127,-0.736 -0.127,-1.301 0,-2.32 1.103,-4.162 3.531,-5.891 1.472,-1.049 2.825,-1.575 4.227,-1.595 z m -0.468,-1.073 c 1.351,-0.008 1.931,0.08 3.098,0.469 1.614,0.538 3.034,1.437 4.89,3.096 0.536,0.479 0.156,0.343 -0.513,-0.184 -1.942,-1.531 -3.908,-2.537 -5.648,-2.89 -0.883,-0.179 -2.352,-0.111 -3.14,0.144 -1.556,0.504 -3.106,1.476 -4.405,2.764 -1.044,1.035 -1.642,1.994 -2.031,3.26 -0.179,0.583 -0.195,0.734 -0.196,1.863 -10e-4,1.142 0.013,1.27 0.193,1.809 0.507,1.518 1.602,2.643 3.038,3.118 0.533,0.177 0.702,0.198 1.642,0.202 1.156,0.005 1.598,-0.074 2.248,-0.399 0.514,-0.257 1.028,-0.822 1.189,-1.306 0.182,-0.547 0.119,-1.415 -0.141,-1.96 -0.248,-0.518 -0.761,-1.053 -1.236,-1.285 -0.487,-0.239 -1.23,-0.245 -1.692,-0.014 l -0.318,0.159 -0.24,-0.148 c -0.346,-0.214 -0.532,-0.482 -0.532,-0.765 0,-1.048 1.787,-2.088 3.154,-1.836 0.943,0.174 1.783,0.83 2.284,1.784 0.401,0.764 0.511,1.329 0.469,2.413 -0.042,1.084 -0.194,1.793 -0.553,2.566 -1.029,2.217 -3.53,2.806 -6.382,1.503 l -0.582,-0.266 -0.238,0.26 c -0.286,0.312 -0.393,0.659 -0.394,1.274 v 0.458 l -0.235,-0.049 c -0.556,-0.115 -1.257,-0.53 -1.705,-1.009 -0.73,-0.781 -1.153,-1.807 -1.308,-3.174 l -0.093,-0.659 c -0.011,-0.009 -0.155,-0.036 -0.319,-0.061 l -0.299,-0.046 -0.264,0.765 c -1.256,3.636 -4.895,8.154 -7.598,9.434 -0.319,0.151 -0.713,0.304 -0.874,0.341 l -0.293,0.066 0.144,-0.297 c 0.08,-0.165 0.159,-0.514 0.179,-0.787 l 0.036,-0.49 0.514,-0.239 c 1.212,-0.563 2.332,-1.391 3.409,-2.519 1.435,-1.504 2.477,-3.129 4.022,-6.274 l 1.724,-3.506 c 2.261,-4.592 4.207,-6.628 7.061,-7.388 0.622,-0.166 0.855,-0.189 1.936,-0.195 z m -39.988,-1.32 a 6.43,6.43 0 0 1 0.988,0.434 l 0.14,0.499 0.121,0.488 c -0.157,0 -1.333,-1.337 -1.249,-1.421 z m 39.978,-0.781 c 0.668,0.004 1.185,0.193 1.655,0.606 l 0.266,0.233 0.552,-0.122 c 0.947,-0.211 1.722,-0.014 2.325,0.589 l 0.383,0.383 0.598,-0.042 c 1.019,-0.072 1.693,0.234 2.12,0.961 a 1.24,1.24 0 0 0 0.468,0.465 c 0.932,0.476 1.113,1.087 0.638,2.16 l -0.143,0.322 -0.45,-0.438 c -2.74,-2.666 -6.173,-4.048 -9.237,-3.718 a 8.21,8.21 0 0 0 -5.069,2.377 c -1.503,1.448 -2.192,2.555 -4.535,7.28 l -2.459,4.759 c -1.579,2.652 -3.356,4.435 -5.478,5.498 -0.207,0.104 -0.41,0.189 -0.451,0.189 -0.041,0 -0.153,-0.155 -0.249,-0.344 -0.229,-0.45 -0.506,-0.824 -1.015,-1.374 -0.368,-0.398 -0.419,-0.489 -0.44,-0.794 -0.013,-0.189 -0.058,-0.434 -0.1,-0.543 -0.075,-0.196 -0.071,-0.198 0.2,-0.198 0.404,0 0.528,0.178 0.636,0.915 0.134,0.921 0.385,1.192 0.96,1.038 0.841,-0.227 4.071,-2.886 5.133,-4.227 0.579,-0.731 0.615,-0.833 0.617,-1.775 0.002,-0.765 0.018,-0.861 0.201,-1.209 0.202,-0.383 0.483,-0.598 0.782,-0.598 0.172,0 0.174,0.031 -0.044,-0.751 -0.231,-0.829 0.03,-1.394 0.907,-1.969 0.839,-0.55 0.767,-0.446 0.82,-1.201 0.114,-1.626 0.657,-2.656 1.522,-2.887 l 0.323,-0.086 0.085,-0.51 c 0.158,-0.948 0.542,-1.699 1.015,-1.986 0.183,-0.111 0.319,-0.128 0.814,-0.097 0.742,0.046 1.333,-0.104 1.567,-0.398 0.139,-0.176 0.153,-0.256 0.115,-0.708 -0.051,-0.618 0.044,-1.005 0.286,-1.163 0.158,-0.103 0.303,-0.11 1.135,-0.055 1.696,0.112 2.048,0.064 2.643,-0.36 0.292,-0.208 0.36,-0.224 0.904,-0.221 z m -38,-3.049 c 0.017,0.017 0.079,0.4 0.137,0.852 0.355,2.738 0.946,4.618 1.975,6.276 0.427,0.688 1.175,1.664 1.524,1.991 0.128,0.119 0.357,0.4 0.51,0.623 0.316,0.462 0.671,0.787 0.858,0.787 0.3,0 0.367,-0.214 0.367,-1.163 0,-0.732 0.025,-0.946 0.133,-1.151 0.167,-0.318 0.527,-0.505 0.972,-0.505 1.202,0 1.376,0.905 0.611,3.181 -0.487,1.449 -0.544,1.746 -0.384,1.99 0.213,0.325 0.448,0.244 1.427,-0.49 0.49,-0.368 1.103,-0.779 1.361,-0.914 0.258,-0.135 0.535,-0.304 0.615,-0.376 0.415,-0.374 1.241,-0.552 2,-0.431 0.872,0.139 1.269,0.337 1.83,0.912 l 1.183,1.118 c 1.666,1.476 2.333,2.832 2.108,4.281 -0.045,0.288 -0.104,0.543 -0.132,0.566 -0.028,0.023 -0.327,0.1 -0.665,0.17 -0.81,0.168 -1.406,0.398 -2.241,0.864 l -0.922,0.476 c -0.358,0.141 -0.94,0.065 -1.291,-0.168 -0.291,-0.193 -0.298,-0.208 -0.332,-0.684 -0.047,-0.657 -0.204,-0.959 -0.635,-1.227 -0.414,-0.257 -0.65,-0.659 -0.65,-1.105 v -0.301 l 0.259,0.042 c 0.143,0.023 0.59,0.194 0.994,0.379 1.073,0.492 1.2,0.532 1.428,0.453 0.113,-0.039 0.234,-0.16 0.285,-0.282 0.13,-0.314 0.053,-1.315 -0.141,-1.816 -0.396,-1.031 -1.497,-1.717 -2.756,-1.719 -1.63,-0.003 -3.353,1.155 -4.191,2.817 -0.42,0.834 -0.72,2.163 -0.721,3.196 -0.001,0.689 0.19,2.053 0.368,2.635 0.713,2.325 2.689,4.041 5.631,4.892 0.954,0.276 1.874,0.406 3.402,0.482 l 1.767,0.168 c 1.264,0.345 1.468,0.955 0.591,1.764 -0.357,0.329 -0.738,0.543 -1.346,0.756 -0.532,0.186 -1.583,0.238 -2.064,0.101 -0.199,-0.056 -0.755,-0.25 -1.237,-0.429 -1.258,-0.469 -1.79,-0.562 -3.106,-0.545 l -1.102,0.014 -0.56,-0.266 c -1.63,-0.774 -2.995,-2.295 -2.995,-3.338 0,-0.319 0.178,-0.756 0.307,-0.756 0.164,0 0.779,0.423 1.464,1.009 1.116,0.954 1.79,1.377 2.195,1.377 0.193,0 0.218,-0.028 0.263,-0.294 0.027,-0.162 0.039,-0.304 0.025,-0.317 -0.014,-0.013 -0.272,-0.218 -0.575,-0.457 l -1.229,-1.081 c -1.711,-1.626 -2.667,-2.184 -3.752,-2.188 -0.494,-0.002 -0.878,-0.137 -1.12,-0.393 -0.138,-0.147 -0.357,-0.587 -0.598,-1.203 -0.209,-0.534 -0.491,-1.123 -0.628,-1.308 -0.285,-0.387 -0.735,-0.718 -1.242,-0.916 -0.201,-0.078 -0.391,-0.211 -0.444,-0.309 -0.14,-0.259 -0.083,-1.099 0.088,-1.288 0.182,-0.201 0.608,-0.2 0.865,0.002 0.257,0.202 0.51,0.138 0.607,-0.141 0.048,-0.138 0.048,-0.421 0,-0.85 -0.126,-1.123 0.016,-1.932 0.372,-2.123 0.077,-0.041 0.252,-0.074 0.389,-0.074 0.682,0 1.293,1.268 1.783,3.698 0.242,1.199 0.351,1.456 0.6,1.421 0.299,-0.043 0.37,-0.356 0.368,-1.613 -0.003,-1.719 -0.275,-2.938 -1.039,-4.662 -0.319,-0.719 -0.381,-0.837 -1.539,-2.914 -1.835,-3.292 -2.53,-5.279 -2.533,-7.243 -0.001,-0.477 0.038,-1.014 0.086,-1.193 0.115,-0.429 0.38,-1.098 0.419,-1.058 z m 79.224,23.22 -0.36,0.392 c -0.692,0.753 -1.065,1.473 -1.065,2.06 0,0.127 0.075,0.372 0.166,0.544 0.091,0.172 0.197,0.319 0.235,0.326 0.038,0.007 0.228,-0.066 0.422,-0.163 0.541,-0.27 1.182,-0.376 2.721,-0.45 2.112,-0.101 3.305,-0.38 4.806,-1.127 0.437,-0.218 0.958,-0.518 1.157,-0.666 l 0.361,-0.27 -0.506,-0.049 c -0.278,-0.027 -0.648,-0.1 -0.822,-0.163 l -0.344,-0.115 c -0.015,0 -0.17,0.222 -0.344,0.494 -0.398,0.622 -0.667,0.771 -1.381,0.771 -0.432,0 -0.586,-0.038 -1.049,-0.26 -0.542,-0.259 -1.012,-0.652 -1.012,-0.845 0,-0.07 -0.04,-0.086 -0.127,-0.049 -0.07,0.03 -0.317,0.085 -0.549,0.122 -0.559,0.091 -1.246,-0.03 -1.846,-0.325 z"
       id="path118"
       style="fill:#d2691e;" />
    <path
       d="m 86.543,141.891 c -0.171,-0.036 -0.601,0.458 -0.657,0.753 -0.111,0.593 0.094,1.031 0.623,1.327 0.261,0.146 0.434,0.179 1.001,0.196 0.501,0.015 0.716,0.051 0.798,0.133 0.082,0.082 0.126,0.329 0.159,0.822 0.055,0.82 0.223,1.235 0.59,1.459 0.316,0.193 0.944,0.192 1.262,-0.002 0.311,-0.189 0.297,-0.261 -0.064,-0.319 -0.202,-0.032 -0.378,-0.127 -0.542,-0.291 -0.332,-0.332 -0.341,-0.721 -0.023,-1.082 l 0.221,-0.251 -0.654,-0.707 -0.654,-0.76 c 0,-0.029 -0.121,-0.001 -0.268,0.06 -0.617,0.258 -1.17,-0.068 -1.501,-0.882 -0.096,-0.237 -0.227,-0.441 -0.291,-0.455 z m 15.593,-1.013 c -0.133,0.017 -0.348,0.174 -0.702,0.495 -0.306,0.278 -0.617,0.506 -0.689,0.506 -0.104,0 -0.183,0.156 -0.367,0.717 -0.275,0.84 -0.277,0.836 0.408,1.163 0.472,0.225 1.028,0.286 1.279,0.139 0.069,-0.04 0.209,-0.217 0.312,-0.392 0.164,-0.279 0.186,-0.391 0.172,-0.883 -0.014,-0.527 -0.14,-1.342 -0.251,-1.63 -0.033,-0.085 -0.083,-0.125 -0.163,-0.115 z m -4.551,-0.709 c -0.058,-0.009 -0.101,0.04 -0.203,0.164 -0.254,0.312 -0.681,1.183 -0.73,1.49 -0.06,0.377 0.094,0.576 0.665,0.857 0.656,0.323 1.432,0.374 1.91,0.125 0.271,-0.141 0.348,-0.232 0.48,-0.564 l 0.157,-0.396 -0.245,-0.167 c -0.244,-0.166 -0.245,-0.169 -0.245,-0.742 v -0.576 h -0.743 c -0.57,0 -0.782,-0.027 -0.912,-0.118 -0.061,-0.042 -0.1,-0.069 -0.135,-0.074 z m 0.183,-1.706 0.051,0.316 a 3.17,3.17 0 0 0 0.184,0.624 c 0.106,0.244 0.168,0.304 0.3,0.293 l 0.906,-0.054 0.739,-0.04 -1.09,-0.569 z m 6.179,-2.437 c -0.097,0.006 -0.185,0.049 -0.21,0.124 -0.162,0.493 -0.432,0.916 -0.703,1.103 -0.529,0.366 -0.538,0.38 -0.593,1.008 -0.051,0.58 -0.054,0.589 -0.373,0.87 -0.582,0.512 -1.25,0.718 -1.827,0.563 l -0.181,-0.049 -0.005,0.756 -0.005,0.756 h 0.303 c 0.266,0 0.359,-0.05 0.759,-0.407 0.536,-0.478 0.864,-0.635 1.196,-0.573 0.419,0.079 0.7,0.568 0.865,1.504 v 10e-4 c 0.026,0.15 0.069,0.284 0.094,0.298 0.072,0.041 0.613,-0.167 0.725,-0.279 0.086,-0.086 0.067,-0.143 -0.134,-0.397 a 2.92,2.92 0 0 1 -0.367,-0.645 l -0.132,-0.348 0.35,-0.267 c 0.378,-0.288 0.942,-0.87 0.942,-0.972 0,-0.034 -0.164,-0.201 -0.364,-0.369 -0.657,-0.554 -0.69,-1.026 -0.111,-1.559 l 0.331,-0.304 -0.11,-0.312 c -0.06,-0.172 -0.146,-0.355 -0.19,-0.408 -0.058,-0.07 -0.164,-0.1 -0.26,-0.094 z m -36.032,-1.07 c -0.032,0.006 -0.01,0.026 0.05,0.062 l 1.027,0.66 0.883,0.575 -0.188,0.283 c -0.103,0.156 -0.2,0.283 -0.216,0.283 -0.016,0 -0.361,-0.223 -0.767,-0.496 l -1.163,-0.734 c -0.469,-0.264 -0.458,-0.285 -0.203,0.385 0.11,0.289 0.23,0.422 0.705,0.78 a 8.8,8.8 0 0 0 1.108,0.698 c 0.416,0.207 0.641,0.273 1.012,0.294 0.431,0.024 0.493,0.01 0.643,-0.15 0.353,-0.377 0.268,-1.118 -0.19,-1.653 -0.391,-0.456 -1.338,-0.833 -2.434,-0.967 l -0.266,-0.02 z m 35.104,-1.75 c -0.727,-0.002 -1.15,0.137 -1.584,0.519 -0.416,0.366 -0.577,0.68 -0.708,1.375 l -0.103,0.547 0.731,-0.353 c 1.323,-0.639 2.031,-0.692 2.281,-0.174 0.092,0.19 0.144,0.218 0.42,0.224 0.4,0.009 0.658,0.194 0.865,0.622 0.369,0.762 0.333,1.217 -0.126,1.585 -0.158,0.127 -0.288,0.289 -0.288,0.36 0,0.071 0.145,0.228 0.325,0.352 0.718,0.494 0.689,0.944 -0.116,1.774 l -0.498,0.55 c 0,0.02 0.13,0.21 0.289,0.423 0.177,0.237 0.289,0.466 0.289,0.591 0,0.285 -0.422,0.728 -0.886,0.93 l -0.379,0.164 0.242,0.101 c 0.133,0.055 0.406,0.131 0.606,0.169 0.543,0.103 1.151,0.028 1.47,-0.181 0.23,-0.151 0.728,-1.009 0.942,-1.623 0.419,-1.204 0.501,-3.221 0.182,-4.434 -0.548,-2.082 -2.16,-3.518 -3.954,-3.523 z m -33.152,-4.391 a 2.19,2.19 0 0 0 -1.345,0.411 c -0.56,0.406 -1.307,1.546 -1.748,2.669 l -0.153,0.39 0.568,-0.534 c 0.74,-0.695 1.787,-1.583 1.868,-1.583 0.035,0 0.152,0.11 0.259,0.245 l 0.196,0.246 -0.522,0.432 c -1.198,0.991 -2.248,2.03 -2.737,2.709 -0.079,0.109 -0.132,0.197 -0.12,0.194 0.146,-0.032 0.641,-0.248 1.111,-0.484 0.978,-0.492 1.904,-1.16 2.677,-1.929 1.041,-1.037 1.321,-1.687 0.973,-2.259 -0.194,-0.318 -0.585,-0.489 -1.028,-0.507 z m 43.836,-2.417 c -0.016,0 -0.027,0.004 -0.034,0.012 -0.015,0.019 -0.146,0.303 -0.291,0.631 -0.152,0.343 -0.227,0.59 -0.176,0.581 0.051,-0.009 0.502,-0.026 1.009,-0.038 0.507,-0.012 0.921,-0.052 0.921,-0.087 0,-0.202 -1.194,-1.1 -1.43,-1.099 z M 74.942,126.08 c -1.091,-0.015 -2.211,0.276 -3.443,0.866 -0.678,0.325 -1.981,1.089 -1.981,1.162 0,0.012 0.165,0.023 0.366,0.025 a 2.82,2.82 0 0 1 0.709,0.116 l 0.343,0.114 0.944,-0.36 c 1.876,-0.716 2.953,-0.927 4.072,-0.799 3.591,0.412 6.541,3.535 5.976,6.325 -0.18,0.887 -0.55,1.55 -1.277,2.286 -0.609,0.617 -0.978,0.866 -1.422,0.962 -1.004,0.217 -1.971,-1.134 -1.585,-2.214 0.11,-0.309 0.067,-0.349 -0.379,-0.346 -0.857,0.005 -1.634,0.932 -1.633,1.95 0,0.795 0.362,1.278 1.201,1.606 0.506,0.198 2.189,0.253 2.822,0.093 1.384,-0.35 2.517,-1.516 2.918,-3 0.086,-0.32 0.127,-0.736 0.127,-1.301 0,-2.32 -1.103,-4.162 -3.531,-5.891 -1.472,-1.049 -2.825,-1.575 -4.227,-1.595 z m 0.468,-1.073 c -1.351,-0.008 -1.931,0.08 -3.098,0.469 -1.614,0.538 -3.034,1.437 -4.89,3.096 -0.536,0.479 -0.156,0.343 0.513,-0.184 1.942,-1.531 3.908,-2.537 5.648,-2.89 0.883,-0.179 2.352,-0.111 3.14,0.144 1.556,0.504 3.106,1.476 4.405,2.764 1.044,1.035 1.642,1.994 2.031,3.26 0.179,0.583 0.195,0.734 0.196,1.863 10e-4,1.142 -0.013,1.27 -0.193,1.809 -0.507,1.518 -1.602,2.643 -3.038,3.118 -0.533,0.177 -0.702,0.198 -1.642,0.202 -1.156,0.005 -1.598,-0.074 -2.248,-0.399 -0.514,-0.257 -1.028,-0.822 -1.189,-1.306 -0.182,-0.547 -0.119,-1.415 0.141,-1.96 0.248,-0.518 0.761,-1.053 1.236,-1.285 0.487,-0.239 1.23,-0.245 1.692,-0.014 l 0.318,0.159 0.24,-0.148 c 0.346,-0.214 0.532,-0.482 0.532,-0.765 0,-1.048 -1.787,-2.088 -3.154,-1.836 -0.943,0.174 -1.783,0.83 -2.284,1.784 -0.401,0.764 -0.511,1.329 -0.469,2.413 0.042,1.084 0.194,1.793 0.553,2.566 1.029,2.217 3.53,2.806 6.382,1.503 l 0.582,-0.266 0.238,0.26 c 0.286,0.312 0.393,0.659 0.394,1.274 v 0.458 l 0.235,-0.049 c 0.556,-0.115 1.257,-0.53 1.705,-1.009 0.73,-0.781 1.153,-1.807 1.308,-3.174 l 0.093,-0.659 c 0.011,-0.009 0.155,-0.036 0.319,-0.061 l 0.299,-0.046 0.264,0.765 c 1.256,3.636 4.895,8.154 7.598,9.434 0.319,0.151 0.713,0.304 0.874,0.341 l 0.293,0.066 -0.144,-0.297 c -0.08,-0.165 -0.159,-0.514 -0.179,-0.787 l -0.036,-0.49 -0.514,-0.239 c -1.212,-0.563 -2.332,-1.391 -3.409,-2.519 -1.435,-1.504 -2.477,-3.129 -4.022,-6.274 l -1.724,-3.506 c -2.261,-4.592 -4.207,-6.628 -7.061,-7.388 -0.622,-0.166 -0.855,-0.189 -1.936,-0.195 z m 39.988,-1.32 a 6.43,6.43 0 0 0 -0.988,0.434 22.92,22.92 0 0 1 -0.14,0.499 l -0.121,0.488 c 0.157,0 1.333,-1.337 1.249,-1.421 z M 75.42,122.906 c -0.668,0.004 -1.185,0.193 -1.655,0.606 l -0.266,0.233 -0.552,-0.122 c -0.947,-0.211 -1.722,-0.014 -2.325,0.589 l -0.383,0.383 -0.598,-0.042 c -1.019,-0.072 -1.693,0.234 -2.12,0.961 a 1.24,1.24 0 0 1 -0.468,0.465 c -0.932,0.476 -1.113,1.087 -0.638,2.16 l 0.143,0.322 0.45,-0.438 c 2.74,-2.666 6.173,-4.048 9.237,-3.718 a 8.21,8.21 0 0 1 5.069,2.377 c 1.503,1.448 2.192,2.555 4.535,7.28 l 2.459,4.759 c 1.579,2.652 3.356,4.435 5.478,5.498 0.207,0.104 0.41,0.189 0.451,0.189 0.041,0 0.153,-0.155 0.249,-0.344 0.229,-0.45 0.506,-0.824 1.015,-1.374 0.368,-0.398 0.419,-0.489 0.44,-0.794 0.013,-0.189 0.058,-0.434 0.1,-0.543 0.075,-0.196 0.071,-0.198 -0.2,-0.198 -0.404,0 -0.528,0.178 -0.636,0.915 -0.134,0.921 -0.385,1.192 -0.96,1.038 -0.841,-0.227 -4.071,-2.886 -5.133,-4.227 -0.579,-0.731 -0.615,-0.833 -0.617,-1.775 -0.002,-0.765 -0.018,-0.861 -0.201,-1.209 -0.202,-0.383 -0.483,-0.598 -0.782,-0.598 -0.172,0 -0.174,0.031 0.044,-0.751 0.231,-0.829 -0.03,-1.394 -0.907,-1.969 -0.839,-0.55 -0.767,-0.446 -0.82,-1.201 -0.114,-1.626 -0.657,-2.656 -1.522,-2.887 l -0.323,-0.086 -0.085,-0.51 c -0.158,-0.948 -0.542,-1.699 -1.015,-1.986 -0.183,-0.111 -0.319,-0.128 -0.814,-0.097 -0.742,0.046 -1.333,-0.104 -1.567,-0.398 -0.139,-0.176 -0.153,-0.256 -0.115,-0.708 0.051,-0.618 -0.044,-1.005 -0.286,-1.163 -0.158,-0.103 -0.303,-0.11 -1.135,-0.055 -1.696,0.112 -2.048,0.064 -2.643,-0.36 -0.292,-0.208 -0.36,-0.224 -0.904,-0.221 z m 38,-3.049 c -0.017,0.017 -0.079,0.4 -0.137,0.852 -0.355,2.738 -0.946,4.618 -1.975,6.276 -0.427,0.688 -1.175,1.664 -1.524,1.991 -0.128,0.119 -0.357,0.4 -0.51,0.623 -0.316,0.462 -0.671,0.787 -0.858,0.787 -0.3,0 -0.367,-0.214 -0.367,-1.163 0,-0.732 -0.025,-0.946 -0.133,-1.151 -0.167,-0.318 -0.527,-0.505 -0.972,-0.505 -1.202,0 -1.376,0.905 -0.611,3.181 0.487,1.449 0.544,1.746 0.384,1.99 -0.213,0.325 -0.448,0.244 -1.427,-0.49 -0.49,-0.368 -1.103,-0.779 -1.361,-0.914 -0.258,-0.135 -0.535,-0.304 -0.615,-0.376 -0.415,-0.374 -1.241,-0.552 -2,-0.431 -0.872,0.139 -1.269,0.337 -1.83,0.912 l -1.183,1.118 c -1.666,1.476 -2.333,2.832 -2.108,4.281 0.045,0.288 0.104,0.543 0.132,0.566 0.028,0.023 0.327,0.1 0.665,0.17 0.81,0.168 1.406,0.398 2.241,0.864 l 0.922,0.476 c 0.358,0.141 0.94,0.065 1.291,-0.168 0.291,-0.193 0.298,-0.208 0.332,-0.684 0.047,-0.657 0.204,-0.959 0.635,-1.227 0.414,-0.257 0.65,-0.659 0.65,-1.105 v -0.301 l -0.259,0.042 c -0.143,0.023 -0.59,0.194 -0.994,0.379 -1.073,0.492 -1.2,0.532 -1.428,0.453 -0.113,-0.039 -0.234,-0.16 -0.285,-0.282 -0.13,-0.314 -0.053,-1.315 0.141,-1.816 0.396,-1.031 1.497,-1.717 2.756,-1.719 1.63,-0.003 3.353,1.155 4.191,2.817 0.42,0.834 0.72,2.163 0.721,3.196 0.001,0.689 -0.19,2.053 -0.368,2.635 -0.713,2.325 -2.689,4.041 -5.631,4.892 -0.954,0.276 -1.874,0.406 -3.402,0.482 l -1.767,0.168 c -1.264,0.345 -1.468,0.955 -0.591,1.764 0.357,0.329 0.738,0.543 1.346,0.756 0.532,0.186 1.583,0.238 2.064,0.101 0.199,-0.056 0.755,-0.25 1.237,-0.429 1.258,-0.469 1.79,-0.562 3.106,-0.545 l 1.102,0.014 0.56,-0.266 c 1.63,-0.774 2.995,-2.295 2.995,-3.338 0,-0.319 -0.178,-0.756 -0.307,-0.756 -0.164,0 -0.779,0.423 -1.464,1.009 -1.116,0.954 -1.79,1.377 -2.195,1.377 -0.193,0 -0.218,-0.028 -0.263,-0.294 -0.027,-0.162 -0.039,-0.304 -0.025,-0.317 0.014,-0.013 0.272,-0.218 0.575,-0.457 a 22.2,22.2 0 0 0 1.229,-1.081 c 1.711,-1.626 2.667,-2.184 3.752,-2.188 0.494,-0.002 0.878,-0.137 1.12,-0.393 0.138,-0.147 0.357,-0.587 0.598,-1.203 0.209,-0.534 0.491,-1.123 0.628,-1.308 0.285,-0.387 0.735,-0.718 1.242,-0.916 0.201,-0.078 0.391,-0.211 0.444,-0.309 0.14,-0.259 0.083,-1.099 -0.088,-1.288 -0.182,-0.201 -0.608,-0.2 -0.865,0.002 -0.257,0.202 -0.51,0.138 -0.607,-0.141 -0.048,-0.138 -0.048,-0.421 0,-0.85 0.126,-1.123 -0.016,-1.932 -0.372,-2.123 -0.077,-0.041 -0.252,-0.074 -0.389,-0.074 -0.682,0 -1.293,1.268 -1.783,3.698 -0.242,1.199 -0.351,1.456 -0.6,1.421 -0.299,-0.043 -0.37,-0.356 -0.368,-1.613 0.003,-1.719 0.275,-2.938 1.039,-4.662 0.319,-0.719 0.381,-0.837 1.539,-2.914 1.835,-3.292 2.53,-5.279 2.533,-7.243 0.001,-0.477 -0.038,-1.014 -0.086,-1.193 -0.115,-0.429 -0.38,-1.098 -0.419,-1.058 z"
       id="path120"
       style="fill:#d2691e;" />
  </g>
  <g
     id="g1350">
    <g
       transform="matrix(0.497723,-0.444066,0.446772,0.507162,131.06442,-91.273539)"
       id="g136"
       style="opacity:0.998;">
      <path
         id="use124"
         d="m -188.211,100.409 c -0.313,0.472 -0.704,0.42 -0.933,1.455 -0.482,-0.066 -0.938,-0.313 -1.389,-0.595 -0.301,0.479 -0.084,1.448 0.165,2.447 -0.92,-0.105 -1.737,-0.303 -2.414,-0.628 0.261,0.836 0.481,1.684 1.124,2.414 -1.457,-0.47 -3.956,1.189 -2.977,2.943 3.761,-2.279 5.271,1.976 6.423,3.373 1.152,-1.397 2.661,-5.652 6.423,-3.373 0.979,-1.755 -1.52,-3.414 -2.977,-2.943 0.644,-0.73 0.864,-1.578 1.124,-2.414 -0.678,0.325 -1.494,0.524 -2.414,0.628 0.25,-1 0.466,-1.968 0.165,-2.447 -0.451,0.282 -0.907,0.529 -1.389,0.595 -0.228,-1.035 -0.62,-0.983 -0.933,-1.455 z"
         style="fill:#ebebeb;stroke:#d3d3d3;stroke-width:0.265;" />
      <path
         id="use126"
         d="m -188.106,102.455 c -0.391,0.013 -0.813,0.131 -1.01,0.431 -0.046,0.107 -0.069,0.228 -0.086,0.352 -0.177,-0.218 -0.439,-0.394 -0.663,-0.454 -0.218,0.304 0.259,0.923 0.444,1.369 a 0.6,0.6 0 0 1 -0.228,0.179 c -0.537,-0.132 -0.584,0.718 -1.152,0.492 -0.441,-0.415 -0.133,0.308 -0.407,0.398 -0.368,0.412 0.629,0.81 0.521,1.352 -0.189,0.529 -0.827,-0.075 -1.223,0.043 -0.581,0.068 -0.049,0.527 0.265,0.559 0.542,0.49 1.316,0.396 1.966,0.602 0.516,0.223 0.704,0.953 1.397,0.797 0.527,-0.146 1.141,-0.064 1.568,-0.482 0.375,-0.472 0.778,-1.043 1.448,-1.08 0.054,0.053 0.136,0.067 0.208,0.05 0.403,-0.14 1.243,-0.114 1.106,-0.758 -0.298,-0.563 -0.984,-0.145 -1.455,-0.335 -0.156,-0.311 -0.322,-0.646 -0.59,-0.902 0.154,-0.293 0.22,-0.595 -0.131,-0.731 -0.182,-0.001 -0.331,0.068 -0.465,0.167 a 6.61,6.61 0 0 1 -0.376,-0.686 c 0.311,-0.394 0.551,-0.928 -0.097,-0.97 a 0.94,0.94 0 0 0 -0.249,0.221 c -0.098,-0.234 -0.209,-0.46 -0.423,-0.596 a 2.17,2.17 0 0 0 -0.371,-0.019 z"
         style="fill:#ffffff;" />
      <path
         id="use128"
         d="m -190.001,116.486 c 0.606,0.564 1.214,1.04 1.79,2.69 0.576,-1.65 1.184,-2.126 1.79,-2.69 l -1.79,0.024 z"
         style="fill:#ffffff;stroke:#dcdcdc;stroke-width:0.265;" />
      <g
         class="X Z d"
         id="g134">
        <path
           id="use130"
           d="m -192.418,107.222 c 1.662,0.19 3.074,1.792 4.207,4.961 v 4.895 c -5.643,-1.061 -3.394,-6.261 -4.207,-9.856 z" />
        <path
           id="use132"
           d="m -184.004,107.222 c -1.662,0.19 -3.074,1.792 -4.207,4.961 v 4.895 c 5.643,-1.061 3.394,-6.261 4.207,-9.856 z" />
      </g>
    </g>
    <g
       transform="matrix(0.533333,-0.400597,0.402499,0.542967,148.50088,-79.78842)"
       id="g150"
       style="opacity:0.998;">
      <path
         id="use138"
         d="m -188.211,100.409 c -0.313,0.472 -0.704,0.42 -0.933,1.455 -0.482,-0.066 -0.938,-0.313 -1.389,-0.595 -0.301,0.479 -0.084,1.448 0.165,2.447 -0.92,-0.105 -1.737,-0.303 -2.414,-0.628 0.261,0.836 0.481,1.684 1.124,2.414 -1.457,-0.47 -3.956,1.189 -2.977,2.943 3.761,-2.279 5.271,1.976 6.423,3.373 1.152,-1.397 2.661,-5.652 6.423,-3.373 0.979,-1.755 -1.52,-3.414 -2.977,-2.943 0.644,-0.73 0.864,-1.578 1.124,-2.414 -0.678,0.325 -1.494,0.524 -2.414,0.628 0.25,-1 0.466,-1.968 0.165,-2.447 -0.451,0.282 -0.907,0.529 -1.389,0.595 -0.228,-1.035 -0.62,-0.983 -0.933,-1.455 z"
         style="fill:#ebebeb;stroke:#d3d3d3;stroke-width:0.265;" />
      <path
         id="use140"
         d="m -188.106,102.455 c -0.391,0.013 -0.813,0.131 -1.01,0.431 -0.046,0.107 -0.069,0.228 -0.086,0.352 -0.177,-0.218 -0.439,-0.394 -0.663,-0.454 -0.218,0.304 0.259,0.923 0.444,1.369 a 0.6,0.6 0 0 1 -0.228,0.179 c -0.537,-0.132 -0.584,0.718 -1.152,0.492 -0.441,-0.415 -0.133,0.308 -0.407,0.398 -0.368,0.412 0.629,0.81 0.521,1.352 -0.189,0.529 -0.827,-0.075 -1.223,0.043 -0.581,0.068 -0.049,0.527 0.265,0.559 0.542,0.49 1.316,0.396 1.966,0.602 0.516,0.223 0.704,0.953 1.397,0.797 0.527,-0.146 1.141,-0.064 1.568,-0.482 0.375,-0.472 0.778,-1.043 1.448,-1.08 0.054,0.053 0.136,0.067 0.208,0.05 0.403,-0.14 1.243,-0.114 1.106,-0.758 -0.298,-0.563 -0.984,-0.145 -1.455,-0.335 -0.156,-0.311 -0.322,-0.646 -0.59,-0.902 0.154,-0.293 0.22,-0.595 -0.131,-0.731 -0.182,-0.001 -0.331,0.068 -0.465,0.167 a 6.61,6.61 0 0 1 -0.376,-0.686 c 0.311,-0.394 0.551,-0.928 -0.097,-0.97 a 0.94,0.94 0 0 0 -0.249,0.221 c -0.098,-0.234 -0.209,-0.46 -0.423,-0.596 a 2.17,2.17 0 0 0 -0.371,-0.019 z"
         style="fill:#ffffff;" />
      <path
         id="use142"
         d="m -190.001,116.486 c 0.606,0.564 1.214,1.04 1.79,2.69 0.576,-1.65 1.184,-2.126 1.79,-2.69 l -1.79,0.024 z"
         style="fill:#ffffff;stroke:#dcdcdc;stroke-width:0.265;" />
      <g
         class="X Z d"
         id="g148">
        <path
           id="use144"
           d="m -192.418,107.222 c 1.662,0.19 3.074,1.792 4.207,4.961 v 4.895 c -5.643,-1.061 -3.394,-6.261 -4.207,-9.856 z" />
        <path
           id="use146"
           d="m -184.004,107.222 c -1.662,0.19 -3.074,1.792 -4.207,4.961 v 4.895 c 5.643,-1.061 3.394,-6.261 4.207,-9.856 z" />
      </g>
    </g>
    <g
       transform="matrix(0.680473,-0.387904,0.388696,0.691976,182.80519,-85.193748)"
       id="g164"
       style="opacity:0.998;">
      <path
         id="use152"
         d="m -188.211,100.409 c -0.313,0.472 -0.704,0.42 -0.933,1.455 -0.482,-0.066 -0.938,-0.313 -1.389,-0.595 -0.301,0.479 -0.084,1.448 0.165,2.447 -0.92,-0.105 -1.737,-0.303 -2.414,-0.628 0.261,0.836 0.481,1.684 1.124,2.414 -1.457,-0.47 -3.956,1.189 -2.977,2.943 3.761,-2.279 5.271,1.976 6.423,3.373 1.152,-1.397 2.661,-5.652 6.423,-3.373 0.979,-1.755 -1.52,-3.414 -2.977,-2.943 0.644,-0.73 0.864,-1.578 1.124,-2.414 -0.678,0.325 -1.494,0.524 -2.414,0.628 0.25,-1 0.466,-1.968 0.165,-2.447 -0.451,0.282 -0.907,0.529 -1.389,0.595 -0.228,-1.035 -0.62,-0.983 -0.933,-1.455 z"
         style="fill:#ebebeb;stroke:#d3d3d3;stroke-width:0.265;" />
      <path
         id="use154"
         d="m -188.106,102.455 c -0.391,0.013 -0.813,0.131 -1.01,0.431 -0.046,0.107 -0.069,0.228 -0.086,0.352 -0.177,-0.218 -0.439,-0.394 -0.663,-0.454 -0.218,0.304 0.259,0.923 0.444,1.369 a 0.6,0.6 0 0 1 -0.228,0.179 c -0.537,-0.132 -0.584,0.718 -1.152,0.492 -0.441,-0.415 -0.133,0.308 -0.407,0.398 -0.368,0.412 0.629,0.81 0.521,1.352 -0.189,0.529 -0.827,-0.075 -1.223,0.043 -0.581,0.068 -0.049,0.527 0.265,0.559 0.542,0.49 1.316,0.396 1.966,0.602 0.516,0.223 0.704,0.953 1.397,0.797 0.527,-0.146 1.141,-0.064 1.568,-0.482 0.375,-0.472 0.778,-1.043 1.448,-1.08 0.054,0.053 0.136,0.067 0.208,0.05 0.403,-0.14 1.243,-0.114 1.106,-0.758 -0.298,-0.563 -0.984,-0.145 -1.455,-0.335 -0.156,-0.311 -0.322,-0.646 -0.59,-0.902 0.154,-0.293 0.22,-0.595 -0.131,-0.731 -0.182,-0.001 -0.331,0.068 -0.465,0.167 a 6.61,6.61 0 0 1 -0.376,-0.686 c 0.311,-0.394 0.551,-0.928 -0.097,-0.97 a 0.94,0.94 0 0 0 -0.249,0.221 c -0.098,-0.234 -0.209,-0.46 -0.423,-0.596 a 2.17,2.17 0 0 0 -0.371,-0.019 z"
         style="fill:#ffffff;" />
      <path
         id="use156"
         d="m -190.001,116.486 c 0.606,0.564 1.214,1.04 1.79,2.69 0.576,-1.65 1.184,-2.126 1.79,-2.69 l -1.79,0.024 z"
         style="fill:#ffffff;stroke:#dcdcdc;stroke-width:0.265;" />
      <g
         class="X Z d"
         id="g162">
        <path
           id="use158"
           d="m -192.418,107.222 c 1.662,0.19 3.074,1.792 4.207,4.961 v 4.895 c -5.643,-1.061 -3.394,-6.261 -4.207,-9.856 z" />
        <path
           id="use160"
           d="m -184.004,107.222 c -1.662,0.19 -3.074,1.792 -4.207,4.961 v 4.895 c 5.643,-1.061 3.394,-6.261 4.207,-9.856 z" />
      </g>
    </g>
    <g
       transform="matrix(0.830077,-0.368711,0.368292,0.843441,218.32708,-88.623533)"
       id="g178"
       style="opacity:0.998;">
      <path
         id="use166"
         d="m -188.211,100.409 c -0.313,0.472 -0.704,0.42 -0.933,1.455 -0.482,-0.066 -0.938,-0.313 -1.389,-0.595 -0.301,0.479 -0.084,1.448 0.165,2.447 -0.92,-0.105 -1.737,-0.303 -2.414,-0.628 0.261,0.836 0.481,1.684 1.124,2.414 -1.457,-0.47 -3.956,1.189 -2.977,2.943 3.761,-2.279 5.271,1.976 6.423,3.373 1.152,-1.397 2.661,-5.652 6.423,-3.373 0.979,-1.755 -1.52,-3.414 -2.977,-2.943 0.644,-0.73 0.864,-1.578 1.124,-2.414 -0.678,0.325 -1.494,0.524 -2.414,0.628 0.25,-1 0.466,-1.968 0.165,-2.447 -0.451,0.282 -0.907,0.529 -1.389,0.595 -0.228,-1.035 -0.62,-0.983 -0.933,-1.455 z"
         style="fill:#ebebeb;stroke:#d3d3d3;stroke-width:0.265;" />
      <path
         id="use168"
         d="m -188.106,102.455 c -0.391,0.013 -0.813,0.131 -1.01,0.431 -0.046,0.107 -0.069,0.228 -0.086,0.352 -0.177,-0.218 -0.439,-0.394 -0.663,-0.454 -0.218,0.304 0.259,0.923 0.444,1.369 a 0.6,0.6 0 0 1 -0.228,0.179 c -0.537,-0.132 -0.584,0.718 -1.152,0.492 -0.441,-0.415 -0.133,0.308 -0.407,0.398 -0.368,0.412 0.629,0.81 0.521,1.352 -0.189,0.529 -0.827,-0.075 -1.223,0.043 -0.581,0.068 -0.049,0.527 0.265,0.559 0.542,0.49 1.316,0.396 1.966,0.602 0.516,0.223 0.704,0.953 1.397,0.797 0.527,-0.146 1.141,-0.064 1.568,-0.482 0.375,-0.472 0.778,-1.043 1.448,-1.08 0.054,0.053 0.136,0.067 0.208,0.05 0.403,-0.14 1.243,-0.114 1.106,-0.758 -0.298,-0.563 -0.984,-0.145 -1.455,-0.335 -0.156,-0.311 -0.322,-0.646 -0.59,-0.902 0.154,-0.293 0.22,-0.595 -0.131,-0.731 -0.182,-0.001 -0.331,0.068 -0.465,0.167 a 6.61,6.61 0 0 1 -0.376,-0.686 c 0.311,-0.394 0.551,-0.928 -0.097,-0.97 a 0.94,0.94 0 0 0 -0.249,0.221 c -0.098,-0.234 -0.209,-0.46 -0.423,-0.596 a 2.17,2.17 0 0 0 -0.371,-0.019 z"
         style="fill:#ffffff;" />
      <path
         id="use170"
         d="m -190.001,116.486 c 0.606,0.564 1.214,1.04 1.79,2.69 0.576,-1.65 1.184,-2.126 1.79,-2.69 l -1.79,0.024 z"
         style="fill:#ffffff;stroke:#dcdcdc;stroke-width:0.265;" />
      <g
         class="X Z d"
         id="g176">
        <path
           id="use172"
           d="m -192.418,107.222 c 1.662,0.19 3.074,1.792 4.207,4.961 v 4.895 c -5.643,-1.061 -3.394,-6.261 -4.207,-9.856 z" />
        <path
           id="use174"
           d="m -184.004,107.222 c -1.662,0.19 -3.074,1.792 -4.207,4.961 v 4.895 c 5.643,-1.061 3.394,-6.261 4.207,-9.856 z" />
      </g>
    </g>
    <g
       transform="matrix(0.941056,-0.216633,0.213488,0.954919,259.55852,-60.720839)"
       id="g192"
       style="opacity:0.998;">
      <path
         id="use180"
         d="m -188.211,100.409 c -0.313,0.472 -0.704,0.42 -0.933,1.455 -0.482,-0.066 -0.938,-0.313 -1.389,-0.595 -0.301,0.479 -0.084,1.448 0.165,2.447 -0.92,-0.105 -1.737,-0.303 -2.414,-0.628 0.261,0.836 0.481,1.684 1.124,2.414 -1.457,-0.47 -3.956,1.189 -2.977,2.943 3.761,-2.279 5.271,1.976 6.423,3.373 1.152,-1.397 2.661,-5.652 6.423,-3.373 0.979,-1.755 -1.52,-3.414 -2.977,-2.943 0.644,-0.73 0.864,-1.578 1.124,-2.414 -0.678,0.325 -1.494,0.524 -2.414,0.628 0.25,-1 0.466,-1.968 0.165,-2.447 -0.451,0.282 -0.907,0.529 -1.389,0.595 -0.228,-1.035 -0.62,-0.983 -0.933,-1.455 z"
         style="fill:#ebebeb;stroke:#d3d3d3;stroke-width:0.265;" />
      <path
         id="use182"
         d="m -188.106,102.455 c -0.391,0.013 -0.813,0.131 -1.01,0.431 -0.046,0.107 -0.069,0.228 -0.086,0.352 -0.177,-0.218 -0.439,-0.394 -0.663,-0.454 -0.218,0.304 0.259,0.923 0.444,1.369 a 0.6,0.6 0 0 1 -0.228,0.179 c -0.537,-0.132 -0.584,0.718 -1.152,0.492 -0.441,-0.415 -0.133,0.308 -0.407,0.398 -0.368,0.412 0.629,0.81 0.521,1.352 -0.189,0.529 -0.827,-0.075 -1.223,0.043 -0.581,0.068 -0.049,0.527 0.265,0.559 0.542,0.49 1.316,0.396 1.966,0.602 0.516,0.223 0.704,0.953 1.397,0.797 0.527,-0.146 1.141,-0.064 1.568,-0.482 0.375,-0.472 0.778,-1.043 1.448,-1.08 0.054,0.053 0.136,0.067 0.208,0.05 0.403,-0.14 1.243,-0.114 1.106,-0.758 -0.298,-0.563 -0.984,-0.145 -1.455,-0.335 -0.156,-0.311 -0.322,-0.646 -0.59,-0.902 0.154,-0.293 0.22,-0.595 -0.131,-0.731 -0.182,-0.001 -0.331,0.068 -0.465,0.167 a 6.61,6.61 0 0 1 -0.376,-0.686 c 0.311,-0.394 0.551,-0.928 -0.097,-0.97 a 0.94,0.94 0 0 0 -0.249,0.221 c -0.098,-0.234 -0.209,-0.46 -0.423,-0.596 a 2.17,2.17 0 0 0 -0.371,-0.019 z"
         style="fill:#ffffff;" />
      <path
         id="use184"
         d="m -190.001,116.486 c 0.606,0.564 1.214,1.04 1.79,2.69 0.576,-1.65 1.184,-2.126 1.79,-2.69 l -1.79,0.024 z"
         style="fill:#ffffff;stroke:#dcdcdc;stroke-width:0.265;" />
      <g
         class="X Z d"
         id="g190">
        <path
           id="use186"
           d="m -192.418,107.222 c 1.662,0.19 3.074,1.792 4.207,4.961 v 4.895 c -5.643,-1.061 -3.394,-6.261 -4.207,-9.856 z" />
        <path
           id="use188"
           d="m -184.004,107.222 c -1.662,0.19 -3.074,1.792 -4.207,4.961 v 4.895 c 5.643,-1.061 3.394,-6.261 4.207,-9.856 z" />
      </g>
    </g>
    <g
       transform="rotate(-1.8760271,-378.78271,-8886.2974)"
       id="g206"
       style="opacity:0.998;">
      <path
         id="use194"
         d="m -188.211,100.409 c -0.313,0.472 -0.704,0.42 -0.933,1.455 -0.482,-0.066 -0.938,-0.313 -1.389,-0.595 -0.301,0.479 -0.084,1.448 0.165,2.447 -0.92,-0.105 -1.737,-0.303 -2.414,-0.628 0.261,0.836 0.481,1.684 1.124,2.414 -1.457,-0.47 -3.956,1.189 -2.977,2.943 3.761,-2.279 5.271,1.976 6.423,3.373 1.152,-1.397 2.661,-5.652 6.423,-3.373 0.979,-1.755 -1.52,-3.414 -2.977,-2.943 0.644,-0.73 0.864,-1.578 1.124,-2.414 -0.678,0.325 -1.494,0.524 -2.414,0.628 0.25,-1 0.466,-1.968 0.165,-2.447 -0.451,0.282 -0.907,0.529 -1.389,0.595 -0.228,-1.035 -0.62,-0.983 -0.933,-1.455 z"
         style="fill:#ebebeb;stroke:#d3d3d3;stroke-width:0.265;" />
      <path
         id="use196"
         d="m -188.106,102.455 c -0.391,0.013 -0.813,0.131 -1.01,0.431 -0.046,0.107 -0.069,0.228 -0.086,0.352 -0.177,-0.218 -0.439,-0.394 -0.663,-0.454 -0.218,0.304 0.259,0.923 0.444,1.369 a 0.6,0.6 0 0 1 -0.228,0.179 c -0.537,-0.132 -0.584,0.718 -1.152,0.492 -0.441,-0.415 -0.133,0.308 -0.407,0.398 -0.368,0.412 0.629,0.81 0.521,1.352 -0.189,0.529 -0.827,-0.075 -1.223,0.043 -0.581,0.068 -0.049,0.527 0.265,0.559 0.542,0.49 1.316,0.396 1.966,0.602 0.516,0.223 0.704,0.953 1.397,0.797 0.527,-0.146 1.141,-0.064 1.568,-0.482 0.375,-0.472 0.778,-1.043 1.448,-1.08 0.054,0.053 0.136,0.067 0.208,0.05 0.403,-0.14 1.243,-0.114 1.106,-0.758 -0.298,-0.563 -0.984,-0.145 -1.455,-0.335 -0.156,-0.311 -0.322,-0.646 -0.59,-0.902 0.154,-0.293 0.22,-0.595 -0.131,-0.731 -0.182,-0.001 -0.331,0.068 -0.465,0.167 a 6.61,6.61 0 0 1 -0.376,-0.686 c 0.311,-0.394 0.551,-0.928 -0.097,-0.97 a 0.94,0.94 0 0 0 -0.249,0.221 c -0.098,-0.234 -0.209,-0.46 -0.423,-0.596 a 2.17,2.17 0 0 0 -0.371,-0.019 z"
         style="fill:#ffffff;" />
      <path
         id="use198"
         d="m -190.001,116.486 c 0.606,0.564 1.214,1.04 1.79,2.69 0.576,-1.65 1.184,-2.126 1.79,-2.69 l -1.79,0.024 z"
         style="fill:#ffffff;stroke:#dcdcdc;stroke-width:0.265;" />
      <g
         class="X Z d"
         id="g204">
        <path
           id="use200"
           d="m -192.418,107.222 c 1.662,0.19 3.074,1.792 4.207,4.961 v 4.895 c -5.643,-1.061 -3.394,-6.261 -4.207,-9.856 z" />
        <path
           id="use202"
           d="m -184.004,107.222 c -1.662,0.19 -3.074,1.792 -4.207,4.961 v 4.895 c 5.643,-1.061 3.394,-6.261 4.207,-9.856 z" />
      </g>
    </g>
    <g
       transform="matrix(0.970896,0.239499,-0.239499,0.970896,312.67105,51.10733)"
       id="g220"
       style="opacity:0.998;">
      <path
         id="use208"
         d="m -188.211,100.409 c -0.313,0.472 -0.704,0.42 -0.933,1.455 -0.482,-0.066 -0.938,-0.313 -1.389,-0.595 -0.301,0.479 -0.084,1.448 0.165,2.447 -0.92,-0.105 -1.737,-0.303 -2.414,-0.628 0.261,0.836 0.481,1.684 1.124,2.414 -1.457,-0.47 -3.956,1.189 -2.977,2.943 3.761,-2.279 5.271,1.976 6.423,3.373 1.152,-1.397 2.661,-5.652 6.423,-3.373 0.979,-1.755 -1.52,-3.414 -2.977,-2.943 0.644,-0.73 0.864,-1.578 1.124,-2.414 -0.678,0.325 -1.494,0.524 -2.414,0.628 0.25,-1 0.466,-1.968 0.165,-2.447 -0.451,0.282 -0.907,0.529 -1.389,0.595 -0.228,-1.035 -0.62,-0.983 -0.933,-1.455 z"
         style="fill:#ebebeb;stroke:#d3d3d3;stroke-width:0.265;" />
      <path
         id="use210"
         d="m -188.106,102.455 c -0.391,0.013 -0.813,0.131 -1.01,0.431 -0.046,0.107 -0.069,0.228 -0.086,0.352 -0.177,-0.218 -0.439,-0.394 -0.663,-0.454 -0.218,0.304 0.259,0.923 0.444,1.369 a 0.6,0.6 0 0 1 -0.228,0.179 c -0.537,-0.132 -0.584,0.718 -1.152,0.492 -0.441,-0.415 -0.133,0.308 -0.407,0.398 -0.368,0.412 0.629,0.81 0.521,1.352 -0.189,0.529 -0.827,-0.075 -1.223,0.043 -0.581,0.068 -0.049,0.527 0.265,0.559 0.542,0.49 1.316,0.396 1.966,0.602 0.516,0.223 0.704,0.953 1.397,0.797 0.527,-0.146 1.141,-0.064 1.568,-0.482 0.375,-0.472 0.778,-1.043 1.448,-1.08 0.054,0.053 0.136,0.067 0.208,0.05 0.403,-0.14 1.243,-0.114 1.106,-0.758 -0.298,-0.563 -0.984,-0.145 -1.455,-0.335 -0.156,-0.311 -0.322,-0.646 -0.59,-0.902 0.154,-0.293 0.22,-0.595 -0.131,-0.731 -0.182,-0.001 -0.331,0.068 -0.465,0.167 a 6.61,6.61 0 0 1 -0.376,-0.686 c 0.311,-0.394 0.551,-0.928 -0.097,-0.97 a 0.94,0.94 0 0 0 -0.249,0.221 c -0.098,-0.234 -0.209,-0.46 -0.423,-0.596 a 2.17,2.17 0 0 0 -0.371,-0.019 z"
         style="fill:#ffffff;" />
      <path
         id="use212"
         d="m -190.001,116.486 c 0.606,0.564 1.214,1.04 1.79,2.69 0.576,-1.65 1.184,-2.126 1.79,-2.69 l -1.79,0.024 z"
         style="fill:#ffffff;stroke:#dcdcdc;stroke-width:0.265;" />
      <g
         class="X Z d"
         id="g218">
        <path
           id="use214"
           d="m -192.418,107.222 c 1.662,0.19 3.074,1.792 4.207,4.961 v 4.895 c -5.643,-1.061 -3.394,-6.261 -4.207,-9.856 z" />
        <path
           id="use216"
           d="m -184.004,107.222 c -1.662,0.19 -3.074,1.792 -4.207,4.961 v 4.895 c 5.643,-1.061 3.394,-6.261 4.207,-9.856 z" />
      </g>
    </g>
    <g
       transform="rotate(33.351985,-71.674742,593.95001)"
       id="g234"
       style="opacity:0.998;">
      <path
         id="use222"
         d="m -188.211,100.409 c -0.313,0.472 -0.704,0.42 -0.933,1.455 -0.482,-0.066 -0.938,-0.313 -1.389,-0.595 -0.301,0.479 -0.084,1.448 0.165,2.447 -0.92,-0.105 -1.737,-0.303 -2.414,-0.628 0.261,0.836 0.481,1.684 1.124,2.414 -1.457,-0.47 -3.956,1.189 -2.977,2.943 3.761,-2.279 5.271,1.976 6.423,3.373 1.152,-1.397 2.661,-5.652 6.423,-3.373 0.979,-1.755 -1.52,-3.414 -2.977,-2.943 0.644,-0.73 0.864,-1.578 1.124,-2.414 -0.678,0.325 -1.494,0.524 -2.414,0.628 0.25,-1 0.466,-1.968 0.165,-2.447 -0.451,0.282 -0.907,0.529 -1.389,0.595 -0.228,-1.035 -0.62,-0.983 -0.933,-1.455 z"
         style="fill:#ebebeb;stroke:#d3d3d3;stroke-width:0.265;" />
      <path
         id="use224"
         d="m -188.106,102.455 c -0.391,0.013 -0.813,0.131 -1.01,0.431 -0.046,0.107 -0.069,0.228 -0.086,0.352 -0.177,-0.218 -0.439,-0.394 -0.663,-0.454 -0.218,0.304 0.259,0.923 0.444,1.369 a 0.6,0.6 0 0 1 -0.228,0.179 c -0.537,-0.132 -0.584,0.718 -1.152,0.492 -0.441,-0.415 -0.133,0.308 -0.407,0.398 -0.368,0.412 0.629,0.81 0.521,1.352 -0.189,0.529 -0.827,-0.075 -1.223,0.043 -0.581,0.068 -0.049,0.527 0.265,0.559 0.542,0.49 1.316,0.396 1.966,0.602 0.516,0.223 0.704,0.953 1.397,0.797 0.527,-0.146 1.141,-0.064 1.568,-0.482 0.375,-0.472 0.778,-1.043 1.448,-1.08 0.054,0.053 0.136,0.067 0.208,0.05 0.403,-0.14 1.243,-0.114 1.106,-0.758 -0.298,-0.563 -0.984,-0.145 -1.455,-0.335 -0.156,-0.311 -0.322,-0.646 -0.59,-0.902 0.154,-0.293 0.22,-0.595 -0.131,-0.731 -0.182,-0.001 -0.331,0.068 -0.465,0.167 a 6.61,6.61 0 0 1 -0.376,-0.686 c 0.311,-0.394 0.551,-0.928 -0.097,-0.97 a 0.94,0.94 0 0 0 -0.249,0.221 c -0.098,-0.234 -0.209,-0.46 -0.423,-0.596 a 2.17,2.17 0 0 0 -0.371,-0.019 z"
         style="fill:#ffffff;" />
      <path
         id="use226"
         d="m -190.001,116.486 c 0.606,0.564 1.214,1.04 1.79,2.69 0.576,-1.65 1.184,-2.126 1.79,-2.69 l -1.79,0.024 z"
         style="fill:#ebebeb;stroke:#dcdcdc;stroke-width:0.265;" />
      <g
         class="X Z d"
         id="g232">
        <path
           id="use228"
           d="m -192.418,107.222 c 1.662,0.19 3.074,1.792 4.207,4.961 v 4.895 c -5.643,-1.061 -3.394,-6.261 -4.207,-9.856 z" />
        <path
           id="use230"
           d="m -184.004,107.222 c -1.662,0.19 -3.074,1.792 -4.207,4.961 v 4.895 c 5.643,-1.061 3.394,-6.261 4.207,-9.856 z" />
      </g>
    </g>
  </g>
  <g
     id="g1292">
    <path
       d="M47.448 42.971l-1.663 2.207c-.023.032-.429.205-.903.385-1.971.748-3.217 1.509-4.38 2.676-1.125 1.129-1.841 2.294-2.418 3.932-.264.748-.606 2.137-.742 3.009-.09.574-.108.61-.831 1.631-.714 1.008-.972 1.249-1.149 1.073-.041-.041-.038-.167.007-.321.319-1.091.372-2.711.136-4.129l-.157-.939.45-1.154.45-1.233c0-.043-.133-.13-.295-.194l-.295-.116-.097.233-.524 1.32c-.419 1.066-.434 1.092-.838 1.403-.558.43-1.527 1.452-1.905 2.007-.68 1.002-1.108 2.108-1.326 3.429l-.121.734-.015.744c.031.019.057.223.058.453a11.17 11.17 0 0 0 .111 1.188c.227 1.599.238 1.435-.225 3.386l-.425 1.788-1.159 2.008-1.768 3.173c-.335.641-.654 1.165-.709 1.166-.08.002-.089-.149-.047-.787l.052-.789.47-.71c1.022-1.545 1.699-3.102 2.019-4.637.295-1.416.168-3.415-.303-4.785-.125-.363-.169-.68-.126-.867l.374-1.026c-.027-.027.025-.317.115-.646.094-.343.136-.625.099-.662s-.191-.073-.345-.082l-.281-.017-.229.835-.229.836-.263.831c.035.086-.041.277-.173.363-.098.064-.397.371-.665.681-2.27 2.625-2.72 5.553-1.47 9.559l.173.553-.114 1.978-.115 1.979-.642 1.614-1.5 4.133c-.037.172-.088.236-.174.219-.098-.019-.134-.162-.186-.735l-.064-.712.296-.792c.639-1.709.896-3.013.896-4.542 0-1.932-.405-3.328-1.541-5.311-.11-.191-.137-.345-.112-.624l.073-1.306.04-.936h-.331c-.312 0-.331.012-.336.202l-.062 1.413-.058 1.211-.332.514c-.646 1-1.01 1.902-1.238 3.067-.415 2.123.097 4.416 1.553 6.961l.375.655.187 1.851.187 1.851-.195 1.212c-.203 1.264-.338 2.774-.338 3.787 0 .474-.022.593-.109.593-.064 0-.156-.144-.225-.353-.101-.305-.107-.508-.043-1.487.245-3.736-.709-6.519-3.012-8.787l-.658-.648-.318-1.218-.355-1.255c-.073-.073-.565.065-.565.158 0 .053.148.668.329 1.367l.329 1.271-.143.514c-.942 3.385-.073 6.318 2.707 9.135l.837.848.606 1.77c.583 1.701.61 1.808.688 2.752.136 1.643.393 3.413.739 5.094.174.847.169.769.045.769-.056 0-.31-.286-.564-.636l-.463-.637-.06-.886c-.267-3.978-1.734-6.852-4.491-8.805-.789-.559-.767-.528-1.37-1.954l-.437-.974c-.042-.049-.588.129-.588.191 0 .012.248.598.552 1.302l.553 1.28-.088.991c-.208 2.335.398 4.377 1.834 6.181.579.728 1.687 1.761 2.524 2.354.675.478.724.534 1.979 2.235l1.287 1.744.309 1.321 1.477 5.878.289 1.12c0 .229-.245.001-.915-.853l-.731-.933-.308-1.213c-.653-2.577-1.554-4.386-2.903-5.83-.886-.948-1.901-1.677-3.21-2.304l-.763-.366-.731-1.125-.757-1.152c-.062-.067-.543.304-.495.382l.808 1.258c.745 1.156.756 1.179.757 1.615 0 .243.049.756.108 1.14.49 3.186 2.378 5.548 5.751 7.193l.677.33 1.882 2.402 1.882 2.402.779 1.745 2.49 4.911c.418.69.534.981.393.981-.031 0-.371-.26-.755-.577-.592-.488-.713-.626-.794-.899-.171-.579-.743-1.922-1.122-2.635-.851-1.599-2.093-3.07-3.346-3.962-.811-.577-2.021-1.182-2.956-1.478l-.733-.233-.883-1.056c-.552-.66-.916-1.038-.971-1.007a1.97 1.97 0 0 0-.248.194l-.161.145.927 1.106.927 1.106.174.849c.214 1.042.453 1.756.866 2.581 1.06 2.118 3.211 3.829 6.008 4.778l.713.242 2.215 1.799 2.216 1.799.789 1.059c.51.684.76 1.078.706 1.111-.046.028-.334-.1-.64-.286-1.261-.766-2.764-1.262-4.474-1.476l-.604-.075-1.096-.92-1.159-.919c-.035 0-.139.103-.233.229l-.17.229.211.167 1.202 1.001c.958.807.996.85 1.16 1.31.288.809.789 1.798 1.258 2.482.785 1.147 2.157 2.334 3.445 2.982 1.393.701 3.443 1.212 5.6 1.398l.564.048.862.954.862.953.296-.296.296-.296-.519-.535c-.563-.581-.526-.493-.803-1.945l-.129-.676.232-.736c.44-1.391.555-2.112.558-3.489.003-1.05-.023-1.35-.16-1.897-.381-1.521-1.023-2.675-2.184-3.929l-.394-.426-.322-1.278-.322-1.278-.28.017c-.154.009-.296.033-.315.053s.102.583.27 1.252l.305 1.218-.253.799c-.738 2.33-.63 4.625.322 6.876a16.31 16.31 0 0 0 1.406 2.571c.196.291.357.58.357.642 0 .157-.182.143-.303-.024l-1.437-1.795-2.745-3.534-1.409-1.878.041-1.123.041-1.124.289-.58c.982-1.969 1.446-4.045 1.266-5.676-.157-1.429-.64-2.69-1.508-3.944l-.485-.701-.141-1.222-.141-1.36c0-.121-.039-.132-.31-.089-.17.027-.32.059-.332.072s.043.58.121 1.262l.143 1.241-.324.7c-.741 1.597-.95 2.521-.945 4.182.003.958.037 1.366.164 1.953.2.927.651 2.246 1.086 3.173.33.704.332.713.283 1.278-.034.39-.079.569-.144.569-.113 0-1.212-1.665-1.944-2.944-.644-1.126-1.57-3.001-2.312-4.681l-.564-1.277.275-1.417.275-1.417.52-.695c2.289-3.056 2.74-5.831 1.42-8.729l-.227-.498.116-1.226.081-1.282c-.048-.077-.613-.07-.613.007 0 .035-.05.561-.111 1.17l-.111 1.107-.459.61c-1.702 2.261-2.182 4.873-1.488 8.087l.172.798-.158.835c-.233 1.233-.277 1.198-.82-.669l-1.943-7.81c0-.064.276-.678.611-1.364l.611-1.248.511-.38c1.546-1.146 2.686-2.686 3.154-4.26a8.4 8.4 0 0 0 .184-3.01l-.082-.53.404-1.037.404-1.092c0-.03-.126-.105-.281-.165l-.281-.11-.395 1.018-.395 1.018-.514.382c-2.16 1.606-3.293 3.917-3.461 7.056-.04.753-.068.871-.348 1.496-.275.614-.417.784-.517.622-.019-.031-.168-.716-.331-1.523-.533-2.635-.892-5.622-.716-5.952.045-.085.479-.685.964-1.332.87-1.162.887-1.179 1.431-1.448a11.01 11.01 0 0 0 2.688-1.905c1.358-1.351 1.993-2.749 2.157-4.749l.07-.854.625-.981.625-.981-.201-.166c-.111-.091-.242-.157-.291-.147s-.347.43-.661.932l-.571.913-.67.345a8.35 8.35 0 0 0-2.173 1.525c-.756.722-1.215 1.339-1.701 2.286-.475.927-.791 1.799-1.067 2.949-.191.796-.238.901-.66 1.486-.701.971-.694.986-.643-1.371.041-1.908.145-3.096.379-4.362l.106-.573.931-.893c.866-.831.97-.907 1.49-1.093a13.66 13.66 0 0 0 2.538-1.248c1.842-1.245 2.871-2.83 3.267-5.032l.129-.716.616-.78c.991-1.256.911-1.09.625-1.309l-.247-.189-.72.906c-.616.776-.763.919-1.019.996-1.109.332-2.463 1.123-3.341 1.951-1.043.984-1.99 2.502-2.608 4.177-.225.611-.334.798-.647 1.119-.353.361-.566.479-.566.314 0-.133.649-2.162.987-3.085l.902-2.337.566-1.419 1.433-1.337 1.523-1.391c.049-.03.429-.149.844-.266 2.93-.823 4.75-2.479 5.527-5.031l.201-.659.813-.824.813-.824-.214-.224-.214-.224-.773.764c-.713.704-.806.771-1.178.852-2.814.61-4.839 2.313-6.326 5.321-.343.694-.514.951-.816 1.226-.37.337-.565.434-.565.28 0-.214 1.058-2.188 2.615-4.88l.977-1.688 1.442-1.131c1.434-1.124 1.445-1.131 2.039-1.268 3.341-.769 5.353-2.478 6.183-5.256l.204-.682.669-.648c.444-.43.602-.576.805-.652.024-.224-.026-.387-.172-.469a1.94 1.94 0 0 0-1.331.847c0 .169-.403.464-.71.519-.622.111-1.566.442-2.226.782-1.657.854-2.871 2.13-3.93 4.13-.364.688-.48.839-.912 1.188-.526.425-.556.441-.625.329-.056-.09 1.021-1.845 2.624-4.278l1.259-1.89c.507-.941.781-1.046 1.079-1.455.287-.39.404-.478 1.077-.814 3.995-1.988 6.695-5.338 7.498-9.303.083-.41.151-.81.151-.889s.423-.704.94-1.389l.94-1.246-.283-.204c-.156-.112-.293-.192-.304-.177zM32.341 62.895c.084-.006.084.13-.054.354-.163.264-.37.352-.37.158 0-.057.087-.208.194-.335.099-.118.181-.173.231-.177z"
       fill="#a07843"
       id="path238" />
    <path
       d="M39.766 54.674c2.827-1.83 4.855-4.681 5.511-7.746.088-.411.144-.764.125-.783-.057-.057-1.125.39-1.987.831-2.959 1.513-4.616 3.991-5.319 7.954l-.138.777.663-.36 1.145-.672zm-8.132 7.612c-.184-.862-.247-1.714-.214-2.913.029-1.037.067-1.38.222-1.963a7.79 7.79 0 0 1 2.622-4.065c.361-.295.545-.403.597-.35.122.122.283 1.384.283 2.23.001 1.876-.611 3.738-1.818 5.533-.523.777-1.38 1.825-1.52 1.857-.064.015-.124-.101-.173-.33zm2.485 1.692c.001-.075.136-.384.3-.687 1.077-1.982 2.356-3.281 3.976-4.036.735-.343 1.789-.644 1.892-.54s-.236 1.107-.599 1.782c-.664 1.234-1.579 2.089-2.955 2.759-.747.364-1.674.683-2.349.81-.229.043-.266.031-.265-.087zm-8.073 6.44c-.386-1.298-.471-1.891-.475-3.347-.003-1.135.022-1.497.135-1.945.281-1.115.732-2.054 1.409-2.936.481-.625 1.017-1.174 1.149-1.174s.243.328.47 1.327c.19.835.175 2.828-.028 3.706-.317 1.373-.96 2.806-1.881 4.197-.247.373-.49.679-.539.679s-.156-.228-.239-.506zm3.081 2.036c0-.132.637-1.281 1.047-1.888.43-.637 1.312-1.581 1.902-2.036.583-.449 1.375-.861 2.163-1.124.686-.229 1.127-.286 1.127-.146 0 .163-.377 1.192-.584 1.594-.903 1.754-2.448 2.898-4.773 3.535-.622.17-.882.189-.882.065zm-7.007 6.737c-1.316-2.414-1.706-4.778-1.135-6.871.251-.921 1.129-2.642 1.347-2.642.116 0 .705 1.128.958 1.835.654 1.825.709 3.693.171 5.831-.279 1.111-.778 2.463-.908 2.463-.054 0-.248-.277-.433-.615zm3.264 2.789c0-.162.474-1.357.789-1.99.625-1.256 1.531-2.385 2.507-3.125.529-.401 1.958-1.144 2.337-1.216.232-.044.239-.038.239.21 0 .14-.066.516-.146.835-.589 2.338-2.051 3.941-4.584 5.023-.85.363-1.141.43-1.141.263zm-4.924 6.214c-2.629-2.732-3.442-5.253-2.706-8.39.112-.478.186-.659.268-.659.062 0 .33.223.594.495 1.868 1.927 2.755 4.296 2.721 7.264-.014 1.239-.081 1.814-.214 1.84-.063.012-.356-.231-.663-.55zm4.232 1.392c.106-.591.564-1.97.876-2.638.82-1.755 2.091-3.099 3.696-3.909.329-.166.491-.213.546-.158s.052.303-.011.837c-.21 1.809-.864 3.131-2.148 4.342-.794.749-2.463 1.801-2.856 1.801-.136 0-.147-.03-.103-.275zm-4.045 8.111c-2.232-1.587-3.651-3.642-4.037-5.845-.173-.985-.118-2.929.084-2.996.133-.044 1.27.841 1.883 1.467 1.636 1.671 2.57 3.939 2.842 6.906.071.772.06.927-.067.927-.033 0-.35-.206-.705-.459zm4.83.367c.131-2.597 1.086-4.686 2.815-6.156.602-.512.734-.537.81-.156a10.29 10.29 0 0 1-.044 2.404c-.326 1.545-1.338 3.044-2.912 4.313-.287.232-.564.421-.616.421-.074 0-.085-.18-.053-.826zm-3.195 9.578c-3.419-1.808-5.017-4.08-5.294-7.526-.053-.656.022-.683.794-.287 2.706 1.388 4.358 3.529 5.367 6.956.292.993.334 1.304.18 1.332-.061.011-.531-.203-1.047-.475zm5.489 1.363a11.18 11.18 0 0 1-.31-3.179c.043-1.429.236-2.267.779-3.375.394-.805 1.015-1.723 1.167-1.725.121-.002.406.638.647 1.456a7.65 7.65 0 0 1 .142 3.13c-.148.792-.58 1.904-1.037 2.672-.47.79-1.04 1.548-1.163 1.548-.07 0-.145-.176-.225-.527zm-.474 10.36c-1.823-.694-2.994-1.418-4.078-2.522a8.28 8.28 0 0 1-2.284-4.683l-.05-.373.27.051c.41.077 1.57.563 2.185.914 2.077 1.189 3.656 3.159 4.791 5.982.429 1.066.389 1.096-.834.63zm5.386.613a16.77 16.77 0 0 1-.97-2.722c-.185-.729-.199-.896-.197-2.255.002-1.347.018-1.525.193-2.165.284-1.041.722-2.018.904-2.018.339 0 1.332 1.807 1.666 3.031.191.701.228 2.538.067 3.355-.234 1.188-1.067 3.34-1.293 3.34-.071 0-.211-.214-.371-.564zm-11.556 8.601a.11.11 0 1 1 .22 0 .11.11 0 1 1-.22 0zm17.91.899c-.825-1.281-1.564-3.032-1.811-4.294a11.07 11.07 0 0 1-.002-3.262c.211-1.039.408-1.6.561-1.6.297 0 1.351 1.402 1.841 2.448.453.967.595 1.601.638 2.851.042 1.222-.034 1.905-.346 3.105-.369 1.42-.422 1.466-.881.752zm-1.396 1.72c0-.033-.258-.454-.573-.936-1.69-2.581-3.581-4.155-5.957-4.96-.639-.217-2.186-.545-2.252-.478-.021.021.074.315.211.655 1.229 3.06 3.72 4.921 7.545 5.636.803.15 1.028.168 1.028.084z"
       fill="#f5c742"
       id="path240" />
    <path
       d="m 38.411,121.371 c 0.364,1.879 2.595,3.067 0.982,5.678 0.258,-2.088 -0.596,-3.805 -0.982,-5.678 z m -5.29,-9.349 c 0.08,1.912 2.11,3.419 0.127,5.761 0.566,-2.026 -0.023,-3.851 -0.127,-5.761 z m -3.386,-10.283 c -0.358,1.88 1.274,3.81 -1.191,5.638 1.013,-1.844 0.856,-3.755 1.191,-5.638 z m -0.621,-9.814 c -0.825,1.727 0.262,4.009 -2.588,5.149 1.449,-1.525 1.784,-3.413 2.588,-5.149 z m 0.61,-8.36 c -1.15,1.53 -0.534,3.981 -3.553,4.537 1.722,-1.209 2.423,-2.994 3.553,-4.537 z m 1.387,-6.829 c -1.424,1.279 -1.293,3.803 -4.362,3.765 1.923,-0.854 2.955,-2.47 4.362,-3.765 z"
       id="path242"
       style="fill:#ffeba3;" />
    <path
       id="use244"
       d="m 34.839,67.744 c -1.433,1.269 -1.321,3.794 -4.39,3.733 1.929,-0.839 2.973,-2.448 4.39,-3.733 z"
       style="fill:#ffeba3;" />
    <path
       id="use246"
       d="m 40.175,59.205 c -1.433,1.269 -1.321,3.794 -4.39,3.733 1.929,-0.839 2.973,-2.448 4.39,-3.733 z"
       style="fill:#ffeba3;" />
    <path
       d="m 44.709,46.518 c -1.825,2.372 -0.748,6.101 -5.644,7.036 2.765,-1.897 3.852,-4.646 5.644,-7.036 z M 30,125.64 c 1.487,0.367 4.176,0.956 5.379,3.714 -0.934,-0.067 -3.284,-2.313 -5.379,-3.714 z m -7.707,-12.715 c 1.395,0.632 3.932,1.701 4.613,4.632 -0.906,-0.236 -2.807,-2.872 -4.613,-4.632 z m -4.291,-12.289 c 1.327,0.765 3.748,2.076 4.139,5.059 -0.879,-0.323 -2.514,-3.132 -4.139,-5.059 z M 17.024,89.603 c 1.195,0.959 3.387,2.624 3.318,5.632 -0.819,-0.454 -2.006,-3.48 -3.318,-5.632 z m 1.418,-9.724 c 1.011,1.151 2.882,3.17 2.293,6.121 -0.728,-0.588 -1.374,-3.774 -2.293,-6.121 z m 3.937,-9.323 c 0.665,1.38 1.924,3.828 0.565,6.512 -0.543,-0.762 -0.309,-4.005 -0.565,-6.512 z m 5.663,-8.423 c 0.322,1.498 0.973,4.173 -0.979,6.463 -0.349,-0.869 0.639,-3.965 0.979,-6.463 z m 6.476,-7.945 c 0.149,1.525 0.489,4.256 -1.711,6.309 -0.248,-0.903 1.088,-3.866 1.711,-6.309 z"
       id="path248"
       style="fill:#ffeba3;" />
  </g>
  <g
     id="g1400">
    <path
       d="m 49.673,143.404 -0.374,1.824 c 3.569,-2.88 10.654,-0.644 16.066,-0.842 -5.233,-0.334 -10.93,-1.787 -15.692,-0.982 z"
       fill="url(#N)"
       id="path252"
       style="fill:url(#N);stroke:#8b0000;stroke-width:0.265;stroke-linejoin:round;fill-opacity:1;" />
    <path
       d="m 49.673,143.404 c 0.344,3.168 7.092,7.053 11.062,4.49 l 1.637,1.824 c -10.361,1.911 -12.79,-1.338 -13.978,-5.136 0.331,-0.774 0.805,-1.146 1.28,-1.179 z"
       fill="url(#M)"
       id="path254"
       style="fill:url(#M);stroke:#8b0000;stroke-width:0.265;stroke-linejoin:round;fill-opacity:1;" />
    <path
       d="m 44.879,147.192 0.795,2.011 -1.59,1.31 c 5.663,0.378 10.695,1.692 18.288,-0.795 l -1.637,-1.824 c -5.745,1.298 -10.85,0.463 -15.856,-0.702 z"
       fill="url(#L)"
       id="path256"
       style="fill:url(#linearGradient1383);stroke:#8b0000;stroke-width:0.265;stroke-linejoin:round;fill-opacity:1;" />
    <path
       d="m 81.057,143.404 0.374,1.824 c -3.569,-2.88 -10.654,-0.644 -16.066,-0.842 5.233,-0.334 10.93,-1.787 15.692,-0.982 z"
       fill="url(#Q)"
       id="path258"
       style="fill:url(#Q);stroke:#8b0000;stroke-width:0.265;stroke-linejoin:round;fill-opacity:1;" />
    <path
       d="m 81.057,143.404 c -0.344,3.168 -7.092,7.053 -11.062,4.49 l -1.637,1.824 c 10.361,1.911 12.79,-1.338 13.978,-5.136 -0.331,-0.774 -0.805,-1.146 -1.28,-1.179 z"
       fill="url(#P)"
       id="path260"
       style="fill:url(#P);stroke:#8b0000;stroke-width:0.265;stroke-linejoin:round;fill-opacity:1;" />
    <path
       d="m 85.851,147.192 -0.795,2.011 1.59,1.31 c -5.663,0.378 -10.695,1.692 -18.288,-0.795 l 1.637,-1.824 c 5.745,1.298 10.85,0.463 15.856,-0.702 z"
       fill="url(#O)"
       id="path262"
       style="fill:url(#linearGradient1385);stroke:#8b0000;stroke-width:0.265;stroke-linejoin:round;fill-opacity:1;" />
    <g
       transform="matrix(0.29614593,0,0,0.29614593,44.864003,100.58902)"
       stroke-width="0.085"
       class="b e"
       id="g276">
      <path
         d="m 69.225,123.476 c -4.297,5.099 -5.626,8.549 -5.626,12.068 0,8.2 0.003,6.17 0.83,11.694 0.78,2.913 2.413,4.212 4.796,4.212 -0.736,-2.266 -0.006,-4.22 2.523,-5.863 1.062,-0.53 1.996,-1.057 2.887,-1.583 0.834,-3.743 0.364,-0.669 0.364,-7.126 0,-3.52 -0.588,-8.154 -5.774,-13.401 z"
         fill="url(#S)"
         id="path266"
         style="fill:url(#linearGradient1373);fill-opacity:1;" />
      <path
         d="m 95.803,142.783 c -7.276,-2.884 -12.114,-2.044 -15.458,-0.944 -7.789,2.563 -3.624,1.304 -8.613,3.816 -2.523,1.652 -3.246,3.609 -2.501,5.872 1.922,-1.408 4.007,-1.325 6.358,0.564 0.835,0.843 1.628,1.565 2.406,2.247 3.816,-0.378 2.382,-0.549 8.515,-2.567 3.343,-1.1 4.925,-3.324 9.292,-8.988 z"
         fill="url(#T)"
         id="path268"
         style="fill:url(#T);fill-opacity:1;" />
      <path
         d="M 85.719,174.042 C 85.375,158.34 82.146,158.57 75.581,152.023 c -2.348,-1.892 -4.433,-1.979 -6.357,-0.573 1.931,1.396 2.493,3.405 1.419,6.223 -0.545,1.054 -0.988,2.031 -1.398,2.981 3.977,8.885 7.878,10.253 16.474,13.389 z"
         fill="url(#U)"
         id="path270"
         style="fill:url(#linearGradient1375);fill-opacity:1;" />
      <path
         d="m 52.88,174.152 c 11.954,-3.789 13.594,-8.207 17.776,-16.482 1.068,-2.82 0.502,-4.828 -1.432,-6.22 -0.727,2.269 -2.461,3.428 -5.473,3.284 -1.171,-0.19 -2.237,-0.308 -3.268,-0.402 -7.208,6.543 -9.155,8.828 -7.603,19.82 z"
         fill="url(#V)"
         id="path272"
         style="fill:url(#linearGradient1377);fill-opacity:1;" />
      <path
         d="m 42.653,142.706 c 5.77,10.04 11.922,10.489 21.072,11.983 3.011,0.169 4.755,-0.976 5.5,-3.239 -2.383,-0.009 -4.011,-1.314 -4.78,-4.229 -0.171,-1.174 -0.38,-2.226 -0.602,-3.237 -9.892,-4.013 -12.709,-5.273 -21.19,-1.277 z"
         fill="url(#W)"
         id="path274"
         style="fill:url(#linearGradient1371);fill-opacity:1;" />
    </g>
    <path
       d="m 65.365018,142.00432 c 0,3.47682 0,3.4348 -3.611466,2.62409 3.611466,0.81071 3.611466,0.85273 1.379843,4.24552 2.232578,-3.39375 2.232578,-3.39375 4.4642,0 -2.232577,-3.43194 -2.232577,-3.39375 1.379844,-4.24552 -3.611466,0.81358 -3.611466,0.81071 -3.611466,-2.62409 z"
       fill="#ffd700"
       id="path278"
       style="stroke-width:0.954909;" />
  </g>
</svg>
