<?xml version="1.0" encoding="UTF-8" standalone="no"?>
<svg
   xmlns:dc="http://purl.org/dc/elements/1.1/"
   xmlns:cc="http://creativecommons.org/ns#"
   xmlns:rdf="http://www.w3.org/1999/02/22-rdf-syntax-ns#"
   xmlns:svg="http://www.w3.org/2000/svg"
   xmlns="http://www.w3.org/2000/svg"
   xmlns:xlink="http://www.w3.org/1999/xlink"
   xmlns:sodipodi="http://sodipodi.sourceforge.net/DTD/sodipodi-0.dtd"
   xmlns:inkscape="http://www.inkscape.org/namespaces/inkscape"
   width="322.991"
   height="408.9"
   viewBox="0 0 85.458 108.188"
   version="1.1"
   id="svg500"
   sodipodi:docname="Seal_of_Sukoharjo_Regency.svg"
   inkscape:version="1.0.1 (3bc2e813f5, 2020-09-07)">
  <metadata
     id="metadata504">
    <rdf:RDF>
      <cc:Work
         rdf:about="">
        <dc:format>image/svg+xml</dc:format>
        <dc:type
           rdf:resource="http://purl.org/dc/dcmitype/StillImage" />
      </cc:Work>
    </rdf:RDF>
  </metadata>
  <sodipodi:namedview
     pagecolor="#ffffff"
     bordercolor="#666666"
     borderopacity="1"
     objecttolerance="10"
     gridtolerance="10"
     guidetolerance="10"
     inkscape:pageopacity="0"
     inkscape:pageshadow="2"
     inkscape:window-width="1366"
     inkscape:window-height="705"
     id="namedview502"
     showgrid="false"
     inkscape:zoom="0.70439139"
     inkscape:cx="151.14512"
     inkscape:cy="208.87615"
     inkscape:window-x="-8"
     inkscape:window-y="-8"
     inkscape:window-maximized="1"
     inkscape:current-layer="svg500"
     inkscape:snap-global="false"
     inkscape:document-rotation="0" />
  <style
     id="style2"><![CDATA[.o{fill:#ffeba3}.p{fill:#f5c742}.q{stroke-width:.265}.r{stroke:#a07843}.s{fill:#fff}.t{stroke-width:.565}.u{opacity:.999}.v{stroke:#005b31}.w{fill:#018f50}.x{stroke:#a9a9a9}.y{fill:#d3d3d3}.z{fill-rule:evenodd}.AA{stroke-linejoin:round}.AB{fill:none}.AC{fill:#a07843}.AD{fill-opacity:0}.AE{stroke-width:1.071}.AF{fill:#00a75d}.AG{stroke-width:.965}.AH{stroke-linecap:round}]]></style>
  <defs
     id="defs110">
    <linearGradient
       id="A"
       gradientUnits="userSpaceOnUse"
       spreadMethod="pad">
      <stop
         offset="0"
         id="stop4" />
      <stop
         offset="1"
         stop-color="red"
         id="stop6" />
    </linearGradient>
    <linearGradient
       id="B"
       y2="111.131"
       x2="220.017"
       y1="111.131"
       x1="218.027"
       xlink:href="#Y">
      <stop
         stop-color="#ad8900"
         offset="0"
         id="stop9" />
      <stop
         stop-color="#ffd631"
         offset=".382"
         id="stop11" />
      <stop
         stop-color="#fff9c7"
         offset=".505"
         id="stop13" />
      <stop
         stop-color="#ffd631"
         offset=".613"
         id="stop15" />
      <stop
         stop-color="#ad8900"
         offset="1"
         id="stop17" />
    </linearGradient>
    <linearGradient
       id="C"
       y2="107.204"
       x2="220.017"
       y1="107.204"
       x1="218.027"
       xlink:href="#Y">
      <stop
         stop-color="#ad8900"
         offset="0"
         id="stop20" />
      <stop
         stop-color="#ffd631"
         offset=".382"
         id="stop22" />
      <stop
         stop-color="#fff9c7"
         offset=".505"
         id="stop24" />
      <stop
         stop-color="#ffd631"
         offset=".613"
         id="stop26" />
      <stop
         stop-color="#ad8900"
         offset="1"
         id="stop28" />
    </linearGradient>
    <linearGradient
       id="D"
       y2="102.963"
       x2="219.778"
       y1="102.963"
       x1="218.266"
       xlink:href="#Y">
      <stop
         stop-color="#ad8900"
         offset="0"
         id="stop31" />
      <stop
         stop-color="#ffd631"
         offset=".382"
         id="stop33" />
      <stop
         stop-color="#fff9c7"
         offset=".505"
         id="stop35" />
      <stop
         stop-color="#ffd631"
         offset=".613"
         id="stop37" />
      <stop
         stop-color="#ad8900"
         offset="1"
         id="stop39" />
    </linearGradient>
    <linearGradient
       id="E"
       y2="99.008"
       x2="219.778"
       y1="99.008"
       x1="218.266"
       xlink:href="#Y">
      <stop
         stop-color="#ad8900"
         offset="0"
         id="stop42" />
      <stop
         stop-color="#ffd631"
         offset=".382"
         id="stop44" />
      <stop
         stop-color="#fff9c7"
         offset=".505"
         id="stop46" />
      <stop
         stop-color="#ffd631"
         offset=".613"
         id="stop48" />
      <stop
         stop-color="#ad8900"
         offset="1"
         id="stop50" />
    </linearGradient>
    <linearGradient
       id="F"
       y2="94.986"
       x2="219.74"
       y1="94.986"
       x1="218.303"
       xlink:href="#Y">
      <stop
         stop-color="#ad8900"
         offset="0"
         id="stop53" />
      <stop
         stop-color="#ffd631"
         offset=".382"
         id="stop55" />
      <stop
         stop-color="#fff9c7"
         offset=".505"
         id="stop57" />
      <stop
         stop-color="#ffd631"
         offset=".613"
         id="stop59" />
      <stop
         stop-color="#ad8900"
         offset="1"
         id="stop61" />
    </linearGradient>
    <linearGradient
       id="G"
       y2="90.754"
       x2="219.712"
       y1="90.754"
       x1="218.333"
       xlink:href="#Y">
      <stop
         stop-color="#ad8900"
         offset="0"
         id="stop64" />
      <stop
         stop-color="#ffd631"
         offset=".382"
         id="stop66" />
      <stop
         stop-color="#fff9c7"
         offset=".505"
         id="stop68" />
      <stop
         stop-color="#ffd631"
         offset=".613"
         id="stop70" />
      <stop
         stop-color="#ad8900"
         offset="1"
         id="stop72" />
    </linearGradient>
    <linearGradient
       id="H"
       gradientUnits="userSpaceOnUse"
       spreadMethod="pad">
      <stop
         stop-color="#c8d3d9"
         offset=".5"
         id="stop75" />
      <stop
         stop-color="#dee5e9"
         offset=".599"
         id="stop77" />
      <stop
         stop-color="#f1f4f5"
         offset=".715"
         id="stop79" />
      <stop
         stop-color="#fcfcfd"
         offset=".842"
         id="stop81" />
      <stop
         stop-color="#fff"
         offset="1"
         id="stop83" />
    </linearGradient>
    <linearGradient
       xlink:href="#H"
       id="I"
       x1="166.254"
       y1="126.378"
       x2="195.829"
       y2="149.048"
       gradientTransform="matrix(0.997361,0,0,0.86846966,-159.70371,-48.20894)" />
    <linearGradient
       xlink:href="#A"
       id="J"
       x1="152.624"
       y1="162.937"
       x2="162.296"
       y2="171.537"
       gradientTransform="matrix(1.1483464,0,0,0.75428266,-159.705,-48.20928)" />
    <linearGradient
       xlink:href="#A"
       id="K"
       x1="198.159"
       y1="116.778"
       x2="203.251"
       y2="123.157"
       gradientTransform="matrix(0.85919795,0,0,1.0081237,-159.705,-48.20928)" />
    <linearGradient
       xlink:href="#H"
       id="L"
       x1="249.599"
       y1="93.909"
       x2="252.806"
       y2="100.571"
       gradientTransform="matrix(0.69077816,0,0,1.253916,-159.705,-48.20928)" />
    <path
       id="M"
       d="M82.75 79.68c4.667 1.443 6.917 6.146 16.738.635-5.845-5.386-10.915-.964-16.738-.635z" />
    <path
       id="N"
       d="M181.297 122.568c2.526.369 2.743 5.248 8.686 4.209-1.823-2.261-2.253-5.636-8.686-4.209z" />
    <path
       id="O"
       d="M184.232 123.233c.891.188 1.887.639 3.402 2.386-.636-1.792-1.576-2.974-3.402-2.386z" />
    <path
       id="P"
       d="M184.232 123.233c.51 1.085 1.06 2.666 3.402 2.386-1.159-.583-2.408-1.322-3.402-2.386z" />
    <path
       id="Q"
       d="M240.999 87.789c-.821-.57-1.741-1.042-2.422-1.781-.384-.812.598-1.078 1.091-1.298.123-.649-.213-1.409.313-1.967.376-.542 1.083-.873 1.718-.586.685.582 1.264-.511 1.926-.128 1.037.595 1.526 1.783 1.838 2.88.243.76-.31 1.399-.942 1.731-.733.652-1.724.811-2.641 1.044-.295.031-.599.11-.883.105z" />
    <path
       id="R"
       d="M241.003 82.954c-.169.484-1 .952-.486 1.338.108.695-.887.647-.875 1.275.002.695 1.023.66 1.04-.026.266-.546.502-1.147.97-1.556.536-.2 1.141-.127 1.686-.044.519-.128.731-1.081.288-1.381-.649-.213-1.172.426-1.819.339-.244.049-.618-.138-.803.055z" />
    <path
       id="S"
       d="M239.662 86.787c.009.8.425 1.641 1.175 1.981.951.549 2.123.53 3.163.266.615-.438 1.604-.047 2.06-.657.241-1.096.799-2.189.541-3.336-.07-1.014-1.094-1.306-1.654-1.945-.323.302-.377 1.163-.642 1.655-.347.7-1.216-.011-1.763-.075-.752.213-.6 1.29-.978 1.837-.487.623-1.278.209-1.903.273z" />
    <path
       id="T"
       d="M220.017 112.587s-.434-.308-.434-.633v-1.539c0-.434.271-.742.271-.742h-1.665s.272.308.272.742v1.539c0 .325-.434.633-.434.633z" />
    <path
       id="U"
       d="M220.017 109.263s-.434-.435-.434-.896v-2.173c0-.613.271-1.049.271-1.049h-1.665a2.15 2.15 0 0 0 .272 1.049v2.173c0 .461-.434.896-.434.896z" />
    <path
       id="V"
       d="M219.778 104.83s-.33-.394-.33-.812v-1.972c0-.557.207-.951.207-.951h-1.266s.206.394.206.951v1.972l-.33.812z" />
    <path
       id="W"
       d="M219.778 100.742s-.33-.366-.33-.754v-1.83c0-.517.207-.883.207-.883h-1.266s.206.367.206.883v1.83c0 .388-.33.754-.33.754z" />
    <path
       id="X"
       d="M219.74 96.844s-.313-.392-.313-.808v-1.962c0-.554.196-.947.196-.947h-1.201s.196.393.196.947v1.962c0 .416-.313.808-.313.808z" />
    <linearGradient
       id="Y"
       gradientUnits="userSpaceOnUse" />
    <linearGradient
       xlink:href="#H"
       id="Z"
       gradientTransform="matrix(-0.69077816,0,0,1.253916,244.67014,-48.20928)"
       x1="249.599"
       y1="93.909"
       x2="252.806"
       y2="100.571" />
    <linearGradient
       xlink:href="#A"
       id="a"
       gradientTransform="matrix(-0.85919795,0,0,1.0081237,244.67014,-48.20928)"
       x1="198.159"
       y1="116.778"
       x2="203.251"
       y2="123.157" />
    <linearGradient
       xlink:href="#A"
       id="b"
       gradientTransform="matrix(-1.1483464,0,0,0.75428266,244.67014,-48.20928)"
       x1="152.624"
       y1="162.937"
       x2="162.296"
       y2="171.537" />
    <linearGradient
       xlink:href="#H"
       id="c"
       gradientTransform="matrix(-0.997361,0,0,0.86846966,244.67014,-48.20971)"
       x1="166.254"
       y1="126.378"
       x2="195.829"
       y2="149.048" />
    <path
       id="d"
       d="M117.828 184.379l.963 7.083h-1.723l-.084-1.273h-.604l-.1 1.273h-1.743l.855-7.083zm-.891 4.554q-.128-1.203-.256-2.971-.256 2.03-.32 2.971z" />
    <path
       id="e"
       d="M127.426 184.379v4.734q0 .805-.048 1.133-.048.324-.284.669-.236.341-.624.521-.384.175-.907.175-.58 0-1.023-.21-.444-.21-.664-.547-.22-.337-.26-.709-.04-.376-.04-1.575v-4.191h1.683v5.311q0 .464.044.595.048.127.188.127.16 0 .204-.14.048-.144.048-.674v-5.219z" />
    <path
       id="f"
       d="M165.54 188.526q0 1.068-.048 1.514-.044.442-.288.809-.24.368-.652.564-.412.197-.959.197-.52 0-.935-.184-.412-.188-.664-.56-.252-.372-.3-.809-.048-.438-.048-1.531v-1.212q0-1.068.044-1.509.048-.446.288-.814.244-.367.656-.564.412-.197.959-.197.52 0 .931.188.416.184.668.556.252.372.3.809.048.437.048 1.531zm-1.683-2.328q0-.494-.052-.63-.048-.14-.204-.14-.132 0-.204.114-.068.109-.068.656v3.308q0 .617.044.761.048.144.216.144.172 0 .22-.166.048-.166.048-.792z" />
  </defs>
  <g
     stroke="#991a14"
     stroke-width="0.459"
     id="g118"
     transform="translate(-105.371,-178.973)">
    <path
       d="m 105.6,179.203 v 1.68 59.812 l 0.004,0.053 c 0.969,15.704 10.125,25.772 19.578,32.42 4.727,3.324 9.547,5.838 13.52,7.864 3.973,2.026 7.166,3.7 8.242,4.721 l 1.156,1.093 1.154,-1.093 c 1.077,-1.02 4.271,-2.695 8.244,-4.721 3.973,-2.026 8.791,-4.54 13.518,-7.864 9.453,-6.648 18.611,-16.715 19.58,-32.42 l 0.003,-0.053 v -61.492 h -42.498 z"
       fill="#ff0000"
       id="path112"
       style="fill:#c70000;fill-opacity:1;stroke:#4d0000;stroke-opacity:1" />
    <path
       d="m 108.959,196.701 h 78.281 v 43.855 c -0.9,14.498 -9.162,23.54 -18.156,29.865 -4.499,3.164 -9.162,5.604 -13.111,7.617 -3.341,1.703 -5.939,3.029 -7.873,4.484 -1.934,-1.456 -4.532,-2.781 -7.873,-4.484 -3.949,-2.013 -8.613,-4.453 -13.111,-7.617 -8.991,-6.323 -17.251,-15.361 -18.156,-29.849 z"
       fill="#f1ed3b"
       id="path114"
       style="fill:#ffff00;stroke:#4d0000;stroke-opacity:1" />
    <path
       d="m 108.959,182.562 h 39.141 39.141 v 10.781 H 108.96 Z"
       id="path116"
       style="stroke:#4d0000;stroke-opacity:1" />
  </g>
  <path
     d="m 1.316,1.317 v 0.593 59.775 0.016 c 0.945,15.32 9.818,25.064 19.119,31.605 4.653,3.272 9.422,5.763 13.388,7.785 l 5.244,2.757 c 1.455,0.814 2.54,1.468 3.252,2.143 v -0.001 l 0.409,0.387 0.408,-0.387 v 0 c 0.712,-0.675 1.797,-1.329 3.253,-2.143 1.456,-0.814 3.256,-1.743 5.245,-2.757 C 55.6,99.068 60.366,96.578 65.02,93.305 74.321,86.764 83.196,77.02 84.141,61.707 V 61.695 1.316 H 42.73 Z M 3.588,2.503 H 42.729 81.87 c 0.6,0 1.087,0.487 1.087,1.087 v 10.781 c 0,0.6 -0.487,1.087 -1.087,1.087 H 3.589 c -0.6,0 -1.087,-0.487 -1.087,-1.087 V 3.59 c 0,-0.6 0.487,-1.087 1.087,-1.087 z m 0,14.139 h 78.281 c 0.6,0 1.087,0.487 1.087,1.087 v 43.855 c 0,0.022 -0.001,0.045 -0.003,0.067 -0.924,14.88 -9.479,24.261 -18.616,30.687 -4.573,3.216 -9.286,5.679 -13.243,7.696 -3.34,1.703 -5.899,3.02 -7.713,4.385 -0.387,0.291 -0.92,0.291 -1.307,0 -1.814,-1.365 -4.372,-2.681 -7.713,-4.385 -3.957,-2.018 -8.67,-4.48 -13.243,-7.696 C 11.985,85.915 3.432,76.538 2.502,61.668 2.5,61.645 2.5,61.623 2.499,61.6 V 17.729 c 0,-0.6 0.487,-1.087 1.087,-1.087 z"
     fill="#ff7979"
     id="path120"
     style="fill:#ff0000" />
  <g
     transform="matrix(0.9530499,0,0,0.96674447,-165.15222,-51.914891)"
     id="g286">
    <g
       class="r"
       id="g186">
      <path
         d="m 191.019,89.827 c -12.901,20.59 -2.459,35.003 1.203,40.09"
         stroke-width="0.765"
         class="AB"
         id="path182" />
      <use
         xlink:href="#N"
         class="p t"
         id="use184"
         x="0"
         y="0"
         width="100%"
         height="100%" />
    </g>
    <use
       xlink:href="#O"
       class="o"
       id="use188"
       x="0"
       y="0"
       width="100%"
       height="100%" />
    <g
       transform="matrix(-0.765496,0.64344,0.64344,0.765496,254.18982,-92.352168)"
       id="g194">
      <use
         xlink:href="#N"
         class="p r t"
         id="use190"
         x="0"
         y="0"
         width="100%"
         height="100%" />
      <use
         xlink:href="#P"
         class="o"
         id="use192"
         x="0"
         y="0"
         width="100%"
         height="100%" />
    </g>
    <g
       transform="matrix(0.962025,0.115805,-0.123596,0.901387,19.773455,-14.453835)"
       id="g200">
      <use
         xlink:href="#N"
         class="p r t"
         id="use196"
         x="0"
         y="0"
         width="100%"
         height="100%" />
      <use
         xlink:href="#O"
         class="o"
         id="use198"
         x="0"
         y="0"
         width="100%"
         height="100%" />
    </g>
    <g
       transform="matrix(-0.815953,0.49134,0.524394,0.764522,275.72478,-68.262359)"
       id="g206">
      <use
         xlink:href="#N"
         class="p r t"
         id="use202"
         x="0"
         y="0"
         width="100%"
         height="100%" />
      <use
         xlink:href="#P"
         class="o"
         id="use204"
         x="0"
         y="0"
         width="100%"
         height="100%" />
    </g>
    <g
       transform="matrix(0.947807,0.201409,-0.203743,0.886715,31.232939,-34.049276)"
       id="g212">
      <use
         xlink:href="#N"
         class="p r t"
         id="use208"
         x="0"
         y="0"
         width="100%"
         height="100%" />
      <use
         xlink:href="#O"
         class="o"
         id="use210"
         x="0"
         y="0"
         width="100%"
         height="100%" />
    </g>
    <g
       transform="matrix(-0.856639,0.41637,0.453892,0.808372,290.9719,-64.743135)"
       id="g218">
      <use
         xlink:href="#N"
         class="p r t"
         id="use214"
         x="0"
         y="0"
         width="100%"
         height="100%" />
      <use
         xlink:href="#P"
         class="o"
         id="use216"
         x="0"
         y="0"
         width="100%"
         height="100%" />
    </g>
    <g
       transform="matrix(0.846222,0.277807,-0.263326,0.823722,57.61737,-45.782502)"
       id="g224">
      <use
         xlink:href="#N"
         class="p r t"
         id="use220"
         x="0"
         y="0"
         width="100%"
         height="100%" />
      <use
         xlink:href="#O"
         class="o"
         id="use222"
         x="0"
         y="0"
         width="100%"
         height="100%" />
    </g>
    <g
       transform="matrix(-0.817215,0.317356,0.342918,0.809309,297.03712,-51.239364)"
       id="g230">
      <use
         xlink:href="#N"
         class="p r t"
         id="use226"
         x="0"
         y="0"
         width="100%"
         height="100%" />
      <use
         xlink:href="#P"
         class="o"
         id="use228"
         x="0"
         y="0"
         width="100%"
         height="100%" />
    </g>
    <g
       transform="matrix(0.757085,0.366518,-0.353886,0.730176,86.198498,-55.803984)"
       id="g236">
      <use
         xlink:href="#N"
         class="p r t"
         id="use232"
         x="0"
         y="0"
         width="100%"
         height="100%" />
      <use
         xlink:href="#O"
         class="o"
         id="use234"
         x="0"
         y="0"
         width="100%"
         height="100%" />
    </g>
    <g
       transform="matrix(-0.80725,0.189257,0.21624,0.79478,311.32394,-30.072229)"
       id="g242">
      <use
         xlink:href="#N"
         class="p r t"
         id="use238"
         x="0"
         y="0"
         width="100%"
         height="100%" />
      <use
         xlink:href="#P"
         class="o"
         id="use240"
         x="0"
         y="0"
         width="100%"
         height="100%" />
    </g>
    <g
       transform="matrix(0.701697,0.463825,-0.447732,0.676705,109.26614,-72.57797)"
       id="g248">
      <use
         xlink:href="#N"
         class="p r t"
         id="use244"
         x="0"
         y="0"
         width="100%"
         height="100%" />
      <use
         xlink:href="#O"
         class="o"
         id="use246"
         x="0"
         y="0"
         width="100%"
         height="100%" />
    </g>
    <g
       transform="matrix(-0.825235,0.080362,0.108763,0.816459,328.97942,-17.173442)"
       id="g254">
      <use
         xlink:href="#N"
         class="p r t"
         id="use250"
         x="0"
         y="0"
         width="100%"
         height="100%" />
      <use
         xlink:href="#P"
         class="o"
         id="use252"
         x="0"
         y="0"
         width="100%"
         height="100%" />
    </g>
    <g
       transform="matrix(0.66593,0.513858,-0.495981,0.64218,123.87897,-82.061837)"
       id="g260">
      <use
         xlink:href="#N"
         class="p r t"
         id="use256"
         x="0"
         y="0"
         width="100%"
         height="100%" />
      <use
         xlink:href="#O"
         class="o"
         id="use258"
         x="0"
         y="0"
         width="100%"
         height="100%" />
    </g>
    <g
       transform="matrix(-0.828901,0.019848,0.048814,0.822224,338.95653,-10.751025)"
       id="g266">
      <use
         xlink:href="#N"
         class="p r t"
         id="use262"
         x="0"
         y="0"
         width="100%"
         height="100%" />
      <use
         xlink:href="#P"
         class="o"
         id="use264"
         x="0"
         y="0"
         width="100%"
         height="100%" />
    </g>
    <g
       transform="matrix(0.601138,0.588341,-0.567805,0.579647,147.22369,-92.755323)"
       id="g272">
      <use
         xlink:href="#N"
         class="p r t"
         id="use268"
         x="0"
         y="0"
         width="100%"
         height="100%" />
      <use
         xlink:href="#O"
         class="o"
         id="use270"
         x="0"
         y="0"
         width="100%"
         height="100%" />
    </g>
    <g
       transform="matrix(-0.825518,-0.077405,-0.047856,0.82228,352.60671,3.405203)"
       id="g278">
      <use
         xlink:href="#N"
         class="p r t"
         id="use274"
         x="0"
         y="0"
         width="100%"
         height="100%" />
      <use
         xlink:href="#P"
         class="o"
         id="use276"
         x="0"
         y="0"
         width="100%"
         height="100%" />
    </g>
    <g
       transform="matrix(-0.11038,0.833864,-0.804351,-0.106832,313.89579,-54.977385)"
       id="g284">
      <use
         xlink:href="#N"
         class="p r t"
         id="use280"
         x="0"
         y="0"
         width="100%"
         height="100%" />
      <use
         xlink:href="#O"
         class="o"
         id="use282"
         x="0"
         y="0"
         width="100%"
         height="100%" />
    </g>
  </g>
  <g
     transform="matrix(0.59693029,0.99511031,-1.0325164,0.51422359,14.27206,-225.21698)"
     id="g352">
    <g
       transform="matrix(0.352942,-0.683002,0.708676,0.409708,72.422036,208.12403)"
       id="g294">
      <use
         xlink:href="#Q"
         class="q x y"
         id="use288"
         x="0"
         y="0"
         width="100%"
         height="100%" />
      <use
         xlink:href="#R"
         class="s"
         id="use290"
         x="0"
         y="0"
         width="100%"
         height="100%" />
      <use
         xlink:href="#S"
         class="q v w"
         id="use292"
         x="0"
         y="0"
         width="100%"
         height="100%" />
    </g>
    <g
       transform="matrix(0.414423,-0.80198,0.828066,0.478731,51.404723,230.07878)"
       id="g302">
      <use
         xlink:href="#Q"
         class="q x y"
         id="use296"
         x="0"
         y="0"
         width="100%"
         height="100%" />
      <use
         xlink:href="#R"
         class="s"
         id="use298"
         x="0"
         y="0"
         width="100%"
         height="100%" />
      <use
         xlink:href="#S"
         class="q v w"
         id="use300"
         x="0"
         y="0"
         width="100%"
         height="100%" />
    </g>
    <g
       transform="matrix(0.617873,-0.698481,0.744262,0.675907,13.435204,188.04383)"
       id="g310">
      <use
         xlink:href="#Q"
         class="q x y"
         id="use304"
         x="0"
         y="0"
         width="100%"
         height="100%" />
      <use
         xlink:href="#R"
         class="s"
         id="use306"
         x="0"
         y="0"
         width="100%"
         height="100%" />
      <use
         xlink:href="#S"
         class="q v w"
         id="use308"
         x="0"
         y="0"
         width="100%"
         height="100%" />
    </g>
    <g
       transform="matrix(0.760787,-0.54011,0.598059,0.807665,-4.231745,139.41153)"
       id="g318">
      <use
         xlink:href="#Q"
         class="q x y"
         id="use312"
         x="0"
         y="0"
         width="100%"
         height="100%" />
      <use
         xlink:href="#R"
         class="s"
         id="use314"
         x="0"
         y="0"
         width="100%"
         height="100%" />
      <use
         xlink:href="#S"
         class="q v w"
         id="use316"
         x="0"
         y="0"
         width="100%"
         height="100%" />
    </g>
    <g
       transform="matrix(0.865141,-0.367,0.434117,0.899457,-11.667008,91.554495)"
       id="g326">
      <use
         xlink:href="#Q"
         class="q x y"
         id="use320"
         x="0"
         y="0"
         width="100%"
         height="100%" />
      <use
         xlink:href="#R"
         class="s"
         id="use322"
         x="0"
         y="0"
         width="100%"
         height="100%" />
      <use
         xlink:href="#S"
         class="q v w"
         id="use324"
         x="0"
         y="0"
         width="100%"
         height="100%" />
    </g>
    <g
       transform="matrix(0.928742,-0.307005,0.303345,0.976452,-11.662262,72.917852)"
       id="g334">
      <use
         xlink:href="#Q"
         class="q x y"
         id="use328"
         x="0"
         y="0"
         width="100%"
         height="100%" />
      <use
         xlink:href="#R"
         class="s"
         id="use330"
         x="0"
         y="0"
         width="100%"
         height="100%" />
      <use
         xlink:href="#S"
         class="q v w"
         id="use332"
         x="0"
         y="0"
         width="100%"
         height="100%" />
    </g>
    <g
       transform="matrix(1.076774,-0.063848,-0.057069,1.154219,-13.267451,1.758417)"
       id="g342">
      <use
         xlink:href="#Q"
         class="q x y"
         id="use336"
         x="0"
         y="0"
         width="100%"
         height="100%" />
      <use
         xlink:href="#R"
         class="s"
         id="use338"
         x="0"
         y="0"
         width="100%"
         height="100%" />
      <use
         xlink:href="#S"
         class="q v w"
         id="use340"
         x="0"
         y="0"
         width="100%"
         height="100%" />
    </g>
    <g
       transform="matrix(1.076774,-0.063848,-0.057069,1.154219,-9.807404,5.892512)"
       id="g350">
      <use
         xlink:href="#Q"
         class="q x y"
         id="use344"
         x="0"
         y="0"
         width="100%"
         height="100%" />
      <use
         xlink:href="#R"
         class="s"
         id="use346"
         x="0"
         y="0"
         width="100%"
         height="100%" />
      <use
         xlink:href="#S"
         class="q v w"
         id="use348"
         x="0"
         y="0"
         width="100%"
         height="100%" />
    </g>
  </g>
  <g
     id="g1585">
    <path
       d="M 42.484,65.986 V 88.717 L 22.561,76.896 22.563,66.003 Z"
       fill="url(#I)"
       id="path354"
       style="fill:url(#I)" />
    <path
       d="m 22.562,80.13 19.92,11.821 V 88.716 L 22.562,76.895 Z"
       fill="url(#J)"
       id="path356"
       style="fill:url(#J)" />
    <path
       d="m 16.959,70.672 -2.265,1.891 7.867,11.416 v -4.116 z"
       fill="url(#K)"
       id="path358"
       style="fill:url(#K)" />
    <path
       d="m 16.959,70.672 5.602,9.191 0.005,-13.864 z"
       fill="url(#L)"
       id="path360"
       style="fill:url(#L)" />
    <path
       d="M 62.403,80.13 42.483,91.951 V 88.716 L 62.403,76.895 Z"
       fill="url(#b)"
       id="path362"
       style="fill:url(#b)" />
    <path
       d="m 68.006,70.672 2.265,1.891 -7.867,11.416 v -4.116 z"
       fill="url(#a)"
       id="path364"
       style="fill:url(#a)" />
    <path
       d="M 68.006,70.672 62.404,79.863 62.399,65.999 Z"
       fill="url(#Z)"
       id="path366"
       style="fill:url(#Z)" />
    <path
       d="M 42.483,65.985 V 88.716 L 62.406,76.895 62.404,66.002 Z"
       fill="url(#c)"
       id="path368"
       style="fill:url(#c)" />
  </g>
  <g
     id="g1595">
    <path
       d="m 33.328,54.611 c -0.9,-0.038 -1.602,0.895 -2.311,1.428 -0.773,0.407 -1.802,1.17 -2.615,0.401 -0.895,-0.713 -1.976,-1.182 -3.094,-1.37 -1.051,-0.285 -1.966,0.408 -2.758,1.004 -0.745,0.513 -1.57,0.555 -2.268,1.199 a 14.95,14.95 0 0 0 -1.073,0.764 23.963,24.341 0 0 0 3.38,7.918 l 0.454,0.043 19.49,-0.012 19.387,0.012 0.454,-0.043 a 23.962,24.339 0 0 0 3.38,-7.918 14.692,14.923 0 0 0 -1.073,-0.764 c -0.698,-0.643 -1.522,-0.686 -2.268,-1.199 -0.791,-0.596 -1.707,-1.29 -2.758,-1.004 -1.117,0.188 -2.199,0.658 -3.094,1.37 -0.814,0.768 -1.842,0.006 -2.615,-0.401 -0.708,-0.534 -1.41,-1.466 -2.311,-1.428 -0.208,0.008 -0.427,0.069 -0.658,0.198 -0.949,0.528 -1.962,0.88 -2.949,1.322 l -2.845,0.936 c -0.959,0.355 -1.819,0.92 -2.701,1.448 C 41.6,57.987 40.74,57.42 39.781,57.067 l -2.845,-0.936 -2.949,-1.322 a 1.487,1.51 0 0 0 -0.658,-0.198 z"
       class="p"
       id="path370" />
    <g
       class="o"
       id="g376"
       transform="translate(-289.122,-179.504)">
      <path
         d="m 314.042,235.119 c -1.456,0.465 -2.552,1.665 -4.023,2.12 -1.687,0.973 1.445,0.221 1.936,-0.04 1.683,-1.104 2.896,1.516 4.445,0.063 1.703,-0.223 3.437,0.882 5.243,0.869 1.216,0.307 -1.092,-0.522 -1.58,-0.573 -1.936,-0.558 -3.971,-1.001 -5.378,-2.531 -0.21,-0.072 -0.472,-0.065 -0.643,0.094 z"
         id="path372" />
      <path
         d="m 321.983,235.075 c -0.525,0.291 -1.885,1.015 -0.443,0.698 1.622,0.736 3.373,0.387 4.945,1.327 -1.221,-0.958 -3.125,-1.092 -4.009,-2.337 -0.228,-0.145 -0.53,0.029 -0.492,0.312 z m 18.98,-0.266 c -1.328,0.603 -2.819,0.921 -4.095,1.557 1.295,0.648 2.67,-0.581 4.04,-0.254 1.208,0.083 0.318,-0.871 0.054,-1.304 z m 7.417,0.798 c -1.896,0.811 -3.755,1.733 -5.813,1.921 -1.088,0.639 1.343,-0.066 1.75,-0.052 1.522,-0.182 3.288,-1.333 4.476,-0.393 0.826,-1.265 2.073,0.686 3.069,0.25 l 1.104,0.541 c -1.387,-0.771 -2.866,-1.436 -3.727,-2.714 -0.346,-0.186 -0.855,-0.006 -0.857,0.446 z"
         id="path374" />
    </g>
  </g>
  <g
     id="g1589">
    <path
       d="m 42.483,31.723 c -2.16,-0.005 -3.774,1.614 -5.643,2.428 -2.139,0.721 -4.425,-0.401 -6.554,0.278 -1.914,1.036 -2.208,3.622 -4.104,4.712 -1.407,0.927 -3.708,1.2 -4.058,3.186 -0.397,1.634 -0.302,3.585 -1.689,4.772 -1.239,1.611 -1.137,3.774 -1.71,5.652 -0.393,0.831 -0.184,2.564 0.769,1.079 1.491,-1.167 1.757,-3.667 3.547,-4.333 1.953,0.083 1.905,2.697 3.364,3.509 1.864,0.684 0.212,-2.694 2.153,-2.793 1.997,-0.669 2.587,1.806 3.878,2.727 0.61,0.787 2.087,0.845 1.055,-0.352 -0.209,-1.832 2.274,-2.923 3.74,-2.331 1.733,1.142 2.16,3.697 1.241,5.512 -0.682,1.74 -0.611,3.94 -2.592,4.832 -1.625,1.037 -3.397,2.507 -5.454,1.953 -1.764,0.042 -3.026,1.727 -4.856,1.634 -0.901,0.193 -2.602,0.865 -2.561,1.663 1.322,0.324 2.689,0.144 4.047,0.113 1.489,-1.091 1.85,-1.127 3.488,-1.774 0.776,-0.22 1.7,0.089 1.758,0.72 0,0.364 -0.061,0.718 -0.064,1.083 l 7.596,-0.005 c -1.065,-1.797 -3.4,-1.532 -5.173,-1.55 -1.791,-0.219 0.137,-1.791 1.137,-1.221 h 6.685 6.683 c 1.001,-0.569 2.927,1.002 1.137,1.221 -1.773,0.018 -4.108,-0.247 -5.173,1.55 l 7.596,0.005 c -0.003,-0.365 -0.064,-0.719 -0.064,-1.083 0.058,-0.632 0.983,-0.942 1.758,-0.72 1.637,0.647 1.999,0.683 3.488,1.774 1.357,0.031 2.725,0.21 4.047,-0.113 0.041,-0.798 -1.659,-1.47 -2.561,-1.663 -1.829,0.093 -3.093,-1.592 -4.856,-1.634 -2.056,0.555 -3.828,-0.915 -5.454,-1.953 -1.98,-0.89 -1.911,-3.091 -2.592,-4.832 -0.92,-1.815 -0.492,-4.369 1.241,-5.512 1.466,-0.592 3.948,0.498 3.74,2.331 -1.032,1.197 0.443,1.139 1.055,0.352 1.291,-0.921 1.88,-3.395 3.878,-2.727 1.94,0.099 0.289,3.477 2.153,2.793 1.459,-0.812 1.411,-3.426 3.364,-3.509 1.79,0.667 2.056,3.167 3.547,4.333 0.953,1.486 1.163,-0.248 0.769,-1.079 -0.573,-1.879 -0.471,-4.043 -1.71,-5.653 C 63.142,45.911 63.237,43.96 62.84,42.326 62.49,40.339 60.191,40.067 58.782,39.14 56.886,38.048 56.593,35.463 54.678,34.428 52.549,33.751 50.263,34.873 48.124,34.15 46.256,33.338 44.642,31.718 42.481,31.723 Z"
       class="q v w"
       id="path378" />
    <path
       d="m 33.298,38.332 c -2.012,0.87 -2.768,3.173 -4.48,4.326 -1.593,0.36 -4.019,4.469 -0.948,2.957 2.078,-0.583 5.022,-2.013 6.648,0.173 0.927,2.17 3.457,2.065 4.838,3.678 1.579,1.648 1.266,4.036 0.067,5.801 -0.897,1.75 -0.714,3.918 -1.874,5.532 -1.089,0.232 -3.44,1.274 -0.965,0.854 2.57,-0.289 5.18,-1.173 7.737,-0.329 l 4.64,0.784 c -2.12,-1.317 -2.744,-4.152 -3.425,-6.421 -0.038,-2.34 -0.741,-4.948 0.182,-7.142 1.686,-1.803 4.622,-2.458 6.923,-1.775 1.579,-0.13 3.09,-1.91 4.725,-0.298 2.895,1.346 -0.329,-2.257 -1.021,-3.076 -0.94,-1.941 -3.036,-2.657 -4.443,-4.139 -0.885,-2.093 -2.852,-3.362 -5.021,-3.589 -1.912,-0.711 -3.906,1.558 -5.681,-0.083 -2.279,-1.438 -3.744,1.081 -5.72,1.35 -1.323,-0.806 -3.265,1.906 -2.041,1.699 l -0.142,-0.302 z m -6.109,2.038 c -2.267,0.534 -4.587,2.578 -3.944,5.146 0.768,-1.37 2.893,-2.621 4.179,-3.998 0.23,-0.33 0.613,-1.571 -0.235,-1.148 z m 3.665,-4.432 c -1.949,1.38 -0.921,2.806 0.887,1.358 1.372,0.012 3.432,-1.887 0.909,-1.892 -0.624,-0.097 -1.411,-0.069 -1.794,0.534 z m -6.021,11.169 c -1.201,1.73 2.693,1.098 1.903,3.111 1.497,-2.12 4.182,-2.663 6.115,-1.026 2.99,1.299 0.033,-3.379 -1.407,-3.59 -2.005,0.246 -3.91,1.479 -6.117,1.323 -0.192,-0.01 -0.338,0.097 -0.493,0.181 z m 27.923,-9.75 c 2.711,0.25 3.834,2.919 5.502,4.477 1.283,0.535 2.8,2.786 3.413,2.899 -0.954,-2.089 -2.375,-3.925 -4.242,-5.194 -1.768,-1.668 -3.291,-5.075 -6.169,-3.56 a 5.282,5.365 0 0 1 1.496,1.377 z m 1.92,10.459 c -1.65,0.324 -4.978,-0.721 -5.592,0.633 1.346,0.29 2.728,1.203 3.396,2.041 1.838,-0.882 3.667,-1.86 5.727,-1.142 1.748,-0.621 3.512,-1.497 5.391,-0.731 -2.108,-0.64 -2.4,-3.214 -4.147,-4.276 1.567,1.187 10e-4,4.081 -1.816,3.202 -0.995,-0.048 -1.987,0.725 -2.959,0.273 z"
       class="AF"
       id="path380" />
  </g>
  <g
     transform="matrix(0.923446,0,0,0.937984,4.06537,0.57341)"
     id="g396">
    <path
       d="M 63.179,69.737 H 35.73 20.025 a 25.95,25.95 0 0 0 43.154,0 z"
       stroke="#000000"
       class="q u AA AB"
       id="path382" />
    <g
       class="z"
       id="g388">
      <path
         d="m 28.012,73.926 c -1.207,0 -1.554,0.166 -2.037,0.363 a 5.03,5.03 0 0 1 -1.665,0.382 25.95,25.95 0 0 0 34.583,0 c -0.838,-0.066 -1.289,-0.23 -1.664,-0.382 -0.484,-0.197 -0.83,-0.363 -2.037,-0.363 -1.207,0 -1.554,0.166 -2.037,0.363 -0.483,0.197 -1.089,0.414 -2.494,0.414 -1.405,0 -2.008,-0.217 -2.492,-0.414 -0.484,-0.197 -0.83,-0.363 -2.037,-0.363 -1.207,0 -1.554,0.166 -2.038,0.363 -0.484,0.197 -1.086,0.414 -2.492,0.414 -1.406,0 -2.011,-0.217 -2.494,-0.414 -0.483,-0.197 -0.828,-0.363 -2.035,-0.363 -1.207,0 -1.554,0.166 -2.037,0.363 -0.483,0.197 -1.088,0.414 -2.494,0.414 -1.406,0 -2.009,-0.217 -2.492,-0.414 -0.483,-0.197 -0.83,-0.363 -2.037,-0.363 z"
         class="s u"
         id="path384" />
      <path
         d="m 20.026,69.739 a 25.95,25.95 0 0 0 3.571,4.271 c 1.244,-0.01 1.657,-0.176 2.116,-0.363 0.473,-0.193 1.02,-0.414 2.299,-0.414 1.279,0 1.825,0.222 2.299,0.414 0.474,0.192 0.89,0.365 2.231,0.365 1.341,0 1.759,-0.172 2.232,-0.365 0.473,-0.193 1.019,-0.414 2.299,-0.414 1.28,0 1.824,0.222 2.297,0.414 0.473,0.192 0.892,0.365 2.232,0.365 1.34,0 1.759,-0.172 2.232,-0.365 0.473,-0.193 1.018,-0.414 2.297,-0.414 1.279,0 1.825,0.222 2.299,0.414 0.474,0.192 0.89,0.365 2.23,0.365 1.34,0 1.759,-0.172 2.232,-0.365 0.473,-0.193 1.02,-0.414 2.299,-0.414 1.279,0 1.823,0.222 2.296,0.414 0.459,0.187 0.874,0.353 2.118,0.363 a 25.95,25.95 0 0 0 3.571,-4.271 H 37.929 Z"
         class="u w"
         id="path386" />
    </g>
    <path
       d="m 28.012,73.232 c -1.279,0 -1.826,0.222 -2.299,0.414 -0.459,0.187 -0.872,0.353 -2.116,0.363 a 25.948,25.948 0 0 0 0.713,0.662 5.03,5.03 0 0 0 1.665,-0.382 c 0.484,-0.197 0.83,-0.363 2.037,-0.363 1.207,0 1.554,0.166 2.037,0.363 0.483,0.197 1.086,0.414 2.492,0.414 1.406,0 2.01,-0.217 2.494,-0.414 0.484,-0.197 0.83,-0.363 2.037,-0.363 1.207,0 1.552,0.166 2.035,0.363 0.483,0.197 1.089,0.414 2.494,0.414 1.405,0 2.008,-0.217 2.492,-0.414 0.484,-0.197 0.831,-0.363 2.038,-0.363 1.207,0 1.554,0.166 2.037,0.363 0.483,0.197 1.086,0.414 2.492,0.414 1.406,0 2.011,-0.217 2.494,-0.414 0.483,-0.197 0.83,-0.363 2.037,-0.363 1.207,0 1.554,0.166 2.037,0.363 0.375,0.153 0.827,0.316 1.664,0.382 a 25.948,25.948 0 0 0 0.713,-0.662 c -1.245,-0.01 -1.66,-0.176 -2.118,-0.363 -0.473,-0.193 -1.017,-0.414 -2.296,-0.414 -1.279,0 -1.826,0.222 -2.299,0.414 -0.473,0.192 -0.892,0.365 -2.232,0.365 -1.34,0 -1.757,-0.172 -2.23,-0.365 -0.473,-0.193 -1.019,-0.414 -2.299,-0.414 -1.28,0 -1.824,0.222 -2.297,0.414 -0.473,0.192 -0.892,0.365 -2.232,0.365 -1.34,0 -1.759,-0.172 -2.232,-0.365 -0.473,-0.193 -1.018,-0.414 -2.297,-0.414 -1.279,0 -1.825,0.222 -2.299,0.414 -0.474,0.192 -0.892,0.365 -2.232,0.365 -1.34,0 -1.758,-0.172 -2.231,-0.365 -0.473,-0.193 -1.019,-0.414 -2.299,-0.414 z m 0,1.205 c -1.279,0 -1.826,0.222 -2.299,0.414 a 3.95,3.95 0 0 1 -0.885,0.271 25.948,25.948 0 0 0 0.665,0.545 l 0.482,-0.173 c 0.484,-0.197 0.83,-0.365 2.037,-0.365 1.207,0 1.554,0.169 2.037,0.365 0.483,0.196 1.086,0.414 2.492,0.414 1.406,0 2.01,-0.217 2.494,-0.414 0.484,-0.197 0.83,-0.365 2.037,-0.365 1.207,0 1.552,0.169 2.035,0.365 0.483,0.196 1.089,0.414 2.494,0.414 1.405,0 2.008,-0.217 2.492,-0.414 0.484,-0.197 0.831,-0.365 2.038,-0.365 1.207,0 1.554,0.169 2.037,0.365 0.483,0.196 1.086,0.414 2.492,0.414 1.406,0 2.011,-0.217 2.494,-0.414 0.483,-0.197 0.83,-0.365 2.037,-0.365 1.207,0 1.554,0.169 2.037,0.365 l 0.481,0.173 a 25.948,25.948 0 0 0 0.665,-0.545 c -0.382,-0.068 -0.629,-0.166 -0.887,-0.271 -0.473,-0.193 -1.017,-0.414 -2.296,-0.414 -1.279,0 -1.826,0.222 -2.299,0.414 -0.473,0.192 -0.892,0.365 -2.232,0.365 -1.34,0 -1.757,-0.172 -2.23,-0.365 -0.473,-0.193 -1.019,-0.414 -2.299,-0.414 -1.28,0 -1.824,0.222 -2.297,0.414 -0.473,0.192 -0.892,0.365 -2.232,0.365 -1.34,0 -1.759,-0.172 -2.232,-0.365 -0.473,-0.193 -1.018,-0.414 -2.297,-0.414 -1.279,0 -1.825,0.222 -2.299,0.414 -0.474,0.192 -0.892,0.365 -2.232,0.365 -1.34,0 -1.758,-0.172 -2.231,-0.365 -0.473,-0.193 -1.019,-0.414 -2.299,-0.414 z m 0,1.205 c -1.12,0 -1.671,0.17 -2.11,0.342 a 25.948,25.948 0 0 0 0.676,0.497 c 0.317,-0.088 0.726,-0.147 1.435,-0.147 1.207,0 1.554,0.169 2.037,0.365 0.483,0.196 1.086,0.414 2.492,0.414 1.406,0 2.01,-0.217 2.494,-0.414 0.484,-0.197 0.83,-0.365 2.037,-0.365 1.207,0 1.552,0.169 2.035,0.365 0.483,0.196 1.089,0.414 2.494,0.414 1.405,0 2.008,-0.217 2.492,-0.414 0.484,-0.197 0.831,-0.365 2.038,-0.365 1.207,0 1.554,0.169 2.037,0.365 0.483,0.196 1.086,0.414 2.492,0.414 1.406,0 2.011,-0.217 2.494,-0.414 0.483,-0.197 0.83,-0.365 2.037,-0.365 0.708,0 1.117,0.059 1.434,0.147 a 25.948,25.948 0 0 0 0.675,-0.496 c -0.439,-0.172 -0.988,-0.342 -2.109,-0.342 -1.279,0 -1.826,0.222 -2.299,0.414 -0.473,0.192 -0.892,0.365 -2.232,0.365 -1.34,0 -1.757,-0.172 -2.23,-0.365 -0.473,-0.193 -1.019,-0.414 -2.299,-0.414 -1.28,0 -1.824,0.222 -2.297,0.414 -0.473,0.192 -0.892,0.365 -2.232,0.365 -1.34,0 -1.759,-0.172 -2.232,-0.365 -0.473,-0.193 -1.018,-0.414 -2.297,-0.414 -1.279,0 -1.825,0.222 -2.299,0.414 -0.474,0.192 -0.892,0.365 -2.232,0.365 -1.34,0 -1.758,-0.172 -2.231,-0.365 -0.473,-0.193 -1.019,-0.414 -2.299,-0.414 z m 0,1.205 -0.845,0.039 a 25.948,25.948 0 0 0 1.031,0.656 c 1.051,0.017 1.395,0.176 1.852,0.362 0.484,0.197 1.086,0.414 2.492,0.414 1.406,0 2.01,-0.217 2.494,-0.414 0.484,-0.197 0.83,-0.365 2.037,-0.365 1.207,0 1.552,0.169 2.035,0.365 0.483,0.196 1.089,0.414 2.494,0.414 1.405,0 2.008,-0.217 2.492,-0.414 0.484,-0.197 0.831,-0.365 2.038,-0.365 1.207,0 1.554,0.169 2.037,0.365 0.483,0.196 1.086,0.414 2.492,0.414 1.406,0 2.011,-0.217 2.494,-0.414 0.456,-0.186 0.8,-0.344 1.851,-0.362 a 25.948,25.948 0 0 0 1.031,-0.656 8.23,8.23 0 0 0 -0.845,-0.039 c -1.279,0 -1.826,0.221 -2.299,0.414 -0.473,0.193 -0.892,0.363 -2.232,0.363 -1.34,0 -1.757,-0.171 -2.23,-0.363 -0.473,-0.192 -1.019,-0.414 -2.299,-0.414 -1.28,0 -1.824,0.221 -2.297,0.414 -0.473,0.193 -0.892,0.363 -2.232,0.363 -1.34,0 -1.759,-0.171 -2.232,-0.363 -0.473,-0.192 -1.018,-0.414 -2.297,-0.414 -1.279,0 -1.825,0.221 -2.299,0.414 -0.474,0.193 -0.892,0.363 -2.232,0.363 -1.34,0 -1.758,-0.171 -2.231,-0.363 -0.473,-0.192 -1.019,-0.414 -2.299,-0.414 z m 9.06,1.203 c -1.279,0 -1.825,0.223 -2.299,0.416 -0.474,0.193 -0.892,0.363 -2.232,0.363 -1.34,0 -1.758,-0.171 -2.231,-0.363 -0.28,-0.114 -0.59,-0.238 -1.058,-0.321 a 25.948,25.948 0 0 0 2.966,1.371 l 0.323,0.006 c 1.406,0 2.01,-0.219 2.494,-0.416 0.484,-0.197 0.83,-0.363 2.037,-0.363 1.207,0 1.552,0.166 2.035,0.363 0.483,0.197 1.089,0.416 2.494,0.416 1.405,0 2.008,-0.219 2.492,-0.416 0.484,-0.197 0.831,-0.363 2.038,-0.363 1.207,0 1.554,0.166 2.037,0.363 0.483,0.197 1.086,0.416 2.492,0.416 l 0.325,-0.007 a 25.948,25.948 0 0 0 2.966,-1.371 c -0.468,0.083 -0.778,0.207 -1.058,0.321 -0.473,0.193 -0.892,0.363 -2.232,0.363 -1.34,0 -1.757,-0.171 -2.23,-0.363 -0.473,-0.192 -1.019,-0.416 -2.299,-0.416 -1.28,0 -1.824,0.223 -2.297,0.416 -0.473,0.193 -0.892,0.363 -2.232,0.363 -1.34,0 -1.759,-0.171 -2.232,-0.363 -0.473,-0.192 -1.018,-0.416 -2.297,-0.416 z m 0,1.205 c -1.279,0 -1.825,0.223 -2.299,0.416 -0.327,0.133 -0.635,0.254 -1.232,0.317 a 25.948,25.948 0 0 0 1.313,0.391 l 0.181,-0.068 c 0.484,-0.197 0.83,-0.363 2.037,-0.363 1.207,0 1.552,0.166 2.035,0.363 0.483,0.197 1.089,0.416 2.494,0.416 1.405,0 2.008,-0.219 2.492,-0.416 0.484,-0.197 0.831,-0.363 2.038,-0.363 1.207,0 1.554,0.166 2.037,0.363 l 0.182,0.068 a 25.948,25.948 0 0 0 1.311,-0.391 c -0.597,-0.063 -0.904,-0.185 -1.231,-0.318 -0.473,-0.193 -1.019,-0.416 -2.299,-0.416 -1.28,0 -1.824,0.223 -2.297,0.416 -0.473,0.193 -0.892,0.363 -2.232,0.363 -1.34,0 -1.759,-0.171 -2.232,-0.363 -0.473,-0.192 -1.018,-0.416 -2.297,-0.416 z m 22.147,-4.881 a 25.948,25.948 0 0 1 -0.162,0.149 25.948,25.948 0 0 0 0.162,-0.149 z"
       fill="#00ced1"
       id="path390" />
    <path
       d="m 30.109,70.626 3.007,2.639 c 0.635,0.392 1.449,0.686 2.773,0.702 L 41.602,74 47.315,73.967 c 1.324,-0.016 2.138,-0.31 2.773,-0.702 l 3.007,-2.639 c -3.252,0.453 -7.753,0.601 -11.493,0.601 -3.74,0 -8.24,-0.148 -11.492,-0.601 z"
       class="p q r"
       id="path392" />
    <path
       d="m 32.481,71.261 c 5.64,1.882 15.779,1.074 18.375,0 -6.545,0.841 -12.631,0.762 -18.375,0 z"
       class="o"
       id="path394" />
  </g>
  <g
     stroke-width="0.256"
     class="s u x AA"
     id="g404"
     transform="translate(-289.122,-179.504)">
    <path
       d="m 327.723,237.824 -0.757,5.048 h 4.885 4.885 l -0.757,-5.048 h -4.128 z"
       class="u z"
       id="path398" />
    <path
       d="m 329.744,224.312 -0.636,13.512 h 2.743 2.742 l -0.636,-13.512 h -2.106 z"
       id="path400" />
    <path
       d="m 331.851,224.312 h -2.107 l 2.107,-3.073 2.107,3.073 z"
       id="path402" />
  </g>
  <g
     id="g1616">
    <g
       transform="matrix(0.999999,0,0,0.954526,-176.29317,-49.61255)"
       id="g442">
      <use
         xlink:href="#T"
         class="s"
         id="use406"
         x="0"
         y="0"
         width="100%"
         height="100%" />
      <path
         d="m 220.017,112.82 h -1.99 c -0.102,0 -0.191,-0.066 -0.222,-0.162 -0.031,-0.096 0.005,-0.202 0.087,-0.261 0.135,-0.097 0.336,-0.305 0.336,-0.443 v -1.539 c 0,-0.336 -0.211,-0.585 -0.213,-0.588 -0.061,-0.069 -0.075,-0.167 -0.038,-0.25 0.037,-0.083 0.121,-0.137 0.213,-0.137 h 1.665 c 0.092,0 0.175,0.054 0.212,0.137 0.037,0.083 0.023,0.181 -0.037,0.25 a 1,1 0 0 0 -0.213,0.588 v 1.539 c 0,0.138 0.201,0.346 0.336,0.443 0.082,0.059 0.117,0.165 0.086,0.261 -0.031,0.096 -0.121,0.163 -0.223,0.163 z m -1.45,-0.466 h 0.911 c -0.074,-0.118 -0.128,-0.255 -0.128,-0.4 v -1.539 a 1.36,1.36 0 0 1 0.102,-0.509 h -0.859 a 1.36,1.36 0 0 1 0.102,0.509 v 1.539 c 0.001,0.147 -0.053,0.283 -0.126,0.401 z"
         class="AC"
         id="path408" />
      <use
         xlink:href="#U"
         class="s"
         id="use410"
         x="0"
         y="0"
         width="100%"
         height="100%" />
      <path
         d="m 220.017,109.496 h -1.99 c -0.094,0 -0.179,-0.057 -0.215,-0.144 -0.036,-0.087 -0.016,-0.187 0.05,-0.254 0.102,-0.103 0.366,-0.435 0.366,-0.731 v -2.173 c 0,-0.54 -0.234,-0.921 -0.236,-0.925 -0.045,-0.072 -0.047,-0.162 -0.006,-0.236 0.041,-0.074 0.119,-0.12 0.204,-0.12 h 1.665 c 0.085,0 0.163,0.046 0.204,0.12 0.041,0.074 0.039,0.165 -0.006,0.236 -0.002,0.003 -0.236,0.392 -0.236,0.925 v 2.173 c 0,0.355 0.362,0.727 0.366,0.731 a 0.23,0.23 0 0 1 0.05,0.254 c -0.037,0.087 -0.121,0.143 -0.216,0.143 z m -1.524,-0.466 h 1.057 c -0.107,-0.184 -0.201,-0.415 -0.201,-0.662 v -2.173 c 0,-0.328 0.07,-0.61 0.143,-0.816 h -0.942 a 2.45,2.45 0 0 1 0.143,0.816 v 2.173 c -0.001,0.247 -0.094,0.478 -0.202,0.662 z"
         class="AC"
         id="path412" />
      <use
         xlink:href="#V"
         class="s"
         id="use414"
         x="0"
         y="0"
         width="100%"
         height="100%" />
      <path
         d="m 219.778,105.064 h -1.512 c -0.09,0 -0.173,-0.052 -0.211,-0.134 -0.038,-0.082 -0.026,-0.179 0.032,-0.248 0.076,-0.092 0.275,-0.392 0.275,-0.663 v -1.972 c 0,-0.488 -0.178,-0.84 -0.18,-0.844 -0.037,-0.072 -0.034,-0.159 0.008,-0.228 0.042,-0.069 0.118,-0.112 0.199,-0.112 h 1.265 c 0.082,0 0.157,0.043 0.199,0.112 0.042,0.069 0.045,0.157 0.007,0.229 -0.001,0.003 -0.18,0.356 -0.18,0.843 v 1.972 c 0,0.324 0.273,0.659 0.276,0.662 0.058,0.07 0.071,0.166 0.032,0.248 -0.039,0.082 -0.121,0.135 -0.212,0.135 z m -1.095,-0.466 h 0.677 c -0.078,-0.164 -0.145,-0.367 -0.145,-0.579 v -1.972 a 2.58,2.58 0 0 1 0.103,-0.718 h -0.593 a 2.59,2.59 0 0 1 0.103,0.718 v 1.972 a 1.39,1.39 0 0 1 -0.146,0.579 z"
         class="AC"
         id="path416" />
      <use
         xlink:href="#W"
         class="s"
         id="use418"
         x="0"
         y="0"
         width="100%"
         height="100%" />
      <path
         d="m 219.778,100.975 h -1.512 c -0.092,0 -0.176,-0.054 -0.213,-0.138 -0.037,-0.084 -0.022,-0.182 0.04,-0.251 0.075,-0.084 0.27,-0.356 0.27,-0.598 v -1.83 a 1.76,1.76 0 0 0 -0.176,-0.769 c -0.041,-0.072 -0.04,-0.161 0.002,-0.232 0.042,-0.071 0.118,-0.115 0.201,-0.115 h 1.265 c 0.083,0 0.159,0.044 0.201,0.116 0.042,0.072 0.042,0.16 0.002,0.232 -0.001,0.002 -0.177,0.325 -0.177,0.769 v 1.83 c 0,0.242 0.195,0.514 0.27,0.599 0.061,0.069 0.077,0.167 0.039,0.251 -0.038,0.084 -0.119,0.14 -0.211,0.14 z m -1.082,-0.466 h 0.65 c -0.073,-0.149 -0.132,-0.33 -0.132,-0.521 v -1.83 c 0,-0.256 0.046,-0.48 0.097,-0.65 h -0.58 c 0.051,0.17 0.097,0.394 0.097,0.65 v 1.83 c 0,0.191 -0.058,0.372 -0.132,0.521 z"
         class="AC"
         id="path420" />
      <use
         xlink:href="#X"
         class="s"
         id="use422"
         x="0"
         y="0"
         width="100%"
         height="100%" />
      <g
         class="AC"
         id="g428">
        <path
           d="m 219.74,97.078 h -1.436 c -0.09,0 -0.171,-0.051 -0.21,-0.132 -0.039,-0.081 -0.028,-0.177 0.028,-0.247 0.002,-0.003 0.262,-0.336 0.262,-0.662 v -1.962 a 2.12,2.12 0 0 0 -0.171,-0.843 c -0.036,-0.072 -0.032,-0.158 0.01,-0.227 0.042,-0.069 0.118,-0.11 0.198,-0.11 h 1.201 c 0.081,0 0.156,0.042 0.198,0.11 0.042,0.068 0.047,0.154 0.011,0.227 -10e-4,0.003 -0.171,0.356 -0.171,0.843 v 1.962 c 0,0.325 0.259,0.659 0.262,0.663 0.056,0.07 0.067,0.166 0.028,0.247 -0.039,0.081 -0.121,0.132 -0.211,0.132 z m -1.027,-0.466 h 0.62 c -0.074,-0.163 -0.138,-0.364 -0.138,-0.575 v -1.962 c 0,-0.285 0.047,-0.531 0.098,-0.714 h -0.539 a 2.67,2.67 0 0 1 0.098,0.714 v 1.962 c -0.001,0.21 -0.065,0.412 -0.139,0.575 z"
           id="path424" />
        <path
           d="m 219.712,92.931 h -1.379 c -0.088,0 -0.168,-0.049 -0.208,-0.128 -0.04,-0.079 -0.032,-0.172 0.02,-0.243 0.002,-0.003 0.256,-0.357 0.256,-0.707 V 89.8 l 1.198,-1.224 c 0.079,0 0.153,0.04 0.196,0.107 0.043,0.067 0.049,0.151 0.016,0.223 -0.001,0.003 -0.167,0.377 -0.167,0.894 v 2.052 c 0,0.349 0.253,0.704 0.256,0.707 0.052,0.071 0.06,0.165 0.02,0.243 -0.04,0.078 -0.119,0.128 -0.206,0.128 z"
           id="path426" />
      </g>
      <use
         xlink:href="#T"
         fill="url(#B)"
         id="use430"
         style="fill:url(#B)"
         x="0"
         y="0"
         width="100%"
         height="100%" />
      <use
         xlink:href="#U"
         fill="url(#C)"
         id="use432"
         style="fill:url(#C)"
         x="0"
         y="0"
         width="100%"
         height="100%" />
      <use
         xlink:href="#V"
         fill="url(#D)"
         id="use434"
         style="fill:url(#D)"
         x="0"
         y="0"
         width="100%"
         height="100%" />
      <use
         xlink:href="#W"
         fill="url(#E)"
         id="use436"
         style="fill:url(#E)"
         x="0"
         y="0"
         width="100%"
         height="100%" />
      <use
         xlink:href="#X"
         fill="url(#F)"
         id="use438"
         style="fill:url(#F)"
         x="0"
         y="0"
         width="100%"
         height="100%" />
      <path
         fill="url(#G)"
         d="m 219.712,92.697 c 0,0 -0.301,-0.41 -0.301,-0.845 V 89.8 a 2.78,2.78 0 0 1 0.08,-0.658 l -0.857,0.9 v 1.81 c 0,0.435 -0.301,0.845 -0.301,0.845 h 1.378 z"
         id="path440"
         style="fill:url(#G)" />
    </g>
  </g>
  <g
     transform="matrix(0.897534,0,0,0.911664,-153.95003,-44.32524)"
     stroke="#000000"
     id="g462">
    <rect
       width="6.2189999"
       height="2.7539999"
       x="215.748"
       y="113.883"
       rx="1.2309999"
       ry="1.102"
       fill="#ff0000"
       class="u z AA AD AE"
       id="rect444" />
    <path
       d="m 220.402,115.301 h 7.717 m -10.805,0 h -7.717"
       class="AB AG AH"
       id="path446" />
    <rect
       width="6.2189999"
       height="2.7539999"
       x="204.942"
       y="113.883"
       rx="1.2309999"
       ry="1.102"
       fill="#ff0000"
       class="u z AA AD AE"
       id="rect448" />
    <path
       d="m 206.508,115.301 h -7.717"
       class="AB AG AH"
       id="path450" />
    <g
       fill="#ff0000"
       class="z AA AD AE"
       id="g456">
      <rect
         width="6.2189999"
         height="2.7539999"
         x="194.13699"
         y="113.883"
         rx="1.2309999"
         ry="1.102"
         class="u"
         id="rect452" />
      <rect
         width="6.2189999"
         height="2.7539999"
         x="-232.774"
         y="113.883"
         rx="1.2309999"
         ry="1.102"
         transform="scale(-1,1)"
         class="u"
         id="rect454" />
    </g>
    <path
       d="m 231.208,115.301 h 7.717"
       class="AB AG AH"
       id="path458" />
    <rect
       width="6.2189999"
       height="2.7539999"
       x="-243.57899"
       y="113.883"
       rx="1.2309999"
       ry="1.102"
       transform="scale(-1,1)"
       fill="#ff0000"
       class="u z AA AD AE"
       id="rect460" />
  </g>
  <g
     fill="#dcdcdc"
     stroke="#ababab"
     stroke-width="0.23"
     id="g494"
     transform="translate(-105.371,-178.973)">
    <path
       d="m 114.375,184.379 -0.963,3.198 1.055,3.885 h -1.739 l -0.68,-3.036 v 3.036 h -1.683 v -7.083 h 1.683 v 2.752 l 0.747,-2.752 z"
       id="path466" />
    <use
       xlink:href="#d"
       id="use468"
       x="0"
       y="0"
       width="100%"
       height="100%" />
    <path
       d="m 119.079,184.379 h 1.679 q 0.795,0 1.203,0.136 0.412,0.136 0.664,0.551 0.252,0.411 0.252,1.33 0,0.621 -0.18,0.866 -0.176,0.245 -0.7,0.376 0.584,0.144 0.791,0.481 0.208,0.333 0.208,1.024 v 0.656 q 0,0.718 -0.152,1.063 -0.148,0.346 -0.476,0.473 -0.328,0.127 -1.343,0.127 h -1.947 z m 1.683,1.212 v 1.575 q 0.108,-0.004 0.168,-0.004 0.248,0 0.316,-0.131 0.068,-0.136 0.068,-0.766 0,-0.332 -0.056,-0.464 -0.056,-0.136 -0.148,-0.171 -0.088,-0.035 -0.348,-0.039 z m 0,2.678 v 1.982 q 0.356,-0.013 0.452,-0.122 0.1,-0.109 0.1,-0.538 v -0.661 q 0,-0.455 -0.088,-0.551 -0.088,-0.096 -0.464,-0.109 z"
       id="path470" />
    <use
       xlink:href="#e"
       id="use472"
       x="0"
       y="0"
       width="100%"
       height="100%" />
    <path
       d="m 128.077,184.379 h 1.695 q 0.688,0 1.055,0.118 0.372,0.118 0.556,0.341 0.188,0.223 0.252,0.543 0.068,0.315 0.068,0.98 v 0.617 q 0,0.678 -0.128,0.989 -0.128,0.311 -0.472,0.477 -0.34,0.166 -0.891,0.166 h -0.452 v 2.853 h -1.683 z m 1.683,1.212 v 1.803 q 0.072,0.004 0.124,0.004 0.232,0 0.32,-0.122 0.092,-0.127 0.092,-0.521 v -0.582 q 0,-0.363 -0.104,-0.473 -0.104,-0.109 -0.432,-0.109 z"
       id="path474" />
    <use
       xlink:href="#d"
       x="17.061001"
       id="use476"
       y="0"
       width="100%"
       height="100%" />
    <path
       d="m 139.078,184.379 v 1.417 h -0.999 v 5.666 h -1.683 v -5.666 h -0.995 v -1.417 z m 0.384,0 h 2.806 v 1.417 h -1.123 v 1.343 h 1.051 v 1.348 h -1.051 v 1.558 h 1.235 v 1.418 h -2.918 z m 7.159,0 v 7.083 h -1.475 l -0.875,-3.22 v 3.22 h -1.407 v -7.083 h 1.407 l 0.943,3.189 v -3.189 z m 5.684,2.143 h -1.563 v -0.525 q 0,-0.367 -0.06,-0.468 -0.06,-0.101 -0.2,-0.101 -0.152,0 -0.232,0.136 -0.076,0.136 -0.076,0.411 0,0.354 0.088,0.534 0.084,0.179 0.476,0.433 1.123,0.731 1.415,1.199 0.292,0.468 0.292,1.509 0,0.757 -0.164,1.116 -0.16,0.359 -0.624,0.604 -0.464,0.241 -1.079,0.241 -0.676,0 -1.155,-0.28 -0.476,-0.28 -0.624,-0.713 -0.148,-0.433 -0.148,-1.229 v -0.464 h 1.563 v 0.862 q 0,0.398 0.064,0.512 0.068,0.114 0.236,0.114 0.168,0 0.248,-0.144 0.084,-0.144 0.084,-0.429 0,-0.626 -0.156,-0.818 -0.16,-0.192 -0.787,-0.643 -0.628,-0.455 -0.831,-0.661 -0.204,-0.206 -0.34,-0.569 -0.132,-0.363 -0.132,-0.928 0,-0.814 0.188,-1.19 0.192,-0.376 0.616,-0.586 0.424,-0.214 1.023,-0.214 0.656,0 1.115,0.232 0.464,0.232 0.612,0.586 0.152,0.35 0.152,1.194 z"
       id="path478" />
    <use
       xlink:href="#e"
       x="29.372"
       id="use480"
       y="0"
       width="100%"
       height="100%" />
    <path
       d="m 161.459,184.379 -0.963,3.198 1.055,3.885 h -1.739 l -0.68,-3.036 v 3.036 h -1.683 v -7.083 h 1.683 v 2.752 l 0.748,-2.752 z"
       id="path482" />
    <use
       xlink:href="#f"
       id="use484"
       x="0"
       y="0"
       width="100%"
       height="100%" />
    <path
       d="m 170.037,184.379 v 7.083 h -1.683 v -2.975 h -0.504 v 2.975 h -1.683 v -7.083 h 1.683 v 2.533 h 0.504 v -2.533 z"
       id="path486" />
    <use
       xlink:href="#d"
       x="55.791"
       id="use488"
       y="0"
       width="100%"
       height="100%" />
    <path
       d="m 174.87,184.379 h 1.191 q 1.191,0 1.611,0.101 0.424,0.101 0.688,0.516 0.268,0.411 0.268,1.317 0,0.827 -0.188,1.111 -0.188,0.284 -0.739,0.341 0.5,0.136 0.672,0.363 0.172,0.227 0.212,0.42 0.044,0.188 0.044,1.046 v 1.868 h -1.563 v -2.354 q 0,-0.569 -0.084,-0.704 -0.08,-0.136 -0.428,-0.136 v 3.194 h -1.683 z m 1.683,1.212 v 1.575 q 0.284,0 0.396,-0.083 0.116,-0.088 0.116,-0.556 v -0.389 q 0,-0.337 -0.112,-0.442 -0.108,-0.105 -0.4,-0.105 z m 4.784,-1.212 v 4.734 q 0,1.063 -0.02,1.369 -0.02,0.302 -0.184,0.547 -0.16,0.245 -0.44,0.341 -0.276,0.092 -0.835,0.092 h -0.843 v -1.238 q 0.152,0.013 0.22,0.013 0.18,0 0.284,-0.096 0.104,-0.096 0.12,-0.236 0.016,-0.14 0.016,-0.543 v -4.983 z"
       id="path490" />
    <use
       xlink:href="#f"
       x="20.294001"
       id="use492"
       y="0"
       width="100%"
       height="100%" />
  </g>
  <path
     d="m 45.055,5.814 c -0.335,0 -0.585,0.058 -0.771,0.152 A 0.557,0.557 0 0 1 44.28,5.97 0.74,0.74 0 0 0 43.915,6.31 c -0.054,0.109 -0.129,0.44 -0.129,0.938 0,0.332 0.042,0.581 0.098,0.734 0.07,0.188 0.149,0.305 0.213,0.369 0.078,0.079 0.352,0.305 0.762,0.602 0.43,0.309 0.692,0.503 0.889,0.74 a 0.557,0.557 0 0 1 0.006,0.006 c 0.288,0.355 0.279,0.702 0.279,1.166 0,0.242 -0.024,0.469 -0.156,0.701 -0.134,0.24 -0.461,0.43 -0.732,0.43 -0.236,0 -0.566,-0.139 -0.713,-0.385 A 0.557,0.557 0 0 1 44.424,11.599 C 44.246,11.283 44.289,11.11 44.289,10.814 V 10.507 H 43.85 c 0.008,0.432 0.049,0.785 0.107,0.957 0.051,0.149 0.149,0.276 0.381,0.412 0.223,0.13 0.5,0.205 0.871,0.205 0.335,0 0.6,-0.064 0.82,-0.178 l 0.004,-0.002 c 0.229,-0.122 0.327,-0.237 0.371,-0.336 a 0.557,0.557 0 0 1 0.002,-0.006 c 0.048,-0.105 0.113,-0.419 0.113,-0.883 0,-0.642 -0.112,-1.059 -0.209,-1.215 C 46.213,9.305 45.786,8.902 45.066,8.434 H 45.064 C 44.771,8.244 44.546,8.104 44.39,7.774 44.27,7.525 44.247,7.28 44.247,7.001 c 0,-0.235 0.019,-0.453 0.146,-0.682 a 0.557,0.557 0 0 1 0.006,-0.012 0.91,0.91 0 0 1 0.713,-0.41 c 0.231,0 0.543,0.147 0.678,0.373 0.184,0.308 0.137,0.466 0.133,0.721 h 0.424 L 46.271,6.298 A 0.557,0.557 0 0 1 46.269,6.29 C 46.233,6.204 46.149,6.099 45.921,5.985 45.711,5.879 45.428,5.813 45.056,5.813 Z m 13.168,0 c -0.298,0 -0.53,0.053 -0.719,0.143 A 1.01,1.01 0 0 0 57.072,6.326 1.25,1.25 0 0 0 56.875,6.892 C 56.85,7.145 56.832,7.641 56.832,8.341 v 1.211 l 0.047,1.471 h -0.002 a 1.19,1.19 0 0 0 0.207,0.559 c 0.112,0.166 0.247,0.278 0.432,0.363 0.198,0.087 0.428,0.137 0.707,0.137 0.298,0 0.53,-0.053 0.719,-0.143 a 0.99,0.99 0 0 0 0.426,-0.367 0.557,0.557 0 0 1 0.002,-0.004 1.18,1.18 0 0 0 0.197,-0.557 0.557,0.557 0 0 1 0,-0.006 c 0.027,-0.252 0.047,-0.75 0.047,-1.453 V 8.341 L 59.567,6.87 h 0.002 C 59.546,6.665 59.482,6.491 59.362,6.313 A 0.96,0.96 0 0 0 58.93,5.954 0.557,0.557 0 0 1 58.922,5.95 C 58.729,5.862 58.503,5.813 58.223,5.813 Z m 20.295,0 c -0.298,0 -0.533,0.053 -0.721,0.143 -0.193,0.092 -0.322,0.206 -0.43,0.369 -0.112,0.172 -0.176,0.352 -0.199,0.564 -0.025,0.25 -0.041,0.749 -0.041,1.451 v 1.211 l 0.045,1.471 H 77.17 c 0.022,0.203 0.089,0.381 0.209,0.559 0.112,0.166 0.247,0.278 0.432,0.363 0.198,0.087 0.428,0.137 0.707,0.137 0.298,0 0.53,-0.053 0.719,-0.143 a 0.98,0.98 0 0 0 0.424,-0.367 0.557,0.557 0 0 1 0.002,-0.004 1.18,1.18 0 0 0 0.199,-0.557 0.557,0.557 0 0 1 0,-0.006 c 0.027,-0.249 0.045,-0.749 0.045,-1.453 V 8.341 L 79.862,6.87 h 0.002 C 79.842,6.668 79.776,6.492 79.655,6.313 A 0.96,0.96 0 0 0 79.223,5.954 0.557,0.557 0 0 1 79.215,5.95 C 79.021,5.861 78.798,5.813 78.518,5.813 Z M 58.231,5.898 c 0.271,0 0.63,0.251 0.725,0.514 0.108,0.29 0.088,0.471 0.088,0.814 v 3.254 c 0,0.432 0.013,0.659 -0.07,0.947 a 0.81,0.81 0 0 1 -0.277,0.414 0.8,0.8 0 0 1 -0.477,0.154 0.81,0.81 0 0 1 -0.447,-0.129 C 57.626,11.768 57.521,11.611 57.474,11.47 A 0.557,0.557 0 0 1 57.47,11.456 C 57.422,11.3 57.423,11.206 57.415,11.061 L 57.403,10.532 V 7.225 l 0.019,-0.496 c 0.015,-0.141 0.001,-0.241 0.133,-0.453 a 0.557,0.557 0 0 1 0.002,-0.004 0.88,0.88 0 0 1 0.674,-0.375 z m 20.295,0 c 0.271,0 0.63,0.251 0.725,0.514 0.108,0.29 0.088,0.471 0.088,0.814 v 3.254 c 0,0.432 0.013,0.659 -0.07,0.947 a 0.81,0.81 0 0 1 -0.277,0.414 0.8,0.8 0 0 1 -0.477,0.154 0.81,0.81 0 0 1 -0.447,-0.129 C 77.921,11.768 77.816,11.611 77.769,11.47 A 0.557,0.557 0 0 1 77.765,11.456 C 77.718,11.303 77.717,11.208 77.708,11.063 L 77.696,10.532 V 7.225 L 77.715,6.729 C 77.73,6.588 77.716,6.488 77.848,6.276 A 0.557,0.557 0 0 1 77.85,6.272 C 77.981,6.065 78.271,5.897 78.526,5.897 Z M 5.551,5.963 v 5.969 h 0.57 V 9.453 a 0.557,0.557 0 0 1 1.1,-0.121 l 0.582,2.6 H 8.367 L 7.504,8.75 A 0.557,0.557 0 0 1 7.508,8.443 L 8.254,5.963 H 7.85 L 7.215,8.305 A 0.557,0.557 0 0 1 6.121,8.159 V 5.964 Z m 4.967,0 -0.721,5.969 h 0.598 l 0.061,-0.758 a 0.557,0.557 0 0 1 0.555,-0.514 h 0.604 a 0.557,0.557 0 0 1 0.557,0.52 l 0.049,0.752 h 0.563 L 11.973,5.963 Z m 3.748,0 v 5.969 h 1.389 c 0.654,0 1.105,-0.075 1.143,-0.09 0.089,-0.034 0.117,-0.056 0.166,-0.17 a 0.557,0.557 0 0 1 0.002,-0.006 c 0.043,-0.098 0.104,-0.4 0.104,-0.84 V 10.17 c 0,-0.406 -0.077,-0.655 -0.123,-0.729 A 0.557,0.557 0 0 1 16.945,9.439 C 16.91,9.383 16.802,9.282 16.496,9.207 A 0.557,0.557 0 0 1 16.309,9.119 c 0.096,0.142 0.146,0.27 0.164,0.383 0.022,0.139 0.029,0.284 0.029,0.453 v 0.662 c 0,0.327 0.063,0.571 -0.24,0.906 -0.283,0.321 -0.557,0.3 -0.85,0.311 A 0.557,0.557 0 0 1 14.836,11.278 V 9.296 a 0.557,0.557 0 0 1 0.48,-0.551 0.557,0.557 0 0 1 -0.48,-0.551 V 6.62 a 0.557,0.557 0 0 1 0.566,-0.557 c 0.195,0.003 0.315,-0.01 0.539,0.078 0.24,0.094 0.386,0.296 0.459,0.471 0.102,0.242 0.102,0.428 0.102,0.682 l -0.019,0.557 c -0.009,0.103 -0.044,0.204 -0.072,0.305 a 0.557,0.557 0 0 1 0.084,-0.029 c 0.283,-0.071 0.388,-0.17 0.381,-0.16 A 0.557,0.557 0 0 1 16.88,7.961 c -0.013,0.017 0.072,-0.175 0.072,-0.535 0,-0.562 -0.099,-0.922 -0.17,-1.039 A 0.557,0.557 0 0 1 16.78,6.385 C 16.668,6.2 16.563,6.12 16.419,6.073 a 0.557,0.557 0 0 1 -0.002,0 C 16.249,6.017 15.889,5.966 15.39,5.966 Z m 4.496,0 v 3.635 l 0.039,1.516 c 0.017,0.158 0.068,0.304 0.172,0.463 0.083,0.127 0.21,0.242 0.434,0.348 0.212,0.1 0.467,0.158 0.785,0.158 0.285,0 0.505,-0.049 0.674,-0.125 0.169,-0.076 0.294,-0.183 0.396,-0.33 0.121,-0.178 0.176,-0.32 0.193,-0.434 v -0.002 c 0.023,-0.156 0.043,-0.527 0.043,-1.051 V 5.963 h -0.57 v 4.662 c 0,0.365 0.02,0.553 -0.074,0.842 a 0.78,0.78 0 0 1 -0.287,0.396 c -0.145,0.1 -0.312,0.133 -0.447,0.133 -0.262,0 -0.614,-0.236 -0.709,-0.486 a 0.557,0.557 0 0 1 -0.006,-0.019 c -0.094,-0.28 -0.072,-0.448 -0.072,-0.773 V 5.964 Z m 4.502,0 v 5.969 h 0.568 V 9.637 A 0.557,0.557 0 0 1 24.389,9.08 h 0.451 c 0.312,0 0.53,-0.051 0.648,-0.109 A 0.557,0.557 0 0 1 25.49,8.969 C 25.621,8.906 25.655,8.86 25.687,8.782 25.719,8.704 25.775,8.421 25.775,8.005 V 7.39 c 0,-0.424 -0.028,-0.732 -0.057,-0.863 A 0.557,0.557 0 0 1 25.716,6.519 C 25.689,6.385 25.646,6.298 25.585,6.226 A 0.557,0.557 0 0 1 25.581,6.22 C 25.544,6.175 25.464,6.112 25.288,6.056 a 0.557,0.557 0 0 1 -0.002,0 C 25.139,6.009 24.827,5.964 24.399,5.964 Z m 4.314,0 -0.721,5.969 h 0.598 l 0.061,-0.758 a 0.557,0.557 0 0 1 0.555,-0.514 h 0.604 a 0.557,0.557 0 0 1 0.557,0.52 l 0.049,0.752 h 0.563 L 29.033,5.963 Z m 3.008,0 v 0.305 h 0.439 a 0.557,0.557 0 0 1 0.557,0.557 v 5.107 H 32.15 V 6.825 A 0.557,0.557 0 0 1 32.707,6.268 H 33.15 V 5.963 Z m 4.061,0 v 5.969 h 1.805 V 11.629 H 35.774 A 0.557,0.557 0 0 1 35.217,11.072 V 9.513 a 0.557,0.557 0 0 1 0.557,-0.557 h 0.494 V 8.722 H 35.774 A 0.557,0.557 0 0 1 35.217,8.165 V 6.823 A 0.557,0.557 0 0 1 35.774,6.266 H 36.34 V 5.961 Z m 3.402,0 v 5.969 h 0.293 V 9.27 a 0.557,0.557 0 0 1 1.094,-0.146 l 0.766,2.809 h 0.492 V 5.964 h -0.295 v 2.633 a 0.557,0.557 0 0 1 -1.09,0.158 L 38.483,5.964 Z m 10.086,0 v 3.635 l 0.037,1.516 c 0.017,0.158 0.068,0.304 0.172,0.463 0.081,0.125 0.211,0.242 0.436,0.348 0.212,0.1 0.467,0.158 0.785,0.158 0.285,0 0.502,-0.048 0.672,-0.125 a 0.94,0.94 0 0 0 0.398,-0.33 c 0.121,-0.178 0.176,-0.32 0.193,-0.434 v -0.002 c 0.023,-0.156 0.043,-0.527 0.043,-1.051 V 5.963 h -0.57 v 4.662 c 0,0.367 0.016,0.56 -0.076,0.842 a 0.78,0.78 0 0 1 -0.283,0.395 c -0.146,0.101 -0.314,0.135 -0.449,0.135 -0.262,0 -0.614,-0.235 -0.709,-0.486 A 0.557,0.557 0 0 1 48.778,11.489 C 48.687,11.217 48.704,11.045 48.704,10.718 V 5.964 Z m 4.5,0 v 5.969 h 0.57 V 9.453 a 0.557,0.557 0 0 1 1.1,-0.121 l 0.582,2.6 h 0.564 L 54.588,8.75 a 0.557,0.557 0 0 1 0.004,-0.307 l 0.746,-2.48 H 54.936 L 54.299,8.305 A 0.557,0.557 0 0 1 53.205,8.159 V 5.964 Z m 8.719,0 v 5.969 h 0.568 V 9.514 a 0.557,0.557 0 0 1 0.557,-0.557 h 0.504 a 0.557,0.557 0 0 1 0.557,0.557 v 2.418 h 0.57 V 5.963 H 63.54 V 7.94 A 0.557,0.557 0 0 1 62.983,8.497 H 62.479 A 0.557,0.557 0 0 1 61.922,7.94 V 5.963 Z m 4.953,0 -0.721,5.969 h 0.6 l 0.061,-0.758 a 0.557,0.557 0 0 1 0.555,-0.514 h 0.604 a 0.557,0.557 0 0 1 0.557,0.52 l 0.049,0.752 h 0.563 L 67.764,5.963 Z m 3.748,0 v 5.969 h 0.57 V 9.295 A 0.557,0.557 0 0 1 71.104,8.744 0.557,0.557 0 0 1 70.625,8.193 V 6.617 A 0.557,0.557 0 0 1 71.182,6.06 c 0.261,0 0.534,0.02 0.785,0.262 0.285,0.272 0.283,0.559 0.283,0.842 v 0.391 c 0,0.179 -0.007,0.333 -0.039,0.486 -0.016,0.079 -0.108,0.175 -0.152,0.266 A 0.557,0.557 0 0 1 72.272,8.239 C 72.551,8.21 72.608,8.139 72.604,8.145 72.592,8.163 72.7,7.85 72.7,7.34 72.7,6.791 72.599,6.446 72.522,6.328 A 0.557,0.557 0 0 1 72.518,6.322 C 72.403,6.141 72.311,6.079 72.172,6.047 a 0.557,0.557 0 0 1 -0.002,0 C 72.008,6.008 71.468,5.963 70.69,5.963 Z m 4.785,0 v 4.426 l -0.019,0.605 c -0.024,0.211 -0.134,0.434 -0.293,0.582 -0.094,0.087 -0.214,0.08 -0.326,0.119 v 0.236 h 0.287 c 0.341,0 0.576,-0.039 0.654,-0.065 0.078,-0.026 0.11,-0.05 0.152,-0.115 a 0.557,0.557 0 0 1 0.004,-0.006 c 0.058,-0.086 0.085,-0.165 0.092,-0.273 0.011,-0.162 0.019,-0.627 0.019,-1.332 V 5.962 Z M 24.389,6.061 c 0.28,0 0.565,-0.001 0.836,0.283 0.279,0.293 0.258,0.558 0.258,0.855 v 0.582 c 0,0.308 0.019,0.543 -0.199,0.846 -0.193,0.269 -0.521,0.354 -0.77,0.354 -0.048,0 -0.1,-10e-4 -0.156,-0.004 A 0.557,0.557 0 0 1 23.833,8.42 V 6.617 A 0.557,0.557 0 0 1 24.39,6.06 Z M 11.323,6.434 a 0.557,0.557 0 0 1 0.543,0.516 l 0.256,2.953 a 0.557,0.557 0 0 1 -0.555,0.615 H 10.991 A 0.557,0.557 0 0 1 10.434,9.924 L 10.758,6.92 a 0.557,0.557 0 0 1 0.564,-0.486 z m 17.061,0 a 0.557,0.557 0 0 1 0.543,0.516 l 0.256,2.953 a 0.557,0.557 0 0 1 -0.555,0.615 H 28.052 A 0.557,0.557 0 0 1 27.495,9.924 L 27.819,6.92 a 0.557,0.557 0 0 1 0.564,-0.486 z m 38.729,0 a 0.557,0.557 0 0 1 0.543,0.516 l 0.256,2.953 a 0.557,0.557 0 0 1 -0.555,0.615 H 66.783 A 0.557,0.557 0 0 1 66.226,9.924 L 66.548,6.92 A 0.557,0.557 0 0 1 67.112,6.434 Z M 16.08,8.579 c -0.414,0.27 -0.435,0.158 -0.586,0.17 a 1.96,1.96 0 0 1 0.33,0.039 1.02,1.02 0 0 1 0.34,0.186 0.557,0.557 0 0 1 -0.084,-0.395 z m 55.734,0.004 c -0.205,0.118 -0.4,0.16 -0.602,0.16 0.142,0.002 0.278,0.01 0.422,0.057 0.052,0.017 0.097,0.087 0.152,0.117 a 0.557,0.557 0 0 1 0.027,-0.334 z m 0.27,0.557 z m 0.053,0.176 c 0.12,0.256 0.119,1.096 0.115,0.82 v 1.797 h 0.449 V 10.622 L 72.672,9.704 A 0.557,0.557 0 0 1 72.67,9.69 C 72.667,9.677 72.639,9.602 72.557,9.493 72.567,9.506 72.457,9.405 72.184,9.331 A 0.557,0.557 0 0 1 72.137,9.315 Z"
     class="s"
     id="path496" />
  <g
     id="g1708">
    <g
       transform="matrix(0.92644307,0,0,0.92644307,4.1884894,0.49232946)"
       id="g156">
      <path
         d="m 41.603,19.71 -0.691,1.43 -1.574,0.216 1.147,1.099 -0.005,0.026 -2.677,1.945 -0.025,-0.004 -0.691,-1.431 -0.692,1.43 -1.574,0.215 1.147,1.099 -0.281,1.563 1.399,-0.751 0.023,0.012 1.021,3.143 -0.012,0.025 -1.574,0.214 1.146,1.1 -0.283,1.563 1.4,-0.75 1.399,0.751 -0.281,-1.563 0.018,-0.017 h 3.179 l 0.018,0.017 -0.281,1.563 1.399,-0.751 1.4,0.75 -0.283,-1.563 1.146,-1.1 -1.463,-0.199 1.034,-3.183 0.023,-0.012 1.399,0.751 -0.281,-1.563 1.147,-1.099 -1.574,-0.215 -0.692,-1.43 -0.69,1.431 -0.025,0.004 -2.678,-1.945 -0.005,-0.025 1.147,-1.099 -1.574,-0.216 z"
         stroke-width="0.482"
         class="p r u z AA"
         id="path122" />
      <path
         d="m 37.301,25.508 2.573,1.897 -0.001,0.004"
         class="o"
         id="path124" />
      <path
         d="m 39.872,27.409 -0.94,3.16 0.02,-0.013 2.643,-1.901 0.005,-0.004 2.671,1.803 -0.002,-0.006 -0.982,-3.073 h 10e-4 l 2.627,-1.876 0.005,-0.003 -3.21,0.007 h -0.008 l -1.102,-3.144 -0.005,0.015 -1.09,3.125 -0.002,0.005 -3.219,-0.007 0.016,0.012 z"
         class="s"
         id="path126" />
      <path
         d="M 38.933,30.76 A 0.19,0.19 0 0 1 38.75,30.515 l 0.901,-3.033 -2.48,-1.834 a 0.19,0.19 0 0 1 0.113,-0.344 v 0 l 3.084,0.007 1.052,-3.016 a 0.19,0.19 0 0 1 0.18,-0.128 v 0 a 0.19,0.19 0 0 1 0.18,0.128 l 1.057,3.016 3.082,-0.007 v 0 a 0.19,0.19 0 0 1 0.111,0.346 l -2.52,1.799 0.934,2.921 a 0.19,0.19 0 0 1 -0.222,0.266 c -0.02,-0.005 -0.04,-0.014 -0.058,-0.026 l -2.56,-1.728 -2.56,1.841 c -0.032,0.024 -0.072,0.035 -0.111,0.035 z m -1.067,-5.072 2.12,1.568 a 0.19,0.19 0 0 1 0.069,0.208 l -0.78,2.626 2.21,-1.589 c 0.065,-0.047 0.157,-0.052 0.223,-0.007 l 2.214,1.495 -0.816,-2.554 a 0.19,0.19 0 0 1 0.069,-0.212 l 2.148,-1.533 -2.613,0.006 v 0 a 0.2,0.2 0 0 1 -0.187,-0.128 l -0.921,-2.632 -0.916,2.624 c -0.027,0.077 -0.101,0.133 -0.182,0.133 v 0 l -2.638,-0.006 z"
         class="AC"
         id="path128" />
      <g
         class="o"
         id="g134">
        <path
           d="m 41.596,26.851 v -0.004 l -4.295,-1.339 2.573,1.897 -0.001,0.004 z"
           id="path130" />
        <path
           d="m 41.593,26.846 0.003,0.001 v -4.474 l -1.09,3.125 z"
           id="path132" />
      </g>
      <g
         class="p"
         id="g140">
        <path
           d="m 41.593,26.846 -1.087,-1.348 -0.002,0.005 -3.219,-0.007 0.016,0.012 z"
           id="path136" />
        <path
           d="M 42.71,25.503 H 42.702 L 41.6,22.359 41.595,22.374 v 4.474 z"
           id="path138" />
      </g>
      <path
         d="m 45.915,25.499 0.005,-0.003 -3.21,0.007 -1.111,1.341 z"
         class="o"
         id="path142" />
      <path
         d="m 45.915,25.499 -4.316,1.344 -0.003,0.003 v 0 l 1.692,0.528 z"
         class="p"
         id="path144" />
      <path
         d="m 44.27,30.448 -0.982,-3.073 h 0.001 l -1.692,-0.528 v 0.004 z"
         class="o"
         id="path146" />
      <g
         class="p"
         id="g152">
        <path
           d="M 44.27,30.448 41.596,26.85 v 1.804 l 0.005,-0.004 2.671,1.803 z"
           id="path148" />
        <path
           d="m 41.587,26.853 -1.715,0.555 -0.94,3.16 0.02,-0.013 z"
           id="path150" />
      </g>
      <path
         d="m 41.587,26.853 -2.635,3.702 2.643,-1.901 V 26.85 Z"
         class="o"
         id="path154" />
    </g>
    <g
       id="g1677"
       transform="translate(0.13392381)">
      <g
         transform="matrix(0.92161756,-0.09443431,0.09443431,0.92161756,-61.690149,-37.83958)"
         id="g166"
         style="stroke:#005b31;stroke-width:0.265">
        <use
           xlink:href="#M"
           class="AF"
           id="use158"
           x="0"
           y="0"
           width="100%"
           height="100%" />
        <g
           class="AB"
           id="g164">
          <path
             d="m 82.75,79.68 c 4.211,1.741 10.683,-0.922 16.738,0.635 m -12.146,1.575 1.257,-1.675 -1.39,-1.39"
             id="path160" />
          <path
             d="m 89.264,78.263 1.855,1.734 -1.77,2.652 m 2.2,-4.865 2.725,2.028 -2.506,3.11 m 3.291,-5.064 1.942,2.034 -1.727,2.352"
             id="path162" />
        </g>
      </g>
      <g
         transform="matrix(-0.92161756,-0.09443431,-0.09443431,0.92161756,146.88027,-37.83958)"
         id="g1665"
         style="stroke:#005b31;stroke-width:0.265">
        <use
           xlink:href="#M"
           class="AF"
           id="use1657"
           x="0"
           y="0"
           width="100%"
           height="100%" />
        <g
           class="AB"
           id="g1663">
          <path
             d="m 82.75,79.68 c 4.211,1.741 10.683,-0.922 16.738,0.635 m -12.146,1.575 1.257,-1.675 -1.39,-1.39"
             id="path1659" />
          <path
             d="m 89.264,78.263 1.855,1.734 -1.77,2.652 m 2.2,-4.865 2.725,2.028 -2.506,3.11 m 3.291,-5.064 1.942,2.034 -1.727,2.352"
             id="path1661" />
        </g>
      </g>
    </g>
  </g>
</svg>
