<?xml version="1.0" encoding="UTF-8" standalone="no"?>
<!-- Created with Inkscape (http://www.inkscape.org/) -->

<svg
   xmlns:dc="http://purl.org/dc/elements/1.1/"
   xmlns:cc="http://creativecommons.org/ns#"
   xmlns:rdf="http://www.w3.org/1999/02/22-rdf-syntax-ns#"
   xmlns:svg="http://www.w3.org/2000/svg"
   xmlns="http://www.w3.org/2000/svg"
   xmlns:sodipodi="http://sodipodi.sourceforge.net/DTD/sodipodi-0.dtd"
   xmlns:inkscape="http://www.inkscape.org/namespaces/inkscape"
   id="svg2"
   version="1.1"
   inkscape:version="0.48.0 r9654"
   width="563.31122"
   height="594.59778"
   xml:space="preserve"
   sodipodi:docname="Coat_of_arms_of_Pesisir_Selatan_Regency.svg"><metadata
     id="metadata8"><rdf:RDF><cc:Work
         rdf:about=""><dc:format>image/svg+xml</dc:format><dc:type
           rdf:resource="http://purl.org/dc/dcmitype/StillImage" /><dc:title></dc:title></cc:Work></rdf:RDF></metadata><defs
     id="defs6"><inkscape:perspective
       sodipodi:type="inkscape:persp3d"
       inkscape:vp_x="0 : 0.5 : 1"
       inkscape:vp_y="0 : 1000 : 0"
       inkscape:vp_z="1 : 0.5 : 1"
       inkscape:persp3d-origin="0.5 : 0.33333333 : 1"
       id="perspective10" /></defs><sodipodi:namedview
     pagecolor="#ffffff"
     bordercolor="#666666"
     borderopacity="1"
     objecttolerance="10"
     gridtolerance="10"
     guidetolerance="10"
     inkscape:pageopacity="0"
     inkscape:pageshadow="2"
     inkscape:window-width="1157"
     inkscape:window-height="942"
     id="namedview4"
     showgrid="false"
     inkscape:zoom="0.61699346"
     inkscape:cx="307.21603"
     inkscape:cy="366.55042"
     inkscape:window-x="137"
     inkscape:window-y="17"
     inkscape:window-maximized="1"
     inkscape:current-layer="g12"
     fit-margin-top="0"
     fit-margin-left="0"
     fit-margin-right="0"
     fit-margin-bottom="0" /><g
     id="g12"
     inkscape:groupmode="layer"
     inkscape:label="Pesisir_Selatan"
     transform="matrix(1.25,0,0,-1.25,-209.27479,670.08961)"><path
       d="m 572.96237,530.53361 -360.43604,0 -37.74707,-55.41309 435.9292,0 -37.74609,55.41309 z"
       style="fill:#ffffff;fill-opacity:1;fill-rule:nonzero;stroke:none"
       id="path14"
       inkscape:connector-curvature="0" /><path
       d="m 572.96237,530.53361 -360.43604,0 -37.74707,-55.41309 435.9292,0 -37.74609,55.41309 z"
       style="fill:#ffffff;fill-opacity:1;fill-rule:nonzero;stroke:none"
       id="path16"
       inkscape:connector-curvature="0" /><path
       d="m 295.32662,327.25773 23.58545,-88.22852 1.48047,-5.53711 21.39307,-80.02539 17.54785,0 -20.73779,80.02539 -1.43457,5.53711 111.16552,0 -1.43457,-5.53711 -20.73632,-80.02539 17.54687,0 21.39258,80.02539 1.48047,5.53711 23.58691,88.22852 -194.83594,0 m 33.17627,-75.83789 -16.26025,66.86377 21.55615,0 16.26026,-66.86377 -21.55616,0 m 74.71338,0 -20.94433,0 0,66.86377 20.94433,0 0,-66.86377 m 53.76856,0 -21.55567,0 16.26075,66.86377 21.55566,0 -16.26074,-66.86377 z"
       style="fill:#000000;fill-opacity:1;fill-rule:nonzero;stroke:none"
       id="path18"
       inkscape:connector-curvature="0" /><path
       d="m 172.69625,469.57218 c -3.9209,-139.36035 32.42871,-256.16797 103.08496,-330.19043 27.41407,-28.72265 59.82715,-50.850571 96.33643,-65.772451 6.61523,-2.70508 13.37695,-5.16797 20.27051,-7.4043 l 0,403.367181 -219.6919,0 z"
       style="fill:#176fc1;fill-opacity:1;fill-rule:nonzero;stroke:none"
       id="path20"
       inkscape:connector-curvature="0" /><path
       d="M 611.68893,469.57218 C 615.60983,330.21183 579.25924,213.40421 508.60397,139.38175 481.18893,110.6591 448.77682,88.531179 412.26608,73.609299 c -6.61426,-2.70508 -13.37598,-5.16797 -20.26953,-7.4043 l 0,403.367181 219.69238,0 z"
       style="fill:#33b540;fill-opacity:1;fill-rule:nonzero;stroke:none"
       id="path22"
       inkscape:connector-curvature="0" /><path
       d="m 220.06393,488.32169 0,29.15674 9.25488,0 c 3.50537,0 5.79199,-0.14648 6.85742,-0.43799 1.63575,-0.43798 3.00635,-1.38964 4.11133,-2.85546 1.10352,-1.46631 1.65576,-3.35987 1.65576,-5.68165 0,-1.79101 -0.31884,-3.29638 -0.95508,-4.5166 -0.63671,-1.22119 -1.44531,-2.17968 -2.42675,-2.87549 -0.98145,-0.69677 -1.97803,-1.15771 -2.99121,-1.38281 -1.37696,-0.27929 -3.37159,-0.41797 -5.98291,-0.41797 l -3.76075,0 0,-10.98877 -5.76269,0 m 5.76269,24.22413 0,-8.30274 3.15186,0 c 2.271,0 3.78809,0.15283 4.5542,0.4585 0.76465,0.30615 1.36426,0.78515 1.79931,1.43701 0.43506,0.65185 0.65333,1.41015 0.65333,2.27539 0,1.06396 -0.30518,1.94238 -0.91602,2.63428 -0.60889,0.6914 -1.38086,1.12451 -2.31494,1.29736 -0.68848,0.13281 -2.06983,0.2002 -4.14551,0.2002 l -2.78223,0 z"
       style="fill:#ed1c24;fill-opacity:1;fill-rule:nonzero;stroke:none"
       id="path24"
       inkscape:connector-curvature="0" /><path
       d="m 246.71285,488.32169 0,29.15674 21.19629,0 0,-4.93261 -15.4331,0 0,-6.44678 14.3584,0 0,-4.93262 -14.3584,0 0,-7.91211 15.97021,0 0,-4.93262 -21.7334,0 z"
       style="fill:#ed1c24;fill-opacity:1;fill-rule:nonzero;stroke:none"
       id="path26"
       inkscape:connector-curvature="0" /><path
       d="m 271.84957,497.84513 5.6167,0.53711 c 0.3374,-1.91504 1.02393,-3.32226 2.0586,-4.2207 1.03515,-0.89795 2.43017,-1.34668 4.18652,-1.34668 1.86035,0 3.26318,0.3999 4.20654,1.20019 0.94287,0.79981 1.41602,1.73633 1.41602,2.80762 0,0.6875 -0.19824,1.27295 -0.59375,1.75586 -0.39649,0.48242 -1.08789,0.90283 -2.07373,1.25977 -0.67481,0.23877 -2.21192,0.66406 -4.61231,1.27587 -3.08935,0.78467 -5.25634,1.74707 -6.50195,2.88868 -1.75195,1.60547 -2.62793,3.56298 -2.62793,5.87207 0,1.48584 0.41064,2.87548 1.23486,4.16943 0.82373,1.29346 2.00977,2.27881 3.56055,2.95557 1.54883,0.67675 3.42041,1.01562 5.61328,1.01562 3.5791,0 6.27295,-0.8081 8.08301,-2.42285 1.81006,-1.61475 2.75928,-3.77051 2.85107,-6.46582 l -5.76318,-0.19531 c -0.24707,1.49267 -0.77539,2.56543 -1.58447,3.21972 -0.8086,0.65332 -2.02198,0.98047 -3.64112,0.98047 -1.66992,0 -2.97802,-0.35107 -3.92236,-1.05176 -0.60937,-0.45019 -0.91309,-1.05224 -0.91309,-1.80615 0,-0.68799 0.28565,-1.27685 0.85645,-1.76562 0.72656,-0.62207 2.48926,-1.27198 5.2915,-1.94971 2.80176,-0.67773 4.87305,-1.37891 6.21631,-2.104 1.34131,-0.7251 2.39307,-1.71631 3.15137,-2.97315 0.75879,-1.25781 1.13867,-2.81054 1.13867,-4.65869 0,-1.67578 -0.45654,-3.2456 -1.36621,-4.7085 -0.90918,-1.46337 -2.19775,-2.55078 -3.86133,-3.2622 -1.66504,-0.71143 -3.7373,-1.06787 -6.2207,-1.06787 -3.61572,0 -6.3916,0.85644 -8.32861,2.57031 -1.93653,1.71338 -3.09375,4.20996 -3.47071,7.49072 z"
       style="fill:#ed1c24;fill-opacity:1;fill-rule:nonzero;stroke:none"
       id="path28"
       inkscape:connector-curvature="0" /><path
       d="m 299.8193,488.32169 0,29.15674 5.76269,0 0,-29.15674 -5.76269,0 z"
       style="fill:#ed1c24;fill-opacity:1;fill-rule:nonzero;stroke:none"
       id="path30"
       inkscape:connector-curvature="0" /><path
       d="m 309.60055,497.84513 5.6167,0.53711 c 0.33887,-1.91504 1.02392,-3.32226 2.05859,-4.2207 1.03516,-0.89795 2.43164,-1.34668 4.18799,-1.34668 1.86084,0 3.26318,0.3999 4.20654,1.20019 0.94336,0.79981 1.41455,1.73633 1.41455,2.80762 0,0.6875 -0.19824,1.27295 -0.59375,1.75586 -0.39501,0.48242 -1.08642,0.90283 -2.07226,1.25977 -0.67481,0.23877 -2.21338,0.66406 -4.61377,1.27587 -3.08936,0.78467 -5.25635,1.74707 -6.50195,2.88868 -1.75196,1.60547 -2.62793,3.56298 -2.62793,5.87207 0,1.48584 0.41211,2.87548 1.23632,4.16943 0.82227,1.29346 2.00977,2.27881 3.55909,2.95557 1.55078,0.67675 3.42187,1.01562 5.61328,1.01562 3.5791,0 6.27441,-0.8081 8.08447,-2.42285 1.80859,-1.61475 2.75928,-3.77051 2.84961,-6.46582 l -5.76318,-0.19531 c -0.24561,1.49267 -0.77393,2.56543 -1.58252,3.21972 -0.80909,0.65332 -2.02393,0.98047 -3.6416,0.98047 -1.67139,0 -2.9795,-0.35107 -3.92383,-1.05176 -0.60938,-0.45019 -0.91309,-1.05224 -0.91309,-1.80615 0,-0.68799 0.28565,-1.27685 0.85645,-1.76562 0.72656,-0.62207 2.49072,-1.27198 5.29297,-1.94971 2.80029,-0.67773 4.87304,-1.37891 6.21484,-2.104 1.34277,-0.7251 2.39307,-1.71631 3.15137,-2.97315 0.75879,-1.25781 1.13867,-2.81054 1.13867,-4.65869 0,-1.67578 -0.45508,-3.2456 -1.36426,-4.7085 -0.91113,-1.46337 -2.19775,-2.55078 -3.86328,-3.2622 -1.66358,-0.71143 -3.73731,-1.06787 -6.2207,-1.06787 -3.61426,0 -6.39014,0.85644 -8.32715,2.57031 -1.93799,1.71338 -3.09522,4.20996 -3.47217,7.49072 z"
       style="fill:#ed1c24;fill-opacity:1;fill-rule:nonzero;stroke:none"
       id="path32"
       inkscape:connector-curvature="0" /><path
       d="m 337.57028,488.32169 0,29.15674 5.76318,0 0,-29.15674 -5.76318,0 z"
       style="fill:#ed1c24;fill-opacity:1;fill-rule:nonzero;stroke:none"
       id="path34"
       inkscape:connector-curvature="0" /><path
       d="m 348.86666,488.32169 0,29.15674 12.13037,0 c 3.04932,0 5.26514,-0.26269 6.64795,-0.78662 1.38282,-0.52441 2.48926,-1.45703 3.31983,-2.79687 0.83008,-1.34034 1.24658,-2.87305 1.24658,-4.59766 0,-2.19043 -0.62695,-3.99805 -1.87842,-5.42432 -1.25146,-1.42675 -3.12305,-2.32617 -5.61377,-2.69677 1.24268,-0.7417 2.2666,-1.55664 3.0752,-2.44434 0.80908,-0.88721 1.89892,-2.46338 3.27099,-4.72803 l 3.49073,-5.68213 -6.90479,0 -4.13623,6.36573 c -1.48828,2.25439 -2.50586,3.67529 -3.05371,4.26172 -0.54834,0.58691 -1.12793,0.98925 -1.7417,1.20654 -0.61328,0.21777 -1.58545,0.32666 -2.9165,0.32666 l -1.17383,0 0,-12.16065 -5.7627,0 m 5.7627,16.8003 4.25683,0 c 2.75928,0 4.48389,0.11914 5.1709,0.35888 0.68653,0.23975 1.22364,0.65186 1.61328,1.2378 0.3877,0.58545 0.58301,1.31689 0.58301,2.19531 0,0.98437 -0.25683,1.77881 -0.76806,2.38379 -0.5127,0.60547 -1.23438,0.98779 -2.167,1.14795 -0.46728,0.0664 -1.8667,0.1001 -4.19873,0.1001 l -4.49023,0 0,-7.42383 z"
       style="fill:#ed1c24;fill-opacity:1;fill-rule:nonzero;stroke:none"
       id="path36"
       inkscape:connector-curvature="0" /><path
       d="m 387.30807,497.84513 5.61621,0.53711 c 0.33789,-1.91504 1.02344,-3.32226 2.05859,-4.2207 1.03516,-0.89795 2.43067,-1.34668 4.1875,-1.34668 1.86036,0 3.26368,0.3999 4.20606,1.20019 0.94336,0.79981 1.41601,1.73633 1.41601,2.80762 0,0.6875 -0.19824,1.27295 -0.59375,1.75586 -0.3955,0.48242 -1.08691,0.90283 -2.07324,1.25977 -0.6748,0.23877 -2.21191,0.66406 -4.61328,1.27587 -3.08984,0.78467 -5.25586,1.74707 -6.50195,2.88868 -1.75196,1.60547 -2.62793,3.56298 -2.62793,5.87207 0,1.48584 0.41113,2.87548 1.23535,4.16943 0.82422,1.29346 2.00977,2.27881 3.56055,2.95557 1.5498,0.67675 3.42089,1.01562 5.61328,1.01562 3.5791,0 6.27344,-0.8081 8.08398,-2.42285 1.8086,-1.61475 2.75879,-3.77051 2.84961,-6.46582 l -5.76269,-0.19531 c -0.24707,1.49267 -0.77442,2.56543 -1.58399,3.21972 -0.80859,0.65332 -2.02246,0.98047 -3.6416,0.98047 -1.66992,0 -2.97852,-0.35107 -3.92383,-1.05176 -0.6084,-0.45019 -0.91211,-1.05224 -0.91211,-1.80615 0,-0.68799 0.28516,-1.27685 0.85547,-1.76562 0.72656,-0.62207 2.49121,-1.27198 5.29297,-1.94971 2.80176,-0.67773 4.87402,-1.37891 6.21582,-2.104 1.34277,-0.7251 2.39356,-1.71631 3.15137,-2.97315 0.75879,-1.25781 1.13867,-2.81054 1.13867,-4.65869 0,-1.67578 -0.45508,-3.2456 -1.36523,-4.7085 -0.91016,-1.46337 -2.19727,-2.55078 -3.86133,-3.2622 -1.66504,-0.71143 -3.73828,-1.06787 -6.22168,-1.06787 -3.61426,0 -6.3916,0.85644 -8.32813,2.57031 -1.93652,1.71338 -3.09375,4.20996 -3.4707,7.49072 z"
       style="fill:#ed1c24;fill-opacity:1;fill-rule:nonzero;stroke:none"
       id="path38"
       inkscape:connector-curvature="0" /><path
       d="m 415.47213,488.32169 0,29.15674 21.19629,0 0,-4.93261 -15.43359,0 0,-6.44678 14.35937,0 0,-4.93262 -14.35937,0 0,-7.91211 15.9707,0 0,-4.93262 -21.7334,0 z"
       style="fill:#ed1c24;fill-opacity:1;fill-rule:nonzero;stroke:none"
       id="path40"
       inkscape:connector-curvature="0" /><path
       d="m 442.26901,488.32169 0,28.9126 5.76269,0 0,-23.97998 14.3584,0 0,-4.93262 -20.12109,0 z"
       style="fill:#ed1c24;fill-opacity:1;fill-rule:nonzero;stroke:none"
       id="path42"
       inkscape:connector-curvature="0" /><path
       d="m 492.26803,488.32169 -6.2793,0 -2.46484,6.64209 -11.3916,0 -2.34863,-6.64209 -6.18458,0 10.97657,29.15674 6.25,0 11.44238,-29.15674 m -10.62793,11.57471 -3.95117,10.79346 -3.81543,-10.79346 7.7666,0 z"
       style="fill:#ed1c24;fill-opacity:1;fill-rule:nonzero;stroke:none"
       id="path44"
       inkscape:connector-curvature="0" /><path
       d="m 498.86569,488.32169 0,24.22413 -8.44922,0 0,4.93261 22.66113,0 0,-4.93261 -8.44922,0 0,-24.22413 -5.76269,0 z"
       style="fill:#ed1c24;fill-opacity:1;fill-rule:nonzero;stroke:none"
       id="path46"
       inkscape:connector-curvature="0" /><path
       d="m 539.59811,488.32169 -6.2793,0 -2.46484,6.64209 -11.3916,0 -2.34766,-6.64209 -6.18555,0 10.97754,29.15674 6.24903,0 11.44238,-29.15674 m -10.62695,11.57471 -3.95215,10.79346 -3.81446,-10.79346 7.76661,0 z"
       style="fill:#ed1c24;fill-opacity:1;fill-rule:nonzero;stroke:none"
       id="path48"
       inkscape:connector-curvature="0" /><path
       d="m 542.71432,488.32169 0,29.15674 5.5791,0 11.80762,-19.60791 0,19.60791 5.32324,0 0,-29.15674 -5.75586,0 -11.63086,19.22022 0,-19.22022 -5.32324,0 z"
       style="fill:#ed1c24;fill-opacity:1;fill-rule:nonzero;stroke:none"
       id="path50"
       inkscape:connector-curvature="0" /><path
       d="m 318.91207,239.02921 1.48047,-5.53711 21.39307,-80.02539 17.54785,0 -20.73779,80.02539 -1.43457,5.53711 111.16552,0 -1.43457,-5.53711 -20.73632,-80.02539 17.54687,0 21.39258,80.02539 1.48047,5.53711 23.58691,88.22852 -194.83594,0 23.58545,-88.22852 m 132.77784,79.2544 21.55566,0 -16.26074,-66.86377 -21.55567,0 16.26075,66.86377 m -69.41797,0 20.94433,0 0,-66.86377 -20.94433,0 0,66.86377 m -32.21289,-66.86377 -21.55616,0 -16.26025,66.86377 21.55615,0 16.26026,-66.86377 z"
       style="fill:#e6c13a;fill-opacity:1;fill-rule:nonzero;stroke:none"
       id="path52"
       inkscape:connector-curvature="0" /><path
       d="m 617.90768,464.55314 c -0.0352,1.67236 -0.0801,3.3501 -0.12695,5.02978 -0.0488,1.74122 -0.10352,3.48584 -0.16504,5.23389 -0.003,0.10108 -0.007,0.20264 -0.0108,0.30371 l -0.19628,0 -5.68848,8.35205 -32.05762,47.06104 -3.77246,5.53808 -366.2915,0 -3.77295,-5.53808 -32.05762,-47.06104 -5.68896,-8.35205 -0.19581,0 c -0.004,-0.10107 -0.008,-0.20263 -0.0107,-0.30371 -0.061,-1.74805 -0.11621,-3.49267 -0.16504,-5.23389 -0.0464,-1.67968 -0.0913,-3.35742 -0.12646,-5.02978 -2.92139,-138.56934 33.94238,-254.80713 104.7456,-328.98584 27.95655,-29.28808 61.01221,-51.856441 98.24805,-67.074211 7.16406,-2.92871 14.49219,-5.58301 21.97363,-7.96973 l 0,-0.12988 c 0.0654,0.02149 0.13086,0.04395 0.19532,0.06445 0.0654,-0.0205 0.13086,-0.04296 0.19629,-0.06445 l 0,0.12988 c 7.48144,2.38672 14.80957,5.04102 21.97363,7.96973 37.23633,15.21777 70.29101,37.786131 98.24804,67.074211 70.80372,74.17871 107.667,190.4165 104.7461,328.98584 m -405.38135,65.98047 360.43604,0 37.74609,-55.41309 -435.9292,0 37.74707,55.41309 M 395.17623,378.26212 c 17.62012,0.14014 38.11817,5.20069 60.05664,14.94385 10.80469,4.79883 21.50293,10.54736 31.73145,17 2.32519,1.4668 4.61914,2.97852 6.8916,4.51563 10.71289,7.24707 20.7959,15.23193 29.77734,23.67382 2.40918,2.26465 4.71094,4.53321 6.9043,6.80274 l -29.29687,-112.40186 -216.99366,0 -29.29541,112.40186 c 2.19287,-2.26953 4.49463,-4.53809 6.90284,-6.80274 8.98291,-8.44189 19.06543,-16.42675 29.77832,-23.67382 2.27246,-1.53711 4.5664,-3.04883 6.8916,-4.51563 10.22803,-6.45264 20.92676,-12.20117 31.73242,-17 21.65674,-9.61816 41.91504,-14.68066 59.38232,-14.94336 1.04395,-0.0156 2.08106,-0.02 3.10547,-9.7e-4 0.80176,-0.0147 1.61719,-0.006 2.43164,4.8e-4 M 389.63912,67.321219 c -5.75097,1.93847 -11.41504,4.02734 -16.96875,6.29687 -36.51025,14.92383 -68.92285,37.051751 -96.3374,65.772451 -70.65625,74.02344 -107.00586,190.83154 -103.08545,330.19238 l 216.3916,0 0,-85.74853 c -27.15332,0.59424 -62.1123,13.70801 -93.17236,34.31006 -2.3418,1.55371 -4.6665,3.14111 -6.9585,4.77783 -8.40185,5.99707 -16.43896,12.53271 -23.86084,19.5083 -5.07031,4.76611 -9.63671,9.53565 -13.69482,14.27246 -3.1958,3.73047 -6.07275,7.43945 -8.61865,11.11035 l 3.57422,-13.7124 31.6167,-121.30469 1.44287,-5.53857 9.62744,0 23.58545,-88.22852 1.47949,-5.53711 21.39307,-80.02539 1.48047,-5.53711 28.95507,0 -1.43506,5.53711 -20.73681,80.02539 45.32226,0 0,-166.170881 m 3.1045,-1.03907 -0.0615,0.02051 0.12305,0 -0.0615,-0.02051 m -55.58252,172.747061 1.43457,-5.53711 20.73779,-80.02539 -17.54785,0 -21.39307,80.02539 -1.48047,5.53711 -23.58545,88.22852 194.83594,0 -23.58691,-88.22852 -1.48047,-5.53711 -21.39258,-80.02539 -17.54687,0 20.73632,80.02539 1.43457,5.53711 -111.16552,0 m 171.99458,-99.63867 c -27.41504,-28.7207 -59.82715,-50.848621 -96.3379,-65.772451 -5.76953,-2.35644 -11.6582,-4.52246 -17.6416,-6.52148 l 0,166.395491 45.9961,0 -20.73731,-80.02539 -1.43554,-5.53711 28.95507,0 1.48047,5.53711 21.39258,80.02539 1.48047,5.53711 23.58594,88.22852 9.62597,0 1.44434,5.53857 31.61621,121.30469 3.57422,13.7124 c -2.5459,-3.6709 -5.42285,-7.37988 -8.61914,-11.11035 -4.0586,-4.73681 -8.62403,-9.50635 -13.69434,-14.27246 -7.42187,-6.97559 -15.45898,-13.51123 -23.86133,-19.5083 -2.29199,-1.63672 -4.61621,-3.22412 -6.958,-4.77783 -31.31739,-20.77246 -66.59668,-33.93213 -93.84571,-34.32227 l 0,85.76074 217.06446,0 C 616.16158,330.22208 579.811,213.41398 509.15573,139.39054 m -35.91016,178.89307 -21.55566,0 -16.26075,-66.86377 21.55567,0 16.26074,66.86377 m -161.00293,0 16.26025,-66.86377 21.55616,0 -16.26026,66.86377 -21.55615,0 m 70.0293,-66.86377 20.94433,0 0,66.86377 -20.94433,0 0,-66.86377 m 3.71386,121.41748 c -17.54882,0.8623 -37.05517,6.01123 -57.97754,15.30273 -10.97265,4.87305 -21.88671,10.71924 -32.43798,17.37647 -2.18506,1.37842 -4.4878,2.88721 -7.03955,4.61328 -8.27832,5.59961 -16.11084,11.59619 -23.375,17.86719 4.92431,-18.89209 19.77929,-75.88672 23.37109,-89.66797 l 208.43359,0 c 3.5918,13.7793 18.44825,70.77881 23.37207,89.66943 -7.26269,-6.27051 -15.0957,-12.26855 -23.37597,-17.86865 -2.54395,-1.7207 -4.84571,-3.22949 -7.03809,-4.61231 -10.55664,-6.65966 -21.4707,-12.50683 -32.44043,-17.37744 -20.9209,-9.2915 -40.42676,-14.44043 -57.97558,-15.30273 -1.42676,-0.0698 -2.87696,-0.0991 -4.32618,-0.10889 -0.54199,-0.004 -1.08593,-0.0137 -1.62695,-0.009 l -0.28516,-10e-4 c -0.15429,-4.9e-4 -0.33496,0 -0.5205,10e-4 -0.18653,-10e-4 -0.36621,-0.002 -0.52051,-10e-4 0,0 -0.28418,10e-4 -0.2793,10e-4 -0.76758,-0.007 -1.53613,0.002 -2.30469,0.0122 -1.22558,0.0161 -2.44824,0.0464 -3.65332,0.10547 z"
       style="fill:#000000;fill-opacity:1;fill-rule:nonzero;stroke:none"
       id="path54"
       inkscape:connector-curvature="0" /><path
       d="m 523.63326,438.39542 c -8.98144,-8.44189 -19.06445,-16.42675 -29.77734,-23.67382 -2.27246,-1.53711 -4.56641,-3.04883 -6.8916,-4.51563 -10.22852,-6.45264 -20.92676,-12.20117 -31.73145,-17 -21.93847,-9.74316 -42.43652,-14.80371 -60.05664,-14.94385 -0.81445,-0.006 -1.62988,-0.0151 -2.43164,-4.8e-4 -1.02441,-0.019 -2.06152,-0.0147 -3.10547,9.7e-4 -17.46728,0.2627 -37.72558,5.3252 -59.38232,14.94336 -10.80566,4.79883 -21.50439,10.54736 -31.73242,17 -2.3252,1.4668 -4.61914,2.97852 -6.8916,4.51563 -10.71289,7.24707 -20.79541,15.23193 -29.77832,23.67382 -2.40821,2.26465 -4.70997,4.53321 -6.90284,6.80274 l 29.29541,-112.40186 216.99366,0 29.29687,112.40186 c -2.19336,-2.26953 -4.49512,-4.53809 -6.9043,-6.80274 m -26.67285,-100.0664 -208.43359,0 c -3.5918,13.78125 -18.44678,70.77588 -23.37109,89.66797 7.26416,-6.271 15.09668,-12.26758 23.375,-17.86719 2.55175,-1.72607 4.85449,-3.23486 7.03955,-4.61328 10.55127,-6.65723 21.46533,-12.50342 32.43798,-17.37647 20.92237,-9.2915 40.42872,-14.44043 57.97754,-15.30273 1.20508,-0.0591 2.42774,-0.0894 3.65332,-0.10547 0.76856,-0.01 1.53711,-0.019 2.30469,-0.0122 -0.005,0 0.2793,-10e-4 0.2793,-10e-4 0.1543,-4.9e-4 0.33398,0 0.52051,10e-4 0.18554,-10e-4 0.36621,-0.002 0.5205,-10e-4 l 0.28516,10e-4 c 0.54102,-0.005 1.08496,0.005 1.62695,0.009 1.44922,0.01 2.89942,0.0391 4.32618,0.10889 17.54882,0.8623 37.05468,6.01123 57.97558,15.30273 10.96973,4.87061 21.88379,10.71778 32.44043,17.37744 2.19238,1.38282 4.49414,2.89161 7.03809,4.61231 8.28027,5.6001 16.11328,11.59814 23.37597,17.86865 -4.92382,-18.89062 -19.78027,-75.89013 -23.37207,-89.66943 z"
       style="fill:#ffffff;fill-opacity:1;fill-rule:nonzero;stroke:none"
       id="path56"
       inkscape:connector-curvature="0" /></g></svg>