<?xml version="1.0" encoding="UTF-8" standalone="no"?>
<svg
   xmlns:dc="http://purl.org/dc/elements/1.1/"
   xmlns:cc="http://creativecommons.org/ns#"
   xmlns:rdf="http://www.w3.org/1999/02/22-rdf-syntax-ns#"
   xmlns:svg="http://www.w3.org/2000/svg"
   xmlns="http://www.w3.org/2000/svg"
   xmlns:xlink="http://www.w3.org/1999/xlink"
   xmlns:sodipodi="http://sodipodi.sourceforge.net/DTD/sodipodi-0.dtd"
   xmlns:inkscape="http://www.inkscape.org/namespaces/inkscape"
   width="240.952"
   height="250.806"
   viewBox="0 0 63.752 66.359"
   version="1.1"
   id="svg482"
   sodipodi:docname="Coat of arms of Cirebon Regency (1).svg"
   inkscape:version="1.0.1 (3bc2e813f5, 2020-09-07)">
  <metadata
     id="metadata486">
    <rdf:RDF>
      <cc:Work
         rdf:about="">
        <dc:format>image/svg+xml</dc:format>
        <dc:type
           rdf:resource="http://purl.org/dc/dcmitype/StillImage" />
      </cc:Work>
    </rdf:RDF>
  </metadata>
  <sodipodi:namedview
     pagecolor="#ffffff"
     bordercolor="#666666"
     borderopacity="1"
     objecttolerance="10"
     gridtolerance="10"
     guidetolerance="10"
     inkscape:pageopacity="0"
     inkscape:pageshadow="2"
     inkscape:window-width="1366"
     inkscape:window-height="705"
     id="namedview484"
     showgrid="false"
     inkscape:zoom="2.3053787"
     inkscape:cx="128.284"
     inkscape:cy="90.153486"
     inkscape:window-x="-8"
     inkscape:window-y="-8"
     inkscape:window-maximized="1"
     inkscape:current-layer="svg482"
     inkscape:document-rotation="0" />
  <style
     id="style2"><![CDATA[.B{opacity:.998}.C{fill:red}.D{stroke:#8b0000}.E{fill:#fff}.F{fill:#e30000}.G{fill:#026336}.H{stroke-width:.265}.I{fill-rule:evenodd}.J{stroke-width:.067}.K{fill:#dcdcdc}.L{stroke:#b5b5b5}.M{stroke-width:.465}.N{stroke:#013d21}.O{opacity:.999}.P{stroke-width:.231}]]></style>
  <defs
     id="defs26">
    <linearGradient
       id="A"
       gradientUnits="userSpaceOnUse">
      <stop
         offset="0"
         stop-color="#755d00"
         id="stop4" />
      <stop
         offset="1"
         stop-color="#f8c400"
         id="stop6" />
    </linearGradient>
    <filter
       id="B"
       x="-0.17442513"
       width="1.6027926"
       y="-0.75390816"
       height="2.5394931"
       color-interpolation-filters="sRGB">
      <feGaussianBlur
         stdDeviation=".001"
         id="feGaussianBlur9" />
    </filter>
    <linearGradient
       xlink:href="#A"
       id="C"
       x1="93.337"
       y1="146.416"
       x2="80.709"
       y2="146.416" />
    <linearGradient
       xlink:href="#A"
       id="D"
       x1="116.663"
       y1="146.416"
       x2="129.291"
       y2="146.416" />
    <path
       id="E"
       d="M88.545 92.239a5.917 5.873 0 0 1-5.916 5.873v34.436c0 12.296 18.777 11.181 22.371 16.472 3.594-5.292 22.371-4.176 22.371-16.472V98.112a5.917 5.873 0 0 1-5.916-5.873H105z" />
    <path
       id="F"
       d="M93.326 109.518l-.002.026-.466 1.437.471.651-2.009-.651h-.007l.016.007 1.229.892.771-.249-1.247 1.715.025-.028-.018.028 1.241-.901-.001-.814 1.242 1.715-.018-.028.025.028-.477-1.467-.772-.249 2.001-.644.016-.007h-.007-1.538l-.473.651.006-2.087-.002-.026-.003.009z" />
    <path
       id="G"
       d="M94.167 104.423l-.002.026-.466 1.437h-1.538-.007l.016.007 1.229.892-.477 1.467.025-.028-.018.028 1.241-.901 1.241.901-.018-.028.025.028-.477-1.467 1.229-.892.016-.007h-.007-1.538l-.466-1.437-.002-.026-.003.009z" />
    <path
       id="H"
       d="M88.657 99.219c.096.715.636 1.022.012 2.397-.319-.814-.082-1.602-.012-2.397z" />
    <path
       id="I"
       d="M100.26 126.66h2.376v.912h-2.376z" />
    <path
       id="J"
       d="M94.319 125.749h-2.376v.912h2.376z" />
    <path
       id="K"
       d="M102.636 125.749h-1.188v.912h1.188z" />
    <path
       id="L"
       d="M102.636 110.253h-2.762v.912h2.762z" />
    <path
       id="M"
       d="M102.636 109.342h-2.368v.912h2.368z" />
    <path
       id="N"
       d="M316.755 126.73c-.661-.394-1.477-.618-1.939-1.27-.537-.57-1.394-.192-1.601.479-.423.406-.461 1.022-.81 1.468-1.081.166-.865 1.39-1.002 2.205.024.892.203 1.829.702 2.581.689.693.967 1.666 1.575 2.418a5.91 5.91 0 0 0 1.938-.03c.638-.184 1.31-.217 1.922-.504.724-.165 1.403-.398 1.801-1.029.646-.395 1.376-.841 1.409-1.692.165-.647-.219-1.197-.355-1.795-.071-.643-1.008-.787-.944-1.489-.006-.661-.069-1.549-.826-1.786-.742-.308-1.235.308-1.87.444z" />
    <path
       id="O"
       d="M310.767 129.461c.158 2.529-.536 5.152 1.834 7.435 5.462-.843 5.197-1.887 6.394-4.114h-1.933c.773-.578.649-1.156.892-1.735-.442.132-.904.287-1.09.099-.681-.328-.532-1.072-.446-1.784-.792.203-1.554.623-2.28 1.289-.127-.442-.356-.914-.942-1.487l-.446 1.784c-1.416-.26-1.567-.915-1.983-1.487z" />
    <path
       id="P"
       d="M314.459 126.463c-1.069.294-1.545 1.601-2.33 2.236-.194.812.425.89.549.134.946-.954 1.628 1.52 2.569.139.863-1.027 1.873-.147 1.846.937.512.702 2.005.201 1.492 1.634.308 1.59 2.019-.723.988-1.499-1.15-.617-.884-1.986-1.546-2.882-1.056-.012-2.361.535-3.133-.603l-.21-.075z" />
  </defs>
  <path
     id="use28"
     d="M 15.421,0.333 A 5.917,5.873 0 0 1 9.505,6.206 v 34.436 c 0,12.296 18.777,11.181 22.371,16.472 3.594,-5.292 22.371,-4.176 22.371,-16.472 V 6.206 A 5.917,5.873 0 0 1 48.331,0.333 H 31.876 Z"
     style="fill:#f8c400" />
  <path
     d="M 54.247,35.666 H 9.505 v 4.976 c 0,12.296 18.777,11.181 22.371,16.472 3.594,-5.292 22.371,-4.176 22.371,-16.472 z"
     class="B E I"
     id="path30" />
  <path
     id="path32"
     style="stroke-width:0.999997;fill:#1e90ff"
     d="m 43.730469,136.65234 v 0.002 c -3.059991,0 -5.599648,0.3203 -7.806641,0.77929 v 7.04297 c 2.103994,-0.559 4.468651,-0.93554 7.806641,-0.93554 5.549983,0 8.415854,1.02733 11.839843,2.23632 3.42399,1.209 7.445051,2.62696 13.582032,2.62696 6.136981,0 10.159995,-1.41696 13.583984,-2.62696 3.423989,-1.20999 6.297674,-2.23632 11.847656,-2.23632 5.549986,0 8.415856,1.02733 11.839846,2.23632 3.42399,1.209 7.44505,2.62696 13.58203,2.62696 6.13698,0 10.15999,-1.41696 13.58398,-2.62696 3.42399,-1.20999 6.29768,-2.23632 11.84766,-2.23632 5.54998,0 8.41585,1.02733 11.83984,2.23632 3.42399,1.209 7.44701,2.62696 13.58399,2.62696 6.13698,0 10.15804,-1.41696 13.58203,-2.62696 3.42399,-1.20999 6.29767,-2.23632 11.84766,-2.23632 3.84098,0 6.39133,0.49717 8.73632,1.20117 v -7.10352 c -2.41299,-0.571 -5.23434,-0.98633 -8.73632,-0.98633 -6.47898,0 -10.68255,1.40787 -14.14454,2.63086 -3.46198,1.223 -6.13817,2.23438 -11.28515,2.23438 -5.14699,0 -7.82612,-1.01238 -11.28711,-2.23438 -3.46099,-1.22199 -7.65774,-2.63086 -14.13672,-2.63086 -6.47898,0 -10.68254,1.40787 -14.14453,2.63086 -3.46199,1.223 -6.14013,2.23438 -11.28711,2.23438 -5.14698,0 -7.82417,-1.01238 -11.28516,-2.23438 -3.46099,-1.22199 -7.65774,-2.63086 -14.136716,-2.63086 -6.478979,0 -10.682542,1.40787 -14.144531,2.63086 -3.461989,1.223 -6.140125,2.23438 -11.287109,2.23438 -5.146984,0 -7.82612,-1.01238 -11.28711,-2.23438 -3.460989,-1.22199 -7.655785,-2.63086 -14.134765,-2.63086 z m 0.9375,14.00586 c -3.503989,0 -6.329148,0.41729 -8.744141,0.98828 v 1.96094 c 0,1.756 0.112594,3.43088 0.308594,5.04688 2.263993,-0.655 4.763511,-1.10938 8.4375,-1.10938 5.549983,0 8.415854,1.02733 11.839844,2.23633 3.423989,1.209 7.44505,2.62891 13.582031,2.62891 6.136981,0 10.159995,-1.41891 13.583984,-2.62891 3.42399,-1.21 6.297674,-2.23633 11.847657,-2.23633 5.549982,0 8.415852,1.02733 11.839842,2.23633 3.42399,1.209 7.44505,2.62891 13.58203,2.62891 6.13698,0 10.16,-1.41891 13.58399,-2.62891 3.42399,-1.21 6.29767,-2.23633 11.84765,-2.23633 5.54999,0 8.41586,1.02733 11.83985,2.23633 3.42399,1.209 7.447,2.62891 13.58398,2.62891 6.13698,0 10.15804,-1.41891 13.58203,-2.62891 3.42399,-1.21 6.29768,-2.23633 11.84766,-2.23633 3.19299,0 5.48849,0.34624 7.52148,0.86524 0.18416,-1.5943 0.27676,-3.19784 0.27735,-4.80274 v -2.17187 c -2.204,-0.459 -4.74084,-0.77735 -7.79883,-0.77735 -6.47898,0 -10.6845,1.40396 -14.14649,2.62696 -3.46198,1.22299 -6.13817,2.23828 -11.28515,2.23828 -5.14699,0 -7.82417,-1.01629 -11.28516,-2.23828 -3.46099,-1.222 -7.65969,-2.62696 -14.13867,-2.62696 -6.47898,0 -10.68254,1.40396 -14.14453,2.62696 -3.46199,1.22299 -6.14013,2.23828 -11.28711,2.23828 -5.14698,0 -7.82612,-1.01629 -11.28711,-2.23828 -3.46099,-1.222 -7.65579,-2.62696 -14.134766,-2.62696 -6.478979,0 -10.682542,1.40396 -14.144531,2.62696 -3.461989,1.22299 -6.140125,2.23828 -11.287109,2.23828 -5.146984,0 -7.82612,-1.01629 -11.28711,-2.23828 -3.460989,-1.222 -7.655785,-2.62696 -14.134765,-2.62696 z m 0,14.42383 c -2.641992,0 -4.891866,0.23961 -6.88086,0.59961 0.754397,2.26537 1.752428,4.44218 2.976563,6.49219 1.155996,-0.129 2.432301,-0.20508 3.904297,-0.20508 5.549983,0 8.415854,1.02929 11.839843,2.23828 3.42399,1.209 7.445051,2.62695 13.582032,2.62695 6.136981,0 10.159995,-1.41695 13.583984,-2.62695 3.423989,-1.20999 6.297674,-2.23828 11.847656,-2.23828 5.549986,0 8.415856,1.02929 11.839846,2.23828 3.42399,1.209 7.44505,2.62695 13.58203,2.62695 6.13698,0 10.15999,-1.41695 13.58398,-2.62695 3.42399,-1.20999 6.29768,-2.23828 11.84766,-2.23828 5.54998,0 8.41585,1.02929 11.83984,2.23828 3.42399,1.209 7.44701,2.62695 13.58399,2.62695 6.13698,0 10.15804,-1.41695 13.58203,-2.62695 3.42399,-1.20999 6.29963,-2.23828 11.84961,-2.23828 1.109,0 2.08681,0.052 3.00781,0.12695 1.22931,-2.07158 2.2281,-4.27154 2.97852,-6.56054 -1.767,-0.274 -3.73134,-0.45118 -5.98633,-0.45118 -6.47898,0 -10.6845,1.40591 -14.14649,2.62891 -3.46198,1.223 -6.13817,2.23438 -11.28515,2.23438 -5.14699,0 -7.82417,-1.01238 -11.28516,-2.23438 -3.46099,-1.222 -7.65969,-2.62891 -14.13867,-2.62891 -6.47898,0 -10.68254,1.40591 -14.14453,2.62891 -3.46199,1.223 -6.14013,2.23438 -11.28711,2.23438 -5.14698,0 -7.82612,-1.01238 -11.28711,-2.23438 -3.46099,-1.222 -7.65579,-2.62891 -14.134766,-2.62891 -6.478979,0 -10.682542,1.40591 -14.144531,2.62891 -3.461989,1.223 -6.140125,2.23438 -11.287109,2.23438 -5.146984,0 -7.82612,-1.01238 -11.28711,-2.23438 -3.460989,-1.222 -7.655785,-2.62891 -14.134765,-2.62891 z m 50.853515,13.67188 c -6.478979,0 -10.682542,1.40395 -14.144531,2.62695 -3.461989,1.223 -6.140125,2.23633 -11.287109,2.23633 -5.146984,0 -7.82612,-1.01433 -11.28711,-2.23633 -3.23799,-1.144 -7.145518,-2.4327 -12.9375,-2.5957 4.058988,4.18398 9.122611,7.55311 14.683594,10.41211 2.584992,0.73099 5.632981,1.30859 9.542969,1.30859 6.136981,0 10.159995,-1.41891 13.583984,-2.62891 3.42399,-1.20999 6.297674,-2.23633 11.847657,-2.23633 5.549982,0 8.415852,1.02734 11.839842,2.23633 3.42399,1.209 7.44505,2.62891 13.58203,2.62891 6.13698,0 10.16,-1.41891 13.58399,-2.62891 3.42399,-1.20999 6.29767,-2.23633 11.84765,-2.23633 5.54999,0 8.41586,1.02734 11.83985,2.23633 3.42399,1.209 7.447,2.62891 13.58398,2.62891 3.00999,0 5.50574,-0.34399 7.67774,-0.83398 5.91598,-2.952 11.30399,-6.45539 15.58398,-10.85938 -5.27398,0.27 -8.91857,1.48836 -11.97656,2.56836 -3.46099,1.223 -6.13817,2.23633 -11.28516,2.23633 -5.14698,0 -7.82612,-1.01433 -11.28711,-2.23633 -3.46099,-1.222 -7.65774,-2.62695 -14.13672,-2.62695 -6.47898,0 -10.68254,1.40395 -14.14453,2.62695 -3.46199,1.223 -6.14012,2.23633 -11.28711,2.23633 -5.14698,0 -7.82612,-1.01433 -11.28711,-2.23633 -3.46099,-1.222 -7.65578,-2.62695 -14.134762,-2.62695 z m 0,14.60742 c -6.478979,0 -10.682542,1.41372 -14.144531,2.63672 l -2.28125,0.78711 11.605469,3.79882 c 1.388996,-0.20199 2.944318,-0.32812 4.820312,-0.32812 5.549986,0 8.415856,1.02928 11.839846,2.23828 3.42399,1.209 7.44505,2.62695 13.58203,2.62695 6.13698,0 10.15999,-1.41695 13.58398,-2.62695 3.42399,-1.21 6.29768,-2.23828 11.84766,-2.23828 1.582,0 2.92939,0.0913 4.15039,0.23828 l 11.80078,-3.86914 -1.81445,-0.62695 c -3.46099,-1.223 -7.65774,-2.63672 -14.13672,-2.63672 -6.47898,0 -10.68254,1.41372 -14.14453,2.63672 -3.46199,1.22299 -6.14013,2.22851 -11.28711,2.22851 -5.14698,0 -7.82612,-1.00552 -11.28711,-2.22851 -3.46099,-1.223 -7.65579,-2.63672 -14.134766,-2.63672 z"
     transform="matrix(0.26458382,0,0,0.26458382,0,-1.0500816e-4)"
     sodipodi:nodetypes="ccccsssssssssssssccsssssssssssscscscssssssssssssscccssssssssssssscccsssssssssssssccssssssssssssccssscccssssssssscccssssssssscccssssscccsssss" />
  <path
     id="use34"
     d="M 15.421,0.333 A 5.917,5.873 0 0 1 9.505,6.206 v 34.436 c 0,12.296 18.777,11.181 22.371,16.472 3.594,-5.292 22.371,-4.176 22.371,-16.472 V 6.206 A 5.917,5.873 0 0 1 48.331,0.333 H 31.876 Z"
     style="fill:none;stroke:#000000;stroke-width:0.666" />
  <path
     d="m 31.804,7.172 c 0.118,1.243 -0.153,1.224 -0.37,1.654 -1.887,3.747 -1.048,5.585 0.44,7.598 -1.229,2.812 -0.27,4.732 0.998,4.082 1.268,-0.65 -0.044,-1.951 -0.612,-1.839 -0.018,-1.927 1.198,-2.573 1.122,-4.556 -0.066,-1.694 -0.854,-2.919 -0.35,-4.171 -0.274,0.04 -0.96,0.608 -0.927,2.101 -0.557,-1.306 0.698,-3.557 -0.299,-4.87 z"
     class="B"
     id="path36" />
  <g
     id="g1581">
    <path
       d="m 31.871,2.082 -0.003,0.037 -0.66,2.032 h -2.175 -0.01 l 0.023,0.01 1.738,1.262 -0.674,2.075 0.035,-0.04 -0.025,0.04 1.756,-1.275 1.755,1.275 -0.025,-0.04 0.035,0.04 -0.674,-2.075 1.738,-1.262 0.023,-0.01 h -0.01 -2.175 L 31.883,2.119 31.88,2.082 31.876,2.095 Z"
       stroke-width="0.095"
       class="B C D"
       id="path38"
       style="fill-rule:evenodd;" />
    <path
       d="m 31.871,2.082 -0.003,0.037 -0.66,2.032 0.666,0.92 -2.841,-0.92 h -0.01 l 0.023,0.01 1.738,1.262 1.09,-0.352 -1.764,2.426 0.035,-0.04 -0.025,0.04 1.756,-1.274 -0.001,-1.151 1.756,2.426 -0.025,-0.04 0.035,0.04 -0.674,-2.075 -1.092,-0.352 2.831,-0.91 0.023,-0.01 h -0.01 -2.175 l -0.668,0.92 0.008,-2.952 -0.003,-0.037 -0.004,0.013 z"
       class="B F"
       id="path40"
       style="fill-rule:evenodd;" />
    <path
       d="m 20.202,17.612 -0.002,0.026 -0.466,1.437 h -1.538 -0.007 l 0.016,0.007 1.229,0.892 -0.477,1.467 0.025,-0.028 -0.018,0.028 1.241,-0.901 1.241,0.901 -0.018,-0.028 0.025,0.028 -0.477,-1.467 1.229,-0.892 0.016,-0.007 h -0.007 -1.538 l -0.466,-1.437 -0.002,-0.026 -0.003,0.009 z"
       class="B C D J"
       id="path42"
       style="fill-rule:evenodd;" />
    <path
       id="use44"
       d="m 20.202,17.612 -0.002,0.026 -0.466,1.437 0.471,0.651 -2.009,-0.651 h -0.007 l 0.016,0.007 1.229,0.892 0.771,-0.249 -1.247,1.715 0.025,-0.028 -0.018,0.028 1.241,-0.901 -0.001,-0.814 1.242,1.715 -0.018,-0.028 0.025,0.028 -0.477,-1.467 -0.772,-0.249 2.001,-0.644 0.016,-0.007 h -0.007 -1.538 l -0.473,0.651 0.006,-2.087 -0.002,-0.026 -0.003,0.009 z"
       style="opacity:0.998;fill:#e30000;fill-rule:evenodd" />
    <path
       id="use46"
       d="m 21.043,12.517 -0.002,0.026 -0.466,1.437 H 19.037 19.03 l 0.016,0.007 1.229,0.892 -0.477,1.467 0.025,-0.028 -0.018,0.028 1.241,-0.901 1.241,0.901 -0.018,-0.028 0.025,0.028 -0.477,-1.467 1.229,-0.892 0.016,-0.007 h -0.007 -1.538 l -0.466,-1.437 -0.002,-0.026 -0.003,0.009 z"
       style="opacity:0.998;fill:#ff0000;fill-rule:evenodd;stroke:#8b0000;stroke-width:0.067" />
    <path
       id="use48"
       d="m 21.043,12.517 -0.002,0.026 -0.466,1.437 0.471,0.651 -2.009,-0.651 H 19.03 l 0.016,0.007 1.229,0.892 0.771,-0.249 -1.247,1.715 0.025,-0.028 -0.018,0.028 1.241,-0.901 -0.001,-0.814 1.242,1.715 -0.018,-0.028 0.025,0.028 -0.477,-1.467 -0.772,-0.249 2.001,-0.644 0.016,-0.007 h -0.007 -1.538 l -0.473,0.651 0.006,-2.087 -0.002,-0.026 -0.003,0.009 z"
       style="opacity:0.998;fill:#e30000;fill-rule:evenodd" />
    <path
       id="use50"
       d="m 23.391,8.1709998 -0.002,0.026 -0.466,1.437 h -1.538 -0.007 l 0.016,0.007 L 22.623,10.533 22.146,12 22.171,11.972 22.153,12 23.394,11.099 24.635,12 24.617,11.972 24.642,12 l -0.477,-1.467 1.229,-0.8920002 0.016,-0.007 h -0.007 -1.538 l -0.466,-1.437 -0.002,-0.026 -0.003,0.009 z"
       style="opacity:0.998;fill:#ff0000;fill-rule:evenodd;stroke:#8b0000;stroke-width:0.067" />
    <path
       id="use52"
       d="m 23.391,8.171 -0.002,0.026 -0.466,1.437 0.471,0.651 -2.009,-0.651 h -0.007 l 0.016,0.007 1.229,0.892 0.771,-0.249 -1.247,1.715 0.025,-0.028 -0.018,0.028 1.241,-0.901 -0.001,-0.814 1.242,1.715 -0.018,-0.028 0.025,0.028 -0.477,-1.467 -0.772,-0.249 2.001,-0.644 0.016,-0.007 H 25.404 23.866 L 23.393,10.283 23.399,8.196 23.397,8.17 23.394,8.179 Z"
       style="opacity:0.998;fill:#e30000;fill-rule:evenodd" />
    <path
       id="use54"
       d="m 27.071,4.9110001 -0.002,0.026 -0.466,1.437 h -1.538 -0.007 l 0.016,0.007 1.229,0.892 -0.477,1.467 0.025,-0.028 -0.018,0.028 1.241,-0.901 1.241,0.901 -0.018,-0.028 0.025,0.028 -0.477,-1.467 1.229,-0.892 0.016,-0.007 h -0.007 -1.538 l -0.466,-1.437 -0.002,-0.026 -0.003,0.009 z"
       style="opacity:0.998;fill:#ff0000;fill-rule:evenodd;stroke:#8b0000;stroke-width:0.067" />
    <path
       id="use56"
       d="m 27.071,4.9109998 -0.002,0.026 -0.466,1.437 0.471,0.651 -2.009,-0.651 h -0.007 l 0.016,0.007 1.229,0.892 0.771,-0.249 -1.247,1.715 0.025,-0.028 -0.018,0.028 1.241,-0.901 -10e-4,-0.814 1.242,1.715 -0.018,-0.028 0.025,0.028 -0.477,-1.467 -0.772,-0.249 2.001,-0.644 0.016,-0.007 h -0.007 -1.538 l -0.473,0.651 0.006,-2.087 -0.002,-0.026 -0.003,0.009 z"
       style="opacity:0.998;fill:#e30000;fill-rule:evenodd" />
    <path
       id="use60"
       d="m 43.549837,17.612 0.002,0.026 0.466,1.437 h 1.538 0.007 l -0.016,0.007 -1.229,0.892 0.477,1.467 -0.025,-0.028 0.018,0.028 -1.241,-0.901 -1.241,0.901 0.018,-0.028 -0.025,0.028 0.477,-1.467 -1.229,-0.892 -0.016,-0.007 h 0.007 1.538 l 0.466,-1.437 0.002,-0.026 0.003,0.009 z"
       style="opacity:0.998;fill:#ff0000;fill-rule:evenodd;stroke:#8b0000;stroke-width:0.067" />
    <path
       id="use62"
       d="m 43.549841,17.612 0.002,0.026 0.466,1.437 -0.471,0.651 2.009,-0.651 h 0.007 l -0.016,0.007 -1.229,0.892 -0.771,-0.249 1.247,1.715 -0.025,-0.028 0.018,0.028 -1.241,-0.901 10e-4,-0.814 -1.242,1.715 0.018,-0.028 -0.025,0.028 0.477,-1.467 0.772,-0.249 -2.001,-0.644 -0.016,-0.007 h 0.007 1.538 l 0.473,0.651 -0.006,-2.087 0.002,-0.026 0.003,0.009 z"
       style="opacity:0.998;fill:#e30000;fill-rule:evenodd" />
    <path
       id="use66"
       d="m 42.708707,12.516507 0.002,0.026 0.466,1.437 h 1.538 0.007 l -0.016,0.007 -1.229,0.892 0.477,1.467 -0.025,-0.028 0.018,0.028 -1.241,-0.901 -1.241,0.901 0.018,-0.028 -0.025,0.028 0.477,-1.467 -1.229,-0.892 -0.016,-0.007 h 0.007 1.538 l 0.466,-1.437 0.002,-0.026 0.003,0.009 z"
       style="opacity:0.998;fill:#ff0000;fill-rule:evenodd;stroke:#8b0000;stroke-width:0.067" />
    <path
       id="use68"
       d="m 42.708711,12.516507 0.002,0.026 0.466,1.437 -0.471,0.651 2.009,-0.651 h 0.007 l -0.016,0.007 -1.229,0.892 -0.771,-0.249 1.247,1.715 -0.025,-0.028 0.018,0.028 -1.241,-0.901 10e-4,-0.814 -1.242,1.715 0.018,-0.028 -0.025,0.028 0.477,-1.467 0.772,-0.249 -2.001,-0.644 -0.016,-0.007 h 0.007 1.538 l 0.473,0.651 -0.006,-2.087 0.002,-0.026 0.003,0.009 z"
       style="opacity:0.998;fill:#e30000;fill-rule:evenodd" />
    <path
       id="use72"
       d="m 40.360547,8.1706698 0.002,0.026 0.466,1.437 h 1.538 0.007 l -0.016,0.007 -1.229,0.8920002 0.477,1.467 -0.025,-0.028 0.018,0.028 -1.241,-0.901 -1.241,0.901 0.018,-0.028 -0.025,0.028 0.477,-1.467 -1.229,-0.8920002 -0.016,-0.007 h 0.007 1.538 l 0.466,-1.437 0.002,-0.026 0.003,0.009 z"
       style="opacity:0.998;fill:#ff0000;fill-rule:evenodd;stroke:#8b0000;stroke-width:0.067" />
    <path
       id="use74"
       d="m 40.360551,8.17067 0.002,0.026 0.466,1.437 -0.471,0.651 2.009,-0.651 h 0.007 l -0.016,0.007 -1.229,0.892 -0.771,-0.249 1.247,1.715 -0.025,-0.028 0.018,0.028 -1.241,-0.901 10e-4,-0.814 -1.242,1.715 0.018,-0.028 -0.025,0.028 0.477,-1.467 0.772,-0.249 -2.001,-0.644 -0.016,-0.007 h 0.007 1.538 l 0.473,0.651 -0.006,-2.087 0.002,-0.026 0.003,0.009 z"
       style="opacity:0.998;fill:#e30000;fill-rule:evenodd" />
    <path
       id="use78"
       d="m 36.680607,4.9112898 0.002,0.026 0.466,1.437 h 1.538 0.007 l -0.016,0.007 -1.229,0.892 0.477,1.467 -0.025,-0.028 0.018,0.028 -1.241,-0.901 -1.241,0.901 0.018,-0.028 -0.025,0.028 0.477,-1.467 -1.229,-0.892 -0.016,-0.007 h 0.007 1.538 l 0.466,-1.437 0.002,-0.026 0.003,0.009 z"
       style="opacity:0.998;fill:#ff0000;fill-rule:evenodd;stroke:#8b0000;stroke-width:0.067" />
    <path
       id="use80"
       d="m 36.680611,4.91129 0.002,0.026 0.466,1.437 -0.471,0.651 2.009,-0.651 h 0.007 l -0.016,0.007 -1.229,0.892 -0.771,-0.249 1.247,1.715 -0.025,-0.028 0.018,0.028 -1.241,-0.901 10e-4,-0.814 -1.242,1.715 0.018,-0.028 -0.025,0.028 0.477,-1.467 0.772,-0.249 -2.001,-0.644 -0.016,-0.007 h 0.007 1.538 l 0.473,0.651 -0.006,-2.087 0.002,-0.026 0.003,0.009 z"
       style="opacity:0.998;fill:#e30000;fill-rule:evenodd" />
  </g>
  <g
     id="g1543">
    <path
       d="M 25.83,1.931 C 24.641,1.934 23.452,2.093 22.418,2.705 21.901,2.999 21.382,3.743 20.852,4.447 L 20.765,4.349 19.276,5.778 C 18.809,5.196 19.771,4.991 20.205,4.435 20.816,3.652 21.256,2.838 21.17,2.409 20.051,2.739 19.131,3.551 18.525,4.535 17.857,5.209 18.508,5.822 18.671,6.423 L 16.911007,8.7362195 C 18.984452,6.053459 17.274,5.206 17.806,4.239 17.513,4.071 16.312,5.467 16.493,6.235 16.434,7.006 16.846,7.831 16.447,9.337 L 15.246245,11.582034 16.168,8.801 C 16.300933,7.9218716 15.663,6.852 15.84,5.889 14.902,6.482 14.493,7.9 14.699,8.99 c 0.135,1.053 0.451,2.326 0.184,3.399 l -0.217,0.574 c -0.027,0.053 -0.514,2.544 -0.545,2.595 -0.54,-1.198 0.931,-2.849 0.143,-4.429 -0.503,-0.373 -0.034,-2.187 -0.378,-1.835 -0.466,1.204 -1.23,2.41 -1.063,3.75 0.109,1.09 0.875,1.978 1.073,3.005 l -0.128821,2.746073 C 13.498179,18.714073 13.473,15.644 13.105,15.205 c -0.738,-0.88 -0.625,-2.275 -0.801,-2.02 -0.551,1.649 -0.181,3.168 0.121,4.041 0.339,0.978 1.224,1.444 1.33,2.367 l 0.007,0.099 0.004,0.134 c 0.043,0.372 0.296693,1.829179 0.352693,2.211179 C 13.717693,20.094179 13.143,19.287 12.123,18.235 c 0.043,0.082 0.042,1.923 0.433,2.638 0.187,0.988 1.223,1.34 1.742,2.046 l 1.32661,3.256349 C 14.588408,23.893844 13.104,23.148 12.326,22.373 c -0.445,-0.025 0.265,1.491 0.502,2.005 0.644,1.127 2.13,1.418 2.887,2.383 l 1.48033,2.388073 C 17.697788,29.816661 16.30108,28.12157 16.26872,28.11967 15.48772,27.05567 14.79,26.529 13.41,26.357 c -1.226,-0.5 -0.128,0.483 0.148,0.952 0.508,1.306 1.623,2.392 3.118,2.158 0.286,-0.015 0.514,0.044 0.706,0.153 l 1.006,1.312 c 0.186,0.314 0.392,0.606 0.684,0.789 1.188,-0.524 -0.882,-1.8 -0.725,-2.783 -0.209,-1.3 1.216,-2.315 0.603,-3.617 -0.373,-0.473 -0.144,-2.595 -0.906,-1.348 -0.697,0.983 -1.126,2.175 -0.577,3.339 0.273,0.531 0.748124,1.777353 0.494124,1.730353 L 16.792,27.288 c -0.245,-0.974 -0.556,-2.013 0.037,-2.93 0.972,-0.997 1.208,-2.3 1.085,-3.652 0.52,-1.536 -1.166,0.301 -1.528,0.695 -0.921,0.895 -0.430358,3.428917 -0.09706,4.766197 L 15.104,23.17 c 0.039,-0.543 0.192,-1.078 0.403,-1.443 0.768,-0.603 1.566,-1.355 1.652,-2.392 -0.182,-0.64 1.156,-2.611 0.068,-1.973 -1.504,0.652 -2.45001,3.591616 -2.363279,5.228833 L 14.439,19.14 c 0.365,-0.611 1.069,-1.007 1.664,-1.435 0.713,-0.91 1.006,-2.14 1.951,-2.89 0.979,-0.152 0.314,-0.667 -0.297,-0.564 -3.307,1.402 -2.449743,2.935894 -3.502564,4.493766 L 14.71,15.437 c 0.37,-0.507 1.017,-0.859 1.593,-1.078 1.164,-0.375 1.297,-1.801 2.303,-2.342 0.917,-0.352 0.047,-0.545 -0.44,-0.35 -2.153,0.75 -3.651307,3.197537 -3.698307,3.854537 0.347,-1.854 1.198307,-3.219537 1.370307,-3.599537 0.173,-0.061 0.347,-0.097 0.506,-0.101 1.343,-0.387 2.704,-0.942 3.736,-1.904 1.004,-0.58 -0.078,-0.399 -0.548,-0.206 -1.027,0.115 -2.281229,0.417397 -3.750303,1.9358 L 17.134,9.562 c 0.265,-0.153 0.54,-0.235 0.778,-0.163 1.349,0.138 2.67,-0.372 3.761,-1.138 0.642,-0.374 0.796531,-0.6043148 -0.200469,-0.4363148 -0.993,-0.064 -2.243242,-0.3842622 -4.237947,1.3770917 L 18.903,7.232 C 19.272,7.018 19.638,6.874 19.89,6.908 21.328,7.049 22.98,7.217 23.818,5.723 24.949,5.041 23.81,5.204 23.124,5.096 21.806,4.717 20.934,6.062 19.813,6.245 L 20.91,5.181 c 0.607,-0.305 1.315,-0.448 1.972,-0.472 v 0 c 0.66,-0.057 1.352,-0.19 1.888,-0.606 0.769,-0.811 1.331,-2.177 2.669,-2.109 L 25.832,1.929 Z"
       fill="#fdf302"
       stroke="#9d9701"
       stroke-width="0.205"
       id="path84"
       sodipodi:nodetypes="ccccccccccccccccccccccccccccccccccccccccccccccccccccccccccccccccccccccccccccccccccccccccsscccc" />
    <g
       fill="#fef986"
       id="g94"
       transform="translate(-73.124,-91.906)">
      <path
         d="m 86.861,118.66 c 0.73,0.442 1.415,0.173 2.22,1.769 -0.988,-0.311 -1.538,-1.114 -2.22,-1.769 z m -0.905,-3.287 c 0.68,0.516 1.389,0.319 2.024,1.991 -0.95,-0.412 -1.413,-1.268 -2.024,-1.991 z m -0.269,-4.193 c 0.411,0.592 1.032,0.62 1.103,2.129 -0.655,-0.58 -0.802,-1.389 -1.103,-2.129 z m -0.231,-4.611 c 0.321,0.646 0.931,0.763 0.783,2.266 -0.564,-0.669 -0.593,-1.49 -0.783,-2.266 z m 1.295,-3.754 c 0.217,0.687 0.802,0.898 0.424,2.36 -0.454,-0.748 -0.355,-1.564 -0.424,-2.36 z"
         id="path86" />
      <path
         id="use88"
         d="m 88.657,99.219 c 0.096,0.715 0.636,1.022 0.012,2.397 -0.319,-0.814 -0.082,-1.602 -0.012,-2.397 z" />
      <path
         id="use90"
         d="m 90.497928,96.899134 c 0.096,0.715 0.636,1.022 0.012,2.397 -0.319,-0.814 -0.082,-1.602 -0.012,-2.397 z" />
      <path
         d="m 93.665,94.95 c -0.375,0.616 -0.15,1.194 -1.5,1.87 0.265,-0.833 0.945,-1.296 1.5,-1.87 z m 4.732,-0.282 c -0.885,0.577 -0.951,1.484 -3.163,1.525 0.876,-0.934 2.067,-1.116 3.163,-1.525 z m -1.653,2.941 c -0.966,0.426 -1.179,1.31 -3.368,0.992 1.016,-0.779 2.22,-0.766 3.368,-0.992 z m -2.837,2.71 c -0.683,0.246 -0.871,0.842 -2.357,0.52 0.734,-0.486 1.559,-0.42 2.357,-0.52 z m -1.97,1.963 c -0.627,0.366 -0.703,0.987 -2.223,0.941 0.633,-0.612 1.457,-0.697 2.223,-0.941 z m -1.097,2.013 c -0.423,0.59 -0.24,1.188 -1.647,1.765 0.329,-0.817 1.047,-1.23 1.647,-1.765 z m -0.964,3.119 c -0.303,0.66 -0.009,1.212 -1.28,2.047 0.167,-0.865 0.793,-1.407 1.28,-2.047 z m 0.07,3.261 c -0.24,0.685 0.104,1.208 -1.084,2.157 0.086,-0.876 0.659,-1.475 1.084,-2.157 z m 0.725,2.755 c -0.153,0.71 0.253,1.185 -0.808,2.275 -0.023,-0.88 0.47,-1.545 0.808,-2.275 z m 0.746,3.024 c 0.072,0.722 0.604,1.051 -0.071,2.413 -0.292,-0.831 -0.026,-1.615 0.071,-2.413 z"
         id="path92" />
    </g>
  </g>
  <path
     d="m 9.633,34.404 v 1.262 H 54.119 V 33.318 C 49.989,32.838 47.892,31.867 45.384,30.51 44.3,29.923 43.185,30.257 42.149,29.583 39.221,27.68 36.48,24.573 33.431,22.909 33.196,22.791 33.132,22.46 32.555,22.769 32.218,22.727 31.899,22.413 31.609,21.718 31.252,21.323 30.848,21.116 30.26,21.648 27.649,25.168 19.619,31.572 9.635,34.405 Z"
     class="G"
     id="path96" />
  <g
     class="C D I P"
     id="g248"
     transform="translate(-73.124,-91.906)">
    <path
       id="use98"
       d="m 100.26,126.66 h 2.376 v 0.912 h -2.376 z"
       style="opacity:0.998" />
    <path
       id="use100"
       d="m 97.883,126.66 h 2.376 v 0.912 h -2.376 z"
       style="opacity:0.998" />
    <path
       id="use102"
       d="m 95.507,126.66 h 2.376 v 0.912 h -2.376 z"
       style="opacity:0.998" />
    <path
       d="m 93.13,126.66 h 2.376 v 0.912 H 93.13 Z"
       class="B"
       id="path104" />
    <path
       d="m 91.942,126.66 h 1.188 v 0.912 h -1.188 z"
       class="B"
       id="path106" />
    <path
       id="use108"
       d="m 94.319,125.749 h -2.376 v 0.912 h 2.376 z"
       style="opacity:0.998" />
    <path
       id="use110"
       d="m 96.695,125.749 h -2.376 v 0.912 h 2.376 z"
       style="opacity:0.998" />
    <path
       id="use112"
       d="m 99.072,125.749 h -2.376 v 0.912 h 2.376 z"
       style="opacity:0.998" />
    <path
       id="use114"
       d="m 101.448,125.749 h -2.376 v 0.912 h 2.376 z"
       style="opacity:0.998" />
    <path
       id="use116"
       d="m 102.636,125.749 h -1.188 v 0.912 h 1.188 z"
       style="opacity:0.998" />
    <path
       id="use118"
       d="m 100.26,124.837 h 2.376 v 0.912 h -2.376 z"
       style="opacity:0.998" />
    <path
       id="use120"
       d="m 97.883,124.837 h 2.376 v 0.912 h -2.376 z"
       style="opacity:0.998" />
    <path
       id="use122"
       d="m 95.507,124.837 h 2.376 v 0.912 h -2.376 z"
       style="opacity:0.998" />
    <path
       d="m 93.13,124.837 h 2.376 v 0.912 H 93.13 Z"
       class="B"
       id="path124" />
    <path
       d="m 91.942,124.837 h 1.188 v 0.912 h -1.188 z"
       class="B"
       id="path126" />
    <path
       id="use128"
       d="m 94.319,123.926 h -2.376 v 0.912 h 2.376 z"
       style="opacity:0.998" />
    <path
       id="use130"
       d="m 96.695,123.926 h -2.376 v 0.912 h 2.376 z"
       style="opacity:0.998" />
    <path
       id="use132"
       d="m 99.072,123.926 h -2.376 v 0.912 h 2.376 z"
       style="opacity:0.998" />
    <path
       id="use134"
       d="m 101.448,123.926 h -2.376 v 0.912 h 2.376 z"
       style="opacity:0.998" />
    <path
       id="use136"
       d="m 102.636,123.926 h -1.188 v 0.912 h 1.188 z"
       style="opacity:0.998" />
    <path
       id="use138"
       d="m 100.26,123.014 h 2.376 v 0.912 h -2.376 z"
       style="opacity:0.998" />
    <path
       id="use140"
       d="m 97.883,123.014 h 2.376 v 0.912 h -2.376 z"
       style="opacity:0.998" />
    <path
       id="use142"
       d="m 95.507,123.014 h 2.376 v 0.912 h -2.376 z"
       style="opacity:0.998" />
    <path
       d="m 93.13,123.014 h 2.376 v 0.912 H 93.13 Z"
       class="B"
       id="path144" />
    <path
       d="m 91.942,123.014 h 1.188 v 0.912 h -1.188 z"
       class="B"
       id="path146" />
    <path
       id="use148"
       d="m 94.319,122.103 h -2.376 v 0.912 h 2.376 z"
       style="opacity:0.998" />
    <path
       id="use150"
       d="m 96.695,122.103 h -2.376 v 0.912 h 2.376 z"
       style="opacity:0.998" />
    <path
       id="use152"
       d="m 99.072,122.103 h -2.376 v 0.912 h 2.376 z"
       style="opacity:0.998" />
    <path
       id="use154"
       d="m 101.448,122.103 h -2.376 v 0.912 h 2.376 z"
       style="opacity:0.998" />
    <path
       id="use156"
       d="m 102.636,122.103 h -1.188 v 0.912 h 1.188 z"
       style="opacity:0.998" />
    <path
       d="M 95.507,121.191 H 93.13 v 0.912 h 2.376 z"
       class="B"
       id="path158" />
    <path
       id="use160"
       d="m 97.883,121.191 h -2.376 v 0.912 h 2.376 z"
       style="opacity:0.998" />
    <path
       id="use162"
       d="m 100.26,121.191 h -2.376 v 0.912 h 2.376 z"
       style="opacity:0.998" />
    <path
       id="use164"
       d="m 102.636,121.191 h -2.376 v 0.912 h 2.376 z"
       style="opacity:0.998" />
    <path
       id="use166"
       d="m 96.695,120.28 h -2.376 v 0.912 h 2.376 z"
       style="opacity:0.998" />
    <path
       id="use168"
       d="m 99.072,120.28 h -2.376 v 0.912 h 2.376 z"
       style="opacity:0.998" />
    <path
       id="use170"
       d="m 101.448,120.28 h -2.376 v 0.912 h 2.376 z"
       style="opacity:0.998" />
    <path
       id="use172"
       d="m 102.636,120.28 h -1.188 v 0.912 h 1.188 z"
       style="opacity:0.998" />
    <path
       id="use174"
       d="m 97.883,119.368 h -2.376 v 0.912 h 2.376 z"
       style="opacity:0.998" />
    <path
       id="use176"
       d="m 100.26,119.368 h -2.376 v 0.912 h 2.376 z"
       style="opacity:0.998" />
    <path
       id="use178"
       d="m 102.636,119.368 h -2.376 v 0.912 h 2.376 z"
       style="opacity:0.998" />
    <path
       id="use180"
       d="m 99.072,118.457 h -2.376 v 0.912 h 2.376 z"
       style="opacity:0.998" />
    <path
       id="use182"
       d="m 101.448,118.457 h -2.376 v 0.912 h 2.376 z"
       style="opacity:0.998" />
    <path
       id="use184"
       d="m 102.636,118.457 h -1.188 v 0.912 h 1.188 z"
       style="opacity:0.998" />
    <path
       id="use186"
       d="m 100.26,117.545 h -2.376 v 0.912 h 2.376 z"
       style="opacity:0.998" />
    <path
       id="use188"
       d="m 102.636,117.545 h -2.376 v 0.912 h 2.376 z"
       style="opacity:0.998" />
    <path
       id="use190"
       d="m 101.448,116.634 h -2.376 v 0.912 h 2.376 z"
       style="opacity:0.998" />
    <path
       id="use192"
       d="m 102.636,116.634 h -1.188 v 0.912 h 1.188 z"
       style="opacity:0.998" />
    <path
       id="use194"
       d="m 100.26,115.722 h -2.376 v 0.912 h 2.376 z"
       style="opacity:0.998" />
    <path
       id="use196"
       d="m 102.636,115.722 h -2.376 v 0.912 h 2.376 z"
       style="opacity:0.998" />
    <path
       id="use198"
       d="m 99.072,114.811 h -2.376 v 0.912 h 2.376 z"
       style="opacity:0.998" />
    <path
       id="use200"
       d="m 101.448,114.811 h -2.376 v 0.912 h 2.376 z"
       style="opacity:0.998" />
    <path
       id="use202"
       d="m 102.636,114.811 h -1.188 v 0.912 h 1.188 z"
       style="opacity:0.998" />
    <path
       id="use204"
       d="m 97.883,113.899 h -2.376 v 0.912 h 2.376 z"
       style="opacity:0.998" />
    <path
       id="use206"
       d="m 100.26,113.899 h -2.376 v 0.912 h 2.376 z"
       style="opacity:0.998" />
    <path
       id="use208"
       d="m 102.636,113.899 h -2.376 v 0.912 h 2.376 z"
       style="opacity:0.998" />
    <path
       id="use210"
       d="m 99.072,112.988 h -2.376 v 0.912 h 2.376 z"
       style="opacity:0.998" />
    <path
       id="use212"
       d="m 101.448,112.988 h -2.376 v 0.912 h 2.376 z"
       style="opacity:0.998" />
    <path
       id="use214"
       d="m 102.636,112.988 h -1.188 v 0.912 h 1.188 z"
       style="opacity:0.998" />
    <path
       id="use216"
       d="m 100.26,112.076 h -2.376 v 0.912 h 2.376 z"
       style="opacity:0.998" />
    <path
       id="use218"
       d="m 102.636,112.076 h -2.376 v 0.912 h 2.376 z"
       style="opacity:0.998" />
    <path
       id="use220"
       d="m 101.448,111.165 h -2.376 v 0.912 h 2.376 z"
       style="opacity:0.998" />
    <path
       id="use222"
       d="m 102.636,111.165 h -1.188 v 0.912 h 1.188 z"
       style="opacity:0.998" />
    <path
       id="use224"
       d="m 102.636,110.253 h -2.762 v 0.912 h 2.762 z"
       style="opacity:0.998" />
    <path
       id="use226"
       d="m 102.636,109.342 h -2.368 v 0.912 h 2.368 z"
       style="opacity:0.998" />
    <path
       id="use228"
       d="m 102.636,108.43 h -2.368 v 0.912 h 2.368 z"
       style="opacity:0.998" />
    <path
       id="use230"
       d="m 102.636,107.519 h -2.762 v 0.912 h 2.762 z"
       style="opacity:0.998" />
    <path
       id="use232"
       d="m 101.448,106.607 h -2.376 v 0.912 h 2.376 z"
       style="opacity:0.998" />
    <path
       id="use234"
       d="m 102.636,106.607 h -1.188 v 0.912 h 1.188 z"
       style="opacity:0.998" />
    <path
       id="use236"
       d="m 100.26,105.696 h -2.376 v 0.912 h 2.376 z"
       style="opacity:0.998" />
    <path
       id="use238"
       d="m 102.636,105.696 h -2.376 v 0.912 h 2.376 z"
       style="opacity:0.998" />
    <path
       id="use240"
       d="m 101.448,104.784 h -2.376 v 0.912 h 2.376 z"
       style="opacity:0.998" />
    <path
       id="use242"
       d="m 102.636,104.784 h -1.188 v 0.912 h 1.188 z"
       style="opacity:0.998" />
    <path
       id="use244"
       d="m 102.636,103.872 h -2.376 v 0.912 h 2.376 z"
       style="opacity:0.998" />
    <path
       id="use246"
       d="m 102.636,102.961 h -1.188 v 0.912 h 1.188 z"
       style="opacity:0.998" />
  </g>
  <g
     transform="matrix(-1,0,0,1,226.0332,-91.906)"
     class="C D I P"
     id="g400">
    <path
       id="use250"
       d="m 189.418,126.66 h 2.376 v 0.912 h -2.376 z"
       style="opacity:0.998" />
    <path
       id="use252"
       d="m 187.041,126.66 h 2.376 v 0.912 h -2.376 z"
       style="opacity:0.998" />
    <path
       id="use254"
       d="m 184.665,126.66 h 2.376 v 0.912 h -2.376 z"
       style="opacity:0.998" />
    <path
       id="use256"
       d="m 182.288,126.66 h 2.376 v 0.912 h -2.376 z"
       style="opacity:0.998" />
    <path
       d="m 181.1,126.66 h 1.188 v 0.912 H 181.1 Z"
       class="B"
       id="path258" />
    <path
       d="M 183.477,125.749 H 181.1 v 0.912 h 2.376 z"
       class="B"
       id="path260" />
    <path
       id="use262"
       d="m 185.853,125.749 h -2.376 v 0.912 h 2.376 z"
       style="opacity:0.998" />
    <path
       id="use264"
       d="m 188.23,125.749 h -2.376 v 0.912 h 2.376 z"
       style="opacity:0.998" />
    <path
       id="use266"
       d="m 190.606,125.749 h -2.376 v 0.912 h 2.376 z"
       style="opacity:0.998" />
    <path
       id="use268"
       d="m 191.794,125.749 h -1.188 v 0.912 h 1.188 z"
       style="opacity:0.998" />
    <path
       id="use270"
       d="m 189.418,124.837 h 2.376 v 0.912 h -2.376 z"
       style="opacity:0.998" />
    <path
       id="use272"
       d="m 187.041,124.837 h 2.376 v 0.912 h -2.376 z"
       style="opacity:0.998" />
    <path
       id="use274"
       d="m 184.665,124.837 h 2.376 v 0.912 h -2.376 z"
       style="opacity:0.998" />
    <path
       id="use276"
       d="m 182.288,124.837 h 2.376 v 0.912 h -2.376 z"
       style="opacity:0.998" />
    <path
       d="m 181.1,124.837 h 1.188 v 0.912 H 181.1 Z"
       class="B"
       id="path278" />
    <path
       d="M 183.477,123.926 H 181.1 v 0.912 h 2.376 z"
       class="B"
       id="path280" />
    <path
       id="use282"
       d="m 185.853,123.926 h -2.376 v 0.912 h 2.376 z"
       style="opacity:0.998" />
    <path
       id="use284"
       d="m 188.23,123.926 h -2.376 v 0.912 h 2.376 z"
       style="opacity:0.998" />
    <path
       id="use286"
       d="m 190.606,123.926 h -2.376 v 0.912 h 2.376 z"
       style="opacity:0.998" />
    <path
       id="use288"
       d="m 191.794,123.926 h -1.188 v 0.912 h 1.188 z"
       style="opacity:0.998" />
    <path
       id="use290"
       d="m 189.418,123.014 h 2.376 v 0.912 h -2.376 z"
       style="opacity:0.998" />
    <path
       id="use292"
       d="m 187.041,123.014 h 2.376 v 0.912 h -2.376 z"
       style="opacity:0.998" />
    <path
       id="use294"
       d="m 184.665,123.014 h 2.376 v 0.912 h -2.376 z"
       style="opacity:0.998" />
    <path
       id="use296"
       d="m 182.288,123.014 h 2.376 v 0.912 h -2.376 z"
       style="opacity:0.998" />
    <path
       d="m 181.1,123.014 h 1.188 v 0.912 H 181.1 Z"
       class="B"
       id="path298" />
    <path
       d="M 183.477,122.103 H 181.1 v 0.912 h 2.376 z"
       class="B"
       id="path300" />
    <path
       id="use302"
       d="m 185.853,122.103 h -2.376 v 0.912 h 2.376 z"
       style="opacity:0.998" />
    <path
       id="use304"
       d="m 188.23,122.103 h -2.376 v 0.912 h 2.376 z"
       style="opacity:0.998" />
    <path
       id="use306"
       d="m 190.606,122.103 h -2.376 v 0.912 h 2.376 z"
       style="opacity:0.998" />
    <path
       id="use308"
       d="m 191.794,122.103 h -1.188 v 0.912 h 1.188 z"
       style="opacity:0.998" />
    <path
       id="use310"
       d="m 184.665,121.191 h -2.376 v 0.912 h 2.376 z"
       style="opacity:0.998" />
    <path
       id="use312"
       d="m 187.041,121.191 h -2.376 v 0.912 h 2.376 z"
       style="opacity:0.998" />
    <path
       id="use314"
       d="m 189.418,121.191 h -2.376 v 0.912 h 2.376 z"
       style="opacity:0.998" />
    <path
       id="use316"
       d="m 191.794,121.191 h -2.376 v 0.912 h 2.376 z"
       style="opacity:0.998" />
    <path
       id="use318"
       d="m 185.853,120.28 h -2.376 v 0.912 h 2.376 z"
       style="opacity:0.998" />
    <path
       id="use320"
       d="m 188.23,120.28 h -2.376 v 0.912 h 2.376 z"
       style="opacity:0.998" />
    <path
       id="use322"
       d="m 190.606,120.28 h -2.376 v 0.912 h 2.376 z"
       style="opacity:0.998" />
    <path
       id="use324"
       d="m 191.794,120.28 h -1.188 v 0.912 h 1.188 z"
       style="opacity:0.998" />
    <path
       id="use326"
       d="m 187.041,119.368 h -2.376 v 0.912 h 2.376 z"
       style="opacity:0.998" />
    <path
       id="use328"
       d="m 189.418,119.368 h -2.376 v 0.912 h 2.376 z"
       style="opacity:0.998" />
    <path
       id="use330"
       d="m 191.794,119.368 h -2.376 v 0.912 h 2.376 z"
       style="opacity:0.998" />
    <path
       id="use332"
       d="m 188.23,118.457 h -2.376 v 0.912 h 2.376 z"
       style="opacity:0.998" />
    <path
       id="use334"
       d="m 190.606,118.457 h -2.376 v 0.912 h 2.376 z"
       style="opacity:0.998" />
    <path
       id="use336"
       d="m 191.794,118.457 h -1.188 v 0.912 h 1.188 z"
       style="opacity:0.998" />
    <path
       id="use338"
       d="m 189.418,117.545 h -2.376 v 0.912 h 2.376 z"
       style="opacity:0.998" />
    <path
       id="use340"
       d="m 191.794,117.545 h -2.376 v 0.912 h 2.376 z"
       style="opacity:0.998" />
    <path
       id="use342"
       d="m 190.606,116.634 h -2.376 v 0.912 h 2.376 z"
       style="opacity:0.998" />
    <path
       id="use344"
       d="m 191.794,116.634 h -1.188 v 0.912 h 1.188 z"
       style="opacity:0.998" />
    <path
       id="use346"
       d="m 189.418,115.722 h -2.376 v 0.912 h 2.376 z"
       style="opacity:0.998" />
    <path
       id="use348"
       d="m 191.794,115.722 h -2.376 v 0.912 h 2.376 z"
       style="opacity:0.998" />
    <path
       id="use350"
       d="m 188.23,114.811 h -2.376 v 0.912 h 2.376 z"
       style="opacity:0.998" />
    <path
       id="use352"
       d="m 190.606,114.811 h -2.376 v 0.912 h 2.376 z"
       style="opacity:0.998" />
    <path
       id="use354"
       d="m 191.794,114.811 h -1.188 v 0.912 h 1.188 z"
       style="opacity:0.998" />
    <path
       id="use356"
       d="m 187.041,113.899 h -2.376 v 0.912 h 2.376 z"
       style="opacity:0.998" />
    <path
       id="use358"
       d="m 189.418,113.899 h -2.376 v 0.912 h 2.376 z"
       style="opacity:0.998" />
    <path
       id="use360"
       d="m 191.794,113.899 h -2.376 v 0.912 h 2.376 z"
       style="opacity:0.998" />
    <path
       id="use362"
       d="m 188.23,112.988 h -2.376 v 0.912 h 2.376 z"
       style="opacity:0.998" />
    <path
       id="use364"
       d="m 190.606,112.988 h -2.376 v 0.912 h 2.376 z"
       style="opacity:0.998" />
    <path
       id="use366"
       d="m 191.794,112.988 h -1.188 v 0.912 h 1.188 z"
       style="opacity:0.998" />
    <path
       id="use368"
       d="m 189.418,112.076 h -2.376 v 0.912 h 2.376 z"
       style="opacity:0.998" />
    <path
       id="use370"
       d="m 191.794,112.076 h -2.376 v 0.912 h 2.376 z"
       style="opacity:0.998" />
    <path
       id="use372"
       d="m 190.606,111.165 h -2.376 v 0.912 h 2.376 z"
       style="opacity:0.998" />
    <path
       id="use374"
       d="m 191.794,111.165 h -1.188 v 0.912 h 1.188 z"
       style="opacity:0.998" />
    <path
       id="use376"
       d="m 191.794,110.253 h -2.762 v 0.912 h 2.762 z"
       style="opacity:0.998" />
    <path
       id="use378"
       d="m 191.794,109.342 h -2.368 v 0.912 h 2.368 z"
       style="opacity:0.998" />
    <path
       id="use380"
       d="m 191.794,108.43 h -2.368 v 0.912 h 2.368 z"
       style="opacity:0.998" />
    <path
       id="use382"
       d="m 191.794,107.519 h -2.762 v 0.912 h 2.762 z"
       style="opacity:0.998" />
    <path
       id="use384"
       d="m 190.606,106.607 h -2.376 v 0.912 h 2.376 z"
       style="opacity:0.998" />
    <path
       id="use386"
       d="m 191.794,106.607 h -1.188 v 0.912 h 1.188 z"
       style="opacity:0.998" />
    <path
       id="use388"
       d="m 189.418,105.696 h -2.376 v 0.912 h 2.376 z"
       style="opacity:0.998" />
    <path
       id="use390"
       d="m 191.794,105.696 h -2.376 v 0.912 h 2.376 z"
       style="opacity:0.998" />
    <path
       id="use392"
       d="m 190.606,104.784 h -2.376 v 0.912 h 2.376 z"
       style="opacity:0.998" />
    <path
       id="use394"
       d="m 191.794,104.784 h -1.188 v 0.912 h 1.188 z"
       style="opacity:0.998" />
    <path
       id="use396"
       d="m 191.794,103.872 h -2.376 v 0.912 h 2.376 z"
       style="opacity:0.998" />
    <path
       id="use398"
       d="m 191.794,102.961 h -1.188 v 0.912 h 1.188 z"
       style="opacity:0.998" />
  </g>
  <g
     transform="matrix(0.510649,0,0,0.510649,-114.64082,-39.974552)"
     id="g464">
    <g
       transform="matrix(0.310574,-0.716318,0.716318,0.310574,114.34969,271.0641)"
       id="g408">
      <path
         id="use402"
         d="m 316.755,126.73 c -0.661,-0.394 -1.477,-0.618 -1.939,-1.27 -0.537,-0.57 -1.394,-0.192 -1.601,0.479 -0.423,0.406 -0.461,1.022 -0.81,1.468 -1.081,0.166 -0.865,1.39 -1.002,2.205 0.024,0.892 0.203,1.829 0.702,2.581 0.689,0.693 0.967,1.666 1.575,2.418 a 5.91,5.91 0 0 0 1.938,-0.03 c 0.638,-0.184 1.31,-0.217 1.922,-0.504 0.724,-0.165 1.403,-0.398 1.801,-1.029 0.646,-0.395 1.376,-0.841 1.409,-1.692 0.165,-0.647 -0.219,-1.197 -0.355,-1.795 -0.071,-0.643 -1.008,-0.787 -0.944,-1.489 -0.006,-0.661 -0.069,-1.549 -0.826,-1.786 -0.742,-0.308 -1.235,0.308 -1.87,0.444 z"
         style="fill:#dcdcdc;stroke:#b5b5b5;stroke-width:0.465" />
      <path
         id="use404"
         d="m 310.767,129.461 c 0.158,2.529 -0.536,5.152 1.834,7.435 5.462,-0.843 5.197,-1.887 6.394,-4.114 h -1.933 c 0.773,-0.578 0.649,-1.156 0.892,-1.735 -0.442,0.132 -0.904,0.287 -1.09,0.099 -0.681,-0.328 -0.532,-1.072 -0.446,-1.784 -0.792,0.203 -1.554,0.623 -2.28,1.289 -0.127,-0.442 -0.356,-0.914 -0.942,-1.487 l -0.446,1.784 c -1.416,-0.26 -1.567,-0.915 -1.983,-1.487 z"
         style="fill:#026336;stroke:#013d21;stroke-width:0.265" />
      <path
         id="use406"
         d="m 314.459,126.463 c -1.069,0.294 -1.545,1.601 -2.33,2.236 -0.194,0.812 0.425,0.89 0.549,0.134 0.946,-0.954 1.628,1.52 2.569,0.139 0.863,-1.027 1.873,-0.147 1.846,0.937 0.512,0.702 2.005,0.201 1.492,1.634 0.308,1.59 2.019,-0.723 0.988,-1.499 -1.15,-0.617 -0.884,-1.986 -1.546,-2.882 -1.056,-0.012 -2.361,0.535 -3.133,-0.603 l -0.21,-0.075 z"
         style="fill:#ffffff" />
    </g>
    <g
       transform="matrix(0.422147,-0.723547,0.723547,0.422147,82.939395,263.53859)"
       id="g416">
      <path
         id="use410"
         d="m 316.755,126.73 c -0.661,-0.394 -1.477,-0.618 -1.939,-1.27 -0.537,-0.57 -1.394,-0.192 -1.601,0.479 -0.423,0.406 -0.461,1.022 -0.81,1.468 -1.081,0.166 -0.865,1.39 -1.002,2.205 0.024,0.892 0.203,1.829 0.702,2.581 0.689,0.693 0.967,1.666 1.575,2.418 a 5.91,5.91 0 0 0 1.938,-0.03 c 0.638,-0.184 1.31,-0.217 1.922,-0.504 0.724,-0.165 1.403,-0.398 1.801,-1.029 0.646,-0.395 1.376,-0.841 1.409,-1.692 0.165,-0.647 -0.219,-1.197 -0.355,-1.795 -0.071,-0.643 -1.008,-0.787 -0.944,-1.489 -0.006,-0.661 -0.069,-1.549 -0.826,-1.786 -0.742,-0.308 -1.235,0.308 -1.87,0.444 z"
         style="fill:#dcdcdc;stroke:#b5b5b5;stroke-width:0.465" />
      <path
         id="use412"
         d="m 310.767,129.461 c 0.158,2.529 -0.536,5.152 1.834,7.435 5.462,-0.843 5.197,-1.887 6.394,-4.114 h -1.933 c 0.773,-0.578 0.649,-1.156 0.892,-1.735 -0.442,0.132 -0.904,0.287 -1.09,0.099 -0.681,-0.328 -0.532,-1.072 -0.446,-1.784 -0.792,0.203 -1.554,0.623 -2.28,1.289 -0.127,-0.442 -0.356,-0.914 -0.942,-1.487 l -0.446,1.784 c -1.416,-0.26 -1.567,-0.915 -1.983,-1.487 z"
         style="fill:#026336;stroke:#013d21;stroke-width:0.265" />
      <path
         id="use414"
         d="m 314.459,126.463 c -1.069,0.294 -1.545,1.601 -2.33,2.236 -0.194,0.812 0.425,0.89 0.549,0.134 0.946,-0.954 1.628,1.52 2.569,0.139 0.863,-1.027 1.873,-0.147 1.846,0.937 0.512,0.702 2.005,0.201 1.492,1.634 0.308,1.59 2.019,-0.723 0.988,-1.499 -1.15,-0.617 -0.884,-1.986 -1.546,-2.882 -1.056,-0.012 -2.361,0.535 -3.133,-0.603 l -0.21,-0.075 z"
         style="fill:#ffffff" />
    </g>
    <g
       transform="matrix(0.645256,-0.622475,0.622475,0.645256,29.936473,207.31111)"
       id="g424">
      <path
         id="use418"
         d="m 316.755,126.73 c -0.661,-0.394 -1.477,-0.618 -1.939,-1.27 -0.537,-0.57 -1.394,-0.192 -1.601,0.479 -0.423,0.406 -0.461,1.022 -0.81,1.468 -1.081,0.166 -0.865,1.39 -1.002,2.205 0.024,0.892 0.203,1.829 0.702,2.581 0.689,0.693 0.967,1.666 1.575,2.418 a 5.91,5.91 0 0 0 1.938,-0.03 c 0.638,-0.184 1.31,-0.217 1.922,-0.504 0.724,-0.165 1.403,-0.398 1.801,-1.029 0.646,-0.395 1.376,-0.841 1.409,-1.692 0.165,-0.647 -0.219,-1.197 -0.355,-1.795 -0.071,-0.643 -1.008,-0.787 -0.944,-1.489 -0.006,-0.661 -0.069,-1.549 -0.826,-1.786 -0.742,-0.308 -1.235,0.308 -1.87,0.444 z"
         style="fill:#dcdcdc;stroke:#b5b5b5;stroke-width:0.465" />
      <path
         id="use420"
         d="m 310.767,129.461 c 0.158,2.529 -0.536,5.152 1.834,7.435 5.462,-0.843 5.197,-1.887 6.394,-4.114 h -1.933 c 0.773,-0.578 0.649,-1.156 0.892,-1.735 -0.442,0.132 -0.904,0.287 -1.09,0.099 -0.681,-0.328 -0.532,-1.072 -0.446,-1.784 -0.792,0.203 -1.554,0.623 -2.28,1.289 -0.127,-0.442 -0.356,-0.914 -0.942,-1.487 l -0.446,1.784 c -1.416,-0.26 -1.567,-0.915 -1.983,-1.487 z"
         style="fill:#026336;stroke:#013d21;stroke-width:0.265" />
      <path
         id="use422"
         d="m 314.459,126.463 c -1.069,0.294 -1.545,1.601 -2.33,2.236 -0.194,0.812 0.425,0.89 0.549,0.134 0.946,-0.954 1.628,1.52 2.569,0.139 0.863,-1.027 1.873,-0.147 1.846,0.937 0.512,0.702 2.005,0.201 1.492,1.634 0.308,1.59 2.019,-0.723 0.988,-1.499 -1.15,-0.617 -0.884,-1.986 -1.546,-2.882 -1.056,-0.012 -2.361,0.535 -3.133,-0.603 l -0.21,-0.075 z"
         style="fill:#ffffff" />
    </g>
    <g
       transform="matrix(0.709135,-0.548596,0.548596,0.709135,23.01192,181.59664)"
       id="g432">
      <path
         id="use426"
         d="m 316.755,126.73 c -0.661,-0.394 -1.477,-0.618 -1.939,-1.27 -0.537,-0.57 -1.394,-0.192 -1.601,0.479 -0.423,0.406 -0.461,1.022 -0.81,1.468 -1.081,0.166 -0.865,1.39 -1.002,2.205 0.024,0.892 0.203,1.829 0.702,2.581 0.689,0.693 0.967,1.666 1.575,2.418 a 5.91,5.91 0 0 0 1.938,-0.03 c 0.638,-0.184 1.31,-0.217 1.922,-0.504 0.724,-0.165 1.403,-0.398 1.801,-1.029 0.646,-0.395 1.376,-0.841 1.409,-1.692 0.165,-0.647 -0.219,-1.197 -0.355,-1.795 -0.071,-0.643 -1.008,-0.787 -0.944,-1.489 -0.006,-0.661 -0.069,-1.549 -0.826,-1.786 -0.742,-0.308 -1.235,0.308 -1.87,0.444 z"
         style="fill:#dcdcdc;stroke:#b5b5b5;stroke-width:0.465" />
      <path
         id="use428"
         d="m 310.767,129.461 c 0.158,2.529 -0.536,5.152 1.834,7.435 5.462,-0.843 5.197,-1.887 6.394,-4.114 h -1.933 c 0.773,-0.578 0.649,-1.156 0.892,-1.735 -0.442,0.132 -0.904,0.287 -1.09,0.099 -0.681,-0.328 -0.532,-1.072 -0.446,-1.784 -0.792,0.203 -1.554,0.623 -2.28,1.289 -0.127,-0.442 -0.356,-0.914 -0.942,-1.487 l -0.446,1.784 c -1.416,-0.26 -1.567,-0.915 -1.983,-1.487 z"
         style="fill:#026336;stroke:#013d21;stroke-width:0.265" />
      <path
         id="use430"
         d="m 314.459,126.463 c -1.069,0.294 -1.545,1.601 -2.33,2.236 -0.194,0.812 0.425,0.89 0.549,0.134 0.946,-0.954 1.628,1.52 2.569,0.139 0.863,-1.027 1.873,-0.147 1.846,0.937 0.512,0.702 2.005,0.201 1.492,1.634 0.308,1.59 2.019,-0.723 0.988,-1.499 -1.15,-0.617 -0.884,-1.986 -1.546,-2.882 -1.056,-0.012 -2.361,0.535 -3.133,-0.603 l -0.21,-0.075 z"
         style="fill:#ffffff" />
    </g>
    <g
       transform="matrix(0.791071,-0.421944,0.421944,0.791071,14.658203,137.49725)"
       id="g440">
      <path
         id="use434"
         d="m 316.755,126.73 c -0.661,-0.394 -1.477,-0.618 -1.939,-1.27 -0.537,-0.57 -1.394,-0.192 -1.601,0.479 -0.423,0.406 -0.461,1.022 -0.81,1.468 -1.081,0.166 -0.865,1.39 -1.002,2.205 0.024,0.892 0.203,1.829 0.702,2.581 0.689,0.693 0.967,1.666 1.575,2.418 a 5.91,5.91 0 0 0 1.938,-0.03 c 0.638,-0.184 1.31,-0.217 1.922,-0.504 0.724,-0.165 1.403,-0.398 1.801,-1.029 0.646,-0.395 1.376,-0.841 1.409,-1.692 0.165,-0.647 -0.219,-1.197 -0.355,-1.795 -0.071,-0.643 -1.008,-0.787 -0.944,-1.489 -0.006,-0.661 -0.069,-1.549 -0.826,-1.786 -0.742,-0.308 -1.235,0.308 -1.87,0.444 z"
         style="fill:#dcdcdc;stroke:#b5b5b5;stroke-width:0.465" />
      <path
         id="use436"
         d="m 310.767,129.461 c 0.158,2.529 -0.536,5.152 1.834,7.435 5.462,-0.843 5.197,-1.887 6.394,-4.114 h -1.933 c 0.773,-0.578 0.649,-1.156 0.892,-1.735 -0.442,0.132 -0.904,0.287 -1.09,0.099 -0.681,-0.328 -0.532,-1.072 -0.446,-1.784 -0.792,0.203 -1.554,0.623 -2.28,1.289 -0.127,-0.442 -0.356,-0.914 -0.942,-1.487 l -0.446,1.784 c -1.416,-0.26 -1.567,-0.915 -1.983,-1.487 z"
         style="fill:#026336;stroke:#013d21;stroke-width:0.265" />
      <path
         id="use438"
         d="m 314.459,126.463 c -1.069,0.294 -1.545,1.601 -2.33,2.236 -0.194,0.812 0.425,0.89 0.549,0.134 0.946,-0.954 1.628,1.52 2.569,0.139 0.863,-1.027 1.873,-0.147 1.846,0.937 0.512,0.702 2.005,0.201 1.492,1.634 0.308,1.59 2.019,-0.723 0.988,-1.499 -1.15,-0.617 -0.884,-1.986 -1.546,-2.882 -1.056,-0.012 -2.361,0.535 -3.133,-0.603 l -0.21,-0.075 z"
         style="fill:#ffffff" />
    </g>
    <g
       transform="rotate(-21.405,275.561,111.634)"
       id="g448">
      <path
         id="use442"
         d="m 316.755,126.73 c -0.661,-0.394 -1.477,-0.618 -1.939,-1.27 -0.537,-0.57 -1.394,-0.192 -1.601,0.479 -0.423,0.406 -0.461,1.022 -0.81,1.468 -1.081,0.166 -0.865,1.39 -1.002,2.205 0.024,0.892 0.203,1.829 0.702,2.581 0.689,0.693 0.967,1.666 1.575,2.418 a 5.91,5.91 0 0 0 1.938,-0.03 c 0.638,-0.184 1.31,-0.217 1.922,-0.504 0.724,-0.165 1.403,-0.398 1.801,-1.029 0.646,-0.395 1.376,-0.841 1.409,-1.692 0.165,-0.647 -0.219,-1.197 -0.355,-1.795 -0.071,-0.643 -1.008,-0.787 -0.944,-1.489 -0.006,-0.661 -0.069,-1.549 -0.826,-1.786 -0.742,-0.308 -1.235,0.308 -1.87,0.444 z"
         style="fill:#dcdcdc;stroke:#b5b5b5;stroke-width:0.465" />
      <path
         id="use444"
         d="m 310.767,129.461 c 0.158,2.529 -0.536,5.152 1.834,7.435 5.462,-0.843 5.197,-1.887 6.394,-4.114 h -1.933 c 0.773,-0.578 0.649,-1.156 0.892,-1.735 -0.442,0.132 -0.904,0.287 -1.09,0.099 -0.681,-0.328 -0.532,-1.072 -0.446,-1.784 -0.792,0.203 -1.554,0.623 -2.28,1.289 -0.127,-0.442 -0.356,-0.914 -0.942,-1.487 l -0.446,1.784 c -1.416,-0.26 -1.567,-0.915 -1.983,-1.487 z"
         style="fill:#026336;stroke:#013d21;stroke-width:0.265" />
      <path
         id="use446"
         d="m 314.459,126.463 c -1.069,0.294 -1.545,1.601 -2.33,2.236 -0.194,0.812 0.425,0.89 0.549,0.134 0.946,-0.954 1.628,1.52 2.569,0.139 0.863,-1.027 1.873,-0.147 1.846,0.937 0.512,0.702 2.005,0.201 1.492,1.634 0.308,1.59 2.019,-0.723 0.988,-1.499 -1.15,-0.617 -0.884,-1.986 -1.546,-2.882 -1.056,-0.012 -2.361,0.535 -3.133,-0.603 l -0.21,-0.075 z"
         style="fill:#ffffff" />
    </g>
    <g
       transform="rotate(-6.311,243.225,98.134)"
       id="g456">
      <path
         id="use450"
         d="m 316.755,126.73 c -0.661,-0.394 -1.477,-0.618 -1.939,-1.27 -0.537,-0.57 -1.394,-0.192 -1.601,0.479 -0.423,0.406 -0.461,1.022 -0.81,1.468 -1.081,0.166 -0.865,1.39 -1.002,2.205 0.024,0.892 0.203,1.829 0.702,2.581 0.689,0.693 0.967,1.666 1.575,2.418 a 5.91,5.91 0 0 0 1.938,-0.03 c 0.638,-0.184 1.31,-0.217 1.922,-0.504 0.724,-0.165 1.403,-0.398 1.801,-1.029 0.646,-0.395 1.376,-0.841 1.409,-1.692 0.165,-0.647 -0.219,-1.197 -0.355,-1.795 -0.071,-0.643 -1.008,-0.787 -0.944,-1.489 -0.006,-0.661 -0.069,-1.549 -0.826,-1.786 -0.742,-0.308 -1.235,0.308 -1.87,0.444 z"
         style="fill:#dcdcdc;stroke:#b5b5b5;stroke-width:0.465" />
      <path
         id="use452"
         d="m 310.767,129.461 c 0.158,2.529 -0.536,5.152 1.834,7.435 5.462,-0.843 5.197,-1.887 6.394,-4.114 h -1.933 c 0.773,-0.578 0.649,-1.156 0.892,-1.735 -0.442,0.132 -0.904,0.287 -1.09,0.099 -0.681,-0.328 -0.532,-1.072 -0.446,-1.784 -0.792,0.203 -1.554,0.623 -2.28,1.289 -0.127,-0.442 -0.356,-0.914 -0.942,-1.487 l -0.446,1.784 c -1.416,-0.26 -1.567,-0.915 -1.983,-1.487 z"
         style="fill:#026336;stroke:#013d21;stroke-width:0.265" />
      <path
         id="use454"
         d="m 314.459,126.463 c -1.069,0.294 -1.545,1.601 -2.33,2.236 -0.194,0.812 0.425,0.89 0.549,0.134 0.946,-0.954 1.628,1.52 2.569,0.139 0.863,-1.027 1.873,-0.147 1.846,0.937 0.512,0.702 2.005,0.201 1.492,1.634 0.308,1.59 2.019,-0.723 0.988,-1.499 -1.15,-0.617 -0.884,-1.986 -1.546,-2.882 -1.056,-0.012 -2.361,0.535 -3.133,-0.603 l -0.21,-0.075 z"
         style="fill:#ffffff" />
    </g>
    <path
       id="use458"
       d="m 316.755,126.73 c -0.661,-0.394 -1.477,-0.618 -1.939,-1.27 -0.537,-0.57 -1.394,-0.192 -1.601,0.479 -0.423,0.406 -0.461,1.022 -0.81,1.468 -1.081,0.166 -0.865,1.39 -1.002,2.205 0.024,0.892 0.203,1.829 0.702,2.581 0.689,0.693 0.967,1.666 1.575,2.418 a 5.91,5.91 0 0 0 1.938,-0.03 c 0.638,-0.184 1.31,-0.217 1.922,-0.504 0.724,-0.165 1.403,-0.398 1.801,-1.029 0.646,-0.395 1.376,-0.841 1.409,-1.692 0.165,-0.647 -0.219,-1.197 -0.355,-1.795 -0.071,-0.643 -1.008,-0.787 -0.944,-1.489 -0.006,-0.661 -0.069,-1.549 -0.826,-1.786 -0.742,-0.308 -1.235,0.308 -1.87,0.444 z"
       style="fill:#dcdcdc;stroke:#b5b5b5;stroke-width:0.465" />
    <path
       id="use460"
       d="m 310.767,129.461 c 0.158,2.529 -0.536,5.152 1.834,7.435 5.462,-0.843 5.197,-1.887 6.394,-4.114 h -1.933 c 0.773,-0.578 0.649,-1.156 0.892,-1.735 -0.442,0.132 -0.904,0.287 -1.09,0.099 -0.681,-0.328 -0.532,-1.072 -0.446,-1.784 -0.792,0.203 -1.554,0.623 -2.28,1.289 -0.127,-0.442 -0.356,-0.914 -0.942,-1.487 l -0.446,1.784 c -1.416,-0.26 -1.567,-0.915 -1.983,-1.487 z"
       style="fill:#026336;stroke:#013d21;stroke-width:0.265" />
    <path
       id="use462"
       d="m 314.459,126.463 c -1.069,0.294 -1.545,1.601 -2.33,2.236 -0.194,0.812 0.425,0.89 0.549,0.134 0.946,-0.954 1.628,1.52 2.569,0.139 0.863,-1.027 1.873,-0.147 1.846,0.937 0.512,0.702 2.005,0.201 1.492,1.634 0.308,1.59 2.019,-0.723 0.988,-1.499 -1.15,-0.617 -0.884,-1.986 -1.546,-2.882 -1.056,-0.012 -2.361,0.535 -3.133,-0.603 l -0.21,-0.075 z"
       style="fill:#ffffff" />
  </g>
  <g
     id="g1590">
    <g
       stroke="#625e01"
       class="H"
       id="g476"
       transform="translate(-73.124,-91.906)">
      <path
         d="m 121.432,143.24 v 8.079 c 4.927,-0.726 10.139,-0.809 14.671,-2.429 -1.491,-0.93 -2.48,-1.899 -3.37,-2.875 l 3.717,-4.362 c -5.384,1.955 -12.159,1.928 -15.018,1.586 z"
         fill="url(#D)"
         class="O"
         id="path466"
         style="fill:url(#D);" />
      <path
         d="m 127.281,145.817 v 7.137 l -5.849,-1.635 v -8.079 z"
         fill="#987800"
         class="O"
         id="path468" />
      <path
         d="m 88.568,143.24 v 8.079 c -4.927,-0.726 -10.139,-0.809 -14.671,-2.429 1.491,-0.93 2.48,-1.899 3.37,-2.875 l -3.717,-4.362 c 5.384,1.955 12.159,1.928 15.018,1.586 z"
         fill="url(#C)"
         class="O"
         id="path470"
         style="fill:url(#C);" />
      <path
         d="m 82.719,145.817 v 7.137 l 5.849,-1.635 v -8.079 z"
         fill="#987800"
         class="O"
         id="path472" />
      <path
         d="m 82.719,145.817 v 7.137 c 6.178,3.513 13.456,5.178 22.281,5.178 8.825,0 16.103,-1.664 22.281,-5.178 v -7.137 c -6.128,3.346 -13.106,5.201 -22.281,5.201 -9.175,0 -16.153,-1.855 -22.281,-5.201 z"
         fill="#f8c400"
         class="O"
         id="path474" />
    </g>
    <path
       d="m 52.861,55.992 a 1.01,1.01 0 0 0 -0.185,0.089 l -0.159,0.089 v 0.831 0.831 l -0.316,0.174 -0.316,0.174 v -0.811 c 0,-0.479 -0.017,-0.81 -0.041,-0.81 -0.024,0 -0.111,0.041 -0.196,0.091 l -0.155,0.091 v 2.11 l 0.034,2.11 c 0.018,0 0.105,-0.049 0.193,-0.109 l 0.16,-0.109 0.004,-0.904 0.036,-0.932 c 0.059,-0.054 0.528,-0.301 0.571,-0.301 0.026,0 0.042,0.329 0.041,0.839 l 0.004,0.895 c 0.003,0.04 0.054,0.03 0.179,-0.034 l 0.174,-0.089 v -2.114 l -0.027,-2.114 z m -41.926,0.024 c -0.023,-0.002 -0.033,0.014 -0.045,0.045 -0.038,0.1 -0.032,4.085 0.007,4.143 a 1.01,1.01 0 0 0 0.335,0.192 c 0.013,0 0.024,-0.383 0.024,-0.85 l 0.036,-0.85 c 0.057,0 0.216,0.185 0.261,0.305 0.023,0.06 0.095,0.335 0.162,0.61 0.305,1.269 0.292,1.232 0.481,1.34 0.094,0.054 0.192,0.09 0.217,0.081 0.025,-0.009 0.122,0.021 0.215,0.066 0.093,0.045 0.183,0.068 0.199,0.05 0.016,-0.018 0.055,-0.214 0.085,-0.436 l 0.07,-0.403 a 5.77,5.77 0 0 1 0.338,0.16 l 0.324,0.16 0.049,0.352 c 0.097,0.707 0.084,0.667 0.256,0.761 h 10e-4 c 0.196,0.107 0.225,0.11 0.225,0.027 a 73.25,73.25 0 0 0 -0.304,-2.092 l -0.35,-2.325 c 0,-0.049 -0.284,-0.225 -0.362,-0.225 -0.034,0 -0.103,0.298 -0.196,0.839 l -0.531,2.953 c -0.012,0 -0.097,-0.339 -0.19,-0.752 l -0.266,-0.994 -0.098,-0.243 0.12,-0.053 c 0.176,-0.078 0.268,-0.313 0.292,-0.745 0.04,-0.708 -0.14,-1.357 -0.438,-1.583 C 11.775,56.49 11.594,56.379 11.45,56.3 l -0.398,-0.225 c -0.061,-0.037 -0.096,-0.056 -0.118,-0.058 z m 40.207,0.892 a 0.62,0.62 0 0 0 -0.175,0.067 l -0.129,0.066 v 2.113 0 l 0.021,2.113 a 1.22,1.22 0 0 0 0.174,-0.073 l 0.154,-0.074 v -2.106 l -0.046,-2.106 z m -39.859,0.043 c 0.015,0 0.133,0.061 0.263,0.135 0.168,0.096 0.254,0.178 0.3,0.288 0.078,0.186 0.086,0.715 0.012,0.789 -0.074,0.074 -0.109,0.065 -0.373,-0.068 L 11.256,57.98 v -0.514 c 0,-0.283 0.012,-0.514 0.027,-0.514 z m 38.829,0.44 c -0.12,0.007 -0.295,0.065 -0.569,0.177 -0.402,0.164 -0.448,0.193 -0.449,0.295 l -0.011,2.107 0.031,1.994 c 0.022,0 0.105,-0.023 0.184,-0.052 l 0.144,-0.052 0.012,-0.896 0.012,-0.896 0.1,-0.014 c 0.055,-0.008 0.128,0.008 0.161,0.036 0.055,0.045 0.458,1.232 0.458,1.347 0,0.069 0.135,0.061 0.326,-0.019 0.117,-0.049 0.156,-0.088 0.141,-0.142 l -0.181,-0.618 c -0.088,-0.299 -0.207,-0.631 -0.266,-0.736 l -0.107,-0.192 0.115,-0.151 c 0.343,-0.45 0.423,-1.596 0.142,-2.057 -0.056,-0.092 -0.122,-0.136 -0.243,-0.129 z m -35.719,0.301 c -0.026,0 -0.042,0.787 -0.042,2.11 v 2.109 l 0.105,0.026 0.175,0.053 c 0.062,0.024 0.069,-0.113 0.069,-1.402 l 0.017,-1.41 c 0.009,0.01 0.082,0.682 0.161,1.492 l 0.144,1.474 0.149,0.063 a 0.98,0.98 0 0 0 0.182,0.063 c 0.018,0 0.057,-0.221 0.086,-0.49 l 0.153,-1.384 0.1,-0.894 0.005,1.452 0.005,1.452 0.141,0.061 h 10e-4 a 1.03,1.03 0 0 0 0.174,0.064 c 0.018,10e-4 0.033,-0.949 0.033,-2.112 v -2.114 l -0.163,-0.069 c -0.09,-0.038 -0.214,-0.079 -0.276,-0.092 l -0.113,-0.023 -0.05,0.495 -0.147,1.301 -0.097,0.807 -0.051,-0.458 -0.151,-1.428 -0.101,-0.97 -0.233,-0.087 c -0.128,-0.048 -0.252,-0.087 -0.275,-0.087 z m 34.321,0.22 a 2.71,2.71 0 0 0 -0.272,0.084 l -0.24,0.082 -0.031,0.276 -0.235,2.227 -0.041,0.327 A 44.12,44.12 0 0 1 47.742,59.632 L 47.574,58.34 c -0.014,-0.016 -0.134,0.006 -0.266,0.048 l -0.24,0.077 -0.011,2.12 v 10e-4 l 0.012,2.12 a 1.16,1.16 0 0 0 0.175,-0.063 l 0.151,-0.064 0.006,-1.408 c 0.006,-1.535 0.005,-1.537 0.192,0.202 l 0.132,1.075 c 0.01,0.017 0.088,0.01 0.173,-0.016 0.165,-0.051 0.173,-0.068 0.214,-0.468 l 0.256,-2.55 c 0.009,-0.096 0.019,0.498 0.023,1.319 l 0.044,1.493 c 0.02,0 0.099,-0.022 0.174,-0.048 l 0.137,-0.048 v -2.11 l -0.033,-2.108 z m 1.274,0.264 c 0.061,0 0.081,0.028 0.113,0.111 0.065,0.168 0.026,0.629 -0.066,0.768 -0.04,0.062 -0.155,0.147 -0.256,0.19 l -0.259,0.112 c -0.07,0.03 -0.076,-0.008 -0.076,-0.488 v -0.521 l 0.163,-0.069 c 0.09,-0.038 0.227,-0.08 0.304,-0.094 l 0.076,-0.009 z m -33.535,0.192 c -0.049,0.03 -0.052,0.339 -0.052,2.101 v 2.132 l 0.665,0.197 0.665,0.197 0.013,-0.164 a 3.22,3.22 0 0 0 0,-0.368 L 17.731,62.26 17.273,62.123 16.815,61.986 16.803,61.432 c -0.007,-0.305 0.004,-0.554 0.022,-0.554 a 4.5,4.5 0 0 1 0.382,0.108 l 0.405,0.109 c 0.043,0 0.053,-0.087 0.043,-0.356 l -0.012,-0.356 -0.425,-0.13 -0.425,-0.13 v -0.452 -0.452 l 0.12,0.029 c 0.066,0.016 0.256,0.075 0.422,0.131 l 0.338,0.102 c 0.02,0 0.036,-0.164 0.036,-0.364 v -0.364 l -0.577,-0.176 -0.654,-0.208 c -0.009,-0.004 -0.017,-0.005 -0.024,-10e-4 z m -3.148,0.066 c 0.016,0 0.072,0.308 0.123,0.684 l 0.084,0.692 c -0.035,0.031 -0.402,-0.191 -0.402,-0.243 0.001,-0.157 0.169,-1.133 0.195,-1.133 z M 46.1,58.757 c -0.038,0.002 -0.085,0.01 -0.134,0.023 -0.202,0.054 -0.181,-0.003 -0.315,0.874 l -0.392,2.55 -0.147,0.931 c -0.016,0.095 -0.006,0.1 0.142,0.073 0.087,-0.016 0.178,-0.048 0.202,-0.071 0.024,-0.023 0.073,-0.251 0.109,-0.508 l 0.065,-0.468 0.218,-0.071 0.352,-0.1 0.134,-0.029 0.055,0.383 c 0.076,0.53 0.064,0.507 0.254,0.472 0.09,-0.017 0.18,-0.046 0.201,-0.066 0.021,-0.02 -0.012,-0.321 -0.076,-0.684 L 46.589,61.049 46.44,60.199 46.28,59.262 46.174,58.768 C 46.165,58.758 46.138,58.755 46.1,58.757 Z m -27.305,0.331 c -0.082,0 -0.084,0.045 -0.073,2.1 l 0.011,2.099 0.152,0.053 c 0.084,0.029 0.166,0.045 0.182,0.036 0.016,-0.009 0.031,-0.959 0.032,-2.11 l 0.002,-2.093 -0.111,-0.042 c -0.061,-0.023 -0.149,-0.042 -0.196,-0.042 z m 25.914,0.08 c -0.098,0.004 -0.234,0.033 -0.433,0.083 l -0.476,0.12 v 2.103 l 0.087,2.103 a 0.89,0.89 0 0 0 0.184,-0.027 c 0.096,-0.026 0.097,-0.04 0.109,-0.836 l 0.012,-0.81 0.215,-0.055 c 0.295,-0.075 0.418,-0.176 0.557,-0.454 0.251,-0.505 0.279,-1.573 0.051,-2.013 -0.081,-0.157 -0.142,-0.222 -0.306,-0.215 z m -25.211,0.081 c -0.034,-0.003 -0.059,-0.002 -0.066,0.004 -0.04,0.041 -0.026,4.238 0.014,4.238 a 1.52,1.52 0 0 1 0.174,0.027 l 0.136,0.027 0.004,-1.324 0.004,-1.324 0.079,0.305 0.326,1.33 0.268,1.098 c 0.012,0.04 0.074,0.093 0.139,0.117 h 0.001 c 0.293,0.107 0.27,0.276 0.27,-2.063 V 59.57 l -0.12,-0.026 -0.174,-0.043 c -0.03,-0.009 -0.055,0.007 -0.056,0.036 l -0.004,1.311 -0.024,1.236 c -0.02,-0.02 -0.319,-1.221 -0.568,-2.282 l -0.114,-0.487 -0.165,-0.042 c -0.046,-0.012 -0.09,-0.019 -0.124,-0.022 z m 22.623,0.362 a 0.72,0.72 0 0 0 -0.515,0.26 c -0.112,0.131 -0.304,0.595 -0.379,0.917 a 7.59,7.59 0 0 0 -0.068,1.96 c 0.095,0.649 0.287,1.07 0.548,1.199 0.072,0.036 0.164,0.065 0.204,0.066 0.226,0.003 0.56,-0.26 0.757,-0.595 0.104,-0.177 0.107,-0.207 0.107,-1.057 l -0.033,-0.873 c -0.018,10e-4 -0.19,0.037 -0.381,0.08 l -0.349,0.077 -0.013,0.361 -0.012,0.361 0.21,-0.028 0.21,-0.029 -0.005,0.258 c -0.007,0.389 -0.201,0.663 -0.468,0.663 -0.253,0 -0.379,-0.345 -0.411,-1.133 -0.014,-0.34 -0.004,-0.716 0.024,-0.89 0.063,-0.402 0.231,-0.74 0.402,-0.811 0.119,-0.049 0.143,-0.045 0.241,0.048 a 0.7,0.7 0 0 1 0.156,0.289 c 0.026,0.103 0.064,0.187 0.086,0.187 0.022,0 0.108,-0.044 0.192,-0.098 0.143,-0.092 0.151,-0.109 0.126,-0.272 -0.096,-0.628 -0.303,-0.937 -0.629,-0.937 z M 21.929,59.67 c -0.056,-0.001 -0.114,0.007 -0.173,0.024 -0.311,0.093 -0.523,0.563 -0.608,1.346 -0.093,0.86 0.02,1.862 0.271,2.406 0.147,0.318 0.22,0.414 0.409,0.53 0.266,0.164 0.555,0.083 0.825,-0.232 l 0.158,-0.184 -0.012,-0.852 -0.012,-0.852 -0.349,-0.075 c -0.192,-0.041 -0.373,-0.067 -0.403,-0.056 -0.037,0.013 -0.054,0.125 -0.054,0.349 0,0.314 0.005,0.331 0.112,0.372 a 0.74,0.74 0 0 0 0.218,0.043 c 0.101,0 0.106,0.013 0.106,0.273 0,0.232 -0.016,0.291 -0.111,0.392 -0.061,0.066 -0.125,0.121 -0.142,0.123 l -0.116,0.019 c -0.114,0.021 -0.342,-0.226 -0.406,-0.441 -0.223,-0.75 -0.157,-2.099 0.116,-2.346 0.053,-0.048 0.136,-0.071 0.228,-0.061 0.117,0.011 0.163,0.047 0.241,0.188 a 1.28,1.28 0 0 1 0.125,0.337 c 0.035,0.204 0.054,0.216 0.256,0.155 l 0.163,-0.05 -0.03,-0.221 C 22.642,60.131 22.324,59.679 21.93,59.672 Z m 18.927,0.236 -0.163,0.03 -0.175,0.041 c -0.007,0.006 -0.013,0.617 -0.014,1.359 l -0.04,1.26 c -0.02,-0.048 -0.148,-0.509 -0.284,-1.025 l -0.451,-1.456 c -0.027,0.003 -0.108,0.007 -0.18,0.011 l -0.131,0.007 v 2.117 2.116 l 0.164,-0.013 0.163,-0.013 0.022,-1.308 0.022,-1.307 0.297,1.112 0.343,1.231 c 0.048,0.123 0.131,0.146 0.33,0.093 l 0.098,-0.026 v -2.114 z m 5.126,0.021 a 7.47,7.47 0 0 1 0.104,0.58 l 0.109,0.654 c 0.017,0.075 -0.011,0.098 -0.175,0.142 l -0.231,0.052 c -0.019,0 -0.012,-0.152 0.017,-0.337 l 0.106,-0.722 0.069,-0.368 z m -1.424,0.007 c 0.04,0.005 0.067,0.027 0.109,0.069 0.077,0.077 0.091,0.143 0.09,0.427 -0.002,0.442 -0.077,0.587 -0.354,0.681 h -10e-4 l -0.219,0.07 c -0.008,0 -0.014,-0.263 -0.014,-0.583 v -0.583 l 0.204,-0.051 c 0.093,-0.023 0.146,-0.034 0.186,-0.029 z m -20.019,0.145 c -0.162,0.011 -0.319,0.103 -0.437,0.286 -0.431,0.664 -0.489,2.402 -0.114,3.41 a 1.31,1.31 0 0 0 0.303,0.469 c 0.184,0.186 0.225,0.207 0.401,0.207 0.231,0 0.491,-0.164 0.64,-0.406 0.089,-0.145 0.094,-0.197 0.083,-0.996 L 25.403,62.206 25.185,62.176 24.804,62.12 24.64,62.095 v 0.366 c 0,0.396 0.015,0.417 0.295,0.419 0.091,10e-4 0.098,0.019 0.098,0.281 0,0.255 -0.012,0.292 -0.134,0.414 -0.171,0.171 -0.276,0.169 -0.454,-0.009 -0.21,-0.21 -0.306,-0.662 -0.303,-1.426 0.004,-0.862 0.159,-1.308 0.455,-1.308 0.161,0 0.291,0.157 0.362,0.435 0.068,0.266 0.108,0.295 0.299,0.216 0.133,-0.055 0.133,-0.056 0.104,-0.316 A 2.57,2.57 0 0 0 25.241,60.662 C 25.094,60.268 24.81,60.06 24.54,60.078 Z m 14.492,0.1 c -0.021,0 -0.1,0.012 -0.175,0.027 l -0.136,0.027 v 2.109 2.109 h 0.105 c 0.259,0 0.243,0.139 0.243,-2.163 L 39.03,60.179 Z m -1.534,0.128 c -0.187,0.002 -0.172,0.135 -0.172,2.17 v 2.115 l 0.163,-0.031 a 1.02,1.02 0 0 0 0.196,-0.051 c 0.018,-0.011 0.033,-0.961 0.033,-2.11 V 60.31 H 37.59 c -0.036,0 -0.066,-0.003 -0.093,-0.003 z m -11.172,0.02 c -0.037,-10e-4 -0.062,0 -0.066,0.005 -0.017,0.017 -0.142,0.724 -0.227,1.285 l -0.171,1.025 -0.306,1.815 c 0,0.02 0.325,0.068 0.395,0.059 a 24.1,24.1 0 0 0 0.077,-0.458 l 0.074,-0.458 0.304,0.014 c 0.167,0.008 0.327,0.038 0.353,0.066 0.026,0.028 0.071,0.198 0.1,0.378 0.092,0.573 0.087,0.56 0.214,0.579 0.234,0.036 0.27,0.03 0.27,-0.04 0,-0.07 -0.632,-3.937 -0.676,-4.141 -0.015,-0.071 -0.063,-0.098 -0.205,-0.117 l -0.136,-0.013 z m 10.022,0.051 a 0.53,0.53 0 0 0 -0.112,0.019 c -0.271,0.078 -0.443,0.336 -0.612,0.922 -0.128,0.441 -0.169,1.755 -0.072,2.309 0.078,0.449 0.258,0.872 0.434,1.02 0.362,0.305 0.797,-0.041 0.969,-0.768 0.103,-0.436 0.091,-0.573 -0.061,-0.686 -0.071,-0.053 -0.146,-0.095 -0.167,-0.095 -0.021,0 -0.062,0.13 -0.091,0.29 -0.122,0.663 -0.407,0.811 -0.63,0.328 -0.087,-0.188 -0.094,-0.273 -0.094,-1.119 v -0.916 l 0.131,-0.261 c 0.097,-0.193 0.157,-0.265 0.233,-0.276 0.157,-0.022 0.301,0.144 0.357,0.411 l 0.048,0.233 0.161,-0.102 c 0.202,-0.127 0.223,-0.271 0.099,-0.678 -0.129,-0.423 -0.335,-0.642 -0.59,-0.631 z m -9.133,0.062 0.023,0.185 0.213,2.099 0.249,1.951 c 0.032,0.021 0.127,0.033 0.211,0.027 l 0.153,-0.011 0.073,-0.676 0.268,-2.251 c 0.009,-0.009 0.029,0.125 0.045,0.3 l 0.202,1.864 0.088,0.793 c 0,0.016 0.055,0.038 0.12,0.049 0.298,0.047 0.29,0.059 0.346,-0.536 l 0.097,-0.959 0.069,-0.654 0.11,-1.06 c 0.115,-1.081 0.124,-0.989 -0.101,-0.989 h -0.188 l -0.101,1.122 c -0.165,1.838 -0.144,1.779 -0.256,0.708 l -0.141,-1.255 -0.042,-0.463 c 0,-0.128 -0.016,-0.149 -0.136,-0.173 -0.196,-0.039 -0.344,-0.033 -0.344,0.013 0,0.022 -0.049,0.478 -0.11,1.013 l -0.137,1.247 c -0.015,0.151 -0.041,0.259 -0.057,0.24 -0.016,-0.019 -0.053,-0.3 -0.08,-0.623 L 27.692,61.268 C 27.618,60.391 27.635,60.44 27.409,60.44 Z m 7.877,0.048 c -0.037,-0.007 -0.086,0.009 -0.154,0.023 l -0.133,0.027 -0.014,1.619 -0.089,1.758 c -0.093,0.17 -0.222,0.217 -0.354,0.131 -0.182,-0.119 -0.202,-0.314 -0.202,-1.942 v -1.532 h -0.2 -0.2 l 0.016,1.754 0.112,2.016 c 0.054,0.148 0.153,0.314 0.228,0.381 0.275,0.249 0.694,0.121 0.894,-0.273 0.155,-0.307 0.192,-0.791 0.194,-2.538 10e-4,-1.166 0.012,-1.402 -0.098,-1.424 z m -5.331,0.079 c -0.01,0.01 -0.019,0.958 -0.019,2.105 l 0.055,2.106 a 6.55,6.55 0 0 0 0.578,0.058 h -10e-4 c 0.807,0.06 0.739,0.09 0.754,-0.328 l 0.012,-0.356 -0.34,-0.028 -0.492,-0.039 -0.152,-0.01 -0.012,-0.56 -0.012,-0.56 0.438,0.031 0.437,0.031 V 62.648 62.279 L 30.57,62.248 30.134,62.217 v -0.458 -0.458 l 0.142,0.025 c 0.078,0.014 0.289,0.029 0.469,0.034 l 0.327,0.009 0.013,-0.356 v -0.359 a 20.15,20.15 0 0 0 -1.324,-0.088 z m 2.95,0.004 c -0.471,0 -0.772,0.829 -0.598,1.648 0.09,0.425 0.203,0.593 0.55,0.817 0.16,0.103 0.316,0.219 0.347,0.256 0.031,0.037 0.057,0.187 0.059,0.352 0.003,0.358 -0.097,0.522 -0.321,0.522 -0.181,0 -0.294,-0.169 -0.333,-0.499 -0.014,-0.123 -0.04,-0.232 -0.057,-0.242 -0.017,-0.01 -0.105,0.002 -0.195,0.027 l -0.164,0.046 0.031,0.312 c 0.045,0.459 0.181,0.835 0.359,0.99 0.114,0.1 0.189,0.13 0.331,0.13 0.266,0 0.435,-0.123 0.582,-0.421 0.121,-0.246 0.125,-0.277 0.125,-0.908 0,-0.626 -0.005,-0.664 -0.12,-0.893 -0.115,-0.229 -0.201,-0.313 -0.585,-0.554 -0.1,-0.063 -0.203,-0.161 -0.229,-0.218 -0.06,-0.132 -0.061,-0.385 -10e-4,-0.497 0.06,-0.112 0.242,-0.182 0.345,-0.127 0.092,0.049 0.176,0.262 0.176,0.443 0,0.132 0.074,0.156 0.3,0.096 0.101,-0.027 0.103,-0.038 0.079,-0.352 -0.03,-0.396 -0.193,-0.765 -0.38,-0.862 a 0.78,0.78 0 0 0 -0.3,-0.065 z m -6.263,0.85 0.076,0.48 0.106,0.73 0.03,0.251 h -0.2 c -0.11,0 -0.208,-0.015 -0.219,-0.033 -0.011,-0.018 0.031,-0.347 0.094,-0.73 z"
       id="path478" />
  </g>
</svg>
