<?xml version="1.0" encoding="UTF-8" standalone="no"?>
<svg
   xmlns:dc="http://purl.org/dc/elements/1.1/"
   xmlns:cc="http://creativecommons.org/ns#"
   xmlns:rdf="http://www.w3.org/1999/02/22-rdf-syntax-ns#"
   xmlns:svg="http://www.w3.org/2000/svg"
   xmlns="http://www.w3.org/2000/svg"
   xmlns:sodipodi="http://sodipodi.sourceforge.net/DTD/sodipodi-0.dtd"
   xmlns:inkscape="http://www.inkscape.org/namespaces/inkscape"
   width="259.461"
   height="361.943"
   viewBox="0 0 68.649 95.764"
   version="1.1"
   id="svg22"
   sodipodi:docname="Coat of arms of Lebak (1).svg"
   inkscape:version="1.0.1 (3bc2e813f5, 2020-09-07)">
  <metadata
     id="metadata28">
    <rdf:RDF>
      <cc:Work
         rdf:about="">
        <dc:format>image/svg+xml</dc:format>
        <dc:type
           rdf:resource="http://purl.org/dc/dcmitype/StillImage" />
      </cc:Work>
    </rdf:RDF>
  </metadata>
  <defs
     id="defs26" />
  <sodipodi:namedview
     pagecolor="#ffffff"
     bordercolor="#666666"
     borderopacity="1"
     objecttolerance="10"
     gridtolerance="10"
     guidetolerance="10"
     inkscape:pageopacity="0"
     inkscape:pageshadow="2"
     inkscape:window-width="1366"
     inkscape:window-height="705"
     id="namedview24"
     showgrid="false"
     inkscape:zoom="1.1934765"
     inkscape:cx="129.7305"
     inkscape:cy="180.9715"
     inkscape:window-x="-8"
     inkscape:window-y="-8"
     inkscape:window-maximized="1"
     inkscape:current-layer="svg22" />
  <path
     d="M12.142.783c0 2.773-8.989 10.156-11.359 10.156v62.007c.556 1.827 1.256 3.416 2.073 4.805a18.63 18.63 0 0 0 .854 1.323c1.93 2.726 4.363 4.564 7.019 5.881l.617.295c8.688 4.003 19.486 2.86 22.979 8.944.083-.145.171-.285.262-.422 5.753-8.62 27.439-1.643 33.28-20.826V10.939c-2.37 0-11.359-7.383-11.359-10.156H34.325z"
     fill="#fff"
     stroke="#000"
     stroke-width="1.565"
     id="path2" />
  <path
     d="M17.888 8.868c0 1.698-3.107 4.477-5.011 4.477v28.464h2.94v-5.345h3.675c-7.125-5.468-4.556-15.199 1.804-18.508 4.74-2.466 13.03-3.922 13.03-6.481 0 2.559 8.289 4.015 13.029 6.481 6.361 3.309 8.929 13.04 1.804 18.508h3.675v5.345h2.94V13.344c-1.904 0-5.012-2.778-5.012-4.477H34.325z"
     fill="#dccb61"
     id="path4"
     style="fill:#ffd700;" />
  <g
     opacity=".997"
     id="g10">
    <path
       d="M12.877 45.482h42.897v22.206c-14.803 6.898-28.093 7.03-42.897 0z"
       fill="#0052b3"
       id="path6" />
    <path
       d="M34.325 45.482v25.844l4.754-.803V45.482zm8.015 0v24.427l4.063-.992V45.482zm7.153 0v22.252l3.408-1.069V45.482z"
       fill="#1b7030"
       id="path8" />
  </g>
  <path
     d="M32.33 14.914c-.295.277-.593.656-.555 1.291-.834-.091-.883.208-1.123.412.239.224.478.699 1.086.533-.117 1.221-.463 2.165-1.757 2.507l.043 18.542h-1.426V21.875c.703-.106.81-.412.969-.701-.383-.174-.714-.562-1.193-.334.138-.73-.232-.914-.41-1.303-.295.277-.593.656-.555 1.291-.834-.091-.883.208-1.123.412.239.224.478.698 1.086.533-.117 1.221-.463 2.165-1.758 2.507V38.2h-1.12V26.742c.629-.106.726-.413.869-.702-.343-.174-.64-.562-1.069-.334.124-.73-.208-.914-.368-1.303-.264.277-.531.656-.497 1.291-.747-.091-.791.208-1.006.412.215.224.429.698.973.533-.105 1.221-.415 2.165-1.575 2.507V38.2h-4.033v3.609h33.074V38.2h-4.977v-9.054c-1.16-.342-1.47-1.286-1.575-2.507.544.165.759-.308.973-.533-.215-.205-.259-.503-1.006-.412.034-.636-.233-1.014-.497-1.291-.16.389-.491.573-.367 1.303-.429-.227-.726.16-1.069.334.142.289.239.595.869.702V38.2h-1.12V24.28c-1.294-.342-1.641-1.286-1.758-2.507.608.165.847-.308 1.086-.533-.24-.205-.29-.503-1.123-.412.038-.636-.26-1.014-.555-1.291-.179.389-.549.573-.41 1.303-.479-.227-.81.16-1.193.334.159.289.267.595.969.701V38.2h-1.426l.043-18.542c-1.294-.342-1.64-1.286-1.757-2.507.608.165.846-.309 1.086-.533-.24-.205-.289-.503-1.123-.412.038-.636-.26-1.014-.555-1.291-.179.389-.549.573-.41 1.303-.445-.211-.763.106-1.113.292-.35-.186-.668-.503-1.113-.292.138-.73-.232-.914-.41-1.303zm1.523 1.783c.133.24.304.468.889.556L34.698 38.2h-1.69l-.044-20.948c.584-.088.756-.316.889-.556z"
     id="path12" />
  <g
     fill="red"
     stroke="#fff"
     stroke-width=".487"
     id="g18">
    <path
       d="M3.297 71.345c3.767 3.783 10.346 6.115 10.378 6.241l3.04-5.84c-3.255-1.578-6.52-3.25-9.958-6.575l.349 4.606zm62.056 0c-3.767 3.783-10.346 6.115-10.378 6.241l-3.04-5.84c3.255-1.578 6.52-3.25 9.958-6.575l-.349 4.606z"
       id="path14" />
    <path
       d="M55.694 72.143a21.07 21.07 0 0 1-2.021.952c-4.569 1.865-11.95 3.2-19.349 3.2s-14.78-1.334-19.349-3.2c-.759-.31-1.429-.633-2.021-.951l-.007.001-3.681 5.689c5.897 3.232 15.188 5.136 25.058 5.136s19.161-1.904 25.058-5.136l-3.681-5.689z"
       opacity=".994"
       fill-rule="evenodd"
       stroke-linejoin="round"
       id="path16" />
  </g>
  <path
     d="M12.056 77.051l1.08-2.559.517.218-1.08 2.559zm1 .435l.925-2.619.792.279-.156 1.955 1.101-1.621.793.28-.925 2.619-.491-.173.728-2.062-1.248 1.878-.509-.18.21-2.245-.728 2.062zm5.479 1.718l-.588-.163-.065-.673-1.07-.297-.39.547-.573-.159 1.786-2.387.571.159zm-.701-1.335l-.093-1.096-.637.893zm.999 1.399l.601-2.712.533.118.708 2.057.402-1.811.509.113-.601 2.712-.549-.122-.701-2.011-.392 1.768zm6.127 1.152l-.603-.095-.141-.661-1.097-.174-.325.587-.588-.093 1.503-2.574.586.093zm-.848-1.247l-.217-1.078-.532.959zm1.135 1.284l.31-2.76.834.094.289 1.939.707-1.827.836.094-.31 2.76-.518-.058.244-2.173-.792 2.111-.537-.06-.302-2.234-.244 2.173zm5.721.516l-.609-.042-.199-.646-1.108-.076-.272.614-.594-.041 1.269-2.697.592.041zm-.955-1.167l-.311-1.055-.445 1.003zm1.259 1.176l.078-2.777.545.015 1.084 1.886.052-1.854.521.015-.078 2.777-.563-.016-1.068-1.842-.051 1.811zm3.793-2.714l.561-.016.042 1.504q.01.358.034.463.041.169.178.27.139.098.374.092.239-.007.357-.107.118-.102.139-.245.021-.143.011-.472l-.043-1.536.561-.016.041 1.458q.014.5-.025.708-.04.208-.159.353-.117.145-.319.236-.202.089-.532.098-.398.011-.607-.074-.207-.087-.331-.23-.123-.144-.166-.304-.062-.237-.075-.703zm2.876 2.691l-.198-2.771.837-.06.638 1.854.362-1.926.839-.06.198 2.771-.52.037-.156-2.181-.394 2.22-.539.038-.704-2.142.156 2.181zm5.719-.536l-.606.07-.313-.599-1.103.127-.155.653-.591.068.756-2.884.589-.068zm-1.152-.973l-.499-.98-.254 1.067zm1.452.927l-.435-2.744.539-.085 1.413 1.654-.29-1.832.515-.082.435 2.744-.556.088-1.389-1.614.283 1.789zm6.124-1.168l-.596.132-.373-.563-1.084.24-.087.666-.581.129.455-2.946.579-.128zm-1.246-.849l-.597-.923-.143 1.088zm1.528.78l-.755-2.673.808-.228 1 1.686-.036-1.959.81-.229.755 2.673-.501.142-.595-2.104.064 2.254-.52.147-1.123-1.955.595 2.104zm3.091-.911l-.881-2.634.532-.178.881 2.634zm1.048-.34l-1.015-2.586.508-.199 1.736 1.311-.678-1.727.485-.19 1.015 2.586-.524.206-1.704-1.277.662 1.686z"
     fill="#fff"
     id="path20" />
</svg>
