<?xml version="1.0" encoding="UTF-8" standalone="no"?>
<svg
   xmlns:dc="http://purl.org/dc/elements/1.1/"
   xmlns:cc="http://creativecommons.org/ns#"
   xmlns:rdf="http://www.w3.org/1999/02/22-rdf-syntax-ns#"
   xmlns:svg="http://www.w3.org/2000/svg"
   xmlns="http://www.w3.org/2000/svg"
   xmlns:xlink="http://www.w3.org/1999/xlink"
   xmlns:sodipodi="http://sodipodi.sourceforge.net/DTD/sodipodi-0.dtd"
   xmlns:inkscape="http://www.inkscape.org/namespaces/inkscape"
   width="276.643"
   height="320.712"
   viewBox="0 0 73.195 84.855"
   version="1.1"
   id="svg233"
   sodipodi:docname="Seal of Madiun Regency (1).svg"
   inkscape:version="1.0.1 (3bc2e813f5, 2020-09-07)">
  <metadata
     id="metadata237">
    <rdf:RDF>
      <cc:Work
         rdf:about="">
        <dc:format>image/svg+xml</dc:format>
        <dc:type
           rdf:resource="http://purl.org/dc/dcmitype/StillImage" />
      </cc:Work>
    </rdf:RDF>
  </metadata>
  <sodipodi:namedview
     pagecolor="#ffffff"
     bordercolor="#666666"
     borderopacity="1"
     objecttolerance="10"
     gridtolerance="10"
     guidetolerance="10"
     inkscape:pageopacity="0"
     inkscape:pageshadow="2"
     inkscape:window-width="1366"
     inkscape:window-height="705"
     id="namedview235"
     showgrid="false"
     inkscape:zoom="1.4029252"
     inkscape:cx="176.39414"
     inkscape:cy="153.55993"
     inkscape:window-x="-8"
     inkscape:window-y="-8"
     inkscape:window-maximized="1"
     inkscape:current-layer="svg233" />
  <style
     id="style2"><![CDATA[.B{fill:#f5c742}.C{fill:#ffeba3}.D{stroke:#a07843}.E{fill:#00a859}.F{stroke:#00753e}.G{stroke-width:.265}.H{fill:#00753e}.I{stroke-width:.185}.J{fill:#fff}.K{stroke-width:.165}.L{opacity:.999}.M{stroke:#f5c742}.N{stroke-width:1.587}]]></style>
  <path
     d="M36.598 9.503c-13.28-.12-24.175 6.363-32.444 15.932C1.692 56.937 17.652 74.45 36.598 83.951c18.946-9.502 34.906-27.014 32.444-58.516-8.269-9.57-19.164-16.052-32.444-15.932z"
     stroke-width="1.616"
     class="L M"
     id="path4" />
  <g
     id="g1077">
    <path
       d="M32.705 15.744l2.328 1.717v.004"
       class="C"
       id="path6" />
    <path
       d="M37.601 15.739h-.007l-.997-2.845-.004.013-.987 2.828-.002.004-2.913-.006.015.011 2.327 1.721-.85 2.86.018-.012 2.392-1.72.004-.003 2.417 1.631-.002-.005-.889-2.781h.001l2.377-1.697.004-.003z"
       class="J"
       id="path8" />
    <path
       fill="#a07843"
       d="M34.182 20.497c-.035 0-.07-.011-.1-.032-.06-.043-.087-.119-.066-.19l.815-2.744-2.244-1.659c-.06-.044-.085-.122-.062-.193s.09-.119.164-.119h0l2.791.006.952-2.73c.024-.069.09-.116.163-.116h0c.073 0 .139.046.163.116l.956 2.73 2.789-.006h0c.075 0 .141.048.164.12s-.003.15-.064.193l-2.28 1.628.845 2.644c.011.023.017.048.017.075 0 .095-.077.173-.173.173-.016 0-.031-.002-.046-.006s-.036-.012-.053-.023L36.6 18.798l-2.317 1.666c-.029.022-.065.032-.1.032zm-.966-4.59l1.919 1.419c.058.043.084.118.063.188l-.706 2.376 2-1.438a.18.18 0 0 1 .202-.006l2.004 1.353-.739-2.312c-.023-.071.003-.148.063-.192l1.944-1.387-2.364.005h0c-.073 0-.145-.046-.169-.116l-.834-2.379-.829 2.375c-.024.069-.091.12-.165.12h0l-2.388-.005z"
       id="path10" />
    <path
       d="M36.597 12.894l-.004.013v4.049l1.008-1.216h-.007z"
       class="B"
       id="path12" />
    <g
       class="C"
       id="g18">
      <path
         d="M32.705 15.744l2.328 1.717v.004l1.56-.505v-.003z"
         id="path14" />
      <path
         d="M36.59 16.955l.003.001v-4.049l-.987 2.828z"
         id="path16" />
    </g>
    <path
       d="M35.604 15.739l-2.913-.006.015.011 3.884 1.211-.984-1.22z"
       class="B"
       id="path20" />
    <path
       d="M40.501 15.736l.004-.003-2.905.006-1.006 1.214z"
       class="C"
       id="path22" />
    <path
       d="M36.592 16.956h0l1.531.477 2.377-1.697-3.906 1.217z"
       class="B"
       id="path24" />
    <path
       d="M38.124 17.433l-1.531-.477v.003l2.42 3.256-.889-2.781z"
       class="C"
       id="path26" />
    <g
       class="B"
       id="g32">
      <path
         d="M36.592 18.592l.004-.003 2.417 1.631-.002-.005-2.42-3.256z"
         id="path28" />
      <path
         d="M36.585 16.962l-1.552.503-.85 2.86.018-.012z"
         id="path30" />
    </g>
    <path
       d="M36.585 16.962L34.2 20.312l2.392-1.72v-1.633z"
       class="C"
       id="path34" />
  </g>
  <g
     id="g1310">
    <path
       d="M29.907 45.599h13.382v7.682H29.907z"
       opacity=".988"
       fill-rule="evenodd"
       class="J"
       id="path36" />
    <path
       d="M36.598 20.713c-.759.152-1.966.545-3.119 1.612-.769-.381-2.933-.087-4.486.841-1.073.641-1.852 1.74-2.488 3.189-1.349.605-3.11 1.46-2.909 5.818-.108 2.227.68 3.872 1.332 5.607.336-1.885 1.259-1.726 1.682-2.979-.119.868.735.514 1.262 2.874.131-1.162-.468-3.091.701-3.189.313-.026.766.054.697 1.167-.039.624.565.447.495 1.987.913-.941.121-3.079 1.239-3.173s.434 2.319 1.074 3.558c.894-1.626-.149-4.005 1.998-3.89s.415 3.367.585 4.451-.286 2.735-1.041 4.276l-2.035 2.736h5.014 5.015l-2.036-2.736c-.755-1.541-1.211-3.192-1.041-4.276s-1.562-4.336.585-4.451 1.104 2.264 1.998 3.89c.639-1.239-.045-3.652 1.074-3.558s.326 2.232 1.239 3.173c-.07-1.539.534-1.363.495-1.987-.07-1.113.384-1.194.697-1.167 1.169.098.569 2.027.701 3.189.527-2.36 1.381-2.006 1.262-2.874.423 1.253 1.346 1.094 1.682 2.979.651-1.735 1.44-3.381 1.332-5.607.201-4.358-1.56-5.213-2.909-5.818-.636-1.449-1.415-2.548-2.488-3.189-1.553-.928-3.717-1.222-4.486-.841-1.153-1.067-2.36-1.459-3.119-1.612z"
       class="E F K"
       id="path38" />
    <path
       d="M23.589 31.998l.007.175c.764.429.842 1.518 1.051 2.48-.159-.975.035-2.115-1.058-2.655zm2.295-.339c-.123.746-.415 1.509.087 2.193.423.498.661 1.019.854 1.626-.126-.442.061-.827-.395-1.329-.59-.789-.607-1.636-.545-2.491zm2.478 2.87l.211-.043c.094-.665.11-1.33.499-1.866.649-.894-.056-1.547-.166-2.287.014.684.425 1.341.009 2.059-.352.608-.704 1.215-.552 2.137zm2.463-.024c.178-.037.291-.038.291-.038-.089-.857-.149-1.709.339-2.294.608-.73-.064-1.419-.158-2.129-.013.709.439 1.4-.079 2.129-.288.405-.542.893-.394 2.332zm3.101-.373l.236.011c-.154-.697-.229-1.262.272-1.839s.181-1.587-.037-2.472c-.029.788.392 1.553-.149 2.36s-.352 1.372-.322 1.94zm-7.484-7.749l.223-.232c.165.813-.124.892-.107 1.58.016.645.391 1.025.745 1.603-.329-.444-.709-.526-.973-1.498-.084-.311-.144-.593.113-1.453zm2.551-3.217l.346-.191c-.088.756-.131 1.509.355 1.944.877.785.607 1.562.578 2.366-.147-.718.017-1.439-.622-2.147-.373-.413-.749-.801-.657-1.971zm4.341-.789l.818-.6c-.411.959-1.115 1.78-1.019 2.955.089 1.087.694 1.402.607 2.961-.099-1.423-.842-1.662-.917-3.023-.045-.826.286-1.544.512-2.293zm16.274 9.621l-.007.175c-.764.429-.842 1.518-1.051 2.48.159-.975-.035-2.115 1.058-2.655zm-2.296-.339c.123.746.415 1.509-.087 2.193-.423.498-.661 1.019-.854 1.626.126-.442-.061-.827.395-1.329.59-.789.607-1.636.545-2.491zm-2.477 2.87l-.211-.043c-.094-.665-.11-1.33-.499-1.866-.649-.894.056-1.547.166-2.287-.014.684-.425 1.341-.009 2.059.352.608.704 1.215.552 2.137zm-2.463-.024c-.178-.037-.291-.038-.291-.038.089-.857.149-1.709-.339-2.294-.608-.73.064-1.419.158-2.129.013.709-.439 1.4.079 2.129.288.405.542.893.394 2.332zm-3.101-.373l-.236.011c.154-.697.229-1.262-.272-1.839s-.181-1.587.037-2.472c.029.788-.392 1.553.149 2.36s.352 1.372.322 1.94zm7.483-7.749l-.223-.232c-.165.813.124.892.107 1.58-.016.645-.391 1.025-.745 1.603.329-.444.709-.526.973-1.498.084-.311.144-.593-.113-1.453zm-2.551-3.217l-.346-.191c.088.756.131 1.509-.355 1.944-.877.785-.607 1.562-.578 2.366.147-.718-.017-1.439.622-2.147.373-.413.749-.801.657-1.971zm-4.341-.789l-.818-.6c.411.959 1.115 1.78 1.019 2.955-.089 1.087-.694 1.402-.607 2.961.099-1.423.842-1.662.917-3.023.045-.826-.286-1.544-.512-2.293z"
       class="H"
       id="path40" />
    <path
       d="M33.106 45.599h7.038c-.748-1.238-1.977-2.19-1.958-3.891s-.705-1.8-.35-3.037c.227-.789-.008-1.6-.195-2.44-.134-.603.105-1.179.203-1.777.309-1.901-.822-2.32-.429-3.548.686-2.142-.369-2.62-.592-3.894-.164 1.09-.03 2.009-.496 3.271-.23.623-.699 1.469-.173 2.33.195.319.432.64.074 1.338s-.722 1.481-.421 2.33c.171.484.539.778 0 1.685-.642 1.079-.336 1.565-.186 2.119.364 1.344-.645 1.338-.694 2.478-.072 1.68-1.001 2.085-1.821 3.036z"
       class="B D G"
       id="path104" />
    <path
       d="M34.798 45.062c.64-.577.465-1.197.499-1.822.074-1.336.446-1.362.745-1.638-.555.503-.586 1.119-.552 1.691.065 1.09-.221 1.558-.692 1.77zm1.665-1.788c.586.204.055.945.605 1.454-.738-.506-.183-1.218-.605-1.454zm-.308-7.545c.058 1.012.463 1.087.812 1.289-.622-.491-.588-.798-.607-1.239-.034-.776.911-.871.502-2.311.232 1.208-.742 1.628-.706 2.261zm.692 4.547c.969.635-.118 3.797 1.608 5.06-2.461-1.598-.705-4.121-1.608-5.06z"
       fill="#a07843"
       id="path106" />
    <path
       d="M37.617 33.654c.012-.858-.949-1.501-.644-2.399.374-.57.116-1.874.072-1.965.112 1.017-.879 1.884-.519 2.901.538.939.977 2.108.221 3.104-.771.779.848 1.614.249 2.201-.613-.539-.174.779-.742.915-.503.907.124 1.958-.066 2.938.387.743-.501 1.128-.452 1.843.019.362-.249 1.657.264 1.31l.698-2.201c.044-.769-.071-1.544-.031-2.306.924-.539.729 1.094.722 1.662.086 1.034.463 2.05.906 2.991.102.459 1.293.37.569-.13-.553-.729-.766-1.619-.977-2.491-.044-1.04-.356-2.049-.46-3.08.149-1.026-.129-2.004-.271-3.004-.087-.731.275-1.382.446-2.065l.012-.112.002-.112z"
       class="C"
       id="path108" />
    <path
       d="M36.091 51.528c-.719-.015-1.263-.614-1.411-1.312-.119-.559.288-1.562.948-1.616.365-.03.556.314.732.522-.476-.524-.417-1.017-.472-1.632l-.008-1.879 1.916-.012c.041 1.027.2 2.053.164 3.601-.04 1.715-.911 2.348-1.868 2.328z"
       class="B D G"
       id="path110" />
    <path
       d="M37.339 46.104c-.742-.178-.884.668-.71 1.187-.128.709.253 1.296.529 1.898.193.551-.571 1.292-1.058.873-.155-.351-.623-.873-.829-.255s.178 1.448.919 1.335c.725-.105 1.365-.778 1.364-1.526.286-.701-.286-1.373-.153-2.087-.107-.415.539-1.298-.063-1.425z"
       class="C"
       id="path112" />
  </g>
  <g
     id="g1300">
    <path
       d="m 16.382,37.08 c 1.623,3.659 4.228,7.635 9.848,8.832 l 2.348,3.259 C 18.464,47.471 16.291,40.924 16.382,37.08 Z"
       id="path46"
       style="fill:#f5c742;stroke:#a07843;stroke-width:0.265" />
    <path
       d="m 16.662,42.827 c 2.539,3.52 6.624,5.623 11.495,6.624 l 1.612,2.033 C 19.633,50.626 17.632,45.849 16.661,42.827 Z"
       id="path48"
       style="fill:#f5c742;stroke:#a07843;stroke-width:0.265" />
    <path
       d="m 17.994,47.734 c 2.876,2.783 7.122,3.47 11.566,3.855 l 2.173,1.542 c -8.524,1.478 -12.317,-1.5 -13.738,-5.397 z"
       id="path50"
       style="fill:#f5c742;stroke:#a07843;stroke-width:0.265" />
    <path
       d="m 21.919,53.517 c 4.542,1.559 6.851,0.145 8.727,0.14 l 1.122,1.157 c -2.026,2.515 -7.619,2.319 -9.848,-1.297 z"
       id="path52"
       style="fill:#f5c742;stroke:#a07843;stroke-width:0.265" />
    <path
       d="m 16.976,39.894 c 1.316,1.965 3.188,5.146 7.16,6.423 l 1.86,1.724 C 20.722,46.69 18.374,43.583 16.977,39.895 Z m 1.035,5.509 c 3.852,3.623 6.483,3.888 8.148,4.311 l 1.349,0.718 c -3.343,0.265 -7.27,-1.976 -9.498,-5.029 z"
       id="path56"
       style="fill:#ffeba3" />
    <use
       xlink:href="#D"
       id="use58"
       style="fill:#ffeba3"
       x="0"
       y="0"
       width="100%"
       height="100%" />
    <path
       d="m 23.884,54.818 c 1.796,0.252 3.481,0.944 5.65,-0.297 h 0.867 l -0.322,1.016 c -2.265,0.726 -4.327,0.471 -6.196,-0.719 z"
       id="path60"
       style="fill:#ffeba3" />
    <use
       xlink:href="#E"
       stroke-width=".2"
       class="B D"
       id="use64" />
    <use
       xlink:href="#F"
       fill="#ed3237"
       stroke="#900d10"
       class="K"
       id="use66" />
    <use
       xlink:href="#B"
       class="B D G"
       id="use42"
       x="0"
       y="0"
       width="100%"
       height="100%" />
    <path
       d="M24.028 41.137l.133.344c.422 1.095 1.22 2.191 2.424 3.453a.28.28 0 0 1-.213.473c-.529-.02-1.093.032-1.811-.201l-.406-.133.229.359c.62.973 1.537 1.737 2.557 2.439a.28.28 0 0 1-.066.494c-.089.031-.312.217-.705.197l-.469-.023.363.295c.87.708 1.641.975 2.473 1.34a.28.28 0 0 1-.031.523l-1.152.357-.363.082.316.195c.533.33 1.448.495 2.385.658a.28.28 0 0 1 .135.486c-.203.177-.494.402-1.051.771l-.223.148.24.117c.651.316 1.278.257 1.961.066a.28.28 0 0 1 .35.314l-.168 1.031.277-.156c.544-.306.922-.458 1.197-.512.124-.024.219-.035.32-.019s.188.065.232.094c.098.064.144.13.203.203l.195.246a3.26 3.26 0 0 0 .621.598c.385.28.78.365 1.104.287.329-.079.589-.314.752-.605.329-.59.306-1.445-.281-2.018-.536-.522-.861-.723-1.074-.887-.094-.072-.183-.139-.26-.248s-.127-.227-.203-.424l-.512-1.502c-.194-.42-.53-.801-1.182-1.125-.389-.193-.811-.585-1.189-1.068s-.706-1.051-.814-1.621c-.462-2.419-1.416-3.435-2.518-3.918-1.117-.49-2.34-.477-3.439-.965zm1.148.697a.28.28 0 0 1 .064.008c.836.209 1.726.377 2.439.689.51.223 1 .555 1.4 1.131s.716 1.382.941 2.563c.242 1.267 1.276 2.465 2.168 2.908.607.302.871.613 1.039.979.179.388.264.857.506 1.482.164.425.346.639.561.803.234.179.527.356 1.047.863.481.469.492 1.176.227 1.652-.13.232-.326.4-.557.455-.214.052-.519.006-.85-.234-.247-.18-.4-.391-.543-.574s-.275-.342-.49-.482c-.181-.118-.468-.178-.781-.117-.064.012-.327.148-.557.24a.28.28 0 0 1-.379-.305l.143-.883-.258.111c-.527.226-.981.318-1.416.313a.28.28 0 0 1-.168-.5l.398-.291c.222-.2.332-.353.447-.51l.154-.209-.26-.033c-.735-.093-1.144-.297-1.639-.439a.28.28 0 0 1-.008-.535c.314-.102.493-.105.783-.242l.289-.139-.289-.137c-.858-.408-1.655-.835-2.467-1.33a.28.28 0 0 1 .027-.492c.138-.065.277-.092.402-.119l.248-.062.254-.119-.238-.148c-.978-.605-1.788-1.295-2.469-2.055a.28.28 0 0 1 .252-.465c.676.105 1.341.271 1.875.209l.328-.039-.242-.227c-1.382-1.296-2.11-2.309-2.637-3.309a.28.28 0 0 1 .252-.41z"
       class="C"
       id="path68" />
    <use
       xlink:href="#C"
       class="C"
       id="use44"
       x="0"
       y="0"
       width="100%"
       height="100%" />
    <path
       d="M26.27 42.924c.433.619.962 1.273 1.814 2.072l.68.639c.138.129.188.326.129.506s-.217.308-.404.33l-.926.107c-.173.02-.315-.043-.484-.049.378.316.686.668 1.141.949l.68.42c.151.094.239.263.229.44s-.117.335-.277.411l-.379.178 1.445.779.826.391c.17.08.279.251.279.439s-.109.359-.279.439l-.279.133c.034.005.05.019.086.023l.732.092c.171.022.317.132.385.29s.047.341-.055.479l-.174.236.283-.121c.163-.069.35-.045.489.064s.208.285.18.459l-.094.572c.453-.067.897 0 1.25.23.319.208.524.458.676.652s.254.328.389.426c.215.156.205.114.223.109-.01.002.015.008.066-.084.091-.164.096-.545-.094-.73-.483-.47-.696-.59-.977-.805-.314-.24-.605-.602-.811-1.133l-.486-1.439c-.128-.277-.166-.355-.686-.613-1.155-.574-2.28-1.889-2.578-3.449-.213-1.114-.502-1.816-.818-2.27s-.654-.681-1.078-.867c-.279-.122-.727-.21-1.104-.309z"
       fill="#f05458"
       id="path70" />
  </g>
  <g
     id="g1249">
    <use
       xlink:href="#B"
       x="157.722"
       y="126.685"
       class="B D G"
       id="use72"
       width="100%"
       height="100%"
       transform="matrix(-1,0,0,1,230.9174,-126.685)" />
    <use
       xlink:href="#C"
       x="157.722"
       y="126.685"
       class="C"
       id="use74"
       width="100%"
       height="100%"
       transform="matrix(-1,0,0,1,230.9174,-126.685)" />
    <path
       d="m 56.8134,37.08 c -1.623,3.659 -4.228,7.635 -9.848,8.832 l -2.348,3.259 c 10.114,-1.7 12.287,-8.247 12.196,-12.091 z"
       id="path76"
       style="fill:#f5c742;stroke:#a07843;stroke-width:0.265" />
    <path
       d="m 56.5334,42.827 c -2.539,3.52 -6.624,5.623 -11.495,6.624 l -1.612,2.033 c 10.136,-0.858 12.137,-5.635 13.108,-8.657 z"
       id="path78"
       style="fill:#f5c742;stroke:#a07843;stroke-width:0.265" />
    <path
       d="m 55.2014,47.734 c -2.876,2.783 -7.122,3.47 -11.566,3.855 l -2.173,1.542 c 8.524,1.478 12.317,-1.5 13.738,-5.397 z"
       id="path80"
       style="fill:#f5c742;stroke:#a07843;stroke-width:0.265" />
    <path
       d="m 51.2764,53.517 c -4.542,1.559 -6.851,0.145 -8.727,0.14 l -1.122,1.157 c 2.026,2.515 7.619,2.319 9.848,-1.297 z"
       id="path82"
       style="fill:#f5c742;stroke:#a07843;stroke-width:0.265" />
    <path
       d="m 56.2194,39.894 c -1.316,1.965 -3.188,5.146 -7.16,6.423 l -1.86,1.724 c 5.274,-1.351 7.622,-4.458 9.019,-8.146 z m -1.036,5.509 c -3.852,3.623 -6.483,3.888 -8.148,4.311 l -1.349,0.718 c 3.343,0.265 7.27,-1.976 9.498,-5.029 z"
       id="path86"
       style="fill:#ffeba3" />
    <use
       xlink:href="#D"
       x="157.722"
       y="126.685"
       id="use88"
       width="100%"
       height="100%"
       style="fill:#ffeba3"
       transform="matrix(-1,0,0,1,230.9174,-126.685)" />
    <path
       d="m 49.3114,54.818 c -1.796,0.252 -3.481,0.944 -5.65,-0.297 h -0.867 l 0.322,1.016 c 2.265,0.726 4.327,0.471 6.196,-0.719 z"
       id="path90"
       style="fill:#ffeba3" />
    <use
       xlink:href="#E"
       x="157.722"
       y="126.685"
       stroke-width="0.2"
       class="B D"
       id="use94"
       width="100%"
       height="100%"
       transform="matrix(-1,0,0,1,230.9174,-126.685)" />
    <use
       xlink:href="#F"
       x="157.722"
       y="126.685"
       fill="#ed3237"
       stroke="#900d10"
       class="K"
       id="use96"
       width="100%"
       height="100%"
       transform="matrix(-1,0,0,1,230.9174,-126.685)" />
    <path
       d="m 49.1674,41.137 -0.133,0.344 c -0.422,1.095 -1.22,2.191 -2.424,3.453 a -0.28,0.28 0 0 0 0.213,0.473 c 0.529,-0.02 1.093,0.032 1.811,-0.201 l 0.406,-0.133 -0.229,0.359 c -0.62,0.973 -1.537,1.737 -2.557,2.439 a -0.28,0.28 0 0 0 0.066,0.494 c 0.089,0.031 0.312,0.217 0.705,0.197 l 0.469,-0.023 -0.363,0.295 c -0.87,0.708 -1.641,0.975 -2.473,1.34 a -0.28,0.28 0 0 0 0.031,0.523 l 1.152,0.357 0.363,0.082 -0.316,0.195 c -0.533,0.33 -1.448,0.495 -2.385,0.658 a -0.28,0.28 0 0 0 -0.135,0.486 c 0.203,0.177 0.494,0.402 1.051,0.771 l 0.223,0.148 -0.24,0.117 c -0.651,0.316 -1.278,0.257 -1.961,0.066 a -0.28,0.28 0 0 0 -0.35,0.314 l 0.168,1.031 -0.277,-0.156 c -0.544,-0.306 -0.922,-0.458 -1.197,-0.512 -0.124,-0.024 -0.219,-0.035 -0.32,-0.019 -0.101,0.016 -0.188,0.065 -0.232,0.094 -0.098,0.064 -0.144,0.13 -0.203,0.203 l -0.195,0.246 a -3.26,3.26 0 0 1 -0.621,0.598 c -0.385,0.28 -0.78,0.365 -1.104,0.287 -0.329,-0.079 -0.589,-0.314 -0.752,-0.605 -0.329,-0.59 -0.306,-1.445 0.281,-2.018 0.536,-0.522 0.861,-0.723 1.074,-0.887 0.094,-0.072 0.183,-0.139 0.26,-0.248 0.077,-0.109 0.127,-0.227 0.203,-0.424 l 0.512,-1.502 c 0.194,-0.42 0.53,-0.801 1.182,-1.125 0.389,-0.193 0.811,-0.585 1.189,-1.068 0.378,-0.483 0.706,-1.051 0.814,-1.621 0.462,-2.419 1.416,-3.435 2.518,-3.918 1.117,-0.49 2.34,-0.477 3.439,-0.965 z m -1.148,0.697 a -0.28,0.28 0 0 0 -0.064,0.008 c -0.836,0.209 -1.726,0.377 -2.439,0.689 -0.51,0.223 -1,0.555 -1.4,1.131 -0.4,0.576 -0.716,1.382 -0.941,2.563 -0.242,1.267 -1.276,2.465 -2.168,2.908 -0.607,0.302 -0.871,0.613 -1.039,0.979 -0.179,0.388 -0.264,0.857 -0.506,1.482 -0.164,0.425 -0.346,0.639 -0.561,0.803 -0.234,0.179 -0.527,0.356 -1.047,0.863 -0.481,0.469 -0.492,1.176 -0.227,1.652 0.13,0.232 0.326,0.4 0.557,0.455 0.214,0.052 0.519,0.006 0.85,-0.234 0.247,-0.18 0.4,-0.391 0.543,-0.574 0.143,-0.183 0.275,-0.342 0.49,-0.482 0.181,-0.118 0.468,-0.178 0.781,-0.117 0.064,0.012 0.327,0.148 0.557,0.24 a -0.28,0.28 0 0 0 0.379,-0.305 l -0.143,-0.883 0.258,0.111 c 0.527,0.226 0.981,0.318 1.416,0.313 a -0.28,0.28 0 0 0 0.168,-0.5 l -0.398,-0.291 c -0.222,-0.2 -0.332,-0.353 -0.447,-0.51 l -0.154,-0.209 0.26,-0.033 c 0.735,-0.093 1.144,-0.297 1.639,-0.439 a -0.28,0.28 0 0 0 0.008,-0.535 c -0.314,-0.102 -0.493,-0.105 -0.783,-0.242 a -0.28,0.28 0 0 0 0,-0.002 l -0.289,-0.137 0.289,-0.137 a -0.28,0.28 0 0 0 0,-0.002 c 0.858,-0.406 1.655,-0.833 2.467,-1.328 a -0.28,0.28 0 0 0 -0.027,-0.492 c -0.138,-0.065 -0.277,-0.092 -0.402,-0.119 l -0.248,-0.062 -0.254,-0.119 0.238,-0.148 c 0.978,-0.605 1.788,-1.295 2.469,-2.055 a -0.28,0.28 0 0 0 -0.252,-0.465 c -0.676,0.105 -1.341,0.271 -1.875,0.209 l -0.328,-0.039 0.242,-0.227 c 1.382,-1.296 2.11,-2.309 2.637,-3.309 a -0.28,0.28 0 0 0 -0.252,-0.41 z"
       class="C"
       id="path98" />
    <path
       d="m 46.9254,42.924 c -0.433,0.619 -0.962,1.273 -1.814,2.072 l -0.68,0.639 a -0.486,0.486 0 0 0 0.275,0.836 l 0.926,0.107 c 0.173,0.02 0.315,-0.043 0.484,-0.049 -0.378,0.316 -0.686,0.668 -1.141,0.949 l -0.68,0.42 a -0.486,0.486 0 0 0 0.049,0.852 l 0.379,0.178 -1.445,0.779 -0.826,0.391 a -0.486,0.486 0 0 0 0,0.879 l 0.279,0.133 c -0.034,0.005 -0.05,0.019 -0.086,0.023 l -0.732,0.092 a -0.486,0.486 0 0 0 -0.33,0.77 l 0.174,0.236 -0.283,-0.121 a -0.486,0.486 0 0 0 -0.67,0.523 l 0.094,0.572 c -0.453,-0.067 -0.897,0 -1.25,0.23 -0.319,0.208 -0.524,0.458 -0.676,0.652 -0.152,0.194 -0.254,0.328 -0.389,0.426 -0.215,0.156 -0.205,0.114 -0.223,0.109 0.01,0.002 -0.015,0.008 -0.066,-0.084 -0.091,-0.164 -0.096,-0.545 0.094,-0.73 0.483,-0.47 0.696,-0.59 0.977,-0.805 0.314,-0.24 0.605,-0.602 0.811,-1.133 l 0.486,-1.439 c 0.128,-0.277 0.166,-0.355 0.686,-0.613 1.155,-0.574 2.28,-1.889 2.578,-3.449 0.213,-1.114 0.502,-1.816 0.818,-2.27 0.316,-0.454 0.654,-0.681 1.078,-0.867 0.279,-0.122 0.727,-0.21 1.104,-0.309 z"
       fill="#f05458"
       id="path100" />
  </g>
  <g
     id="g1169">
    <path
       d="M31.061 56.281c-.256.232-.236.617-.065.891.076.303.431.37.688.265.294-.076.571-.246.881-.241.181.049.325.188.5.258.199.107.431.098.639.024.311-.126.557.112.825.215.269.132.584-.09.819.13.228.199.537.262.77.448.175.282.06.656.142.836s.21.221.338.262c.128-.041.257-.082.339-.262s-.034-.554.141-.836c.234-.186.543-.248.771-.448.235-.221.55.002.819-.13.268-.103.514-.341.825-.215.208.074.44.083.639-.024.174-.07.319-.209.5-.258.31-.005.587.164.881.241.257.105.611.038.687-.265.172-.274.192-.659-.064-.891-.241-.273-.619-.295-.956-.253-.461.059-.866.301-1.263.525-.271.06-.479.432-.781.253-.27-.184-.581-.238-.876-.09-.305.058-.548-.199-.85-.166-.28-.002-.468.235-.812.235s-.532-.237-.812-.235c-.302-.033-.545.223-.85.166-.296-.148-.606-.094-.876.09-.302.178-.51-.194-.781-.253-.398-.224-.803-.466-1.292-.503s-.747.027-.927.231z"
       class="B D G L"
       id="path114" />
    <path
       d="M41.248 56.571c-.193.057-.491.184-.118.2.219.058.806.294.595-.128-.129-.114-.319-.085-.477-.072zm-9.301.025c-.218-.057-.717.005-.461.33.219-.08.652-.138.743-.214-.094-.039-.179-.103-.282-.116zm3.781.498c-.157.099-.675.126-.601.129.39-.036.583.237.901.348.217.04.537.424.585.412.196-.282.625-.437.859-.559.11-.2.662-.207.598-.207-.352-.001-.683-.241-.999.025-.422.179-.895.066-1.281-.146l-.062-.002z"
       class="C L"
       id="path116" />
    <g
       id="g1105">
      <g
         class="B D G"
         id="g126">
        <path
           d="M43.597 68.447c-1.643 1.712-3.813 2.634-6.484 2.804-4.256 3.071-6.254 1.878-7.5 2.944-1.005.438.105.703.701.596 1.963-.281 2.208.184 2.558.631.732.932 1.362.736 1.428.166-.385-1.799 1.208-2.405 2.112-2.97 1.894-.151 3.761-.42 5.783-.771 2.122-.368 2.886-1.482 3.61-2.734z"
           id="path118" />
        <path
           d="M29.6 68.447c1.643 1.712 3.813 2.634 6.484 2.804 4.256 3.071 6.254 1.878 7.5 2.944 1.005.438-.105.703-.701.596-1.963-.281-2.208.184-2.558.631-.732.932-1.362.736-1.428.166.385-1.799-1.208-2.405-2.112-2.97-1.894-.151-3.761-.42-5.783-.771-2.122-.368-2.886-1.482-3.61-2.734z"
           id="path120" />
        <path
           d="M34.993 70.725c-.225.133-.353.369-.38.623-.196.42-.117.916.114 1.306l.39.666c.182.204.452.316.679.468.257.102.551.041.824.075.297-.077.595-.152.862-.31.325-.171.558-.466.766-.761.14-.303.4-.61.329-.963-.11-.301-.491-.298-.686-.518-.398-.246-.785-.534-1.254-.627-.437-.09-.886.005-1.328-.035-.11-.005-.227.006-.317.076z"
           id="path122" />
        <path
           d="M36.132 70.146c-.318.204-.793.365-.827.805-.041.269-.011.582.23.753.232.192.537.252.797.396.383.156.82-.036 1.046-.363.279-.302.22-.745.164-1.118-.091-.306-.402-.469-.705-.478-.232-.041-.478-.078-.706.004z"
           id="path124" />
      </g>
      <path
         d="M35.045 71.846c-.081 1.493 1.787 1.795 2.668.856.364-.86-1.892.701-2.454-.508l-.214-.348zm1.672-1.317c-.833-.075-.414.573-.043.659.644.967.918-.81.043-.659zm1.921 2.553c.757.905 1.39 1.99 2.712 1.221.53-.07 2.08-.063.692-.335-1.222.054-2.341-.296-3.404-.887zm-4.09.07c-.754.885-1.333 1.481-2.712 1.221-.53-.07-2.08-.063-.692-.335 1.222.054 2.341-.296 3.404-.887zm-6.547-3.794l.876-.28c.514 1.098 3.545 2.334 5.222 2.576l.053.28c-1.449-.193-2.907-.356-4.293-.771-.772-.472-1.508-.975-1.858-1.805zm17.079.049l-.876-.28c-.514 1.098-3.545 2.334-5.222 2.576l-.053.28c1.449-.193 2.907-.356 4.293-.771.772-.472 1.508-.975 1.858-1.805z"
         class="C"
         id="path128" />
    </g>
  </g>
  <g
     id="g1285">
    <path
       d="m 13.643,60.631 c 0.679,0.155 0.896,0.342 2.155,0.456 0.027,-0.158 0.031,-0.333 -0.035,-0.561 0.577,0.204 1.127,0.416 1.542,0.666 -0.051,-0.712 0.389,-1.24 0.683,-1.822 0.351,1.943 2.556,1.989 3.172,3.96 -1.993,-0.729 -2.554,0.774 -3.505,0.315 -0.045,-0.23 -0.161,-0.174 -0.123,-0.736 -0.207,0.023 -0.32,0.022 -1.612,0.315 l 0.035,-0.473 c -0.713,0.414 -1.239,0.086 -1.822,-0.018 l 1.332,-0.228 C 14.308,61.843 14.168,61.249 13.643,60.63 Z"
       class="E F K"
       id="path130" />
    <path
       d="m 14.094,60.795 c 0.6,0.622 1.52,1.286 2.559,1.309 l -0.211,0.533 c 0.574,-0.27 1.198,-0.419 1.958,-0.248 0.294,0.124 -0.533,1.261 -0.657,1.264 -0.148,0.003 0.986,-0.359 1.004,-1.14 l 1.611,0.211 C 19.747,62.445 18.285,62.272 18.041,61.2 l 0.012,0.892 c -0.958,-0.079 -1.192,-0.341 -1.772,-0.88 l 0.012,0.57 c -0.785,-0.002 -0.948,-0.241 -2.2,-0.986 z"
       class="H"
       id="path132" />
    <path
       d="m 21.585,63.813 c -0.962,-1.481 -2.005,-2.973 -2.429,-4.386 -0.378,-0.641 -0.4,-1.21 -0.57,-1.809 0.272,0.256 0.537,0.431 0.83,0.928 0.374,-1.008 -0.498,-1.409 -0.666,-2.48 l 0.648,0.263 c -0.218,-0.848 0.499,-1.26 0.613,-2.322 -0.03,0.837 0.336,1.091 0.526,2.085 0.184,-0.176 0.431,-0.225 0.657,-0.315 -0.278,1.147 -0.13,1.509 -0.131,2.147 0.1,-0.28 0.406,-0.54 0.736,-0.797 0.083,0.818 -0.493,1.678 -0.859,2.585 0.16,-0.393 0.496,-0.707 0.841,-1.008 -0.191,1.178 -0.018,0.761 -0.026,1.139 0.234,-0.428 0.467,-0.644 0.701,-0.675 -0.399,1.61 0.25,2.145 0.149,4.188 z"
       class="E F G"
       id="path134" />
    <path
       d="m 19.636,59.808 c 0.774,1.329 1.688,1.471 2.629,3.435 -0.073,-1.654 -1.903,-2.562 -0.902,-4.451 l -0.57,0.526 c -0.746,-1.031 -0.171,-1.575 -0.123,-2.313 -0.132,0.239 -0.269,0.467 -0.561,0.386 0.144,-0.775 -0.128,-1.495 -0.315,-2.225 -0.11,0.746 0.241,1.577 -0.07,2.12 -0.197,-0.044 -0.421,-0.253 -0.64,-0.429 0.969,0.926 1.124,2.358 1.533,3.408 -0.317,-0.154 -0.415,-0.344 -0.981,-0.456 z"
       class="H"
       id="path136" />
    <path
       d="m 24.008,61.832 2.085,0.202 1.91,-1.919 c -0.731,-0.08 -1.518,-0.279 -1.936,0.289 0.074,-1.087 -0.314,-1.038 -0.158,-1.691 l -0.499,0.228 c -0.457,-0.615 -0.394,-1.379 -0.561,-2.077 -0.294,0.767 -0.836,1.362 -0.797,2.357 -0.282,-0.478 -0.59,-0.743 -0.894,-1.043 0.138,0.593 0.128,1.186 0.841,1.779 -0.331,0.145 -0.349,0.119 -0.438,0.131 0.414,0.943 0.781,0.617 1.06,1.209 -0.271,0.046 -0.459,0.256 -0.613,0.534 z"
       class="E F G"
       id="path138" />
    <path
       d="m 24.244,60.167 c 0.367,0.314 0.785,0.753 1.314,1.463 -0.117,-0.71 -0.24,-1.419 -0.061,-2.129 -0.212,0.05 -0.304,0.191 -0.429,0.307 -0.166,-0.508 -0.133,-1.07 -0.044,-1.647 L 24.849,57.39 c -0.308,1.018 -0.229,1.966 -0.026,2.891 -0.32,-0.129 -0.406,-0.091 -0.578,-0.114 z"
       class="H"
       id="path140" />
    <path
       d="m 10.954,27.892 c -0.173,0.236 0.726,2.54 0.979,2.268 0.308,-0.88 0.625,-1.684 0.966,-2.268 l -0.335,0.012 c -0.164,-0.136 0.384,-1.447 0.285,-1.388 -0.083,-0.042 -1.315,0.783 -1.524,1.462 z"
       class="E F G"
       id="path142" />
    <path
       d="m 11.325,28.313 c 0.3,0.341 0.402,0.799 0.372,1.338 0.189,-0.492 0.206,-1.035 0.694,-1.437 l -0.421,0.099 c -0.004,-0.416 0.327,-0.72 0.607,-1.041 l 0.074,-0.347 c -0.352,0.484 -0.802,0.883 -0.942,1.549 0,0 -0.384,-0.087 -0.384,-0.161 z"
       class="H"
       id="path144" />
    <path
       d="m 12.651,29.007 c 0.311,-0.112 0.603,-0.297 1.041,0.099 0.154,-0.896 0.26,-1.03 0.384,-1.45 l 0.322,0.322 c 0.357,-0.916 1.026,-0.336 2.949,-1.276 l -1.586,1.834 0.446,0.248 c -0.459,0.252 -0.767,0.579 -1.028,0.929 0.321,0.085 0.661,0.157 0.694,0.434 -1.646,1.267 -2.025,1.22 -2.825,1.611 z"
       class="E F G"
       id="path146" />
    <path
       d="m 13.023,30.903 c 0.541,-0.836 1.395,-1.567 1.301,-2.614 l 0.211,0.52 c -0.038,-0.624 2.271,-1.653 2.292,-1.536 l -0.347,0.533 c 0.123,-0.257 -1.446,0.448 -1.487,0.954 l 0.471,0.099 c -0.437,0.215 -0.843,0.327 -1.437,1.078 l 0.743,0.322 c -0.866,-0.111 -1.137,0.464 -1.611,0.805 z"
       class="H"
       id="path148" />
    <path
       d="M 8.984,33.682 C 8.339,33.12 8.135,32.809 7.991,32.168 7.837,31.482 7.907,31.269 8.435,30.82 c 0.387,-0.33 0.401,-0.354 0.41,-0.713 0.008,-0.329 0.037,-0.399 0.257,-0.608 0.333,-0.316 0.703,-0.458 1.055,-0.404 a 0.77,0.77 0 0 0 0.548,-0.111 c 0.482,-0.29 1.025,-0.421 1.325,-0.32 0.366,0.123 0.762,0.502 0.902,0.862 0.077,0.2 0.225,0.368 0.45,0.517 0.456,0.299 0.666,0.702 0.629,1.208 -0.02,0.273 -0.079,0.465 -0.186,0.611 -0.095,0.129 -0.131,0.235 -0.091,0.269 0.04,0.034 0.082,0.203 0.102,0.383 0.08,0.731 -0.487,1.47 -1.342,1.748 -0.321,0.104 -0.326,0.104 -0.434,-0.06 C 11.852,33.888 11.276,33.547 10.84,33.48 10.346,33.404 9.984,33.532 9.72,33.878 9.619,34.01 9.519,34.114 9.497,34.108 9.475,34.102 9.245,33.911 8.984,33.684 Z"
       class="B D I"
       id="path150" />
    <path
       d="m 13.165,33.469 c 0.554,-0.645 0.101,-1.462 -0.717,-1.491 0.228,-0.336 1.438,-0.059 0.614,-0.714 -0.42,-0.038 0.375,-0.139 0.322,-0.218 0.43,-0.096 -0.089,-0.74 -0.356,-0.775 -0.542,-0.289 -0.297,-0.31 -0.76,-0.828 -0.668,-0.349 -1.341,-0.229 -1.497,0.497 -0.421,-0.127 -1.166,-0.587 -0.776,0.199 0.55,0.376 0.472,0.88 0.029,0.352 -0.312,-0.397 -0.958,0.307 -0.271,0.408 0.564,0.196 0.602,1.041 -0.09,0.477 -0.344,-0.547 -1.717,0.214 -0.787,0.454 0.66,-0.201 1.09,0.62 1.682,0.158 0.248,-0.255 0.825,0.512 1.315,0.166 0.168,0.699 0.796,0.246 0.741,1.064 -0.051,0.353 0.294,0.535 0.549,0.252 z"
       class="J"
       id="path152" />
    <path
       d="m 12.169,34.312 c -0.464,-0.408 -0.966,-0.849 -1.603,-0.858 -0.349,-0.02 -0.634,0.256 -0.851,0.538 l -0.306,0.356 c 0.145,0.518 0.207,0.914 0.833,1.578 l 0.241,4.658 0.167,-4.697 c -0.147,-0.708 1.076,-1.097 1.519,-1.575 z"
       class="I"
       id="path154"
       style="fill:#00a859;stroke:#00753e" />
    <path
       d="M 8.637,37.185 A 0.54,0.54 0 0 1 8.972,36.727 C 8.529,36.542 8.061,36.373 7.906,35.996 l 0.446,-0.05 c -0.58,-0.276 -0.76,-0.672 -1.028,-1.041 0.258,0.065 0.531,0.198 0.855,0.558 -0.11,-0.469 -0.289,-0.867 0.012,-1.747 0.268,0.391 0.15,0.042 0.805,1.177 0.056,-0.09 0.293,-0.226 0.471,-0.347 -0.119,0.433 0.334,0.739 0.26,1.301 0.217,-0.333 0.382,-0.351 0.57,-0.508 0.329,0.922 0.368,2.018 0.372,3.135 C 9.977,38.349 9.306,37.78 8.637,37.185 Z"
       class="K"
       id="path156"
       style="fill:#00a859;stroke:#00753e" />
    <path
       d="m 8.674,37.185 c 0.196,0.142 0.466,0.231 1.103,0.062 0.123,-0.057 0.915,1.162 0.855,1.165 0.027,-0.561 -0.936,-1.276 -0.483,-2.23 L 9.715,36.653 C 9.507,36.36 9.142,35.934 9.207,35.315 l -0.273,0.31 C 8.464,35.096 8.629,34.682 8.488,34.212 L 8.339,33.964 c 0.031,0.787 0.074,1.569 0.719,2.082 L 8.488,36.009 C 8.89,36.301 9.303,36.253 9.69,37 9.306,37.298 8.994,37.223 8.674,37.186 Z"
       class="H"
       id="path160" />
    <path
       d="m 11.598,36.38 c -0.52,1.278 0.129,2.242 0.397,3.308 1.487,-0.61 1.979,-1.854 2.8,-2.887 -0.264,-0.046 -10e-4,-0.302 -0.855,-0.112 0.426,-0.425 0.687,-0.851 0.917,-1.276 -0.139,-0.056 -0.185,-0.147 -0.57,-0.112 0.056,-0.831 0.742,-0.863 0.917,-1.958 -0.662,0.386 -1.228,0.367 -2.007,1.251 l 0.087,-1.016 c -0.49,0.658 -0.5,1.046 -0.471,1.413 -0.247,-0.058 -0.409,-0.116 -0.595,-0.173 -0.207,0.613 0.013,1.132 0.074,1.685 C 12.099,36.36 11.89,36.26 11.598,36.379 Z"
       class="E F G"
       id="path162" />
    <path
       d="m 12.75,35.438 c -0.14,1.047 0.182,0.596 -0.409,2.875 0.236,-1.029 -0.394,-1.192 -0.657,-1.722 0.526,1.155 0.373,1.729 0.483,2.528 0.462,-0.671 0.447,-1.798 1.586,-1.821 a 0.68,0.68 0 0 0 -0.805,-0.087 c 0.241,-0.853 0.711,-1.215 1.177,-1.586 -0.235,10e-4 -0.466,0.022 -0.669,0.186 0.384,-0.857 0.867,-1.115 1.251,-1.475 0,0 0.328,-0.566 0.297,-0.607 -0.093,-0.125 -2.064,1.728 -1.921,2.181 0.005,-0.273 -0.143,-0.394 -0.335,-0.471 z"
       class="H"
       id="path164" />
    <path
       d="m 13.078,43.221 c -0.558,-0.358 -1.161,-0.745 -1.835,-0.65 -0.371,0.036 -0.627,0.377 -0.809,0.713 l -0.263,0.43 c 0.239,0.528 0.37,0.94 1.142,1.543 l 1.027,4.92 -0.604,-5.029 c -0.273,-0.729 0.954,-1.345 1.342,-1.927 z"
       id="path166"
       style="fill:#00a859;stroke:#00753e;stroke-width:0.185" />
    <path
       d="m 14.946,50.3 c -0.591,-0.3 -1.23,-0.625 -1.891,-0.462 -0.366,0.073 -0.586,0.438 -0.734,0.791 l -0.219,0.454 c 0.291,0.501 0.463,0.898 1.291,1.42 l 1.517,4.791 -1.107,-4.942 c -0.345,-0.698 0.814,-1.435 1.142,-2.052 z"
       id="path168"
       style="fill:#00a859;stroke:#00753e;stroke-width:0.185" />
    <path
       d="M 9.61,43.075 C 8.836,42.583 8.568,42.285 8.31,41.626 8.034,40.921 8.072,40.682 8.555,40.117 8.909,39.702 8.92,39.674 8.869,39.29 8.822,38.938 8.842,38.859 9.039,38.6 c 0.299,-0.392 0.666,-0.604 1.047,-0.604 0.217,0 0.39,-0.064 0.561,-0.208 0.461,-0.388 1.013,-0.617 1.346,-0.559 0.407,0.071 0.888,0.409 1.096,0.77 0.115,0.2 0.298,0.355 0.561,0.476 0.531,0.244 0.819,0.638 0.864,1.182 0.024,0.293 -0.006,0.508 -0.095,0.681 -0.079,0.153 -0.1,0.272 -0.052,0.302 0.048,0.03 0.12,0.203 0.171,0.391 0.206,0.765 -0.27,1.646 -1.126,2.082 -0.321,0.164 -0.327,0.164 -0.468,0.008 -0.271,-0.3 -0.936,-0.568 -1.409,-0.568 -0.534,0 -0.895,0.197 -1.117,0.608 -0.085,0.158 -0.174,0.284 -0.197,0.281 -0.023,-0.003 -0.299,-0.168 -0.612,-0.367 z"
       class="B D I"
       id="path172" />
    <path
       d="m 13.99,42.159 c 0.478,-0.778 -0.136,-1.574 -1.004,-1.469 0.185,-0.396 1.509,-0.3 0.53,-0.861 -0.449,0.029 0.373,-0.21 0.304,-0.286 0.438,-0.173 -0.217,-0.773 -0.504,-0.767 -0.62,-0.219 -0.365,-0.281 -0.94,-0.757 -0.764,-0.261 -1.454,-0.023 -1.499,0.776 -0.466,-0.066 -1.329,-0.433 -0.787,0.34 0.644,0.31 0.645,0.86 0.089,0.37 -0.396,-0.371 -0.961,0.485 -0.219,0.479 0.628,0.116 0.809,1.009 -0.016,0.523 -0.454,-0.526 -1.778,0.51 -0.755,0.612 0.664,-0.323 1.254,0.481 1.802,-0.109 0.22,-0.312 0.956,0.409 1.417,-0.04 0.293,0.717 0.881,0.131 0.96,1.011 0.005,0.384 0.4,0.521 0.621,0.178 z"
       class="J"
       id="path174" />
    <path
       d="m 12.2,44.351 c 0.528,0.195 0.988,0.248 1.683,0.789 -0.21,-0.287 0.018,-0.785 0.387,-1.351 l 0.303,0.21 c 0.195,-0.764 0.533,-1.081 0.808,-1.596 0.181,0.706 0.404,1.407 0.151,2.157 -0.004,0.219 0.565,-0.54 0.892,-0.859 -0.209,0.478 -0.369,1.419 -0.994,1.55 l 0.472,0.011 c -1.109,0.928 -1.948,1.8 -2.844,2.684 -0.097,-1.17 -0.082,-2.333 -0.858,-3.596 z"
       stroke-width="0.181"
       class="E F"
       id="path176" />
    <path
       d="m 13.563,45.649 c 0.179,0.583 -0.006,1.141 -0.151,1.701 0.571,-0.715 0.984,-1.594 1.818,-2.035 L 14.843,45.28 c 0.455,-0.867 0.494,-1.771 0.438,-2.684 l -0.32,0.439 c 10e-4,0.588 0.11,1.207 -0.269,1.684 l -0.303,-0.333 c 0.064,0.614 -0.15,1.207 -0.396,1.798 -0.143,-0.212 -0.286,-0.368 -0.429,-0.535 z"
       class="H"
       id="path178" />
    <path
       d="M 11.584,47.425 C 11.42,46.262 11.482,44.991 10.885,44.034 10.723,44.196 10.561,44.366 10.39,44.706 10.206,44.078 10.049,43.965 9.892,43.661 L 9.664,44.012 C 9.423,43.719 9.2,43.473 8.86,42.915 8.898,43.488 8.684,43.954 9.038,44.662 8.706,44.534 8.532,44.411 8.297,44.286 8.52,44.665 8.749,45.033 9.15,45.025 l -0.337,0.356 c 0.235,0.216 0.485,0.419 0.946,0.434 -0.09,0.127 -0.244,0.461 -0.244,0.461 0.801,0.339 1.909,0.998 2.07,1.15 z"
       stroke-width="0.149"
       class="E F"
       id="path180" />
    <path
       d="m 9.718,46.322 0.258,0.089 c 0.281,-0.245 0.39,-0.241 0.549,-0.308 0.241,0.189 0.58,0.563 0.876,0.857 C 11.074,46.305 10.494,45.8 10.7,44.828 L 10.414,45.49 C 9.967,45.037 9.829,44.636 9.894,44.269 L 9.736,44.632 C 9.338,44.304 9.316,43.918 9.237,43.541 L 9.091,43.31 a 2.11,2.11 0 0 0 0.653,1.712 l -0.322,0.129 c 0.401,0.121 0.762,0.309 1.004,0.706 -0.198,0.093 -0.379,0.159 -0.709,0.465 z"
       class="H"
       id="path182" />
    <path
       d="M 11.318,50.777 10.48,50.415 c -0.307,-0.161 -1.073,-1.269 -1.073,-1.551 0,-0.098 0.126,-0.434 0.28,-0.747 l 0.28,-0.569 -0.134,-0.373 c -0.127,-0.353 -0.126,-0.391 0.019,-0.711 0.206,-0.456 0.628,-0.818 0.961,-0.822 0.219,-0.003 0.307,-0.069 0.546,-0.408 0.29,-0.412 0.927,-0.808 1.299,-0.808 0.295,0 0.764,0.24 1.101,0.565 0.238,0.23 0.424,0.329 0.692,0.372 0.493,0.078 0.614,0.152 0.902,0.551 0.219,0.302 0.244,0.397 0.228,0.846 -0.01,0.287 0.022,0.554 0.075,0.618 0.353,0.425 0.437,1.274 0.181,1.808 -0.171,0.356 -0.248,0.454 -0.632,0.805 l -0.258,0.235 -0.394,-0.169 c -1.147,-0.494 -2.172,-0.185 -2.35,0.709 -0.061,0.305 -0.132,0.306 -0.884,0.013 z"
       class="B D I"
       id="path184" />
    <path
       d="m 15.508,49.039 c 0.459,-0.767 -0.364,-1.537 -1.013,-1.329 -0.868,-0.088 0.702,-0.299 0.552,-0.695 -0.227,-0.326 -1.245,-0.224 -0.673,-0.38 0.351,-0.163 1.048,-0.355 0.386,-0.755 -0.727,-0.161 -1.224,-0.3 -1.92,-0.745 -0.762,-0.042 -1.174,0.304 -0.992,1.083 -0.301,0.056 -1.534,-0.144 -0.931,0.485 0.362,0.188 1.247,0.736 0.199,0.46 -0.73,-0.241 -0.681,0.786 0.043,0.472 0.284,0.116 1.041,0.491 0.285,0.573 -0.654,-0.238 -1.51,0.024 -1.188,0.78 0.536,-0.062 1.183,-0.2 1.811,-0.211 0.099,-0.826 1.43,-0.131 1.344,-0.543 0.569,-0.227 0.624,0.377 1.242,0.184 0.168,0.39 0.268,0.995 0.856,0.622 z"
       class="J"
       id="path186" />
    <path
       d="m 13.62,50.59 c 0.55,0.195 1.029,0.248 1.752,0.789 -0.219,-0.287 0.018,-0.784 0.403,-1.349 l 0.315,0.21 c 0.203,-0.763 0.555,-1.08 0.841,-1.595 0.189,0.705 0.42,1.405 0.158,2.155 -0.004,0.219 0.589,-0.54 0.929,-0.859 -0.218,0.478 -0.384,1.418 -1.035,1.549 l 0.492,0.011 c -1.154,0.927 -2.028,1.798 -2.961,2.681 -0.101,-1.169 -0.085,-2.331 -0.894,-3.592 z"
       class="E F I"
       id="path188" />
    <path
       d="m 15.04,51.887 c 0.186,0.583 -0.006,1.14 -0.158,1.7 0.594,-0.714 1.024,-1.592 1.893,-2.033 l -0.403,-0.035 c 0.474,-0.866 0.514,-1.769 0.456,-2.681 l -0.333,0.438 c 10e-4,0.587 0.115,1.205 -0.28,1.682 L 15.9,50.625 c 0.066,0.613 -0.156,1.206 -0.412,1.796 -0.149,-0.211 -0.298,-0.367 -0.447,-0.534 z"
       class="H"
       id="path190" />
    <path
       d="m 14.374,54.619 c -0.525,-1.229 -0.767,-2.616 -1.834,-3.544 -0.181,0.205 -0.36,0.419 -0.508,0.818 -0.415,-0.647 -0.659,-0.74 -0.954,-1.041 l -0.223,0.421 c -0.406,-0.274 -0.776,-0.499 -1.388,-1.041 0.2,0.614 0.025,1.157 0.694,1.859 -0.489,-0.078 -0.76,-0.18 -1.115,-0.273 0.404,0.37 0.813,0.727 1.363,0.644 l -0.372,0.446 c 0.379,0.191 0.774,0.366 1.413,0.297 -0.091,0.154 -0.217,0.544 -0.217,0.544 1.189,0.222 2.881,0.734 3.141,0.869 z"
       class="E F I"
       id="path192" />
    <path
       d="m 11.524,53.764 0.378,0.05 c 0.323,-0.316 0.475,-0.332 0.675,-0.434 0.38,0.161 0.942,0.504 1.425,0.768 -0.618,-0.65 -1.546,-1.091 -1.512,-2.181 l -0.223,0.768 c -0.731,-0.409 -1.023,-0.818 -1.028,-1.227 l -0.124,0.421 c -0.632,-0.283 -0.761,-0.697 -0.966,-1.09 l -0.26,-0.223 c 0.166,1.038 0.936,1.506 1.338,1.735 l -0.409,0.198 c 0.582,0.058 1.127,0.196 1.561,0.582 -0.248,0.137 -0.48,0.241 -0.855,0.632 z"
       class="H"
       id="path194" />
    <path
       d="m 15.177,59.512 -0.991,0.028 c -0.375,-0.018 -1.638,-0.768 -1.767,-1.049 -0.045,-0.097 -0.075,-0.492 -0.067,-0.876 l 0.015,-0.699 -0.303,-0.31 c -0.287,-0.293 -0.303,-0.332 -0.308,-0.719 -0.007,-0.551 0.243,-1.109 0.568,-1.269 0.214,-0.105 0.271,-0.212 0.35,-0.662 0.096,-0.547 0.541,-1.239 0.907,-1.412 0.291,-0.138 0.861,-0.115 1.342,0.052 0.34,0.118 0.568,0.132 0.851,0.049 0.52,-0.151 0.673,-0.134 1.14,0.13 0.354,0.2 0.422,0.283 0.612,0.739 0.122,0.292 0.275,0.543 0.357,0.582 0.542,0.26 1.014,1.069 1.007,1.722 -0.005,0.436 -0.036,0.569 -0.253,1.099 l -0.146,0.355 -0.465,0.014 c -1.355,0.041 -2.221,0.827 -1.987,1.803 0.08,0.333 0.01,0.367 -0.863,0.425 z"
       class="B D I"
       id="path196" />
    <path
       d="m 18.501,55.825 c 0.1,-0.98 -1.062,-1.366 -1.606,-0.856 -0.894,0.317 0.553,-0.625 0.224,-0.952 -0.372,-0.22 -1.327,0.356 -0.836,-0.066 0.27,-0.326 0.867,-0.843 0.033,-0.934 -0.789,0.177 -1.342,0.271 -2.23,0.15 -0.769,0.312 -1.015,0.85 -0.479,1.544 -0.27,0.196 -1.575,0.57 -0.694,0.918 0.442,0.019 1.564,0.155 0.407,0.367 -0.828,0.099 -0.309,1.102 0.259,0.452 0.333,-0.017 1.249,0.006 0.543,0.439 -0.752,0.067 -1.475,0.727 -0.811,1.332 0.498,-0.311 1.072,-0.75 1.684,-1.054 -0.281,-0.872 1.346,-0.797 1.073,-1.168 0.456,-0.492 0.786,0.086 1.305,-0.395 0.344,0.311 0.72,0.869 1.127,0.223 z"
       class="J"
       id="path198" />
    <path
       d="m 18.559,57.238 c -0.728,0.056 -1.515,0.115 -2.092,0.614 -0.327,0.261 -0.37,0.699 -0.349,1.088 v 0.516 c 0.527,0.282 0.886,0.537 1.955,0.548 l 3.786,3.379 -3.452,-3.733 c -0.674,-0.425 0.122,-1.695 0.151,-2.413 z"
       class="I"
       id="path200"
       style="fill:#00a859;stroke:#00753e" />
  </g>
  <g
     id="g1158">
    <g
       class="G"
       id="g206"
       style="fill:#00a859;stroke:#00753e">
      <path
         d="m 46.775,61.542 2.979,-1.998 -2.033,2.313 z m 3.82,1.613 c 3.225,-3.054 5.775,-4.589 8.657,-6.869 -1.688,1.782 -3.441,3.498 -5.222,5.187 1.225,-0.317 2.584,-1.441 3.995,-2.874 0.489,0.489 -5.633,5.687 -6.308,5.292 -0.541,-0.317 -1.122,-0.736 -1.122,-0.736 z"
         id="path202" />
      <path
         d="m 52.733,64.101 0.946,0.666 c 3.358,-3.279 4.745,-4.007 5.292,-5.678 -2.042,2.04 -4.103,3.898 -6.238,5.012 z"
         id="path204" />
    </g>
    <path
       d="M51.573 64.46l-.067-.73c-.045-.39-.022-.479.255-.976 1.042-1.877 2.606-3.561 4.063-4.376.318-.178.67-.463.875-.709.681-.816 1.032-1.161 1.376-1.351l.35-.193-.292.315c-.595.643-1.376 1.743-1.376 1.939-.305 2.007-1.036 3.374-1.743 4.137-1.316 1.399-2.425 1.063-3.261 2.044l-.163.2zm-2.037-2.371c-.355-.622-.435-.84-.499-1.356-.17-1.37.329-3.097 1.174-4.059l.286-.325-.287.536c-.366.685-.371 1.04-.028 2.367.387 1.499.355 2.866-.079 3.401-.143.176-.146.173-.566-.564zm1.701-2.216c-.122-1.207-.119-1.496.03-2.426.159-.991.39-1.456 1.117-2.248 1.125-1.224 1.553-1.861 1.83-2.723l.141-.44.025.433c.028.475-.121 1.015-.474 1.723-.151.303-.242.645-.28 1.058-.157 1.676-.479 3.023-.878 3.675-.1.164-.402.544-.671.843s-.546.655-.618.79c-.128.242-.13.235-.224-.685zm3.324-2.362c.004-.326.285-1.219.533-1.69.343-.653.903-1.248 1.969-2.09 1.462-1.156 2.319-2.066 2.879-3.057l.241-.426-.054.356a9.25 9.25 0 0 1-.287 1.075c-.789 2.434-2.183 4.173-4.346 5.419-.898.517-.936.534-.934.414zm.211-2.693c-.099-.368-.044-1.115.121-1.654.219-.716.489-1.186 1.249-2.177.84-1.094 1.134-1.601 1.416-2.44.275-.818.304-.788.382.397.064.976-.107 2.127-.403 2.709-.107.21-.583.785-1.059 1.277s-1.043 1.158-1.261 1.48c-.343.505-.403.56-.445.407zm5.85-2.151l-.077-.581c-.069-.475.122-1.35.434-1.995.431-.889 1.118-1.66 2.286-2.564.513-.397.89-.839 1.237-1.45l.27-.427c.015 0-.112.342-.282.76l-.487 1.363c-.59 1.994-1.079 3.07-1.808 3.97-.363.449-1.328 1.311-1.467 1.311-.031 0-.079-.174-.106-.386zm-1.874-2.956c-.187-1.613.462-3.175 2.076-4.997.278-.313.72-.898.984-1.299s.48-.692.48-.647-.034.118-.076.16c-.21.214-.491 1.361-.569 2.323-.128 1.576-.534 2.66-1.387 3.701-.344.419-1.282 1.254-1.411 1.254-.022 0-.065-.223-.097-.495zm-.406-2.76c-.097-.157-.072-1.471.036-1.871.054-.201.339-.873.633-1.492.591-1.245.617-1.398.49-2.901l-.058-.692.114.488c.063.268.25.891.416 1.383.522 1.544.457 2.475-.256 3.674-.36.605-1.286 1.555-1.375 1.411zm4.188-.372c-.532-1.394-.079-2.644 1.606-4.429.784-.83 1.08-1.248 1.383-1.953l.193-.447-.051.407c-.028.224-.143.663-.255.976-.144.402-.223.844-.269 1.505-.051.734-.111 1.038-.277 1.413-.294.664-.817 1.362-1.585 2.12l-.654.645zm-1.542-4.996c-.593-.925-.706-1.713-.408-2.85.289-1.103.171-1.815-.465-2.807l-.365-.57.34.325c.33.317 1.577 2.302 1.839 2.929.191.458.168 1.493-.049 2.156-.153.468-.525 1.22-.602 1.22-.016 0-.146-.182-.288-.404zm1.921-.511c-.027-.101-.049-.403-.05-.671-.001-.655.123-.843 1.372-2.075.74-.73 1.105-1.157 1.292-1.514.347-.661.518-1.426.465-2.078l-.042-.517.138.325c.106.249.139.574.14 1.383.002 1.005-.012 1.099-.289 1.893-.508 1.46-1.523 2.856-2.377 3.269-.443.215-.589.211-.65-.016zm-.002-3.154c-.285-.711-.127-1.454.62-2.919l.556-1.09.051-.884c.028-.486.071-.864.096-.839.082.082.411 2.507.415 3.051.004.644-.177 1.378-.456 1.855-.196.335-.972 1.152-1.093 1.152-.031 0-.116-.147-.188-.327zm-1.159-1.644c-.702-.748-1.034-1.465-1.289-2.789a5.62 5.62 0 0 0-.598-1.79c-.226-.447-.468-1.066-.539-1.374-.142-.618-.118-.807.04-.319.311.96.763 1.532 1.482 1.875.896.428 1.433 1.225 1.615 2.399.125.805-.009 1.668-.324 2.085l-.136.181zm1.148-2.927c-.086-.519-.24-.765-.931-1.486-.786-.821-.939-1.179-.939-2.199a9.56 9.56 0 0 1 .064-1.139l.064-.407-.979-.937-.979-.997c0-.152.241-.029.533.273.497.514 1.484 1.315 2.088 1.694a3.74 3.74 0 0 1 1.428 1.606c.317.676.349 1.833.084 3.032-.103.466-.229.862-.281.879s-.117-.111-.152-.319z"
       stroke-width=".281"
       class="B D"
       id="path210"
       style="stroke-width:0.23812486;stroke-miterlimit:4;stroke-dasharray:none" />
    <path
       d="M55.953 59.194c-.527 1.601-.838 3.392-2.891 3.645zm-6.26-.303c.247.821.589 1.635.154 2.508zm3.359-3.529c-.127 1.514-.1 3.082-1.312 4.217zm6.04-2.645c-.996 1.605-1.857 3.359-3.801 3.906zm-1.482-3.075c-.484 1.488-.828 3.076-2.3 3.86zm3.756-4.78c-.306 1.535-.462 3.152-1.832 4.102zm2.163 2.996c-.485 1.488-.83 3.075-2.302 3.858zm1.347-5.887c-.389 1.516-.633 3.122-2.053 3.996zm-4.968 1.377c-.133.967-.136 1.976-1.193 2.644zm1.135-5.687c.422.88.976 1.724.463 2.864zm4.403.044c-.297.93-.473 1.924-1.629 2.4zm-1.286-3.232c.045.975.226 1.968-.692 2.817zm-3.136-2.14c.59.778 1.302 1.493 1.028 2.713zm.966-3.42c.59.778 1.302 1.493 1.028 2.713z"
       class="C"
       id="path212" />
  </g>
  <defs
     id="defs231">
    <path
       id="B"
       d="M19.957 27.652c-2.247 2.43-5.519 11.722 3.155 16.7 1.283.736 2.353.659 4.24 1.209l-2.243-4.276c-7.285-4.221-4.712-11.643-5.152-13.633z" />
    <path
       id="C"
       d="M23.882 42.407c-4.477-2.444-5.912-8.486-4.977-12.126-2.68 7.488 1.721 12.914 6.641 14.474-.877-.702-1.465-1.538-1.665-2.348z" />
    <path
       id="D"
       d="M19.483 49.644c3.033 2.658 6.541 2.481 7.325 2.296l2.12.473c-.59.264-.771.652-1.398.701-3.42.264-7.3-1.651-8.047-3.47z" />
    <path
       id="E"
       d="M23.524 40.606l.375.975c.442 1.147 1.264 2.27 2.482 3.547-.552-.021-1.069.028-1.734-.187l-1.146-.373.646 1.016c.651 1.022 1.602 1.808 2.635 2.52-.175.061-.292.197-.6.182l-1.32-.066 1.025.834c.906.737 1.719 1.02 2.537 1.379l-1.133.352-1.035.232.902.557c.613.379 1.547.533 2.482.695-.193.168-.471.385-1.021.75l-.631.418.68.332c.729.354 1.445.283 2.158.084l-.262 1.605.783-.441c.529-.297.893-.438 1.113-.48s.27-.018.348.033c.156.102.399.597 1.008 1.039.438.318.915.432 1.332.332s.738-.392.932-.74c.388-.696.353-1.689-.33-2.355-.551-.538-.91-.763-1.1-.908s-.223-.167-.371-.551c-.221-.572-.3-1.041-.52-1.518s-.613-.911-1.311-1.258c-.638-.317-1.663-1.494-1.854-2.492-.473-2.477-1.498-3.602-2.682-4.121s-2.415-.511-3.437-.965zm1.648 1.508c.847.212 1.73.382 2.396.674.957.419 1.736 1.178 2.178 3.49.262 1.374 1.33 2.614 2.318 3.105.575.286.757.513.91.846s.248.82.498 1.467c.179.464.401.732.652.924s.515.348 1.021.842c.374.365.38.952.178 1.314-.101.181-.234.286-.377.32s-.333.02-.621-.189c-.412-.299-.538-.734-1.045-1.064-.253-.165-.61-.231-.986-.158-.167.032-.413.178-.607.256l.225-1.385-.725.311c-.501.215-.908.296-1.303.291l.414-.305c.242-.218.37-.396.484-.551l.438-.594-.732-.092c-.697-.088-1.074-.281-1.596-.432.28-.091.489-.101.816-.256l.826-.391-.826-.391c-.85-.402-1.636-.824-2.439-1.314.182-.086.515-.118.65-.182l.723-.34-.68-.42c-.956-.591-1.743-1.264-2.406-2.004.657.102 1.339.28 1.949.209l.926-.107-.68-.639c-1.365-1.28-2.066-2.262-2.58-3.236z" />
    <path
       id="F"
       d="M25.173 42.114c.847.212 1.73.382 2.396.674.957.419 1.736 1.178 2.178 3.49.262 1.374 1.33 2.614 2.318 3.105.575.286.757.513.91.846s.248.82.498 1.467c.179.464.401.732.652.924s.515.348 1.021.842c.374.365.38.952.178 1.314-.101.181-.234.286-.377.32s-.333.02-.621-.189c-.412-.299-.538-.734-1.045-1.064-.253-.165-.61-.231-.986-.158-.167.032-.413.178-.607.256l.225-1.385-.725.311c-.501.215-.908.296-1.303.291l.414-.305c.242-.218.37-.396.484-.551l.438-.594-.732-.092c-.697-.088-1.074-.281-1.596-.432.28-.091.489-.101.816-.256l.826-.391-.826-.391c-.85-.402-1.636-.824-2.439-1.314.182-.086.515-.118.65-.182l.723-.34-.68-.42c-.956-.591-1.743-1.264-2.406-2.004.657.102 1.339.28 1.949.209l.926-.107-.68-.639c-1.365-1.28-2.066-2.262-2.58-3.236z" />
  </defs>
  <g
     id="g1097">
    <g
       id="g1083">
      <path
         d="M15.059 13.977c-4.263-.236-8.431 2.574-13.382 6.146l5.006 1.834-1.487 4.163 8.922-3.668c3.484-1.665 4.194-3.337 2.825-5.601zm43.078 0c4.263-.236 8.431 2.574 13.382 6.146l-5.006 1.834L68 26.12l-8.922-3.668c-3.484-1.665-4.194-3.337-2.825-5.601z"
         class="J M N"
         id="path214" />
      <path
         d="M36.598.794c-7.068 0-17.709 2.131-29.342 11.202l5.452 7.633c6.357-4.278 13.649-8.327 23.89-8.327s17.533 4.048 23.89 8.327l5.452-7.633C54.307 2.925 43.666.794 36.598.794z"
         opacity=".99"
         stroke="#f6ce36"
         stroke-width="1.588"
         class="J"
         id="path216" />
      <path
         d="M14.931 15.767l-2.732-4.536 1.599-.963 1.165 1.934-.13-2.557 1.847-1.112-.024 3.059 2.948 1.362-1.974 1.189-2.242-1.234 1.142 1.896z"
         id="path218" />
      <path
         d="M20.759 10.43l.73-.307-.383-.491q-.287-.374-.422-.584-.135-.21-.229-.406l-.03.013q.074.204.129.448.055.244.122.71zm-1.582 2.752l-.311-5.614 1.954-.821 3.759 4.165-1.888.793-.415-.548-1.324.556.108.677zm6.884-4.853l.216.818.308-.081q.276-.073.396-.217.122-.148.07-.344-.053-.199-.231-.265-.175-.066-.451.007zm-.48-1.819l.189.717.241-.064q.224-.059.315-.18.094-.126.048-.301-.046-.175-.189-.234-.139-.06-.363-.001zm-.698 4.359l-1.351-5.121 2.452-.647q.787-.208 1.325.047.538.251.711.909.111.42-.025.755-.133.331-.493.515.55-.029.884.204.335.233.468.741.189.717-.2 1.213-.387.491-1.328.739zm4.704-3.677l-.324-2.854 1.891-.214.325 2.868q.057.5.197.677.14.173.427.141.284-.032.384-.24.1-.208.045-.697l-.325-2.868 1.891-.214.324 2.854q.064.561.029.932-.031.371-.165.634-.26.528-.777.853-.517.324-1.217.404-.704.08-1.281-.12-.576-.2-.948-.657-.185-.223-.298-.574-.113-.351-.177-.923zm6.102 1.845l.156-5.293 2.274.067q1.2.035 1.74.514.543.479.514 1.484-.028.936-.539 1.356-.512.416-1.596.384l-.597-.018-.046 1.562zm2.025-3.766l-.026.882.296.009q.271.008.419-.1.148-.111.154-.321.006-.21-.139-.33-.145-.124-.409-.131zm4.965 2.347l.782.129-.063-.619q-.044-.469-.046-.719-.003-.25.022-.466l-.032-.005q-.046.212-.129.448-.083.236-.275.666zm-2.804 1.488l2.724-4.918 2.092.345.966 5.527-2.02-.333-.059-.684-1.417-.234-.269.63zm6.42 1.217l1.003-3.419-1.017-.298.488-1.663 3.86 1.132-.488 1.663-1.017-.298-1.003 3.419zm3.421 1.054l2.045-4.885 3.267 1.368-.555 1.325-1.545-.647-.197.47 1.401.587-.524 1.251-1.401-.587-.215.514 1.585.664-.555 1.325zm4.023 1.689l2.697-4.558 1.606.951.005 3.223q.066-.175.168-.376.105-.199.289-.51l.905-1.529 1.578.934-2.697 4.558-1.619-.958-.001-3.195q-.065.167-.158.352-.091.182-.22.4l-.973 1.644z"
         id="path220" />
    </g>
    <g
       id="g1087">
      <path
         d="M36.562 59.766h0c-14.118.001-20.186 11.995-23.269 4.626 1.207 4.568 4.356 12.917 9.813 9.112 5.029-3.506 8.765-4.382 13.487-4.554 4.727.171 8.465 1.045 13.498 4.554 5.457 3.804 8.605-4.544 9.813-9.112-3.083 7.369-9.151-4.625-23.269-4.626h0c-.012 0-.024.001-.036.001s-.024-.001-.036-.001z"
         fill="#f5fffa"
         class="M N"
         id="path222" />
      <path
         d="M28.195 66.813l.762-.216-.321-.533q-.239-.406-.348-.631-.109-.225-.179-.431l-.031.009q.049.212.074.46.025.248.035.72zm-1.904 2.541l.371-5.61 2.039-.579 3.227 4.589-1.97.559-.345-.594-1.382.392.025.685zm8.114-3.386q.643-.04.925-.303.282-.266.252-.793-.029-.516-.329-.753-.296-.237-.881-.203l-.083.005zm-1.793 1.722l-.302-5.287 1.538-.088q.733-.042 1.254.012.525.05.859.201.707.322 1.106.897.402.575.446 1.337.043.758-.288 1.372-.331.613-1 1.017-.326.193-.838.301-.512.109-1.379.158zm6.261-.105l.628-5.258 1.922.23-.628 5.258zm3.962-1.94l.826-2.751 1.822.547-.83 2.765q-.145.482-.085.7.06.214.337.298.274.082.448-.07.174-.152.315-.623l.83-2.765 1.822.547-.826 2.751q-.162.54-.34.869-.174.329-.401.518-.447.383-1.05.478-.603.095-1.278-.108-.679-.204-1.13-.615-.451-.411-.613-.977-.083-.278-.048-.645.035-.367.2-.918zm5.234 4.248l2.593-4.618 1.628.914.078 3.222q.062-.177.159-.379.1-.201.277-.516l.87-1.549 1.599.898-2.593 4.618-1.64-.921-.073-3.194q-.061.169-.15.356-.087.184-.211.405l-.935 1.665zm-23.636.398l-1.222-1.721q-.137-.201-.272-.399-.137-.201-.267-.406.082.215.153.469.073.249.137.545l.459 2.075-.989.55-1.521-1.484q-.22-.209-.393-.402-.175-.196-.315-.38.104.224.201.443.1.217.199.44l.818 1.946-1.631.907-1.784-5.068 1.717-.955.965.962q.046.045.137.135.611.608.919 1.049l.028-.016q-.126-.315-.234-.689-.109-.374-.213-.859l-.281-1.317 1.713-.953 3.308 4.22z"
         id="path224" />
    </g>
  </g>
</svg>
