<?xml version="1.0" encoding="UTF-8" standalone="no"?>
<svg
   xmlns:dc="http://purl.org/dc/elements/1.1/"
   xmlns:cc="http://creativecommons.org/ns#"
   xmlns:rdf="http://www.w3.org/1999/02/22-rdf-syntax-ns#"
   xmlns:svg="http://www.w3.org/2000/svg"
   xmlns="http://www.w3.org/2000/svg"
   xmlns:xlink="http://www.w3.org/1999/xlink"
   xmlns:sodipodi="http://sodipodi.sourceforge.net/DTD/sodipodi-0.dtd"
   xmlns:inkscape="http://www.inkscape.org/namespaces/inkscape"
   width="234.542"
   height="304.244"
   viewBox="0 0 62.056 80.498"
   version="1.1"
   id="svg417"
   sodipodi:docname="Seal of Sampang Regency (1).svg"
   inkscape:version="1.0.1 (3bc2e813f5, 2020-09-07)">
  <metadata
     id="metadata421">
    <rdf:RDF>
      <cc:Work
         rdf:about="">
        <dc:format>image/svg+xml</dc:format>
        <dc:type
           rdf:resource="http://purl.org/dc/dcmitype/StillImage" />
      </cc:Work>
    </rdf:RDF>
  </metadata>
  <sodipodi:namedview
     pagecolor="#ffffff"
     bordercolor="#666666"
     borderopacity="1"
     objecttolerance="10"
     gridtolerance="10"
     guidetolerance="10"
     inkscape:pageopacity="0"
     inkscape:pageshadow="2"
     inkscape:window-width="1366"
     inkscape:window-height="705"
     id="namedview419"
     showgrid="false"
     inkscape:zoom="1.4097285"
     inkscape:cx="70.428189"
     inkscape:cy="152.32896"
     inkscape:window-x="-8"
     inkscape:window-y="-8"
     inkscape:window-maximized="1"
     inkscape:current-layer="svg417"
     inkscape:document-rotation="0" />
  <style
     id="style2"><![CDATA[.B{stroke-width:.265}.C{fill:#f5c742}.D{fill:#ffeba3}.E{opacity:.995}.F{stroke:#a07843}.G{fill:#fff}.H{fill-rule:evenodd}.I{fill:#00a870}.J{opacity:.996}.K{stroke-linejoin:round}.L{fill:#e5e5e5}.M{stroke:#9b9b9b}.N{fill:#008358}.O{stroke:#00714b}.P{stroke:#696969}.Q{stroke-width:.665}]]></style>
  <defs
     id="defs53">
    <linearGradient
       inkscape:collect="always"
       id="linearGradient1263">
      <stop
         style="stop-color:#1e90ff;stop-opacity:1;"
         offset="0"
         id="stop1259" />
      <stop
         style="stop-color:#1e90ff;stop-opacity:0;"
         offset="1"
         id="stop1261" />
    </linearGradient>
    <linearGradient
       id="A"
       gradientUnits="userSpaceOnUse">
      <stop
         offset="0"
         stop-color="#dcdcdc"
         id="stop4" />
      <stop
         offset="1"
         stop-color="#fff"
         id="stop6" />
    </linearGradient>
    <linearGradient
       id="B"
       gradientUnits="userSpaceOnUse">
      <stop
         offset="0"
         stop-color="red"
         id="stop9" />
      <stop
         offset="1"
         stop-color="#ff6262"
         id="stop11" />
    </linearGradient>
    <linearGradient
       id="C"
       gradientUnits="userSpaceOnUse">
      <stop
         stop-color="#c8d3d9"
         offset=".5"
         id="stop14" />
      <stop
         stop-color="#dee5e9"
         offset=".12"
         id="stop16" />
      <stop
         stop-color="#f1f4f5"
         offset=".179"
         id="stop18" />
      <stop
         stop-color="#fcfcfd"
         offset=".245"
         id="stop20" />
      <stop
         stop-color="#fff"
         offset=".396"
         id="stop22" />
    </linearGradient>
    <linearGradient
       xlink:href="#linearGradient1263"
       id="D"
       x1="25.236923"
       y1="26.842625"
       x2="47.813911"
       y2="26.842625"
       gradientTransform="scale(0.72323735,1.3826719)"
       gradientUnits="userSpaceOnUse" />
    <linearGradient
       xlink:href="#A"
       id="E"
       x1="24.49444"
       y1="27.656284"
       x2="35.891594"
       y2="27.656284"
       gradientTransform="scale(0.74516034,1.3419931)"
       gradientUnits="userSpaceOnUse" />
    <linearGradient
       xlink:href="#B"
       id="F"
       x1="-21.107"
       y1="150.534"
       x2="-16.722"
       y2="150.534"
       gradientTransform="translate(3.9846994,-98.475254)" />
    <linearGradient
       xlink:href="#A"
       id="G"
       x1="-19.027"
       y1="148.847"
       x2="-14.642"
       y2="148.847"
       gradientTransform="translate(3.9846994,-98.475254)" />
    <linearGradient
       xlink:href="#A"
       id="H"
       x1="-14.972"
       y1="145.558"
       x2="-10.586"
       y2="145.558"
       gradientTransform="translate(3.9846994,-98.475254)" />
    <linearGradient
       xlink:href="#B"
       id="I"
       x1="-17.025"
       y1="147.224"
       x2="-12.64"
       y2="147.224"
       gradientTransform="translate(3.9846994,-98.475254)" />
    <linearGradient
       xlink:href="#A"
       id="J"
       x1="-11.209"
       y1="142.506"
       x2="-6.824"
       y2="142.506"
       gradientTransform="translate(3.9846994,-98.475254)" />
    <linearGradient
       xlink:href="#B"
       id="K"
       x1="-13.081"
       y1="144.025"
       x2="-8.696"
       y2="144.025"
       gradientTransform="translate(3.9846994,-98.475254)" />
    <linearGradient
       xlink:href="#B"
       id="L"
       x1="103.308"
       y1="94.826"
       x2="106.693"
       y2="94.826"
       gradientTransform="translate(-73.972,-65.126)" />
    <linearGradient
       xlink:href="#B"
       id="M"
       x1="103.587"
       y1="93.374"
       x2="106.413"
       y2="93.374"
       gradientTransform="translate(-73.972,-65.126)" />
    <linearGradient
       xlink:href="#B"
       id="N"
       x1="103.079"
       y1="87.026"
       x2="106.921"
       y2="87.026"
       gradientTransform="translate(-73.972,-65.126)" />
    <linearGradient
       xlink:href="#A"
       id="O"
       x1="103.194"
       y1="111.432"
       x2="106.807"
       y2="111.432"
       gradientTransform="translate(-73.972,-65.126)" />
    <path
       id="P"
       d="M108.923 106.336v1.47h2.806c.798 0 1.279 0 1.279-.459 0-.285-.37-1.011-1.279-1.011z" />
    <path
       id="Q"
       d="M108.923 107.806v1.47h4.451c.798 0 1.28 0 1.28-.46 0-.285-.37-1.01-1.28-1.01z" />
    <path
       id="R"
       d="M108.923 109.276v1.47h6.097c.798 0 1.28 0 1.28-.459 0-.285-.37-1.01-1.28-1.01z" />
    <path
       id="S"
       d="M108.923 110.746v1.47h7.742c.798 0 1.28 0 1.28-.46 0-.285-.37-1.01-1.28-1.01z" />
    <path
       id="T"
       d="M108.038 98.908v1.632h3.591a.95.816 0 0 0 .95-.816.95.816 0 0 0-.95-.816z" />
    <path
       id="U"
       d="M111.429 97.692h-3.391v-3.934h2.871v1.89c.27.625.745 1.131.52 2.044z" />
    <path
       id="V"
       d="M111.429 97.692a.611.611 0 0 0-.095.008h-1.593v1.208h1.593a.611.611 0 0 0 .705-.604.611.611 0 0 0-.611-.611z" />
    <path
       id="W"
       d="M108.038 91.939v1.819h2.587c2.104.003 1.372-1.819 0-1.819z" />
    <path
       id="X"
       d="M108.038 90.12v1.819h2.221c2.104.003 1.372-1.819 0-1.819z" />
    <path
       id="Y"
       d="M108.038 90.12v-6.87h.778c.074 1.244.816 2.098 1.962 2.79s1.008 4.08-.519 4.08z" />
    <path
       id="Z"
       d="M195.814 107.522c1.058 1.278 2.35 1.081 3.04 4.677-2.786-.626-2.477-2.881-3.04-4.677z" />
    <path
       id="a"
       d="M196.673 108.889c.575.524 1.251.773 1.5 2.185-.728-.687-1.109-1.437-1.5-2.185z" />
    <path
       id="b"
       d="M89.399 80.907c-.286-.411-.88-.699-.824-1.276.038-.702.644-1.195.753-1.875.067-.515.619-.546 1.002-.708.5-.104.965-.307 1.409-.56.338-.148.693-.35 1.076-.286.441-.148.852.294.82.724.078.925-.032 1.855.024 2.782.055.488-.098 1.001-.477 1.328-.303.281-.662.523-1.093.53-.588.084-1.163-.101-1.746-.137-.334-.133-.679-.27-.945-.52z" />
    <path
       id="c"
       d="M88.454 78.639c.913 1.299 1.827.363 2.74.307-.197 1.212 1.357 2.749 2.055 2.386-1.085 2.125-3.682 1.117-4.559 1.63.213-1.465-1.641-2.67-.236-4.323z" />
    <path
       id="d"
       d="M92.494 77.009c-.491-.181-.956.135-1.313.438-.319.264-.959.15-1.075.612-.039.487.519.513.859.404.376-.13.789.022.939.404.218.322.124.817.481 1.052.388.203.678-.221.679-.572.1-.476-.13-.93-.142-1.403-.033-.345-.071-.759-.428-.937z" />
    <path
       id="e"
       d="M88.549 79.454c.695.368.737.823 2.197.024.219.782.154 1.609 1.878 2.15-.929.125-1.858-.003-2.788-.508-.705-.455-1.269-.961-1.287-1.665z" />
    <linearGradient
       inkscape:collect="always"
       xlink:href="#A"
       id="linearGradient1246"
       x1="20.768204"
       y1="59.450985"
       x2="23.69743"
       y2="59.450985"
       gradientTransform="scale(1.6018245,0.62428812)"
       gradientUnits="userSpaceOnUse" />
    <linearGradient
       inkscape:collect="always"
       xlink:href="#A"
       id="linearGradient1248"
       x1="17.652668"
       y1="69.943542"
       x2="20.142467"
       y2="69.943542"
       gradientTransform="scale(1.8845319,0.53063576)"
       gradientUnits="userSpaceOnUse" />
    <linearGradient
       inkscape:collect="always"
       xlink:href="#A"
       id="linearGradient1250"
       x1="15.618087"
       y1="79.055153"
       x2="17.820921"
       y2="79.055153"
       gradientTransform="scale(2.1300316,0.4694766)"
       gradientUnits="userSpaceOnUse" />
    <linearGradient
       inkscape:collect="always"
       xlink:href="#A"
       id="linearGradient1252"
       x1="14.156693"
       y1="87.216003"
       x2="16.153406"
       y2="87.216003"
       gradientTransform="scale(2.3499146,0.42554738)"
       gradientUnits="userSpaceOnUse" />
    <linearGradient
       inkscape:collect="always"
       xlink:href="#A"
       id="linearGradient1254"
       x1="41.8377"
       y1="29.511427"
       x2="47.738647"
       y2="29.511427"
       gradientTransform="scale(0.79514454,1.257633)"
       gradientUnits="userSpaceOnUse" />
    <linearGradient
       inkscape:collect="always"
       xlink:href="#A"
       id="linearGradient1258"
       x1="20.679575"
       y1="59.705776"
       x2="23.596302"
       y2="59.705776"
       gradientTransform="scale(1.6086896,0.62162398)"
       gradientUnits="userSpaceOnUse" />
    <linearGradient
       inkscape:collect="always"
       xlink:href="#A"
       id="linearGradient1260"
       x1="35.408371"
       y1="34.870007"
       x2="40.402504"
       y2="34.870007"
       gradientTransform="scale(0.93952406,1.0643687)"
       gradientUnits="userSpaceOnUse" />
    <linearGradient
       inkscape:collect="always"
       xlink:href="#A"
       id="linearGradient1262"
       x1="44.644108"
       y1="27.656284"
       x2="50.94088"
       y2="27.656284"
       gradientTransform="scale(0.74516034,1.3419931)"
       gradientUnits="userSpaceOnUse" />
    <linearGradient
       inkscape:collect="always"
       xlink:href="#A"
       id="linearGradient1264"
       x1="25.111368"
       y1="49.168575"
       x2="28.65317"
       y2="49.168575"
       gradientTransform="scale(1.3247792,0.75484274)"
       gradientUnits="userSpaceOnUse" />
    <linearGradient
       inkscape:collect="always"
       xlink:href="#A"
       id="linearGradient1266"
       x1="23.333649"
       y1="52.914577"
       x2="26.624714"
       y2="52.914577"
       gradientTransform="scale(1.4257101,0.70140487)"
       gradientUnits="userSpaceOnUse" />
    <linearGradient
       inkscape:collect="always"
       xlink:href="#A"
       id="linearGradient1268"
       x1="24.449335"
       y1="50.49995"
       x2="27.897762"
       y2="50.49995"
       gradientTransform="scale(1.3606512,0.7349422)"
       gradientUnits="userSpaceOnUse" />
    <linearGradient
       inkscape:collect="always"
       xlink:href="#A"
       id="linearGradient1270"
       x1="45.997372"
       y1="26.842625"
       x2="52.485016"
       y2="26.842625"
       gradientTransform="scale(0.72323735,1.3826719)"
       gradientUnits="userSpaceOnUse" />
    <linearGradient
       inkscape:collect="always"
       xlink:href="#A"
       id="linearGradient1272"
       x1="11.394685"
       y1="59.450985"
       x2="16.696581"
       y2="59.450985"
       gradientTransform="scale(1.6018245,0.62428812)"
       gradientUnits="userSpaceOnUse" />
    <linearGradient
       inkscape:collect="always"
       xlink:href="#A"
       id="linearGradient1274"
       x1="9.6853151"
       y1="69.943542"
       x2="14.19185"
       y2="69.943542"
       gradientTransform="scale(1.8845319,0.53063576)"
       gradientUnits="userSpaceOnUse" />
    <linearGradient
       inkscape:collect="always"
       xlink:href="#A"
       id="linearGradient1276"
       x1="8.5690212"
       y1="79.055153"
       x2="12.556149"
       y2="79.055153"
       gradientTransform="scale(2.1300316,0.4694766)"
       gradientUnits="userSpaceOnUse" />
    <linearGradient
       inkscape:collect="always"
       xlink:href="#A"
       id="linearGradient1278"
       x1="7.7672124"
       y1="87.216003"
       x2="11.381262"
       y2="87.216003"
       gradientTransform="scale(2.3499146,0.42554738)"
       gradientUnits="userSpaceOnUse" />
    <linearGradient
       inkscape:collect="always"
       xlink:href="#A"
       id="linearGradient1280"
       x1="22.954676"
       y1="29.511425"
       x2="33.635384"
       y2="29.511425"
       gradientTransform="scale(0.79514454,1.257633)"
       gradientUnits="userSpaceOnUse" />
    <linearGradient
       inkscape:collect="always"
       xlink:href="#A"
       id="linearGradient1282"
       x1="25.311365"
       y1="26.763678"
       x2="37.088631"
       y2="26.763678"
       gradientTransform="scale(0.72111026,1.3867505)"
       gradientUnits="userSpaceOnUse" />
    <linearGradient
       inkscape:collect="always"
       xlink:href="#A"
       id="linearGradient1284"
       x1="11.346058"
       y1="59.705776"
       x2="16.625328"
       y2="59.705776"
       gradientTransform="scale(1.6086896,0.62162398)"
       gradientUnits="userSpaceOnUse" />
    <linearGradient
       inkscape:collect="always"
       xlink:href="#A"
       id="linearGradient1286"
       x1="19.427162"
       y1="34.870007"
       x2="28.466534"
       y2="34.870007"
       gradientTransform="scale(0.93952406,1.0643687)"
       gradientUnits="userSpaceOnUse" />
    <linearGradient
       inkscape:collect="always"
       xlink:href="#A"
       id="linearGradient1288"
       x1="13.777606"
       y1="49.168575"
       x2="20.188265"
       y2="49.168575"
       gradientTransform="scale(1.3247792,0.75484274)"
       gradientUnits="userSpaceOnUse" />
    <linearGradient
       inkscape:collect="always"
       xlink:href="#A"
       id="linearGradient1290"
       x1="12.802242"
       y1="52.914577"
       x2="18.759068"
       y2="52.914577"
       gradientTransform="scale(1.4257101,0.70140487)"
       gradientUnits="userSpaceOnUse" />
    <linearGradient
       inkscape:collect="always"
       xlink:href="#A"
       id="linearGradient1108"
       x1="13.414375"
       y1="50.499947"
       x2="19.656025"
       y2="50.499947"
       gradientTransform="scale(1.3606512,0.7349422)"
       gradientUnits="userSpaceOnUse" />
    <linearGradient
       inkscape:collect="always"
       xlink:href="#A"
       id="linearGradient1271"
       gradientUnits="userSpaceOnUse"
       gradientTransform="scale(0.72323735,1.3826719)"
       x1="25.236923"
       y1="26.842625"
       x2="36.979553"
       y2="26.842625" />
    <linearGradient
       inkscape:collect="always"
       xlink:href="#A"
       id="linearGradient1303"
       gradientUnits="userSpaceOnUse"
       gradientTransform="scale(0.72111026,1.3867505)"
       x1="46.133053"
       y1="26.763678"
       x2="52.639835"
       y2="26.763678" />
  </defs>
  <path
     d="M 31.028,80.143 V 0.343 H 9.514 C 8.812,5.489 6.114,8.906 0.685,9.955 0.566,27.42 -4.722,70.05 31.028,80.143 Z"
     class="G"
     id="path55" />
  <path
     d="m 31.028,80.143 v -79.8 h 21.514 c 0.702,5.146 3.4,8.563 8.829,9.612 0.119,17.465 5.407,60.095 -30.343,70.188 z"
     class="I"
     id="path57" />
  <path
     d="M 9.514,0.343 C 8.812,5.489 6.114,8.906 0.685,9.955 0.566,27.42 -4.722,70.05 31.028,80.143 66.778,70.05 61.49,27.421 61.371,9.955 55.942,8.906 53.244,5.49 52.542,0.343 H 31.028 Z m 1.887,2.469 h 19.627 19.627 c 0.54,2.05 1.321,3.972 2.681,5.51 1.411,1.594 3.387,2.638 5.6,3.375 C 59.1,20.75 60.106,34.379 57.24,47.279 54.264,60.68 47.476,72.6 31.027,77.527 14.579,72.601 7.79,60.68 4.814,47.279 1.949,34.378 2.955,20.75 3.119,11.697 5.332,10.96 7.308,9.916 8.719,8.322 10.08,6.785 10.861,4.862 11.4,2.812 Z"
     stroke-width="0.685"
     class="C F"
     id="path59" />
  <path
     d="M 10.189,1.163 C 9.766,3.542 8.914,5.615 7.486,7.229 6.041,8.862 4.019,9.986 1.489,10.588 1.381,19.461 0.176,33.988 3.207,47.635 6.288,61.507 13.62,74.272 31.028,79.28 48.436,74.272 55.768,61.507 58.849,47.635 61.88,33.988 60.674,19.462 60.566,10.588 58.036,9.985 56.014,8.862 54.569,7.229 53.141,5.615 52.29,3.543 51.866,1.163 H 31.028 Z m 1.192,0.827 a 0.821,0.821 0 0 1 0.02,0 h 19.627 19.627 a 0.821,0.821 0 0 1 0.794,0.612 c 0.522,1.983 1.263,3.774 2.502,5.174 1.277,1.443 3.113,2.43 5.245,3.14 a 0.821,0.821 0 0 1 0.561,0.764 c 0.163,9.007 1.185,22.715 -1.715,35.775 -3.011,13.558 -10.041,25.843 -26.778,30.856 a 0.821,0.821 0 0 1 -0.471,0 C 14.055,73.298 7.026,61.013 4.015,47.455 1.115,34.395 2.138,20.687 2.3,11.68 a 0.821,0.821 0 0 1 0.561,-0.764 c 2.131,-0.71 3.968,-1.698 5.245,-3.14 1.239,-1.4 1.98,-3.191 2.502,-5.174 A 0.821,0.821 0 0 1 11.382,1.99 Z m 13.666,8.373 3.577,2.638 -10e-4,0.006"
     class="D"
     id="path61" />
  <g
     id="g1484">
    <path
       d="m 37.025,10.351 0.007,-0.005 -4.463,0.01 h -0.011 l -1.532,-4.372 -0.007,0.02 -1.516,4.345 -0.003,0.006 -4.477,-0.01 0.023,0.017 3.576,2.644 -1.306,4.395 0.028,-0.019 3.675,-2.644 0.007,-0.005 3.714,2.507 -0.003,-0.008 -1.366,-4.273 10e-4,-10e-4 z"
       class="G"
       id="path63" />
    <path
       fill="#a07843"
       d="m 27.316,17.667 c -0.054,0 -0.108,-0.016 -0.154,-0.049 -0.093,-0.066 -0.133,-0.183 -0.101,-0.292 l 1.253,-4.217 -3.448,-2.55 c -0.092,-0.068 -0.131,-0.188 -0.095,-0.297 0.036,-0.109 0.138,-0.182 0.252,-0.182 h 0.001 l 4.288,0.009 1.463,-4.194 c 0.037,-0.106 0.138,-0.178 0.25,-0.178 v 0 c 0.113,0 0.213,0.071 0.25,0.178 l 1.47,4.194 4.285,-0.009 h 10e-4 c 0.115,0 0.217,0.074 0.252,0.184 0.035,0.11 -0.004,0.23 -0.098,0.297 l -3.504,2.501 1.298,4.062 c 0.017,0.035 0.026,0.074 0.026,0.115 0,0.146 -0.119,0.265 -0.265,0.265 a 0.26,0.26 0 0 1 -0.07,-0.009 c -0.028,-0.007 -0.056,-0.019 -0.081,-0.036 l -3.56,-2.403 -3.56,2.56 a 0.26,0.26 0 0 1 -0.154,0.049 z m -1.484,-7.053 2.949,2.18 c 0.09,0.066 0.128,0.182 0.097,0.289 l -1.085,3.651 3.073,-2.21 c 0.09,-0.065 0.218,-0.072 0.31,-0.01 l 3.079,2.078 -1.135,-3.552 c -0.035,-0.109 0.004,-0.228 0.096,-0.295 l 2.986,-2.132 -3.633,0.008 h -0.001 c -0.113,0 -0.223,-0.071 -0.26,-0.178 l -1.28,-3.655 -1.273,3.649 c -0.037,0.107 -0.14,0.185 -0.253,0.185 h -10e-4 z"
       id="path65" />
    <path
       d="m 32.569,10.356 h -0.011 l -1.532,-4.372 -0.007,0.02 v 6.221 z"
       class="C"
       id="path67" />
    <g
       class="D"
       id="g73"
       transform="translate(-73.972,-65.126)">
      <path
         d="m 104.991,77.357 v -0.005 l -5.973,-1.863 3.577,2.638 -0.001,0.006 z"
         id="path69" />
      <path
         d="m 104.991,71.131 -1.516,4.345 1.512,1.875 0.004,0.001 z"
         id="path71" />
    </g>
    <path
       d="m 31.016,12.225 -1.512,-1.875 -0.003,0.006 -4.477,-0.01 0.023,0.017 z"
       class="C"
       id="path75" />
    <path
       d="m 32.569,10.356 -1.545,1.865 6.002,-1.87 0.007,-0.005 z"
       class="D"
       id="path77" />
    <path
       d="m 37.025,10.351 -6.002,1.87 -0.004,0.004 v 0 l 2.353,0.734 z"
       class="C"
       id="path79" />
    <path
       d="M 34.737,17.233 33.371,12.96 33.372,12.959 31.019,12.225 V 12.23 Z"
       class="D"
       id="path81" />
    <path
       d="m 34.737,17.233 -3.718,-5.002 v 2.509 l 0.007,-0.005 3.714,2.507 z m -7.421,0.169 0.028,-0.019 3.664,-5.148 -2.385,0.772 z"
       class="C"
       id="path83" />
    <path
       d="m 31.019,14.74 v -2.509 l -0.012,0.004 -3.664,5.148 z"
       class="D"
       id="path85" />
  </g>
  <g
     fill="#1e90ff"
     stroke="#0056a9"
     stroke-width="0.465"
     id="g91"
     transform="translate(-73.972,-65.126)">
    <path
       d="m 101.452,92.542 c -1.118,5.095 -13.677,7.283 -14.259,12.228 0.149,2.358 1.528,2.921 2.41,4.21 1.986,1.505 0.252,2.648 -0.469,2.996 h 31.731 c -0.721,-0.348 -2.455,-1.491 -0.469,-2.996 0.882,-1.288 2.261,-1.852 2.41,-4.21 -0.582,-4.945 -13.141,-7.132 -14.259,-12.228 H 105 Z"
       id="path87" />
    <path
       d="m 102.437,93.96 c -0.588,1.242 -1.61,2.233 -2.757,3.085 -1.472,1.094 -3.213,2.017 -4.887,2.917 l -4.42,2.653 c -1.073,0.824 -1.613,1.567 -1.738,2.204 0.073,0.784 0.268,1.16 0.598,1.576 0.33,0.416 0.879,0.895 1.422,1.642 0.535,0.446 0.961,0.943 1.162,1.559 0.227,0.698 0.095,1.463 -0.182,1.982 -0.083,0.155 -0.18,0.27 -0.273,0.398 h 12.528 14.747 c -0.093,-0.128 -0.191,-0.243 -0.273,-0.398 -0.277,-0.52 -0.409,-1.285 -0.182,-1.982 0.2,-0.616 0.627,-1.113 1.162,-1.559 0.543,-0.746 1.092,-1.226 1.422,-1.642 0.33,-0.416 0.526,-0.792 0.599,-1.576 -0.125,-0.636 -0.665,-1.38 -1.738,-2.204 -1.137,-0.873 -2.745,-1.753 -4.42,-2.653 l -4.888,-2.917 c -1.147,-0.852 -2.169,-1.843 -2.757,-3.085 H 105 Z"
       id="path89" />
  </g>
  <g
     id="g1538">
    <g
       transform="rotate(4.233,982.1461,-1918.5207)"
       id="g319">
      <g
         class="F"
         id="g221">
        <path
           d="m 194.177,79.96 c 8.516,13.977 6.149,24.45 4.477,35.146"
           fill="none"
           class="Q"
           id="path217" />
        <path
           id="use219"
           d="m 195.814,107.522 c 1.058,1.278 2.35,1.081 3.04,4.677 -2.786,-0.626 -2.477,-2.881 -3.04,-4.677 z"
           style="fill:#f5c742;stroke-width:0.265;" />
      </g>
      <path
         id="use223"
         d="m 196.673,108.889 c 0.575,0.524 1.251,0.773 1.5,2.185 -0.728,-0.687 -1.109,-1.437 -1.5,-2.185 z"
         style="fill:#ffeba3;" />
      <path
         id="use225"
         d="m 196.712,103.837 c 1.058,1.278 2.35,1.081 3.04,4.677 -2.786,-0.626 -2.477,-2.881 -3.04,-4.677 z"
         style="fill:#f5c742;stroke:#a07843;stroke-width:0.265;" />
      <path
         id="use227"
         d="m 197.571,105.204 c 0.575,0.524 1.251,0.773 1.5,2.185 -0.728,-0.687 -1.109,-1.437 -1.5,-2.185 z"
         style="fill:#ffeba3;" />
      <g
         transform="rotate(-6.049,127.188,97.231)"
         id="g233">
        <path
           id="use229"
           d="m 195.814,107.522 c 1.058,1.278 2.35,1.081 3.04,4.677 -2.786,-0.626 -2.477,-2.881 -3.04,-4.677 z"
           style="fill:#f5c742;stroke:#a07843;stroke-width:0.265;" />
        <path
           id="use231"
           d="m 196.673,108.889 c 0.575,0.524 1.251,0.773 1.5,2.185 -0.728,-0.687 -1.109,-1.437 -1.5,-2.185 z"
           style="fill:#ffeba3;" />
      </g>
      <g
         transform="rotate(-6.049,88.315,94.729)"
         id="g239">
        <path
           id="use235"
           d="m 195.814,107.522 c 1.058,1.278 2.35,1.081 3.04,4.677 -2.786,-0.626 -2.477,-2.881 -3.04,-4.677 z"
           style="fill:#f5c742;stroke:#a07843;stroke-width:0.265;" />
        <path
           id="use237"
           d="m 196.673,108.889 c 0.575,0.524 1.251,0.773 1.5,2.185 -0.728,-0.687 -1.109,-1.437 -1.5,-2.185 z"
           style="fill:#ffeba3;" />
      </g>
      <g
         transform="rotate(-22.386,158.272,101.169)"
         id="g245">
        <path
           id="use241"
           d="m 195.814,107.522 c 1.058,1.278 2.35,1.081 3.04,4.677 -2.786,-0.626 -2.477,-2.881 -3.04,-4.677 z"
           style="fill:#f5c742;stroke:#a07843;stroke-width:0.265;" />
        <path
           id="use243"
           d="m 196.673,108.889 c 0.575,0.524 1.251,0.773 1.5,2.185 -0.728,-0.687 -1.109,-1.437 -1.5,-2.185 z"
           style="fill:#ffeba3;" />
      </g>
      <g
         transform="rotate(-22.386,148.367,101.07)"
         id="g251">
        <path
           id="use247"
           d="m 195.814,107.522 c 1.058,1.278 2.35,1.081 3.04,4.677 -2.786,-0.626 -2.477,-2.881 -3.04,-4.677 z"
           style="fill:#f5c742;stroke:#a07843;stroke-width:0.265;" />
        <path
           id="use249"
           d="m 196.673,108.889 c 0.575,0.524 1.251,0.773 1.5,2.185 -0.728,-0.687 -1.109,-1.437 -1.5,-2.185 z"
           style="fill:#ffeba3;" />
      </g>
      <g
         transform="rotate(-22.386,137.392,102.62)"
         id="g257">
        <path
           id="use253"
           d="m 195.814,107.522 c 1.058,1.278 2.35,1.081 3.04,4.677 -2.786,-0.626 -2.477,-2.881 -3.04,-4.677 z"
           style="fill:#f5c742;stroke:#a07843;stroke-width:0.265;" />
        <path
           id="use255"
           d="m 196.673,108.889 c 0.575,0.524 1.251,0.773 1.5,2.185 -0.728,-0.687 -1.109,-1.437 -1.5,-2.185 z"
           style="fill:#ffeba3;" />
      </g>
      <g
         transform="rotate(-22.386,125.703,105.269)"
         id="g263">
        <path
           id="use259"
           d="m 195.814,107.522 c 1.058,1.278 2.35,1.081 3.04,4.677 -2.786,-0.626 -2.477,-2.881 -3.04,-4.677 z"
           style="fill:#f5c742;stroke:#a07843;stroke-width:0.265;" />
        <path
           id="use261"
           d="m 196.673,108.889 c 0.575,0.524 1.251,0.773 1.5,2.185 -0.728,-0.687 -1.109,-1.437 -1.5,-2.185 z"
           style="fill:#ffeba3;" />
      </g>
      <g
         transform="matrix(1.365618,0.023099,-0.024065,1.310797,-74.48714,-71.679805)"
         id="g269">
        <path
           id="use265"
           d="m 195.814,107.522 c 1.058,1.278 2.35,1.081 3.04,4.677 -2.786,-0.626 -2.477,-2.881 -3.04,-4.677 z"
           style="fill:#f5c742;stroke:#a07843;stroke-width:0.265;" />
        <path
           id="use267"
           d="m 196.673,108.889 c 0.575,0.524 1.251,0.773 1.5,2.185 -0.728,-0.687 -1.109,-1.437 -1.5,-2.185 z"
           style="fill:#ffeba3;" />
      </g>
      <g
         transform="matrix(-0.923977,-0.382449,-0.382449,0.923977,425.80242,84.7312)"
         id="g275">
        <path
           id="use271"
           d="m 195.814,107.522 c 1.058,1.278 2.35,1.081 3.04,4.677 -2.786,-0.626 -2.477,-2.881 -3.04,-4.677 z"
           style="fill:#f5c742;stroke:#a07843;stroke-width:0.265;" />
        <path
           id="use273"
           d="m 196.673,108.889 c 0.575,0.524 1.251,0.773 1.5,2.185 -0.728,-0.687 -1.109,-1.437 -1.5,-2.185 z"
           style="fill:#ffeba3;" />
      </g>
      <g
         transform="matrix(-0.954174,-0.299253,-0.299253,0.954174,423.27895,60.975183)"
         id="g281">
        <path
           id="use277"
           d="m 195.814,107.522 c 1.058,1.278 2.35,1.081 3.04,4.677 -2.786,-0.626 -2.477,-2.881 -3.04,-4.677 z"
           style="fill:#f5c742;stroke:#a07843;stroke-width:0.265;" />
        <path
           id="use279"
           d="m 196.673,108.889 c 0.575,0.524 1.251,0.773 1.5,2.185 -0.728,-0.687 -1.109,-1.437 -1.5,-2.185 z"
           style="fill:#ffeba3;" />
      </g>
      <g
         transform="matrix(-0.998206,-0.059873,-0.059873,0.998206,405.47439,4.493966)"
         id="g287">
        <path
           id="use283"
           d="m 195.814,107.522 c 1.058,1.278 2.35,1.081 3.04,4.677 -2.786,-0.626 -2.477,-2.881 -3.04,-4.677 z"
           style="fill:#f5c742;stroke:#a07843;stroke-width:0.265;" />
        <path
           id="use285"
           d="m 196.673,108.889 c 0.575,0.524 1.251,0.773 1.5,2.185 -0.728,-0.687 -1.109,-1.437 -1.5,-2.185 z"
           style="fill:#ffeba3;" />
      </g>
      <g
         transform="matrix(-0.995622,0.093466,0.093466,0.995622,388.01832,-29.973317)"
         id="g293">
        <path
           id="use289"
           d="m 195.814,107.522 c 1.058,1.278 2.35,1.081 3.04,4.677 -2.786,-0.626 -2.477,-2.881 -3.04,-4.677 z"
           style="fill:#f5c742;stroke:#a07843;stroke-width:0.265;" />
        <path
           id="use291"
           d="m 196.673,108.889 c 0.575,0.524 1.251,0.773 1.5,2.185 -0.728,-0.687 -1.109,-1.437 -1.5,-2.185 z"
           style="fill:#ffeba3;" />
      </g>
      <g
         transform="matrix(-0.995622,0.093466,0.093466,0.995622,387.4986,-34.320043)"
         id="g299">
        <path
           id="use295"
           d="m 195.814,107.522 c 1.058,1.278 2.35,1.081 3.04,4.677 -2.786,-0.626 -2.477,-2.881 -3.04,-4.677 z"
           style="fill:#f5c742;stroke:#a07843;stroke-width:0.265;" />
        <path
           id="use297"
           d="m 196.673,108.889 c 0.575,0.524 1.251,0.773 1.5,2.185 -0.728,-0.687 -1.109,-1.437 -1.5,-2.185 z"
           style="fill:#ffeba3;" />
      </g>
      <g
         transform="matrix(-0.972292,0.23377,0.23377,0.972292,366.57495,-63.696836)"
         id="g305">
        <path
           id="use301"
           d="m 195.814,107.522 c 1.058,1.278 2.35,1.081 3.04,4.677 -2.786,-0.626 -2.477,-2.881 -3.04,-4.677 z"
           style="fill:#f5c742;stroke:#a07843;stroke-width:0.265;" />
        <path
           id="use303"
           d="m 196.673,108.889 c 0.575,0.524 1.251,0.773 1.5,2.185 -0.728,-0.687 -1.109,-1.437 -1.5,-2.185 z"
           style="fill:#ffeba3;" />
      </g>
      <g
         transform="matrix(-0.908076,0.418805,0.418805,0.908076,331.67054,-97.452191)"
         id="g311">
        <path
           id="use307"
           d="m 195.814,107.522 c 1.058,1.278 2.35,1.081 3.04,4.677 -2.786,-0.626 -2.477,-2.881 -3.04,-4.677 z"
           style="fill:#f5c742;stroke:#a07843;stroke-width:0.265;" />
        <path
           id="use309"
           d="m 196.673,108.889 c 0.575,0.524 1.251,0.773 1.5,2.185 -0.728,-0.687 -1.109,-1.437 -1.5,-2.185 z"
           style="fill:#ffeba3;" />
      </g>
      <g
         transform="matrix(-0.851902,0.523701,0.523701,0.851902,306.92488,-116.31204)"
         id="g317">
        <path
           id="use313"
           d="m 195.814,107.522 c 1.058,1.278 2.35,1.081 3.04,4.677 -2.786,-0.626 -2.477,-2.881 -3.04,-4.677 z"
           style="fill:#f5c742;stroke:#a07843;stroke-width:0.265;" />
        <path
           id="use315"
           d="m 196.673,108.889 c 0.575,0.524 1.251,0.773 1.5,2.185 -0.728,-0.687 -1.109,-1.437 -1.5,-2.185 z"
           style="fill:#ffeba3;" />
      </g>
    </g>
  </g>
  <g
     id="g1587">
    <g
       class="B"
       id="g325"
       transform="translate(-73.972,-65.126)">
      <path
         id="use321"
         d="m 89.399,80.907 c -0.286,-0.411 -0.88,-0.699 -0.824,-1.276 0.038,-0.702 0.644,-1.195 0.753,-1.875 0.067,-0.515 0.619,-0.546 1.002,-0.708 0.5,-0.104 0.965,-0.307 1.409,-0.56 0.338,-0.148 0.693,-0.35 1.076,-0.286 0.441,-0.148 0.852,0.294 0.82,0.724 0.078,0.925 -0.032,1.855 0.024,2.782 0.055,0.488 -0.098,1.001 -0.477,1.328 -0.303,0.281 -0.662,0.523 -1.093,0.53 -0.588,0.084 -1.163,-0.101 -1.746,-0.137 -0.334,-0.133 -0.679,-0.27 -0.945,-0.52 z"
         style="fill:#e5e5e5;stroke:#9b9b9b;" />
      <path
         id="use323"
         d="m 88.454,78.639 c 0.913,1.299 1.827,0.363 2.74,0.307 -0.197,1.212 1.357,2.749 2.055,2.386 -1.085,2.125 -3.682,1.117 -4.559,1.63 0.213,-1.465 -1.641,-2.67 -0.236,-4.323 z"
         style="fill:#008358;stroke:#00714b;" />
    </g>
    <path
       id="use327"
       d="m 18.522,11.883 c -0.491,-0.181 -0.956,0.135 -1.313,0.438 -0.319,0.264 -0.959,0.15 -1.075,0.612 -0.039,0.487 0.519,0.513 0.859,0.404 0.376,-0.13 0.789,0.022 0.939,0.404 0.218,0.322 0.124,0.817 0.481,1.052 0.388,0.203 0.678,-0.221 0.679,-0.572 0.1,-0.476 -0.13,-0.93 -0.142,-1.403 -0.033,-0.345 -0.071,-0.759 -0.428,-0.937 z"
       style="fill:#ffffff;" />
    <path
       id="use329"
       d="m 14.577,14.328 c 0.695,0.368 0.737,0.823 2.197,0.024 0.219,0.782 0.154,1.609 1.878,2.15 -0.929,0.125 -1.858,-0.003 -2.788,-0.508 -0.705,-0.455 -1.269,-0.961 -1.287,-1.665 z"
       style="fill:#00a870;" />
    <g
       transform="matrix(1.14247,0.116156,0.088756,1.044537,-181.11007,-83.002658)"
       id="g341">
      <g
         class="B"
         id="g335">
        <path
           id="use331"
           d="m 162.631,80.907 c -0.286,-0.411 -0.88,-0.699 -0.824,-1.276 0.038,-0.702 0.644,-1.195 0.753,-1.875 0.067,-0.515 0.619,-0.546 1.002,-0.708 0.5,-0.104 0.965,-0.307 1.409,-0.56 0.338,-0.148 0.693,-0.35 1.076,-0.286 0.441,-0.148 0.852,0.294 0.82,0.724 0.078,0.925 -0.032,1.855 0.024,2.782 0.055,0.488 -0.098,1.001 -0.477,1.328 -0.303,0.281 -0.662,0.523 -1.093,0.53 -0.588,0.084 -1.163,-0.101 -1.746,-0.137 -0.334,-0.133 -0.679,-0.27 -0.945,-0.52 z"
           style="fill:#e5e5e5;stroke:#9b9b9b;" />
        <path
           id="use333"
           d="m 161.686,78.639 c 0.913,1.299 1.827,0.363 2.74,0.307 -0.197,1.212 1.357,2.749 2.055,2.386 -1.085,2.125 -3.682,1.117 -4.559,1.63 0.213,-1.465 -1.641,-2.67 -0.236,-4.323 z"
           style="fill:#008358;stroke:#00714b;" />
      </g>
      <path
         id="use337"
         d="m 165.726,77.009 c -0.491,-0.181 -0.956,0.135 -1.313,0.438 -0.319,0.264 -0.959,0.15 -1.075,0.612 -0.039,0.487 0.519,0.513 0.859,0.404 0.376,-0.13 0.789,0.022 0.939,0.404 0.218,0.322 0.124,0.817 0.481,1.052 0.388,0.203 0.678,-0.221 0.679,-0.572 0.1,-0.476 -0.13,-0.93 -0.142,-1.403 -0.033,-0.345 -0.071,-0.759 -0.428,-0.937 z"
         style="fill:#ffffff;" />
      <path
         id="use339"
         d="m 161.781,79.454 c 0.695,0.368 0.737,0.823 2.197,0.024 0.219,0.782 0.154,1.609 1.878,2.15 -0.929,0.125 -1.858,-0.003 -2.788,-0.508 -0.705,-0.455 -1.269,-0.961 -1.287,-1.665 z"
         style="fill:#00a870;" />
    </g>
    <g
       transform="matrix(1.330678,-0.330312,0.567399,0.97658,-253.33483,0.139188)"
       id="g353">
      <g
         class="B"
         id="g347">
        <path
           id="use343"
           d="m 162.631,80.907 c -0.286,-0.411 -0.88,-0.699 -0.824,-1.276 0.038,-0.702 0.644,-1.195 0.753,-1.875 0.067,-0.515 0.619,-0.546 1.002,-0.708 0.5,-0.104 0.965,-0.307 1.409,-0.56 0.338,-0.148 0.693,-0.35 1.076,-0.286 0.441,-0.148 0.852,0.294 0.82,0.724 0.078,0.925 -0.032,1.855 0.024,2.782 0.055,0.488 -0.098,1.001 -0.477,1.328 -0.303,0.281 -0.662,0.523 -1.093,0.53 -0.588,0.084 -1.163,-0.101 -1.746,-0.137 -0.334,-0.133 -0.679,-0.27 -0.945,-0.52 z"
           style="fill:#e5e5e5;stroke:#9b9b9b;" />
        <path
           id="use345"
           d="m 161.686,78.639 c 0.913,1.299 1.827,0.363 2.74,0.307 -0.197,1.212 1.357,2.749 2.055,2.386 -1.085,2.125 -3.682,1.117 -4.559,1.63 0.213,-1.465 -1.641,-2.67 -0.236,-4.323 z"
           style="fill:#008358;stroke:#00714b;" />
      </g>
      <path
         id="use349"
         d="m 165.726,77.009 c -0.491,-0.181 -0.956,0.135 -1.313,0.438 -0.319,0.264 -0.959,0.15 -1.075,0.612 -0.039,0.487 0.519,0.513 0.859,0.404 0.376,-0.13 0.789,0.022 0.939,0.404 0.218,0.322 0.124,0.817 0.481,1.052 0.388,0.203 0.678,-0.221 0.679,-0.572 0.1,-0.476 -0.13,-0.93 -0.142,-1.403 -0.033,-0.345 -0.071,-0.759 -0.428,-0.937 z"
         style="fill:#ffffff;" />
      <path
         id="use351"
         d="m 161.781,79.454 c 0.695,0.368 0.737,0.823 2.197,0.024 0.219,0.782 0.154,1.609 1.878,2.15 -0.929,0.125 -1.858,-0.003 -2.788,-0.508 -0.705,-0.455 -1.269,-0.961 -1.287,-1.665 z"
         style="fill:#00a870;" />
    </g>
    <g
       transform="matrix(1.361007,-0.16574,0.4442,1.03843,-248.82926,-27.175993)"
       id="g365">
      <g
         class="B"
         id="g359">
        <path
           id="use355"
           d="m 162.631,80.907 c -0.286,-0.411 -0.88,-0.699 -0.824,-1.276 0.038,-0.702 0.644,-1.195 0.753,-1.875 0.067,-0.515 0.619,-0.546 1.002,-0.708 0.5,-0.104 0.965,-0.307 1.409,-0.56 0.338,-0.148 0.693,-0.35 1.076,-0.286 0.441,-0.148 0.852,0.294 0.82,0.724 0.078,0.925 -0.032,1.855 0.024,2.782 0.055,0.488 -0.098,1.001 -0.477,1.328 -0.303,0.281 -0.662,0.523 -1.093,0.53 -0.588,0.084 -1.163,-0.101 -1.746,-0.137 -0.334,-0.133 -0.679,-0.27 -0.945,-0.52 z"
           style="fill:#e5e5e5;stroke:#9b9b9b;" />
        <path
           id="use357"
           d="m 161.686,78.639 c 0.913,1.299 1.827,0.363 2.74,0.307 -0.197,1.212 1.357,2.749 2.055,2.386 -1.085,2.125 -3.682,1.117 -4.559,1.63 0.213,-1.465 -1.641,-2.67 -0.236,-4.323 z"
           style="fill:#008358;stroke:#00714b;" />
      </g>
      <path
         id="use361"
         d="m 165.726,77.009 c -0.491,-0.181 -0.956,0.135 -1.313,0.438 -0.319,0.264 -0.959,0.15 -1.075,0.612 -0.039,0.487 0.519,0.513 0.859,0.404 0.376,-0.13 0.789,0.022 0.939,0.404 0.218,0.322 0.124,0.817 0.481,1.052 0.388,0.203 0.678,-0.221 0.679,-0.572 0.1,-0.476 -0.13,-0.93 -0.142,-1.403 -0.033,-0.345 -0.071,-0.759 -0.428,-0.937 z"
         style="fill:#ffffff;" />
      <path
         id="use363"
         d="m 161.781,79.454 c 0.695,0.368 0.737,0.823 2.197,0.024 0.219,0.782 0.154,1.609 1.878,2.15 -0.929,0.125 -1.858,-0.003 -2.788,-0.508 -0.705,-0.455 -1.269,-0.961 -1.287,-1.665 z"
         style="fill:#00a870;" />
    </g>
    <g
       transform="matrix(1.054371,-0.347885,0.495026,0.828998,-203.97241,23.866189)"
       id="g377">
      <g
         class="B"
         id="g371">
        <path
           id="use367"
           d="m 162.631,80.907 c -0.286,-0.411 -0.88,-0.699 -0.824,-1.276 0.038,-0.702 0.644,-1.195 0.753,-1.875 0.067,-0.515 0.619,-0.546 1.002,-0.708 0.5,-0.104 0.965,-0.307 1.409,-0.56 0.338,-0.148 0.693,-0.35 1.076,-0.286 0.441,-0.148 0.852,0.294 0.82,0.724 0.078,0.925 -0.032,1.855 0.024,2.782 0.055,0.488 -0.098,1.001 -0.477,1.328 -0.303,0.281 -0.662,0.523 -1.093,0.53 -0.588,0.084 -1.163,-0.101 -1.746,-0.137 -0.334,-0.133 -0.679,-0.27 -0.945,-0.52 z"
           style="fill:#e5e5e5;stroke:#9b9b9b;" />
        <path
           id="use369"
           d="m 161.686,78.639 c 0.913,1.299 1.827,0.363 2.74,0.307 -0.197,1.212 1.357,2.749 2.055,2.386 -1.085,2.125 -3.682,1.117 -4.559,1.63 0.213,-1.465 -1.641,-2.67 -0.236,-4.323 z"
           style="fill:#008358;stroke:#00714b;" />
      </g>
      <path
         id="use373"
         d="m 165.726,77.009 c -0.491,-0.181 -0.956,0.135 -1.313,0.438 -0.319,0.264 -0.959,0.15 -1.075,0.612 -0.039,0.487 0.519,0.513 0.859,0.404 0.376,-0.13 0.789,0.022 0.939,0.404 0.218,0.322 0.124,0.817 0.481,1.052 0.388,0.203 0.678,-0.221 0.679,-0.572 0.1,-0.476 -0.13,-0.93 -0.142,-1.403 -0.033,-0.345 -0.071,-0.759 -0.428,-0.937 z"
         style="fill:#ffffff;" />
      <path
         id="use375"
         d="m 161.781,79.454 c 0.695,0.368 0.737,0.823 2.197,0.024 0.219,0.782 0.154,1.609 1.878,2.15 -0.929,0.125 -1.858,-0.003 -2.788,-0.508 -0.705,-0.455 -1.269,-0.961 -1.287,-1.665 z"
         style="fill:#00a870;" />
    </g>
    <g
       transform="matrix(0.991088,-0.500468,0.612542,0.746378,-202.99346,59.8477)"
       id="g389">
      <g
         class="B"
         id="g383">
        <path
           id="use379"
           d="m 162.631,80.907 c -0.286,-0.411 -0.88,-0.699 -0.824,-1.276 0.038,-0.702 0.644,-1.195 0.753,-1.875 0.067,-0.515 0.619,-0.546 1.002,-0.708 0.5,-0.104 0.965,-0.307 1.409,-0.56 0.338,-0.148 0.693,-0.35 1.076,-0.286 0.441,-0.148 0.852,0.294 0.82,0.724 0.078,0.925 -0.032,1.855 0.024,2.782 0.055,0.488 -0.098,1.001 -0.477,1.328 -0.303,0.281 -0.662,0.523 -1.093,0.53 -0.588,0.084 -1.163,-0.101 -1.746,-0.137 -0.334,-0.133 -0.679,-0.27 -0.945,-0.52 z"
           style="fill:#e5e5e5;stroke:#9b9b9b;" />
        <path
           id="use381"
           d="m 161.686,78.639 c 0.913,1.299 1.827,0.363 2.74,0.307 -0.197,1.212 1.357,2.749 2.055,2.386 -1.085,2.125 -3.682,1.117 -4.559,1.63 0.213,-1.465 -1.641,-2.67 -0.236,-4.323 z"
           style="fill:#008358;stroke:#00714b;" />
      </g>
      <path
         id="use385"
         d="m 165.726,77.009 c -0.491,-0.181 -0.956,0.135 -1.313,0.438 -0.319,0.264 -0.959,0.15 -1.075,0.612 -0.039,0.487 0.519,0.513 0.859,0.404 0.376,-0.13 0.789,0.022 0.939,0.404 0.218,0.322 0.124,0.817 0.481,1.052 0.388,0.203 0.678,-0.221 0.679,-0.572 0.1,-0.476 -0.13,-0.93 -0.142,-1.403 -0.033,-0.345 -0.071,-0.759 -0.428,-0.937 z"
         style="fill:#ffffff;" />
      <path
         id="use387"
         d="m 161.781,79.454 c 0.695,0.368 0.737,0.823 2.197,0.024 0.219,0.782 0.154,1.609 1.878,2.15 -0.929,0.125 -1.858,-0.003 -2.788,-0.508 -0.705,-0.455 -1.269,-0.961 -1.287,-1.665 z"
         style="fill:#00a870;" />
    </g>
    <g
       transform="matrix(0.991088,-0.500468,0.612542,0.746378,-202.28475,65.04487)"
       id="g401">
      <g
         class="B"
         id="g395">
        <path
           id="use391"
           d="m 162.631,80.907 c -0.286,-0.411 -0.88,-0.699 -0.824,-1.276 0.038,-0.702 0.644,-1.195 0.753,-1.875 0.067,-0.515 0.619,-0.546 1.002,-0.708 0.5,-0.104 0.965,-0.307 1.409,-0.56 0.338,-0.148 0.693,-0.35 1.076,-0.286 0.441,-0.148 0.852,0.294 0.82,0.724 0.078,0.925 -0.032,1.855 0.024,2.782 0.055,0.488 -0.098,1.001 -0.477,1.328 -0.303,0.281 -0.662,0.523 -1.093,0.53 -0.588,0.084 -1.163,-0.101 -1.746,-0.137 -0.334,-0.133 -0.679,-0.27 -0.945,-0.52 z"
           style="fill:#e5e5e5;stroke:#9b9b9b;" />
        <path
           id="use393"
           d="m 161.686,78.639 c 0.913,1.299 1.827,0.363 2.74,0.307 -0.197,1.212 1.357,2.749 2.055,2.386 -1.085,2.125 -3.682,1.117 -4.559,1.63 0.213,-1.465 -1.641,-2.67 -0.236,-4.323 z"
           style="fill:#008358;stroke:#00714b;" />
      </g>
      <path
         id="use397"
         d="m 165.726,77.009 c -0.491,-0.181 -0.956,0.135 -1.313,0.438 -0.319,0.264 -0.959,0.15 -1.075,0.612 -0.039,0.487 0.519,0.513 0.859,0.404 0.376,-0.13 0.789,0.022 0.939,0.404 0.218,0.322 0.124,0.817 0.481,1.052 0.388,0.203 0.678,-0.221 0.679,-0.572 0.1,-0.476 -0.13,-0.93 -0.142,-1.403 -0.033,-0.345 -0.071,-0.759 -0.428,-0.937 z"
         style="fill:#ffffff;" />
      <path
         id="use399"
         d="m 161.781,79.454 c 0.695,0.368 0.737,0.823 2.197,0.024 0.219,0.782 0.154,1.609 1.878,2.15 -0.929,0.125 -1.858,-0.003 -2.788,-0.508 -0.705,-0.455 -1.269,-0.961 -1.287,-1.665 z"
         style="fill:#00a870;" />
    </g>
    <g
       transform="matrix(0.726545,-0.795705,0.881921,0.47421,-178.98801,140.53643)"
       id="g413">
      <g
         class="B"
         id="g407">
        <path
           id="use403"
           d="m 162.631,80.907 c -0.286,-0.411 -0.88,-0.699 -0.824,-1.276 0.038,-0.702 0.644,-1.195 0.753,-1.875 0.067,-0.515 0.619,-0.546 1.002,-0.708 0.5,-0.104 0.965,-0.307 1.409,-0.56 0.338,-0.148 0.693,-0.35 1.076,-0.286 0.441,-0.148 0.852,0.294 0.82,0.724 0.078,0.925 -0.032,1.855 0.024,2.782 0.055,0.488 -0.098,1.001 -0.477,1.328 -0.303,0.281 -0.662,0.523 -1.093,0.53 -0.588,0.084 -1.163,-0.101 -1.746,-0.137 -0.334,-0.133 -0.679,-0.27 -0.945,-0.52 z"
           style="fill:#e5e5e5;stroke:#9b9b9b;" />
        <path
           id="use405"
           d="m 161.686,78.639 c 0.913,1.299 1.827,0.363 2.74,0.307 -0.197,1.212 1.357,2.749 2.055,2.386 -1.085,2.125 -3.682,1.117 -4.559,1.63 0.213,-1.465 -1.641,-2.67 -0.236,-4.323 z"
           style="fill:#008358;stroke:#00714b;" />
      </g>
      <path
         id="use409"
         d="m 165.726,77.009 c -0.491,-0.181 -0.956,0.135 -1.313,0.438 -0.319,0.264 -0.959,0.15 -1.075,0.612 -0.039,0.487 0.519,0.513 0.859,0.404 0.376,-0.13 0.789,0.022 0.939,0.404 0.218,0.322 0.124,0.817 0.481,1.052 0.388,0.203 0.678,-0.221 0.679,-0.572 0.1,-0.476 -0.13,-0.93 -0.142,-1.403 -0.033,-0.345 -0.071,-0.759 -0.428,-0.937 z"
         style="fill:#ffffff;" />
      <path
         id="use411"
         d="m 161.781,79.454 c 0.695,0.368 0.737,0.823 2.197,0.024 0.219,0.782 0.154,1.609 1.878,2.15 -0.929,0.125 -1.858,-0.003 -2.788,-0.508 -0.705,-0.455 -1.269,-0.961 -1.287,-1.665 z"
         style="fill:#00a870;" />
    </g>
  </g>
  <g
     id="g1881">
    <path
       id="use123"
       d="m 35.247,41.21 v 1.47 h 2.806 c 0.798,0 1.279,0 1.279,-0.459 0,-0.285 -0.37,-1.011 -1.279,-1.011 z"
       style="opacity:0.995;fill:url(#linearGradient1246);fill-rule:evenodd;stroke:#696969;stroke-width:0.2;stroke-linejoin:round;fill-opacity:1;" />
    <path
       id="use125"
       d="m 35.247,42.68 v 1.47 h 4.451 c 0.798,0 1.28,0 1.28,-0.46 0,-0.285 -0.37,-1.01 -1.28,-1.01 z"
       style="fill:url(#linearGradient1248);stroke:#696969;stroke-width:0.2;fill-opacity:1;" />
    <path
       id="use127"
       d="m 35.247,44.15 v 1.47 h 6.097 c 0.798,0 1.28,0 1.28,-0.459 0,-0.285 -0.37,-1.01 -1.28,-1.01 z"
       style="fill:url(#linearGradient1250);stroke:#696969;stroke-width:0.2;fill-opacity:1;" />
    <path
       id="use129"
       d="m 35.247,45.62 v 1.47 h 7.742 c 0.798,0 1.28,0 1.28,-0.46 0,-0.285 -0.37,-1.01 -1.28,-1.01 z"
       style="fill:url(#linearGradient1252);stroke:#696969;stroke-width:0.2;fill-opacity:1;" />
    <path
       d="m 34.362,35.414 h 3.591 v 5.796 h -3.591 z"
       fill="url(#E)"
       class="E"
       id="path131"
       style="fill:url(#linearGradient1254);fill-rule:evenodd;stroke:#696969;stroke-width:0.2;stroke-linejoin:round;fill-opacity:1;" />
    <path
       d="m 34.362,37.685 h 1.737 v 3.525 h -1.737 z"
       fill="url(#E)"
       class="E"
       id="path133"
       style="fill:url(#linearGradient1303);fill-rule:evenodd;stroke:#696969;stroke-width:0.2;stroke-linejoin:round;fill-opacity:1;" />
    <path
       id="use135"
       d="m 34.362,33.782 v 1.632 h 3.591 a 0.95,0.816 0 0 0 0.95,-0.816 0.95,0.816 0 0 0 -0.95,-0.816 z"
       style="opacity:0.995;fill:url(#linearGradient1258);fill-rule:evenodd;stroke:#696969;stroke-width:0.2;stroke-linejoin:round;fill-opacity:1;" />
    <path
       id="use139"
       d="m 37.753,32.566 h -3.391 v -3.934 h 2.871 v 1.89 c 0.27,0.625 0.745,1.131 0.52,2.044 z"
       style="fill:url(#linearGradient1260);stroke:#696969;stroke-width:0.2;fill-opacity:1;" />
    <path
       d="m 34.362,30.553 h 1.704 v 3.229 h -1.704 z"
       fill="url(#E)"
       class="E"
       id="path141"
       style="fill:url(#linearGradient1262);fill-rule:evenodd;stroke:#696969;stroke-width:0.2;stroke-linejoin:round;fill-opacity:1;" />
    <path
       id="use143"
       d="m 37.753,32.566 a 0.611,0.611 0 0 0 -0.095,0.008 h -1.593 v 1.208 h 1.593 a 0.611,0.611 0 0 0 0.705,-0.604 0.611,0.611 0 0 0 -0.611,-0.611 z"
       style="opacity:0.995;fill:url(#linearGradient1264);fill-rule:evenodd;stroke:#696969;stroke-width:0.2;stroke-linejoin:round;fill-opacity:1;" />
    <path
       id="use145"
       d="m 34.362,26.813 v 1.819 h 2.587 c 2.104,0.003 1.372,-1.819 0,-1.819 z"
       style="opacity:0.995;fill:url(#linearGradient1266);fill-rule:evenodd;stroke:#696969;stroke-width:0.2;stroke-linejoin:round;fill-opacity:1;" />
    <path
       id="use147"
       d="m 34.362,24.994 v 1.819 h 2.221 c 2.104,0.003 1.372,-1.819 0,-1.819 z"
       style="opacity:0.995;fill:url(#linearGradient1268);fill-rule:evenodd;stroke:#696969;stroke-width:0.2;stroke-linejoin:round;fill-opacity:1;" />
    <path
       id="use151"
       d="m 34.362,24.994 v -6.87 h 0.778 c 0.074,1.244 0.816,2.098 1.962,2.79 1.146,0.692 1.008,4.08 -0.519,4.08 z"
       style="fill:url(#linearGradient1270);stroke:#696969;stroke-width:0.2;fill-opacity:1;" />
    <path
       d="m 34.362,41.21 h 0.885 v 5.88 h -0.885 z"
       fill="#696969"
       class="E H K"
       id="path153"
       style="stroke:#696969;stroke-width:0.2;" />
    <path
       id="use157"
       d="m 26.80915,41.21 v 1.47 h -2.806 c -0.798,0 -1.279,0 -1.279,-0.459 0,-0.285 0.37,-1.011 1.279,-1.011 z"
       style="opacity:0.995;fill:url(#linearGradient1272);fill-rule:evenodd;stroke:#696969;stroke-width:0.2;stroke-linejoin:round;fill-opacity:1;" />
    <path
       id="use159"
       d="m 26.80915,42.68 v 1.47 h -4.451 c -0.798,0 -1.28,0 -1.28,-0.46 0,-0.285 0.37,-1.01 1.28,-1.01 z"
       style="fill:url(#linearGradient1274);stroke:#696969;stroke-width:0.2;fill-opacity:1;" />
    <path
       id="use161"
       d="m 26.80915,44.15 v 1.47 h -6.097 c -0.798,0 -1.28,0 -1.28,-0.459 0,-0.285 0.37,-1.01 1.28,-1.01 z"
       style="fill:url(#linearGradient1276);stroke:#696969;stroke-width:0.2;fill-opacity:1;" />
    <path
       id="use163"
       d="m 26.80915,45.62 v 1.47 h -7.742 c -0.798,0 -1.28,0 -1.28,-0.46 0,-0.285 0.37,-1.01 1.28,-1.01 z"
       style="fill:url(#linearGradient1278);stroke:#696969;stroke-width:0.2;fill-opacity:1;" />
    <path
       d="m 27.69415,35.414 h -3.591 v 5.796 h 3.591 z"
       fill="url(#E)"
       class="E"
       id="path165"
       style="fill:url(#linearGradient1280);fill-rule:evenodd;stroke:#696969;stroke-width:0.2;stroke-linejoin:round;fill-opacity:1;" />
    <path
       d="m 27.69415,37.685 h -1.737 v 3.525 h 1.737 z"
       fill="url(#E)"
       class="E"
       id="path167"
       style="fill:url(#linearGradient1282);fill-rule:evenodd;stroke:#696969;stroke-width:0.2;stroke-linejoin:round;fill-opacity:1;" />
    <path
       id="use169"
       d="m 27.69415,33.782 v 1.632 h -3.591 a -0.95,0.816 0 0 1 -0.95,-0.816 -0.95,0.816 0 0 1 0.95,-0.816 z"
       style="opacity:0.995;fill:url(#linearGradient1284);fill-rule:evenodd;stroke:#696969;stroke-width:0.2;stroke-linejoin:round;fill-opacity:1;" />
    <path
       id="use173"
       d="m 24.30315,32.566 h 3.391 v -3.934 h -2.871 v 1.89 c -0.27,0.625 -0.745,1.131 -0.52,2.044 z"
       style="fill:url(#linearGradient1286);stroke:#696969;stroke-width:0.2;fill-opacity:1;" />
    <path
       d="m 27.69415,30.553 h -1.704 v 3.229 h 1.704 z"
       fill="url(#E)"
       class="E"
       id="path175"
       style="fill:url(#E);fill-rule:evenodd;stroke:#696969;stroke-width:0.2;stroke-linejoin:round;fill-opacity:1;" />
    <path
       id="use177"
       d="m 24.30315,32.566 a -0.611,0.611 0 0 1 0.095,0.008 h 1.593 v 1.208 h -1.593 a -0.611,0.611 0 0 1 -0.705,-0.604 -0.611,0.611 0 0 1 0.611,-0.611 z"
       style="opacity:0.995;fill:url(#linearGradient1288);fill-rule:evenodd;stroke:#696969;stroke-width:0.2;stroke-linejoin:round;fill-opacity:1;" />
    <path
       id="use179"
       d="m 27.69415,26.813 v 1.819 h -2.587 c -2.104,0.003 -1.372,-1.819 0,-1.819 z"
       style="opacity:0.995;fill:url(#linearGradient1290);fill-rule:evenodd;stroke:#696969;stroke-width:0.2;stroke-linejoin:round;fill-opacity:1;" />
    <path
       id="use181"
       d="m 27.69415,24.994 v 1.819 h -2.221 c -2.104,0.003 -1.372,-1.819 0,-1.819 z"
       style="opacity:0.995;fill:url(#linearGradient1108);fill-rule:evenodd;stroke:#696969;stroke-width:0.2;stroke-linejoin:round;fill-opacity:1;" />
    <path
       id="use185"
       d="m 27.69415,24.994 v -6.87 h -0.778 c -0.074,1.244 -0.816,2.098 -1.962,2.79 -1.146,0.692 -1.008,4.08 0.519,4.08 z"
       style="fill:url(#linearGradient1271);stroke:#696969;stroke-width:0.2;fill-opacity:1;" />
    <path
       d="m 27.69415,41.21 h -0.885 v 5.88 h 0.885 z"
       fill="#696969"
       class="E H K"
       id="path187"
       style="stroke:#696969;stroke-width:0.2;" />
    <path
       id="ellipse195"
       style="opacity:0.996;fill:url(#G);fill-rule:evenodd;"
       transform="rotate(-50.956)"
       d="m -10.8663,50.371746 a 1.984,1.192 0 0 1 -1.984,1.192 1.984,1.192 0 0 1 -1.984,-1.192 1.984,1.192 0 0 1 1.984,-1.192 1.984,1.192 0 0 1 1.984,1.192 z"
       class="J" />
    <path
       id="ellipse197"
       style="opacity:0.996;fill:url(#H);fill-rule:evenodd;"
       transform="rotate(-50.956)"
       d="m -6.8103011,47.082745 a 1.984,1.192 0 0 1 -1.9839999,1.192 1.984,1.192 0 0 1 -1.984,-1.192 1.984,1.192 0 0 1 1.984,-1.192 1.984,1.192 0 0 1 1.9839999,1.192 z"
       class="J" />
    <path
       id="ellipse199"
       style="opacity:0.996;fill:url(#J);fill-rule:evenodd;"
       transform="rotate(-50.956)"
       d="m -3.0473006,44.030743 a 1.984,1.192 0 0 1 -1.9839999,1.192 1.984,1.192 0 0 1 -1.984,-1.192 1.984,1.192 0 0 1 1.984,-1.192 1.984,1.192 0 0 1 1.9839999,1.192 z"
       class="J" />
    <path
       id="ellipse201"
       style="opacity:0.996;fill:url(#I);fill-rule:evenodd;"
       transform="rotate(-50.956)"
       d="m -8.864301,48.748745 a 1.984,1.192 0 0 1 -1.984,1.192 1.984,1.192 0 0 1 -1.984,-1.192 1.984,1.192 0 0 1 1.984,-1.192 1.984,1.192 0 0 1 1.984,1.192 z"
       class="J" />
    <path
       id="ellipse203"
       style="opacity:0.996;fill:url(#K);fill-rule:evenodd;"
       transform="rotate(-50.956)"
       d="m -4.9203007,45.54974 a 1.984,1.192 0 0 1 -1.984,1.192 1.984,1.192 0 0 1 -1.984,-1.192 1.984,1.192 0 0 1 1.984,-1.192 1.984,1.192 0 0 1 1.984,1.192 z"
       class="J" />
    <path
       id="ellipse205"
       style="opacity:0.996;fill:url(#F);fill-rule:evenodd;"
       transform="rotate(-50.956)"
       d="m -12.946302,52.058743 a 1.984,1.192 0 0 1 -1.984,1.192 1.984,1.192 0 0 1 -1.984,-1.192 1.984,1.192 0 0 1 1.984,-1.192001 1.984,1.192 0 0 1 1.984,1.192001 z"
       class="J" />
    <path
       id="ellipse209"
       style="opacity:0.996;fill:url(#L);fill-rule:evenodd;"
       d="m 32.72,29.699997 a 1.692,0.78299999 0 0 1 -1.692,0.783 1.692,0.78299999 0 0 1 -1.692,-0.783 1.692,0.78299999 0 0 1 1.692,-0.783 1.692,0.78299999 0 0 1 1.692,0.783 z"
       class="J" />
    <path
       id="ellipse211"
       style="opacity:0.996;fill:url(#M);fill-rule:evenodd;"
       d="m 32.441,28.248001 a 1.413,0.787 0 0 1 -1.413,0.787 1.413,0.787 0 0 1 -1.413,-0.787 1.413,0.787 0 0 1 1.413,-0.787 1.413,0.787 0 0 1 1.413,0.787 z"
       class="J" />
    <path
       d="m 31.028,16.304 c -0.888,4.142 -3.84,8.838 0,11.192 3.84,-2.354 0.888,-7.05 0,-11.192 z"
       fill="url(#N)"
       id="path215"
       style="fill:url(#N);" />
    <path
       d="m 31.028,45.794 c -0.735,0 -1.4,0.192 -1.806,1.024 h 1.806 1.807 c -0.406,-0.833 -1.071,-1.024 -1.807,-1.024 z"
       fill="url(#O)"
       class="J"
       id="path193"
       style="fill:url(#O);" />
  </g>
  <g
     id="g1700">
    <g
       fill="none"
       stroke="#000000"
       class="B"
       id="g99"
       transform="translate(-73.972,-65.126)">
      <path
         d="M 90.261,119.488 H 105 m -17.105,-5.434 h 34.211 m -33.71,2.363 h 33.208 M 90.1,119.488 h 29.8"
         id="path93" />
      <path
         d="m 92.521,111.975 -4.851,7.512 m 8.72,-7.512 -5.847,10.48 m 11.225,-10.48 -6.448,12.285 m 22.159,-12.284 4.851,7.512"
         id="path95" />
      <path
         d="m 113.611,111.975 5.847,10.48 m -11.226,-10.48 6.448,12.284 M 88.303,116.417 H 105"
         id="path97" />
    </g>
    <path
       d="m 30.315,66.558 -4.409,-4.472 10.296,-0.05 m 0,0 -4.409,4.472 -1.477,0.05"
       stroke="#000000"
       stroke-width="0.408"
       class="G"
       id="path101" />
    <g
       class="B"
       id="g113"
       transform="translate(-73.972,-65.126)">
      <path
         d="m 97.404,122.156 c -0.943,0.063 -1.728,0.953 -2.586,1.462 1.695,-0.865 3.361,2.352 5.008,3.543 h 5.174 5.173 c 1.648,-1.191 3.313,-4.408 5.008,-3.543 -1.144,-0.679 -2.157,-2.035 -3.591,-1.205 l -2.41,1.846 H 105 100.819 l -2.41,-1.846 c -0.358,-0.207 -0.691,-0.278 -1.005,-0.257 z"
         fill="#ff0000"
         stroke="#af0000"
         id="path103" />
      <g
         stroke="#000000"
         id="g111">
        <path
           d="m 104.666,111.975 -3.708,12.285 h 4.042 4.043 l -3.708,-12.285 h -0.334 z"
           class="G"
           id="path105" />
        <path
           d="m 104.038,114.054 h 1.923"
           fill="none"
           id="path107" />
        <path
           d="m 103.461,115.965 h 3.077 l 0.51,1.688 h -4.096 z m -1.063,3.523 h 5.204 l 0.716,2.371 h -6.635 z"
           fill="#ff0000"
           id="path109" />
      </g>
    </g>
    <g
       id="g1591">
      <path
         d="m 14.769,58.253 -1.308,5.521 1.493,-1.129 c 3.83,5.048 9.783,8.519 16.076,8.518 6.293,-10e-4 12.243,-3.471 16.072,-8.518 l 1.493,1.129 -1.308,-5.521 -5.62,0.283 -0.001,-0.001 c -1.392,1.833 -3.055,3.3 -4.868,4.294 -1.823,0.999 -3.795,1.52 -5.768,1.52 -1.973,0 -3.944,-0.519 -5.768,-1.518 -1.814,-0.994 -3.48,-2.463 -4.873,-4.296 l -10e-4,0.001 z"
         class="E H"
         id="path115" />
      <path
         d="m 13.423,49.866 -1.437,2.94 -3.642,-1.516 5.107,8.605 0.628,-2.649 4.184,0.211 z m 35.21,0 1.437,2.94 3.642,-1.516 -5.107,8.605 -0.628,-2.649 -4.184,0.211 z"
         id="path117" />
    </g>
    <path
       d="m 18.942,60.905 -0.734,-0.777 0.398,-0.376 1.886,1.996 -0.398,0.376 -0.732,-0.775 -2.079,1.964 -0.421,-0.445 z m 1.952,1.177 0.875,0.67 q 0.257,0.196 0.396,0.455 0.143,0.258 0.13,0.537 -0.011,0.277 -0.199,0.522 -0.127,0.167 -0.303,0.257 -0.174,0.089 -0.372,0.098 -0.196,0.011 -0.393,-0.054 l -0.169,1.781 -0.557,-0.426 0.218,-1.667 -0.157,-0.12 -0.169,-0.129 -0.885,1.157 -0.487,-0.372 z m 0.037,1.856 q 0.199,0.14 0.38,0.13 0.181,-0.01 0.298,-0.164 0.129,-0.169 0.083,-0.362 -0.045,-0.195 -0.252,-0.354 l -0.389,-0.297 -0.549,0.718 z m 1.915,3.568 q -0.591,-0.302 -0.711,-0.77 -0.118,-0.469 0.179,-1.049 l 0.946,-1.851 0.543,0.278 -0.914,1.789 q -0.133,0.26 -0.164,0.453 -0.028,0.192 0.061,0.348 0.091,0.155 0.33,0.277 0.238,0.122 0.418,0.105 0.179,-0.017 0.317,-0.155 0.138,-0.138 0.271,-0.398 l 0.914,-1.789 0.545,0.279 -0.935,1.829 q -0.304,0.595 -0.756,0.775 -0.45,0.181 -1.043,-0.121 z m 5.891,-1.55 -0.886,3.29 -0.591,-0.159 -0.756,-2.683 -0.623,2.312 -0.568,-0.153 0.886,-3.29 0.587,0.158 0.764,2.673 0.619,-2.301 z m 1.961,3.594 q -0.54,-0.011 -0.907,-0.254 -0.364,-0.246 -0.539,-0.648 -0.173,-0.401 -0.163,-0.884 0.01,-0.482 0.198,-0.876 0.191,-0.394 0.565,-0.623 0.376,-0.231 0.916,-0.221 0.54,0.011 0.904,0.257 0.367,0.244 0.54,0.645 0.175,0.401 0.166,0.884 -0.01,0.482 -0.201,0.876 -0.189,0.394 -0.565,0.626 -0.374,0.229 -0.914,0.218 z m 0.011,-0.542 q 0.35,0.007 0.575,-0.15 0.228,-0.159 0.334,-0.43 0.107,-0.27 0.113,-0.61 0.007,-0.34 -0.089,-0.612 -0.096,-0.274 -0.317,-0.44 -0.219,-0.168 -0.568,-0.175 -0.35,-0.007 -0.577,0.153 -0.225,0.157 -0.332,0.428 -0.107,0.268 -0.113,0.608 -0.007,0.34 0.089,0.614 0.096,0.274 0.314,0.443 0.221,0.166 0.571,0.173 z m 3.62,0.216 Q 33.998,69.293 33.721,69.2 33.445,69.105 33.252,68.886 33.061,68.667 32.978,68.372 l 0.576,-0.191 q 0.074,0.263 0.241,0.403 0.167,0.138 0.419,0.085 0.21,-0.044 0.307,-0.145 0.099,-0.104 0.111,-0.26 0.014,-0.158 -0.035,-0.392 l -0.331,-1.591 -1.256,0.261 -0.114,-0.55 1.856,-0.386 0.443,2.132 q 0.119,0.571 -0.085,0.968 -0.201,0.396 -0.782,0.517 z m 3.758,-1.185 q -0.497,0.212 -0.931,0.141 -0.433,-0.075 -0.758,-0.369 -0.323,-0.295 -0.512,-0.738 -0.189,-0.444 -0.179,-0.881 0.012,-0.438 0.259,-0.8 0.248,-0.365 0.745,-0.578 0.497,-0.212 0.93,-0.138 0.434,0.071 0.757,0.366 0.325,0.294 0.514,0.738 0.189,0.444 0.177,0.881 -0.01,0.437 -0.258,0.802 -0.246,0.362 -0.743,0.574 z M 37.874,67.54 q 0.322,-0.137 0.462,-0.373 0.142,-0.239 0.128,-0.529 -0.014,-0.29 -0.147,-0.603 -0.134,-0.313 -0.333,-0.521 -0.2,-0.211 -0.47,-0.271 -0.268,-0.064 -0.59,0.074 -0.322,0.137 -0.463,0.376 -0.141,0.236 -0.127,0.526 0.013,0.288 0.146,0.601 0.134,0.313 0.334,0.524 0.2,0.211 0.469,0.274 0.27,0.06 0.591,-0.077 z m 2.488,-2.293 -2.218,-1.017 0.615,-0.412 1.534,0.767 -0.117,-1.715 0.619,-0.414 0.097,2.436 0.739,1.104 -0.531,0.355 z m 3.958,-1.414 q -0.388,0.376 -0.82,0.464 -0.431,0.085 -0.84,-0.074 -0.407,-0.16 -0.742,-0.507 -0.335,-0.347 -0.482,-0.758 -0.145,-0.413 -0.044,-0.84 0.101,-0.43 0.489,-0.805 0.388,-0.376 0.819,-0.461 0.431,-0.088 0.838,0.072 0.408,0.159 0.744,0.505 0.335,0.347 0.48,0.76 0.147,0.412 0.046,0.842 -0.101,0.426 -0.489,0.802 z m -0.377,-0.39 q 0.251,-0.243 0.298,-0.514 0.047,-0.274 -0.07,-0.54 -0.117,-0.266 -0.353,-0.511 -0.236,-0.244 -0.497,-0.368 -0.262,-0.125 -0.536,-0.086 -0.273,0.036 -0.525,0.28 -0.251,0.243 -0.299,0.517 -0.047,0.27 0.07,0.537 0.115,0.265 0.351,0.509 0.236,0.244 0.499,0.37 0.262,0.125 0.536,0.089 0.274,-0.04 0.525,-0.283 z"
       class="G"
       id="path119" />
    <path
       d="M 15.162,46.85 H 46.893"
       fill="none"
       class="P Q"
       id="path121" />
  </g>
</svg>
