<?xml version="1.0" encoding="UTF-8"?>
<!DOCTYPE svg PUBLIC "-//W3C//DTD SVG 1.1//EN" "http://www.w3.org/Graphics/SVG/1.1/DTD/svg11.dtd">
<!-- Creator: CorelDRAW 2021.5 -->
<svg xmlns="http://www.w3.org/2000/svg" xml:space="preserve" width="20.2853cm" height="23.5248cm" version="1.1" style="shape-rendering:geometricPrecision; text-rendering:geometricPrecision; image-rendering:optimizeQuality; fill-rule:evenodd; clip-rule:evenodd"
viewBox="0 0 20285.24 23524.76"
 xmlns:xlink="http://www.w3.org/1999/xlink"
 xmlns:xodm="http://www.corel.com/coreldraw/odm/2003">
 <defs>
  <style type="text/css">
   <![CDATA[
    .str3 {stroke:#1D1819;stroke-width:101.62;stroke-miterlimit:22.9256}
    .str2 {stroke:#1D1819;stroke-width:101.62;stroke-miterlimit:22.9256}
    .str1 {stroke:#1D1819;stroke-width:101.62;stroke-miterlimit:22.9256}
    .str0 {stroke:#1D1819;stroke-width:101.62;stroke-miterlimit:22.9256}
    .str10 {stroke:#1D1819;stroke-width:101.62;stroke-miterlimit:22.9256}
    .str11 {stroke:#1D1819;stroke-width:101.62;stroke-miterlimit:22.9256}
    .str13 {stroke:#1D1819;stroke-width:101.63;stroke-miterlimit:22.9256}
    .str12 {stroke:#1D1819;stroke-width:101.63;stroke-miterlimit:22.9256}
    .str8 {stroke:#1D1819;stroke-width:101.63;stroke-miterlimit:22.9256}
    .str9 {stroke:#1D1819;stroke-width:101.63;stroke-miterlimit:22.9256}
    .str6 {stroke:#1D1819;stroke-width:101.63;stroke-miterlimit:22.9256}
    .str7 {stroke:#1D1819;stroke-width:101.63;stroke-miterlimit:22.9256}
    .str5 {stroke:#1D1819;stroke-width:101.63;stroke-miterlimit:22.9256}
    .str4 {stroke:#1D1819;stroke-width:101.63;stroke-miterlimit:22.9256}
    .fil7 {fill:none}
    .fil3 {fill:#FEFEFE}
    .fil5 {fill:#FFF000}
    .fil9 {fill:#009B4C}
    .fil0 {fill:#1D1819}
    .fil2 {fill:#00923F}
    .fil1 {fill:#FEF509}
    .fil4 {fill:#332C2B;fill-rule:nonzero}
    .fil6 {fill:#1D1819;fill-rule:nonzero}
    .fil8 {fill:#0692D9;fill-rule:nonzero}
   ]]>
  </style>
     <clipPath id="id0">
      <path d="M10142.63 7881.28l-2035.4 2035.4 4070.79 0 -2035.39 -2035.4z"/>
     </clipPath>
 </defs>
 <g id="Layer_x0020_1">
  <metadata id="CorelCorpID_0Corel-Layer"/>
  <g id="_2089958919488">
   <path class="fil0" d="M4000.13 0l6142.5 0 6142.49 0c674.63,1838.44 2148.44,3291.13 4000.13,3937.86l0 6925.56c0,1288.75 -108.44,2449.43 -427.95,3711.79 -1167.1,4610.47 -4176.58,7773.4 -9714.67,8949.56 -5538.1,-1176.16 -8547.58,-4339.09 -9714.67,-8949.56 -319.52,-1262.36 -427.96,-2423.04 -427.96,-3711.79l0 -6925.56c1851.69,-646.73 3325.5,-2099.42 4000.13,-3937.86z"/>
   <path class="fil1" d="M10142.63 23131.94c4876,-1057.34 8106.44,-3768.71 9342.32,-8650.99 306.11,-1209.38 416.23,-2373 416.23,-3617.54l0 -6658.67c-1754.08,-692.08 -3160.22,-2077.24 -3878.62,-3820.67l-11759.86 0c-718.4,1743.43 -2124.54,3128.59 -3878.62,3820.67l0 6658.67c0,1244.54 110.12,2408.16 416.21,3617.54 1235.9,4882.28 4466.34,7593.65 9342.35,8650.99z"/>
   <path class="fil1" d="M10142.63 22246.7c4447.75,-1013.07 7364.64,-3474.52 8504.58,-7977.8 283.64,-1120.66 389.8,-2251.59 389.8,-3405.49l0 -6095.32c-1540.55,-749.24 -2798.46,-1989.79 -3568.96,-3519.85l-10650.84 0c-770.5,1530.06 -2028.4,2770.61 -3568.95,3519.85l0 6095.32c0,1153.9 106.16,2284.82 389.78,3405.47 1139.95,4503.3 4056.82,6964.75 8504.6,7977.82z"/>
   <path class="fil0" d="M10142.63 22443.6c4528.26,-1019.88 7526.14,-3526.9 8690.74,-8127.57 289.04,-1141.96 395.67,-2276.94 395.67,-3452.62l0 -6216.52c-1587.61,-741.4 -2877.92,-2013.56 -3641.65,-3590.69l-10889.51 0c-763.74,1577.13 -2054.04,2849.29 -3641.66,3590.69l0 6216.52c0,1175.68 106.64,2310.66 395.65,3452.6 1164.62,4600.69 4162.49,7107.71 8690.77,8127.59z"/>
   <path class="fil2" d="M10142.63 22246.7c4447.75,-1013.07 7364.64,-3474.52 8504.58,-7977.8 283.64,-1120.66 389.8,-2251.59 389.8,-3405.49l0 -6095.32c-1540.55,-749.24 -2798.46,-1989.79 -3568.96,-3519.85l-10650.84 0c-770.5,1530.06 -2028.4,2770.61 -3568.95,3519.85l0 6095.32c0,1153.9 106.16,2284.82 389.78,3405.47 1139.95,4503.3 4056.82,6964.75 8504.6,7977.82z"/>
   <g>
    <polygon class="fil3" points="4941.33,4202.18 15343.93,4202.18 15343.93,5274.91 4941.33,5274.91 "/>
    <path class="fil4" d="M4941.33 4134.43l10402.6 0 67.75 0 0 67.75 0 1072.72 0 67.75 -67.75 0 -10402.6 0 -67.75 0 0 -67.75 0 -1072.72 0 -67.75 67.75 0zm10334.85 135.5l-10267.1 0 0 937.22 10267.1 0 0 -937.22z"/>
    <polygon class="fil3" points="5703.53,4202.18 14581.73,4202.18 14581.73,5274.91 5703.53,5274.91 "/>
    <path class="fil4" d="M5703.53 4134.43l8878.21 0 67.75 0 0 67.75 0 1072.72 0 67.75 -67.75 0 -8878.21 0 -67.75 0 0 -67.75 0 -1072.72 0 -67.75 67.75 0zm8810.46 135.5l-8742.71 0 0 937.22 8742.71 0 0 -937.22z"/>
    <polygon class="fil3" points="6493.97,4202.18 13791.3,4202.18 13791.3,5274.91 6493.97,5274.91 "/>
    <path class="fil4" d="M6493.96 4134.43l7297.35 0 67.75 0 0 67.75 0 1072.72 0 67.75 -67.75 0 -7297.35 0 -67.75 0 0 -67.75 0 -1072.72 0 -67.75 67.75 0zm7229.6 135.5l-7161.85 0 0 937.22 7161.85 0 0 -937.22z"/>
   </g>
   <g>
    <polygon class="fil0" points="10142.63,2070.86 10571.75,3376.68 11870.63,3402.15 10832.05,4238.45 11210.59,5556.24 10139.58,4767.27 9074.65,5556.24 9451.31,4232.33 8414.61,3402.15 9718.4,3372.9 "/>
    <polygon class="fil5" points="10142.98,2363.78 9783.38,3467.48 8677.44,3492.29 9556.22,4196.01 9236.72,5319.03 10139.44,4650.24 11047.92,5319.49 10727.05,4202.45 11608.04,3493.04 10507.01,3471.45 "/>
   </g>
   <path class="fil3" d="M1152.67 10886.5l4482 0 4478.82 -4478.83 4478.83 4478.83 4540.26 0c-0.17,142.89 -1.96,285.42 -5.55,427.63l-4557.18 0 -4456.36 4456.36 -4456.36 -4456.36 -4498.91 0c-3.59,-142.21 -5.38,-284.74 -5.55,-427.63z"/>
   <path class="fil6" d="M1152.69 10818.75l4453.96 0 4458.97 -4458.98 47.89 -47.89 47.9 47.89 4458.97 4458.98 4512.22 0 67.54 0 -0.06 67.75c-0.07,71.99 -0.59,143.66 -1.49,214.87 -0.92,72.34 -2.29,143.87 -4.06,214.35l-1.67 66.16 -65.81 0 -4529.14 0 -4436.5 4436.5 -47.9 47.9 -47.89 -47.9 -4436.5 -4436.5 -4470.88 0 -65.83 0 -1.65 -66.16c-1.77,-70.48 -3.13,-142.01 -4.06,-214.35 -0.9,-71.21 -1.42,-142.88 -1.49,-214.87l-0.08 -67.75 67.56 0zm4482 135.5l-4392.97 0c0.23,48.41 0.67,96.94 1.3,145.54 0.62,48.49 1.46,97.37 2.52,146.59l4411.61 0 28.04 0 19.86 19.85 4408.46 4408.47 4408.47 -4408.47 19.86 -19.85 28.03 0 4464.39 0c1.06,-49.22 1.9,-98.1 2.52,-146.59 0.63,-48.6 1.07,-97.13 1.3,-145.54l-4445.74 0 -28.06 0 -19.83 -19.86 -4430.94 -4430.93 -4430.93 4430.93 -19.86 19.86 -28.03 0z"/>
   <polygon class="fil5" points="10142.63,7082.85 14148.86,11089.08 10142.63,15095.32 6136.38,11089.08 "/>
   <path class="fil6" d="M10190.51 7034.95l4006.24 4006.24 47.9 47.9 -47.9 47.89 -4006.24 4006.24 -47.89 47.9 -47.9 -47.9 -4006.24 -4006.24 -47.89 -47.89 47.89 -47.9 4006.24 -4006.24 47.9 -47.89 47.89 47.89zm3862.56 4054.14l-3910.45 -3910.46 -3910.46 3910.46 3910.46 3910.45 3910.45 -3910.45z"/>
   <g>
    <polygon class="fil0" points="10142.63,7473.91 12873.44,10204.72 7411.81,10204.72 "/>
    <polygon class="fil3" points="10142.63,7881.28 8107.23,9916.68 12178.01,9916.68 "/>
    <g style="clip-path:url(#id0)">
     <g>
      <g>
       <polygon id="_1" class="fil6" points="11667.74,7565.02 11667.74,10232.95 11566.12,10232.95 11566.12,7565.02 "/>
       <polygon class="fil6" points="11299.17,7565.02 11299.17,10232.95 11197.54,10232.95 11197.54,7565.02 "/>
       <polygon class="fil6" points="10930.59,7565.02 10930.59,10232.95 10828.96,10232.95 10828.96,7565.02 "/>
       <polygon class="fil6" points="10562.01,7565.02 10562.01,10232.95 10460.38,10232.95 10460.38,7565.02 "/>
       <polygon class="fil6" points="10193.43,7565.02 10193.43,10232.95 10091.81,10232.95 10091.81,7565.02 "/>
       <polygon class="fil6" points="9824.86,7565.02 9824.86,10232.95 9723.23,10232.95 9723.23,7565.02 "/>
       <polygon class="fil6" points="9456.28,7565.02 9456.28,10232.95 9354.66,10232.95 9354.66,7565.02 "/>
       <polygon class="fil6" points="9087.7,7565.02 9087.7,10232.95 8986.08,10232.95 8986.08,7565.02 "/>
       <polygon class="fil6" points="8719.12,7565.02 8719.12,10232.95 8617.5,10232.95 8617.5,7565.02 "/>
      </g>
     </g>
    </g>
    <polygon class="fil7" points="10142.63,7881.28 8107.23,9916.68 12178.01,9916.68 "/>
    <polygon class="fil3" points="8003.01,10204.72 10142.63,10204.72 12282.23,10204.72 11774.76,12175.42 10142.63,12175.42 8510.49,12175.42 "/>
    <path class="fil6" d="M8003.01 10136.98l2139.64 0 2139.59 0 87.09 0 -21.72 84.42 -507.46 1970.7 -13.16 51.08 -52.21 0 -1632.13 0 -1632.17 0 -52.22 0 -13.15 -51.08 -507.47 -1970.7 -21.71 -84.42 87.08 0zm2139.64 135.5l-2052.53 0 472.57 1835.2 1579.96 0 1579.91 0 472.57 -1835.2 -2052.48 0z"/>
    <g>
     <polygon class="fil3" points="9728.5,10503.11 10142.62,10503.11 10142.62,11845.76 9728.5,11845.76 "/>
     <path class="fil6" d="M9728.5 10452.3l414.15 0 50.81 0 0 50.81 0 1342.66 0 50.81 -50.81 0 -414.15 0 -50.82 0 0 -50.81 0 -1342.66 0 -50.81 50.82 0zm363.33 101.62l-312.52 0 0 1241.03 312.52 0 0 -1241.03z"/>
     <polygon class="fil3" points="10556.75,10503.11 10142.63,10503.11 10142.63,11845.76 10556.75,11845.76 "/>
     <path class="fil6" d="M10505.93 10553.92l-312.48 0 0 1241.03 312.48 0 0 -1241.03zm-363.29 -101.62l414.11 0 50.81 0 0 50.81 0 1342.66 0 50.81 -50.81 0 -414.11 0 -50.82 0 0 -50.81 0 -1342.66 0 -50.81 50.82 0z"/>
    </g>
    <g>
     <g>
      <polygon class="fil3" points="8575.48,10503.11 8989.61,10503.11 8989.61,11252.9 8575.48,11252.9 "/>
      <path class="fil6" d="M8575.48 10452.3l414.15 0 50.81 0 0 50.81 0 749.8 0 50.81 -50.81 0 -414.15 0 -50.81 0 0 -50.81 0 -749.8 0 -50.81 50.81 0zm363.34 101.62l-312.53 0 0 648.17 312.53 0 0 -648.17z"/>
      <polygon class="fil3" points="9403.74,10503.11 8989.61,10503.11 8989.61,11252.9 9403.74,11252.9 "/>
      <path class="fil6" d="M9352.93 10553.92l-312.49 0 0 648.17 312.49 0 0 -648.17zm-363.3 -101.62l414.11 0 50.81 0 0 50.81 0 749.8 0 50.81 -50.81 0 -414.11 0 -50.81 0 0 -50.81 0 -749.8 0 -50.81 50.81 0z"/>
     </g>
     <g>
      <polygon class="fil3" points="10881.5,10503.11 11295.63,10503.11 11295.63,11252.9 10881.5,11252.9 "/>
      <path class="fil6" d="M10881.5 10452.3l414.15 0 50.81 0 0 50.81 0 749.8 0 50.81 -50.81 0 -414.15 0 -50.81 0 0 -50.81 0 -749.8 0 -50.81 50.81 0zm363.34 101.62l-312.52 0 0 648.17 312.52 0 0 -648.17z"/>
      <polygon class="fil3" points="11709.76,10503.11 11295.63,10503.11 11295.63,11252.9 11709.76,11252.9 "/>
      <path class="fil6" d="M11658.95 10553.92l-312.49 0 0 648.17 312.49 0 0 -648.17zm-363.3 -101.62l414.11 0 50.82 0 0 50.81 0 749.8 0 50.81 -50.82 0 -414.11 0 -50.81 0 0 -50.81 0 -749.8 0 -50.81 50.81 0z"/>
     </g>
    </g>
    <path class="fil6" d="M9644.17 12175.42l0 1187.04 -135.5 0 0 -1187.04 135.5 0zm996.91 0l0 1187.04 135.5 0 0 -1187.04 -135.5 0zm702.4 0l0 1187.04 135.5 0 0 -1187.04 -135.5 0zm-376.09 0l0 1187.04 135.5 0 0 -1187.04 -135.5 0zm-2025.62 0l0 1187.04 -135.5 0 0 -1187.04 135.5 0zm376.09 0l0 1187.04 -135.5 0 0 -1187.04 135.5 0z"/>
    <polygon class="fil6" points="9936.82,12175.42 9936.82,13936.56 9801.32,13936.56 9801.32,12175.42 "/>
    <polygon class="fil6" points="10421.82,12175.42 10421.82,13936.56 10286.32,13936.56 10286.32,12175.42 "/>
    <polygon class="fil6" points="10371.6,12565.29 9883.01,12565.29 9883.01,12429.79 10371.6,12429.79 "/>
    <polygon class="fil6" points="10371.6,12836.68 9883.01,12836.68 9883.01,12701.18 10371.6,12701.18 "/>
    <polygon class="fil6" points="10371.6,13108.07 9883.01,13108.07 9883.01,12972.57 10371.6,12972.57 "/>
    <polygon class="fil6" points="10371.6,13379.46 9883.01,13379.46 9883.01,13243.96 10371.6,13243.96 "/>
    <polygon class="fil6" points="10371.6,13650.85 9883.01,13650.85 9883.01,13515.34 10371.6,13515.34 "/>
   </g>
   <g>
    <path class="fil0" d="M16693.71 14954.82c-14.14,12.41 -28.56,24.45 -43.33,36.05 -136.48,107.25 -300.36,179.36 -476.31,176.67 -179.36,-2.7 -335.68,-80.84 -455.42,-212.77 -4.03,-4.46 -8.02,-8.95 -11.96,-13.48 -58.76,-39.62 -133.56,-84.06 -203.44,-91.22 -83.43,-8.55 -165.73,41.15 -229.07,90.89 -135.75,142.15 -300.65,226.18 -500.47,208.94 -164.9,-14.23 -312.98,-97.81 -443.09,-195.17l-6.95 -5.21 -46.07 -49.64 -4.88 -7.87c-0.54,-0.85 -1.11,-1.77 -1.73,-2.69l-3.53 -4.01c-21.16,-24.01 -57.19,-36.55 -88.09,-40.33 -62.64,-7.66 -125.67,15.17 -178.17,47.82 -23.87,14.86 -45.99,31.89 -66.45,49.91 -132.08,120.6 -290.41,221.51 -473.39,233.51 -203.33,13.35 -370.09,-84.15 -502.77,-230.88 -37.39,-25.2 -116.17,-77.7 -151.35,-80.99l-2.03 -0.09c-49.3,-2.69 -155.44,61.7 -201.78,90.58 -313.25,276.38 -646.03,321.84 -929.02,-14.34 -55.04,-37.43 -128.96,-83.58 -193.54,-90.47 -77.52,-8.3 -159.62,44.71 -218.27,90.91 -135.77,142.17 -300.65,226.2 -500.49,208.96 -164.9,-14.23 -312.98,-97.81 -443.09,-195.17l-6.95 -5.21 -46.07 -49.64 -4.88 -7.87c-0.53,-0.85 -1.11,-1.77 -1.73,-2.69l-3.53 -4.01c-21.16,-24.01 -57.19,-36.55 -88.09,-40.33 -62.62,-7.66 -125.69,15.17 -178.17,47.82 -23.87,14.86 -45.99,31.87 -66.44,49.91 -132.09,120.6 -290.42,221.51 -473.4,233.51 -203.33,13.35 -370.09,-84.15 -502.77,-230.88 -37.39,-25.2 -116.13,-77.7 -151.35,-80.99l-2.05 -0.09c-49.61,-2.71 -156.76,62.47 -203.33,91.56 -12.79,11.29 -25.81,22.39 -39.22,32.9 -139.69,109.83 -308.76,181.32 -488.45,178.86 -182.28,-2.53 -344.42,-79.6 -466.86,-214.5 -3.51,-3.86 -6.97,-7.76 -10.41,-11.7 -58.78,-39.64 -133.64,-84.15 -203.58,-91.31 -83.42,-8.55 -165.73,41.15 -229.06,90.89 -135.75,142.13 -300.68,226.18 -500.47,208.94 -164.9,-14.23 -312.99,-97.81 -443.09,-195.17l-6.95 -5.21 -46.07 -49.64 -4.88 -7.87c-0.54,-0.85 -1.11,-1.77 -1.73,-2.69l-3.53 -4.01c-21.17,-24.01 -57.19,-36.55 -88.09,-40.33 -62.62,-7.66 -125.69,15.17 -178.17,47.82 -23.87,14.86 -46,31.87 -66.43,49.91 -132.08,120.62 -290.44,221.51 -473.43,233.51 -203.33,13.35 -370.08,-84.13 -502.76,-230.88 -37.39,-25.2 -116.14,-77.7 -151.34,-80.99l-2.04 -0.09c-49.29,-2.69 -155.43,61.7 -201.77,90.58 -322.05,284.14 -660.15,320.59 -944.14,-32.76 -56.34,-56.71 -148.75,-136.73 -234.73,-125.69 -80.21,10.3 -177.27,89.22 -238.09,141.59 -139.43,146.91 -311.81,228.49 -516.25,211.97 -169.32,-13.71 -325.12,-94.96 -459.13,-195.2l-6.95 -5.21 -46.09 -49.66 -4.87 -7.87c-0.54,-0.85 -1.12,-1.77 -1.73,-2.69l-3.54 -4.01c-21.16,-24.01 -57.19,-36.55 -88.08,-40.33 -45.92,-5.63 -92.05,5.16 -134.09,24.18 -44.18,-146.72 -86.14,-295.97 -126.28,-447.34 100.84,-35.41 208.05,-49.58 316.48,-36.31 144.03,17.61 282.72,84.4 379.25,193.88l25.76 29.21c53.77,36.74 122.71,74.89 185.91,80 61.47,4.98 110.65,-31.19 150.33,-74.55l1.4 -1.53 15.02 -15.04 2.59 -2.25c142.11,-123.32 298.91,-232.59 490.04,-257.12 253.24,-32.55 462.81,94.87 633.34,270.72l1.23 1.29 12.87 14.28 1.98 2.52c95.31,121.25 193.57,61.3 292.14,-28.17l3.33 -3.02 25.71 -19.28 3.23 -2.03c146.75,-92.78 311.33,-181.67 490.54,-171.84 160.12,8.99 281.8,88.3 411.06,175.5l5.66 3.83 37.31 33.74 4.15 4.89c30.77,36.36 89.61,97.64 143.05,94.14 63.43,-4.17 145.53,-72.01 190.89,-113.49l2.76 -2.81 2.42 -2.13c40.27,-35.51 83.33,-67.85 128.92,-96.23 143.53,-89.24 309.62,-135.19 478.65,-114.51 144.03,17.61 282.72,84.4 379.26,193.88l26.31 29.82c49.14,34.21 116.2,74.57 172.45,79.45 52.98,4.55 101.18,-38.47 134.23,-74.61l2.06 -2.23 19.41 -18.7 3.19 -2.59c167.29,-135.72 358.82,-222.86 578,-200.36 168.41,17.31 310.64,94.89 447.02,190.47l5.38 3.76 39.45 36.55 4.64 5.93c4.05,5.15 8.22,10.24 12.62,15.08 34.57,38.08 78.18,62.95 130.41,63.66 70.98,0.98 142.46,-38.01 196.71,-80.66 10.71,-8.43 21.54,-17.09 31.66,-26.25l2.83 -2.57 25.08 -19.34 3.78 -2.38c146.76,-92.78 311.33,-181.67 490.54,-171.84 160.12,8.99 281.8,88.3 411.06,175.5l5.67 3.83 37.31 33.74 4.15 4.89c30.76,36.36 89.62,97.64 143.05,94.14 63.43,-4.17 145.52,-72.01 190.88,-113.49l2.77 -2.81 2.42 -2.13c40.27,-35.51 83.32,-67.85 128.91,-96.23 143.53,-89.24 309.62,-135.19 478.66,-114.51 144.03,17.61 282.72,84.4 379.25,193.88l26.31 29.82c49.14,34.21 116.2,74.57 172.45,79.45 52.99,4.55 101.19,-38.47 134.24,-74.61l2.05 -2.23 19.42 -18.7 3.18 -2.59c164.58,-133.53 352.72,-223.44 569.09,-200.32 165.77,17.75 302.21,96.48 436.27,190.43l5.38 3.76 39.46 36.57 4.67 5.95c95.33,121.27 193.56,61.3 292.15,-28.17l3.32 -3.02 25.71 -19.28 3.23 -2.03c146.76,-92.78 311.33,-181.67 490.54,-171.84 160.12,8.99 281.8,88.3 411.06,175.5l5.66 3.83 37.32 33.74 4.15 4.89c30.76,36.36 89.62,97.64 143.05,94.14 63.43,-4.17 145.52,-72.01 190.88,-113.49l2.77 -2.81 2.42 -2.13c40.27,-35.51 83.32,-67.85 128.91,-96.23 143.53,-89.24 309.62,-135.19 478.66,-114.51 144.02,17.61 282.71,84.4 379.25,193.88l26.31 29.82c49.14,34.21 116.2,74.57 172.45,79.45 52.99,4.55 101.19,-38.47 134.24,-74.61l2.05 -2.23 19.42 -18.7 3.18 -2.59c167.29,-135.72 358.83,-222.86 578,-200.36 168.4,17.31 310.62,94.89 447.03,190.47l5.37 3.76 39.51 36.6 4.68 6.01c4.5,5.71 9.12,11.32 13.96,16.67 31.38,34.55 71.25,61.21 119.24,61.94 65.66,0.99 134.43,-39.35 184.3,-78.53 11.5,-9.06 22.74,-18.47 33.57,-28.32l3.34 -3.02 25.71 -19.3 3.23 -2.03c146.75,-92.78 311.33,-181.67 490.54,-171.84 160.12,8.99 281.8,88.3 411.06,175.5l5.66 3.83 37.32 33.74 4.14 4.89c30.77,36.36 89.63,97.64 143.05,94.14 63.43,-4.17 145.53,-72.01 190.89,-113.49l2.76 -2.81 2.42 -2.13c40.27,-35.51 83.33,-67.85 128.92,-96.23 143.53,-89.24 309.62,-135.19 478.65,-114.51 94.35,11.54 186.45,44.19 265.86,96.11 -45.11,167.42 -93.06,331.61 -143.22,493.27 -9.26,-6.64 -18.42,-13.36 -27.5,-20.16l-6.95 -5.21 -46.07 -49.64 -4.88 -7.87c-0.54,-0.85 -1.11,-1.77 -1.73,-2.69l-3.53 -4.01c-21.16,-24.01 -57.19,-36.55 -88.09,-40.33 -62.64,-7.66 -125.67,15.17 -178.17,47.82 -23.87,14.86 -46,31.89 -66.45,49.91 -132.08,120.6 -290.42,221.51 -473.39,233.51 -203.33,13.35 -370.1,-84.15 -502.78,-230.88 -37.39,-25.2 -116.16,-77.7 -151.34,-80.99l-2.04 -0.09c-49.31,-2.69 -155.47,61.72 -201.75,90.56z"/>
    <path class="fil8" d="M1702.84 14514.79c98.11,-35.68 193.42,-44.55 279.95,-33.97 132.6,16.2 245.37,78.69 318.9,162.08l-0.31 0.27c9.43,10.67 18.07,21.41 25.91,32.1 83.56,59.82 169.28,102.49 250.34,109.04 75.53,6.11 153.07,-22.54 228.91,-105.44l11.1 -11.12c133.7,-116.03 273.83,-213.17 439.34,-234.41 172.34,-22.14 354.08,38.05 552.17,242.34l9.53 10.58c114.93,146.22 259.02,140.72 432.16,-16.4l19.05 -14.29c185.53,-117.3 310.51,-163.88 433.87,-157.12l0 0.03c127.15,7.11 224.13,65.7 362.72,159.2l27.52 24.89c80.41,95 154.02,132.41 222.63,127.92 76.8,-5.03 161.54,-57.73 251.19,-140.09l2.11 -2.14c38,-33.51 76.91,-62.29 116.13,-86.7 145.06,-90.2 290.03,-116.18 416.28,-100.74 132.6,16.2 245.36,78.69 318.89,162.08l-0.3 0.27c9.46,10.73 18.15,21.48 26,32.24 82.88,59.9 162.94,102.51 236.82,108.9 67.27,5.8 137.85,-22.89 213.36,-105.44l14.28 -13.77c185.78,-150.72 352.28,-195.36 507.69,-179.41 150.37,15.44 278.84,87.46 401.75,173.59l29.11 26.98c6.03,7.66 11.72,14.44 16.96,20.22 56.63,62.39 126.51,94.14 200.22,95.16 80.84,1.09 170.1,-32.61 257.35,-101.19 15.34,-12.06 27.59,-22.26 36.79,-30.59l18.53 -14.29c185.55,-117.3 310.51,-163.88 433.87,-157.12l0 0.03c127.15,7.11 224.13,65.7 362.73,159.2l27.52 24.89c80.4,95 154.03,132.41 222.63,127.92 76.79,-5.03 161.54,-57.73 251.18,-140.09l2.11 -2.14c38.01,-33.51 76.91,-62.29 116.13,-86.7 145.06,-90.2 290.03,-116.18 416.28,-100.74 132.6,16.2 245.37,78.69 318.9,162.08l-0.31 0.27c9.47,10.73 18.15,21.48 26,32.24 82.89,59.9 162.95,102.51 236.82,108.9 67.28,5.8 137.85,-22.89 213.36,-105.44l14.29 -13.77c186.04,-150.95 347.47,-195.54 498.37,-179.41 146.13,15.64 268.61,87.55 391.4,173.59l29.11 26.98c114.93,146.22 259,140.74 432.16,-16.4l19.05 -14.29c185.55,-117.3 310.51,-163.88 433.87,-157.12l0 0.03c127.15,7.11 224.15,65.72 362.73,159.2l27.51 24.89c80.41,95 154.04,132.41 222.63,127.92 76.8,-5.03 161.55,-57.73 251.19,-140.09l2.11 -2.14c38.01,-33.51 76.91,-62.29 116.13,-86.7 145.06,-90.2 290.03,-116.18 416.28,-100.74 132.6,16.2 245.37,78.69 318.9,162.08l-0.31 0.27c9.47,10.73 18.15,21.48 26,32.24 82.89,59.9 162.95,102.51 236.82,108.9 67.28,5.8 137.85,-22.89 213.36,-105.44l14.29 -13.77c185.77,-150.72 352.27,-195.36 507.69,-179.41 150.34,15.44 278.82,87.46 401.74,173.59l29.11 26.98c6.49,8.28 12.66,15.59 18.4,21.93 55.56,61.22 120.79,92.41 188.89,93.43 75.45,1.15 159.64,-31.9 245.08,-99.04 13.54,-10.64 26.5,-21.56 38.79,-32.72l19.05 -14.29c185.55,-117.3 310.51,-163.88 433.87,-157.12l0 0.03c127.15,7.11 224.15,65.72 362.72,159.2l27.52 24.89c80.41,95 154.04,132.41 222.63,127.92 76.8,-5.03 161.55,-57.73 251.19,-140.09l2.11 -2.14c38.01,-33.51 76.91,-62.29 116.13,-86.7 145.06,-90.2 290.03,-116.18 416.28,-100.74 96.38,11.79 182.28,48.03 250.26,98.95 -27.81,100.31 -56.28,199.88 -85.94,298.09l-33.87 -36.51c-4.72,-7.61 -9.53,-14.17 -14.27,-19.55l-0.54 0c-32.24,-36.56 -84.51,-64.31 -148.44,-72.13 -70.25,-8.58 -153.5,7.47 -240.57,61.61 -26.04,16.2 -52.85,36.18 -80.14,60.24l-0.09 -0.12c-132.53,121.22 -269.97,199.49 -415.17,209.02 -149.46,9.81 -294.37,-50.97 -432.85,-208 -93.06,-62.45 -156.88,-101.09 -211.25,-104.05l-0.53 0c-59.53,-3.24 -136.68,29.19 -264.59,109.24 -15.33,13.63 -30.36,26.23 -45.04,37.75 -135.13,106.2 -278.14,158.28 -415.53,156.18 -144.72,-2.18 -278.09,-62.66 -385.76,-181.3 -6.4,-7.05 -12.54,-14.09 -18.44,-21.12 -85.36,-58.46 -171.18,-105.64 -258.29,-114.57 -86.25,-8.84 -184.59,20.26 -303.82,115.37 -138.21,146.93 -281.21,196.92 -427.25,184.32 -136.96,-11.83 -266.95,-81.46 -393.81,-176.38l-33.88 -36.51c-4.72,-7.61 -9.52,-14.17 -14.27,-19.55l-0.54 0c-32.24,-36.56 -84.51,-64.31 -148.44,-72.13 -70.25,-8.58 -153.5,7.47 -240.57,61.61 -26.04,16.2 -52.85,36.18 -80.13,60.24l-0.1 -0.12c-132.53,121.22 -269.97,199.49 -415.17,209.02 -149.46,9.81 -294.37,-50.97 -432.85,-208 -93.06,-62.45 -156.88,-101.09 -211.24,-104.05l-0.54 0c-59.55,-3.24 -136.69,29.21 -264.71,109.31 -307.6,274.64 -576.3,271.68 -806.02,-8.85 -84.94,-58.44 -166.88,-105.54 -248.61,-114.28 -81,-8.66 -174.66,20.47 -293.49,115.39 -138.21,146.93 -281.19,196.9 -427.23,184.3 -136.96,-11.83 -266.95,-81.46 -393.81,-176.38l-33.88 -36.51c-4.72,-7.61 -9.52,-14.17 -14.27,-19.55l-0.53 0c-32.25,-36.56 -84.52,-64.31 -148.45,-72.13 -70.23,-8.58 -153.5,7.47 -240.57,61.61 -26.04,16.2 -52.83,36.16 -80.13,60.24l-0.1 -0.12c-132.53,121.22 -269.97,199.49 -415.17,209.02 -149.46,9.81 -294.37,-50.97 -432.85,-208 -93.04,-62.45 -156.86,-101.09 -211.24,-104.05l-0.54 0c-59.8,-3.26 -137.35,29.46 -266.3,110.31 -15.55,13.87 -29.19,25.43 -40.81,34.55 -136.81,107.54 -285.48,160.29 -427.8,158.33 -149.54,-2.07 -288.27,-63.12 -397.1,-183.03 -5.87,-6.47 -11.5,-12.92 -16.92,-19.35 -85.38,-58.48 -171.22,-105.7 -258.36,-114.63 -86.25,-8.84 -184.59,20.26 -303.83,115.37 -138.21,146.93 -281.22,196.92 -427.24,184.32 -136.97,-11.83 -266.96,-81.46 -393.82,-176.38l-33.87 -36.51c-4.73,-7.61 -9.53,-14.17 -14.27,-19.55l-0.54 0c-32.24,-36.56 -84.51,-64.31 -148.44,-72.13 -70.23,-8.58 -153.5,7.47 -240.57,61.61 -26.04,16.2 -52.83,36.16 -80.14,60.24l-0.09 -0.12c-132.51,121.22 -269.97,199.49 -415.17,209.02 -149.5,9.81 -294.38,-50.97 -432.85,-208 -93.05,-62.45 -156.86,-101.09 -211.25,-104.05l-0.53 0c-59.56,-3.24 -136.7,29.21 -264.71,109.31 -311.45,278.07 -582.99,271.56 -814.61,-19.51 -126.72,-128.74 -229.62,-168.47 -318.76,-157.01 -95.98,12.31 -193.94,82.35 -292.32,167.32 -138.58,147.74 -289.42,198.09 -442.07,185.76 -143.8,-11.64 -282.32,-81.35 -409.35,-176.38l-33.88 -36.51c-4.72,-7.61 -9.52,-14.17 -14.26,-19.55l-0.54 0c-32.25,-36.56 -84.52,-64.31 -148.45,-72.13 -51.83,-6.34 -110.75,0.75 -173.06,26.65 -25.37,-86.41 -50.14,-173.5 -74.09,-261.53z"/>
   </g>
   <g>
    <path class="fil3 str0" d="M5748.99 5895.41c159.55,200.26 126.53,492.04 -73.73,651.59 -200.26,159.55 -492.04,126.53 -651.59,-73.73 -76.06,-95.47 -108.31,-211.73 -99.6,-324.55 -7.82,-3.77 -15.55,-7.75 -23.17,-11.96 -26.06,39.21 -58.56,75.1 -97.36,106.01 -200.26,159.55 -492.04,126.53 -651.59,-73.73 -159.55,-200.26 -126.53,-492.04 73.73,-651.59 151.1,-120.38 354.26,-131.1 513.46,-43.13 26.05,-39.21 58.56,-75.12 97.36,-106.04 200.26,-159.55 492.04,-126.53 651.59,73.73 76.06,95.47 108.31,211.73 99.6,324.55 60.92,29.31 116.35,72.44 161.3,128.85z"/>
    <path class="fil9 str1" d="M5101.73 5735.09c-12.52,202.1 98.57,290.12 1.89,518.23 128.03,-114.01 184.39,-131.32 313.29,-234.02 -6.35,147.61 40.25,275.82 -19.06,442.82 119.29,-3.36 224.01,32.24 336.02,48.36 -246.16,289.25 -523.79,551 -1172.83,488.18 -546.91,-344.26 -659.9,-793.97 -503.8,-1309.12 97.69,139.33 208.54,231.52 266.8,392.56 34.88,-150.68 116.96,-224.96 178.52,-342.17 61.88,93.23 184.39,233.94 216.72,341.6 84.86,-157.53 270.96,-245.22 382.45,-346.44z"/>
    <path class="fil3 str2" d="M4858.28 7115.44c180.52,197.65 166.64,504.33 -31.02,684.86 -197.65,180.53 -504.33,166.64 -684.86,-31.01 -86.06,-94.23 -127.89,-213.23 -126.75,-331.53 -8.42,-3.38 -16.76,-6.98 -25.02,-10.84 -24.41,42.74 -55.79,82.46 -94.07,117.43 -197.66,180.53 -504.34,166.64 -684.87,-31.01 -180.52,-197.65 -166.64,-504.33 31.02,-684.86 149.13,-136.21 360.29,-161.7 532.54,-81.15 24.42,-42.74 55.79,-82.49 94.09,-117.47 197.66,-180.53 504.34,-166.64 684.86,31.01 86.07,94.23 127.89,213.23 126.76,331.53 65.6,26.27 126.46,67.36 177.32,123.04z"/>
    <path class="fil9 str3" d="M4171.83 6993.8c1.18,211.68 123.26,295.67 38.47,540.42 125.52,-127.94 183.1,-149.96 310.32,-266.16 3.76,154.41 61.41,284.87 11.3,463.23 124.19,-11.9 235.93,17.86 353.9,26.79 -236.39,319.05 -507.55,611.63 -1188.99,591.82 -594.71,-320.58 -744.25,-781.71 -617.71,-1330.06 111.72,138.46 233.84,226.82 305.95,390.7 25.78,-159.64 106.16,-242.9 162.11,-369.5 71.12,92.9 208.82,231.04 250.13,341.06 77.42,-170.29 265.36,-274.87 374.52,-388.3z"/>
    <path class="fil3 str4" d="M4436.91 8358.38c202.21,206.56 198.69,538.04 -7.86,740.26 -206.56,202.21 -538.05,198.69 -740.26,-7.87 -96.4,-98.47 -145.99,-225.33 -149.19,-353.04 -9.21,-3.33 -18.35,-6.91 -27.4,-10.76 -24.75,47.03 -57.12,91.08 -97.13,130.25 -206.56,202.22 -538.05,198.69 -740.26,-7.86 -202.22,-206.56 -198.69,-538.05 7.86,-740.26 155.85,-152.57 382.78,-187.98 571.68,-107.48 24.76,-47.04 57.13,-91.11 97.16,-130.3 206.55,-202.21 538.04,-198.69 740.25,7.87 96.4,98.47 145.99,225.33 149.19,353.04 71.79,25.9 139,67.96 195.96,126.15z"/>
    <path class="fil9 str5" d="M3691.56 8252.77c9.18,228.41 144.07,314.49 61.72,581.79 130.67,-142.77 191.99,-168.69 324.94,-298.85 9.84,166.5 76.92,305.13 29.52,499.5 133.58,-17.49 255.28,10.45 382.92,15.68 -243.18,353.15 -524.88,679.04 -1261.01,683.13 -653.81,-323.73 -832.42,-815.78 -716.36,-1412.28 125.74,145.24 260.83,236.03 344.78,410.19 21.85,-173.24 105.49,-266.1 161.14,-404.82 80.22,97.59 233.99,241.53 282.68,358.72 77.19,-186.68 276.11,-306.57 389.67,-433.06z"/>
    <path class="fil3 str6" d="M4099.56 9847.8c209.39,199.29 217.57,530.69 18.29,740.08 -199.29,209.38 -530.69,217.57 -740.08,18.28 -99.81,-95 -153.85,-220.04 -161.56,-347.55 -9.32,-3.01 -18.58,-6.26 -27.76,-9.79 -23.07,47.88 -53.87,93.04 -92.48,133.6 -199.28,209.38 -530.69,217.57 -740.07,18.28 -209.38,-199.28 -217.57,-530.69 -18.28,-740.07 150.36,-157.98 375.9,-201.38 567.53,-127.61 23.07,-47.88 53.87,-93.07 92.49,-133.64 199.28,-209.38 530.69,-217.57 740.07,-18.28 99.82,95 153.86,220.04 161.56,347.55 72.66,23.35 141.31,63.02 200.29,119.15z"/>
    <path class="fil9 str7" d="M3350.95 9768.58c17.24,227.94 155.08,309.2 82.22,579.24 125.56,-147.28 185.92,-175.36 314.19,-310.13 15.71,166.05 87.65,302.23 47.14,498.15 132.88,-22.2 255.49,1.42 383.24,2.14 -230.56,361.52 -500.57,697.16 -1236.11,727.24 -664.82,-300.44 -860.71,-785.87 -765.78,-1386.1 130.79,140.71 269.01,226.67 359.05,397.76 15.72,-173.91 96.02,-269.67 146.74,-410.26 83.62,94.7 242.37,233.11 295.18,348.51 70.54,-189.28 265.1,-316.12 374.13,-446.55z"/>
    <path class="fil3 str8" d="M3941.76 11454.68c233.64,170.21 285.07,497.7 114.86,731.33 -170.21,233.64 -497.7,285.07 -731.33,114.86 -111.38,-81.14 -181.3,-198.03 -205.6,-323.45 -9.64,-1.76 -19.24,-3.78 -28.81,-6.08 -16.62,50.49 -41.25,99.29 -74.22,144.55 -170.21,233.63 -497.7,285.07 -731.33,114.86 -233.64,-170.21 -285.07,-497.7 -114.86,-731.34 128.42,-176.27 346.35,-248.78 545.98,-200.69 16.62,-50.49 41.24,-99.31 74.23,-144.58 170.2,-233.64 497.69,-285.07 731.33,-114.87 111.38,81.15 181.3,198.04 205.6,323.46 75.09,13.65 148.34,44 214.15,91.95z"/>
    <path class="fil9 str9" d="M3189.21 11473.99c46.89,223.73 194.17,286.28 157.24,563.52 105.22,-162.43 161.39,-198.16 270.95,-348.54 37.28,162.57 126.4,288.18 111.85,487.71 128.83,-39.37 253.49,-31.98 380.23,-47.97 -181.33,388.56 -405.15,756.61 -1130.44,882.58 -698.4,-210.97 -956.05,-666.63 -940.4,-1274.12 148.07,122.41 296.33,189.56 407.97,347.41 -7.15,-174.46 59.95,-279.89 91.85,-425.91 95.28,82.96 270.77,199.43 338.2,306.94 45.2,-196.88 221.51,-348.07 312.55,-491.62z"/>
    <path class="fil3 str10" d="M4455.43 12879.72c297.78,87.91 467.96,400.68 380.05,698.46 -87.91,297.78 -400.68,467.97 -698.46,380.05 -141.96,-41.91 -254.87,-134.95 -324.7,-253.06 -10.39,1.69 -20.83,3.12 -31.34,4.24 1.4,57.07 -5.91,115.33 -22.94,173.01 -87.91,297.78 -400.68,467.97 -698.46,380.05 -297.78,-87.91 -467.97,-400.68 -380.05,-698.46 66.33,-224.67 260.65,-376.65 479.97,-400.02 -1.4,-57.07 5.9,-115.35 22.93,-173.05 87.92,-297.78 400.69,-467.97 698.46,-380.05 141.96,41.91 254.87,134.95 324.71,253.06 80.89,-13.27 165.95,-8.99 249.83,15.77z"/>
    <path class="fil9 str11" d="M3701.03 13170.76c128.16,209.43 299.73,219.57 362.38,513.39 47.86,-202.3 91.8,-258.7 148.38,-450.37 96.37,151.02 231.85,245.95 289.11,453.07 116.14,-86.32 244.92,-123.81 367.39,-185.71 -43.27,458.53 -136.94,911.64 -825.28,1300.75 -782.68,38.52 -1207.75,-329.53 -1411.07,-949.78 193.95,70.43 368.19,84.88 538.08,204.3 -70.18,-173.93 -40.33,-304.8 -60.73,-464.04 126.32,49.55 345.89,104.08 452.89,188.52 -25.3,-215.49 98.54,-432.05 138.85,-610.13z"/>
    <path class="fil3 str12" d="M4840.07 14365.8c322.59,0 584.18,261.6 584.18,584.18 0,322.59 -261.59,584.18 -584.18,584.18 -153.78,0 -293.66,-59.49 -398,-156.64 -9.85,4.74 -19.84,9.24 -29.98,13.44 18.19,56.46 28.04,116.66 28.04,179.15 0,322.59 -261.59,584.18 -584.18,584.18 -322.58,0 -584.18,-261.59 -584.18,-584.18 0,-243.38 148.93,-452 360.59,-539.8 -18.18,-56.45 -28.06,-116.68 -28.06,-179.19 0,-322.58 261.6,-584.18 584.18,-584.18 153.79,0 293.67,59.5 398,156.65 76.7,-37.03 162.72,-57.79 253.59,-57.79z"/>
    <path class="fil9 str13" d="M4173.97 14877.74c189.31,170.99 363.26,130.62 512.12,404.97 -11.83,-215.66 15.37,-284.79 15.37,-492.42 140.45,122.13 303.38,176.86 421.37,366.4 90.33,-120.17 207.63,-195.41 311.44,-293.12 91.78,469.63 131.74,948.69 -439.69,1538.91 -768.57,268.65 -1300.4,26.95 -1685.48,-531.29 213.99,13.12 391.86,-23.73 596.28,45.28 -121.1,-152.67 -129.85,-291.86 -197.03,-444.53 140.46,12.22 375.28,1.96 506.75,54.62 -88.61,-207.29 -28.92,-459.51 -41.13,-648.82z"/>
   </g>
   <g>
    <path class="fil6" d="M15058.04 16887.5c871.43,-1426.46 1417.59,-3036.97 1522.4,-4785.21 85.75,-1430.4 -123.82,-2953.49 -692.14,-4543.95 -72.51,-202.98 -213.83,-404.8 -298.2,-609.95l115.57 -105.06c52.99,128.83 175.89,308.7 224.23,436.69 639.27,1692.7 876.5,3312.66 785.51,4830.22 -106.22,1771.42 -659.4,3402.9 -1541.99,4847.66l-115.38 -70.4z"/>
    <path class="fil0" d="M16102.17 7903.54l-139.34 -18.24c-250.28,-32.77 -515.39,-76.15 -737.25,-203.33 -348.46,-199.76 -536.9,-587.03 -680.57,-945.6l-70.92 -177 184.42 48.41c813.89,213.61 988.82,413.73 1400.19,1134.72l41.3 72.4c-3.4,-287.89 31.04,-555.86 133.26,-786.19 -68.65,84.84 -151.46,156.28 -244.97,217.85l-120.13 79.1 -26.99 -141.28c-53.19,-278.57 -111.59,-576.66 -60.81,-859.59 55.8,-311.02 233,-539.66 484.76,-722.88l133.6 -97.21 18.32 164.19c38.85,348.14 87.95,790.81 -49.45,1131.47 122.9,-161.35 295.91,-294.63 534.38,-390.74l132.95 -53.6 -1.04 143.36c-2.72,374.51 -45.82,752.52 -215.14,1049.31 114.42,-84.21 252.13,-152.09 417.42,-200.5l137.57 -40.31 -15.09 142.57c-31.67,298.94 -89.41,597.56 -213.14,847.92 106.46,-71.75 231.77,-130.3 378.95,-173.41l137.57 -40.31 -15.09 142.57c-39.39,371.84 -119.14,743.21 -316.04,1021.82 114.72,-62.11 249.59,-107.78 409.39,-133.72l140.4 -22.8 -31.36 138.73c-80.93,358.04 -189.39,677.69 -381.85,924.44 120.54,-53.43 257.94,-93.62 416.95,-119.43l149.39 -24.26 -41.71 145.49c-86.27,300.93 -204.58,630.17 -420.07,868.4 104.51,-40.29 221.12,-71.42 352.43,-92.74l167 -27.11 -62.36 157.28c-129.22,325.88 -255.91,605.72 -438.52,817.14 88.28,-25.14 184.19,-46 288.96,-63.01l167 -27.12 -62.35 157.28c-124.12,313.06 -246.56,552.15 -410.45,728.04 75.61,-14.6 155.75,-26.81 240.93,-37.06l167.98 -20.23 -68.77 154.58c-136.12,305.97 -273.37,525.3 -445.28,679.45 53.96,-9.05 110.12,-17.02 168.67,-24.07l167.97 -20.22 -68.76 154.57c-143.36,322.28 -288,548.43 -473.05,703.53 84.65,1.08 174.71,8.07 270.98,21.05l146.59 19.78 -77.74 125.84c-243.49,394.16 -463.2,628.37 -768.1,744.75 51.51,3.51 104.93,9 160.39,16.49l119.16 16.08 -42.05 112.65c-266.76,714.78 -747.9,934.84 -1448.62,861.35l-120.05 -15.08 -108.98 -52.62c-627.21,-318.86 -912.14,-766.75 -747.93,-1510.3l25.93 -117.41 108.77 51.25c609.22,287.16 811.3,653.85 843.33,1219.12 168.38,-230.26 345.73,-394.78 565.57,-489.83 -40.46,-0.66 -82.17,-2.08 -125.2,-4.27l-32.29 -1.63 -0.32 10.25 -24.89 -11.54 -102.59 -5.2 19.94 -33.11 -24.11 -11.17c-693.85,-321.69 -1016.38,-776.41 -844,-1556.93l25.92 -117.42 108.77 51.26c120.43,56.76 224.94,116.62 315.37,180.51 -95.64,-256.39 -97.69,-558.62 -20.4,-908.57l29.75 -134.73 115.99 74.7c32.49,20.93 63.47,42 92.97,63.24 -86.8,-256.39 -79.26,-540.64 -44.88,-808.5l21.26 -165.77 132.48 101.86c28.37,21.8 55.54,43.32 81.62,64.64 -112.29,-273.73 -79.47,-612.74 -42.54,-893.98l20.84 -158.91c-94.73,-228 -115.38,-487.7 -120.43,-731.78l-2.48 -120.04c-106.69,-189.2 -180.78,-405.55 -245.19,-595.18l-65.54 -192.94 190.52 72.28c643.61,244.21 794.02,479.81 979.34,1073.59l3.32 -15.37c75.87,-351.23 164.44,-678.24 341.88,-928.14 -82.09,44.27 -174.14,79.72 -277.43,104.8l-112.9 27.4 15.44 32.42 -189.26 -39.19c-216.77,-44.88 -444.95,-100.02 -630.75,-225.67 -292.07,-197.51 -431.77,-547.12 -534.27,-870.45l-57.63 -181.75 172.7 59.29c-199.01,-177.02 -330.76,-429.17 -438.61,-668.31l-78.39 -173.8 186.31 40.5c718.5,156.22 880.58,325.6 1266.46,939.62l7.06 11.24c27.89,-276.04 90.84,-528.87 214.57,-739.65 -82.5,58.68 -177.75,108.15 -287.64,146.58l-121.5 42.48 -6.09 -128.57c-0.63,-13.33 -1.19,-26.62 -1.69,-39.87zm-187.06 818.54c265.45,174.01 396.94,402.44 602.69,834.5l56.77 119.22 5.22 -102.72c15.58,-305.76 65.45,-589.25 181.42,-827.16 -99.67,65.02 -215.75,115.7 -351.14,148.58l-125.1 30.36 6.53 -128.55c0.52,-10.28 1.08,-20.51 1.69,-30.73l-85.41 -7.49c-96.47,-8.47 -195.31,-18.63 -292.67,-36.01zm518.06 1966.95c87.28,137.48 138.77,286.39 179.9,478.72 112.15,-246.85 224.88,-461.84 368.56,-637.63 -70.75,30.61 -147.27,56.67 -230.16,77.82l-84.42 21.52 45.25 150.14 -173.51 -55.12c-35.35,-11.21 -70.63,-22.94 -105.62,-35.45zm64.03 918.45c78.62,153.99 108.46,317.74 125.07,525.87 146.33,-329.25 288.94,-605.47 495.02,-812.55 -145.72,49.03 -300.39,71.9 -454.92,82.69l-6.09 0.42c6.49,40.31 12.96,82.35 19.55,126.25l28.94 193.15 -170.63 -95.04c-12.32,-6.85 -24.63,-13.79 -36.94,-20.79zm-178.66 888.48c95.29,157.2 148.31,324.74 179.83,526.03l40.54 -91.95c123.23,-279.55 246.21,-497.7 401.3,-665.97 -73.07,16.58 -151.52,28.71 -236.04,36.18l-70.95 6.26c3.3,63.76 6.3,131.51 9.73,203.93l7.9 166.44 -147.95 -76.63c-61.99,-32.1 -124.27,-66.42 -184.36,-104.29zm-108.92 958.42c85.03,208.67 118.35,441.38 142.28,710.74 106.56,-171.09 220.63,-304.56 352.6,-408.87 -71.44,8.33 -147.18,14.25 -227.72,18.03l-162.29 7.64 71.59 -145.85c10.45,-21.3 20.93,-42.15 31.46,-62.59l-18.8 -9.73c-64.7,-33.51 -128.23,-69.65 -189.12,-109.37zm323.56 -85.2c79.93,-127.44 164.16,-233.85 257.03,-322.76 -49.38,7.26 -100.98,13.23 -155,18.01l-129.03 11.39c12.16,90.35 20.59,187.48 27,293.36zm-593.78 940.33c77.97,204.87 103.78,443.18 100.28,726.4 124.54,-197.05 249.42,-357.63 388.82,-480.15 -41.63,3.44 -84.65,6.16 -129.12,8.26l-162.29 7.64 55.86 -113.82c-93.7,-45.71 -178.1,-95.14 -253.55,-148.33zm-354.88 -7321.86c-279.59,-117.91 -554.71,-351.77 -721.43,-603.98 -233.12,-352.66 -272.14,-745.76 -102.38,-1135.36l44.71 -102.61 94.61 59.78c606.67,383.39 980.4,986.77 815.44,1714.92l-25.33 111.81 -105.62 -44.56z"/>
    <g>
     <path class="fil5" d="M15531.47 16076c351.47,-583.66 680.32,-890.75 1451.24,-786.74 -273.89,733.83 -772.13,882.74 -1451.24,786.74z"/>
     <path class="fil5" d="M15531.47 16076c22.17,-680.95 -86.98,-1117.45 -790.63,-1449.11 -168.91,764.85 168.4,1160.62 790.63,1449.11z"/>
     <path class="fil5" d="M16070.33 15169.14c351.47,-583.66 680.32,-890.75 1451.24,-786.74 -382.62,619.38 -686.29,825.51 -1451.24,786.74z"/>
     <path class="fil5" d="M16294.86 14468.1c312.44,-636.54 639.13,-858.38 1353.89,-944.46 -332.96,748.47 -668.3,912.23 -1353.89,944.46z"/>
     <path class="fil5" d="M16472.27 13678.37c312.44,-636.55 639.12,-858.39 1353.89,-944.47 -332.96,748.47 -668.3,912.23 -1353.89,944.47z"/>
     <path class="fil5" d="M16626.77 12968.76c286.02,-648.85 557.53,-941.16 1268.16,-1056.55 -301.92,761.52 -584.47,996.16 -1268.16,1056.55z"/>
     <path class="fil5" d="M16695.73 12204.59c286.02,-648.85 533.49,-1061.29 1244.12,-1176.68 -301.92,761.53 -560.43,1116.29 -1244.12,1176.68z"/>
     <path class="fil5" d="M16655.69 11307.69c286.02,-648.85 533.49,-1061.29 1244.12,-1176.67 -245.86,857.61 -563.84,1129.17 -1244.12,1176.67z"/>
     <path class="fil5" d="M16727.76 10514.89c141.88,-656.85 317.28,-1189.42 1027.9,-1304.81 -180.79,799.86 -474,1163.59 -1027.9,1304.81z"/>
     <path class="fil5" d="M16675.7 9577.97c29.76,-584.79 181.13,-1157.41 875.74,-1360.88 -84.7,799.85 -339.92,1230.79 -875.74,1360.88z"/>
     <path class="fil5" d="M16387.41 8801.19c29.77,-584.79 181.13,-1157.41 875.75,-1360.87 -84.71,799.85 -339.93,1230.78 -875.75,1360.87z"/>
     <path class="fil5" d="M16199.77 7938.85c-27.71,-584.89 66.78,-1169.59 738.1,-1440.18 -5.87,804.3 -217.62,1258.18 -738.1,1440.18z"/>
     <path class="fil5" d="M15935.48 7166.36c-105.71,-553.65 -199.11,-1060.93 386.14,-1486.8 82.41,738.4 74.37,1183.58 -386.14,1486.8z"/>
     <path class="fil5" d="M15621.82 6899.19c-424.55,-179.06 -1127.44,-799.33 -773.08,-1612.54 613.76,387.87 921.32,958.22 773.08,1612.54z"/>
     <path class="fil5" d="M15941.61 15125.53c22.17,-680.96 -86.98,-1117.45 -790.64,-1449.12 -168.91,764.85 168.41,1160.63 790.64,1449.12z"/>
     <path class="fil5" d="M16273.63 14389.89c-51.49,-680.49 -87,-1117.44 -693,-1507.7 -168.91,764.85 70.76,1219.21 693,1507.7z"/>
     <path class="fil5" d="M16442.89 13478.47c-31.18,-657.52 -99.99,-974.21 -666.95,-1410.05 -97.3,758.34 109.83,1121.56 666.95,1410.05z"/>
     <path class="fil5" d="M16547.05 12514.98c-31.18,-657.52 -11.36,-903.69 -578.33,-1339.52 -103.8,790.9 21.21,1051.03 578.33,1339.52z"/>
     <path class="fil5" d="M16580.87 11544.38c-97.58,-650.99 -154.86,-858.82 -710.94,-1274.11 15.85,764.79 211.7,996.04 710.94,1274.11z"/>
     <path class="fil5" d="M16567.85 10632.97c-186.33,-618.49 -290.4,-856.29 -950.66,-1106.81 252.74,744.1 406.01,933.84 950.66,1106.81z"/>
     <path class="fil5" d="M16431.12 9597.87c-310.02,-651.04 -439.24,-806.64 -1092.98,-1031.11 246.21,776.65 509.27,910.24 1092.98,1031.11z"/>
     <path class="fil5" d="M16216.17 8662.43c-383.69,-610.53 -530.14,-750.03 -1205.56,-896.89 334.93,742.72 611.75,844.78 1205.56,896.89z"/>
     <path class="fil5" d="M15975.3 7790.08c-410.94,-720.21 -572.36,-887.66 -1341.16,-1089.43 348.45,869.69 661.49,1000.49 1341.16,1089.43z"/>
    </g>
   </g>
   <path class="fil0" d="M6419.66 16233.99c-943.81,-30.09 -1841.82,260.48 -2701.9,816.85 267.05,497.44 534.1,994.88 801.15,1492.33 602.17,-502.68 1309.06,-795.92 2120.67,-879.69 -73.32,-476.5 -146.62,-953.01 -219.92,-1429.49z"/>
   <path class="fil3" d="M6337.01 16328.2c-208.79,-2.57 -417.4,10.97 -624.2,40.49 -672.33,96.01 -1296.2,356.55 -1868.3,715.26 234.7,437.18 469.39,874.35 704.08,1311.54 581.23,-457.58 1245.91,-723.83 1980.92,-816.06 -64.18,-417.07 -128.34,-834.16 -192.5,-1251.23z"/>
   <polygon class="fil0" points="5571.39,17223.64 6419.66,16233.99 6938.05,17679.19 "/>
   <polygon class="fil3" points="5737.23,17177.7 6780.94,17525.62 6385.05,16421.9 "/>
   <path class="fil0" d="M13865.58 16233.99c943.81,-30.09 1841.82,260.48 2701.9,816.85 -267.05,497.44 -534.09,994.88 -801.14,1492.33 -602.18,-502.68 -1309.07,-795.92 -2120.68,-879.69 73.32,-476.5 146.62,-953.01 219.92,-1429.49z"/>
   <path class="fil3" d="M13948.24 16328.2c208.78,-2.57 417.39,10.97 624.2,40.49 672.32,96.01 1296.2,356.55 1868.3,715.26 -234.71,437.18 -469.4,874.35 -704.09,1311.54 -581.22,-457.58 -1245.91,-723.83 -1980.91,-816.06 64.18,-417.07 128.34,-834.16 192.5,-1251.23z"/>
   <polygon class="fil0" points="14713.85,17223.64 13865.58,16233.99 13347.19,17679.19 "/>
   <polygon class="fil3" points="14548.01,17177.7 13504.3,17525.62 13900.19,16421.9 "/>
   <path class="fil0" d="M6026.94 18715.97c-151.84,-497.46 -303.69,-994.89 -455.55,-1492.33 2725.63,-1223.03 6416.84,-1223.03 9142.47,0 -151.86,497.44 -303.71,994.87 -455.55,1492.33 -2352.7,-1056.46 -5878.67,-1056.46 -8231.37,0z"/>
   <path class="fil3" d="M6087.22 18584.56c2343.54,-1009.51 5767.27,-1009.51 8110.81,0 133.04,-435.87 266.09,-871.72 399.15,-1307.59 -2667.29,-1166.25 -6241.81,-1166.25 -8909.11,0 133.06,435.87 266.11,871.72 399.15,1307.59z"/>
   <path class="fil6" d="M6228.95 18266.75l-294.15 -905.23 327.77 -106.5c60.76,-19.72 109.68,-27.46 146.55,-22.89 36.93,4.3 71.78,23.27 104.56,57.13 32.71,33.62 58.38,79.37 77.09,136.9 16.36,50.37 22.85,96.02 19.72,137.35 -3.27,41.36 -14.42,77.62 -33.24,108.9 -12.26,19.82 -31.31,39.29 -57.5,58.06 27.06,3.55 47.72,9.19 62.16,16.84 9.53,5.07 25.16,17.47 46.84,37.23 21.72,19.96 36.93,35.53 45.84,47.32l180.4 231.49 -222.28 72.22 -194.98 -242.6c-24.91,-31.28 -44.36,-50.83 -58.36,-58.15 -18.59,-9.35 -37.01,-11.06 -54.94,-5.22l-17.34 5.62 119.35 367.35 -197.49 64.18zm22.54 -602.67l82.98 -26.96c8.87,-2.88 24.91,-12.52 48.03,-29.14 11.81,-8 19.4,-20.97 22.76,-38.83 3.22,-17.82 1.69,-36.68 -4.75,-56.49 -9.52,-29.29 -23.31,-49.51 -41.4,-60.86 -18.19,-11.58 -45.17,-11.45 -81.02,0.21l-86.4 28.08 59.8 183.99zm823.75 -637.88l199.39 -53.42 146.89 548.21c14.58,54.37 22.28,107.14 23.34,158.7 1.01,51.35 -6.28,98.73 -22.01,141.73 -15.75,42.99 -35.63,75.39 -59.65,97.65 -33.38,30.74 -77.14,53.48 -131.62,68.07 -31.44,8.43 -66.56,14.62 -105.45,18.17 -38.83,3.77 -73.17,-0.36 -103.14,-12.29 -29.96,-11.92 -59.98,-32.36 -89.9,-61.03 -29.95,-28.67 -53.56,-60.2 -70.97,-94.54 -28,-55.15 -48.05,-105.27 -60.15,-150.44l-146.89 -548.21 199.39 -53.45 150.39 561.27c13.48,50.32 33.76,86.88 60.68,109.69 27.14,23.01 58.02,29.89 92.78,20.57 34.31,-9.18 57.66,-30.36 69.76,-63.43 12.02,-32.82 11.2,-75.05 -2.46,-125.98l-150.38 -561.27zm406.08 -97.19l202.95 -39.46 63.56 326.98 221.9 -43.13 -63.54 -326.98 203.85 -39.62 181.63 934.32 -203.85 39.64 -73.48 -377.87 -221.9 43.13 73.46 377.87 -202.95 39.45 -181.63 -934.33zm1257.66 -191.53l204.89 -25.16 69.17 563.32c6.85,55.87 7.14,109.2 1.02,160.39 -6.13,51.01 -19.98,96.91 -41.54,137.29 -21.57,40.39 -45.74,69.71 -72.65,88.42 -37.33,25.79 -83.8,42.21 -139.8,49.08 -32.3,3.96 -67.97,5.2 -106.95,3.3 -38.98,-1.67 -72.42,-10.54 -100.43,-26.52 -28.02,-15.97 -54.87,-40.36 -80.53,-72.93 -25.67,-32.57 -44.65,-67.08 -57.15,-103.51 -20.05,-58.5 -32.91,-110.94 -38.62,-157.36l-69.17 -563.32 204.91 -25.16 70.8 576.75c6.36,51.7 21.36,90.72 44.84,117.07 23.66,26.55 53.27,37.65 88.99,33.28 35.28,-4.34 61.34,-22.05 77.93,-53.1 16.48,-30.84 21.53,-72.77 15.1,-125.12l-70.81 -576.72zm404.66 -41.81l206.71 -14.44 66.39 949.49 -206.71 14.46 -66.39 -949.51zm736.66 916.21l16.63 -951.68 344.58 6.01c63.85,1.13 112.63,9.74 146,26.06 33.53,16.09 60.3,45.4 80.29,88.07 19.96,42.46 29.35,94.04 28.29,154.53 -0.92,52.97 -9.66,98.25 -26.06,136.29 -16.55,38.06 -38.9,68.71 -66.88,92.14 -18.04,14.77 -42.39,26.98 -73.27,36.18 24.43,12.18 42.12,24.24 53.29,36.18 7.34,7.87 18.11,24.7 32.17,50.43 14.04,25.94 23.35,45.63 27.94,59.67l95.19 277.61 -233.67 -4.07 -105.37 -292.88c-13.38,-37.68 -25.41,-62.49 -36.26,-73.98 -14.53,-14.88 -31.39,-22.5 -50.25,-22.83l-18.23 -0.31 -6.74 386.19 -207.65 -3.61zm217.54 -562.5l87.25 1.52c9.33,0.17 27.63,-3.74 54.88,-11.91 13.79,-3.72 25.18,-13.51 34.18,-29.3 8.84,-15.81 13.52,-34.13 13.89,-54.96 0.54,-30.8 -5.9,-54.41 -19.34,-71.04 -13.41,-16.86 -38.97,-25.52 -76.66,-26.17l-90.82 -1.6 -3.38 193.46zm928.35 438l-234.97 -16.43 -43.31 154.49 -210.74 -14.75 317.25 -931.94 224.89 15.71 184.61 967.06 -215.89 -15.09 -21.84 -159.05zm-28.82 -208.38l-49.97 -346.51 -97.25 336.22 147.22 10.29zm467.11 -561.38l204.73 28.77 -46.35 329.84 223.85 31.48 46.36 -329.87 205.66 28.92 -132.47 942.55 -205.66 -28.91 53.58 -381.19 -223.86 -31.46 -53.57 381.2 -204.75 -28.79 132.48 -942.54zm1069.56 976.65l-231.23 -44.94 -61.82 148.04 -207.38 -40.31 428.45 -886.33 221.33 43 65.37 982.35 -212.44 -41.29 -2.28 -160.52zm-3.23 -210.34l-7.37 -350.01 -137.48 321.85 144.85 28.16zm387.44 -539.82l221.82 59.45 47.32 345.35 213.64 -275.43 220.46 59.08 -394.48 466.96 -103.18 385.07 -200.17 -53.64 103.19 -385.07 -108.6 -601.77zm1234.5 355.79l196.32 63.77 -175.39 539.78c-17.38,53.54 -39.68,101.98 -66.85,145.82 -27.13,43.61 -59.05,79.37 -95.67,106.87 -36.62,27.46 -70.94,43.82 -103.2,49.41 -44.73,7.58 -93.81,2.84 -147.47,-14.6 -30.96,-10.06 -63.8,-24 -98.32,-42.21 -34.63,-17.99 -61.17,-40.13 -79.81,-66.48 -18.65,-26.33 -32.67,-59.78 -42.16,-100.13 -9.5,-40.36 -12.13,-79.66 -8.04,-117.95 6.55,-61.51 17.05,-114.47 31.51,-158.93l175.37 -539.78 196.32 63.8 -179.56 552.62c-16.09,49.53 -18.99,91.24 -8.83,125.04 10.22,34.09 32.36,56.67 66.6,67.79 33.78,10.96 64.89,5.93 93.06,-15.19 27.96,-20.99 50.26,-56.86 66.54,-107l179.58 -552.63z"/>
  </g>
 </g>
</svg>
