<?xml version="1.0" encoding="UTF-8" standalone="no"?>
<svg
   xmlns:dc="http://purl.org/dc/elements/1.1/"
   xmlns:cc="http://creativecommons.org/ns#"
   xmlns:rdf="http://www.w3.org/1999/02/22-rdf-syntax-ns#"
   xmlns:svg="http://www.w3.org/2000/svg"
   xmlns="http://www.w3.org/2000/svg"
   xmlns:xlink="http://www.w3.org/1999/xlink"
   xmlns:sodipodi="http://sodipodi.sourceforge.net/DTD/sodipodi-0.dtd"
   xmlns:inkscape="http://www.inkscape.org/namespaces/inkscape"
   width="295.483"
   height="356.251"
   viewBox="0 0 78.18 94.258"
   version="1.1"
   id="svg456"
   sodipodi:docname="Seal of Magetan Regency (1).svg"
   inkscape:version="1.0.1 (3bc2e813f5, 2020-09-07)">
  <metadata
     id="metadata460">
    <rdf:RDF>
      <cc:Work
         rdf:about="">
        <dc:format>image/svg+xml</dc:format>
        <dc:type
           rdf:resource="http://purl.org/dc/dcmitype/StillImage" />
      </cc:Work>
    </rdf:RDF>
  </metadata>
  <sodipodi:namedview
     pagecolor="#ffffff"
     bordercolor="#666666"
     borderopacity="1"
     objecttolerance="10"
     gridtolerance="10"
     guidetolerance="10"
     inkscape:pageopacity="0"
     inkscape:pageshadow="2"
     inkscape:window-width="1366"
     inkscape:window-height="705"
     id="namedview458"
     showgrid="false"
     inkscape:zoom="1.2629718"
     inkscape:cx="147.7415"
     inkscape:cy="19.768835"
     inkscape:window-x="-8"
     inkscape:window-y="-8"
     inkscape:window-maximized="1"
     inkscape:current-layer="svg456" />
  <style
     id="style2"><![CDATA[.B{fill:#ffeba3}.C{fill:#f5c742}.D{stroke:#a07843}.E{stroke-width:.565}.F{stroke-width:.265}.G{fill:#018f50}.H{stroke:#005b31}.I{fill:#fff}.J{fill:#c8d3d9}.K{stroke:#7c909b}.L{fill:#005b31}.M{stroke:#909090}.N{stroke-width:.397}.O{fill-rule:evenodd}.P{opacity:.999}.Q{stroke-linejoin:round}]]></style>
  <defs
     id="defs18">
    <linearGradient
       id="A"
       gradientUnits="userSpaceOnUse">
      <stop
         offset="0"
         stop-color="#fff"
         id="stop4" />
      <stop
         offset="1"
         stop-color="#d0d0d0"
         id="stop6" />
    </linearGradient>
    <linearGradient
       xlink:href="#A"
       id="B"
       x1="85.686"
       y1="235.232"
       x2="104.283"
       y2="235.232" />
    <linearGradient
       xlink:href="#A"
       id="C"
       x1="124.314"
       y1="235.231"
       x2="105.717"
       y2="235.231"
       gradientTransform="translate(-65.91,-154.573)" />
    <path
       id="D"
       d="M81.876 172.772c-1.251 2.217-2.867 4.277-1.287 7.721 2.273-2.302 2.338-4.929 1.287-7.721z" />
    <path
       id="E"
       d="M81.672 175.141l-.598 3.536c1.161-1.349.801-2.45.598-3.536z" />
    <path
       id="F"
       d="M132.165 176.878c.519.404 1.289.821 1.104 1.604.022.827.21 1.637.499 2.409.198.637.304 1.44-.228 1.951-.525.634-1.454.831-1.821 1.61-.326.529-.662 1.151-1.3 1.343-.589.42-1.349.053-2.003.264-.664.135-1.442.144-1.94-.389-.623-.599-.874-1.462-1.116-2.264-.19-.625.435-.791.855-.568-.557-.256-1.118-.584-1.326-1.202-.268-.516-.46-1.057-.629-1.613a12.31 12.31 0 0 0-.85-1.932c-.052-.748.953-.316 1.382-.504.927-.033 1.265-.618 2.2-.362.765.23.777.465 1.21 1.035l1.419 1.875c-.5-.809-.826-1.402-1.281-1.9-.578-.904.379-3.528.981-3.799.586-.277.965-1.447 1.715-.877.41.47.846.976 1.04 1.58.15.568.072 1.161.086 1.74z" />
    <path
       id="G"
       d="M126.134 179.192l-.312.338 4.238 3.094c.001-1.584.066-3.155-.26-4.81.161-.032-.546 3.416-.728 3.354-.123-.042-2.938-1.976-2.938-1.976z" />
    <path
       id="H"
       d="M128.688 183.177c-.129-.899-2.472-.996-.368-2.702.934-1.227 1.391-1.535 1.691-1.544.451.04.505 1.335 1.177 1.618 1.87 1.005.178 1.945-.441 2.905l-1.066.386z" />
    <path
       id="I"
       d="M127.916 182.368c.803.654 1.616 1.378 2.132.221.255-.67.783-.757 1.379-.699.358.046.688-.059.901-.79.65 2.37.418 4.26 0 6.048.263.741-3.79-3.231-4.412-4.78z" />
    <path
       id="J"
       d="M129.883 179.574c-.514.188-.473.957-1.071 1.073-.547.283-.459.922.023 1.192.135.533.745.733.988.155.28-.55.886-.196 1.327-.328.31-.617-.806-.56-1.041-.973-.331-.313-.005-.777-.227-1.118z" />
  </defs>
  <path
     d="M 28.099,0.811 C 23.253,8.795 16.188,10.188 8.421,9.497 l -5.397,8.736 c 5.508,8.972 0.254,18.278 -1.953,28.247 -1.461,6.601 0.417,15.228 5.078,24.188 4.204,8.082 3.164,10.531 3.207,14.7 l 8.773,7.853 c 7.119,-2.42 14.11,-1.778 20.962,0.424 6.852,-2.202 13.842,-2.844 20.961,-0.424 l 8.773,-7.853 C 68.868,81.199 67.828,78.75 72.032,70.668 76.693,61.708 78.571,53.08 77.11,46.48 74.903,36.511 69.649,27.205 75.157,18.233 L 69.76,9.497 C 61.993,10.188 54.928,8.795 50.082,0.811 46.781,2.913 42.665,4.686 39.091,4.686 c -3.574,0 -7.69,-1.773 -10.992,-3.875 z"
     stroke="#000000"
     stroke-width="1.165"
     class="I"
     id="path20" />
  <path
     d="m 28.408,2.108 c -2.431,3.67 -5.409,5.964 -8.71,7.208 -3.354,1.264 -7.003,1.463 -10.753,1.181 l -4.8,7.77 c 2.588,4.563 2.64,9.265 1.75,13.898 -0.924,4.817 -2.793,9.636 -3.875,14.524 -1.384,6.255 0.399,14.701 4.991,23.53 4.118,7.917 3.351,10.929 3.326,14.723 l 8.04,7.197 c 7.055,-2.246 14,-1.618 20.713,0.495 6.713,-2.112 13.658,-2.74 20.712,-0.495 l 8.04,-7.197 c -0.024,-3.793 -0.792,-6.806 3.326,-14.723 4.593,-8.829 6.376,-17.275 4.991,-23.53 -1.082,-4.888 -2.951,-9.707 -3.875,-14.524 -0.889,-4.633 -0.838,-9.336 1.75,-13.898 l -4.8,-7.77 c -3.751,0.282 -7.399,0.083 -10.753,-1.181 -3.3,-1.244 -6.279,-3.538 -8.71,-7.208 -3.248,1.946 -7.088,3.55 -10.682,3.55 -3.594,0 -7.434,-1.604 -10.683,-3.55 z"
     fill="#077141"
     id="path22" />
  <g
     id="g1711">
    <path
       d="m 39.089,6.25 c -5.226,0 -0.8,0.112 -6.355,1.339 -1.83,0.404 -2.75,-0.178 -3.308,0.098 -1.452,0.717 -0.732,1.088 -2.344,2.608 -1.612,1.52 -2.365,0.602 -2.95,1.546 -0.585,0.944 0.53,0.455 -0.59,2.655 -1.12,2.2 -2.363,1.335 -2.516,2.264 -0.231,1.396 0.782,1.047 1.155,3.729 0.284,2.041 -0.664,2.552 -0.111,3.418 0.711,1.116 1.707,0.084 3.402,2.295 1.365,1.78 0.499,2.366 1.048,3.359 0.549,0.993 1.366,0.16 2.183,1.783 0.817,1.623 -0.384,2.182 -0.044,3.131 0.34,0.949 1.55,0.454 1.998,2.275 0.448,1.821 -0.846,1.477 -0.783,2.214 0.063,0.737 1.049,0.434 1.298,1.861 0.249,1.427 -0.574,1.29 -0.429,1.887 0.145,0.597 0.982,1.403 0.982,1.403 l 7.367,0.284 7.367,-0.284 c 0,0 0.837,-0.806 0.981,-1.403 0.144,-0.597 -0.678,-0.459 -0.429,-1.887 0.249,-1.428 1.236,-1.124 1.298,-1.861 0.062,-0.737 -1.231,-0.393 -0.783,-2.214 0.448,-1.821 1.658,-1.327 1.998,-2.275 0.34,-0.948 -0.861,-1.507 -0.044,-3.131 0.817,-1.624 1.633,-0.79 2.182,-1.783 0.549,-0.993 -0.316,-1.579 1.048,-3.359 1.695,-2.211 2.691,-1.179 3.402,-2.295 0.553,-0.867 -0.395,-1.378 -0.111,-3.418 0.373,-2.683 1.385,-2.333 1.155,-3.729 C 57.003,15.831 55.76,16.696 54.64,14.496 53.52,12.296 54.634,12.784 54.049,11.841 53.464,10.898 52.713,11.815 51.1,10.295 49.487,8.775 50.207,8.404 48.756,7.687 48.198,7.411 47.278,7.993 45.447,7.589 39.892,6.362 44.319,6.25 39.092,6.25 Z"
       fill="#8dd8f8"
       id="path24" />
    <path
       d="m 38.639,40.372 c -0.724,0.01 -1.469,0.095 -2.338,0.621 l -4.109,3.586 c -5.883,4.416 -11.038,5.787 -17.52,7.324 l -0.145,9.849 H 38.82 v 0.003 H 63.652 L 63.507,51.906 C 57.025,50.369 51.87,48.998 45.987,44.582 l -4.109,-3.586 c -0.942,-0.57 -1.738,-0.621 -2.519,-0.621 v -0.002 c -0.24,0 -0.479,-0.005 -0.721,-0.002 z"
       stroke="#ffffff"
       stroke-width="0.889"
       id="path52" />
  </g>
  <g
     id="g1726">
    <path
       d="m 27.627,18.316 6.856,5.055 -0.003,0.011"
       class="B"
       id="path26" />
    <path
       d="m 50.597,18.284 -8.554,0.019 h -0.02 l -2.936,-8.379 -0.013,0.039 -2.905,8.327 -0.005,0.012 -8.579,-0.019 0.043,0.032 6.853,5.067 -2.504,8.422 0.053,-0.036 7.044,-5.066 0.013,-0.01 7.118,4.804 -0.005,-0.015 -2.618,-8.189 0.003,-0.001 7.001,-4.998 z"
       class="I"
       id="path28" />
    <path
       fill="#a07843"
       d="M 31.977,32.313 A 0.51,0.51 0 0 1 31.49,31.66 l 2.401,-8.081 -6.609,-4.886 a 0.51,0.51 0 0 1 0.301,-0.918 h 0.001 l 8.218,0.018 2.805,-8.038 a 0.51,0.51 0 0 1 0.48,-0.341 v 0 a 0.51,0.51 0 0 1 0.48,0.34 l 2.816,8.038 8.213,-0.018 h 0.001 a 0.51,0.51 0 0 1 0.484,0.353 c 0.068,0.21 -0.008,0.441 -0.188,0.569 l -6.715,4.793 2.488,7.785 c 0.032,0.067 0.05,0.141 0.05,0.22 a 0.51,0.51 0 0 1 -0.508,0.508 c -0.047,0 -0.091,-0.006 -0.134,-0.018 -0.054,-0.013 -0.107,-0.036 -0.155,-0.069 L 39.097,27.31 32.275,32.216 C 32.189,32.28 32.084,32.31 31.98,32.31 Z m -2.844,-13.517 5.651,4.178 a 0.51,0.51 0 0 1 0.185,0.554 l -2.079,6.997 5.889,-4.235 a 0.53,0.53 0 0 1 0.595,-0.019 l 5.901,3.983 -2.176,-6.807 a 0.51,0.51 0 0 1 0.185,-0.566 l 5.723,-4.085 -6.962,0.015 h -0.001 c -0.216,0 -0.427,-0.137 -0.498,-0.34 l -2.456,-7.007 -2.44,6.994 c -0.071,0.204 -0.268,0.354 -0.484,0.354 h -10e-4 l -7.031,-0.015 z"
       id="path30" />
    <path
       d="M 42.022,18.303 39.086,9.924 39.073,9.963 v 11.922 l 2.969,-3.582 z"
       class="C"
       id="path32" />
    <g
       class="B"
       id="g38"
       transform="translate(-65.91,-154.573)">
      <path
         d="m 104.984,176.459 -11.446,-3.569 6.856,5.055 -0.003,0.011 4.593,-1.488 z"
         id="path34" />
      <path
         d="m 102.078,172.863 2.898,3.593 0.008,0.002 v -11.923 z"
         id="path36" />
    </g>
    <path
       d="m 36.168,18.29 -0.005,0.012 -8.579,-0.019 0.043,0.032 11.439,3.567 z"
       class="C"
       id="path40" />
    <path
       d="m 39.081,21.876 11.502,-3.583 0.013,-0.009 -8.554,0.019 z"
       class="B"
       id="path42" />
    <path
       d="m 39.081,21.876 -0.008,0.008 v 0.001 l 4.509,1.406 7.001,-4.998 z"
       class="C"
       id="path44" />
    <path
       d="m 43.581,23.293 0.003,-10e-4 -4.509,-1.406 v 0.009 l 7.125,9.587 z"
       class="B"
       id="path46" />
    <path
       d="m 39.074,21.895 v 4.808 l 0.013,-0.01 7.118,4.804 -0.005,-0.015 z m -7.044,9.874 7.021,-9.866 -4.57,1.48 -2.504,8.422 z"
       class="C"
       id="path48" />
    <path
       d="m 39.074,21.895 -0.023,0.008 -7.021,9.866 7.044,-5.066 z"
       class="B"
       id="path50" />
  </g>
  <g
     id="g1707">
    <path
       d="m 39.09,59.066 c -9.744,0 -17.911,1.256 -25.047,3.509 V 72.722 H 39.09 64.136 V 62.575 C 57,60.322 48.834,59.066 39.09,59.066 Z"
       fill="#03a9f2"
       id="path54" />
    <path
       d="m 53.305,68.097 c 0.565,-0.294 1.188,-0.872 1.098,-1.018 -0.038,-0.062 -0.029,-0.106 0.021,-0.097 0.259,0.045 0.366,-0.037 0.366,-0.282 0,-0.196 -0.046,-0.254 -0.164,-0.208 -0.09,0.035 -0.145,0.095 -0.121,0.134 0.131,0.212 -2.29,0.19 -3.251,-0.029 -0.649,-0.148 -0.934,-0.166 -1.25,-0.078 -0.436,0.121 -0.824,0.408 -0.824,0.611 0,0.251 1.163,1.011 1.796,1.173 0.606,0.155 1.846,0.046 2.328,-0.205 z m -22.62,-0.356 c 0.501,-0.237 0.681,-0.377 0.636,-0.494 -0.034,-0.09 -0.027,-0.153 0.016,-0.141 0.043,0.012 0.195,-0.042 0.336,-0.121 0.175,-0.097 0.24,-0.211 0.203,-0.353 -0.03,-0.116 -0.01,-0.183 0.045,-0.149 0.055,0.034 0.1,0.009 0.1,-0.055 0,-0.155 -0.105,-0.147 -0.66,0.048 -0.578,0.204 -1.163,0.204 -2.09,0 -1.079,-0.237 -1.468,-0.212 -1.866,0.124 -0.328,0.276 -0.335,0.298 -0.153,0.499 0.275,0.304 0.867,0.649 1.395,0.814 0.747,0.234 1.274,0.189 2.038,-0.172 z m 4.348,-0.376 c 0.881,-0.331 1.214,-0.403 1.76,-0.384 0.37,0.013 0.783,0.064 0.917,0.113 0.793,0.289 -0.277,-0.847 -1.179,-1.252 -0.736,-0.33 -1.77,-0.312 -2.475,0.045 -0.855,0.432 -1.052,0.578 -0.993,0.732 0.03,0.079 0.007,0.113 -0.053,0.077 -0.12,-0.074 -0.66,0.418 -0.66,0.602 0,0.064 0.161,0.218 0.357,0.341 0.474,0.297 0.952,0.241 2.324,-0.274 z M 47.475,66.98 c 0.182,-0.042 0.316,-0.138 0.3,-0.215 -0.016,-0.077 0.02,-0.109 0.081,-0.071 0.192,0.119 0.856,-0.273 1.323,-0.779 0.366,-0.398 0.427,-0.523 0.337,-0.693 -0.279,-0.521 -1.036,-0.491 -2.645,0.105 -0.844,0.313 -1.028,0.342 -1.897,0.302 -1.139,-0.053 -1.201,0.033 -0.46,0.64 0.83,0.68 1.938,0.946 2.962,0.711 z M 25.641,64.112 c 0.786,-0.287 1.785,-0.284 3.253,0.012 1.336,0.269 1.773,0.224 2.279,-0.231 0.416,-0.375 0.364,-0.54 -0.318,-1.013 -2.003,-1.391 -4.284,-1.055 -5.668,0.834 -0.172,0.234 -0.285,0.47 -0.253,0.522 0.075,0.121 0.004,0.133 0.706,-0.124 z m 29.797,-0.139 c 0.56,-0.288 0.553,-0.488 -0.034,-1.021 -0.801,-0.728 -1.568,-1.067 -2.412,-1.067 -0.769,0 -1.209,0.1 -1.114,0.254 0.034,0.055 -0.013,0.072 -0.106,0.036 -0.255,-0.098 -1.493,0.769 -1.493,1.045 0,0.037 0.483,0.068 1.072,0.067 0.978,0 1.159,0.035 2.062,0.399 1.059,0.427 1.601,0.504 2.024,0.286 z m -8.585,-0.532 c 0.19,-0.066 0.319,-0.165 0.286,-0.219 -0.033,-0.054 0.015,-0.069 0.107,-0.034 0.187,0.072 0.76,-0.324 0.641,-0.443 -0.041,-0.042 -10e-4,-0.047 0.09,-0.012 0.21,0.081 0.837,-0.543 0.657,-0.654 -0.068,-0.042 -0.332,-0.039 -0.586,0.006 -0.874,0.154 -1.705,0.012 -2.864,-0.492 -0.876,-0.381 -1.827,-0.327 -2.065,0.118 -0.102,0.19 -0.063,0.283 0.248,0.605 0.388,0.401 1.329,0.987 1.83,1.137 0.438,0.132 1.26,0.126 1.656,-0.012 z m -9.141,-1.166 -0.305,0.011 c -0.168,0.006 -0.282,0.048 -0.255,0.094 0.08,0.131 -0.351,0.097 -1.191,-0.094 a 6.15,6.15 0 0 0 -2.539,0.017 c -0.401,0.101 -0.389,-0.064 0.043,-0.555 0.855,-0.974 2.135,-1.283 3.285,-0.794 0.333,0.142 0.5,0.282 0.582,0.376 0.082,0.094 0.327,0.316 0.418,0.285 z"
       opacity="0.997"
       class="I"
       id="path450" />
  </g>
  <g
     id="g1636">
    <use
       xlink:href="#D"
       class="C D E"
       id="use56"
       x="0"
       y="0"
       width="100%"
       height="100%"
       transform="translate(-65.91,-154.573)" />
    <use
       xlink:href="#E"
       class="B"
       id="use58"
       x="0"
       y="0"
       width="100%"
       height="100%"
       transform="translate(-65.91,-154.573)" />
    <g
       transform="rotate(-5.2550271,-1542.229,1844.4691)"
       id="g64">
      <use
         xlink:href="#D"
         x="92.308998"
         y="-2.5"
         class="C D E"
         id="use60"
         width="100%"
         height="100%" />
      <use
         xlink:href="#E"
         x="92.308998"
         y="-2.5"
         class="B"
         id="use62"
         width="100%"
         height="100%" />
    </g>
    <g
       transform="rotate(-11.831016,-610.22074,881.03441)"
       id="g70">
      <use
         xlink:href="#D"
         x="92.308998"
         y="-2.5"
         class="C D E"
         id="use66"
         width="100%"
         height="100%" />
      <use
         xlink:href="#E"
         x="92.308998"
         y="-2.5"
         class="B"
         id="use68"
         width="100%"
         height="100%" />
    </g>
    <g
       transform="rotate(11.737018,819.50111,-663.98835)"
       id="g76">
      <use
         xlink:href="#D"
         x="92.308998"
         y="-2.5"
         class="C D E"
         id="use72"
         width="100%"
         height="100%" />
      <use
         xlink:href="#E"
         x="92.308998"
         y="-2.5"
         class="B"
         id="use74"
         width="100%"
         height="100%" />
    </g>
    <g
       transform="rotate(16.915986,586.47074,-425.43238)"
       id="g82">
      <use
         xlink:href="#D"
         x="92.308998"
         y="-2.5"
         class="C D E"
         id="use78"
         width="100%"
         height="100%" />
      <use
         xlink:href="#E"
         x="92.308998"
         y="-2.5"
         class="B"
         id="use80"
         width="100%"
         height="100%" />
    </g>
    <g
       transform="rotate(15.015005,641.86819,-487.59546)"
       id="g88">
      <use
         xlink:href="#D"
         x="92.308998"
         y="-2.5"
         class="C D E"
         id="use84"
         width="100%"
         height="100%" />
      <use
         xlink:href="#E"
         x="92.308998"
         y="-2.5"
         class="B"
         id="use86"
         width="100%"
         height="100%" />
    </g>
    <g
       transform="rotate(-6.179979,-1256.2992,1576.1437)"
       id="g94">
      <use
         xlink:href="#D"
         x="92.308998"
         y="-2.5"
         class="C D E"
         id="use90"
         width="100%"
         height="100%" />
      <use
         xlink:href="#E"
         x="92.308998"
         y="-2.5"
         class="B"
         id="use92"
         width="100%"
         height="100%" />
    </g>
    <g
       transform="rotate(17.152975,564.18992,-421.7061)"
       id="g100">
      <use
         xlink:href="#D"
         x="92.308998"
         y="-2.5"
         class="C D E"
         id="use96"
         width="100%"
         height="100%" />
      <use
         xlink:href="#E"
         x="92.308998"
         y="-2.5"
         class="B"
         id="use98"
         width="100%"
         height="100%" />
    </g>
    <g
       transform="rotate(-10.770993,-664.77158,967.39886)"
       id="g106">
      <use
         xlink:href="#D"
         x="92.308998"
         y="-2.5"
         class="C D E"
         id="use102"
         width="100%"
         height="100%" />
      <use
         xlink:href="#E"
         x="92.308998"
         y="-2.5"
         class="B"
         id="use104"
         width="100%"
         height="100%" />
    </g>
    <g
       transform="rotate(2.035975,4023.5064,-4435.7571)"
       id="g112">
      <use
         xlink:href="#D"
         x="92.308998"
         y="-2.5"
         class="C D E"
         id="use108"
         width="100%"
         height="100%" />
      <use
         xlink:href="#E"
         x="92.308998"
         y="-2.5"
         class="B"
         id="use110"
         width="100%"
         height="100%" />
    </g>
    <g
       transform="rotate(32.362972,334.28595,-165.84478)"
       id="g118">
      <use
         xlink:href="#D"
         x="92.308998"
         y="-2.5"
         class="C D E"
         id="use114"
         width="100%"
         height="100%" />
      <use
         xlink:href="#E"
         x="92.308998"
         y="-2.5"
         class="B"
         id="use116"
         width="100%"
         height="100%" />
    </g>
    <g
       transform="rotate(32.362972,330.21195,-169.47079)"
       id="g124">
      <use
         xlink:href="#D"
         x="92.308998"
         y="-2.5"
         class="C D E"
         id="use120"
         width="100%"
         height="100%" />
      <use
         xlink:href="#E"
         x="92.308998"
         y="-2.5"
         class="B"
         id="use122"
         width="100%"
         height="100%" />
    </g>
    <g
       transform="rotate(-14.989975,-434.56955,729.90371)"
       id="g130">
      <use
         xlink:href="#D"
         x="92.308998"
         y="-2.5"
         class="C D E"
         id="use126"
         width="100%"
         height="100%" />
      <use
         xlink:href="#E"
         x="92.308998"
         y="-2.5"
         class="B"
         id="use128"
         width="100%"
         height="100%" />
    </g>
    <g
       transform="matrix(1.008286,0.04465,-0.048258,0.932895,-156.4697,-129.96787)"
       id="g136">
      <use
         xlink:href="#D"
         x="92.308998"
         y="-2.5"
         class="C D E"
         id="use132"
         width="100%"
         height="100%" />
      <use
         xlink:href="#E"
         x="92.308998"
         y="-2.5"
         class="B"
         id="use134"
         width="100%"
         height="100%" />
    </g>
    <g
       transform="matrix(0.946197,-0.348837,0.298339,0.929888,-208.62847,-62.102465)"
       id="g142">
      <use
         xlink:href="#D"
         x="92.308998"
         y="-2.5"
         class="C D E"
         id="use138"
         width="100%"
         height="100%" />
      <use
         xlink:href="#E"
         x="92.308998"
         y="-2.5"
         class="B"
         id="use140"
         width="100%"
         height="100%" />
    </g>
    <g
       transform="matrix(0.799741,0.411394,-0.400035,0.822288,-53.97584,-174.99891)"
       id="g148">
      <use
         xlink:href="#D"
         x="92.308998"
         y="-2.5"
         class="C D E"
         id="use144"
         width="100%"
         height="100%" />
      <use
         xlink:href="#E"
         x="92.308998"
         y="-2.5"
         class="B"
         id="use146"
         width="100%"
         height="100%" />
    </g>
    <g
       transform="matrix(0.978858,0.2589,-0.26754,0.909617,-110.98061,-161.87997)"
       id="g154">
      <use
         xlink:href="#D"
         x="92.308998"
         y="-2.5"
         class="C D E"
         id="use150"
         width="100%"
         height="100%" />
      <use
         xlink:href="#E"
         x="92.308998"
         y="-2.5"
         class="B"
         id="use152"
         width="100%"
         height="100%" />
    </g>
    <g
       transform="matrix(0.936894,-0.383957,0.335299,0.886879,-213.92886,-43.42212)"
       id="g160">
      <use
         xlink:href="#D"
         x="92.308998"
         y="-2.5"
         class="C D E"
         id="use156"
         width="100%"
         height="100%" />
      <use
         xlink:href="#E"
         x="92.308998"
         y="-2.5"
         class="B"
         id="use158"
         width="100%"
         height="100%" />
    </g>
    <g
       transform="matrix(1.012427,-0.013583,-0.01334,0.948052,-163.79931,-118.80649)"
       id="g166">
      <use
         xlink:href="#D"
         x="92.308998"
         y="-2.5"
         class="C D E"
         id="use162"
         width="100%"
         height="100%" />
      <use
         xlink:href="#E"
         x="92.308998"
         y="-2.5"
         class="B"
         id="use164"
         width="100%"
         height="100%" />
    </g>
    <g
       transform="matrix(1.147859,0.16199,-0.195962,1.00339,-150.98679,-158.13383)"
       id="g172">
      <use
         xlink:href="#D"
         x="92.308998"
         y="-2.5"
         class="C D E"
         id="use168"
         width="100%"
         height="100%" />
      <use
         xlink:href="#E"
         x="92.308998"
         y="-2.5"
         class="B"
         id="use170"
         width="100%"
         height="100%" />
    </g>
    <g
       transform="matrix(1.00993,0.072345,-0.093711,0.943503,-147.55794,-130.07813)"
       id="g178">
      <use
         xlink:href="#D"
         x="92.308998"
         y="-2.5"
         class="C D E"
         id="use174"
         width="100%"
         height="100%" />
      <use
         xlink:href="#E"
         x="92.308998"
         y="-2.5"
         class="B"
         id="use176"
         width="100%"
         height="100%" />
    </g>
    <g
       transform="matrix(0.898765,-0.466276,0.413337,0.853307,-221.09414,-17.86805)"
       id="g184">
      <use
         xlink:href="#D"
         x="92.308998"
         y="-2.5"
         class="C D E"
         id="use180"
         width="100%"
         height="100%" />
      <use
         xlink:href="#E"
         x="92.308998"
         y="-2.5"
         class="B"
         id="use182"
         width="100%"
         height="100%" />
    </g>
    <g
       transform="matrix(0.950167,-0.349823,0.303006,0.898425,-208.36589,-45.1176)"
       id="g190">
      <use
         xlink:href="#D"
         x="92.308998"
         y="-2.5"
         class="C D E"
         id="use186"
         width="100%"
         height="100%" />
      <use
         xlink:href="#E"
         x="92.308998"
         y="-2.5"
         class="B"
         id="use188"
         width="100%"
         height="100%" />
    </g>
    <g
       transform="matrix(1.005382,0.120002,-0.138204,0.938019,-136.51513,-134.5824)"
       id="g196">
      <use
         xlink:href="#D"
         x="92.308998"
         y="-2.5"
         class="C D E"
         id="use192"
         width="100%"
         height="100%" />
      <use
         xlink:href="#E"
         x="92.308998"
         y="-2.5"
         class="B"
         id="use194"
         width="100%"
         height="100%" />
    </g>
    <g
       transform="matrix(1.011619,0.042671,-0.065977,0.945847,-152.71586,-119.8759)"
       id="g202">
      <use
         xlink:href="#D"
         x="92.308998"
         y="-2.5"
         class="C D E"
         id="use198"
         width="100%"
         height="100%" />
      <use
         xlink:href="#E"
         x="92.308998"
         y="-2.5"
         class="B"
         id="use200"
         width="100%"
         height="100%" />
    </g>
    <g
       transform="matrix(0.798161,-0.623003,0.562633,0.763167,-229.66997,29.62281)"
       id="g208">
      <use
         xlink:href="#D"
         x="92.308998"
         y="-2.5"
         class="C D E"
         id="use204"
         width="100%"
         height="100%" />
      <use
         xlink:href="#E"
         x="92.308998"
         y="-2.5"
         class="B"
         id="use206"
         width="100%"
         height="100%" />
    </g>
    <g
       transform="matrix(0.997386,-0.174395,0.137578,0.938111,-182.71088,-78.32007)"
       id="g214">
      <use
         xlink:href="#D"
         x="92.308998"
         y="-2.5"
         class="C D E"
         id="use210"
         width="100%"
         height="100%" />
      <use
         xlink:href="#E"
         x="92.308998"
         y="-2.5"
         class="B"
         id="use212"
         width="100%"
         height="100%" />
    </g>
    <g
       transform="matrix(0.956954,-0.330806,0.28503,0.904289,-203.22939,-42.42969)"
       id="g220">
      <use
         xlink:href="#D"
         x="92.308998"
         y="-2.5"
         class="C D E"
         id="use216"
         width="100%"
         height="100%" />
      <use
         xlink:href="#E"
         x="92.308998"
         y="-2.5"
         class="B"
         id="use218"
         width="100%"
         height="100%" />
    </g>
    <g
       transform="matrix(0.884623,-0.663796,0.623582,0.813138,-251.9628,31.01998)"
       id="g226">
      <use
         xlink:href="#D"
         x="92.308998"
         y="-2.5"
         class="C D E"
         id="use222"
         width="100%"
         height="100%" />
      <use
         xlink:href="#E"
         x="92.308998"
         y="-2.5"
         class="B"
         id="use224"
         width="100%"
         height="100%" />
    </g>
    <g
       transform="matrix(0.981898,-0.247121,0.206053,0.925485,-190.06909,-59.754444)"
       id="g232">
      <use
         xlink:href="#D"
         x="92.308998"
         y="-2.5"
         class="C D E"
         id="use228"
         width="100%"
         height="100%" />
      <use
         xlink:href="#E"
         x="92.308998"
         y="-2.5"
         class="B"
         id="use230"
         width="100%"
         height="100%" />
    </g>
    <g
       transform="matrix(0.843663,-0.559845,0.502342,0.804135,-214.99224,19.87312)"
       id="g238">
      <use
         xlink:href="#D"
         x="92.308998"
         y="-2.5"
         class="C D E"
         id="use234"
         width="100%"
         height="100%" />
      <use
         xlink:href="#E"
         x="92.308998"
         y="-2.5"
         class="B"
         id="use236"
         width="100%"
         height="100%" />
    </g>
    <g
       transform="matrix(0.843663,-0.559845,0.502342,0.804135,-211.71657,23.25277)"
       id="g244">
      <use
         xlink:href="#D"
         x="92.308998"
         y="-2.5"
         class="C D E"
         id="use240"
         width="100%"
         height="100%" />
      <use
         xlink:href="#E"
         x="92.308998"
         y="-2.5"
         class="B"
         id="use242"
         width="100%"
         height="100%" />
    </g>
    <g
       transform="matrix(0.843663,-0.559845,0.502342,0.804135,-208.18094,26.42445)"
       id="g250">
      <use
         xlink:href="#D"
         x="92.308998"
         y="-2.5"
         class="C D E"
         id="use246"
         width="100%"
         height="100%" />
      <use
         xlink:href="#E"
         x="92.308998"
         y="-2.5"
         class="B"
         id="use248"
         width="100%"
         height="100%" />
    </g>
    <g
       transform="matrix(0.906327,-0.451403,0.39922,0.860002,-212.02966,-10.34782)"
       id="g256">
      <use
         xlink:href="#D"
         x="92.308998"
         y="-2.5"
         class="C D E"
         id="use252"
         width="100%"
         height="100%" />
      <use
         xlink:href="#E"
         x="92.308998"
         y="-2.5"
         class="B"
         id="use254"
         width="100%"
         height="100%" />
    </g>
    <g
       transform="matrix(0.836772,-0.570093,0.512113,0.797948,-217.00713,24.50223)"
       id="g262">
      <use
         xlink:href="#D"
         x="92.308998"
         y="-2.5"
         class="C D E"
         id="use258"
         width="100%"
         height="100%" />
      <use
         xlink:href="#E"
         x="92.308998"
         y="-2.5"
         class="B"
         id="use260"
         width="100%"
         height="100%" />
    </g>
    <g
       transform="matrix(0.836772,-0.570093,0.512113,0.797948,-213.93945,27.62191)"
       id="g268">
      <use
         xlink:href="#D"
         x="92.308998"
         y="-2.5"
         class="C D E"
         id="use264"
         width="100%"
         height="100%" />
      <use
         xlink:href="#E"
         x="92.308998"
         y="-2.5"
         class="B"
         id="use266"
         width="100%"
         height="100%" />
    </g>
    <g
       transform="matrix(0.836772,-0.570093,0.512113,0.797948,-210.76777,30.94957)"
       id="g274">
      <use
         xlink:href="#D"
         x="92.308998"
         y="-2.5"
         class="C D E"
         id="use270"
         width="100%"
         height="100%" />
      <use
         xlink:href="#E"
         x="92.308998"
         y="-2.5"
         class="B"
         id="use272"
         width="100%"
         height="100%" />
    </g>
    <g
       transform="matrix(0.884623,-0.663796,0.623582,0.813138,-248.53115,37.51932)"
       id="g280">
      <use
         xlink:href="#D"
         x="92.308998"
         y="-2.5"
         class="C D E"
         id="use276"
         width="100%"
         height="100%" />
      <use
         xlink:href="#E"
         x="92.308998"
         y="-2.5"
         class="B"
         id="use278"
         width="100%"
         height="100%" />
    </g>
    <g
       transform="matrix(0.659495,-0.887835,0.828963,0.602386,-241.35959,117.62646)"
       id="g286">
      <use
         xlink:href="#D"
         x="92.308998"
         y="-2.5"
         class="C D E"
         id="use282"
         width="100%"
         height="100%" />
      <use
         xlink:href="#E"
         x="92.308998"
         y="-2.5"
         class="B"
         id="use284"
         width="100%"
         height="100%" />
    </g>
    <g
       transform="matrix(0.569842,-0.947873,0.883717,0.518741,-230.60072,147.38599)"
       id="g292">
      <use
         xlink:href="#D"
         x="92.308998"
         y="-2.5"
         class="C D E"
         id="use288"
         width="100%"
         height="100%" />
      <use
         xlink:href="#E"
         x="92.308998"
         y="-2.5"
         class="B"
         id="use290"
         width="100%"
         height="100%" />
    </g>
    <g
       transform="matrix(0.684183,-0.984897,0.819088,0.731034,-252.52198,103.41621)"
       id="g298">
      <use
         xlink:href="#D"
         x="92.308998"
         y="-2.5"
         class="C D E"
         id="use294"
         width="100%"
         height="100%" />
      <use
         xlink:href="#E"
         x="92.308998"
         y="-2.5"
         class="B"
         id="use296"
         width="100%"
         height="100%" />
    </g>
    <g
       transform="matrix(0.458815,-1.107979,0.955946,0.539892,-235.77854,162.82455)"
       id="g304">
      <use
         xlink:href="#D"
         x="92.308998"
         y="-2.5"
         class="C D E"
         id="use300"
         width="100%"
         height="100%" />
      <use
         xlink:href="#E"
         x="92.308998"
         y="-2.5"
         class="B"
         id="use302"
         width="100%"
         height="100%" />
    </g>
    <g
       transform="matrix(0.254398,-1.171926,1.03674,0.361227,-211.30139,208.86401)"
       id="g310">
      <use
         xlink:href="#D"
         x="92.308998"
         y="-2.5"
         class="C D E"
         id="use306"
         width="100%"
         height="100%" />
      <use
         xlink:href="#E"
         x="92.308998"
         y="-2.5"
         class="B"
         id="use308"
         width="100%"
         height="100%" />
    </g>
    <g
       transform="matrix(0.108651,-1.194288,1.073235,0.231263,-188.98774,239.36769)"
       id="g316">
      <use
         xlink:href="#D"
         x="92.308998"
         y="-2.5"
         class="C D E"
         id="use312"
         width="100%"
         height="100%" />
      <use
         xlink:href="#E"
         x="92.308998"
         y="-2.5"
         class="B"
         id="use314"
         width="100%"
         height="100%" />
    </g>
    <g
       transform="matrix(-0.157853,-1.100427,0.891708,-0.041978,-107.33654,273.49512)"
       id="g322">
      <use
         xlink:href="#D"
         x="92.308998"
         y="-2.5"
         class="C D E"
         id="use318"
         width="100%"
         height="100%" />
      <use
         xlink:href="#E"
         x="92.308998"
         y="-2.5"
         class="B"
         id="use320"
         width="100%"
         height="100%" />
    </g>
  </g>
  <g
     id="g1692">
    <g
       class="F"
       id="g332"
       transform="translate(-65.91,-154.573)">
      <path
         d="m 130.423,174.669 c 0.26,-0.619 -0.369,-1.136 -0.883,-1.342 -0.544,-0.313 -1.176,-0.355 -1.785,-0.288 -0.876,-0.006 -1.607,0.559 -2.321,0.993 -0.504,0.307 -0.347,0.931 -0.595,1.38 -0.031,0.46 0.473,0.795 0.866,0.936 0.922,0.183 1.762,0.621 2.646,0.917 0.499,0.214 0.84,-0.276 1.06,-0.646 0.474,-0.49 0.728,-1.126 1.009,-1.734 0.024,-0.068 0.044,-0.149 0.003,-0.217 z"
         class="J K"
         id="path324" />
      <g
         class="G H"
         id="g330">
        <path
           d="m 124.496,175.371 c -0.299,0.396 -0.522,0.871 -0.497,1.378 0.016,0.344 0.111,0.747 0.415,0.946 0.341,0.2 0.75,0.174 1.128,0.231 0.555,0.028 1.132,-0.065 1.665,0.14 0.343,0.044 0.802,0.193 1.083,-0.057 0.157,-0.286 0.089,-0.67 -0.117,-0.914 -0.224,-0.256 0.359,-0.465 -0.004,-0.701 -0.295,-0.238 -0.715,-0.106 -1.058,-0.228 -0.395,-0.08 -0.766,-0.245 -1.099,-0.47 -0.233,-0.202 -0.53,-0.218 -0.811,-0.281 -0.229,-0.13 -0.47,-0.248 -0.705,-0.045 z"
           id="path326" />
        <path
           d="m 130.189,174.123 c -0.293,0.284 -0.477,0.676 -0.84,0.889 -0.353,0.266 -0.728,0.506 -1.049,0.811 -0.365,0.4 -0.939,0.494 -1.328,0.865 -0.248,0.155 -0.346,0.443 -0.565,0.624 -0.188,0.16 -0.624,0.33 -0.398,0.637 0.191,0.242 0.544,0.216 0.803,0.347 0.349,0.12 0.654,0.351 1.012,0.448 0.463,0.108 0.96,0.007 1.352,-0.256 0.62,-0.269 0.997,-0.86 1.415,-1.361 0.171,-0.185 0.208,-0.449 0.331,-0.648 0.186,-0.296 0.234,-0.664 0.241,-1.007 -0.019,-0.374 -0.069,-0.76 -0.225,-1.103 -0.138,-0.216 -0.454,-0.382 -0.706,-0.268 l -0.044,0.024 z"
           id="path328" />
      </g>
    </g>
    <path
       d="m 61.654,19.16 c -0.681,0.137 -1.391,0.401 -1.831,0.961 0.125,0.401 0.729,0.17 0.998,0.454 0.325,0.222 0.677,0.551 1.106,0.423 0.345,-0.171 0.478,-0.58 0.676,-0.889 0.137,-0.312 0.398,-0.557 0.556,-0.845 -0.354,-0.103 -0.781,-0.108 -1.167,-0.198 -0.118,-0.005 -0.242,0.019 -0.337,0.093 z"
       class="I"
       id="path334" />
    <use
       xlink:href="#F"
       class="F G H"
       id="use336"
       x="0"
       y="0"
       width="100%"
       height="100%"
       transform="translate(-65.91,-154.573)" />
    <use
       xlink:href="#G"
       class="L"
       id="use338"
       x="0"
       y="0"
       width="100%"
       height="100%"
       transform="translate(-65.91,-154.573)" />
    <g
       class="F"
       id="g344"
       transform="translate(-65.91,-154.573)">
      <use
         xlink:href="#H"
         class="J K"
         id="use340"
         x="0"
         y="0"
         width="100%"
         height="100%" />
      <use
         xlink:href="#I"
         class="G H"
         id="use342"
         x="0"
         y="0"
         width="100%"
         height="100%" />
    </g>
    <use
       xlink:href="#J"
       class="I"
       id="use346"
       x="0"
       y="0"
       width="100%"
       height="100%"
       transform="translate(-65.91,-154.573)" />
    <g
       transform="matrix(1.111707,0.005554,-0.005833,1.058485,-263.06862,-158.96286)"
       id="g360">
      <use
         xlink:href="#F"
         x="167.799"
         class="F G H"
         id="use348"
         y="0"
         width="100%"
         height="100%" />
      <use
         xlink:href="#G"
         x="167.799"
         class="L"
         id="use350"
         y="0"
         width="100%"
         height="100%" />
      <g
         class="F"
         id="g356">
        <use
           xlink:href="#H"
           x="167.799"
           class="J K"
           id="use352"
           y="0"
           width="100%"
           height="100%" />
        <use
           xlink:href="#I"
           x="167.799"
           class="G H"
           id="use354"
           y="0"
           width="100%"
           height="100%" />
      </g>
      <use
         xlink:href="#J"
         x="167.799"
         class="I"
         id="use358"
         y="0"
         width="100%"
         height="100%" />
    </g>
    <g
       transform="matrix(1.062323,0.278171,-0.254285,1.055537,-201.46176,-230.644)"
       id="g374">
      <use
         xlink:href="#F"
         x="167.799"
         class="F G H"
         id="use362"
         y="0"
         width="100%"
         height="100%" />
      <use
         xlink:href="#G"
         x="167.799"
         class="L"
         id="use364"
         y="0"
         width="100%"
         height="100%" />
      <g
         class="F"
         id="g370">
        <use
           xlink:href="#H"
           x="167.799"
           class="J K"
           id="use366"
           y="0"
           width="100%"
           height="100%" />
        <use
           xlink:href="#I"
           x="167.799"
           class="G H"
           id="use368"
           y="0"
           width="100%"
           height="100%" />
      </g>
      <use
         xlink:href="#J"
         x="167.799"
         class="I"
         id="use372"
         y="0"
         width="100%"
         height="100%" />
    </g>
    <g
       transform="matrix(0.967219,0.519997,-0.495186,0.966236,-130.44818,-277.71759)"
       id="g388">
      <use
         xlink:href="#F"
         x="167.799"
         class="F G H"
         id="use376"
         y="0"
         width="100%"
         height="100%" />
      <use
         xlink:href="#G"
         x="167.799"
         class="L"
         id="use378"
         y="0"
         width="100%"
         height="100%" />
      <g
         class="F"
         id="g384">
        <use
           xlink:href="#H"
           x="167.799"
           class="J K"
           id="use380"
           y="0"
           width="100%"
           height="100%" />
        <use
           xlink:href="#I"
           x="167.799"
           class="G H"
           id="use382"
           y="0"
           width="100%"
           height="100%" />
      </g>
      <use
         xlink:href="#J"
         x="167.799"
         class="I"
         id="use386"
         y="0"
         width="100%"
         height="100%" />
    </g>
    <g
       transform="matrix(0.872278,0.667115,-0.642462,0.87525,-77.16933,-298.16306)"
       id="g402">
      <use
         xlink:href="#F"
         x="167.799"
         class="F G H"
         id="use390"
         y="0"
         width="100%"
         height="100%" />
      <use
         xlink:href="#G"
         x="167.799"
         class="L"
         id="use392"
         y="0"
         width="100%"
         height="100%" />
      <g
         class="F"
         id="g398">
        <use
           xlink:href="#H"
           x="167.799"
           class="J K"
           id="use394"
           y="0"
           width="100%"
           height="100%" />
        <use
           xlink:href="#I"
           x="167.799"
           class="G H"
           id="use396"
           y="0"
           width="100%"
           height="100%" />
      </g>
      <use
         xlink:href="#J"
         x="167.799"
         class="I"
         id="use400"
         y="0"
         width="100%"
         height="100%" />
    </g>
    <g
       transform="matrix(0.74385,0.807835,-0.784067,0.751039,-16.69006,-308.56074)"
       id="g416">
      <use
         xlink:href="#F"
         x="167.799"
         class="F G H"
         id="use404"
         y="0"
         width="100%"
         height="100%" />
      <use
         xlink:href="#G"
         x="167.799"
         class="L"
         id="use406"
         y="0"
         width="100%"
         height="100%" />
      <g
         class="F"
         id="g412">
        <use
           xlink:href="#H"
           x="167.799"
           class="J K"
           id="use408"
           y="0"
           width="100%"
           height="100%" />
        <use
           xlink:href="#I"
           x="167.799"
           class="G H"
           id="use410"
           y="0"
           width="100%"
           height="100%" />
      </g>
      <use
         xlink:href="#J"
         x="167.799"
         class="I"
         id="use414"
         y="0"
         width="100%"
         height="100%" />
    </g>
    <g
       transform="matrix(0.654369,0.88188,-0.859004,0.664027,19.60828,-308.38656)"
       id="g430">
      <use
         xlink:href="#F"
         x="167.799"
         class="F G H"
         id="use418"
         y="0"
         width="100%"
         height="100%" />
      <use
         xlink:href="#G"
         x="167.799"
         class="L"
         id="use420"
         y="0"
         width="100%"
         height="100%" />
      <g
         class="F"
         id="g426">
        <use
           xlink:href="#H"
           x="167.799"
           class="J K"
           id="use422"
           y="0"
           width="100%"
           height="100%" />
        <use
           xlink:href="#I"
           x="167.799"
           class="G H"
           id="use424"
           y="0"
           width="100%"
           height="100%" />
      </g>
      <use
         xlink:href="#J"
         x="167.799"
         class="I"
         id="use428"
         y="0"
         width="100%"
         height="100%" />
    </g>
  </g>
  <g
     id="g1703">
    <g
       class="O"
       id="g436"
       transform="translate(-65.91,-154.573)">
      <path
         d="m 105,229.861 c -10.15,0 -19.893,3.989 -27.129,11.107 l 6.416,5.744 0.565,-0.173 a 29.81,29.81 0 0 1 3.457,-0.804 c 2.429,-0.416 4.841,-0.517 7.233,-0.364 -3.523,-0.225 -7.092,0.099 -10.69,1.167 l 2.05,-2.943 1.886,1.314 c 0.266,-0.298 0.54,-0.59 0.822,-0.872 0.933,-0.933 1.957,-1.771 3.045,-2.515 l -1.071,-2.049 0.016,-0.008 -10e-4,-0.002 2.391,-1.247 2.287,-1.195 0.001,0.002 0.015,-0.008 1.074,2.06 c 1.608,-0.604 3.282,-1.028 4.985,-1.243 v -2.303 h 5.295 v 2.305 c 1.703,0.215 3.38,0.631 4.987,1.236 l 1.072,-2.055 4.694,2.449 -0.002,0.003 0.008,0.004 -1.068,2.044 a 21.34,21.34 0 0 1 3.134,2.606 c 0.254,0.256 0.5,0.52 0.739,0.79 l 1.886,-1.313 2.05,2.943 0.565,0.173 6.417,-5.744 C 124.893,233.852 115.15,229.863 105,229.863 Z"
         fill="#ff0000"
         class="P"
         id="path432" />
      <path
         d="m 95.381,229.076 a 47.11,47.11 0 0 0 -16.152,6.864 c 1.219,0.371 2.704,0.476 1.922,2.848 1.093,-0.134 2.577,0.349 1.755,2.6 a 40.39,40.39 0 0 1 13.848,-5.884 z"
         fill="url(#B)"
         class="M N P Q"
         id="path434"
         style="fill:url(#B)" />
    </g>
    <path
       d="m 22.957,71.911 2.296,6.78 5.59,2.239 -1.373,-6.428 z"
       fill="#bfbfbf"
       class="M N"
       id="path438" />
    <path
       d="m 48.709,74.502 a 47.11,47.11 0 0 1 16.152,6.864 c -1.219,0.371 -2.704,0.476 -1.922,2.848 -1.093,-0.134 -2.577,0.349 -1.755,2.6 A 40.39,40.39 0 0 0 47.336,80.93 Z"
       fill="url(#C)"
       class="M N O P Q"
       id="path440"
       style="fill:url(#C)" />
    <path
       d="m 55.223,71.91 -2.296,6.78 -5.59,2.239 1.373,-6.428 z"
       fill="#bfbfbf"
       class="M N"
       id="path442" />
    <path
       d="m 39.09,69.253 a 50.296,50.296 0 0 0 -16.133,2.658 l 2.297,6.78 c 4.371,-1.489 8.974,-2.293 13.593,-2.319 h 0.224 a 7.119,7.119 0 0 0 0.02,0 c 4.7,0 9.388,0.807 13.836,2.322 L 55.225,71.91 A 50.296,50.296 0 0 0 39.09,69.253 Z"
       class="I M N O P Q"
       id="path444" />
    <path
       d="m 27.976,72.303 1.107,-0.29 0.964,3.684 -0.717,0.188 -0.652,-2.492 Q 28.65,73.286 28.602,73.092 28.553,72.896 28.526,72.791 l 0.112,3.275 -0.747,0.196 -1.502,-2.911 q 0.027,0.105 0.081,0.299 0.053,0.192 0.081,0.299 l 0.652,2.492 -0.717,0.188 -0.964,-3.684 1.12,-0.293 1.428,2.722 z m 3.586,1.659 0.953,-0.16 -0.718,-1.399 z m -0.345,-2.345 0.887,-0.149 1.962,3.532 -0.851,0.143 -0.372,-0.731 -1.384,0.233 -0.13,0.816 -0.82,0.138 z m 0.438,-0.074 z m 5.258,0.604 q -0.118,-0.383 -0.48,-0.512 -0.202,-0.071 -0.442,-0.053 -0.459,0.033 -0.73,0.403 -0.269,0.367 -0.218,1.062 0.051,0.701 0.392,0.969 0.341,0.268 0.748,0.238 0.399,-0.029 0.638,-0.277 0.238,-0.25 0.27,-0.628 l -0.879,0.064 -0.046,-0.634 1.582,-0.115 0.148,2.038 -0.526,0.038 -0.114,-0.468 q -0.21,0.287 -0.385,0.411 -0.3,0.216 -0.759,0.249 -0.755,0.055 -1.275,-0.433 -0.541,-0.489 -0.607,-1.401 -0.067,-0.923 0.4,-1.516 0.467,-0.594 1.302,-0.654 0.724,-0.053 1.189,0.284 0.467,0.334 0.572,0.878 z m -0.982,-1.219 z m 5.619,0.706 -2.015,-0.049 -0.02,0.809 1.849,0.045 -0.016,0.661 -1.849,-0.045 -0.024,0.979 2.108,0.051 -0.017,0.685 -2.885,-0.07 0.092,-3.807 2.792,0.068 z M 45.33,71.329 45.26,72 44.127,71.883 43.804,75.001 43.007,74.918 43.33,71.8 l -1.139,-0.118 0.07,-0.671 z m 0.965,2.581 0.951,0.173 -0.199,-1.56 z m 0.473,-2.322 0.885,0.161 0.643,3.989 -0.849,-0.155 -0.101,-0.814 -1.38,-0.252 -0.4,0.723 -0.818,-0.149 z m 0.437,0.08 z m 2.535,0.511 0.806,0.216 0.776,2.961 0.689,-2.568 0.716,0.192 -0.987,3.678 -0.769,-0.206 -0.801,-3.016 -0.701,2.613 -0.716,-0.192 z m 1.524,0.401 z"
       id="path446" />
    <path
       d="m 36.443,80.956 v 2.303 c -1.703,0.215 -3.378,0.638 -4.985,1.243 l -1.074,-2.06 -0.015,0.008 -0.001,-0.002 -2.287,1.195 -2.391,1.247 10e-4,0.002 -0.016,0.008 1.071,2.049 c -1.088,0.744 -2.112,1.582 -3.045,2.515 l -0.822,0.872 -1.886,-1.314 -2.05,2.944 A 29.81,29.81 0 0 1 22.4,91.162 c 2.429,-0.416 4.841,-0.517 7.233,-0.364 a 16.94,16.94 0 0 1 18.916,0 c 2.267,-0.145 4.552,-0.061 6.852,0.302 l 0.383,0.063 a 29.81,29.81 0 0 1 3.454,0.803 l -2.05,-2.943 -1.886,1.313 -0.739,-0.79 A 21.34,21.34 0 0 0 51.429,86.94 l 1.068,-2.044 -0.008,-0.004 0.002,-0.003 -4.694,-2.449 -1.072,2.055 0.671,0.266 -0.671,-0.266 C 45.117,83.89 43.441,83.474 41.738,83.259 v -2.305 h -5.295 z m 2.024,2.145 -0.141,0.005 z m -0.607,0.027 -0.197,0.013 z m -0.676,0.051 -0.114,0.01 z m 10.63,1.763 0.408,0.184 z m 1.026,0.481 0.435,0.222 z m 0.825,0.433 0.488,0.279 z m -21.193,0.028 -0.076,0.043 z m 22.201,0.566 0.374,0.239 z"
       opacity="0.998"
       class="O"
       id="path448" />
  </g>
  <path
     d="m 39.684,30.111 c 0.269,3.716 -0.448,6.293 -0.795,7.986 -0.345,1.714 0.042,3.239 -0.053,4.925 -0.082,1.453 -0.669,3.071 -0.669,4.498 0,3.404 -1.014,7.978 -3.696,10.999 l 3.791,0.098 0.065,0.378 c 0.049,0.284 -0.593,0.744 -0.536,0.977 l 0.191,3.968 c -0.152,1.09 -0.048,2.127 0.481,2.965 0.516,0.662 0.995,1.672 1.908,1.595 0.56,-0.35 1.447,-0.431 1.693,-1.196 0.203,-1.202 0.017,-1.86 -0.968,-1.835 -0.753,0.078 -1.046,-0.748 -0.928,-1.52 l 0.054,-4.258 c 0.003,-0.252 -0.348,-0.356 -0.483,-0.546 -0.113,-0.185 0.001,-0.37 0.057,-0.555 h 3.111 c -1.749,-2.692 -0.863,-5.91 -1.797,-9.121 -0.512,-1.759 0.384,-5.048 -0.175,-6.432 -0.796,-1.97 -0.667,-2.963 -0.385,-5.061 0.75,-4.178 0.363,-5.472 -0.866,-7.864 z"
     stroke="#f5c742"
     stroke-width="0.452"
     id="path452" />
</svg>
