<?xml version="1.0" encoding="UTF-8" standalone="no"?>
<svg
   xmlns:dc="http://purl.org/dc/elements/1.1/"
   xmlns:cc="http://creativecommons.org/ns#"
   xmlns:rdf="http://www.w3.org/1999/02/22-rdf-syntax-ns#"
   xmlns:svg="http://www.w3.org/2000/svg"
   xmlns="http://www.w3.org/2000/svg"
   xmlns:xlink="http://www.w3.org/1999/xlink"
   xmlns:sodipodi="http://sodipodi.sourceforge.net/DTD/sodipodi-0.dtd"
   xmlns:inkscape="http://www.inkscape.org/namespaces/inkscape"
   width="370.541"
   height="489.936"
   viewBox="0 0 98.039 129.629"
   version="1.1"
   id="svg310"
   sodipodi:docname="Seal_of_Demak_Regency.svg"
   inkscape:version="1.0.1 (3bc2e813f5, 2020-09-07)">
  <metadata
     id="metadata314">
    <rdf:RDF>
      <cc:Work
         rdf:about="">
        <dc:format>image/svg+xml</dc:format>
        <dc:type
           rdf:resource="http://purl.org/dc/dcmitype/StillImage" />
      </cc:Work>
    </rdf:RDF>
  </metadata>
  <sodipodi:namedview
     pagecolor="#ffffff"
     bordercolor="#666666"
     borderopacity="1"
     objecttolerance="10"
     gridtolerance="10"
     guidetolerance="10"
     inkscape:pageopacity="0"
     inkscape:pageshadow="2"
     inkscape:window-width="1366"
     inkscape:window-height="705"
     id="namedview312"
     showgrid="false"
     inkscape:zoom="1.18016"
     inkscape:cx="178.06073"
     inkscape:cy="236.33254"
     inkscape:window-x="-8"
     inkscape:window-y="-8"
     inkscape:window-maximized="1"
     inkscape:current-layer="svg310"
     inkscape:document-rotation="0" />
  <style
     id="style2"><![CDATA[.B{fill:#f5c742}.C{fill:#ffeba3}.D{stroke:#a07843}.E{stroke-width:.465}.F{fill:#fff}.G{fill:#018f50}.H{stroke:#005b31}.I{fill:#00a75d}.J{fill:#dcdcdc}.K{stroke-width:.3}.L{stroke:silver}.M{stroke-width:.265}]]></style>
  <defs
     id="defs26">
    <linearGradient
       id="A"
       y2="202.192"
       gradientUnits="userSpaceOnUse"
       x2="204.556"
       y1="202.192"
       x1="203.308">
      <stop
         stop-color="#ad8900"
         offset="0"
         id="stop4" />
      <stop
         stop-color="#ffd631"
         offset=".382"
         id="stop6" />
      <stop
         stop-color="#fff9c7"
         offset=".505"
         id="stop8" />
      <stop
         stop-color="#ffd631"
         offset=".613"
         id="stop10" />
      <stop
         stop-color="#ad8900"
         offset="1"
         id="stop12" />
    </linearGradient>
    <path
       id="B"
       d="M14.834 200.215c-2.129 0-3.7.471-4.986.928s-2.276.874-3.291.874c-.808 0-1.596-.259-2.537-.601v.936c.834.296 1.644.541 2.537.541 1.27 0 2.361-.485 3.613-.929s2.676-.872 4.664-.872 3.414.428 4.666.872 2.343.929 3.613.929 2.361-.485 3.613-.929 2.676-.872 4.664-.872 3.412.428 4.664.872 2.343.929 3.613.929c1.076 0 2.028-.352 3.051-.725.992-.362 2.061-.753 3.422-.95l.002-.885c-1.537.205-2.732.646-3.754 1.018s-1.861.666-2.721.666c-1.015 0-2.004-.417-3.291-.874s-2.858-.928-4.987-.928-3.702.471-4.988.928-2.274.874-3.289.874-2.005-.417-3.291-.874-2.859-.928-4.988-.928z" />
    <path
       id="C"
       d="M28.922 222.762l1.513-1.286c-.085-1.974.055-5.197 4.864-5.893l1.637-1.684-1.543 1.824c-.268 1.59-.072 4.883-4.818 5.847z" />
    <path
       id="D"
       d="M31.385 219.71c.558-.892-.133-3.042 3.368-3.555-1.389.651-2.476 1.907-3.368 3.555z" />
    <path
       id="E"
       d="M55.524 196.837c-1.039 1.849-1.138 3.801.472 4.605-1.116-2.14-.251-3.345-.472-4.605z" />
    <path
       id="F"
       d="M155.72 205.095l-.083-1.276c3.028-5.44.067-7.07-.301-8.341l-.494-2.043.041 2.116c-2.09 3.823-.073 6.306.731 8.162z" />
    <path
       id="G"
       d="M156.655 205.832l-.564-2.612c1.681-7.545-.407-6.503-.754-7.742l-.236-2.013-.217 2.087c-2.884 3.554-1.098 5.325.433 7.428z" />
    <path
       id="H"
       d="M156.546 205.449l-.263-2.426c2.08-6.19-.575-6.223-.947-7.544l-.236-2.013-.217 2.087c-2.884 3.554-.766 5.3.765 7.403z" />
    <path
       id="I"
       d="M105.638 223.884l5.446-1.99-.863-5.774c-.439-1.487-2.781-2.269-4.291-.491-3.117-1.824-5.499 2.278-2.526 4.326-1.387 2.987 1.268 4.221 2.233 3.929z" />
    <path
       id="J"
       d="M105.911 218.795c2.739.8 4.266-1.637 4.311-2.675 2.714.898 2.396 2.945 2.292 4.911-.136.994.405 1.506 1.123 1.731l-.702.748c-2.137-.77-4.005 3.199-7.296.374.645-.809 1.506-1.691.273-5.09z" />
    <path
       id="K"
       d="M106.659 219.475c1.696.278 3.463-.66 3.952-2.497-.235 1.726.885 2.291-.992 5.424-1.811 1.882-2.151 1.419-2.844 1.521.768-1.731.745-3.462-.116-4.448z" />
    <path
       id="L"
       d="M104.2 219.674c-2.704-1.824-.849-5.03 2.084-3.241.987-1.405 2.871-1.609 2.943-.248-.019 2.906-3.378 1.969-4.266 1.687.578 1.676 1.671 4.002.149 5.093-.982.012-2.05-.342-.91-3.291z" />
  </defs>
  <g
     id="g1284">
    <path
       d="m 1.04,1.039 v 78.675 c 0,18.246 7.046,26.499 16.602,32.225 9.484,5.683 21.484,8.793 31.378,16.39 9.895,-7.597 21.895,-10.707 31.378,-16.39 C 89.954,106.212 97,97.959 97,79.714 V 1.039 H 49.02 Z"
       fill="none"
       stroke="#a9a9a9"
       stroke-width="1.323"
       id="path28"
       style="fill:#ffffff" />
    <path
       d="M 49.02,124.448 C 59.106,117.369 70.392,114.24 78.769,109.22 87.751,103.838 93.83,97.135 93.83,79.714 V 21.786 H 49.02 Z"
       class="B"
       id="path30"
       style="fill:#ffff00" />
    <path
       d="m 4.21,21.786 v 57.928 c 0,17.421 6.079,24.124 15.061,29.506 8.378,5.02 19.663,8.149 29.749,15.228 V 21.786 Z"
       fill="#191970"
       id="path32" />
    <path
       d="M 4.21,4.21 H 93.83 V 18.616 H 4.21 Z"
       opacity="0.997"
       fill-rule="evenodd"
       id="path34" />
    <path
       d="m 11.42,8.044 v 6.737 h 3.17 q 2.433,0 3.393,-1.506 0.525,-0.826 0.525,-1.968 0,-1.576 -0.792,-2.416 -0.781,-0.847 -3.125,-0.847 z m 3.75,-1.793 q 1.529,0.014 2.545,0.224 1.73,0.357 2.801,1.31 0.859,0.77 1.172,1.667 0.312,0.896 0.312,1.709 0,2.059 -1.317,3.487 -1.786,1.926 -5.513,1.926 H 8.083 V 6.252 Z m 21.584,1.828 h -8.705 v 2.192 h 7.991 v 1.793 h -7.991 v 2.654 h 9.107 v 1.856 H 24.69 V 6.252 H 36.754 Z M 50.739,6.252 h 4.944 V 16.574 H 52.48 V 9.592 q 0,-0.301 0.011,-0.84 0.011,-0.546 0.011,-0.84 l -3.114,8.662 H 46.051 L 42.96,7.912 q 0,0.294 0.011,0.84 0.011,0.539 0.011,0.84 v 6.982 H 39.779 V 6.252 h 5 l 2.991,8.116 z m 12.633,6.421 h 4.174 L 65.492,8.611 Z m 0.212,-6.422 h 3.884 l 5.826,10.322 h -3.728 l -1.06,-2.122 h -6.06 l -1.138,2.122 h -3.594 z m 1.92,0 z m 9.933,10e-4 h 3.382 v 4.251 l 6.35,-4.251 h 4.442 l -6.741,4.251 7.087,6.071 h -4.42 l -5.078,-4.51 -1.641,1.057 v 3.452 h -3.382 z"
       opacity="0.99"
       class="B"
       id="path36"
       style="fill:#ffff00" />
  </g>
  <g
     id="g1355">
    <path
       d="m 48.05,28.632 c -4.568,0.033 -5.077,1.694 -6.218,2.791 -4.408,-1.966 -7.341,2.088 -8.971,3.668 -5.532,-1.144 -8.545,3.547 -9.863,6.047 -7.937,2.267 -11.924,14.149 -11.117,16.019 1.221,-1.587 3.627,-2.695 5.889,-1.645 1.294,-0.92 4.099,-2.098 7.02,0.396 3.74,-1.722 8.227,-2.416 13.226,-0.595 2.63,-1.092 8.138,-2.337 11.003,0.694 2.865,-3.031 8.374,-1.786 11.003,-0.694 4.999,-1.821 9.486,-1.127 13.226,0.595 2.921,-2.494 5.726,-1.317 7.02,-0.396 2.262,-1.05 4.667,0.058 5.889,1.645 0.807,-1.869 -3.18,-13.752 -11.117,-16.019 -1.318,-2.499 -4.331,-7.19 -9.863,-6.047 -1.63,-1.58 -4.563,-5.634 -8.971,-3.668 -1.217,-1.17 -1.716,-2.982 -7.187,-2.776 -0.342,-0.013 -0.664,-0.018 -0.969,-0.016 z"
       stroke-width="0.765"
       class="G H"
       id="path38" />
    <path
       d="m 23.742,42.229 c -3.867,0.94 -6.911,4.233 -7.948,8.019 1.795,1.702 3.436,-2.571 5.573,-2.319 2.891,0.116 4.044,-2.662 5.983,-4.2 2.017,-1.384 4.593,0.288 6.747,-0.804 2.356,-1.31 4.858,-2.725 7.601,-3.012 2.82,0.723 5.805,2.479 8.698,0.824 2.599,-1.252 5.777,-1.409 7.596,1.187 1.937,2.295 4.971,1.651 7.582,1.94 2.52,0.423 4.841,1.73 6.793,3.315 2.403,0.433 4.768,0.902 6.748,2.488 0.933,0.41 4.731,3.052 2.775,1.029 -1.023,-2.408 -2.598,-4.37 -4.652,-5.966 -1.841,-1.388 -3.761,-2.646 -4.516,-4.971 -1.566,-3.19 -5.506,-3.417 -8.593,-3.845 -2.381,-2.214 -5.192,-3.867 -8.483,-3.674 -2.055,-1.859 -4.442,-3.005 -7.285,-2.567 -2.751,-0.606 -4.28,1.956 -6.623,2.626 -2.024,0.529 -4.95,-1.434 -5.939,1.413 -0.794,2.522 -4.008,2.525 -6.184,2.89 -2.181,0.596 -4.053,2.165 -4.762,4.344 -0.286,0.492 -0.648,0.949 -1.113,1.284 z"
       class="I"
       id="path40" />
  </g>
  <g
     id="g1322">
    <path
       d="m 55.056,27.481 0.007,-0.005 -4.492,0.01 H 50.56 l -1.542,-4.4 -0.007,0.021 -1.526,4.373 -0.003,0.007 -4.505,-0.01 0.023,0.017 3.599,2.661 -1.315,4.423 0.028,-0.019 3.699,-2.66 0.007,-0.005 3.738,2.523 -0.003,-0.008 -1.375,-4.301 h 10e-4 z"
       class="F"
       id="path44" />
    <path
       fill="#a07843"
       d="m 45.284,34.844 c -0.054,0 -0.108,-0.016 -0.155,-0.049 -0.093,-0.066 -0.134,-0.184 -0.101,-0.294 l 1.261,-4.244 -3.471,-2.566 c -0.093,-0.068 -0.131,-0.189 -0.095,-0.298 0.036,-0.109 0.138,-0.183 0.253,-0.183 h 10e-4 l 4.316,0.01 1.473,-4.221 c 0.037,-0.107 0.138,-0.179 0.252,-0.179 v 0 c 0.113,0 0.214,0.072 0.252,0.179 l 1.479,4.221 4.313,-0.01 h 0.001 c 0.116,0 0.219,0.075 0.254,0.185 0.035,0.11 -0.004,0.231 -0.099,0.299 l -3.526,2.517 1.307,4.088 c 0.017,0.035 0.026,0.074 0.026,0.116 0,0.147 -0.119,0.267 -0.267,0.267 -0.024,0 -0.048,-0.003 -0.07,-0.01 a 0.25,0.25 0 0 1 -0.082,-0.036 l -3.583,-2.418 -3.583,2.576 a 0.26,0.26 0 0 1 -0.155,0.049 z m -1.494,-7.098 2.967,2.194 c 0.09,0.067 0.129,0.183 0.097,0.291 l -1.092,3.674 3.093,-2.224 c 0.091,-0.065 0.22,-0.072 0.312,-0.01 l 3.099,2.092 -1.143,-3.575 c -0.035,-0.11 0.004,-0.229 0.097,-0.297 l 3.006,-2.145 -3.656,0.008 h -10e-4 a 0.28,0.28 0 0 1 -0.262,-0.179 l -1.289,-3.68 -1.282,3.673 c -0.037,0.107 -0.141,0.186 -0.254,0.186 h -10e-4 l -3.692,-0.008 z"
       id="path46" />
    <path
       d="m 52.753,34.407 -3.742,-5.035 v 2.525 l 0.007,-0.005 3.738,2.523 z m -7.469,0.17 0.028,-0.019 3.687,-5.181 -2.4,0.777 z"
       class="B"
       id="path64" />
    <path
       d="m 43,27.493 3.6,2.655 -0.001,0.006"
       class="C"
       id="path42" />
    <path
       d="M 50.571,27.486 H 50.56 l -1.542,-4.4 -0.007,0.021 v 6.261 z"
       class="B"
       id="path48" />
    <path
       d="M 49.011,29.373 V 29.368 L 43,27.494 l 3.6,2.655 -0.001,0.006 z"
       id="path50"
       style="fill:#ffeba3" />
    <path
       d="m 49.011,23.107 -1.526,4.373 1.522,1.887 0.004,10e-4 z"
       id="path52"
       style="fill:#ffeba3" />
    <path
       d="M 49.007,29.367 47.485,27.48 47.482,27.487 42.977,27.477 43,27.494 Z"
       class="B"
       id="path56" />
    <path
       d="m 50.571,27.486 -1.555,1.877 6.04,-1.882 0.007,-0.005 z"
       class="C"
       id="path58" />
    <path
       d="m 55.056,27.481 -6.04,1.882 -0.004,0.004 v 0 l 2.368,0.738 z"
       class="B"
       id="path60" />
    <path
       d="m 52.753,34.407 -1.375,-4.301 h 10e-4 l -2.368,-0.738 v 0.005 z"
       class="C"
       id="path62" />
    <path
       d="m 49.011,31.898 v -2.525 l -0.012,0.004 -3.687,5.181 z"
       class="C"
       id="path66" />
  </g>
  <g
     id="g1719">
    <path
       d="m 26.395,43.871 c -6.194,18.44 0.683,29.247 2.392,34.987 l 51.449,2.245 C 76.066,73.483 62.767,59.472 75.805,32.289 Z"
       class="J"
       id="path74" />
    <path
       d="m 71.745,35.826 -43.31,10.152 c -2.499,8.152 -2.367,14.568 -1.338,19.65 0.915,4.522 2.402,7.824 3.473,10.787 l 45.045,1.965 c -2.174,-3.421 -4.772,-7.653 -6.469,-13.664 -2.095,-7.422 -2.032,-17.078 2.6,-28.891 z"
       fill="#eaeaea"
       id="path76" />
    <path
       d="M 23.361,44.582 84.877,30.162"
       fill="none"
       stroke="#696969"
       stroke-width="1.565"
       stroke-linecap="round"
       id="path72" />
    <path
       d="m 66.88,40.078 -35.998,8.439 c -1.832,6.839 -1.693,12.188 -0.818,16.51 0.668,3.299 1.685,5.909 2.664,8.453 l 37.488,1.635 C 68.747,72.374 67.278,69.253 66.23,65.539 64.299,58.697 63.931,50.146 66.88,40.078 Z"
       fill="#f3f3f3"
       id="path78" />
    <path
       d="m 63.649,43.412 -30.742,7.207 c -1.334,5.747 -1.132,10.207 -0.383,13.91 0.496,2.449 1.228,4.492 2.004,6.516 l 31.545,1.377 C 65.24,70.513 64.448,68.463 63.815,66.221 62.043,59.942 61.768,52.173 63.649,43.412 Z"
       fill="#fafafa"
       id="path80" />
    <g
       id="g1672">
      <path
         d="m 19.632,76.636 -0.783,1.403 5.297,2.304 0.538,-0.702 9.328,4.529 1.885,7.276 H 72.918 V 88.118 H 63.353 L 61.95,84.61 43.736,84.269 21.313,76.166 Z"
         fill="#1d1d1d"
         id="path68" />
      <path
         d="m 30.77,81.359 c 4.117,1.494 7.665,3.873 11.82,5.279 4.824,0.774 9.786,0.36 14.672,0.502 1.54,0.279 4.21,-2.416 1.121,-1.656 -4.203,0.024 -8.441,0.202 -12.621,-0.179 -4.488,-0.519 -8.447,-2.381 -12.643,-3.616 -0.762,-0.186 -1.552,-0.308 -2.349,-0.33 z"
         fill="#3d3d3d"
         id="path70" />
      <path
         d="m 41.608,89.566 c -2.129,0 -3.7,0.471 -4.986,0.928 -1.286,0.457 -2.276,0.874 -3.291,0.874 -0.808,0 -1.596,-0.259 -2.537,-0.601 v 8.271 c 0.834,0.296 1.644,0.541 2.537,0.541 1.27,0 2.361,-0.485 3.613,-0.929 1.252,-0.444 2.676,-0.872 4.664,-0.872 1.988,0 3.414,0.428 4.666,0.872 1.252,0.444 2.343,0.929 3.613,0.929 1.27,0 2.361,-0.485 3.613,-0.929 1.252,-0.444 2.676,-0.872 4.664,-0.872 1.988,0 3.412,0.428 4.664,0.872 1.252,0.444 2.343,0.929 3.613,0.929 1.076,0 2.028,-0.352 3.051,-0.725 0.992,-0.362 2.061,-0.753 3.422,-0.95 l 0.002,-8.22 c -1.537,0.205 -2.732,0.646 -3.754,1.018 -1.022,0.372 -1.861,0.666 -2.721,0.666 -1.015,0 -2.004,-0.417 -3.291,-0.874 -1.287,-0.457 -2.858,-0.928 -4.987,-0.928 -2.129,0 -3.702,0.471 -4.988,0.928 -1.286,0.457 -2.274,0.874 -3.289,0.874 -1.015,0 -2.005,-0.417 -3.291,-0.874 -1.286,-0.457 -2.859,-0.928 -4.988,-0.928 z"
         fill="#3d88c8"
         id="path84" />
      <use
         xlink:href="#B"
         id="use86"
         x="0"
         y="0"
         width="100%"
         height="100%"
         style="fill:#ffffff"
         transform="translate(26.774,-110.649)" />
      <use
         xlink:href="#B"
         y="1.7589999"
         id="use88"
         x="0"
         width="100%"
         height="100%"
         style="fill:#ffffff"
         transform="translate(26.774,-110.649)" />
      <use
         xlink:href="#B"
         y="3.6170001"
         id="use90"
         x="0"
         width="100%"
         height="100%"
         style="fill:#ffffff"
         transform="translate(26.774,-110.649)" />
      <use
         xlink:href="#B"
         y="5.4759998"
         id="use92"
         x="0"
         width="100%"
         height="100%"
         style="fill:#ffffff"
         transform="translate(26.774,-110.649)" />
      <use
         xlink:href="#B"
         y="7.335"
         id="use94"
         x="0"
         width="100%"
         height="100%"
         style="fill:#ffffff"
         transform="translate(26.774,-110.649)" />
    </g>
    <path
       d="m 58.849,48.414 -22.744,5.332 c -0.667,4.063 -0.441,7.268 0.119,10.035 0.27,1.333 0.711,2.451 1.117,3.611 l 23.264,1.014 c -0.127,-0.41 -0.303,-0.74 -0.422,-1.16 C 58.66,61.849 58.056,55.477 58.849,48.414 Z"
       class="F"
       id="path82" />
  </g>
  <path
     d="m 49.02,34.892 -8.188,9.471 c -0.784,0.735 -1.585,2.178 -3.967,1.666 l -0.645,0.612 0.562,0.703 h 12.237 12.237 l 0.562,-0.703 -0.645,-0.612 c -2.382,0.512 -3.182,-0.931 -3.967,-1.666 z m -9.287,14.023 0.713,0.868 -3.922,4.052 c -0.948,0.984 -3.432,2.405 -5.232,1.397 l 0.595,1.588 h 17.132 17.132 l 0.595,-1.588 C 64.947,56.24 62.462,54.82 61.514,53.835 l -3.922,-4.052 0.713,-0.868 h -9.287 z m -9.05,9.27 0.246,1.032 c 2.013,-0.276 2.531,1.503 2.53,2.497 l 15.561,-0.022 15.561,0.022 c -0.001,-0.994 0.517,-2.773 2.53,-2.497 l 0.246,-1.032 H 49.02 Z m -1.771,4.786 c -3.64,2.961 -7.702,4.692 -12.832,3.307 l 0.992,3.506 c 11.31,1.04 11.436,7.249 11.84,13.096 h 2.841 v -8.428 c 0,-2.816 0.386,-2.816 1.066,-3.742 0.679,0.926 1.066,0.926 1.066,3.742 v 8.428 h 1.609 v -8.428 c 0,-2.816 0.496,-2.816 1.03,-3.742 0.535,0.926 1.03,0.926 1.03,3.742 v 8.428 h 1.447 v -8.428 c 0,-2.816 0.511,-2.816 1.046,-3.742 0.535,0.926 1.046,0.926 1.046,3.742 v 8.428 h 1.761 V 71.636 c 0,-2.907 0.018,-3.953 1.899,-7.21 1.95,3.378 2.105,4.347 2.084,7.21 v 11.873 h 1.158 v -8.698 c -0.1,-1.711 0.634,-2.912 1.025,-3.44 0.391,0.528 1.125,1.728 1.025,3.44 v 8.698 h 1.158 V 71.636 c -0.021,-2.863 0.133,-3.832 2.084,-7.21 1.881,3.257 1.899,4.303 1.899,7.21 V 82.88 h 1.761 v -8.428 c 0,-2.816 0.511,-2.816 1.046,-3.742 0.535,0.926 1.046,0.926 1.046,3.742 v 8.428 h 1.447 v -8.428 c 0,-2.816 0.496,-2.816 1.03,-3.742 0.535,0.926 1.03,0.926 1.03,3.742 v 8.428 h 1.611 v -8.428 c 0,-2.816 0.386,-2.816 1.066,-3.742 0.679,0.926 1.066,0.926 1.066,3.742 v 8.428 h 2.841 c 0.404,-5.848 0.53,-12.056 11.84,-13.096 l 0.992,-3.506 C 76.832,67.663 72.77,65.932 69.13,62.971 H 49.02 Z"
     id="path98" />
  <path
     d="m 49.02,32.448 c -2.144,3.906 -1.354,5.308 -0.454,6.579 h 0.908 c 0.904,-1.275 1.699,-2.658 -0.454,-6.579 z"
     stroke="#dcdcdc"
     class="F M"
     id="path100" />
  <path
     d="m 49.02,33.652 c -0.785,2.5 -0.243,4.207 0,5.1 0.243,-0.893 0.785,-2.599 0,-5.1 z"
     fill="#a9a9a9"
     id="path102" />
  <g
     transform="matrix(1.924051,0,0,1,-178.00242,-110.649)"
     id="g112">
    <path
       d="m 118.616,194.855 c 0,0 -0.231,-0.32 -0.271,-0.487 -0.04,-0.167 -0.03,-2.394 -0.071,-2.742 -0.041,-0.348 0.171,-0.682 0.171,-0.682 h -0.908 c 0,0 0.211,0.334 0.171,0.682 -0.04,0.348 -0.031,2.574 -0.071,2.742 -0.04,0.168 -0.271,0.487 -0.271,0.487 h 1.252 z"
       class="F"
       id="path104" />
    <path
       fill="#a07843"
       d="m 118.532,195.13 h -1.08 c -0.089,0 -0.171,-0.058 -0.212,-0.15 -0.041,-0.092 -0.033,-0.203 0.019,-0.287 0.081,-0.131 0.182,-0.323 0.196,-0.39 0.012,-0.091 0.018,-0.737 0.024,-1.256 l 0.032,-42.721 c 0.024,-0.24 -0.111,-0.5 -0.112,-0.503 -0.046,-0.085 -0.049,-0.192 -0.007,-0.28 0.042,-0.088 0.122,-0.142 0.208,-0.142 h 0.785 c 0.087,0 0.166,0.054 0.208,0.142 0.042,0.088 0.039,0.195 -0.007,0.28 -0.038,0.071 -0.132,0.301 -0.112,0.504 0.018,0.173 0.024,41.955 0.032,42.718 l 0.026,1.268 c 0.012,0.056 0.112,0.249 0.194,0.379 0.052,0.084 0.06,0.195 0.019,0.287 -0.041,0.092 -0.124,0.15 -0.213,0.15 z m -0.66,-0.551 h 0.24 c -0.02,-0.052 -0.036,-0.102 -0.046,-0.148 -0.02,-0.099 -0.026,-0.399 -0.037,-1.379 L 118,150.39 a 1.43,1.43 0 0 1 0.03,-0.439 h -0.077 c 0.029,0.13 0.046,0.281 0.03,0.438 -0.016,0.157 -0.023,42.085 -0.029,42.665 -0.01,0.979 -0.016,1.278 -0.037,1.378 -0.007,0.045 -0.024,0.096 -0.044,0.147 z"
       id="path106" />
    <path
       fill="url(#A)"
       d="m 204.556,204.148 c 0,0 -0.231,-0.32 -0.271,-0.487 -0.04,-0.167 -0.03,-43.662 -0.071,-44.01 -0.041,-0.348 0.171,-0.682 0.171,-0.682 h -0.908 c 0,0 0.211,0.334 0.171,0.682 -0.04,0.348 -0.031,43.842 -0.071,44.01 -0.04,0.168 -0.271,0.487 -0.271,0.487 h 1.252 z"
       transform="translate(-85.94,-9.293)"
       id="path108"
       style="fill:url(#A)" />
    <path
       d="m 117.704,150.535 h 0.575 m -0.579,0.495 h 0.584 m -0.586,0.48 h 0.588 m -0.59,0.462 h 0.591"
       fill="none"
       class="D M"
       id="path110" />
  </g>
  <g
     id="g1653">
    <g
       id="g1504">
      <use
         xlink:href="#C"
         x="99.736"
         class="B D M"
         id="use124"
         y="0"
         width="100%"
         height="100%"
         transform="matrix(1.004982,-0.27886,0.288793,0.960345,-123.62797,-71.097957)" />
      <use
         xlink:href="#D"
         x="99.736"
         class="C"
         id="use126"
         y="0"
         width="100%"
         height="100%"
         transform="matrix(1.004982,-0.27886,0.288793,0.960345,-123.62797,-71.097957)" />
      <use
         xlink:href="#C"
         class="B D M"
         id="use114"
         x="0"
         y="0"
         width="100%"
         height="100%"
         transform="translate(26.774,-110.649)" />
      <use
         xlink:href="#D"
         class="C"
         id="use116"
         x="0"
         y="0"
         width="100%"
         height="100%"
         transform="translate(26.774,-110.649)" />
      <g
         transform="matrix(0.964803,-0.084251,0.084875,0.957718,-80.71991,-92.344019)"
         id="g122">
        <use
           xlink:href="#C"
           x="99.736"
           class="B D M"
           id="use118"
           y="0"
           width="100%"
           height="100%" />
        <use
           xlink:href="#D"
           x="99.736"
           class="C"
           id="use120"
           y="0"
           width="100%"
           height="100%" />
      </g>
      <g
         transform="matrix(0.937939,-0.456094,0.457787,0.892242,-146.25308,-37.953562)"
         id="g134">
        <path
           d="m 128.688,223.315 1.225,-1.563 c 0.556,-2.048 0.888,-5.869 5.424,-6.534 l 1.336,-1.319 -1.242,1.459 c -0.312,1.539 -0.94,5.171 -5.377,6.487 z"
           class="B D M"
           id="path130" />
        <use
           xlink:href="#D"
           x="99.736"
           class="C"
           id="use132"
           y="0"
           width="100%"
           height="100%" />
      </g>
      <path
         d="M 82.758,94.446 82.675,93.17 c 3.358,-4.506 0.491,-5.87 -0.301,-8.341 l -0.494,-2.043 0.041,2.116 c -2.09,3.823 -0.073,6.306 0.731,8.162 z"
         class="B D E"
         id="path136" />
      <use
         xlink:href="#E"
         class="C"
         id="use138"
         x="0"
         y="0"
         width="100%"
         height="100%"
         transform="translate(26.774,-110.649)" />
      <g
         transform="matrix(0.846133,-0.121421,0.113525,0.928492,-69.814575,-84.007361)"
         id="g144">
        <path
           d="m 155.701,205.445 -0.063,-1.626 c 3.028,-5.44 0.067,-7.07 -0.301,-8.341 l -0.494,-2.043 0.041,2.116 c -2.09,3.823 -0.073,6.306 0.731,8.162 z"
           class="B D E"
           id="path140" />
        <use
           xlink:href="#E"
           x="99.736"
           class="C"
           id="use142"
           y="0"
           width="100%"
           height="100%" />
      </g>
      <g
         transform="matrix(0.669749,-0.1693,0.172086,0.732263,-52.989953,-44.574328)"
         id="g150">
        <use
           xlink:href="#F"
           class="B D E"
           id="use146"
           x="0"
           y="0"
           width="100%"
           height="100%" />
        <use
           xlink:href="#E"
           x="99.736"
           class="C"
           id="use148"
           y="0"
           width="100%"
           height="100%" />
      </g>
      <g
         transform="matrix(0.669749,-0.1693,0.172086,0.732263,-52.381915,-50.046672)"
         id="g156">
        <use
           xlink:href="#F"
           class="B D E"
           id="use152"
           x="0"
           y="0"
           width="100%"
           height="100%" />
        <use
           xlink:href="#E"
           x="99.736"
           class="C"
           id="use154"
           y="0"
           width="100%"
           height="100%" />
      </g>
      <g
         transform="matrix(-0.62515,-0.293961,-0.308621,0.685985,247.72851,-19.594244)"
         id="g162">
        <use
           xlink:href="#F"
           class="B D E"
           id="use158"
           x="0"
           y="0"
           width="100%"
           height="100%" />
        <use
           xlink:href="#E"
           x="99.736"
           class="C"
           id="use160"
           y="0"
           width="100%"
           height="100%" />
      </g>
      <g
         transform="matrix(-0.61127,-0.341715,-0.341013,0.659344,251.74642,-1.77248)"
         id="g168">
        <use
           xlink:href="#F"
           class="B D E"
           id="use164"
           x="0"
           y="0"
           width="100%"
           height="100%" />
        <use
           xlink:href="#E"
           x="99.736"
           class="C"
           id="use166"
           y="0"
           width="100%"
           height="100%" />
      </g>
      <g
         transform="matrix(-0.770313,-0.370541,-0.387809,0.851229,285.73124,-28.793964)"
         id="g174">
        <use
           xlink:href="#G"
           class="B D E"
           id="use170"
           x="0"
           y="0"
           width="100%"
           height="100%" />
        <use
           xlink:href="#E"
           x="99.736"
           class="C"
           id="use172"
           y="0"
           width="100%"
           height="100%" />
      </g>
      <g
         transform="matrix(-0.731792,-0.549322,-0.536085,0.882974,307.20865,0.84636)"
         id="g180">
        <use
           xlink:href="#G"
           class="B D E"
           id="use176"
           x="0"
           y="0"
           width="100%"
           height="100%" />
        <use
           xlink:href="#E"
           x="99.736"
           class="C"
           id="use178"
           y="0"
           width="100%"
           height="100%" />
      </g>
      <g
         transform="matrix(-0.516982,-0.754986,-0.790931,0.664424,320.96529,84.25027)"
         id="g186">
        <use
           xlink:href="#G"
           class="B D E"
           id="use182"
           x="0"
           y="0"
           width="100%"
           height="100%" />
        <use
           xlink:href="#E"
           x="99.736"
           class="C"
           id="use184"
           y="0"
           width="100%"
           height="100%" />
      </g>
      <g
         transform="matrix(-0.214151,-0.889614,-0.97572,0.339119,305.63409,175.33224)"
         id="g192">
        <path
           d="m 155.892,205.389 0.392,-2.367 c 2.08,-6.19 -0.575,-6.223 -0.947,-7.544 l -0.236,-2.013 -0.217,2.087 c -2.884,3.554 -0.766,5.3 0.765,7.403 z"
           class="B D E"
           id="path188" />
        <use
           xlink:href="#E"
           x="99.736"
           class="C"
           id="use190"
           y="0"
           width="100%"
           height="100%" />
      </g>
      <g
         transform="matrix(-0.214151,-0.889614,-0.97572,0.339119,299.58175,179.33406)"
         id="g198">
        <use
           xlink:href="#H"
           class="B D E"
           id="use194"
           x="0"
           y="0"
           width="100%"
           height="100%" />
        <use
           xlink:href="#E"
           x="99.736"
           class="C"
           id="use196"
           y="0"
           width="100%"
           height="100%" />
      </g>
      <g
         transform="matrix(-0.04381,-0.911025,-1.149188,0.144553,299.80855,225.36058)"
         id="g204">
        <use
           xlink:href="#H"
           class="B D E"
           id="use200"
           x="0"
           y="0"
           width="100%"
           height="100%" />
        <use
           xlink:href="#E"
           x="99.736"
           class="C"
           id="use202"
           y="0"
           width="100%"
           height="100%" />
      </g>
      <path
         d="m 87.92,67.535 c -2.052,9.558 -0.237,18.964 -6.156,28.675 -2.009,3.296 -5.67,10.755 -26.068,15.903 -4.061,0.989 -8.743,2.74 -11.74,6.548 l 1.357,1.263 c 1.697,-1.447 1.613,-4.49 11.085,-7.063 18.807,-4.478 23.599,-12.314 25.966,-16.487 5.215,-9.194 3.728,-19.223 5.556,-28.84 z"
         opacity="0.997"
         class="B D K"
         id="path206" />
      <g
         transform="matrix(-0.684695,0.086581,0.09503,0.849916,175.09696,-119.00789)"
         id="g212">
        <use
           xlink:href="#F"
           class="B D E"
           id="use208"
           x="0"
           y="0"
           width="100%"
           height="100%" />
        <use
           xlink:href="#E"
           x="99.736"
           class="C"
           id="use210"
           y="0"
           width="100%"
           height="100%" />
      </g>
    </g>
    <g
       id="g1553">
      <g
         transform="matrix(0.359373,0.586684,-0.586684,0.359373,100.97553,-77.431051)"
         id="g224">
        <g
           class="K"
           id="g218">
          <use
             xlink:href="#I"
             class="J L"
             id="use214"
             x="0"
             y="0"
             width="100%"
             height="100%" />
          <use
             xlink:href="#J"
             class="G H"
             id="use216"
             x="0"
             y="0"
             width="100%"
             height="100%" />
        </g>
        <use
           xlink:href="#K"
           class="I"
           id="use220"
           x="0"
           y="0"
           width="100%"
           height="100%" />
        <use
           xlink:href="#L"
           class="F"
           id="use222"
           x="0"
           y="0"
           width="100%"
           height="100%" />
      </g>
      <g
         transform="matrix(0.374074,0.610683,-0.610683,0.374074,104.29945,-76.796767)"
         id="g236">
        <g
           class="K"
           id="g230">
          <use
             xlink:href="#I"
             class="J L"
             id="use226"
             x="0"
             y="0"
             width="100%"
             height="100%" />
          <use
             xlink:href="#J"
             class="G H"
             id="use228"
             x="0"
             y="0"
             width="100%"
             height="100%" />
        </g>
        <use
           xlink:href="#K"
           class="I"
           id="use232"
           x="0"
           y="0"
           width="100%"
           height="100%" />
        <use
           xlink:href="#L"
           class="F"
           id="use234"
           x="0"
           y="0"
           width="100%"
           height="100%" />
      </g>
      <g
         transform="matrix(0.490016,0.575015,-0.575015,0.490016,84.77301,-90.799017)"
         id="g248">
        <g
           class="K"
           id="g242">
          <use
             xlink:href="#I"
             class="J L"
             id="use238"
             x="0"
             y="0"
             width="100%"
             height="100%" />
          <use
             xlink:href="#J"
             class="G H"
             id="use240"
             x="0"
             y="0"
             width="100%"
             height="100%" />
        </g>
        <use
           xlink:href="#K"
           class="I"
           id="use244"
           x="0"
           y="0"
           width="100%"
           height="100%" />
        <use
           xlink:href="#L"
           class="F"
           id="use246"
           x="0"
           y="0"
           width="100%"
           height="100%" />
      </g>
      <g
         transform="matrix(0.590096,0.512207,-0.512207,0.590096,61.15884,-98.269461)"
         id="g260">
        <g
           class="K"
           id="g254">
          <use
             xlink:href="#I"
             class="J L"
             id="use250"
             x="0"
             y="0"
             width="100%"
             height="100%" />
          <use
             xlink:href="#J"
             class="G H"
             id="use252"
             x="0"
             y="0"
             width="100%"
             height="100%" />
        </g>
        <use
           xlink:href="#K"
           class="I"
           id="use256"
           x="0"
           y="0"
           width="100%"
           height="100%" />
        <use
           xlink:href="#L"
           class="F"
           id="use258"
           x="0"
           y="0"
           width="100%"
           height="100%" />
      </g>
      <g
         transform="matrix(0.734342,0.422162,-0.422162,0.734342,28.56779,-113.12098)"
         id="g272">
        <g
           class="K"
           id="g266">
          <use
             xlink:href="#I"
             class="J L"
             id="use262"
             x="0"
             y="0"
             width="100%"
             height="100%" />
          <use
             xlink:href="#J"
             class="G H"
             id="use264"
             x="0"
             y="0"
             width="100%"
             height="100%" />
        </g>
        <use
           xlink:href="#K"
           class="I"
           id="use268"
           x="0"
           y="0"
           width="100%"
           height="100%" />
        <use
           xlink:href="#L"
           class="F"
           id="use270"
           x="0"
           y="0"
           width="100%"
           height="100%" />
      </g>
      <g
         transform="matrix(0.869945,0.272704,-0.283352,0.837254,-11.367107,-113.16107)"
         id="g284">
        <g
           class="K"
           id="g278">
          <use
             xlink:href="#I"
             class="J L"
             id="use274"
             x="0"
             y="0"
             width="100%"
             height="100%" />
          <use
             xlink:href="#J"
             class="G H"
             id="use276"
             x="0"
             y="0"
             width="100%"
             height="100%" />
        </g>
        <use
           xlink:href="#K"
           class="I"
           id="use280"
           x="0"
           y="0"
           width="100%"
           height="100%" />
        <use
           xlink:href="#L"
           class="F"
           id="use282"
           x="0"
           y="0"
           width="100%"
           height="100%" />
      </g>
      <g
         transform="matrix(0.973595,0.014725,-0.035566,0.943362,-69.758312,-103.30795)"
         id="g296">
        <g
           class="K"
           id="g290">
          <use
             xlink:href="#I"
             class="J L"
             id="use286"
             x="0"
             y="0"
             width="100%"
             height="100%" />
          <use
             xlink:href="#J"
             class="G H"
             id="use288"
             x="0"
             y="0"
             width="100%"
             height="100%" />
        </g>
        <use
           xlink:href="#K"
           class="I"
           id="use292"
           x="0"
           y="0"
           width="100%"
           height="100%" />
        <use
           xlink:href="#L"
           class="F"
           id="use294"
           x="0"
           y="0"
           width="100%"
           height="100%" />
      </g>
      <g
         class="K"
         id="g302"
         transform="translate(26.774,-110.649)">
        <use
           xlink:href="#I"
           x="-99.736"
           class="J L"
           id="use298"
           y="0"
           width="100%"
           height="100%" />
        <path
           d="m 6.175,218.795 c 2.739,0.8 4.266,-1.637 4.311,-2.675 2.714,0.898 2.396,2.945 2.292,4.911 -0.136,0.994 0.405,1.506 1.123,1.731 4.061,0.989 8.743,2.741 11.74,6.548 l -1.356,1.263 c -1.697,-1.447 -1.612,-4.49 -11.085,-7.063 -2.137,-0.77 -4.005,3.199 -7.296,0.374 0.645,-0.809 1.506,-1.691 0.273,-5.09 z"
           class="G H"
           id="path300" />
      </g>
      <use
         xlink:href="#K"
         x="-99.736"
         class="I"
         id="use304"
         y="0"
         width="100%"
         height="100%"
         transform="translate(26.774,-110.649)" />
      <use
         xlink:href="#L"
         x="-99.736"
         class="F"
         id="use306"
         y="0"
         width="100%"
         height="100%"
         transform="translate(26.774,-110.649)" />
    </g>
  </g>
</svg>
