<?xml version="1.0" encoding="UTF-8" standalone="no"?>
<svg
   xmlns:dc="http://purl.org/dc/elements/1.1/"
   xmlns:cc="http://creativecommons.org/ns#"
   xmlns:rdf="http://www.w3.org/1999/02/22-rdf-syntax-ns#"
   xmlns:svg="http://www.w3.org/2000/svg"
   xmlns="http://www.w3.org/2000/svg"
   xmlns:sodipodi="http://sodipodi.sourceforge.net/DTD/sodipodi-0.dtd"
   xmlns:inkscape="http://www.inkscape.org/namespaces/inkscape"
   width="468.393"
   height="585.369"
   viewBox="0 0 123.929 154.879"
   version="1.1"
   id="svg441"
   sodipodi:docname="Seal of Batang Regency.svg"
   inkscape:version="1.0.1 (3bc2e813f5, 2020-09-07)">
  <metadata
     id="metadata445">
    <rdf:RDF>
      <cc:Work
         rdf:about="">
        <dc:format>image/svg+xml</dc:format>
        <dc:type
           rdf:resource="http://purl.org/dc/dcmitype/StillImage" />
      </cc:Work>
    </rdf:RDF>
  </metadata>
  <sodipodi:namedview
     pagecolor="#ffffff"
     bordercolor="#666666"
     borderopacity="1"
     objecttolerance="10"
     gridtolerance="10"
     guidetolerance="10"
     inkscape:pageopacity="0"
     inkscape:pageshadow="2"
     inkscape:window-width="1366"
     inkscape:window-height="705"
     id="namedview443"
     showgrid="false"
     inkscape:zoom="0.76863473"
     inkscape:cx="386.17784"
     inkscape:cy="278.67405"
     inkscape:window-x="-8"
     inkscape:window-y="-8"
     inkscape:window-maximized="1"
     inkscape:current-layer="svg441" />
  <style
     id="style2"><![CDATA[.e{opacity:.999}.f{stroke:#696969}.g{fill:#03925f}.h{stroke:#027049}.i{stroke-width:.265}.j{fill:none}.k{fill:#027049}.l{fill:#fff}.m{fill:#a7a7a7}.n{fill:#d9d9d9}.o{stroke:gray}.p{fill:#393939}.q{fill:#04af72}.r{fill:#ffeba3}.s{stroke-width:.45}.t{fill:#f5c742}.u{opacity:.991}.v{stroke-width:.05}.w{stroke-width:.132}.x{stroke-width:.178}.y{fill:#cbcbcb}.z{stroke-width:.053}.AA{stroke-width:.159}.AB{stroke-width:.077}.AC{stroke-width:.047}]]></style>
  <defs
     id="defs45">
    <radialGradient
       id="A"
       cx="51.351"
       cy="51.458"
       fx="51.351"
       fy="51.458"
       r="35.779"
       gradientTransform="matrix(1,0,0,0.71423126,10.546,-4.237073)"
       gradientUnits="userSpaceOnUse">
      <stop
         offset="0"
         stop-color="#fff084"
         id="stop4" />
      <stop
         offset="1"
         stop-color="#ffe100"
         id="stop6" />
    </radialGradient>
    <linearGradient
       id="B"
       x1="60.429"
       y1="71.023"
       x2="63.5"
       y2="71.023"
       gradientUnits="userSpaceOnUse">
      <stop
         offset="0"
         stop-color="red"
         id="stop9" />
      <stop
         offset=".511"
         stop-color="maroon"
         id="stop11" />
      <stop
         offset="1"
         stop-color="red"
         id="stop13" />
    </linearGradient>
    <path
       id="C"
       d="M67.982 126.636l-7.426 5.887a11.02 11.02 0 0 0 1.107-.265l2.097-1.042c.678-.369 1.13-1.03 1.65-1.583l2.572-2.997z" />
    <path
       id="D"
       d="M70.168 123.306l-1.359 1.782.86.638 3.014-1.461-2.584.152z" />
    <path
       id="E"
       d="M63.915 127.556c-.823.56-1.94.443-2.713 1.108-.813.457-1.216 1.306-1.792 1.99-.461.433-1.519 1.75-.373 1.953.889.085 1.774-.103 2.626-.349l2.097-1.042c.678-.369 1.13-1.03 1.649-1.584l2.572-2.997c.425-.586 1.876-.459 1.758-1.259-.512-.748-1.357-.117-1.857.289-.729.547-1.562.901-2.41 1.217-.539.184-.973.636-1.558.673z" />
    <path
       id="F"
       d="M69.183 125.03c-.45-.029-.956.356-1.3.636-.573.43-1.21.739-1.868 1.006l-.001.002c-2.623 1.563-5.561 2.786-7.436 5.155-.126.365-.062.687.458.78.889.085 1.774-.103 2.626-.349l2.097-1.042c.678-.369 1.13-1.03 1.65-1.583l2.572-2.997c.425-.586 1.875-.459 1.758-1.26-.16-.234-.352-.333-.557-.346z" />
    <path
       id="G"
       d="M69.518 125.148c-3.836 2.243-7.255 4.834-10.733 7.376.07.035.149.065.253.083.889.085 1.774-.103 2.626-.349.702-.342 1.374-.741 2.097-1.042.678-.369 1.13-1.03 1.65-1.583.808-1.041 1.723-1.991 2.572-2.997.425-.586 1.875-.459 1.758-1.26a.89.89 0 0 0-.206-.219z" />
    <path
       id="H"
       d="M65.292 129.304l-1.169 1.251c.884-.415 2.195-.427 3.637-.316-.806-.323-1.385-.805-2.467-.935z" />
    <path
       id="I"
       d="M61.573 128.825l2.342-1.269-.272-2.38c-.71.937-1.39 2.29-2.07 3.648z" />
    <path
       id="J"
       d="M66.016 126.671c.433-.487.789-1.36 1.112-2.395l.281 1.712z" />
    <path
       id="K"
       d="M67.727 126.713l-1.786 2.075c1.206-.635 2.488-1.228 4.118-1.645z" />
    <linearGradient
       id="L"
       x1="57.99"
       y1="108.596"
       x2="57.99"
       y2="90.668"
       gradientUnits="userSpaceOnUse">
      <stop
         offset="0"
         stop-color="#0251a1"
         id="stop25" />
      <stop
         offset="1"
         stop-color="#025eba"
         id="stop27" />
    </linearGradient>
    <path
       id="M"
       d="M35.725 17.387h-4.709l-.648 2.209h-4.226l5.029-13.379h4.508l5.029 13.379h-4.326zm-.867-2.893l-1.478-4.81-1.469 4.81z" />
    <path
       id="N"
       d="M-113.504 107.641c.92.3 1.854-.595 2.577-.2l1.42-3.614c1.414 1.518 2.217 1.927 4.077 4.634.772-.148 1.698-.557 2.506-.418 1.393 2.473-1.349 9.812-8.563 11.919-.673-4.107-4.643-6.487-2.018-12.321z" />
    <path
       id="O"
       d="M-109.334 105.911a6.65 6.65 0 0 0 .639 1.78c-.815.07-.834-.124-1.217-.198.29.345.715.495 1.187.578l.578 1.445c-1.008.02-1.222-.183-1.78-.289.358.429 1.017.676 1.841.821l.487 1.826c-1.011-.073-1.826-.454-2.708-.73.707.601 1.615 1.011 2.769 1.187l.259 1.232c-1.109.035-2.086-.237-3.119-.38 1 .317 1.778.835 3.058.898l-.441 1.613c-.952-.135-1.67-.599-2.495-.913.757.431 1.327.862 2.312 1.293l-3.24 3.56 3.773-3.545c1.171-.466 1.871-1.434 2.799-2.16-.918.569-1.724 1.485-2.754 1.704l.519-1.486c1.139-.459 1.29-1.368 1.839-2.211-.624.528-1.276 1.708-1.871 1.582l-.106-1.232c.615-.877 1.094-1.793 1.308-2.784-.516.736-1.047 1.658-1.536 2.084l-.411-1.673c.573-.666.852-1.296.958-1.902-.392.47-.875 1.393-1.141 1.324l-.396-1.476c.187-.318.407-.627.38-1.004-.254.296-.557.679-.639.669-.207-.64-.525-1.132-.852-1.613z" />
    <path
       id="P"
       d="M-113.363 120.279c6.378-1.817 7.805-7.593 15.21-4.479l-.548.974c1.115.168 2.518.672 4.32 1.643-1.189 1.924-2.552 3.349-4.199 3.955l.669.974c-8.185 6.431-16.317-2.055-15.454-3.066z" />
    <path
       id="Q"
       d="M-113.169 120.65l3.835.194 2.108 1.269c-.48-.43-.791-.861-1.441-1.291l1.829-.387 2.194 1.979-1.592-2.108 2.065.043 2.367 1.936-1.42-1.85 1.979-.172 1.678 1.506-1.119-1.42 1.979-.301.889.817-.502-.898 1.962-.472-2.191.213c.096-.477.355-.872.563-1.293-.444.207-.7.766-.989 1.263l-1.81.152c.071-.6.533-1.279.867-1.932-.41.266-.835.624-1.415 1.962l-2.258.037c.307-1.017 1.049-1.962 1.678-2.926-.767.428-1.535 1.882-2.302 2.926l-1.829-.064 2.216-2.84-2.936 2.883-1.754.172 2.84-2.582-3.657 2.689z" />
    <path
       id="R"
       d="M-108.262 104.825c-.397 1.881 1.437 3.058 2.214 4.541.921 1.176 1.517 3.053 3.273 3.137 1.485.144 2.903-.723 4.382-.309 1.46.382 2.93-.108 4.036-1.084 1.46-1.178 2.768-4.6-.587-5.803-.171-1.546.213-2.127-.615-3.34-.968-1.418-4.267-1.513-6.047-.858-2.522-.754-5.474-1.414-6.656 3.716z" />
    <path
       id="S"
       d="M-106.094 102.017c-1.216.275-1.631 2.993-.727 2.863-.228-1.295 1.222-1.072 1.568-1.05 1.251-1.681 2.534.398 3.492 1.049 1.268.201 3.237-1.228 3.9.518.378.796-.402 2.857.512 1.277 1.561-.914 2.28 1.091 1.052 1.998-.728 2.164 2.425 1.932 2.3-.056.525-1.824-1.841-2.353-1.976-4.02.042-1.43-.553-3.062-2.277-2.948-2.044-.174-4.086.91-6.098.121-.586-.111-1.238-.104-1.747.247z" />
    <path
       id="T"
       d="M-92.417 65.599c-.268.264 4.084 3.695 4.283 3.544.067-.051 2.661-3.718 2.661-3.718l-.354-2.295-.495 2.9-2.932 1.463c-.888-.383-2.009-1.115-3.163-1.895z" />
    <path
       id="U"
       d="M-87.961 63.107c-.987.773-1.085 1.415-1.339 2.08-.225-.275-.577-.81-2.139-.471l.456 3.312c-.63-.243-1.241-.402-1.785-.258.889.804 1.438 1.607 1.93 2.411l.006.525c.05 2.913 3.979 3.357 4.559-.567.72-1.219-.776-.758 3.034-4.317-.956-.061-.96-.633-2.869-.183-.299-.893-.589-1.788-1.852-2.531z" />
    <path
       id="V"
       d="M-90.43 65.667c.35.724.345 1.537.534 2.295.267.404.522.971 1.029 1.107.552-.029 1.221.115 1.604-.381.402-.452.6-1.06 1.113-1.424.349-.289.763-.556 1.13-.779-.51-.14-1.032-.264-1.567-.249-.65-.062-.742-.81-1.008-1.261-.132-.268-.474-1.077-.622-.398l-.811 1.666c-.513-.003-.757-.765-1.322-.616l-.08.039z" />
    <path
       id="W"
       d="M-117.382 120.789c6.378-1.817 11.824-8.104 19.229-4.99l-.548.974c1.115.168 2.518.672 4.32 1.643-1.189 1.924-2.552 3.349-4.199 3.955l.669.974c-8.185 6.431-20.335-1.544-19.472-2.556z" />
    <path
       id="X"
       d="M-116.305 120.78l6.971.065 2.108 1.269c-.48-.43-.791-.861-1.441-1.291l1.829-.387 2.194 1.979-1.592-2.108 2.065.043 2.367 1.936-1.42-1.85 1.979-.172 1.678 1.506-1.119-1.42 1.979-.301.889.817-.502-.898 1.962-.472-2.191.213c.096-.477.355-.872.563-1.293-.444.207-.7.766-.989 1.263l-1.81.152c.071-.6.533-1.279.867-1.932-.41.266-.835.624-1.415 1.962l-2.258.037c.307-1.017 1.049-1.962 1.678-2.926-.767.428-1.535 1.882-2.302 2.926l-1.829-.064 2.216-2.84-2.936 2.883-1.754.172 2.84-2.582-3.657 2.689z" />
    <path
       id="Y"
       d="M-106.215 104.055c-.556.077 1.363 8.006 1.734 8.002.125-.001 6.541-2.069 6.541-2.069l1.704-3.043-3.256 3.012-4.777-.852c-.684-1.241-1.319-3.103-1.947-5.051z" />
    <path
       id="Z"
       d="M-104.257 103.87c2.139.979 2.057 1.927 2.065 2.453.911-.567 1.618-1.243 3.485-1.291.79 1.999.303 3.32-.172 4.647 2.647 1.153 2.123 1.836 3.184 2.754-7.737.864-5.563 1.64-7.53 2.453-4.3 4.155-8.482.153-5.852-3.356 1.883-2.383 3.327-5.027 4.819-7.659z" />
    <path
       id="a"
       d="M-103.956 105.892c-.259 1.171-1.015 2.134-1.494 3.203-.061.717-.286 1.616.181 2.227.672.454 1.321 1.216 2.227.965.887-.183 1.68-.73 2.615-.709.674-.035 1.405.013 2.039.073-.467-.618-.962-1.227-1.601-1.682-.702-.649-.119-1.62-.015-2.392.093-.435.44-1.701-.36-1.023l-2.486 1.265c-.597-.457-.178-1.579-.977-1.902l-.129-.024z" />
  </defs>
  <path
     d="M3.529 3.574l.005 84.32c0 14.365 7.627 29.016 18.975 40.71 11.174 11.514 25.878 20.008 39.447 22.713 13.569-2.704 28.273-11.198 39.447-22.713 11.349-11.694 18.975-26.346 18.975-40.71l.006-84.319z"
     fill="#c80b1c"
     stroke="#780e06"
     stroke-width=".799"
     
     class="e"
     id="path47" />
  <path
     d="M62.577 22.837l-.089.001-55.419-.001.005 65.01c0 13.332 7.196 27.39 18.151 38.679 10.624 10.948 24.681 19.06 37.353 21.74 12.672-2.68 26.729-10.792 37.353-21.74 10.955-11.289 18.152-25.346 18.152-38.678l.006-65.01H62.664l-.086-.001z"
     fill="#00a2e9"
     
     stroke-width=".682"
     stroke="#012f5e"
     class="e"
     id="path49" />
  <path
     d="M.665.665L.67 87.849c0 15.382 8.048 30.612 19.783 42.705 11.56 11.912 26.631 20.675 40.942 23.527.37.074.75.074 1.12 0 14.311-2.852 29.383-11.615 40.943-23.527 11.736-12.093 19.783-27.323 19.783-42.705l.021-87.184z"
     stroke="#000"
     stroke-width="1.331"
     
     class="e j"
     id="path51" />
  <g
     class="l"
     id="g63">
    <path
       d="M8.53 6.217h7.739q1.935 0 2.966.958 1.04.958 1.04 2.373 0 1.186-.739 2.035-.493.566-1.442.894 1.442.347 2.117 1.196.684.84.684 2.117 0 1.04-.484 1.871-.484.831-1.323 1.314-.52.301-1.57.438-1.396.183-1.853.183H8.53zm4.171 5.248h1.798q.967 0 1.342-.329.383-.338.383-.967 0-.584-.383-.913-.374-.329-1.314-.329h-1.825zm0 5.257h2.108q1.068 0 1.506-.374.438-.383.438-1.022 0-.593-.438-.949-.429-.365-1.515-.365h-2.099z"
       id="path53" />
    <path
       id="use55"
       d="m 35.725,17.387 h -4.709 l -0.648,2.209 H 26.142 L 31.171,6.217 h 4.508 l 5.029,13.379 h -4.326 z m -0.867,-2.893 -1.478,-4.81 -1.469,4.81 z" />
    <path
       d="M44.558 6.217h12.567V9.52h-4.216v10.076h-4.134V9.52h-4.216z"
       id="path57" />
    <path
       id="use59"
       d="m 70.712,17.387 h -4.709 l -0.648,2.209 H 61.129 L 66.158,6.217 h 4.508 l 5.029,13.379 h -4.326 z m -0.867,-2.893 -1.478,-4.81 -1.469,4.81 z" />
    <path
       d="M81.799 6.217h3.86l5.038 7.402V6.217h3.897v13.379h-3.897l-5.01-7.347v7.347h-3.888zm27.022 8.533v-2.784h6.389v5.704q-1.834 1.25-3.249 1.707-1.405.447-3.34.447-2.382 0-3.888-.812-1.497-.812-2.327-2.419-.821-1.606-.821-3.687 0-2.19.904-3.806.904-1.625 2.647-2.464 1.36-.648 3.66-.648 2.218 0 3.313.402 1.104.402 1.825 1.25.73.84 1.095 2.136l-3.988.712q-.246-.757-.84-1.159-.584-.402-1.497-.402-1.36 0-2.172.949-.803.94-.803 2.984 0 2.172.812 3.103.821.931 2.282.931.694 0 1.323-.201.63-.201 1.442-.684V14.75z"
       id="path61" />
  </g>
  <g
     id="g1872">
    <path
       id="rect65"
       style="opacity:0.99;fill:url(#A);paint-order:markers fill stroke"
       d="m 26.158001,22.839001 h 71.462998 c 0.02659,0 0.048,0.01784 0.048,0.04 v 51.03 c 0,0.02216 -0.02141,0.04 -0.048,0.04 H 26.158001 c -0.02659,0 -0.048,-0.01784 -0.048,-0.04 v -51.03 c 0,-0.02216 0.02141,-0.04 0.048,-0.04 z" />
    <path
       d="M26.033 57.604c-.024 0 .025.008.025.008l.116.054c.015.006.032.008.048.012.641.225 2.759-.274 3.307 0 .425.212 1.425.583 1.984.397.423-.141.57-.424.926-.661.497-.331.975-.554 1.455-.794.167-.084.833.019.926 0 .061-.012.076-.104.132-.132.606-.303 1.461-.443 2.117-.661.392-.131.937-.004 1.323-.132.48.082.684-.404 1.058-.529 1.113-.371-.337.433.794-.132.302-.151.364-.298.661-.397.119-.04.278.04.397 0 1.23-.41 3.039.267 4.101-.265.079-.039.186.039.265 0 .428-.214.748-.705 1.191-.926.529-.265 1.001-.598 1.587-.794.084-.028.191.049.265 0 .082-.055.063-.195.132-.265.278-.278 2.1-.823 2.514-.926.906-.227 3.118-.296 4.101-.132.691.115 1.294.23 1.984 0 .192-.064.482.09.661 0 .528-.264.848-.642 1.455-.794.374-.093.817.093 1.191 0l.926-.265c.751-.25 1.708-.522 2.381-.926.189-.113.332-.298.529-.397.24-.12.536-.059.794-.132.365-.104.704-.279 1.058-.397.577-.192 2.769.043 3.307.132 1.002.167.054.027.529.265.567.283 1.254.462 1.852.661.362.121 1.335.096 1.72 0 .411-.103.948-.65 1.455-.397.318.159.488.611.794.794.269.161.66.264.926.397.436.218 1.139-.092 1.588.132.112.056.153.209.265.265.43.215.315.033.661.265.271.181.507.518.794.661.079.039.186-.039.265 0 .155.077-.071.247.529.397.5.125 1.195 0 1.72 0 .782 0 1.652-.111 2.381.132.228.076.563-.046.794 0 .309.062.617.335.926.397.13.026.271-.042.397 0 .068.023.331.663.397.794.251.502.817.938 1.323 1.191.104.052.285-.037.397 0 .297.099.36.246.661.397.106.053.291-.053.397 0 .125.062.272.07.397.132.039.02-.039.113 0 .132.321.16 1.56 0 1.984 0 .392 0 1.086-.123 1.455 0 1.158.386 2.44 1.225 3.315 2.1l-.001 18.436H26.034z"
       opacity=".99"
       fill="#006f4a"
       id="path67" />
    <g
       fill="#a9a9a9"
       id="g73">
      <path
         d="M34.987 69.952l-8.953 4.071v1.678h17.908 17.908 17.908 17.908v-1.678l-8.953-4.071-8.953 4.071-8.953-4.071-8.953 4.071-8.953-4.071-8.953 4.071z"
         
         class="e"
         id="path69" />
      <path
         d="M97.664 74.023l-8.953-4.071-8.953 4.071-8.953-4.071-8.953 4.071-8.953-4.071-8.953 4.071-8.953-4.071-8.953 4.071"
         stroke="#000"
         
         stroke-width=".867"
         class="e"
         id="path71" />
    </g>
    <g
       id="g1781">
      <g
         transform="matrix(.563829 .011854 -.011854 .563829 278.18525 -55.913376)"
         id="g101">
        <path
           d="M-392.031 161.095l7.136 5.262-.003.012"
           class="r"
           id="path75" />
        <path
           d="M-387.448 175.098l7.332-5.273.013-.011 7.408 5.001-.005-.016-2.725-8.524.003-.001 7.287-5.202.013-.01-8.903.019h-.021l-3.056-8.721-.013.041-3.024 8.668-.005.013-8.93-.019.045.033 7.133 5.274-2.606 8.766z"
           class="l"
           id="path77" />
        <path
           fill="#a07843"
           d="M-387.504 175.664a.53.53 0 0 1-.507-.68l2.499-8.412-6.879-5.086a.53.53 0 0 1 .314-.955h.001l8.554.018 2.919-8.366a.53.53 0 0 1 .499-.355h0a.53.53 0 0 1 .5.354l2.931 8.367 8.548-.018h.001a.53.53 0 0 1 .308.959l-6.989 4.989 2.59 8.103a.53.53 0 0 1-.477.759c-.048 0-.095-.006-.14-.018a.52.52 0 0 1-.162-.072l-7.101-4.793-7.101 5.106c-.09.066-.198.098-.307.098zm-2.961-14.069l5.882 4.349a.53.53 0 0 1 .193.576l-2.164 7.283 6.13-4.408c.18-.129.435-.143.619-.019l6.142 4.146-2.265-7.085a.53.53 0 0 1 .192-.589l5.957-4.252-7.247.016h-.001c-.225 0-.444-.142-.519-.354l-2.555-7.293-2.54 7.279c-.074.213-.279.368-.504.368h-.001l-7.318-.016z"
           id="path79" />
        <path
           d="M-380.104 152.36l-.013.041v12.409l3.09-3.728h-.021z"
           class="t"
           id="path81" />
        <g
           class="r"
           id="g87">
          <path
             d="M-392.031 161.095l7.136 5.262-.003.012 4.781-1.548v-.01z"
             id="path83" />
          <path
             d="M-380.117 152.401l-3.024 8.668 3.016 3.74.008.002z"
             id="path85" />
        </g>
        <path
           d="M-383.146 161.082l-8.93-.019.045.033 11.906 3.713-3.016-3.74z"
           class="t"
           id="path89" />
        <path
           d="M-377.027 161.082l-3.082 3.719 11.972-3.729.013-.01z"
           class="r"
           id="path91" />
        <path
           d="M-380.117 164.81v.001l4.694 1.463 7.287-5.202-11.972 3.729z"
           class="t"
           id="path93" />
        <path
           d="M-375.423 166.274l-4.694-1.463v.01l7.416 9.979-2.725-8.524z"
           class="r"
           id="path95" />
        <path
           d="M-380.117 169.825l.013-.011 7.408 5.001-.005-.016-7.416-9.979zm-7.387 5.31l.056-.037 7.308-10.269-4.757 1.54z"
           class="t"
           id="path97" />
        <path
           d="M-380.117 169.825v-5.004l-.024.008-7.308 10.269z"
           class="r"
           id="path99" />
      </g>
    </g>
    <path
       d="M26.149 75.701c1.007 3.865 2.152 9.732 5.611 15.948h60.41c3.459-6.217 4.603-12.083 5.611-15.948H26.149z"
       fill="#9d272b"
       
       id="path107" />
    <g
       id="g1765">
      <path
         d="M56.866 66.344h12.909c-2.385-1.139-5.595-1.636-5.238-4.771.373-3.278-.668-4.267-.702-6.408-.04-2.544.267-5.062-.666-7.214-1.507-3.477.461-6.59-1.439-9.109-.179 1.701.196 2.967-1.31 5.706-.466 1.045-.39 2.465-.047 4.069.462 1.833-.293 3.524-.842 5.238-.245 1.017-.833 1.45.281 4.771.599 1.462.659 2.903-.421 4.303z"
         id="path103" />
      <path
         id="rect105"
         style="opacity:0.99;fill:url(#B);stroke:#800000;stroke-width:0.359;paint-order:markers fill stroke"
         d="m 60.633001,66.344002 h 2.664 c 0.0133,0 0.024,0.0107 0.024,0.024 v 9.309 c 0,0.0133 -0.0107,0.024 -0.024,0.024 h -2.664 c -0.0133,0 -0.024,-0.0107 -0.024,-0.024 v -9.309 c 0,-0.0133 0.0107,-0.024 0.024,-0.024 z" />
      <path
         d="M61.965 48.807c-.686 1.638-1.336 7.843-.658 13.034.258 1.627-.124 2.992-.674 4.324h1.332 1.332c-.55-1.332-.932-2.697-.674-4.324.678-5.191.028-11.396-.658-13.034z"
         fill="#d3d3d3"
         id="path109" />
      <path
         d="M61.965 48.807c-.155 4.021-.498 7.981 0 12.196.498-4.214.155-8.175 0-12.196z"
         fill="#f5f5f5"
         id="path111" />
    </g>
    <path
       d="M26.149 75.701c2.322 8.909 5.364 28.445 35.815 38.41 30.451-9.965 33.494-29.501 35.816-38.41H61.964z"
       fill="url(#L)"
       id="path113" />
    <path
       d="M46.369 93.908a.33.33 0 0 0-.244.119c-.117.14-.1.348.039.467 1.007.851 2.439 1.306 3.762.738 1.214-.521 2.492-.43 3.654-.031a1.58 1.58 0 0 0 1.193-.049c.166-.079.235-.278.156-.443s-.278-.235-.443-.156a.94.94 0 0 1-.691.019c-1.276-.438-2.737-.55-4.133.049-1.044.448-2.208.093-3.068-.635a.33.33 0 0 0-.225-.078zm12.185.088c-.112-.007-.22.042-.287.131-.054.07-.077.159-.066.246a.33.33 0 0 0 .128.22c.487.37 1.097.703 1.758.869s1.384.161 2.041-.178a3.63 3.63 0 0 1 2.887-.207c.603.216 1.109.308 1.779.111a.33.33 0 0 0 .199-.16c.042-.078.052-.169.027-.254s-.083-.156-.16-.198a.33.33 0 0 0-.254-.026c-.551.162-.802.102-1.367-.1a4.3 4.3 0 0 0-3.416.242c-.484.249-1.026.261-1.574.123s-1.092-.428-1.518-.752c-.051-.04-.113-.063-.178-.068zm10.793-.055a.33.33 0 0 0-.242.123c-.056.069-.082.157-.073.245a.33.33 0 0 0 .122.224c1.095.884 2.678 1.422 4.041.664.711-.395 1.975-.478 2.988-.049.462.196 1.039.154 1.434.072.087-.018.162-.07.211-.144a.33.33 0 0 0 .047-.251c-.037-.179-.213-.295-.393-.258-.258.053-.868.041-1.039-.031-1.212-.513-2.62-.45-3.57.078-1.05.584-2.345.172-3.301-.6-.063-.051-.143-.078-.225-.074zm-5.328 2.885c-.094.004-.182.047-.242.119s-.084.155-.076.243a.33.33 0 0 0 .119.225c.933.773 2.254 1.322 3.531.816 1.15-.447 2.42-.553 3.561-.131l.016.008.018.004c.367.091.786.143 1.207.022.085-.025.156-.082.199-.159s.053-.168.028-.253-.082-.156-.159-.199-.168-.053-.253-.028c-.255.074-.554.049-.859-.027l.035.01c-1.324-.49-2.763-.359-4.033.135h-.002c-.974.386-2.048-.033-2.863-.709-.063-.052-.143-.079-.225-.076zm-10.287-.32c-.094.008-.181.055-.238.131-.11.146-.081.354.064.465.763.581 1.432.891 2.104.973s1.316-.069 2.02-.33l-.01.004c1.673-.563 2.373-.276 3.406.123l.053.019.057.002c.157.005.306-.021.49-.047l.441-.068c.18-.031.302-.202.271-.383a.33.33 0 0 0-.135-.216c-.072-.051-.161-.072-.248-.057l-.424.066-.354.039c-1.011-.386-2.014-.7-3.77-.109l-.006.002-.004.002c-.657.244-1.184.357-1.709.293s-1.076-.305-1.781-.842a.33.33 0 0 0-.229-.066zm5.033 3.301a.33.33 0 0 0-.275.152c-.048.074-.064.165-.045.252a.33.33 0 0 0 .147.209c.575.368 1.094.737 1.771.895s1.476.078 2.549-.365l.006-.002.008-.004c.921-.426 1.951-.15 3.002.143l.027.008.029.002c.281.028.642.093 1.027-.033.174-.057.269-.244.213-.418s-.244-.269-.418-.213c-.185.06-.45.032-.754.002-1.039-.289-2.24-.634-3.406-.094l.012-.004c-.993.411-1.622.452-2.145.33s-.975-.431-1.562-.807a.33.33 0 0 0-.186-.053zm-3.013 4.255c-.062.001-.122.018-.174.051-.075.047-.128.121-.148.208a.33.33 0 0 0 .043.251c.41.655 1.043.922 1.646.902s1.182-.276 1.672-.574l-.115.043c.251-.044.517.069.863.213s.793.315 1.285.137c.083-.03.151-.091.189-.171s.042-.172.012-.255c-.063-.173-.253-.262-.426-.199-.249.09-.476.012-.805-.125s-.738-.34-1.234-.254l-.061.01-.055.033c-.431.262-.927.465-1.348.479s-.76-.109-1.062-.592a.33.33 0 0 0-.283-.156zm6.826-.048a.34.34 0 0 0-.129.035c-.163.084-.228.284-.145.447.246.481.599.782.99.904s.791.08 1.17-.002c.758-.165 1.498-.473 1.969-.414.293.12.673.387 1.199.301a.33.33 0 0 0 .216-.135c.051-.072.072-.161.057-.248s-.063-.165-.135-.216-.161-.072-.248-.057c-.239.039-.519-.138-.936-.287l-.035-.014-.035-.004c-.776-.098-1.541.282-2.193.424-.326.071-.609.087-.83.018s-.412-.21-.598-.572c-.061-.118-.186-.189-.318-.18zm-9.66 3.82a.33.33 0 0 0-.17.063c-.072.052-.12.13-.134.217s.007.176.059.248c.35.481.688.769 1.045.904s.707.092.998-.008c.581-.199 1.008-.531 1.439-.508h.006.006c.41.006.534.085.721.18a1.16 1.16 0 0 0 .883.082c.175-.055.273-.241.219-.416s-.241-.273-.416-.219c-.241.075-.209.048-.385-.041a2.19 2.19 0 0 0-1-.25c-.741-.039-1.275.4-1.687.541-.206.071-.36.089-.549.018s-.435-.257-.74-.676c-.068-.093-.18-.144-.295-.135zm6.806-.041c-.062.001-.122.019-.174.053-.155.099-.2.304-.102.459.403.633.945.966 1.492 1.012s1.066-.178 1.479-.523l-.109.061c.612-.202.939-.136 1.271-.031s.699.299 1.195.217a.33.33 0 0 0 .216-.135c.051-.072.072-.161.057-.248s-.063-.165-.135-.216-.161-.072-.248-.057c-.271.045-.489-.07-.887-.195s-.944-.208-1.68.035l-.061.019-.049.041c-.311.26-.667.399-.996.371s-.665-.203-.986-.707c-.062-.097-.17-.156-.285-.154zm6.537.105c-.078-.002-.154.024-.215.072-.143.114-.167.323-.053.467.373.467.739.737 1.113.844s.728.035 1.021-.078c.583-.225.997-.533 1.396-.471.167.053.407.182.688.291.292.114.663.203 1.031.035.167-.076.241-.272.166-.439-.037-.08-.104-.143-.187-.174s-.174-.027-.255.01c-.132.06-.287.038-.514-.051s-.48-.24-.771-.324l-.02-.004-.018-.004c-.751-.127-1.31.338-1.756.51-.223.086-.401.118-.602.061s-.456-.219-.775-.619a.33.33 0 0 0-.252-.125zm-7.199 3.03a.33.33 0 0 0-.172.055c-.153.102-.194.308-.092.461.3.451.624.731.975.863s.7.102 1.004.019c.607-.165 1.114-.487 1.447-.494.18-.004.416.089.701.201s.634.242 1.033.16c.087-.018.163-.069.211-.142s.066-.164.048-.25-.069-.163-.142-.211-.164-.066-.25-.048c-.181.037-.39-.022-.656-.127s-.578-.256-.959-.248c-.643.013-1.161.396-1.607.518-.223.061-.407.071-.596 0s-.408-.236-.656-.609a.33.33 0 0 0-.289-.146z"
       class="e y"
       id="path115" />
    <path
       d="M26.518 77.171c.943 3.805 2.192 8.997 5.241 14.478h60.41c3.049-5.481 4.298-10.673 5.241-14.478H26.518z"
       fill="#9d272b"
       
       id="path117" />
    <path
       d="M26.52 77.171l.674 2.647 5.539 4.549-3.2 2.629 1.043 2.36 4.116-3.38 6.908 5.674h4.17l6.908-5.674 6.908 5.674h4.17l6.908-5.674 6.908 5.674h4.17l6.908-5.674 4.534 3.723 1.062-2.343-3.639-2.988 6.292-5.167.511-2.029h-1.956l-6.803 5.588-6.804-5.588h-4.38l-6.803 5.588-6.804-5.588H59.48l-6.803 5.588-6.803-5.588h-4.38l-6.803 5.588-6.803-5.588H26.52zm4.253 0l3.917 3.217 3.917-3.217h-7.834zm17.986 0l3.917 3.217 3.917-3.217h-7.834zm17.985 0l3.918 3.217 3.917-3.217h-7.835zm17.986 0l3.918 3.217 3.917-3.217H84.73zm-41.048 1.417l7.036 5.778-7.036 5.778-7.035-5.778 7.035-5.778zm17.986 0l7.036 5.778-7.036 5.778-7.036-5.778 7.036-5.778zm17.986 0l7.036 5.778-7.036 5.778-7.036-5.778 7.036-5.778zm-50.846.553h.008c.27 0 .488.18.488.401s-.219.401-.488.401-.488-.18-.488-.401.213-.397.48-.401zm11.746 0h.001.008c.27 0 .488.18.488.401s-.219.401-.488.401-.488-.18-.488-.401.213-.397.479-.401zm6.24 0h.001.008c.27 0 .488.18.488.401s-.219.401-.488.401-.488-.18-.488-.401.213-.397.479-.401zm11.746 0h.001.008c.269 0 .488.18.488.401s-.218.401-.488.401-.488-.18-.488-.401.213-.397.479-.401zm6.24 0h.001.008c.27 0 .488.18.488.401s-.219.401-.488.401-.488-.18-.488-.401.213-.397.479-.401zm11.746 0h.008c.27 0 .488.18.488.401s-.219.401-.488.401-.488-.18-.488-.401.213-.397.48-.401zm6.24 0h.001.008c.27 0 .488.18.488.401s-.219.401-.488.401-.488-.18-.488-.401.213-.397.479-.401zm11.746 0h.008c.27 0 .488.18.488.401s-.219.401-.488.401-.488-.18-.488-.401.213-.397.48-.401zm-63.746 1.608h.001.008c.27 0 .488.18.488.401s-.219.401-.488.401-.488-.18-.488-.401.213-.397.479-.401zm7.83 0h.001.008c.27 0 .488.18.488.401s-.219.401-.488.401-.488-.18-.488-.401.213-.397.479-.401zm10.156 0h.001.008c.27 0 .488.18.488.401s-.219.401-.488.401-.488-.18-.488-.401.213-.397.479-.401zm7.83 0h.001.008c.27 0 .488.18.488.401s-.219.401-.488.401-.488-.18-.488-.401.213-.397.479-.401zm10.156 0h.001.008c.269 0 .488.18.488.401s-.218.401-.488.401-.488-.18-.488-.401.213-.397.479-.401zm7.83 0h.001.008c.27 0 .488.18.488.401s-.219.401-.488.401-.488-.18-.488-.401.213-.397.479-.401zm10.156 0h.008c.27 0 .488.18.488.401s-.219.401-.488.401-.488-.18-.488-.401.213-.397.48-.401zm7.83 0h.001.008c.27 0 .488.18.488.401s-.219.401-.488.401-.488-.18-.488-.401.213-.397.479-.401zm-48.871.273l-4.071 3.344 4.071 3.343 4.072-3.343-4.072-3.344zm17.986 0l-4.071 3.344 4.071 3.343 4.072-3.343-4.072-3.344zm17.986 0l-4.071 3.344 4.071 3.343 4.072-3.343-4.072-3.344zm-35.981.605h.008c.27 0 .488.18.488.401s-.219.401-.488.401-.488-.18-.488-.401.213-.397.48-.401zm17.985 0h.001.008c.27 0 .488.18.488.401s-.219.401-.488.401-.488-.18-.488-.401.213-.397.479-.401zm17.986 0h.001.008c.27 0 .488.18.488.401s-.219.401-.488.401-.488-.18-.488-.401.213-.397.479-.401zm16.383.72l-2.459 2.019 1.4 1.15.768-2.233a.33.33 0 0 1-.011-.085.36.36 0 0 1 .124-.265l.178-.585zm-63.304.011h.008c.27 0 .488.18.488.401s-.219.401-.488.401-.488-.18-.488-.401.213-.397.48-.401zm3.914 0h.001.008c.269 0 .488.18.488.401s-.218.401-.488.401-.488-.18-.488-.401.213-.397.479-.401zm14.071 0h.008c.27 0 .488.18.488.401s-.219.401-.488.401-.488-.18-.488-.401.213-.397.48-.401zm3.914 0c1.039.329-.065 1.234-.48.401 0-.219.213-.397.48-.401zm14.071 0h.001.008c.27 0 .488.18.488.401s-.219.401-.488.401-.488-.18-.488-.401.213-.397.479-.401zm3.914 0h.001.008c.27 0 .488.18.488.401s-.219.401-.488.401-.488-.18-.488-.401.213-.397.479-.401zm14.071 0h.001.008c.27 0 .488.18.488.401s-.219.401-.488.401-.488-.18-.488-.401.213-.397.479-.401zm3.914 0h.001.008c.27 0 .488.18.488.401s-.219.401-.488.401-.488-.18-.488-.401.213-.397.479-.401zm-48.345.439h.008c.269 0 .488.179.488.4s-.219.401-.488.401-.488-.18-.488-.401.214-.397.48-.4zm2.847 0h.001.008c.269 0 .488.179.488.4s-.219.401-.488.401-.488-.18-.488-.401.214-.397.479-.4zm15.139 0h.008c.269 0 .487.179.488.4s-.218.401-.488.401-.488-.18-.488-.401.214-.397.48-.4zm2.847 0h.008c.269 0 .488.179.488.4s-.219.401-.488.401-.488-.18-.488-.401.214-.397.48-.4zm15.139 0h.008c.269 0 .487.179.488.4s-.218.401-.488.401-.488-.18-.488-.401.214-.397.48-.4zm2.847 0h.008c.269 0 .488.179.488.4s-.219.401-.488.401-.488-.18-.488-.401.214-.397.48-.4zm-52.967.199l.318.984c.037-.008.075-.013.114-.014h.001.008c.27 0 .488.18.488.401 0 .181-.148.332-.348.382l.141.394.946-.777-1.669-1.37zm15.578.038l1.625 1.333-1.625 1.333-1.623-1.333 1.623-1.333zm17.986 0l1.625 1.333-1.625 1.333-1.623-1.333 1.623-1.333zm17.986 0l1.625 1.333L79.65 85.7l-1.623-1.333 1.623-1.333zm-38.827.932h.001.008c.27 0 .488.18.488.401s-.219.401-.488.401-.488-.18-.488-.401.213-.397.479-.401zm5.695 0h.001.008c.27 0 .488.18.488.401s-.219.401-.488.401-.488-.18-.488-.401.213-.397.479-.401zm12.291 0h.001.008c.27 0 .488.18.488.401s-.219.401-.488.401-.488-.18-.488-.401.213-.397.479-.401zm5.695 0h.001.008c.27 0 .488.18.488.401s-.219.401-.488.401-.488-.18-.488-.401.213-.397.479-.401zm12.291 0h.001.008c.27 0 .488.18.488.401s-.219.401-.488.401-.488-.18-.488-.401.213-.397.479-.401zm5.695 0h.001.008c.269 0 .488.18.488.401s-.218.401-.488.401-.488-.18-.488-.401.213-.397.479-.401zm12.291 0h.001.008c.269 0 .488.18.488.401s-.218.401-.488.401-.488-.18-.488-.401.213-.397.479-.401zm-60.114.001h.001a.57.57 0 0 1 .362.117c.093.075.145.177.145.284s-.052.208-.145.284a.56.56 0 0 1-.35.117.56.56 0 0 1-.35-.117c-.093-.075-.145-.177-.145-.284 0-.218.214-.396.482-.401zm17.993 0h.001a.57.57 0 0 1 .362.117c.093.075.145.177.145.284s-.052.208-.145.284a.56.56 0 0 1-.35.117.56.56 0 0 1-.35-.117c-.093-.075-.145-.177-.145-.284 0-.218.213-.396.482-.401zm17.986 0h.001a.57.57 0 0 1 .362.117c.093.075.145.177.145.284s-.052.208-.145.284a.56.56 0 0 1-.35.117.56.56 0 0 1-.35-.117c-.093-.075-.145-.177-.145-.284 0-.218.213-.396.482-.401zm17.986 0h.001a.57.57 0 0 1 .362.117c.093.075.145.177.145.284s-.052.208-.145.284a.56.56 0 0 1-.35.117.56.56 0 0 1-.35-.117c-.093-.075-.145-.177-.145-.284 0-.218.213-.396.482-.401zm-46.385 1.168h.001.008c.27 0 .488.18.488.401s-.219.401-.488.401-.488-.18-.488-.401.213-.397.479-.401zm2.847 0h.001.008c.27 0 .488.18.488.401s-.219.401-.488.401-.488-.18-.488-.401.213-.397.479-.401zm15.139 0h.001.008c.269 0 .488.18.488.401s-.218.401-.488.401-.488-.18-.488-.401.213-.397.479-.401zm2.847 0h.001.008c.27 0 .488.18.488.401s-.219.401-.488.401-.488-.18-.488-.401.213-.397.479-.401zm15.139 0h.001.008c.269 0 .488.18.488.401s-.218.401-.488.401-.488-.18-.488-.401.213-.397.479-.401zm2.847 0h.001.008c.27 0 .488.18.488.401s-.219.401-.488.401-.488-.18-.488-.401.213-.397.479-.401zm-48.345.439h.008c.27 0 .488.18.488.401s-.219.401-.488.401-.488-.18-.488-.401.213-.397.48-.401zm3.914 0h.001.008c.269 0 .488.18.488.401s-.218.401-.488.401-.488-.18-.488-.401.213-.397.479-.401zm14.071 0h.008c.27 0 .488.18.488.401s-.219.401-.488.401-.488-.18-.488-.401.213-.397.48-.401zm3.914 0h.008c.27 0 .488.18.488.401s-.219.401-.488.401-.488-.18-.488-.401.213-.397.48-.401zm14.071 0h.001.008c.27 0 .488.18.488.401s-.219.401-.488.401-.488-.18-.488-.401.213-.397.479-.401zm3.914 0h.001.008c.27 0 .488.18.488.401s-.219.401-.488.401-.488-.18-.488-.401.213-.397.479-.401zm14.071 0h.001.008c.27 0 .488.18.488.401s-.219.401-.488.401-.488-.18-.488-.401.213-.397.479-.401zm3.914 0h.001.008c.27 0 .488.18.488.401s-.219.401-.488.401-.488-.18-.488-.401.213-.397.479-.401zm-46.922.731h.008c.27 0 .488.18.488.401s-.219.401-.488.401-.488-.18-.488-.401.213-.397.48-.401zm17.985 0h.001.008c.27 0 .488.18.488.401s-.219.401-.488.401-.488-.18-.488-.401.213-.397.479-.401zm17.986 0h.001.008c.27 0 .488.18.488.401s-.219.401-.488.401-.488-.18-.488-.401.213-.397.479-.401zm-48.879.877h.001.008c.27 0 .488.18.488.401s-.219.401-.488.401-.488-.18-.488-.401.213-.397.479-.401zm7.83 0h.001.008c.27 0 .488.18.488.401s-.219.401-.488.401-.488-.18-.488-.401.213-.397.479-.401zm10.156 0h.001.008c.27 0 .488.18.488.401s-.219.401-.488.401-.488-.18-.488-.401.213-.397.479-.401zm7.83 0h.001.008c.27 0 .488.18.488.401s-.219.401-.488.401-.488-.18-.488-.401.213-.397.479-.401zm10.156 0h.001.008c.269 0 .488.18.488.401s-.218.401-.488.401-.488-.18-.488-.401.213-.397.479-.401zm7.83 0h.001.008c.27 0 .488.18.488.401s-.219.401-.488.401-.488-.18-.488-.401.213-.397.479-.401zm10.156 0h.008c.27 0 .488.18.488.401s-.219.401-.488.401-.488-.18-.488-.401.213-.397.48-.401zm7.83 0h.001.008c.27 0 .488.18.488.401s-.219.401-.488.401-.488-.18-.488-.401.213-.397.479-.401zm-57.864 1.164l-3.26 2.677.335.626h6.947l-4.022-3.303zm17.986 0l-4.022 3.303h8.044l-4.022-3.303zm17.986 0l-4.022 3.303h8.044l-4.022-3.303zm17.986 0l-4.022 3.303h7.549l.151-.282-3.678-3.021zm-48.094.444h.001.008c.27 0 .488.18.488.401s-.219.401-.488.401-.488-.18-.488-.401.213-.397.479-.401zm6.24 0h.001.008c.27 0 .488.18.488.401s-.219.401-.488.401-.488-.18-.488-.401.213-.397.479-.401zm11.746 0h.001.008c.269 0 .488.18.488.401s-.218.401-.488.401-.488-.18-.488-.401.213-.397.479-.401zm6.24 0h.001.008c.27 0 .488.18.488.401s-.219.401-.488.401-.488-.18-.488-.401.213-.397.479-.401zm11.746 0h.008c.27 0 .488.18.488.401s-.219.401-.488.401-.488-.18-.488-.401.213-.397.48-.401zm6.24 0h.001.008c.27 0 .488.18.488.401s-.219.401-.488.401-.488-.18-.488-.401.213-.397.479-.401z"
       fill="#512425"
       id="path119" />
    <g
       fill="#6a6a6a"
       id="g125">
      <path
         id="use121"
         d="m 45.401878,101.341 7.426,5.887 a -11.02,11.02 0 0 1 -1.107,-0.265 l -2.097,-1.042 c -0.678,-0.369 -1.13,-1.03 -1.65,-1.583 z"
         style="opacity:0.999" />
      <path
         id="use123"
         d="m 78.528,101.341 -7.426,5.887 a 11.02,11.02 0 0 0 1.107,-0.265 l 2.097,-1.042 c 0.678,-0.369 1.13,-1.03 1.65,-1.583 z"
         style="opacity:0.999" />
    </g>
    <g
       class="f"
       id="g135">
      <g
         class="z"
         id="g131">
        <path
           id="use127"
           d="m 80.714,98.011 -1.359,1.782 0.86,0.638 3.014,-1.461 -2.584,0.152 z"
           style="opacity:0.999;fill:#a7a7a7" />
        <path
           d="M79.491 99.894l1.202-1.554m-.022.349l-1.07 1.287m1.042-.854l-.93.938m1.368-.964l-1.297 1.016m1.706-1.04l-1.636 1.092m2.367-1.135l-2.277 1.202m2.679-1.226l-2.541 1.328"
           class="e j"
           id="path129" />
      </g>
      <path
         id="use133"
         d="m 74.461,102.261 c -0.823,0.56 -1.94,0.443 -2.713,1.108 -0.813,0.457 -1.216,1.306 -1.792,1.99 -0.461,0.433 -1.519,1.75 -0.373,1.953 0.889,0.085 1.774,-0.103 2.626,-0.349 l 2.097,-1.042 c 0.678,-0.369 1.13,-1.03 1.649,-1.584 l 2.572,-2.997 c 0.425,-0.586 1.876,-0.459 1.758,-1.259 -0.512,-0.748 -1.357,-0.117 -1.857,0.289 -0.729,0.547 -1.562,0.901 -2.41,1.217 -0.539,0.184 -0.973,0.636 -1.558,0.673 z"
         style="opacity:0.999;fill:#dbdbdb;stroke-width:0.132" />
    </g>
    <path
       id="use137"
       d="m 79.729,99.735 c -0.45,-0.029 -0.956,0.356 -1.3,0.636 -0.573,0.43 -1.21,0.739 -1.868,1.006 l -0.001,0.002 c -2.623,1.563 -5.561,2.786 -7.436,5.155 -0.126,0.365 -0.062,0.687 0.458,0.78 0.889,0.085 1.774,-0.103 2.626,-0.349 l 2.097,-1.042 c 0.678,-0.369 1.13,-1.03 1.65,-1.583 l 2.572,-2.997 c 0.425,-0.586 1.875,-0.459 1.758,-1.26 -0.16,-0.234 -0.352,-0.333 -0.557,-0.346 z"
       style="opacity:0.999;fill:#cbcbcb" />
    <path
       id="use139"
       d="m 80.064,99.853 c -3.836,2.243 -7.255,4.834 -10.733,7.376 0.07,0.035 0.149,0.065 0.253,0.083 0.889,0.085 1.774,-0.103 2.626,-0.349 0.702,-0.342 1.374,-0.741 2.097,-1.042 0.678,-0.369 1.13,-1.03 1.65,-1.583 0.808,-1.041 1.723,-1.991 2.572,-2.997 0.425,-0.586 1.875,-0.459 1.758,-1.26 a 0.89,0.89 0 0 0 -0.206,-0.219 z"
       style="opacity:0.999;fill:#bebebe" />
    <g
       class="f"
       id="g153">
      <g
         class="v"
         id="g145">
        <path
           id="use141"
           d="m 75.838,104.009 -1.169,1.251 c 0.884,-0.415 2.195,-0.427 3.637,-0.316 -0.806,-0.323 -1.385,-0.805 -2.467,-0.935 z"
           style="opacity:0.999;fill:#a7a7a7" />
        <path
           d="M75.119 104.778c.95-.308 1.96-.247 2.283-.264m-2.519.516c.844-.31 2.041-.377 2.885-.331"
           class="e j"
           id="path143" />
      </g>
      <path
         d="M69.583 107.312c1.14-.259 2.162-.799 2.166-.801"
         class="e j w"
         id="path147" />
      <path
         d="M72.377 105.155c.456.946.203 1.417-.168 1.808"
         class="e j AA"
         id="path149" />
      <path
         id="circle151"
         style="opacity:0.991;fill:#c0c0c0;stroke-width:0.077;paint-order:markers fill stroke"
         d="m 70.843998,105.763 a 0.257,0.257 0 0 1 -0.257,0.257 0.257,0.257 0 0 1 -0.257,-0.257 0.257,0.257 0 0 1 0.257,-0.257 0.257,0.257 0 0 1 0.257,0.257 z"
         class="u AB" />
    </g>
    <path
       id="ellipse155"
       transform="matrix(.83738 -.546622 .659395 .751797 0 0)"
       style="opacity:0.991;paint-order:markers fill stroke"
       d="m -16.838001,128.44901 a 0.105,0.16 0 0 1 -0.105,0.16 0.105,0.16 0 0 1 -0.105,-0.16 0.105,0.16 0 0 1 0.105,-0.16 0.105,0.16 0 0 1 0.105,0.16 z"
       class="u" />
    <path
       id="ellipse157"
       transform="matrix(.8047 -.593682 .61309 .790013 0 0)"
       style="opacity:0.991;fill:#ffffff;paint-order:markers fill stroke"
       d="m -9.1589999,127.054 a 0.046,0.072 0 0 1 -0.046,0.072 0.046,0.072 0 0 1 -0.046,-0.072 0.046,0.072 0 0 1 0.046,-0.072 0.046,0.072 0 0 1 0.046,0.072 z"
       class="l u" />
    <g
       class="f j"
       id="g163">
      <path
         d="M75.351 104.53c.889-.248 1.186-.17 1.669-.194"
         class="e v"
         id="path159" />
      <path
         d="M75.57 104.296c.511-.143.734-.116 1.018-.124"
         class="e AC"
         id="path161" />
    </g>
    <g
       stroke-width=".1"
       class="f"
       id="g173">
      <path
         id="use165"
         d="m 72.119,103.53 2.342,-1.269 -0.272,-2.38 c -0.71,0.937 -1.39,2.29 -2.07,3.648 z"
         style="opacity:0.999;fill:#a7a7a7" />
      <path
         d="M74.227 100.218l-1.835 3.163m1.876-2.804l-1.532 2.618m1.589-2.124l-1.187 1.907m1.235-1.487l-.821 1.263m.856-.956l-.344.678m.375-.406l-.096.266"
         class="e j"
         id="path167" />
      <path
         id="use169"
         d="m 76.562,101.376 c 0.433,-0.487 0.789,-1.36 1.112,-2.395 l 0.281,1.712 z"
         style="opacity:0.999;fill:#a7a7a7" />
      <path
         d="M77.726 99.3c-.185.711-.471 1.364-.866 1.953m.954-1.416l-.556 1.198m.616-.83a1.39 1.39 0 0 1-.297.673"
         class="e j"
         id="path171" />
    </g>
    <g
       class="z f"
       id="g183">
      <path
         id="use175"
         d="m 78.273,101.418 -1.786,2.075 c 1.206,-0.635 2.488,-1.228 4.118,-1.645 z"
         style="opacity:0.999;fill:#a7a7a7" />
      <path
         d="M77.982 101.755c.211-.142.524-.182.82-.24m.389.072c-.594.139-1.204.267-1.563.58m1.81-.534c-.901.21-1.653.532-2.211 1m-.32.372a9.19 9.19 0 0 1 2.938-1.297m.517.095c-1.16.21-2.372.641-3.676 1.458"
         class="e j"
         id="path177" />
      <path
         id="use179"
         d="m 43.215878,98.011 1.359,1.782 -0.86,0.638 -3.014,-1.461 2.584,0.152 z"
         style="opacity:0.999;fill:#a7a7a7" />
      <path
         d="M44.439 99.894l-1.202-1.554m.022.349l1.07 1.287m-1.042-.854l.93.938m-1.368-.964l1.297 1.016m-1.706-1.04l1.636 1.092m-2.367-1.135l2.277 1.202m-2.679-1.226l2.541 1.328"
         class="e j"
         id="path181" />
    </g>
    <g
       transform="matrix(-1 0 0 1 -10.09112 -25.295)"
       id="g193">
      <path
         id="use185"
         d="m -59.559998,127.556 c -0.823,0.56 -1.94,0.443 -2.713,1.108 -0.813,0.457 -1.216,1.306 -1.792,1.99 -0.461,0.433 -1.519,1.75 -0.373,1.953 0.889,0.085 1.774,-0.103 2.626,-0.349 l 2.097,-1.042 c 0.678,-0.369 1.13,-1.03 1.649,-1.584 l 2.572,-2.997 c 0.425,-0.586 1.876,-0.459 1.758,-1.259 -0.512,-0.748 -1.357,-0.117 -1.857,0.289 -0.729,0.547 -1.562,0.901 -2.41,1.217 -0.539,0.184 -0.973,0.636 -1.558,0.673 z"
         style="opacity:0.999;fill:#dbdbdb;stroke:#696969;stroke-width:0.132" />
      <path
         id="use187"
         d="m -54.291998,125.03 c -0.45,-0.029 -0.956,0.356 -1.3,0.636 -0.573,0.43 -1.21,0.739 -1.868,1.006 l -10e-4,0.002 c -2.623,1.563 -5.561,2.786 -7.436,5.155 -0.126,0.365 -0.062,0.687 0.458,0.78 0.889,0.085 1.774,-0.103 2.626,-0.349 l 2.097,-1.042 c 0.678,-0.369 1.13,-1.03 1.65,-1.583 l 2.572,-2.997 c 0.425,-0.586 1.875,-0.459 1.758,-1.26 -0.16,-0.234 -0.352,-0.333 -0.557,-0.346 z"
         style="opacity:0.999;fill:#cbcbcb" />
      <path
         id="use189"
         d="m -53.956998,125.148 c -3.836,2.243 -7.255,4.834 -10.733,7.376 0.07,0.035 0.149,0.065 0.253,0.083 0.889,0.085 1.774,-0.103 2.626,-0.349 0.702,-0.342 1.374,-0.741 2.097,-1.042 0.678,-0.369 1.13,-1.03 1.65,-1.583 0.808,-1.041 1.723,-1.991 2.572,-2.997 0.425,-0.586 1.875,-0.459 1.758,-1.26 a 0.89,0.89 0 0 0 -0.206,-0.219 z"
         style="opacity:0.999;fill:#bebebe" />
      <path
         id="use191"
         d="m -58.182998,129.304 -1.169,1.251 c 0.884,-0.415 2.195,-0.427 3.637,-0.316 -0.806,-0.323 -1.385,-0.805 -2.467,-0.935 z"
         style="opacity:0.999;fill:#a7a7a7;stroke:#696969;stroke-width:0.05" />
    </g>
    <g
       class="j f"
       id="g201">
      <path
         d="M48.811 104.778c-.95-.308-1.96-.247-2.283-.264m2.519.516c-.844-.31-2.041-.377-2.885-.331"
         class="e v"
         id="path195" />
      <path
         d="M54.347 107.312c-1.14-.259-2.162-.799-2.166-.801"
         class="e w"
         id="path197" />
      <path
         d="M51.553 105.155c-.456.946-.203 1.417.168 1.808"
         class="e AA"
         id="path199" />
    </g>
    <path
       id="circle203"
       transform="scale(-1 1)"
       style="opacity:0.991;fill:#c0c0c0;stroke:#696969;stroke-width:0.077;paint-order:markers fill stroke"
       d="m -53.085999,105.763 a 0.257,0.257 0 0 1 -0.257,0.257 0.257,0.257 0 0 1 -0.257,-0.257 0.257,0.257 0 0 1 0.257,-0.257 0.257,0.257 0 0 1 0.257,0.257 z"
       class="f u AB" />
    <path
       id="ellipse205"
       transform="matrix(-.83738 -.546622 -.659395 .751797 0 0)"
       style="opacity:0.991;paint-order:markers fill stroke"
       d="m -110.952,60.021 a 0.105,0.16 0 0 1 -0.105,0.16 0.105,0.16 0 0 1 -0.105,-0.16 0.105,0.16 0 0 1 0.105,-0.16 0.105,0.16 0 0 1 0.105,0.16 z"
       class="u" />
    <path
       id="ellipse207"
       transform="matrix(-.8047 -.593682 -.61309 .790013 0 0)"
       style="opacity:0.991;fill:#ffffff;paint-order:markers fill stroke"
       d="m -107.094,53.458 a 0.046,0.072 0 0 1 -0.046,0.072 0.046,0.072 0 0 1 -0.046,-0.072 0.046,0.072 0 0 1 0.046,-0.072 0.046,0.072 0 0 1 0.046,0.072 z"
       class="l u" />
    <g
       class="f j"
       id="g213">
      <path
         d="M48.579 104.53c-.889-.248-1.186-.17-1.669-.194"
         class="e v"
         id="path209" />
      <path
         d="M48.36 104.296c-.511-.143-.734-.116-1.018-.124"
         class="e AC"
         id="path211" />
    </g>
    <g
       stroke-width=".1"
       class="f"
       id="g223">
      <path
         id="use215"
         d="m 51.810878,103.53 -2.342,-1.269 0.272,-2.38 c 0.71,0.937 1.39,2.29 2.07,3.648 z"
         style="opacity:0.999;fill:#a7a7a7" />
      <path
         d="M49.703 100.218l1.835 3.163m-1.876-2.804l1.532 2.618m-1.589-2.124l1.187 1.907m-1.235-1.487l.821 1.263m-.856-.956l.344.678m-.375-.406l.096.266"
         class="e j"
         id="path217" />
      <path
         id="use219"
         d="m 47.367878,101.376 c -0.433,-0.487 -0.789,-1.36 -1.112,-2.395 l -0.281,1.712 z"
         style="opacity:0.999;fill:#a7a7a7" />
      <path
         d="M46.204 99.3c.185.711.471 1.364.866 1.953m-.954-1.416l.556 1.198m-.616-.83a-1.39 1.39 0 0 0 .297.673"
         class="e j"
         id="path221" />
    </g>
    <g
       class="z f"
       id="g229">
      <path
         id="use225"
         d="m 45.656878,101.418 1.786,2.075 c -1.206,-0.635 -2.488,-1.228 -4.118,-1.645 z"
         style="opacity:0.999;fill:#a7a7a7" />
      <path
         d="M45.948 101.755c-.211-.142-.524-.182-.82-.24m-.389.072c.594.139 1.204.267 1.563.58m-1.81-.534c.901.21 1.653.532 2.211 1m.32.372a-9.19 9.19 0 0 0-2.938-1.297m-.517.095c1.16.21 2.372.641 3.676 1.458"
         class="e j"
         id="path227" />
    </g>
    <g
       stroke="#000"
       class="l"
       id="g235">
      <path
         d="M31.759 91.649l.741 1.276h58.928l.742-1.276h-60.41z"
         
         stroke-width=".494"
         id="path231" />
      <path
         d="M26.149 75.701l.369 1.47h70.892l.369-1.47H26.149z"
         stroke-width=".661"
         id="path233" />
    </g>
    <path
       d="M26.149 75.701c2.322 8.909 5.364 28.445 35.815 38.41 30.451-9.965 33.494-29.501 35.816-38.41l-.111-52.862H26.158z"
       stroke="#012f5e"
       stroke-width=".847"
       class="j"
       id="path237" />
  </g>
  <g
     id="g1759">
    <g
       id="g1540">
      <g
         transform="matrix(.465506 -.252685 .287343 .51025 122.808226 -52.921987)"
         id="g243">
        <path
           id="use239"
           d="m -113.504,107.641 c 0.92,0.3 1.854,-0.595 2.577,-0.2 l 1.42,-3.614 c 1.414,1.518 2.217,1.927 4.077,4.634 0.772,-0.148 1.698,-0.557 2.506,-0.418 1.393,2.473 -1.349,9.812 -8.563,11.919 -0.673,-4.107 -4.643,-6.487 -2.018,-12.321 z"
           style="fill:#03925f;stroke:#027049;stroke-width:0.265" />
        <path
           id="use241"
           d="m -109.334,105.911 a 6.65,6.65 0 0 0 0.639,1.78 c -0.815,0.07 -0.834,-0.124 -1.217,-0.198 0.29,0.345 0.715,0.495 1.187,0.578 l 0.578,1.445 c -1.008,0.02 -1.222,-0.183 -1.78,-0.289 0.358,0.429 1.017,0.676 1.841,0.821 l 0.487,1.826 c -1.011,-0.073 -1.826,-0.454 -2.708,-0.73 0.707,0.601 1.615,1.011 2.769,1.187 l 0.259,1.232 c -1.109,0.035 -2.086,-0.237 -3.119,-0.38 1,0.317 1.778,0.835 3.058,0.898 l -0.441,1.613 c -0.952,-0.135 -1.67,-0.599 -2.495,-0.913 0.757,0.431 1.327,0.862 2.312,1.293 l -3.24,3.56 3.773,-3.545 c 1.171,-0.466 1.871,-1.434 2.799,-2.16 -0.918,0.569 -1.724,1.485 -2.754,1.704 l 0.519,-1.486 c 1.139,-0.459 1.29,-1.368 1.839,-2.211 -0.624,0.528 -1.276,1.708 -1.871,1.582 l -0.106,-1.232 c 0.615,-0.877 1.094,-1.793 1.308,-2.784 -0.516,0.736 -1.047,1.658 -1.536,2.084 l -0.411,-1.673 c 0.573,-0.666 0.852,-1.296 0.958,-1.902 -0.392,0.47 -0.875,1.393 -1.141,1.324 l -0.396,-1.476 c 0.187,-0.318 0.407,-0.627 0.38,-1.004 -0.254,0.296 -0.557,0.679 -0.639,0.669 -0.207,-0.64 -0.525,-1.132 -0.852,-1.613 z"
           style="fill:#027049" />
      </g>
      <g
         transform="matrix(.439667 -.364857 .384931 .411951 108.577416 -55.652197)"
         id="g249">
        <path
           id="use245"
           d="m -113.363,120.279 c 6.378,-1.817 7.805,-7.593 15.21,-4.479 l -0.548,0.974 c 1.115,0.168 2.518,0.672 4.32,1.643 -1.189,1.924 -2.552,3.349 -4.199,3.955 l 0.669,0.974 c -8.185,6.431 -16.317,-2.055 -15.454,-3.066 z"
           style="fill:#03925f;stroke:#027049;stroke-width:0.265" />
        <path
           id="use247"
           d="m -113.169,120.65 3.835,0.194 2.108,1.269 c -0.48,-0.43 -0.791,-0.861 -1.441,-1.291 l 1.829,-0.387 2.194,1.979 -1.592,-2.108 2.065,0.043 2.367,1.936 -1.42,-1.85 1.979,-0.172 1.678,1.506 -1.119,-1.42 1.979,-0.301 0.889,0.817 -0.502,-0.898 1.962,-0.472 -2.191,0.213 c 0.096,-0.477 0.355,-0.872 0.563,-1.293 -0.444,0.207 -0.7,0.766 -0.989,1.263 l -1.81,0.152 c 0.071,-0.6 0.533,-1.279 0.867,-1.932 -0.41,0.266 -0.835,0.624 -1.415,1.962 l -2.258,0.037 c 0.307,-1.017 1.049,-1.962 1.678,-2.926 -0.767,0.428 -1.535,1.882 -2.302,2.926 l -1.829,-0.064 2.216,-2.84 -2.936,2.883 -1.754,0.172 2.84,-2.582 -3.657,2.689 z"
           style="fill:#027049" />
      </g>
      <g
         transform="matrix(.801277 0 0 .837419 178.036911 -21.341525)"
         id="g263">
        <g
           transform="matrix(.539128 -.4008 .418378 .529728 -78.687746 -32.093066)"
           id="g255">
          <path
             id="use251"
             d="m -108.262,104.825 c -0.397,1.881 1.437,3.058 2.214,4.541 0.921,1.176 1.517,3.053 3.273,3.137 1.485,0.144 2.903,-0.723 4.382,-0.309 1.46,0.382 2.93,-0.108 4.036,-1.084 1.46,-1.178 2.768,-4.6 -0.587,-5.803 -0.171,-1.546 0.213,-2.127 -0.615,-3.34 -0.968,-1.418 -4.267,-1.513 -6.047,-0.858 -2.522,-0.754 -5.474,-1.414 -6.656,3.716 z"
             style="fill:#d9d9d9;stroke:#808080;stroke-width:0.45" />
          <path
             id="use253"
             d="m -106.094,102.017 c -1.216,0.275 -1.631,2.993 -0.727,2.863 -0.228,-1.295 1.222,-1.072 1.568,-1.05 1.251,-1.681 2.534,0.398 3.492,1.049 1.268,0.201 3.237,-1.228 3.9,0.518 0.378,0.796 -0.402,2.857 0.512,1.277 1.561,-0.914 2.28,1.091 1.052,1.998 -0.728,2.164 2.425,1.932 2.3,-0.056 0.525,-1.824 -1.841,-2.353 -1.976,-4.02 0.042,-1.43 -0.553,-3.062 -2.277,-2.948 -2.044,-0.174 -4.086,0.91 -6.098,0.121 -0.586,-0.111 -1.238,-0.104 -1.747,0.247 z"
             style="fill:#ffffff" />
        </g>
        <path
           id="use257"
           d="m -92.417,65.599 c -0.268,0.264 4.084,3.695 4.283,3.544 0.067,-0.051 2.661,-3.718 2.661,-3.718 l -0.354,-2.295 -0.495,2.9 -2.932,1.463 c -0.888,-0.383 -2.009,-1.115 -3.163,-1.895 z"
           style="fill:#393939" />
        <path
           id="use259"
           d="m -87.961,63.107 c -0.987,0.773 -1.085,1.415 -1.339,2.08 -0.225,-0.275 -0.577,-0.81 -2.139,-0.471 l 0.456,3.312 c -0.63,-0.243 -1.241,-0.402 -1.785,-0.258 0.889,0.804 1.438,1.607 1.93,2.411 l 0.006,0.525 c 0.05,2.913 3.979,3.357 4.559,-0.567 0.72,-1.219 -0.776,-0.758 3.034,-4.317 -0.956,-0.061 -0.96,-0.633 -2.869,-0.183 -0.299,-0.893 -0.589,-1.788 -1.852,-2.531 z"
           style="fill:#03925f;stroke:#027049;stroke-width:0.178" />
        <path
           id="use261"
           d="m -90.43,65.667 c 0.35,0.724 0.345,1.537 0.534,2.295 0.267,0.404 0.522,0.971 1.029,1.107 0.552,-0.029 1.221,0.115 1.604,-0.381 0.402,-0.452 0.6,-1.06 1.113,-1.424 0.349,-0.289 0.763,-0.556 1.13,-0.779 -0.51,-0.14 -1.032,-0.264 -1.567,-0.249 -0.65,-0.062 -0.742,-0.81 -1.008,-1.261 -0.132,-0.268 -0.474,-1.077 -0.622,-0.398 l -0.811,1.666 c -0.513,-0.003 -0.757,-0.765 -1.322,-0.616 l -0.08,0.039 z"
           style="fill:#04af72" />
      </g>
      <g
         transform="matrix(.496248 -.268119 .306319 .541416 124.027819 -49.686899)"
         id="g269">
        <path
           id="use265"
           d="m -113.504,107.641 c 0.92,0.3 1.854,-0.595 2.577,-0.2 l 1.42,-3.614 c 1.414,1.518 2.217,1.927 4.077,4.634 0.772,-0.148 1.698,-0.557 2.506,-0.418 1.393,2.473 -1.349,9.812 -8.563,11.919 -0.673,-4.107 -4.643,-6.487 -2.018,-12.321 z"
           style="fill:#03925f;stroke:#027049;stroke-width:0.265" />
        <path
           id="use267"
           d="m -109.334,105.911 a 6.65,6.65 0 0 0 0.639,1.78 c -0.815,0.07 -0.834,-0.124 -1.217,-0.198 0.29,0.345 0.715,0.495 1.187,0.578 l 0.578,1.445 c -1.008,0.02 -1.222,-0.183 -1.78,-0.289 0.358,0.429 1.017,0.676 1.841,0.821 l 0.487,1.826 c -1.011,-0.073 -1.826,-0.454 -2.708,-0.73 0.707,0.601 1.615,1.011 2.769,1.187 l 0.259,1.232 c -1.109,0.035 -2.086,-0.237 -3.119,-0.38 1,0.317 1.778,0.835 3.058,0.898 l -0.441,1.613 c -0.952,-0.135 -1.67,-0.599 -2.495,-0.913 0.757,0.431 1.327,0.862 2.312,1.293 l -3.24,3.56 3.773,-3.545 c 1.171,-0.466 1.871,-1.434 2.799,-2.16 -0.918,0.569 -1.724,1.485 -2.754,1.704 l 0.519,-1.486 c 1.139,-0.459 1.29,-1.368 1.839,-2.211 -0.624,0.528 -1.276,1.708 -1.871,1.582 l -0.106,-1.232 c 0.615,-0.877 1.094,-1.793 1.308,-2.784 -0.516,0.736 -1.047,1.658 -1.536,2.084 l -0.411,-1.673 c 0.573,-0.666 0.852,-1.296 0.958,-1.902 -0.392,0.47 -0.875,1.393 -1.141,1.324 l -0.396,-1.476 c 0.187,-0.318 0.407,-0.627 0.38,-1.004 -0.254,0.296 -0.557,0.679 -0.639,0.669 -0.207,-0.64 -0.525,-1.132 -0.852,-1.613 z"
           style="fill:#027049" />
      </g>
      <g
         transform="matrix(.469835 -.393262 .411343 .444022 109.586689 -54.120981)"
         id="g275">
        <path
           id="use271"
           d="m -113.363,120.279 c 6.378,-1.817 7.805,-7.593 15.21,-4.479 l -0.548,0.974 c 1.115,0.168 2.518,0.672 4.32,1.643 -1.189,1.924 -2.552,3.349 -4.199,3.955 l 0.669,0.974 c -8.185,6.431 -16.317,-2.055 -15.454,-3.066 z"
           style="fill:#03925f;stroke:#027049;stroke-width:0.265" />
        <path
           id="use273"
           d="m -113.169,120.65 3.835,0.194 2.108,1.269 c -0.48,-0.43 -0.791,-0.861 -1.441,-1.291 l 1.829,-0.387 2.194,1.979 -1.592,-2.108 2.065,0.043 2.367,1.936 -1.42,-1.85 1.979,-0.172 1.678,1.506 -1.119,-1.42 1.979,-0.301 0.889,0.817 -0.502,-0.898 1.962,-0.472 -2.191,0.213 c 0.096,-0.477 0.355,-0.872 0.563,-1.293 -0.444,0.207 -0.7,0.766 -0.989,1.263 l -1.81,0.152 c 0.071,-0.6 0.533,-1.279 0.867,-1.932 -0.41,0.266 -0.835,0.624 -1.415,1.962 l -2.258,0.037 c 0.307,-1.017 1.049,-1.962 1.678,-2.926 -0.767,0.428 -1.535,1.882 -2.302,2.926 l -1.829,-0.064 2.216,-2.84 -2.936,2.883 -1.754,0.172 2.84,-2.582 -3.657,2.689 z"
           style="fill:#027049" />
      </g>
      <g
         transform="matrix(.806912 0 0 .832654 179.052154 -12.65745)"
         id="g289">
        <g
           transform="matrix(.539128 -.4008 .418378 .529728 -78.687746 -32.093066)"
           id="g281">
          <path
             id="use277"
             d="m -108.262,104.825 c -0.397,1.881 1.437,3.058 2.214,4.541 0.921,1.176 1.517,3.053 3.273,3.137 1.485,0.144 2.903,-0.723 4.382,-0.309 1.46,0.382 2.93,-0.108 4.036,-1.084 1.46,-1.178 2.768,-4.6 -0.587,-5.803 -0.171,-1.546 0.213,-2.127 -0.615,-3.34 -0.968,-1.418 -4.267,-1.513 -6.047,-0.858 -2.522,-0.754 -5.474,-1.414 -6.656,3.716 z"
             style="fill:#d9d9d9;stroke:#808080;stroke-width:0.45" />
          <path
             id="use279"
             d="m -106.094,102.017 c -1.216,0.275 -1.631,2.993 -0.727,2.863 -0.228,-1.295 1.222,-1.072 1.568,-1.05 1.251,-1.681 2.534,0.398 3.492,1.049 1.268,0.201 3.237,-1.228 3.9,0.518 0.378,0.796 -0.402,2.857 0.512,1.277 1.561,-0.914 2.28,1.091 1.052,1.998 -0.728,2.164 2.425,1.932 2.3,-0.056 0.525,-1.824 -1.841,-2.353 -1.976,-4.02 0.042,-1.43 -0.553,-3.062 -2.277,-2.948 -2.044,-0.174 -4.086,0.91 -6.098,0.121 -0.586,-0.111 -1.238,-0.104 -1.747,0.247 z"
             style="fill:#ffffff" />
        </g>
        <path
           id="use283"
           d="m -92.417,65.599 c -0.268,0.264 4.084,3.695 4.283,3.544 0.067,-0.051 2.661,-3.718 2.661,-3.718 l -0.354,-2.295 -0.495,2.9 -2.932,1.463 c -0.888,-0.383 -2.009,-1.115 -3.163,-1.895 z"
           style="fill:#393939" />
        <path
           id="use285"
           d="m -87.961,63.107 c -0.987,0.773 -1.085,1.415 -1.339,2.08 -0.225,-0.275 -0.577,-0.81 -2.139,-0.471 l 0.456,3.312 c -0.63,-0.243 -1.241,-0.402 -1.785,-0.258 0.889,0.804 1.438,1.607 1.93,2.411 l 0.006,0.525 c 0.05,2.913 3.979,3.357 4.559,-0.567 0.72,-1.219 -0.776,-0.758 3.034,-4.317 -0.956,-0.061 -0.96,-0.633 -2.869,-0.183 -0.299,-0.893 -0.589,-1.788 -1.852,-2.531 z"
           style="fill:#03925f;stroke:#027049;stroke-width:0.178" />
        <path
           id="use287"
           d="m -90.43,65.667 c 0.35,0.724 0.345,1.537 0.534,2.295 0.267,0.404 0.522,0.971 1.029,1.107 0.552,-0.029 1.221,0.115 1.604,-0.381 0.402,-0.452 0.6,-1.06 1.113,-1.424 0.349,-0.289 0.763,-0.556 1.13,-0.779 -0.51,-0.14 -1.032,-0.264 -1.567,-0.249 -0.65,-0.062 -0.742,-0.81 -1.008,-1.261 -0.132,-0.268 -0.474,-1.077 -0.622,-0.398 l -0.811,1.666 c -0.513,-0.003 -0.757,-0.765 -1.322,-0.616 l -0.08,0.039 z"
           style="fill:#04af72" />
      </g>
      <g
         transform="matrix(.513776 -.278425 .317138 .562227 125.206194 -44.513462)"
         id="g295">
        <path
           id="use291"
           d="m -113.504,107.641 c 0.92,0.3 1.854,-0.595 2.577,-0.2 l 1.42,-3.614 c 1.414,1.518 2.217,1.927 4.077,4.634 0.772,-0.148 1.698,-0.557 2.506,-0.418 1.393,2.473 -1.349,9.812 -8.563,11.919 -0.673,-4.107 -4.643,-6.487 -2.018,-12.321 z"
           style="fill:#03925f;stroke:#027049;stroke-width:0.265" />
        <path
           id="use293"
           d="m -109.334,105.911 a 6.65,6.65 0 0 0 0.639,1.78 c -0.815,0.07 -0.834,-0.124 -1.217,-0.198 0.29,0.345 0.715,0.495 1.187,0.578 l 0.578,1.445 c -1.008,0.02 -1.222,-0.183 -1.78,-0.289 0.358,0.429 1.017,0.676 1.841,0.821 l 0.487,1.826 c -1.011,-0.073 -1.826,-0.454 -2.708,-0.73 0.707,0.601 1.615,1.011 2.769,1.187 l 0.259,1.232 c -1.109,0.035 -2.086,-0.237 -3.119,-0.38 1,0.317 1.778,0.835 3.058,0.898 l -0.441,1.613 c -0.952,-0.135 -1.67,-0.599 -2.495,-0.913 0.757,0.431 1.327,0.862 2.312,1.293 l -3.24,3.56 3.773,-3.545 c 1.171,-0.466 1.871,-1.434 2.799,-2.16 -0.918,0.569 -1.724,1.485 -2.754,1.704 l 0.519,-1.486 c 1.139,-0.459 1.29,-1.368 1.839,-2.211 -0.624,0.528 -1.276,1.708 -1.871,1.582 l -0.106,-1.232 c 0.615,-0.877 1.094,-1.793 1.308,-2.784 -0.516,0.736 -1.047,1.658 -1.536,2.084 l -0.411,-1.673 c 0.573,-0.666 0.852,-1.296 0.958,-1.902 -0.392,0.47 -0.875,1.393 -1.141,1.324 l -0.396,-1.476 c 0.187,-0.318 0.407,-0.627 0.38,-1.004 -0.254,0.296 -0.557,0.679 -0.639,0.669 -0.207,-0.64 -0.525,-1.132 -0.852,-1.613 z"
           style="fill:#027049" />
      </g>
      <g
         transform="matrix(.487344 -.411834 .426673 .46499 109.696514 -49.639248)"
         id="g301">
        <path
           id="use297"
           d="m -117.382,120.789 c 6.378,-1.817 11.824,-8.104 19.229,-4.99 l -0.548,0.974 c 1.115,0.168 2.518,0.672 4.32,1.643 -1.189,1.924 -2.552,3.349 -4.199,3.955 l 0.669,0.974 c -8.185,6.431 -20.335,-1.544 -19.472,-2.556 z"
           style="fill:#03925f;stroke:#027049;stroke-width:0.265" />
        <path
           id="use299"
           d="m -116.305,120.78 6.971,0.065 2.108,1.269 c -0.48,-0.43 -0.791,-0.861 -1.441,-1.291 l 1.829,-0.387 2.194,1.979 -1.592,-2.108 2.065,0.043 2.367,1.936 -1.42,-1.85 1.979,-0.172 1.678,1.506 -1.119,-1.42 1.979,-0.301 0.889,0.817 -0.502,-0.898 1.962,-0.472 -2.191,0.213 c 0.096,-0.477 0.355,-0.872 0.563,-1.293 -0.444,0.207 -0.7,0.766 -0.989,1.263 l -1.81,0.152 c 0.071,-0.6 0.533,-1.279 0.867,-1.932 -0.41,0.266 -0.835,0.624 -1.415,1.962 l -2.258,0.037 c 0.307,-1.017 1.049,-1.962 1.678,-2.926 -0.767,0.428 -1.535,1.882 -2.302,2.926 l -1.829,-0.064 2.216,-2.84 -2.936,2.883 -1.754,0.172 2.84,-2.582 -3.657,2.689 z"
           style="fill:#027049" />
      </g>
      <g
         transform="matrix(.950453 0 0 .94876 191.738286 -9.156195)"
         id="g315">
        <g
           transform="matrix(.539128 -.4008 .418378 .529728 -78.687746 -32.093066)"
           id="g307">
          <path
             id="use303"
             d="m -108.262,104.825 c -0.397,1.881 1.437,3.058 2.214,4.541 0.921,1.176 1.517,3.053 3.273,3.137 1.485,0.144 2.903,-0.723 4.382,-0.309 1.46,0.382 2.93,-0.108 4.036,-1.084 1.46,-1.178 2.768,-4.6 -0.587,-5.803 -0.171,-1.546 0.213,-2.127 -0.615,-3.34 -0.968,-1.418 -4.267,-1.513 -6.047,-0.858 -2.522,-0.754 -5.474,-1.414 -6.656,3.716 z"
             style="fill:#d9d9d9;stroke:#808080;stroke-width:0.45" />
          <path
             id="use305"
             d="m -106.094,102.017 c -1.216,0.275 -1.631,2.993 -0.727,2.863 -0.228,-1.295 1.222,-1.072 1.568,-1.05 1.251,-1.681 2.534,0.398 3.492,1.049 1.268,0.201 3.237,-1.228 3.9,0.518 0.378,0.796 -0.402,2.857 0.512,1.277 1.561,-0.914 2.28,1.091 1.052,1.998 -0.728,2.164 2.425,1.932 2.3,-0.056 0.525,-1.824 -1.841,-2.353 -1.976,-4.02 0.042,-1.43 -0.553,-3.062 -2.277,-2.948 -2.044,-0.174 -4.086,0.91 -6.098,0.121 -0.586,-0.111 -1.238,-0.104 -1.747,0.247 z"
             style="fill:#ffffff" />
        </g>
        <path
           id="use309"
           d="m -92.417,65.599 c -0.268,0.264 4.084,3.695 4.283,3.544 0.067,-0.051 2.661,-3.718 2.661,-3.718 l -0.354,-2.295 -0.495,2.9 -2.932,1.463 c -0.888,-0.383 -2.009,-1.115 -3.163,-1.895 z"
           style="fill:#393939" />
        <path
           id="use311"
           d="m -87.961,63.107 c -0.987,0.773 -1.085,1.415 -1.339,2.08 -0.225,-0.275 -0.577,-0.81 -2.139,-0.471 l 0.456,3.312 c -0.63,-0.243 -1.241,-0.402 -1.785,-0.258 0.889,0.804 1.438,1.607 1.93,2.411 l 0.006,0.525 c 0.05,2.913 3.979,3.357 4.559,-0.567 0.72,-1.219 -0.776,-0.758 3.034,-4.317 -0.956,-0.061 -0.96,-0.633 -2.869,-0.183 -0.299,-0.893 -0.589,-1.788 -1.852,-2.531 z"
           style="fill:#03925f;stroke:#027049;stroke-width:0.178" />
        <path
           id="use313"
           d="m -90.43,65.667 c 0.35,0.724 0.345,1.537 0.534,2.295 0.267,0.404 0.522,0.971 1.029,1.107 0.552,-0.029 1.221,0.115 1.604,-0.381 0.402,-0.452 0.6,-1.06 1.113,-1.424 0.349,-0.289 0.763,-0.556 1.13,-0.779 -0.51,-0.14 -1.032,-0.264 -1.567,-0.249 -0.65,-0.062 -0.742,-0.81 -1.008,-1.261 -0.132,-0.268 -0.474,-1.077 -0.622,-0.398 l -0.811,1.666 c -0.513,-0.003 -0.757,-0.765 -1.322,-0.616 l -0.08,0.039 z"
           style="fill:#04af72" />
      </g>
      <g
         transform="matrix(.597308 -.316114 .368701 .638333 128.256075 -44.658512)"
         id="g321">
        <path
           id="use317"
           d="m -113.504,107.641 c 0.92,0.3 1.854,-0.595 2.577,-0.2 l 1.42,-3.614 c 1.414,1.518 2.217,1.927 4.077,4.634 0.772,-0.148 1.698,-0.557 2.506,-0.418 1.393,2.473 -1.349,9.812 -8.563,11.919 -0.673,-4.107 -4.643,-6.487 -2.018,-12.321 z"
           style="fill:#03925f;stroke:#027049;stroke-width:0.265" />
        <path
           id="use319"
           d="m -109.334,105.911 a 6.65,6.65 0 0 0 0.639,1.78 c -0.815,0.07 -0.834,-0.124 -1.217,-0.198 0.29,0.345 0.715,0.495 1.187,0.578 l 0.578,1.445 c -1.008,0.02 -1.222,-0.183 -1.78,-0.289 0.358,0.429 1.017,0.676 1.841,0.821 l 0.487,1.826 c -1.011,-0.073 -1.826,-0.454 -2.708,-0.73 0.707,0.601 1.615,1.011 2.769,1.187 l 0.259,1.232 c -1.109,0.035 -2.086,-0.237 -3.119,-0.38 1,0.317 1.778,0.835 3.058,0.898 l -0.441,1.613 c -0.952,-0.135 -1.67,-0.599 -2.495,-0.913 0.757,0.431 1.327,0.862 2.312,1.293 l -3.24,3.56 3.773,-3.545 c 1.171,-0.466 1.871,-1.434 2.799,-2.16 -0.918,0.569 -1.724,1.485 -2.754,1.704 l 0.519,-1.486 c 1.139,-0.459 1.29,-1.368 1.839,-2.211 -0.624,0.528 -1.276,1.708 -1.871,1.582 l -0.106,-1.232 c 0.615,-0.877 1.094,-1.793 1.308,-2.784 -0.516,0.736 -1.047,1.658 -1.536,2.084 l -0.411,-1.673 c 0.573,-0.666 0.852,-1.296 0.958,-1.902 -0.392,0.47 -0.875,1.393 -1.141,1.324 l -0.396,-1.476 c 0.187,-0.318 0.407,-0.627 0.38,-1.004 -0.254,0.296 -0.557,0.679 -0.639,0.669 -0.207,-0.64 -0.525,-1.132 -0.852,-1.613 z"
           style="fill:#027049" />
      </g>
      <g
         transform="matrix(.510504 -.453962 .446949 .512556 110.826085 -47.880562)"
         id="g327">
        <path
           id="use323"
           d="m -117.382,120.789 c 6.378,-1.817 11.824,-8.104 19.229,-4.99 l -0.548,0.974 c 1.115,0.168 2.518,0.672 4.32,1.643 -1.189,1.924 -2.552,3.349 -4.199,3.955 l 0.669,0.974 c -8.185,6.431 -20.335,-1.544 -19.472,-2.556 z"
           style="fill:#03925f;stroke:#027049;stroke-width:0.265" />
        <path
           id="use325"
           d="m -116.305,120.78 6.971,0.065 2.108,1.269 c -0.48,-0.43 -0.791,-0.861 -1.441,-1.291 l 1.829,-0.387 2.194,1.979 -1.592,-2.108 2.065,0.043 2.367,1.936 -1.42,-1.85 1.979,-0.172 1.678,1.506 -1.119,-1.42 1.979,-0.301 0.889,0.817 -0.502,-0.898 1.962,-0.472 -2.191,0.213 c 0.096,-0.477 0.355,-0.872 0.563,-1.293 -0.444,0.207 -0.7,0.766 -0.989,1.263 l -1.81,0.152 c 0.071,-0.6 0.533,-1.279 0.867,-1.932 -0.41,0.266 -0.835,0.624 -1.415,1.962 l -2.258,0.037 c 0.307,-1.017 1.049,-1.962 1.678,-2.926 -0.767,0.428 -1.535,1.882 -2.302,2.926 l -1.829,-0.064 2.216,-2.84 -2.936,2.883 -1.754,0.172 2.84,-2.582 -3.657,2.689 z"
           style="fill:#027049" />
      </g>
      <g
         transform="matrix(.539128 -.4008 .418378 .529728 118.129254 -32.093066)"
         id="g333">
        <path
           id="use329"
           d="m -108.262,104.825 c -0.397,1.881 1.437,3.058 2.214,4.541 0.921,1.176 1.517,3.053 3.273,3.137 1.485,0.144 2.903,-0.723 4.382,-0.309 1.46,0.382 2.93,-0.108 4.036,-1.084 1.46,-1.178 2.768,-4.6 -0.587,-5.803 -0.171,-1.546 0.213,-2.127 -0.615,-3.34 -0.968,-1.418 -4.267,-1.513 -6.047,-0.858 -2.522,-0.754 -5.474,-1.414 -6.656,3.716 z"
           style="fill:#d9d9d9;stroke:#808080;stroke-width:0.45" />
        <path
           id="use331"
           d="m -106.094,102.017 c -1.216,0.275 -1.631,2.993 -0.727,2.863 -0.228,-1.295 1.222,-1.072 1.568,-1.05 1.251,-1.681 2.534,0.398 3.492,1.049 1.268,0.201 3.237,-1.228 3.9,0.518 0.378,0.796 -0.402,2.857 0.512,1.277 1.561,-0.914 2.28,1.091 1.052,1.998 -0.728,2.164 2.425,1.932 2.3,-0.056 0.525,-1.824 -1.841,-2.353 -1.976,-4.02 0.042,-1.43 -0.553,-3.062 -2.277,-2.948 -2.044,-0.174 -4.086,0.91 -6.098,0.121 -0.586,-0.111 -1.238,-0.104 -1.747,0.247 z"
           style="fill:#ffffff" />
      </g>
      <path
         id="use335"
         d="m 104.4,65.599 c -0.268,0.264 4.084,3.695 4.283,3.544 0.067,-0.051 2.661,-3.718 2.661,-3.718 l -0.354,-2.295 -0.495,2.9 -2.932,1.463 c -0.888,-0.383 -2.009,-1.115 -3.163,-1.895 z"
         style="fill:#393939" />
      <path
         id="use337"
         d="m 108.856,63.107 c -0.987,0.773 -1.085,1.415 -1.339,2.08 -0.225,-0.275 -0.577,-0.81 -2.139,-0.471 l 0.456,3.312 c -0.63,-0.243 -1.241,-0.402 -1.785,-0.258 0.889,0.804 1.438,1.607 1.93,2.411 l 0.006,0.525 c 0.05,2.913 3.979,3.357 4.559,-0.567 0.72,-1.219 -0.776,-0.758 3.034,-4.317 -0.956,-0.061 -0.96,-0.633 -2.869,-0.183 -0.299,-0.893 -0.589,-1.788 -1.852,-2.531 z"
         style="fill:#03925f;stroke:#027049;stroke-width:0.178" />
      <path
         id="use339"
         d="m 106.387,65.667 c 0.35,0.724 0.345,1.537 0.534,2.295 0.267,0.404 0.522,0.971 1.029,1.107 0.552,-0.029 1.221,0.115 1.604,-0.381 0.402,-0.452 0.6,-1.06 1.113,-1.424 0.349,-0.289 0.763,-0.556 1.13,-0.779 -0.51,-0.14 -1.032,-0.264 -1.567,-0.249 -0.65,-0.062 -0.742,-0.81 -1.008,-1.261 -0.132,-0.268 -0.474,-1.077 -0.622,-0.398 l -0.811,1.666 c -0.513,-0.003 -0.757,-0.765 -1.322,-0.616 l -0.08,0.039 z"
         style="fill:#04af72" />
      <g
         transform="matrix(.597308 -.316114 .368701 .638333 128.195221 -32.184058)"
         id="g345">
        <path
           id="use341"
           d="m -113.504,107.641 c 0.92,0.3 1.854,-0.595 2.577,-0.2 l 1.42,-3.614 c 1.414,1.518 2.217,1.927 4.077,4.634 0.772,-0.148 1.698,-0.557 2.506,-0.418 1.393,2.473 -1.349,9.812 -8.563,11.919 -0.673,-4.107 -4.643,-6.487 -2.018,-12.321 z"
           style="fill:#03925f;stroke:#027049;stroke-width:0.265" />
        <path
           id="use343"
           d="m -109.334,105.911 a 6.65,6.65 0 0 0 0.639,1.78 c -0.815,0.07 -0.834,-0.124 -1.217,-0.198 0.29,0.345 0.715,0.495 1.187,0.578 l 0.578,1.445 c -1.008,0.02 -1.222,-0.183 -1.78,-0.289 0.358,0.429 1.017,0.676 1.841,0.821 l 0.487,1.826 c -1.011,-0.073 -1.826,-0.454 -2.708,-0.73 0.707,0.601 1.615,1.011 2.769,1.187 l 0.259,1.232 c -1.109,0.035 -2.086,-0.237 -3.119,-0.38 1,0.317 1.778,0.835 3.058,0.898 l -0.441,1.613 c -0.952,-0.135 -1.67,-0.599 -2.495,-0.913 0.757,0.431 1.327,0.862 2.312,1.293 l -3.24,3.56 3.773,-3.545 c 1.171,-0.466 1.871,-1.434 2.799,-2.16 -0.918,0.569 -1.724,1.485 -2.754,1.704 l 0.519,-1.486 c 1.139,-0.459 1.29,-1.368 1.839,-2.211 -0.624,0.528 -1.276,1.708 -1.871,1.582 l -0.106,-1.232 c 0.615,-0.877 1.094,-1.793 1.308,-2.784 -0.516,0.736 -1.047,1.658 -1.536,2.084 l -0.411,-1.673 c 0.573,-0.666 0.852,-1.296 0.958,-1.902 -0.392,0.47 -0.875,1.393 -1.141,1.324 l -0.396,-1.476 c 0.187,-0.318 0.407,-0.627 0.38,-1.004 -0.254,0.296 -0.557,0.679 -0.639,0.669 -0.207,-0.64 -0.525,-1.132 -0.852,-1.613 z"
           style="fill:#027049" />
      </g>
      <g
         transform="matrix(.580936 -.485989 .508612 .548717 110.808431 -42.609952)"
         id="g351">
        <path
           id="use347"
           d="m -117.382,120.789 c 6.378,-1.817 11.824,-8.104 19.229,-4.99 l -0.548,0.974 c 1.115,0.168 2.518,0.672 4.32,1.643 -1.189,1.924 -2.552,3.349 -4.199,3.955 l 0.669,0.974 c -8.185,6.431 -20.335,-1.544 -19.472,-2.556 z"
           style="fill:#03925f;stroke:#027049;stroke-width:0.265" />
        <path
           id="use349"
           d="m -116.305,120.78 6.971,0.065 2.108,1.269 c -0.48,-0.43 -0.791,-0.861 -1.441,-1.291 l 1.829,-0.387 2.194,1.979 -1.592,-2.108 2.065,0.043 2.367,1.936 -1.42,-1.85 1.979,-0.172 1.678,1.506 -1.119,-1.42 1.979,-0.301 0.889,0.817 -0.502,-0.898 1.962,-0.472 -2.191,0.213 c 0.096,-0.477 0.355,-0.872 0.563,-1.293 -0.444,0.207 -0.7,0.766 -0.989,1.263 l -1.81,0.152 c 0.071,-0.6 0.533,-1.279 0.867,-1.932 -0.41,0.266 -0.835,0.624 -1.415,1.962 l -2.258,0.037 c 0.307,-1.017 1.049,-1.962 1.678,-2.926 -0.767,0.428 -1.535,1.882 -2.302,2.926 l -1.829,-0.064 2.216,-2.84 -2.936,2.883 -1.754,0.172 2.84,-2.582 -3.657,2.689 z"
           style="fill:#027049" />
      </g>
      <g
         transform="matrix(.640369 -.368059 .39609 .624182 130.11894 -23.517806)"
         id="g363">
        <path
           id="use353"
           d="m -108.262,104.825 c -0.397,1.881 1.437,3.058 2.214,4.541 0.921,1.176 1.517,3.053 3.273,3.137 1.485,0.144 2.903,-0.723 4.382,-0.309 1.46,0.382 2.93,-0.108 4.036,-1.084 1.46,-1.178 2.768,-4.6 -0.587,-5.803 -0.171,-1.546 0.213,-2.127 -0.615,-3.34 -0.968,-1.418 -4.267,-1.513 -6.047,-0.858 -2.522,-0.754 -5.474,-1.414 -6.656,3.716 z"
           style="fill:#d9d9d9;stroke:#808080;stroke-width:0.45" />
        <path
           id="use355"
           d="m -106.094,102.017 c -1.216,0.275 -1.631,2.993 -0.727,2.863 -0.228,-1.295 1.222,-1.072 1.568,-1.05 1.251,-1.681 2.534,0.398 3.492,1.049 1.268,0.201 3.237,-1.228 3.9,0.518 0.378,0.796 -0.402,2.857 0.512,1.277 1.561,-0.914 2.28,1.091 1.052,1.998 -0.728,2.164 2.425,1.932 2.3,-0.056 0.525,-1.824 -1.841,-2.353 -1.976,-4.02 0.042,-1.43 -0.553,-3.062 -2.277,-2.948 -2.044,-0.174 -4.086,0.91 -6.098,0.121 -0.586,-0.111 -1.238,-0.104 -1.747,0.247 z"
           style="fill:#ffffff" />
        <path
           id="use357"
           d="m -106.215,104.055 c -0.556,0.077 1.363,8.006 1.734,8.002 0.125,-0.001 6.541,-2.069 6.541,-2.069 l 1.704,-3.043 -3.256,3.012 -4.777,-0.852 c -0.684,-1.241 -1.319,-3.103 -1.947,-5.051 z"
           style="fill:#393939" />
        <path
           id="use359"
           d="m -104.257,103.87 c 2.139,0.979 2.057,1.927 2.065,2.453 0.911,-0.567 1.618,-1.243 3.485,-1.291 0.79,1.999 0.303,3.32 -0.172,4.647 2.647,1.153 2.123,1.836 3.184,2.754 -7.737,0.864 -5.563,1.64 -7.53,2.453 -4.3,4.155 -8.482,0.153 -5.852,-3.356 1.883,-2.383 3.327,-5.027 4.819,-7.659 z"
           style="fill:#03925f;stroke:#027049;stroke-width:0.265" />
        <path
           id="use361"
           d="m -103.956,105.892 c -0.259,1.171 -1.015,2.134 -1.494,3.203 -0.061,0.717 -0.286,1.616 0.181,2.227 0.672,0.454 1.321,1.216 2.227,0.965 0.887,-0.183 1.68,-0.73 2.615,-0.709 0.674,-0.035 1.405,0.013 2.039,0.073 -0.467,-0.618 -0.962,-1.227 -1.601,-1.682 -0.702,-0.649 -0.119,-1.62 -0.015,-2.392 0.093,-0.435 0.44,-1.701 -0.36,-1.023 l -2.486,1.265 c -0.597,-0.457 -0.178,-1.579 -0.977,-1.902 l -0.129,-0.024 z"
           style="fill:#04af72" />
      </g>
      <g
         transform="matrix(.746218 -.357522 .399156 .833116 139.788063 -44.642419)"
         id="g369">
        <path
           id="use365"
           d="m -113.504,107.641 c 0.92,0.3 1.854,-0.595 2.577,-0.2 l 1.42,-3.614 c 1.414,1.518 2.217,1.927 4.077,4.634 0.772,-0.148 1.698,-0.557 2.506,-0.418 1.393,2.473 -1.349,9.812 -8.563,11.919 -0.673,-4.107 -4.643,-6.487 -2.018,-12.321 z"
           style="fill:#03925f;stroke:#027049;stroke-width:0.265" />
        <path
           id="use367"
           d="m -109.334,105.911 a 6.65,6.65 0 0 0 0.639,1.78 c -0.815,0.07 -0.834,-0.124 -1.217,-0.198 0.29,0.345 0.715,0.495 1.187,0.578 l 0.578,1.445 c -1.008,0.02 -1.222,-0.183 -1.78,-0.289 0.358,0.429 1.017,0.676 1.841,0.821 l 0.487,1.826 c -1.011,-0.073 -1.826,-0.454 -2.708,-0.73 0.707,0.601 1.615,1.011 2.769,1.187 l 0.259,1.232 c -1.109,0.035 -2.086,-0.237 -3.119,-0.38 1,0.317 1.778,0.835 3.058,0.898 l -0.441,1.613 c -0.952,-0.135 -1.67,-0.599 -2.495,-0.913 0.757,0.431 1.327,0.862 2.312,1.293 l -3.24,3.56 3.773,-3.545 c 1.171,-0.466 1.871,-1.434 2.799,-2.16 -0.918,0.569 -1.724,1.485 -2.754,1.704 l 0.519,-1.486 c 1.139,-0.459 1.29,-1.368 1.839,-2.211 -0.624,0.528 -1.276,1.708 -1.871,1.582 l -0.106,-1.232 c 0.615,-0.877 1.094,-1.793 1.308,-2.784 -0.516,0.736 -1.047,1.658 -1.536,2.084 l -0.411,-1.673 c 0.573,-0.666 0.852,-1.296 0.958,-1.902 -0.392,0.47 -0.875,1.393 -1.141,1.324 l -0.396,-1.476 c 0.187,-0.318 0.407,-0.627 0.38,-1.004 -0.254,0.296 -0.557,0.679 -0.639,0.669 -0.207,-0.64 -0.525,-1.132 -0.852,-1.613 z"
           style="fill:#027049" />
      </g>
      <g
         transform="matrix(.798325 -.162161 .162605 .793256 172.84936 -22.024761)"
         id="g375">
        <path
           id="use371"
           d="m -117.382,120.789 c 6.378,-1.817 11.824,-8.104 19.229,-4.99 l -0.548,0.974 c 1.115,0.168 2.518,0.672 4.32,1.643 -1.189,1.924 -2.552,3.349 -4.199,3.955 l 0.669,0.974 c -8.185,6.431 -20.335,-1.544 -19.472,-2.556 z"
           style="fill:#03925f;stroke:#027049;stroke-width:0.265" />
        <path
           id="use373"
           d="m -116.305,120.78 6.971,0.065 2.108,1.269 c -0.48,-0.43 -0.791,-0.861 -1.441,-1.291 l 1.829,-0.387 2.194,1.979 -1.592,-2.108 2.065,0.043 2.367,1.936 -1.42,-1.85 1.979,-0.172 1.678,1.506 -1.119,-1.42 1.979,-0.301 0.889,0.817 -0.502,-0.898 1.962,-0.472 -2.191,0.213 c 0.096,-0.477 0.355,-0.872 0.563,-1.293 -0.444,0.207 -0.7,0.766 -0.989,1.263 l -1.81,0.152 c 0.071,-0.6 0.533,-1.279 0.867,-1.932 -0.41,0.266 -0.835,0.624 -1.415,1.962 l -2.258,0.037 c 0.307,-1.017 1.049,-1.962 1.678,-2.926 -0.767,0.428 -1.535,1.882 -2.302,2.926 l -1.829,-0.064 2.216,-2.84 -2.936,2.883 -1.754,0.172 2.84,-2.582 -3.657,2.689 z"
           style="fill:#027049" />
      </g>
      <g
         transform="matrix(.818904 -.168482 .162999 .846451 169.227731 -13.737848)"
         id="g387">
        <path
           id="use377"
           d="m -108.262,104.825 c -0.397,1.881 1.437,3.058 2.214,4.541 0.921,1.176 1.517,3.053 3.273,3.137 1.485,0.144 2.903,-0.723 4.382,-0.309 1.46,0.382 2.93,-0.108 4.036,-1.084 1.46,-1.178 2.768,-4.6 -0.587,-5.803 -0.171,-1.546 0.213,-2.127 -0.615,-3.34 -0.968,-1.418 -4.267,-1.513 -6.047,-0.858 -2.522,-0.754 -5.474,-1.414 -6.656,3.716 z"
           style="fill:#d9d9d9;stroke:#808080;stroke-width:0.45" />
        <path
           id="use379"
           d="m -106.094,102.017 c -1.216,0.275 -1.631,2.993 -0.727,2.863 -0.228,-1.295 1.222,-1.072 1.568,-1.05 1.251,-1.681 2.534,0.398 3.492,1.049 1.268,0.201 3.237,-1.228 3.9,0.518 0.378,0.796 -0.402,2.857 0.512,1.277 1.561,-0.914 2.28,1.091 1.052,1.998 -0.728,2.164 2.425,1.932 2.3,-0.056 0.525,-1.824 -1.841,-2.353 -1.976,-4.02 0.042,-1.43 -0.553,-3.062 -2.277,-2.948 -2.044,-0.174 -4.086,0.91 -6.098,0.121 -0.586,-0.111 -1.238,-0.104 -1.747,0.247 z"
           style="fill:#ffffff" />
        <path
           id="use381"
           d="m -106.215,104.055 c -0.556,0.077 1.363,8.006 1.734,8.002 0.125,-0.001 6.541,-2.069 6.541,-2.069 l 1.704,-3.043 -3.256,3.012 -4.777,-0.852 c -0.684,-1.241 -1.319,-3.103 -1.947,-5.051 z"
           style="fill:#393939" />
        <path
           id="use383"
           d="m -104.257,103.87 c 2.139,0.979 2.057,1.927 2.065,2.453 0.911,-0.567 1.618,-1.243 3.485,-1.291 0.79,1.999 0.303,3.32 -0.172,4.647 2.647,1.153 2.123,1.836 3.184,2.754 -7.737,0.864 -5.563,1.64 -7.53,2.453 -4.3,4.155 -8.482,0.153 -5.852,-3.356 1.883,-2.383 3.327,-5.027 4.819,-7.659 z"
           style="fill:#03925f;stroke:#027049;stroke-width:0.265" />
        <path
           id="use385"
           d="m -103.956,105.892 c -0.259,1.171 -1.015,2.134 -1.494,3.203 -0.061,0.717 -0.286,1.616 0.181,2.227 0.672,0.454 1.321,1.216 2.227,0.965 0.887,-0.183 1.68,-0.73 2.615,-0.709 0.674,-0.035 1.405,0.013 2.039,0.073 -0.467,-0.618 -0.962,-1.227 -1.601,-1.682 -0.702,-0.649 -0.119,-1.62 -0.015,-2.392 0.093,-0.435 0.44,-1.701 -0.36,-1.023 l -2.486,1.265 c -0.597,-0.457 -0.178,-1.579 -0.977,-1.902 l -0.129,-0.024 z"
           style="fill:#04af72" />
      </g>
      <path
         d="M91.647 94.545c.761.277 1.534-.55 2.133-.185l1.175-3.339c1.17 1.402 1.835 1.78 3.374 4.281.639-.137 1.405-.514 2.074-.386 1.152 2.284-1.116 9.065-7.085 11.011-.557-3.794-3.842-5.992-1.67-11.382z"
         stroke-width=".232"
         class="g h"
         id="path389" />
      <path
         d="M95.098 92.947a6.63 6.63 0 0 0 .529 1.644c-.674.065-.69-.115-1.007-.183.24.319.592.457.982.534l.478 1.335c-.834.018-1.011-.169-1.473-.267.296.397.841.624 1.523.759l.403 1.686c-.837-.067-1.511-.42-2.241-.675.585.555 1.336.934 2.291 1.096l.214 1.138c-.918.033-1.726-.219-2.58-.351.827.293 1.472.771 2.53.829l-.365 1.49c-.788-.125-1.382-.554-2.064-.843.626.398 1.098.796 1.913 1.195l-2.681 3.289 3.122-3.274c1.196 1.171 2.448-1.51 2.316-1.996-.987 1.775-1.71 2.101-2.278 1.574l.428-1.195c.942-.424 1.069-1.441 1.523-2.22-.516.488-1.056 1.578-1.548 1.462l-.088-1.138c.509-.81.905-1.656 1.083-2.572-.427.68-.866 1.532-1.271 1.925l-.34-1.546c.474-.615.705-1.197.793-1.757-.325.434-.724 1.287-.944 1.223l-.327-1.363c.155-.294.337-.58.315-.928-.21.274-.461.628-.529.618-.172-.591-.434-1.046-.705-1.49z"
         class="k"
         id="path391" />
      <g
         transform="matrix(.989609 -.143786 .143786 .989609 188.705802 -30.06481)"
         id="g397">
        <path
           id="use393"
           d="m -117.382,120.789 c 6.378,-1.817 11.824,-8.104 19.229,-4.99 l -0.548,0.974 c 1.115,0.168 2.518,0.672 4.32,1.643 -1.189,1.924 -2.552,3.349 -4.199,3.955 l 0.669,0.974 c -8.185,6.431 -20.335,-1.544 -19.472,-2.556 z"
           style="fill:#03925f;stroke:#027049;stroke-width:0.265" />
        <path
           id="use395"
           d="m -116.305,120.78 6.971,0.065 2.108,1.269 c -0.48,-0.43 -0.791,-0.861 -1.441,-1.291 l 1.829,-0.387 2.194,1.979 -1.592,-2.108 2.065,0.043 2.367,1.936 -1.42,-1.85 1.979,-0.172 1.678,1.506 -1.119,-1.42 1.979,-0.301 0.889,0.817 -0.502,-0.898 1.962,-0.472 -2.191,0.213 c 0.096,-0.477 0.355,-0.872 0.563,-1.293 -0.444,0.207 -0.7,0.766 -0.989,1.263 l -1.81,0.152 c 0.071,-0.6 0.533,-1.279 0.867,-1.932 -0.41,0.266 -0.835,0.624 -1.415,1.962 l -2.258,0.037 c 0.307,-1.017 1.049,-1.962 1.678,-2.926 -0.767,0.428 -1.535,1.882 -2.302,2.926 l -1.829,-0.064 2.216,-2.84 -2.936,2.883 -1.754,0.172 2.84,-2.582 -3.657,2.689 z"
           style="fill:#027049" />
      </g>
      <path
         id="use399"
         d="m 88.555001,104.825 c -0.397,1.881 1.437,3.058 2.214,4.541 0.921,1.176 1.517,3.053 3.273,3.137 1.485,0.144 2.903,-0.723 4.382,-0.309 1.46,0.382 2.929999,-0.108 4.035999,-1.084 1.46,-1.178 2.768,-4.6 -0.587,-5.803 -0.171,-1.546 0.213,-2.127 -0.615,-3.34 -0.968,-1.418 -4.266999,-1.513 -6.046999,-0.858 -2.522,-0.754 -5.474,-1.414 -6.656,3.716 z"
         style="fill:#d9d9d9;stroke:#808080;stroke-width:0.45" />
      <path
         id="use401"
         d="m 90.723001,102.017 c -1.216,0.275 -1.631,2.993 -0.727,2.863 -0.228,-1.295 1.222,-1.072 1.568,-1.05 1.251,-1.681 2.534,0.398 3.492,1.049 1.268,0.201 3.237,-1.228 3.9,0.518 0.378,0.796 -0.402,2.857 0.512,1.277 1.560999,-0.914 2.279999,1.091 1.051999,1.998 -0.727999,2.164 2.425,1.932 2.3,-0.056 0.525,-1.824 -1.841,-2.353 -1.976,-4.02 0.042,-1.43 -0.553,-3.062 -2.276999,-2.948 -2.044,-0.174 -4.086,0.91 -6.098,0.121 -0.586,-0.111 -1.238,-0.104 -1.747,0.247 z"
         style="fill:#ffffff" />
      <path
         id="use403"
         d="m 90.602001,104.055 c -0.556,0.077 1.363,8.006 1.734,8.002 0.125,-0.001 6.541,-2.069 6.541,-2.069 l 1.703999,-3.043 -3.255999,3.012 -4.777,-0.852 c -0.684,-1.241 -1.319,-3.103 -1.947,-5.051 z"
         style="fill:#393939" />
      <path
         id="use405"
         d="m 92.560001,103.87 c 2.139,0.979 2.057,1.927 2.065,2.453 0.911,-0.567 1.618,-1.243 3.485,-1.291 0.79,1.999 0.303,3.32 -0.172,4.647 2.646999,1.153 2.122999,1.836 3.183999,2.754 -7.736999,0.864 -5.562999,1.64 -7.529999,2.453 -4.3,4.155 -8.482,0.153 -5.852,-3.356 1.883,-2.383 3.327,-5.027 4.819,-7.659 z"
         style="fill:#03925f;stroke:#027049;stroke-width:0.265" />
      <path
         id="use407"
         d="m 92.861001,105.892 c -0.259,1.171 -1.015,2.134 -1.494,3.203 -0.061,0.717 -0.286,1.616 0.181,2.227 0.672,0.454 1.321,1.216 2.227,0.965 0.887,-0.183 1.68,-0.73 2.615,-0.709 0.674,-0.035 1.405,0.013 2.039,0.073 -0.467,-0.618 -0.962,-1.227 -1.601,-1.682 -0.702,-0.649 -0.119,-1.62 -0.015,-2.392 0.093,-0.435 0.44,-1.701 -0.36,-1.023 l -2.486,1.265 c -0.597,-0.457 -0.178,-1.579 -0.977,-1.902 l -0.129,-0.024 z"
         style="fill:#04af72" />
      <path
         id="use409"
         d="m 79.263004,120.789 c 6.378,-1.817 11.824,-8.104 19.229,-4.99 l -0.548,0.974 c 1.115,0.168 2.517996,0.672 4.319996,1.643 -1.189,1.924 -2.551996,3.349 -4.198996,3.955 l 0.669,0.974 c -8.185,6.431 -20.335,-1.544 -19.472,-2.556 z"
         style="fill:#03925f;stroke:#027049;stroke-width:0.265" />
      <path
         id="use411"
         d="m 80.340004,120.78 6.971,0.065 2.108,1.269 c -0.48,-0.43 -0.791,-0.861 -1.441,-1.291 l 1.829,-0.387 2.194,1.979 -1.592,-2.108 2.065,0.043 2.367,1.936 -1.42,-1.85 1.979,-0.172 1.678,1.506 -1.119,-1.42 1.979,-0.301 0.889,0.817 -0.502,-0.898 1.961996,-0.472 -2.190996,0.213 c 0.096,-0.477 0.355,-0.872 0.563,-1.293 -0.444,0.207 -0.7,0.766 -0.989,1.263 l -1.81,0.152 c 0.071,-0.6 0.533,-1.279 0.867,-1.932 -0.41,0.266 -0.835,0.624 -1.415,1.962 l -2.258,0.037 c 0.307,-1.017 1.049,-1.962 1.678,-2.926 -0.767,0.428 -1.535,1.882 -2.302,2.926 l -1.829,-0.064 2.216,-2.84 -2.936,2.883 -1.754,0.172 2.84,-2.582 -3.657,2.689 z"
         style="fill:#027049" />
      <path
         id="use413"
         d="m 83.141004,107.641 c 0.92,0.3 1.854,-0.595 2.577,-0.2 l 1.42,-3.614 c 1.414,1.518 2.217,1.927 4.077,4.634 0.772,-0.148 1.698,-0.557 2.506,-0.418 1.393,2.473 -1.349,9.812 -8.563,11.919 -0.673,-4.107 -4.643,-6.487 -2.018,-12.321 z"
         style="fill:#03925f;stroke:#027049;stroke-width:0.265" />
      <path
         d="M87.311 105.911a6.65 6.65 0 0 0 .639 1.78c-.815.07-.834-.124-1.217-.198.29.345.715.495 1.187.578l.578 1.445c-1.008.02-1.222-.183-1.78-.289.358.429 1.017.676 1.841.821l.487 1.826c-1.011-.073-1.826-.454-2.708-.73.707.601 1.615 1.011 2.769 1.187l.259 1.232c-1.109.035-2.086-.237-3.119-.38 1 .317 1.778.835 3.058.898l-.441 1.613c-.952-.135-1.67-.599-2.495-.913.757.431 1.327.862 2.312 1.293l-3.24 3.56 3.773-3.545c1.445 1.268 2.959-1.634 2.799-2.16-1.193 1.921-2.067 2.274-2.754 1.704l.517-1.293c1.139-.459 1.292-1.56 1.841-2.404-.624.528-1.276 1.708-1.871 1.582l-.106-1.232c.615-.877 1.094-1.793 1.308-2.784-.516.736-1.047 1.658-1.536 2.084L89 109.912c.573-.666.852-1.296.958-1.902-.392.47-.875 1.393-1.141 1.324l-.396-1.476c.187-.318.407-.627.38-1.004-.254.296-.557.679-.639.669-.207-.64-.525-1.132-.852-1.613z"
         class="k"
         id="path415" />
      <path
         d="M84.679 112.027c-1.435-1.423-3.466-2.049-5.418-1.432-2.854.539-2.724 3.635-1.466 5.591 1.062 2.687 1.866 5.633 3.708 7.888 1.79 1.201 4.311 1.652 6.313.809 1.769-1.345-.085-4.419 2.435-5.174 2.585-.887 2.7-4.568.785-6.197-1.757-1.331-4.189-1.724-6.357-1.486z"
         class="i n o"
         id="path417" />
      <path
         d="M82.58 113.183c-2.448 1.165-3.978 4.2-5.385 7.485 2.049 1.42 4.305 2.675 9.858 1.308-2.006-.447-4.472.201-5.903-1.613 2.605-.633 5.281-1.572 8.367-4.29-2.389.598-4.76 1.102-7.424 3.195.983-3.204 2.632-4.099 4.107-5.598-1.587.619-2.772 1.349-4.67 4.518-.165-2.991.347-3.099 1.05-5.005z"
         class="p"
         id="path419" />
      <path
         d="M83.266 121.813c-.984.704-.039 2.132.378 2.954.458.933-1.176.514-1.714.558-1.207-.103-2.365-.639-3.279-1.421-.644-.558-.534-1.241-1.11-1.847-.997-.5-2.454.388-3.435.494-1.67.536-3.32.794-5.018 1.209-.942.147-1.945.338-2.878.064-1.101-.51-.582-2.303.594-2.249 1.874-.206 5.547-.738 8.231-1.89.934-.648 2.477-.789 3.096-1.808.288-1.105-.72-1.944-1.244-2.793-.577-.642-.532-1.907.413-1.054 1.048.39 2.446.544 3.222 1.448.399.846 1.163.898 1.971.637 1.044.051 2.109-.188 3.167-.104 1.095-.093 2.181.143 3.243.203.767.734-.637 1.526-.783 2.341-.34.885-.942 1.638-1.734 2.165-.893.632-2.012.86-3.059 1.091h-.053-.008z"
         stroke-width=".503"
         class="g h"
         id="path421" />
      <path
         d="M81.667 111.296c-1.17.076-2.983-.238-3.217 1.203.337.915 2.159 1.992 2.786.693.666-.625 2.452-.721 2.022.628.649.575 1.554-.924 2.493-.665 1.209-.221.578 1.193.715 1.607 1.095.301 2.464.012 3.28 1.001.83 1.015-.668 1.65-1.07 2.429-.168.978-.852 1.745-1.506 2.464-.62 1.211 1.619.328 1.279-.606.425-1.197 2.064-1.047 2.547-2.183.497-1.003.498-2.474-.584-3.098-.897-.83-2.055-1.256-3.032-1.982-1.264-.707-2.968.224-4.056-.891-.365-.252-1.11-.637-1.657-.601zm5.385 11.44c-.594.161-1.192.366-1.816.345-.281.055-.596-.007-.846.161-.16.1-.099.286-.114.439-.016.168-.014.349.089.491.152.283.513.348.806.308.466-.022.95.056 1.399-.11.378-.126.778-.29 1.01-.632.159-.315.162-.696.058-1.028-.108-.211-.49-.239-.581 0-.001.008-.004.018-.005.026z"
         class="l"
         id="path423" />
      <path
         d="M87.57 116.925c-1.644-.021-3.064 1.11-3.93 2.427-.635.207-1.872 1.517-.405 1.314 1.807-.027 3.623-1.129 4.451-2.742.146-.316.2-.76-.116-.999zm-5.447 7.12c-1.137-.218-2.512-1.628-3.297-1.496.048 1.605 2.064 2.172 3.384 2.28 1.078-.104.689-.813-.086-.784z"
         class="q"
         id="path425" />
    </g>
    <g
       id="g1549">
      <g
         stroke="#a07843"
         class="t"
         id="g431">
        <path
           d="M58.018 124.732l-1.962.078-.148.149-.093.189c-3.781 2.436-7.341 5.816-8.511 10.304-.968 1.453-.328 3.924 1.537 4.224 1.276.211 2.271-.955 3.553-.798 1.117.024 2.164.505 3.102 1.078 1.954.449 3.442-1.86 5.402-1.174 2.85 1.076 6.178 1.311 8.961-.096 1.563-.372 3.078.845 4.629.382 1.469-.753.27-2.046-.287-2.971-.934-1.829-1.727-3.754-3.078-5.332-1.346-1.734-2.845-3.449-4.774-4.539a23.67 23.67 0 0 0-8.332-1.493zm5.14 2.731c.174.101.362.172.538.268 1.234 1.027 2 2.518 2.703 3.943.319 1.199 1.582 2.243 1.333 3.499-.825 1.094-2.639.25-3.187-.764-.593-1.257-.983-2.608-1.427-3.928-.288-.885-1.468-2.687.04-3.018z"
           stroke-width=".765"
           id="path427" />
        <path
           d="M29.821 128.483c1.003 1.725 3.521 3.983 8.466 3.274l1.263 4.209c5.426-3.181 11.179-10.373 16.277-9.542 1.417-.188 1.223.932.655 1.777l-1.169 2.339c-.547 2.877 2.083 2.662 2.806 1.029 2.029-1.834 2.794-3.898 6.525-5.215 1.921-.678 4.035.295 4.28.678 4.662 3.399 9.84 9.059 13.985 10.196l.234-4.771c5.791 2.035 11.077-2.881 11.701-3.739-7.012 1.783-13.824-1.46-21.497-4.101-2.827-.918-5.467.039-7.011-.992l.661-4.663c-.46-1.83-2.823-1.788-6.052-.893-1.922-.479-5.638-2.641-7.033 1.479-.044 1.418-.167 2.874.327 4.022-9.699.502-15.086 5.077-24.415 4.911z"
           stroke-width=".665"
           id="path429" />
      </g>
      <path
         d="M57.16 119.526c-.738 1.267.079 3.059.908 4.044 1.83.478 1.312-1.872.667-2.776-.291-.621-.801-1.327-1.576-1.268zm6.618.608c-1.684.018-2.782 2.495-2.027 3.794 1.358.023 2.477-1.524 2.938-2.724.297-.683-.065-1.488-.911-1.07z"
         fill="#a07843"
         id="path433" />
      <path
         d="M54.096 128.623c-1.575 1.968-4.002 3.686-4.354 6.327.562 2.261 3.283 1.25 4.921 1.288 1.948-.342 3.296 1.593 5.251 1.101 2.123.451 3.479-1.602 1.756-3.226-.794-.839-.54-3.797-1.913-1.563-1.441 1.566-3.882 1.449-5.813 1.14-1.951-1.374.62-3.524.417-5.093l-.266.027zm12.956-.421c1.483 1.277 2.185 3.173 3.072 4.847.025 1.152 1.816 4.125 1.742 1.458-.519-2.111-2.125-3.738-3.257-5.543-.376-.459-.935-.839-1.556-.762zm-34.191.889c5.44 2.977 11.151-1.672 16.459-2.824 1.544-2.771-7.461 1.133-9.68 1.472-2.215.64-4.473 1.19-6.78 1.351zm28.652-3.855c-3.563.444-3.649 6.355-.414 2.029 1.249-.453 3.348-3.05.414-2.029zm11.245.534c5.199 1.707 9.921 7.549 15.843 4.326-4.548-.98-10.083-2.717-14.974-4.159z"
         class="r"
         id="path435" />
      <path
         d="M11.577 27.656c-.051 0-.13.013-.197.068a.31.31 0 0 0-.104.188c-.019.111-.001.19.019.314.135.82.166 1.606.127 3.184-.05 2.028.007 2.514.428 3.736s.679 1.724 1.619 3.137c.696 1.046 1.087 1.69 1.299 2.23s.257.99.256 1.709c-.001.492-.047 1.103-.08 1.256l-.4 1.588-.117.426-.17-.475c-.809-2.367-1.662-4.357-2.289-5.291-.414-.616-1.079-1.374-1.701-1.99l-.865-.777a3.11 3.11 0 0 0-.348-.244c-.106-.061-.192-.113-.33-.113-.045 0-.144.001-.23.078s-.103.169-.111.244c-.016.15 0 .337.023.705.156 2.463.915 4.909 2.039 6.49.217.305.796.965 1.326 1.521 1.009 1.059 1.326 1.474 1.713 2.25.828 1.659 1.446 5.325 1.434 8.736v.191c-1.556-1.754-2.221-3.16-2.318-4.889-.023-.402-.084-.897-.15-1.164-.213-.86-.828-1.877-1.723-2.908-.271-.312-.724-.746-1.139-1.111l-.561-.469-.211-.15-.094-.053c-.032-.015-.06-.035-.141-.035-.045 0-.136-.001-.223.072a.35.35 0 0 0-.117.24c-.018.146-.002.32.022.66.15 2.22.675 4.391 1.447 5.947.428.862.774 1.305 1.865 2.391 1.455 1.447 2.572 2.996 2.918 3.975a2.34 2.34 0 0 1 .156.758l.102 2.398.137 4.963.031 1.471-.219-.316c-1.199-1.74-1.34-2.194-1.424-4.584-.061-1.729-.121-2.112-.475-3.098a8.83 8.83 0 0 0-.957-1.918c-.229-.35-.831-1.006-1.422-1.613l-.814-.801-.299-.26c-.042-.033-.08-.06-.119-.084s-.057-.059-.178-.059c-.044 0-.121-.001-.207.061s-.119.158-.129.227c-.021.137-.005.275.016.545.216 2.865.529 4.317 1.406 6.498.972 2.419 1.961 4.261 3.16 5.883 1.284 1.736 1.706 2.833 1.939 5.041l.348 4.74.154 2.568.022.453-.299-.391c-1.271-1.711-1.58-2.619-1.582-4.648-.002-1.699-.285-3.045-.936-4.41a12.13 12.13 0 0 0-1.355-2.182l-1.35-1.605-.562-.625-.187-.191-.07-.062c-.012-.01-.024-.02-.043-.031-.01-.006-.021-.012-.039-.02-.009-.004-.021-.006-.035-.01a.67.67 0 0 0-.057-.008.4.4 0 0 0-.287.174c-.051.093-.067.18-.086.307-.037.254-.064.67-.105 1.412-.125 2.225.067 4.433.537 6.049.5 1.722 1.454 3.304 3.607 6.012l2.5 3.361c.921 1.486 1.609 3.2 2.438 6.096l.846 3.242.293 1.281.014.072-.486-.244c-.718-.369-.888-.491-1.359-.963-.96-.961-1.277-1.798-1.371-3.686-.049-.983-.096-1.297-.258-1.758-.632-1.8-2.413-4.466-4.549-6.857l-.475-.496-.176-.16-.078-.057c-.028-.018-.037-.051-.156-.051-.127 0-.208.088-.244.145s-.053.106-.068.162c-.031.113-.051.248-.066.412-.031.327-.042.763-.035 1.244.014.962.098 2.09.252 2.826.474 2.27 1.345 4.099 2.988 6.291 1.111 1.481 2.144 2.471 4.139 3.957 1.758 1.31 2.677 2.13 3.426 3.057a22.65 22.65 0 0 1 2.037 3.115 11.72 11.72 0 0 0 1.051 1.619c.292.372.535.728.707 1.023.159.275.236.487.256.59-.046.014-.122.041-.34.086-.279.058-.859.114-1.229.117-1.067.009-1.618-.202-2.203-.828-.388-.415-.623-.889-.977-2.01-.324-1.027-.727-1.72-1.674-2.896-.676-.84-2.852-2.987-3.924-3.877l-1.588-1.273-.543-.4-.178-.117-.072-.039c-.025-.012-.038-.033-.129-.033a.3.3 0 0 0-.229.127.37.37 0 0 0-.055.141 1.26 1.26 0 0 0-.022.283c.002.215.03.498.076.824a16.98 16.98 0 0 0 .463 2.186c.473 1.646 1.319 3.438 2.234 4.73.83 1.171 2.147 2.334 3.422 3.021 1.257.678 2.395 1.028 4.553 1.404 2.526.441 3.35.831 4.912 2.334l2.402 2.172 2.197 2.004.182.186a4.82 4.82 0 0 1-1.936-.242c-1.365-.488-2.84-1.372-3.773-2.256-1.201-1.138-2.313-1.9-3.945-2.699-2.467-1.208-4.907-1.854-7.588-2.008l-.701-.016c-.075.009-.168.025-.244.113s-.075.185-.074.23c.001.069.016.093.027.123s.025.056.041.086l.121.209.375.545c2.747 3.675 5.882 6.05 9.148 6.893 1.987.513 4.394.778 7.727.854 1.699.039 2.342.009 3.248.262s2.11.805 4.865 2.008l3.1 1.402a16.08 16.08 0 0 1 .693.352 38.65 38.65 0 0 1-.801.316c-.6.231-1.267.475-1.521.551-.629.188-1.374.267-1.74.209-.194-.031-.343-.075-.654-.227s-.773-.412-1.541-.857c-1.994-1.156-3.402-1.769-5.021-2.184-1.144-.293-1.849-.377-3.605-.43-1.858-.055-4.977-.343-6.213-.57-.117-.022-.207-.062-.361.029-.077.046-.142.17-.139.256s.034.137.063.186c.116.194.33.386.699.703 3.661 3.145 7.963 5.251 11.621 5.664a12.61 12.61 0 0 0 5.354-.596c.401-.136 1.352-.514 2.145-.852 1.728-.736 2.829-1.117 3.492-1.229.447-.075.855-.061 1.572.131s1.729.565 3.32 1.199c2.241.893 2.964 1.138 3.604 1.193.188.016.304.028.424.008a.41.41 0 0 0 .186-.078c.059-.046.095-.109.113-.158.024-.063.018-.081.019-.107a1.19 1.19 0 0 0 0-.082 4.43 4.43 0 0 0-.014-.209 13.36 13.36 0 0 0-.062-.555c-.026-.198-.055-.394-.082-.549a3.95 3.95 0 0 0-.041-.199.95.95 0 0 0-.022-.076c-.009-.026.006-.045-.068-.119 0 0-.025-.02-.033-.025a.22.22 0 0 0-.019-.014c-.01-.006-.015-.009-.022-.012-.012-.005-.021-.008-.029-.012-.017-.006-.035-.013-.057-.019l-.164-.047-.504-.133c-4.242-1.067-6.925-2.778-7.998-4.996-.401-.829-.599-1.623-.822-3.354-.295-2.283-.534-3.194-1.148-4.35-.429-.808-.825-1.307-2.119-2.68-.684-.726-1.333-1.368-1.838-1.828a9.6 9.6 0 0 0-.641-.545c-.086-.065-.161-.115-.23-.154s-.117-.091-.268-.068c-.109.016-.211.095-.268.182s-.092.182-.127.309c-.071.253-.137.633-.229 1.24-.346 2.285-.185 4.269.5 5.949.77 1.889 1.74 2.965 3.486 3.85.501.254 1.092.581 1.266.695.589.388 1.283 1.494 1.496 2.471l.043.205c-.05-.018-.079-.025-.139-.047a32.6 32.6 0 0 1-1.213-.49c-.934-.394-2.009-.88-2.523-1.16-1.953-1.062-3.334-2.341-3.994-3.654-.29-.576-.453-1.044-.561-1.889s-.152-2.059-.187-4.068c-.055-3.142-.103-3.776-.357-4.941a16.8 16.8 0 0 0-1.369-3.756 14.24 14.24 0 0 0-.732-1.215 5.98 5.98 0 0 0-.312-.428 1.35 1.35 0 0 0-.131-.139c-.043-.04-.06-.102-.223-.104-.149-.001-.184.071-.213.105a.52.52 0 0 0-.066.102 2.55 2.55 0 0 0-.121.264c-.089.215-.196.513-.311.861-.23.697-.494 1.6-.705 2.445-.436 1.744-.631 2.85-.439 3.98s.757 2.246 1.791 4.037c1.832 3.175 2.446 4.687 2.615 6.379l.002.012c-.671-.412-.964-.64-1.861-1.479-1.343-1.256-2.035-1.989-2.393-2.516s-.784-1.438-.914-1.945c-.327-1.272-.316-3.566.066-6.941.436-3.846.459-5.054.137-7.01-.13-.788-.433-1.986-.73-2.998-.149-.506-.295-.965-.42-1.303a4.12 4.12 0 0 0-.172-.412.84.84 0 0 0-.082-.141c-.016-.022-.035-.045-.066-.07a.25.25 0 0 0-.168-.062c-.155 0-.203.09-.236.139a1.04 1.04 0 0 0-.086.164c-.057.131-.128.322-.225.611a131.35 131.35 0 0 0-.965 3.125c-1.015 3.371-1.2 4.257-1.109 5.336.07.834.343 1.573.934 2.563.56.938.777 1.495 1.031 2.648.27 1.224.349 2.037.297 3.063l-.041.705-.199-.277c-1.692-2.442-2.808-4.666-3.279-6.502-.512-1.996-.419-3.58.41-6.77l.697-2.687c.622-2.393.69-2.86.688-4.807-.001-1.312-.032-1.872-.133-2.436-.191-1.07-.55-2.439-.896-3.549-.173-.555-.342-1.044-.49-1.402a3.6 3.6 0 0 0-.209-.437c-.033-.056-.065-.105-.107-.15s-.099-.113-.232-.113c-.141 0-.177.063-.213.1a.92.92 0 0 0-.096.117c-.061.088-.125.201-.199.34a17.37 17.37 0 0 0-.52 1.088c-.38.86-.797 1.918-1.059 2.736-.434 1.358-.588 2.201-.588 3.25 0 1.138.159 2.027.766 4.32.951 3.593 1.026 4.324.682 6.756l-.086.572-.078-.199a116.89 116.89 0 0 0-1.086-2.734c-1.21-2.954-1.6-4.191-1.898-6.021-.295-1.812-.259-2.787.137-3.93.124-.359.385-1.293.594-2.115.534-2.108.695-2.494 1.707-4.102.846-1.344 1.171-2.23 1.51-4.117.204-1.14.253-3.297.145-5.871l-.109-2.041a2.57 2.57 0 0 0-.059-.412.43.43 0 0 0-.066-.15.31.31 0 0 0-.227-.123c-.094 0-.117.027-.141.041a.42.42 0 0 0-.06.043c-.038.03-.076.065-.123.109a9.04 9.04 0 0 0-.352.355A32.27 32.27 0 0 0 21.5 67.99c-1.654 1.933-2.794 3.757-3.129 5.082-.126.499-.148.773-.115 1.523.041.944.18 1.575.742 3.404.237.772.249.852.248 1.623-.001.692-.081 1.509-.209 2.23s-.311 1.359-.467 1.646c-.072.133-.321.454-.506.637l-.035.035-.123-.896c-.614-4.503-.831-7.499-.687-9.357.042-.546.115-1.18.148-1.344.223-1.105.849-2.452 2.752-5.867 2.42-4.342 3.155-6.098 3.477-8.365.092-.651.119-1.54.098-2.305a10.51 10.51 0 0 0-.07-1.01c-.018-.138-.038-.256-.065-.357s-.038-.182-.137-.279a.28.28 0 0 0-.262-.062.43.43 0 0 0-.129.061c-.075.048-.157.114-.264.209a23.35 23.35 0 0 0-.967.949c-1.275 1.299-2.187 2.324-2.807 3.156-.519.697-.816 1.132-.971 1.852s-.177 1.698-.211 3.568c-.061 3.383-.055 3.354-.711 5.281l-.09.26-.066-.461c-.579-4.174-.478-8.336.191-10.172.376-1.03.891-1.817 2.602-3.949 2.011-2.507 2.6-3.582 2.959-5.406.089-.451.122-1.448.125-2.465s-.023-1.991-.113-2.422a2.97 2.97 0 0 0-.104-.385 1.15 1.15 0 0 0-.062-.145.42.42 0 0 0-.045-.07c-.021-.026-.045-.064-.127-.092-.001 0-.091-.012-.092-.012a.75.75 0 0 0-.057.012c-.028.008-.042.016-.055.023a.38.38 0 0 0-.057.039 1.38 1.38 0 0 0-.098.09 6.86 6.86 0 0 0-.275.289 28.96 28.96 0 0 0-.818.953c-1.365 1.648-2.103 2.571-2.529 3.484s-.519 1.785-.615 3.268c-.17 2.619-.341 3.257-1.363 5.066l-.207.367c-.078-1.165-.109-4.302-.041-5.225.055-.745.175-1.836.301-2.816s.263-1.872.334-2.15c.137-.537.197-.77.453-1.168s.72-.965 1.645-2.08a68.43 68.43 0 0 0 1.691-2.109c1.509-2.037 2.191-3.999 1.986-5.83a10.04 10.04 0 0 0-.646-2.506c-.244-.591-.666-1.405-1.055-2.08-.194-.338-.378-.638-.531-.861a2.91 2.91 0 0 0-.207-.275c-.031-.036-.061-.068-.098-.098s-.072-.076-.193-.076a8.96 8.96 0 0 0-.084.016c-.001 0-.039.018-.053.027-.027.019-.042.035-.053.049a.31.31 0 0 0-.041.063c-.017.034-.028.064-.041.102a3.99 3.99 0 0 0-.084.289c-.062.237-.134.563-.207.93-.274 1.37-.556 2.35-1.031 3.572a3.88 3.88 0 0 0-.35 1.637c-.028.673.007 1.053.201 2.227.108.651.162 1.005.18 1.248s.004.375-.035.637c-.266 1.772-.571 2.661-1.102 3.332a2.93 2.93 0 0 1-.271.242 10.41 10.41 0 0 1-.486.365c-.109.078-.2.135-.295.197l.035-.266c.222-1.487.28-2.668.285-5.943.005-3.353-.034-4.04-.289-5.287a7.17 7.17 0 0 0-1.396-3.094c-.24-.319-.935-1.047-1.607-1.729l-.916-.904a9.32 9.32 0 0 0-.32-.293 1.78 1.78 0 0 0-.111-.09.5.5 0 0 0-.055-.035c-.022-.012-.037-.037-.133-.037z"
         stroke="#a07843"
         stroke-width=".57"
         class="t"
         id="path437" />
      <path
         d="M14.191 36.843c-.121-1.861-.441-3.13-1.083-4.291-.299-.541-.604-1.001-.678-1.021-.241-.066-.318 1.419-.119 2.299.153.679.398 1.247 1.615 3.742.133.272.264.495.293.495s.016-.551-.028-1.224zm5.712 1.116a5.19 5.19 0 0 0 .201-1.331c0-.69-.346-2.71-.49-2.863-.112-.119-.657 1.295-.805 2.088-.094.502-.097.891-.013 1.658l.177 1.722.067.72.33-.668a10.66 10.66 0 0 0 .532-1.326zm-7.402 4.461c-.583-1.895-1.35-3.095-2.44-3.813l-.372-.245.184.535a8.22 8.22 0 0 0 .443 1.018c.268.497 2.348 3.38 2.399 3.324.016-.017-.081-.386-.214-.819zm7.442 9.044c.682-.819.928-1.269 1.206-2.208.259-.876.457-2.303.32-2.303-.215 0-1.415.939-1.873 1.466-.597.687-.748 1.136-.907 2.702-.189 1.853-.202 1.799.322 1.328.244-.219.663-.662.932-.985zm-7.969.687c-.502-1.862-1.209-3.301-1.912-3.894l-.268-.226.064 1.089c.049.832.14 1.241.386 1.731.315.628 1.822 2.446 1.938 2.337.032-.03-.061-.497-.207-1.037zm6.575 10.356c.048-2.122.138-2.423 1.055-3.536 1.048-1.272 1.733-1.622 1.486-.76a30.37 30.37 0 0 0-.346 1.644c-.265 1.4-.677 2.424-1.507 3.744-.691 1.1-.737 1.028-.689-1.093zm-6.923 1.546c-.648-.988-1.048-2.059-1.162-3.107-.119-1.096-.083-2.428.068-2.489.144-.057.483.657.994 2.097.494 1.39.676 2.183.761 3.311.054.723.043.831-.088.831-.083 0-.34-.29-.573-.644zm9.005 11.728c.725-1.277 1.015-2.206 1.101-3.526.086-1.313.043-2.598-.086-2.598-.047 0-.333.234-.634.521-1.124 1.066-1.533 2.169-1.422 3.827.072 1.065.394 2.545.554 2.545.028 0 .247-.346.487-.769zm-7.896-.725c-.07-.541-.226-1.248-.348-1.572-.236-.63-1.188-2.04-1.779-2.634l-.36-.362-.218.428c-.335.656-.35 1.749-.035 2.511.147.356.815 1.433 1.485 2.394l1.217 1.747.082-.764a9.08 9.08 0 0 0-.045-1.747zm10.837 15.49c.702-1.627.886-3.794.523-6.17-.315-2.063-.313-2.059-.594-1.811-.131.115-.405.57-.609 1.01-.441.953-.57 2.463-.335 3.94.181 1.134.694 3.516.758 3.516.025 0 .14-.218.255-.485zm-8.763.295l-.799-2.465c-.171-.639-.451-1.414-.623-1.722-.307-.551-1.235-1.374-1.548-1.374-.486 0 .139 2.301 1.03 3.793.644 1.079 2.27 3.216 2.375 3.122.03-.027-.165-.636-.434-1.353zm12.806 7.726c.345-1.09.392-2.898.096-3.714-.103-.284-.228-.54-.279-.571-.138-.082-.771.926-1.011 1.611a4.26 4.26 0 0 0-.211 1.17c-.001.531.361 3.145.481 3.472.072.196.584-.895.924-1.968zm-8.819 4.601c-.105-.17-.615-.891-1.133-1.603-1.366-1.877-2.803-3.283-4.537-4.44l-.295-.197.278.659c.786 1.864 1.916 3.449 3.003 4.213.631.444 2.708 1.67 2.837 1.675.022.001-.047-.138-.152-.308zm13.841.5c.172-1.933.143-2.244-.354-3.81l-.278-.877-.263.444c-.387.653-.723 1.824-.721 2.513.004 1.211.428 2.666 1.049 3.598.264.397.266.398.336.172.039-.125.142-1.043.231-2.039zm7.047 8.165c-.029-1.751-.177-2.618-.592-3.471-.386-.792-1.143-1.967-1.173-1.822-.055.264-.06 1.76-.007 2.427.095 1.203.262 1.66 1.031 2.829l.728 1.043c.016-.01.022-.463.013-1.007zm-14.562.395c0-.092-1.841-1.481-2.443-1.843-1.021-.614-2.764-1.076-5.19-1.377l-.439-.054.718.658c1.246 1.142 2.654 1.982 3.787 2.259.692.169 3.567.457 3.567.357zm7.036 9.043c-1.073-.091-2.444-.4-3.115-.703-.874-.394-3.151-1.74-3.151-1.863 0-.171.255-.226 1.674-.36 2.201-.208 3.727.125 5.393 1.177.968.611 2.059 1.464 2.059 1.611 0 .071-.262.142-.662.181-.745.072-.871.07-2.198-.043z"
         class="r"
         id="path439" />
    </g>
  </g>
</svg>
