<?xml version="1.0" encoding="utf-8"?>
<svg viewBox="738.14 2362.049 19572.929 25025.112" width="210mm" height="268.497mm" style="shape-rendering:geometricPrecision; text-rendering:geometricPrecision; image-rendering:optimizeQuality; fill-rule:evenodd; clip-rule:evenodd" xmlns="http://www.w3.org/2000/svg" xmlns:xlink="http://www.w3.org/1999/xlink" xmlns:bx="https://boxy-svg.com">
  <defs>
    <linearGradient id="gradient-2-0" gradientUnits="userSpaceOnUse" x1="10500" y1="3964.05" x2="10500" y2="14326" xlink:href="#gradient-2"/>
    <linearGradient id="gradient-2">
      <stop offset="0.65" style="stop-color: rgb(160, 217, 246);"/>
      <stop offset="1" style="stop-color: rgb(115, 191, 216);"/>
    </linearGradient>
    <linearGradient gradientUnits="userSpaceOnUse" x1="10500" y1="3964.05" x2="10500" y2="14326" id="gradient-0">
      <stop offset="0" style="stop-color: #bada55"/>
      <stop offset="1" style="stop-color: #758d29"/>
    </linearGradient>
    <filter id="inner-shadow-filter-1" color-interpolation-filters="sRGB" x="-50%" y="-50%" width="200%" height="200%" bx:preset="inner-shadow 1 0 0 70 0.5 rgba(0,0,0,0.7)">
      <feOffset dx="0" dy="0"/>
      <feGaussianBlur stdDeviation="70"/>
      <feComposite operator="out" in="SourceGraphic"/>
      <feComponentTransfer result="choke">
        <feFuncA type="linear" slope="1"/>
      </feComponentTransfer>
      <feFlood flood-color="rgba(0,0,0,0.7)" result="color"/>
      <feComposite operator="in" in="color" in2="choke" result="shadow"/>
      <feComposite operator="over" in="shadow" in2="SourceGraphic"/>
    </filter>
    <filter id="drop-shadow-filter-0" color-interpolation-filters="sRGB" x="-50%" y="-50%" width="200%" height="200%" bx:preset="drop-shadow 1 10 10 0 0.5 rgba(0,0,0,0.3)">
      <feGaussianBlur in="SourceAlpha" stdDeviation="0"/>
      <feOffset dx="10" dy="10"/>
      <feComponentTransfer result="offsetblur">
        <feFuncA id="spread-ctrl" type="linear" slope="1"/>
      </feComponentTransfer>
      <feFlood flood-color="rgba(0,0,0,0.3)"/>
      <feComposite in2="offsetblur" operator="in"/>
      <feMerge>
        <feMergeNode/>
        <feMergeNode in="SourceGraphic"/>
      </feMerge>
    </filter>
    <filter id="inner-shadow-filter-2" color-interpolation-filters="sRGB" x="-50%" y="-50%" width="200%" height="200%" bx:preset="inner-shadow 1 0 0 10 0.5 rgba(0,0,0,0.7)">
      <feOffset dx="0" dy="0"/>
      <feGaussianBlur stdDeviation="10"/>
      <feComposite operator="out" in="SourceGraphic"/>
      <feComponentTransfer result="choke">
        <feFuncA type="linear" slope="1"/>
      </feComponentTransfer>
      <feFlood flood-color="rgba(0,0,0,0.7)" result="color"/>
      <feComposite operator="in" in="color" in2="choke" result="shadow"/>
      <feComposite operator="over" in="shadow" in2="SourceGraphic"/>
    </filter>
    <filter id="gaussian-blur-filter-4" color-interpolation-filters="sRGB" x="-50%" y="-50%" width="200%" height="200%" bx:preset="gaussian-blur 1 5">
      <feGaussianBlur stdDeviation="5 5" edgeMode="none"/>
    </filter>
    <filter id="gaussian-blur-filter-5" color-interpolation-filters="sRGB" x="-50%" y="-50%" width="200%" height="200%" bx:preset="gaussian-blur 1 5">
      <feGaussianBlur stdDeviation="5 5" edgeMode="none"/>
    </filter>
    <filter id="inner-shadow-filter-3" color-interpolation-filters="sRGB" x="-50%" y="-50%" width="200%" height="200%" bx:preset="inner-shadow 1 0 0 70 0.5 rgba(0,0,0,0.7)">
      <feOffset dx="0" dy="0"/>
      <feGaussianBlur stdDeviation="70"/>
      <feComposite operator="out" in="SourceGraphic"/>
      <feComponentTransfer result="choke">
        <feFuncA type="linear" slope="1"/>
      </feComponentTransfer>
      <feFlood flood-color="rgba(0,0,0,0.7)" result="color"/>
      <feComposite operator="in" in="color" in2="choke" result="shadow"/>
      <feComposite operator="over" in="shadow" in2="SourceGraphic"/>
    </filter>
    <filter id="drop-shadow-filter-1" color-interpolation-filters="sRGB" x="-50%" y="-50%" width="200%" height="200%" bx:preset="drop-shadow 1 10 10 50 0.5 #0000007c">
      <feGaussianBlur in="SourceAlpha" stdDeviation="50"/>
      <feOffset dx="10" dy="10"/>
      <feComponentTransfer result="offsetblur">
        <feFuncA id="spread-ctrl" type="linear" slope="1"/>
      </feComponentTransfer>
      <feFlood flood-color="#0000007c"/>
      <feComposite in2="offsetblur" operator="in"/>
      <feMerge>
        <feMergeNode/>
        <feMergeNode in="SourceGraphic"/>
      </feMerge>
    </filter>
    <filter id="gaussian-blur-filter-1" color-interpolation-filters="sRGB" x="-50%" y="-50%" width="200%" height="200%" bx:preset="gaussian-blur 1 5">
      <feGaussianBlur stdDeviation="5 5" edgeMode="none"/>
    </filter>
    <filter id="gaussian-blur-filter-2" color-interpolation-filters="sRGB" x="-50%" y="-50%" width="200%" height="200%" bx:preset="gaussian-blur 1 5">
      <feGaussianBlur stdDeviation="5 5" edgeMode="none"/>
    </filter>
    <filter id="gaussian-blur-filter-3" color-interpolation-filters="sRGB" x="-50%" y="-50%" width="200%" height="200%" bx:preset="gaussian-blur 1 5">
      <feGaussianBlur stdDeviation="5 5" edgeMode="none"/>
    </filter>
    <filter id="inner-shadow-filter-5" color-interpolation-filters="sRGB" x="-50%" y="-50%" width="200%" height="200%" bx:preset="inner-shadow 1 0 0 10 0.5 rgba(0,0,0,0.7)">
      <feOffset dx="0" dy="0"/>
      <feGaussianBlur stdDeviation="10"/>
      <feComposite operator="out" in="SourceGraphic"/>
      <feComponentTransfer result="choke">
        <feFuncA type="linear" slope="1"/>
      </feComponentTransfer>
      <feFlood flood-color="rgba(0,0,0,0.7)" result="color"/>
      <feComposite operator="in" in="color" in2="choke" result="shadow"/>
      <feComposite operator="over" in="shadow" in2="SourceGraphic"/>
    </filter>
    <filter id="drop-shadow-filter-3" color-interpolation-filters="sRGB" x="-50%" y="-50%" width="200%" height="200%" bx:preset="drop-shadow 1 10 10 0 0.5 rgba(0,0,0,0.3)">
      <feGaussianBlur in="SourceAlpha" stdDeviation="0"/>
      <feOffset dx="10" dy="10"/>
      <feComponentTransfer result="offsetblur">
        <feFuncA id="spread-ctrl" type="linear" slope="1"/>
      </feComponentTransfer>
      <feFlood flood-color="rgba(0,0,0,0.3)"/>
      <feComposite in2="offsetblur" operator="in"/>
      <feMerge>
        <feMergeNode/>
        <feMergeNode in="SourceGraphic"/>
      </feMerge>
    </filter>
    <linearGradient id="gradient-3-0" gradientUnits="userSpaceOnUse" x1="10500" y1="7750" x2="10500" y2="14326" xlink:href="#gradient-3"/>
    <linearGradient id="gradient-3" bx:pinned="true">
      <stop offset="0" style="stop-color: rgb(0, 144, 53);"/>
      <stop offset="1" style="stop-color: rgb(0, 174, 85);"/>
    </linearGradient>
    <filter id="gaussian-blur-filter-0" color-interpolation-filters="sRGB" x="-50%" y="-50%" width="200%" height="200%" bx:preset="gaussian-blur 1 100">
      <feGaussianBlur stdDeviation="100 100" edgeMode="none"/>
    </filter>
    <filter id="inner-shadow-filter-0" color-interpolation-filters="sRGB" x="-50%" y="-50%" width="200%" height="200%" bx:preset="inner-shadow 1 0 0 50 0.5 rgba(0,0,0,0.7)">
      <feOffset dx="0" dy="0"/>
      <feGaussianBlur stdDeviation="50"/>
      <feComposite operator="out" in="SourceGraphic"/>
      <feComponentTransfer result="choke">
        <feFuncA type="linear" slope="1"/>
      </feComponentTransfer>
      <feFlood flood-color="rgba(0,0,0,0.7)" result="color"/>
      <feComposite operator="in" in="color" in2="choke" result="shadow"/>
      <feComposite operator="over" in="shadow" in2="SourceGraphic"/>
    </filter>
    <filter id="drop-shadow-filter-2" color-interpolation-filters="sRGB" x="-50%" y="-50%" width="200%" height="200%" bx:preset="drop-shadow 1 10 10 150 0.9 #000000ac">
      <feGaussianBlur in="SourceAlpha" stdDeviation="150"/>
      <feOffset dx="10" dy="10"/>
      <feComponentTransfer result="offsetblur">
        <feFuncA id="spread-ctrl" type="linear" slope="1.8"/>
      </feComponentTransfer>
      <feFlood flood-color="#000000ac"/>
      <feComposite in2="offsetblur" operator="in"/>
      <feMerge>
        <feMergeNode/>
        <feMergeNode in="SourceGraphic"/>
      </feMerge>
    </filter>
    <style type="text/css">
   
    .fil0 {fill:none}
    .fil5 {fill:#FEFEFE}
    .fil2 {fill:#FFF000}
    .fil1 {fill:#E62129}
    .fil3 {fill:#A0D9F6}
    .fil6 {fill:#009B4C}
    .fil4 {fill:#2F318B}
    .fil9 {fill:#1D1819}
    .fil8 {fill:#FEFEFE;fill-rule:nonzero}
    .fil7 {fill:#FFF000;fill-rule:nonzero}
   
  </style>
  </defs>
  <g id="Layer_x0020_1" transform="matrix(1, 0, 0, 1, 0, -5.4569682106375694e-12)">
    <g id="Kota_x0020_Baru.cdr">
      <g>
        <rect class="fil0" x="-9500" y="-150" width="40000" height="30000"/>
        <g>
          <path class="fil1" d="M10500 27246l9631 -5879c0,-5660 0,-11319 0,-16979 -6167,-2538 -12579,-2619 -19262,0l0 16979 9631 5879z"/>
          <path class="fil2" d="M10500 26455l8955 -5467c0,-5381 0,-10550 0,-15931 -5806,-2541 -11767,-2463 -17910,8l0 15923 8955 5467z"/>
          <path class="fil3" d="M18998 14326l0 -8679c-5666,-2301 -11320,-2191 -16996,15l0 8664 16996 0z" style="stroke: url('#gradient-0'); paint-order: fill; fill-rule: nonzero; fill: url('#gradient-2-0'); filter: url('#inner-shadow-filter-1');"/>
          <path class="fil7" d="M 4328.771 6781.54 L 4837.771 6749.54 C 4848.771 6832.54 4870.771 6895.54 4904.771 6938.54 C 4959.771 7009.54 5038.771 7043.54 5140.771 7043.54 C 5217.771 7043.54 5276.771 7025.54 5317.771 6990.54 C 5358.771 6954.54 5379.771 6912.54 5379.771 6865.54 C 5379.771 6820.54 5359.771 6780.54 5320.771 6744.54 C 5280.771 6709.54 5189.771 6676.54 5046.771 6644.54 C 4811.771 6591.54 4644.771 6521.54 4544.771 6434.54 C 4443.771 6347.54 4393.771 6235.54 4393.771 6100.54 C 4393.771 6011.54 4418.771 5926.54 4470.771 5847.54 C 4522.771 5768.54 4599.771 5706.54 4703.771 5661.54 C 4806.771 5616.54 4948.771 5593.54 5128.771 5593.54 C 5350.771 5593.54 5519.771 5634.54 5635.771 5716.54 C 5751.771 5799.54 5820.771 5930.54 5842.771 6109.54 L 5338.771 6138.54 C 5324.771 6061.54 5296.771 6004.54 5253.771 5968.54 C 5210.771 5933.54 5151.771 5916.54 5076.771 5916.54 C 5013.771 5916.54 4966.771 5928.54 4935.771 5955.54 C 4903.771 5981.54 4888.771 6014.54 4888.771 6051.54 C 4888.771 6079.54 4901.771 6103.54 4926.771 6126.54 C 4952.771 6149.54 5011.771 6170.54 5106.771 6189.54 C 5340.771 6240.54 5507.771 6291.54 5609.771 6342.54 C 5710.771 6394.54 5784.771 6458.54 5829.771 6534.54 C 5875.771 6611.54 5899.771 6696.54 5899.771 6791.54 C 5899.771 6902.54 5868.771 7004.54 5807.771 7098.54 C 5745.771 7192.54 5659.771 7263.54 5549.771 7311.54 C 5439.771 7359.54 5300.771 7383.54 5132.771 7383.54 C 4838.771 7383.54 4634.771 7327.54 4520.771 7213.54 C 4407.771 7100.54 4343.771 6956.54 4328.771 6781.54 Z M 7233.771 7068.54 L 6624.771 7068.54 L 6540.771 7354.54 L 5993.771 7354.54 L 6644.771 5622.54 L 7227.771 5622.54 L 7878.771 7354.54 L 7318.771 7354.54 L 7233.771 7068.54 Z M 7121.771 6694.54 L 6930.771 6071.54 L 6739.771 6694.54 L 7121.771 6694.54 Z M 7926.771 6537.54 L 8625.771 6537.54 L 8625.771 6909.54 L 7926.771 6909.54 L 7926.771 6537.54 Z M 8876.771 5622.54 L 9412.771 5622.54 L 9412.771 7354.54 L 8876.771 7354.54 L 8876.771 5622.54 Z M 10517.771 5622.54 L 11053.771 5622.54 L 11053.771 6564.54 C 11053.771 6761.54 11036.771 6912.54 11000.771 7015.54 C 10965.771 7118.54 10895.771 7206.54 10789.771 7277.54 C 10683.771 7349.54 10548.771 7385.54 10382.771 7385.54 C 10207.771 7385.54 10072.771 7361.54 9976.771 7314.54 C 9880.771 7267.54 9806.771 7198.54 9753.771 7106.54 C 9701.771 7016.54 9670.771 6903.54 9661.771 6769.54 L 10172.771 6700.54 C 10173.771 6776.54 10180.771 6833.54 10192.771 6870.54 C 10205.771 6907.54 10226.771 6937.54 10256.771 6959.54 C 10276.771 6975.54 10305.771 6982.54 10343.771 6982.54 C 10403.771 6982.54 10447.771 6960.54 10475.771 6915.54 C 10503.771 6871.54 10517.771 6796.54 10517.771 6690.54 L 10517.771 5622.54 Z M 12413.771 7068.54 L 11803.771 7068.54 L 11719.771 7354.54 L 11173.771 7354.54 L 11823.771 5622.54 L 12407.771 5622.54 L 13058.771 7354.54 L 12498.771 7354.54 L 12413.771 7068.54 Z M 12301.771 6694.54 L 12109.771 6071.54 L 11919.771 6694.54 L 12301.771 6694.54 Z M 14294.771 7068.54 L 13685.771 7068.54 L 13601.771 7354.54 L 13054.771 7354.54 L 13705.771 5622.54 L 14288.771 5622.54 L 14939.771 7354.54 L 14379.771 7354.54 L 14294.771 7068.54 Z M 14182.771 6694.54 L 13991.771 6071.54 L 13800.771 6694.54 L 14182.771 6694.54 Z M 15114.771 5622.54 L 15614.771 5622.54 L 16266.771 6580.54 L 16266.771 5622.54 L 16770.771 5622.54 L 16770.771 7354.54 L 16266.771 7354.54 L 15617.771 6403.54 L 15617.771 7354.54 L 15114.771 7354.54 L 15114.771 5622.54 Z" style="fill: rgb(0, 0, 0); filter: url('#drop-shadow-filter-0') url('#outline-filter-0') url('#inner-shadow-filter-2') url('#gaussian-blur-filter-4') url('#gaussian-blur-filter-5'); opacity: 0.51; mix-blend-mode: soft-light;"/>
          <polygon class="fil4" points="10500,25663 18998,20609 18998,15401 2002,15401 2002,20609 " style="filter: url('#inner-shadow-filter-3');"/>
          <path class="fil6" d="M 19000.692 13294.59 C 17467.692 12561.59 15860.692 12006.59 14624.692 11128.59 C 13363.692 10233.59 12435.692 9176.59 11509.692 7985.59 C 11366.692 8165.59 11222.692 8344.59 11079.692 8523.59 C 10871.692 8258.59 10663.692 7992.59 10455.692 7727.59 C 7587.692 10352.59 4767.692 12303.59 2004.692 13448.59 L 2004.692 14303.59 L 19000.692 14303.59 L 19000.692 13294.59 Z" style="fill: rgb(0, 0, 0); filter: url('#inner-shadow-filter-2') url('#inner-shadow-filter-4') url('#drop-shadow-filter-1') url('#gaussian-blur-filter-1') url('#gaussian-blur-filter-2') url('#gaussian-blur-filter-3') url('#drop-shadow-filter-0'); opacity: 0.5;"/>
          <path class="fil5" d="M14802 23105l680 -405c-480,-23 -896,-189 -1141,-431l-22 0c-264,261 -728,434 -1256,434 -528,0 -992,-173 -1256,-434l-22 0c-264,261 -728,434 -1256,434 -525,0 -987,-171 -1252,-430 -265,259 -727,430 -1253,430 -528,0 -991,-173 -1256,-434l-22 0c-259,256 -709,427 -1224,434l710 422c209,-75 385,-182 514,-309l22 0c220,217 576,373 993,419l526 0c415,-46 770,-201 990,-415 219,214 575,369 989,415l526 0c417,-46 774,-202 993,-419l22 0c219,217 576,373 993,419l526 0c417,-46 774,-202 993,-419l22 0c118,116 275,215 461,289zm4196 -2582l0 -547c-249,118 -560,189 -896,189 -526,0 -987,-172 -1253,-430 -265,258 -726,430 -1252,430 -528,0 -992,-174 -1256,-434l-22 0c-264,260 -728,434 -1256,434 -528,0 -992,-174 -1256,-434l-22 0c-264,260 -728,434 -1256,434 -525,0 -987,-172 -1252,-430 -265,258 -727,430 -1253,430 -528,0 -991,-174 -1256,-434l-22 0c-264,260 -728,434 -1256,434 -528,0 -992,-174 -1256,-434l-98 0c-265,260 -728,434 -1256,434 -329,0 -632,-67 -878,-180l0 547c179,82 388,140 615,165l525 0c417,-47 774,-203 994,-419l98 0c219,216 576,372 993,419l526 0c417,-47 774,-203 993,-419l22 0c220,216 576,372 993,419l526 0c415,-46 770,-201 990,-415 219,214 575,369 989,415l526 0c417,-47 774,-203 993,-419l22 0c219,216 576,372 993,419l526 0c417,-47 774,-203 993,-419l22 0c219,216 576,372 993,419l526 0c415,-46 770,-201 989,-415 220,214 575,369 990,415l526 0c234,-26 450,-87 633,-174zm0 -2553l0 -547c-249,118 -560,188 -896,188 -526,0 -987,-171 -1253,-430 -265,259 -726,430 -1252,430 -528,0 -992,-173 -1256,-433l-22 0c-264,260 -728,433 -1256,433 -528,0 -992,-173 -1256,-433l-22 0c-264,260 -728,433 -1256,433 -525,0 -987,-171 -1252,-430 -265,259 -727,430 -1253,430 -528,0 -991,-173 -1256,-433l-22 0c-264,260 -728,433 -1256,433 -528,0 -992,-173 -1256,-433l-98 0c-265,260 -728,433 -1256,433 -329,0 -632,-66 -878,-179l0 547c179,82 388,139 615,165l525 0c417,-47 774,-203 994,-419l98 0c219,216 576,372 993,419l526 0c417,-47 774,-203 993,-419l22 0c220,216 576,372 993,419l526 0c415,-47 770,-201 990,-415 219,214 575,368 989,415l526 0c417,-47 774,-203 993,-419l22 0c219,216 576,372 993,419l526 0c417,-47 774,-203 993,-419l22 0c219,216 576,372 993,419l526 0c415,-47 770,-201 989,-415 220,214 575,368 990,415l526 0c234,-26 450,-87 633,-174z" style="isolation: isolate; filter: url('#inner-shadow-filter-5') url('#drop-shadow-filter-3');"/>
          <path class="fil6" d="M18998 13317c-1533,-733 -3140,-1288 -4376,-2166 -1261,-895 -2189,-1952 -3115,-3143 -143,180 -287,359 -430,538 -208,-265 -416,-531 -624,-796 -2868,2625 -5688,4576 -8451,5721l0 855 16996 0 0 -1009z" style="filter: url('#inner-shadow-filter-2') url('#inner-shadow-filter-4') url('#drop-shadow-filter-1'); fill: url('#gradient-3-0');"/>
          <path class="fil7" d="M4321 6687l509 -32c11,83 33,146 67,189 55,71 134,105 236,105 77,0 136,-18 177,-53 41,-36 62,-78 62,-125 0,-45 -20,-85 -59,-121 -40,-35 -131,-68 -274,-100 -235,-53 -402,-123 -502,-210 -101,-87 -151,-199 -151,-334 0,-89 25,-174 77,-253 52,-79 129,-141 233,-186 103,-45 245,-68 425,-68 222,0 391,41 507,123 116,83 185,214 207,393l-504 29c-14,-77 -42,-134 -85,-170 -43,-35 -102,-52 -177,-52 -63,0 -110,12 -141,39 -32,26 -47,59 -47,96 0,28 13,52 38,75 26,23 85,44 180,63 234,51 401,102 503,153 101,52 175,116 220,192 46,77 70,162 70,257 0,111 -31,213 -92,307 -62,94 -148,165 -258,213 -110,48 -249,72 -417,72 -294,0 -498,-56 -612,-170 -113,-113 -177,-257 -192,-432zm2905 287l-609 0 -84 286 -547 0 651 -1732 583 0 651 1732 -560 0 -85 -286zm-112 -374l-191 -623 -191 623 382 0zm805 -157l699 0 0 372 -699 0 0 -372zm950 -915l536 0 0 1732 -536 0 0 -1732zm1641 0l536 0 0 942c0,197 -17,348 -53,451 -35,103 -105,191 -211,262 -106,72 -241,108 -407,108 -175,0 -310,-24 -406,-71 -96,-47 -170,-116 -223,-208 -52,-90 -83,-203 -92,-337l511 -69c1,76 8,133 20,170 13,37 34,67 64,89 20,16 49,23 87,23 60,0 104,-22 132,-67 28,-44 42,-119 42,-225l0 -1068zm1896 1446l-610 0 -84 286 -546 0 650 -1732 584 0 651 1732 -560 0 -85 -286zm-112 -374l-192 -623 -190 623 382 0zm1993 374l-609 0 -84 286 -547 0 651 -1732 583 0 651 1732 -560 0 -85 -286zm-112 -374l-191 -623 -191 623 382 0zm932 -1072l500 0 652 958 0 -958 504 0 0 1732 -504 0 -649 -951 0 951 -503 0 0 -1732z" style="filter: url('#drop-shadow-filter-0') url('#outline-filter-0') url('#inner-shadow-filter-2');"/>
          <path class="fil9" d="M 6709.435 17697.017 C 6482.435 17366.017 6429.435 16941.017 6480.435 16550.017 C 6514.435 16290.017 6605.435 15991.017 6756.435 15738.017 C 6550.435 15513.017 6387.435 15257.017 6266.435 14958.017 C 6105.435 14556.017 6039.435 14123.017 5994.435 13695.017 L 5851.435 12240.017 L 3160.435 6821.017 L 3514.435 7242.017 L 3591.435 7337.017 C 4676.435 8671.017 5762.435 10004.017 6847.435 11338.017 C 7837.435 11573.017 8551.435 11925.017 9139.435 12780.017 C 10108.435 12816.017 10952.435 12968.017 11733.435 13590.017 C 11955.435 13767.017 12159.435 13965.017 12366.435 14159.017 C 12505.435 14290.017 12646.435 14419.017 12790.435 14543.017 L 13296.435 14976.017 L 12661.435 14774.017 C 12013.435 14567.017 11180.435 14479.017 10671.435 15028.017 C 10165.435 15574.017 10266.435 16441.017 10503.435 17083.017 C 10761.435 17781.017 11227.435 18406.017 11770.435 18918.017 C 11994.435 18841.017 12222.435 18816.017 12468.435 18901.017 C 12697.435 18980.017 12861.435 19092.017 13112.435 19138.017 L 13489.435 19207.017 L 13153.435 19390.017 C 12990.435 19478.017 12837.435 19544.017 12700.435 19626.017 C 13128.435 19882.017 13590.435 20073.017 14083.435 20200.017 C 14323.435 19651.017 14701.435 19131.017 15325.435 19008.017 L 15822.435 18910.017 L 15440.435 19242.017 C 15099.435 19540.017 14765.435 19960.017 14878.435 20442.017 L 14896.435 20521.017 L 14834.435 20575.017 C 14345.435 20998.017 14389.435 21587.017 14596.435 22144.017 L 14843.435 22808.017 L 14369.435 22282.017 C 13962.435 21830.017 13870.435 21248.017 13926.435 20663.017 C 13358.435 20672.017 12807.435 20562.017 12248.435 20477.017 C 12231.435 20636.017 12275.435 20757.017 12321.435 20916.017 L 12392.435 21161.017 L 12150.435 21082.017 C 11694.435 20933.017 11355.435 20650.017 11307.435 20157.017 C 11238.435 20129.017 11169.435 20100.017 11100.435 20071.017 C 11005.435 20032.017 10910.435 19992.017 10815.435 19953.017 C 10705.435 20119.017 10709.435 20285.017 10788.435 20473.017 L 10980.435 20933.017 L 10582.435 20633.017 C 10295.435 20416.017 10145.435 20124.017 10144.435 19768.017 C 10088.435 19742.017 10031.435 19717.017 9975.435 19691.017 C 9931.435 19769.017 9893.435 19850.017 9863.435 19934.017 L 9756.435 20232.017 L 9615.435 19948.017 C 9514.435 19745.017 9470.435 19560.017 9498.435 19338.017 C 8930.435 19013.017 8422.435 18309.017 8009.435 17797.017 C 7882.435 17933.017 7770.435 17990.017 7665.435 18350.017 L 7557.435 18266.017 C 7310.435 18073.017 7180.435 17789.017 7121.435 17474.017 C 7050.435 17531.017 6987.435 17597.017 6939.435 17685.017 L 6833.435 17879.017 L 6709.435 17697.017 Z" style="filter: url('#gaussian-blur-filter-0'); opacity: 0.9;"/>
          <path class="fil8" d="M11938 9683c-19,154 -34,279 109,406 150,132 42,248 -117,110 -194,-169 -174,-334 -150,-535 15,-121 176,-130 158,19z"/>
          <path class="fil8" d="M10822 9355c-13,36 -21,75 -24,116 -4,49 -2,102 6,156 27,194 -125,230 -155,38 -11,-71 -15,-140 -10,-207 7,-77 25,-150 61,-218 87,-165 173,-22 122,115z"/>
          <path class="fil9" d="M6625 17509c-227,-331 -280,-756 -229,-1147 34,-260 125,-559 276,-812 -206,-225 -369,-481 -490,-780 -161,-402 -227,-835 -272,-1263l-143 -1455 -2691 -5419 354 421 77 95c1085,1334 2171,2667 3256,4001 990,235 1704,587 2292,1442 969,36 1813,188 2594,810 222,177 426,375 633,569 139,131 280,260 424,384l506 433 -635 -202c-648,-207 -1481,-295 -1990,254 -506,546 -405,1413 -168,2055 258,698 724,1323 1267,1835 224,-77 452,-102 698,-17 229,79 393,191 644,237l377 69 -336 183c-163,88 -316,154 -453,236 428,256 890,447 1383,574 240,-549 618,-1069 1242,-1192l497 -98 -382 332c-341,298 -675,718 -562,1200l18 79 -62 54c-489,423 -445,1012 -238,1569l247 664 -474 -526c-407,-452 -499,-1034 -443,-1619 -568,9 -1119,-101 -1678,-186 -17,159 27,280 73,439l71 245 -242 -79c-456,-149 -795,-432 -843,-925 -69,-28 -138,-57 -207,-86 -95,-39 -190,-79 -285,-118 -110,166 -106,332 -27,520l192 460 -398 -300c-287,-217 -437,-509 -438,-865 -56,-26 -113,-51 -169,-77 -44,78 -82,159 -112,243l-107 298 -141 -284c-101,-203 -145,-388 -117,-610 -568,-325 -1076,-1029 -1489,-1541 -127,136 -239,193 -344,553l-108 -84c-247,-193 -377,-477 -436,-792 -71,57 -134,123 -182,211l-106 194 -124 -182z"/>
          <path class="fil8" d="M9514 9744c84,-37 162,-86 232,-147 110,-94 186,-212 260,-355 116,-225 306,-116 180,136 -79,157 -162,293 -286,400 -82,71 -153,159 -252,201 -137,57 -308,117 -378,-47 -71,-169 130,-138 244,-188z"/>
          <path class="fil2" d="M12619 14457c-147,-125 -288,-255 -430,-388 -204,-191 -406,-387 -625,-561 -763,-609 -1590,-750 -2548,-782l-34 -1 -20 -28c-578,-857 -1277,-1192 -2252,-1421l-22 -5 -15 -18 -2975 -3626 2194 4373 6 10 0 4 397 454c407,-169 728,244 1018,615 207,266 396,509 554,459l35 114c-236,73 -449,-200 -682,-499 -252,-323 -530,-680 -840,-592l1258 1439 -90 79 -1623 -1859c48,423 75,845 120,1268 43,415 107,839 263,1228 176,438 449,777 817,1062l68 -113 134 43c-48,92 -97,169 -115,272 -107,608 -196,1551 331,1977 55,-202 198,-335 344,-470 285,-264 583,-539 79,-1450l104 -57c518,937 250,1263 -50,1545 415,511 924,1214 1500,1526l43 23 -8 47c-38,226 7,393 97,575 40,-111 91,-217 153,-319l31 -51 55 25c88,40 177,80 265,120l41 19 -1 45c-12,350 132,608 383,798 -96,-231 -105,-465 75,-697l32 -41 48 20c111,47 223,93 334,140 82,34 163,68 245,102l39 16 2 42c30,467 346,713 754,846 -55,-188 -112,-339 -67,-566l13 -63 63 10c600,88 1187,214 1798,192l79 -3 -10 78c-70,597 15,1161 402,1590 -226,-605 -263,-1252 276,-1718 -126,-537 215,-992 606,-1332 -584,114 -938,619 -1168,1165l-22 53 -56 -14c-833,-206 -1580,-587 -2229,-1148 -642,-556 -1204,-1265 -1500,-2067 -256,-693 -349,-1607 195,-2194 544,-587 1410,-521 2131,-291zm-4714 934c665,447 880,1123 1099,1813 276,871 560,1764 1796,2205l-40 112c-1291,-461 -1584,-1382 -1869,-2281 -213,-670 -421,-1327 -1052,-1750l66 -99zm850 -1026c-87,295 -217,486 -388,581 -24,14 -50,26 -76,35 317,460 600,945 845,1459 248,521 457,1074 621,1661l-114 32c-162,-579 -369,-1126 -615,-1642 -246,-517 -531,-1003 -850,-1464l36 -24c-140,29 -298,7 -474,-64 -123,-49 -228,-110 -325,-182 -96,-70 -184,-151 -275,-241 -234,-230 -438,-471 -609,-721 -172,-251 -312,-512 -416,-784l111 -43c101,264 236,517 403,760 167,244 366,478 594,703 88,87 172,164 262,230 90,66 186,122 300,168 209,84 385,91 525,13 142,-79 254,-247 331,-510l114 33zm-1848 -2663c99,594 323,1044 998,976 -179,-501 -521,-816 -998,-976z" style="filter: url('#inner-shadow-filter-0') url('#drop-shadow-filter-2') url('#inner-shadow-filter-0');"/>
          <path class="fil2" d="M11801 18836c533,-152 685,152 1203,247 -180,97 -357,171 -516,276 -211,-134 -413,-285 -606,-452 -27,-24 -54,-47 -81,-71z"/>
          <path class="fil2" d="M6736 17433c72,-132 173,-219 278,-295 -49,-413 8,-861 72,-1216 -114,-85 -219,-175 -316,-271 -293,513 -374,1284 -34,1782z"/>
        </g>
      </g>
    </g>
  </g>
</svg>