<?xml version="1.0" encoding="UTF-8" standalone="no"?>
<svg
   xmlns:dc="http://purl.org/dc/elements/1.1/"
   xmlns:cc="http://creativecommons.org/ns#"
   xmlns:rdf="http://www.w3.org/1999/02/22-rdf-syntax-ns#"
   xmlns:svg="http://www.w3.org/2000/svg"
   xmlns="http://www.w3.org/2000/svg"
   xmlns:xlink="http://www.w3.org/1999/xlink"
   xmlns:sodipodi="http://sodipodi.sourceforge.net/DTD/sodipodi-0.dtd"
   xmlns:inkscape="http://www.inkscape.org/namespaces/inkscape"
   width="345.472"
   height="454.295"
   viewBox="0 0 91.406 120.199"
   version="1.1"
   id="svg536"
   sodipodi:docname="Seal of Klaten Regency.svg"
   inkscape:version="1.0.1 (3bc2e813f5, 2020-09-07)">
  <metadata
     id="metadata540">
    <rdf:RDF>
      <cc:Work
         rdf:about="">
        <dc:format>image/svg+xml</dc:format>
        <dc:type
           rdf:resource="http://purl.org/dc/dcmitype/StillImage" />
      </cc:Work>
    </rdf:RDF>
  </metadata>
  <sodipodi:namedview
     pagecolor="#ffffff"
     bordercolor="#666666"
     borderopacity="1"
     objecttolerance="10"
     gridtolerance="10"
     guidetolerance="10"
     inkscape:pageopacity="0"
     inkscape:pageshadow="2"
     inkscape:window-width="1366"
     inkscape:window-height="705"
     id="namedview538"
     showgrid="false"
     inkscape:zoom="0.70032039"
     inkscape:cx="53.94827"
     inkscape:cy="56.535529"
     inkscape:window-x="-8"
     inkscape:window-y="-8"
     inkscape:window-maximized="1"
     inkscape:current-layer="svg536" />
  <style
     id="style2"><![CDATA[.B{opacity:.998}.C{opacity:.999}.D{fill:#fff}.E{stroke:#005b31}.F{fill:#018f50}.G{stroke-width:.265}.H{stroke:#7c909b}.I{stroke-linecap:round}.J{fill:#00a75d}.K{fill:#c8d3d9}.L{fill:none}.M{stroke-linejoin:round}.N{stroke-width:.37}.O{stroke-width:.212}.P{stroke-width:.423}.Q{stroke-miterlimit:2}.R{fill:#f5c742}.S{stroke:#000}.T{fill-rule:evenodd}.U{stroke-width:.465}.V{stroke:#a07843}.W{stroke-width:.188}]]></style>
  <defs
     id="defs58">
    <linearGradient
       id="A"
       x1="105.156"
       y1="166.031"
       x2="140.468"
       y2="166.031"
       gradientUnits="userSpaceOnUse"
       gradientTransform="translate(-77.382,-67.704)">
      <stop
         offset="0"
         stop-color="#fff"
         id="stop4" />
      <stop
         offset=".157"
         stop-color="silver"
         id="stop6" />
      <stop
         offset=".313"
         stop-color="#fff"
         id="stop8" />
      <stop
         offset=".657"
         stop-color="#fff"
         id="stop10" />
      <stop
         offset=".886"
         stop-color="silver"
         id="stop12" />
      <stop
         offset="1"
         stop-color="#fff"
         id="stop14" />
    </linearGradient>
    <path
       id="B"
       d="M150.935 102.761c-.52-.009-1.061.632-.289.804.408.365 1.04 1.661 1.576.91.053-.714-.493-1.218-1.081-1.438-.077-.086-.139-.183-.207-.277z" />
    <path
       id="C"
       d="M149.645 103.324c-.458-.034-1.174.656-.45.797.381.017 1.068-.535.45-.797z" />
    <path
       id="D"
       d="M148.339 103.258c-.72-.198-.777 1.079.006.718.212-.15.18-.56-.006-.718z" />
    <path
       id="E"
       d="M146.883 102.613c-.448-.124-.91.548-.276.617.273.538.877.456.637-.219-.074-.17-.238-.27-.362-.398z" />
    <path
       id="F"
       d="M146.503 101.753c-1.037.05.376 1.231.35.258-.075-.131-.22-.196-.35-.258z" />
    <path
       id="G"
       d="M146.933 100.992c-.483-.392-1.081.352-.362.579.491.267.882-.325.362-.579z" />
    <path
       id="H"
       d="M147.446 100.016c-.726.392.337 1.514.477.534.08-.308-.138-.634-.477-.534z" />
    <path
       id="I"
       d="M148.521 99.801c-.719-.201-.696.983.012.644.15-.116.3-.655-.012-.644z" />
    <path
       id="J"
       d="M149.314 100.331c-.875-.141-.371 1.069.217.677.312-.273-.067-.479-.217-.677z" />
    <path
       id="K"
       d="M150.521 101.025c-.548-.229-1.154.517-.355.682.502.253.968-.447.355-.682z" />
    <path
       id="L"
       d="M151.133 101.472c-.875.314.484 1.123.541.245.037-.232-.394-.397-.541-.245z" />
    <path
       id="M"
       d="M152.473 100.264c-1.008.405.648 1.513.611.407.008-.323-.371-.367-.611-.407z" />
    <path
       id="N"
       d="M152.588 99.14c-1.061.42.667 1.437.615.344-.072-.263-.403-.271-.615-.344z" />
    <path
       id="O"
       d="M152.407 98.313c-1.015.342.63 1.282.578.367-.115-.209-.358-.31-.578-.367z" />
    <path
       id="P"
       d="M151.431 97.42c-.464.44.257 1.457.523.594.154-.384-.282-.458-.523-.594z" />
    <path
       id="Q"
       d="M150.488 97.106c-.886.432.728 1.296.637.279-.005-.331-.392-.466-.637-.279z" />
    <path
       id="R"
       d="M149.513 97.271c-1.058.123.115 1.691.547.705.201-.372-.186-.718-.547-.705z" />
    <path
       id="S"
       d="M148.504 97.404c-.791.405.536 1.297.482.344-.036-.224-.284-.321-.482-.344z" />
    <path
       id="T"
       d="M147.942 97.056c-.703-.318-.917.864-.079.696.389.013.538-.767.079-.696z" />
    <path
       id="U"
       d="M147.396 96.13c-1.056-.398-.389 1.413.356.708.377-.261-.094-.614-.356-.708z" />
    <path
       id="V"
       d="M147.131 95.006c-1.008.087.245 1.428.537.528.051-.278-.245-.638-.537-.528z" />
    <path
       id="W"
       d="M147.495 94.03c-.724.53.715 1.553.855.686-.011-.425-.491-.641-.855-.686z" />
    <path
       id="X"
       d="M148.669 93.832c-.859-.053.244 1.329.306.358.098-.205-.064-.472-.306-.358z" />
    <path
       id="Y"
       d="M149.463 94.477c-.984.081.068 1.407.484.544.094-.29-.239-.508-.484-.544z" />
    <path
       id="Z"
       d="M150.406 94.857c-.978-.178-.058 1.374.35.534.077-.258-.268-.338-.35-.534z" />
    <path
       id="a"
       d="M151.489 94.683c-.844.039-.353 1.374.285.746.314-.378-.107-.576-.285-.746z" />
    <path
       id="b"
       d="M152.117 93.857c-1.025-.018.169 1.67.443.581.029-.259-.126-.63-.443-.581z" />
    <path
       id="c"
       d="M151.828 93.063c-.804.142-.036.889.451.636.721-.061-.097-.831-.451-.636z" />
    <path
       id="d"
       d="M150.542 92.06c-.616.46.514.713.564 1.185.453.024.461-.53.124-.673-.102-.305-.31-.641-.687-.512z" />
    <path
       id="e"
       d="M150.346 91.301c-.45-.01-.744.798-.07.526.696.272 1.112-.425 1.743-.535.659-.139.898-.845.8-1.449-.143-.559-.498-1.144-.999-1.448-1.384-.47-2.881-.351-4.293-.073-.807.152-1.642.166-2.453.051-.604-.427-1.726-.263-1.638.66-.252.281-.294 1.479.226.771.364-.377.568-1.174 1.2-1.046l5.784.025c.511.129 1.254.482 1.178 1.102-.097.921-1.057.67-1.298-.01-.541-.475-1.376-.352-2.054-.411l-3.13.014c-.639-.356-1.083.386-1.541.679-.408.653.617.989.886.35.697-.62 1.672-.426 2.522-.473l2.067.109c.597.141.657.805 1.071 1.16z" />
    <path
       id="f"
       d="M116.358 150.02a2.56 2.56 0 0 0-2.555 2.555 2.56 2.56 0 0 0 2.555 2.555 2.56 2.56 0 0 0 2.555-2.555 2.56 2.56 0 0 0-2.555-2.555zm0 .688a1.86 1.86 0 1 1 0 3.734 1.86 1.86 0 1 1 0-3.734z" />
    <path
       id="g"
       d="M129.813 150.02a2.56 2.56 0 0 1 2.555 2.555 2.56 2.56 0 0 1-2.555 2.555 2.56 2.56 0 0 1-2.555-2.555 2.56 2.56 0 0 1 2.555-2.555zm0 .688a1.86 1.86 0 1 0 0 3.734 1.86 1.86 0 1 0 0-3.734z" />
    <path
       id="h"
       d="M14.157 94.611c-1.099.236-1.975 1.115-2.492 2.076-.33.999-.046 2.155.542 3.003.579.737 1.574.859 2.393 1.195.906.382 2.165.229 2.632-.739.442-.974.739-2.11.47-3.167-.395-.651-.627-1.418-1.139-1.987-.535-.419-1.275-.236-1.905-.391-.167-.011-.334-.011-.5.01z" />
    <path
       id="i"
       d="M13.507 95.521c-.738.54-1.461 1.272-1.293 2.266-.272.62.461 2.18.935 1.062a2.09 2.09 0 0 1 1.116-1.962c.762-.448 1.447.298 1.771.926.319.871 1.75-.385.911-.799-.246-.751-.676-1.488-1.526-1.628-.62-.202-1.338-.197-1.913.134z" />
    <path
       id="j"
       d="M9.763 145.384c-.116-2.407-1.562-4.898 2.418-7.045-.059.92.548 1.021.676 2.288 1.264-.988 2.585-.419 3.917.444-.47.996-.903 2.017-1.673 2.813 1.191.466 1.906 1.213 2.518 2.022-3.851 2.335-5.91 1.022-7.856-.521z" />
    <path
       id="k"
       d="M9.763 145.384l5.246.429" />
    <path
       id="l"
       d="M13.961 142.431l-4.198 2.954" />
    <path
       id="m"
       d="M10.763 141.934l-.999 3.45" />
    <path
       id="n"
       d="M11.424 139.526c-.417.414-1.054.715-1.163 1.348-.092.637.77-.009.93.446.038.348.25.791.679.674a2.64 2.64 0 0 0 .982-.273c.357-.183.81-.229 1.149.019.426.251.726.855.409 1.301-.205.339-.465.69-.859.815-.153.327.194.578.441.72l.868.535c.242.153.47.342.62.589.345.275.795.084 1.187.071-.277-.654-.799-1.281-1.532-1.409-.282-.053-.728-.387-.399-.661.33-.167.518-.5.624-.842.182-.551.535-1.036.649-1.611-.599-.195-1.182-.51-1.831-.479-.577-.007-1.04.408-1.594.502-.297-.225-.089-.623-.168-.929-.112-.269-.34-.488-.308-.812.058-.324-.304-.547-.488-.219l-.195.213z" />
    <path
       id="o"
       d="M10.985 141.355c.712-1.472 1.534-3.308 3.472-3.247 1.664-.371 3.333.742 3.795 2.344.65 1.612-.086 3.902-1.99 4.166-1.591.2-3.564-.305-4.423-1.766l-.854-1.496z" />
    <path
       id="p"
       d="M15.469 138.768c-.845-.75-3.016.76-1.103.983 1.414-.244 3.897.776 2.424 2.436-.907.76-.048 1.734.667.677.777-1.329.04-3.349-1.323-3.995-.211-.079-.439-.116-.665-.102z" />
  </defs>
  <path
     d="m 0.533,0.533 v 65.884 c 4.059,25.5 16.078,45.387 45.171,53.231 29.093,-7.845 41.112,-27.731 45.17,-53.231 V 0.533 h -45.17 z"
     stroke="#626262"
     class="D U"
     id="path60" />
  <path
     d="m 2.495,2.495 v 63.747 c 3.984,24.839 15.228,43.614 43.208,51.354 27.98,-7.74 39.224,-26.515 43.208,-51.354 V 2.495 H 45.703 Z"
     fill="#ffd700"
     stroke-width="1.065"
     class="V"
     id="path62" />
  <g
     id="g1793">
    <path
       d="M 45.698,3.3 C 44.042,3.307 44.07,7.063 41.359,8.739 40.94,8.939 40.873,9.123 40.699,9.7 A 0.88,0.88 0 0 0 40.405,9.044 c -0.39,-0.607 -0.846,-0.611 -1.311,-0.633 -1.658,-0.076 -4.295,2.987 -4.328,1.79 a 0.6825,0.6825 0 1 0 -1.365,0 0.68,0.68 0 0 0 0.119,0.38 l -0.116,0.07 c -0.071,-0.143 -0.218,-0.232 -0.378,-0.228 v -10e-4 a 0.41,0.41 0 0 0 -0.098,0.014 c -5.367,1.421 -10.692,3.852 -15.961,7.508 -0.118,0.081 -0.185,0.217 -0.178,0.36 -3.733,1.785 -3.582,7.745 -2.14,7.029 -2.294,0.977 -2.142,5.395 -0.331,5.887 -2.23,1.911 -0.802,4.958 0.595,5.259 -0.464,2.355 0.604,3.799 1.621,4.134 H 45.702 74.87 c 1.016,-0.335 2.084,-1.779 1.621,-4.134 1.398,-0.301 2.826,-3.348 0.595,-5.259 1.811,-0.492 1.963,-4.91 -0.331,-5.887 1.442,0.716 1.592,-5.244 -2.14,-7.029 L 74.606,18.3 A 0.41,0.41 0 0 0 74.428,17.944 C 69.159,14.288 63.834,11.857 58.467,10.436 a 0.41,0.41 0 0 0 -0.098,-0.014 v 10e-4 c -0.19,-0.004 -0.358,0.123 -0.407,0.306 l -0.118,-0.1 V 10.628 A 0.68,0.68 0 0 0 57.312,9.519 0.68,0.68 0 0 0 56.63,10.201 c -0.033,1.197 -2.67,-1.866 -4.328,-1.79 -0.464,0.021 -0.921,0.025 -1.311,0.633 -0.15,0.177 -0.23,0.342 -0.26,0.491 C 50.521,9.211 50.312,8.92 50.036,8.738 47.325,7.062 47.353,3.306 45.697,3.299 Z"
       class="C"
       id="path64" />
    <path
       d="m 57.288,9.77 c -1.117,0.496 0.617,0.768 -0.582,1.13 0.75,0.141 1.714,-0.905 0.582,-1.13 z"
       class="D"
       id="path66" />
    <path
       d="m 58.375,10.424 a 0.412,0.412 0 0 1 0.098,0.014 c 5.367,1.421 10.692,3.853 15.961,7.508 a 0.4128986,0.4128986 0 1 1 -0.47,0.679 C 68.768,15.02 63.533,12.632 58.261,11.236 a 0.412,0.412 0 0 1 0.114,-0.812 z M 52.307,8.412 c 1.658,-0.076 4.295,2.988 4.328,1.791 0,-0.377 0.305,-0.682 0.682,-0.682 0.377,0 0.682,0.305 0.683,0.682 a 0.68,0.68 0 0 1 -0.151,0.428 v 0 C 56.322,12.252 53.47,8.991 52.228,9.102 a 0.88,0.88 0 0 1 -0.645,1.479 0.88,0.88 0 0 1 -0.586,-1.536 c 0.39,-0.607 0.846,-0.611 1.31,-0.633 z m -19.276,2.012 a 0.412,0.412 0 0 0 -0.098,0.014 c -5.367,1.421 -10.692,3.853 -15.961,7.508 a 0.4128986,0.4128986 0 0 0 0.47,0.679 C 22.638,15.02 27.873,12.632 33.145,11.236 A 0.412,0.412 0 0 0 33.031,10.424 Z M 45.703,3.3 c -1.657,0.006 -1.628,3.762 -4.34,5.439 -1.204,0.744 -0.123,2.252 0.686,2.252 1.219,0 1.671,-0.291 1.671,-1.311 A 0.67,0.67 0 0 0 43.053,9.012 0.67,0.67 0 0 0 42.385,9.68 c 0,0.16 0.057,0.314 0.161,0.435 -0.499,0.219 -1.115,-0.634 -0.482,-1.123 2.953,-2.282 1.974,-4.673 3.639,-4.673 1.665,0 0.686,2.391 3.639,4.673 0.633,0.489 0.017,1.342 -0.483,1.123 C 48.963,9.994 49.02,9.84 49.02,9.68 A 0.67,0.67 0 0 0 48.352,9.012 0.67,0.67 0 0 0 47.685,9.68 c 0,1.02 0.451,1.311 1.67,1.311 0.809,0 1.89,-1.508 0.687,-2.252 C 47.33,7.062 47.359,3.306 45.702,3.3 Z m -6.604,5.112 c -1.658,-0.076 -4.295,2.988 -4.328,1.791 0,-0.377 -0.305,-0.682 -0.682,-0.682 -0.377,0 -0.682,0.305 -0.683,0.682 a 0.68,0.68 0 0 0 0.151,0.428 v 0 c 1.527,1.621 4.379,-1.64 5.621,-1.529 a 0.88,0.88 0 0 0 0.645,1.479 0.88,0.88 0 0 0 0.586,-1.536 C 40.019,8.438 39.563,8.434 39.099,8.412 Z"
       stroke-width="0.2"
       class="H K"
       id="path68" />
    <path
       d="m 45.704,3.522 c -0.33,0.001 -0.563,0.176 -0.814,0.526 -0.251,0.35 -0.487,0.863 -0.758,1.439 -0.54,1.153 -1.231,2.564 -2.65,3.442 -0.26,0.16 -0.372,0.339 -0.414,0.526 -0.042,0.187 -0.006,0.395 0.088,0.595 0.188,0.401 0.629,0.719 0.895,0.719 0.592,0 0.962,-0.08 1.158,-0.228 0.196,-0.148 0.289,-0.385 0.289,-0.861 a 0.444,0.444 0 1 0 -0.888,0 0.45,0.45 0 0 0 0.107,0.291 c 0.046,0.054 0.064,0.126 0.048,0.195 -0.016,0.069 -0.063,0.126 -0.128,0.155 -0.189,0.083 -0.397,0.062 -0.563,-0.018 -0.166,-0.08 -0.299,-0.213 -0.389,-0.375 -0.18,-0.324 -0.152,-0.807 0.242,-1.111 1.437,-1.11 1.9,-2.22 2.23,-3.096 0.165,-0.438 0.289,-0.822 0.51,-1.125 0.221,-0.303 0.567,-0.5 1.037,-0.5 0.47,0 0.817,0.199 1.037,0.502 0.22,0.303 0.343,0.685 0.508,1.123 0.33,0.876 0.793,1.985 2.23,3.096 0.394,0.304 0.422,0.787 0.242,1.111 -0.09,0.162 -0.223,0.296 -0.389,0.375 -0.166,0.079 -0.374,0.1 -0.563,0.018 -0.065,-0.028 -0.112,-0.086 -0.128,-0.155 -0.016,-0.069 0.002,-0.141 0.048,-0.195 a 0.45,0.45 0 0 0 0.107,-0.291 0.4445,0.4445 0 1 0 -0.889,0 c 0,0.477 0.093,0.713 0.289,0.861 0.196,0.148 0.566,0.228 1.158,0.228 0.266,0 0.708,-0.318 0.897,-0.719 0.094,-0.2 0.13,-0.409 0.088,-0.595 C 50.297,9.269 50.185,9.09 49.925,8.929 48.505,8.051 47.815,6.64 47.275,5.487 47.005,4.911 46.769,4.398 46.517,4.048 46.265,3.698 46.032,3.524 45.703,3.522 Z m -6.615,5.111 c -0.687,-0.032 -1.766,0.671 -2.637,1.277 -0.435,0.303 -0.815,0.575 -1.137,0.711 -0.161,0.068 -0.322,0.121 -0.5,0.051 -0.089,-0.035 -0.167,-0.111 -0.209,-0.195 -0.042,-0.084 -0.056,-0.173 -0.058,-0.269 0,-0.262 -0.203,-0.465 -0.459,-0.465 -0.256,0 -0.459,0.202 -0.459,0.459 0,0.103 0.037,0.201 0.1,0.281 0.33,0.345 0.694,0.424 1.143,0.356 0.449,-0.068 0.974,-0.308 1.494,-0.602 l 1.516,-0.91 c 0.476,-0.271 0.902,-0.486 1.317,-0.449 0.085,0.007 0.158,0.063 0.189,0.142 0.031,0.079 0.013,0.17 -0.045,0.232 A 0.66,0.66 0 0 0 39.166,9.7 c 0,0.365 0.293,0.656 0.658,0.656 A 0.65,0.65 0 0 0 40.48,9.7 0.66,0.66 0 0 0 40.261,9.21 C 40.246,9.197 40.233,9.182 40.222,9.165 40.048,8.895 39.884,8.782 39.706,8.718 39.528,8.654 39.324,8.645 39.089,8.634 Z m 13.229,0 c -0.235,0.011 -0.44,0.02 -0.618,0.084 -0.178,0.064 -0.342,0.177 -0.515,0.447 -0.011,0.017 -0.024,0.032 -0.039,0.045 a 0.66,0.66 0 0 0 -0.219,0.49 0.65,0.65 0 0 0 0.656,0.656 c 0.366,0 0.658,-0.291 0.658,-0.656 A 0.66,0.66 0 0 0 52.065,9.251 C 52.007,9.188 51.989,9.098 52.02,9.018 c 0.031,-0.08 0.104,-0.135 0.19,-0.142 0.414,-0.037 0.84,0.178 1.316,0.449 l 1.516,0.91 c 0.52,0.294 1.04,0.533 1.492,0.602 0.452,0.069 0.813,-0.011 1.143,-0.356 A 0.46,0.46 0 0 0 57.778,10.2 c 0,-0.256 -0.205,-0.459 -0.461,-0.459 -0.256,0 -0.459,0.203 -0.459,0.459 A 0.64,0.64 0 0 1 56.8,10.475 c -0.042,0.084 -0.12,0.16 -0.209,0.195 -0.178,0.07 -0.339,0.018 -0.5,-0.051 C 55.769,10.483 55.389,10.211 54.954,9.908 54.083,9.301 53.004,8.599 52.317,8.631 Z m -19.287,2.012 c -0.014,0.001 -0.027,0.004 -0.041,0.008 -5.341,1.414 -10.642,3.835 -15.891,7.477 -0.081,0.056 -0.103,0.183 -0.047,0.264 0.056,0.081 0.182,0.103 0.264,0.047 5.216,-3.619 10.475,-6.019 15.773,-7.422 0.096,-0.025 0.161,-0.135 0.135,-0.23 C 33.2,10.706 33.12,10.645 33.036,10.646 H 33.03 Z m 25.335,0 c -0.165,0.017 -0.215,0.173 -0.183,0.143 -0.026,0.096 0.038,0.205 0.134,0.23 5.298,1.403 10.558,3.803 15.774,7.422 0.081,0.057 0.207,0.035 0.264,-0.047 0.057,-0.082 0.034,-0.208 -0.047,-0.264 -5.249,-3.642 -10.549,-6.062 -15.891,-7.477 a 0.19,0.19 0 0 0 -0.043,-0.008 h -0.008 z"
       class="D"
       id="path70" />
    <g
       stroke="#ffffff"
       stroke-width="0.397"
       class="L"
       id="g110"
       transform="translate(-77.382,-67.704)">
      <g
         stroke-miterlimit="3.66667"
         id="g82">
        <path
           d="m 102.012,83.662 c -0.725,0.167 -1.403,0.478 -2.082,0.769 -0.505,0.2 -0.654,1.049 -0.139,1.312 0.231,0.037 0.505,0.177 0.717,0.002 m 0.578,-0.826 c 0.067,0.619 0.457,1.14 0.692,1.697 0.244,0.351 -0.457,0.86 -0.494,0.453 m 0.397,-0.662 c 0.317,0.319 1.037,0.455 0.974,-0.211 0.035,-0.271 -0.035,-0.886 0.012,-0.28 -0.178,0.577 0.772,0.902 0.768,0.227 0.008,-0.242 -0.188,-1.028 0.053,-0.432 0.121,0.435 0.911,0.711 0.761,0.018 0.002,-0.33 -0.245,-0.944 0.046,-1.095 0.353,0.156 0.415,0.594 0.718,1.129 -0.323,-0.501 -0.669,-1.155 -0.313,-1.583 0.48,-0.403 0.969,1.108 1.031,1.282 -0.24,-0.497 -0.23,-2.028 0.126,-1.353 0.195,0.369 0.788,1.491 1.124,0.677 0.196,-0.419 0.634,-1.237 0.079,-1.318 -0.683,-0.099 -0.5,0.881 -0.059,1.194 0.543,0.548 1.24,-0.094 1.027,-0.738 -0.017,-0.217 -0.244,-1.094 0.077,-0.515 0.095,0.274 0.353,0.552 0.519,1.129 -0.196,-0.389 -0.349,-1.414 0.072,-1.646 0.45,0.022 0.372,1.094 0.795,0.769 0.068,-0.428 -0.029,-0.923 0.368,-1.204 0.087,-0.124 0.381,-0.155 0.561,-0.077"
           id="path72" />
        <path
           d="m 109.52,83.361 c 0.074,0.447 0.751,0.767 0.999,0.273 0.159,-0.413 0.056,-0.924 -0.152,-1.298 0.163,0.617 0.659,1.137 0.636,1.809 0.141,0.342 -0.11,1.195 -0.534,0.825 0.217,-0.366 0.317,-0.927 0.538,-1.366 0.157,-0.497 0.199,-1.024 0.379,-1.514 -0.216,0.452 -0.372,1.245 0.25,1.439 0.665,0.094 0.678,-0.893 0.39,-1.277 -0.148,-0.172 -0.511,-0.464 -0.656,-0.097"
           id="path74" />
        <path
           d="m 112.189,82.693 c 0.081,0.212 0.077,0.606 0.362,0.633 l 0.041,0.002 0.052,-0.013 m 2.068,-3.142 -1.591,0.376 c -0.29,0.198 -0.154,0.715 0.207,0.725 m 0.788,-0.341 c 0.057,0.577 0.214,1.154 0.141,1.735 -0.03,0.136 -0.162,0.253 -0.306,0.2 m 0.314,-0.43 c 0.288,0.317 0.663,-0.102 0.671,-0.419 0.084,-0.273 0.008,-0.805 0.443,-0.718 a 0.31,0.31 0 0 1 0.159,0.062"
           id="path76" />
        <path
           d="m 114.91,82.074 c 0.084,0.231 0.272,0.44 0.539,0.408 0.192,-0.085 0.37,-0.355 0.337,-0.59 0.027,-0.211 0.011,-0.489 -0.248,-0.529 m 0.249,0.711 c 0.243,0.307 0.787,0.378 1.042,0.05 l -0.177,-1.533 c -0.007,-0.195 -0.048,-0.386 -0.12,-0.567"
           id="path78" />
        <path
           d="m 116.828,81.942 c 0.029,0.264 0.516,0.479 0.561,0.11 0.074,-0.369 0.163,-0.767 0.447,-1.036 0.211,-0.228 0.666,-0.277 0.81,0.048 0.08,0.336 -0.015,0.698 -0.18,0.994 -0.175,0.265 -0.611,0.185 -0.716,-0.102 -0.081,-0.165 -0.123,-0.346 -0.187,-0.517 m -1.363,-0.853 0.81,-0.033"
           id="path80" />
      </g>
      <path
         d="m 118.66,81.507 c 0.018,0.302 -0.003,0.639 0.247,0.861"
         id="path84" />
      <path
         d="m 119.822,82.098 c 0.631,-0.043 0.341,-0.87 0.522,-1.289 0.082,-0.408 0.014,-0.93 0.366,-1.223 0.688,-0.201 0.66,0.783 0.714,1.226 0.083,0.372 0.648,0.871 0.653,1.21 -0.369,-0.401 -1.025,-0.981 -1.52,-1.249 -0.406,-0.336 -0.787,0.306 -0.297,0.483 0.403,0.104 0.849,0.179 1.234,-0.035"
         class="Q"
         id="path86" />
      <path
         d="m 122.043,80.695 c 0.056,0.391 0,1.189 0.034,1.327 0.108,-0.451 0.216,-1.11 0.746,-1.223 0.565,-0.091 0.736,0.503 0.674,0.931 0.283,0.496 0.821,-0.023 0.627,-0.45 -0.189,-0.604 0.498,-0.482 0.868,-0.514 l 0.056,-0.012"
         id="path88" />
      <path
         d="m 124.066,81.689 c 0.42,0.475 1.111,-0.13 0.924,-0.658 -10e-4,-0.351 -0.019,0.339 -0.011,0.453 -0.032,0.449 0.075,1.054 -0.223,1.393 -0.559,0.416 0.432,-0.966 0.679,-1.41 0.2,-0.295 0.448,-0.8 0.889,-0.643 m -0.96,0.783 c 0.134,0.46 1.037,0.482 1.015,-0.056 0.06,-0.194 0.06,-0.74 0.027,-0.733 0.215,0.329 0.052,0.749 0.103,1.115 -0.052,0.273 -0.92,1.878 -0.112,0.939 0.017,-0.443 0.402,-0.777 0.535,-1.196 0.187,-0.324 0.36,-0.795 0.806,-0.795"
         id="path90" />
      <path
         d="m 126.791,81.958 c 0.383,0.174 1.077,0.626 1.266,-0.021 0.109,-0.334 0.121,-0.974 -0.319,-1.054 m 0.302,1.15 c 0.116,0.552 0.847,0.418 0.815,-0.134 0.155,-0.464 0.046,-0.958 0.172,-1.426 0.024,-0.172 0.091,-0.488 0.05,-0.127 -0.063,0.459 -0.063,0.919 -0.092,1.379 -0.186,0.44 0.299,0.876 0.606,0.402 0.185,-0.272 0.593,-0.839 0.345,-1.081 -0.253,0.406 0.508,-0.047 0.349,0.409 0.001,0.384 -0.043,1.015 0.442,1.123"
         id="path92" />
      <path
         d="m 128.627,80.512 c 0.248,0.091 0.516,0.101 0.777,0.099 m 2.349,0.645 c -0.467,-0.135 -0.745,0.442 -0.796,0.817 -0.113,0.208 -0.376,0.619 0.07,0.577 0.673,0.133 0.974,-0.616 0.905,-1.166 0.011,-0.108 -0.055,-0.234 -0.179,-0.229 z"
         id="path94" />
      <path
         d="m 131.86,82.157 c -0.035,0.191 -0.149,0.594 0.174,0.587 m 2.03,-2.107 c -0.014,0.564 -0.208,1.109 -0.335,1.652 -0.088,0.238 -0.171,0.481 -0.203,0.733"
         id="path96" />
      <path
         d="m 133.847,80.701 c 0.911,-0.28 1.646,0.21 1.2,0.939 -0.25,0.359 -0.947,0.527 -1.288,0.265 1.146,-0.099 0.86,0.758 0.818,1.267 0.648,0.56 0.991,-0.854 1.603,-0.706"
         class="Q"
         id="path98" />
      <path
         d="m 135.283,83.166 c -0.004,0.689 1.068,0.754 0.946,-0.022 0.054,-0.19 0.175,-0.616 -0.049,-0.677"
         id="path100" />
      <path
         d="m 136.159,83.513 c 0.192,0.569 1.016,0.212 1.07,-0.267 0.047,-0.48 0.1,-0.957 0.243,-1.42 l 0.002,-0.074 -0.008,-0.074 m -0.132,1.471 c 0.401,-0.248 1.281,-0.185 0.971,0.471 -0.192,0.299 0.134,0.93 0.34,0.369 0.096,-0.426 0.885,-0.824 0.979,-0.385"
         id="path102" />
      <path
         d="m 138.508,84.191 c 0.342,0.674 1.132,-0.062 1.116,-0.587 0.148,0.223 -0.5,1.165 0.111,1.074 0.385,-0.21 1.041,-0.396 1.014,-0.93 -0.282,0.052 -0.119,0.44 0.157,0.307 0.15,0.373 -0.5,0.937 0.013,1.251 0.497,0.089 0.679,-0.509 0.943,-0.81 0.199,-0.284 0.52,0.055 0.761,0.069"
         class="Q"
         id="path104" />
      <path
         d="m 141.484,85.084 c -0.089,0.717 0.963,0.699 0.911,0.002 0.181,-0.493 0.426,-0.951 0.676,-1.408 m -0.834,1.861 c -0.09,0.639 1.024,0.744 0.99,0.051 0.127,-0.193 0.592,-0.588 0.127,-0.252 -0.358,0.31 -0.322,0.832 -0.549,1.218 0,0.465 -0.423,1.311 -0.895,0.72 l 0.004,-0.107 m 1.1,-0.911 c 0.305,0.545 0.852,-0.241 1.203,-0.405 0.488,-0.261 0.903,-0.411 1.045,0.013 m -1.297,0.162 c -0.353,0.709 0.567,1.258 1.048,0.856 0.323,-0.202 0.33,-0.872 0.249,-1.018 0.073,0.48 -0.09,0.917 -0.378,1.283 0.002,0.145 0.177,0.206 0.296,0.176"
         id="path106" />
      <path
         d="m 143.723,84.439 c 0.202,0.095 0.145,0.045 0.343,0.148"
         class="I"
         id="path108" />
    </g>
    <g
       class="R"
       id="g174"
       transform="translate(-77.382,-67.704)">
      <use
         xlink:href="#B"
         class="B"
         id="use112"
         x="0"
         y="0"
         width="100%"
         height="100%" />
      <use
         xlink:href="#C"
         class="B"
         id="use114"
         x="0"
         y="0"
         width="100%"
         height="100%" />
      <use
         xlink:href="#D"
         class="B"
         id="use116"
         x="0"
         y="0"
         width="100%"
         height="100%" />
      <use
         xlink:href="#E"
         class="B"
         id="use118"
         x="0"
         y="0"
         width="100%"
         height="100%" />
      <use
         xlink:href="#F"
         class="B"
         id="use120"
         x="0"
         y="0"
         width="100%"
         height="100%" />
      <use
         xlink:href="#G"
         class="B"
         id="use122"
         x="0"
         y="0"
         width="100%"
         height="100%" />
      <use
         xlink:href="#H"
         class="B"
         id="use124"
         x="0"
         y="0"
         width="100%"
         height="100%" />
      <use
         xlink:href="#I"
         class="B"
         id="use126"
         x="0"
         y="0"
         width="100%"
         height="100%" />
      <use
         xlink:href="#J"
         class="B"
         id="use128"
         x="0"
         y="0"
         width="100%"
         height="100%" />
      <use
         xlink:href="#K"
         class="B"
         id="use130"
         x="0"
         y="0"
         width="100%"
         height="100%" />
      <use
         xlink:href="#L"
         class="B"
         id="use132"
         x="0"
         y="0"
         width="100%"
         height="100%" />
      <path
         d="m 151.861,101.257 c -0.631,0.612 0.924,0.978 0.548,0.103 -0.061,-0.271 -0.373,-0.089 -0.548,-0.103 z"
         class="B"
         id="path134" />
      <use
         xlink:href="#M"
         class="B"
         id="use136"
         x="0"
         y="0"
         width="100%"
         height="100%" />
      <use
         xlink:href="#N"
         class="B"
         id="use138"
         x="0"
         y="0"
         width="100%"
         height="100%" />
      <use
         xlink:href="#O"
         class="B"
         id="use140"
         x="0"
         y="0"
         width="100%"
         height="100%" />
      <use
         xlink:href="#P"
         class="B"
         id="use142"
         x="0"
         y="0"
         width="100%"
         height="100%" />
      <use
         xlink:href="#Q"
         class="B"
         id="use144"
         x="0"
         y="0"
         width="100%"
         height="100%" />
      <use
         xlink:href="#R"
         class="B"
         id="use146"
         x="0"
         y="0"
         width="100%"
         height="100%" />
      <use
         xlink:href="#S"
         class="B"
         id="use148"
         x="0"
         y="0"
         width="100%"
         height="100%" />
      <use
         xlink:href="#T"
         class="B"
         id="use150"
         x="0"
         y="0"
         width="100%"
         height="100%" />
      <use
         xlink:href="#U"
         class="B"
         id="use152"
         x="0"
         y="0"
         width="100%"
         height="100%" />
      <use
         xlink:href="#V"
         class="B"
         id="use154"
         x="0"
         y="0"
         width="100%"
         height="100%" />
      <use
         xlink:href="#W"
         class="B"
         id="use156"
         x="0"
         y="0"
         width="100%"
         height="100%" />
      <use
         xlink:href="#X"
         class="B"
         id="use158"
         x="0"
         y="0"
         width="100%"
         height="100%" />
      <use
         xlink:href="#Y"
         class="B"
         id="use160"
         x="0"
         y="0"
         width="100%"
         height="100%" />
      <use
         xlink:href="#Z"
         class="B"
         id="use162"
         x="0"
         y="0"
         width="100%"
         height="100%" />
      <use
         xlink:href="#a"
         class="B"
         id="use164"
         x="0"
         y="0"
         width="100%"
         height="100%" />
      <use
         xlink:href="#b"
         class="B"
         id="use166"
         x="0"
         y="0"
         width="100%"
         height="100%" />
      <use
         xlink:href="#c"
         class="B"
         id="use168"
         x="0"
         y="0"
         width="100%"
         height="100%" />
      <use
         xlink:href="#d"
         class="B"
         id="use170"
         x="0"
         y="0"
         width="100%"
         height="100%" />
      <use
         xlink:href="#e"
         class="B"
         id="use172"
         x="0"
         y="0"
         width="100%"
         height="100%" />
    </g>
    <g
       transform="matrix(-1,0,0,1,62.47719,-67.704)"
       class="B R"
       id="g238">
      <use
         xlink:href="#B"
         x="-106.593"
         id="use176"
         y="0"
         width="100%"
         height="100%" />
      <use
         xlink:href="#C"
         x="-106.593"
         id="use178"
         y="0"
         width="100%"
         height="100%" />
      <use
         xlink:href="#D"
         x="-106.593"
         id="use180"
         y="0"
         width="100%"
         height="100%" />
      <use
         xlink:href="#E"
         x="-106.592"
         id="use182"
         y="0"
         width="100%"
         height="100%" />
      <use
         xlink:href="#F"
         x="-106.592"
         id="use184"
         y="0"
         width="100%"
         height="100%" />
      <use
         xlink:href="#G"
         x="-106.593"
         id="use186"
         y="0"
         width="100%"
         height="100%" />
      <use
         xlink:href="#H"
         x="-106.593"
         id="use188"
         y="0"
         width="100%"
         height="100%" />
      <use
         xlink:href="#I"
         x="-106.593"
         id="use190"
         y="0"
         width="100%"
         height="100%" />
      <use
         xlink:href="#J"
         x="-106.592"
         id="use192"
         y="0"
         width="100%"
         height="100%" />
      <use
         xlink:href="#K"
         x="-106.592"
         id="use194"
         y="0"
         width="100%"
         height="100%" />
      <use
         xlink:href="#L"
         x="-106.592"
         id="use196"
         y="0"
         width="100%"
         height="100%" />
      <path
         d="m 45.268,101.257 c -0.632,0.612 0.924,0.978 0.548,0.103 -0.061,-0.271 -0.373,-0.089 -0.548,-0.103 z"
         id="path198" />
      <use
         xlink:href="#M"
         x="-106.593"
         id="use200"
         y="0"
         width="100%"
         height="100%" />
      <use
         xlink:href="#N"
         x="-106.592"
         id="use202"
         y="0"
         width="100%"
         height="100%" />
      <use
         xlink:href="#O"
         x="-106.593"
         id="use204"
         y="0"
         width="100%"
         height="100%" />
      <use
         xlink:href="#P"
         x="-106.593"
         id="use206"
         y="0"
         width="100%"
         height="100%" />
      <use
         xlink:href="#Q"
         x="-106.592"
         id="use208"
         y="0"
         width="100%"
         height="100%" />
      <use
         xlink:href="#R"
         x="-106.593"
         id="use210"
         y="0"
         width="100%"
         height="100%" />
      <use
         xlink:href="#S"
         x="-106.593"
         id="use212"
         y="0"
         width="100%"
         height="100%" />
      <use
         xlink:href="#T"
         x="-106.593"
         id="use214"
         y="0"
         width="100%"
         height="100%" />
      <use
         xlink:href="#U"
         x="-106.593"
         id="use216"
         y="0"
         width="100%"
         height="100%" />
      <use
         xlink:href="#V"
         x="-106.592"
         id="use218"
         y="0"
         width="100%"
         height="100%" />
      <use
         xlink:href="#W"
         x="-106.592"
         id="use220"
         y="0"
         width="100%"
         height="100%" />
      <use
         xlink:href="#X"
         x="-106.592"
         id="use222"
         y="0"
         width="100%"
         height="100%" />
      <use
         xlink:href="#Y"
         x="-106.592"
         id="use224"
         y="0"
         width="100%"
         height="100%" />
      <use
         xlink:href="#Z"
         x="-106.593"
         id="use226"
         y="0"
         width="100%"
         height="100%" />
      <use
         xlink:href="#a"
         x="-106.593"
         id="use228"
         y="0"
         width="100%"
         height="100%" />
      <use
         xlink:href="#b"
         x="-106.592"
         id="use230"
         y="0"
         width="100%"
         height="100%" />
      <use
         xlink:href="#c"
         x="-106.593"
         id="use232"
         y="0"
         width="100%"
         height="100%" />
      <use
         xlink:href="#d"
         x="-106.592"
         id="use234"
         y="0"
         width="100%"
         height="100%" />
      <use
         xlink:href="#e"
         x="-106.593"
         id="use236"
         y="0"
         width="100%"
         height="100%" />
    </g>
  </g>
  <g
     id="g1829">
    <path
       d="m 45.704,17.204 c 2.16,1.615 5.78,2.599 10.185,2.767 3.954,0.151 7.706,1.804 9.632,4.629 1.926,2.825 2.243,6.901 -1.021,12.499 l -0.939,1.611 1.852,-0.215 c 3.393,-0.394 5.251,0.166 6.339,1.098 1.088,0.932 1.569,2.401 1.807,4.231 0.238,1.83 0.21,3.941 0.46,5.936 0.206,1.639 0.648,3.241 1.669,4.496 -1.285,1.265 -1.782,2.97 -1.846,4.681 -0.076,2.048 0.292,4.2 0.356,6.131 0.064,1.931 -0.165,3.541 -1.178,4.696 -1.013,1.155 -2.974,2.053 -6.848,2.161 l -1.793,0.05 1.07,1.439 c 2.271,3.053 2.598,5.676 2.455,8.419 -0.131,2.518 -0.701,5.127 -0.572,7.956 -6.505,2.412 -13.576,1.661 -21.253,-1.725 l -0.376,-0.166 -0.376,0.166 c -7.677,3.386 -14.748,4.137 -21.253,1.725 0.129,-2.829 -0.44,-5.438 -0.572,-7.956 -0.143,-2.742 0.183,-5.366 2.454,-8.419 l 1.07,-1.439 -1.793,-0.05 c -3.873,-0.108 -5.835,-1.006 -6.848,-2.161 -1.013,-1.155 -1.241,-2.765 -1.178,-4.696 0.063,-1.931 0.431,-4.083 0.355,-6.131 -0.063,-1.712 -0.56,-3.416 -1.845,-4.681 1.021,-1.255 1.464,-2.857 1.669,-4.496 0.25,-1.995 0.223,-4.105 0.46,-5.936 0.237,-1.831 0.718,-3.299 1.807,-4.231 1.089,-0.932 2.946,-1.492 6.339,-1.098 l 1.852,0.215 -0.939,-1.611 C 23.642,31.5 23.958,27.424 25.884,24.6 c 1.926,-2.824 5.679,-4.478 9.632,-4.629 4.405,-0.168 8.025,-1.152 10.185,-2.767 z"
       class="C"
       id="path240" />
    <path
       d="m 45.704,14.726 -0.641,0.606 c -1.383,1.307 -5.039,2.601 -9.616,2.776 -4.422,0.169 -8.741,1.98 -11.102,5.441 -2.162,3.169 -2.464,7.664 0.18,13.005 -2.744,-0.082 -4.742,0.473 -6.084,1.623 -1.608,1.378 -2.182,3.387 -2.444,5.408 -0.262,2.021 -0.234,4.135 -0.46,5.944 -0.226,1.809 -0.689,3.219 -1.727,4.074 l -0.981,0.808 1.066,0.693 c 1.36,0.884 1.739,2.142 1.805,3.904 0.066,1.762 -0.287,3.891 -0.356,6.001 -0.069,2.11 0.158,4.297 1.64,5.987 1.269,1.447 3.406,2.343 6.579,2.654 -1.741,2.918 -2.058,5.702 -1.923,8.282 0.155,2.975 0.815,5.703 0.558,8.436 l -0.065,0.692 0.645,0.26 c 7.104,2.862 14.847,2.085 22.925,-1.398 8.078,3.483 15.82,4.26 22.925,1.398 l 0.645,-0.26 -0.065,-0.692 c -0.257,-2.733 0.403,-5.461 0.558,-8.436 0.135,-2.58 -0.183,-5.364 -1.924,-8.282 3.173,-0.311 5.311,-1.207 6.579,-2.654 1.481,-1.689 1.709,-3.878 1.64,-5.987 C 75.992,62.9 75.64,60.77 75.705,59.008 75.77,57.246 76.15,55.988 77.51,55.104 l 1.066,-0.693 -0.981,-0.808 c -1.038,-0.856 -1.5,-2.266 -1.727,-4.074 -0.227,-1.808 -0.198,-3.923 -0.46,-5.944 -0.262,-2.021 -0.835,-4.03 -2.444,-5.408 -1.342,-1.149 -3.34,-1.704 -6.084,-1.623 2.644,-5.341 2.342,-9.836 0.18,-13.005 -2.361,-3.461 -6.68,-5.272 -11.102,-5.441 -4.577,-0.175 -8.233,-1.469 -9.615,-2.776 z m 0,2.478 c 2.16,1.615 5.78,2.599 10.185,2.767 3.954,0.151 7.706,1.804 9.632,4.629 1.926,2.825 2.243,6.901 -1.021,12.499 l -0.939,1.611 1.852,-0.215 c 3.393,-0.394 5.251,0.166 6.339,1.098 1.088,0.932 1.569,2.401 1.807,4.231 0.238,1.83 0.21,3.941 0.46,5.936 0.206,1.639 0.648,3.241 1.669,4.496 -1.285,1.265 -1.782,2.97 -1.846,4.681 -0.076,2.048 0.292,4.2 0.356,6.131 0.064,1.931 -0.165,3.541 -1.178,4.696 -1.013,1.155 -2.974,2.053 -6.848,2.161 l -1.793,0.05 1.07,1.439 c 2.271,3.053 2.598,5.676 2.455,8.419 -0.131,2.518 -0.701,5.127 -0.572,7.956 -6.505,2.412 -13.576,1.661 -21.253,-1.725 l -0.376,-0.166 -0.376,0.166 c -7.677,3.386 -14.748,4.137 -21.253,1.725 0.129,-2.829 -0.44,-5.438 -0.572,-7.956 -0.143,-2.742 0.183,-5.366 2.454,-8.419 l 1.07,-1.439 -1.793,-0.05 c -3.873,-0.108 -5.835,-1.006 -6.848,-2.161 -1.013,-1.155 -1.241,-2.765 -1.178,-4.696 0.063,-1.931 0.431,-4.083 0.355,-6.131 -0.063,-1.712 -0.56,-3.416 -1.845,-4.681 1.021,-1.255 1.464,-2.857 1.669,-4.496 0.25,-1.995 0.223,-4.105 0.46,-5.936 0.237,-1.831 0.718,-3.299 1.807,-4.231 1.089,-0.932 2.946,-1.492 6.339,-1.098 l 1.852,0.215 -0.939,-1.611 C 23.642,31.5 23.958,27.424 25.884,24.6 c 1.926,-2.824 5.679,-4.478 9.632,-4.629 4.405,-0.168 8.025,-1.152 10.185,-2.767 z"
       fill="#dcdcdc"
       class="C N S"
       id="path242" />
    <g
       class="D"
       id="g248"
       transform="translate(-77.382,-67.704)">
      <path
         d="m 123.086,83.113 -0.299,0.283 c -1.582,1.495 -5.279,2.736 -9.939,2.914 -4.298,0.164 -8.462,1.93 -10.709,5.225 -2.051,3.006 -2.373,7.274 0.215,12.502 a 0.498,0.498 0 0 1 -0.461,0.719 c -2.67,-0.079 -4.53,0.462 -5.746,1.504 -1.471,1.26 -2.018,3.123 -2.273,5.094 -0.255,1.971 -0.228,4.08 -0.461,5.941 -0.233,1.861 -0.715,3.416 -1.904,4.396 l -0.455,0.377 0.496,0.322 c 1.505,0.978 1.964,2.48 2.031,4.305 0.068,1.843 -0.288,3.968 -0.355,6.033 -0.067,2.065 0.16,4.094 1.518,5.643 1.153,1.315 3.15,2.182 6.252,2.486 a 0.498,0.498 0 0 1 0.379,0.752 c -1.683,2.822 -1.985,5.479 -1.854,8 0.152,2.917 0.824,5.665 0.557,8.508 l -0.031,0.324 0.301,0.121 c 6.959,2.804 14.547,2.053 22.543,-1.395 a 0.498,0.498 0 0 1 0.395,0 c 7.996,3.448 15.582,4.198 22.541,1.395 l 0.301,-0.121 -0.031,-0.324 c -0.267,-2.842 0.404,-5.591 0.557,-8.508 0.132,-2.521 -0.17,-5.178 -1.854,-8 a 0.498,0.498 0 0 1 0.379,-0.752 c 3.102,-0.304 5.101,-1.171 6.254,-2.486 1.357,-1.548 1.583,-3.58 1.516,-5.643 -0.067,-2.063 -0.424,-4.19 -0.355,-6.033 0.067,-1.824 0.526,-3.326 2.031,-4.305 l 0.496,-0.322 -0.455,-0.377 c -1.189,-0.98 -1.671,-2.537 -1.904,-4.396 -0.233,-1.859 -0.205,-3.969 -0.461,-5.941 -0.256,-1.972 -0.802,-3.834 -2.273,-5.094 -1.217,-1.042 -3.074,-1.583 -5.744,-1.504 a 0.498,0.498 0 0 1 -0.461,-0.719 c 2.588,-5.228 2.264,-9.496 0.213,-12.502 -2.247,-3.294 -6.411,-5.061 -10.709,-5.225 -4.66,-0.178 -8.356,-1.419 -9.937,-2.914 z m -0.023,1.297 a 0.498,0.498 0 0 1 0.322,0.1 c 2.025,1.513 5.563,2.502 9.904,2.668 4.08,0.156 7.98,1.848 10.025,4.846 2.038,2.987 2.321,7.327 -1.002,13.029 l -0.439,0.752 0.865,-0.1 c 3.467,-0.402 5.494,0.162 6.721,1.213 1.227,1.051 1.733,2.665 1.977,4.547 0.244,1.882 0.215,3.99 0.459,5.938 0.2,1.591 0.628,3.095 1.563,4.244 a 0.498,0.498 0 0 1 -0.037,0.67 c -1.172,1.153 -1.637,2.716 -1.697,4.344 -0.073,1.976 0.291,4.116 0.355,6.098 0.064,1.982 -0.161,3.741 -1.301,5.041 -1.14,1.3 -3.264,2.22 -7.209,2.33 l -0.836,0.023 0.498,0.67 c 2.339,3.144 2.701,5.944 2.555,8.742 -0.134,2.575 -0.698,5.158 -0.572,7.906 a 0.498,0.498 0 0 1 -0.324,0.49 c -6.647,2.464 -13.873,1.685 -21.629,-1.736 l -0.174,-0.076 -0.176,0.076 c -7.756,3.421 -14.98,4.2 -21.627,1.736 a 0.498,0.498 0 0 1 -0.324,-0.49 c 0.126,-2.748 -0.438,-5.331 -0.572,-7.906 -0.146,-2.798 0.216,-5.598 2.555,-8.742 h -0.002 l 0.498,-0.67 -0.834,-0.023 c -3.945,-0.11 -6.07,-1.031 -7.209,-2.33 -1.139,-1.299 -1.367,-3.062 -1.303,-5.041 0.064,-1.979 0.429,-4.122 0.355,-6.098 -0.06,-1.628 -0.526,-3.191 -1.697,-4.344 a 0.498,0.498 0 0 1 -0.037,-0.67 c 0.935,-1.149 1.363,-2.653 1.563,-4.244 0.244,-1.948 0.215,-4.053 0.459,-5.937 0.244,-1.884 0.747,-3.494 1.977,-4.547 1.23,-1.053 3.253,-1.615 6.721,-1.213 l 0.865,0.1 -0.437,-0.752 c -3.323,-5.702 -3.042,-10.042 -1.004,-13.029 2.045,-2.998 5.945,-4.69 10.025,-4.846 4.342,-0.166 7.882,-1.155 9.906,-2.668 a 0.498,0.498 0 0 1 0.275,-0.1 z"
         class="C"
         id="path244" />
      <path
         d="m 94.024,157.214 0.245,3.61 -3.785,1.437 c 2.747,1.909 5.495,3.818 9.428,5.362 l 2.068,-5.572 c -4.3,-2.065 -5.939,-3.399 -7.956,-4.836 z"
         class="S W"
         id="path246" />
    </g>
  </g>
  <g
     id="g1822">
    <path
       d="m 17.659,91.193 0.035,2.453 c -1.018,0.669 -1.818,1.01 -2.558,1.262 1.645,1.172 4.039,2.575 6.834,3.75 l 1.857,-3.89 c -2.734,-1.05 -4.544,-2.293 -6.168,-3.575 z"
       id="path250" />
    <path
       d="m 74.764,89.51 -0.245,3.61 3.785,1.437 c -2.747,1.909 -5.495,3.818 -9.428,5.362 l -2.068,-5.572 c 4.3,-2.065 5.939,-3.399 7.956,-4.836 z"
       class="D S W"
       id="path252" />
    <path
       d="m 73.748,91.193 -0.035,2.453 c 1.018,0.669 1.818,1.01 2.558,1.262 -2.218,1.463 -3.696,2.394 -6.834,3.75 l -1.857,-3.89 c 2.734,-1.05 4.544,-2.293 6.168,-3.575 z m -51.614,-0.133 -2.923,5.045 3.319,3.814 0.591,-1.593 z"
       id="path254" />
    <path
       d="m 69.273,91.06 2.923,5.045 -3.319,3.814 -0.591,-1.593 z"
       id="path256" />
    <path
       d="m 45.703,89.922 c -8.078,3.483 -15.82,4.26 -22.925,1.398 l -0.645,-0.26 -2.922,5.045 c 6.585,5.325 19.099,4.269 26.492,1.536 7.393,2.733 19.907,3.789 26.492,-1.536 l -2.922,-5.045 -0.645,0.26 c -7.104,2.862 -14.847,2.085 -22.925,-1.398 z"
       fill="url(#A)"
       class="C N S"
       id="path258"
       style="fill:url(#A)" />
    <path
       d="m 46.445,92.477 a 0.383,0.383 0 0 0 -0.374,0.304 0.383,0.383 0 0 0 0.295,0.453 l 1.225,0.258 -0.381,2.176 a 0.383,0.383 0 0 0 0.311,0.443 0.383,0.383 0 0 0 0.441,-0.311 l 0.378,-2.151 1.2,0.252 a 0.383,0.383 0 0 0 0.453,-0.295 0.383,0.383 0 0 0 -0.297,-0.453 l -1.559,-0.329 a 0.383,0.383 0 0 0 -0.044,-0.01 l -1.569,-0.332 a 0.383,0.383 0 0 0 -0.08,-0.007 z m -5.191,0.569 a 0.383,0.383 0 0 0 -0.059,0.009 l -0.769,0.148 a 0.383,0.383 0 0 0 -0.252,0.174 l -1.031,1.677 a 0.383,0.383 0 0 0 -0.016,0.027 l -0.811,1.32 a 0.383,0.383 0 1 0 0.652,0.4 l 0.729,-1.186 1.97,-0.319 0.367,0.839 a 0.383,0.383 0 0 0 0.502,0.197 0.383,0.383 0 0 0 0.197,-0.504 l -0.475,-1.087 a 0.383,0.383 0 0 0 -0.02,-0.046 l -0.62,-1.42 a 0.383,0.383 0 0 0 -0.362,-0.229 z m 23.085,0.719 a 0.383,0.383 0 0 0 -0.092,0.012 0.383,0.383 0 0 0 -0.279,0.463 l 0.324,1.311 -2.561,-1.25 a 0.383,0.383 0 0 0 -0.55,0.361 l 0.125,2.43 a 0.383,0.383 0 0 0 0.4,0.363 0.383,0.383 0 0 0 0.363,-0.402 l -0.091,-1.781 2.712,1.326 a 0.383,0.383 0 0 0 0.541,-0.436 L 64.71,94.057 a 0.383,0.383 0 0 0 -0.371,-0.291 z m -37.91,0.041 a 0.383,0.383 0 0 0 -0.373,0.273 l -0.649,2.154 a 0.383,0.383 0 0 0 0.256,0.476 0.383,0.383 0 0 0 0.476,-0.256 l 0.144,-0.477 0.931,-0.408 1.943,1.809 a 0.38314651,0.38314651 0 0 0 0.522,-0.561 l -1.701,-1.582 0.789,-0.345 a 0.383,0.383 0 0 0 -0.179,-0.733 0.383,0.383 0 0 0 -0.127,0.031 l -1.887,0.826 0.216,-0.715 a 0.383,0.383 0 0 0 -0.36,-0.494 z m 14.609,0.057 0.31,0.708 -1.124,0.182 0.511,-0.831 z m 12.91,0.049 a 0.383,0.383 0 0 0 -0.375,0.322 l -0.42,2.594 a 0.383,0.383 0 0 0 0.353,0.441 l 2.541,0.158 a 0.383,0.383 0 1 0 0.047,-0.764 l -2.119,-0.131 0.086,-0.529 2.185,0.197 a 0.383,0.383 0 0 0 0.416,-0.348 0.383,0.383 0 0 0 -0.347,-0.414 l -2.131,-0.192 0.086,-0.527 1.998,0.252 a 0.38301958,0.38301958 0 1 0 0.096,-0.76 L 53.999,93.914 A 0.383,0.383 0 0 0 53.948,93.91 Z m -20.465,0.351 a 0.383,0.383 0 0 0 -0.363,0.398 l 0.103,2.35 a 0.383,0.383 0 0 0 0.397,0.365 l 1.594,-0.053 a 0.38320393,0.38320393 0 1 0 -0.025,-0.766 l -1.217,0.041 -0.088,-1.971 a 0.383,0.383 0 0 0 -0.4,-0.365 z"
       id="path260" />
  </g>
  <g
     class="R V O"
     id="g280"
     transform="translate(-77.382,-67.704)">
    <g
       class="M T"
       id="g268">
      <path
         d="m 123.086,150.424 c -1.407,0 -2.557,1.148 -2.557,2.555 0,1.407 1.15,2.555 2.557,2.555 a 2.56,2.56 0 0 0 2.555,-2.555 2.56,2.56 0 0 0 -2.555,-2.555 z m 0,0.688 a 1.867,1.867 0 1 1 0,3.734 1.867,1.867 0 1 1 0,-3.734 z"
         class="C"
         id="path262" />
      <use
         xlink:href="#f"
         class="C"
         id="use264"
         x="0"
         y="0"
         width="100%"
         height="100%" />
      <use
         xlink:href="#f"
         x="-6.6919999"
         y="-1.7640001"
         class="C"
         id="use266"
         width="100%"
         height="100%" />
    </g>
    <path
       d="m 110.639,150.672 c -0.153,0.001 -0.286,0.103 -0.328,0.25 -0.051,0.183 0.056,0.373 0.238,0.424 l 4.412,1.25 c 0.182,0.051 0.372,-0.054 0.424,-0.236 0.025,-0.088 0.014,-0.182 -0.03,-0.262 -0.044,-0.08 -0.119,-0.139 -0.206,-0.164 l -4.412,-1.25 a 0.36,0.36 0 0 0 -0.098,-0.012 z m 6.641,1.508 c -0.171,0.009 -0.309,0.142 -0.324,0.313 -0.017,0.189 0.122,0.355 0.311,0.373 l 4.449,0.404 c 0.189,0.017 0.355,-0.122 0.373,-0.311 a 0.34,0.34 0 0 0 -0.078,-0.252 c -0.059,-0.07 -0.142,-0.115 -0.233,-0.123 l -4.449,-0.404 a 0.4,0.4 0 0 0 -0.049,0 z"
       id="path270" />
    <g
       class="M T"
       id="g276">
      <use
         xlink:href="#g"
         class="C"
         id="use272"
         x="0"
         y="0"
         width="100%"
         height="100%" />
      <use
         xlink:href="#g"
         x="6.691"
         y="-1.7640001"
         class="C"
         id="use274"
         width="100%"
         height="100%" />
    </g>
    <path
       d="m 135.53,150.672 c -0.032,-0.001 -0.065,0.003 -0.096,0.012 l -4.412,1.25 a 0.34,0.34 0 0 0 -0.206,0.164 c -0.044,0.08 -0.055,0.174 -0.03,0.262 0.052,0.182 0.242,0.288 0.424,0.236 l 4.412,-1.25 c 0.183,-0.051 0.289,-0.241 0.238,-0.424 -0.042,-0.148 -0.177,-0.25 -0.33,-0.25 z m -6.688,1.508 -4.447,0.404 c -0.091,0.008 -0.176,0.052 -0.234,0.122 -0.058,0.07 -0.087,0.161 -0.078,0.253 0.018,0.189 0.184,0.327 0.373,0.311 l 4.449,-0.404 c 0.091,-0.008 0.175,-0.052 0.234,-0.122 0.059,-0.07 0.087,-0.16 0.079,-0.251 -0.008,-0.091 -0.052,-0.176 -0.122,-0.234 -0.07,-0.058 -0.161,-0.087 -0.253,-0.078 z"
       id="path278" />
  </g>
  <g
     id="g1703">
    <path
       d="m 51.607,77.376 c -1.414,0.656 -2.795,1.372 -4.051,2.296 -1.396,0.686 -3.188,1.056 -4.008,2.506 -0.152,1.656 1.954,-0.316 2.535,-0.728 1.84,-1.233 3.938,-2.029 5.833,-3.161 0.318,-0.304 0.068,-0.811 -0.31,-0.914 z M 67.903,49.338 c 0.349,0.601 -0.383,2.927 1.09,3.129 2.085,0.888 2.834,-1.591 3.482,-2.725 -0.488,-0.106 -0.686,-0.134 -1.163,0.101 -0.037,-1.069 -0.407,-2.476 -0.75,-3.166 -0.908,0.928 -0.977,2.203 -1.012,3.269 -0.479,-0.419 -1.183,-0.548 -1.646,-0.609 z"
       class="E F G"
       id="path282" />
    <g
       stroke-width="0.365"
       class="I L M E"
       id="g288"
       transform="translate(-77.382,-67.704)">
      <path
         d="m 146.508,118.257 c 0.273,0.374 0.509,0.785 0.645,1.229 -0.022,0.283 0.246,0.224 0.245,-0.01 0.125,-0.245 0.381,-0.372 0.585,-0.54 0.12,-0.087 0.279,-0.108 0.382,-0.219"
         id="path284" />
      <path
         d="m 147.519,117.007 c 0.007,0.338 0.014,0.68 -0.082,1.008 -0.107,0.543 -0.114,1.104 -0.26,1.639 0.018,0.223 -0.107,0.414 -0.151,0.627 -0.018,0.249 -0.136,0.48 -0.119,0.733 -0.005,0.069 -0.013,0.141 -0.05,0.202"
         id="path286" />
    </g>
    <path
       d="m 70.487,47.575 c 0.172,0.487 -0.181,1.009 0.01,1.472 0.205,0.38 0.164,0.806 0.147,1.218 0.089,0.456 0.677,-0.021 1.003,0.002 0.178,-0.356 -0.674,-0.14 -0.649,-0.605 -0.128,-0.677 -0.074,-1.431 -0.453,-2.036 l -0.058,-0.05 z m -2.188,2.445 c 0.141,0.453 -0.18,1.062 0.238,1.403 0.166,0.152 0.523,0.232 0.212,-0.041 -0.302,-0.408 -0.184,-0.947 -0.45,-1.362 z"
       class="J"
       id="path290" />
    <g
       transform="matrix(0.728767,0.43364,-0.43364,0.728767,102.59575,-22.626403)"
       id="g296">
      <use
         xlink:href="#h"
         class="G H K"
         id="use292"
         x="0"
         y="0"
         width="100%"
         height="100%" />
      <use
         xlink:href="#i"
         class="D"
         id="use294"
         x="0"
         y="0"
         width="100%"
         height="100%" />
    </g>
    <g
       stroke-width="0.318"
       class="E"
       id="g306"
       transform="translate(-77.382,-67.704)">
      <path
         d="m 148.504,121.779 c -0.933,0.651 -1.579,1.446 -1.82,2.444 l -1.534,0.052 c 0.8,1.64 0.02,3.939 2.418,4.913 3.467,-0.305 2.805,-3.185 3.068,-4.784 -0.4,0.231 -0.833,0.126 -1.17,0.988 0.165,-1.787 -0.466,-2.619 -0.962,-3.614 z"
         class="F"
         id="path298" />
      <g
         class="I L"
         id="g304">
        <path
           d="m 146.545,126.235 0.864,1.526 1.36,-1.25"
           id="path300" />
        <path
           d="m 147.997,124.893 c -0.168,1.444 -0.755,2.175 -0.478,4.375"
           id="path302" />
      </g>
    </g>
    <path
       d="m 70.799,55.351 c -0.467,0.328 -0.659,0.946 -0.825,1.456 -0.068,0.641 -0.725,0.347 -1.132,0.31 -0.525,0.01 -0.263,0.968 0.136,0.961 0.271,-0.242 0.923,0.228 1.035,-0.391 0.172,-0.323 0.336,-1.082 0.813,-0.887 0.417,0.416 0.155,1.046 0.299,1.547 0.221,0.335 0.838,-0.123 0.921,0.473 0.165,0.376 0.423,-0.441 0.549,-0.645 0.19,-0.651 -0.744,0.135 -0.982,-0.282 -0.406,-0.452 -0.11,-1.098 -0.326,-1.618 -0.102,-0.211 -0.11,-1.242 -0.487,-0.925 z"
       class="J"
       id="path308" />
    <path
       d="m 70.891,59.395 c -0.456,-0.124 -0.904,0.113 -1.174,0.475 -0.461,0.367 -0.691,1.009 -0.445,1.564 0.225,0.532 0.787,0.801 1.029,1.326 0.467,0.49 1.246,0.125 1.843,0.199 0.4,-0.014 1.071,-0.045 1.118,-0.567 0.043,-0.538 -0.374,-0.949 -0.49,-1.45 -0.198,-0.453 -0.347,-1.038 -0.866,-1.217 -0.32,-0.123 -0.665,-0.401 -1.015,-0.331 z"
       class="G H K"
       id="path310" />
    <path
       d="m 71.737,60.333 c -0.314,-0.435 -0.886,-0.138 -0.387,0.282 0.296,0.349 0.167,0.817 0.321,1.208 0.136,0.382 1.011,0.549 0.839,-0.044 -0.25,-0.356 -0.216,-0.832 -0.471,-1.188 -0.09,-0.096 -0.229,-0.135 -0.303,-0.258 z"
       class="D"
       id="path312" />
    <g
       class="E M U"
       id="g318"
       transform="translate(-77.382,-67.704)">
      <path
         d="m 147.336,126.713 c -1.244,0.348 -2.442,0.896 -3.053,2.084 -0.547,0.716 -1.642,0.506 -1.136,1.622 0.216,1.096 0.468,2.217 0.97,3.219 0.698,1.135 2.154,0.478 3.082,0.045 1.149,-0.403 2.428,-0.978 2.965,-2.15 -0.501,-0.832 -1.628,-1.257 -1.695,-2.34 -0.213,-0.904 -1.193,-1.513 -1.132,-2.48 z"
         class="F"
         id="path314" />
      <path
         d="m 147.409,128.882 c -0.462,0.809 -2.261,1.885 -2.039,2.711 0.701,-0.019 1.665,-0.729 2.297,-0.248 m -3.162,2.685 c 0.616,-1 0.703,-2.258 0.613,-3.401 a 3.27,3.27 0 0 0 -0.356,-1.084"
         class="I L"
         id="path316" />
    </g>
    <path
       d="m 66.773,62.079 c -0.588,0.133 -0.616,0.734 -0.298,1.135 0.228,0.427 0.038,1.029 0.217,1.392 0.257,-0.651 0.644,-1.402 0.284,-2.094 -0.053,-0.148 -0.055,-0.34 -0.203,-0.433 z M 69.2,60.002 c -0.442,0.398 -1.396,0.558 -1.311,1.288 -0.075,0.431 0.438,0.973 0.64,0.345 0.243,-0.395 0.631,-0.713 1.037,-0.939 0.635,-0.055 0.237,-1.039 -0.264,-0.828 l -0.042,0.036 z m 1.066,1.783 c -0.188,0.444 -1.018,0.894 -0.982,1.163 0.51,0.086 1.169,-0.162 1.531,0.332 0.428,0.58 -0.227,1.186 -0.815,1.189 -0.693,0.225 -0.001,0.704 0.401,0.389 0.496,-0.182 0.869,-0.583 1.345,-0.807 0.238,-0.458 -0.377,-0.834 -0.688,-1.097 -0.384,-0.256 -0.442,-0.735 -0.58,-1.137 -0.028,-0.119 -0.154,-0.127 -0.212,-0.033 z"
       class="J"
       id="path320" />
    <path
       d="m 65.455,68.529 c 0.325,0.505 0.967,0.508 1.496,0.552 a 9.62,9.62 0 0 0 1.318,0.021 c 0.508,-0.111 0.63,-0.69 0.946,-1.028 0.34,-0.254 0.633,-0.578 0.9,-0.911 0.126,-0.426 0.013,-0.877 0.027,-1.314 -0.033,-0.419 -0.056,-0.862 -0.309,-1.216 -0.193,-0.306 -0.25,-0.665 -0.385,-0.994 -0.279,-0.262 -0.756,-0.259 -1.133,-0.292 -0.536,-0.067 -1.101,-0.014 -1.562,0.288 -0.438,0.27 -0.958,0.461 -1.241,0.918 -0.246,0.31 -0.839,0.263 -0.736,0.813 -0.095,0.493 0.05,0.983 0.139,1.463 0.181,0.564 0.562,1.085 0.542,1.699 z"
       class="G H K"
       id="path322" />
    <path
       d="m 68.886,64.11 c -0.145,-0.322 -0.747,-0.034 -0.298,0.182 0.342,0.494 0.939,0.856 1.025,1.492 0.028,0.346 0.064,0.864 -0.383,0.957 l -1.068,0.389 c -0.38,0.205 -0.849,0.257 -1.172,0.556 -0.374,0.346 0.255,0.708 0.533,0.417 0.528,-0.334 1.078,-0.632 1.667,-0.845 0.573,-0.16 0.782,-0.851 0.602,-1.373 -0.104,-0.442 -0.184,-0.892 -0.449,-1.273 -0.107,-0.203 -0.145,-0.545 -0.458,-0.502 z"
       class="D"
       id="path324" />
    <g
       class="G"
       id="g330"
       transform="translate(-77.382,-67.704)">
      <path
         d="m 142.225,131.383 c 0.309,1.547 0.866,2.288 0.919,4.669 1.698,1.774 4.261,-2.585 5.597,-0.099 -1.882,0.369 -3.05,2.781 -6.039,1.312 -1.481,-1.933 -0.323,-3.873 -0.478,-5.883 z"
         class="E F"
         id="path326" />
      <use
         xlink:href="#h"
         x="119.477"
         class="H K"
         id="use328"
         y="0"
         width="100%"
         height="100%" />
    </g>
    <use
       xlink:href="#i"
       x="119.477"
       class="D"
       id="use332"
       y="0"
       width="100%"
       height="100%"
       transform="translate(-77.382,-67.704)" />
    <g
       transform="matrix(0.242435,-0.703263,0.679553,0.215255,-42.998447,11.019074)"
       id="g348">
      <g
         class="E"
         id="g344">
        <use
           xlink:href="#j"
           class="F N"
           id="use334"
           x="0"
           y="0"
           width="100%"
           height="100%" />
        <g
           class="I L P"
           id="g342">
          <use
             xlink:href="#k"
             id="use336"
             x="0"
             y="0"
             width="100%"
             height="100%" />
          <use
             xlink:href="#l"
             id="use338"
             x="0"
             y="0"
             width="100%"
             height="100%" />
          <use
             xlink:href="#m"
             id="use340"
             x="0"
             y="0"
             width="100%"
             height="100%" />
        </g>
      </g>
      <use
         xlink:href="#n"
         class="J"
         id="use346"
         x="0"
         y="0"
         width="100%"
         height="100%" />
    </g>
    <g
       transform="matrix(1.093835,-0.09359,0.089253,0.994634,32.97947,-59.147885)"
       id="g370">
      <use
         xlink:href="#h"
         class="G H K"
         id="use350"
         x="0"
         y="0"
         width="100%"
         height="100%" />
      <use
         xlink:href="#i"
         class="D"
         id="use352"
         x="0"
         y="0"
         width="100%"
         height="100%" />
      <g
         transform="matrix(0.242435,-0.703263,0.679553,0.215255,-85.093447,78.723074)"
         id="g368">
        <g
           class="E"
           id="g364">
          <use
             xlink:href="#j"
             class="F N"
             id="use354"
             x="0"
             y="0"
             width="100%"
             height="100%" />
          <g
             class="I L P"
             id="g362">
            <use
               xlink:href="#k"
               id="use356"
               x="0"
               y="0"
               width="100%"
               height="100%" />
            <use
               xlink:href="#l"
               id="use358"
               x="0"
               y="0"
               width="100%"
               height="100%" />
            <use
               xlink:href="#m"
               id="use360"
               x="0"
               y="0"
               width="100%"
               height="100%" />
          </g>
        </g>
        <use
           xlink:href="#n"
           class="J"
           id="use366"
           x="0"
           y="0"
           width="100%"
           height="100%" />
      </g>
    </g>
    <g
       transform="matrix(1.172777,-0.100344,0.095694,1.066416,33.69517,-59.506365)"
       id="g376">
      <use
         xlink:href="#h"
         class="G H K"
         id="use372"
         x="0"
         y="0"
         width="100%"
         height="100%" />
      <use
         xlink:href="#i"
         class="D"
         id="use374"
         x="0"
         y="0"
         width="100%"
         height="100%" />
    </g>
    <g
       transform="matrix(0.217023,-0.774298,0.817563,0.161362,-58.56708,32.98384)"
       id="g392">
      <g
         class="E"
         id="g388">
        <use
           xlink:href="#j"
           class="F N"
           id="use378"
           x="0"
           y="0"
           width="100%"
           height="100%" />
        <g
           class="I L P"
           id="g386">
          <use
             xlink:href="#k"
             id="use380"
             x="0"
             y="0"
             width="100%"
             height="100%" />
          <use
             xlink:href="#l"
             id="use382"
             x="0"
             y="0"
             width="100%"
             height="100%" />
          <use
             xlink:href="#m"
             id="use384"
             x="0"
             y="0"
             width="100%"
             height="100%" />
        </g>
      </g>
      <use
         xlink:href="#n"
         class="J"
         id="use390"
         x="0"
         y="0"
         width="100%"
         height="100%" />
    </g>
    <g
       transform="matrix(1.172777,-0.100344,0.095694,1.066416,36.43548,-52.817154)"
       id="g398">
      <use
         xlink:href="#h"
         class="G H K"
         id="use394"
         x="0"
         y="0"
         width="100%"
         height="100%" />
      <use
         xlink:href="#i"
         class="D"
         id="use396"
         x="0"
         y="0"
         width="100%"
         height="100%" />
    </g>
    <g
       stroke-width="0.565"
       class="E"
       id="g408"
       transform="translate(-77.382,-67.704)">
      <path
         d="m 141.355,126.614 c -2.11,-1.278 -2.193,-1.953 -3.332,-3.406 -0.286,-0.541 -0.832,-0.978 -0.92,-1.595 0.079,-0.653 0.912,-0.353 1.356,-0.422 0.567,0.081 0.947,-0.384 1.097,-0.872 0.27,-0.703 0.309,-1.479 0.685,-2.145 0.197,-0.485 0.612,-1.074 1.218,-0.873 0.506,0.187 1.101,0.472 1.176,1.081 l 0.753,1.514 c 0.362,0.522 0.9,0.108 1.307,-0.046 0.491,0.06 0.305,0.64 0.265,0.971 -0.078,0.469 -0.336,0.885 -0.67,1.213 -0.28,0.546 0.781,0.35 0.707,0.878 -0.046,0.451 -0.357,0.828 -0.612,1.186 -0.396,0.455 -0.999,0.595 -1.521,0.842 -0.458,0.215 -0.91,0.512 -1.14,0.978 -0.174,0.197 -0.355,0.42 -0.368,0.695 z"
         class="F"
         id="path400" />
      <g
         class="I L M"
         id="g406">
        <path
           d="m 141.355,126.614 -0.182,-7.331 m -2.106,3.925 2.238,1.395"
           id="path402" />
        <path
           d="m 140.055,122.143 c 0.3,0.438 0.778,0.951 1.294,1.032 0.427,-0.131 0.808,-0.431 1.078,-0.783 0.113,-0.163 0.216,-0.343 0.384,-0.456"
           id="path404" />
      </g>
    </g>
    <path
       d="m 63.531,50.487 c -0.554,0.847 -0.748,1.848 -1.072,2.786 -0.128,0.703 -1.254,0.941 -1.436,1.035 0.416,0.352 1.31,1.165 1.062,0.149 0.097,-0.863 1.23,-0.118 0.962,-1.098 0.056,-0.738 -0.167,-2.086 0.808,-2.232 0.858,0.463 0.501,1.618 0.576,2.411 0.003,1.074 1.776,-0.55 1.345,0.871 -0.266,0.598 -1.861,1.35 -0.805,1.924 0.61,-0.258 1.813,-0.884 1.092,-1.631 0.263,-0.562 1.23,-1.815 -0.077,-1.731 -1.051,-0.265 -0.811,-1.602 -1.38,-2.299 -0.226,-0.339 -0.822,-0.728 -1.076,-0.187 z"
       class="J"
       id="path410" />
    <g
       transform="matrix(1.091039,-0.11108,0.089025,1.180512,39.13147,-53.009545)"
       id="g416">
      <use
         xlink:href="#h"
         class="G H K"
         id="use412"
         x="0"
         y="0"
         width="100%"
         height="100%" />
      <use
         xlink:href="#i"
         class="D"
         id="use414"
         x="0"
         y="0"
         width="100%"
         height="100%" />
    </g>
    <g
       class="E"
       id="g426"
       transform="translate(-77.382,-67.704)">
      <path
         d="m 140.755,130.243 c -0.572,0.216 -1.132,-0.159 -1.703,-0.175 -0.445,-0.3 -1.259,0.146 -0.851,0.677 0.269,0.636 0.809,1.221 0.704,1.959 -0.028,0.617 0.105,1.356 0.697,1.679 0.618,0.388 1.295,0.688 1.854,1.165 a 1.45,1.45 0 0 0 1.713,-0.104 c 0.426,-0.338 0.934,-0.529 1.409,-0.782 0.514,-0.243 1.079,-0.381 1.648,-0.374 0.638,-0.129 0.498,-0.942 0.148,-1.302 -0.292,-0.385 -0.664,-0.685 -1.099,-0.885 -0.449,-0.22 -0.522,-0.741 -0.321,-1.156 0.22,-0.854 0.332,-1.739 0.245,-2.62 0.189,-0.576 -0.414,-0.819 -0.884,-0.622 -0.532,0.115 -1.062,0.276 -1.51,0.598 -0.551,0.408 -1.254,0.734 -1.521,1.41 -0.161,0.157 -0.198,0.719 -0.529,0.532 z"
         class="F U"
         id="path418" />
      <g
         stroke-width="0.6"
         class="I L M"
         id="g424">
        <path
           d="m 140.828,132.338 c 0.439,0.895 0.32,1.789 0.184,2.684 m 3.254,-1.489 c -1.517,-0.031 -2.533,0.497 -3.217,1.397"
           id="path420" />
        <path
           d="m 142.869,131.07 c -1.164,1.287 -0.629,1.887 -1.636,3.787"
           id="path422" />
      </g>
    </g>
    <path
       d="m 66.957,60.59 c -0.615,0.566 -1.653,0.483 -2.096,1.262 -0.474,0.398 -0.733,1.059 -1.29,1.332 -0.589,0.149 -1.196,-0.047 -1.769,-0.163 0.589,0.345 0.2,1.277 0.699,1.625 0.434,-0.182 0.49,-1.292 1.21,-0.753 0.449,0.584 0.637,-0.639 1.046,-0.833 0.316,-0.41 1.132,-0.692 1.432,-0.125 0.273,0.6 0.088,1.393 -0.558,1.663 -0.32,0.634 0.766,0.24 1.106,0.349 0.634,-0.109 0.977,0.946 1.464,0.632 -0.238,-0.589 -1.069,-0.681 -1.244,-1.327 -0.297,-0.829 0.227,-1.645 0.083,-2.483 -0.036,-0.389 0.135,-0.825 -0.082,-1.182 z"
       class="J"
       id="path428" />
    <g
       transform="matrix(0.870544,-0.266525,0.279617,0.829784,9.266195,-43.787139)"
       id="g452">
      <use
         xlink:href="#o"
         class="G H K"
         id="use430"
         x="0"
         y="0"
         width="100%"
         height="100%" />
      <g
         class="D"
         id="g436">
        <use
           xlink:href="#p"
           id="use432"
           x="0"
           y="0"
           width="100%"
           height="100%" />
        <use
           xlink:href="#p"
           id="use434"
           x="0"
           y="0"
           width="100%"
           height="100%" />
      </g>
      <g
         class="E"
         id="g448">
        <use
           xlink:href="#j"
           class="F N"
           id="use438"
           x="0"
           y="0"
           width="100%"
           height="100%" />
        <g
           class="I L P"
           id="g446">
          <use
             xlink:href="#k"
             id="use440"
             x="0"
             y="0"
             width="100%"
             height="100%" />
          <use
             xlink:href="#l"
             id="use442"
             x="0"
             y="0"
             width="100%"
             height="100%" />
          <use
             xlink:href="#m"
             id="use444"
             x="0"
             y="0"
             width="100%"
             height="100%" />
        </g>
      </g>
      <use
         xlink:href="#n"
         class="J"
         id="use450"
         x="0"
         y="0"
         width="100%"
         height="100%" />
    </g>
    <use
       xlink:href="#o"
       x="119.477"
       class="G H K"
       id="use454"
       y="0"
       width="100%"
       height="100%"
       transform="translate(-77.382,-67.704)" />
    <g
       class="D"
       id="g460"
       transform="translate(-77.382,-67.704)">
      <use
         xlink:href="#p"
         x="119.477"
         id="use456"
         y="0"
         width="100%"
         height="100%" />
      <use
         xlink:href="#p"
         x="119.477"
         id="use458"
         y="0"
         width="100%"
         height="100%" />
    </g>
    <g
       class="E"
       id="g472"
       transform="translate(-77.382,-67.704)">
      <use
         xlink:href="#j"
         x="119.477"
         class="F N"
         id="use462"
         y="0"
         width="100%"
         height="100%" />
      <g
         class="I L P"
         id="g470">
        <use
           xlink:href="#k"
           x="119.477"
           id="use464"
           y="0"
           width="100%"
           height="100%" />
        <use
           xlink:href="#l"
           x="119.477"
           id="use466"
           y="0"
           width="100%"
           height="100%" />
        <use
           xlink:href="#m"
           x="119.477"
           id="use468"
           y="0"
           width="100%"
           height="100%" />
      </g>
    </g>
    <use
       xlink:href="#n"
       x="119.477"
       class="J"
       id="use474"
       y="0"
       width="100%"
       height="100%"
       transform="translate(-77.382,-67.704)" />
  </g>
  <g
     class="C"
     id="g480"
     transform="translate(-77.382,-67.704)">
    <path
       d="m 125.094,150.238 c 0.195,-0.295 0.21,-0.358 0.105,-0.442 -1.574,-1.474 -3.628,-2.6 -5.268,-3.45 l -1.546,-0.798 -0.288,-0.494 c -0.655,-1.125 -0.789,-1.594 -0.792,-2.759 a 7.5,7.5 0 0 0 -0.124,-1.262 c -0.16,-0.754 -0.701,-1.863 -1.109,-2.273 -0.178,-0.178 -0.968,-0.705 -1.755,-1.17 -1.631,-0.962 -1.929,-1.234 -2.738,-2.493 l -0.59,-0.852 c -0.023,0 -0.11,0.052 -0.192,0.115 -0.14,0.106 -0.118,0.168 0.337,0.937 a 9.67,9.67 0 0 0 1.257,1.639 c 0.673,0.714 0.786,0.878 0.905,1.313 0.304,1.111 0.419,1.441 0.624,1.793 0.333,0.571 1.098,1.349 1.72,1.748 0.677,0.434 0.778,0.576 0.953,1.33 0.153,0.66 0.355,1.094 0.776,1.673 l 0.293,0.402 -0.451,-0.175 c -1.171,-0.454 -2.439,-1.415 -3.04,-2.303 -0.192,-0.284 -0.679,-0.839 -1.081,-1.233 -0.402,-0.394 -0.754,-0.792 -0.78,-0.885 -0.026,-0.093 -0.142,-0.585 -0.256,-1.095 -0.255,-1.138 -0.675,-2.47 -0.958,-3.033 -0.117,-0.232 -0.491,-0.885 -0.832,-1.452 -0.613,-1.019 -0.62,-1.038 -0.62,-1.617 0,-1.139 -0.301,-1.992 -1.128,-3.199 -0.263,-0.384 -0.523,-0.865 -0.577,-1.069 -0.28,-1.045 -0.655,0.33 -0.653,2.392 0.001,0.686 0.033,0.886 0.201,1.24 0.215,0.453 0.741,0.996 1.486,1.536 0.486,0.352 1.128,1.195 1.553,2.038 0.273,0.542 0.971,2.325 0.971,2.482 0,0.06 -0.075,0.177 -0.166,0.26 -0.155,0.141 -0.18,0.141 -0.377,0.013 -0.275,-0.18 -0.409,-0.451 -0.631,-1.28 -0.238,-0.886 -0.566,-1.445 -1.112,-1.9 -0.244,-0.203 -0.792,-0.718 -1.219,-1.145 -0.588,-0.589 -0.796,-0.75 -0.863,-0.67 -0.067,0.08 -0.04,0.176 0.081,0.354 0.438,0.645 0.505,0.871 0.551,1.834 0.072,1.52 0.375,1.975 1.585,2.374 0.402,0.133 0.516,0.209 0.537,0.358 0.031,0.22 -0.057,0.231 -0.902,0.108 -0.409,-0.059 -0.598,-0.135 -0.787,-0.314 -0.362,-0.343 -0.815,-1.296 -1.447,-3.042 -0.514,-1.42 -0.556,-1.588 -0.557,-2.229 -0.002,-1.065 -0.177,-1.726 -0.673,-2.547 -0.236,-0.391 -0.49,-0.892 -0.563,-1.113 -0.115,-0.347 -0.823,-1.539 -0.913,-1.539 -0.017,0 -0.125,0.043 -0.239,0.095 l -0.207,0.095 0.308,0.558 0.308,0.558 0.001,1.558 c 10e-4,1.553 0.002,1.56 0.249,2.064 0.16,0.327 0.463,0.716 0.859,1.103 0.603,0.59 0.617,0.614 1.047,1.769 0.439,1.18 0.772,1.908 1.143,2.495 0.111,0.175 0.169,0.319 0.129,0.319 -0.185,0 -1.268,-0.866 -1.542,-1.233 -0.452,-0.605 -1.481,-2.192 -2.251,-3.474 -0.509,-0.846 -0.668,-1.182 -0.64,-1.348 l 0.401,-3.342 c 0.004,-0.747 -0.203,-1.221 -0.99,-2.271 -0.313,-0.417 -0.669,-0.948 -0.792,-1.179 -0.211,-0.398 -0.222,-0.481 -0.21,-1.516 0.015,-1.276 0.16,-2.62 0.342,-3.159 0.07,-0.208 0.536,-1.232 1.036,-2.274 1.148,-2.396 1.376,-3.07 1.38,-4.086 0.003,-0.632 -0.034,-0.847 -0.218,-1.292 l -0.222,-0.534 0.204,-0.804 a 6.1,6.1 0 0 0 0.204,-1.593 v -0.789 h -0.232 -0.232 l -0.029,0.86 c -0.038,1.108 -0.225,1.705 -0.807,2.569 -0.592,0.88 -0.753,1.423 -0.705,2.375 0.029,0.571 0.084,0.817 0.262,1.164 0.346,0.674 0.309,0.908 -0.363,2.3 l -0.59,1.32 c -10e-4,0.055 -0.039,0.124 -0.086,0.153 -0.084,0.052 -0.757,-1.297 -0.757,-1.516 0,-0.06 0.048,-0.128 0.108,-0.15 0.192,-0.074 0.555,-0.854 0.636,-1.369 0.133,-0.841 -0.1,-1.856 -0.561,-2.442 -0.16,-0.203 -0.159,-0.208 0.134,-0.986 l 0.295,-0.782 -0.053,-1.13 -0.082,-1.159 c -0.016,-0.016 -0.139,-0.006 -0.274,0.02 l -0.245,0.049 v 1.211 1.211 l -0.477,0.916 c -0.59,1.134 -0.745,1.642 -0.745,2.451 0,0.94 0.194,1.585 0.955,3.17 l 0.687,1.432 -0.021,1.39 -0.085,1.623 c -0.061,0.222 -0.073,0.227 -0.253,0.101 -0.18,-0.126 -0.189,-0.181 -0.189,-1.426 0,-1.52 -0.094,-1.916 -0.704,-2.951 a 7.97,7.97 0 0 1 -0.615,-1.369 c -0.207,-0.659 -0.23,-0.695 -0.461,-0.695 -0.335,0 -0.321,0.183 0.109,1.39 l 0.351,0.987 -0.153,0.915 c -0.268,1.606 -0.05,2.282 1.097,3.404 0.379,0.371 0.889,0.958 1.133,1.306 l 0.883,1.18 c 0.583,0.728 0.701,0.974 0.8,1.674 0.108,0.758 0.034,1.357 -0.167,1.357 -0.125,0 -0.151,-0.113 -0.187,-0.787 -0.034,-0.648 -0.082,-0.861 -0.27,-1.207 -0.227,-0.417 -2.694,-2.971 -2.783,-2.882 -0.024,0.024 -0.067,0.157 -0.095,0.296 -0.045,0.223 -0.006,0.288 0.338,0.57 0.609,0.499 0.725,0.809 0.816,2.191 l 0.159,1.488 c 0.118,0.44 0.52,1.003 1.094,1.533 0.375,0.346 0.505,0.525 0.505,0.692 v 0.225 l -0.274,-0.192 c -0.151,-0.106 -0.642,-0.555 -1.091,-0.998 -1.043,-1.028 -1.207,-1.362 -1.377,-2.814 -0.143,-1.218 -0.317,-1.745 -0.84,-2.542 -0.495,-0.754 -0.539,-0.913 -0.577,-2.099 -0.024,-0.763 -0.084,-1.186 -0.244,-1.727 -0.117,-0.394 -0.238,-0.934 -0.27,-1.2 -0.052,-0.435 -0.078,-0.484 -0.255,-0.484 -0.321,0 -0.349,0.48 -0.091,1.526 0.272,1.1 0.271,1.615 -0.002,2.75 -0.637,2.65 -0.384,3.24 2.644,6.155 l 2.194,2.084 c 0.381,0.337 1.529,1.993 1.529,2.206 0,0.099 -0.139,0.116 -0.753,0.092 -0.692,-0.027 -0.773,-0.049 -1.001,-0.268 -0.228,-0.219 -0.374,-0.567 -0.602,-1.462 -0.138,-0.54 -1.389,-2.02 -2.571,-3.04 -0.324,-0.28 -0.722,-0.7 -0.885,-0.934 -0.163,-0.234 -0.327,-0.427 -0.366,-0.429 -0.039,-0.002 -0.16,0.066 -0.269,0.152 l -0.198,0.156 0.219,0.329 c 0.121,0.181 0.553,0.676 0.961,1.1 0.408,0.424 0.76,0.86 0.782,0.969 0.022,0.109 0.056,0.56 0.075,1.005 0.027,0.638 0.079,0.903 0.247,1.264 a 2.98,2.98 0 0 0 1.343,1.431 l 0.533,0.289 h 1.309 c 1.086,0 1.346,0.024 1.526,0.142 0.222,0.146 0.82,0.823 1.157,1.311 0.171,0.248 0.175,0.274 0.039,0.274 -0.083,0 -0.36,-0.223 -0.616,-0.495 -0.256,-0.272 -0.549,-0.538 -0.65,-0.59 -0.193,-0.099 -2.183,-0.134 -2.421,-0.043 -0.073,0.028 -0.133,0.144 -0.133,0.258 0,0.172 0.03,0.198 0.175,0.152 0.096,-0.031 0.434,-0.06 0.751,-0.065 l 0.576,-0.01 0.648,0.585 c 1.371,1.238 1.644,1.386 2.557,1.386 0.232,0 0.442,0.034 0.468,0.076 0.098,0.158 0.995,0.605 1.456,0.725 0.289,0.075 0.863,0.125 1.442,0.125 1.112,0 1.492,0.091 1.881,0.449 l 0.28,0.257 -0.211,0.06 c -0.458,0.13 -0.895,0.069 -1.601,-0.222 -0.665,-0.274 -1.209,-0.394 -2.211,-0.486 -0.388,-0.036 -0.4,-0.03 -0.4,0.19 0,0.22 0.017,0.229 0.742,0.326 a 10.24,10.24 0 0 1 1.327,0.276 c 0.574,0.174 0.59,0.187 0.88,0.696 0.162,0.285 0.623,0.85 1.025,1.255 0.402,0.405 0.692,0.76 0.645,0.789 -0.191,0.118 -0.981,0.284 -1.357,0.285 -0.764,0.002 -1.182,-0.323 -1.421,-1.107 -0.227,-0.746 -1.059,-1.49 -2.187,-1.956 -0.41,-0.169 -0.751,-0.408 -1.294,-0.907 -0.523,-0.48 -0.936,-0.773 -1.419,-1.007 -0.779,-0.377 -0.864,-0.392 -0.924,-0.163 -0.036,0.137 0.067,0.221 0.594,0.484 0.737,0.368 1.391,0.922 1.62,1.37 0.088,0.172 0.204,0.574 0.258,0.894 0.182,1.072 0.728,1.781 1.609,2.09 l 1.204,0.448 c 0.613,0.236 0.874,0.291 1.39,0.295 0.349,0.003 0.806,-0.048 1.014,-0.113 0.269,-0.083 0.82,-0.115 1.9,-0.109 l 1.521,0.008 1.09,0.718 1.706,1.082 0.655,0.428 c 0.069,0.112 -0.54,0.178 -1.296,0.14 -0.958,-0.048 -1.457,-0.261 -1.692,-0.721 -0.198,-0.388 -0.68,-0.834 -1.084,-1.003 -0.157,-0.066 -0.7,-0.163 -1.206,-0.216 -1.109,-0.116 -2.428,-0.003 -3.632,0.309 -1.09,0.283 -1.249,0.352 -1.249,0.541 0,0.155 0.025,0.154 0.653,-0.046 0.38,-0.121 1.071,-0.247 1.653,-0.303 l 1,-0.095 0.178,0.248 c 0.559,0.779 1.163,1.262 1.863,1.491 0.14,0.046 1.317,0.113 2.614,0.148 2.647,0.073 2.954,0.124 4.675,0.774 1.281,0.482 2.246,1.214 3.261,2.07 l 0.737,0.685 c 0.183,0.189 0.358,0.344 0.389,0.344 0.031,0 0.158,-0.155 0.284,-0.344 z M 106.797,130.82 c -0.192,-1.386 -0.154,-1.558 0.803,-3.643 l 0.632,-1.377 -0.048,-0.645 c -0.026,-0.355 -0.145,-0.926 -0.264,-1.27 -0.272,-0.786 -0.272,-1.082 0.001,-1.62 0.124,-0.246 0.186,-0.46 0.143,-0.502 -0.115,-0.115 -1.161,0.985 -1.448,1.524 -0.299,0.561 -0.514,1.323 -0.514,1.826 0,0.196 0.117,0.804 0.259,1.351 0.299,1.15 0.288,1.467 -0.076,2.189 l -0.242,0.479 -0.426,-0.632 -0.426,-0.632 0.076,-0.946 c 0.261,-3.244 0.743,-4.177 3.208,-6.201 1.269,-1.043 1.5,-1.484 1.565,-2.99 0.047,-1.086 0.084,-1.19 0.69,-1.915 0.367,-0.439 0.408,-0.523 0.298,-0.613 -0.11,-0.09 -0.273,0.039 -1.06,0.812 -1.598,1.569 -1.99,2.261 -2.093,3.692 l -0.06,0.837 -0.401,0.363 c -0.623,0.564 -0.636,0.543 -0.394,-0.66 l 0.216,-1.42 0.057,-0.632 0.704,-0.716 c 0.89,-0.906 3.581,-4.03 3.962,-4.6 0.443,-0.663 0.686,-1.515 0.78,-2.731 0.084,-1.09 0.232,-1.56 0.627,-1.991 0.162,-0.177 0.152,-0.534 -0.016,-0.534 -0.16,0 -0.679,0.849 -0.978,1.601 -0.28,0.702 -0.398,0.883 -0.965,1.477 -0.355,0.372 -0.711,0.801 -0.789,0.954 -0.084,0.163 -0.187,0.698 -0.251,1.303 -0.078,0.742 -0.161,1.131 -0.3,1.405 -0.216,0.426 -0.911,1.304 -1.429,1.807 -0.283,0.274 -0.343,0.304 -0.343,0.168 0,-0.091 0.118,-0.411 0.262,-0.712 0.229,-0.478 0.271,-0.679 0.333,-1.588 0.079,-1.172 0.137,-1.312 0.716,-1.719 0.4,-0.282 0.409,-0.297 0.298,-0.472 -0.118,-0.186 -1.219,0.443 -1.824,1.042 -0.898,0.889 -1.132,1.741 -0.806,2.931 0.22,0.802 0.228,1.244 0.026,1.493 l -0.153,0.189 -0.27,-0.341 c -0.472,-0.596 -0.727,-1.253 -0.726,-1.871 0.001,-0.657 0.088,-0.835 0.823,-1.689 0.354,-0.412 0.91,-0.902 1.577,-1.39 2.338,-1.711 2.548,-1.925 3.518,-3.576 0.343,-0.585 0.678,-1.005 1.242,-1.558 1.312,-1.29 1.517,-1.826 1.444,-3.786 -0.05,-1.366 -0.01,-1.574 0.416,-2.133 0.208,-0.273 0.21,-0.288 0.061,-0.399 -0.136,-0.1 -0.181,-0.092 -0.345,0.062 -0.276,0.258 -0.611,0.978 -0.615,1.323 -0.006,0.483 -0.182,0.849 -0.751,1.564 -0.716,0.9 -0.836,1.201 -0.982,2.469 l -0.123,1.068 -0.597,1.095 c -0.682,1.251 -1.072,1.817 -1.425,2.068 l -0.247,0.176 v -0.261 c 0,-0.144 0.095,-0.449 0.211,-0.678 0.267,-0.527 0.462,-1.27 0.463,-1.764 0.001,-0.455 0.359,-1.141 0.759,-1.454 0.234,-0.183 0.247,-0.216 0.126,-0.316 -0.121,-0.1 -0.233,-0.046 -0.838,0.366 -0.855,0.581 -1.338,1.09 -1.635,1.724 -0.198,0.422 -0.227,0.601 -0.252,1.528 -0.032,1.198 -0.088,1.33 -0.748,1.784 l -0.386,0.265 0.074,-0.539 c 0.04,-0.296 0.074,-1.002 0.075,-1.567 l 0.002,-1.028 0.758,-0.844 c 0.417,-0.464 1.246,-1.252 1.843,-1.75 2.123,-1.774 2.687,-2.66 2.957,-4.639 0.058,-0.425 0.082,-0.459 0.55,-0.777 0.578,-0.392 0.945,-0.814 1.087,-1.246 0.056,-0.172 0.155,-1.071 0.22,-1.997 l 0.247,-2.654 c 0.165,-1.231 0.168,-1.179 -0.08,-1.179 -0.116,0 -0.211,0.034 -0.211,0.076 a 28.41,28.41 0 0 1 -0.462,2.499 c -0.068,0.237 -0.337,0.724 -0.603,1.095 -0.759,1.058 -0.944,1.527 -1.044,2.654 -0.275,3.107 -0.434,3.584 -1.572,4.733 -0.264,0.266 -0.529,0.484 -0.59,0.484 -0.23,0 -0.095,-0.412 0.294,-0.897 0.653,-0.813 0.794,-1.232 0.865,-2.557 0.063,-1.178 0.143,-1.489 0.629,-2.449 0.249,-0.492 0.248,-0.472 0.047,-0.58 -0.14,-0.075 -0.194,-0.027 -0.418,0.369 l -0.845,1.347 -0.867,1.459 c -0.268,0.544 -0.281,0.616 -0.321,1.79 -0.043,1.259 -0.083,1.416 -0.444,1.754 l -0.207,0.193 -0.06,-1.138 c -0.07,-1.328 0.01,-1.849 0.412,-2.66 0.513,-1.035 2.252,-4.086 2.728,-4.786 1.026,-1.508 1.176,-1.986 1.233,-3.931 0.02,-0.696 0.095,-1.606 0.166,-2.023 0.172,-1.018 0.17,-1.053 -0.068,-1.053 -0.171,0 -0.206,0.052 -0.249,0.361 -0.115,0.842 -0.374,1.287 -1.169,2.013 -0.412,0.376 -0.84,0.84 -0.951,1.03 -0.31,0.532 -0.412,1.338 -0.357,2.83 0.026,0.718 0.013,1.496 -0.029,1.727 -0.072,0.393 -0.756,1.909 -1.156,2.563 l -0.176,0.288 -0.094,-0.205 c -0.077,-0.17 -0.047,-0.336 0.171,-0.956 0.359,-1.018 0.396,-1.473 0.174,-2.129 -0.098,-0.288 -0.177,-0.631 -0.177,-0.762 0,-0.131 0.176,-0.578 0.391,-0.992 0.331,-0.639 0.397,-0.848 0.432,-1.365 l 0.041,-0.611 h -0.264 c -0.255,0 -0.264,0.012 -0.264,0.366 0,0.557 -0.193,1.086 -0.718,1.965 -0.915,1.533 -1.374,2.803 -1.269,3.506 0.074,0.492 0.461,1.091 0.887,1.373 0.188,0.124 0.341,0.255 0.341,0.291 0,0.036 -0.122,0.325 -0.272,0.642 l -0.272,0.576 -0.005,1.811 c -0.005,1.943 -0.034,2.113 -0.488,2.887 -0.121,0.206 -0.386,0.559 -0.59,0.783 l -0.37,0.409 -0.059,-0.317 c -0.052,-0.277 -0.027,-0.354 0.197,-0.609 0.316,-0.36 0.517,-0.75 0.762,-1.483 0.161,-0.479 0.184,-0.694 0.153,-1.432 a 4.96,4.96 0 0 0 -0.34,-1.753 c -0.333,-0.968 -0.485,-1.675 -0.487,-2.269 -0.002,-0.486 -0.069,-0.595 -0.313,-0.504 -0.183,0.068 -0.186,0.094 -0.138,0.979 0.055,0.997 0.03,1.103 -0.679,2.804 -0.262,0.629 -0.298,0.803 -0.298,1.432 0,0.712 0.076,1.088 0.532,2.634 0.12,0.406 0.263,1.15 0.317,1.652 0.2,1.848 -0.166,3.174 -1.143,4.135 l -0.468,0.46 v -0.433 c 0,-0.342 0.069,-0.562 0.329,-1.05 0.59,-1.106 0.622,-1.739 0.158,-3.16 l -0.252,-0.774 0.228,-0.685 0.198,-0.711 c -0.016,-0.014 -0.113,-0.052 -0.214,-0.083 -0.203,-0.062 -0.249,0.018 -0.837,1.463 -0.712,1.748 -0.804,3.013 -0.306,4.216 0.194,0.471 0.275,0.825 0.316,1.39 0.082,1.121 0.238,1.772 0.666,2.774 0.454,1.062 0.599,1.785 0.523,2.609 -0.098,1.07 -0.586,2.608 -1.083,3.411 l -0.187,0.303 -0.06,-0.337 c -0.127,-0.715 -0.078,-1.178 0.185,-1.758 0.672,-1.482 0.678,-2.638 0.025,-4.725 -0.245,-0.784 -0.283,-0.84 -0.469,-0.698 -0.126,0.096 -0.127,0.146 -0.011,0.569 0.189,0.689 0.106,1.22 -0.338,2.173 -0.228,0.488 -0.423,1.059 -0.484,1.415 -0.112,0.657 -0.056,0.98 0.382,2.182 0.202,0.555 0.214,0.679 0.206,2.106 l -0.061,2.482 -0.052,0.966 -0.26,-0.401 c -0.248,-0.382 -0.257,-0.424 -0.182,-0.881 0.123,-0.753 0.006,-2.255 -0.239,-3.066 -0.468,-1.548 -0.577,-2.624 -0.375,-3.68 0.116,-0.607 0.115,-0.615 -0.101,-0.584 -0.245,0.035 -0.372,0.585 -0.453,1.958 -0.058,0.995 -0.063,1.013 -0.476,1.8 -0.878,1.673 -0.645,2.473 1.379,4.734 1.026,1.146 1.611,1.976 2.057,2.918 0.277,0.583 0.297,0.604 0.522,0.542 0.164,-0.045 0.227,-0.112 0.211,-0.225 z"
       stroke-width="0.184"
       class="R V"
       id="path476" />
    <path
       d="m 113.999,138.315 c 1.069,0.403 3.068,4.487 2.097,1.132 -0.059,-0.513 -2.646,-1.879 -2.097,-1.132 z m -7.564,2.919 c -0.844,1.935 4.41,2.995 1.299,1.369 -0.624,-0.147 -0.791,-1.47 -1.299,-1.369 z m 5.101,0.508 c -0.804,1.847 4.36,2.285 1.323,1.251 -0.702,0.117 -1.082,-1.632 -1.323,-1.251 z m -7.593,-4.649 c 0.563,0.977 0.922,0.125 0,0 z m 4.149,-0.67 c -0.333,1.702 2.393,2.779 0.475,0.849 -0.077,-0.275 -0.111,-0.757 -0.475,-0.849 z m 0.358,-5.616 c -0.811,0.965 1.242,3.647 0.513,1.145 -0.01,-0.427 -0.301,-0.888 -0.513,-1.145 z m -3.382,0.245 c -0.063,0.857 0.94,3.737 0.789,1.362 -0.086,-0.531 -0.374,-1.022 -0.789,-1.362 z m -5.45,1.94 c -0.632,1.236 2.375,3.445 0.885,1.377 -0.246,-0.485 -0.438,-1.032 -0.885,-1.377 z m -1.882,-7.085 c -1.095,1.547 2.3,5.565 0.848,1.777 -0.156,-0.628 -0.542,-1.193 -0.848,-1.777 z m 3.289,1.98 c -0.112,1.6 1.855,4.206 1.163,1.117 -0.269,-0.505 -0.804,-0.708 -1.163,-1.117 z m -1.551,-6.194 c -0.628,1.066 0.786,4.007 0.403,1.346 -0.038,-0.398 0.238,-1.283 -0.403,-1.346 z m 4.071,1.322 c -0.343,1.447 0.523,4.96 0.471,1.516 -0.069,-0.541 -0.273,-1.033 -0.471,-1.516 z m 4.091,0.764 c -0.805,0.704 -0.334,4.516 0.119,1.801 -0.184,-0.57 -0.1,-1.2 -0.119,-1.801 z m -2.64,-4.963 c -0.83,0.807 -0.682,3.365 -0.053,1.111 0.15,-0.343 0.252,-0.762 0.053,-1.111 z m -4.808,-2.924 c -0.796,0.817 -0.134,3.688 0.378,1.315 0.113,-0.429 0.225,-1.2 -0.378,-1.315 z m 5.229,-6.072 c -0.469,0.873 -0.187,4.07 0.391,1.638 0.21,-0.591 -0.364,-1.068 -0.391,-1.638 z m 4.188,8.154 c -0.781,0.49 -1.195,3.066 -0.24,1.213 0.186,-0.372 0.29,-0.796 0.24,-1.213 z m -6.325,-4.042 c -1.15,0.656 -0.567,3.809 -0.008,1.308 a 1.76,1.76 0 0 0 0.008,-1.308 z m 4.665,-0.32 c -0.97,0.625 -0.221,2.999 -0.002,0.913 0.076,-0.294 0.133,-0.623 0.002,-0.913 z m 4.289,-3.036 c -0.759,1.199 -1.886,4.307 -0.161,1.495 a 2.95,2.95 0 0 0 0.161,-1.495 z m -2.214,-2.949 c -1.372,1.337 -0.56,4.538 -0.131,1.139 0.031,-0.269 0.842,-1.979 0.131,-1.139 z m -2.373,-4.547 c 0.944,0.933 -0.981,5.596 0.782,2.628 0.222,-0.835 0.478,-2.461 -0.782,-2.628 z m 6.642,0.867 c -1.025,0.524 -1.437,4.267 -0.302,1.672 a 2.14,2.14 0 0 0 0.302,-1.672 z m -2.354,-2.776 c -0.479,0.733 -1.388,4.35 -0.277,1.942 0.268,-0.605 0.38,-1.285 0.277,-1.942 z m -2.503,-3.395 c -1.072,0.628 -0.165,3.939 -0.023,1.628 0.182,-0.512 0.433,-1.148 0.023,-1.628 z m 4.089,-4.758 c -0.795,0.815 -1.54,3.486 -1.008,3.654 0.764,-0.511 1.802,-3.926 1.008,-3.654 z m 1.388,4.387 c 0.106,0.765 -1.841,4.011 -0.242,2.252 0.06,-0.583 0.754,-1.958 0.242,-2.252 z m -2.77,47.354 c 0.76,0.223 1.427,0.664 2.082,1.094 0.531,-0.023 -0.219,-0.677 -0.414,-0.819 -0.381,-0.308 -1.153,-0.399 -1.668,-0.276 z"
       fill="#ffeba3"
       id="path478" />
  </g>
  <g
     stroke="#626262"
     class="D"
     id="g490"
     transform="translate(-77.382,-67.704)">
    <g
       stroke-width="0.267"
       class="M T"
       id="g486">
      <path
         d="m 123.086,139.197 c -1.89,0 -3.452,1.443 -3.639,3.285 h -0.488 a 0.371,0.371 0 1 0 0,0.742 h 0.488 c 0.187,1.842 1.749,3.285 3.639,3.285 1.89,0 3.451,-1.443 3.638,-3.285 h 0.488 a 0.371,0.371 0 1 0 0,-0.742 h -0.488 c -0.187,-1.842 -1.748,-3.285 -3.638,-3.285 z m 0,0.767 a 2.88,2.88 0 0 1 2.863,2.518 h -5.727 a 2.88,2.88 0 0 1 2.864,-2.518 z m -2.864,3.26 h 5.727 a 2.88,2.88 0 0 1 -2.863,2.518 2.88,2.88 0 0 1 -2.864,-2.518 z"
         class="C"
         id="path482" />
      <path
         d="m 123.086,139.197 c -1.89,0 -3.452,1.443 -3.639,3.285 h 0.775 a 2.88,2.88 0 0 1 2.864,-2.518 2.88,2.88 0 0 1 2.863,2.518 h 0.775 c -0.187,-1.842 -1.748,-3.285 -3.638,-3.285 z"
         class="C"
         id="path484" />
    </g>
    <path
       d="m 123.085,136.787 -2.44,0.018 c 0.135,1.25 0.993,1.456 1.545,2.105 0.297,2.818 -0.229,8.443 0.896,8.443 1.125,0 0.598,-5.625 0.896,-8.443 0.551,-0.649 1.409,-0.856 1.545,-2.105 z"
       class="G"
       id="path488" />
  </g>
  <g
     id="g1814">
    <path
       d="m 40.307,38.972 -7.3,16.276 c -2.36,4.042 -0.2,9.283 3.069,10.561 3.326,1.3 0.706,1.135 0.913,2.587 h 8.714 8.714 c 0.207,-1.452 -2.414,-1.288 0.912,-2.587 3.269,-1.277 5.429,-6.519 3.069,-10.561 l -7.3,-16.276 h -5.396 z"
       fill="#30d2ff"
       id="path492" />
    <path
       d="m 39.287,59.234 c 0.097,0.668 -0.901,0.696 -1.072,0.168 -0.763,-0.258 -1.582,0.708 -1.148,1.409 a 2.58,2.58 0 0 0 1.288,1.055 c 0.587,0.107 1.139,-0.198 1.676,-0.382 0.202,-0.112 0.795,-0.64 0.66,-0.076 0.105,0.473 -0.145,1.042 -0.705,0.859 -0.513,0.104 -0.569,0.727 -0.467,1.147 0.116,0.589 0.65,1.068 1.262,1.055 0.515,-0.037 1.091,0.15 1.561,-0.088 0.497,-0.334 0.723,-0.921 1.039,-1.406 0.141,-0.238 0.301,-1.053 0.576,-0.86 l 0.309,2.63 c -0.464,0.071 -1.077,0.19 -1.072,0.785 a 1.29,1.29 0 0 0 0.673,1.384 c 1.828,0.89 1.847,0.89 3.675,0 a 1.29,1.29 0 0 0 0.673,-1.384 c 0.004,-0.595 -0.608,-0.714 -1.072,-0.785 l 0.309,-2.63 c 0.275,-0.193 0.435,0.623 0.575,0.86 0.316,0.485 0.541,1.071 1.039,1.406 0.47,0.238 1.046,0.051 1.561,0.088 0.612,0.013 1.146,-0.465 1.262,-1.055 0.102,-0.42 0.046,-1.044 -0.467,-1.147 -0.56,0.183 -0.81,-0.386 -0.705,-0.859 -0.134,-0.564 0.459,-0.036 0.66,0.076 0.538,0.184 1.089,0.49 1.676,0.382 0.523,-0.185 0.995,-0.583 1.288,-1.055 0.434,-0.701 -0.385,-1.667 -1.148,-1.409 -0.171,0.527 -1.17,0.5 -1.072,-0.168 h -6.416 z"
       stroke-width="0.165"
       class="E F"
       id="path494" />
    <path
       d="m 45.484,63.423 c 0.022,0.453 -0.038,0.913 -0.166,1.347 -0.159,0.29 -0.426,0.509 -0.713,0.666 -0.21,0.138 -0.357,0.441 -0.224,0.678 0.265,0.163 0.555,0.319 0.877,0.291 l 0.989,0.013 c 0.197,-0.159 0.587,-0.291 0.541,-0.601 -0.133,-0.229 -0.481,-0.134 -0.708,-0.214 -0.263,0.044 -0.537,-0.137 -0.405,-0.428 0.057,-0.304 0.001,-0.621 0.021,-0.93 -0.065,-0.263 0.053,-0.624 -0.178,-0.808 l -0.034,-0.015 z m -2.111,-3.594 c -0.493,1.152 -0.864,2.547 -2.063,3.172 0.151,0.869 1.453,0.056 1.587,-0.532 0.284,-0.78 0.939,-1.571 1.857,-1.475 1.31,0.038 1.419,1.558 1.333,2.551 -0.058,0.359 0.149,1.787 0.207,0.689 0.195,-1.061 0.084,-2.204 0.419,-3.22 0.641,-0.511 1.602,0.069 2.029,0.614 0.376,0.538 1.04,2.056 1.762,1.47 -0.237,-0.556 -0.963,-1.008 -0.598,-1.771 0.005,-0.659 0.722,-1.174 1.341,-0.922 0.489,0.08 1.694,0.268 1.692,-0.133 -0.698,0.123 -1.422,0.048 -2.045,-0.303 -0.992,-0.42 -2.066,-0.004 -3.086,0.065 -1.49,0.27 -2.942,-0.414 -4.434,-0.204 z m -3.208,0.281 c -0.529,0.557 -1.59,0.424 -2.062,0.591 0.334,0.826 1.359,0.464 1.804,-0.055 0.167,-0.119 0.311,-0.319 0.258,-0.536 z"
       class="J"
       id="path496" />
    <g
       class="E F G M"
       id="g502"
       transform="translate(-77.382,-67.704)">
      <path
         d="m 123.086,108.677 c -5.158,0 -9.343,6.205 -9.328,13.943 0.831,-1.884 2.131,-3.085 2.847,-3.454 -0.072,0.583 0.165,1.062 0.463,1.521 1.501,-1.361 1.76,-3.708 6.017,-3.708 4.257,0 4.516,2.348 6.017,3.708 0.298,-0.459 0.535,-0.939 0.463,-1.521 0.716,0.369 2.016,1.57 2.847,3.454 0.016,-7.738 -4.17,-13.943 -9.327,-13.943 z"
         id="path498" />
      <path
         d="m 116.606,119.166 c 0.077,-3.733 2.287,-5.789 3.307,-6.681 m 9.653,6.681 c -0.077,-3.733 -2.287,-5.789 -3.307,-6.681"
         class="I"
         id="path500" />
    </g>
    <path
       d="m 44.082,41.931 c -1.709,0.661 -3.502,1.863 -3.982,3.734 0.527,-0.142 1.793,-1.36 2.769,-1.677 0.829,-0.568 2.918,-1.142 2.909,0.426 -0.4,1.209 -2.346,0.857 -2.34,2.427 -0.05,2.007 2.598,0.598 3.772,0.94 1.239,0.185 2.298,0.936 3.264,1.691 -0.549,-1.829 -2.691,-2.897 -2.703,-4.946 0.125,-1.633 1.99,-0.465 2.553,0.276 1.278,1.301 1.605,3.192 2.552,4.707 1.02,0.142 -0.385,-1.877 -0.682,-2.412 -0.951,-1.594 -1.623,-3.565 -3.445,-4.387 -1.397,-0.862 -3.074,-1.059 -4.668,-0.778 z"
       class="J"
       id="path504" />
    <g
       stroke-width="0.197"
       class="D H M Q T"
       id="g528"
       transform="translate(-77.382,-67.704)">
      <path
         d="m 115.639,126.074 v 0.864 h 3.723 3.723 3.723 3.723 v -0.864 h -3.723 -3.723 -3.723 z"
         class="C"
         id="path506" />
      <path
         d="m 116.392,125.211 v 0.864 h 3.347 3.347 3.347 3.347 v -0.864 h -3.347 -3.347 -3.347 z"
         class="C"
         id="path508" />
      <path
         d="m 117.145,124.347 v 0.864 h 2.97 2.97 2.97 2.97 v -0.864 h -2.97 -2.97 -2.97 z"
         class="C"
         id="path510" />
      <path
         d="m 117.898,123.484 v 0.864 h 2.593 2.594 2.593 2.593 v -0.864 h -2.593 -2.593 -2.594 z"
         class="C"
         id="path512" />
      <path
         d="m 118.652,122.62 v 0.864 h 2.216 2.217 2.216 2.217 v -0.864 h -2.217 -2.216 -2.217 z"
         class="C"
         id="path514" />
      <path
         d="m 119.405,121.756 v 0.864 h 1.84 1.84 1.84 1.84 v -0.864 h -1.84 -1.84 -1.84 z"
         class="C"
         id="path516" />
      <path
         d="m 120.158,120.893 v 0.864 h 1.463 1.463 c 0,0 0.652,0 1.463,0 h 1.463 v -0.864 h -1.463 -1.463 -1.463 z"
         class="C"
         id="path518" />
      <path
         d="m 120.912,120.029 v 0.864 h 1.087 1.087 1.087 1.086 v -0.864 h -1.086 -1.087 -1.087 z"
         class="C"
         id="path520" />
      <path
         d="m 121.665,119.166 v 0.864 h 0.71 0.71 0.71 0.71 v -0.864 h -0.71 -0.71 -0.71 z"
         class="C"
         id="path522" />
      <rect
         width="2.0510001"
         height="2.526"
         x="122.02"
         y="116.64"
         rx="93.741997"
         ry="0"
         class="C"
         id="rect524" />
      <path
         d="m 122.729,106.676 v 3.298 3.333 3.333 h 0.357 0.357 v -3.333 -3.333 -3.298 h -0.713 z"
         class="C"
         id="path526" />
    </g>
  </g>
  <g
     id="g1604">
    <path
       d="m 45.703,30.476 c -0.202,0 -0.38,0.126 -0.38,0.273 v 2.736 c -0.005,0.271 0.179,0.356 0.38,0.356 0.201,0 0.385,-0.084 0.38,-0.356 v -2.736 c 0,-0.147 -0.179,-0.273 -0.38,-0.273 z m 0.766,-1.896 c 1.311,4.669 1.197,6.677 0.14,6.922 -1.056,-0.585 0.505,-4.104 -0.14,-6.922 z m -1.617,-0.002 c -1.311,4.669 -1.197,6.677 -0.14,6.922 1.056,-0.585 -0.505,-4.104 0.14,-6.922 z m 0.766,8.768 v 0.007 c -1.034,0.026 -1.144,0.496 -1.982,1.165 -0.272,0.199 0.025,0.686 0.468,0.105 0.318,-0.262 0.45,-0.273 0.877,-0.15 0.223,0.065 0.219,0.229 0.722,0.208 v -0.002 c 0.414,-0.001 0.428,-0.148 0.638,-0.208 0.427,-0.123 0.559,-0.111 0.877,0.15 0.442,0.581 0.739,0.094 0.468,-0.105 -0.838,-0.669 -0.948,-1.138 -1.982,-1.164 v -0.003 c -0.009,0 -0.016,0.002 -0.025,0.002 L 45.62,37.347 Z m -5.362,0.213 c 0.309,0.608 1.119,1.047 2.175,1.403 0.201,-0.189 0.467,-0.354 0.433,-0.631 l 0.433,0.082 c 0.45,-0.29 0.768,-0.693 0.783,-1.356 -2.319,-1.481 -1.772,-4.752 -1.193,-6.548 -0.938,0.993 -2.409,6.139 -1.492,7.239 L 40.256,37.56 Z m 10.892,0 c -0.309,0.608 -1.119,1.047 -2.175,1.403 -0.201,-0.189 -0.467,-0.354 -0.433,-0.631 l -0.433,0.082 c -0.45,-0.29 -0.768,-0.693 -0.783,-1.356 2.319,-1.481 1.772,-4.752 1.193,-6.548 0.938,0.993 2.409,6.139 1.492,7.239 l 1.139,-0.188 z"
       fill="#ff0000"
       id="path530" />
    <path
       d="m 45.703,18.464 c -1.44,2.463 -1.176,3.79 0,3.812 1.176,-0.022 1.44,-1.349 0,-3.812 z m -1.809,3.496 c -0.7,1.333 -0.497,3.052 -0.351,4.748 0.061,1.339 -0.598,0.85 -0.702,0.374 -0.521,-2.337 -1.362,-1.86 -0.631,-3.625 -1.146,0.848 -0.858,3.08 -0.21,5.659 0.102,1.22 -0.842,1.437 -1.076,0.363 l -0.336,-2.784 c -1.205,1.071 -0.372,2.623 -0.182,5.686 0.067,1.082 -0.026,1.966 -0.417,2.605 -0.173,-1.56 0.005,-1.613 -0.561,-4.864 -0.844,1.657 -2.73,6.612 0.702,8.209 -0.334,-0.425 -0.484,-0.891 -0.421,-1.404 0.643,0.381 0.749,0.326 0.912,0.07 0.194,-4.518 1.642,-5.843 2.736,-8.068 -0.605,3.508 -1.151,8.023 2.347,8.023 3.498,0 2.952,-4.515 2.347,-8.023 1.094,2.225 2.543,3.55 2.736,8.068 0.163,0.256 0.27,0.311 0.912,-0.07 0.063,0.513 -0.087,0.979 -0.421,1.404 3.431,-1.597 1.546,-6.552 0.702,-8.209 -0.566,3.251 -0.389,3.305 -0.561,4.864 -0.391,-0.639 -0.483,-1.523 -0.417,-2.605 0.189,-3.063 1.023,-4.615 -0.182,-5.686 l -0.336,2.784 c -0.234,1.074 -1.178,0.858 -1.076,-0.363 0.647,-2.579 0.936,-4.811 -0.21,-5.659 0.73,1.764 -0.111,1.287 -0.631,3.625 -0.104,0.476 -0.763,0.965 -0.702,-0.374 0.146,-1.695 0.349,-3.415 -0.351,-4.748 0.258,1.963 -0.379,1.671 -0.655,4.818 0.008,2.466 3.01,9.502 -1.154,9.502 -4.164,0 -1.178,-7.168 -1.154,-9.502 -0.276,-3.147 -0.913,-2.854 -0.655,-4.818 z m 1.809,1.406 c -0.202,0 -0.38,0.126 -0.38,0.273 v 5.481 c -0.005,0.271 0.179,0.356 0.38,0.356 0.201,0 0.385,-0.084 0.38,-0.356 v -5.481 c 0,-0.147 -0.179,-0.273 -0.38,-0.273 z"
       fill="#ffd700"
       id="path532" />
  </g>
</svg>
