<?xml version="1.0" encoding="UTF-8" standalone="no"?>
<!-- Created with Inkscape (http://www.inkscape.org/) -->
<svg
   xmlns:svg="http://www.w3.org/2000/svg"
   xmlns="http://www.w3.org/2000/svg"
   xmlns:xlink="http://www.w3.org/1999/xlink"
   version="1.0"
   width="100.00494"
   height="129.41818"
   id="svg2">
  <defs
     id="defs5">
    <linearGradient
       id="linearGradient3343">
      <stop
         id="stop3345"
         style="stop-color:#ffcc00;stop-opacity:1"
         offset="0" />
      <stop
         id="stop3347"
         style="stop-color:#aa8800;stop-opacity:1"
         offset="1" />
    </linearGradient>
    <linearGradient
       x1="70.008797"
       y1="108.68409"
       x2="72.222176"
       y2="103.51337"
       id="linearGradient3462"
       xlink:href="#linearGradient3343"
       gradientUnits="userSpaceOnUse"
       gradientTransform="matrix(-0.876213,0,0,0.876213,100.75737,-1.1491238)" />
    <linearGradient
       x1="64.054535"
       y1="111.29769"
       x2="67.949982"
       y2="107.67377"
       id="linearGradient3465"
       xlink:href="#linearGradient3343"
       gradientUnits="userSpaceOnUse"
       gradientTransform="matrix(-0.8762112,-1.7878778e-3,-1.7878778e-3,0.8762112,100.92702,-1.0426025)" />
    <linearGradient
       x1="70.008797"
       y1="108.68409"
       x2="72.222176"
       y2="103.51337"
       id="linearGradient3468"
       xlink:href="#linearGradient3343"
       gradientUnits="userSpaceOnUse"
       gradientTransform="matrix(0.876213,0,0,0.876213,-0.870123,-1.1491238)" />
    <linearGradient
       x1="64.054535"
       y1="111.29769"
       x2="67.949982"
       y2="107.67377"
       id="linearGradient3471"
       xlink:href="#linearGradient3343"
       gradientUnits="userSpaceOnUse"
       gradientTransform="matrix(0.8762112,-1.7878778e-3,1.7878778e-3,0.8762112,-1.039772,-1.0426025)" />
    <linearGradient
       x1="95.389977"
       y1="113.67488"
       x2="88.023415"
       y2="116.06136"
       id="linearGradient3474"
       xlink:href="#linearGradient3343"
       gradientUnits="userSpaceOnUse"
       gradientTransform="matrix(0.876213,0,0,0.876213,-0.870123,-1.1491238)" />
    <linearGradient
       x1="20.594484"
       y1="114.2936"
       x2="27.016504"
       y2="115.61942"
       id="linearGradient3477"
       xlink:href="#linearGradient3343"
       gradientUnits="userSpaceOnUse"
       gradientTransform="matrix(0.876213,0,0,0.876213,-0.870123,-1.1491238)" />
    <linearGradient
       x1="65.107452"
       y1="96.387665"
       x2="59.414268"
       y2="95.680557"
       id="linearGradient3480"
       xlink:href="#linearGradient3343"
       gradientUnits="userSpaceOnUse"
       gradientTransform="matrix(0.876213,0,0,0.876213,-0.870123,-1.1491238)" />
    <linearGradient
       x1="63.452679"
       y1="102.44337"
       x2="66.733292"
       y2="93.983681"
       id="linearGradient3483"
       xlink:href="#linearGradient3343"
       gradientUnits="userSpaceOnUse"
       gradientTransform="matrix(0.876213,0,0,0.876213,-0.870123,-1.1491238)" />
    <linearGradient
       x1="39.341663"
       y1="94.415062"
       x2="50.039928"
       y2="97.16613"
       id="linearGradient3486"
       xlink:href="#linearGradient3343"
       gradientUnits="userSpaceOnUse"
       gradientTransform="matrix(0.876213,0,0,0.876213,-0.870123,-1.1491238)" />
    <radialGradient
       cx="58.429501"
       cy="95.522797"
       r="9.0998182"
       fx="58.429501"
       fy="95.522797"
       id="radialGradient3489"
       xlink:href="#linearGradient3343"
       gradientUnits="userSpaceOnUse"
       gradientTransform="matrix(1.0549405,6.3723388e-7,-2.4026135e-7,0.3977525,-11.31306,44.554717)" />
  </defs>
  <path
     d="M 17.701354,0.99999994 L 83.255033,0.99999994 L 99.004937,17.601256 L 99.004937,85.627454 C 99.004937,123.45964 64.184671,114.23598 50.002469,128.41819 C 36.221714,114.63743 0.99999994,122.54635 0.99999994,85.627454 L 0.99999994,17.601256 L 17.701354,0.99999994 z"
     id="path2384"
     style="fill:#9edbf0;fill-rule:evenodd;stroke:#000000;stroke-width:1.99999988;stroke-linecap:butt;stroke-linejoin:miter;stroke-opacity:1" />
  <path
     d="M 25.296531,97.257294 C 6.4279184,71.660793 0.57057644,44.542097 21.035202,16.773415"
     id="path2406"
     style="fill:none;fill-rule:evenodd;stroke:#000000;stroke-width:1px;stroke-linecap:round;stroke-linejoin:miter;stroke-opacity:1" />
  <path
     d="M 24.733503,96.144654 C 21.499071,91.977014 19.075464,87.430973 21.461929,80.64024 C 25.943466,85.808379 25.457269,90.976514 24.733503,96.144654 z"
     id="path2408"
     style="fill:#ffcc00;fill-rule:evenodd;stroke:#000000;stroke-width:0.5;stroke-linecap:butt;stroke-linejoin:miter;stroke-opacity:1" />
  <path
     d="M 18.261475,85.903207 C 16.093861,79.88641 16.941829,78.25634 18.048112,73.314757 C 20.609377,77.985049 20.12318,81.588519 18.261475,85.903207 z"
     id="path2410"
     style="fill:#ffcc00;fill-rule:evenodd;stroke:#000000;stroke-width:0.5;stroke-linecap:butt;stroke-linejoin:miter;stroke-opacity:1" />
  <path
     d="M 14.818895,78.89777 C 12.651282,72.880973 13.641492,70.895297 15.174502,66.380442 C 17.735767,71.050733 16.253873,73.871871 14.818895,78.89777 z"
     id="path2412"
     style="fill:#ffcc00;fill-rule:evenodd;stroke:#000000;stroke-width:0.5;stroke-linecap:butt;stroke-linejoin:miter;stroke-opacity:1" />
  <path
     d="M 11.447,71.282019 C 10.437466,65.043908 11.845475,62.665398 14.35045,59.690396 C 15.23627,64.527052 13.074614,66.315159 11.447,71.282019 z"
     id="path2414"
     style="fill:#ffcc00;fill-rule:evenodd;stroke:#000000;stroke-width:0.5;stroke-linecap:butt;stroke-linejoin:miter;stroke-opacity:1" />
  <path
     d="M 9.6981704,63.037746 C 9.8064354,56.167495 12.290189,55.675364 14.321048,52.085084 C 15.033162,57.608829 12.413329,59.007544 9.6981704,63.037746 z"
     id="path2416"
     style="fill:#ffcc00;fill-rule:evenodd;stroke:#000000;stroke-width:0.5;stroke-linecap:butt;stroke-linejoin:miter;stroke-opacity:1" />
  <path
     d="M 8.5163524,55.672067 C 8.7770614,48.895145 11.616907,48.813615 14.820377,44.891768 C 15.017147,50.214642 12.051449,51.822144 8.5163524,55.672067 z"
     id="path2418"
     style="fill:#ffcc00;fill-rule:evenodd;stroke:#000000;stroke-width:0.5;stroke-linecap:butt;stroke-linejoin:miter;stroke-opacity:1" />
  <path
     d="M 8.8006904,47.527545 C 10.13791,40.831919 12.280143,38.493558 15.106574,36.675344 C 14.524325,41.715806 12.384533,43.722956 8.8006904,47.527545 z"
     id="path2420"
     style="fill:#ffcc00;fill-rule:evenodd;stroke:#000000;stroke-width:0.5;stroke-linecap:butt;stroke-linejoin:miter;stroke-opacity:1" />
  <path
     d="M 10.907231,36.29618 C 13.931464,29.994899 16.344098,30.427344 18.517198,29.468547 C 17.522404,33.214263 14.546965,35.253068 10.907231,36.29618 z"
     id="path2422"
     style="fill:#ffcc00;fill-rule:evenodd;stroke:#000000;stroke-width:0.5;stroke-linecap:butt;stroke-linejoin:miter;stroke-opacity:1" />
  <path
     d="M 13.823199,29.04182 C 17.629766,22.953902 19.046702,24.737649 21.575408,23.06764 C 20.011645,26.955599 18.671994,27.287495 13.823199,29.04182 z"
     id="path2424"
     style="fill:#ffcc00;fill-rule:evenodd;stroke:#000000;stroke-width:0.5;stroke-linecap:butt;stroke-linejoin:miter;stroke-opacity:1" />
  <path
     d="M 17.94143,21.751899 C 21.036785,17.299767 23.449418,16.736516 26.33373,16.346689 C 24.769967,19.310072 22.790225,19.997574 17.94143,21.751899 z"
     id="path2426"
     style="fill:#ffcc00;fill-rule:evenodd;stroke:#000000;stroke-width:0.5;stroke-linecap:butt;stroke-linejoin:miter;stroke-opacity:1" />
  <path
     d="M 21.106323,16.702294 C 23.772709,11.535215 27.053512,9.2540186 30.601001,8.8789636 C 30.104055,11.842347 25.955117,14.947969 21.106323,16.702294 z"
     id="path3198"
     style="fill:#ffcc00;fill-rule:evenodd;stroke:#000000;stroke-width:0.5;stroke-linecap:butt;stroke-linejoin:miter;stroke-opacity:1" />
  <path
     d="M 17.033769,22.184255 C 16.993026,16.761984 18.638542,12.207263 21.409455,10.366878 C 21.842118,13.689497 20.052887,17.455831 17.033769,22.184255 z"
     id="path3200"
     style="fill:#ffcc00;fill-rule:evenodd;stroke:#000000;stroke-width:0.5;stroke-linecap:butt;stroke-linejoin:miter;stroke-opacity:1" />
  <path
     d="M 13.548831,29.011888 C 12.583512,23.660738 12.806605,20.243956 15.150791,17.265633 C 15.583454,20.588252 15.998979,24.070101 13.548831,29.011888 z"
     id="path3202"
     style="fill:#ffcc00;fill-rule:evenodd;stroke:#000000;stroke-width:0.5;stroke-linecap:butt;stroke-linejoin:miter;stroke-opacity:1" />
  <path
     d="M 10.917347,35.626158 C 9.3830584,30.843978 8.8238184,27.853923 10.670156,22.670843 C 12.098516,26.064583 12.585162,30.328765 10.917347,35.626158 z"
     id="path3204"
     style="fill:#ffcc00;fill-rule:evenodd;stroke:#000000;stroke-width:0.5;stroke-linecap:butt;stroke-linejoin:miter;stroke-opacity:1" />
  <path
     d="M 8.9259534,43.378367 C 7.3916654,38.596187 5.6944864,36.459586 7.5408234,31.276506 C 8.9691834,34.670246 10.593768,38.080973 8.9259534,43.378367 z"
     id="path3206"
     style="fill:#ffcc00;fill-rule:evenodd;stroke:#000000;stroke-width:0.5;stroke-linecap:butt;stroke-linejoin:miter;stroke-opacity:1" />
  <path
     d="M 8.2519564,54.4574 C 5.5098734,50.854186 4.5495254,47.623819 5.4401604,41.662463 C 7.4495524,44.490756 8.1848644,48.981846 8.2519564,54.4574 z"
     id="path3208"
     style="fill:#ffcc00;fill-rule:evenodd;stroke:#000000;stroke-width:0.5;stroke-linecap:butt;stroke-linejoin:miter;stroke-opacity:1" />
  <path
     d="M 9.7455004,65.267819 C 6.7900554,62.304697 4.5324564,60.491064 4.8000704,54.748761 C 7.2475684,56.919895 8.6827134,60.00563 9.7455004,65.267819 z"
     id="path3210"
     style="fill:#ffcc00;fill-rule:evenodd;stroke:#000000;stroke-width:0.5;stroke-linecap:butt;stroke-linejoin:miter;stroke-opacity:1" />
  <path
     d="M 12.092499,73.233393 C 8.8525694,71.052604 5.4570324,69.381212 4.7289484,63.63891 C 7.3898114,65.312195 10.389621,68.32681 12.092499,73.233393 z"
     id="path3212"
     style="fill:#ffcc00;fill-rule:evenodd;stroke:#000000;stroke-width:0.5;stroke-linecap:butt;stroke-linejoin:miter;stroke-opacity:1" />
  <path
     d="M 15.648559,82.123541 C 12.47975,81.00957 7.3061824,78.84033 6.5780994,73.098028 C 9.6656894,73.775616 13.30559,77.643685 15.648559,82.123541 z"
     id="path3214"
     style="fill:#ffcc00;fill-rule:evenodd;stroke:#000000;stroke-width:0.5;stroke-linecap:butt;stroke-linejoin:miter;stroke-opacity:1" />
  <path
     d="M 22.831798,94.569754 C 19.66299,93.455774 11.075605,90.006354 10.632006,83.197236 C 13.719596,83.874825 20.488829,90.089894 22.831798,94.569754 z"
     id="path3216"
     style="fill:#ffcc00;fill-rule:evenodd;stroke:#000000;stroke-width:0.5;stroke-linecap:butt;stroke-linejoin:miter;stroke-opacity:1" />
  <path
     d="M 19.372743,42.923963 L 80.514028,42.923963 C 80.514028,37.045151 70.80215,32.25095 62.800883,25.994774 C 56.324381,20.930809 55.09705,14.886162 49.950231,12.577265 C 45.005784,14.908623 43.167049,20.535905 37.196709,25.994774 C 30.506082,32.112223 19.372743,36.342729 19.372743,42.923963 z"
     id="path3218"
     style="fill:#225544;fill-rule:evenodd;stroke:none;" />
  <path
     d="M 27.026651,41.497806 L 72.873811,41.784476 L 80.515004,51.64271 L 19.385457,51.64271 L 27.026651,41.497806 z"
     id="path3225"
     style="fill:#225544;fill-rule:evenodd;stroke:none;" />
  <path
     d="M 49.553197,18.894249 C 44.990676,18.909703 42.406584,22.764885 42.406584,26.862311 L 37.724321,26.862311 L 37.724321,30.175491 L 32.987295,30.14811 L 33.042058,33.406527 L 28.332413,33.406527 L 28.332413,36.774471 L 23.595386,36.692326 L 23.65015,40.060269 L 18.940505,40.032888 L 18.940505,43.37345 L 49.93654,43.37345 L 49.963921,43.37345 L 80.959956,43.37345 L 80.959956,40.032888 L 76.250311,40.060269 L 76.305075,36.692326 L 71.568048,36.774471 L 71.568048,33.406527 L 66.858403,33.406527 L 66.913167,30.14811 L 62.17614,30.175491 L 62.17614,26.862311 L 57.493877,26.862311 C 57.493876,22.764885 54.90294,18.909703 50.340419,18.894249 L 50.231535,16.322831 C 50.999465,16.322831 50.997129,15.079486 50.179886,15.079486 L 49.951928,9.6206806 L 49.946808,9.5153526 L 49.941688,9.6206816 L 49.713733,15.079494 C 48.884055,15.079494 48.845068,16.322839 49.662084,16.322839 L 49.553197,18.894249 z"
     id="path3220"
     style="fill:#ffcc00;fill-rule:evenodd;stroke:none;" />
  <path
     d="M 71,77 A 12.3125,12.3125 0 1 1 46.375,77 A 12.3125,12.3125 0 1 1 71,77 z"
     transform="matrix(0.876213,0,0,0.876213,-1.5820461,-1.5872303)"
     id="path3235"
     style="fill:#ffcc00;fill-rule:nonzero;stroke:#000000;stroke-width:1.14127505;stroke-linecap:round;stroke-linejoin:bevel;stroke-miterlimit:4;stroke-dasharray:none;stroke-dashoffset:0;stroke-opacity:1" />
  <path
     d="M 62.3125,77 A 3.625,3.625 0 1 1 55.0625,77 A 3.625,3.625 0 1 1 62.3125,77 z"
     transform="matrix(0.876213,0,0,0.876213,-1.5820461,-1.5872303)"
     id="path3231"
     style="fill:none;fill-rule:nonzero;stroke:#000000;stroke-width:1.14127505;stroke-linecap:round;stroke-linejoin:bevel;stroke-miterlimit:4;stroke-dasharray:none;stroke-dashoffset:0;stroke-opacity:1" />
  <path
     d="M 64.875,77 A 6.1875,6.1875 0 1 1 52.5,77 A 6.1875,6.1875 0 1 1 64.875,77 z"
     transform="matrix(0.876213,0,0,0.876213,-1.5820461,-1.5872303)"
     id="path3233"
     style="fill:none;fill-rule:nonzero;stroke:#000000;stroke-width:1.14127505;stroke-linecap:round;stroke-linejoin:bevel;stroke-miterlimit:4;stroke-dasharray:none;stroke-dashoffset:0;stroke-opacity:1" />
  <path
     d="M 51.42884,80.064869 C 50.474792,80.862526 47.772718,80.282193 49.019254,77.10765 L 49.019254,74.150431 L 46.554905,74.150431 C 47.426209,73.218072 48.066146,72.510275 48.800201,71.028922 C 48.800201,71.028922 48.509202,68.227237 48.691534,67.045861 C 48.812926,66.259331 49.48718,65.331748 49.56003,64.539246 C 49.643067,63.635932 49.099934,62.456642 49.107559,61.549552 C 49.116791,60.451389 49.644944,59.035709 49.716113,57.939815 C 49.793875,56.742388 49.566887,53.942769 49.566887,53.942769 C 49.566887,53.942769 50.284157,56.699633 50.41672,57.909379 C 50.534064,58.980229 50.267923,60.437162 50.442692,61.50015 C 50.591259,62.403771 51.328568,63.485932 51.399077,64.398967 C 51.458041,65.162495 50.967594,66.15148 50.980969,66.917165 C 51.00295,68.175453 51.812183,71.028922 51.812183,71.028922 C 52.399917,72.231919 53.268964,73.239497 54.440822,74.150431 L 50.881207,74.150431 L 50.881207,77.60052 C 52.161417,77.910846 52.356499,79.289275 51.42884,80.064869 z"
     id="path3229"
     style="fill:#000000;fill-rule:evenodd;stroke:none;" />
  <path
     d="M 74.922301,96.767684 C 87.017142,81.064755 103.32461,43.599754 74.703248,13.527444"
     id="path3237"
     style="fill:none;stroke:#225544;stroke-width:1px;stroke-linecap:round;stroke-linejoin:miter;stroke-opacity:1" />
  <path
     d="M 78.2081,92.222324 C 76.025806,79.740408 81.395498,75.196497 83.136798,65.552591 C 87.496387,77.785538 80.187214,84.286478 78.2081,92.222324 z"
     id="path3239"
     style="fill:#225544;fill-rule:evenodd;stroke:none;" />
  <path
     d="M 75.668469,96.006614 C 87.349192,81.511073 86.678018,77.896526 93.375929,70.576031 C 94.405289,86.913674 82.83653,89.619704 75.668469,96.006614 z"
     id="path3180"
     style="fill:#225544;fill-rule:evenodd;stroke:none;" />
  <path
     d="M 86.665946,73.856762 C 92.305799,64.859964 88.769086,62.097335 95.157209,51.833852 C 95.799329,63.214886 93.834009,67.469862 86.665946,73.856762 z"
     id="path3182"
     style="fill:#225544;fill-rule:evenodd;stroke:none;" />
  <path
     d="M 87.937499,70.817495 C 86.297337,58.025791 82.915517,57.664018 84.734262,45.386914 C 90.797686,53.360275 88.445124,59.938662 87.937499,70.817495 z"
     id="path3184"
     style="fill:#225544;fill-rule:evenodd;stroke:none;" />
  <path
     d="M 90.648151,55.792774 C 92.570559,44.704904 91.279787,41.709933 93.098539,36.867743 C 95.676849,44.763656 94.331089,52.039066 90.648151,55.792774 z"
     id="path3186"
     style="fill:#225544;fill-rule:evenodd;stroke:none;" />
  <path
     d="M 89.56389,41.774863 C 89.550116,33.010403 88.259349,31.951608 89.226189,26.877077 C 91.881947,29.041911 93.091939,36.782002 89.56389,41.774863 z"
     id="path3188"
     style="fill:#225544;fill-rule:evenodd;stroke:none;" />
  <path
     d="M 86.369843,30.932281 C 86.433886,24.737437 85.565037,24.418924 85.499087,21.145998 C 88.083485,22.905687 88.641378,27.570847 86.369843,30.932281 z"
     id="path3190"
     style="fill:#225544;fill-rule:evenodd;stroke:none;" />
  <path
     d="M 83.349409,25.123755 C 82.638982,19.393593 80.066299,16.674221 80.000349,13.401296 C 82.584746,15.160985 85.620944,21.762321 83.349409,25.123755 z"
     id="path3192"
     style="fill:#225544;fill-rule:evenodd;stroke:none;" />
  <path
     d="M 78.237906,18.153523 C 77.527479,12.423362 73.250961,11.795059 73.185011,8.5221336 C 75.769408,10.281823 80.509441,14.79209 78.237906,18.153523 z"
     id="path3194"
     style="fill:#225544;fill-rule:evenodd;stroke:none;" />
  <path
     d="M 75.159387,13.952022 C 72.512784,13.875494 66.454984,9.9169686 66.389034,6.6440426 C 68.973432,8.9002786 74.720276,10.590589 75.159387,13.952022 z"
     id="path3196"
     style="fill:#225544;fill-rule:evenodd;stroke:none;" />
  <path
     d="M 80.890466,21.619277 C 78.243863,21.542748 73.58011,18.2038 73.51416,14.930875 C 76.408346,17.032216 78.902415,19.264655 80.890466,21.619277 z"
     id="path3199"
     style="fill:#225544;fill-rule:evenodd;stroke:none;" />
  <path
     d="M 87.008783,32.694201 C 83.277919,31.301073 81.789493,27.884678 79.709921,23.140259 C 83.84326,26.325858 85.02073,30.339579 87.008783,32.694201 z"
     id="path3201"
     style="fill:#225544;fill-rule:evenodd;stroke:none;" />
  <path
     d="M 90.184109,45.085724 C 84.517074,41.678974 84.190351,36.713639 82.962695,31.427091 C 88.102849,34.302901 88.196061,42.731102 90.184109,45.085724 z"
     id="path3203"
     style="fill:#225544;fill-rule:evenodd;stroke:none;" />
  <path
     d="M 43.249901,82.377272 L 42.407949,83.420527 C 45.854929,84.860081 49.409818,83.342523 51.646201,82.757863 C 53.773988,82.242562 55.702197,82.033017 57.588021,83.168588 L 58.24518,82.04594 C 56.047574,80.738128 53.735501,80.974021 51.345003,81.470925 C 49.11554,82.01085 45.715245,83.315607 43.249901,82.377272 z"
     id="path3301"
     style="fill:url(#radialGradient3489);fill-rule:evenodd;stroke:#000000;stroke-width:0.25;stroke-linecap:butt;stroke-linejoin:miter;stroke-opacity:1" />
  <path
     d="M 41.323691,82.917121 L 42.92075,82.280464 C 38.458902,80.734241 34.023358,82.011351 30.945669,85.550792 L 31.986172,86.34486 C 34.190638,83.534111 37.873457,82.349272 41.323691,82.917121 z"
     id="path3255"
     style="fill:url(#linearGradient3486);fill-rule:evenodd;stroke:#000000;stroke-width:0.25;stroke-linecap:butt;stroke-linejoin:miter;stroke-opacity:1" />
  <path
     d="M 39.408293,84.445934 C 37.860575,86.193199 37.217974,87.853518 37.38205,89.374632 C 37.546127,90.895744 38.508761,92.143724 39.846399,93.098534 C 42.509467,94.999464 46.737407,95.937834 50.662154,95.946234 C 50.680147,95.946264 50.698937,95.946234 50.716917,95.946234 C 55.045383,96.197934 59.295185,94.496164 61.395763,91.784214 C 62.45051,90.422484 62.943697,88.761642 62.491029,87.047191 C 62.038361,85.332739 60.705025,83.641403 58.329017,82.091112 L 57.589713,83.186378 C 59.790365,84.622254 60.861896,86.07973 61.204091,87.375771 C 61.546287,88.671813 61.219969,89.873764 60.35526,90.990154 C 58.625842,93.222904 54.688082,94.876194 50.744299,94.631914 L 50.716917,94.631914 C 46.991951,94.631914 42.899869,93.662984 40.613086,92.030654 C 39.469694,91.214484 38.782622,90.291194 38.668988,89.237724 C 38.555355,88.184253 38.99773,86.87109 40.394033,85.294765 C 42.180343,83.085216 44.322595,82.027664 47.050415,82.523578 C 48.146813,82.359216 48.831865,82.13609 49.58313,81.922423 C 45.467338,80.525144 42.16856,81.302847 39.408293,84.445934 z"
     id="path3259"
     style="fill:url(#linearGradient3483);fill-rule:evenodd;stroke:#000000;stroke-width:0.25;stroke-linecap:butt;stroke-linejoin:miter;stroke-opacity:1" />
  <path
     d="M 59.942808,81.95032 C 57.571042,82.10772 55.199257,82.541663 52.936359,82.493679 C 51.225328,82.771485 50.501908,83.049291 49.572194,83.327097 C 52.988972,84.304051 56.577185,83.592277 60.024953,83.264639 C 63.166361,83.056162 65.899214,83.371862 68.321595,86.413532 L 69.334716,85.59208 C 66.627273,82.192474 63.244344,81.731216 59.942808,81.95032 z"
     id="path3449"
     style="fill:url(#linearGradient3480);fill-rule:evenodd;stroke:#000000;stroke-width:0.25;stroke-linecap:butt;stroke-linejoin:miter;stroke-opacity:1" />
  <path
     d="M 23.912923,98.452104 C 21.411081,100.11114 16.581272,94.786284 12.915446,92.953364 L 15.703538,97.909974 L 10.437142,98.064864 C 14.116699,99.84263 23.877432,107.70207 22.247812,101.78231 L 23.912923,98.452104 z"
     id="path3323"
     style="fill:url(#linearGradient3477);fill-rule:evenodd;stroke:#000000;stroke-width:0.5;stroke-linecap:butt;stroke-linejoin:miter;stroke-opacity:1" />
  <path
     d="M 75.276904,98.452104 C 77.778745,100.11114 82.608555,94.786284 86.27438,92.953364 L 83.486288,97.909974 L 88.752684,98.064864 C 85.073127,99.84263 75.312395,107.70207 76.942014,101.78231 L 75.276904,98.452104 z"
     id="path3335"
     style="fill:url(#linearGradient3474);fill-rule:evenodd;stroke:#000000;stroke-width:0.5;stroke-linecap:butt;stroke-linejoin:miter;stroke-opacity:1" />
  <path
     d="M 59.291612,93.578344 C 58.920277,93.973114 58.235987,94.206004 57.900656,94.489434 C 57.968853,96.348774 53.044443,96.162174 52.987796,94.617764 C 52.931151,93.073374 55.905379,92.523304 57.053251,93.460274 C 57.533986,93.262604 58.160761,93.044684 58.483373,92.660274 C 56.572514,91.269604 51.411599,92.172834 51.50327,94.672224 C 51.583493,96.859414 53.217585,97.465464 54.849366,98.014264 L 55.496654,115.66239 C 55.52987,116.56808 57.299741,117.36079 57.239149,115.70874 C 57.202894,114.72033 57.843666,114.84005 58.966134,114.79889 C 58.883249,112.53918 58.349315,113.11444 57.708749,112.93691 C 57.594379,111.78453 59.221992,114.09266 58.676322,109.7079 C 58.654807,109.53501 57.248615,109.83834 57.021032,109.76179 L 56.59085,98.033114 C 58.565259,97.203524 60.148549,95.120554 59.291612,93.578344 z"
     id="path3362"
     style="fill:url(#linearGradient3471);fill-rule:evenodd;stroke:#000000;stroke-width:0.25;stroke-linecap:butt;stroke-linejoin:miter;stroke-opacity:1" />
  <path
     d="M 62.604362,89.047551 C 62.511529,89.579154 62.380042,90.076914 62.182636,90.469114 C 62.97414,92.152934 58.472275,94.246994 57.814833,92.848374 C 57.157391,91.449744 59.360197,90.314334 60.943704,90.067984 C 61.183935,89.603644 61.356084,89.125674 61.339504,88.609952 C 58.751668,88.643879 55.406459,91.216854 56.470429,93.480324 C 57.401505,95.461074 59.142386,95.378134 60.85871,95.243464 L 68.371382,111.22578 C 68.756931,112.04599 70.695891,112.08157 69.992625,110.58546 C 69.571864,109.69035 70.208291,109.54934 71.224809,109.07151 C 70.262861,107.02509 70.417036,107.56365 69.758141,107.6514 C 69.139601,106.57874 70.710092,107.55538 68.956533,104.76889 C 68.670926,104.31505 67.965889,105.16023 67.461052,105.19983 L 62.468237,94.578224 C 63.959506,93.041134 63.997203,90.130484 62.604362,89.047551 z"
     id="path3356"
     style="fill:url(#linearGradient3468);fill-rule:evenodd;stroke:#000000;stroke-width:0.25;stroke-linecap:butt;stroke-linejoin:miter;stroke-opacity:1" />
  <path
     d="M 40.595639,93.578344 C 40.966973,93.973114 41.651263,94.206004 41.986594,94.489434 C 41.918398,96.348774 46.842808,96.162174 46.899454,94.617764 C 46.956099,93.073374 44.262616,92.397454 43.114744,93.334424 C 42.63401,93.136754 42.206523,93.009974 41.574123,92.625564 C 43.33977,91.341384 48.475652,92.172834 48.383981,94.672224 C 48.303758,96.859414 46.669665,97.465464 45.037884,98.014264 L 44.390597,115.66239 C 44.357381,116.56808 42.587509,117.36079 42.648102,115.70874 C 42.684357,114.72033 42.043584,114.84005 40.921117,114.79889 C 41.081448,112.55854 41.189425,113.07571 42.294673,112.99499 C 42.354367,111.69665 40.976721,112.87239 41.288557,109.66473 C 41.318227,109.35954 42.501834,109.88436 42.866218,109.76179 L 43.296401,98.033114 C 41.321991,97.203524 39.738701,95.120554 40.595639,93.578344 z"
     id="path3380"
     style="fill:url(#linearGradient3465);fill-rule:evenodd;stroke:#000000;stroke-width:0.25;stroke-linecap:butt;stroke-linejoin:miter;stroke-opacity:1" />
  <path
     d="M 37.345815,89.047551 C 37.399923,89.579154 37.492687,90.076914 37.651369,90.469114 C 36.859866,92.152934 41.414976,94.246994 42.072418,92.848374 C 42.72986,91.449744 40.468969,90.314334 38.885461,90.067984 C 38.645231,89.603644 38.652177,89.125674 38.668758,88.609952 C 41.256594,88.643879 44.480792,91.216854 43.416821,93.480324 C 42.485746,95.461074 40.744865,95.378134 39.02854,95.243464 L 31.515868,111.22578 C 31.13032,112.04599 29.191359,112.08157 29.894625,110.58546 C 30.315386,109.69035 29.67896,109.54934 28.662441,109.07151 C 29.624389,107.02509 29.470214,107.56365 30.12911,107.6514 C 30.563194,107.09837 29.707313,106.70103 29.817959,106.51491 C 30.963886,104.58726 30.314232,103.93657 32.426198,105.19983 L 37.419013,94.578224 C 35.927744,93.041134 35.952974,90.130484 37.345815,89.047551 z"
     id="path3382"
     style="fill:url(#linearGradient3462);fill-rule:evenodd;stroke:#000000;stroke-width:0.25;stroke-linecap:butt;stroke-linejoin:miter;stroke-opacity:1" />
  <path
     d="M 76.925407,101.78232 C 76.122372,98.785364 65.336774,107.65226 50.062997,107.65226 C 35.176454,107.65226 23.65021,99.208784 22.209089,101.70487 L 24.230753,97.884274 C 27.545044,91.620824 36.311498,101.23683 50.062997,101.23683 C 64.123411,101.23683 72.007985,92.708204 74.989887,97.873004 C 75.565554,98.870094 76.352943,100.27148 76.925407,101.78232 z"
     id="path3321"
     style="fill:#ffcc00;fill-rule:evenodd;stroke:#000000;stroke-width:0.5;stroke-linecap:round;stroke-linejoin:round;stroke-opacity:1" />
  <path
     d="M 26.695636,99.409774 L 27.104457,99.526264 C 27.062654,99.691954 27.056582,99.838664 27.086241,99.96641 C 27.115898,100.09416 27.190818,100.2169 27.311,100.33462 C 27.431181,100.45235 27.581347,100.54561 27.7615,100.6144 C 27.921473,100.67549 28.071793,100.70565 28.212459,100.70487 C 28.353122,100.70408 28.469182,100.67368 28.560639,100.61365 C 28.652092,100.55362 28.716532,100.4746 28.753958,100.3766 C 28.79193,100.27715 28.796264,100.17932 28.76696,100.08308 C 28.737653,99.98685 28.666335,99.88819 28.553007,99.787114 C 28.480631,99.721494 28.312229,99.598154 28.047797,99.417084 C 27.783362,99.236014 27.604609,99.092214 27.511536,98.985654 C 27.390477,98.848604 27.315263,98.707174 27.285895,98.561374 C 27.256525,98.415574 27.269633,98.269894 27.325219,98.124324 C 27.386306,97.964354 27.488803,97.832164 27.63271,97.727754 C 27.776613,97.623354 27.949518,97.568414 28.151423,97.562944 C 28.353326,97.557484 28.560928,97.595474 28.77423,97.676914 C 29.009145,97.766634 29.201873,97.883574 29.352413,98.027754 C 29.502949,98.171934 29.59843,98.335974 29.63886,98.519844 C 29.679282,98.703714 29.6676,98.889994 29.603816,99.078654 L 29.190159,98.955384 C 29.245036,98.746804 29.229681,98.567534 29.144094,98.417604 C 29.0585,98.267674 28.893923,98.146204 28.65036,98.053194 C 28.396704,97.956334 28.19412,97.932234 28.042606,97.980884 C 27.89109,98.029544 27.790291,98.119444 27.740211,98.250594 C 27.696733,98.364454 27.702035,98.473814 27.756117,98.578684 C 27.808757,98.683014 27.990778,98.838804 28.302184,99.046064 C 28.613584,99.253334 28.821693,99.409994 28.926508,99.516074 C 29.07851,99.671554 29.173567,99.831284 29.211677,99.99528 C 29.249782,100.15929 29.236365,100.32632 29.171427,100.49638 C 29.107033,100.665 28.998077,100.80546 28.844558,100.91775 C 28.691033,101.03005 28.508013,101.09309 28.295498,101.10689 C 28.082979,101.12069 27.863585,101.08439 27.637316,100.99799 C 27.350513,100.88847 27.126151,100.7549 26.964228,100.5973 C 26.802304,100.43968 26.698274,100.25587 26.652138,100.04587 C 26.606,99.835874 26.620499,99.623834 26.695636,99.409774 L 26.695636,99.409774 z M 29.058798,101.48146 L 31.432854,98.730134 L 31.887957,98.893814 L 32.046364,102.55596 L 31.565131,102.38289 L 31.540496,101.28214 L 30.205672,100.80207 L 29.507368,101.6428 L 29.058798,101.48146 z M 30.451353,100.50188 L 31.533584,100.8911 L 31.518384,99.8872 C 31.513353,99.582104 31.517226,99.334294 31.530001,99.143794 C 31.415735,99.333864 31.285298,99.516474 31.138692,99.691624 L 30.451353,100.50188 z M 32.373618,102.66717 L 33.437836,99.445994 L 33.864106,99.586814 L 33.336352,101.18423 L 35.463716,100.11529 L 36.041597,100.30622 L 34.259074,101.16494 L 35.036705,103.54701 L 34.474205,103.36117 L 33.865874,101.35186 L 33.168662,101.6918 L 32.799887,102.80801 L 32.373618,102.66717 z M 36.226668,103.89863 L 37.070897,101.02809 L 35.998609,100.71274 L 36.111565,100.32867 L 38.69127,101.08736 L 38.578315,101.47143 L 37.501588,101.15476 L 36.657359,104.0253 L 36.226668,103.89863 z M 38.259029,104.47302 L 39.123505,101.19258 L 39.557616,101.30698 L 38.69314,104.58742 L 38.259029,104.47302 z M 40.59523,105.0754 L 42.520398,101.99324 L 42.995186,102.08536 L 43.712016,105.68016 L 43.209968,105.58275 L 43.017216,104.49874 L 41.624658,104.22853 L 41.063203,105.1662 L 40.59523,105.0754 z M 41.821518,103.89428 L 42.950557,104.11335 L 42.781946,103.1236 C 42.730295,102.82286 42.696209,102.57738 42.679688,102.38716 C 42.595846,102.59248 42.494885,102.79289 42.376802,102.98842 L 41.821518,103.89428 z M 44.055242,105.72011 L 44.490298,102.35568 L 44.935522,102.41325 L 44.551807,105.38065 L 46.208776,105.59491 L 46.157436,105.99194 L 44.055242,105.72011 z M 46.320197,106.02621 L 47.808696,102.71104 L 48.291598,102.73779 L 49.49025,106.20184 L 48.979622,106.17355 L 48.641359,105.12578 L 47.225001,105.04731 L 46.796167,106.05258 L 46.320197,106.02621 z M 47.374617,104.68941 L 48.522953,104.75304 L 48.221415,103.79538 C 48.129376,103.50444 48.06225,103.26586 48.020035,103.07966 C 47.96487,103.29446 47.892078,103.50674 47.801659,103.7165 L 47.374617,104.68941 z M 49.841504,106.2074 L 49.700732,102.81788 L 50.375861,102.78984 L 51.277828,105.15647 C 51.361096,105.3769 51.42199,105.5419 51.460512,105.65147 C 51.493923,105.52655 51.546515,105.34294 51.618289,105.10064 L 52.331885,102.7086 L 52.935339,102.68354 L 53.076112,106.07306 L 52.643751,106.09102 L 52.52593,103.25409 L 51.658803,106.13192 L 51.254188,106.14873 L 50.154025,103.30396 L 50.273864,106.18944 L 49.841504,106.2074 z M 55.394939,105.78426 L 54.806126,102.4433 L 55.248243,102.36539 L 55.54024,104.02218 L 56.907323,102.07299 L 57.506689,101.96735 L 56.343709,103.56807 L 58.157033,105.29746 L 57.573621,105.40028 L 56.085985,103.91896 L 55.63302,104.54862 L 55.837056,105.70634 L 55.394939,105.78426 z M 58.534362,105.20023 L 57.727856,101.90505 L 60.110454,101.32191 L 60.205628,101.71076 L 58.259091,102.18718 L 58.506104,103.19642 L 60.329016,102.75026 L 60.42364,103.13686 L 58.600728,103.58303 L 58.875248,104.70465 L 60.898208,104.20952 L 60.993382,104.59837 L 58.534362,105.20023 z M 61.602817,104.42593 L 60.623261,101.17799 L 62.063344,100.74367 C 62.352836,100.65636 62.581708,100.61916 62.74996,100.63206 C 62.918208,100.64497 63.069655,100.71169 63.2043,100.83221 C 63.33894,100.95274 63.433212,101.10236 63.487114,101.28108 C 63.556603,101.51149 63.540591,101.72822 63.439079,101.93124 C 63.337563,102.13428 63.137441,102.30421 62.838712,102.44103 C 62.968923,102.46138 63.071586,102.48923 63.146705,102.52459 C 63.306994,102.60193 63.469324,102.71008 63.633698,102.84903 L 64.465258,103.56264 L 63.924673,103.72567 L 63.291069,103.17957 C 63.10672,103.02247 62.95834,102.90447 62.845923,102.82558 C 62.733505,102.74669 62.638936,102.69626 62.562214,102.67427 C 62.485491,102.6523 62.411446,102.64321 62.340082,102.647 C 62.288222,102.65137 62.206904,102.67025 62.09613,102.70366 L 61.59764,102.854 L 62.032626,104.2963 L 61.602817,104.42593 z M 61.485385,102.48179 L 62.409253,102.20317 C 62.605694,102.14392 62.753177,102.07728 62.851705,102.00325 C 62.950229,101.92923 63.014818,101.83885 63.045473,101.73211 C 63.076124,101.62539 63.075638,101.51959 63.044012,101.41471 C 62.997683,101.26111 62.903839,101.15164 62.762482,101.08631 C 62.621121,101.02099 62.430065,101.02462 62.189314,101.09724 L 61.161316,101.40728 L 61.485385,102.48179 z M 64.938581,103.38751 L 63.863094,100.17006 L 64.288868,100.02774 L 65.364355,103.24519 L 64.938581,103.38751 z M 66.10797,102.99868 L 64.960681,99.806144 L 65.394049,99.650404 L 67.97167,101.55436 L 67.070899,99.047794 L 67.475957,98.902244 L 68.623246,102.09478 L 68.189878,102.25052 L 65.611474,100.34438 L 66.513027,102.85311 L 66.10797,102.99868 z M 71.158945,99.84455 L 71.618555,99.788384 C 71.663779,100.16621 71.607282,100.48951 71.449063,100.75829 C 71.290838,101.02707 71.046978,101.22517 70.717481,101.35261 C 70.37647,101.48449 70.07228,101.52232 69.804911,101.46611 C 69.53754,101.4099 69.297182,101.2717 69.083835,101.05152 C 68.870489,100.83133 68.705386,100.57016 68.588526,100.268 C 68.461094,99.9385 68.412888,99.626744 68.443909,99.332734 C 68.474931,99.038714 68.582005,98.783104 68.765133,98.565884 C 68.948261,98.348684 69.179394,98.186104 69.458533,98.078134 C 69.775082,97.955724 70.072433,97.933354 70.350588,98.011024 C 70.628741,98.088714 70.866746,98.257184 71.064605,98.516434 L 70.689934,98.772984 C 70.527515,98.571144 70.35621,98.444694 70.176019,98.393644 C 69.995826,98.342584 69.799974,98.357954 69.588462,98.439754 C 69.345295,98.533804 69.164593,98.670674 69.046357,98.850384 C 68.928121,99.030084 68.873889,99.230944 68.883659,99.452944 C 68.893431,99.674954 68.938661,99.89026 69.01935,100.0989 C 69.12341,100.36796 69.253463,100.58769 69.40951,100.75809 C 69.565555,100.92848 69.745511,101.03132 69.949377,101.0666 C 70.153242,101.1019 70.351578,101.08225 70.544387,101.00769 C 70.778919,100.91698 70.951327,100.77256 71.061612,100.57443 C 71.171892,100.37629 71.204337,100.133 71.158945,99.84455 L 71.158945,99.84455 z M 72.592998,100.55157 L 71.331612,97.402354 L 71.748357,97.235434 L 73.009743,100.38465 L 72.592998,100.55157 z"
     id="text3388"
     style="fill:#000000;stroke:none;" />
</svg>
