<?xml version="1.0" encoding="UTF-8" standalone="no"?>
<svg
   xmlns:dc="http://purl.org/dc/elements/1.1/"
   xmlns:cc="http://creativecommons.org/ns#"
   xmlns:rdf="http://www.w3.org/1999/02/22-rdf-syntax-ns#"
   xmlns:svg="http://www.w3.org/2000/svg"
   xmlns="http://www.w3.org/2000/svg"
   xmlns:xlink="http://www.w3.org/1999/xlink"
   xmlns:sodipodi="http://sodipodi.sourceforge.net/DTD/sodipodi-0.dtd"
   xmlns:inkscape="http://www.inkscape.org/namespaces/inkscape"
   width="310.59"
   height="386.869"
   viewBox="0 0 82.177 102.359"
   version="1.1"
   id="svg448"
   sodipodi:docname="Seal of Jember Regency (1).svg"
   inkscape:version="1.0.1 (3bc2e813f5, 2020-09-07)">
  <metadata
     id="metadata452">
    <rdf:RDF>
      <cc:Work
         rdf:about="">
        <dc:format>image/svg+xml</dc:format>
        <dc:type
           rdf:resource="http://purl.org/dc/dcmitype/StillImage" />
      </cc:Work>
    </rdf:RDF>
  </metadata>
  <sodipodi:namedview
     pagecolor="#ffffff"
     bordercolor="#666666"
     borderopacity="1"
     objecttolerance="10"
     gridtolerance="10"
     guidetolerance="10"
     inkscape:pageopacity="0"
     inkscape:pageshadow="2"
     inkscape:window-width="1366"
     inkscape:window-height="705"
     id="namedview450"
     showgrid="false"
     inkscape:zoom="0.82237675"
     inkscape:cx="172.06166"
     inkscape:cy="231.42686"
     inkscape:window-x="-8"
     inkscape:window-y="-8"
     inkscape:window-maximized="1"
     inkscape:current-layer="svg448" />
  <style
     id="style2"><![CDATA[.B{fill:#ff0}.C{stroke:#c6c600}.D{stroke-width:.556}.E{fill:#ffffa1}.F{stroke-width:.265}.G{fill:#fff}.H{opacity:.999}.I{fill:#eaeaea}.J{stroke:#939393}.K{fill:#327432}.L{stroke:#265826}.M{stroke:#000}.N{stroke:#7a5200}.O{stroke-linejoin:round}.P{fill-rule:evenodd}.Q{stroke-width:.665}]]></style>
  <defs
     id="defs56">
    <linearGradient
       id="A"
       gradientUnits="userSpaceOnUse">
      <stop
         offset="0"
         stop-color="#ff0"
         id="stop4" />
      <stop
         offset="1"
         stop-color="#d9d900"
         id="stop6" />
    </linearGradient>
    <linearGradient
       id="B"
       gradientUnits="userSpaceOnUse">
      <stop
         offset="0"
         stop-color="#fff"
         id="stop9" />
      <stop
         offset="1"
         stop-color="silver"
         id="stop11" />
    </linearGradient>
    <linearGradient
       xlink:href="#B"
       id="C"
       x1="194.146"
       y1="189.693"
       x2="201.86"
       y2="194.704" />
    <linearGradient
       xlink:href="#B"
       id="D"
       x1="247.12"
       y1="189.693"
       x2="239.406"
       y2="194.704" />
    <linearGradient
       xlink:href="#A"
       id="E"
       x1="174.205"
       y1="180.336"
       x2="179.216"
       y2="180.756" />
    <linearGradient
       id="F"
       x1="424.274"
       y1="245.981"
       x2="537.395"
       y2="245.98"
       gradientUnits="userSpaceOnUse">
      <stop
         offset="0"
         stop-color="#ff0"
         id="stop17" />
      <stop
         offset=".201"
         stop-color="#ecec00"
         id="stop19" />
      <stop
         offset=".499"
         stop-color="#ffffa0"
         id="stop21" />
      <stop
         offset=".806"
         stop-color="#e3e300"
         id="stop23" />
      <stop
         offset="1"
         stop-color="#ff0"
         id="stop25" />
    </linearGradient>
    <linearGradient
       xlink:href="#A"
       id="G"
       x1="208.06"
       y1="180.336"
       x2="203.048"
       y2="180.756" />
    <path
       id="H"
       d="M181.477 273.626l3.469 4.263c3.867 2.053 6.238.006 13.388 11.058.427.042-13.082 4.88-14.082-10.314z" />
    <path
       id="I"
       d="M186.296 280.115c4.764 1.681 7.068 2.08 8.131 7.395-1.969-3.955-8.131-7.395-8.131-7.395z" />
    <path
       id="J"
       d="M180.018 274.507c2.96-.367 3.475 2.04 4.929 3.382 3.887 2.004 6.467-.535 13.388 11.058.436.024-12.42 3.568-14.082-10.314-1.158-1.681-2.167-3.543-4.235-4.125z" />
    <path
       id="K"
       d="M180.018 274.507c2.96-.367 3.475 2.04 4.929 3.382 3.887 2.004 5.951.492 12.872 12.085.413-1.013-11.983-1.039-13.566-11.342-1.158-1.681-2.167-3.543-4.235-4.125z" />
    <path
       id="L"
       d="M186.296 280.115c4.282 1.985 5.604 1.832 7.574 6.576-2.841-3.368-7.717-6.48-7.574-6.576z" />
    <path
       id="M"
       d="M178.142 276.354c2.96-.367 5.35.193 6.805 1.535 3.887 2.004 6.467-.535 13.388 11.058.59-1.129-12.074.975-14.082-10.314-1.158-1.681-4.042-1.695-6.111-2.278z" />
    <path
       id="N"
       d="M114.057 133.793c-1.749 2.101 3.036 3.342 3.049 2.278l3.487-.543-1.157-3.207c.763-.951.874-2.105-.771-1.928-.244-1.407-1.596-1.219-2.085-.123-.029-.85-2.788-.492-1.875 1.157-1.327-.243-2.479 1.991-.648 2.366z" />
    <path
       id="O"
       d="M119.174 131.375c-.198.7-.839 1.272-.456 2.138-.609-.146-.738-.505-2.103-.315.116.87.202 1.777.771 2.103-.968.215-1.112.704-1.577 1.086 2.111-.278 3.448 1.899 6.308.596.937-3.723-2.147-2.957-2.944-5.608z" />
    <path
       id="P"
       d="M115.196 132.216c-.543-.335-1.478.411-.924.939.356.18 1.217.449.612.921-.675.419.251.98.715.956.709-.044.384-.846.368-1.293-.063-.486.116-1.155.71-1.167.503-.104 1.378.298 1.507-.454.252-.46.689-1.458-.196-1.373-.388-.15.016-1.192-.64-.674-.37.252-.457 1.198-1.037.637-.389-.571-1.155.035-.858.588.082.323.152.794-.257.922z" />
    <path
       id="Q"
       d="M87.283 164.564v11.706c3.64-1.108 7.167-2.83 17.716-2.418v-4.731c-9.488.236-13.418-3.107-17.716-4.556z" />
    <path
       id="R"
       d="M87.756 171.346l.035 3.855h.596v-2.383l-.333-.07v-1.209z" />
    <path
       id="S"
       d="M90.42 170.996l.035 3.575h.596v-2.21l-.333-.065v-1.121z" />
    <path
       id="T"
       d="M91.874 170.873l.035 3.329h.596v-2.058l-.333-.06v-1.044z" />
    <path
       id="U"
       d="M93.083 170.908l.035 3.067h.596v-1.896l-.333-.056v-.962z" />
    <path
       id="V"
       d="M94.484 170.958l.035 2.782h.596v-1.72l-.333-.05v-.872z" />
    <path
       id="W"
       d="M95.648 171.205l.035 2.385h.596v-1.474l-.333-.043v-.748z" />
    <path
       id="X"
       d="M96.949 171.304l.035 2.224h.596v-1.375l-.333-.04v-.698z" />
    <path
       id="Y"
       d="M99.477 169.099l.035 1.778h.596v-1.099l-.333-.032v-.558z" />
    <path
       id="Z"
       d="M98.201 168.888l.035 1.902h.596v-1.176l-.333-.035v-.596z" />
    <path
       id="a"
       d="M96.962 168.591l.035 2.075h.596v-1.283l-.333-.038v-.651z" />
    <path
       id="b"
       d="M95.661 168.232l.035 2.199h.596v-1.36l-.333-.04v-.69z" />
    <path
       id="c"
       d="M89.094 165.745l.035 3.285h.596v-2.302l-.333-.06v-.759z" />
    <path
       id="d"
       d="M90.383 166.291l.035 3.285h.596v-2.364l-.333-.06v-.697z" />
    <path
       id="e"
       d="M91.87 166.861l.035 2.963h.596v-2.042l-.333-.06v-.697z" />
    <path
       id="f"
       d="M93.122 167.344l.035 2.851h.596v-1.93l-.333-.06v-.697z" />
    <path
       id="g"
       d="M94.423 167.728l.035 2.628h.596v-1.707l-.333-.06v-.697z" />
    <path
       id="h"
       d="M101.446 171.504h.859v3.317h-.859z" />
  </defs>
  <g
     id="g1674">
    <path
       d="M 41.089,101.672 V 0.682 H 0.683 v 60.595 c 2.864,22.69 21.766,38.288 40.406,40.395 z"
       fill="#ff0000"
       id="path58" />
    <path
       d="M 41.089,101.672 V 0.682 h 40.406 v 60.595 c -2.864,22.69 -21.766,38.288 -40.406,40.395 z"
       class="B"
       id="path164" />
    <path
       d="m 0.683,0.682 v 60.595 c 2.864,22.69 21.766,38.288 40.406,40.394 18.64,-2.106 37.542,-17.704 40.406,-40.394 V 0.682 H 41.089 Z"
       fill="none"
       stroke-width="1.365"
       class="M"
       id="path166" />
  </g>
  <g
     transform="matrix(0.499229,0,0,0.499229,-86.629086,-78.544618)"
     id="g162">
    <path
       d="m 214.244,192.345 c -0.933,1.38 -0.884,3.354 -1.408,5.991 l -1.467,8.906 0.018,0.003 c -2.117,2.81 -2.854,6.234 -4.15,9.12 -0.609,1.029 -0.945,2.265 -1.424,3.198 -0.245,0.477 -0.515,0.861 -0.751,0.658 -0.236,-0.203 -0.212,-1.253 -0.655,-2.445 l 0.004,0.01 c -0.963,-2.697 -0.488,-5.378 0.65,-7.942 l -1.369,-0.607 c -1.234,2.78 -1.814,5.909 -0.691,9.053 l 0.002,0.006 0.002,0.004 c 0.576,1.545 0.217,2.421 -0.427,3.523 -0.636,1.087 -1.631,2.283 -1.983,4.004 -0.997,2.952 -2.471,5.733 -4.262,8.162 -0.523,-2.636 -1.405,-5.501 -1.93,-8.045 l -1.465,0.303 c 0.689,3.343 1.953,7.09 1.685,9.765 -0.268,2.675 -1.468,4.708 -1.8,7.194 -0.806,3.422 -0.941,6.843 -1.299,10.191 -0.555,-0.902 -1.303,-1.715 -2.279,-2.38 -1.897,-2.307 -1.56,-5.38 -1.467,-8.543 l -1.496,-0.043 c -0.091,3.093 -0.261,7.485 1.863,9.54 2.124,2.055 2.659,2.822 3.029,4.589 0.37,1.767 0.24,3.775 -0.107,5.666 l -0.004,0.02 -0.002,0.02 c -0.492,3.807 -1.198,8.16 0.59,12.308 1.788,4.148 5.771,6.761 8.651,9.829 0.91,1.329 1.527,2.914 2.36,4.479 -0.183,-0.009 -0.368,-0.01 -0.555,-0.005 -0.593,-1.695 -1.876,-2.732 -3.299,-3.299 -1.576,-0.628 -3.342,-0.787 -4.863,-0.976 h -0.002 -0.004 c -1.99,-0.232 -2.969,-1.291 -3.537,-2.818 -0.568,-1.527 -0.591,-3.527 -0.715,-5.658 -0.124,-2.131 -1.529,-3.94 -2.924,-5.668 -1.395,-1.728 -2.786,-3.387 -3.479,-5.25 -0.375,-1.048 -0.073,-2.425 -0.377,-3.965 l -1.469,0.289 c 0.219,1.108 -0.132,2.605 0.437,4.187 l 0.002,0.004 v 0.004 c 0.816,2.198 2.343,3.963 3.721,5.67 1.364,1.69 2.561,3.313 2.984,5.129 -0.262,1.852 -0.266,3.951 0.414,5.779 0.707,1.899 2.267,3.492 4.77,3.783 1.548,0.192 3.2,0.368 4.488,0.881 0.907,0.361 1.622,0.838 2.097,1.633 -1.339,-0.381 -2.763,-0.801 -4.347,-0.703 l 0.092,1.494 c 7.437,0.597 10.694,1.397 14.576,7.865 l 1.285,-0.767 c -1.086,-1.819 -2.398,-3.825 -4.108,-5.342 -0.101,-0.09 -0.205,-0.178 -0.31,-0.265 -0.654,-0.916 -0.985,-2.439 -1.477,-3.951 -0.273,-0.839 -0.611,-1.679 -1.197,-2.383 -0.586,-0.704 -1.447,-1.238 -2.561,-1.402 l -0.195,1.32 c -0.187,-0.322 -0.383,-0.642 -0.6,-0.957 l -0.032,-0.045 -0.037,-0.041 c -1.714,-1.836 -3.663,-3.439 -5.346,-5.172 -0.125,-4.18 -0.905,-8.226 -0.552,-12.201 0.329,-0.884 0.836,-1.776 1.211,-2.828 l -1.41,-0.504 c -0.327,0.915 -0.866,1.838 -1.254,2.927 l -0.031,0.09 -0.01,0.094 c -0.336,3.631 0.201,7.154 0.449,10.605 -0.641,-0.825 -1.197,-1.699 -1.625,-2.655 -1.413,-3.416 -0.825,-7.475 -0.331,-11.3 0.367,-2.002 0.529,-4.179 0.449,-6.016 -0.08,-1.837 0.047,-3.047 0.161,-4.251 1.358,-0.592 2.368,-1.811 3.21,-3.135 0.932,-1.465 1.669,-3.109 2.313,-4.367 l 0.012,-0.023 0.011,-0.025 c 1.833,-4.326 3.196,-9.346 5.146,-12.677 1.95,-3.331 3.288,-5.492 4.598,-8.786 l 0.008,-0.02 0.006,-0.018 c 1.154,-3.428 2.642,-5.426 3.947,-7.823 l -1.301,-0.738 -0.004,0.006 -0.004,0.006 c -1.28,2.351 -2.832,4.445 -4.046,8.039 -1.143,2.871 -3.543,5.336 -4.436,8.861 -3.282,3.673 -3.627,8.614 -5.288,12.545 -0.668,1.307 -1.382,2.887 -2.226,4.215 -0.548,0.862 -1.147,1.59 -1.777,2.088 0.21,-2.33 0.435,-4.628 0.966,-6.863 l 0.008,-0.037 0.006,-0.037 c 0.379,-2.89 2.399,-5.397 3.254,-8.582 1.877,-2.553 3.424,-5.46 4.469,-8.564 l 0.016,-0.049 0.01,-0.049 c 0.254,-1.324 1.09,-2.352 1.877,-2.986 0.787,-0.634 1.493,-0.925 2.023,-1.365 0.53,-0.44 0.898,-1.003 1.195,-1.582 0.594,-1.157 0.954,-2.427 1.41,-3.174 l 0.025,-0.041 0.02,-0.041 c 1.409,-3.134 2.164,-6.464 4.088,-8.951 1.745,-0.857 3.718,-1.538 5.615,-2.6 l 0.032,-0.015 c 2.595,-0.96 4.792,-2.593 6.963,-3.977 l -0.803,-1.262 c -2.241,1.428 -4.367,2.991 -6.707,3.85 l -0.058,0.02 -0.055,0.031 c -0.996,0.567 -2.067,1.029 -3.153,1.491 0.473,-0.562 0.896,-1.025 1.493,-1.61 l -1.047,-1.071 a 23.19,23.19 0 0 0 -1.692,1.841 l 1.03,-6.11 c 0.512,-2.574 0.517,-4.464 1.179,-5.444 z m -12.03,92.305 c 0.706,0.129 1.136,0.42 1.501,0.857 0.387,0.464 0.677,1.123 0.926,1.887 0.21,0.646 0.384,1.363 0.606,2.077 -0.214,-0.09 -0.433,-0.172 -0.656,-0.244 -0.871,-1.383 -1.488,-3.006 -2.376,-4.577 z"
       fill="#c6c600"
       class="H"
       id="path60" />
    <path
       id="use62"
       d="m 181.477,273.626 3.469,4.263 c 3.867,2.053 6.238,0.006 13.388,11.058 0.427,0.042 -13.082,4.88 -14.082,-10.314 z"
       style="fill:#ffff00;stroke:#c6c600;stroke-width:0.556" />
    <path
       id="use64"
       d="m 186.296,280.115 c 4.764,1.681 7.068,2.08 8.131,7.395 -1.969,-3.955 -8.131,-7.395 -8.131,-7.395 z"
       style="fill:#ffffa1" />
    <g
       transform="rotate(35.829,208.143,293.454)"
       id="g70">
      <path
         id="use66"
         d="m 181.477,273.626 3.469,4.263 c 3.867,2.053 6.238,0.006 13.388,11.058 0.427,0.042 -13.082,4.88 -14.082,-10.314 z"
         style="fill:#ffff00;stroke:#c6c600;stroke-width:0.556" />
      <path
         id="use68"
         d="m 186.296,280.115 c 4.764,1.681 7.068,2.08 8.131,7.395 -1.969,-3.955 -8.131,-7.395 -8.131,-7.395 z"
         style="fill:#ffffa1" />
    </g>
    <g
       transform="matrix(0.736055,0.585881,-0.531427,0.811476,200.4693,-75.507802)"
       id="g76">
      <path
         id="use72"
         d="m 180.018,274.507 c 2.96,-0.367 3.475,2.04 4.929,3.382 3.887,2.004 6.467,-0.535 13.388,11.058 0.436,0.024 -12.42,3.568 -14.082,-10.314 -1.158,-1.681 -2.167,-3.543 -4.235,-4.125 z"
         style="fill:#ffff00;stroke:#c6c600;stroke-width:0.556" />
      <path
         id="use74"
         d="m 186.296,280.115 c 4.764,1.681 7.068,2.08 8.131,7.395 -1.969,-3.955 -8.131,-7.395 -8.131,-7.395 z"
         style="fill:#ffffa1" />
    </g>
    <g
       transform="matrix(0.554232,0.760171,-0.727679,0.641398,282.93276,-73.408742)"
       id="g82">
      <path
         d="m 178.979,275.739 c 2.96,-0.367 4.514,0.809 5.968,2.15 3.887,2.004 6.467,-0.535 13.388,11.058 0.619,-0.193 -10.836,1.692 -14.082,-10.314 -1.158,-1.681 -3.206,-2.311 -5.274,-2.894 z"
         class="B C D"
         id="path78" />
      <path
         id="use80"
         d="m 186.296,280.115 c 4.764,1.681 7.068,2.08 8.131,7.395 -1.969,-3.955 -8.131,-7.395 -8.131,-7.395 z"
         style="fill:#ffffa1" />
    </g>
    <g
       transform="matrix(0.239168,0.828439,-0.735602,0.35427,360.94903,-2.270092)"
       id="g88">
      <path
         id="use84"
         d="m 180.018,274.507 c 2.96,-0.367 3.475,2.04 4.929,3.382 3.887,2.004 6.467,-0.535 13.388,11.058 0.436,0.024 -12.42,3.568 -14.082,-10.314 -1.158,-1.681 -2.167,-3.543 -4.235,-4.125 z"
         style="fill:#ffff00;stroke:#c6c600;stroke-width:0.556" />
      <path
         id="use86"
         d="m 186.296,280.115 c 4.764,1.681 7.068,2.08 8.131,7.395 -1.969,-3.955 -8.131,-7.395 -8.131,-7.395 z"
         style="fill:#ffffa1" />
    </g>
    <g
       transform="matrix(0.559109,0.756591,-0.72354,0.646063,291.03453,-79.945148)"
       id="g94">
      <path
         id="use90"
         d="m 180.018,274.507 c 2.96,-0.367 3.475,2.04 4.929,3.382 3.887,2.004 6.467,-0.535 13.388,11.058 0.436,0.024 -12.42,3.568 -14.082,-10.314 -1.158,-1.681 -2.167,-3.543 -4.235,-4.125 z"
         style="fill:#ffff00;stroke:#c6c600;stroke-width:0.556" />
      <path
         id="use92"
         d="m 186.296,280.115 c 4.764,1.681 7.068,2.08 8.131,7.395 -1.969,-3.955 -8.131,-7.395 -8.131,-7.395 z"
         style="fill:#ffffa1" />
    </g>
    <g
       transform="matrix(0.501392,0.796015,-0.769511,0.59056,310.1464,-83.679911)"
       id="g100">
      <path
         id="use96"
         d="m 180.018,274.507 c 2.96,-0.367 3.475,2.04 4.929,3.382 3.887,2.004 6.467,-0.535 13.388,11.058 0.436,0.024 -12.42,3.568 -14.082,-10.314 -1.158,-1.681 -2.167,-3.543 -4.235,-4.125 z"
         style="fill:#ffff00;stroke:#c6c600;stroke-width:0.556" />
      <path
         id="use98"
         d="m 186.296,280.115 c 4.764,1.681 7.068,2.08 8.131,7.395 -1.969,-3.955 -8.131,-7.395 -8.131,-7.395 z"
         style="fill:#ffffa1" />
    </g>
    <g
       transform="matrix(-0.00301,0.940757,-0.966141,0.086484,478.34011,34.3029)"
       id="g106">
      <path
         id="use102"
         d="m 180.018,274.507 c 2.96,-0.367 3.475,2.04 4.929,3.382 3.887,2.004 5.951,0.492 12.872,12.085 0.413,-1.013 -11.983,-1.039 -13.566,-11.342 -1.158,-1.681 -2.167,-3.543 -4.235,-4.125 z"
         style="fill:#ffff00;stroke:#c6c600;stroke-width:0.556" />
      <path
         id="use104"
         d="m 186.296,280.115 c 4.282,1.985 5.604,1.832 7.574,6.576 -2.841,-3.368 -7.717,-6.48 -7.574,-6.576 z"
         style="fill:#ffffa1" />
    </g>
    <g
       transform="matrix(-0.00301,0.940757,-0.966141,0.086484,484.29811,20.564448)"
       id="g112">
      <path
         id="use108"
         d="m 180.018,274.507 c 2.96,-0.367 3.475,2.04 4.929,3.382 3.887,2.004 5.951,0.492 12.872,12.085 0.413,-1.013 -11.983,-1.039 -13.566,-11.342 -1.158,-1.681 -2.167,-3.543 -4.235,-4.125 z"
         style="fill:#ffff00;stroke:#c6c600;stroke-width:0.556" />
      <path
         id="use110"
         d="m 186.296,280.115 c 4.282,1.985 5.604,1.832 7.574,6.576 -2.841,-3.368 -7.717,-6.48 -7.574,-6.576 z"
         style="fill:#ffffa1" />
    </g>
    <g
       transform="matrix(0.316851,0.83743,-0.892487,0.508909,391.05524,-75.15759)"
       id="g118">
      <path
         id="use114"
         d="m 178.142,276.354 c 2.96,-0.367 5.35,0.193 6.805,1.535 3.887,2.004 6.467,-0.535 13.388,11.058 0.59,-1.129 -12.074,0.975 -14.082,-10.314 -1.158,-1.681 -4.042,-1.695 -6.111,-2.278 z"
         style="fill:#ffff00;stroke:#c6c600;stroke-width:0.556" />
      <path
         id="use116"
         d="m 186.296,280.115 c 4.764,1.681 7.068,2.08 8.131,7.395 -1.969,-3.955 -8.131,-7.395 -8.131,-7.395 z"
         style="fill:#ffffa1" />
    </g>
    <g
       transform="matrix(-0.647187,0.618735,0.58553,0.844202,153.84285,-139.16276)"
       id="g124">
      <path
         id="use120"
         d="m 178.142,276.354 c 2.96,-0.367 5.35,0.193 6.805,1.535 3.887,2.004 6.467,-0.535 13.388,11.058 0.59,-1.129 -12.074,0.975 -14.082,-10.314 -1.158,-1.681 -4.042,-1.695 -6.111,-2.278 z"
         style="fill:#ffff00;stroke:#c6c600;stroke-width:0.556" />
      <path
         id="use122"
         d="m 186.296,280.115 c 4.764,1.681 7.068,2.08 8.131,7.395 -1.969,-3.955 -8.131,-7.395 -8.131,-7.395 z"
         style="fill:#ffffa1" />
    </g>
    <g
       transform="matrix(0.160126,0.820832,-0.898573,0.328918,430.08335,-34.326672)"
       id="g130">
      <path
         id="use126"
         d="m 178.142,276.354 c 2.96,-0.367 5.35,0.193 6.805,1.535 3.887,2.004 6.467,-0.535 13.388,11.058 0.59,-1.129 -12.074,0.975 -14.082,-10.314 -1.158,-1.681 -4.042,-1.695 -6.111,-2.278 z"
         style="fill:#ffff00;stroke:#c6c600;stroke-width:0.556" />
      <path
         id="use128"
         d="m 186.296,280.115 c 4.764,1.681 7.068,2.08 8.131,7.395 -1.969,-3.955 -8.131,-7.395 -8.131,-7.395 z"
         style="fill:#ffffa1" />
    </g>
    <g
       transform="matrix(-0.757088,0.478018,0.406381,0.943597,236.28427,-156.74082)"
       id="g136">
      <path
         id="use132"
         d="m 178.142,276.354 c 2.96,-0.367 5.35,0.193 6.805,1.535 3.887,2.004 6.467,-0.535 13.388,11.058 0.59,-1.129 -12.074,0.975 -14.082,-10.314 -1.158,-1.681 -4.042,-1.695 -6.111,-2.278 z"
         style="fill:#ffff00;stroke:#c6c600;stroke-width:0.556" />
      <path
         id="use134"
         d="m 186.296,280.115 c 4.764,1.681 7.068,2.08 8.131,7.395 -1.969,-3.955 -8.131,-7.395 -8.131,-7.395 z"
         style="fill:#ffffa1" />
    </g>
    <g
       transform="matrix(-0.892846,0.06715,-0.083586,1.02398,411.68464,-92.855223)"
       id="g142">
      <path
         id="use138"
         d="m 178.142,276.354 c 2.96,-0.367 5.35,0.193 6.805,1.535 3.887,2.004 6.467,-0.535 13.388,11.058 0.59,-1.129 -12.074,0.975 -14.082,-10.314 -1.158,-1.681 -4.042,-1.695 -6.111,-2.278 z"
         style="fill:#ffff00;stroke:#c6c600;stroke-width:0.556" />
      <path
         id="use140"
         d="m 186.296,280.115 c 4.764,1.681 7.068,2.08 8.131,7.395 -1.969,-3.955 -8.131,-7.395 -8.131,-7.395 z"
         style="fill:#ffffa1" />
    </g>
    <g
       transform="matrix(-0.259898,0.856818,-1.01762,-0.141322,567.00509,73.365442)"
       id="g148">
      <path
         id="use144"
         d="m 178.142,276.354 c 2.96,-0.367 5.35,0.193 6.805,1.535 3.887,2.004 6.467,-0.535 13.388,11.058 0.59,-1.129 -12.074,0.975 -14.082,-10.314 -1.158,-1.681 -4.042,-1.695 -6.111,-2.278 z"
         style="fill:#ffff00;stroke:#c6c600;stroke-width:0.556" />
      <path
         id="use146"
         d="m 186.296,280.115 c 4.764,1.681 7.068,2.08 8.131,7.395 -1.969,-3.955 -8.131,-7.395 -8.131,-7.395 z"
         style="fill:#ffffa1" />
    </g>
    <g
       transform="matrix(-0.03047,0.887357,-0.927836,0.052901,489.30218,13.102897)"
       id="g154">
      <path
         id="use150"
         d="m 180.018,274.507 c 2.96,-0.367 3.475,2.04 4.929,3.382 3.887,2.004 6.467,-0.535 13.388,11.058 0.436,0.024 -12.42,3.568 -14.082,-10.314 -1.158,-1.681 -2.167,-3.543 -4.235,-4.125 z"
         style="fill:#ffff00;stroke:#c6c600;stroke-width:0.556" />
      <path
         id="use152"
         d="m 186.296,280.115 c 4.764,1.681 7.068,2.08 8.131,7.395 -1.969,-3.955 -8.131,-7.395 -8.131,-7.395 z"
         style="fill:#ffffa1" />
    </g>
    <g
       transform="matrix(-0.895114,0.021316,-0.135942,1.018353,430.69154,-104.74828)"
       id="g160">
      <path
         id="use156"
         d="m 178.142,276.354 c 2.96,-0.367 5.35,0.193 6.805,1.535 3.887,2.004 6.467,-0.535 13.388,11.058 0.59,-1.129 -12.074,0.975 -14.082,-10.314 -1.158,-1.681 -4.042,-1.695 -6.111,-2.278 z"
         style="fill:#ffff00;stroke:#c6c600;stroke-width:0.556" />
      <path
         id="use158"
         d="m 186.296,280.115 c 4.764,1.681 7.068,2.08 8.131,7.395 -1.969,-3.955 -8.131,-7.395 -8.131,-7.395 z"
         style="fill:#ffffa1" />
    </g>
  </g>
  <g
     id="g1679">
    <g
       class="P"
       id="g172"
       transform="translate(-63.911,-117.847)">
      <path
         d="m 105,120.074 -1.696,5.219 h -5.488 l 4.439,3.226 -1.696,5.219 4.44,-3.225 4.44,3.225 -1.696,-5.219 4.44,-3.226 h -5.488 z"
         class="G H"
         id="path168" />
      <path
         d="m 105,120.074 v 7.554 l -1.696,-2.334 h -5.488 l 7.184,2.334 -2.744,0.892 -1.696,5.219 4.44,-6.11 v 2.885 l 4.44,3.225 -4.44,-6.11 2.744,0.892 4.44,-3.226 -7.184,2.334 1.696,-2.334 z"
         fill="#d3d3d3"
         class="H"
         id="path170" />
    </g>
  </g>
  <path
     d="m 41.089,20.502 c -14.065,5.611 -23.931,15.962 -26.164,35.503 3.333,5.972 7.292,11.858 14.69,17.275 L 41.089,73.057 52.563,73.28 C 59.961,67.863 63.92,61.977 67.253,56.005 65.02,36.464 55.154,26.114 41.089,20.502 Z"
     stroke="#696969"
     class="F G"
     id="path174" />
  <path
     d="m 41.089,22.402 c -18.142,5.404 -21.857,22.157 -22.7,32.614 2.026,5.183 4.493,9.992 8.227,13.729 l 14.473,4.312 14.472,-4.312 c 3.735,-3.737 6.201,-8.546 8.227,-13.729 -0.843,-10.457 -4.558,-27.21 -22.7,-32.614 z"
     fill="#91d8f7"
     stroke="#0b6e99"
     class="Q"
     id="path176" />
  <g
     id="g1719">
    <g
       class="F"
       id="g182"
       transform="translate(-63.911,-117.847)">
      <path
         id="use178"
         d="m 114.057,133.793 c -1.749,2.101 3.036,3.342 3.049,2.278 l 3.487,-0.543 -1.157,-3.207 c 0.763,-0.951 0.874,-2.105 -0.771,-1.928 -0.244,-1.407 -1.596,-1.219 -2.085,-0.123 -0.029,-0.85 -2.788,-0.492 -1.875,1.157 -1.327,-0.243 -2.479,1.991 -0.648,2.366 z"
         style="fill:#eaeaea;stroke:#939393" />
      <path
         id="use180"
         d="m 119.174,131.375 c -0.198,0.7 -0.839,1.272 -0.456,2.138 -0.609,-0.146 -0.738,-0.505 -2.103,-0.315 0.116,0.87 0.202,1.777 0.771,2.103 -0.968,0.215 -1.112,0.704 -1.577,1.086 2.111,-0.278 3.448,1.899 6.308,0.596 0.937,-3.723 -2.147,-2.957 -2.944,-5.608 z"
         style="fill:#327432;stroke:#265826" />
    </g>
    <path
       id="use184"
       d="m 51.285,14.369 c -0.543,-0.335 -1.478,0.411 -0.924,0.939 0.356,0.18 1.217,0.449 0.612,0.921 -0.675,0.419 0.251,0.98 0.715,0.956 0.709,-0.044 0.384,-0.846 0.368,-1.293 -0.063,-0.486 0.116,-1.155 0.71,-1.167 0.503,-0.104 1.378,0.298 1.507,-0.454 0.252,-0.46 0.689,-1.458 -0.196,-1.373 -0.388,-0.15 0.016,-1.192 -0.64,-0.674 -0.37,0.252 -0.457,1.198 -1.037,0.637 -0.389,-0.571 -1.155,0.035 -0.858,0.588 0.082,0.323 0.152,0.794 -0.257,0.922 z"
       style="fill:#ffffff" />
    <g
       transform="rotate(8.7750215,889.8802,-1160.1864)"
       id="g194">
      <g
         class="F"
         id="g190">
        <path
           id="use186"
           d="m 245.49,133.793 c -1.749,2.101 3.036,3.342 3.049,2.278 l 3.487,-0.543 -1.157,-3.207 c 0.763,-0.951 0.874,-2.105 -0.771,-1.928 -0.244,-1.407 -1.596,-1.219 -2.085,-0.123 -0.029,-0.85 -2.788,-0.492 -1.875,1.157 -1.327,-0.243 -2.479,1.991 -0.648,2.366 z"
           style="fill:#eaeaea;stroke:#939393" />
        <path
           id="use188"
           d="m 250.607,131.375 c -0.198,0.7 -0.839,1.272 -0.456,2.138 -0.609,-0.146 -0.738,-0.505 -2.103,-0.315 0.116,0.87 0.202,1.777 0.771,2.103 -0.968,0.215 -1.112,0.704 -1.577,1.086 2.111,-0.278 3.448,1.899 6.308,0.596 0.937,-3.723 -2.147,-2.957 -2.944,-5.608 z"
           style="fill:#327432;stroke:#265826" />
      </g>
      <path
         id="use192"
         d="m 246.629,132.216 c -0.543,-0.335 -1.478,0.411 -0.924,0.939 0.356,0.18 1.217,0.449 0.612,0.921 -0.675,0.419 0.251,0.98 0.715,0.956 0.709,-0.044 0.384,-0.846 0.368,-1.293 -0.063,-0.486 0.116,-1.155 0.71,-1.167 0.503,-0.104 1.378,0.298 1.507,-0.454 0.252,-0.46 0.689,-1.458 -0.196,-1.373 -0.388,-0.15 0.016,-1.192 -0.64,-0.674 -0.37,0.252 -0.457,1.198 -1.037,0.637 -0.389,-0.571 -1.155,0.035 -0.858,0.588 0.082,0.323 0.152,0.794 -0.257,0.922 z"
         style="fill:#ffffff" />
    </g>
    <g
       transform="rotate(14.580971,577.30228,-641.53307)"
       id="g204">
      <g
         class="F"
         id="g200">
        <path
           id="use196"
           d="m 245.49,133.793 c -1.749,2.101 3.036,3.342 3.049,2.278 l 3.487,-0.543 -1.157,-3.207 c 0.763,-0.951 0.874,-2.105 -0.771,-1.928 -0.244,-1.407 -1.596,-1.219 -2.085,-0.123 -0.029,-0.85 -2.788,-0.492 -1.875,1.157 -1.327,-0.243 -2.479,1.991 -0.648,2.366 z"
           style="fill:#eaeaea;stroke:#939393" />
        <path
           id="use198"
           d="m 250.607,131.375 c -0.198,0.7 -0.839,1.272 -0.456,2.138 -0.609,-0.146 -0.738,-0.505 -2.103,-0.315 0.116,0.87 0.202,1.777 0.771,2.103 -0.968,0.215 -1.112,0.704 -1.577,1.086 2.111,-0.278 3.448,1.899 6.308,0.596 0.937,-3.723 -2.147,-2.957 -2.944,-5.608 z"
           style="fill:#327432;stroke:#265826" />
      </g>
      <path
         id="use202"
         d="m 246.629,132.216 c -0.543,-0.335 -1.478,0.411 -0.924,0.939 0.356,0.18 1.217,0.449 0.612,0.921 -0.675,0.419 0.251,0.98 0.715,0.956 0.709,-0.044 0.384,-0.846 0.368,-1.293 -0.063,-0.486 0.116,-1.155 0.71,-1.167 0.503,-0.104 1.378,0.298 1.507,-0.454 0.252,-0.46 0.689,-1.458 -0.196,-1.373 -0.388,-0.15 0.016,-1.192 -0.64,-0.674 -0.37,0.252 -0.457,1.198 -1.037,0.637 -0.389,-0.571 -1.155,0.035 -0.858,0.588 0.082,0.323 0.152,0.794 -0.257,0.922 z"
         style="fill:#ffffff" />
    </g>
    <g
       transform="rotate(26.319988,375.34211,-302.8458)"
       id="g214">
      <g
         class="F"
         id="g210">
        <path
           id="use206"
           d="m 245.49,133.793 c -1.749,2.101 3.036,3.342 3.049,2.278 l 3.487,-0.543 -1.157,-3.207 c 0.763,-0.951 0.874,-2.105 -0.771,-1.928 -0.244,-1.407 -1.596,-1.219 -2.085,-0.123 -0.029,-0.85 -2.788,-0.492 -1.875,1.157 -1.327,-0.243 -2.479,1.991 -0.648,2.366 z"
           style="fill:#eaeaea;stroke:#939393" />
        <path
           id="use208"
           d="m 250.607,131.375 c -0.198,0.7 -0.839,1.272 -0.456,2.138 -0.609,-0.146 -0.738,-0.505 -2.103,-0.315 0.116,0.87 0.202,1.777 0.771,2.103 -0.968,0.215 -1.112,0.704 -1.577,1.086 2.111,-0.278 3.448,1.899 6.308,0.596 0.937,-3.723 -2.147,-2.957 -2.944,-5.608 z"
           style="fill:#327432;stroke:#265826" />
      </g>
      <path
         id="use212"
         d="m 246.629,132.216 c -0.543,-0.335 -1.478,0.411 -0.924,0.939 0.356,0.18 1.217,0.449 0.612,0.921 -0.675,0.419 0.251,0.98 0.715,0.956 0.709,-0.044 0.384,-0.846 0.368,-1.293 -0.063,-0.486 0.116,-1.155 0.71,-1.167 0.503,-0.104 1.378,0.298 1.507,-0.454 0.252,-0.46 0.689,-1.458 -0.196,-1.373 -0.388,-0.15 0.016,-1.192 -0.64,-0.674 -0.37,0.252 -0.457,1.198 -1.037,0.637 -0.389,-0.571 -1.155,0.035 -0.858,0.588 0.082,0.323 0.152,0.794 -0.257,0.922 z"
         style="fill:#ffffff" />
    </g>
    <g
       transform="matrix(0.999115,0.513465,-0.547268,0.922249,-105.04378,-211.91976)"
       id="g224">
      <g
         class="F"
         id="g220">
        <path
           id="use216"
           d="m 245.49,133.793 c -1.749,2.101 3.036,3.342 3.049,2.278 l 3.487,-0.543 -1.157,-3.207 c 0.763,-0.951 0.874,-2.105 -0.771,-1.928 -0.244,-1.407 -1.596,-1.219 -2.085,-0.123 -0.029,-0.85 -2.788,-0.492 -1.875,1.157 -1.327,-0.243 -2.479,1.991 -0.648,2.366 z"
           style="fill:#eaeaea;stroke:#939393" />
        <path
           id="use218"
           d="m 250.607,131.375 c -0.198,0.7 -0.839,1.272 -0.456,2.138 -0.609,-0.146 -0.738,-0.505 -2.103,-0.315 0.116,0.87 0.202,1.777 0.771,2.103 -0.968,0.215 -1.112,0.704 -1.577,1.086 2.111,-0.278 3.448,1.899 6.308,0.596 0.937,-3.723 -2.147,-2.957 -2.944,-5.608 z"
           style="fill:#327432;stroke:#265826" />
      </g>
      <path
         id="use222"
         d="m 246.629,132.216 c -0.543,-0.335 -1.478,0.411 -0.924,0.939 0.356,0.18 1.217,0.449 0.612,0.921 -0.675,0.419 0.251,0.98 0.715,0.956 0.709,-0.044 0.384,-0.846 0.368,-1.293 -0.063,-0.486 0.116,-1.155 0.71,-1.167 0.503,-0.104 1.378,0.298 1.507,-0.454 0.252,-0.46 0.689,-1.458 -0.196,-1.373 -0.388,-0.15 0.016,-1.192 -0.64,-0.674 -0.37,0.252 -0.457,1.198 -1.037,0.637 -0.389,-0.571 -1.155,0.035 -0.858,0.588 0.082,0.323 0.152,0.794 -0.257,0.922 z"
         style="fill:#ffffff" />
    </g>
    <g
       transform="matrix(0.844979,0.654051,-0.763176,0.832305,-35.38651,-227.77191)"
       id="g234">
      <g
         class="F"
         id="g230">
        <path
           id="use226"
           d="m 245.49,133.793 c -1.749,2.101 3.036,3.342 3.049,2.278 l 3.487,-0.543 -1.157,-3.207 c 0.763,-0.951 0.874,-2.105 -0.771,-1.928 -0.244,-1.407 -1.596,-1.219 -2.085,-0.123 -0.029,-0.85 -2.788,-0.492 -1.875,1.157 -1.327,-0.243 -2.479,1.991 -0.648,2.366 z"
           style="fill:#eaeaea;stroke:#939393" />
        <path
           id="use228"
           d="m 250.607,131.375 c -0.198,0.7 -0.839,1.272 -0.456,2.138 -0.609,-0.146 -0.738,-0.505 -2.103,-0.315 0.116,0.87 0.202,1.777 0.771,2.103 -0.968,0.215 -1.112,0.704 -1.577,1.086 2.111,-0.278 3.448,1.899 6.308,0.596 0.937,-3.723 -2.147,-2.957 -2.944,-5.608 z"
           style="fill:#327432;stroke:#265826" />
      </g>
      <path
         id="use232"
         d="m 246.629,132.216 c -0.543,-0.335 -1.478,0.411 -0.924,0.939 0.356,0.18 1.217,0.449 0.612,0.921 -0.675,0.419 0.251,0.98 0.715,0.956 0.709,-0.044 0.384,-0.846 0.368,-1.293 -0.063,-0.486 0.116,-1.155 0.71,-1.167 0.503,-0.104 1.378,0.298 1.507,-0.454 0.252,-0.46 0.689,-1.458 -0.196,-1.373 -0.388,-0.15 0.016,-1.192 -0.64,-0.674 -0.37,0.252 -0.457,1.198 -1.037,0.637 -0.389,-0.571 -1.155,0.035 -0.858,0.588 0.082,0.323 0.152,0.794 -0.257,0.922 z"
         style="fill:#ffffff" />
    </g>
    <g
       transform="matrix(0.170367,1.054868,-1.125911,0.08657,182.17589,-219.55554)"
       id="g244">
      <g
         class="F"
         id="g240">
        <path
           id="use236"
           d="m 245.49,133.793 c -1.749,2.101 3.036,3.342 3.049,2.278 l 3.487,-0.543 -1.157,-3.207 c 0.763,-0.951 0.874,-2.105 -0.771,-1.928 -0.244,-1.407 -1.596,-1.219 -2.085,-0.123 -0.029,-0.85 -2.788,-0.492 -1.875,1.157 -1.327,-0.243 -2.479,1.991 -0.648,2.366 z"
           style="fill:#eaeaea;stroke:#939393" />
        <path
           id="use238"
           d="m 250.607,131.375 c -0.198,0.7 -0.839,1.272 -0.456,2.138 -0.609,-0.146 -0.738,-0.505 -2.103,-0.315 0.116,0.87 0.202,1.777 0.771,2.103 -0.968,0.215 -1.112,0.704 -1.577,1.086 2.111,-0.278 3.448,1.899 6.308,0.596 0.937,-3.723 -2.147,-2.957 -2.944,-5.608 z"
           style="fill:#327432;stroke:#265826" />
      </g>
      <path
         id="use242"
         d="m 246.629,132.216 c -0.543,-0.335 -1.478,0.411 -0.924,0.939 0.356,0.18 1.217,0.449 0.612,0.921 -0.675,0.419 0.251,0.98 0.715,0.956 0.709,-0.044 0.384,-0.846 0.368,-1.293 -0.063,-0.486 0.116,-1.155 0.71,-1.167 0.503,-0.104 1.378,0.298 1.507,-0.454 0.252,-0.46 0.689,-1.458 -0.196,-1.373 -0.388,-0.15 0.016,-1.192 -0.64,-0.674 -0.37,0.252 -0.457,1.198 -1.037,0.637 -0.389,-0.571 -1.155,0.035 -0.858,0.588 0.082,0.323 0.152,0.794 -0.257,0.922 z"
         style="fill:#ffffff" />
    </g>
    <g
       stroke-width="0.301"
       id="g250"
       transform="translate(-63.911,-117.847)">
      <path
         d="m 134.472,176.869 c -2.527,-2.086 -4.127,2.845 -2.831,2.977 l 0.597,3.754 3.927,-0.869 c 1.144,0.914 2.548,1.16 2.362,-0.603 1.719,-0.103 1.514,-1.555 0.188,-2.195 1.035,0.063 0.651,-2.899 -1.374,-2.115 0.32,-1.378 -2.379,-2.847 -2.87,-0.949 z"
         class="I J"
         id="path246" />
      <path
         d="m 131.281,178.438 c 0.282,2.131 -2.064,3.297 -1.074,6.064 l -1.653,1.967 0.52,0.545 2.032,-1.778 c 3.766,0.877 3.145,-2.156 6.217,-2.677 -0.848,-0.287 -1.535,-1.029 -2.596,-0.72 0.189,-0.629 0.629,-0.726 0.423,-2.193 -1.061,0.027 -2.168,0.017 -2.576,0.583 -0.244,-1.049 -0.837,-1.256 -1.294,-1.791 z"
         class="K L"
         id="path248" />
    </g>
    <path
       d="m 72.461,60.404 c 0.418,-0.538 -0.473,-1.611 -1.126,-1.083 -0.226,0.357 -0.569,1.24 -1.133,0.546 -0.498,-0.761 -1.198,0.157 -1.177,0.651 0.041,0.755 1.024,0.5 1.568,0.533 0.593,-0.012 1.405,0.251 1.408,0.881 0.118,0.544 -0.388,1.427 0.526,1.647 0.555,0.318 1.763,0.892 1.676,-0.055 0.19,-0.395 1.451,0.149 0.832,-0.604 -0.3,-0.42 -1.451,-0.617 -0.757,-1.169 0.703,-0.349 -0.022,-1.227 -0.7,-0.974 -0.394,0.051 -0.97,0.073 -1.118,-0.374 z"
       class="G"
       id="path252" />
  </g>
  <g
     transform="translate(-179.544,-117.847)"
     id="g268">
    <g
       stroke="#696969"
       class="F O"
       id="g264">
      <path
         d="m 203.93,190.706 -2.924,5.65 c -0.168,-0.725 -0.182,-0.935 -3.5,-1.865 -3.442,-0.965 -4.658,-2.728 -6.408,-4.202 l 3.365,-3.82 c 0.832,1.154 2.455,2.24 4.521,2.488 4.652,0.56 4.144,0.938 4.947,1.749 z"
         fill="url(#C)"
         id="path254"
         style="fill:url(#C);" />
      <path
         d="m 199.618,191.697 -3.073,4.064 c 1.333,0.41 2.428,1.147 4.461,0.595 l 2.924,-5.65 c -1.067,0.905 -2.645,1.018 -4.312,0.991 z"
         fill="#bcbcbc"
         id="path256" />
      <path
         d="m 237.336,190.706 2.924,5.65 c 0.168,-0.725 0.182,-0.935 3.5,-1.865 3.442,-0.965 4.658,-2.728 6.408,-4.202 l -3.365,-3.82 c -0.832,1.154 -2.455,2.24 -4.521,2.488 -4.652,0.56 -4.144,0.938 -4.947,1.749 z"
         fill="url(#D)"
         id="path258"
         style="fill:url(#D);" />
      <path
         d="m 241.648,191.697 3.073,4.064 c -1.333,0.41 -2.428,1.147 -4.461,0.595 l -2.924,-5.65 c 1.067,0.905 2.645,1.018 4.312,0.991 z"
         fill="#bcbcbc"
         id="path260" />
      <path
         d="m 199.618,191.697 -3.073,4.064 c 7.629,8.291 18.418,9.665 24.088,9.665 5.67,0 16.459,-1.374 24.088,-9.665 l -3.073,-4.064 c -5.312,3.595 -10.843,7.335 -21.015,7.335 -10.172,0 -15.703,-3.74 -21.015,-7.335 z"
         class="G"
         id="path262" />
    </g>
    <path
       d="m 202.123,198.81 q -10e-4,0.016 -0.009,0.028 0.002,0.01 0.005,0.019 0.002,0.01 -0.001,0.016 0.006,0.004 0.012,0.007 0.009,0.039 0.026,0.066 0.023,0.031 0.043,0.052 0.026,0.025 0.059,0.053 0.042,0.026 0.09,0.056 0.138,0.086 0.24,0.108 0.112,0.02 0.199,-0.026 0.077,-0.044 0.188,-0.182 0.121,-0.141 0.27,-0.381 l 1.326,-2.133 q 0.041,-0.066 0.056,-0.131 0.016,-0.065 -0.002,-0.117 -0.017,-0.052 -0.076,-0.105 -0.049,-0.055 -0.139,-0.111 l -0.394,-0.261 0.309,-0.497 2.259,1.404 -0.309,0.497 -0.216,-0.134 q -0.103,-0.048 -0.18,-0.071 -0.067,-0.025 -0.122,-0.018 -0.055,0.008 -0.106,0.05 -0.052,0.043 -0.1,0.121 l -1.311,2.109 q -0.093,0.15 -0.189,0.264 -0.087,0.112 -0.18,0.196 -0.084,0.081 -0.187,0.141 -0.1,0.054 -0.207,0.079 -0.143,0.044 -0.296,0.049 -0.153,0.005 -0.32,-0.033 -0.165,-0.028 -0.324,-0.093 -0.156,-0.056 -0.3,-0.145 -0.27,-0.168 -0.448,-0.362 -0.179,-0.194 -0.264,-0.405 -0.087,-0.22 -0.065,-0.431 0.023,-0.21 0.149,-0.414 0.075,-0.12 0.177,-0.205 0.109,-0.082 0.243,-0.123 0.14,-0.038 0.256,-0.024 0.126,0.012 0.234,0.079 0.12,0.075 0.197,0.164 0.083,0.093 0.114,0.204 0.035,0.105 0.015,0.217 -0.02,0.112 -0.087,0.22 -0.045,0.072 -0.1,0.121 -0.049,0.053 -0.109,0.082 -0.056,0.023 -0.146,0.034 -0.08,0.008 -0.186,-0.008 -0.01,0.002 -0.025,10e-4 -0.01,0.002 -0.022,-0.005 -0.006,-0.004 -0.016,-0.001 -0.006,-0.004 -0.006,-0.004 -0.01,0.002 -0.019,0.005 -0.006,-0.004 -0.012,-0.007 l 0.007,-0.012 z m 9.731,-0.002 -0.645,1.725 -0.588,-0.22 q 0.079,-0.272 0.112,-0.5 0.033,-0.229 0.017,-0.408 -0.016,-0.179 -0.187,-0.326 -0.169,-0.153 -0.486,-0.272 l -1.158,-0.448 -0.48,1.282 0.449,0.168 q 0.004,0.009 0.011,0.012 0.007,0.002 0.013,0.005 0,0 0.007,0.002 0.007,0.002 0.013,0.005 0.126,0.047 0.221,0.053 0.102,0.008 0.168,-0.027 0.073,-0.033 0.139,-0.129 0.066,-0.096 0.12,-0.241 l 0.091,-0.244 0.595,0.223 -0.786,2.101 -0.595,-0.223 0.099,-0.264 q 0.054,-0.145 0.065,-0.254 0.02,-0.113 -0.016,-0.179 -0.026,-0.07 -0.125,-0.13 -0.089,-0.064 -0.241,-0.12 l -0.444,-0.181 -0.529,1.414 1.249,0.467 q 0.004,0.009 0.004,0.009 0.007,0.002 0.013,0.005 0,0 0,0 0.007,0.002 0.013,0.005 0.218,0.082 0.404,0.068 0.195,-0.018 0.351,-0.132 0.163,-0.112 0.309,-0.344 0.149,-0.238 0.28,-0.588 l 0.626,0.219 -0.74,1.878 -4.513,-1.689 0.203,-0.542 0.344,0.129 q 0.011,0.012 0.024,0.017 0.013,0.005 0.02,0.007 0.079,0.03 0.144,0.039 0.067,0.002 0.112,-0.018 0.052,-0.018 0.094,-0.07 0.042,-0.052 0.074,-0.138 l 1.014,-2.709 q 0.027,-0.073 0.03,-0.14 0.002,-0.067 -0.025,-0.115 -0.027,-0.048 -0.093,-0.095 -0.059,-0.045 -0.158,-0.082 l -0.339,-0.142 0.205,-0.548 4.513,1.689 z m 3.206,0.649 0.764,3.019 1.577,-2.695 2.194,0.304 -0.08,0.58 -0.363,-0.05 q -0.107,-0.001 -0.187,0.01 -0.073,0.011 -0.12,0.04 -0.047,0.029 -0.077,0.089 -0.03,0.06 -0.042,0.151 l -0.393,2.837 q -0.014,0.098 -0.002,0.171 0.012,0.066 0.049,0.107 0.036,0.048 0.103,0.078 0.075,0.025 0.18,0.039 l 0.365,0.036 -0.079,0.573 -2.635,-0.365 0.079,-0.573 0.363,0.05 q 0.013,0.009 0.027,0.011 0.014,0.002 0.021,0.003 0.084,0.012 0.149,0.006 0.066,-0.012 0.106,-0.042 0.047,-0.029 0.077,-0.089 0.03,-0.06 0.042,-0.151 l 0.368,-2.656 -1.973,3.338 -0.524,-0.073 -0.949,-3.793 -0.373,2.691 q -0.014,0.098 -0.002,0.171 0.012,0.066 0.049,0.107 0.036,0.048 0.103,0.078 0.075,0.025 0.18,0.039 l 0.33,0.032 -0.079,0.573 -2.18,-0.302 0.079,-0.573 0.363,0.05 q 0.013,0.009 0.027,0.011 0.014,0.002 0.021,0.003 0.084,0.012 0.149,0.006 0.066,-0.012 0.106,-0.042 0.047,-0.029 0.077,-0.089 0.03,-0.06 0.042,-0.151 l 0.397,-2.865 q 0.011,-0.077 -0.002,-0.143 -0.012,-0.066 -0.049,-0.107 -0.037,-0.041 -0.111,-0.072 -0.067,-0.031 -0.172,-0.045 l -0.361,-0.064 0.08,-0.58 2.285,0.317 z m 9.42,2.506 q 0.222,0.04 0.419,0.118 0.197,0.078 0.362,0.207 0.172,0.122 0.263,0.306 0.098,0.184 0.116,0.43 0.024,0.324 -0.078,0.579 -0.095,0.255 -0.307,0.447 -0.212,0.192 -0.523,0.3 -0.311,0.101 -0.719,0.13 l -3.209,0.234 -0.042,-0.577 0.366,-0.027 q 0.015,0.006 0.029,0.005 0.014,-0.001 0.021,-0.002 0.084,-0.006 0.147,-0.025 0.062,-0.026 0.094,-0.064 0.04,-0.038 0.056,-0.103 0.017,-0.065 0.01,-0.156 l -0.211,-2.885 q -0.006,-0.077 -0.031,-0.139 -0.026,-0.062 -0.071,-0.094 -0.045,-0.032 -0.124,-0.048 -0.072,-0.016 -0.177,-0.008 l -0.367,0.013 -0.043,-0.584 3.181,-0.232 q 0.395,-0.015 0.703,0.041 0.308,0.055 0.53,0.188 0.215,0.14 0.337,0.357 0.121,0.21 0.143,0.499 0.014,0.19 -0.031,0.349 -0.046,0.152 -0.149,0.28 -0.104,0.128 -0.279,0.247 -0.168,0.118 -0.415,0.228 z m -1.811,2.035 0.858,-0.063 q 0.008,0.007 0.015,0.006 0.007,-0.001 0.014,-0.001 0.007,-0.001 0.014,-0.001 0.007,-0.001 0.014,-0.001 0.211,-0.015 0.363,-0.069 0.152,-0.054 0.251,-0.153 0.098,-0.106 0.144,-0.258 0.046,-0.152 0.031,-0.349 -0.013,-0.183 -0.08,-0.32 -0.067,-0.144 -0.179,-0.227 -0.12,-0.09 -0.285,-0.121 -0.158,-0.038 -0.362,-0.023 l -0.909,0.052 0.111,1.527 z m -0.156,-2.132 0.781,-0.057 q 0.015,0.006 0.029,0.005 0.021,-0.002 0.035,-0.003 0.211,-0.015 0.363,-0.062 0.152,-0.054 0.245,-0.138 0.099,-0.092 0.139,-0.229 0.047,-0.138 0.033,-0.321 -0.013,-0.183 -0.079,-0.313 -0.059,-0.13 -0.163,-0.2 -0.104,-0.07 -0.276,-0.093 -0.172,-0.03 -0.411,-0.012 l -0.796,0.044 0.101,1.379 z m 8.542,-3.586 0.469,1.781 -0.607,0.16 q -0.092,-0.268 -0.198,-0.473 -0.105,-0.206 -0.222,-0.343 -0.116,-0.137 -0.341,-0.158 -0.226,-0.028 -0.554,0.058 l -1.204,0.303 0.349,1.324 0.464,-0.122 q 0.009,0.005 0.015,0.003 0.007,-0.002 0.014,-0.004 0,0 0.007,-0.002 0.007,-0.002 0.014,-0.004 0.13,-0.034 0.211,-0.085 0.088,-0.053 0.122,-0.12 0.04,-0.069 0.039,-0.185 -0.001,-0.116 -0.041,-0.266 l -0.066,-0.252 0.614,-0.162 0.572,2.17 -0.614,0.162 -0.072,-0.273 q -0.04,-0.15 -0.094,-0.245 -0.049,-0.104 -0.116,-0.137 -0.062,-0.042 -0.177,-0.034 -0.11,0 -0.266,0.041 l -0.468,0.109 0.385,1.46 1.29,-0.34 q 0.009,0.005 0.009,0.005 0.007,-0.002 0.014,-0.004 0,0 0,0 0.007,-0.002 0.014,-0.004 0.225,-0.059 0.369,-0.178 0.149,-0.127 0.21,-0.311 0.068,-0.186 0.054,-0.459 -0.016,-0.28 -0.111,-0.642 l 0.638,-0.183 0.48,1.96 -4.66,1.228 -0.147,-0.559 0.355,-0.094 q 0.015,0.003 0.029,0 0.014,-0.004 0.02,-0.005 0.082,-0.022 0.14,-0.051 0.056,-0.037 0.081,-0.08 0.032,-0.045 0.036,-0.112 0.004,-0.067 -0.019,-0.155 l -0.737,-2.797 q -0.02,-0.075 -0.056,-0.131 -0.037,-0.056 -0.087,-0.079 -0.05,-0.023 -0.13,-0.024 -0.074,-0.002 -0.176,0.024 l -0.358,0.08 -0.149,-0.566 4.66,-1.228 z m 3.835,1.063 0.58,1.13 q 0.045,0.088 0.096,0.141 0.048,0.047 0.102,0.059 0.057,0.018 0.129,0.005 0.076,-0.023 0.17,-0.071 l 0.32,-0.18 0.264,0.515 -2.366,1.215 -0.264,-0.515 0.326,-0.168 q 0.016,0 0.028,-0.007 0.013,-0.006 0.019,-0.01 0.075,-0.039 0.125,-0.08 0.047,-0.048 0.062,-0.095 0.022,-0.051 0.011,-0.117 -0.01,-0.066 -0.052,-0.148 l -1.322,-2.573 q -0.036,-0.069 -0.083,-0.116 -0.048,-0.047 -0.102,-0.059 -0.054,-0.012 -0.132,0.005 -0.072,0.013 -0.167,0.062 l -0.333,0.155 -0.268,-0.521 3.038,-1.56 q 0.308,-0.142 0.575,-0.192 0.268,-0.05 0.499,-0.002 0.234,0.054 0.416,0.207 0.178,0.146 0.304,0.391 0.1,0.195 0.118,0.384 0.021,0.18 -0.028,0.363 -0.052,0.177 -0.182,0.355 -0.124,0.175 -0.331,0.344 0.202,-0.024 0.356,-0.017 0.155,0.008 0.262,0.048 0.111,0.046 0.203,0.133 0.093,0.087 0.16,0.219 l 0.316,0.615 q 0.006,0.013 0.013,0.025 0.003,0.006 0.01,0.019 0.003,0.006 0.01,0.019 0.003,0.006 0.016,0.016 0.003,0.006 0.01,0.019 0.003,0.006 0.01,0.019 0.003,0.006 0.01,0.019 0.003,0.006 0.01,0.019 0.023,0.044 0.051,0.085 0.035,0.037 0.073,0.065 0.038,0.028 0.079,0.031 0.047,-0.001 0.104,-0.03 0.05,-0.026 0.069,-0.067 0.018,-0.041 0.021,-0.098 -0.007,-0.06 -0.03,-0.135 -0.026,-0.082 -0.078,-0.182 l -0.187,-0.364 0.496,-0.255 0.181,0.351 q 0.132,0.257 0.169,0.468 0.037,0.211 -0.018,0.382 -0.055,0.171 -0.202,0.318 -0.147,0.147 -0.385,0.269 -0.226,0.116 -0.427,0.156 -0.195,0.037 -0.366,0.013 -0.168,-0.033 -0.311,-0.142 -0.137,-0.112 -0.246,-0.294 l -0.402,-0.69 q -0.093,-0.166 -0.189,-0.26 -0.093,-0.103 -0.178,-0.131 -0.085,-0.028 -0.211,0.005 -0.123,0.023 -0.292,0.11 l -0.659,0.323 z m -0.277,-0.54 0.734,-0.377 q 0.01,0.003 0.016,0 0.006,-0.003 0.013,-0.006 0.006,-0.003 0.012,-0.006 0.006,-0.003 0.013,-0.006 0.182,-0.094 0.294,-0.199 0.112,-0.105 0.165,-0.22 0.055,-0.124 0.041,-0.259 -0.011,-0.145 -0.092,-0.302 -0.077,-0.151 -0.182,-0.232 -0.105,-0.081 -0.231,-0.095 -0.126,-0.014 -0.306,0.038 -0.179,0.052 -0.418,0.175 l -0.659,0.323 0.6,1.167 z"
       id="path266" />
  </g>
  <path
     d="M 41.089,22.402 V 73.057"
     fill="none"
     stroke="#0b6e99"
     class="Q"
     id="path270" />
  <g
     class="H N"
     id="g292"
     transform="translate(-63.911,-117.847)">
    <g
       fill="#c58400"
       class="O Q"
       id="g276">
      <path
         d="m 105,143.223 c -20.816,17.084 -10.12,38.5 0,44.013 z"
         id="path272" />
      <path
         d="m 105,143.223 c 20.816,17.084 10.12,38.5 0,44.013 z"
         id="path274" />
    </g>
    <g
       fill="none"
       class="F"
       id="g290">
      <path
         d="m 96.921,175.044 8.079,9.368 m -5.973,-9.616 -0.519,2.088 m 2.378,5.594 2.455,0.009 m -1.934,0.933 2.752,0.016 m -2.827,-8.442 3.668,3.222 m -4.684,-2.132 2.008,-0.219 0.842,-1.168 m 4.312,1.437 -2.478,5.948 m 2.206,-6.939 0.273,0.991 m 2.254,-0.297 -2.255,0.297 m 1.165,-1.016 -1.165,1.016 m -2.478,7.128 6.372,-6.466 m -0.316,-2.05 0.315,2.05 2.296,-1.63 m -8.667,9.245 4.654,-2.043 m -1.77,-1.366 -0.191,2.227 m -9.781,-20.205 1.066,2.776"
         id="path278" />
      <path
         d="m 95.731,164.263 3.246,1.536 6.022,3.42 2.85,-1.66 0.768,-1.115 m -0.767,1.115 1.997,0.299 m -13.178,-8.375 3.119,1.367 m -2.102,-3.751 2.103,3.75 5.212,6.063 m -2.899,-7.079 -0.089,3.604 m 2.987,3.825 5.849,-3.172 1.784,-3.346"
         id="path280" />
      <path
         d="m 113.55,163.693 -2.701,0.397 m -2.479,-2.776 0.719,1.165 m 1.14,-1.115 -1.14,1.115 -0.539,2.857 m -1.163,0.631 4.75,-0.143 m -2.375,0.072 1.706,1.143 m -12.862,-10.954 6.394,4.139 -2.602,-5.626 m -1.908,-2.056 0.124,2.354 2.558,1.376 m -2.98,-0.286 3.851,2.169 m 0.957,4.25 6.047,-5.873 0.372,-2.156"
         id="path282" />
      <path
         d="m 107.28,157.448 -0.156,2.893 m 2.213,-4.9 -0.441,3.18 m -1.312,1.274 3.488,-1.232"
         id="path284" />
      <path
         d="m 108.657,159.516 3.951,-0.357 m -7.608,-2.652 4.015,-3.346 0.768,-2.379"
         id="path286" />
      <path
         d="m 107.776,151.154 0.081,2.972 m 1.158,-0.965 1.983,-0.917 m -2.383,1.25 3.671,0.063 m -11.549,-2.23 2.726,0.768 m -1.734,-3.296 0.198,1.636 3.073,3.321 m -1.537,-7.93 -0.273,1.586 1.809,0.892 m -2.626,-1.363 0.818,0.471 m 3.469,-1.933 -1.66,1.76 m 2.131,-0.001 -0.124,1.313 -2.007,1.636 m 2.007,-1.635 1.313,-0.347"
         id="path288" />
    </g>
  </g>
  <g
     class="H"
     id="g410"
     transform="translate(-63.911,-117.847)">
    <path
       id="use294"
       d="m 87.283,164.564 v 11.706 c 3.64,-1.108 7.167,-2.83 17.716,-2.418 v -4.731 c -9.488,0.236 -13.418,-3.107 -17.716,-4.556 z"
       style="fill:#ffffff;stroke:#000000;stroke-width:0.265" />
    <path
       id="use296"
       d="m 87.756,171.346 0.035,3.855 h 0.596 v -2.383 l -0.333,-0.07 v -1.209 z" />
    <path
       id="use298"
       d="m 89.07,171.083 0.035,3.855 h 0.596 v -2.383 l -0.333,-0.07 v -1.209 z" />
    <path
       id="use300"
       d="m 90.42,170.996 0.035,3.575 h 0.596 v -2.21 l -0.333,-0.065 v -1.121 z" />
    <path
       id="use302"
       d="m 91.874,170.873 0.035,3.329 h 0.596 v -2.058 l -0.333,-0.06 v -1.044 z" />
    <path
       id="use304"
       d="m 93.083,170.908 0.035,3.067 h 0.596 v -1.896 l -0.333,-0.056 v -0.962 z" />
    <path
       id="use306"
       d="m 94.484,170.958 0.035,2.782 h 0.596 v -1.72 l -0.333,-0.05 v -0.872 z" />
    <path
       id="use308"
       d="m 95.648,171.205 0.035,2.385 h 0.596 v -1.474 l -0.333,-0.043 v -0.748 z" />
    <path
       id="use310"
       d="m 96.949,171.304 0.035,2.224 h 0.596 v -1.375 l -0.333,-0.04 v -0.698 z" />
    <path
       id="use312"
       d="m 98.201,171.304 0.035,2.224 h 0.596 v -1.375 l -0.333,-0.04 v -0.698 z" />
    <path
       id="use314"
       d="m 99.477,171.267 0.035,2.224 h 0.596 v -1.375 l -0.333,-0.04 v -0.698 z" />
    <path
       id="use316"
       d="m 99.477,169.099 0.035,1.778 h 0.596 v -1.099 l -0.333,-0.032 v -0.558 z" />
    <path
       id="use318"
       d="m 98.201,168.888 0.035,1.902 h 0.596 v -1.176 l -0.333,-0.035 v -0.596 z" />
    <path
       id="use320"
       d="m 96.962,168.591 0.035,2.075 h 0.596 v -1.283 l -0.333,-0.038 v -0.651 z" />
    <path
       id="use322"
       d="m 95.661,168.232 0.035,2.199 h 0.596 v -1.36 l -0.333,-0.04 v -0.69 z" />
    <path
       id="use324"
       d="m 87.756,164.928 0.035,3.855 h 0.596 V 166.4 l -0.333,-0.07 v -1.209 z" />
    <path
       id="use326"
       d="m 89.094,165.745 0.035,3.285 h 0.596 v -2.302 l -0.333,-0.06 v -0.759 z" />
    <path
       id="use328"
       d="m 90.383,166.291 0.035,3.285 h 0.596 v -2.364 l -0.333,-0.06 v -0.697 z" />
    <path
       id="use330"
       d="m 91.87,166.861 0.035,2.963 h 0.596 v -2.042 l -0.333,-0.06 v -0.697 z" />
    <path
       id="use332"
       d="m 93.122,167.344 0.035,2.851 h 0.596 v -1.93 l -0.333,-0.06 v -0.697 z" />
    <path
       id="use334"
       d="m 94.423,167.728 0.035,2.628 h 0.596 v -1.707 l -0.333,-0.06 v -0.697 z" />
    <g
       class="F G M"
       id="g340">
      <path
         d="m 87.283,164.564 v 11.706 l -1.91,-0.894 v -10.129 z"
         id="path336" />
      <path
         d="m 85.373,165.248 1.91,-0.683 -0.561,-0.894 -1.717,0.789 z"
         id="path338" />
    </g>
    <g
       transform="matrix(-1,0,0,1,296.1317,0)"
       id="g390">
      <path
         id="use342"
         d="m 173.416,164.564 v 11.706 c 3.64,-1.108 7.167,-2.83 17.716,-2.418 v -4.731 c -9.488,0.236 -13.418,-3.107 -17.716,-4.556 z"
         style="fill:#ffffff;stroke:#000000;stroke-width:0.265" />
      <path
         id="use344"
         d="m 173.889,171.346 0.035,3.855 h 0.596 v -2.383 l -0.333,-0.07 v -1.209 z" />
      <path
         id="use346"
         d="m 175.203,171.083 0.035,3.855 h 0.596 v -2.383 l -0.333,-0.07 v -1.209 z" />
      <path
         id="use348"
         d="m 176.553,170.996 0.035,3.575 h 0.596 v -2.21 l -0.333,-0.065 v -1.121 z" />
      <path
         id="use350"
         d="m 178.007,170.873 0.035,3.329 h 0.596 v -2.058 l -0.333,-0.06 v -1.044 z" />
      <path
         id="use352"
         d="m 179.216,170.908 0.035,3.067 h 0.596 v -1.896 l -0.333,-0.056 v -0.962 z" />
      <path
         id="use354"
         d="m 180.617,170.958 0.035,2.782 h 0.596 v -1.72 l -0.333,-0.05 v -0.872 z" />
      <path
         id="use356"
         d="m 181.781,171.205 0.035,2.385 h 0.596 v -1.474 l -0.333,-0.043 v -0.748 z" />
      <path
         id="use358"
         d="m 183.082,171.304 0.035,2.224 h 0.596 v -1.375 l -0.333,-0.04 v -0.698 z" />
      <path
         id="use360"
         d="m 184.334,171.304 0.035,2.224 h 0.596 v -1.375 l -0.333,-0.04 v -0.698 z" />
      <path
         id="use362"
         d="m 185.61,171.267 0.035,2.224 h 0.596 v -1.375 l -0.333,-0.04 v -0.698 z" />
      <path
         id="use364"
         d="m 185.61,169.099 0.035,1.778 h 0.596 v -1.099 l -0.333,-0.032 v -0.558 z" />
      <path
         id="use366"
         d="m 184.334,168.888 0.035,1.902 h 0.596 v -1.176 l -0.333,-0.035 v -0.596 z" />
      <path
         id="use368"
         d="m 183.095,168.591 0.035,2.075 h 0.596 v -1.283 l -0.333,-0.038 v -0.651 z" />
      <path
         id="use370"
         d="m 181.794,168.232 0.035,2.199 h 0.596 v -1.36 l -0.333,-0.04 v -0.69 z" />
      <path
         id="use372"
         d="m 173.889,164.928 0.035,3.855 h 0.596 V 166.4 l -0.333,-0.07 v -1.209 z" />
      <path
         id="use374"
         d="m 175.227,165.745 0.035,3.285 h 0.596 v -2.302 l -0.333,-0.06 v -0.759 z" />
      <path
         id="use376"
         d="m 176.516,166.291 0.035,3.285 h 0.596 v -2.364 l -0.333,-0.06 v -0.697 z" />
      <path
         id="use378"
         d="m 178.003,166.861 0.035,2.963 h 0.596 v -2.042 l -0.333,-0.06 v -0.697 z" />
      <path
         id="use380"
         d="m 179.255,167.344 0.035,2.851 h 0.596 v -1.93 l -0.333,-0.06 v -0.697 z" />
      <path
         id="use382"
         d="m 180.556,167.728 0.035,2.628 h 0.596 v -1.707 l -0.333,-0.06 v -0.697 z" />
      <g
         class="F G M"
         id="g388">
        <path
           d="m 173.416,164.564 v 11.706 l -1.91,-0.894 v -10.129 z"
           id="path384" />
        <path
           d="m 171.506,165.248 1.91,-0.683 -0.561,-0.894 -1.717,0.789 z"
           id="path386" />
      </g>
    </g>
    <g
       class="F G M O P"
       id="g396">
      <path
         d="M 100.539,168.749 H 105 v 6.072 h -4.461 z"
         class="H"
         id="path392" />
      <path
         d="m 105,168.749 h 4.461 v 6.072 H 105 Z"
         class="H"
         id="path394" />
    </g>
    <path
       d="m 100.539,170.112 h 8.922 m -8.922,0.892 h 8.922"
       fill="none"
       class="F M"
       id="path398" />
    <g
       class="P"
       id="g408">
      <path
         id="use400"
         d="m 101.446,171.504 h 0.859 v 3.317 h -0.859 z"
         style="opacity:0.999" />
      <path
         id="use402"
         d="m 103.075,171.504 h 0.859 v 3.317 h -0.859 z"
         style="opacity:0.999" />
      <path
         id="use404"
         d="m 106.072,171.504 h 0.859 v 3.317 h -0.859 z"
         style="opacity:0.999" />
      <path
         id="use406"
         d="m 107.702,171.504 h 0.859 v 3.317 h -0.859 z"
         style="opacity:0.999" />
    </g>
  </g>
  <g
     transform="matrix(0.915814,0,0,0.915814,-133.95281,-102.6272)"
     id="g444">
    <g
       class="C O"
       id="g424">
      <g
         class="F"
         id="g420">
        <path
           d="m 209.56,176.853 c -0.67,3.206 -3.746,1.242 -5.39,2.624 l 0.14,3.365 c 0.955,-0.549 1.537,-0.809 4.358,-1.28 0.953,-0.159 2.855,-1.189 0.892,-4.709 z"
           fill="url(#G)"
           id="path412"
           style="fill:url(#G);" />
        <path
           d="m 206.132,181.562 -0.07,2.734 -1.752,-1.454 -0.14,-3.365 c 0.097,1.098 1.096,1.465 1.963,2.085 z"
           fill="#e5e500"
           id="path414" />
        <path
           d="m 172.705,176.853 c 0.67,3.206 3.746,1.242 5.39,2.624 l -0.14,3.365 c -0.955,-0.549 -1.537,-0.809 -4.358,-1.28 -0.953,-0.159 -2.855,-1.189 -0.892,-4.709 z"
           fill="url(#E)"
           id="path416"
           style="fill:url(#E);" />
        <path
           d="m 176.132,181.562 0.07,2.734 1.752,-1.454 0.14,-3.365 c -0.097,1.098 -1.096,1.465 -1.963,2.085 z"
           fill="#e5e500"
           id="path418" />
      </g>
      <path
         d="m 480.834,229.678 c -10.046,0 -23.836,3.369 -31.398,7.242 -11.723,6.004 -17.337,3.534 -25.295,3.895 l 0.266,10.332 c 6.594,1.682 12.936,3.715 27.408,-3.242 12.043,-5.789 19.825,-7.354 29.02,-7.354 9.195,0 16.979,1.565 29.021,7.354 14.472,6.957 20.814,4.924 27.408,3.242 l 0.264,-10.332 c -7.958,-0.36 -13.569,2.11 -25.293,-3.895 -7.563,-3.873 -21.354,-7.242 -31.4,-7.242 z"
         transform="matrix(0.264583,0,0,0.264583,63.91149,117.8467)"
         fill="url(#F)"
         stroke-width="1.002"
         id="path422"
         style="fill:url(#F);" />
    </g>
    <path
       d="m 178.488,182.545 q 0.263,0.022 0.397,0.173 0.134,0.151 0.135,0.329 l -0.183,-0.015 q -0.02,-0.137 -0.107,-0.223 -0.086,-0.086 -0.254,-0.1 -0.205,-0.017 -0.343,0.117 -0.137,0.133 -0.162,0.43 -0.02,0.244 0.081,0.405 0.102,0.161 0.327,0.179 0.208,0.017 0.33,-0.133 0.065,-0.079 0.104,-0.214 l 0.183,0.015 q -0.043,0.217 -0.193,0.354 -0.18,0.165 -0.46,0.141 -0.242,-0.02 -0.394,-0.18 -0.2,-0.212 -0.167,-0.616 0.025,-0.307 0.204,-0.49 0.193,-0.199 0.502,-0.173 z m -0.038,-0.003 z"
       id="path426" />
    <path
       d="m 179.819,183.336 -0.291,-0.581 -0.141,0.639 z m -0.416,-0.773 0.211,-0.028 0.685,1.312 -0.205,0.028 -0.195,-0.394 -0.546,0.073 -0.094,0.433 -0.192,0.026 z m 0.097,-0.013 z m 1.369,0.334 q 0.127,-0.038 0.185,-0.111 0.059,-0.073 0.019,-0.206 -0.043,-0.142 -0.162,-0.163 -0.064,-0.011 -0.156,0.017 l -0.441,0.132 0.137,0.456 z m -0.781,-0.432 0.617,-0.185 q 0.152,-0.046 0.265,-0.031 0.213,0.029 0.282,0.259 0.036,0.12 0.009,0.211 -0.026,0.091 -0.101,0.164 0.088,0.008 0.142,0.048 0.055,0.04 0.095,0.155 l 0.06,0.177 q 0.026,0.075 0.047,0.11 0.035,0.059 0.083,0.064 l 0.009,0.03 -0.221,0.066 q -0.014,-0.014 -0.028,-0.04 -0.014,-0.026 -0.041,-0.103 l -0.077,-0.219 q -0.046,-0.129 -0.15,-0.146 -0.059,-0.009 -0.17,0.024 l -0.411,0.123 0.171,0.572 -0.181,0.054 z"
       id="path428" />
    <path
       d="m 181.14,182.127 0.203,-0.083 0.623,0.468 0.117,-0.77 0.204,-0.083 -0.173,0.968 0.212,0.519 -0.175,0.071 -0.212,-0.519 z m 0.576,-0.235 z m 1.517,0.213 -0.452,-0.468 0.057,0.652 z m -0.628,-0.613 0.193,-0.09 1.047,1.047 -0.187,0.087 -0.304,-0.318 -0.499,0.233 0.04,0.441 -0.175,0.082 z m 0.088,-0.041 z m 2.137,0.397 q 0.089,-0.036 0.138,-0.077 0.088,-0.075 0.114,-0.199 0.02,-0.099 -0.006,-0.23 -0.016,-0.078 -0.041,-0.141 -0.097,-0.24 -0.246,-0.334 -0.148,-0.094 -0.36,-0.009 l -0.31,0.125 0.4,0.991 z m -0.948,-0.944 0.523,-0.211 q 0.266,-0.107 0.489,0.022 0.2,0.118 0.307,0.384 0.083,0.206 0.073,0.403 -0.018,0.348 -0.35,0.482 l -0.521,0.21 z"
       id="path430" />
    <path
       d="m 185.271,180.354 0.181,-0.059 0.178,0.547 0.688,-0.225 -0.178,-0.547 0.181,-0.059 0.432,1.323 -0.181,0.059 -0.202,-0.619 -0.688,0.225 0.202,0.619 -0.181,0.059 z m 2.325,0.181 -0.348,-0.549 -0.076,0.65 z m -0.491,-0.728 0.207,-0.049 0.813,1.237 -0.201,0.048 -0.234,-0.373 -0.536,0.127 -0.05,0.44 -0.188,0.045 z m 0.095,-0.023 z m 1.629,0.345 q 0.131,-0.019 0.2,-0.082 0.07,-0.063 0.05,-0.2 -0.021,-0.147 -0.135,-0.186 -0.061,-0.02 -0.157,-0.007 l -0.456,0.065 0.067,0.471 z m -0.707,-0.544 0.638,-0.09 q 0.158,-0.022 0.266,0.009 0.207,0.061 0.24,0.298 0.018,0.124 -0.023,0.21 -0.04,0.086 -0.125,0.147 0.085,0.021 0.133,0.069 0.049,0.048 0.071,0.167 l 0.033,0.184 q 0.014,0.078 0.03,0.115 0.026,0.063 0.072,0.076 l 0.004,0.031 -0.229,0.032 q -0.012,-0.017 -0.022,-0.044 -0.01,-0.027 -0.025,-0.107 l -0.044,-0.228 q -0.026,-0.134 -0.126,-0.167 -0.057,-0.018 -0.171,-0.002 l -0.425,0.06 0.084,0.591 -0.187,0.026 z"
       id="path432" />
    <path
       d="m 189.619,179.392 0.27,-0.012 0.45,1.158 0.346,-1.193 0.267,-0.012 0.06,1.39 -0.179,0.008 -0.035,-0.821 q -0.002,-0.043 -0.004,-0.141 -0.002,-0.099 -0.007,-0.211 l -0.346,1.19 -0.186,0.008 -0.45,-1.155 0.002,0.043 q 0.002,0.051 0.009,0.156 0.007,0.104 0.009,0.153 l 0.035,0.821 -0.18,0.008 z m 2.413,0.794 -0.191,-0.621 -0.244,0.607 z m -0.283,-0.831 0.213,0.007 0.459,1.407 -0.206,-0.007 -0.128,-0.421 -0.55,-0.018 -0.164,0.412 -0.193,-0.006 z m 0.097,0.003 z m 1.399,0.097 0.619,0.092 q 0.184,0.027 0.281,0.148 0.097,0.12 0.069,0.307 -0.024,0.161 -0.142,0.266 -0.118,0.104 -0.326,0.073 l -0.433,-0.064 -0.086,0.582 -0.186,-0.028 z m 0.781,0.52 q 0.023,-0.152 -0.082,-0.223 -0.058,-0.038 -0.165,-0.054 l -0.371,-0.055 -0.071,0.477 0.371,0.055 q 0.126,0.019 0.211,-0.023 0.087,-0.042 0.107,-0.177 z m 1.084,0.477 q 0.129,0.031 0.216,-0.002 0.088,-0.033 0.121,-0.168 0.035,-0.144 -0.057,-0.223 -0.049,-0.041 -0.143,-0.064 l -0.447,-0.109 -0.113,0.462 z m -0.455,-0.767 0.626,0.153 q 0.155,0.038 0.244,0.107 0.169,0.133 0.113,0.366 -0.03,0.121 -0.099,0.186 -0.069,0.065 -0.17,0.09 0.071,0.052 0.098,0.114 0.028,0.062 0.004,0.181 l -0.038,0.183 q -0.016,0.078 -0.015,0.118 0.001,0.069 0.039,0.097 l -0.007,0.03 -0.225,-0.055 q -0.005,-0.02 -0.004,-0.049 0.001,-0.029 0.017,-0.109 l 0.044,-0.228 q 0.026,-0.134 -0.055,-0.202 -0.046,-0.038 -0.159,-0.065 l -0.417,-0.102 -0.141,0.58 -0.183,-0.045 z"
       id="path434" />
    <path
       d="m 196.516,181.063 -0.007,-0.65 -0.407,0.513 z m -0.035,-0.877 0.202,0.067 0.04,1.48 -0.196,-0.065 -0.002,-0.44 -0.522,-0.174 -0.274,0.348 -0.183,-0.061 z m 0.093,0.031 z"
       id="path436" />
    <path
       d="m 197.669,181.666 q -0.065,0.164 -0.149,0.235 -0.155,0.13 -0.407,0.03 -0.145,-0.058 -0.217,-0.177 -0.072,-0.12 0.008,-0.322 l 0.037,-0.093 0.165,0.065 -0.037,0.093 q -0.042,0.106 -0.016,0.178 0.027,0.072 0.126,0.111 0.14,0.055 0.221,-0.024 0.05,-0.049 0.115,-0.212 l 0.341,-0.863 0.174,0.069 z"
       id="path438" />
    <path
       d="m 198.666,181.932 0.058,-0.648 -0.456,0.47 z m 0.052,-0.876 0.195,0.087 -0.107,1.477 -0.189,-0.084 0.041,-0.438 -0.503,-0.225 -0.308,0.319 -0.176,-0.079 z m 0.089,0.04 z m 0.712,0.343 0.247,0.11 -0.113,1.238 0.841,-0.914 0.244,0.109 -0.566,1.272 -0.164,-0.073 0.334,-0.751 q 0.017,-0.039 0.059,-0.128 0.042,-0.089 0.088,-0.192 l -0.84,0.911 -0.171,-0.076 0.112,-1.235 -0.017,0.039 q -0.021,0.047 -0.062,0.144 -0.04,0.096 -0.06,0.141 l -0.334,0.751 -0.164,-0.073 z m 1.553,0.665 -0.272,0.816 q -0.048,0.144 -0.026,0.257 0.032,0.17 0.222,0.234 0.227,0.076 0.361,-0.053 0.072,-0.07 0.12,-0.213 l 0.272,-0.816 0.182,0.06 -0.247,0.742 q -0.081,0.244 -0.19,0.353 -0.2,0.199 -0.534,0.088 -0.334,-0.111 -0.374,-0.39 -0.022,-0.153 0.059,-0.397 l 0.247,-0.742 z m 0.339,0.113 z m 0.609,0.203 0.181,0.033 -0.12,0.668 0.788,-0.547 0.256,0.046 -0.669,0.449 0.438,0.923 -0.241,-0.043 -0.356,-0.773 -0.257,0.17 -0.086,0.477 -0.181,-0.033 z"
       id="path440" />
    <path
       d="m 204.048,182.59 0.002,0.166 -0.469,0.006 0.015,1.226 -0.191,0.002 -0.015,-1.226 -0.469,0.006 -0.002,-0.166 z m 0.018,-0.038 0.188,-0.029 0.211,1.376 -0.188,0.029 z"
       id="path442" />
  </g>
</svg>
