<svg xmlns="http://www.w3.org/2000/svg" xmlns:xlink="http://www.w3.org/1999/xlink" width="312.607" height="453.582" xmlns:v="https://vecta.io/nano"><style><![CDATA[.B{fill-rule:evenodd}.C{fill:none}.D{stroke-width:.247}.E{stroke-linejoin:round}.F{stroke-miterlimit:10}.G{stroke:#1f1a17}.H{clip-rule:evenodd}.I{fill:#fff}.J{fill:#fff500}.K{fill:#84c225}.L{fill:#fff974}.M{fill:#1f1a17}.N{fill:#da251d}]]></style><defs><clipPath id="A"><path d="M0 0h530.29v726.65H0z"/></clipPath><clipPath ><path d="M28.388 436.31h78.025v59.8H28.388z" class="H"/></clipPath><clipPath ><path d="M28.4 436.3h78.025v59.8H28.4z" class="H"/></clipPath><clipPath ><path d="M106.41 436.31h14.625v59.8H106.41z" class="H"/></clipPath><clipPath ><path d="M106.43 436.3h14.625v59.8H106.43z" class="H"/></clipPath><clipPath ><path d="M28.388 381.11h78.025v55.2H28.388z" class="H"/></clipPath><clipPath ><path d="M28.4 381.1h78.025v55.2H28.4z" class="H"/></clipPath><clipPath ><path d="M106.41 381.11h14.625v55.2H106.41z" class="H"/></clipPath><clipPath ><path d="M106.43 381.1h14.625v55.2H106.43z" class="H"/></clipPath><clipPath ><path d="M28.388 312.09h78.025v41.4H28.388z" class="H"/></clipPath><clipPath ><path d="M28.4 312.07h78.025v41.4H28.4z" class="H"/></clipPath><clipPath ><path d="M106.41 312.09h14.625v41.4H106.41z" class="H"/></clipPath><clipPath ><path d="M106.43 312.07h14.625v41.4H106.43z" class="H"/></clipPath><clipPath ><path d="M28.388 256.89h78.025v55.2H28.388z" class="H"/></clipPath><clipPath ><path d="M28.4 256.87h78.025v55.2H28.4z" class="H"/></clipPath><clipPath ><path d="M106.41 256.89h14.625v55.2H106.41z" class="H"/></clipPath><clipPath ><path d="M106.43 256.87h14.625v55.2H106.43z" class="H"/></clipPath><clipPath ><path d="M28.388 160.26h78.025v96.625H28.388z" class="H"/></clipPath><clipPath ><path d="M28.4 160.25h78.025v96.625H28.4z" class="H"/></clipPath><clipPath ><path d="M106.41 160.26h14.625v96.625H106.41z" class="H"/></clipPath><clipPath ><path d="M106.43 160.25h14.625v96.625H106.43z" class="H"/></clipPath><clipPath ><path d="M28.388 105.04h78.025v55.225H28.388z" class="H"/></clipPath><clipPath ><path d="M28.4 105.02h78.025v55.225H28.4z" class="H"/></clipPath><clipPath ><path d="M106.41 105.04h14.625v55.225H106.41z" class="H"/></clipPath><clipPath ><path d="M106.43 105.02h14.625v55.225H106.43z" class="H"/></clipPath><clipPath ><path d="M28.388 91.237h78.025v13.8H28.388z" class="H"/></clipPath><clipPath ><path d="M28.4 91.225h78.025v13.8H28.4z" class="H"/></clipPath><clipPath ><path d="M106.41 91.237h14.625v13.8H106.41z" class="H"/></clipPath><clipPath ><path d="M106.43 91.225h14.625v13.8H106.43z" class="H"/></clipPath><clipPath ><path d="M121.04 91.237h25.8v13.8h-25.8z" class="H"/></clipPath><clipPath ><path d="M121.05 91.225h25.8v13.8h-25.8z" class="H"/></clipPath><clipPath ><path d="M146.84 91.237h351.7v13.8h-351.7z" class="H"/></clipPath><clipPath ><path d="M146.85 91.225h351.7v13.8h-351.7z" class="H"/></clipPath><clipPath ><path d="M28.388 77.437h78.025v13.8H28.388z" class="H"/></clipPath><clipPath ><path d="M28.4 77.425h78.025v13.8H28.4z" class="H"/></clipPath><clipPath ><path d="M106.41 77.437h14.625v13.8H106.41z" class="H"/></clipPath><clipPath ><path d="M106.43 77.425h14.625v13.8H106.43z" class="H"/></clipPath><clipPath ><path d="M121.04 77.437h25.8v13.8h-25.8z" class="H"/></clipPath><clipPath ><path d="M121.05 77.425h25.8v13.8h-25.8z" class="H"/></clipPath><clipPath ><path d="M146.84 77.437h351.7v13.8h-351.7z" class="H"/></clipPath><clipPath ><path d="M146.85 77.425h351.7v13.8h-351.7z" class="H"/></clipPath><clipPath ><path d="M28.388 63.637h78.025v13.8H28.388z" class="H"/></clipPath><clipPath ><path d="M28.4 63.625h78.025v13.8H28.4z" class="H"/></clipPath><clipPath ><path d="M106.41 63.637h14.625v13.8H106.41z" class="H"/></clipPath><clipPath ><path d="M106.43 63.625h14.625v13.8H106.43z" class="H"/></clipPath><clipPath ><path d="M121.04 63.637h25.8v13.8h-25.8z" class="H"/></clipPath><clipPath ><path d="M121.05 63.625h25.8v13.8h-25.8z" class="H"/></clipPath><clipPath ><path d="M146.84 63.637h351.7v13.8h-351.7z" class="H"/></clipPath><clipPath ><path d="M146.85 63.625h351.7v13.8h-351.7z" class="H"/></clipPath><path id="x" d="M265.98 513.09l7.2-.25 6.74-.47 6.98-.73 6.7-1.18 6.49-1.7 6.49-1.67 6.51-2.16 5.99-2.4 6.24-2.66 5.77-2.87 5.77-3.36 5.53-3.37 5.27-3.85 5.31-4.08 4.81-4.08 4.78-4.57 4.59-4.56 4.31-4.79 4.1-5.06 3.6-5.28 3.6-5.53 3.35-5.52 2.89-5.78 2.88-5.99 2.4-6.26 2.17-5.99 1.92-6.49 1.45-6.48 1.19-6.51.96-6.7.49-6.98.23-6.97-.23-6.73-.49-6.95-.96-6.73-1.19-6.48-1.45-6.49-1.92-6.48-2.17-6.26-2.4-6-2.88-6.01-2.89-5.77-3.35-5.53-3.6-5.53-3.6-5.28-4.1-5.03-4.31-4.81-4.59-4.57-4.78-4.57-4.81-4.08-5.31-4.07-5.27-3.86-5.53-3.36-5.77-3.34-5.77-2.9-6.24-2.63-5.99-2.41-6.51-2.16-6.49-1.69-6.49-1.67-6.7-1.21-6.98-.73-6.74-.47-7.2-.25-6.98.25-6.95.47-6.73.73-6.74 1.21-6.71 1.67-6.51 1.69-6.24 2.16-6.24 2.41-6.01 2.63-6 2.9-5.52 3.34-5.52 3.36-5.53 3.86-5.05 4.07-5.06 4.08-4.56 4.57-4.57 4.57-4.31 4.81-4.1 5.03-3.84 5.28-3.6 5.53-3.14 5.53-3.1 5.77-2.64 6.01-2.42 6-2.14 6.26-1.93 6.48-1.45 6.49-1.21 6.48-.96 6.73-.47 6.95-.25 6.73.25 6.97.47 6.98.96 6.7 1.21 6.51 1.45 6.48 1.93 6.49 2.14 5.99 2.42 6.26 2.64 5.99 3.1 5.78 3.14 5.52 3.6 5.53 3.84 5.28 4.1 5.06 4.31 4.79 4.57 4.56 4.56 4.57 5.06 4.08 5.05 4.08 5.53 3.85 5.52 3.37 5.52 3.36 6 2.87 6.01 2.66 6.24 2.4 6.24 2.16 6.51 1.67 6.71 1.7 6.74 1.18 6.73.73 6.95.47z"/><path id="y" d="M266.3 512.77l7.2-.25 6.74-.47 6.98-.73 6.71-1.18 6.48-1.7 6.49-1.67 6.51-2.16 5.99-2.4 6.24-2.66 5.77-2.87 5.77-3.36 5.53-3.37 5.27-3.85 5.31-4.08 4.81-4.08 4.78-4.57 4.59-4.56 4.31-4.79 4.1-5.06 3.6-5.28 3.6-5.53 3.35-5.52 2.89-5.77 2.88-6 2.4-6.26 2.17-5.99 1.92-6.49 1.46-6.48 1.18-6.51.96-6.7.49-6.98.23-6.97-.23-6.73-.49-6.95-.96-6.73-1.18-6.48-1.46-6.49-1.92-6.48-2.17-6.26-2.4-6-2.88-6.01-2.89-5.77-3.35-5.53-3.6-5.53-3.6-5.28-4.1-5.03-4.31-4.81-4.59-4.57-4.78-4.57-4.81-4.08-5.31-4.07-5.27-3.86-5.53-3.36-5.77-3.34-5.77-2.9-6.24-2.63-5.99-2.41-6.51-2.16-6.49-1.69-6.48-1.67-6.71-1.21-6.98-.73-6.74-.47-7.2-.24-6.98.24-6.95.47-6.73.73-6.74 1.21-6.7 1.67-6.52 1.69-6.24 2.16-6.23 2.41-6.02 2.63-6 2.9-5.52 3.34-5.52 3.36-5.53 3.86-5.05 4.07-5.06 4.08-4.56 4.57-4.56 4.57-4.32 4.81-4.09 5.03-3.85 5.28-3.6 5.53-3.13 5.53-3.11 5.77-2.64 6.01-2.42 6-2.14 6.26-1.93 6.48-1.45 6.49-1.21 6.48-.96 6.73-.47 6.95-.25 6.73.25 6.97.47 6.98.96 6.7 1.21 6.51 1.45 6.48 1.93 6.49 2.14 5.99 2.42 6.26 2.64 6 3.11 5.77 3.13 5.52 3.6 5.53 3.85 5.28 4.09 5.06 4.32 4.79 4.56 4.56 4.56 4.57 5.06 4.08 5.05 4.08 5.53 3.85 5.52 3.37 5.52 3.36 6 2.87 6.02 2.66 6.23 2.4 6.24 2.16 6.52 1.67 6.7 1.7 6.74 1.18 6.73.73 6.95.47z"/><path id="z" d="M265.98 504.69l6.74-.25 6.48-.49 6.24-.71 6.49-1.21 6.02-1.42 6.23-1.69 5.78-1.92 5.99-2.16 5.52-2.65 5.55-2.63 5.28-3.14 5.28-3.37 5.05-3.34 4.81-3.86 4.56-3.83 4.57-4.1 4.09-4.57 4.07-4.54 3.85-4.57 3.6-5.06 3.38-5.03 2.86-5.28 2.88-5.53 2.67-5.52 2.14-5.77 2.17-5.78 1.68-5.99 1.46-6.01 1.18-6.24.74-6.27.47-6.48.24-6.48-.24-6.24-.47-6.48-.74-6.24-1.18-6.26-1.46-6-1.68-6.01-2.17-5.78-2.14-5.74-2.67-5.53-2.88-5.52-2.86-5.31-3.38-5.03-3.6-5.04-3.85-4.57-4.07-4.56-4.09-4.57-4.57-4.08-4.56-3.85-4.81-3.83-5.05-3.37-5.28-3.36-5.28-3.12-5.55-2.66-5.52-2.62-5.99-2.16-5.78-1.94-6.23-1.67-6.02-1.45-6.49-1.21-6.24-.71-6.48-.49-6.74-.22-6.48.22-6.49.49-6.49.71-6.24 1.21-6.26 1.45-5.99 1.67-6.02 1.94-5.77 2.16-5.53 2.62-5.52 2.66-5.52 3.12-5.06 3.36-5.03 3.37-4.81 3.83-4.81 3.85-4.32 4.08-4.34 4.57-4.07 4.56-3.6 4.57-3.6 5.04-3.38 5.03-3.13 5.31-2.86 5.52-2.42 5.53-2.39 5.74-1.92 5.78-1.68 6.01-1.45 6-1.21 6.26-.72 6.24-.47 6.48-.24 6.24.24 6.48.47 6.48.72 6.27 1.21 6.24 1.45 6.01 1.68 5.99 1.92 5.78 2.39 5.77 2.42 5.52 2.86 5.53 3.13 5.28 3.38 5.03 3.6 5.06 3.6 4.57 4.07 4.54 4.34 4.57 4.32 4.1 4.81 3.83 4.81 3.86 5.03 3.34 5.06 3.37 5.52 3.14 5.52 2.63 5.53 2.65 5.77 2.16 6.02 1.92 5.99 1.69 6.26 1.42 6.24 1.21 6.49.71 6.49.49z"/><path id="AA" d="M266.3 504.37l6.74-.25 6.48-.49 6.24-.71 6.49-1.2 6.02-1.43 6.24-1.69 5.77-1.92 5.99-2.16 5.52-2.65 5.55-2.63 5.28-3.14 5.28-3.37 5.05-3.34 4.81-3.85 4.57-3.84 4.56-4.1 4.09-4.56 4.07-4.55 3.85-4.57 3.6-5.06 3.38-5.03 2.86-5.28 2.88-5.53 2.67-5.52 2.14-5.77 2.17-5.77 1.68-6 1.46-6.01 1.18-6.24.74-6.26.47-6.49.24-6.48-.24-6.24-.47-6.48-.74-6.24-1.18-6.26-1.46-6-1.68-6.01-2.17-5.77-2.14-5.75-2.67-5.53-2.88-5.52-2.86-5.31-3.38-5.03-3.6-5.04-3.85-4.56-4.07-4.57-4.09-4.57-4.56-4.08-4.57-3.85-4.81-3.83-5.05-3.37-5.28-3.36-5.28-3.12-5.55-2.65-5.52-2.63-5.99-2.16-5.77-1.94-6.24-1.67-6.02-1.45-6.49-1.21-6.24-.71-6.48-.49-6.74-.22-6.48.22-6.49.49-6.49.71-6.23 1.21-6.27 1.45-5.99 1.67-6.02 1.94-5.77 2.16-5.52 2.63-5.53 2.65-5.52 3.12-5.06 3.36-5.03 3.37-4.81 3.83-4.81 3.85-4.31 4.08-4.35 4.57-4.06 4.57-3.61 4.56-3.6 5.04-3.37 5.03-3.14 5.31-2.86 5.52-2.41 5.53-2.4 5.75-1.92 5.77-1.68 6.01-1.45 6-1.21 6.26-.72 6.24-.46 6.48-.25 6.24.25 6.48.46 6.49.72 6.26 1.21 6.24 1.45 6.01 1.68 6 1.92 5.77 2.4 5.77 2.41 5.52 2.86 5.53 3.14 5.28 3.37 5.03 3.6 5.06 3.61 4.57 4.06 4.55 4.35 4.56 4.31 4.1 4.81 3.84 4.81 3.85 5.03 3.34 5.06 3.37 5.52 3.14 5.53 2.63 5.52 2.65 5.77 2.16 6.02 1.92 5.99 1.69 6.27 1.43 6.23 1.2 6.49.71 6.49.49z"/><path id="AB" d="M266.45 496.75l6.02-.24 6.24-.47 6.02-.73 5.77-.96 5.99-1.43 5.52-1.45 5.78-1.91 5.3-2.16 5.28-2.41 5.27-2.65 5.06-2.63 4.81-3.14 4.78-3.37 4.59-3.58 4.32-3.61 4.09-3.86 4.07-4.08 3.85-4.32 3.35-4.57 3.38-4.56 3.13-4.79 2.86-5.06 2.67-5.04 2.39-5.28 2.17-5.28 1.92-5.52 1.68-5.53 1.43-5.77.96-5.77.72-5.99.49-6.02.25-6.02-.25-5.99-.49-6.02-.72-5.99-.96-5.77-1.43-5.77-1.68-5.53-1.92-5.52-2.17-5.28-2.39-5.28-2.67-5.04-2.86-5.06-3.13-4.79-3.38-4.56-3.35-4.33-3.85-4.32-4.07-4.1-4.09-4.08-4.32-3.61-4.59-3.58-4.78-3.15-4.81-3.12-5.06-2.87-5.27-2.65-5.28-2.41-5.3-2.16-5.78-1.67-5.52-1.69-5.99-1.18-5.77-1.21-6.02-.73-6.24-.47h-6.02-6.24l-5.99.47-6.02.73-6.02 1.21-5.74 1.18-5.77 1.69-5.53 1.67-5.52 2.16-5.3 2.41-5.28 2.65-5.06 2.87-4.78 3.12-4.81 3.15-4.34 3.58-4.56 3.61-4.07 4.08-3.85 4.1-3.85 4.32-3.6 4.33-3.38 4.56-3.11 4.79-2.88 5.06-2.64 5.04-2.42 5.28-2.17 5.28-1.9 5.52-1.7 5.53-1.18 5.77-1.21 5.77-.72 5.99-.49 6.02v5.99 6.02l.49 6.02.72 5.99 1.21 5.77 1.18 5.77 1.7 5.53 1.9 5.52 2.17 5.28 2.42 5.28 2.64 5.04 2.88 5.06 3.11 4.79 3.38 4.56 3.6 4.57 3.85 4.32 3.85 4.08 4.07 3.86 4.56 3.61 4.34 3.58 4.81 3.37 4.78 3.14 5.06 2.63 5.28 2.65 5.3 2.41 5.52 2.16 5.53 1.91 5.77 1.45 5.74 1.43 6.02.96 6.02.73 5.99.47z"/><path id="AC" d="M265.98 489.07l6.02-.25 5.75-.46 5.52-.5 5.77-1.2 5.3-1.2 5.53-1.43 5.28-1.69 5.05-2.16 5.03-2.16 4.81-2.41 4.81-2.63 4.56-2.9 4.57-3.12 4.09-3.36 4.32-3.61 3.84-3.59 3.85-3.85 3.36-4.08 3.37-4.08 3.36-4.56 2.88-4.33 2.64-4.81 2.64-4.81 2.17-4.79 2.17-5.06 1.68-5.28 1.43-5.28 1.45-5.28.97-5.53.71-5.52.47-5.77v-5.78-5.74l-.47-5.53-.71-5.52-.97-5.53-1.45-5.53-1.43-5.28-1.68-5.05-2.17-5.04-2.17-5.06-2.64-4.79-2.64-4.57-2.88-4.56-3.36-4.33-3.37-4.32-3.36-3.85-3.85-4.08-3.84-3.61-4.32-3.37-4.09-3.36-4.57-3.12-4.56-2.87-4.81-2.65-4.81-2.63-5.03-2.16-5.05-1.94-5.28-1.67-5.53-1.7-5.3-1.18-5.77-.98-5.52-.71-5.75-.49h-6.02-5.77l-5.77.49-5.52.71-5.77.98-5.28 1.18-5.53 1.7-5.27 1.67-5.06 1.94-5.06 2.16-4.78 2.63-4.81 2.65-4.56 2.87-4.56 3.12-4.35 3.36-4.06 3.37-3.85 3.61-3.85 4.08-3.38 3.85-3.35 4.32-3.36 4.33-2.88 4.56-2.64 4.57-2.66 4.79-2.15 5.06-2.17 5.04-1.68 5.05-1.45 5.28-1.43 5.53-.96 5.53-.72 5.52-.49 5.53v5.74 5.78l.49 5.77.72 5.52.96 5.53 1.43 5.28 1.45 5.28 1.68 5.28 2.17 5.06 2.15 4.79 2.66 4.81 2.64 4.81 2.88 4.33 3.36 4.56 3.35 4.08 3.38 4.08 3.85 3.85 3.85 3.59 4.06 3.61 4.35 3.36 4.56 3.12 4.56 2.9 4.81 2.63 4.78 2.41 5.06 2.16 5.06 2.16 5.27 1.69 5.53 1.43 5.28 1.2 5.77 1.2 5.52.5 5.77.46z"/><path id="AD" d="M265.27 594.77l12.25-29.79 24.99.49-20.2-18.74 10.33-28.58-27.37 17.53-26.91-18.52 7.67 29.08-17.78 19.23 24.05-.25z"/><path id="AE" d="M265.59 594.45l12.26-29.79 24.98.49-20.2-18.74 10.33-28.58-27.37 17.53-26.91-18.52 7.67 29.08-17.78 19.23 24.05-.24z"/><path id="AF" d="M96.109 482.83l-.715-1.2-.494-1.21-.468-1.2-.493-1.2-.222-2.41v-2.63l.222-2.41.493-2.4.715-2.65.715-2.39.494-2.4.715-2.66.246-2.4.222-2.38-.222-2.41-.739-2.41-.469-1.2-.715-1.21-.715-1.2-.962-.96 2.392 3.12 2.392 2.65 2.419 2.17 2.39 1.67 2.64 1.2 2.42 1.2 2.63.74 2.4.47 4.81.95 4.34.96 1.92.74 1.92.96 1.68 1.2 1.43 1.42-.96-2.87-.96-2.65-1.43-2.38-1.68-2.16-1.92-2.17-2.17-1.94-2.17-1.67-2.4-1.69-2.63-1.43-2.42-1.2-2.89-1.2-2.64-.96-5.52-1.69-5.525-1.21-2.639-3.83-2.17-3.36-1.43-3.37-.962-3.12-.493-2.9v-2.87l.246-2.65.715-2.63-3.354.96v2.87l.247 2.9.715 3.12.715 2.87.962 3.12.962 2.9 1.43 3.12 1.702 2.87-1.702 3.37-1.43 3.36-1.208 3.12-1.184 2.9-.74 2.63-.469 2.65-.246 2.41.246 2.62.247 2.41.715 2.41.962 2.65 1.43 2.63 1.456 2.65 2.145 2.87 2.417 2.9z"/><path id="AG" d="M96.43 482.51l-.716-1.2-.493-1.21-.469-1.2-.493-1.2-.222-2.41v-2.63l.222-2.4.493-2.41.716-2.65.715-2.39.493-2.4.715-2.66.247-2.4.222-2.38-.222-2.41-.74-2.41-.468-1.2-.716-1.2-.715-1.21-.962-.96 2.393 3.12 2.392 2.66 2.418 2.16 2.39 1.67 2.64 1.2 2.42 1.2 2.64.74 2.39.47 4.81.95 4.34.96 1.92.74 1.92.96 1.68 1.2 1.43 1.43-.96-2.88-.96-2.65-1.43-2.38-1.68-2.16-1.92-2.17-2.17-1.94-2.17-1.67-2.4-1.69-2.63-1.42-2.42-1.21-2.89-1.2-2.64-.96-5.52-1.69-5.524-1.21-2.639-3.83-2.17-3.36-1.431-3.37-.962-3.12-.493-2.89v-2.88l.247-2.65.715-2.63-3.354.96v2.87l.247 2.9.715 3.12.715 2.87.962 3.12.962 2.9 1.43 3.12 1.702 2.87-1.702 3.37-1.43 3.36-1.209 3.12-1.184 2.9-.739 2.63-.469 2.65-.247 2.41.247 2.62.247 2.41.715 2.41.962 2.65 1.43 2.63 1.455 2.65 2.146 2.87 2.417 2.9 2.639 3.12"/><path id="AH" d="M81.46 453.04l-.74-2.41-.222-2.16v-2.41l.468-2.16 1.455-4.56 2.146-4.33.962-2.16.962-2.16.739-2.16.469-2.41.247-2.16-.247-2.41-.715-2.16-1.209-2.38 1.677 3.12 1.677 2.87 1.924 2.41 1.924 1.92 2.17 1.69 2.17 1.43 2.146.95 2.167 1.21 4.32 1.45 3.85 1.69 1.7.96 1.43 1.2 1.43 1.18 1.21 1.69-.47-2.87-.49-2.41-.97-2.65-1.2-2.16-1.44-2.41-1.43-1.91-1.92-2.16-1.92-1.67-1.93-1.7-2.41-1.67-2.149-1.45-2.417-1.45-4.809-2.4-4.785-2.16-1.923-3.83-1.209-3.61-.961-3.37-.247-2.87v-2.9l.493-2.63.715-2.41.962-2.16-3.132.25-.468 2.63-.247 2.9v2.87l.247 2.87.221 2.9.74 2.87.716 2.9.961 3.12-2.17 2.87-1.924 2.66-1.677 2.62-1.208 2.41-1.184 2.41-.962 2.4-.493 2.41-.468 2.16v2.38l.221 2.41.494 2.41.715 2.65.962 2.63 1.455 2.9 1.677 3.11z"/><path id="AI" d="M81.78 452.72l-.74-2.41-.222-2.16v-2.4l.469-2.17 1.455-4.56 2.146-4.33.961-2.16.962-2.16.74-2.16.469-2.41.246-2.16-.246-2.4-.716-2.17-1.208-2.38 1.677 3.12 1.677 2.87 1.924 2.41 1.923 1.92 2.171 1.69 2.17 1.43 2.146.95 2.166 1.21 4.32 1.45 3.85 1.69 1.7.96 1.43 1.2 1.43 1.18 1.21 1.7-.47-2.88-.49-2.4-.97-2.66-1.2-2.16-1.43-2.41-1.43-1.91-1.93-2.16-1.92-1.67-1.93-1.7-2.41-1.67-2.148-1.45-2.417-1.44-4.809-2.41-4.785-2.16-1.924-3.83-1.208-3.61-.962-3.37-.246-2.87v-2.9l.493-2.63.715-2.4.962-2.17-3.132.25-.469 2.63-.246 2.9v2.87l.246 2.87.222 2.9.74 2.87.715 2.9.962 3.12-2.17 2.87-1.924 2.66-1.677 2.62-1.208 2.41-1.184 2.41-.962 2.4-.493 2.41-.469 2.16v2.39l.222 2.4.493 2.41.716 2.65.961 2.63 1.455 2.9 1.677 3.12 1.924 3.36"/><path id="AJ" d="M72.803 431.89l-.493-1.44v-1.21l-.222-1.42v-1.21l.468-2.4.716-2.41.961-2.41 1.209-2.16 1.208-2.38 1.431-2.19 1.208-2.16 1.209-2.16 1.183-2.38.74-2.41.469-2.4v-2.41l-.247-1.2-.222-1.43-.493-1.2-.468-1.45 1.43 3.61 1.455 3.36 1.924 2.63 1.923 2.41 1.899 1.91 2.171 1.94 2.17 1.43 2.392 1.2 4.336 2.16 3.83 2.16 1.7 1.21 1.68 1.45 1.2 1.67.97 1.69v-2.9l-.5-2.87-.47-2.87-1.2-2.66-1.21-2.4-1.43-2.41-1.68-2.38-1.92-2.16-1.93-2.19-2.167-1.91-2.171-1.92-2.392-1.67-5.056-3.14-4.809-2.63-1.677-4.57-.962-3.85-.468-3.59v-3.36l.222-2.9.74-2.88 1.183-2.4 1.209-2.41h-3.354l-.716 2.9-.739 2.87-.222 3.12-.247 3.12.247 3.14.222 3.12.493 3.37.715 3.36-2.639 2.87-2.417 2.66-1.923 2.63-1.899 2.4-1.455 2.41-1.209 2.41-.962 2.38-.468 2.4-.494 2.66v2.62l.247 2.66.493 2.87.962 2.9 1.184 3.36 1.455 3.59z"/><path id="AK" d="M73.124 431.57l-.494-1.44v-1.21l-.222-1.42v-1.21l.469-2.4.715-2.41.962-2.41 1.209-2.16 1.208-2.38 1.43-2.18 1.209-2.17 1.208-2.16 1.184-2.38.74-2.41.469-2.4v-2.41l-.247-1.2-.222-1.43-.493-1.2-.469-1.45 1.431 3.61 1.455 3.36 1.923 2.63 1.924 2.41 1.899 1.92 2.17 1.94 2.17 1.42 2.393 1.2 4.345 2.16 3.82 2.17 1.7 1.2 1.68 1.45 1.21 1.67.96 1.69v-2.9l-.5-2.87-.46-2.87-1.21-2.65-1.21-2.41-1.43-2.41-1.68-2.38-1.92-2.16-1.93-2.19-2.167-1.91-2.17-1.92-2.392-1.67-5.056-3.14-4.809-2.63-1.677-4.57-.962-3.85-.469-3.59v-3.36l.222-2.9.74-2.88 1.184-2.4 1.208-2.41h-3.354l-.715 2.9-.74 2.87-.222 3.12-.246 3.12.246 3.14.222 3.12.493 3.37.716 3.36-2.639 2.88-2.417 2.65-1.924 2.63-1.899 2.4-1.455 2.41-1.208 2.41-.962 2.38-.469 2.41-.493 2.65v2.63l.247 2.65.493 2.87.962 2.9 1.184 3.36 1.455 3.59 1.677 3.85"/><path id="AL" d="M63.431 400.9v-1.45-1.42l.247-1.45.247-1.2.937-2.41 1.455-2.38 1.43-2.17 1.924-1.94 1.702-2.16 1.899-1.91 1.923-1.92 1.924-2.16 1.455-2.16 1.43-2.16.962-2.41.715-2.4.247-1.45v-1.43l-.247-1.45-.221-1.69.468 4.35.962 3.58 1.208 3.37 1.431 2.89 1.701 2.39 1.678 2.4 1.923 1.92 2.146 1.94 3.847 3.36 3.596 3.12 1.46 1.67 1.43 1.7.96 2.16.72 1.91.49-2.87.25-3.12v-3.14l-.5-2.88-.71-2.87-.96-2.9-1.21-2.87-1.43-2.65-1.457-2.63-1.924-2.65-1.899-2.41-1.923-2.41-4.341-4.32-4.562-4.08-.469-4.81-.247-4.54.469-3.86.74-3.36.962-2.88 1.43-2.65 1.677-2.41 1.924-2.16-3.601-.96-1.43 2.9-1.209 2.88-1.208 3.12-.715 3.11-.716 3.37-.493 3.36-.247 3.61v3.61l-3.354 2.39-3.132 2.16-2.639 2.16-2.392 2.18-2.17 2.17-1.924 2.16-1.43 2.38-1.209 2.41-.961 2.4-.716 2.65-.493 2.88v3.12l.247 3.36.246 3.61.716 4.08z"/><path id="AM" d="M63.752 400.58v-1.45-1.42l.247-1.45.246-1.2.937-2.41 1.455-2.38 1.431-2.16 1.924-1.94 1.701-2.17 1.899-1.91 1.924-1.92 1.924-2.16 1.455-2.16 1.43-2.16.962-2.41.715-2.4.247-1.45V366l-.247-1.45-.222-1.69.469 4.35.962 3.58 1.208 3.37 1.43 2.89 1.702 2.39 1.677 2.4 1.924 1.92 2.145 1.94 3.848 3.36 3.605 3.12 1.45 1.67 1.43 1.7.96 2.16.72 1.91.49-2.87.25-3.12v-3.14l-.5-2.88-.71-2.87-.96-2.9-1.21-2.87-1.43-2.65-1.456-2.63-1.924-2.65-1.899-2.41-1.924-2.41-4.34-4.32-4.563-4.08-.468-4.81-.247-4.54.469-3.86.739-3.36.962-2.88 1.431-2.65 1.677-2.41 1.923-2.16-3.6-.95-1.431 2.89-1.208 2.88-1.209 3.12-.715 3.11-.715 3.37-.493 3.36-.247 3.61v3.61l-3.354 2.39-3.132 2.16-2.639 2.16-2.392 2.18-2.17 2.17-1.924 2.16-1.431 2.38-1.208 2.41-.962 2.4-.715 2.66-.493 2.87v3.12l.246 3.36.247 3.61.715 4.08.962 4.32"/><path id="AN" d="M58.622 372.56l.247-1.45.246-1.67.469-1.45.493-1.2 1.431-2.63 1.677-2.16 1.923-2.16 2.171-1.94 2.392-1.92 2.417-1.91 2.145-1.92 2.417-1.94 1.924-1.91 1.924-2.17 1.43-2.4.962-2.88.247-1.44.246-1.45.222-1.67-.222-1.7V337v2.16l.222 2.16.247 1.94.715 3.83 1.208 3.12 1.455 3.12 1.678 2.65 1.677 2.41 1.923 2.41 3.848 4.07 3.354 4.08 1.45 1.92 1.19 2.18.74 2.16.22 2.38 1.21-3.36.71-3.12.25-3.36v-3.12l-.25-3.37-.46-3.12-.97-3.12-1.2-3.11-1.44-3.12-1.45-3.15-1.677-2.87-1.924-2.87-3.847-5.31-4.316-5.03v-5.28l.468-4.82.494-2.16.468-1.91.493-1.7.716-1.91.715-1.43.962-1.45.961-1.45.962-1.2 2.171-2.41 2.392-1.91-3.848-1.67-1.923 2.87-1.924 3.12-1.43 3.12-1.431 3.36-1.208 3.37-.962 3.61-.715 3.61-.74 4.08-3.847 1.91-3.601 2.16-3.354 1.94-2.886 1.92-2.638 2.16-2.171 1.92-1.923 2.4-1.677 2.41-1.431 2.41-1.208 2.87-.716 2.87-.493 3.37-.468 3.61v4.07l.222 4.33z"/><path id="AO" d="M58.943 372.24l.246-1.45.247-1.67.469-1.45.493-1.2 1.43-2.63 1.677-2.16 1.924-2.16 2.17-1.94 2.393-1.92 2.416-1.91 2.146-1.92 2.417-1.94 1.924-1.91 1.923-2.16 1.431-2.41.962-2.88.246-1.44.247-1.45.222-1.67-.222-1.7v2.41 2.16l.222 2.16.246 1.94.716 3.83 1.208 3.12 1.455 3.12 1.677 2.65 1.677 2.41 1.924 2.41 3.847 4.07 3.354 4.08 1.46 1.92 1.18 2.18.74 2.16.22 2.39 1.21-3.37.71-3.12.25-3.36v-3.12l-.25-3.37-.46-3.12-.97-3.11-1.2-3.12-1.43-3.12-1.46-3.15-1.677-2.87-1.923-2.87-3.848-5.31-4.316-5.03v-5.28l.469-4.82.493-2.16.469-1.91.493-1.7.715-1.91.715-1.43.962-1.45.962-1.45.962-1.2 2.17-2.41 2.392-1.91-3.847-1.67-1.924 2.87-1.923 3.12-1.431 3.12-1.43 3.36-1.209 3.37-.961 3.61-.716 3.61-.739 4.08-3.848 1.91-3.6 2.16-3.355 1.94-2.885 1.92-2.639 2.16-2.17 1.92-1.924 2.4-1.677 2.41-1.43 2.41-1.209 2.87-.715 2.87-.493 3.37-.469 3.61v4.07l.469 9.14"/><path id="AP" d="M61.508 340.61l.715-1.45.493-1.67.715-1.45.962-1.2 1.924-2.16 2.392-2.17 2.664-1.67 2.639-1.44 2.885-1.45 2.885-1.43 2.861-1.45 2.664-1.45 2.639-1.67 2.392-1.91.962-.98.962-1.21.961-1.18.716-1.2.74-1.45.715-1.67.246-1.69.469-1.67-.715 2.38-.494 2.41-.221 2.16-.247 2.16v3.85l.468 3.84.74 3.36 1.184 3.12 1.209 3.14 1.43 2.63 2.887 5.28 2.64 4.81.96 2.41.74 2.41.22 2.63v2.65l1.92-3.12 1.46-3.37 1.21-3.36.71-3.36.23-3.37.24-3.36-.24-3.61-.47-3.61-.72-3.34-.96-3.61-.96-3.37-1.46-3.36-1.18-3.37-1.7-3.12-1.43-3.12-1.68-2.89.47-2.88.74-2.87.71-2.41.97-2.4.96-1.92.96-1.94.96-1.92.96-1.67 1.19-1.44 1.2-1.21 1.44-1.2 1.2-1.2 2.89-1.92 2.88-1.45-3.6-2.38-2.63 2.38-2.64 2.65-2.42 2.88-2.17 3.12-1.9 3.36-1.92 3.61-1.71 3.61-1.426 3.83-4.562 1.2-4.341 1.45-3.822 1.21-3.379 1.45-3.108 1.42-2.885 1.7-2.664 1.91-2.145 2.16-2.17 2.16-1.677 2.66-1.456 3.11-1.43 3.12-1.208 3.83-.962 4.11-.962 4.56z"/><path id="AQ" d="M61.828 340.29l.716-1.45.493-1.67.715-1.45.962-1.2 1.923-2.16 2.393-2.16 2.663-1.67 2.639-1.45 2.886-1.45 2.885-1.43 2.861-1.45 2.663-1.44 2.639-1.67 2.393-1.92.961-.98.962-1.21.962-1.18.715-1.2.74-1.45.715-1.67.247-1.69.469-1.67-.716 2.38-.493 2.41-.222 2.16-.247 2.16v3.86l.469 3.83.74 3.36 1.184 3.12 1.208 3.14 1.431 2.63 2.886 5.28 2.64 4.82.96 2.4.74 2.41.22 2.63v2.65l1.93-3.12 1.45-3.36 1.21-3.37.71-3.36.23-3.37.24-3.36-.24-3.61-.47-3.61-.72-3.34-.96-3.61-.96-3.37-1.46-3.36-1.18-3.37-1.7-3.12-1.43-3.12-1.68-2.89.47-2.88.74-2.87.71-2.41.97-2.4.96-1.92.96-1.94.96-1.92.96-1.67 1.19-1.44 1.21-1.21 1.43-1.2 1.2-1.2 2.89-1.92 2.89-1.45-3.61-2.38-2.63 2.38-2.64 2.65-2.42 2.88-2.17 3.12-1.9 3.36-1.92 3.61-1.7 3.61-1.435 3.83-4.563 1.21-4.34 1.44-3.823 1.21-3.378 1.45-3.108 1.42-2.885 1.7-2.664 1.91-2.146 2.16-2.17 2.16-1.677 2.66-1.455 3.12-1.43 3.11-1.209 3.84-.962 4.1-.961 4.56-.716 5.04"/><path id="AR" d="M67.994 310.57l.715-1.67.962-1.69 1.208-1.43.962-1.2 1.431-1.2 1.208-.96 1.455-.96 1.431-.98 3.132-1.43 3.354-1.44 3.378-1.21 3.355-.96 3.354-1.2 3.132-1.2 3.129-1.43 2.89-1.69 1.43-.96 1.21-1.2 1.18-1.21 1.21-1.2.96-1.42.96-1.7.72-1.67.49-1.94-.96 2.41-.96 2.65-.72 2.41-.49 2.16-.47 2.38-.25 2.16v2.16 1.94l.25 4.08.72 3.61.96 3.59 1.21 3.14 2.64 6.24 1.92 5.77.71 2.87.47 2.88v1.44 1.21l-.22 1.45-.49 1.42 2.64-3.12 2.17-3.36 1.67-3.37 1.46-3.58.96-3.86.72-3.83.24-3.85v-4.08l-.24-3.86-.5-4.07-.47-3.84-.96-4.1-.96-3.83-1.21-3.85-1.43-3.59-1.21-3.61.96-3.12 1.21-2.9 1.19-2.62 1.45-2.41 1.21-2.16 1.43-1.92 1.46-1.94 1.43-1.67 1.43-1.45 1.7-1.2 1.43-1.2 1.68-.96 3.37-1.67 3.61-1.21-3.61-3.11-3.37 2.16-3.36 2.63-3.13 2.89-2.89 3.12-2.63 3.37-2.64 3.61-2.4 3.83-2.17 4.07-5.27.5-5.06.71-4.32.96-4.089.98-3.848 1.18-3.354 1.45-3.132 1.69-2.885 1.92-2.392 2.16-2.417 2.63-2.146 3.14-2.17 3.36-1.924 4.08-1.677 4.32-1.677 5.04z"/><path id="AS" d="M68.315 310.25l.715-1.67.962-1.69 1.208-1.43.962-1.2 1.43-1.2 1.209-.96 1.455-.96 1.43-.98 3.132-1.42 3.354-1.45 3.379-1.21 3.354-.95 3.354-1.21 3.132-1.2 3.129-1.43 2.89-1.69 1.43-.96 1.21-1.2 1.18-1.21 1.21-1.2.96-1.42.96-1.7.72-1.67.49-1.94-.96 2.41-.96 2.65-.72 2.41-.49 2.16-.47 2.38-.25 2.16v2.16 1.94l.25 4.08.72 3.61.96 3.59 1.21 3.14 2.64 6.24 1.92 5.77.71 2.87.47 2.88v1.45 1.2l-.22 1.45-.49 1.42 2.64-3.12 2.17-3.36 1.67-3.37 1.46-3.58.96-3.86.72-3.83.24-3.85v-4.08l-.24-3.86-.5-4.07-.47-3.83-.96-4.11-.96-3.83-1.21-3.85-1.43-3.59-1.21-3.61.97-3.12 1.2-2.9 1.19-2.62 1.45-2.41 1.21-2.16 1.43-1.92 1.46-1.94 1.43-1.67 1.43-1.45 1.7-1.2 1.43-1.2 1.68-.96 3.38-1.67 3.6-1.2-3.6-3.12-3.38 2.16-3.36 2.63-3.13 2.89-2.89 3.12-2.63 3.37-2.64 3.61-2.4 3.83-2.17 4.08-5.27.49-5.06.71-4.31.96-4.099.98-3.847 1.18-3.354 1.45-3.132 1.69-2.886 1.92-2.392 2.16-2.417 2.63-2.145 3.14-2.171 3.36-1.923 4.08-1.677 4.32-1.677 5.04z"/><path id="AT" d="M77.119 279.11l1.208-1.69 1.455-1.67 1.431-1.45 1.43-1.2 1.702-.96 1.677-.96 1.677-.96 1.677-.71 3.847-1.2 3.848-.74 3.849-.71 4.07-.71 3.84-.74 3.85-.71 3.6-1.21 3.63-1.45 1.68-.71 1.67-1.2 1.43-.96 1.46-1.45 1.43-1.42 1.21-1.7 1.2-1.67.97-2.16-1.7 2.63-1.44 2.65-1.2 2.63-.97 2.41-.71 2.65-.72 2.41-.49 2.16-.22 2.4-.25 4.33v4.32l.47 4.08.74 3.83 1.92 7.46 1.43 6.73.25 3.37v3.12l-.25 1.42-.24 1.69-.47 1.45-.72 1.43 1.68-1.43 1.68-1.45 1.68-1.69 1.45-1.67 2.39-3.61 2.17-3.83 1.68-4.1 1.43-4.08.96-4.32.74-4.32.22-4.57.25-4.57v-4.57l-.47-4.54-.49-4.32-.72-4.57-.71-4.32-.96-4.11 1.67-3.36 1.93-2.87 1.92-2.88 1.68-2.4 1.92-2.17 1.93-2.16 1.67-1.69 1.93-1.67 1.92-1.2 1.92-1.21 2.17-1.2 1.9-.71 1.93-.74 2.17-.47 1.92-.49 2.17-.24-3.38-4.33-4.31 1.94-4.1 2.39-3.85 2.65-3.82 3.12-3.62 3.12-3.36 3.61-3.35 3.85-3.13 4.32-6.02-.24h-5.53l-5.27.24-4.57.47-4.31.49-4.1 1.21-3.84 1.2-3.36 1.67-3.376 2.16-3.107 2.65-2.886 2.88-2.885 3.61-2.639 4.07-2.664 4.57-2.861 5.28z"/><path id="AU" d="M77.44 278.79l1.208-1.69 1.455-1.67 1.431-1.45 1.43-1.2 1.702-.96 1.677-.96 1.677-.96 1.677-.71 3.847-1.2 3.847-.74 3.849-.71 4.07-.71 3.85-.74 3.84-.71 3.6-1.21 3.63-1.44 1.68-.72 1.67-1.2 1.43-.96 1.46-1.45 1.43-1.42 1.21-1.7 1.21-1.67.96-2.16-1.7 2.63-1.43 2.65-1.21 2.63-.97 2.41-.71 2.65-.72 2.41-.49 2.16-.22 2.4-.25 4.33v4.32l.47 4.08.74 3.83 1.92 7.46 1.44 6.73.24 3.37v3.12l-.24 1.42-.25 1.69-.47 1.45-.72 1.43 1.68-1.43 1.68-1.45 1.68-1.69 1.45-1.67 2.39-3.61 2.17-3.83 1.68-4.1 1.43-4.08.96-4.32.74-4.32.22-4.57.25-4.57v-4.57l-.47-4.54-.49-4.32-.72-4.57-.71-4.32-.96-4.11 1.67-3.36 1.93-2.87 1.92-2.88 1.68-2.4 1.92-2.16 1.93-2.17 1.67-1.69 1.93-1.67 1.92-1.2 1.92-1.21 2.17-1.2 1.9-.71 1.93-.74 2.17-.47 1.92-.49 2.17-.24-3.38-4.33-4.31 1.94-4.1 2.39-3.84 2.65-3.83 3.12-3.62 3.12-3.36 3.61-3.35 3.85-3.13 4.33-6.02-.25h-5.53l-5.27.25-4.57.46-4.31.49-4.1 1.21-3.84 1.2-3.36 1.67-3.375 2.16-3.108 2.65-2.885 2.88-2.886 3.61-2.639 4.07-2.663 4.57-2.861 5.28z"/><path id="AV" d="M81.406 673.615q0 5.883 1.76 9.875 1.313 2.942 3.572 5.279 2.285 2.337 4.99 3.467 3.598 1.523 8.299 1.523 8.509 0 13.605-5.279 5.121-5.279 5.121-14.681 0-9.324-5.069-14.603-5.069-5.253-13.552-5.253-8.588 0-13.657 5.226-5.069 5.253-5.069 14.445zm8.01.263q0-6.54 3.02-9.928 3.02-3.362 7.669-3.362 4.649 0 7.616 3.335 2.994 3.362 2.994 10.059 0 6.618-2.915 9.875-2.889 3.257-7.695 3.257-4.806 0-7.748-3.309-2.942-3.283-2.942-9.928z"/><path id="AW" d="M433.69 443.19l3.13-.74 2.88-.95 2.15-1.21 1.92-1.42 1.46-1.7 1.21-1.91.47-2.16.24-2.16.96 1.45 1.21 1.42.94 1.2 1.21.96.96.96 1.21.49.96.49 1.21.22.96.25 1.18-.25.97-.22 1.2-.49.97-.71 1.2-.96.97-.98 1.18-1.43-3.85-19.94-1.43-2.16-1.67-1.92-1.46-1.94-1.43-1.67-1.68-1.44-1.7-1.45-1.68-1.18-1.67-.98-1.68-.96-1.92-.71-1.93-.5-1.67-.22-1.93-.24h-2.17-1.92l-1.93.46-14.4 12.01.22 3.37.25 3.14.49 1.43.23 1.2.49.96.71.95.72.99.96.71.96.47.96.24 1.21.25h1.43l1.46-.25 1.68-.46-.72.95-.49.96-.47 1.2-.25.96-.24 1.21-.23.95.23 1.21v1.2l.74 2.63 1.18 2.65 1.7 2.87z"/><path id="AX" d="M434.01 442.87l3.13-.73 2.88-.96 2.15-1.21 1.92-1.42 1.46-1.69 1.21-1.92.47-2.16.24-2.16.96 1.45 1.21 1.42.94 1.2 1.21.96.96.96 1.21.49.96.49 1.21.22.96.25 1.18-.25.97-.22 1.2-.49.97-.71 1.21-.96.96-.98 1.18-1.43-3.85-19.94-1.43-2.16-1.67-1.91-1.46-1.94-1.43-1.67-1.68-1.45-1.7-1.45-1.68-1.18-1.67-.98-1.68-.96-1.92-.71-1.93-.5-1.67-.22-1.93-.24h-2.17-1.92l-1.92.46-14.41 12.01.22 3.37.25 3.14.49 1.43.23 1.2.49.96.71.96.72.98.96.71.96.47.97.24 1.2.25h1.43l1.46-.25 1.68-.46-.72.95-.49.96-.47 1.2-.25.96-.24 1.21-.23.95.23 1.21v1.2l.74 2.63 1.18 2.65 1.7 2.87 2.15 2.9"/><path id="AY" d="M440.42 423.5l2.88-.5 2.4-.95 1.92-.96 1.7-1.21 1.19-1.44.96-1.43.49-1.69.22-2.16.96 4.81.74 3.36.23 1.21.24.71.25.47.47.24h.25l.49-.46.47-.74.71-1.21 1.46-2.87 2.14-4.32-2.14-6.24-1.93-5.06-1.2-2.16-.97-1.67-1.43-1.69-1.21-1.21-1.67-.95-1.68-.47-1.92-.25h-2.42l-2.64.47-2.88.74-3.36 1.2-3.85 1.42v5.06l-.24 3.59.24 2.18.25 1.18.22.25h.5l.46-.25.5-.46 1.92-1.45 2.39-1.92-1.2 1.45-.47 1.92-.25 1.91v1.92l.72 2.4.96 2.17 1.45 2.65z"/><path id="AZ" d="M440.74 423.18l2.89-.5 2.39-.95 1.92-.96 1.7-1.2 1.19-1.45.96-1.43.49-1.69.22-2.16.97 4.81.74 3.36.22 1.21.24.71.25.47.47.24h.25l.49-.46.47-.74.71-1.2 1.46-2.88 2.14-4.32-2.14-6.24-1.93-5.06-1.2-2.16-.97-1.67-1.43-1.69-1.21-1.21-1.67-.95-1.68-.47-1.92-.25h-2.42l-2.64.47-2.88.74-3.36 1.2-3.85 1.42v5.06l-.24 3.59.24 2.19.25 1.17.22.25h.5l.47-.25.49-.46 1.92-1.45 2.39-1.92-1.2 1.45-.47 1.92-.25 1.91v1.92l.72 2.41.96 2.16 1.45 2.65 1.68 2.41"/><path id="Aa" d="M441.38 410.04l3.35-1.45 2.89-1.45 2.17-1.43 1.68-1.69.71-.96.74-.71.22-.96.5-.96.24-.98v-.96-1.2l-.24-.96 1.43 1.21 1.45.95 1.43.96 1.21.74 1.43.47 1.21.24 1.21.25h1.21l1.18-.25 1.21-.24 1.21-.47.96-.74.96-.71 1.19-.96.96-1.2.96-1.45-7.92-17.04-1.92-1.7-1.92-1.67-2.17-1.2-1.93-1.21-1.92-1.2-2.15-.71-1.92-.71-1.92-.74-2.17-.47-2.18-.24h-1.92-2.14l-2.17.24-2.17.47-2.15.49-1.92.71-13.22 13.46.71 3.12.96 2.65.5 1.21.71.95.72.96.96.71.96.74.96.22 1.21.49h1.19 1.2l1.46-.49 1.68-.46 1.67-.5-.47.96-.49.96-.25.98-.22.96v.96 1.2l.47.96.25.96 1.18 2.16 1.93 2.16 2.17 2.41z"/><path id="Ab" d="M441.7 409.72l3.36-1.45 2.88-1.45 2.17-1.42 1.68-1.7.71-.96.74-.71.23-.96.49-.96.25-.98v-.96-1.2l-.25-.96 1.43 1.21 1.45.95 1.43.96 1.21.74 1.43.47 1.21.24 1.21.25h1.21l1.18-.25 1.21-.24 1.21-.47.96-.74.96-.71 1.19-.96.96-1.2.96-1.45-7.92-17.04-1.92-1.7-1.92-1.67-2.17-1.2-1.93-1.21-1.92-1.2-2.15-.71-1.92-.71-1.92-.74-2.17-.47-2.17-.24h-1.93-2.14l-2.17.24-2.17.47-2.15.49-1.92.71-13.22 13.46.71 3.12.96 2.65.5 1.21.71.95.72.96.96.71.96.74.96.22 1.21.49h1.19 1.2l1.46-.49 1.68-.46 1.67-.5-.47.96-.49.96-.24.98-.23.96v.96 1.2l.47.96.25.96 1.18 2.16 1.93 2.16 2.17 2.41 2.88 2.16"/><path id="Ac" d="M445.23 391.05l2.88-.96 2.4-1.2 1.92-1.45 1.45-1.42 1.19-1.45.74-1.67.22-1.7-.22-1.67 1.92 4.08 1.43 2.65.47 1.18.49.49.47.49.25.23.49-.23.22-.49.5-.71.47-1.2 1.2-2.9 1.68-4.32-3.6-5.04-3.13-4.32-1.43-1.69-1.68-1.43-1.68-.96-1.7-.98-1.67-.47h-2.15-2.17l-2.42.72-2.86.73-2.88 1.43-3.63 1.69-3.82 1.92.96 4.57.47 3.12.49 2.16.72.95h.24.47l.47-.24.49-.71 1.68-1.45 2.42-2.41-.96 1.7-.5 1.67.25 1.94.47 1.67.96 1.91 1.46 1.94 2.14 1.92z"/><path id="Ad" d="M445.55 390.73l2.88-.95 2.4-1.21 1.92-1.45 1.46-1.42 1.18-1.45.74-1.67.22-1.69-.22-1.67 1.92 4.07 1.43 2.65.47 1.18.49.49.47.5.25.22.49-.22.23-.5.49-.71.47-1.2 1.21-2.9 1.67-4.32-3.6-5.04-3.13-4.32-1.43-1.69-1.68-1.43-1.67-.96-1.71-.98-1.67-.46h-2.15-2.17l-2.42.71-2.86.73-2.88 1.43-3.63 1.69-3.82 1.92.96 4.57.47 3.12.49 2.16.72.96h.24.47l.47-.25.5-.71 1.67-1.45 2.42-2.41-.96 1.7-.5 1.67.25 1.94.47 1.67.96 1.91 1.46 1.94 2.14 1.92 2.42 1.91"/></defs><g clip-path="url(#A)" transform="matrix(.591707 0 0 -.625885 -.715149 454.048319)"><path d="M1.209 725.45H529.08V103.27L271.75 1.179 1.209 103.27z" fill="#00923f" class="B"/><path d="M1.529 725.13H529.4V102.95L272.07.86 1.529 102.95z" class="C D E F G"/><use xlink:href="#x" class="B M"/><use xlink:href="#y" class="C D E F G"/><use xlink:href="#z" class="B N"/><use xlink:href="#AA" class="C D E F G"/><g class="B"><use xlink:href="#AB" class="I"/><use xlink:href="#AC" class="M"/><path d="M264.55 489.07l2.64-13.71 3.85 7.47 108.34-106.44H152.81l5.52 5.53 5.53 5.77 5.52 5.52 5.77 5.53 5.53 5.77 5.52 5.53 5.55 5.77 5.52 5.52 21.39 33.87v1.45 1.18l.22.98.49 1.18.47.74.49.95.72.47.71.74 1.7 1.2 2.15.71 2.64.96 2.66.96 3.36 1.2 3.35 1.45 3.85 1.67 4.09 2.16 4.32 2.9 4.81 3.61 2.39 1.92 2.42 2.16 2.39 2.63z" fill="#00923f"/></g><path d="M268.15 475.14l-1.92.22-2.64 13.46 1.9.49 2.88-13.7zm3.6 8.4l.25-1.2-3.85-7.2-1.7.71 3.63 7.45zm-1.67-.24l.71 1.2.96-.96zm109.3-107.87l-.72.25L270.3 482.09l1.45 1.45 108.37-106.41zm-227.29 1.7l.72.24h226.57v-1.94H152.81zm.72-1.7h-2.39l1.67 1.7zm43.72 46.37l1.71-.96-.25-.24-2.64-2.88-2.89-2.65-2.63-2.87-2.89-2.88-2.89-2.65-2.63-2.87-2.89-2.9-2.64-2.87-2.88-2.65-2.89-2.88-2.64-2.9-2.88-2.62-2.67-2.9-2.86-2.88-2.88-2.65-2.67-2.87-1.43 1.45 2.64 2.63 2.89 2.89 2.88 2.88 2.64 2.89 2.89 2.63 2.64 2.9 2.88 2.87 2.89 2.63 2.64 2.9 2.88 2.87 2.64 2.66 2.89 2.87 2.88 2.9 2.64 2.87 2.88 2.65 2.64 2.88zm1.71-.96v-.24h-.25zm21.38 34.36l-.25-.49-21.13-33.87-1.71.96 21.16 33.87zm0 0v-.24l-.25-.25zm45.87 34.11l-1.9-.49 1.68-.46-1.21-1.45-1.43-1.21-1.21-1.45-1.21-1.2-1.21-.96-1.43-1.2-1.21-.96-1.18-1.2-1.21-.96-1.21-.71-.96-.96-1.21-.74-1.18-.71-1.21-.96-.96-.49-1.21-.71-.96-.71-.96-.49-1.19-.47-.96-.74-1.92-.95-1.93-.72-1.92-.73-1.68-.72-1.67-.46-1.46-.74-2.88-.96-2.4-.71-1.2-.49-.97-.47-.47-.24-.49-.25-.24-.24-.47-.25-.25-.22-.47-.49-.25-.25-.24-.22-.25-.24-.22-.49-.25-.25-.24-.47v-.49l-.25-.46v-.5l-.22-.46v-.49-.72-.49-.71h-2.17v.71.74l.24.71v.47l.23.74v.71l.24.49.25.47.25.49.22.46.24.49.5.47.22.49.49.25.25.46.47.25.49.49.47.25.49.22.47.24 1.21.49 1.18.47 2.42.96 2.89.96 1.67.49 1.43.71 1.71.74 1.92.71 1.68.71 1.92.98.96.47 1.19.49.96.47.96.73.96.72 1.21.46.96.74 1.21.96 1.18.71.97.74 1.2.96 1.21.95 1.21.96 1.18.96 1.21 1.2 1.21.96 1.19 1.2 1.2 1.45 1.46 1.21 1.18 1.42zm-1.68.47l1.46 1.45.22-1.92z" class="I"/><path d="M266.45 449.18l29.08-26.42h-7.92l.25-4.79 80.96-74.24-27.86-.96V319l-141.54-.25-.22 26.18-24.52.25 71.84 72.3v5.06h-7.94z" class="B N"/><path d="M295.53 422.29h-.22l-29.33 26.43.72.71 29.07-26.18zm-8.41.47l.49.49h7.92v-.96h-7.92zm0 0l-.22.49h.71zm.49-5.04l-.25.25-.24 4.79h.96l.25-4.79zm0 0h-.25v.25zm81.21-74.46l-.24.22-80.97 74.24.72.72 80.96-74.22zm-28.36-.49l.5.49 27.86.96v-.96l-27.86-.98zm0 0v.49h.5zm.5-24.26l-.5.49v23.77h.96l.25-23.77zm.71.49v-.49h-.71zm-142.72-.25l.47.47 141.54.24v-.95l-141.54-.25zm.47-.49h-.47v.49zm-.22 27.16l.47-.49.24-26.18h-.96l-.25 26.18zm0 0h.47v-.49zm-24.76 0l.24.22 24.52-.22v-.96h-24.52zm.24-.96h-1.21l.97.96zm72.31 73.02l-.22-.25-71.62-72.54-.71.73 71.59 72.55zm0 0h0l-.22-.25zm-.47 5.52l.47-.46v-5.06h-.96v5.06zm0 0h.47v-.46zm-8.16-.24l.22.24h7.94v-.95h-7.94zm28.34 26.67v-.71l-27.62-26.67-.72.71 27.62 26.67zm-.72 0l.25.49.47-.49z" class="I"/><use xlink:href="#AD" class="B J"/><use xlink:href="#AE" class="C D E F G"/><use xlink:href="#x" class="B M"/><use xlink:href="#y" class="C D E F G"/><use xlink:href="#z" class="B N"/><use xlink:href="#AA" class="C D E F G"/><g class="B"><use xlink:href="#AB" class="I"/><use xlink:href="#AC" class="M"/><path d="M271.04 444.15l.47-1.45.71-.96.74-.49.72-.47h.71.72l.71.47.74.49 1.43 1.7 1.21 2.16 1.21 2.38 1.18 2.9 1.93-.96 1.67-1.45 1.46-1.2 1.21-1.45 1.68-2.63 1.18-2.65.74-1.2.71-.96.47-.96.96-.71.97-.49 1.2-.47h1.44l1.92.22 10.58-18.96.71-.98.97-.96.96-.96 1.45-.71 2.89-1.69 3.11-1.21 5.3-1.91 2.64-.71 3.35-.74 2.64-.96 1.21-.47.96-.73.96-.47.72-.71.49-.74.47-.96.25-.71.24-.96v-.98l-.24-1.18-.25-.98-.47-1.18 11.05-12.74 29.54-18.5-.24-5.28-.72-5.06-.47-2.38-.71-2.41-.96-2.4-1.21-2.41H157.62l-3.85 18.03v.22.24l.25.25.46.24 1.21.25 1.46.22 4.31.49 5.53 1.21 3.13.95 3.35 1.45 3.61 1.67 3.6 2.41 3.84 2.87 3.85 3.37 1.92 1.94 1.93 2.16 1.92 2.38 1.68 2.65 2.88 1.67 2.64 1.45 2.42 1.21 2.15.95 3.84 1.45 3.38.72 2.39.24 2.17-.24 1.43-.72.97-.49 1.2-.96v.25l-.71 2.65-.49 6.49 5.05 2.38 4.81 2.65 2.15 1.45 2.17 1.67 1.92 1.69 1.92 1.92 1.68 2.16 1.68 2.16 1.45 2.65 1.43 2.63 1.21 3.12.96 3.14.97 3.59.71 4.1 2.39 2.38 1.71 2.41 1.18 2.41.96 2.4 1.21 2.41 1.21 2.38 1.67 2.41 2.17 2.65z" fill="#8f5444"/></g><path d="M282.09 451.84l-.96-1.7 1.43.49-.47-1.45-.74-1.42-.47-1.45-.72-1.2-.49-.72-.22-.49-.25-.71-.49-.49-.47-.47-.25-.49-.47-.49-.24-.22-.5-.49-.46-.25-.5-.22-.47-.24h-.49-.47-.49-.47l-.71.24-.5.22-.22.49-.49.47-.47.49-.25.49-.49.72-.22.71 1.92.73.22-.49.25-.71.25-.24.24-.5.22-.22.25-.24h.25l.22-.25h.25.24.25.22l.25.25h.24l.25.24.22.22.25.25.49.49.22.25.25.46.49.49.23.47.24.49.5.71.47 1.21.49 1.2.71 1.45.47 1.42zm-1.46-.5l.25.96 1.21-.46zm19.24-14.88l-1.7-.96.96-.49-.96-.24h-.96-.72-.96l-.72.24-.71.25-.5.24-.71.47-.47.25-.49.49-.25.46-.47.74-.24.47-.47.49-.25.71-.25.49-.71 1.18-.72 1.45-.24.74-.47.46-.5.72-.24.73-.72.47-.47.74-.74.71-.46.49-.97.71-.71.47-.96.49-.96.71.96 1.7.96-.5.96-.71.96-.71.96-.49.72-.71.71-.74.72-.71.49-.71.47-.74.5-.71.46-.72.5-.73.71-1.43.47-1.2.25-.74.49-.46.22-.49.25-.47.25-.49.46-.25.25-.46.25-.25.47-.25h.49l.47-.24.49-.22h.47.72.74l.96.22zm-.96.47h.71l.25-.47zm9.84-20.41l-10.58 18.98 1.7.96 10.8-18.98zm18.99-7.69l-.25-1.91h-.96l-1.68.71-1.21.25-1.43.46-1.45.49-1.43.72-1.68.73-1.45.71-.72.25-.72.47-.96.49-.49.24-.72.47-.71.49-.72.47-.49.49-.47.49-.49.47-.47.71-.49.49 1.92.96.25-.47.24-.24.47-.5.25-.46.71-.25.5-.49.47-.47.71-.49.72-.24.74-.47.47-.24.96-.5 1.45-.71 1.43-.46 1.43-.74 1.46-.47 1.43-.49.96-.24 1.92-.72zm11.05-12.01l-1.46-1.44-.22 1.2.22.49.25.47v.49l.24.46v.5l.25.46v.49.49l-.25.23v.49.24l-.24.47v.24l-.25.25-.22.47-.25.24-.24.25-.47.49-.25.22-.47.25-.49.24-.47.25-.49.22-.47.24-.74.25-.47.24-.72.25-.74.22-.71.25h-.96l-.72.24-.96.25.25 1.91.96-.24.96-.25h.72l.96-.22.71-.24.72-.25.74-.25.71-.24.72-.22.49-.25.47-.49.72-.22.49-.25.47-.49.24-.46.47-.25.5-.49.24-.47.22-.49.25-.46.25-.5v-.46l.24-.74v-.47-.49-.71l-.24-.49v-.71l-.25-.49v-.72l-.25-.49-.46-.71zm-1.46-1.44l-.47.49.25.71zm11.3-12.73l-.23.25-11.07 12.48 1.46 1.44 11.04-12.74zm0 0h-.23v.25zm31-17.78l-1.43-.96-29.57 18.74.96 1.67 29.57-18.74zm-.47.71l.47-.22v-.49zm-4.81-21.61v1.92l-.72-.47.47 1.21.5.95.46 1.21.5 1.18.22 1.2.49 1.2.25 1.21.22 1.2.25 1.2.24 1.21v1.2l.23 1.2v1.43l.24 1.2v1.2 1.45h1.93v-1.45-1.2l-.25-1.42v-1.21l-.22-1.45v-1.2l-.25-1.2-.25-1.43-.24-1.2-.22-1.2-.5-1.45-.47-1.21-.24-1.2-.47-1.2-.49-1.21-.72-1.18zm.96.49l-.25-.49h-.71zm-218.66.23l.97 1.2h216.73v-1.92H157.62zm.97-.72h-.72l-.25.72zm-4.81 18.74l1.92.25 4.1-17.78-2.18-.49zm42.54 25.94l1.18-1.67.25.24-.96-1.2-.96-1.45-.97-1.2-.96-1.21-.96-.96-.96-1.2-.96-.96-.96-.95-.97-.96-.96-.96-.96-.74-.96-.95-1.19-.72-.96-.71-.71-.74-.96-.71-.97-.49-.96-.71-.96-.49-.96-.47-.96-.49-.97-.47-.71-.49-.96-.46-1.7-.74-1.68-.47-1.68-.74-1.68-.46-1.45-.25-1.43-.49-1.46-.22-1.43-.25-2.17-.24-1.92-.25-.96-.24h-.72l-.47-.22h-.49 0v-.25h0 0v.25h0 0 0l-1.92-.25v.25.46.25l.24.49.25.22h.22l.25.25.49.24h.47l.72.25.74.24h.96l1.92.22 2.15.25 1.21.25 1.43.24 1.45.47 1.43.24 1.46.5 1.67.46 1.68.71 1.68.74.74.47.96.24.71.49.97.47.96.49.71.47.97.74.96.46.96.74.96.71.72.71.96.74.96.71.96.96.96.71.97.98.96.96.96.96.96.96.72 1.2.96 1.2.96.96.96 1.45.96 1.2zm-.25-.23l.25.23h0zm24.52 15.13l.71-1.91.72.96v-1.94l.24-1.67.25-1.45v-1.21l.47-1.67.25-.95v-.25-.25l-1.68-.95-.25.24v.25h-.24l-.25.22-.22.24-.5.5-.46.24h-.25l-.25.22h-.47l-.24.25h-.5-.46-.47l-.5.24h-.46l-.5-.24h-.71-.72-.74l-.71-.25-.72-.22-.71-.24-.97-.25-.96-.25-.96-.46-.96-.25-1.21-.49-.96-.71-1.21-.49-1.18-.72-1.21-.71-1.43-.73-1.21-.72-1.46-.95-1.18 1.67 1.43.95 1.46.74 1.43.96 1.2.71 1.19.49 1.21.71 1.2.5 1.21.46.97.49.96.47.96.25.94.24.96.25.74.24.96.22h.71l.72.25h.72.74.46.72l.49-.25h.72.47l.49-.22h.25l.46-.24.5-.25.47-.24.71-.47.49-.25.25-.49.22-.22.25-.24h0l-1.68-.74h0v.24l-.49.96-.22 1.94-.25 1.18v1.45l-.25 1.69v2.17zm-.5-.95l-.24.71.74.24zm28.61 36.02l1.19-1.45.49.5-.49-1.92-.47-1.94-.25-1.92-.71-1.91-.5-1.7-.47-1.67-.71-1.44-.49-1.67-.72-1.45-.71-1.21-.74-1.45-.72-1.2-.96-1.18-.72-1.2-.96-.96-.96-1.2-.96-.99-.96-.95-.97-.96-1.2-.96-.97-.71-1.18-.74-.96-.96-1.21-.71-1.21-.71-1.18-.49-1.21-.71-1.21-.74-1.18-.47-1.46-.73-1.21-.47-1.43-.71-.71 1.91 1.18.47 1.46.74 1.2.46 1.19.74 1.21.47 1.21.71 1.18.74 1.21.46.96.74 1.21.71.96.96.96.74.96.71.97.96.96.95.96.96.96.96.72.98.71 1.18.96.98.72 1.18.71 1.45.5 1.2.71 1.45.72 1.43.49 1.45.47 1.69.49 1.67.47 1.7.49 1.67.47 1.91.25 1.94zm-.49-.71l.25.47.24.24zm14.43 19.92l-1.7-1.18h1.45l-.49-.74-.72-.46-.47-.74-.49-.47-.47-.73-.25-.47-.49-.49-.22-.71-.74-1.21-.47-1.2-.71-.96-.5-1.2-.47-1.21-.49-1.44-.71-1.18-.47-1.21-.5-.73-.46-.47-.5-.74-.47-.71-.49-.49-.47-.71-.74-.71-.71-.5-1.19 1.45.47.47.72.74.49.46.47.74.49.47.22.49.5.71.24.49.72 1.2.47 1.21.49 1.18.72 1.2.49 1.2.47 1.21.49 1.2.72 1.2.46.72.5.73.47.47.49.74.47.71.49.49.72.71.71.71zm-1.46.24l.72.74.74-.98zM272 444.39l-1.92-.95-10.11 13.21 1.7 1.18 10.08-13.21zm-.25.23h0l.25-.23z" class="I"/><use xlink:href="#AD" class="B J"/><use xlink:href="#AE" class="C D E F G"/><path d="M150.17 515.74l-1.68-1.45-1.68-1.67-1.45-1.45-1.43-1.69-2.64-3.59-2.66-3.36-2.64-3.61-2.89-3.37-1.67-1.45-1.68-1.42-1.93-1.45-2.17-1.2 2.67 1.91 2.14 1.94 2.17 2.16 1.93 1.92 3.1 3.61 2.67 3.58 2.39 3.15 2.39 2.87.96 1.45 1.46.96 1.21 1.2 1.43.96-5.28-9.6-5.77-10.34-1.46-2.41-1.67-1.92-1.68-1.91-1.68-1.7-1.92-1.2-1.92-.96-.97-.24h-.96l-1.21-.22-.96.22-3.1-2.16-2.64-2.16-1.93-2.17-1.7-2.16-.96-2.16-.96-1.91-.47-2.17v-2.16l-2.39 1.43.71 2.4 1.19 2.17 1.2 2.16 1.21 1.94 1.68 2.16 1.68 1.91 1.7 1.92 2.14 1.92-.24 2.89v2.88l.49 2.4.96 2.41.96 1.92 1.43 1.91 1.46 1.7 1.92 1.42 2.15 1.69 2.17 1.21 2.64 1.45 2.41 1.42 5.78 2.9z" class="B J"/><path d="M150.49 515.42l-1.68-1.45-1.67-1.67-1.46-1.45-1.43-1.69-2.64-3.59-2.66-3.36-2.64-3.61-2.89-3.37-1.67-1.45-1.68-1.42-1.92-1.45-2.18-1.2 2.67 1.91 2.14 1.94 2.17 2.16 1.93 1.92 3.11 3.61 2.66 3.58 2.39 3.15 2.39 2.87.97 1.45 1.45.96 1.21 1.2 1.43.96-5.28-9.6-5.77-10.34-1.45-2.41-1.68-1.91-1.68-1.92-1.68-1.7-1.92-1.2-1.92-.96-.96-.24h-.97l-1.21-.22-.96.22-3.1-2.16-2.64-2.16-1.93-2.17-1.7-2.16-.96-2.16-.96-1.91-.47-2.16v-2.17l-2.39 1.43.71 2.41 1.19 2.16 1.2 2.16 1.21 1.94 1.68 2.16 1.68 1.91 1.7 1.92 2.14 1.92-.24 2.89v2.88l.49 2.4.96 2.41.96 1.92 1.43 1.91 1.46 1.7 1.92 1.42 2.15 1.7 2.17 1.2 2.64 1.45 2.42 1.42 5.77 2.9 5.99 3.12" class="C D E F G"/><use xlink:href="#AF" class="B L"/><use xlink:href="#AG" class="C D E F G"/><use xlink:href="#AH" class="B L"/><use xlink:href="#AI" class="C D E F G"/><use xlink:href="#AJ" class="B L"/><use xlink:href="#AK" class="C D E F G"/><use xlink:href="#AL" class="B L"/><use xlink:href="#AM" class="C D E F G"/><use xlink:href="#AN" class="B L"/><use xlink:href="#AO" class="C D E F G"/><use xlink:href="#AP" class="B L"/><use xlink:href="#AQ" class="C D E F G"/><use xlink:href="#AR" class="B L"/><use xlink:href="#AS" class="C D E F G"/><use xlink:href="#AT" class="B L"/><use xlink:href="#AU" class="C D E F G"/><path d="M117.24 508.05l-1.43-1.91-.96-2.41-.49-2.16-.22-2.16.47-4.82.71-4.81.49-2.38.25-2.16.22-2.41-.22-2.16-.25-2.41-.96-2.16-1.21-1.92-1.67-2.16 2.39 2.88 2.42 2.16 2.39 1.91 2.42 1.21 2.63 1.2 2.4.71 2.41.49 2.15.47 4.59.49 4.07.49 1.92.47 1.92.74 1.68.95 1.45 1.21-1.2-2.65-1.21-2.41-1.43-1.92-1.93-2.16-1.67-1.69-2.17-1.67-2.17-1.45-2.4-1.21-2.41-1.2-2.64-.96-2.64-.71-2.64-.71-5.06-1.2-5.27-.74-2.89-3.37-2.17-3.11-1.68-2.88-1.18-2.9-.49-2.62-.47-2.66.22-2.4.49-2.63-3.13 1.2.25 2.63.47 2.9.74 2.63.96 2.65 1.18 2.87 1.21 2.65 1.43 2.66 1.92 2.62-1.43 3.37-.96 3.12-.96 2.9-.71 2.87-.5 2.65-.22 2.38v2.41l.22 2.16.5 2.41.71 2.16 1.21 2.41 1.43 2.16 1.68 2.4 2.17 2.41 2.39 2.63z" class="B J"/><path d="M117.57 507.73l-1.44-1.91-.96-2.41-.49-2.16-.22-2.16.47-4.82.71-4.81.49-2.38.25-2.16.22-2.41-.22-2.16-.25-2.41-.96-2.16-1.21-1.91-1.67-2.17 2.39 2.88 2.42 2.16 2.39 1.91 2.42 1.21 2.63 1.2 2.4.71 2.41.49 2.15.47 4.59.49 4.07.49 1.92.47 1.92.74 1.68.95 1.46 1.21-1.21-2.65-1.21-2.41-1.43-1.92-1.93-2.16-1.67-1.69-2.17-1.67-2.17-1.45-2.4-1.2-2.41-1.21-2.64-.96-2.64-.71-2.64-.71-5.05-1.2-5.28-.74-2.89-3.36-2.17-3.12-1.68-2.88-1.18-2.9-.49-2.62-.47-2.66.22-2.4.49-2.63-3.13 1.2.25 2.63.47 2.9.74 2.63.96 2.65 1.18 2.87 1.21 2.66 1.43 2.65 1.93 2.63-1.44 3.36-.96 3.12-.96 2.9-.71 2.87-.5 2.65-.22 2.38v2.41l.22 2.16.5 2.41.71 2.16 1.21 2.41 1.43 2.16 1.68 2.41 2.17 2.4 2.39 2.63 2.89 2.65" class="C D E F G"/><use xlink:href="#AF" class="B J"/><use xlink:href="#AG" class="C D E F G"/><use xlink:href="#AH" class="B J"/><use xlink:href="#AI" class="C D E F G"/><use xlink:href="#AJ" class="B J"/><use xlink:href="#AK" class="C D E F G"/><use xlink:href="#AL" class="B J"/><use xlink:href="#AM" class="C D E F G"/><use xlink:href="#AN" class="B J"/><use xlink:href="#AO" class="C D E F G"/><use xlink:href="#AP" class="B J"/><use xlink:href="#AQ" class="C D E F G"/><use xlink:href="#AR" class="B J"/><use xlink:href="#AS" class="C D E F G"/><use xlink:href="#AT" class="B J"/><use xlink:href="#AU" class="C D E F G"/><path d="M100.67 243.8l1.68-1.67 1.7-1.45 1.9-1.21 1.7-1.2 1.92-.71 2.15-.74 1.92-.46 1.93-.5 4.34-.46 4.31-.25h4.32l4.34.25h4.32l4.31-.25 4.34-.24 4.07-.96 1.93-.49 1.92-.71 1.92-.96 1.68-1.21 1.7-1.2 1.68-1.67 1.68-1.69 1.43-1.92-2.15 2.65-2.17 2.39-1.68 2.65-1.67 2.4-1.21 2.41-1.21 2.38-.96 2.66-.96 2.16-1.19 4.81-.49 4.57-.47 4.54v4.32l.47 8.18.25 7.44-.5 3.61-.47 3.37-.71 1.67-.5 1.69-.96 1.45-.96 1.67 2.17-1.45 2.17-1.2 2.15-1.67 1.92-1.45 3.6-3.58 3.38-3.61 2.89-4.08 2.63-4.35 2.4-4.54 1.92-4.82 1.68-4.81 1.21-5.03.96-4.82.71-5.03.25-4.82v-4.78l-.25-4.57-.71-4.32 4.56-3.12 4.81-2.9 4.81-2.88 5.03-2.65 4.81-2.4 5.05-2.39 4.81-2.18 5.04-2.16 10.33-3.83 10.09-3.37 10.33-3.36 10.58-2.88 20.91-5.28 21.39-4.57 21.13-4.81 21.14-5.03-11.05 1.91-11.05 2.16-11.05 1.92-11.05 1.91-11.05 1.94-11.07 2.17-10.8 2.16-10.8 2.16-10.83 2.63-10.56 2.89-10.58 2.88-10.33 3.61-10.09 3.61-10.08 4.32-5.06 2.16-4.81 2.38-4.81 2.41-4.81 2.65-6.48-1.69-5.75-1.43-5.52-.95-5.06-.5h-2.17-2.39l-2.17.25-2.17.47-2.15.24-1.92.74-2.17.47-1.93.95-1.92.96-1.68.96-1.92 1.2-1.92 1.21-3.61 3.11-3.6 3.62-3.6 4.07-3.6 4.82-3.84 5.03z" class="B J"/><path d="M100.99 243.48l1.68-1.67 1.7-1.45 1.9-1.2 1.7-1.21 1.93-.71 2.14-.74 1.92-.46 1.93-.49 4.34-.47 4.31-.25h4.32l4.34.25h4.32l4.31-.25 4.34-.24 4.07-.96 1.93-.49 1.92-.71 1.92-.96 1.68-1.2 1.7-1.21 1.68-1.67 1.68-1.69 1.43-1.92-2.15 2.65-2.17 2.39-1.68 2.65-1.67 2.41-1.21 2.4-1.21 2.38-.96 2.66-.96 2.16-1.19 4.81-.49 4.57-.47 4.54v4.33l.47 8.17.25 7.44-.5 3.61-.47 3.37-.71 1.67-.49 1.69-.97 1.45-.96 1.67 2.17-1.45 2.17-1.2 2.15-1.67 1.92-1.45 3.6-3.58 3.38-3.61 2.89-4.08 2.64-4.35 2.39-4.54 1.92-4.81 1.68-4.82 1.21-5.03.96-4.82.71-5.03.25-4.81v-4.79l-.25-4.57-.71-4.32 4.56-3.12 4.81-2.9 4.81-2.87 5.03-2.66 4.81-2.4 5.06-2.39 4.8-2.18 5.04-2.16 10.33-3.83 10.09-3.37 10.33-3.36 10.58-2.88 20.91-5.28 21.39-4.56 21.13-4.82 21.14-5.03-11.05 1.91-11.05 2.16-11.05 1.92-11.05 1.92-11.05 1.94-11.07 2.16-10.8 2.16-10.8 2.16-10.83 2.63-10.56 2.89-10.58 2.88-10.33 3.61-10.09 3.61-10.08 4.32-5.06 2.16-4.81 2.38-4.81 2.41-4.81 2.65-6.48-1.69-5.75-1.43-5.52-.95-5.06-.49h-2.17-2.39l-2.17.24-2.17.47-2.15.24-1.92.74-2.17.47-1.93.95-1.92.96-1.68.96-1.92 1.2-1.92 1.21-3.6 3.12-3.61 3.61-3.6 4.07-3.6 4.82-3.84 5.03-4.1 6.02" class="C D E F G"/><path d="M1.209 624.81h527.87v100.64H1.209z" class="B N"/><path d="M1.529 624.49h527.87v100.64H1.529z" class="C D E F G"/><g class="I"><path d="M50.488 654.6v38.187h7.774v-31.7h19.33V654.6z"/><use xlink:href="#AV"/><path d="M124.723 654.6v38.503h11.635l6.986-26.264 6.907 26.264h11.661V654.6h-7.223v30.308l-7.643-30.308h-7.485l-7.616 30.308V654.6zm44.507 38.503h15.391q4.57 0 6.802-.394 2.259-.368 4.018-1.576 1.786-1.208 2.968-3.23 1.182-1.996 1.182-4.491 0-2.705-1.471-4.964-1.445-2.259-3.94-3.388 3.519-1.024 5.41-3.493 1.891-2.469 1.891-5.804 0-2.626-1.234-5.121-1.208-2.469-3.335-3.966-2.101-1.471-5.2-1.812-1.944-.21-9.376-.263H169.23zm7.774-6.408v-8.903h5.095q4.544 0 5.647.131 1.996.236 3.125 1.366 1.156 1.156 1.156 3.02 0 1.786-.998 2.889-.972 1.129-2.915 1.366-1.156.131-6.645.131zm0-15.312v-10.295h7.196q4.202 0 5.332.236 1.733.315 2.81 1.523 1.103 1.234 1.103 3.283 0 1.733-.84 2.942-.84 1.208-2.443 1.76-1.576.552-6.881.552zm29.459 2.232q0 5.883 1.76 9.875 1.313 2.942 3.572 5.279 2.285 2.337 4.99 3.467 3.598 1.523 8.299 1.523 8.509 0 13.605-5.279 5.121-5.279 5.121-14.681 0-9.324-5.069-14.603-5.069-5.253-13.552-5.253-8.588 0-13.657 5.226-5.069 5.253-5.069 14.445zm8.01.263q0-6.54 3.02-9.928 3.02-3.362 7.669-3.362 4.649 0 7.616 3.335 2.994 3.362 2.994 10.059 0 6.618-2.915 9.875-2.889 3.257-7.695 3.257-4.806 0-7.748-3.309-2.942-3.283-2.942-9.928zm35.302-19.278v38.503h7.774v-17.098l15.706 17.098h10.453l-14.498-14.997 15.285-23.506h-10.059l-10.584 18.069-6.303-6.435V654.6zm53.416 38.503h7.774V672.25q0-4.964.289-6.435.499-2.364 2.364-3.808 1.891-1.418 5.148-1.418 3.309 0 4.99 1.339 1.681 1.366 2.022 3.335.341 1.97.341 6.54v21.3h7.774V672.88q0-6.934-.63-9.796-.63-2.863-2.337-4.833-1.681-1.97-4.517-3.152-2.836-1.156-7.406-1.156-5.515 0-8.378 1.261-2.836 1.287-4.491 3.309-1.655 2.049-2.18 4.281-.762 3.309-.762 9.77zm47.554-38.503v31.989H339.32v6.513h30.597v-6.513h-11.398V654.6zm54.723 0h-8.457l-3.362 8.746h-15.391l-3.178-8.746h-8.247l14.997 38.503h8.221zm-14.314 15.233l-5.305 14.287-5.2-14.287zm18.454-15.233v38.503h16.362q6.172 0 8.956-1.051 2.81-1.024 4.491-3.677 1.681-2.653 1.681-6.067 0-4.334-2.548-7.17-2.548-2.81-7.616-3.546 2.521-1.471 4.15-3.23 1.655-1.76 4.439-6.251l4.701-7.511h-9.297l-5.62 8.378q-2.994 4.491-4.097 5.647-1.103 1.182-2.337 1.602-1.234.446-3.913.446h-1.576V654.6zm7.774 22.219h5.752q5.594 0 6.986.473 1.392.473 2.18 1.628.788 1.156.788 2.889 0 1.944-1.051 3.125-1.024 1.208-2.915 1.523-.945.131-5.673.131h-6.067zm65.487-22.219h-8.457l-3.362 8.746h-15.39l-3.178-8.746h-8.247l14.997 38.503h8.221zm-14.314 15.233l-5.305 14.287-5.2-14.287z"/></g><path d="M236.66 421.09l24.51-22.35-6.73.25.25-4.08 68.24-62.48-23.55-.96.24-19.94 5.06-.22 14.65-31.95-3.6-2.16-4.1-1.94-4.09-1.92-4.32-1.45-4.31-1.42-4.57-1.21-4.8-.95-4.81-.96-4.81-.49-5.06-.49-5.03-.22h-5.06l-5.27.22-5.06.49-5.03.71-5.3.74-5.03.95-5.06 1.45-5.03 1.43-5.06 1.69-4.81 1.67-4.8 2.16-4.57 2.41-4.56 2.41-4.32 2.87-4.09 2.9-4.07 3.12-3.85 3.36-3.62 3.59-3.36 3.85-3.13 4.08-2.86 4.32 4.32.74v22.1h-20.67l60.3 61.01v4.32l-6.49-.25z" class="B N"/><path d="M261.17 397.78l-.71.25-24.52 22.32 1.46 1.45 24.49-22.35zm-7.69.96l.96 1.2h6.73v-2.16h-6.73zm0 0v1.2h.96zm.74-4.57l-.49.49-.25 4.08 1.92.25.5-4.08zm0 0l-.49.25v.24zm68.71-62.92l-.72.47-67.99 62.45 1.18 1.45 68.24-62.45zm-24.52.22l.97.96 23.55.98v-2.16l-23.55-.74zm0 0v.96h.97zm1.21-21.12l-.96 1.18-.25 19.94h1.93l.24-19.94zm0 0h-.96v1.18zm5.99 1.43l-.93-1.43h-5.06v2.16h5.06zm-.93.73l.71-.24.22-.49zm15.12-33.89l-1.43.25-14.65 32.19 1.89.72 14.68-31.95zm.49 1.21l.25-.96-.74-.25zm-144.65 31.7l.25-1.91.72 1.44.71-.95.72-1.21.71-.95.74-.96.72-1.21.96-.95.71-.99.72-.95.96-.96.74-.96.94-.96.74-.96 1.92-1.69 1.68-1.92 1.92-1.67 1.93-1.69 1.92-1.45 1.92-1.67 2.15-1.45 2.17-1.42 2.17-1.45 2.15-1.2 2.17-1.21 2.17-1.45 2.39-.95 2.17-1.21 2.39-1.2 2.42-.96 2.39-.96 2.42-.96 2.39-.71 2.39-.73 2.66-.96 2.4-.47 2.39-.74 2.66-.71 2.4-.49 2.63-.47 2.64-.49 2.42-.22 2.64-.49 2.39-.24 2.64-.25 2.66-.22h2.4l2.63-.25h2.42 2.64l2.39.25h2.64l2.42.22 2.39.25 2.42.24 2.64.25 2.39.46 2.17.49 2.39.47 2.42.49 2.17.49 2.39.72 2.17.71 2.15.73 2.17.72 2.17.71 1.92.96 2.15.73 1.92.96 1.92 1.21 1.68.95 1.92 1.21.97-1.7-1.68-1.2-1.92-1.18-2.18-.98-1.89-.96-2.17-.96-1.93-.96-2.17-.71-2.14-.74-2.42-.71-2.17-.71-2.39-.74-2.17-.46-2.4-.49-2.41-.47-2.4-.49-2.39-.49-2.66-.22-2.39-.25-2.4-.25-2.66-.24-2.39-.22h-2.64-2.64-2.42-2.63l-2.64.22-2.64.24-2.42.25-2.64.25-2.64.22-2.64.49-2.63.49-2.42.47-2.64.49-2.64.71-2.42.49-2.64.71-2.39.96-2.64.71-2.41.98-2.4.72-2.41 1.2-2.39.96-2.4.96-2.41 1.2-2.4 1.2-2.17 1.21-2.39 1.45-2.17 1.17-2.17 1.45-2.14 1.45-2.17 1.67-1.93 1.45-2.17 1.67-1.92 1.7-1.93 1.67-1.67 1.94-1.93 1.91-.96.96-.71.96-.97.95-.71.96-.96.98-.72.96-.74.96-.71 1.2-.96.96-.72 1.21-.72.95-.71 1.21zm-.71-1.42l-.74 1.2 1.45.22zm.96-.49v.95zm-.96.49l-.74 1.2 1.45.22zm6.49 1.2l-.97-.96-4.56-.73-.25 1.91 4.57.74zm0 0v-.74l-.97-.22zm-1.21 23.06l.96-.96.25-22.1h-2.17v21.86zm0 0h.96v-.96zm-21.38-.25l.71.25h20.67v-2.16l-20.67.22zm.71-1.69h-2.39l1.68 1.69zm61.26 61.99l-.22-.71-60.32-61.03-1.43 1.44 60.29 61.01zm0 0v-.25l-.22-.46zm-.96 5.28l.96-.96v-4.32h-1.92v4.32zm0 0h.96v-.96zm-7.2-.47l.71.47h6.49v-2.16h-6.49zm24.76 22.57v-1.45l-23.31-22.57-1.45 1.45 23.3 22.57zm-1.46 0l.72.74.74-.74z" class="I"/><path d="M180.53 333.09l119.17-1.94" stroke="#fff" class="C D E F"/><g class="I"><path d="M302.01 310.35h-121.8v1.92l121.8.24z"/><path d="M389.71 513.58l2.67.24h2.39l2.17-.24 1.68-.25 1.43-.71 1.21-.98.96-1.18.71-1.7.96 2.66 1.46 2.16.47.71.71.71.96.49.74.49.97.47.71.25h.96.97l2.14-.49 2.17-.96.96-14.42-1.21-3.58-1.67-3.15-2.17-2.87-2.15-2.41-1.21-.96-1.21-.95-1.43-.72-1.45-.95-2.89-.99-3.35-.95-13.93 4.32-.72 2.41-.25 1.91v1.94l.5 1.67.47.71.49.74.71.71.72.49.96.47.96.25 1.21.24 1.43.25-1.43.95-.96 1.21-.74 1.42-.22 1.7v1.67l.22 2.16.74 2.41z" class="B"/></g><path d="M390.03 513.26l2.67.24h2.39l2.17-.24 1.68-.25 1.43-.71 1.21-.98.96-1.18.71-1.7.96 2.66 1.46 2.16.47.71.71.71.97.49.74.49.96.47.71.25h.96.97l2.14-.49 2.17-.96.96-14.42-1.2-3.58-1.68-3.15-2.17-2.87-2.15-2.41-1.21-.96-1.2-.95-1.43-.72-1.46-.95-2.89-.99-3.35-.95-13.93 4.32-.72 2.41-.25 1.91v1.94l.5 1.67.47.71.49.74.71.71.72.49.96.47.96.25 1.21.24 1.43.25-1.43.96-.96 1.2-.74 1.42-.22 1.7v1.67l.22 2.16.74 2.41z" class="C D E F G"/><path d="M400.29 500.12l2.4.24h1.92 1.92l1.46-.49 1.43-.46.96-.99.72-.95.74-1.21-.25 3.37-.25 2.4v1.45l.5.72.71-.25 1.21-.71 1.92-1.67 2.64-2.16-.49-4.82-.47-3.85-.49-1.67-.47-1.67-.72-1.21-.74-1.2-.96-1.2-1.43-.74-1.45-.71-1.9-.47-2.17-.49-2.42-.24-3.11-.25h-3.13l-1.92 5.53-.47 2.4.22.25.25.24h.49l.47-.24 1.68-.49 2.41-.72-1.21.96-.71.96-.72 1.2-.24 1.45v1.45l.24 1.92.47 1.91z" class="B K"/><path d="M400.61 499.8l2.4.25h1.92 1.92l1.46-.5 1.43-.46.96-.98.72-.96.74-1.21-.25 3.37-.25 2.41v1.44l.5.72.71-.25 1.21-.71 1.92-1.67 2.64-2.16-.49-4.82-.47-3.85-.49-1.67-.47-1.67-.72-1.21-.74-1.2-.96-1.2-1.43-.74-1.45-.71-1.9-.47-2.17-.49-2.42-.24-3.11-.25h-3.13l-1.92 5.53-.47 2.4.22.25.25.24h.49l.47-.24 1.68-.49 2.41-.72-1.21.96-.71.96-.72 1.2-.24 1.45v1.45l.24 1.92.47 1.91.96 2.41" class="C D E F G"/><path d="M404.39 493.39l2.64.25 2.39.24 2.17-.24 1.68-.5 1.67-.71 1.21-.96.72-1.2.71-1.45 1.21 2.41 1.21 2.16.71.71.72.74.74.71.71.49.97.22.71.25h.96.96l2.18-.47 2.14-.96 1.21-14.41-1.43-3.61-1.7-3.12-1.93-2.9-2.39-2.38-1.21-.98-1.18-.96-1.46-.71-1.43-.96-2.88-.96-3.38-.96-13.93 4.33-.72 2.38-.25 1.94v1.91l.5 1.67.47.99.49.46.71.74.72.47.96.49.96.22 1.21.24 1.43.25-1.43.96-.96 1.2-.72 1.45-.24 1.67v1.92l.24 1.94.72 2.38z" class="B I"/><path d="M404.71 493.07l2.64.25 2.39.24 2.17-.24 1.68-.49 1.67-.72 1.21-.95.72-1.21.71-1.45 1.21 2.41 1.21 2.16.71.71.72.74.74.71.71.49.97.22.71.25h.96.97l2.17-.47 2.14-.95 1.21-14.42-1.43-3.61-1.7-3.12-1.93-2.9-2.39-2.38-1.21-.98-1.18-.96-1.46-.71-1.43-.96-2.88-.96-3.38-.96-13.93 4.33-.72 2.38-.25 1.94v1.91l.5 1.67.47.99.49.46.71.74.72.47.96.49.96.22 1.21.24 1.43.25-1.43.96-.96 1.2-.72 1.45-.24 1.67v1.92l.24 1.94.72 2.38 1.21 2.65" class="C D E F G"/><path d="M414.94 479.93l2.64.25 2.42.24 2.17-.24 1.68-.47 1.43-.49 1.2-.96.97-1.2.71-1.45-.24 3.86-.23 2.62v1.21.73l.23.47.24.25.72-.25 1.45-.96 2.17-1.91 3.11-2.41-.47-5.53-.74-4.56-.22-1.92-.72-1.69-.74-1.67-.96-1.21-1.18-1.2-1.46-.96-1.67-.96-2.17-.49-2.64-.46-2.89-.5-3.35-.24h-3.85l-1.21 3.85-.71 2.66-.72 1.91v.96l.22.25h.5.47l.74-.25 1.92-.49 2.64-.71-1.21.95-1.21 1.21-.71 1.2-.25 1.67v1.94l.25 1.92.71 2.4z" class="B K"/><path d="M415.26 479.61l2.64.25 2.42.24 2.17-.24 1.68-.47 1.43-.49 1.21-.96.96-1.2.71-1.45-.24 3.86-.23 2.62v1.21.73l.23.47.24.25.72-.25 1.45-.96 2.17-1.91 3.11-2.41-.47-5.53-.74-4.56-.22-1.92-.72-1.69-.73-1.67-.97-1.21-1.18-1.2-1.46-.96-1.67-.96-2.17-.49-2.64-.46-2.89-.5-3.35-.24h-3.85l-1.21 3.86-.71 2.65-.72 1.91v.96l.22.25h.5.47l.74-.25 1.92-.49 2.64-.71-1.21.96-1.21 1.2-.71 1.2-.25 1.67v1.94l.25 1.92.71 2.4z" class="C D E F G"/><path d="M423.35 471.53l2.89-.49 2.64-.96 2.17-.95 1.67-1.21 1.46-1.2.96-1.67.47-1.45v-1.92l2.17 2.41 2.17 1.67 1.18.49.97.47.96.49h1.21l.96.25.96-.25.96-.25 1.21-.46.96-.49.94-.72.96-.95.96-.99-4.07-15.84-2.88-3.12-3.13-2.89-1.68-1.21-1.43-.95-1.7-.96-1.68-.96-1.68-.49-1.67-.47-1.93-.49-1.67-.22-1.93-.25-1.92.25h-1.93l-1.92.22-13.22 9.85.25 2.9.47 2.4.24.96.5.96.47.96.71.71.72.74.74.46.96.25.96.24 1.18.25h1.46l1.43-.25 1.45-.24-1.2 1.45-.72 1.67v1.91l.22 1.7.74 2.16 1.19 1.91 1.7 2.41z" class="B I"/><path d="M423.67 471.21l2.89-.49 2.64-.96 2.17-.95 1.68-1.21 1.45-1.2.96-1.67.47-1.45v-1.91l2.17 2.4 2.17 1.67 1.18.49.97.47.96.49h1.21l.96.25.96-.25.96-.24 1.21-.47.96-.49.94-.71.96-.96.96-.98-4.07-15.85-2.88-3.11-3.13-2.9-1.68-1.21-1.43-.95-1.7-.96-1.68-.96-1.68-.49-1.67-.47-1.93-.49-1.67-.22-1.93-.24-1.92.24h-1.93l-1.92.22-13.22 9.85.25 2.9.47 2.4.24.96.5.96.47.96.71.71.72.74.74.46.96.25.96.24 1.18.25h1.46l1.43-.25 1.45-.24-1.2 1.45-.72 1.67v1.91l.22 1.7.74 2.16 1.19 1.92 1.7 2.4 2.14 2.16" class="C D E F G"/><path d="M430.8 455.2l2.66-.74 2.4-1.17 2.17-1.45 1.67-1.7 1.43-1.67.97-1.91.71-1.94v-1.67l1.21 3.83.71 2.65.5.96.24.73.23.47.49.25.25-.25.47-.25.49-.71.47-.96 1.45-2.4 2.15-3.61-.47-3.37-.49-2.87-.72-2.87-.71-2.41-1.21-2.16-.96-1.94-1.44-1.43-1.7-.95-1.92-.96-1.9-.25h-2.42l-2.64.47-2.88.74-3.13 1.42-3.36 1.7-3.84 2.16-.25 4.07-.22 3.12-.5 1.94-.24.96 1.45-.49 6.24-2.87-.47.71-.49.71-.47.98-.25.96-.49 2.16v2.16l.49 2.63.97 2.41 1.43 2.4z" class="B K"/><path d="M431.12 454.88l2.66-.74 2.4-1.17 2.17-1.45 1.67-1.7 1.43-1.67.97-1.91.71-1.94v-1.67l1.21 3.83.72 2.65.49.96.25.73.22.47.49.25.25-.25.47-.24.49-.72.47-.95 1.45-2.41 2.15-3.61-.47-3.37-.49-2.87-.72-2.87-.71-2.41-1.21-2.16-.96-1.94-1.43-1.43-1.71-.95-1.92-.96-1.9-.25h-2.42l-2.63.47-2.89.74-3.13 1.42-3.36 1.7-3.84 2.16-.25 4.07-.22 3.12-.5 1.94-.24.96 1.45-.49 6.24-2.87-.47.71-.49.71-.47.98-.24.96-.5 2.16v2.16l.5 2.63.96 2.41 1.43 2.4 1.92 2.41" class="C D E F G"/><use xlink:href="#AW" class="B I"/><use xlink:href="#AX" class="C D E F G"/><use xlink:href="#AY" class="B K"/><use xlink:href="#AZ" class="C D E F G"/><use xlink:href="#AW" class="B I"/><use xlink:href="#AX" class="C D E F G"/><use xlink:href="#AY" class="B K"/><use xlink:href="#AZ" class="C D E F G"/><use xlink:href="#Aa" class="B I"/><use xlink:href="#Ab" class="C D E F G"/><use xlink:href="#Ac" class="B K"/><use xlink:href="#Ad" class="C D E F G"/><use xlink:href="#Aa" class="B I"/><use xlink:href="#Ab" class="C D E F G"/><use xlink:href="#Ac" class="B K"/><use xlink:href="#Ad" class="C D E F G"/><path d="M447.4 378.55l3.11-2.38 2.63-2.65 1.93-2.41 1.45-2.41.47-.95.25-1.21.25-1.18v-1.2-1.2l-.25-.96-.47-1.2-.49-.96 1.92.71 1.92.71 1.93.49 1.67.25 1.46.22h1.68l1.43-.22 1.21-.49 1.2-.49 1.19-.72 1.21-.95.96-.96.71-1.45.72-1.2.74-1.67.71-1.7-14.18-16.33-2.64-1.2-2.63-1.21-2.64-.71-2.67-.71-2.39-.49-2.64-.25-2.42-.22h-2.39l-2.39.22-2.42.49-2.17.47-2.39.74-2.17.95-2.14.96-2.18 1.45-2.17 1.43-10.08 18.98 1.92 3.36 1.68 2.66 1.21.95.96.96 1.21.71 1.18.5 1.21.24 1.21.22h1.18l1.46-.46 1.43-.5 1.7-.71 1.43-.96 1.68-1.44-.23 1.44-.24 1.21v1.2l.24 1.21.23.95.49 1.21.71.95.72.96.96 1.21.96.71 1.21.96 1.43.95 3.38 1.7z" class="B I"/><path d="M447.72 378.23l3.11-2.38 2.64-2.65 1.92-2.41 1.45-2.41.47-.95.25-1.21.25-1.18v-1.2-1.2l-.25-.96-.47-1.2-.49-.96 1.92.71 1.92.71 1.93.49 1.68.25 1.45.22h1.68l1.43-.22 1.21-.49 1.2-.49 1.19-.71 1.21-.96.96-.96.71-1.45.72-1.2.74-1.67.71-1.7-14.18-16.33-2.64-1.2-2.63-1.21-2.64-.71-2.67-.71-2.39-.49-2.64-.25-2.41-.22h-2.4l-2.39.22-2.42.49-2.17.47-2.39.74-2.17.96-2.14.95-2.17 1.45-2.17 1.43-10.09 18.98 1.92 3.37 1.68 2.65 1.21.96.96.95 1.21.72 1.18.49 1.21.24 1.21.22h1.18l1.46-.46 1.43-.49 1.7-.72 1.43-.95 1.68-1.45-.23 1.45-.24 1.2v1.2l.24 1.21.23.95.49 1.21.72.95.71.96.96 1.21.96.71 1.21.96 1.43.95 3.38 1.7z" class="C D E F G"/><path d="M442.1 357.9l3.13-2.41 2.64-2.38 1.92-2.41 1.43-2.16.49-1.2.25-1.21.22-1.2v-.96-1.2l-.22-.96-.25-1.2-.71-.96 3.85 4.32 2.88 2.88.94.95.74.74.71.47h.47l.5-.47.24-.74.22-.95.25-1.43.25-4.32.47-5.77-6.24-5.06-5.28-4.08-2.64-1.45-2.42-1.18-2.39-.98-2.42-.22h-2.39l-2.64.47-2.64.96-2.88 1.69-2.89 2.16-3.38 2.63-3.6 3.36-4.07 4.11 2.64 5.28 1.68 4.32 1.21 3.12.71 1.91.47.25h.25l.49-.71.72-.96 1.67-3.37 2.64-5.52-.46 1.2v1.2.96 1.21l.22 1.17.49.99.72.95.71 1.21.74.96 1.18.95 1.21.72 1.21.95 3.11 1.7z" class="B K"/><path d="M442.42 357.58l3.13-2.41 2.64-2.38 1.92-2.41 1.43-2.16.49-1.2.25-1.2.22-1.21v-.96-1.2l-.22-.96-.25-1.2-.71-.96 3.85 4.32 2.88 2.88.94.96.74.73.71.47h.47l.5-.47.24-.73.23-.96.24-1.43.25-4.32.47-5.77-6.24-5.06-5.28-4.08-2.64-1.45-2.42-1.17-2.39-.99-2.42-.22h-2.39l-2.64.47-2.64.96-2.88 1.69-2.89 2.16-3.37 2.63-3.61 3.36-4.06 4.11 2.63 5.28 1.68 4.32 1.21 3.12.71 1.91.47.25h.25l.49-.71.72-.96 1.68-3.37 2.63-5.52-.46 1.2v1.21.95 1.21l.22 1.18.49.98.72.96.71 1.2.74.96 1.19.95 1.2.72 1.21.95 3.11 1.7 3.85 1.67" class="C D E F G"/><path d="M441.38 342.06l2.64-4.32 1.92-4.11.72-1.91.74-1.67.47-1.94.24-1.67.25-1.7v-1.42-1.7l-.25-1.42-.49-1.2-.47-1.45-.71-1.21-.97-1.2 2.4.25 1.92.24h2.17l1.68-.24 1.68-.25 1.67-.47 1.46-.98 1.18-.71 1.21-1.2.96-1.43.72-1.45.74-1.69.71-1.92.47-1.91.25-2.41v-2.41l-18.75-15.62-3.13-.46-3.35-.49h-3.13l-3.11.49-3.13.46-2.89.74-3.11 1.2-2.88 1.21-2.89 1.42-2.88 1.7-2.64 1.91-2.42 1.92-2.39 2.16-2.17 2.41-2.17 2.4-1.93 2.65-.22 23.29 1.19 1.94 1.45 1.42 1.21 1.45 1.43 1.2 1.21 1.21 1.43.71 1.21.49 1.43.22h1.45l1.21-.22 1.43-.49 1.43-.96 1.21-.96 1.46-1.69 1.18-1.67 1.45-2.16v1.67l.25 1.45.22 1.69.5 1.18.71 1.45.72 1.2.96 1.21.96.95 1.21.96 1.43.74 1.7.71 1.68.71 1.67.49 1.93.47 2.17.25z" class="B I"/><path d="M441.7 341.74l2.64-4.32 1.92-4.11.72-1.91.74-1.67.47-1.94.24-1.67.25-1.7V323v-1.69l-.25-1.43-.49-1.2-.47-1.45-.71-1.21-.96-1.2 2.39.25 1.92.24h2.17l1.68-.24 1.68-.25 1.67-.47 1.46-.98 1.18-.71 1.21-1.2.96-1.43.72-1.45.74-1.69.71-1.92.47-1.91.25-2.41v-2.41l-18.75-15.62-3.13-.46-3.35-.49h-3.13l-3.11.49-3.13.46-2.89.74-3.11 1.2-2.88 1.21-2.89 1.42-2.88 1.7-2.64 1.91-2.42 1.92-2.39 2.16-2.17 2.41-2.17 2.4-1.93 2.66-.22 23.28 1.19 1.94 1.45 1.42 1.21 1.45 1.43 1.2 1.21 1.21 1.43.71 1.21.49 1.43.22h1.45l1.21-.22 1.43-.49 1.43-.96 1.21-.96 1.46-1.69 1.18-1.67 1.45-2.16v1.67l.25 1.45.22 1.69.5 1.18.71 1.45.72 1.2.96 1.21.96.95 1.21.96 1.43.74 1.7.71 1.68.71 1.68.49 1.92.47 2.17.25z" class="C D E F G"/><path d="M438.74 318.04l2.64-4.1 1.92-3.83.72-1.94.49-1.67.47-1.92.25-1.69v-1.43l-.25-1.69-.25-1.45-.46-1.43-.5-1.45-.96-1.44-.96-1.21-.94-1.18 2.86 2.63 2.67 2.16 2.64 1.92 2.63 1.2 2.17.74 2.15.46h1.7l1.43-.46.72-.25.49-.49.22-.71.25-.71.25-.74v-.96l-.25-.96-.25-.95-.96-2.41-1.68-2.87-2.14-3.12-2.89-3.61-10.11-4.57-8.88-3.61-3.84-1.2-3.61-.72-1.67-.24h-1.68-1.7l-1.43.24-1.68.25-1.45.47-1.43.73-1.46.71-1.43 1.21-1.45.96-1.19 1.45-1.45 1.67-2.64 3.61-2.64 4.56-2.89 5.53-2.88 6.48 1.92 4.32 1.68 3.84 1.45 3.14 1.43 2.63 1.46 2.16 1.18 1.69 1.21.96.96.47h.5l.47-.22.46-.25.5-.49.96-1.2.71-1.92.72-2.41.74-3.11.47-3.62.71-4.32.25 1.7.25 1.67.46 1.45.74 1.45.94 1.2.96 1.2 1.21 1.18 1.46 1.2 1.67.96 1.68.74 1.92.96 2.18.71 4.56.96z" class="B K"/><path d="M439.06 317.72l2.64-4.1 1.93-3.83.71-1.94.49-1.67.47-1.92.25-1.69v-1.43l-.25-1.69-.24-1.45-.47-1.43-.5-1.44-.96-1.45-.96-1.21-.94-1.18 2.86 2.63 2.67 2.16 2.64 1.92 2.63 1.2 2.18.74 2.14.47h1.7l1.43-.47.72-.25.49-.49.22-.71.25-.71.25-.74v-.96l-.25-.95-.25-.96-.96-2.41-1.68-2.87-2.14-3.12-2.89-3.61-10.11-4.57-8.88-3.61-3.84-1.2-3.6-.72-1.68-.24h-1.68-1.7l-1.43.24-1.68.25-1.45.47-1.43.73-1.46.72-1.43 1.2-1.45.96-1.19 1.45-1.45 1.67-2.64 3.61-2.64 4.56-2.89 5.53-2.88 6.48 1.92 4.33 1.68 3.83 1.45 3.14 1.43 2.63 1.46 2.16 1.18 1.69 1.21.96.96.47h.5l.47-.22.46-.25.5-.49.96-1.2.71-1.92.72-2.41.74-3.11.47-3.61.71-4.33.25 1.7.25 1.67.47 1.45.74 1.45.93 1.2.96 1.2 1.21 1.18 1.46 1.2 1.67.96 1.68.74 1.93.96 2.17.71 4.56.96z" class="C D E F G"/><path d="M428.41 294l1.21-2.88.96-2.4.71-2.63.72-2.41.49-2.16.22-2.16v-2.16-1.94l-.22-1.67-.49-1.7-.47-1.67-.74-1.45-.96-1.2-1.18-1.2-1.21-1.18-1.46-.98 3.13-.47 2.64-.49 2.64-.47 2.42-.96 2.17-.95 1.68-1.21 1.67-1.2 1.43-1.45 1.21-1.45.72-1.67.74-1.91.47-2.17.24-2.16v-2.18l-.24-2.63-.72-2.65-29.08-10.1-4.09.49-4.07.72-4.09.98-3.6.96-3.61 1.42-3.6 1.7-3.37 1.91-3.11 1.92-2.89 2.16-2.88 2.4-2.64 2.66-2.42 2.87-2.14 2.9-2.17 3.12-1.68 3.12-1.68 3.36 7.67 25.47 1.21 2.16 1.43 1.92 1.45 1.67 1.44 1.2 1.7.96 1.67.73 1.68.47H389l1.68-.47 1.7-.73 1.67-.96 1.43-1.43 1.21-1.94 1.21-2.38 1.19-2.65.73-3.12.47 1.92.72 1.45.96 1.67.96 1.2 1.21 1.2 1.43.96 1.46.96 1.67.73 1.93.47 1.92.49 2.17.22 2.39.25 2.64-.25 2.64-.22 2.89-.24z" class="B I"/><path d="M428.73 293.68l1.21-2.88.96-2.4.71-2.63.72-2.41.49-2.16.23-2.16v-2.16-1.94l-.23-1.67-.49-1.7-.47-1.67-.74-1.45-.96-1.2-1.18-1.2-1.21-1.18-1.46-.98 3.13-.47 2.64-.49 2.64-.47 2.42-.96 2.17-.95 1.68-1.21 1.67-1.2 1.43-1.45 1.21-1.45.72-1.67.74-1.91.47-2.17.24-2.16v-2.18l-.24-2.63-.72-2.65-29.08-10.1-4.09.5-4.07.71-4.09.98-3.6.96-3.6 1.42-3.61 1.7-3.37 1.91-3.11 1.92-2.89 2.16-2.88 2.41-2.64 2.65-2.42 2.87-2.14 2.9-2.17 3.12-1.68 3.12-1.68 3.36 7.67 25.47 1.21 2.16 1.43 1.92 1.46 1.67 1.43 1.2 1.7.96 1.67.73 1.68.47h1.68l1.68-.47 1.7-.73 1.67-.96 1.43-1.42 1.21-1.94 1.21-2.39 1.19-2.65.74-3.12.46 1.92.72 1.45.96 1.67.96 1.2 1.21 1.2 1.43.96 1.46.96 1.67.74 1.93.46 1.92.49 2.17.22 2.39.25 2.64-.25 2.64-.22 2.89-.24z" class="C D E F G"/><path d="M414.23 265.41l.71-3.83.5-3.37.46-3.36.25-3.12-.25-2.9v-2.87l-.46-2.41-.5-2.41-.96-2.16-.96-1.91-.96-1.92-1.43-1.69-1.43-1.18-1.71-1.2-1.92-1.21-1.92-.73 5.3.95 4.81.99 4.32 1.2 3.6 1.18 5.27 2.16 2.89.98.25.22h.24v-.22l-.24-.24-.72-.96-1.45-1.7-4.79-5.52-7.23-9.11-5.03-1.94-4.81-1.43-5.05-1.2-5.03-.96-5.06-.49-5.05-.25-5.04.25-5.05.49-10.56-3.61-10.82-3.61-10.81-3.36-10.58-3.12-10.8-2.88-10.58-2.89-10.8-2.63-10.83-2.66-10.8-2.4-10.58-2.16-10.8-2.16-10.83-2.17-10.8-1.91-10.83-1.92-10.8-1.69-10.58-1.67 19.95 4.32 19.96 4.79 19.7 5.06 19.68 5.53 19.71 5.99 19.7 6.48 19.71 7.22 19.95 7.44.96.49.72.72.46.49.5.71.47.71v.96l.24.96-.24.98-.23 2.38-.74 2.65-.71 2.66-.96 3.12-1.21 3.36-.94 3.36-.74 3.59-.71 3.86-.25 3.83v4.1l.25 2.16.49 1.92.47 2.16.71 2.16 12.01 5.28 7.7 3.61 4.09 2.16.96.49-.96-1.45-2.41-3.61-1.44-2.41-1.67-3.11-1.46-3.61-1.43-4.08 1.19 2.16 1.2 1.69 1.46 1.67 1.68 1.45 1.67 1.21 1.93.95 2.17.47 2.39.49 2.42.25h2.64l2.88-.25 2.89-.49 3.1-.71 3.38-.96 3.36-1.2z" class="B K"/><path d="M414.55 265.09l.71-3.83.5-3.37.47-3.36.24-3.12-.24-2.9v-2.87l-.47-2.41-.5-2.4-.96-2.17-.96-1.91-.96-1.92-1.43-1.69-1.43-1.18-1.7-1.2-1.93-1.21-1.92-.73 5.3.95 4.81.99 4.32 1.2 3.6 1.18 5.27 2.16 2.89.98.25.22h.24v-.22l-.24-.24-.72-.96-1.45-1.7-4.79-5.52-7.22-9.11-5.04-1.94-4.8-1.43-5.06-1.2-5.03-.96-5.06-.49-5.05-.25-5.03.25-5.06.49-10.56-3.61-10.82-3.61-10.8-3.36-10.58-3.12-10.81-2.88-10.58-2.89-10.8-2.63-10.83-2.65-10.8-2.41-10.58-2.16-10.8-2.16-10.83-2.16-10.8-1.92-10.83-1.92-10.8-1.69-10.58-1.67 19.95 4.32 19.96 4.79 19.7 5.06 19.68 5.53 19.71 5.99 19.7 6.48 19.71 7.22 19.95 7.44.96.49.72.72.46.49.5.71.47.71v.96l.24.96-.24.98-.23 2.38-.74 2.66-.71 2.65-.96 3.12-1.21 3.36-.94 3.37-.74 3.58-.71 3.86-.25 3.83v4.1l.25 2.16.49 1.92.47 2.16.71 2.16 12.01 5.28 7.7 3.61 4.09 2.16.96.49-.96-1.45-2.41-3.61-1.43-2.4-1.68-3.12-1.46-3.61-1.43-4.08 1.19 2.16 1.21 1.7 1.45 1.67 1.68 1.44 1.67 1.21 1.93.96 2.17.46 2.39.49 2.42.25h2.64l2.88-.25 2.89-.49 3.1-.71 3.38-.96 3.36-1.2z" class="C D E F G"/><path d="M104.52 200.08h76.16v-53.81h-76.16l17.53 24.49z" class="B I"/><path d="M104.84 199.76H181v-53.81h-76.16l17.53 24.49z" class="C D E F G"/><path d="M436.82 204.4h-68v-53.8h68l-15.39 24.48z" class="B I"/><path d="M437.14 204.09h-67.99v-53.81h67.99l-15.39 24.48z" class="C D E F G"/><path d="M151.38 192.64l5.99-2.9 6.26-2.63 6.49-2.65 6.24-2.65 6.49-2.16 6.73-2.38 6.49-1.94 6.73-1.92 6.95-1.91 6.74-1.45 7.2-1.45 6.98-1.21 7.2-1.17 7.2-.74 7.45-.71 7.45-.49 7.69-.23h7.69l7.92.23 7.94.49 8.17.95 8.16.96 8.41 1.21 8.41 1.44 8.65 1.92 8.66 2.16 8.88 2.41 8.9 2.63 9.13 3.14 9.37 3.36 9.37 3.59 9.62 4.1v-53.83l-7.94-3.34-7.92-3.15-7.94-3.12-7.69-2.87-7.92-2.65-7.94-2.41-7.67-2.38-7.94-1.94-7.7-1.92-7.91-1.67-7.7-1.44-7.69-1.21-7.67-.96-7.95-.71-7.69-.73-7.67-.25h-7.69l-7.45.25-7.7.24-7.69.71-7.7.96-7.44 1.2-7.67 1.45-7.45 1.7-7.7 2.16-7.44 2.16-7.45 2.63-7.45 2.9-7.45 3.11-7.45 3.37-7.44 3.83-7.45 4.08z" class="B I"/><path d="M151.7 192.32l5.99-2.9 6.26-2.62 6.49-2.66 6.24-2.65 6.49-2.16 6.73-2.38 6.49-1.94 6.73-1.92 6.95-1.91 6.74-1.45 7.2-1.45 6.98-1.21 7.2-1.17 7.2-.74 7.45-.71 7.45-.49 7.69-.23h7.69l7.92.23 7.94.49 8.17.95 8.16.96 8.41 1.21 8.41 1.44 8.66 1.92 8.65 2.16 8.88 2.41 8.9 2.63 9.13 3.14 9.37 3.36 9.37 3.59 9.62 4.1v-53.83l-7.94-3.34-7.92-3.15-7.94-3.11-7.69-2.88-7.92-2.65-7.94-2.41-7.67-2.38-7.94-1.94-7.7-1.91-7.91-1.68-7.7-1.44-7.69-1.21-7.67-.96-7.94-.71-7.7-.73-7.67-.25h-7.69l-7.45.25-7.7.24-7.69.71-7.7.96-7.44 1.2-7.67 1.45-7.45 1.7-7.7 2.16-7.44 2.16-7.45 2.63-7.45 2.9-7.45 3.12-7.45 3.36-7.44 3.83-7.45 4.08v53.83" class="C D E F G"/><g class="M"><path d="M174.19 148.19l5.06 16.33-4.57 2.16.96 3.37 12.73-6-.96-3.36-4.81 2.38-5.03-16.33zm10.11-4.57l5.28 19.94 3.35-1.2-5.27-20.19zm7.92 7.22l.71 2.87.96 2.17 1.21 1.2.97 1.2 1.43.71 1.2.25 1.93.25 1.92-.5 1.68-.71 1.45-1.2 1.19-1.2.96-1.7.49-1.91.25-1.92v-2.16l-.25-2.41-.71-2.4-.96-1.92-.97-1.45-1.21-1.2-1.45-.96-1.68-.47h-1.67l-1.68.47-1.68.74-1.7.95-.96 1.45-.94 1.67-.74 1.67-.22 2.16v2.19zm3.35-.98l-.22-1.67v-1.45-1.2l.47-1.21.49-1.18.72-.73.71-.71.96-.25.97-.25h.96l.96.25.71.71.72.74.74.96.71 1.45.25 1.67.47 1.69v1.42l-.25 1.45-.22.96-.49 1.2-.72.72-.71.49-.96.46-1.21.25h-.96l-.72-.25-.96-.71-.72-.71-.74-.96-.46-1.45zm26.93-16.58l1.19-1.42 1.21-.96-1.68-2.65-.72.49-.74.71-.47.71-1.45 1.7-.96-.25h-.96l-.97.25-.93.24-1.7.72-1.68.95-1.21 1.21-.96 1.45-.72 1.91-.24 1.92v2.4l.24 2.41.72 2.16.74 2.16.96 1.45 1.43 1.43 1.46.73 1.43.47 1.67.24 1.93-.49 1.67-.46 1.46-.96 1.21-1.45.93-1.45.74-1.91.23-1.92v-2.16l-.23-2.41-.74-2.65-.71-1.92-.96-1.45zm-2.17 3.15l.72.95.71.96.5 1.45.24 1.67.23 1.69.24 1.43-.24 1.45-.47.96-.5.95-.71.96-.72.49-.96.47h-1.21-.71l-.96-.22-.97-.74-.71-.71-.49-1.2-.72-1.45-.25-1.43-.22-1.94v-1.42-1.45l.47-.96.49-.96.72-.95.71-.5.97-.46h.71.72l-.97.96-.93.95 1.43 1.92 1.43-1.2zm6.96-2.41l3.13-.74-.25-2.87-.22-1.45-.49-1.18-.47-.98-.74-.71-.72-.5-.96-.46-.47 1.91.97.25.46.49.5.71.22 1.21-1.43.24zm10.11-6.24l1.43 17.54-5.06.46.25 3.61 13.71-1.69-.24-3.59-5.06.71-1.68-17.53zm24.27-2.65l-3.85.46-1.21 4.82-6.73.71-1.68-4.79-3.85.47 7.95 20.43 3.6-.24zm-6.02 8.89l-1.92 8.15-2.64-7.69zm10.09-8.89l.24 17.53-5.28.25.23 3.36 13.46-.24v-3.61l-5.05.24-.23-17.53zm24.51.46h-3.85l-1.67 4.82-6.74-.25-1.43-4.79-3.6-.24 6.49 21.36h3.6zm-6.49 8.18l-2.63 7.94-2.17-7.94zm7.92-3.83l3.13.47.25-2.88.25-1.69-.25-1.2-.25-.96-.47-.96-.74-.71-.96-.74-.71 1.7.71.46.5.74.24.96.22.96h-1.67zm10.83-2.41l-1.46 17.29-5.03-.49-.25 3.37 13.47 1.94.22-3.61-5.03-.71 1.68-17.54zm7.91 22.33l3.38.74 1.68-11.06.25-2.4.22-1.21.74-.95.71-.72.47-.24.5-.25h.71.72l1.2.49.72.72.49.95.22 1.21v1.45l-.22 2.16-1.67 11.27 3.35.98 1.43-11.05.49-3.14v-2.16-1.67l-.49-1.21-.72-1.2-1.2-.96-1.19-.71-1.92-.49-2.17-.47-1.43.22-1.46.49-.96.96-.71.96-.47 1.2-.5 2.16-.71 2.88zm19.96-16.8l-4.1 20.65 3.38.96 9.37-11.76-2.41 13.68 3.13.96 3.84-20.66-3.37-.96-9.38 11.55 2.67-13.46zm31.71 10.32l-3.6-1.21-2.64 4.1-6.48-2.16-.5-5.3-3.35-1.18 1.68 22.57 3.35 1.2zm-8.16 6.01l-4.1 6.73-.46-8.42zm22.1 3.12l1.67-.24 1.46-.25-.5-3.34h-.71l-.72.22-.96.25-1.92.49-1.46-1.45-1.67-.96-1.93-.49-1.67-.25-1.68.25-1.46.74-1.43 1.2-.96 1.42-.96 1.92-.96 2.16-.47 2.41-.25 2.16.25 2.16.47 1.94.96 1.67.96 1.45 1.43.96 1.7.96 1.93.71h1.43l1.67-.22 1.46-.74 1.43-1.2 1.21-1.43.96-1.94.72-2.16.49-2.38.22-2.41-.22-1.69zm-3.14 1.2l.25 1.21v1.45l-.25 1.42-.22 1.7-.49 1.67-.72 1.2-.71.96-.74.73-.94.47-.96.25h-.96l-.96-.25-.97-.47-.74-.73-.71-.96-.25-.96-.47-1.2v-1.45l.25-1.43.22-1.69.74-1.45.47-1.42.72-.96.96-.74.74-.46.96-.25h.96l.94.25.74.24.47.47-1.21.49h-1.19l.25 2.63h1.9z"/></g><path d="M242.92 172.21h5.278v30.748h-5.278z" class="B I"/><path d="M243.24 171.89h5.278v30.748h-5.278z" class="C D E F G"/><path d="M249.63 171.96h5.302v30.748h-5.302z" class="B I"/><path d="M249.95 171.64h5.302v30.748h-5.302z" class="C D E F G"/><path d="M256.36 171.96h5.302v30.748h-5.302z" class="B I"/><path d="M256.69 171.64h5.302v30.748h-5.302z" class="C D E F G"/><path d="M263.34 171.74h5.031v30.748h-5.031z" class="B I"/><path d="M263.66 171.42h5.031v30.748h-5.031z" class="C D E F G"/><path d="M270.08 171.5h5.031v30.748h-5.031z" class="B I"/><path d="M270.4 171.18h5.031v30.748H270.4z" class="C D E F G"/><path d="M276.32 171.96h5.031v30.748h-5.031z" class="B I"/><path d="M276.64 171.64h5.031v30.748h-5.031z" class="C D E F G"/><path d="M282.8 171.96h5.056v30.748H282.8z" class="B I"/><path d="M283.12 171.64h5.056v30.748h-5.056z" class="C D E F G"/></g></svg>