<?xml version="1.0" encoding="UTF-8" standalone="no"?>
<svg
   xmlns:dc="http://purl.org/dc/elements/1.1/"
   xmlns:cc="http://creativecommons.org/ns#"
   xmlns:rdf="http://www.w3.org/1999/02/22-rdf-syntax-ns#"
   xmlns:svg="http://www.w3.org/2000/svg"
   xmlns="http://www.w3.org/2000/svg"
   xmlns:xlink="http://www.w3.org/1999/xlink"
   xmlns:sodipodi="http://sodipodi.sourceforge.net/DTD/sodipodi-0.dtd"
   xmlns:inkscape="http://www.inkscape.org/namespaces/inkscape"
   width="333.574"
   height="317.507"
   viewBox="0 0 88.258 84.007"
   version="1.1"
   id="svg181"
   sodipodi:docname="Seal of Gresik Regency (1).svg"
   inkscape:version="1.0.1 (3bc2e813f5, 2020-09-07)">
  <metadata
     id="metadata185">
    <rdf:RDF>
      <cc:Work
         rdf:about="">
        <dc:format>image/svg+xml</dc:format>
        <dc:type
           rdf:resource="http://purl.org/dc/dcmitype/StillImage" />
      </cc:Work>
    </rdf:RDF>
  </metadata>
  <sodipodi:namedview
     pagecolor="#ffffff"
     bordercolor="#666666"
     borderopacity="1"
     objecttolerance="10"
     gridtolerance="10"
     guidetolerance="10"
     inkscape:pageopacity="0"
     inkscape:pageshadow="2"
     inkscape:window-width="1366"
     inkscape:window-height="705"
     id="namedview183"
     showgrid="false"
     inkscape:zoom="0.7085434"
     inkscape:cx="49.168241"
     inkscape:cy="238.94755"
     inkscape:window-x="-8"
     inkscape:window-y="-8"
     inkscape:window-maximized="1"
     inkscape:current-layer="svg181" />
  <style
     id="style2"><![CDATA[.B{opacity:.999}.C{stroke:gray}.D{stroke-width:.2}.E{fill:silver}.F{fill-rule:evenodd}.G{fill:#fff}.H{opacity:.998}.I{stroke-linejoin:round}.J{fill:#a9a9a9}.K{stroke-width:.265}]]></style>
  <defs
     id="defs23">
    <linearGradient
       id="A"
       gradientUnits="userSpaceOnUse">
      <stop
         offset="0"
         stop-color="#fff000"
         id="stop4" />
      <stop
         offset="1"
         stop-color="#bfb400"
         id="stop6" />
    </linearGradient>
    <linearGradient
       id="B"
       gradientUnits="userSpaceOnUse">
      <stop
         offset="0"
         stop-color="#fff"
         id="stop9" />
      <stop
         offset="1"
         stop-color="#d3d3d3"
         id="stop11" />
    </linearGradient>
    <linearGradient
       xlink:href="#B"
       id="C"
       x1="78.76"
       y1="217.947"
       x2="86.835"
       y2="227.092" />
    <linearGradient
       xlink:href="#B"
       id="D"
       x1="131.24"
       y1="217.947"
       x2="123.165"
       y2="227.092" />
    <radialGradient
       xlink:href="#A"
       id="E"
       cx="568.706"
       cy="133.684"
       fx="568.706"
       fy="133.684"
       r="4.044"
       gradientTransform="matrix(0.26025012,-3.9799839e-8,0,1.295947,-103.26959,-138.15269)" />
    <radialGradient
       xlink:href="#A"
       id="F"
       cx="569.027"
       cy="111.332"
       fx="569.027"
       fy="111.332"
       r="10.207"
       gradientTransform="matrix(0.26458333,0,0,0.16023241,-105.73227,12.123)" />
    <linearGradient
       xlink:href="#A"
       id="G"
       x1="105.647"
       y1="176.341"
       x2="104.353"
       y2="176.341"
       gradientTransform="translate(-60.871,-151.509)" />
    <linearGradient
       xlink:href="#A"
       id="H"
       x1="105"
       y1="176.38"
       x2="102.294"
       y2="176.38"
       gradientTransform="translate(-60.871,-151.509)" />
    <linearGradient
       xlink:href="#A"
       id="I"
       x1="107.706"
       y1="176.923"
       x2="105"
       y2="176.923"
       gradientTransform="translate(-60.871,-151.509)" />
    <linearGradient
       xlink:href="#B"
       id="J"
       x1="85.998"
       y1="189.277"
       x2="93.607"
       y2="189.277"
       gradientTransform="translate(-60.871,-151.509)" />
    <linearGradient
       xlink:href="#B"
       id="K"
       x1="124.002"
       y1="189.277"
       x2="116.393"
       y2="189.277"
       gradientTransform="translate(-60.871,-151.509)" />
  </defs>
  <path
     d="M 44.129,0.702 87.557,32.254 70.969,83.307 H 17.289 L 0.701,32.254 Z"
     fill="#ffff00"
     stroke="#000000"
     stroke-width="1.403"
     class="B I"
     id="path25"
     style="fill-rule:evenodd;" />
  <path
     d="m 33.156,79.876 v -0.76 h 2.228 v 1.797 q -0.325,0.277 -0.943,0.489 -0.615,0.209 -1.247,0.209 -0.803,0 -1.4,-0.295 -0.597,-0.298 -0.898,-0.849 -0.3,-0.554 -0.3,-1.203 0,-0.705 0.335,-1.252 0.335,-0.548 0.981,-0.84 0.492,-0.225 1.226,-0.225 0.953,0 1.488,0.354 0.538,0.351 0.691,0.972 l -1.027,0.169 q -0.108,-0.332 -0.409,-0.523 -0.297,-0.194 -0.744,-0.194 -0.677,0 -1.079,0.378 -0.398,0.378 -0.398,1.123 0,0.803 0.405,1.206 0.405,0.4 1.062,0.4 0.325,0 0.65,-0.111 0.328,-0.114 0.562,-0.274 v -0.572 z m 3.185,1.658 v -4.511 h 2.176 q 0.821,0 1.191,0.123 0.374,0.12 0.597,0.431 0.224,0.311 0.224,0.711 0,0.508 -0.339,0.84 -0.339,0.329 -1.013,0.415 0.335,0.172 0.552,0.378 0.22,0.206 0.59,0.732 l 0.625,0.88 h -1.236 l -0.747,-0.982 q -0.398,-0.526 -0.545,-0.662 -0.147,-0.138 -0.311,-0.188 -0.164,-0.052 -0.52,-0.052 h -0.21 v 1.883 z m 1.034,-2.603 h 0.765 q 0.744,0 0.929,-0.055 0.185,-0.055 0.29,-0.191 0.105,-0.135 0.105,-0.338 0,-0.228 -0.14,-0.366 -0.136,-0.142 -0.388,-0.178 -0.126,-0.015 -0.754,-0.015 h -0.807 z m 4.128,2.603 v -4.511 h 3.796 v 0.763 h -2.762 v 1 h 2.57 v 0.76 h -2.57 v 1.228 h 2.86 v 0.76 z m 4.508,-1.467 1.006,-0.086 q 0.091,0.446 0.367,0.655 0.279,0.209 0.751,0.209 0.499,0 0.751,-0.185 0.255,-0.188 0.255,-0.437 0,-0.16 -0.108,-0.271 -0.105,-0.114 -0.37,-0.197 -0.182,-0.055 -0.828,-0.197 -0.831,-0.182 -1.166,-0.446 -0.471,-0.372 -0.471,-0.908 0,-0.345 0.22,-0.643 0.224,-0.302 0.639,-0.458 0.419,-0.157 1.009,-0.157 0.964,0 1.449,0.372 0.489,0.372 0.513,0.994 l -1.034,0.04 Q 48.928,78.004 48.708,77.854 48.491,77.7 48.055,77.7 q -0.451,0 -0.705,0.163 -0.164,0.105 -0.164,0.28 0,0.16 0.154,0.274 0.196,0.145 0.95,0.302 0.754,0.157 1.114,0.326 0.363,0.166 0.566,0.458 0.206,0.289 0.206,0.717 0,0.388 -0.244,0.726 -0.244,0.338 -0.691,0.505 -0.447,0.163 -1.114,0.163 -0.971,0 -1.491,-0.394 -0.52,-0.397 -0.622,-1.154 z m 5.001,1.467 v -4.511 h 1.034 v 4.511 z m 2.033,0 v -4.511 h 1.034 v 2.003 l 2.088,-2.003 h 1.39 l -1.928,1.757 2.032,2.754 h -1.338 l -1.407,-2.117 -0.838,0.754 v 1.363 z"
     id="path33" />
  <path
     d="m 44.13,14.432 c -16.679,0 -30.219,13.539 -30.219,30.219 0,16.68 13.539,30.217 30.219,30.217 16.68,0 30.217,-13.537 30.217,-30.217 0,-16.68 -13.537,-30.219 -30.217,-30.219 z m 0,1.594 c 15.818,0 28.623,12.807 28.623,28.625 0,15.818 -12.805,28.623 -28.623,28.623 -15.818,0 -28.625,-12.805 -28.625,-28.623 0,-15.818 12.807,-28.625 28.625,-28.625 z"
     stroke="#000000"
     stroke-width="0.194"
     class="B G"
     id="path35"
     style="fill-rule:evenodd;" />
  <g
     id="g1135">
    <path
       d="m 44.54,17.608 a 24.21,24.21 0 0 0 -0.936,0.004 c -0.386,0.007 -0.697,0.318 -0.745,0.707 l -1.234,0.093 a 0.82,0.82 0 0 0 -0.892,-0.584 l -0.85,0.123 c -0.407,0.066 -0.692,0.422 -0.686,0.815 l -1.201,0.262 a 0.82,0.82 0 0 0 -0.964,-0.456 l -0.824,0.24 a 0.82,0.82 0 0 0 -0.568,0.902 l -1.154,0.424 a 0.82,0.82 0 0 0 -1.017,-0.32 l -0.783,0.349 a 0.82,0.82 0 0 0 -0.441,0.971 l -1.085,0.576 a 0.82,0.82 0 0 0 -1.05,-0.177 l -0.731,0.455 c -0.357,0.23 -0.472,0.688 -0.286,1.052 l -0.998,0.701 a 0.8,0.8 0 0 0 -1.053,-0.064 l -0.685,0.572 A 0.82,0.82 0 0 0 26.2,25.31 l -0.883,0.854 c -0.324,-0.225 -0.772,-0.192 -1.038,0.097 l -0.596,0.668 -0.049,0.129 v -0.059 c -0.214,0.308 -0.193,0.719 0.046,0.996 l -0.75,0.972 c -0.353,-0.174 -0.796,-0.068 -1.03,0.271 l -0.477,0.717 c -0.223,0.347 -0.151,0.796 0.146,1.055 l -0.609,1.068 a 0.82,0.82 0 0 0 -0.983,0.41 l -0.373,0.773 a 0.82,0.82 0 0 0 0.289,1.026 l -0.459,1.141 a 0.82,0.82 0 0 0 -0.918,0.541 l -0.266,0.818 c -0.121,0.394 0.07,0.807 0.426,0.976 l -0.299,1.193 c -0.393,-0.018 -0.756,0.257 -0.834,0.661 l -0.15,0.846 a 0.82,0.82 0 0 0 0.556,0.909 l -0.13,1.221 c -0.392,0.035 -0.713,0.347 -0.733,0.739 l -0.031,0.842 c -0.005,0.275 0.088,0.504 0.242,0.656 a 0.8,0.8 0 0 0 0.439,0.218 l 0.046,1.228 c -0.383,0.093 -0.655,0.459 -0.616,0.87 l 0.094,0.856 a 0.82,0.82 0 0 0 0.791,0.715 l 0.22,1.208 a 0.82,0.82 0 0 0 -0.487,0.948 l 0.211,0.833 c 0.108,0.398 0.49,0.645 0.881,0.598 l 0.384,1.167 a 0.82,0.82 0 0 0 -0.353,1.006 l 0.322,0.797 a 0.82,0.82 0 0 0 0.956,0.472 l 0.538,1.105 a 0.82,0.82 0 0 0 -0.215,1.044 l 0.429,0.744 a 0.82,0.82 0 0 0 1.01,0.338 l 0.7,1.043 c -0.053,0.138 0.017,0.321 -0.002,0.49 l -0.107,-0.143 -0.014,0.57 0.06,-0.019 c 0.023,0.049 -0.055,0.097 -0.021,0.142 l 0.344,0.455 v -0.013 l 0.186,0.238 c 0.263,0.327 0.723,0.394 1.064,0.181 l 0.437,0.431 0.382,0.476 c -0.099,0.125 -0.158,0.267 -0.181,0.402 -0.029,0.166 -0.026,0.323 0.078,0.463 l 0.008,0.01 0.785,0.801 0.004,0.004 c 0.302,0.281 0.758,0.287 1.065,0.04 l 0.945,0.786 a 0.82,0.82 0 0 0 0.236,1.039 l 0.697,0.502 a 0.82,0.82 0 0 0 1.06,-0.11 l 1.045,0.644 c -0.137,0.369 0.015,0.799 0.377,0.997 l 0.762,0.4 a 0.82,0.82 0 0 0 1.034,-0.253 l 1.123,0.496 a 0.82,0.82 0 0 0 0.511,0.937 l 0.808,0.293 a 0.82,0.82 0 0 0 0.991,-0.392 l 1.181,0.339 a 0.82,0.82 0 0 0 0.631,0.858 l 0.842,0.18 c 0.404,0.08 0.794,-0.154 0.926,-0.525 l 1.218,0.173 c 0.021,0.393 0.322,0.726 0.712,0.76 l 0.703,0.049 v 0.004 l 0.188,0.01 a 0.82,0.82 0 0 0 0.846,-0.652 L 44.8,71.081 a 0.82,0.82 0 0 0 0.849,0.648 l 0.857,-0.064 A 0.82,0.82 0 0 0 47.25,70.9 l 1.215,-0.178 a 0.82,0.82 0 0 0 0.93,0.521 l 0.84,-0.181 a 0.82,0.82 0 0 0 0.628,-0.861 l 1.181,-0.344 a 0.82,0.82 0 0 0 0.992,0.388 l 0.807,-0.297 c 0.384,-0.148 0.591,-0.552 0.505,-0.936 L 55.47,68.51 a 0.82,0.82 0 0 0 1.037,0.249 l 0.758,-0.403 a 0.82,0.82 0 0 0 0.374,-0.998 l 1.043,-0.649 a 0.82,0.82 0 0 0 1.059,0.104 l 0.698,-0.504 a 0.82,0.82 0 0 0 0.232,-1.04 l 0.941,-0.788 c 0.306,0.248 0.755,0.247 1.041,-0.021 l 0.621,-0.602 c 0.025,-0.02 0.019,-0.017 0.006,-0.006 l 0.01,-0.008 0.008,-0.008 c 0.044,-0.044 -0.034,-0.108 -0.002,-0.158 l 0.053,0.025 v -0.479 l -0.055,0.055 c 0.005,-0.171 0.1,-0.343 0.066,-0.488 l 0.836,-0.936 c 0.339,0.2 0.781,0.135 1.026,-0.172 l 0.547,-0.709 0.041,-0.117 v 0.049 c 0.195,-0.322 0.146,-0.732 -0.113,-0.993 l 0.681,-1.025 a 0.82,0.82 0 0 0 1.01,-0.342 L 67.814,57.8 a 0.82,0.82 0 0 0 -0.219,-1.042 l 0.533,-1.107 c 0.382,0.098 0.793,-0.097 0.953,-0.477 l 0.322,-0.797 a 0.82,0.82 0 0 0 -0.359,-1.004 l 0.38,-1.169 a 0.82,0.82 0 0 0 0.877,-0.603 l 0.209,-0.834 c 0.094,-0.401 -0.125,-0.8 -0.491,-0.945 l 0.214,-1.209 c 0.394,-0.007 0.736,-0.295 0.784,-0.684 l 0.094,-0.889 a 0.82,0.82 0 0 0 -0.623,-0.868 l 0.037,-1.231 a 0.8,0.8 0 0 0 0.255,-0.079 c 0.263,-0.14 0.437,-0.427 0.43,-0.762 l -0.031,-0.842 a 0.82,0.82 0 0 0 -0.739,-0.77 l -0.135,-1.221 c 0.375,-0.12 0.621,-0.504 0.553,-0.911 l -0.154,-0.845 a 0.82,0.82 0 0 0 -0.838,-0.658 l -0.303,-1.192 c 0.354,-0.171 0.544,-0.584 0.422,-0.977 L 69.717,35.865 A 0.82,0.82 0 0 0 68.796,35.33 L 68.335,34.191 A 0.82,0.82 0 0 0 68.62,33.164 L 68.243,32.391 A 0.82,0.82 0 0 0 67.258,31.984 L 66.645,30.92 a 0.82,0.82 0 0 0 0.142,-1.056 l -0.479,-0.715 a 0.82,0.82 0 0 0 -1.032,-0.267 l -0.755,-0.969 c 0.258,-0.297 0.274,-0.745 0.016,-1.041 l -0.621,-0.69 C 63.649,25.894 63.2,25.862 62.877,26.088 l -0.886,-0.85 c 0.212,-0.332 0.163,-0.777 -0.134,-1.032 L 61.17,23.633 a 0.82,0.82 0 0 0 -1.065,0.035 l -0.998,-0.716 c 0.161,-0.359 0.04,-0.798 -0.307,-1.02 l -0.733,-0.451 c -0.364,-0.217 -0.826,-0.117 -1.069,0.21 l -1.074,-0.584 c 0.121,-0.382 -0.057,-0.811 -0.437,-0.985 l -0.788,-0.348 a 0.82,0.82 0 0 0 -1.015,0.325 L 52.529,19.68 a 0.82,0.82 0 0 0 -0.572,-0.901 l -0.826,-0.236 a 0.82,0.82 0 0 0 -0.962,0.458 l -1.202,-0.256 a 0.82,0.82 0 0 0 -0.69,-0.812 L 47.426,17.812 C 47.017,17.761 46.642,18.02 46.537,18.4 l -1.225,-0.085 a 0.8,0.8 0 0 0 -0.767,-0.708 z"
       class="B G"
       id="path27"
       style="fill-rule:evenodd;" />
    <g
       id="g1119"
       style="stroke:none;">
      <path
         d="m 45.258,18.709 c -0.121,0.315 -0.425,0.537 -0.775,0.532 A 27.25,27.25 0 0 0 43.676,19.243 0.82,0.82 0 0 1 42.9,18.714 l -1.266,0.095 a 0.82,0.82 0 0 1 -0.69,0.637 l -0.799,0.117 a 0.82,0.82 0 0 1 -0.844,-0.415 l -1.241,0.271 a 0.82,0.82 0 0 1 -0.595,0.729 l -0.777,0.226 a 0.82,0.82 0 0 1 -0.893,-0.295 l -1.193,0.438 a 0.82,0.82 0 0 1 -0.49,0.802 l -0.741,0.33 a 0.82,0.82 0 0 1 -0.924,-0.17 l -1.121,0.595 c 0.064,0.331 -0.078,0.681 -0.378,0.862 l -0.686,0.426 c -0.284,0.183 -0.645,0.165 -0.911,-0.019 l -1.049,0.739 a 0.82,0.82 0 0 1 -0.26,0.887 l -0.619,0.52 a 0.82,0.82 0 0 1 -0.935,0.091 l -0.913,0.884 a 0.82,0.82 0 0 1 -0.121,0.929 l -0.537,0.604 a 0.82,0.82 0 0 1 -0.913,0.224 l -0.776,1.005 a 0.82,0.82 0 0 1 0.012,0.939 l -0.448,0.672 c -0.19,0.295 -0.543,0.425 -0.872,0.351 l -0.629,1.103 a 0.82,0.82 0 0 1 0.143,0.929 l -0.351,0.729 c -0.148,0.319 -0.482,0.496 -0.818,0.467 l -0.473,1.18 c 0.262,0.212 0.381,0.57 0.268,0.902 l -0.25,0.769 c -0.103,0.336 -0.409,0.556 -0.747,0.572 l -0.307,1.233 a 0.82,0.82 0 0 1 0.389,0.856 l -0.143,0.797 a 0.82,0.82 0 0 1 -0.658,0.669 l -0.134,1.262 a 0.82,0.82 0 0 1 0.503,0.793 l -0.027,0.807 c -0.004,0.226 -0.101,0.431 -0.254,0.576 -0.084,0.08 -0.188,0.141 -0.301,0.18 l 0.049,1.27 a 0.82,0.82 0 0 1 0.612,0.712 l 0.088,0.803 a 0.82,0.82 0 0 1 -0.443,0.829 l 0.226,1.248 0.536,0.284 24.93,-11.577 24.897,11.559 0.594,-0.368 0.222,-1.25 a 0.82,0.82 0 0 1 -0.446,-0.826 l 0.086,-0.803 a 0.82,0.82 0 0 1 0.605,-0.714 l 0.037,-1.276 C 70.089,44.891 70.052,44.881 70.02,44.864 69.761,44.73 69.582,44.462 69.575,44.155 l -0.03,-0.809 a 0.82,0.82 0 0 1 0.5,-0.794 L 69.905,41.29 A 0.82,0.82 0 0 1 69.244,40.623 L 69.1,39.828 c -0.068,-0.344 0.095,-0.684 0.383,-0.859 L 69.17,37.738 C 68.833,37.722 68.526,37.502 68.421,37.167 L 68.169,36.4 a 0.82,0.82 0 0 1 0.264,-0.903 L 67.954,34.32 c -0.336,0.03 -0.67,-0.146 -0.819,-0.464 l -0.353,-0.729 a 0.82,0.82 0 0 1 0.138,-0.93 l -0.634,-1.1 A 0.82,0.82 0 0 1 65.413,30.75 l -0.452,-0.67 c -0.2,-0.288 -0.184,-0.665 0.01,-0.941 L 64.19,28.138 a 0.82,0.82 0 0 1 -0.912,-0.22 l -0.541,-0.599 a 0.82,0.82 0 0 1 -0.124,-0.932 l -0.916,-0.88 A 0.82,0.82 0 0 1 60.762,25.42 L 60.141,24.904 A 0.82,0.82 0 0 1 59.884,24.001 L 58.853,23.26 a 0.82,0.82 0 0 1 -0.938,0.045 l -0.689,-0.424 a 0.82,0.82 0 0 1 -0.388,-0.824 l -1.13,-0.613 a 0.82,0.82 0 0 1 -0.911,0.16 l -0.741,-0.326 a 0.82,0.82 0 0 1 -0.495,-0.802 l -1.194,-0.433 a 0.82,0.82 0 0 1 -0.891,0.298 l -0.778,-0.224 a 0.82,0.82 0 0 1 -0.599,-0.725 l -1.242,-0.266 c -0.164,0.295 -0.496,0.472 -0.843,0.417 l -0.799,-0.114 a 0.82,0.82 0 0 1 -0.693,-0.634 z"
         fill="#00a2e9"
         class="B"
         id="path37"
         style="fill-rule:evenodd;stroke:none;" />
      <path
         d="m 32.001,28.94 c -1.17,0.002 -3.906,1.241 -5.442,2.953 0.721,-0.972 1.324,-2.055 2.346,-2.748 -1.707,-0.012 -4.44,0.608 -6.543,2.748 l -1.022,0.456 c 0.192,0.243 0.242,0.58 0.096,0.871 l -0.351,0.729 c -0.148,0.319 -0.482,0.496 -0.818,0.467 l -0.473,1.18 c 0.262,0.212 0.381,0.57 0.268,0.902 l -0.25,0.769 c -0.103,0.336 -0.409,0.556 -0.747,0.572 l -0.307,1.233 a 0.82,0.82 0 0 1 0.389,0.856 l -0.143,0.797 a 0.82,0.82 0 0 1 -0.658,0.669 l -0.134,1.262 a 0.82,0.82 0 0 1 0.503,0.793 l -0.027,0.807 c -0.004,0.226 -0.101,0.431 -0.254,0.576 -0.084,0.08 -0.188,0.141 -0.301,0.18 l 0.049,1.27 a 0.82,0.82 0 0 1 0.612,0.712 l 0.088,0.803 a 0.82,0.82 0 0 1 -0.443,0.829 l 0.226,1.247 0.535,0.284 24.929,-11.576 24.897,11.559 0.594,-0.368 0.222,-1.25 a 0.82,0.82 0 0 1 -0.446,-0.826 l 0.086,-0.803 a 0.82,0.82 0 0 1 0.605,-0.714 l 0.037,-1.276 C 70.089,44.891 70.052,44.881 70.02,44.864 69.761,44.73 69.582,44.462 69.575,44.155 l -0.029,-0.809 a 0.82,0.82 0 0 1 0.5,-0.794 l -0.14,-1.262 a 0.82,0.82 0 0 1 -0.661,-0.667 l -0.144,-0.795 c -0.068,-0.344 0.095,-0.684 0.383,-0.859 L 69.171,37.738 C 68.834,37.722 68.527,37.503 68.422,37.167 L 68.17,36.4 a 0.82,0.82 0 0 1 0.264,-0.903 L 67.955,34.32 c -0.336,0.03 -0.67,-0.146 -0.819,-0.464 l -0.353,-0.729 c -0.137,-0.269 -0.106,-0.58 0.052,-0.819 L 65.899,31.89 c -2.103,-2.14 -4.837,-2.76 -6.544,-2.748 1.022,0.693 1.624,1.775 2.346,2.748 -1.891,-2.108 -5.598,-3.498 -5.968,-2.748 l 1.527,2.748 c -1.908,-1.784 -3.817,-2.794 -5.725,-2.748 l 1.7,2.748 c -2.811,-2.43 -4.556,-2.84 -6.037,-2.748 2.727,2.748 0.85,2.748 -3.068,1.889 -3.917,0.859 -5.795,0.858 -3.068,-1.889 -1.481,-0.093 -3.226,0.318 -6.037,2.748 l 1.7,-2.748 C 34.817,29.095 32.908,30.105 31,31.89 l 1.527,-2.748 c -0.069,-0.141 -0.256,-0.206 -0.526,-0.206 z"
         fill="#2f318b"
         stroke="#24256a"
         class="K"
         id="path41"
         style="stroke:none;" />
      <path
         d="m 59.449,43.091 8.361,7.217 H 57.54 Z m -30.641,0 -8.361,7.217 h 10.27 z"
         class="B G"
         id="path43"
         style="stroke:none;" />
      <path
         d="M 44.129,38.581 19.197,50.157 a 0.8,0.8 0 0 1 0.172,0.336 l 0.199,0.783 a 0.82,0.82 0 0 1 -0.325,0.883 l 0.397,1.207 a 0.82,0.82 0 0 1 0.784,0.518 l 0.305,0.75 a 0.82,0.82 0 0 1 -0.201,0.918 l 0.557,1.142 a 0.82,0.82 0 0 1 0.849,0.407 l 0.403,0.701 a 0.82,0.82 0 0 1 -0.074,0.936 l 0.708,1.054 a 0.82,0.82 0 0 1 0.896,0.285 l 0.496,0.637 a 0.82,0.82 0 0 1 0.068,0.92 l 0.377,0.373 a 0.198,0.198 0 0 1 0.057,0.051 l 0.018,0.023 0.03,0.03 a 0.198,0.198 0 0 1 0.044,0.063 l 0.329,0.411 A 0.78,0.78 0 0 1 26.1,62.69 l 0.678,0.619 a 0.82,0.82 0 0 1 0.192,0.919 l 0.977,0.811 a 0.82,0.82 0 0 1 0.939,0.02 l 0.656,0.473 a 0.82,0.82 0 0 1 0.32,0.883 l 1.081,0.666 a 0.82,0.82 0 0 1 0.933,-0.11 l 0.717,0.377 a 0.82,0.82 0 0 1 0.438,0.833 l 1.161,0.512 c 0.221,-0.255 0.583,-0.36 0.911,-0.236 l 0.762,0.275 a 0.82,0.82 0 0 1 0.547,0.765 l 1.22,0.351 a 0.82,0.82 0 0 1 0.869,-0.358 l 0.791,0.169 a 0.82,0.82 0 0 1 0.645,0.681 l 1.258,0.179 a 0.82,0.82 0 0 1 0.81,-0.475 l 0.807,0.057 c 0.349,0.019 0.636,0.261 0.734,0.582 l 1.27,-0.003 a 0.82,0.82 0 0 1 0.734,-0.585 l 0.807,-0.06 a 0.82,0.82 0 0 1 0.812,0.473 l 1.256,-0.184 c 0.05,-0.333 0.299,-0.613 0.643,-0.683 l 0.791,-0.174 a 0.82,0.82 0 0 1 0.87,0.356 l 1.221,-0.356 a 0.82,0.82 0 0 1 0.544,-0.768 l 0.76,-0.278 a 0.82,0.82 0 0 1 0.909,0.232 l 1.161,-0.519 a 0.82,0.82 0 0 1 0.435,-0.832 l 0.715,-0.379 a 0.82,0.82 0 0 1 0.933,0.106 l 1.078,-0.671 a 0.82,0.82 0 0 1 0.317,-0.886 L 59.456,65 c 0.281,-0.21 0.658,-0.209 0.94,-0.025 L 61.368,64.16 C 61.237,63.85 61.3,63.479 61.556,63.24 l 0.602,-0.582 c 0.237,-0.237 0.602,-0.283 0.905,-0.139 l 0.845,-0.947 c -0.175,-0.288 -0.164,-0.664 0.054,-0.938 l 0.492,-0.639 a 0.82,0.82 0 0 1 0.893,-0.288 l 0.705,-1.058 a 0.82,0.82 0 0 1 -0.078,-0.935 l 0.4,-0.703 a 0.82,0.82 0 0 1 0.846,-0.409 l 0.552,-1.145 A 0.82,0.82 0 0 1 67.567,54.54 l 0.303,-0.752 a 0.82,0.82 0 0 1 0.782,-0.521 l 0.391,-1.208 a 0.82,0.82 0 0 1 -0.328,-0.88 l 0.197,-0.785 c 0.022,-0.094 0.061,-0.179 0.111,-0.255 z"
         fill="#009b4c"
         id="path45"
         style="stroke:none;" />
    </g>
  </g>
  <path
     d="m 44.129,4.648 2.95,7.867 H 41.18 Z"
     stroke="#000000"
     class="B D G"
     id="path121"
     style="fill-rule:evenodd;" />
  <g
     id="g1201">
    <path
       d="m 42.836,29.095 c -2.663,-0.007 -0.939,3.09 0.223,3.172 h 1.07 1.07 c 1.162,-0.082 2.886,-3.179 0.223,-3.172 h -1.293 z"
       fill="url(#F)"
       id="path127"
       style="fill:url(#F);" />
    <path
       d="m 41.423,21.734 2.706,1.76 v 5.601 h -1.293 z"
       fill="url(#H)"
       id="path129"
       style="fill:url(#H);" />
    <path
       d="m 46.835,21.734 -2.706,1.76 v 5.601 h 1.293 z"
       fill="url(#I)"
       id="path131"
       style="fill:url(#I);" />
    <path
       d="m 44.129,20.57 -1.293,8.525 h 1.293 1.293 z"
       fill="url(#G)"
       id="path133"
       style="fill:url(#G);" />
    <path
       d="m 43.059,32.267 0.05,4.535 c 0.146,0.896 0.621,1.269 1.02,1.636 0.399,-0.366 0.875,-0.739 1.021,-1.636 l 0.05,-4.535 h -1.071 z"
       fill="url(#E)"
       id="path125"
       style="fill:url(#E);" />
  </g>
  <g
     id="g1257">
    <g
       id="g1236">
      <path
         d="m 23.622,39.54 0.273,1.066 4.592,-5.489 c -0.707,0.23 -1.299,0.463 -2.25,1.387 z"
         class="J"
         id="path135" />
      <path
         d="m 21.875,38.338 -0.545,1.536 -1.313,-0.793 c 0.393,1.42 1.024,2.564 2.726,2.478 4.115,-0.139 8.265,-4.105 8.475,-4.263 1.186,-0.787 1.161,-1.8 1.338,-2.776 l -0.991,0.545 0.297,-1.09 c -0.99,0.03 -1.942,-0.005 -3.767,1.437 l -4.436,4.832 c -0.816,0.948 -2.16,0.26 -1.784,-1.908 z"
         fill="url(#J)"
         id="path137"
         style="fill:url(#J);" />
      <path
         d="m 27.116,38.846 c 0.157,-0.28 1.862,-0.211 1.747,-0.149 -0.165,0.09 0.756,-1.636 0.756,-1.636 -0.839,0.593 -2.123,1.068 -2.503,1.784 z"
         id="path139"
         style="fill:#a9a9a9;" />
      <path
         d="m 31.554,37.041 -0.337,0.256 c -1.114,-0.099 -1.88,-0.735 -2.759,-1.198 0.987,0.374 1.904,0.839 3.095,0.942 z"
         id="path141"
         style="fill:#a9a9a9;" />
      <path
         id="circle143"
         style="opacity:0.998;fill:#a9a9a9;fill-rule:evenodd;"
         d="m 30.561997,35.31 a 0.456,0.456 0 0 1 -0.456,0.456 0.456,0.456 0 0 1 -0.456,-0.456 0.456,0.456 0 0 1 0.456,-0.456 0.456,0.456 0 0 1 0.456,0.456 z"
         class="F H" />
    </g>
    <g
       id="g1243">
      <path
         d="m 64.636,39.54 -0.273,1.066 -4.592,-5.489 c 0.707,0.23 1.299,0.463 2.25,1.387 z"
         id="path145"
         style="fill:#a9a9a9;" />
      <path
         d="m 66.383,38.338 0.545,1.536 1.313,-0.793 c -0.393,1.42 -1.024,2.564 -2.726,2.478 C 61.4,41.42 57.25,37.454 57.04,37.296 55.854,36.509 55.879,35.496 55.702,34.52 l 0.991,0.545 -0.297,-1.09 c 0.99,0.03 1.942,-0.005 3.767,1.437 l 4.436,4.832 c 0.816,0.948 2.16,0.26 1.784,-1.908 z"
         fill="url(#K)"
         id="path149"
         style="fill:url(#K);" />
      <path
         d="m 61.142,38.846 c -0.157,-0.28 -1.862,-0.211 -1.747,-0.149 0.165,0.09 -0.756,-1.636 -0.756,-1.636 0.839,0.593 2.123,1.068 2.503,1.784 z"
         id="path151"
         style="fill:#a9a9a9;" />
      <path
         d="m 56.704,37.041 0.337,0.256 c 1.114,-0.099 1.88,-0.735 2.759,-1.198 -0.987,0.374 -1.904,0.839 -3.095,0.942 z"
         id="path153"
         style="fill:#a9a9a9;" />
      <path
         id="circle155"
         style="opacity:0.998;fill:#a9a9a9;fill-rule:evenodd;"
         d="m 57.696,35.31 a -0.456,0.456 0 0 0 0.456,0.456 -0.456,0.456 0 0 0 0.456,-0.456 -0.456,0.456 0 0 0 -0.456,-0.456 -0.456,0.456 0 0 0 -0.456,0.456 z"
         class="F H" />
    </g>
  </g>
  <path
     d="m 44.54,17.608 a 24.21,24.21 0 0 0 -0.936,0.004 c -0.386,0.007 -0.697,0.318 -0.745,0.707 l -1.234,0.093 a 0.82,0.82 0 0 0 -0.892,-0.584 l -0.85,0.123 c -0.407,0.066 -0.692,0.422 -0.686,0.815 l -1.201,0.262 a 0.82,0.82 0 0 0 -0.964,-0.456 l -0.824,0.24 a 0.82,0.82 0 0 0 -0.568,0.902 l -1.154,0.424 a 0.82,0.82 0 0 0 -1.017,-0.32 l -0.783,0.349 a 0.82,0.82 0 0 0 -0.441,0.971 l -1.085,0.576 a 0.82,0.82 0 0 0 -1.05,-0.177 l -0.731,0.455 c -0.357,0.23 -0.472,0.688 -0.286,1.052 l -0.998,0.701 a 0.8,0.8 0 0 0 -1.053,-0.064 l -0.685,0.572 A 0.82,0.82 0 0 0 26.2,25.31 l -0.883,0.854 c -0.324,-0.225 -0.772,-0.192 -1.038,0.097 l -0.596,0.668 -0.049,0.129 v -0.059 c -0.214,0.308 -0.193,0.719 0.046,0.996 l -0.75,0.972 c -0.353,-0.174 -0.796,-0.068 -1.03,0.271 l -0.477,0.717 c -0.223,0.347 -0.151,0.796 0.146,1.055 l -0.609,1.068 a 0.82,0.82 0 0 0 -0.983,0.41 l -0.373,0.773 a 0.82,0.82 0 0 0 0.289,1.026 l -0.459,1.141 a 0.82,0.82 0 0 0 -0.918,0.541 l -0.266,0.818 c -0.121,0.394 0.07,0.807 0.426,0.976 l -0.299,1.193 c -0.393,-0.018 -0.756,0.257 -0.834,0.661 l -0.15,0.846 a 0.82,0.82 0 0 0 0.556,0.909 l -0.13,1.221 c -0.392,0.035 -0.713,0.347 -0.733,0.739 l -0.031,0.842 c -0.005,0.275 0.088,0.504 0.242,0.656 a 0.8,0.8 0 0 0 0.439,0.218 l 0.046,1.228 c -0.383,0.093 -0.655,0.459 -0.616,0.87 l 0.094,0.856 a 0.82,0.82 0 0 0 0.791,0.715 l 0.22,1.208 a 0.82,0.82 0 0 0 -0.487,0.948 l 0.211,0.833 c 0.108,0.398 0.49,0.645 0.881,0.598 l 0.384,1.167 a 0.82,0.82 0 0 0 -0.353,1.006 l 0.322,0.797 a 0.82,0.82 0 0 0 0.956,0.472 l 0.538,1.105 a 0.82,0.82 0 0 0 -0.215,1.044 l 0.429,0.744 a 0.82,0.82 0 0 0 1.01,0.338 l 0.7,1.043 c -0.053,0.138 0.017,0.321 -0.002,0.49 l -0.107,-0.143 -0.014,0.57 0.06,-0.019 c 0.023,0.049 -0.055,0.097 -0.021,0.142 l 0.344,0.455 v -0.013 l 0.186,0.238 c 0.263,0.327 0.723,0.394 1.064,0.181 l 0.437,0.431 0.382,0.476 c -0.099,0.125 -0.158,0.267 -0.181,0.402 -0.029,0.166 -0.026,0.323 0.078,0.463 l 0.008,0.01 0.785,0.801 0.004,0.004 c 0.302,0.281 0.758,0.287 1.065,0.04 l 0.945,0.786 a 0.82,0.82 0 0 0 0.236,1.039 l 0.697,0.502 a 0.82,0.82 0 0 0 1.06,-0.11 l 1.045,0.644 c -0.137,0.369 0.015,0.799 0.377,0.997 l 0.762,0.4 a 0.82,0.82 0 0 0 1.034,-0.253 l 1.123,0.496 a 0.82,0.82 0 0 0 0.511,0.937 l 0.808,0.293 a 0.82,0.82 0 0 0 0.991,-0.392 l 1.181,0.339 a 0.82,0.82 0 0 0 0.631,0.858 l 0.842,0.18 c 0.404,0.08 0.794,-0.154 0.926,-0.525 l 1.218,0.173 c 0.021,0.393 0.322,0.726 0.712,0.76 l 0.703,0.049 v 0.004 l 0.188,0.01 a 0.82,0.82 0 0 0 0.846,-0.652 L 44.8,71.081 a 0.82,0.82 0 0 0 0.849,0.648 l 0.857,-0.064 A 0.82,0.82 0 0 0 47.25,70.9 l 1.215,-0.178 a 0.82,0.82 0 0 0 0.93,0.521 l 0.84,-0.181 a 0.82,0.82 0 0 0 0.628,-0.861 l 1.181,-0.344 a 0.82,0.82 0 0 0 0.992,0.388 l 0.807,-0.297 c 0.384,-0.148 0.591,-0.552 0.505,-0.936 L 55.47,68.51 a 0.82,0.82 0 0 0 1.037,0.249 l 0.758,-0.403 a 0.82,0.82 0 0 0 0.374,-0.998 l 1.043,-0.649 a 0.82,0.82 0 0 0 1.059,0.104 l 0.698,-0.504 a 0.82,0.82 0 0 0 0.232,-1.04 l 0.941,-0.788 c 0.306,0.248 0.755,0.247 1.041,-0.021 l 0.621,-0.602 c 0.025,-0.02 0.019,-0.017 0.006,-0.006 l 0.01,-0.008 0.008,-0.008 c 0.044,-0.044 -0.034,-0.108 -0.002,-0.158 l 0.053,0.025 v -0.479 l -0.055,0.055 c 0.005,-0.171 0.1,-0.343 0.066,-0.488 l 0.836,-0.936 c 0.339,0.2 0.781,0.135 1.026,-0.172 l 0.547,-0.709 0.041,-0.117 v 0.049 c 0.195,-0.322 0.146,-0.732 -0.113,-0.993 l 0.681,-1.025 a 0.82,0.82 0 0 0 1.01,-0.342 L 67.814,57.8 a 0.82,0.82 0 0 0 -0.219,-1.042 l 0.533,-1.107 c 0.382,0.098 0.793,-0.097 0.953,-0.477 l 0.322,-0.797 a 0.82,0.82 0 0 0 -0.359,-1.004 l 0.38,-1.169 a 0.82,0.82 0 0 0 0.877,-0.603 l 0.209,-0.834 c 0.094,-0.401 -0.125,-0.8 -0.491,-0.945 l 0.214,-1.209 c 0.394,-0.007 0.736,-0.295 0.784,-0.684 l 0.094,-0.889 a 0.82,0.82 0 0 0 -0.623,-0.868 l 0.037,-1.231 a 0.8,0.8 0 0 0 0.255,-0.079 c 0.263,-0.14 0.437,-0.427 0.43,-0.762 l -0.031,-0.842 a 0.82,0.82 0 0 0 -0.739,-0.77 l -0.135,-1.221 c 0.375,-0.12 0.621,-0.504 0.553,-0.911 l -0.154,-0.845 a 0.82,0.82 0 0 0 -0.838,-0.658 l -0.303,-1.192 c 0.354,-0.171 0.544,-0.584 0.422,-0.977 L 69.717,35.865 A 0.82,0.82 0 0 0 68.796,35.33 L 68.335,34.191 A 0.82,0.82 0 0 0 68.62,33.164 L 68.243,32.391 A 0.82,0.82 0 0 0 67.258,31.984 L 66.645,30.92 a 0.82,0.82 0 0 0 0.142,-1.056 l -0.479,-0.715 a 0.82,0.82 0 0 0 -1.032,-0.267 l -0.755,-0.969 c 0.258,-0.297 0.274,-0.745 0.016,-1.041 l -0.621,-0.69 C 63.649,25.894 63.2,25.862 62.877,26.088 l -0.886,-0.85 c 0.212,-0.332 0.163,-0.777 -0.134,-1.032 L 61.17,23.633 a 0.82,0.82 0 0 0 -1.065,0.035 l -0.998,-0.716 c 0.161,-0.359 0.04,-0.798 -0.307,-1.02 l -0.733,-0.451 c -0.364,-0.217 -0.826,-0.117 -1.069,0.21 l -1.074,-0.584 c 0.121,-0.382 -0.057,-0.811 -0.437,-0.985 l -0.788,-0.348 a 0.82,0.82 0 0 0 -1.015,0.325 L 52.529,19.68 a 0.82,0.82 0 0 0 -0.572,-0.901 l -0.826,-0.236 a 0.82,0.82 0 0 0 -0.962,0.458 l -1.202,-0.256 a 0.82,0.82 0 0 0 -0.69,-0.812 L 47.426,17.812 C 47.017,17.761 46.642,18.02 46.537,18.4 l -1.225,-0.085 a 0.8,0.8 0 0 0 -0.767,-0.708 z m 21.263,43.297 c -0.014,0.023 -0.025,0.047 -0.041,0.068 L 65.803,60.92 Z M 23.631,26.998 c 0.016,-0.023 0.03,-0.048 0.049,-0.07 l -0.049,0.057 z m 20.901,-8.993 c 0.16,0.003 0.309,0.12 0.364,0.282 l -0.184,-0.013 a 0.198,0.198 0 0 0 -0.213,0.183 0.198,0.198 0 0 0 0.186,0.211 l 0.146,0.01 a 0.42,0.42 0 0 1 -0.341,0.165 c -0.263,-0.002 -0.533,-0.004 -0.82,0.002 -0.139,0.003 -0.261,-0.062 -0.34,-0.164 l 0.16,-0.012 a 0.19853022,0.19853022 0 1 0 -0.029,-0.396 l -0.198,0.015 c 0.055,-0.161 0.202,-0.278 0.35,-0.281 l 0.92,-0.004 z m 2.75,0.198 a 0.45,0.45 0 0 1 0.089,0.003 l 0.838,0.119 c 0.189,0.03 0.321,0.168 0.351,0.336 l -0.181,-0.039 a 0.198,0.198 0 0 0 -0.236,0.152 0.198,0.198 0 0 0 0.152,0.234 l 0.145,0.031 a 0.42,0.42 0 0 1 -0.362,0.116 L 47.266,19.04 a 0.42,0.42 0 0 1 -0.314,-0.211 l 0.162,0.011 a 0.19853022,0.19853022 0 1 0 0.029,-0.396 L 46.941,18.43 a 0.41,0.41 0 0 1 0.341,-0.227 z m -6.409,0.013 a 0.41,0.41 0 0 1 0.342,0.225 l -0.186,0.014 a 0.19853022,0.19853022 0 1 0 0.029,0.396 l 0.146,-0.011 c -0.063,0.112 -0.176,0.192 -0.313,0.21 l -0.812,0.119 a 0.42,0.42 0 0 1 -0.361,-0.114 l 0.158,-0.035 a 0.198,0.198 0 0 0 -0.035,-0.393 0.198,0.198 0 0 0 -0.049,0.006 l -0.196,0.043 c 0.029,-0.167 0.16,-0.305 0.349,-0.336 l 0.838,-0.123 a 0.45,0.45 0 0 1 0.089,-0.003 z m 4.385,0.492 1.266,0.089 a 0.82,0.82 0 0 0 0.693,0.634 l 0.799,0.114 c 0.346,0.055 0.679,-0.122 0.843,-0.417 l 1.242,0.266 a 0.82,0.82 0 0 0 0.599,0.725 l 0.778,0.224 a 0.82,0.82 0 0 0 0.891,-0.298 l 1.194,0.433 a 0.82,0.82 0 0 0 0.495,0.802 l 0.741,0.326 a 0.82,0.82 0 0 0 0.911,-0.16 l 1.13,0.613 a 0.82,0.82 0 0 0 0.388,0.824 l 0.689,0.424 a 0.82,0.82 0 0 0 0.938,-0.045 l 1.031,0.741 a 0.82,0.82 0 0 0 0.257,0.903 l 0.621,0.516 a 0.82,0.82 0 0 0 0.935,0.087 l 0.916,0.88 a 0.82,0.82 0 0 0 0.124,0.932 l 0.541,0.599 a 0.82,0.82 0 0 0 0.912,0.22 l 0.781,1.001 c -0.194,0.276 -0.21,0.653 -0.01,0.941 l 0.452,0.67 a 0.82,0.82 0 0 0 0.873,0.347 l 0.634,1.1 a 0.82,0.82 0 0 0 -0.138,0.93 l 0.353,0.729 c 0.149,0.318 0.483,0.493 0.819,0.464 l 0.479,1.177 a 0.82,0.82 0 0 0 -0.264,0.903 l 0.252,0.767 c 0.104,0.335 0.412,0.555 0.749,0.571 l 0.313,1.231 c -0.288,0.175 -0.452,0.515 -0.383,0.859 l 0.144,0.795 a 0.82,0.82 0 0 0 0.661,0.667 l 0.14,1.262 a 0.82,0.82 0 0 0 -0.5,0.794 l 0.029,0.809 c 0.007,0.307 0.186,0.575 0.445,0.709 0.033,0.017 0.069,0.027 0.104,0.039 l -0.037,1.276 a 0.82,0.82 0 0 0 -0.605,0.714 l -0.086,0.803 a 0.82,0.82 0 0 0 0.446,0.826 l -0.222,1.25 c -0.335,0.04 -0.625,0.282 -0.705,0.623 l -0.197,0.785 a 0.82,0.82 0 0 0 0.328,0.88 l -0.391,1.208 a 0.82,0.82 0 0 0 -0.782,0.521 l -0.303,0.752 a 0.82,0.82 0 0 0 0.205,0.917 l -0.552,1.145 a 0.82,0.82 0 0 0 -0.846,0.409 l -0.4,0.703 a 0.82,0.82 0 0 0 0.078,0.935 l -0.705,1.058 a 0.82,0.82 0 0 0 -0.893,0.288 l -0.492,0.639 c -0.219,0.274 -0.229,0.65 -0.054,0.938 l -0.845,0.947 c -0.303,-0.144 -0.668,-0.098 -0.905,0.139 l -0.602,0.582 c -0.255,0.239 -0.319,0.61 -0.188,0.92 L 60.4,64.978 c -0.282,-0.184 -0.659,-0.185 -0.94,0.025 l -0.654,0.472 a 0.82,0.82 0 0 0 -0.317,0.886 l -1.078,0.671 a 0.82,0.82 0 0 0 -0.933,-0.106 l -0.715,0.379 a 0.82,0.82 0 0 0 -0.435,0.832 l -1.161,0.519 a 0.82,0.82 0 0 0 -0.91,-0.232 l -0.76,0.278 a 0.82,0.82 0 0 0 -0.544,0.768 l -1.221,0.356 a 0.82,0.82 0 0 0 -0.87,-0.356 l -0.791,0.174 c -0.344,0.069 -0.592,0.35 -0.643,0.683 l -1.256,0.184 A 0.82,0.82 0 0 0 46.36,70.038 l -0.807,0.06 a 0.82,0.82 0 0 0 -0.734,0.585 l -1.27,0.003 a 0.82,0.82 0 0 0 -0.734,-0.582 l -0.807,-0.057 a 0.82,0.82 0 0 0 -0.81,0.475 L 39.94,70.343 a 0.82,0.82 0 0 0 -0.645,-0.681 l -0.791,-0.169 a 0.82,0.82 0 0 0 -0.869,0.358 L 36.415,69.5 A 0.82,0.82 0 0 0 35.868,68.735 L 35.106,68.46 c -0.328,-0.125 -0.69,-0.019 -0.911,0.236 l -1.161,-0.512 a 0.82,0.82 0 0 0 -0.438,-0.833 l -0.717,-0.377 a 0.82,0.82 0 0 0 -0.933,0.11 l -1.081,-0.666 a 0.82,0.82 0 0 0 -0.32,-0.883 L 28.889,65.062 A 0.82,0.82 0 0 0 27.95,65.042 L 26.973,64.231 A 0.82,0.82 0 0 0 26.781,63.312 L 26.103,62.693 A 0.78,0.78 0 0 0 25.289,62.588 L 24.96,62.177 a 0.198,0.198 0 0 0 -0.044,-0.063 l -0.03,-0.03 -0.018,-0.023 A 0.198,0.198 0 0 0 24.811,62.01 l -0.377,-0.373 a 0.82,0.82 0 0 0 -0.068,-0.92 L 23.87,60.08 a 0.82,0.82 0 0 0 -0.896,-0.285 l -0.708,-1.054 a 0.82,0.82 0 0 0 0.074,-0.936 l -0.403,-0.701 a 0.82,0.82 0 0 0 -0.849,-0.407 l -0.557,-1.142 a 0.82,0.82 0 0 0 0.201,-0.918 l -0.305,-0.75 a 0.82,0.82 0 0 0 -0.784,-0.518 l -0.398,-1.207 a 0.82,0.82 0 0 0 0.325,-0.883 l -0.199,-0.783 a 0.82,0.82 0 0 0 -0.707,-0.621 l -0.226,-1.247 a 0.82,0.82 0 0 0 0.443,-0.829 l -0.088,-0.803 a 0.82,0.82 0 0 0 -0.612,-0.712 l -0.052,-1.273 c 0.114,-0.039 0.217,-0.1 0.301,-0.18 0.153,-0.146 0.25,-0.351 0.254,-0.576 l 0.027,-0.807 a 0.82,0.82 0 0 0 -0.503,-0.793 l 0.134,-1.262 A 0.82,0.82 0 0 0 19,40.724 l 0.143,-0.797 a 0.82,0.82 0 0 0 -0.389,-0.856 l 0.307,-1.233 c 0.337,-0.016 0.643,-0.235 0.747,-0.572 l 0.25,-0.769 c 0.113,-0.332 -0.005,-0.69 -0.268,-0.902 l 0.473,-1.18 c 0.336,0.029 0.67,-0.148 0.818,-0.467 l 0.351,-0.729 A 0.82,0.82 0 0 0 21.289,32.29 l 0.629,-1.103 c 0.329,0.074 0.683,-0.056 0.872,-0.351 l 0.448,-0.672 a 0.82,0.82 0 0 0 -0.012,-0.939 l 0.776,-1.005 a 0.82,0.82 0 0 0 0.913,-0.224 l 0.537,-0.604 a 0.82,0.82 0 0 0 0.121,-0.929 l 0.913,-0.884 a 0.82,0.82 0 0 0 0.935,-0.091 l 0.619,-0.52 a 0.82,0.82 0 0 0 0.26,-0.887 l 1.049,-0.739 c 0.266,0.184 0.627,0.202 0.911,0.019 l 0.686,-0.426 c 0.301,-0.181 0.442,-0.531 0.378,-0.862 l 1.121,-0.595 a 0.82,0.82 0 0 0 0.924,0.17 l 0.741,-0.33 a 0.82,0.82 0 0 0 0.49,-0.802 l 1.193,-0.438 a 0.82,0.82 0 0 0 0.893,0.295 l 0.777,-0.226 a 0.82,0.82 0 0 0 0.595,-0.729 l 1.241,-0.271 a 0.82,0.82 0 0 0 0.844,0.415 l 0.799,-0.117 a 0.82,0.82 0 0 0 0.69,-0.637 l 1.266,-0.095 a 0.82,0.82 0 0 0 0.776,0.529 l 0.807,-0.002 c 0.35,0.005 0.654,-0.217 0.775,-0.532 z m 5.676,0.203 c 0.029,0.002 0.059,0.006 0.088,0.014 l 0.814,0.235 c 0.183,0.056 0.294,0.21 0.301,0.38 l -0.176,-0.064 a 0.198,0.198 0 0 0 -0.254,0.117 0.198,0.198 0 0 0 0.119,0.256 l 0.138,0.05 c -0.104,0.077 -0.24,0.103 -0.373,0.063 l -0.789,-0.226 a 0.42,0.42 0 0 1 -0.283,-0.253 l 0.158,0.034 a 0.19898304,0.19898304 0 1 0 0.084,-0.389 l -0.197,-0.042 a 0.41,0.41 0 0 1 0.369,-0.176 z m -13.708,0.027 a 0.41,0.41 0 0 1 0.369,0.177 l -0.182,0.04 a 0.198,0.198 0 0 0 -0.152,0.236 0.198,0.198 0 0 0 0.237,0.15 l 0.145,-0.031 c -0.046,0.121 -0.147,0.217 -0.282,0.254 l -0.789,0.23 c -0.133,0.041 -0.269,0.013 -0.373,-0.064 l 0.152,-0.056 a 0.198,0.198 0 0 0 0.117,-0.256 0.198,0.198 0 0 0 -0.254,-0.117 l -0.19,0.07 c 0.006,-0.17 0.117,-0.324 0.299,-0.38 l 0.814,-0.238 a 0.47,0.47 0 0 1 0.088,-0.015 z m 17.144,1.166 c 0.056,0.001 0.113,0.012 0.17,0.036 l 0.775,0.342 c 0.175,0.081 0.265,0.251 0.246,0.422 l -0.16,-0.09 a 0.198,0.198 0 0 0 -0.27,0.077 0.198,0.198 0 0 0 0.076,0.271 l 0.128,0.073 a 0.42,0.42 0 0 1 -0.373,0.009 l -0.752,-0.33 a 0.42,0.42 0 0 1 -0.246,-0.29 l 0.154,0.056 a 0.198,0.198 0 0 0 0.254,-0.119 0.198,0.198 0 0 0 -0.119,-0.254 l -0.19,-0.069 c 0.078,-0.085 0.187,-0.135 0.305,-0.134 z m -20.577,0.041 c 0.118,-0.001 0.227,0.048 0.305,0.133 l -0.174,0.064 a 0.19868191,0.19868191 0 1 0 0.137,0.373 l 0.137,-0.05 c -0.03,0.125 -0.115,0.234 -0.243,0.288 l -0.75,0.336 a 0.42,0.42 0 0 1 -0.379,-0.012 l 0.143,-0.076 a 0.198,0.198 0 0 0 0.082,-0.27 0.198,0.198 0 0 0 -0.268,-0.082 l -0.179,0.095 c -0.017,-0.169 0.072,-0.336 0.245,-0.417 l 0.774,-0.346 a 0.44,0.44 0 0 1 0.169,-0.037 z m 23.819,1.613 c 0.081,-0.004 0.166,0.015 0.245,0.063 l 0.721,0.445 c 0.16,0.103 0.227,0.281 0.188,0.446 l -0.151,-0.108 a 0.198,0.198 0 0 0 -0.278,0.047 0.198,0.198 0 0 0 0.047,0.275 l 0.119,0.086 c -0.121,0.047 -0.26,0.036 -0.377,-0.039 l -0.699,-0.43 C 57.311,22.474 57.242,22.36 57.226,22.235 l 0.158,0.072 a 0.19861584,0.19861584 0 0 0 0.152,-0.367 l -0.171,-0.077 a 0.4,0.4 0 0 1 0.246,-0.104 z m -27.056,0.054 a 0.4,0.4 0 0 1 0.238,0.094 l -0.163,0.086 a 0.19906029,0.19906029 0 1 0 0.186,0.352 l 0.13,-0.069 c -0.012,0.129 -0.083,0.249 -0.202,0.32 l -0.697,0.434 c -0.113,0.073 -0.246,0.084 -0.365,0.043 l 0.134,-0.11 a 0.198,0.198 0 0 0 -0.15,-0.348 0.198,0.198 0 0 0 -0.112,0.049 l -0.145,0.118 c -0.046,-0.169 0.017,-0.354 0.182,-0.46 l 0.719,-0.447 c 0.079,-0.047 0.164,-0.068 0.245,-0.064 z m 30.123,2.033 c 0.081,0.007 0.163,0.038 0.235,0.096 l 0.678,0.565 c 0.118,0.102 0.157,0.287 0.096,0.446 l -0.133,-0.128 a 0.198,0.198 0 0 0 -0.28,0.006 0.198,0.198 0 0 0 0.006,0.279 l 0.107,0.103 a 0.42,0.42 0 0 1 -0.369,-0.091 l -0.63,-0.526 a 0.42,0.42 0 0 1 -0.157,-0.343 l 0.131,0.095 a 0.1995401,0.1995401 0 1 0 0.233,-0.324 l -0.164,-0.117 c 0.074,-0.046 0.161,-0.068 0.248,-0.061 z M 27.5,23.909 c 0.086,-0.005 0.175,0.018 0.251,0.067 L 27.6,24.079 a 0.198,0.198 0 0 0 -0.051,0.275 0.198,0.198 0 0 0 0.275,0.051 l 0.122,-0.083 a 0.42,0.42 0 0 1 -0.156,0.339 l -0.629,0.528 c -0.105,0.091 -0.24,0.121 -0.366,0.093 l 0.116,-0.112 a 0.198,0.198 0 0 0 -0.129,-0.342 0.198,0.198 0 0 0 -0.146,0.057 l -0.144,0.14 c -0.063,-0.158 -0.024,-0.345 0.12,-0.47 l 0.676,-0.566 c 0.058,-0.047 0.133,-0.073 0.211,-0.077 z m 35.843,2.428 a 0.38,0.38 0 0 1 0.276,0.114 l 0.613,0.682 c 0.103,0.118 0.114,0.307 0.03,0.455 l -0.114,-0.147 a 0.198,0.198 0 0 0 -0.162,-0.076 0.198,0.198 0 0 0 -0.15,0.32 l 0.09,0.116 a 0.42,0.42 0 0 1 -0.35,-0.143 l -0.549,-0.609 a 0.42,0.42 0 0 1 -0.106,-0.363 l 0.117,0.113 a 0.19908855,0.19908855 0 1 0 0.276,-0.287 L 63.17,26.374 a 0.43,0.43 0 0 1 0.173,-0.036 z m -38.499,0.077 a 0.43,0.43 0 0 1 0.174,0.036 l -0.133,0.129 a 0.19906594,0.19906594 0 1 0 0.278,0.285 l 0.104,-0.101 a 0.42,0.42 0 0 1 -0.104,0.363 l -0.547,0.611 c -0.091,0.105 -0.22,0.154 -0.349,0.144 l 0.099,-0.129 a 0.198,0.198 0 0 0 -0.176,-0.318 0.198,0.198 0 0 0 -0.139,0.077 l -0.122,0.159 c -0.085,-0.147 -0.073,-0.336 0.052,-0.481 l 0.049,-0.057 0.539,-0.602 a 0.38,0.38 0 0 1 0.275,-0.115 z m 40.777,2.776 c 0.134,-0.004 0.268,0.059 0.356,0.186 l 0.472,0.703 c 0.104,0.16 0.09,0.351 -0.014,0.485 l -0.093,-0.161 a 0.198,0.198 0 0 0 -0.272,-0.074 0.198,0.198 0 0 0 -0.072,0.272 l 0.073,0.128 a 0.42,0.42 0 0 1 -0.327,-0.192 l -0.457,-0.68 a 0.42,0.42 0 0 1 -0.053,-0.376 l 0.1,0.128 a 0.198,0.198 0 0 0 0.278,0.035 0.198,0.198 0 0 0 0.035,-0.278 l -0.124,-0.159 a 0.41,0.41 0 0 1 0.098,-0.017 z m -43.042,0.085 c 0.033,0.001 0.066,0.007 0.098,0.016 l -0.114,0.147 a 0.19861332,0.19861332 0 0 0 0.315,0.242 l 0.089,-0.115 a 0.42,0.42 0 0 1 -0.052,0.375 l -0.455,0.682 a 0.42,0.42 0 0 1 -0.326,0.193 l 0.08,-0.141 a 0.198,0.198 0 0 0 -0.182,-0.297 0.198,0.198 0 0 0 -0.162,0.1 l -0.1,0.176 c -0.105,-0.134 -0.118,-0.324 -0.015,-0.485 l 0.469,-0.705 a 0.42,0.42 0 0 1 0.356,-0.188 z m 44.898,3.062 c 0.162,-0.015 0.324,0.069 0.407,0.234 l 0.373,0.762 c 0.081,0.173 0.041,0.359 -0.081,0.477 l -0.07,-0.173 a 0.198,0.198 0 0 0 -0.26,-0.11 0.198,0.198 0 0 0 -0.11,0.26 l 0.055,0.135 a 0.42,0.42 0 0 1 -0.297,-0.235 l -0.36,-0.736 c -0.063,-0.124 -0.059,-0.263 -0.001,-0.379 l 0.081,0.141 a 0.19870644,0.19870644 0 1 0 0.344,-0.199 l -0.1,-0.174 z m -46.741,0.092 -0.074,0.166 a 0.19907599,0.19907599 0 1 0 0.346,0.197 l 0.072,-0.127 c 0.058,0.115 0.062,0.253 0,0.377 l -0.358,0.741 c -0.059,0.126 -0.17,0.209 -0.297,0.235 l 0.06,-0.151 a 0.198,0.198 0 0 0 -0.183,-0.271 0.198,0.198 0 0 0 -0.183,0.123 l -0.075,0.188 C 19.921,33.789 19.88,33.603 19.961,33.43 l 0.369,-0.763 c 0.083,-0.165 0.244,-0.25 0.406,-0.236 z m 48.23,3.28 c 0.164,0.008 0.313,0.114 0.374,0.288 l 0.264,0.805 c 0.057,0.182 -0.008,0.361 -0.144,0.462 l -0.046,-0.181 a 0.198,0.198 0 0 0 -0.242,-0.142 0.198,0.198 0 0 0 -0.143,0.242 l 0.036,0.142 A 0.42,0.42 0 0 1 68.8,37.053 l -0.256,-0.781 c -0.046,-0.132 -0.023,-0.269 0.05,-0.376 l 0.061,0.151 a 0.198,0.198 0 0 0 0.259,0.11 0.198,0.198 0 0 0 0.107,-0.258 l -0.076,-0.187 z m -49.705,0.098 -0.052,0.174 a 0.19897362,0.19897362 0 1 0 0.369,0.149 l 0.055,-0.136 a 0.42,0.42 0 0 1 0.051,0.375 l -0.252,0.781 a 0.42,0.42 0 0 1 -0.265,0.274 l 0.04,-0.159 a 0.198,0.198 0 0 0 -0.179,-0.246 0.198,0.198 0 0 0 -0.205,0.15 l -0.049,0.194 c -0.136,-0.101 -0.201,-0.28 -0.145,-0.462 l 0.259,-0.805 c 0.06,-0.174 0.209,-0.28 0.372,-0.289 z m 50.703,3.443 c 0.169,0.024 0.312,0.151 0.349,0.338 l 0.15,0.832 c 0.031,0.188 -0.058,0.357 -0.207,0.438 l -0.02,-0.184 a 0.198,0.198 0 0 0 -0.219,-0.176 0.198,0.198 0 0 0 -0.176,0.219 l 0.017,0.147 C 69.742,40.805 69.657,40.696 69.634,40.559 L 69.488,39.75 a 0.42,0.42 0 0 1 0.101,-0.364 l 0.04,0.157 a 0.198,0.198 0 0 0 0.242,0.143 0.198,0.198 0 0 0 0.143,-0.24 z m -51.688,0.102 -0.045,0.18 a 0.19948559,0.19948559 0 0 0 0.387,0.097 l 0.036,-0.143 a 0.42,0.42 0 0 1 0.101,0.364 l -0.143,0.808 a 0.42,0.42 0 0 1 -0.223,0.307 l 0.018,-0.163 a 0.198,0.198 0 0 0 -0.215,-0.219 0.198,0.198 0 0 0 -0.18,0.178 l -0.021,0.201 c -0.15,-0.081 -0.24,-0.248 -0.209,-0.437 l 0.149,-0.836 c 0.036,-0.187 0.178,-0.314 0.346,-0.338 z m 52.206,3.546 c 0.164,0.047 0.287,0.191 0.298,0.382 l 0.031,0.828 c 0.004,0.197 -0.087,0.334 -0.219,0.404 -0.016,0.009 -0.035,0.014 -0.052,0.02 l 0.011,-0.18 a 0.19889319,0.19889319 0 1 0 -0.397,-0.025 l -0.009,0.145 C 70.042,44.396 69.974,44.281 69.971,44.146 L 69.94,43.325 c -0.008,-0.139 0.052,-0.264 0.152,-0.346 l 0.018,0.163 a 0.19828074,0.19828074 0 0 0 0.394,-0.045 z m -52.708,0.105 -0.02,0.183 a 0.198,0.198 0 0 0 0.177,0.217 0.198,0.198 0 0 0 0.217,-0.176 l 0.016,-0.145 a 0.42,0.42 0 0 1 0.152,0.347 l -0.027,0.818 c -0.002,0.117 -0.051,0.221 -0.131,0.297 -0.014,0.013 -0.029,0.024 -0.044,0.035 l -0.006,-0.158 a 0.19860639,0.19860639 0 0 0 -0.397,0.013 l 0.008,0.203 A 0.4,0.4 0 0 1 17.575,44.546 C 17.497,44.469 17.447,44.371 17.45,44.181 l 0.031,-0.828 c 0.008,-0.156 0.131,-0.3 0.294,-0.349 z m 52.699,3.578 c 0.155,0.07 0.257,0.231 0.24,0.422 l -0.094,0.877 c -0.019,0.155 -0.152,0.29 -0.318,0.327 l 0.033,-0.182 a 0.198,0.198 0 0 0 -0.197,-0.232 0.198,0.198 0 0 0 -0.193,0.164 l -0.026,0.144 c -0.093,-0.089 -0.143,-0.218 -0.127,-0.356 l 0.086,-0.816 a 0.42,0.42 0 0 1 0.198,-0.321 l -0.005,0.163 a 0.198,0.198 0 0 0 0.193,0.203 0.198,0.198 0 0 0 0.203,-0.191 z m -52.677,0.104 0.007,0.187 a 0.19916074,0.19916074 0 1 0 0.398,-0.016 L 18.195,46.71 a 0.42,0.42 0 0 1 0.199,0.32 l 0.09,0.814 a 0.42,0.42 0 0 1 -0.126,0.358 l -0.029,-0.161 a 0.198,0.198 0 0 0 -0.23,-0.16 0.198,0.198 0 0 0 -0.16,0.233 l 0.036,0.197 c -0.166,-0.036 -0.299,-0.173 -0.323,-0.362 l -0.094,-0.842 c -0.018,-0.19 0.082,-0.352 0.237,-0.423 z m 51.75,3.509 -0.028,0.16 a 0.19860828,0.19860828 0 1 0 0.391,0.07 l 0.035,-0.198 c 0.143,0.091 0.219,0.265 0.176,0.45 l -0.205,0.823 c -0.049,0.184 -0.199,0.3 -0.368,0.313 l 0.057,-0.177 a 0.198,0.198 0 0 0 -0.203,-0.259 0.198,0.198 0 0 0 -0.176,0.136 l -0.045,0.139 a 0.42,0.42 0 0 1 -0.076,-0.369 l 0.199,-0.797 c 0.032,-0.136 0.124,-0.24 0.243,-0.291 z m -50.807,0.1 a 0.42,0.42 0 0 1 0.245,0.291 l 0.201,0.795 a 0.42,0.42 0 0 1 -0.076,0.373 l -0.051,-0.156 a 0.198,0.198 0 0 0 -0.25,-0.125 0.198,0.198 0 0 0 -0.127,0.25 l 0.063,0.191 c -0.169,-0.012 -0.32,-0.128 -0.37,-0.312 l -0.209,-0.82 c -0.044,-0.185 0.033,-0.36 0.176,-0.452 l 0.033,0.182 a 0.19860828,0.19860828 0 0 0 0.391,-0.07 z m 49.784,3.384 -0.05,0.155 a 0.198,0.198 0 0 0 0.127,0.25 0.198,0.198 0 0 0 0.25,-0.129 l 0.062,-0.191 c 0.13,0.109 0.184,0.291 0.116,0.47 l -0.317,0.787 c -0.074,0.177 -0.239,0.272 -0.409,0.261 l 0.081,-0.169 a 0.198,0.198 0 0 0 -0.201,-0.283 0.198,0.198 0 0 0 -0.156,0.111 l -0.064,0.131 a 0.42,0.42 0 0 1 -0.024,-0.377 l 0.304,-0.762 c 0.05,-0.13 0.156,-0.221 0.281,-0.255 z m -48.746,0.097 a 0.42,0.42 0 0 1 0.28,0.254 l 0.309,0.76 a 0.42,0.42 0 0 1 -0.024,0.378 l -0.071,-0.146 a 0.198,0.198 0 0 0 -0.266,-0.09 0.198,0.198 0 0 0 -0.09,0.264 l 0.088,0.181 c -0.17,0.011 -0.336,-0.084 -0.411,-0.26 l -0.318,-0.785 c -0.069,-0.179 -0.017,-0.362 0.113,-0.472 l 0.059,0.179 a 0.19859129,0.19859129 0 1 0 0.377,-0.125 z m 47.261,3.214 -0.071,0.147 a 0.19858751,0.19858751 0 1 0 0.358,0.172 l 0.087,-0.18 c 0.113,0.126 0.141,0.314 0.05,0.481 l -0.42,0.736 c -0.097,0.164 -0.274,0.236 -0.441,0.202 l 0.103,-0.155 a 0.198,0.198 0 0 0 -0.16,-0.307 0.198,0.198 0 0 0 -0.17,0.088 l -0.081,0.121 a 0.42,0.42 0 0 1 0.026,-0.377 l 0.407,-0.713 a 0.42,0.42 0 0 1 0.313,-0.215 z M 21.276,57.08 a 0.42,0.42 0 0 1 0.313,0.214 l 0.41,0.711 c 0.071,0.119 0.077,0.258 0.027,0.378 l -0.091,-0.135 a 0.198,0.198 0 0 0 -0.158,-0.088 0.198,0.198 0 0 0 -0.17,0.311 l 0.111,0.166 C 21.551,58.671 21.375,58.6 21.277,58.436 l -0.422,-0.734 c -0.093,-0.167 -0.066,-0.355 0.047,-0.482 l 0.082,0.167 a 0.19902261,0.19902261 0 1 0 0.358,-0.174 z m 43.836,2.985 -0.089,0.134 a 0.19941477,0.19941477 0 1 0 0.332,0.221 l 0.112,-0.168 c 0.095,0.141 0.097,0.331 -0.018,0.484 l -0.041,0.053 -0.498,0.644 c -0.097,0.122 -0.282,0.167 -0.443,0.112 l 0.122,-0.137 a 0.198,0.198 0 0 0 -0.152,-0.33 0.198,0.198 0 0 0 -0.143,0.065 l -0.099,0.111 a 0.42,0.42 0 0 1 0.079,-0.371 l 0.5,-0.649 a 0.42,0.42 0 0 1 0.337,-0.169 z m -41.901,0.082 c 0.13,-0.002 0.257,0.056 0.341,0.167 l 0.504,0.649 c 0.086,0.106 0.111,0.24 0.08,0.363 l -0.113,-0.117 a 0.198,0.198 0 0 0 -0.17,-0.062 0.198,0.198 0 0 0 -0.119,0.334 l 0.138,0.143 c -0.161,0.06 -0.349,0.015 -0.47,-0.135 l -0.521,-0.668 c -0.115,-0.152 -0.114,-0.343 -0.019,-0.484 l 0.103,0.154 a 0.198,0.198 0 0 0 0.275,0.054 0.198,0.198 0 0 0 0.055,-0.275 z m 39.5,2.688 c 0.022,0 0.043,0.002 0.065,0.006 l -0.107,0.12 a 0.19935208,0.19935208 0 0 0 0.297,0.266 l 0.134,-0.15 c 0.074,0.153 0.048,0.341 -0.087,0.476 l -0.006,0.008 -0.629,0.607 c -0.113,0.106 -0.302,0.125 -0.454,0.047 l 0.142,-0.119 a 0.198,0.198 0 0 0 -0.141,-0.352 0.198,0.198 0 0 0 -0.114,0.047 l -0.113,0.095 a 0.42,0.42 0 0 1 0.13,-0.355 l 0.61,-0.592 c 0.068,-0.068 0.168,-0.105 0.273,-0.104 z M 25.59,62.912 c 0.094,-0.005 0.186,0.023 0.256,0.082 l 0.662,0.604 0.002,0.002 c 0.102,0.094 0.146,0.226 0.132,0.355 L 26.516,63.85 a 0.198,0.198 0 0 0 -0.279,0.026 0.198,0.198 0 0 0 0.025,0.279 l 0.157,0.13 c -0.15,0.08 -0.34,0.061 -0.481,-0.07 L 25.19,63.453 v -0.002 c 0.01,0.013 -0.022,-0.063 -0.006,-0.154 a 0.52,0.52 0 0 1 0.055,-0.155 l 0.12,0.143 a 0.198,0.198 0 0 0 0.279,0.02 0.198,0.198 0 0 0 0.02,-0.28 l -0.091,-0.108 c 0.007,-0.001 0.015,-0.005 0.022,-0.005 z m 34.334,2.322 a 0.42,0.42 0 0 1 0.144,0.018 l -0.124,0.104 a 0.198,0.198 0 0 0 -0.025,0.28 0.198,0.198 0 0 0 0.279,0.025 l 0.155,-0.13 c 0.051,0.162 -0.002,0.345 -0.155,0.46 l -0.685,0.496 c -0.156,0.109 -0.347,0.102 -0.484,0.003 l 0.158,-0.098 a 0.198,0.198 0 0 0 0.063,-0.274 0.198,0.198 0 0 0 -0.274,-0.062 l -0.124,0.077 C 58.855,66.004 58.917,65.88 59.03,65.8 l 0.666,-0.48 c 0.069,-0.052 0.149,-0.08 0.228,-0.085 z m -31.502,0.061 c 0.08,0.005 0.159,0.032 0.228,0.084 l 0.666,0.479 c 0.114,0.079 0.177,0.202 0.181,0.331 l -0.138,-0.085 a 0.198,0.198 0 0 0 -0.273,0.064 0.198,0.198 0 0 0 0.065,0.273 l 0.171,0.105 c -0.137,0.1 -0.327,0.109 -0.484,0 l -0.687,-0.494 c -0.153,-0.114 -0.206,-0.296 -0.156,-0.458 l 0.142,0.118 a 0.19884165,0.19884165 0 1 0 0.254,-0.306 l -0.112,-0.094 c 0.047,-0.014 0.095,-0.02 0.143,-0.018 z m 28.482,1.924 a 0.42,0.42 0 0 1 0.14,0.037 l -0.137,0.086 a 0.19869889,0.19869889 0 1 0 0.209,0.338 l 0.172,-0.106 c 0.028,0.167 -0.05,0.341 -0.217,0.433 l -0.748,0.398 c -0.17,0.087 -0.357,0.052 -0.48,-0.065 l 0.169,-0.075 a 0.198,0.198 0 0 0 0.101,-0.261 0.198,0.198 0 0 0 -0.178,-0.117 0.198,0.198 0 0 0 -0.086,0.016 l -0.133,0.059 c 0.021,-0.127 0.1,-0.24 0.223,-0.303 l 0.727,-0.385 c 0.076,-0.042 0.158,-0.058 0.238,-0.052 z m -25.455,0.048 c 0.08,-0.007 0.163,0.01 0.239,0.051 l 0.727,0.383 c 0.124,0.063 0.203,0.178 0.224,0.306 l -0.148,-0.066 a 0.198,0.198 0 0 0 -0.072,-0.018 0.198,0.198 0 0 0 -0.189,0.119 0.198,0.198 0 0 0 0.101,0.261 l 0.184,0.081 c -0.122,0.118 -0.309,0.152 -0.479,0.066 l -0.75,-0.394 C 31.118,67.964 31.04,67.79 31.067,67.622 l 0.158,0.098 a 0.1982738,0.1982738 0 1 0 0.209,-0.337 l -0.125,-0.077 c 0.045,-0.021 0.092,-0.034 0.141,-0.038 z m 22.11,1.495 c 0.076,0.002 0.15,0.025 0.213,0.066 l -0.148,0.066 a 0.19875425,0.19875425 0 0 0 0.162,0.363 l 0.182,-0.082 c 0.005,0.17 -0.094,0.332 -0.272,0.4 l -0.795,0.291 c -0.18,0.063 -0.361,0.004 -0.467,-0.128 l 0.178,-0.052 A 0.198,0.198 0 0 0 52.549,69.297 0.198,0.198 0 0 0 52.5,69.305 l -0.141,0.041 c 0.038,-0.124 0.132,-0.227 0.264,-0.273 l 0.772,-0.283 c 0.054,-0.021 0.109,-0.03 0.163,-0.029 z M 34.799,68.8 c 0.054,-10e-4 0.109,0.007 0.163,0.028 l 0.772,0.28 a 0.42,0.42 0 0 1 0.264,0.271 l -0.155,-0.044 a 0.198,0.198 0 0 0 -0.246,0.137 0.198,0.198 0 0 0 0.137,0.246 l 0.193,0.055 c -0.105,0.133 -0.286,0.193 -0.466,0.13 L 34.664,69.614 C 34.485,69.546 34.385,69.385 34.39,69.215 l 0.17,0.075 a 0.19834881,0.19834881 0 1 0 0.16,-0.363 l -0.133,-0.059 c 0.064,-0.041 0.136,-0.065 0.212,-0.067 z m 15.233,1.042 c 0.106,-0.004 0.207,0.034 0.285,0.1 l -0.156,0.046 a 0.19856044,0.19856044 0 1 0 0.112,0.381 l 0.193,-0.056 c -0.018,0.169 -0.14,0.316 -0.326,0.359 l -0.826,0.18 c -0.188,0.038 -0.36,-0.045 -0.446,-0.192 l 0.184,-0.027 A 0.19862842,0.19862842 0 1 0 48.994,70.24 l -0.143,0.021 a 0.42,0.42 0 0 1 0.298,-0.232 l 0.8,-0.176 c 0.028,-0.007 0.056,-0.01 0.084,-0.011 z m -11.704,0.024 c 0.028,0.001 0.056,0.004 0.084,0.011 l 0.803,0.172 a 0.42,0.42 0 0 1 0.299,0.232 l -0.161,-0.023 a 0.198,0.198 0 0 0 -0.224,0.17 0.198,0.198 0 0 0 0.168,0.223 l 0.199,0.028 c -0.086,0.147 -0.257,0.231 -0.444,0.194 l -0.828,-0.178 c -0.186,-0.043 -0.308,-0.189 -0.326,-0.358 l 0.177,0.051 a 0.198,0.198 0 0 0 0.246,-0.136 0.198,0.198 0 0 0 -0.137,-0.244 l -0.14,-0.04 c 0.078,-0.067 0.177,-0.105 0.283,-0.101 z m 8.064,0.565 a 0.42,0.42 0 0 1 0.352,0.138 l -0.161,0.024 a 0.198,0.198 0 0 0 -0.168,0.225 0.198,0.198 0 0 0 0.225,0.168 l 0.2,-0.03 c -0.041,0.165 -0.182,0.293 -0.372,0.311 l -0.845,0.063 c -0.191,0.011 -0.35,-0.095 -0.415,-0.252 h 0.186 a 0.199,0.199 0 1 0 0,-0.398 l -0.147,10e-4 a 0.42,0.42 0 0 1 0.327,-0.188 l 0.819,-0.061 z m -4.42,0.008 0.818,0.058 c 0.138,0.007 0.256,0.079 0.327,0.187 h -0.161 a 0.198,0.198 0 0 0 -0.199,0.199 0.198,0.198 0 0 0 0.199,0.197 l 0.201,-0.001 a 0.41,0.41 0 0 1 -0.412,0.254 H 42.743 L 41.864,71.271 C 41.709,71.258 41.57,71.13 41.527,70.966 l 0.183,0.026 a 0.198,0.198 0 0 0 0.223,-0.17 0.198,0.198 0 0 0 -0.168,-0.223 l -0.146,-0.021 a 0.42,0.42 0 0 1 0.353,-0.141 z"
     class="B"
     id="path29"
     style="fill-rule:evenodd;" />
  <g
     id="g1106">
    <g
       class="C K"
       id="g169"
       transform="translate(-60.871,-151.509)">
      <path
         d="m 79.311,213.858 c 1.074,3.087 2.6,6.152 9.304,8.974 l -5.948,4.015 c -2.098,-1.437 -6.119,-5.604 -8.193,-10.57 l 4.171,1.051 z"
         fill="url(#C)"
         id="path159"
         style="fill:url(#C);" />
      <path
         d="m 82.71,217.748 -2.173,5.257 2.13,3.841 c 1.622,-0.462 3.965,-2.676 5.948,-4.015 z"
         fill="#d3d3d3"
         id="path161" />
      <path
         d="m 130.69,213.858 c -1.074,3.087 -2.6,6.152 -9.304,8.974 l 5.948,4.015 c 2.098,-1.437 6.119,-5.604 8.193,-10.57 l -4.171,1.051 z"
         fill="url(#D)"
         id="path163"
         style="fill:url(#D);" />
      <path
         d="m 127.29,217.748 2.173,5.257 -2.13,3.841 c -1.622,-0.462 -3.965,-2.676 -5.948,-4.015 z"
         fill="#d3d3d3"
         id="path165" />
      <path
         d="m 82.71,217.748 -2.173,5.257 c 5.877,2.565 12.616,4.227 24.463,4.659 11.847,-0.433 18.586,-2.094 24.463,-4.659 l -2.173,-5.257 c -6.883,2.284 -14.106,3.959 -22.29,3.919 -8.184,0.04 -15.407,-1.636 -22.29,-3.919 z"
         class="G"
         id="path167" />
    </g>
    <path
       d="m 22.486,69.885 0.425,0.101 q -0.034,0.22 0.046,0.356 0.081,0.136 0.274,0.203 0.204,0.07 0.337,0.02 0.134,-0.051 0.174,-0.167 0.025,-0.074 -0.001,-0.141 -0.025,-0.068 -0.12,-0.143 -0.065,-0.051 -0.307,-0.208 -0.311,-0.201 -0.406,-0.371 -0.134,-0.239 -0.048,-0.488 0.055,-0.16 0.192,-0.268 0.139,-0.109 0.334,-0.123 0.196,-0.014 0.438,0.069 0.394,0.135 0.534,0.376 0.141,0.241 0.052,0.534 l -0.429,-0.126 q 0.028,-0.171 -0.038,-0.272 -0.064,-0.102 -0.243,-0.163 -0.184,-0.063 -0.315,-0.023 -0.084,0.026 -0.112,0.107 -0.025,0.074 0.019,0.149 0.057,0.095 0.341,0.273 0.284,0.179 0.404,0.308 0.122,0.128 0.158,0.292 0.038,0.163 -0.03,0.362 -0.062,0.18 -0.216,0.303 -0.154,0.123 -0.363,0.137 -0.209,0.013 -0.482,-0.081 -0.397,-0.136 -0.547,-0.392 -0.15,-0.257 -0.071,-0.623 z m 3.733,1.978 -0.464,-0.145 -0.034,-0.538 -0.845,-0.264 -0.325,0.425 -0.453,-0.142 1.484,-1.856 0.451,0.141 z m -0.524,-1.082 -0.046,-0.875 -0.531,0.695 z m 1.013,1.214 0.502,-1.77 -0.632,-0.179 0.102,-0.36 1.693,0.48 -0.102,0.36 -0.631,-0.179 -0.502,1.77 z"
       id="path171" />
    <path
       d="m 28.611,72.512 0.231,-0.903 -0.468,-1.443 0.508,0.13 0.288,0.978 0.712,-0.722 0.499,0.128 -1.107,1.044 -0.23,0.9 z m 3.11,0.732 -0.475,-0.107 -0.078,-0.533 -0.864,-0.194 -0.289,0.451 -0.463,-0.104 1.328,-1.971 0.461,0.104 z m -0.611,-1.036 -0.117,-0.869 -0.472,0.736 z m 1.962,-0.957 0.872,0.154 q 0.259,0.046 0.381,0.091 0.124,0.043 0.212,0.13 0.089,0.086 0.136,0.213 0.047,0.125 0.022,0.266 -0.027,0.153 -0.133,0.266 -0.104,0.113 -0.257,0.152 0.189,0.093 0.271,0.252 0.082,0.159 0.049,0.348 -0.026,0.149 -0.121,0.278 -0.093,0.128 -0.229,0.191 -0.134,0.062 -0.313,0.05 -0.112,-0.007 -0.534,-0.079 l -0.742,-0.131 z m 0.376,0.441 -0.089,0.504 0.289,0.051 q 0.257,0.046 0.321,0.049 0.115,0.006 0.191,-0.046 0.077,-0.054 0.096,-0.159 0.018,-0.101 -0.028,-0.174 -0.044,-0.074 -0.151,-0.107 -0.064,-0.019 -0.375,-0.074 z m -0.154,0.867 -0.103,0.583 0.408,0.072 q 0.238,0.042 0.304,0.04 0.101,0 0.174,-0.058 0.075,-0.059 0.095,-0.175 0.017,-0.098 -0.018,-0.175 -0.035,-0.077 -0.121,-0.124 -0.084,-0.047 -0.384,-0.1 z m 1.579,1.247 0.333,-2.189 0.442,0.067 -0.333,2.189 z m 0.868,0.135 0.279,-2.197 0.432,0.055 0.713,1.581 0.186,-1.467 0.412,0.052 -0.279,2.197 -0.445,-0.056 -0.704,-1.545 -0.182,1.433 z m 4.201,0.453 -0.484,-0.044 -0.147,-0.518 -0.882,-0.08 -0.228,0.484 -0.472,-0.043 1.06,-2.127 0.471,0.043 z m -0.74,-0.947 -0.229,-0.846 -0.372,0.791 z m 1.727,1.005 0.089,-2.213 0.447,0.018 -0.04,0.983 0.942,-0.946 0.601,0.024 -0.868,0.828 0.824,1.386 -0.578,-0.023 -0.566,-1.063 -0.377,0.355 -0.027,0.669 z m 2.227,0.08 0.009,-2.214 1.642,0.006 -0.002,0.375 -1.195,-0.005 -0.002,0.491 1.112,0.005 -0.002,0.373 -1.112,-0.005 -0.003,0.603 1.237,0.006 -0.002,0.373 z m 2.065,0.002 -0.072,-2.213 0.941,-0.03 q 0.355,-0.012 0.517,0.044 0.163,0.054 0.265,0.203 0.102,0.149 0.108,0.346 0.008,0.249 -0.133,0.417 -0.141,0.166 -0.431,0.218 0.148,0.08 0.245,0.178 0.098,0.098 0.267,0.351 l 0.284,0.423 -0.534,0.017 -0.339,-0.471 Q 46.159,73.764 46.093,73.7 46.027,73.634 45.956,73.612 45.884,73.589 45.73,73.594 l -0.091,0.003 0.03,0.924 z m 0.406,-1.292 0.331,-0.011 q 0.322,-0.01 0.401,-0.04 0.079,-0.03 0.122,-0.098 0.043,-0.068 0.04,-0.168 -0.004,-0.112 -0.066,-0.178 -0.061,-0.068 -0.17,-0.082 -0.055,-0.006 -0.326,0.003 l -0.349,0.011 z"
       id="path173" />
    <path
       d="m 47.949,74.417 -0.121,-1.836 -0.656,0.043 -0.025,-0.374 1.756,-0.115 0.025,0.374 -0.654,0.043 0.121,1.836 z m 3.146,-0.276 -0.484,0.048 -0.242,-0.481 -0.881,0.087 -0.132,0.519 -0.472,0.047 0.64,-2.289 0.47,-0.047 z m -0.906,-0.791 -0.385,-0.788 -0.217,0.847 z m 1.143,0.759 -0.302,-2.194 0.932,-0.128 q 0.352,-0.048 0.519,-0.01 0.168,0.036 0.285,0.174 0.117,0.138 0.143,0.333 0.034,0.247 -0.089,0.428 -0.123,0.18 -0.406,0.262 0.155,0.064 0.262,0.152 0.108,0.087 0.302,0.321 l 0.327,0.391 -0.53,0.073 -0.386,-0.433 q -0.206,-0.232 -0.278,-0.29 -0.072,-0.059 -0.146,-0.073 -0.074,-0.016 -0.226,0.006 l -0.09,0.012 0.126,0.916 z m 0.269,-1.327 0.328,-0.045 q 0.319,-0.044 0.394,-0.082 0.076,-0.038 0.111,-0.11 0.036,-0.072 0.022,-0.171 -0.015,-0.111 -0.084,-0.17 -0.068,-0.061 -0.178,-0.064 -0.055,0 -0.324,0.037 l -0.346,0.048 z m 3.908,0.668 -0.479,0.084 -0.278,-0.462 -0.872,0.153 -0.093,0.527 -0.467,0.082 0.466,-2.33 0.466,-0.082 z m -0.963,-0.72 -0.443,-0.756 -0.152,0.861 z m 1.197,0.671 -0.464,-2.165 0.437,-0.094 0.183,0.852 0.857,-0.184 -0.183,-0.852 0.437,-0.094 0.464,2.165 -0.437,0.094 -0.203,-0.947 -0.857,0.184 0.203,0.947 z m 4.117,-0.966 -0.472,0.119 -0.311,-0.44 -0.858,0.217 -0.054,0.532 -0.46,0.116 0.294,-2.358 0.458,-0.116 z m -1.013,-0.648 -0.497,-0.722 -0.089,0.87 z m 1.242,0.581 -0.619,-2.126 0.904,-0.263 q 0.341,-0.099 0.511,-0.086 0.172,0.011 0.307,0.131 0.135,0.119 0.19,0.308 0.07,0.239 -0.025,0.437 -0.096,0.196 -0.364,0.318 0.163,0.041 0.281,0.112 0.12,0.071 0.346,0.274 l 0.38,0.339 -0.513,0.149 -0.445,-0.372 q -0.237,-0.2 -0.317,-0.246 -0.08,-0.048 -0.155,-0.051 -0.075,-0.005 -0.223,0.038 l -0.087,0.025 0.258,0.888 z m 0.072,-1.352 0.318,-0.092 q 0.309,-0.09 0.378,-0.138 0.069,-0.048 0.094,-0.125 0.025,-0.076 -0.003,-0.172 -0.031,-0.107 -0.108,-0.156 -0.076,-0.05 -0.185,-0.037 -0.054,0.008 -0.315,0.084 l -0.335,0.097 z"
       id="path175" />
    <path
       d="m 62.306,69.381 0.424,-0.138 0.433,1.333 q 0.085,0.261 0.085,0.417 -0.002,0.204 -0.128,0.369 -0.126,0.163 -0.392,0.25 -0.312,0.101 -0.536,-0.018 -0.225,-0.121 -0.336,-0.458 l 0.386,-0.176 q 0.066,0.179 0.136,0.238 0.106,0.091 0.247,0.045 0.142,-0.046 0.175,-0.146 0.032,-0.101 -0.051,-0.357 z m 3.44,1.146 -0.458,0.164 -0.352,-0.408 -0.833,0.298 -0.003,0.535 -0.447,0.16 0.066,-2.376 0.445,-0.159 z m -1.07,-0.547 -0.564,-0.671 -0.005,0.874 z"
       id="path177" />
  </g>
  <g
     id="g1339">
    <path
       d="m 29.086,59.544 h 30.085 v 1.983 H 29.086 Z"
       class="B"
       id="path47"
       style="fill:#c0c0c0;fill-rule:evenodd;stroke:#808080;stroke-width:0.2;stroke-linejoin:round;" />
    <path
       d="m 27.667,61.528 h 32.924 v 1.983 H 27.667 Z"
       class="B"
       id="path49"
       style="fill:#c0c0c0;fill-rule:evenodd;stroke:#808080;stroke-width:0.2;stroke-linejoin:round;" />
    <path
       d="m 26.58,63.511 h 35.097 v 1.983 H 26.58 Z"
       class="B"
       id="path51"
       style="fill:#c0c0c0;fill-rule:evenodd;stroke:#808080;stroke-width:0.2;stroke-linejoin:round;" />
    <path
       d="m 25.614,65.495 h 37.03 v 1.983 h -37.03 z"
       class="B"
       id="path53"
       style="fill:#c0c0c0;fill-rule:evenodd;stroke:#808080;stroke-width:0.2;stroke-linejoin:round;" />
    <path
       d="m 35.989,47.523 h 3.224 v 12.021 h -6.939 v -1.367 z"
       class="C D E"
       id="path57" />
    <path
       d="m 35.384,46.598 h 3.829 v 0.925 h -3.829 z"
       class="B"
       id="path59"
       style="fill:#c0c0c0;fill-rule:evenodd;stroke:#808080;stroke-width:0.2;stroke-linejoin:round;" />
    <path
       d="m 35.013,45.496 h 4.201 v 1.103 h -4.201 z"
       class="B"
       id="path61"
       style="fill:#c0c0c0;fill-rule:evenodd;stroke:#808080;stroke-width:0.2;stroke-linejoin:round;" />
    <path
       d="m 34.254,44.369 h 4.959 v 1.127 h -4.959 z"
       class="B"
       id="path63"
       style="fill:#c0c0c0;fill-rule:evenodd;stroke:#808080;stroke-width:0.2;stroke-linejoin:round;" />
    <path
       d="m 33.606,43.37 h 5.608 v 0.999 h -5.608 z"
       class="B"
       id="path65"
       style="fill:#c0c0c0;fill-rule:evenodd;stroke:#808080;stroke-width:0.2;stroke-linejoin:round;" />
    <path
       d="m 33.203,42.284 h 6.011 v 1.086 h -6.011 z"
       class="B"
       id="path67"
       style="fill:#c0c0c0;fill-rule:evenodd;stroke:#808080;stroke-width:0.2;stroke-linejoin:round;" />
    <path
       d="m 32.502,41.11 h 6.711 v 1.174 h -6.711 z"
       class="B"
       id="path69"
       style="fill:#c0c0c0;fill-rule:evenodd;stroke:#808080;stroke-width:0.2;stroke-linejoin:round;" />
    <path
       d="m 33.29,39.988 h 5.923 V 41.11 H 33.29 Z"
       class="B"
       id="path71"
       style="fill:#c0c0c0;fill-rule:evenodd;stroke:#808080;stroke-width:0.2;stroke-linejoin:round;" />
    <path
       d="m 33.799,38.867 h 5.415 v 1.121 h -5.415 z"
       class="B"
       id="path73"
       style="fill:#c0c0c0;fill-rule:evenodd;stroke:#808080;stroke-width:0.2;stroke-linejoin:round;" />
    <path
       d="m 34.938,37.798 h 4.276 v 1.069 h -4.276 z"
       class="B"
       id="path75"
       style="fill:#c0c0c0;fill-rule:evenodd;stroke:#808080;stroke-width:0.2;stroke-linejoin:round;" />
    <path
       d="m 35.533,36.781 h 3.68 v 1.016 h -3.68 z"
       class="B"
       id="path77"
       style="fill:#c0c0c0;fill-rule:evenodd;stroke:#808080;stroke-width:0.2;stroke-linejoin:round;" />
    <path
       d="m 36.182,35.485 h 3.032 v 1.297 h -3.032 z"
       class="B"
       id="path79"
       style="fill:#c0c0c0;fill-rule:evenodd;stroke:#808080;stroke-width:0.2;stroke-linejoin:round;" />
    <path
       d="m 37.04,34.416 h 2.173 v 1.069 H 37.04 Z"
       class="B"
       id="path81"
       style="fill:#c0c0c0;fill-rule:evenodd;stroke:#808080;stroke-width:0.2;stroke-linejoin:round;" />
    <path
       d="m 52.269,47.523 h -3.224 v 12.021 h 6.939 v -1.367 z"
       class="C D E"
       id="path85" />
    <path
       d="m 52.874,46.598 h -3.829 v 0.925 h 3.829 z"
       class="B"
       id="path87"
       style="fill:#c0c0c0;fill-rule:evenodd;stroke:#808080;stroke-width:0.2;stroke-linejoin:round;" />
    <path
       d="m 53.245,45.496 h -4.201 v 1.103 h 4.201 z"
       class="B"
       id="path89"
       style="fill:#c0c0c0;fill-rule:evenodd;stroke:#808080;stroke-width:0.2;stroke-linejoin:round;" />
    <path
       d="m 54.004,44.369 h -4.959 v 1.127 h 4.959 z"
       class="B"
       id="path91"
       style="fill:#c0c0c0;fill-rule:evenodd;stroke:#808080;stroke-width:0.2;stroke-linejoin:round;" />
    <path
       d="m 54.652,43.37 h -5.608 v 0.999 h 5.608 z"
       class="B"
       id="path93"
       style="fill:#c0c0c0;fill-rule:evenodd;stroke:#808080;stroke-width:0.2;stroke-linejoin:round;" />
    <path
       d="m 55.055,42.284 h -6.011 v 1.086 h 6.011 z"
       class="B"
       id="path95"
       style="fill:#c0c0c0;fill-rule:evenodd;stroke:#808080;stroke-width:0.2;stroke-linejoin:round;" />
    <path
       d="m 55.756,41.11 h -6.711 v 1.174 h 6.711 z"
       class="B"
       id="path97"
       style="fill:#c0c0c0;fill-rule:evenodd;stroke:#808080;stroke-width:0.2;stroke-linejoin:round;" />
    <path
       d="m 54.968,39.988 h -5.923 v 1.122 h 5.923 z"
       class="B"
       id="path99"
       style="fill:#c0c0c0;fill-rule:evenodd;stroke:#808080;stroke-width:0.2;stroke-linejoin:round;" />
    <path
       d="m 54.459,38.867 h -5.415 v 1.121 h 5.415 z"
       class="B"
       id="path101"
       style="fill:#c0c0c0;fill-rule:evenodd;stroke:#808080;stroke-width:0.2;stroke-linejoin:round;" />
    <path
       d="m 53.32,37.798 h -4.276 v 1.069 h 4.276 z"
       class="B"
       id="path103"
       style="fill:#c0c0c0;fill-rule:evenodd;stroke:#808080;stroke-width:0.2;stroke-linejoin:round;" />
    <path
       d="m 52.725,36.781 h -3.68 v 1.016 h 3.68 z"
       class="B"
       id="path105"
       style="fill:#c0c0c0;fill-rule:evenodd;stroke:#808080;stroke-width:0.2;stroke-linejoin:round;" />
    <path
       d="m 52.076,35.485 h -3.032 v 1.297 h 3.032 z"
       class="B"
       id="path107"
       style="fill:#c0c0c0;fill-rule:evenodd;stroke:#808080;stroke-width:0.2;stroke-linejoin:round;" />
    <path
       d="m 51.218,34.416 h -2.173 v 1.069 h 2.173 z"
       class="B"
       id="path109"
       style="fill:#c0c0c0;fill-rule:evenodd;stroke:#808080;stroke-width:0.2;stroke-linejoin:round;" />
    <path
       d="m 40.309,56.251 h 7.64 v 3.294 h -7.64 z m 0.453,-7.165 h 6.735 v 3.874 h -6.735 z"
       class="H G"
       id="path113"
       style="fill-rule:evenodd;" />
    <path
       d="m 41.163,45.485 h 5.931 v 3.6 h -5.931 z m -0.854,7.472 h 7.64 v 3.294 h -7.64 z"
       class="H"
       fill="#ff0000"
       id="path115"
       style="fill-rule:evenodd;" />
    <path
       d="m 41.66,42.73 h 4.938 v 2.757 H 41.66 Z"
       class="G H"
       id="path117"
       style="fill-rule:evenodd;" />
    <path
       d="m 41.885,40.282 h 4.487 v 2.45 h -4.487 z"
       fill="#ff0000"
       class="H"
       id="path119"
       style="fill-rule:evenodd;" />
  </g>
</svg>
