<?xml version="1.0" encoding="UTF-8" standalone="no"?>
<svg
   xmlns:dc="http://purl.org/dc/elements/1.1/"
   xmlns:cc="http://creativecommons.org/ns#"
   xmlns:rdf="http://www.w3.org/1999/02/22-rdf-syntax-ns#"
   xmlns:svg="http://www.w3.org/2000/svg"
   xmlns="http://www.w3.org/2000/svg"
   xmlns:xlink="http://www.w3.org/1999/xlink"
   xmlns:sodipodi="http://sodipodi.sourceforge.net/DTD/sodipodi-0.dtd"
   xmlns:inkscape="http://www.inkscape.org/namespaces/inkscape"
   width="227.974"
   height="303.515"
   viewBox="0 0 60.318 80.305"
   version="1.1"
   id="svg531"
   sodipodi:docname="Seal of Nganjuk Regency (1).svg"
   inkscape:version="1.0.1 (3bc2e813f5, 2020-09-07)">
  <metadata
     id="metadata535">
    <rdf:RDF>
      <cc:Work
         rdf:about="">
        <dc:format>image/svg+xml</dc:format>
        <dc:type
           rdf:resource="http://purl.org/dc/dcmitype/StillImage" />
      </cc:Work>
    </rdf:RDF>
  </metadata>
  <sodipodi:namedview
     pagecolor="#ffffff"
     bordercolor="#666666"
     borderopacity="1"
     objecttolerance="10"
     gridtolerance="10"
     guidetolerance="10"
     inkscape:pageopacity="0"
     inkscape:pageshadow="2"
     inkscape:window-width="1366"
     inkscape:window-height="705"
     id="namedview533"
     showgrid="false"
     inkscape:zoom="2.0964502"
     inkscape:cx="138.01363"
     inkscape:cy="106.62913"
     inkscape:window-x="-8"
     inkscape:window-y="-8"
     inkscape:window-maximized="1"
     inkscape:current-layer="svg531" />
  <style
     id="style2"><![CDATA[.B{opacity:.998}.C{fill:#ffeba3}.D{fill:#f5c742}.E{stroke-width:.1}.F{stroke:#a07843}.G{stroke:#174a23}.H{fill:#206731}.I{fill:#fff}.J{fill:none}.K{stroke-linejoin:round}.L{stroke-width:.265}.M{opacity:.999}.N{stroke:#d9d9d9}.O{fill:#a4a4a4}.P{stroke-width:.165}.Q{stroke-width:.065}.R{fill-rule:evenodd}]]></style>
  <defs
     id="defs59">
    <linearGradient
       id="A"
       gradientUnits="userSpaceOnUse">
      <stop
         stop-color="#fff"
         offset="0"
         id="stop4" />
      <stop
         stop-color="#c8d3d9"
         offset=".618"
         id="stop6" />
    </linearGradient>
    <linearGradient
       xlink:href="#A"
       id="B"
       x1="90.337"
       y1="165.024"
       x2="100.158"
       y2="165.024" />
    <linearGradient
       xlink:href="#A"
       id="C"
       x1="119.663"
       y1="165.024"
       x2="109.842"
       y2="165.024" />
    <linearGradient
       xlink:href="#A"
       id="D"
       x1="125.301"
       y1="202.202"
       x2="126.393"
       y2="200.246" />
    <linearGradient
       xlink:href="#A"
       id="E"
       x1="190.646"
       y1="132.346"
       x2="186.521"
       y2="124.953" />
    <linearGradient
       id="F"
       x1="94.343"
       y1="173.112"
       x2="115.657"
       y2="173.112"
       gradientUnits="userSpaceOnUse">
      <stop
         offset="0"
         stop-color="#fff"
         id="stop13" />
      <stop
         offset=".31"
         stop-color="#dcdcdc"
         id="stop15" />
      <stop
         offset=".514"
         stop-color="#fff"
         id="stop17" />
      <stop
         offset=".699"
         stop-color="#dcdcdc"
         id="stop19" />
      <stop
         offset="1"
         stop-color="#fff"
         id="stop21" />
    </linearGradient>
    <path
       id="G"
       d="M105 102.148c-8.183 0-15.496 1.453-22.773 4.724.128 3.072-3.061 6.917-6.804 8.316v39.026C79.6 175.122 99.48 178.942 105 181.24c5.52-2.297 25.399-6.118 29.576-27.025v-39.026c-3.742-1.398-6.931-5.244-6.804-8.316-7.277-3.271-14.59-4.724-22.773-4.724z" />
    <path
       id="H"
       d="M98.4 158.939l-2.601 2.133c1.826 1.007 2.709-.248 3.851-.883z" />
    <path
       id="I"
       d="M93.73 162.137l-1.25-2.022 4.394-2.5 1.526 1.324c-1.256.894-3.101 2.931-4.669 3.199z" />
    <path
       id="J"
       d="M92.223 162.453c-1.266-.899-2.791-1.511-4.855-1.53 2.964-.297 5.927-2.186 8.891-3.562l.297.434c-2.477 1.865-3.964 3.43-4.333 4.657z" />
    <path
       id="K"
       d="M82.662 157.206c2.292 1.046 3.15 2.041 3.77 2.626 1.42.01 6.245-1.984 9.239-3.075-4.173.727-8.57.866-13.008.449z" />
    <path
       id="L"
       d="M82.246 156.088l-1.716-3.146c3.593 2.601 9.003 2.658 14.273 2.912-2.041.573-5.895.879-12.557.234z" />
    <path
       id="M"
       d="M79.814 151.081c.177-2.232-.234-2.985-.582-4.101 3.299 3.631 8.758 6.525 14.027 6.779l.499.929c-3.567.561-9.212-.947-13.944-3.606z" />
    <path
       id="N"
       d="M79.776 139.996c.23 1.833.845 3.575-.026 5.667 1.404 1.51 5.812 7.195 12.323 7.487l-.312-.91c-3.283-1.642-9.999-6.847-11.985-12.245z" />
    <path
       id="O"
       d="M81.232 134.302c.279 1.869-.076 3.633-.676 5.355 3.273 4.194 6.559 8.527 11.042 11.523l-.496-2.206c-7.344-6.339-7.71-11.175-9.87-14.673z" />
    <path
       id="P"
       d="M82.37 132.43c2.308 4.925 3.643 9.639 8.456 15.111l-.221-1.507c-5.121-6.98-6.045-14.182-5.993-18.162-.53 1.696-.958 3.475-2.243 4.559z" />
    <path
       id="Q"
       d="M90.605 145.078c-6.521-12.349-4.084-14.501-4.228-19.155 2.736-1.937 2.658-3.583 3.566-5.331-3.085 8.933-1.641 16.516.662 24.486z" />
    <path
       id="R"
       d="M101.094 111.477c-2.86 3.509-5.662 7.163-9.463 8.319-3.091 9.092-2.502 14.861-1.456 21.63-1.143-10.099 5.513-24.045 10.919-29.949z" />
    <path
       id="S"
       d="M87.939 159.494l-.572 1.43c2.964-.297 5.927-2.186 8.891-3.562l-.588-.605z" />
    <path
       id="T"
       d="M82.662 157.206c.91-.235 1.116-.454 1.638-.962 3.564.283 7.034-.05 10.503-.39l.867.903c-4.173.727-8.57.866-13.008.449z" />
    <path
       id="U"
       d="M82.038 152.11l-1.508.832c3.593 2.601 9.003 2.658 14.273 2.912l-1.045-1.167c-4.712.271-9.882-1.506-11.719-2.577z" />
    <path
       id="V"
       d="M80.459 146.475c-.506.423-.613.632-1.228.505 3.299 3.631 8.927 6.629 14.027 6.779l-1.409-.642c-3.26-.206-9.375-4.337-11.391-6.641z" />
    <path
       id="W"
       d="M80.114 140.776l1.43.026c2.967 3.54 5.571 7.162 9.983 10.373l.312 1.066c-1.044-.172-9.458-5.126-11.725-11.465z" />
    <path
       id="X"
       d="M81.232 134.302c.479.29 1.081.698 2.247.429 1.469 3.91 4.818 10.276 7.261 12.602l.362 1.642c-7.344-6.339-7.71-11.175-9.87-14.673z" />
    <path
       id="Y"
       d="M84.76 128.055l1.507.846c-.497 5.564 1.77 10.9 4.265 16.177l.11.772c-2.528-1.955-6.576-10.772-5.883-17.795z" />
    <path
       id="Z"
       d="M89.733 121.473c.206.466.414.932 1.196 1.365-1.905 7.769-1.088 14.91-.364 22.072-2.268-7.231-3.805-14.93-.832-23.437z" />
    <path
       id="a"
       d="M101.094 111.477c-1.076 1.647-1.804 4.395-1.092 7.227-7.562 8.283-10.033 15.817-9.827 22.722-1.143-10.099 5.513-24.045 10.919-29.949z" />
    <path
       id="b"
       d="M101.065 162.928h2.482c-.612 2.392.3 5.771-1.746 6.967-1.035.605-2.163.724-3.107-.368-.727-.841.178-2.385.938-1.268.649.954 1.37.404 1.379.239z" />
    <path
       id="c"
       d="M101.9 163.549c-.351.358-.327.897-.271 1.358.042.344.071.695.01 1.038.001.955.024 1.976-.474 2.828-.221.142-.53.23-.696.469-.131.289.368.283.533.174.613-.272.946-.964.942-1.612.254-.816.369-1.68.287-2.533-.14-.349.035-.72.109-1.064.053-.227.152-.572-.117-.698-.122-.055-.223-.044-.322.041z" />
    <path
       id="d"
       d="M99.04 168.443c-.3.498.003 1.163.485 1.419.128.073.615.237.481-.019-.211-.378-.687-.601-.729-1.069.031-.127-.018-.275-.157-.304l-.079-.028z" />
    <path
       id="e"
       d="M101.094 111.476l-1.546 1.863-.18.243c-2.304 2.768-4.701 5.29-7.738 6.213l-.861 2.944c-.647-.405-.846-.836-1.037-1.267l.21-.881c-.908 1.748-.83 3.394-3.566 5.331l-.111 2.978-1.507-.845-.147-.184c-.53 1.696-.958 3.475-2.243 4.559l.98 2.301c-1.166.269-1.64-.139-2.118-.429.279 1.869-.076 3.632-.676 5.355l.988 1.144-1.43-.026-.338-.78c.23 1.833.845 3.575-.026 5.667l.708.812c-.506.423-.613.632-1.227.505.348 1.117.759 1.87.582 4.102l2.222 1.031-1.505.83 1.716 3.146 2.054.156c-.522.508-.728.727-1.638.962 2.292 1.046 3.151 2.041 3.77 2.626 1.883-.447 1.612-.598.936 1.092 2.065.019 3.589.631 4.855 1.53.131-.436.407-.916.815-1.437l.693 1.121c.698-.119 1.449-.594 2.181-1.158l-.112.092c1.826 1.007 2.709-.248 3.851-.883-7.134-7.884-16.988-21.651.352-41.485-.712-2.832.016-5.581 1.091-7.227z" />
    <path
       id="f"
       d="M90.422 137.872c-.519 4.511 2.241 12.527 9.853 15.589-1.55 1.953-.899 4.666 2.071 8.828-12.26-4.676-13.574-14.068-11.924-24.417z" />
    <path
       id="g"
       d="M92.45 148.368c-.331.954-.16 2.224.39 3.241.919 1.247 2.793.941 3.47 2.447 1.046 2.042 1.342 4.386 2.974 6.181 1.794.563-.603-2.217-.462-3.038.08-1.63-.259-3.673-2.099-4.571-1.377-.878-3.215-1.602-3.716-3.348-.197-.225-.123-1.378-.556-.913z" />
    <path
       id="h"
       d="M93.362 133.994c.461-.363.742-.919.541-1.989-.502.583-.803 1.215-.541 1.989z" />
    <path
       id="i"
       d="M93.83 132.55c-.121.257-.317.728-.317.997.14-.167.324-.631.317-.997z" />
    <path
       id="j"
       d="M115.826 134.225c-.338.01-.426-.704.26-.741-.032-.497.858-.627.975-.097.358-.204.691.414.559.507l-.884.578z" />
    <path
       id="k"
       d="M115.706 134.223c.193.448.433.829 1.085.625.932-.092.723-.607.864-.993-.334.14-.627.265-.986-.028-.359.578-.666.386-.962.396z" />
    <path
       id="l"
       d="M105.674 149.973c.955.4 1.203 1.043 1.963.78 1.017-.66.338-1.407.091-2.132-.242.154-.44.333-.442.624-.174-.325-.207-.847-.161-1.393l-.491.71c-.236-.33-.643-.511-.998-.769.156.392.27.826.541 1.104l-.649.191c.437.12.706.375.874.69-.285.002-.512.09-.728.195z" />
    <path
       id="m"
       d="M106.514 150.106l1.02.377-1.195-1.829" />
    <path
       id="n"
       d="M107.535 150.483l.073-1.232" />
    <path
       id="o"
       d="M106.211 149.196l.726.372-.055-.878" />
  </defs>
  <g
     stroke="#606060"
     id="g69"
     transform="translate(-74.841,-101.566)">
    <path
       id="use61"
       d="m 105,102.148 c -8.183,0 -15.496,1.453 -22.773,4.724 0.128,3.072 -3.061,6.917 -6.804,8.316 v 39.026 C 79.6,175.122 99.48,178.942 105,181.24 c 5.52,-2.297 25.399,-6.118 29.576,-27.025 v -39.026 c -3.742,-1.398 -6.931,-5.244 -6.804,-8.316 -7.277,-3.271 -14.59,-4.724 -22.773,-4.724 z"
       style="opacity:0.999;fill:#ffffff;stroke-width:1.165" />
    <g
       stroke-width="0.565"
       id="g67">
      <path
         d="m 105,103.879 c -7.734,0 -14.586,1.352 -21.43,4.316 a 9.51,9.51 0 0 1 -2.07,4.615 c -1.181,1.437 -2.76,2.595 -4.492,3.445 v 37.895 c 3.946,19.433 21.414,23.004 27.992,25.557 6.578,-2.553 24.046,-6.123 27.992,-25.557 v -37.895 c -1.732,-0.85 -3.311,-2.008 -4.492,-3.445 a 9.51,9.51 0 0 1 -2.07,-4.615 c -6.843,-2.964 -13.696,-4.316 -21.43,-4.316 z"
         fill="#0178bd"
         class="M"
         id="path65" />
    </g>
  </g>
  <g
     id="g1992">
    <path
       d="m 26.412,6.676 2.241,1.653 -10e-4,0.004"
       class="C"
       id="path71" />
    <path
       d="m 31.124,6.672 h -0.007 l -0.96,-2.739 -0.004,0.013 -0.95,2.722 -0.002,0.004 -2.804,-0.006 0.014,0.01 2.24,1.656 -0.818,2.753 0.017,-0.012 2.303,-1.656 0.004,-0.003 2.327,1.571 -0.002,-0.005 -0.856,-2.677 h 10e-4 l 2.288,-1.634 0.004,-0.003 z"
       class="I"
       id="path73" />
    <path
       fill="#a07843"
       d="m 27.834,11.252 c -0.034,0 -0.067,-0.01 -0.096,-0.031 C 27.68,11.18 27.655,11.106 27.675,11.038 L 28.46,8.396 26.3,6.799 C 26.242,6.756 26.218,6.681 26.241,6.613 26.264,6.545 26.327,6.499 26.399,6.499 v 0 l 2.687,0.006 0.917,-2.627 C 30.026,3.811 30.089,3.767 30.16,3.767 v 0 c 0.071,0 0.133,0.045 0.157,0.111 L 31.238,6.506 33.923,6.5 v 0 c 0.072,0 0.136,0.047 0.158,0.115 0.022,0.068 -0.003,0.144 -0.061,0.186 l -2.195,1.567 0.813,2.545 c 0.01,0.022 0.016,0.046 0.016,0.072 0,0.092 -0.074,0.166 -0.166,0.166 -0.015,0 -0.03,-0.002 -0.044,-0.006 -0.014,-0.004 -0.035,-0.012 -0.051,-0.023 l -2.23,-1.505 -2.23,1.604 c -0.028,0.021 -0.062,0.031 -0.096,0.031 z m -0.93,-4.419 1.847,1.366 c 0.056,0.042 0.08,0.114 0.06,0.181 l -0.68,2.287 1.925,-1.384 C 30.112,9.242 30.193,9.238 30.25,9.277 l 1.929,1.302 -0.711,-2.225 c -0.022,-0.068 0.003,-0.143 0.06,-0.185 l 1.871,-1.336 -2.276,0.005 v 0 c -0.071,0 -0.14,-0.045 -0.163,-0.111 L 30.158,4.436 29.36,6.722 c -0.023,0.067 -0.088,0.116 -0.158,0.116 v 0 z"
       id="path75" />
    <path
       d="M 30.158,3.933 30.154,3.946 V 7.843 L 31.125,6.672 H 31.118 Z"
       class="D"
       id="path77" />
    <g
       class="C"
       id="g83"
       transform="translate(-74.841,-101.566)">
      <path
         d="m 101.253,108.242 2.241,1.653 -0.001,0.004 1.502,-0.486 v -0.003 z"
         id="path79" />
      <path
         d="m 104.992,109.408 0.002,0.001 v -3.897 l -0.95,2.722 z"
         id="path81" />
    </g>
    <path
       d="m 29.202,6.672 -2.804,-0.006 0.014,0.01 3.739,1.166 -0.947,-1.175 z"
       class="D"
       id="path85" />
    <path
       d="M 33.916,6.669 33.92,6.666 31.124,6.672 30.156,7.84 Z"
       class="C"
       id="path87" />
    <path
       d="m 30.154,7.843 v 0 l 1.474,0.46 2.288,-1.634 -3.76,1.171 z"
       class="D"
       id="path89" />
    <path
       d="m 31.628,8.302 -1.474,-0.46 v 0.003 l 2.329,3.134 -0.856,-2.677 z"
       class="C"
       id="path91" />
    <g
       class="D"
       id="g97"
       transform="translate(-74.841,-101.566)">
      <path
         d="m 104.995,110.984 0.004,-0.003 2.327,1.571 -0.002,-0.005 -2.329,-3.134 z"
         id="path93" />
      <path
         d="m 104.987,109.415 -1.494,0.484 -0.818,2.753 0.017,-0.012 z"
         id="path95" />
    </g>
    <path
       d="m 30.146,7.849 -2.295,3.225 2.303,-1.656 V 7.846 Z"
       class="C"
       id="path99" />
  </g>
  <g
     id="g1975">
    <g
       transform="translate(-149.479,-101.566)"
       id="g131">
      <g
         stroke="#959595"
         class="K"
         id="g113">
        <g
           class="L"
           id="g109">
          <path
             d="m 170.184,127.496 c -1.333,1.031 -2.114,2.467 -2.74,4.016 l 2.032,-1.016 0.685,2.291 c 1.254,-2.466 2.016,-3.504 2.646,-4.158 z"
             fill="url(#D)"
             id="path101"
             style="fill:url(#D)" />
          <path
             d="m 168.952,127.708 1.781,1.339 2.073,-0.417 -2.622,-1.134 z"
             class="O"
             id="path103" />
          <path
             d="m 189.093,127.496 c 1.333,1.031 2.114,2.467 2.74,4.016 l -2.032,-1.016 -0.685,2.291 c -1.254,-2.466 -2.016,-3.504 -2.646,-4.158 z"
             fill="url(#E)"
             id="path105"
             style="fill:url(#E)" />
          <path
             d="m 190.324,127.708 -1.781,1.339 -2.073,-0.417 2.622,-1.134 z"
             class="O"
             id="path107" />
        </g>
        <path
           d="m 179.498,122.182 c -4.132,0.043 -8.027,2.271 -10.546,5.527 l 1.781,1.339 a 10.85,10.85 0 0 1 0.983,-1.147 11.28,11.28 0 0 1 7.807,-3.305 h 0.115 a 11.28,11.28 0 0 1 7.881,3.264 10.85,10.85 0 0 1 1.024,1.188 l 1.779,-1.336 c -2.549,-3.29 -6.504,-5.529 -10.684,-5.529 a 13.83,13.83 0 0 0 -0.115,0 c -0.008,0 -0.017,0 -0.025,0 z"
           stroke-width="0.232"
           class="I M R"
           id="path111" />
      </g>
      <path
         d="m 170.604,126.912 0.159,0.158 0.176,-0.177 q 0.047,-0.047 0.059,-0.094 0.012,-0.048 -0.034,-0.093 -0.05,-0.05 -0.105,-0.027 -0.045,0.023 -0.097,0.075 z m 0.279,0.276 0.192,0.191 0.176,-0.177 q 0.047,-0.047 0.06,-0.087 0.024,-0.071 -0.043,-0.137 -0.056,-0.056 -0.123,-0.03 -0.037,0.014 -0.084,0.061 z m -0.199,-0.607 q 0.133,-0.131 0.263,-0.112 0.079,0.012 0.143,0.076 0.066,0.066 0.073,0.139 0.004,0.041 -0.013,0.096 0.075,-0.035 0.146,-0.02 0.072,0.015 0.134,0.076 0.064,0.064 0.083,0.146 0.013,0.054 0.006,0.108 -0.008,0.061 -0.045,0.118 -0.037,0.057 -0.091,0.112 l -0.324,0.327 -0.722,-0.715 z"
         id="path115" />
      <path
         d="m 171.745,126.459 0.197,-0.166 -0.354,-0.224 z m -0.397,-0.492 0.183,-0.154 0.929,0.545 -0.176,0.148 -0.185,-0.118 -0.286,0.241 0.081,0.205 -0.17,0.143 z m 0.091,-0.076 z"
         id="path117" />
      <path
         d="m 172.511,125.939 q 0.048,0.051 0.091,0.063 0.078,0.021 0.181,-0.051 0.061,-0.043 0.09,-0.084 0.054,-0.077 0.005,-0.148 -0.029,-0.041 -0.081,-0.038 -0.052,0.003 -0.141,0.041 l -0.102,0.042 q -0.15,0.062 -0.224,0.063 -0.124,0.002 -0.211,-0.12 -0.079,-0.111 -0.05,-0.242 0.029,-0.131 0.186,-0.242 0.131,-0.093 0.273,-0.088 0.142,0.004 0.24,0.133 l -0.167,0.118 q -0.057,-0.072 -0.14,-0.06 -0.055,0.008 -0.115,0.05 -0.067,0.047 -0.088,0.103 -0.021,0.055 0.013,0.104 0.031,0.044 0.086,0.039 0.036,-0.003 0.132,-0.042 l 0.167,-0.067 q 0.11,-0.044 0.184,-0.04 0.116,0.006 0.194,0.117 0.08,0.114 0.046,0.251 -0.034,0.136 -0.193,0.248 -0.162,0.114 -0.307,0.106 -0.145,-0.009 -0.237,-0.138 z m -0.255,-0.718 z"
         id="path119" />
      <path
         d="m 172.951,124.793 0.406,0.437 0.106,0.126 -0.053,-0.152 -0.192,-0.564 0.194,-0.112 0.394,0.444 0.108,0.125 -0.051,-0.15 -0.175,-0.577 0.187,-0.107 0.258,1.023 -0.176,0.101 -0.402,-0.454 -0.129,-0.152 0.067,0.188 0.19,0.576 -0.171,0.098 -0.756,-0.737 z m 1.576,-0.126 0.235,-0.107 -0.281,-0.311 z m -0.249,-0.581 0.218,-0.099 0.748,0.776 -0.21,0.095 -0.146,-0.163 -0.341,0.155 0.022,0.219 -0.202,0.092 z m 0.108,-0.049 z m 0.898,-0.181 0.091,0.257 0.227,-0.081 q 0.067,-0.024 0.096,-0.052 0.05,-0.049 0.021,-0.129 -0.031,-0.087 -0.099,-0.096 -0.038,-0.005 -0.103,0.018 z m 0.215,-0.264 q 0.101,-0.034 0.163,-0.03 0.063,0.003 0.116,0.034 0.044,0.025 0.078,0.063 0.034,0.038 0.054,0.094 0.024,0.068 0.013,0.147 -0.011,0.078 -0.081,0.133 0.076,0.003 0.12,0.043 0.045,0.039 0.081,0.139 l 0.023,0.064 q 0.023,0.066 0.037,0.087 0.021,0.034 0.056,0.042 l 0.009,0.024 -0.22,0.078 q -0.02,-0.029 -0.031,-0.047 -0.022,-0.037 -0.038,-0.079 l -0.033,-0.088 q -0.034,-0.091 -0.077,-0.11 -0.043,-0.019 -0.131,0.012 l -0.206,0.073 0.133,0.375 -0.195,0.069 -0.34,-0.957 z"
         id="path121" />
      <path
         d="m 176.499,123.944 0.249,-0.066 -0.225,-0.354 z m -0.149,-0.614 0.232,-0.061 0.607,0.89 -0.223,0.059 -0.117,-0.185 -0.362,0.096 -0.015,0.22 -0.215,0.057 z m 0.115,-0.03 z m 1.588,-0.311 0.238,-0.035 -0.244,0.676 0.055,0.378 -0.21,0.031 -0.055,-0.378 -0.44,-0.576 0.247,-0.036 0.273,0.407 z m -0.209,0.031 z m 0.655,-0.085 0.215,-0.013 0.037,0.623 q 0.006,0.105 0.034,0.151 0.044,0.083 0.173,0.075 0.129,-0.008 0.162,-0.095 0.022,-0.05 0.016,-0.154 l -0.037,-0.623 0.215,-0.013 0.037,0.623 q 0.01,0.162 -0.035,0.255 -0.084,0.171 -0.347,0.187 -0.263,0.016 -0.368,-0.144 -0.056,-0.087 -0.065,-0.249 z m 0.408,-0.025 z"
         id="path123" />
      <path
         d="m 179.809,123.064 -0.019,0.663 0.196,0.006 q 0.15,0.004 0.214,-0.142 0.035,-0.08 0.038,-0.193 0.005,-0.155 -0.042,-0.239 -0.046,-0.085 -0.19,-0.089 z m 0.237,-0.169 q 0.094,0.004 0.156,0.027 0.106,0.038 0.169,0.134 0.051,0.077 0.067,0.166 0.017,0.089 0.014,0.169 -0.006,0.202 -0.091,0.341 -0.116,0.186 -0.346,0.179 l -0.437,-0.013 0.03,-1.015 z"
         id="path125" />
      <path
         d="m 180.595,123.937 0.121,-1.008 0.209,0.025 -0.046,0.384 0.394,0.047 0.046,-0.384 0.209,0.025 -0.121,1.008 -0.209,-0.025 0.054,-0.45 -0.394,-0.047 -0.054,0.45 z m 1.202,0.173 -0.207,-0.038 0.182,-0.999 0.207,0.038 z m 0.082,-1.038 z m 0.474,0.764 0.25,0.061 -0.029,-0.418 z m 0.162,-0.611 0.233,0.057 0.11,1.072 -0.224,-0.054 -0.014,-0.218 -0.364,-0.088 -0.118,0.186 -0.216,-0.052 z m 0.115,0.028 z m 1.031,0.293 0.196,0.073 -0.145,0.392 0.513,-0.256 0.257,0.095 -0.536,0.248 0.203,0.712 -0.256,-0.095 -0.14,-0.525 -0.131,0.062 -0.118,0.319 -0.196,-0.073 z m 1.011,1.085 0.233,0.11 0.055,-0.416 z m 0.281,-0.566 0.217,0.102 -0.107,1.072 -0.208,-0.098 0.03,-0.217 -0.339,-0.159 -0.152,0.159 -0.201,-0.094 z m 0.107,0.05 z m 0.721,0.567 -0.137,0.236 0.208,0.121 q 0.062,0.036 0.101,0.04 0.069,0.007 0.112,-0.067 0.046,-0.08 0.009,-0.138 -0.021,-0.033 -0.08,-0.067 z m 0.34,-0.007 q 0.091,0.055 0.129,0.105 0.038,0.05 0.049,0.11 0.009,0.05 0.002,0.1 -0.007,0.05 -0.037,0.102 -0.036,0.063 -0.103,0.105 -0.066,0.042 -0.154,0.025 0.047,0.06 0.045,0.12 0,0.06 -0.054,0.152 l -0.034,0.059 q -0.035,0.06 -0.043,0.084 -0.012,0.038 0.004,0.069 l -0.013,0.022 -0.202,-0.117 q 0.009,-0.034 0.015,-0.054 0.014,-0.041 0.036,-0.08 l 0.046,-0.082 q 0.048,-0.085 0.034,-0.13 -0.013,-0.045 -0.094,-0.092 l -0.19,-0.11 -0.2,0.345 -0.179,-0.104 0.509,-0.879 z"
         id="path127" />
      <path
         d="m 186.501,125.666 0.211,0.148 0.126,-0.4 z m 0.374,-0.51 0.196,0.138 -0.289,1.038 -0.188,-0.132 0.066,-0.209 -0.306,-0.215 -0.177,0.131 -0.182,-0.127 z m 0.097,0.068 z m 0.562,0.411 0.17,0.143 -0.147,0.803 0.457,-0.542 0.151,0.127 -0.654,0.777 -0.162,-0.137 0.147,-0.819 -0.465,0.552 -0.151,-0.127 z m 0.323,0.269 z m 0.267,1.101 0.181,0.183 0.195,-0.371 z m 0.458,-0.435 0.169,0.17 -0.468,0.97 -0.162,-0.163 0.102,-0.193 -0.263,-0.266 -0.198,0.097 -0.156,-0.158 z m 0.083,0.084 z"
         id="path129" />
    </g>
  </g>
  <g
     id="g1999">
    <path
       d="m 30.783,24.864 v 10e-4 a 0.3,0.3 0 0 0 -0.199,0.075 c -0.144,0.028 -0.28,0.084 -0.394,0.163 a 0.89,0.89 0 0 0 -0.681,-0.238 v 0.001 l -0.526,0.063 a 0.3,0.3 0 0 0 -0.021,0.002 c -0.241,0.036 -0.442,0.166 -0.577,0.343 a 0.89,0.89 0 0 0 -0.667,-0.065 l -0.517,0.172 c -0.226,0.083 -0.397,0.25 -0.493,0.45 a 0.89,0.89 0 0 0 -0.666,0.064 l -0.474,0.268 c -0.206,0.124 -0.342,0.32 -0.399,0.534 a 0.89,0.89 0 0 0 -0.64,0.187 l -0.418,0.349 a 0.3,0.3 0 0 0 -0.101,0.211 1.07,1.07 0 0 0 -0.153,0.384 c -0.249,0.011 -0.477,0.112 -0.642,0.3 l -0.349,0.418 a 0.89,0.89 0 0 0 -0.186,0.642 c -0.214,0.057 -0.41,0.193 -0.533,0.399 l -0.268,0.475 a 0.89,0.89 0 0 0 -0.065,0.663 c -0.2,0.096 -0.368,0.267 -0.451,0.493 l -0.172,0.518 c -0.069,0.232 -0.037,0.47 0.067,0.668 -0.177,0.134 -0.308,0.335 -0.344,0.577 l -0.063,0.549 a 0.89,0.89 0 0 0 0.208,0.647 0.89,0.89 0 0 0 -0.208,0.648 l 0.061,0.526 a 0.3,0.3 0 0 0 0,0.016 c 0.037,0.249 0.168,0.45 0.345,0.585 -0.104,0.197 -0.135,0.436 -0.066,0.667 l 0.172,0.518 c 0.083,0.226 0.25,0.397 0.451,0.493 -0.062,0.212 -0.047,0.45 0.065,0.663 l 0.268,0.474 c 0.124,0.206 0.32,0.342 0.533,0.399 a 0.89,0.89 0 0 0 0.186,0.642 l 0.349,0.418 a 0.3,0.3 0 0 0 0.211,0.101 c 0.12,0.077 0.251,0.13 0.384,0.153 a 0.89,0.89 0 0 0 0.3,0.642 l 0.389,0.32 0.031,0.027 a 0.89,0.89 0 0 0 0.64,0.187 c 0.057,0.214 0.193,0.41 0.399,0.534 l 0.474,0.268 a 0.89,0.89 0 0 0 0.666,0.065 c 0.096,0.199 0.267,0.366 0.493,0.449 l 0.517,0.174 c 0.232,0.069 0.47,0.037 0.667,-0.066 0.134,0.177 0.336,0.308 0.577,0.344 l 0.547,0.063 a 0.3,0.3 0 0 0 0.223,-0.072 c 0.145,-0.029 0.281,-0.085 0.395,-0.164 a 0.89,0.89 0 0 0 0.679,0.236 l 0.549,-0.062 a 0.3,0.3 0 0 0 0.197,-0.121 c 0.132,-0.059 0.249,-0.143 0.341,-0.243 0.204,0.12 0.457,0.16 0.704,0.086 l 0.52,-0.174 c 0.226,-0.083 0.396,-0.249 0.492,-0.449 a 0.89,0.89 0 0 0 0.664,-0.065 l 0.475,-0.268 c 0.206,-0.124 0.342,-0.32 0.399,-0.535 A 0.89,0.89 0 0 0 35.79,41.47 l 0.418,-0.347 a 0.3,0.3 0 0 0 0.1,-0.207 c 0.078,-0.121 0.132,-0.254 0.156,-0.389 a 0.89,0.89 0 0 0 0.639,-0.301 l 0.322,-0.387 a 0.3,0.3 0 0 0 0.027,-0.031 0.89,0.89 0 0 0 0.186,-0.642 c 0.215,-0.057 0.411,-0.193 0.535,-0.399 l 0.268,-0.474 c 0.112,-0.213 0.127,-0.451 0.065,-0.664 0.199,-0.096 0.366,-0.266 0.449,-0.492 l 0.172,-0.518 c 0.069,-0.231 0.037,-0.47 -0.066,-0.667 0.177,-0.134 0.307,-0.336 0.343,-0.578 l 0.065,-0.549 a 0.3,0.3 0 0 0 -0.072,-0.221 1.05,1.05 0 0 0 -0.164,-0.396 c 0.163,-0.175 0.258,-0.418 0.237,-0.678 l -0.062,-0.528 a 0.3,0.3 0 0 0 -0.002,-0.021 c -0.036,-0.242 -0.166,-0.443 -0.343,-0.577 0.103,-0.197 0.135,-0.435 0.066,-0.667 l -0.172,-0.518 c -0.082,-0.225 -0.249,-0.395 -0.449,-0.491 a 0.89,0.89 0 0 0 -0.065,-0.665 l -0.268,-0.475 c -0.124,-0.207 -0.321,-0.343 -0.535,-0.4 0.022,-0.221 -0.036,-0.452 -0.185,-0.641 l -0.35,-0.418 A 0.3,0.3 0 0 0 36.894,28.028 C 36.769,27.948 36.648,27.851 36.507,27.834 36.49,27.612 36.391,27.395 36.21,27.235 L 35.794,26.887 A 0.3,0.3 0 0 0 35.792,26.885 C 35.603,26.736 35.37,26.676 35.15,26.698 35.093,26.484 34.957,26.288 34.752,26.164 l -0.475,-0.268 a 0.89,0.89 0 0 0 -0.664,-0.064 c -0.096,-0.2 -0.267,-0.367 -0.492,-0.45 L 32.601,25.21 C 32.37,25.141 32.132,25.172 31.935,25.275 31.801,25.099 31.601,24.969 31.359,24.933 L 30.81,24.868 a 0.3,0.3 0 0 0 -0.024,-10e-4 z"
       class="I M R"
       id="path133" />
    <path
       d="m 29.668,27.389 c -0.231,0.49 -0.514,0.947 -0.835,1.373 h 0.747 v 0.608 h -1.245 c -2.058,2.309 -5.091,3.572 -5.869,4.082 l -0.053,0.508 h 6.834 v -3.925 h 0.912 0.912 v 3.925 h 6.834 l -0.053,-0.508 c -0.778,-0.51 -3.811,-1.773 -5.869,-4.082 h -1.245 v -0.608 h 0.747 a 7.86,7.86 0 0 1 -0.834,-1.373 h -0.492 z"
       id="path135" />
    <path
       d="m 30.159,35.713 a 10.35,10.35 0 0 1 2.549,0.301 c 0.686,0.156 1.355,0.325 2.326,0.342 h 0.004 0.004 c 1.001,0 1.529,-0.223 2.137,-0.396 l 0.437,-0.109 a 0.83,0.83 0 0 0 -0.141,0.269 l -0.139,0.418 c -0.068,0.186 -0.065,0.382 -0.008,0.562 -0.173,0.077 -0.322,0.206 -0.415,0.381 l -0.221,0.389 c -0.104,0.171 -0.138,0.368 -0.115,0.557 a 0.87,0.87 0 0 0 -0.483,0.302 l -0.291,0.346 a 0.87,0.87 0 0 0 -0.213,0.531 0.87,0.87 0 0 0 -0.53,0.213 l -0.347,0.289 c -0.157,0.125 -0.258,0.297 -0.302,0.483 -0.189,-0.023 -0.385,0.011 -0.556,0.114 l -0.391,0.223 c -0.175,0.093 -0.304,0.242 -0.381,0.414 -0.179,-0.056 -0.375,-0.06 -0.56,0.008 l -0.42,0.141 c -0.187,0.056 -0.341,0.175 -0.451,0.326 C 31.489,41.726 31.3,41.683 31.107,41.71 l -0.436,0.047 c -0.197,0.014 -0.374,0.098 -0.514,0.224 -0.14,-0.125 -0.316,-0.208 -0.512,-0.223 L 29.21,41.709 c -0.194,-0.028 -0.384,0.016 -0.548,0.107 -0.109,-0.151 -0.263,-0.27 -0.451,-0.327 L 27.793,41.348 C 27.607,41.28 27.411,41.284 27.231,41.341 27.154,41.169 27.025,41.02 26.85,40.927 L 26.461,40.704 C 26.29,40.6 26.093,40.567 25.904,40.59 a 0.87,0.87 0 0 0 -0.302,-0.483 l -0.346,-0.289 c -0.151,-0.134 -0.34,-0.202 -0.531,-0.213 A 0.87,0.87 0 0 0 24.512,39.074 L 24.221,38.728 A 0.87,0.87 0 0 0 23.738,38.426 0.87,0.87 0 0 0 23.623,37.869 L 23.402,37.48 c -0.093,-0.175 -0.242,-0.304 -0.414,-0.381 0.057,-0.18 0.061,-0.376 -0.008,-0.562 l -0.141,-0.418 c -0.03,-0.1 -0.079,-0.19 -0.14,-0.27 l 0.437,0.11 c 0.608,0.174 1.136,0.396 2.137,0.396 h 0.004 0.004 c 0.971,-0.016 1.64,-0.186 2.326,-0.342 0.686,-0.156 1.396,-0.301 2.549,-0.301 z"
       fill="#015789"
       id="path137" />
    <path
       d="m 35.041,40.274 c -1.859,-0.031 -2.512,-0.644 -4.882,-0.644 -2.37,0 -3.023,0.614 -4.882,0.644 m 11.761,-2.499 c -0.616,0.179 -1.068,0.372 -1.997,0.372 -1.859,-0.031 -2.512,-0.644 -4.882,-0.644 -2.37,0 -3.023,0.614 -4.882,0.644 -0.929,0 -1.382,-0.194 -1.997,-0.372 m -1.067,-2.167 0.489,0.242 0.437,0.11 c 0.608,0.174 1.136,0.396 2.137,0.396 h 0.004 0.004 c 0.971,-0.016 1.64,-0.186 2.326,-0.342 0.686,-0.156 1.396,-0.301 2.549,-0.301 v 0 a 10.35,10.35 0 0 1 2.549,0.301 c 0.686,0.156 1.355,0.325 2.326,0.342 h 0.004 0.004 c 1.001,0 1.529,-0.223 2.137,-0.396 l 0.437,-0.109 0.549,-0.236"
       stroke="#013e62"
       stroke-width="0.765"
       class="J"
       id="path139" />
    <path
       d="m 30.784,24.865 -0.023,0.001 a 0.3,0.3 0 0 0 -0.176,0.074 c -0.144,0.029 -0.28,0.084 -0.394,0.163 A 0.89,0.89 0 0 0 29.51,24.865 v 0.001 l -0.526,0.063 c -0.016,0.001 -0.019,0.001 -0.022,0.002 -0.241,0.036 -0.442,0.166 -0.577,0.343 a 0.89,0.89 0 0 0 -0.667,-0.065 l -0.517,0.172 c -0.226,0.083 -0.397,0.25 -0.493,0.45 a 0.89,0.89 0 0 0 -0.666,0.064 l -0.474,0.268 c -0.206,0.124 -0.342,0.32 -0.399,0.534 a 0.89,0.89 0 0 0 -0.64,0.187 l -0.418,0.349 c -0.062,0.054 -0.098,0.13 -0.101,0.211 a 1.07,1.07 0 0 0 -0.153,0.384 c -0.249,0.011 -0.477,0.112 -0.642,0.3 l -0.349,0.418 a 0.89,0.89 0 0 0 -0.186,0.642 c -0.214,0.057 -0.41,0.193 -0.533,0.399 l -0.268,0.475 a 0.89,0.89 0 0 0 -0.065,0.663 c -0.2,0.096 -0.368,0.267 -0.451,0.493 l -0.172,0.518 c -0.069,0.232 -0.037,0.47 0.067,0.668 -0.177,0.134 -0.308,0.335 -0.344,0.577 l -0.063,0.549 a 0.89,0.89 0 0 0 0.208,0.647 0.89,0.89 0 0 0 -0.208,0.648 l 0.061,0.526 c 0,0.018 0.002,0.021 0.002,0.024 0.036,0.241 0.167,0.442 0.344,0.577 -0.104,0.197 -0.135,0.436 -0.066,0.667 l 0.172,0.518 c 0.083,0.226 0.25,0.397 0.451,0.493 -0.062,0.212 -0.047,0.45 0.065,0.663 l 0.268,0.474 c 0.124,0.206 0.32,0.342 0.533,0.399 a 0.89,0.89 0 0 0 0.186,0.642 l 0.349,0.418 a 0.3,0.3 0 0 0 0.211,0.101 c 0.12,0.077 0.251,0.13 0.384,0.153 a 0.89,0.89 0 0 0 0.3,0.642 l 0.389,0.32 0.031,0.027 a 0.89,0.89 0 0 0 0.64,0.187 c 0.057,0.214 0.193,0.41 0.399,0.534 l 0.474,0.268 a 0.89,0.89 0 0 0 0.666,0.065 c 0.096,0.199 0.267,0.366 0.493,0.449 l 0.517,0.174 c 0.232,0.069 0.47,0.038 0.667,-0.066 0.134,0.177 0.336,0.308 0.577,0.344 l 0.547,0.063 a 0.3,0.3 0 0 0 0.223,-0.072 c 0.145,-0.028 0.281,-0.084 0.395,-0.164 a 0.89,0.89 0 0 0 0.679,0.236 l 0.549,-0.063 a 0.3,0.3 0 0 0 0.197,-0.121 c 0.132,-0.059 0.249,-0.143 0.341,-0.243 0.204,0.12 0.457,0.16 0.704,0.086 l 0.52,-0.174 c 0.226,-0.083 0.396,-0.249 0.492,-0.449 a 0.89,0.89 0 0 0 0.664,-0.065 L 34.75,42.19 c 0.206,-0.124 0.342,-0.32 0.399,-0.535 a 0.89,0.89 0 0 0 0.642,-0.186 l 0.418,-0.347 a 0.3,0.3 0 0 0 0.1,-0.207 c 0.078,-0.121 0.132,-0.254 0.156,-0.389 a 0.89,0.89 0 0 0 0.639,-0.301 l 0.322,-0.387 a 0.3,0.3 0 0 0 0.027,-0.031 0.89,0.89 0 0 0 0.186,-0.642 c 0.215,-0.057 0.411,-0.193 0.535,-0.399 l 0.268,-0.474 c 0.112,-0.213 0.127,-0.451 0.065,-0.664 0.199,-0.096 0.366,-0.266 0.449,-0.492 l 0.172,-0.518 c 0.069,-0.231 0.037,-0.47 -0.066,-0.667 0.177,-0.134 0.307,-0.336 0.343,-0.578 l 0.065,-0.549 a 0.3,0.3 0 0 0 -0.072,-0.221 1.05,1.05 0 0 0 -0.164,-0.396 c 0.163,-0.175 0.258,-0.418 0.237,-0.678 l -0.063,-0.528 c -0.001,-0.016 -0.001,-0.019 -0.002,-0.022 -0.036,-0.242 -0.166,-0.443 -0.343,-0.577 0.103,-0.197 0.135,-0.435 0.066,-0.667 l -0.172,-0.518 c -0.082,-0.225 -0.249,-0.395 -0.449,-0.491 a 0.89,0.89 0 0 0 -0.065,-0.665 l -0.268,-0.475 c -0.124,-0.206 -0.321,-0.343 -0.535,-0.4 0.022,-0.221 -0.036,-0.452 -0.185,-0.641 l -0.35,-0.418 A 0.3,0.3 0 0 0 36.894,28.026 C 36.769,27.946 36.648,27.849 36.507,27.832 36.49,27.61 36.391,27.393 36.21,27.233 L 35.794,26.885 C 35.603,26.734 35.37,26.674 35.15,26.696 35.093,26.482 34.957,26.286 34.752,26.162 L 34.277,25.894 A 0.89,0.89 0 0 0 33.613,25.83 c -0.096,-0.2 -0.267,-0.367 -0.492,-0.45 l -0.52,-0.172 C 32.37,25.139 32.132,25.17 31.935,25.273 31.801,25.097 31.601,24.967 31.359,24.931 L 30.81,24.866 30.786,24.865 Z m -1.223,0.599 c 0.182,-0.015 0.297,0.103 0.299,0.238 v 0.006 0.002 c -0.002,0.161 -0.119,0.272 -0.257,0.282 l -0.477,0.053 c -0.139,0.02 -0.276,-0.068 -0.311,-0.223 -0.03,-0.136 0.042,-0.27 0.237,-0.299 l 0.51,-0.058 z m 1.195,0 0.512,0.058 c 0.193,0.031 0.261,0.164 0.233,0.299 -0.035,0.153 -0.17,0.242 -0.309,0.223 l -0.476,-0.053 c -0.139,-0.01 -0.256,-0.122 -0.256,-0.285 0,-0.137 0.113,-0.258 0.297,-0.242 z m -2.744,0.304 c 0.112,0.01 0.194,0.085 0.216,0.182 0.034,0.157 -0.053,0.291 -0.187,0.331 l -0.453,0.152 c -0.132,0.049 -0.286,-0.009 -0.35,-0.152 -0.055,-0.124 -0.001,-0.278 0.168,-0.34 l 0.485,-0.16 c 0.043,-0.013 0.084,-0.017 0.121,-0.014 z m 4.292,0 a 0.33,0.33 0 0 1 0.122,0.014 l 0.484,0.16 c 0.169,0.062 0.223,0.216 0.168,0.34 -0.064,0.144 -0.216,0.201 -0.348,0.152 l -0.455,-0.152 c -0.135,-0.04 -0.222,-0.175 -0.188,-0.33 0.022,-0.098 0.103,-0.174 0.216,-0.184 z m -2.145,0.599 c 0.14,0.125 0.317,0.209 0.513,0.223 l 0.436,0.047 c 0.194,0.028 0.383,-0.016 0.546,-0.107 0.109,0.151 0.263,0.27 0.45,0.326 l 0.42,0.141 c 0.185,0.068 0.381,0.065 0.56,0.009 0.077,0.172 0.206,0.322 0.381,0.415 l 0.391,0.221 a 0.87,0.87 0 0 0 0.556,0.115 c 0.044,0.186 0.145,0.358 0.302,0.482 l 0.347,0.291 c 0.151,0.133 0.339,0.202 0.53,0.212 a 0.87,0.87 0 0 0 0.213,0.53 l 0.291,0.346 a 0.87,0.87 0 0 0 0.483,0.302 c -0.023,0.189 0.011,0.386 0.115,0.557 l 0.221,0.389 a 0.87,0.87 0 0 0 0.415,0.382 c -0.056,0.179 -0.059,0.375 0.009,0.561 l 0.139,0.42 a 0.86,0.86 0 0 0 0.328,0.451 c -0.091,0.163 -0.134,0.352 -0.107,0.546 l 0.047,0.435 c 0.014,0.196 0.098,0.373 0.223,0.513 -0.125,0.14 -0.208,0.317 -0.223,0.513 l -0.047,0.435 c -0.028,0.194 0.016,0.384 0.107,0.547 -0.152,0.109 -0.271,0.264 -0.328,0.452 l -0.139,0.418 c -0.068,0.186 -0.065,0.382 -0.008,0.562 -0.173,0.077 -0.322,0.206 -0.415,0.381 l -0.221,0.389 c -0.104,0.171 -0.138,0.368 -0.115,0.557 a 0.87,0.87 0 0 0 -0.483,0.302 l -0.291,0.346 a 0.87,0.87 0 0 0 -0.213,0.531 0.87,0.87 0 0 0 -0.53,0.213 l -0.347,0.289 c -0.157,0.125 -0.258,0.297 -0.302,0.483 -0.189,-0.023 -0.385,0.011 -0.556,0.114 l -0.391,0.223 c -0.175,0.093 -0.304,0.242 -0.381,0.414 -0.179,-0.056 -0.375,-0.06 -0.56,0.008 l -0.42,0.141 c -0.187,0.056 -0.341,0.175 -0.451,0.326 -0.163,-0.091 -0.352,-0.134 -0.545,-0.107 l -0.436,0.047 c -0.197,0.014 -0.374,0.098 -0.514,0.224 -0.14,-0.125 -0.316,-0.208 -0.512,-0.223 L 29.212,41.71 c -0.194,-0.028 -0.384,0.016 -0.548,0.107 -0.109,-0.151 -0.263,-0.27 -0.451,-0.327 L 27.795,41.349 C 27.609,41.281 27.413,41.285 27.233,41.342 27.156,41.17 27.027,41.021 26.852,40.928 l -0.389,-0.223 c -0.171,-0.104 -0.368,-0.137 -0.557,-0.114 a 0.87,0.87 0 0 0 -0.302,-0.483 l -0.346,-0.289 c -0.151,-0.134 -0.34,-0.202 -0.531,-0.213 A 0.87,0.87 0 0 0 24.514,39.075 L 24.223,38.729 A 0.87,0.87 0 0 0 23.74,38.427 0.87,0.87 0 0 0 23.625,37.87 L 23.404,37.481 C 23.311,37.306 23.162,37.177 22.99,37.1 23.047,36.92 23.051,36.724 22.982,36.538 L 22.841,36.12 c -0.056,-0.188 -0.176,-0.342 -0.327,-0.452 a 0.87,0.87 0 0 0 0.106,-0.546 l -0.047,-0.436 c -0.014,-0.196 -0.098,-0.373 -0.223,-0.513 0.125,-0.14 0.209,-0.317 0.223,-0.513 l 0.047,-0.435 c 0.028,-0.194 -0.016,-0.384 -0.106,-0.546 a 0.86,0.86 0 0 0 0.327,-0.45 l 0.141,-0.42 c 0.068,-0.185 0.065,-0.381 0.008,-0.561 a 0.87,0.87 0 0 0 0.414,-0.382 l 0.221,-0.389 a 0.87,0.87 0 0 0 0.115,-0.557 0.87,0.87 0 0 0 0.483,-0.302 l 0.291,-0.346 a 0.87,0.87 0 0 0 0.213,-0.53 0.87,0.87 0 0 0 0.531,-0.212 l 0.346,-0.291 a 0.87,0.87 0 0 0 0.302,-0.482 0.87,0.87 0 0 0 0.557,-0.115 l 0.389,-0.221 c 0.175,-0.093 0.304,-0.243 0.381,-0.415 0.18,0.057 0.376,0.06 0.562,-0.008 l 0.418,-0.141 c 0.187,-0.056 0.341,-0.175 0.451,-0.326 0.163,0.092 0.353,0.135 0.547,0.107 l 0.436,-0.047 c 0.196,-0.014 0.373,-0.098 0.513,-0.224 z m -3.718,0.021 a 0.24,0.24 0 0 1 0.25,0.141 c 0.064,0.144 0.006,0.294 -0.121,0.361 l -0.42,0.238 c -0.122,0.074 -0.283,0.046 -0.373,-0.084 -0.079,-0.113 -0.053,-0.276 0.102,-0.369 l 0.445,-0.25 a 0.32,0.32 0 0 1 0.117,-0.037 z m 7.436,0 c 0.038,0.004 0.077,0.016 0.117,0.037 l 0.445,0.25 c 0.155,0.093 0.18,0.256 0.102,0.369 -0.09,0.13 -0.253,0.158 -0.375,0.084 L 33.748,26.89 c -0.126,-0.067 -0.185,-0.217 -0.121,-0.361 a 0.24,0.24 0 0 1 0.25,-0.141 z m -8.761,0.898 a 0.24,0.24 0 0 1 0.167,0.102 c 0.09,0.13 0.061,0.291 -0.053,0.381 l -0.371,0.311 c -0.109,0.096 -0.274,0.098 -0.387,-0.014 -0.098,-0.098 -0.101,-0.265 0.035,-0.385 L 24.9,27.353 v 0 c 0.071,-0.056 0.147,-0.075 0.215,-0.067 z m 10.085,0 c 0.068,-0.009 0.144,0.011 0.215,0.067 l 0.395,0.328 c 0.136,0.12 0.131,0.287 0.033,0.385 -0.112,0.112 -0.278,0.11 -0.387,0.014 l -0.372,-0.311 c -0.114,-0.09 -0.143,-0.251 -0.053,-0.381 A 0.24,0.24 0 0 1 35.2,27.286 Z m -11.335,1.132 a 0.24,0.24 0 0 1 0.183,0.071 c 0.112,0.112 0.112,0.278 0.016,0.387 l -0.311,0.371 c -0.09,0.114 -0.253,0.143 -0.383,0.053 -0.113,-0.079 -0.147,-0.241 -0.035,-0.383 l 0.33,-0.395 c 0.06,-0.068 0.131,-0.101 0.199,-0.104 z m 12.586,0.001 c 0.069,0.004 0.141,0.036 0.201,0.104 l 0.328,0.395 c 0.112,0.142 0.078,0.304 -0.036,0.383 -0.13,0.09 -0.291,0.061 -0.381,-0.053 l -0.312,-0.371 a 0.28,0.28 0 0 1 0.016,-0.387 c 0.049,-0.049 0.116,-0.074 0.184,-0.071 z m -13.515,1.335 a 0.24,0.24 0 0 1 0.092,0.039 c 0.13,0.09 0.158,0.253 0.084,0.375 l -0.238,0.418 c -0.067,0.126 -0.219,0.185 -0.363,0.121 -0.124,-0.055 -0.186,-0.208 -0.102,-0.367 l 0.25,-0.445 c 0.07,-0.116 0.179,-0.159 0.277,-0.141 z m 14.443,0 c 0.098,-0.019 0.207,0.025 0.276,0.141 l 0.252,0.445 c 0.084,0.16 0.021,0.312 -0.103,0.367 -0.144,0.064 -0.296,0.006 -0.363,-0.121 l -0.237,-0.418 c -0.074,-0.122 -0.048,-0.285 0.082,-0.375 0.028,-0.02 0.06,-0.033 0.093,-0.039 z m -15.209,1.481 c 0.033,0 0.066,0.007 0.097,0.021 0.144,0.064 0.199,0.216 0.15,0.348 l -0.15,0.453 c -0.04,0.135 -0.175,0.223 -0.33,0.189 -0.131,-0.029 -0.222,-0.165 -0.17,-0.338 h -0.002 l 0.162,-0.484 c 0.047,-0.127 0.144,-0.189 0.243,-0.189 z m 15.976,0.001 c 0.098,0 0.195,0.062 0.242,0.189 l 0.162,0.484 c 0.052,0.173 -0.038,0.309 -0.17,0.338 -0.155,0.034 -0.29,-0.055 -0.33,-0.189 l -0.152,-0.453 c -0.049,-0.132 0.009,-0.284 0.152,-0.348 0.031,-0.014 0.063,-0.021 0.096,-0.021 z m -16.44,1.592 c 0.032,-0.006 0.066,-0.004 0.1,0.003 a 0.28,0.28 0 0 1 0.221,0.313 l -0.051,0.476 c -0.01,0.139 -0.124,0.256 -0.287,0.256 -0.137,0 -0.256,-0.116 -0.24,-0.299 l 0.058,-0.51 c 0.022,-0.146 0.103,-0.223 0.199,-0.24 z m 16.903,0 c 0.096,0.017 0.177,0.094 0.199,0.24 l 0.06,0.51 c 0.015,0.183 -0.105,0.299 -0.242,0.299 -0.163,0 -0.275,-0.117 -0.285,-0.256 l -0.053,-0.476 a 0.28,0.28 0 0 1 0.221,-0.313 c 0.034,-0.008 0.068,-0.009 0.1,-0.003 z m -16.922,1.648 c 0.165,10e-4 0.279,0.117 0.289,0.256 l 0.051,0.476 a 0.28,0.28 0 0 1 -0.221,0.313 c -0.136,0.03 -0.27,-0.042 -0.299,-0.237 l -0.059,-0.51 c -0.015,-0.182 0.103,-0.298 0.238,-0.299 z m 16.94,0 c 0.137,0 0.257,0.116 0.242,0.299 l -0.06,0.51 c -0.029,0.195 -0.163,0.267 -0.299,0.237 A 0.28,0.28 0 0 1 38.29,35.209 l 0.051,-0.476 c 0.01,-0.139 0.125,-0.256 0.287,-0.256 z m -16.579,1.627 a 0.27,0.27 0 0 1 0.219,0.191 l 0.15,0.453 c 0.049,0.132 -0.007,0.286 -0.15,0.35 -0.124,0.055 -0.278,10e-4 -0.34,-0.168 l -0.16,-0.485 c -0.052,-0.173 0.039,-0.308 0.17,-0.337 0.039,-0.009 0.076,-0.01 0.111,-0.004 z m 16.222,0 a 0.3,0.3 0 0 1 0.111,0.004 c 0.132,0.029 0.222,0.164 0.17,0.337 l -0.162,0.485 c -0.062,0.169 -0.214,0.223 -0.338,0.168 -0.144,-0.064 -0.201,-0.218 -0.152,-0.35 l 0.152,-0.453 a 0.27,0.27 0 0 1 0.219,-0.191 z m -15.65,1.515 c 0.107,-0.005 0.205,0.051 0.255,0.147 l 0.238,0.418 c 0.074,0.123 0.046,0.285 -0.084,0.375 -0.113,0.079 -0.276,0.053 -0.369,-0.102 l -0.25,-0.445 c -0.084,-0.16 -0.022,-0.312 0.102,-0.367 0.036,-0.016 0.072,-0.024 0.108,-0.026 z m 15.077,0 c 0.036,0.002 0.072,0.01 0.108,0.026 0.124,0.055 0.188,0.208 0.103,0.367 l -0.252,0.445 c -0.093,0.155 -0.256,0.18 -0.369,0.102 -0.13,-0.09 -0.156,-0.253 -0.082,-0.375 l 0.237,-0.418 c 0.05,-0.095 0.149,-0.151 0.255,-0.147 z m -14.12,1.383 c 0.068,0.011 0.132,0.047 0.177,0.104 l 0.311,0.371 c 0.096,0.109 0.096,0.273 -0.016,0.385 -0.098,0.098 -0.263,0.103 -0.382,-0.033 l -0.33,-0.393 c -0.112,-0.142 -0.078,-0.306 0.035,-0.385 0.065,-0.045 0.138,-0.06 0.206,-0.049 z m 13.163,0 a 0.28,0.28 0 0 1 0.206,0.049 c 0.113,0.079 0.147,0.243 0.035,0.385 l -0.328,0.393 c -0.12,0.136 -0.287,0.131 -0.385,0.033 -0.112,-0.112 -0.112,-0.276 -0.016,-0.385 l 0.313,-0.371 a 0.28,0.28 0 0 1 0.175,-0.104 z M 24.668,40.2 a 0.28,0.28 0 0 1 0.192,0.071 l 0.371,0.31 c 0.114,0.09 0.143,0.253 0.053,0.383 -0.079,0.113 -0.241,0.145 -0.383,0.033 l -0.393,-0.328 c -0.136,-0.12 -0.133,-0.285 -0.035,-0.383 0.056,-0.056 0.125,-0.084 0.194,-0.086 z m 10.982,0 c 0.069,0.002 0.139,0.03 0.195,0.086 0.098,0.098 0.103,0.263 -0.033,0.382 l -0.395,0.328 c -0.142,0.112 -0.304,0.08 -0.383,-0.033 -0.09,-0.13 -0.061,-0.293 0.053,-0.383 l 0.371,-0.311 h 0.001 c 0.054,-0.048 0.123,-0.073 0.192,-0.071 z m -9.596,0.985 c 0.034,0.006 0.067,0.018 0.097,0.036 l 0.42,0.238 c 0.126,0.067 0.185,0.219 0.121,0.363 -0.055,0.124 -0.207,0.186 -0.367,0.102 l -0.445,-0.25 c -0.155,-0.093 -0.18,-0.256 -0.102,-0.369 0.068,-0.098 0.175,-0.138 0.276,-0.12 z m 8.21,0 c 0.102,-0.017 0.21,0.023 0.278,0.12 0.079,0.113 0.053,0.276 -0.102,0.369 l -0.445,0.25 c -0.16,0.084 -0.312,0.022 -0.367,-0.102 -0.064,-0.144 -0.006,-0.296 0.121,-0.363 l 0.418,-0.238 c 0.031,-0.019 0.064,-0.03 0.098,-0.036 z m -6.777,0.713 c 0.034,-0.001 0.068,0.005 0.101,0.017 l 0.453,0.152 c 0.135,0.04 0.222,0.175 0.188,0.33 -0.029,0.131 -0.165,0.222 -0.338,0.17 l -0.485,-0.16 c -0.169,-0.062 -0.223,-0.216 -0.168,-0.34 0.048,-0.108 0.147,-0.167 0.249,-0.169 z m 5.345,0 c 0.101,0.002 0.198,0.062 0.246,0.169 0.055,0.124 10e-4,0.278 -0.168,0.34 l -0.484,0.16 c -0.173,0.052 -0.309,-0.039 -0.338,-0.169 -0.034,-0.155 0.053,-0.29 0.188,-0.33 l 0.455,-0.152 c 0.033,-0.012 0.068,-0.018 0.101,-0.017 z m -1.64,0.409 v 0 c 0.139,-0.02 0.276,0.066 0.311,0.221 0.03,0.136 -0.039,0.27 -0.234,0.299 l -0.512,0.058 C 30.574,42.9 30.461,42.781 30.46,42.645 v -0.004 c 0.002,-0.161 0.118,-0.273 0.256,-0.283 z m -2.067,10e-4 0.477,0.051 c 0.138,0.01 0.256,0.123 0.257,0.284 v 0.003 0.002 c -0.002,0.136 -0.117,0.253 -0.299,0.238 l -0.51,-0.058 c -0.195,-0.029 -0.267,-0.163 -0.237,-0.299 0.034,-0.154 0.172,-0.24 0.311,-0.221 z"
       class="M R"
       id="path141" />
  </g>
  <g
     class="M"
     id="g265"
     transform="translate(-74.841,-101.566)">
    <path
       id="use143"
       d="m 98.4,158.939 -2.601,2.133 c 1.826,1.007 2.709,-0.248 3.851,-0.883 z"
       style="opacity:0.998;fill:#ffeba3" />
    <path
       id="use145"
       d="m 93.73,162.137 -1.25,-2.022 4.394,-2.5 1.526,1.324 c -1.256,0.894 -3.101,2.931 -4.669,3.199 z"
       style="opacity:0.998;fill:#f5c742" />
    <g
       class="C"
       id="g165">
      <path
         id="use147"
         d="m 92.223,162.453 c -1.266,-0.899 -2.791,-1.511 -4.855,-1.53 2.964,-0.297 5.927,-2.186 8.891,-3.562 l 0.297,0.434 c -2.477,1.865 -3.964,3.43 -4.333,4.657 z"
         style="opacity:0.998" />
      <path
         id="use149"
         d="m 82.662,157.206 c 2.292,1.046 3.15,2.041 3.77,2.626 1.42,0.01 6.245,-1.984 9.239,-3.075 -4.173,0.727 -8.57,0.866 -13.008,0.449 z"
         style="opacity:0.998" />
      <path
         id="use151"
         d="m 82.246,156.088 -1.716,-3.146 c 3.593,2.601 9.003,2.658 14.273,2.912 -2.041,0.573 -5.895,0.879 -12.557,0.234 z"
         style="opacity:0.998" />
      <path
         id="use153"
         d="m 79.814,151.081 c 0.177,-2.232 -0.234,-2.985 -0.582,-4.101 3.299,3.631 8.758,6.525 14.027,6.779 l 0.499,0.929 c -3.567,0.561 -9.212,-0.947 -13.944,-3.606 z"
         style="opacity:0.998" />
      <path
         id="use155"
         d="m 79.776,139.996 c 0.23,1.833 0.845,3.575 -0.026,5.667 1.404,1.51 5.812,7.195 12.323,7.487 l -0.312,-0.91 c -3.283,-1.642 -9.999,-6.847 -11.985,-12.245 z"
         style="opacity:0.998" />
      <path
         id="use157"
         d="m 81.232,134.302 c 0.279,1.869 -0.076,3.633 -0.676,5.355 3.273,4.194 6.559,8.527 11.042,11.523 l -0.496,-2.206 c -7.344,-6.339 -7.71,-11.175 -9.87,-14.673 z"
         style="opacity:0.998" />
      <path
         id="use159"
         d="m 82.37,132.43 c 2.308,4.925 3.643,9.639 8.456,15.111 l -0.221,-1.507 c -5.121,-6.98 -6.045,-14.182 -5.993,-18.162 -0.53,1.696 -0.958,3.475 -2.243,4.559 z"
         style="opacity:0.998" />
      <path
         id="use161"
         d="m 90.605,145.078 c -6.521,-12.349 -4.084,-14.501 -4.228,-19.155 2.736,-1.937 2.658,-3.583 3.566,-5.331 -3.085,8.933 -1.641,16.516 0.662,24.486 z"
         style="opacity:0.998" />
      <path
         id="use163"
         d="m 101.094,111.477 c -2.86,3.509 -5.662,7.163 -9.463,8.319 -3.091,9.092 -2.502,14.861 -1.456,21.63 -1.143,-10.099 5.513,-24.045 10.919,-29.949 z"
         style="opacity:0.998" />
    </g>
    <g
       class="D"
       id="g187">
      <path
         id="use167"
         d="m 87.939,159.494 -0.572,1.43 c 2.964,-0.297 5.927,-2.186 8.891,-3.562 l -0.588,-0.605 z"
         style="opacity:0.998" />
      <path
         id="use169"
         d="m 82.662,157.206 c 0.91,-0.235 1.116,-0.454 1.638,-0.962 3.564,0.283 7.034,-0.05 10.503,-0.39 l 0.867,0.903 c -4.173,0.727 -8.57,0.866 -13.008,0.449 z"
         style="opacity:0.998" />
      <path
         id="use171"
         d="m 82.038,152.11 -1.508,0.832 c 3.593,2.601 9.003,2.658 14.273,2.912 l -1.045,-1.167 c -4.712,0.271 -9.882,-1.506 -11.719,-2.577 z"
         style="opacity:0.998" />
      <path
         id="use173"
         d="m 80.459,146.475 c -0.506,0.423 -0.613,0.632 -1.228,0.505 3.299,3.631 8.927,6.629 14.027,6.779 l -1.409,-0.642 c -3.26,-0.206 -9.375,-4.337 -11.391,-6.641 z"
         style="opacity:0.998" />
      <path
         id="use175"
         d="m 80.114,140.776 1.43,0.026 c 2.967,3.54 5.571,7.162 9.983,10.373 l 0.312,1.066 c -1.044,-0.172 -9.458,-5.126 -11.725,-11.465 z"
         style="opacity:0.998" />
      <path
         id="use177"
         d="m 81.232,134.302 c 0.479,0.29 1.081,0.698 2.247,0.429 1.469,3.91 4.818,10.276 7.261,12.602 l 0.362,1.642 c -7.344,-6.339 -7.71,-11.175 -9.87,-14.673 z"
         style="opacity:0.998" />
      <path
         id="use179"
         d="m 84.76,128.055 1.507,0.846 c -0.497,5.564 1.77,10.9 4.265,16.177 l 0.11,0.772 c -2.528,-1.955 -6.576,-10.772 -5.883,-17.795 z"
         style="opacity:0.998" />
      <path
         id="use181"
         d="m 89.733,121.473 c 0.206,0.466 0.414,0.932 1.196,1.365 -1.905,7.769 -1.088,14.91 -0.364,22.072 -2.268,-7.231 -3.805,-14.93 -0.832,-23.437 z"
         style="opacity:0.998" />
      <path
         id="use183"
         d="m 101.094,111.477 c -1.076,1.647 -1.804,4.395 -1.092,7.227 -7.562,8.283 -10.033,15.817 -9.827,22.722 -1.143,-10.099 5.513,-24.045 10.919,-29.949 z"
         style="opacity:0.998" />
      <path
         id="use185"
         d="m 101.065,162.928 h 2.482 c -0.612,2.392 0.3,5.771 -1.746,6.967 -1.035,0.605 -2.163,0.724 -3.107,-0.368 -0.727,-0.841 0.178,-2.385 0.938,-1.268 0.649,0.954 1.37,0.404 1.379,0.239 z"
         style="opacity:0.998;stroke:#a07843;stroke-width:0.265" />
    </g>
    <g
       class="C"
       id="g193">
      <path
         id="use189"
         d="m 101.9,163.549 c -0.351,0.358 -0.327,0.897 -0.271,1.358 0.042,0.344 0.071,0.695 0.01,1.038 0.001,0.955 0.024,1.976 -0.474,2.828 -0.221,0.142 -0.53,0.23 -0.696,0.469 -0.131,0.289 0.368,0.283 0.533,0.174 0.613,-0.272 0.946,-0.964 0.942,-1.612 0.254,-0.816 0.369,-1.68 0.287,-2.533 -0.14,-0.349 0.035,-0.72 0.109,-1.064 0.053,-0.227 0.152,-0.572 -0.117,-0.698 -0.122,-0.055 -0.223,-0.044 -0.322,0.041 z" />
      <path
         id="use191"
         d="m 99.04,168.443 c -0.3,0.498 0.003,1.163 0.485,1.419 0.128,0.073 0.615,0.237 0.481,-0.019 -0.211,-0.378 -0.687,-0.601 -0.729,-1.069 0.031,-0.127 -0.018,-0.275 -0.157,-0.304 l -0.079,-0.028 z" />
    </g>
    <g
       class="F L"
       id="g199">
      <path
         id="use195"
         d="m 101.094,111.476 -1.546,1.863 -0.18,0.243 c -2.304,2.768 -4.701,5.29 -7.738,6.213 l -0.861,2.944 c -0.647,-0.405 -0.846,-0.836 -1.037,-1.267 l 0.21,-0.881 c -0.908,1.748 -0.83,3.394 -3.566,5.331 l -0.111,2.978 -1.507,-0.845 -0.147,-0.184 c -0.53,1.696 -0.958,3.475 -2.243,4.559 l 0.98,2.301 c -1.166,0.269 -1.64,-0.139 -2.118,-0.429 0.279,1.869 -0.076,3.632 -0.676,5.355 l 0.988,1.144 -1.43,-0.026 -0.338,-0.78 c 0.23,1.833 0.845,3.575 -0.026,5.667 l 0.708,0.812 c -0.506,0.423 -0.613,0.632 -1.227,0.505 0.348,1.117 0.759,1.87 0.582,4.102 l 2.222,1.031 -1.505,0.83 1.716,3.146 2.054,0.156 c -0.522,0.508 -0.728,0.727 -1.638,0.962 2.292,1.046 3.151,2.041 3.77,2.626 1.883,-0.447 1.612,-0.598 0.936,1.092 2.065,0.019 3.589,0.631 4.855,1.53 0.131,-0.436 0.407,-0.916 0.815,-1.437 l 0.693,1.121 c 0.698,-0.119 1.449,-0.594 2.181,-1.158 l -0.112,0.092 c 1.826,1.007 2.709,-0.248 3.851,-0.883 -7.134,-7.884 -16.988,-21.651 0.352,-41.485 -0.712,-2.832 0.016,-5.581 1.091,-7.227 z"
         style="opacity:0.998;fill:none" />
      <path
         id="use197"
         d="m 90.422,137.872 c -0.519,4.511 2.241,12.527 9.853,15.589 -1.55,1.953 -0.899,4.666 2.071,8.828 -12.26,-4.676 -13.574,-14.068 -11.924,-24.417 z"
         style="opacity:0.998;fill:#f5c742" />
    </g>
    <path
       id="use201"
       d="m 92.45,148.368 c -0.331,0.954 -0.16,2.224 0.39,3.241 0.919,1.247 2.793,0.941 3.47,2.447 1.046,2.042 1.342,4.386 2.974,6.181 1.794,0.563 -0.603,-2.217 -0.462,-3.038 0.08,-1.63 -0.259,-3.673 -2.099,-4.571 -1.377,-0.878 -3.215,-1.602 -3.716,-3.348 -0.197,-0.225 -0.123,-1.378 -0.556,-0.913 z"
       style="fill:#ffeba3" />
    <g
       transform="matrix(-1,0,0,1,284.8049,0)"
       id="g263">
      <path
         id="use203"
         d="m 173.204,158.939 -2.601,2.133 c 1.826,1.007 2.709,-0.248 3.851,-0.883 z"
         style="opacity:0.998;fill:#ffeba3" />
      <path
         id="use205"
         d="m 168.534,162.137 -1.25,-2.022 4.394,-2.5 1.526,1.324 c -1.256,0.894 -3.101,2.931 -4.669,3.199 z"
         style="opacity:0.998;fill:#f5c742" />
      <g
         class="C"
         id="g225">
        <path
           id="use207"
           d="m 167.027,162.453 c -1.266,-0.899 -2.791,-1.511 -4.855,-1.53 2.964,-0.297 5.927,-2.186 8.891,-3.562 l 0.297,0.434 c -2.477,1.865 -3.964,3.43 -4.333,4.657 z"
           style="opacity:0.998" />
        <path
           id="use209"
           d="m 157.466,157.206 c 2.292,1.046 3.15,2.041 3.77,2.626 1.42,0.01 6.245,-1.984 9.239,-3.075 -4.173,0.727 -8.57,0.866 -13.008,0.449 z"
           style="opacity:0.998" />
        <path
           id="use211"
           d="m 157.05,156.088 -1.716,-3.146 c 3.593,2.601 9.003,2.658 14.273,2.912 -2.041,0.573 -5.895,0.879 -12.557,0.234 z"
           style="opacity:0.998" />
        <path
           id="use213"
           d="m 154.618,151.081 c 0.177,-2.232 -0.234,-2.985 -0.582,-4.101 3.299,3.631 8.758,6.525 14.027,6.779 l 0.499,0.929 c -3.567,0.561 -9.212,-0.947 -13.944,-3.606 z"
           style="opacity:0.998" />
        <path
           id="use215"
           d="m 154.58,139.996 c 0.23,1.833 0.845,3.575 -0.026,5.667 1.404,1.51 5.812,7.195 12.323,7.487 l -0.312,-0.91 c -3.283,-1.642 -9.999,-6.847 -11.985,-12.245 z"
           style="opacity:0.998" />
        <path
           id="use217"
           d="m 156.036,134.302 c 0.279,1.869 -0.076,3.633 -0.676,5.355 3.273,4.194 6.559,8.527 11.042,11.523 l -0.496,-2.206 c -7.344,-6.339 -7.71,-11.175 -9.87,-14.673 z"
           style="opacity:0.998" />
        <path
           id="use219"
           d="m 157.174,132.43 c 2.308,4.925 3.643,9.639 8.456,15.111 l -0.221,-1.507 c -5.121,-6.98 -6.045,-14.182 -5.993,-18.162 -0.53,1.696 -0.958,3.475 -2.243,4.559 z"
           style="opacity:0.998" />
        <path
           id="use221"
           d="m 165.409,145.078 c -6.521,-12.349 -4.084,-14.501 -4.228,-19.155 2.736,-1.937 2.658,-3.583 3.566,-5.331 -3.085,8.933 -1.641,16.516 0.662,24.486 z"
           style="opacity:0.998" />
        <path
           id="use223"
           d="m 175.898,111.477 c -2.86,3.509 -5.662,7.163 -9.463,8.319 -3.091,9.092 -2.502,14.861 -1.456,21.63 -1.143,-10.099 5.513,-24.045 10.919,-29.949 z"
           style="opacity:0.998" />
      </g>
      <g
         class="D"
         id="g247">
        <path
           id="use227"
           d="m 162.743,159.494 -0.572,1.43 c 2.964,-0.297 5.927,-2.186 8.891,-3.562 l -0.588,-0.605 z"
           style="opacity:0.998" />
        <path
           id="use229"
           d="m 157.466,157.206 c 0.91,-0.235 1.116,-0.454 1.638,-0.962 3.564,0.283 7.034,-0.05 10.503,-0.39 l 0.867,0.903 c -4.173,0.727 -8.57,0.866 -13.008,0.449 z"
           style="opacity:0.998" />
        <path
           id="use231"
           d="m 156.842,152.11 -1.508,0.832 c 3.593,2.601 9.003,2.658 14.273,2.912 l -1.045,-1.167 c -4.712,0.271 -9.882,-1.506 -11.719,-2.577 z"
           style="opacity:0.998" />
        <path
           id="use233"
           d="m 155.263,146.475 c -0.506,0.423 -0.613,0.632 -1.228,0.505 3.299,3.631 8.927,6.629 14.027,6.779 l -1.409,-0.642 c -3.26,-0.206 -9.375,-4.337 -11.391,-6.641 z"
           style="opacity:0.998" />
        <path
           id="use235"
           d="m 154.918,140.776 1.43,0.026 c 2.967,3.54 5.571,7.162 9.983,10.373 l 0.312,1.066 c -1.044,-0.172 -9.458,-5.126 -11.725,-11.465 z"
           style="opacity:0.998" />
        <path
           id="use237"
           d="m 156.036,134.302 c 0.479,0.29 1.081,0.698 2.247,0.429 1.469,3.91 4.818,10.276 7.261,12.602 l 0.362,1.642 c -7.344,-6.339 -7.71,-11.175 -9.87,-14.673 z"
           style="opacity:0.998" />
        <path
           id="use239"
           d="m 159.564,128.055 1.507,0.846 c -0.497,5.564 1.77,10.9 4.265,16.177 l 0.11,0.772 c -2.528,-1.955 -6.576,-10.772 -5.883,-17.795 z"
           style="opacity:0.998" />
        <path
           id="use241"
           d="m 164.537,121.473 c 0.206,0.466 0.414,0.932 1.196,1.365 -1.905,7.769 -1.088,14.91 -0.364,22.072 -2.268,-7.231 -3.805,-14.93 -0.832,-23.437 z"
           style="opacity:0.998" />
        <path
           id="use243"
           d="m 175.898,111.477 c -1.076,1.647 -1.804,4.395 -1.092,7.227 -7.562,8.283 -10.033,15.817 -9.827,22.722 -1.143,-10.099 5.513,-24.045 10.919,-29.949 z"
           style="opacity:0.998" />
        <path
           id="use245"
           d="m 175.869,162.928 h 2.482 c -0.612,2.392 0.3,5.771 -1.746,6.967 -1.035,0.605 -2.163,0.724 -3.107,-0.368 -0.727,-0.841 0.178,-2.385 0.938,-1.268 0.649,0.954 1.37,0.404 1.379,0.239 z"
           style="opacity:0.998;stroke:#a07843;stroke-width:0.265" />
      </g>
      <g
         class="C"
         id="g253">
        <path
           id="use249"
           d="m 176.704,163.549 c -0.351,0.358 -0.327,0.897 -0.271,1.358 0.042,0.344 0.071,0.695 0.01,1.038 10e-4,0.955 0.024,1.976 -0.474,2.828 -0.221,0.142 -0.53,0.23 -0.696,0.469 -0.131,0.289 0.368,0.283 0.533,0.174 0.613,-0.272 0.946,-0.964 0.942,-1.612 0.254,-0.816 0.369,-1.68 0.287,-2.533 -0.14,-0.349 0.035,-0.72 0.109,-1.064 0.053,-0.227 0.152,-0.572 -0.117,-0.698 -0.122,-0.055 -0.223,-0.044 -0.322,0.041 z" />
        <path
           id="use251"
           d="m 173.844,168.443 c -0.3,0.498 0.003,1.163 0.485,1.419 0.128,0.073 0.615,0.237 0.481,-0.019 -0.211,-0.378 -0.687,-0.601 -0.729,-1.069 0.031,-0.127 -0.018,-0.275 -0.157,-0.304 l -0.079,-0.028 z" />
      </g>
      <g
         class="F L"
         id="g259">
        <path
           id="use255"
           d="m 175.898,111.476 -1.546,1.863 -0.18,0.243 c -2.304,2.768 -4.701,5.29 -7.738,6.213 l -0.861,2.944 c -0.647,-0.405 -0.846,-0.836 -1.037,-1.267 l 0.21,-0.881 c -0.908,1.748 -0.83,3.394 -3.566,5.331 l -0.111,2.978 -1.507,-0.845 -0.147,-0.184 c -0.53,1.696 -0.958,3.475 -2.243,4.559 l 0.98,2.301 c -1.166,0.269 -1.64,-0.139 -2.118,-0.429 0.279,1.869 -0.076,3.632 -0.676,5.355 l 0.988,1.144 -1.43,-0.026 -0.338,-0.78 c 0.23,1.833 0.845,3.575 -0.026,5.667 l 0.708,0.812 c -0.506,0.423 -0.613,0.632 -1.227,0.505 0.348,1.117 0.759,1.87 0.582,4.102 l 2.222,1.031 -1.505,0.83 1.716,3.146 2.054,0.156 c -0.522,0.508 -0.728,0.727 -1.638,0.962 2.292,1.046 3.151,2.041 3.77,2.626 1.883,-0.447 1.612,-0.598 0.936,1.092 2.065,0.019 3.589,0.631 4.855,1.53 0.131,-0.436 0.407,-0.916 0.815,-1.437 l 0.693,1.121 c 0.698,-0.119 1.449,-0.594 2.181,-1.158 l -0.112,0.092 c 1.826,1.007 2.709,-0.248 3.851,-0.883 -7.134,-7.884 -16.988,-21.651 0.352,-41.485 -0.712,-2.832 0.016,-5.581 1.091,-7.227 z"
           style="opacity:0.998;fill:none" />
        <path
           id="use257"
           d="m 165.226,137.872 c -0.519,4.511 2.241,12.527 9.853,15.589 -1.55,1.953 -0.899,4.666 2.071,8.828 -12.26,-4.676 -13.574,-14.068 -11.924,-24.417 z"
           style="opacity:0.998;fill:#f5c742" />
      </g>
      <path
         id="use261"
         d="m 167.254,148.368 c -0.331,0.954 -0.16,2.224 0.39,3.241 0.919,1.247 2.793,0.941 3.47,2.447 1.046,2.042 1.342,4.386 2.974,6.181 1.794,0.563 -0.603,-2.217 -0.462,-3.038 0.08,-1.63 -0.259,-3.673 -2.099,-4.571 -1.377,-0.878 -3.215,-1.602 -3.716,-3.348 -0.197,-0.225 -0.123,-1.378 -0.556,-0.913 z"
         style="fill:#ffeba3" />
    </g>
  </g>
  <g
     stroke="#959595"
     class="K L"
     id="g277"
     transform="translate(-74.841,-101.566)">
    <path
       d="m 99.309,162.884 -8.056,0.354 2.764,1.654 -3.213,2.244 c 3.354,-0.234 7.026,-0.706 9.19,-0.047 z"
       fill="url(#B)"
       id="path267"
       style="fill:url(#B)" />
    <path
       d="m 95.645,161.999 -0.802,3.642 5.15,1.449 -0.685,-4.205 z"
       class="O"
       id="path269" />
    <path
       d="m 110.691,162.884 8.056,0.354 -2.764,1.654 3.213,2.244 c -3.354,-0.234 -7.026,-0.706 -9.19,-0.047 z"
       fill="url(#C)"
       id="path271"
       style="fill:url(#C)" />
    <path
       d="m 114.355,161.999 0.802,3.642 -5.15,1.449 0.685,-4.205 z"
       class="O"
       id="path273" />
    <path
       d="m 105,160.663 c -3.822,0 -6.236,0.374 -9.354,1.336 l -0.802,3.642 c 3.17,-0.721 6.497,-1.069 10.156,-1.069 3.659,0 6.987,0.348 10.156,1.069 l -0.802,-3.642 c -3.118,-0.962 -5.532,-1.336 -9.354,-1.336 z"
       class="I"
       id="path275" />
  </g>
  <path
     d="m 21.235,61.652 0.02,-0.342 q 0.039,-0.679 0.576,-0.789 0.571,-0.116 0.54,0.435 l -0.037,0.641 q -0.029,0.502 0.395,0.416 0.287,-0.059 0.306,-0.382 l 0.038,-0.691 q 0.039,-0.679 0.576,-0.789 0.571,-0.116 0.54,0.435 l -0.037,0.641 q -0.029,0.502 0.395,0.416 0.287,-0.059 0.306,-0.382 l 0.038,-0.691 q 0.039,-0.679 0.576,-0.789 0.571,-0.116 0.54,0.435 L 25.93,61.553 25.699,61.6 q -0.181,0.037 -0.171,-0.14 l 0.067,-1.16 q 0.02,-0.356 -0.196,-0.311 -0.282,0.057 -0.31,0.541 l -0.04,0.691 q -0.03,0.517 -0.57,0.627 l -0.057,0.011 q -0.721,0.147 -0.681,-0.549 l 0.037,-0.641 q 0.02,-0.356 -0.196,-0.311 -0.282,0.057 -0.31,0.541 l -0.04,0.691 q -0.03,0.517 -0.57,0.627 l -0.057,0.011 q -0.721,0.147 -0.681,-0.549 l 0.037,-0.641 q 0.02,-0.356 -0.196,-0.311 -0.281,0.057 -0.308,0.541 l -0.02,0.342 q -0.028,0.492 0.192,0.649 l 0.057,0.042 -0.084,0.1 q -0.057,0.07 -0.116,0.029 -0.283,-0.201 -0.25,-0.779 z m 8.736,-0.656 q 0.002,0.467 -0.912,0.472 l -0.276,10e-4 q -0.765,0.004 -0.769,-0.695 l -0.003,-0.643 q -0.002,-0.357 -0.215,-0.356 -0.278,0.001 -0.275,0.487 l 0.002,0.344 q 0.003,0.494 0.232,0.698 l 0.061,0.054 -0.078,0.085 q -0.054,0.06 -0.113,0.006 -0.294,-0.261 -0.297,-0.842 l -0.002,-0.344 q -0.003,-0.682 0.525,-0.685 0.562,-0.003 0.565,0.551 l 0.003,0.643 q 0.003,0.505 0.417,0.502 l 0.222,-10e-4 q 0.72,-0.004 0.718,-0.276 -0.001,-0.146 -0.228,-0.144 -0.08,0 -0.08,-0.079 l -0.001,-0.115 h 0.08 q 0.422,-0.002 0.423,0.338 z M 29.542,60.251 Q 29.54,59.765 29.23,59.767 29.081,59.768 29,59.85 q -0.081,0.08 -0.08,0.212 10e-4,0.147 0.091,0.23 l 0.061,0.054 -0.079,0.087 q -0.054,0.058 -0.115,0.002 -0.151,-0.138 -0.153,-0.372 -0.001,-0.215 0.137,-0.353 0.138,-0.138 0.367,-0.139 0.306,-0.002 0.428,0.226 0.16,-0.229 0.541,-0.231 0.664,-0.003 0.667,0.55 l 0.007,1.343 q 0.001,0.225 -0.213,0.352 -0.149,0.087 -0.494,0.089 l -0.754,0.004 q -0.986,0.005 -0.984,0.259 0.001,0.161 0.352,0.245 0.351,0.086 0.93,0.083 l 0.286,-10e-4 q 1.375,-0.007 1.371,-0.791 l -0.007,-1.456 q -0.003,-0.682 0.525,-0.685 0.562,-0.003 0.565,0.551 l 0.009,1.695 q 0.003,0.62 0.212,0.719 l -0.052,0.104 q -0.034,0.071 -0.108,0.036 -0.224,-0.109 -0.34,-0.323 -0.115,-0.214 -0.116,-0.533 l -0.009,-1.695 q -0.002,-0.357 -0.215,-0.356 -0.276,10e-4 -0.274,0.487 l 0.007,1.456 q 0.005,0.98 -1.622,0.989 l -0.174,10e-4 q -0.278,10e-4 -0.55,-0.007 -0.273,-0.007 -0.554,-0.056 -0.28,-0.049 -0.46,-0.17 -0.178,-0.119 -0.179,-0.289 -0.002,-0.449 1.444,-0.456 l 0.698,-0.004 q 0.168,-10e-4 0.235,-0.062 0.069,-0.061 0.069,-0.182 L 30.463,60.12 q -0.002,-0.357 -0.317,-0.356 -0.408,0.002 -0.406,0.488 l 0.002,0.08 h -0.117 q -0.08,0 -0.08,-0.079 z m 5.351,0.341 0.051,1.089 -0.23,-0.043 q -0.18,-0.033 -0.188,-0.21 l -0.05,-1.062 Q 34.459,60.01 34.243,59.97 33.963,59.918 33.986,60.4 l 0.013,0.282 q 0.019,0.398 0.217,0.6 l 0.061,0.063 -0.07,0.069 Q 34.152,61.467 34.089,61.402 33.823,61.127 33.8,60.645 l -0.013,-0.282 q -0.032,-0.678 0.504,-0.579 0.35,0.065 0.495,0.299 0.169,-0.273 0.653,-0.183 0.756,0.14 0.787,0.803 l 0.025,0.529 q 0.023,0.502 0.444,0.58 l 0.25,0.046 q 0.508,0.094 0.487,-0.343 l -0.027,-0.578 q -0.032,-0.68 0.502,-0.581 0.571,0.106 0.597,0.657 l 0.062,1.337 -0.23,-0.043 q -0.182,-0.034 -0.19,-0.211 l -0.054,-1.16 Q 38.075,60.58 37.861,60.541 37.58,60.489 37.602,60.973 l 0.027,0.578 q 0.029,0.631 -0.73,0.49 l -0.252,-0.047 q -0.775,-0.144 -0.808,-0.84 l -0.025,-0.529 q -0.022,-0.467 -0.423,-0.541 -0.527,-0.097 -0.498,0.506 z"
     id="path279" />
  <g
     id="g1835">
    <g
       stroke="#7c7c7c"
       class="K L"
       id="g291"
       transform="translate(-74.841,-101.566)">
      <path
         d="m 94.74,171.491 0.099,3.643 c 0.224,-0.968 0.624,-1.234 1.983,-1.239 l 0.05,-3.271 c -0.38,-0.387 -1.229,-0.156 -2.131,0.867 z"
         fill="#949494"
         id="path281" />
      <path
         d="m 96.871,170.624 c -0.153,0.279 -0.256,0.611 -0.921,0.467 v 3.557 c 0.545,0.045 0.95,-0.069 0.871,-0.753 z"
         class="O"
         id="path283" />
      <path
         d="m 115.26,171.491 -0.099,3.643 c -0.224,-0.968 -0.624,-1.234 -1.983,-1.239 l -0.05,-3.271 c 0.38,-0.387 1.229,-0.156 2.131,0.867 z"
         fill="#949494"
         id="path285" />
      <path
         d="m 113.129,170.624 c 0.153,0.279 0.256,0.611 0.921,0.467 v 3.557 c -0.545,0.045 -0.95,-0.069 -0.871,-0.753 z"
         class="O"
         id="path287" />
      <path
         d="m 94.74,171.491 c -0.561,1.115 -0.071,2.406 0.099,3.643 3.824,1.292 6.383,-0.496 10.161,-0.496 3.778,0 6.336,1.787 10.161,0.496 0.17,-1.237 0.661,-2.528 0.099,-3.643 -3.5,1.377 -6.147,-0.777 -10.26,-0.867 -4.113,-0.09 -7.503,1.855 -10.26,0.867 z"
         fill="url(#F)"
         id="path289"
         style="fill:url(#F)" />
    </g>
    <path
       d="m 21.154,70.551 0.551,0.079 0.751,1.898 0.25,-1.755 0.489,0.07 -0.359,2.514 -0.525,-0.075 -0.772,-1.932 -0.255,1.785 -0.489,-0.07 z m 1.041,0.143 z"
       id="path293" />
    <path
       d="m 25.056,71.325 q -0.098,-0.248 -0.345,-0.316 -0.138,-0.037 -0.296,-0.013 -0.303,0.045 -0.465,0.304 -0.16,0.257 -0.092,0.717 0.069,0.463 0.309,0.625 0.24,0.161 0.509,0.121 0.264,-0.039 0.41,-0.216 0.146,-0.178 0.149,-0.431 l -0.581,0.086 -0.062,-0.419 1.046,-0.155 0.2,1.348 -0.348,0.052 -0.099,-0.306 q -0.125,0.201 -0.235,0.293 -0.189,0.159 -0.492,0.204 -0.499,0.074 -0.869,-0.225 -0.384,-0.298 -0.473,-0.902 -0.09,-0.61 0.191,-1.028 0.281,-0.418 0.833,-0.5 0.479,-0.071 0.805,0.13 0.327,0.199 0.424,0.555 z m -0.714,-0.761 z m 2.788,1.126 0.636,-0.103 -0.473,-0.935 z m -0.221,-1.564 0.592,-0.096 1.294,2.362 -0.568,0.092 -0.245,-0.489 -0.923,0.15 -0.09,0.543 -0.547,0.089 z m 0.292,-0.048 z m 2.241,-0.279 0.556,0.01 0.979,1.791 0.032,-1.772 0.494,0.009 -0.046,2.539 -0.53,-0.01 -1.004,-1.822 -0.033,1.803 -0.494,-0.009 z m 1.051,0.014 z m 2.205,1.792 -0.01,0.058 q -0.043,0.291 -0.008,0.42 0.037,0.127 0.224,0.16 0.185,0.032 0.267,-0.087 0.049,-0.07 0.08,-0.252 l 0.303,-1.75 0.523,0.091 -0.302,1.741 q -0.055,0.319 -0.198,0.487 -0.241,0.283 -0.729,0.199 -0.487,-0.084 -0.609,-0.368 -0.122,-0.285 -0.045,-0.726 l 0.01,-0.058 z m 2.133,-1.161 0.532,0.086 -0.248,1.541 q -0.042,0.258 10e-4,0.387 0.061,0.226 0.381,0.278 0.318,0.051 0.447,-0.144 0.08,-0.109 0.122,-0.368 l 0.248,-1.541 0.532,0.086 -0.248,1.541 q -0.064,0.4 -0.224,0.602 -0.297,0.371 -0.948,0.266 -0.651,-0.105 -0.819,-0.55 -0.088,-0.243 -0.024,-0.642 z m 1.009,0.162 z m 1.134,0.22 0.519,-0.056 0.112,1.04 0.862,-1.145 0.682,-0.074 -0.922,1.151 1.248,1.367 -0.678,0.073 -0.898,-1.019 -0.224,0.286 0.091,0.844 -0.519,0.056 z"
       id="path295" />
  </g>
  <g
     id="g1957">
    <path
       d="m 18.528,32.314 c -1.32,5.045 3.273,15.744 11.005,17.664"
       class="F J L"
       id="path297" />
    <g
       transform="matrix(0.227482,-1.633558,1.633558,0.227482,-218.05019,166.66378)"
       id="g303">
      <path
         id="use299"
         d="m 93.362,133.994 c 0.461,-0.363 0.742,-0.919 0.541,-1.989 -0.502,0.583 -0.803,1.215 -0.541,1.989 z"
         style="fill:#f5c742;stroke:#a07843;stroke-width:0.1" />
      <path
         id="use301"
         d="m 93.83,132.55 c -0.121,0.257 -0.317,0.728 -0.317,0.997 0.14,-0.167 0.324,-0.631 0.317,-0.997 z"
         style="fill:#ffeba3" />
    </g>
    <g
       transform="matrix(0.376076,-1.605873,1.605873,0.376076,-229.18252,142.70143)"
       id="g309">
      <path
         id="use305"
         d="m 93.362,133.994 c 0.461,-0.363 0.742,-0.919 0.541,-1.989 -0.502,0.583 -0.803,1.215 -0.541,1.989 z"
         style="fill:#f5c742;stroke:#a07843;stroke-width:0.1" />
      <path
         id="use307"
         d="m 93.83,132.55 c -0.121,0.257 -0.317,0.728 -0.317,0.997 0.14,-0.167 0.324,-0.631 0.317,-0.997 z"
         style="fill:#ffeba3" />
    </g>
    <g
       transform="matrix(0.504242,-1.443136,1.443136,0.504242,-220.25904,108.83266)"
       id="g315">
      <path
         id="use311"
         d="m 93.362,133.994 c 0.461,-0.363 0.742,-0.919 0.541,-1.989 -0.502,0.583 -0.803,1.215 -0.541,1.989 z"
         style="fill:#f5c742;stroke:#a07843;stroke-width:0.1" />
      <path
         id="use313"
         d="m 93.83,132.55 c -0.121,0.257 -0.317,0.728 -0.317,0.997 0.14,-0.167 0.324,-0.631 0.317,-0.997 z"
         style="fill:#ffeba3" />
    </g>
    <g
       transform="matrix(0.734276,-1.340799,1.340799,0.734276,-228.72643,66.96049)"
       id="g321">
      <path
         id="use317"
         d="m 93.362,133.994 c 0.461,-0.363 0.742,-0.919 0.541,-1.989 -0.502,0.583 -0.803,1.215 -0.541,1.989 z"
         style="fill:#f5c742;stroke:#a07843;stroke-width:0.1" />
      <path
         id="use319"
         d="m 93.83,132.55 c -0.121,0.257 -0.317,0.728 -0.317,0.997 0.14,-0.167 0.324,-0.631 0.317,-0.997 z"
         style="fill:#ffeba3" />
    </g>
    <g
       transform="matrix(0.924213,-1.217675,1.217675,0.924213,-230.60777,28.33082)"
       id="g327">
      <path
         id="use323"
         d="m 93.362,133.994 c 0.461,-0.363 0.742,-0.919 0.541,-1.989 -0.502,0.583 -0.803,1.215 -0.541,1.989 z"
         style="fill:#f5c742;stroke:#a07843;stroke-width:0.1" />
      <path
         id="use325"
         d="m 93.83,132.55 c -0.121,0.257 -0.317,0.728 -0.317,0.997 0.14,-0.167 0.324,-0.631 0.317,-0.997 z"
         style="fill:#ffeba3" />
    </g>
    <g
       transform="matrix(0.978577,-1.174432,1.174432,0.978577,-230.28591,15.15164)"
       id="g333">
      <path
         id="use329"
         d="m 93.362,133.994 c 0.461,-0.363 0.742,-0.919 0.541,-1.989 -0.502,0.583 -0.803,1.215 -0.541,1.989 z"
         style="fill:#f5c742;stroke:#a07843;stroke-width:0.1" />
      <path
         id="use331"
         d="m 93.83,132.55 c -0.121,0.257 -0.317,0.728 -0.317,0.997 0.14,-0.167 0.324,-0.631 0.317,-0.997 z"
         style="fill:#ffeba3" />
    </g>
    <g
       transform="matrix(1.229555,-0.908348,0.908348,1.229555,-218.32092,-45.013025)"
       id="g339">
      <path
         id="use335"
         d="m 93.362,133.994 c 0.461,-0.363 0.742,-0.919 0.541,-1.989 -0.502,0.583 -0.803,1.215 -0.541,1.989 z"
         style="fill:#f5c742;stroke:#a07843;stroke-width:0.1" />
      <path
         id="use337"
         d="m 93.83,132.55 c -0.121,0.257 -0.317,0.728 -0.317,0.997 0.14,-0.167 0.324,-0.631 0.317,-0.997 z"
         style="fill:#ffeba3" />
    </g>
    <g
       transform="matrix(-0.072529,-1.647725,1.647726,-0.072529,-190.83458,209.43176)"
       id="g345">
      <path
         id="use341"
         d="m 93.362,133.994 c 0.461,-0.363 0.742,-0.919 0.541,-1.989 -0.502,0.583 -0.803,1.215 -0.541,1.989 z"
         style="fill:#f5c742;stroke:#a07843;stroke-width:0.1" />
      <path
         id="use343"
         d="m 93.83,132.55 c -0.121,0.257 -0.317,0.728 -0.317,0.997 0.14,-0.167 0.324,-0.631 0.317,-0.997 z"
         style="fill:#ffeba3" />
    </g>
    <g
       transform="matrix(1.449677,-0.786573,0.786573,1.449677,-217.26364,-74.659066)"
       id="g351">
      <path
         id="use347"
         d="m 93.362,133.994 c 0.461,-0.363 0.742,-0.919 0.541,-1.989 -0.502,0.583 -0.803,1.215 -0.541,1.989 z"
         style="fill:#f5c742;stroke:#a07843;stroke-width:0.1" />
      <path
         id="use349"
         d="m 93.83,132.55 c -0.121,0.257 -0.317,0.728 -0.317,0.997 0.14,-0.167 0.324,-0.631 0.317,-0.997 z"
         style="fill:#ffeba3" />
    </g>
    <g
       transform="matrix(1.384747,-0.557084,0.557084,1.384747,-181.78315,-89.101121)"
       id="g357">
      <path
         id="use353"
         d="m 93.362,133.994 c 0.461,-0.363 0.742,-0.919 0.541,-1.989 -0.502,0.583 -0.803,1.215 -0.541,1.989 z"
         style="fill:#f5c742;stroke:#a07843;stroke-width:0.1" />
      <path
         id="use355"
         d="m 93.83,132.55 c -0.121,0.257 -0.317,0.728 -0.317,0.997 0.14,-0.167 0.324,-0.631 0.317,-0.997 z"
         style="fill:#ffeba3" />
    </g>
    <g
       transform="matrix(1.364781,-0.471292,0.471292,1.364781,-169.55901,-95.875056)"
       id="g363">
      <path
         id="use359"
         d="m 93.489,133.893 c 0.461,-0.363 0.742,-0.919 0.541,-1.989 -0.502,0.583 -0.803,1.215 -0.541,1.989 z"
         style="fill:#f5c742;stroke:#a07843;stroke-width:0.1" />
      <path
         id="use361"
         d="m 93.972,132.466 c -0.121,0.257 -0.317,0.728 -0.317,0.997 0.14,-0.167 0.324,-0.631 0.317,-0.997 z"
         style="fill:#ffeba3" />
    </g>
    <g
       transform="matrix(1.394564,-0.374079,0.374079,1.394564,-160.30735,-110.51122)"
       id="g369">
      <path
         id="use365"
         d="m 93.489,133.893 c 0.461,-0.363 0.742,-0.919 0.541,-1.989 -0.502,0.583 -0.803,1.215 -0.541,1.989 z"
         style="fill:#f5c742;stroke:#a07843;stroke-width:0.1" />
      <path
         id="use367"
         d="m 93.972,132.466 c -0.121,0.257 -0.317,0.728 -0.317,0.997 0.14,-0.167 0.324,-0.631 0.317,-0.997 z"
         style="fill:#ffeba3" />
    </g>
    <g
       transform="matrix(1.324294,-0.205463,0.205463,1.324294,-131.94585,-118.74298)"
       id="g375">
      <path
         id="use371"
         d="m 93.489,133.893 c 0.461,-0.363 0.742,-0.919 0.541,-1.989 -0.502,0.583 -0.803,1.215 -0.541,1.989 z"
         style="fill:#f5c742;stroke:#a07843;stroke-width:0.1" />
      <path
         id="use373"
         d="m 93.972,132.466 c -0.121,0.257 -0.317,0.728 -0.317,0.997 0.14,-0.167 0.324,-0.631 0.317,-0.997 z"
         style="fill:#ffeba3" />
    </g>
    <g
       transform="matrix(1.256339,0.100029,-0.100029,1.256339,-85.309343,-140.01878)"
       id="g381">
      <path
         id="use377"
         d="m 93.489,133.893 c 0.461,-0.363 0.742,-0.919 0.541,-1.989 -0.502,0.583 -0.803,1.215 -0.541,1.989 z"
         style="fill:#f5c742;stroke:#a07843;stroke-width:0.1" />
      <path
         id="use379"
         d="m 93.972,132.466 c -0.121,0.257 -0.317,0.728 -0.317,0.997 0.14,-0.167 0.324,-0.631 0.317,-0.997 z"
         style="fill:#ffeba3" />
    </g>
    <g
       transform="matrix(1.192943,0.294379,-0.294379,1.192943,-53.612627,-151.35745)"
       id="g387">
      <path
         id="use383"
         d="m 93.489,133.893 c 0.461,-0.363 0.742,-0.919 0.541,-1.989 -0.502,0.583 -0.803,1.215 -0.541,1.989 z"
         style="fill:#f5c742;stroke:#a07843;stroke-width:0.1" />
      <path
         id="use385"
         d="m 93.972,132.466 c -0.121,0.257 -0.317,0.728 -0.317,0.997 0.14,-0.167 0.324,-0.631 0.317,-0.997 z"
         style="fill:#ffeba3" />
    </g>
    <g
       transform="matrix(1.174668,0.314825,-0.314825,1.174668,-49.292674,-152.19997)"
       id="g393">
      <path
         id="use389"
         d="m 93.489,133.893 c 0.461,-0.363 0.742,-0.919 0.541,-1.989 -0.502,0.583 -0.803,1.215 -0.541,1.989 z"
         style="fill:#f5c742;stroke:#a07843;stroke-width:0.1" />
      <path
         id="use391"
         d="m 93.972,132.466 c -0.121,0.257 -0.317,0.728 -0.317,0.997 0.14,-0.167 0.324,-0.631 0.317,-0.997 z"
         style="fill:#ffeba3" />
    </g>
    <g
       transform="matrix(1.528384,-0.030739,0.030739,1.528384,-128.48734,-168.69768)"
       id="g399">
      <path
         id="use395"
         d="m 93.362,133.994 c 0.461,-0.363 0.742,-0.919 0.541,-1.989 -0.502,0.583 -0.803,1.215 -0.541,1.989 z"
         style="fill:#f5c742;stroke:#a07843;stroke-width:0.1" />
      <path
         id="use397"
         d="m 93.83,132.55 c -0.121,0.257 -0.317,0.728 -0.317,0.997 0.14,-0.167 0.324,-0.631 0.317,-0.997 z"
         style="fill:#ffeba3" />
    </g>
    <g
       class="G H L"
       id="g407"
       transform="translate(-74.841,-101.566)">
      <path
         d="m 97.712,148.835 c -0.803,1.128 0.424,1.976 0.637,2.964 -0.019,-0.737 -0.745,-1.507 -0.052,-2.21 0.647,-0.475 1.629,0.189 2.444,0.286 l -0.91,-0.702 c -0.714,-0.159 -1.528,-0.916 -2.119,-0.338 z"
         id="path401" />
      <path
         d="m 99.091,150.206 c -0.639,1.228 0.694,1.898 1.042,2.847 -0.121,-0.727 -0.947,-1.389 -0.358,-2.181 0.575,-0.561 1.639,-0.039 2.46,-0.056 l -0.998,-0.569 c -0.729,-0.059 -1.64,-0.695 -2.145,-0.041 z"
         id="path403" />
      <path
         d="m 100.816,149.913 1.085,0.717 c 0.158,-1.038 -1.199,-1.344 -0.276,-2.353 0.773,-0.799 1.434,0.184 2.151,0.276 -0.9,-0.313 -1.755,-1.765 -2.702,-0.919 -1.007,1.067 -0.188,1.525 -0.257,2.279 z"
         id="path405" />
    </g>
    <path
       d="m 24.947,47.532 c 0.233,-0.925 -0.967,-1.32 -0.044,-2.152 0.768,-0.656 1.281,0.291 1.921,0.437 -0.787,-0.362 -1.434,-1.749 -2.364,-1.067 -1.003,0.877 -0.551,1.964 -0.551,1.964 0.397,0.391 0.705,0.593 1.038,0.817 z"
       stroke-width="0.24"
       class="G H"
       id="path409" />
  </g>
  <g
     id="g1898">
    <path
       d="m 41.79,32.314 c 1.32,5.045 -3.273,15.744 -11.005,17.664"
       class="G J L"
       id="path411" />
    <g
       stroke-width="0.096"
       id="g417"
       transform="translate(-74.841,-101.566)">
      <path
         d="m 115.862,134.193 c -0.319,0.009 -0.418,-0.664 0.229,-0.699 -0.041,-0.469 0.796,-0.592 0.918,-0.092 0.333,-0.193 0.662,0.391 0.539,0.479 l -0.821,0.546 z"
         class="I N"
         id="path413" />
      <path
         d="m 115.749,134.191 c 0.192,0.423 0.427,0.782 1.038,0.59 0.877,-0.087 0.669,-0.573 0.793,-0.937 -0.312,0.132 -0.586,0.25 -0.931,-0.026 -0.326,0.546 -0.62,0.364 -0.9,0.373 z"
         class="G H K"
         id="path415" />
    </g>
    <g
       transform="matrix(0.938721,0.123803,-0.101419,0.93576,-53.925839,-105.94212)"
       class="E"
       id="g423">
      <path
         id="use419"
         d="m 115.826,134.225 c -0.338,0.01 -0.426,-0.704 0.26,-0.741 -0.032,-0.497 0.858,-0.627 0.975,-0.097 0.358,-0.204 0.691,0.414 0.559,0.507 l -0.884,0.578 z"
         style="fill:#ffffff;stroke:#d9d9d9" />
      <path
         id="use421"
         d="m 115.706,134.223 c 0.193,0.448 0.433,0.829 1.085,0.625 0.932,-0.092 0.723,-0.607 0.864,-0.993 -0.334,0.14 -0.627,0.265 -0.986,-0.028 -0.359,0.578 -0.666,0.386 -0.962,0.396 z"
         style="fill:#206731;stroke:#174a23;stroke-linejoin:round" />
    </g>
    <g
       transform="matrix(1.019938,0.25395,-0.229697,1.013863,-46.213492,-129.81609)"
       class="E"
       id="g429">
      <path
         id="use425"
         d="m 115.826,134.225 c -0.338,0.01 -0.426,-0.704 0.26,-0.741 -0.032,-0.497 0.858,-0.627 0.975,-0.097 0.358,-0.204 0.691,0.414 0.559,0.507 l -0.884,0.578 z"
         style="fill:#ffffff;stroke:#d9d9d9" />
      <path
         id="use427"
         d="m 115.706,134.223 c 0.193,0.448 0.433,0.829 1.085,0.625 0.932,-0.092 0.723,-0.607 0.864,-0.993 -0.334,0.14 -0.627,0.265 -0.986,-0.028 -0.359,0.578 -0.666,0.386 -0.962,0.396 z"
         style="fill:#206731;stroke:#174a23;stroke-linejoin:round" />
    </g>
    <g
       transform="matrix(0.984136,0.376187,-0.352861,0.975137,-25.804957,-137.20384)"
       class="E"
       id="g435">
      <path
         id="use431"
         d="m 115.826,134.225 c -0.338,0.01 -0.426,-0.704 0.26,-0.741 -0.032,-0.497 0.858,-0.627 0.975,-0.097 0.358,-0.204 0.691,0.414 0.559,0.507 l -0.884,0.578 z"
         style="fill:#ffffff;stroke:#d9d9d9" />
      <path
         id="use433"
         d="m 115.706,134.223 c 0.193,0.448 0.433,0.829 1.085,0.625 0.932,-0.092 0.723,-0.607 0.864,-0.993 -0.334,0.14 -0.627,0.265 -0.986,-0.028 -0.359,0.578 -0.666,0.386 -0.962,0.396 z"
         style="fill:#206731;stroke:#174a23;stroke-linejoin:round" />
    </g>
    <g
       transform="matrix(1.08502,0.593372,-0.567757,1.070826,-9.270094,-173.58945)"
       class="E"
       id="g441">
      <path
         id="use437"
         d="m 115.826,134.225 c -0.338,0.01 -0.426,-0.704 0.26,-0.741 -0.032,-0.497 0.858,-0.627 0.975,-0.097 0.358,-0.204 0.691,0.414 0.559,0.507 l -0.884,0.578 z"
         style="fill:#ffffff;stroke:#d9d9d9" />
      <path
         id="use439"
         d="m 115.706,134.223 c 0.193,0.448 0.433,0.829 1.085,0.625 0.932,-0.092 0.723,-0.607 0.864,-0.993 -0.334,0.14 -0.627,0.265 -0.986,-0.028 -0.359,0.578 -0.666,0.386 -0.962,0.396 z"
         style="fill:#206731;stroke:#174a23;stroke-linejoin:round" />
    </g>
    <g
       transform="matrix(1.127787,0.856023,-0.829535,1.107311,19.934816,-207.0429)"
       class="E"
       id="g447">
      <path
         id="use443"
         d="m 115.826,134.225 c -0.338,0.01 -0.426,-0.704 0.26,-0.741 -0.032,-0.497 0.858,-0.627 0.975,-0.097 0.358,-0.204 0.691,0.414 0.559,0.507 l -0.884,0.578 z"
         style="fill:#ffffff;stroke:#d9d9d9" />
      <path
         id="use445"
         d="m 115.706,134.223 c 0.193,0.448 0.433,0.829 1.085,0.625 0.932,-0.092 0.723,-0.607 0.864,-0.993 -0.334,0.14 -0.627,0.265 -0.986,-0.028 -0.359,0.578 -0.666,0.386 -0.962,0.396 z"
         style="fill:#206731;stroke:#174a23;stroke-linejoin:round" />
    </g>
    <g
       transform="matrix(1.292603,0.981123,-0.950764,1.269133,15.817688,-241.38704)"
       class="E"
       id="g453">
      <path
         id="use449"
         d="m 115.826,134.225 c -0.338,0.01 -0.426,-0.704 0.26,-0.741 -0.032,-0.497 0.858,-0.627 0.975,-0.097 0.358,-0.204 0.691,0.414 0.559,0.507 l -0.884,0.578 z"
         style="fill:#ffffff;stroke:#d9d9d9" />
      <path
         id="use451"
         d="m 115.706,134.223 c 0.193,0.448 0.433,0.829 1.085,0.625 0.932,-0.092 0.723,-0.607 0.864,-0.993 -0.334,0.14 -0.627,0.265 -0.986,-0.028 -0.359,0.578 -0.666,0.386 -0.962,0.396 z"
         style="fill:#206731;stroke:#174a23;stroke-linejoin:round" />
    </g>
    <g
       transform="matrix(1.311926,1.278934,-1.248284,1.281333,51.96795,-275.91097)"
       class="E"
       id="g459">
      <path
         id="use455"
         d="m 115.826,134.225 c -0.338,0.01 -0.426,-0.704 0.26,-0.741 -0.032,-0.497 0.858,-0.627 0.975,-0.097 0.358,-0.204 0.691,0.414 0.559,0.507 l -0.884,0.578 z"
         style="fill:#ffffff;stroke:#d9d9d9" />
      <path
         id="use457"
         d="m 115.706,134.223 c 0.193,0.448 0.433,0.829 1.085,0.625 0.932,-0.092 0.723,-0.607 0.864,-0.993 -0.334,0.14 -0.627,0.265 -0.986,-0.028 -0.359,0.578 -0.666,0.386 -0.962,0.396 z"
         style="fill:#206731;stroke:#174a23;stroke-linejoin:round" />
    </g>
    <g
       transform="matrix(0.962463,0.244347,-0.311034,0.984355,-24.412172,-125.2869)"
       class="G"
       id="g471">
      <path
         id="use461"
         d="m 105.674,149.973 c 0.955,0.4 1.203,1.043 1.963,0.78 1.017,-0.66 0.338,-1.407 0.091,-2.132 -0.242,0.154 -0.44,0.333 -0.442,0.624 -0.174,-0.325 -0.207,-0.847 -0.161,-1.393 l -0.491,0.71 c -0.236,-0.33 -0.643,-0.511 -0.998,-0.769 0.156,0.392 0.27,0.826 0.541,1.104 l -0.649,0.191 c 0.437,0.12 0.706,0.375 0.874,0.69 -0.285,0.002 -0.512,0.09 -0.728,0.195 z"
         style="fill:#206731;stroke-width:0.165" />
      <g
         class="J Q"
         id="g469">
        <path
           id="use463"
           d="m 106.514,150.106 1.02,0.377 -1.195,-1.829" />
        <path
           id="use465"
           d="m 107.535,150.483 0.073,-1.232" />
        <path
           id="use467"
           d="m 106.211,149.196 0.726,0.372 -0.055,-0.878" />
      </g>
    </g>
    <g
       transform="matrix(0.817324,0.2075,-0.264131,0.835915,-13.980658,-100.04747)"
       class="G"
       id="g483">
      <path
         id="use473"
         d="m 105.674,149.973 c 0.955,0.4 1.203,1.043 1.963,0.78 1.017,-0.66 0.338,-1.407 0.091,-2.132 -0.242,0.154 -0.44,0.333 -0.442,0.624 -0.174,-0.325 -0.207,-0.847 -0.161,-1.393 l -0.491,0.71 c -0.236,-0.33 -0.643,-0.511 -0.998,-0.769 0.156,0.392 0.27,0.826 0.541,1.104 l -0.649,0.191 c 0.437,0.12 0.706,0.375 0.874,0.69 -0.285,0.002 -0.512,0.09 -0.728,0.195 z"
         style="fill:#206731;stroke-width:0.165" />
      <g
         class="J Q"
         id="g481">
        <path
           id="use475"
           d="m 106.514,150.106 1.02,0.377 -1.195,-1.829" />
        <path
           id="use477"
           d="m 107.535,150.483 0.073,-1.232" />
        <path
           id="use479"
           d="m 106.211,149.196 0.726,0.372 -0.055,-0.878" />
      </g>
    </g>
    <g
       transform="matrix(0.738373,2.59e-4,-0.044326,0.766337,-36.860958,-68.458407)"
       class="G"
       id="g495">
      <path
         id="use485"
         d="m 105.674,149.973 c 0.955,0.4 1.203,1.043 1.963,0.78 1.017,-0.66 0.338,-1.407 0.091,-2.132 -0.242,0.154 -0.44,0.333 -0.442,0.624 -0.174,-0.325 -0.207,-0.847 -0.161,-1.393 l -0.491,0.71 c -0.236,-0.33 -0.643,-0.511 -0.998,-0.769 0.156,0.392 0.27,0.826 0.541,1.104 l -0.649,0.191 c 0.437,0.12 0.706,0.375 0.874,0.69 -0.285,0.002 -0.512,0.09 -0.728,0.195 z"
         style="fill:#206731;stroke-width:0.165" />
      <g
         class="J Q"
         id="g493">
        <path
           id="use487"
           d="m 106.514,150.106 1.02,0.377 -1.195,-1.829" />
        <path
           id="use489"
           d="m 107.535,150.483 0.073,-1.232" />
        <path
           id="use491"
           d="m 106.211,149.196 0.726,0.372 -0.055,-0.878" />
      </g>
    </g>
    <g
       transform="matrix(-0.446516,0.999679,-1.010919,-0.523085,233.50075,20.89926)"
       class="G"
       id="g507">
      <path
         id="use497"
         d="m 105.674,149.973 c 0.955,0.4 1.203,1.043 1.963,0.78 1.017,-0.66 0.338,-1.407 0.091,-2.132 -0.242,0.154 -0.44,0.333 -0.442,0.624 -0.174,-0.325 -0.207,-0.847 -0.161,-1.393 l -0.491,0.71 c -0.236,-0.33 -0.643,-0.511 -0.998,-0.769 0.156,0.392 0.27,0.826 0.541,1.104 l -0.649,0.191 c 0.437,0.12 0.706,0.375 0.874,0.69 -0.285,0.002 -0.512,0.09 -0.728,0.195 z"
         style="fill:#206731;stroke-width:0.165" />
      <g
         class="J Q"
         id="g505">
        <path
           d="m 106.34,148.654 1.195,1.829 0.25,0.833"
           id="path499" />
        <path
           d="m 107.608,149.251 -0.073,1.232 -1.155,-0.386"
           id="path501" />
        <path
           id="use503"
           d="m 106.211,149.196 0.726,0.372 -0.055,-0.878" />
      </g>
    </g>
    <g
       transform="matrix(-0.195577,0.759081,-0.776176,-0.248281,173.54772,3.69432)"
       class="G"
       id="g517">
      <path
         id="use509"
         d="m 105.674,149.973 c 0.955,0.4 1.203,1.043 1.963,0.78 1.017,-0.66 0.338,-1.407 0.091,-2.132 -0.242,0.154 -0.44,0.333 -0.442,0.624 -0.174,-0.325 -0.207,-0.847 -0.161,-1.393 l -0.491,0.71 c -0.236,-0.33 -0.643,-0.511 -0.998,-0.769 0.156,0.392 0.27,0.826 0.541,1.104 l -0.649,0.191 c 0.437,0.12 0.706,0.375 0.874,0.69 -0.285,0.002 -0.512,0.09 -0.728,0.195 z"
         style="fill:#206731;stroke-width:0.165" />
      <g
         class="J Q"
         id="g515">
        <path
           d="m 106.34,148.654 1.195,1.829 0.568,1.14"
           id="path511" />
        <path
           id="use513"
           d="m 106.211,149.196 0.726,0.372 -0.055,-0.878" />
      </g>
    </g>
    <path
       d="M 36.266,47.224 35.72,47.952 36.5,48.29"
       class="G J Q"
       id="path519" />
  </g>
  <g
     id="g1841">
    <path
       d="m 30.159,48.439 4.131,3.001 -1.578,4.856 H 27.606 L 26.028,51.44 Z"
       stroke="#606060"
       stroke-width="0.365"
       class="I M R"
       id="path521" />
    <g
       class="G"
       id="g527"
       transform="translate(-74.841,-101.566)">
      <path
         d="m 105,151.798 c -0.482,0 -1.127,0.244 -1.266,0.943 -0.964,0.18 -1.057,0.761 -1.122,1.286 -0.721,0.55 -0.381,1.1 -0.34,1.697 0.316,-0.372 0.907,-1.526 0.915,0.098 0.307,-1.318 1.307,-1.33 1.307,-0.079 v 0.381 l -0.67,0.589 h 1.176 1.176 l -0.67,-0.589 v -0.381 c 0,-1.251 1,-1.239 1.307,0.079 0.008,-1.624 0.599,-0.47 0.915,-0.098 0.041,-0.598 0.381,-1.148 -0.34,-1.697 -0.065,-0.525 -0.158,-1.107 -1.122,-1.286 -0.139,-0.699 -0.784,-0.943 -1.266,-0.943 z"
         stroke-width="0.175"
         class="H"
         id="path523" />
      <path
         d="m 102.612,154.027 2.388,0.78 2.388,-0.78 m -3.654,-1.287 1.266,2.066 1.266,-2.066"
         class="J P"
         id="path525" />
    </g>
  </g>
</svg>
