<?xml version="1.0" encoding="UTF-8"?>
<svg xmlns="http://www.w3.org/2000/svg" xmlns:xlink="http://www.w3.org/1999/xlink" width="1048.1pt" height="1226pt" viewBox="0 0 1048.1 1226" version="1.1">
<g id="surface1">
<path style=" stroke:none;fill-rule:evenodd;fill:rgb(100%,92.576599%,0%);fill-opacity:1;" d="M 1024.398438 308.078125 C 1017.859375 320.941406 1012.898438 335.671875 1008.679688 349.457031 C 998.078125 384.007813 992.171875 420.460938 992.171875 456.625 C 992.171875 496.03125 1000.539063 533.789063 1010.28125 571.746094 C 1023.351563 622.660156 1036.351563 671.363281 1039.039063 724.238281 C 1042.230469 787.070313 1031.828125 850.898438 1005.988281 908.433594 C 973.488281 980.8125 919.800781 1037.152344 852.140625 1077.851563 C 807.929688 1104.445313 757.105469 1117.054688 707.449219 1129.054688 C 662.421875 1139.933594 592.828125 1154.046875 559.867188 1188.527344 L 524.058594 1225.980469 L 488.253906 1188.527344 C 455.289063 1154.046875 385.699219 1139.933594 340.671875 1129.054688 C 291.015625 1117.054688 240.191406 1104.445313 195.980469 1077.851563 C 128.320313 1037.152344 74.628906 980.8125 42.132813 908.433594 C 16.296875 850.898438 5.894531 787.070313 9.085938 724.238281 C 11.769531 671.363281 24.773438 622.660156 37.84375 571.746094 C 47.589844 533.789063 55.953125 496.03125 55.953125 456.625 C 55.953125 420.460938 50.039063 384.007813 39.441406 349.457031 C 35.214844 335.671875 30.265625 320.941406 23.726563 308.078125 L 0.00390625 261.429688 L 47.878906 240.300781 C 138.3125 200.390625 195.851563 139.46875 238.671875 51.179688 L 248.925781 30.03125 L 271.796875 24.601563 C 310.8125 15.339844 350.761719 9.769531 390.65625 5.988281 C 434.984375 1.800781 479.539063 -0.0585938 524.058594 -0.0585938 C 568.585938 -0.0585938 613.132813 1.800781 657.464844 5.988281 C 697.359375 9.769531 737.308594 15.339844 776.324219 24.601563 L 799.195313 30.03125 L 809.453125 51.179688 C 852.269531 139.46875 909.808594 200.390625 1000.238281 240.300781 L 1048.121094 261.429688 Z M 1024.398438 308.078125 "/>
<path style=" stroke:none;fill-rule:evenodd;fill:rgb(0%,0.784302%,0%);fill-opacity:1;" d="M 995.53125 293.398438 C 988.371094 307.488281 982.328125 324.949219 977.71875 339.964844 C 966.191406 377.558594 959.789063 417.285156 959.789063 456.625 C 959.789063 499.296875 968.378906 538.742188 978.921875 579.796875 C 991.519531 628.875 1004.109375 674.8125 1006.699219 725.882813 C 1009.628906 783.632813 1000.210938 842.269531 976.460938 895.171875 C 946.671875 961.5 897.46875 1012.800781 835.449219 1050.105469 C 794.808594 1074.550781 745.585938 1086.53125 699.84375 1097.582031 C 646.605469 1110.445313 575.640625 1125.179688 536.464844 1166.152344 L 524.058594 1179.125 L 511.65625 1166.152344 C 472.480469 1125.179688 401.515625 1110.445313 348.273438 1097.582031 C 302.535156 1086.53125 253.308594 1074.550781 212.671875 1050.105469 C 150.648438 1012.800781 101.449219 961.5 71.667969 895.171875 C 47.917969 842.269531 38.488281 783.632813 41.421875 725.882813 C 44.015625 674.8125 56.605469 628.875 69.207031 579.796875 C 79.742188 538.742188 88.332031 499.296875 88.332031 456.625 C 88.332031 417.285156 81.925781 377.558594 70.398438 339.964844 C 65.796875 324.949219 59.753906 307.488281 52.589844 293.398438 L 44.367188 277.238281 L 60.957031 269.921875 C 158.894531 226.691406 221.808594 160.160156 267.800781 65.308594 L 271.355469 57.988281 L 279.277344 56.109375 C 316.660156 47.230469 355.480469 41.851563 393.710938 38.230469 C 436.972656 34.128906 480.605469 32.320313 524.058594 32.320313 C 567.511719 32.320313 611.148438 34.128906 654.410156 38.230469 C 692.640625 41.851563 731.460938 47.230469 768.84375 56.109375 L 776.765625 57.988281 L 780.320313 65.308594 C 826.308594 160.160156 889.230469 226.691406 987.171875 269.921875 L 1003.75 277.238281 Z M 995.53125 293.398438 "/>
<path style=" stroke:none;fill-rule:evenodd;fill:rgb(37.646484%,75.389099%,96.09375%);fill-opacity:1;" d="M 283.242188 72.800781 C 239.851563 162.28125 177.613281 237.191406 67.882813 285.621094 C 67.882813 285.621094 105.488281 359.488281 105.488281 456.625 C 105.488281 555.152344 63.59375 627.648438 58.558594 726.75 C 53.464844 827.082031 86.039063 953.914063 221.515625 1035.402344 C 311.234375 1089.367188 454.242188 1081.273438 524.058594 1154.292969 C 593.878906 1081.273438 736.886719 1089.367188 826.609375 1035.402344 C 962.078125 953.914063 994.660156 827.082031 989.558594 726.75 C 984.53125 627.648438 942.628906 555.152344 942.628906 456.625 C 942.628906 359.488281 980.238281 285.621094 980.238281 285.621094 C 870.511719 237.191406 808.269531 162.28125 764.878906 72.800781 C 633.933594 41.710938 414.183594 41.710938 283.242188 72.800781 Z M 283.242188 72.800781 "/>
<path style=" stroke:none;fill-rule:evenodd;fill:rgb(0%,0.784302%,0%);fill-opacity:1;" d="M 524.171875 198.109375 L 907.511719 476.628906 L 761.089844 927.277344 L 287.246094 927.277344 L 140.820313 476.628906 Z M 524.171875 198.109375 "/>
<path style=" stroke:none;fill-rule:evenodd;fill:rgb(10.205078%,28.24707%,68.164063%);fill-opacity:1;" d="M 524.171875 213.238281 L 708.644531 347.273438 L 893.128906 481.304688 L 822.660156 698.171875 L 752.195313 915.042969 L 296.136719 915.042969 L 225.671875 698.171875 L 155.214844 481.304688 L 339.6875 347.273438 Z M 524.171875 213.238281 "/>
<path style=" stroke:none;fill-rule:evenodd;fill:rgb(100%,92.576599%,0%);fill-opacity:1;" d="M 327.429688 425.679688 C 320.796875 434.664063 314.679688 443.992188 309.117188 453.609375 C 324.996094 441.648438 345.054688 450.914063 345.054688 450.914063 C 345.054688 450.914063 336.824219 465.410156 322.78125 466.621094 C 313.378906 467.429688 306.847656 465.199219 303.5625 463.636719 C 300.183594 470.027344 297.039063 476.527344 294.136719 483.121094 C 308.546875 471.328125 328.074219 477.921875 328.074219 477.921875 C 328.074219 477.921875 321.433594 493.214844 307.605469 495.917969 C 299.09375 497.582031 292.730469 496.433594 289.089844 495.300781 C 286.847656 501.0625 284.789063 506.882813 282.914063 512.753906 C 294.929688 500.355469 313.6875 502.851563 313.6875 502.851563 C 313.6875 502.851563 310.109375 519.136719 297.054688 524.445313 C 288.945313 527.742188 282.429688 527.808594 278.652344 527.382813 C 277.15625 533.070313 275.828125 538.796875 274.675781 544.550781 C 284.433594 531.914063 301.59375 530.871094 301.59375 530.871094 C 301.59375 530.871094 301.214844 547.539063 289.414063 555.253906 C 281.996094 560.109375 275.539063 561.394531 271.773438 561.683594 C 270.933594 567.761719 270.285156 573.859375 269.839844 579.96875 C 278.152344 566.074219 295.40625 563.199219 295.40625 563.199219 C 295.40625 563.199219 296.761719 579.820313 285.839844 588.71875 C 279.058594 594.238281 272.859375 596.214844 269.121094 596.921875 C 269.097656 598.847656 269.097656 600.773438 269.113281 602.699219 C 269.152344 606.699219 269.28125 610.703125 269.496094 614.699219 C 274.828125 599.019531 291.714844 592.804688 291.714844 592.804688 C 291.714844 592.804688 296.144531 608.882813 287.070313 619.664063 C 280.703125 627.230469 274.214844 630.203125 270.902344 631.300781 C 271.722656 638.324219 272.828125 645.3125 274.21875 652.257813 C 277.691406 636.605469 292.894531 628.386719 292.894531 628.386719 C 292.894531 628.386719 299.570313 643.664063 292.128906 655.628906 C 287.140625 663.644531 281.445313 667.53125 278.226563 669.226563 C 279.921875 675.445313 281.863281 681.613281 284.050781 687.71875 C 285.324219 670.753906 300.898438 660.601563 300.898438 660.601563 C 300.898438 660.601563 308.800781 675.277344 302.363281 687.8125 C 298.148438 696.027344 292.929688 700.355469 289.828125 702.371094 C 292.703125 709.023438 295.886719 715.589844 299.386719 722.042969 C 298.304688 705.421875 311.6875 693.210938 311.6875 693.210938 C 311.6875 693.210938 321.855469 706.417969 317.519531 719.832031 C 314.730469 728.484375 310.367188 733.582031 307.628906 736.105469 C 315.878906 749.175781 325.515625 761.707031 336.597656 773.539063 L 331.890625 777.941406 C 321.285156 766.613281 311.964844 754.660156 303.886719 742.21875 C 277.164063 749.847656 263.839844 723.304688 263.839844 723.304688 C 263.839844 723.304688 279.304688 717.09375 291.046875 724.886719 C 292.671875 725.96875 294.117188 727.074219 295.410156 728.179688 C 291.652344 721.472656 288.226563 714.648438 285.136719 707.722656 C 257.660156 710.808594 248.820313 682.582031 248.820313 682.582031 C 248.820313 682.582031 265.089844 678.945313 275.414063 688.535156 C 276.644531 689.679688 277.742188 690.820313 278.722656 691.941406 C 276.550781 686.042969 274.605469 680.078125 272.886719 674.070313 C 245.621094 674.578125 239.191406 646.03125 239.191406 646.03125 C 239.191406 646.03125 255.703125 643.738281 265.210938 654.140625 C 266.703125 655.777344 267.96875 657.390625 269.039063 658.945313 C 267.285156 651.058594 265.898438 643.105469 264.871094 635.109375 C 238.308594 631.417969 236.046875 602.613281 236.046875 602.613281 C 236.046875 602.613281 252.714844 602.699219 260.640625 614.351563 C 261.664063 615.859375 262.535156 617.324219 263.277344 618.738281 C 262.921875 613.417969 262.714844 608.085938 262.664063 602.75 L 262.652344 600.222656 C 235.613281 592.289063 238.882813 562.449219 238.882813 562.449219 C 238.882813 562.449219 255.246094 565.644531 260.855469 578.570313 C 261.824219 580.804688 262.546875 582.917969 263.0625 584.890625 C 263.4375 577.980469 264.0625 571.074219 264.933594 564.191406 C 239.128906 553.410156 245.453125 524.238281 245.453125 524.238281 C 245.453125 524.238281 261.394531 529.117188 265.632813 542.558594 C 266.394531 544.976563 266.894531 547.242188 267.210938 549.328125 C 268.441406 542.421875 269.921875 535.550781 271.648438 528.734375 C 247.949219 513.234375 259.863281 485.566406 259.863281 485.566406 C 259.863281 485.566406 274.570313 493.417969 276.148438 507.417969 C 276.324219 508.984375 276.414063 510.46875 276.433594 511.875 C 278.171875 506.371094 280.0625 500.910156 282.109375 495.5 C 261.421875 475.703125 278.570313 450.621094 278.570313 450.621094 C 278.570313 450.621094 291.496094 461.148438 290.355469 475.195313 L 290.285156 475.984375 C 292.347656 471.496094 294.519531 467.054688 296.800781 462.660156 C 279.511719 441.011719 298.753906 418.480469 298.753906 418.480469 C 298.753906 418.480469 309.726563 429.570313 308.058594 442.824219 C 312.339844 435.894531 316.90625 429.121094 321.746094 422.53125 C 322.9375 397.160156 349.945313 391.234375 349.945313 391.234375 C 349.945313 391.234375 352.140625 407.761719 341.683594 417.207031 C 336.269531 422.097656 331.128906 424.5 327.429688 425.679688 Z M 327.429688 425.679688 "/>
<path style=" stroke:none;fill-rule:evenodd;fill:rgb(100%,100%,100%);fill-opacity:1;" d="M 329.816406 593.746094 L 330.1875 593.511719 C 356.347656 576.921875 382.464844 560.25 408.550781 543.546875 C 423.394531 534.042969 438.230469 524.523438 453.023438 514.941406 C 462.714844 508.671875 472.503906 502.402344 482.023438 495.882813 C 513.753906 474.152344 535.910156 474.152344 567.640625 495.882813 C 577.15625 502.402344 586.945313 508.667969 596.628906 514.933594 C 611.425781 524.519531 626.265625 534.042969 641.113281 543.550781 C 666.761719 559.972656 692.441406 576.34375 718.148438 592.671875 L 718.242188 592.730469 C 716.109375 544.1875 696.039063 498.453125 661.503906 463.917969 C 653.316406 455.726563 644.402344 448.273438 634.894531 441.660156 L 628.539063 437.242188 L 633.03125 430.941406 C 639.808594 421.425781 646.589844 411.910156 653.371094 402.394531 L 658.164063 395.660156 L 693.144531 424.914063 L 679.492188 441.230469 C 680.289063 442 681.078125 442.777344 681.859375 443.5625 C 723.84375 485.546875 747.226563 541.984375 747.226563 601.367188 C 747.226563 649.601563 731.804688 695.886719 703.515625 734.066406 L 760.796875 786.933594 L 755.59375 793.203125 C 749.609375 800.417969 743.296875 807.355469 736.664063 813.980469 C 680.148438 870.5 603.984375 902.046875 524.054688 902.046875 C 444.128906 902.046875 367.960938 870.5 311.441406 813.980469 C 304.8125 807.355469 298.496094 800.417969 292.511719 793.203125 L 287.308594 786.933594 L 344.589844 734.066406 C 316.304688 695.886719 300.878906 649.601563 300.878906 601.367188 C 300.878906 541.984375 324.261719 485.542969 366.246094 443.558594 C 367.027344 442.777344 367.816406 442 368.613281 441.230469 L 354.964844 424.914063 L 389.941406 395.664063 L 394.738281 402.394531 C 401.515625 411.910156 408.296875 421.425781 415.074219 430.941406 L 419.566406 437.242188 L 413.214844 441.660156 C 403.703125 448.273438 394.796875 455.726563 386.601563 463.917969 C 351.824219 498.695313 331.714844 544.824219 329.816406 593.746094 Z M 329.816406 593.746094 "/>
<path style=" stroke:none;fill-rule:evenodd;fill:rgb(0%,36.863708%,13.330078%);fill-opacity:1;" d="M 748.984375 787.71875 C 743.195313 794.695313 737.066406 801.433594 730.59375 807.90625 C 675.6875 862.8125 601.714844 893.457031 524.054688 893.457031 C 446.390625 893.457031 372.421875 862.8125 317.515625 807.90625 C 311.046875 801.433594 304.910156 794.695313 299.121094 787.71875 L 351.761719 739.136719 C 356.835938 745.464844 362.273438 751.546875 368.074219 757.347656 C 409.574219 798.84375 465.355469 821.953125 524.054688 821.953125 C 582.753906 821.953125 638.53125 798.84375 680.03125 757.347656 C 685.835938 751.546875 691.273438 745.460938 696.34375 739.132813 Z M 748.984375 787.71875 "/>
<path style=" stroke:none;fill-rule:evenodd;fill:rgb(0%,0.784302%,0%);fill-opacity:1;" d="M 390.222656 432.425781 L 385.992188 426.488281 L 374.378906 436.203125 L 365.734375 425.875 L 388.507813 406.832031 C 395.289063 416.347656 402.066406 425.863281 408.847656 435.378906 C 398.949219 442.265625 389.691406 450.007813 381.195313 458.507813 C 344.636719 495.066406 322.019531 545.578125 322.019531 601.367188 C 322.019531 657.160156 344.636719 707.667969 381.195313 744.226563 C 417.753906 780.785156 468.261719 803.398438 524.054688 803.398438 C 579.84375 803.398438 630.351563 780.785156 666.914063 744.226563 C 703.472656 707.667969 726.089844 657.160156 726.089844 601.367188 C 726.089844 545.578125 703.472656 495.070313 666.914063 458.507813 C 658.414063 450.007813 649.160156 442.261719 639.257813 435.378906 C 646.039063 425.863281 652.820313 416.347656 659.597656 406.832031 L 682.371094 425.875 L 673.726563 436.203125 L 662.113281 426.488281 L 657.882813 432.425781 C 664.386719 437.582031 670.589844 443.105469 676.453125 448.96875 C 715.453125 487.972656 739.578125 541.851563 739.578125 601.367188 C 739.578125 660.882813 715.453125 714.765625 676.453125 753.765625 C 637.449219 792.769531 583.566406 816.890625 524.054688 816.890625 C 464.539063 816.890625 410.65625 792.765625 371.65625 753.765625 C 332.652344 714.765625 308.527344 660.882813 308.527344 601.367188 C 308.527344 541.851563 332.652344 487.972656 371.65625 448.96875 C 377.519531 443.105469 383.71875 437.582031 390.222656 432.425781 Z M 390.222656 432.425781 "/>
<path style=" stroke:none;fill-rule:evenodd;fill:rgb(0%,0.784302%,0%);fill-opacity:1;" d="M 460.820313 788.847656 C 469.9375 785.28125 474.476563 777.535156 487.78125 777.453125 C 504.945313 777.558594 507.519531 790.425781 524.160156 790.605469 C 540.800781 790.425781 543.371094 777.558594 560.539063 777.453125 C 573.789063 777.535156 578.347656 785.21875 587.390625 788.804688 C 583.871094 789.992188 580.316406 791.082031 576.726563 792.070313 C 571.757813 788.816406 567.460938 785.570313 560.539063 785.515625 C 546.703125 785.621094 543.34375 798.503906 524.160156 798.671875 C 504.976563 798.503906 501.617188 785.621094 487.78125 785.515625 C 480.828125 785.570313 476.523438 788.847656 471.523438 792.117188 C 467.925781 791.128906 464.355469 790.039063 460.820313 788.847656 Z M 404.0625 758.652344 C 407.0625 757.339844 410.546875 756.445313 415.019531 756.417969 C 432.1875 756.523438 434.757813 769.390625 451.398438 769.570313 C 468.039063 769.390625 470.613281 756.523438 487.78125 756.417969 C 504.945313 756.523438 507.519531 769.390625 524.160156 769.570313 C 540.800781 769.390625 543.371094 756.523438 560.539063 756.417969 C 577.710938 756.523438 580.277344 769.390625 596.921875 769.570313 C 613.558594 769.390625 616.132813 756.523438 633.296875 756.417969 C 637.699219 756.445313 641.144531 757.3125 644.109375 758.585938 C 641.371094 760.683594 638.589844 762.703125 635.757813 764.644531 C 634.976563 764.542969 634.15625 764.488281 633.296875 764.480469 C 619.464844 764.585938 616.101563 777.46875 596.921875 777.636719 C 577.734375 777.46875 574.378906 764.585938 560.539063 764.480469 C 546.703125 764.585938 543.34375 777.46875 524.160156 777.636719 C 504.976563 777.46875 501.617188 764.585938 487.78125 764.480469 C 473.941406 764.585938 470.589844 777.46875 451.398438 777.636719 C 432.214844 777.46875 428.855469 764.585938 415.019531 764.480469 C 414.09375 764.488281 413.214844 764.554688 412.371094 764.667969 C 409.554688 762.738281 406.785156 760.734375 404.0625 758.652344 Z M 342.261719 651.246094 C 359.425781 651.351563 362.003906 664.21875 378.640625 664.398438 C 395.28125 664.21875 397.855469 651.351563 415.019531 651.246094 C 432.1875 651.351563 434.757813 664.21875 451.398438 664.398438 C 468.039063 664.21875 470.613281 651.351563 487.78125 651.246094 C 504.945313 651.351563 507.519531 664.21875 524.160156 664.398438 C 540.800781 664.21875 543.371094 651.351563 560.539063 651.246094 C 577.710938 651.351563 580.277344 664.21875 596.921875 664.398438 C 613.558594 664.21875 616.132813 651.351563 633.296875 651.246094 C 650.464844 651.351563 653.039063 664.21875 669.679688 664.398438 C 686.316406 664.21875 688.890625 651.351563 706.058594 651.246094 C 709.617188 651.265625 712.546875 651.835938 715.105469 652.730469 C 714.402344 655.34375 713.652344 657.945313 712.84375 660.523438 C 710.835938 659.789063 708.628906 659.328125 706.058594 659.308594 C 692.222656 659.410156 688.863281 672.296875 669.679688 672.464844 C 650.492188 672.296875 647.132813 659.410156 633.296875 659.308594 C 619.464844 659.410156 616.101563 672.296875 596.921875 672.464844 C 577.734375 672.296875 574.378906 659.410156 560.539063 659.308594 C 546.703125 659.410156 543.34375 672.296875 524.160156 672.464844 C 504.976563 672.296875 501.617188 659.410156 487.78125 659.308594 C 473.941406 659.410156 470.589844 672.296875 451.398438 672.464844 C 432.214844 672.296875 428.855469 659.410156 415.019531 659.308594 C 401.183594 659.410156 397.824219 672.296875 378.640625 672.464844 C 359.460938 672.296875 356.097656 659.410156 342.261719 659.308594 C 339.605469 659.328125 337.339844 659.820313 335.269531 660.601563 C 334.464844 658.019531 333.710938 655.421875 333.003906 652.804688 C 335.613281 651.871094 338.605469 651.269531 342.261719 651.246094 Z M 342.261719 672.28125 C 359.425781 672.386719 362.003906 685.253906 378.640625 685.433594 C 395.28125 685.253906 397.855469 672.386719 415.019531 672.28125 C 432.1875 672.386719 434.757813 685.253906 451.398438 685.433594 C 468.039063 685.253906 470.613281 672.386719 487.78125 672.28125 C 504.945313 672.386719 507.519531 685.253906 524.160156 685.433594 C 540.800781 685.253906 543.371094 672.386719 560.539063 672.28125 C 577.710938 672.386719 580.277344 685.253906 596.921875 685.433594 C 613.558594 685.253906 616.132813 672.386719 633.296875 672.28125 C 650.464844 672.386719 653.039063 685.253906 669.679688 685.433594 C 686.316406 685.253906 688.890625 672.386719 706.058594 672.28125 C 706.984375 672.285156 707.863281 672.332031 708.710938 672.40625 C 707.679688 675.082031 706.589844 677.730469 705.449219 680.359375 C 692.117188 680.828125 688.574219 693.335938 669.679688 693.5 C 650.492188 693.332031 647.132813 680.445313 633.296875 680.34375 C 619.464844 680.445313 616.101563 693.332031 596.921875 693.5 C 577.734375 693.332031 574.378906 680.445313 560.539063 680.34375 C 546.703125 680.445313 543.34375 693.332031 524.160156 693.5 C 504.976563 693.332031 501.617188 680.445313 487.78125 680.34375 C 473.941406 680.445313 470.589844 693.332031 451.398438 693.5 C 432.214844 693.332031 428.855469 680.445313 415.019531 680.34375 C 401.183594 680.445313 397.824219 693.332031 378.640625 693.5 C 359.632813 693.332031 356.160156 680.683594 342.640625 680.351563 C 341.503906 677.734375 340.410156 675.09375 339.386719 672.425781 C 340.300781 672.339844 341.253906 672.285156 342.261719 672.28125 Z M 349.320313 694.191406 C 360.570313 697.113281 364.589844 706.316406 378.640625 706.46875 C 395.28125 706.289063 397.855469 693.417969 415.019531 693.3125 C 432.1875 693.417969 434.757813 706.289063 451.398438 706.46875 C 468.039063 706.289063 470.613281 693.417969 487.78125 693.3125 C 504.945313 693.417969 507.519531 706.289063 524.160156 706.46875 C 540.800781 706.289063 543.371094 693.417969 560.539063 693.3125 C 577.710938 693.417969 580.277344 706.289063 596.921875 706.46875 C 613.558594 706.289063 616.132813 693.417969 633.296875 693.3125 C 650.464844 693.417969 653.039063 706.289063 669.679688 706.46875 C 683.617188 706.316406 687.6875 697.265625 698.730469 694.265625 C 696.433594 698.578125 693.976563 702.808594 691.355469 706.949219 C 686.003906 710.496094 680.234375 714.441406 669.679688 714.535156 C 650.492188 714.367188 647.132813 701.480469 633.296875 701.378906 C 619.464844 701.480469 616.101563 714.367188 596.921875 714.535156 C 577.734375 714.367188 574.378906 701.480469 560.539063 701.378906 C 546.703125 701.480469 543.34375 714.367188 524.160156 714.535156 C 504.976563 714.367188 501.617188 701.480469 487.78125 701.378906 C 473.941406 701.480469 470.589844 714.367188 451.398438 714.535156 C 432.214844 714.367188 428.855469 701.480469 415.019531 701.378906 C 401.183594 701.480469 397.824219 714.367188 378.640625 714.535156 C 367.824219 714.4375 362.039063 710.300781 356.566406 706.691406 C 353.996094 702.609375 351.578125 698.441406 349.320313 694.191406 Z M 370.628906 726.25 C 372.9375 726.996094 375.546875 727.46875 378.640625 727.503906 C 395.28125 727.324219 397.855469 714.453125 415.019531 714.347656 C 432.1875 714.453125 434.757813 727.324219 451.398438 727.503906 C 468.039063 727.324219 470.613281 714.453125 487.78125 714.347656 C 504.945313 714.453125 507.519531 727.324219 524.160156 727.503906 C 540.800781 727.324219 543.371094 714.453125 560.539063 714.347656 C 577.710938 714.453125 580.277344 727.324219 596.921875 727.503906 C 613.558594 727.324219 616.132813 714.453125 633.296875 714.347656 C 650.464844 714.453125 653.039063 727.324219 669.679688 727.503906 C 672.636719 727.46875 675.148438 727.035156 677.382813 726.34375 C 674.816406 729.488281 672.140625 732.5625 669.371094 735.5625 C 650.464844 735.261719 647.058594 722.515625 633.296875 722.414063 C 619.464844 722.515625 616.101563 735.402344 596.921875 735.570313 C 577.734375 735.402344 574.378906 722.515625 560.539063 722.414063 C 546.703125 722.515625 543.34375 735.402344 524.160156 735.570313 C 504.976563 735.402344 501.617188 722.515625 487.78125 722.414063 C 473.941406 722.515625 470.589844 735.402344 451.398438 735.570313 C 432.214844 735.402344 428.855469 722.515625 415.019531 722.414063 C 401.203125 722.515625 397.835938 735.363281 378.722656 735.566406 C 375.921875 732.535156 373.222656 729.425781 370.628906 726.25 Z M 389.351563 746.234375 C 397.636719 742.484375 402.359375 735.460938 415.019531 735.382813 C 432.1875 735.488281 434.757813 748.359375 451.398438 748.539063 C 468.039063 748.359375 470.613281 735.488281 487.78125 735.382813 C 504.945313 735.488281 507.519531 748.359375 524.160156 748.539063 C 540.800781 748.359375 543.371094 735.488281 560.539063 735.382813 C 577.710938 735.488281 580.277344 748.359375 596.921875 748.539063 C 613.558594 748.359375 616.132813 735.488281 633.296875 735.382813 C 645.878906 735.460938 650.621094 742.394531 658.8125 746.164063 C 656.722656 748.109375 654.59375 750.003906 652.433594 751.851563 C 646.066406 748.109375 641.546875 743.507813 633.296875 743.449219 C 619.464844 743.550781 616.101563 756.4375 596.921875 756.605469 C 577.734375 756.4375 574.378906 743.550781 560.539063 743.449219 C 546.703125 743.550781 543.34375 756.4375 524.160156 756.605469 C 504.976563 756.4375 501.617188 743.550781 487.78125 743.449219 C 473.941406 743.550781 470.589844 756.4375 451.398438 756.605469 C 432.214844 756.4375 428.855469 743.550781 415.019531 743.449219 C 406.71875 743.507813 402.1875 748.171875 395.746094 751.929688 C 393.578125 750.082031 391.445313 748.183594 389.351563 746.234375 Z M 389.351563 746.234375 "/>
<path style=" stroke:none;fill-rule:evenodd;fill:rgb(15.281677%,3.921509%,28.637695%);fill-opacity:1;" d="M 335.277344 610.769531 L 335.277344 601.539063 C 335.277344 601.539063 462.773438 520.589844 487.394531 503.726563 C 515.851563 484.230469 533.808594 484.230469 562.269531 503.726563 C 585.421875 519.582031 699.503906 592.085938 713.054688 600.695313 L 713.058594 601.367188 C 713.058594 609.128906 712.589844 616.828125 711.660156 624.433594 C 565.734375 585.988281 482.855469 586.117188 336.492188 624.828125 C 335.914063 620.175781 335.511719 615.484375 335.277344 610.769531 Z M 335.277344 610.769531 "/>
<path style=" stroke:none;fill-rule:evenodd;fill:rgb(100%,92.576599%,0%);fill-opacity:1;" d="M 342.320313 653.441406 C 420.796875 657.851563 505.621094 642.945313 571.394531 646.625 C 607.507813 648.648438 652.46875 660.285156 705.488281 654.480469 C 707.636719 647.117188 709.34375 639.605469 710.585938 631.988281 C 649.617188 615.886719 588.171875 603.277344 524.835938 603.277344 C 460.976563 603.277344 399.046875 616.09375 337.589844 632.382813 C 338.765625 639.507813 340.347656 646.539063 342.320313 653.441406 Z M 342.320313 653.441406 "/>
<path style=" stroke:none;fill-rule:evenodd;fill:rgb(0%,0.784302%,0%);fill-opacity:1;" d="M 464.09375 642.769531 L 464.855469 642.773438 L 466.21875 644.644531 C 471.597656 652.015625 476.960938 659.402344 482.308594 666.792969 C 492.035156 680.222656 501.753906 701.953125 497.578125 718.957031 C 496.761719 722.289063 494.871094 725.015625 491.671875 726.417969 C 488.769531 727.691406 485.839844 727.003906 484.195313 727.710938 C 482.269531 728.535156 482.191406 731.234375 481.175781 733.40625 C 479.914063 736.101563 475.441406 737.117188 469.03125 735.429688 C 462.628906 733.746094 453.644531 729.496094 453.644531 729.496094 C 438.40625 721.941406 419.730469 703.507813 408.109375 689.933594 C 360.566406 680.425781 352.066406 635.398438 353.402344 593.351563 L 353.671875 585.023438 L 369.390625 595.683594 C 372.1875 583.746094 379.515625 567.199219 383.066406 559.589844 C 384.046875 557.488281 385.0625 555.402344 386.109375 553.332031 C 393.101563 539.492188 401.410156 526.34375 410.03125 513.46875 C 415.410156 505.4375 421.371094 497.226563 426.515625 488.910156 C 422.488281 492.679688 416.4375 494.640625 409.402344 494.3125 C 406.171875 494.160156 403.117188 493.1875 400.445313 491.351563 C 385.890625 481.347656 389.671875 454.628906 401.101563 443.195313 C 415.003906 429.292969 435.445313 429.347656 452.035156 438.488281 C 469.820313 448.289063 469.644531 471 464.464844 487.953125 C 461.945313 496.1875 458.894531 504.386719 455.972656 512.488281 C 451.988281 523.53125 448.011719 534.570313 444.253906 545.691406 C 440.871094 555.695313 437.898438 566.722656 435.703125 577.609375 L 445.753906 567 L 448.347656 573.835938 C 457.058594 596.789063 464.976563 614.875 464.175781 640.097656 Z M 431.34375 480.289063 C 434.273438 474.15625 438.195313 463.835938 432.84375 462.136719 C 432.234375 461.941406 430.195313 461.449219 429.609375 461.964844 C 428.648438 462.8125 429.808594 466.691406 430.152344 467.59375 C 430.585938 468.734375 430.925781 469.910156 431.183594 471.101563 C 431.90625 474.472656 431.921875 477.550781 431.34375 480.289063 Z M 431.34375 480.289063 "/>
<path style=" stroke:none;fill-rule:evenodd;fill:rgb(100%,100%,100%);fill-opacity:1;" d="M 409.617188 489.726563 C 426.339844 490.507813 429.277344 478.273438 425.855469 469.214844 C 422.4375 460.15625 426.714844 455.371094 434.234375 457.761719 C 435.464844 458.152344 436.503906 458.757813 437.355469 459.566406 L 437.359375 459.566406 C 437.359375 459.566406 444.402344 463.65625 443.726563 475.207031 C 443.054688 486.757813 431.839844 504.382813 419.023438 540.808594 C 406.210938 577.238281 409.578125 602.535156 409.578125 602.535156 L 375.933594 599.167969 C 379.21875 626.265625 386.804688 641.394531 407.824219 670.164063 C 392.695313 658.59375 377.320313 637.8125 369.996094 601.28125 L 357.988281 593.5 C 356.714844 633.59375 364.152344 677.398438 410.554688 685.726563 C 410.554688 685.726563 435.683594 715.46875 455.683594 725.382813 C 475.683594 735.300781 478.421875 733.074219 478.421875 725.898438 C 478.421875 718.71875 490.730469 727.605469 493.121094 717.863281 C 495.515625 708.117188 492.949219 689.3125 478.589844 669.484375 C 470.433594 658.222656 465.367188 651.261719 462.511719 647.351563 C 426.476563 647.132813 417.679688 677.386719 417.679688 677.386719 C 420.851563 650.789063 443.703125 642.828125 456.527344 640.449219 C 443.578125 624.554688 435.738281 613.699219 431.980469 603.429688 L 431.996094 603.460938 C 435.257813 601.332031 438.894531 598.988281 441.03125 597.726563 C 445.589844 595.027344 446.261719 592.582031 441.285156 584.574219 L 430.113281 596.839844 C 427.414063 583.347656 431.453125 569.21875 439.902344 544.222656 C 448.109375 519.949219 456.3125 498.921875 460.074219 486.613281 C 463.839844 474.304688 466.574219 451.742188 449.820313 442.507813 C 433.066406 433.277344 415.460938 435.328125 404.347656 446.4375 C 391.089844 459.695313 392.894531 488.949219 409.617188 489.726563 Z M 437.847656 659.816406 C 437.863281 659.804688 443.335938 654.148438 455.476563 653.214844 L 455.882813 658.664063 C 445.808594 659.4375 441.726563 663.675781 441.714844 663.683594 Z M 444.84375 690.210938 C 449.003906 690.210938 452.367188 693.578125 452.367188 697.734375 C 452.367188 701.886719 449.003906 705.257813 444.84375 705.257813 C 440.691406 705.257813 437.324219 701.886719 437.324219 697.734375 C 437.324219 693.578125 440.691406 690.210938 444.84375 690.210938 Z M 444.84375 690.210938 "/>
<path style=" stroke:none;fill-rule:evenodd;fill:rgb(0%,0.784302%,0%);fill-opacity:1;" d="M 549.734375 721.96875 C 542.835938 717.414063 537.472656 709.972656 536.027344 701.980469 C 534.859375 695.511719 534.152344 684.667969 537.300781 678.503906 L 540.097656 673.015625 L 544.546875 677.257813 C 554.09375 686.242188 570.628906 689.464844 583.183594 687.519531 C 604.761719 684.179688 606.308594 658.015625 605.941406 640.886719 C 605.78125 633.429688 605.4375 625.878906 604.921875 618.386719 L 585.6875 633.152344 L 585.371094 624.257813 C 584.761719 607.378906 583.671875 587.253906 585.046875 570.59375 C 585.800781 561.367188 588.574219 552.722656 591.558594 544.035156 C 585.453125 534.40625 583.835938 516.875 584.703125 505.683594 C 586.050781 488.402344 589.386719 469.902344 593.414063 453.035156 L 595.269531 445.265625 L 601.019531 450.753906 C 602.433594 452.074219 605.734375 454.453125 607.816406 454.714844 C 609.609375 453.445313 612.121094 447.609375 612.796875 445.769531 L 615.039063 439.6875 L 620.027344 443.816406 C 631.65625 453.410156 651.722656 472.140625 657.585938 485.855469 C 662.035156 496.285156 664.558594 511.003906 664.546875 522.695313 C 675.894531 539.636719 686.101563 564.28125 687.121094 584.394531 C 688.089844 603.566406 685.871094 626.710938 681.4375 645.546875 L 679.367188 654.355469 L 666.023438 638.757813 C 660.816406 654.636719 652.003906 671.933594 643.746094 684.992188 C 620.429688 721.882813 587.503906 749.722656 545.898438 763.859375 L 540.480469 765.699219 L 539.863281 760.019531 C 539.089844 753.082031 540.628906 743.898438 542.546875 737.316406 C 543.933594 732.566406 546.480469 726.675781 549.734375 721.96875 Z M 549.734375 721.96875 "/>
<path style=" stroke:none;fill-rule:evenodd;fill:rgb(100%,100%,100%);fill-opacity:1;" d="M 544.421875 759.511719 C 544.421875 759.511719 543.410156 750.746094 546.953125 738.601563 C 550.492188 726.460938 556.902344 720.558594 556.902344 720.558594 C 556.902344 720.558594 543.074219 715.160156 540.546875 701.164063 C 538.015625 687.164063 541.386719 680.585938 541.386719 680.585938 C 541.386719 680.585938 557.746094 696.105469 583.886719 692.054688 C 610.023438 688.007813 610.867188 656.472656 610.53125 640.789063 C 610.253906 627.707031 608.78125 615.640625 608.238281 603.898438 L 593.746094 614.320313 C 593.746094 614.320313 591.722656 608 595.769531 605.46875 C 597.753906 604.230469 602.96875 600.605469 607.777344 597.226563 C 605.980469 577.335938 600.570313 556.566406 598.648438 549.621094 C 612.898438 552.925781 636.175781 553.46875 654.035156 530.160156 C 654.035156 530.160156 624.6875 557.300781 594.734375 540.554688 C 592.1875 535.003906 587.964844 522.957031 589.277344 506.042969 C 591.132813 482.261719 597.878906 454.101563 597.878906 454.101563 C 597.878906 454.101563 603.445313 459.328125 608.171875 459.328125 C 612.890625 459.328125 617.105469 447.355469 617.105469 447.355469 C 617.105469 447.355469 646.449219 471.46875 653.363281 487.660156 C 660.277344 503.847656 659.9375 524.085938 659.9375 524.085938 C 659.9375 524.085938 681.019531 554.609375 682.535156 584.628906 C 684.054688 614.644531 676.972656 644.496094 676.972656 644.496094 L 665.445313 631.023438 C 667.257813 621.460938 668.617188 611.503906 669.128906 601.675781 C 671.492188 556.480469 660.695313 536.921875 660.695313 536.921875 C 660.695313 536.921875 669.066406 576.011719 661.378906 619.550781 L 637.089844 619.550781 C 643.691406 690.589844 611.265625 736.796875 544.421875 759.511719 Z M 632.785156 483.964844 C 637.003906 486.246094 639.867188 490.707031 639.867188 495.839844 C 639.867188 503.289063 633.828125 509.332031 626.378906 509.332031 C 618.925781 509.332031 612.886719 503.289063 612.886719 495.839844 C 612.886719 492.0625 614.4375 488.648438 616.941406 486.199219 C 617.941406 489.53125 621.03125 491.960938 624.691406 491.960938 C 629.128906 491.960938 632.730469 488.390625 632.785156 483.964844 Z M 607.472656 529.539063 C 607.480469 529.550781 610.886719 533.65625 623.902344 531.386719 L 624.808594 536.695313 C 608.820313 539.484375 603.480469 533.160156 603.464844 533.144531 Z M 577.71875 733.003906 C 571.046875 722.710938 568.027344 714.5625 573.214844 702.289063 L 577.898438 704.085938 C 573.675781 713.824219 577.054688 722.152344 582.496094 730.15625 Z M 577.71875 733.003906 "/>
<path style=" stroke:none;fill-rule:evenodd;fill:rgb(0%,0.784302%,0%);fill-opacity:1;" d="M 572.097656 604.429688 L 565.238281 596.96875 C 558.59375 589.746094 547.996094 575.6875 545.898438 566.136719 C 544.808594 561.183594 545.015625 558.636719 545.828125 553.722656 C 546.730469 548.273438 546.046875 544.140625 544.230469 538.972656 C 540.605469 528.621094 539.734375 526.046875 539.59375 514.925781 C 539.40625 500.34375 536.574219 485.542969 539.820313 471.097656 C 543.117188 456.429688 546.179688 442.292969 538.539063 428.351563 C 531.945313 416.320313 530.261719 399.800781 529.773438 385.253906 C 520.253906 403.144531 519.050781 410.726563 519.050781 434.875 C 519.050781 441.476563 517.882813 447.375 516.316406 453.742188 C 513.964844 463.328125 512.785156 471.152344 513.496094 481.066406 C 514.753906 498.53125 515.5625 509.433594 508.910156 526.152344 C 506.4375 532.367188 506.335938 537.710938 508.085938 544.128906 C 510.890625 554.417969 512.597656 558.0625 507.824219 568.433594 C 503.8125 577.144531 497.03125 590.175781 490.21875 596.78125 L 482.335938 604.429688 L 518.378906 604.429688 L 518.378906 630.027344 L 516.097656 629.988281 C 509.824219 629.871094 504.277344 632.929688 500.878906 638.207031 C 497.773438 643.011719 496.378906 648.984375 498.527344 654.457031 C 501.730469 662.585938 510.609375 665.71875 518.730469 665.8125 C 537.152344 666.027344 538.921875 647.773438 538.921875 633.535156 L 538.921875 604.429688 Z M 572.097656 604.429688 "/>
<path style=" stroke:none;fill-rule:evenodd;fill:rgb(100%,100%,100%);fill-opacity:1;" d="M 493.320313 599.976563 L 522.828125 599.976563 L 522.828125 636.234375 C 522.828125 636.234375 511.359375 630.164063 504.613281 640.621094 C 497.871094 651.074219 504.277344 661.195313 518.78125 661.363281 C 533.285156 661.53125 534.464844 646.691406 534.464844 633.535156 L 534.464844 599.976563 L 561.960938 599.976563 C 561.960938 599.976563 544.589844 580.917969 541.550781 567.089844 C 538.515625 553.261719 544.585938 553.429688 540.03125 540.445313 C 535.480469 527.457031 535.308594 528.300781 535.140625 514.980469 C 534.972656 501.65625 532.101563 485.128906 535.476563 470.121094 C 538.847656 455.109375 541.378906 442.800781 534.632813 430.488281 C 527.886719 418.179688 527.71875 400.640625 527.71875 400.640625 C 527.71875 400.640625 523.503906 416.492188 523.503906 434.875 C 523.503906 453.257813 516.421875 459.667969 517.9375 480.746094 C 519.460938 501.824219 519.628906 511.269531 513.046875 527.796875 C 506.46875 544.324219 521.648438 549.046875 511.867188 570.296875 C 502.089844 591.542969 493.320313 599.976563 493.320313 599.976563 Z M 493.320313 599.976563 "/>
<path style=" stroke:none;fill-rule:evenodd;fill:rgb(100%,92.576599%,0%);fill-opacity:1;" d="M 524.171875 294.78125 L 533.816406 324.675781 L 565.226563 324.617188 L 539.78125 343.027344 L 549.546875 372.882813 L 524.171875 354.371094 L 498.796875 372.882813 L 508.554688 343.027344 L 483.109375 324.617188 L 514.519531 324.675781 Z M 461.679688 425.035156 L 474.410156 400.074219 L 487.144531 375.113281 L 492.605469 378.765625 L 498.070313 382.417969 Z M 586.660156 424.5625 L 559.949219 375.296875 L 554.585938 379.085938 L 549.214844 382.875 L 567.933594 403.71875 Z M 524.171875 229.511719 L 527.453125 257.339844 L 530.738281 285.160156 L 517.597656 285.160156 L 520.882813 257.339844 Z M 630.925781 320.320313 L 602.960938 318.578125 L 574.992188 316.839844 L 575.355469 323.398438 L 575.71875 329.960938 L 603.320313 325.144531 Z M 417.414063 320.328125 L 445.378906 318.578125 L 473.34375 316.839844 L 472.980469 323.398438 L 472.617188 329.960938 Z M 417.414063 320.328125 "/>
<path style=" stroke:none;fill-rule:evenodd;fill:rgb(100%,100%,100%);fill-opacity:1;" d="M 750.65625 425.640625 C 758.921875 424.96875 762.039063 408.4375 748.464844 406.160156 C 724.019531 402.058594 713.84375 434.976563 729.320313 437.109375 C 737.261719 438.199219 738.65625 432.300781 740.769531 428.476563 C 743.363281 423.773438 745.941406 426.027344 750.65625 425.640625 Z M 750.65625 425.640625 "/>
<path style=" stroke:none;fill-rule:evenodd;fill:rgb(0%,56.443787%,20.776367%);fill-opacity:1;" d="M 742.734375 443.515625 C 745.769531 440.480469 748.890625 442.585938 750.324219 441.660156 C 751.757813 440.734375 751.085938 438.117188 756.058594 436.347656 C 761.03125 434.574219 762.339844 432.339844 762.675781 428.589844 C 763.015625 424.835938 760.863281 421.082031 760.863281 421.082031 C 760.863281 421.082031 757.871094 422.515625 757.492188 425.847656 C 757.113281 429.179688 751.570313 430.199219 749.140625 429.011719 C 746.886719 427.902344 743.15625 427.789063 742.773438 432.425781 C 742.304688 438.191406 732.136719 441.691406 727.34375 440.015625 C 729.265625 447.503906 738.476563 447.773438 742.734375 443.515625 Z M 742.734375 443.515625 "/>
<path style=" stroke:none;fill-rule:evenodd;fill:rgb(100%,100%,100%);fill-opacity:1;" d="M 772.972656 458.742188 C 781.320313 458.871094 786.050781 442.609375 772.664063 439.011719 C 748.570313 432.53125 735.179688 464.527344 750.480469 468.164063 C 758.335938 470.03125 760.300781 464.253906 762.796875 460.625 C 765.847656 456.164063 768.214844 458.671875 772.972656 458.742188 Z M 772.972656 458.742188 "/>
<path style=" stroke:none;fill-rule:evenodd;fill:rgb(0%,56.443787%,20.776367%);fill-opacity:1;" d="M 763.300781 475.886719 C 766.636719 473.140625 769.558594 475.554688 771.089844 474.765625 C 772.613281 473.972656 772.191406 471.289063 777.347656 469.996094 C 782.503906 468.703125 784.03125 466.589844 784.734375 462.863281 C 785.4375 459.136719 783.644531 455.167969 783.644531 455.167969 C 783.644531 455.167969 780.507813 456.3125 779.804688 459.613281 C 779.101563 462.914063 773.445313 463.402344 771.128906 461.972656 C 768.976563 460.644531 765.253906 460.167969 764.421875 464.777344 C 763.386719 470.511719 752.859375 473.03125 748.21875 470.886719 C 749.421875 478.574219 758.628906 479.742188 763.300781 475.886719 Z M 763.300781 475.886719 "/>
<path style=" stroke:none;fill-rule:evenodd;fill:rgb(100%,100%,100%);fill-opacity:1;" d="M 788.261719 498.949219 C 796.613281 499.886719 802.929688 484.050781 789.867188 479.144531 C 766.351563 470.3125 749.828125 501.082031 764.808594 506.210938 C 772.496094 508.839844 775.03125 503.242188 777.878906 499.847656 C 781.371094 495.675781 783.496094 498.417969 788.261719 498.949219 Z M 788.261719 498.949219 "/>
<path style=" stroke:none;fill-rule:evenodd;fill:rgb(0%,56.443787%,20.776367%);fill-opacity:1;" d="M 776.90625 515.191406 C 780.515625 512.761719 783.214844 515.464844 784.816406 514.820313 C 786.421875 514.175781 786.261719 511.445313 791.554688 510.652344 C 796.847656 509.855469 798.585938 507.886719 799.644531 504.21875 C 800.714844 500.550781 799.300781 496.402344 799.300781 496.402344 C 799.300781 496.402344 796.046875 497.242188 795.019531 500.484375 C 793.996094 503.722656 788.285156 503.664063 786.101563 502.007813 C 784.074219 500.46875 780.382813 499.625 779.101563 504.167969 C 777.511719 509.8125 766.71875 511.316406 762.277344 508.71875 C 762.730469 516.539063 771.84375 518.601563 776.90625 515.191406 Z M 776.90625 515.191406 "/>
<path style=" stroke:none;fill-rule:evenodd;fill:rgb(100%,100%,100%);fill-opacity:1;" d="M 789.285156 692.253906 C 796.632813 700.863281 817.421875 691.113281 809.09375 674.269531 C 794.113281 643.941406 749.554688 658.96875 759.554688 677.800781 C 764.691406 687.460938 772.335938 684.289063 778.253906 683.578125 C 785.53125 682.691406 785.09375 687.34375 789.285156 692.253906 Z M 789.285156 692.253906 "/>
<path style=" stroke:none;fill-rule:evenodd;fill:rgb(0%,56.443787%,20.776367%);fill-opacity:1;" d="M 763.175781 697.761719 C 768.964844 698.695313 769.121094 703.832031 771.289063 704.679688 C 773.464844 705.523438 775.816406 702.691406 781.753906 706.785156 C 787.683594 710.875 791.203125 710.535156 795.628906 707.914063 C 800.046875 705.289063 802.484375 699.914063 802.484375 699.914063 C 802.484375 699.914063 798.507813 697.742188 794.515625 699.984375 C 790.527344 702.226563 784.96875 696.90625 784.347656 693.269531 C 783.773438 689.890625 780.921875 685.664063 775.484375 688.949219 C 768.726563 693.035156 756.730469 684.574219 754.757813 677.933594 C 748.007813 686.039063 755.0625 696.453125 763.175781 697.761719 Z M 763.175781 697.761719 "/>
<path style=" stroke:none;fill-rule:evenodd;fill:rgb(100%,100%,100%);fill-opacity:1;" d="M 760.773438 739.4375 C 766.269531 749.808594 789.511719 744.621094 784.882813 725.695313 C 776.546875 691.613281 728.050781 696.789063 733.933594 718.105469 C 736.953125 729.042969 745.40625 727.554688 751.558594 728.167969 C 759.128906 728.910156 757.636719 733.519531 760.773438 739.4375 Z M 760.773438 739.4375 "/>
<path style=" stroke:none;fill-rule:evenodd;fill:rgb(0%,56.443787%,20.776367%);fill-opacity:1;" d="M 733.101563 739.132813 C 738.746094 741.378906 726.019531 753.453125 730.816406 758.25 C 734.851563 761.113281 744.785156 746.972656 749.871094 752.449219 C 754.960938 757.929688 758.59375 758.378906 763.664063 756.71875 C 768.734375 755.0625 772.410156 750.164063 772.410156 750.164063 C 772.410156 750.164063 768.878906 747.074219 764.328125 748.441406 C 759.785156 749.8125 755.355469 743.175781 755.546875 739.355469 C 755.726563 735.800781 753.789063 730.882813 747.546875 732.984375 C 739.78125 735.59375 729.546875 724.328125 729.046875 717.160156 C 720.382813 723.84375 725.183594 735.976563 733.101563 739.132813 Z M 733.101563 739.132813 "/>
<path style=" stroke:none;fill-rule:evenodd;fill:rgb(100%,100%,100%);fill-opacity:1;" d="M 355.480469 818.644531 L 377.226563 787.976563 L 383.492188 792.414063 L 365.453125 817.855469 L 380.960938 828.851563 L 377.253906 834.078125 Z M 419.738281 856.492188 L 412.394531 852.683594 L 413.464844 843.515625 L 399.964844 836.515625 L 393.191406 842.726563 L 385.988281 838.988281 L 416.507813 812.109375 L 423.710938 815.84375 Z M 414.203125 836.679688 L 415.984375 821.800781 L 404.980469 831.902344 Z M 431.65625 860.308594 L 442.132813 823.871094 L 453.183594 827.050781 L 452.566406 853.777344 L 466.171875 830.785156 L 477.242188 833.96875 L 466.765625 870.40625 L 459.949219 868.445313 L 468.171875 839.753906 L 452.738281 866.371094 L 445.648438 864.332031 L 446.746094 833.59375 L 438.472656 862.269531 Z M 482.53125 854.449219 C 482.820313 850.59375 483.648438 847.402344 485.003906 844.867188 C 486.003906 843.003906 487.3125 841.359375 488.914063 839.941406 C 490.515625 838.523438 492.230469 837.511719 494.054688 836.898438 C 496.488281 836.082031 499.246094 835.785156 502.328125 836.019531 C 507.90625 836.441406 512.226563 838.515625 515.320313 842.226563 C 518.398438 845.945313 519.710938 850.886719 519.238281 857.054688 C 518.773438 863.171875 516.753906 867.835938 513.171875 871.03125 C 509.589844 874.238281 505.015625 875.625 499.464844 875.203125 C 493.839844 874.777344 489.492188 872.722656 486.433594 869.03125 C 483.378906 865.347656 482.070313 860.488281 482.53125 854.449219 Z M 490.421875 854.792969 C 490.09375 859.078125 490.839844 862.398438 492.652344 864.765625 C 494.464844 867.125 496.898438 868.425781 499.941406 868.65625 C 502.996094 868.886719 505.578125 867.976563 507.710938 865.933594 C 509.824219 863.882813 511.054688 860.664063 511.386719 856.277344 C 511.714844 851.9375 511.011719 848.628906 509.261719 846.351563 C 507.523438 844.070313 505.078125 842.8125 501.921875 842.574219 C 498.769531 842.335938 496.140625 843.222656 494.054688 845.234375 C 491.964844 847.253906 490.746094 850.433594 490.421875 854.792969 Z M 532.222656 875.777344 L 529.355469 837.972656 L 536.761719 837.410156 L 554.242188 861.566406 L 552.320313 836.230469 L 559.394531 835.695313 L 562.261719 873.5 L 554.617188 874.078125 L 537.410156 850.390625 L 539.296875 875.238281 Z M 591.820313 852.929688 L 590.046875 846.769531 L 605.878906 842.21875 L 610.054688 856.757813 C 608.953125 858.699219 607.097656 860.65625 604.503906 862.640625 C 601.910156 864.617188 599.117188 866.035156 596.109375 866.902344 C 592.304688 867.996094 588.757813 868.152344 585.464844 867.363281 C 582.179688 866.574219 579.390625 864.886719 577.109375 862.320313 C 574.828125 859.753906 573.179688 856.707031 572.175781 853.207031 C 571.085938 849.40625 570.910156 845.800781 571.644531 842.386719 C 572.386719 838.976563 574.058594 836.035156 576.671875 833.574219 C 578.660156 831.691406 581.386719 830.253906 584.863281 829.253906 C 589.382813 827.953125 593.195313 827.890625 596.285156 829.054688 C 599.371094 830.234375 601.761719 832.382813 603.460938 835.535156 L 596.523438 839.015625 C 595.503906 837.371094 594.128906 836.234375 592.410156 835.597656 C 590.703125 834.964844 588.789063 834.957031 586.671875 835.566406 C 583.464844 836.488281 581.203125 838.242188 579.902344 840.828125 C 578.597656 843.414063 578.519531 846.71875 579.671875 850.730469 C 580.921875 855.0625 582.808594 858.035156 585.347656 859.648438 C 587.894531 861.257813 590.71875 861.621094 593.835938 860.726563 C 595.367188 860.285156 596.824219 859.535156 598.191406 858.488281 C 599.570313 857.441406 600.679688 856.320313 601.546875 855.136719 L 600.214844 850.515625 Z M 657.242188 842.546875 L 649.710938 845.953125 L 643.171875 839.433594 L 629.3125 845.695313 L 629.996094 854.855469 L 622.597656 858.199219 L 620.402344 817.589844 L 627.796875 814.25 Z M 638.265625 834.621094 L 627.6875 824 L 628.800781 838.894531 Z M 668.089844 836.148438 L 646.089844 805.269531 L 652.144531 800.957031 L 679.59375 812.601563 L 664.851563 791.90625 L 670.632813 787.789063 L 692.628906 818.671875 L 686.378906 823.121094 L 659.40625 811.734375 L 673.863281 832.03125 Z M 668.089844 836.148438 "/>
<path style=" stroke:none;fill-rule:evenodd;fill:rgb(100%,100%,100%);fill-opacity:1;" d="M 801.484375 542.117188 C 810.488281 544.601563 820.179688 528.316406 806.695313 520.65625 C 782.414063 506.863281 758.921875 537.761719 774.472656 546 C 782.453125 550.226563 786.210938 544.523438 789.921875 541.296875 C 794.488281 537.320313 796.34375 540.703125 801.484375 542.117188 Z M 801.484375 542.117188 "/>
<path style=" stroke:none;fill-rule:evenodd;fill:rgb(0%,56.443787%,20.776367%);fill-opacity:1;" d="M 786.1875 557.96875 C 790.570313 555.929688 793.058594 559.367188 794.933594 558.941406 C 796.808594 558.511719 797.109375 555.488281 803.058594 555.535156 C 809.007813 555.585938 811.253906 553.726563 813.0625 549.886719 C 814.871094 546.046875 814.046875 541.242188 814.046875 541.242188 C 814.046875 541.242188 810.324219 541.601563 808.636719 544.980469 C 806.945313 548.359375 800.683594 547.296875 798.578125 545.097656 C 796.617188 543.054688 792.714844 541.488281 790.519531 546.25 C 787.789063 552.167969 775.675781 551.941406 771.253906 548.3125 C 770.390625 556.980469 780.035156 560.828125 786.1875 557.96875 Z M 786.1875 557.96875 "/>
<path style=" stroke:none;fill-rule:evenodd;fill:rgb(100%,100%,100%);fill-opacity:1;" d="M 809.171875 590.28125 C 818.539063 594.539063 831.898438 578.492188 818.539063 567.832031 C 794.507813 548.632813 763.609375 578.191406 779.109375 589.84375 C 787.0625 595.820313 792.132813 590.261719 796.734375 587.390625 C 802.386719 583.855469 803.820313 587.855469 809.171875 590.28125 Z M 809.171875 590.28125 "/>
<path style=" stroke:none;fill-rule:evenodd;fill:rgb(0%,56.443787%,20.776367%);fill-opacity:1;" d="M 789.789063 604.886719 C 794.910156 603.425781 797.023438 607.59375 799.136719 607.453125 C 801.253906 607.3125 802.101563 604.074219 808.566406 605.152344 C 815.027344 606.234375 817.789063 604.597656 820.429688 600.734375 C 823.058594 596.867188 822.988281 591.5 822.988281 591.5 C 822.988281 591.5 818.878906 591.246094 816.460938 594.628906 C 814.035156 598.015625 807.40625 595.777344 805.492188 593.023438 C 803.714844 590.460938 799.734375 588.082031 796.523438 592.882813 C 792.535156 598.855469 779.394531 596.515625 775.210938 591.804688 C 772.773438 601.082031 782.601563 606.9375 789.789063 604.886719 Z M 789.789063 604.886719 "/>
<path style=" stroke:none;fill-rule:evenodd;fill:rgb(100%,100%,100%);fill-opacity:1;" d="M 804.449219 641.472656 C 813.101563 647.988281 830.5 634.554688 819.21875 620.542969 C 798.910156 595.320313 760.394531 618.628906 773.65625 634.144531 C 780.464844 642.105469 786.949219 637.554688 792.335938 635.65625 C 798.949219 633.316406 799.507813 637.753906 804.449219 641.472656 Z M 804.449219 641.472656 "/>
<path style=" stroke:none;fill-rule:evenodd;fill:rgb(0%,56.443787%,20.776367%);fill-opacity:1;" d="M 781.191406 652.046875 C 786.796875 651.71875 788.011719 656.484375 790.214844 656.824219 C 792.421875 657.164063 794.03125 654.027344 800.425781 656.617188 C 806.824219 659.207031 810.039063 658.15625 813.628906 654.785156 C 817.21875 651.414063 818.371094 645.882813 818.371094 645.882813 C 818.371094 645.882813 814.210938 644.683594 810.941406 647.605469 C 807.679688 650.53125 801.378906 646.71875 800.046875 643.449219 C 798.800781 640.410156 795.257813 637.054688 790.863281 641.253906 C 785.394531 646.476563 772.425781 641.066406 769.203125 635.269531 C 764.578125 644.246094 773.339844 652.511719 781.191406 652.046875 Z M 781.191406 652.046875 "/>
<path style=" stroke:none;fill-rule:evenodd;fill:rgb(0%,0.784302%,0%);fill-opacity:1;" d="M 410.054688 655.347656 C 410.054688 655.320313 409.285156 643.921875 421.027344 646.132813 L 420.535156 648.78125 C 412.203125 647.210938 412.746094 655.183594 412.746094 655.203125 Z M 410.054688 655.347656 "/>
<path style=" stroke:none;fill-rule:evenodd;fill:rgb(0%,0.784302%,0%);fill-opacity:1;" d="M 415.402344 644.402344 C 415.402344 644.375 414.632813 632.976563 426.378906 635.191406 L 425.882813 637.835938 C 417.554688 636.265625 418.09375 644.238281 418.09375 644.257813 Z M 415.402344 644.402344 "/>
<path style=" stroke:none;fill-rule:evenodd;fill:rgb(0%,0.784302%,0%);fill-opacity:1;" d="M 427.753906 639.714844 C 427.746094 639.683594 426.976563 628.285156 438.722656 630.5 L 438.226563 633.144531 C 429.894531 631.574219 430.4375 639.546875 430.4375 639.566406 Z M 427.753906 639.714844 "/>
<path style=" stroke:none;fill-rule:evenodd;fill:rgb(0%,0.784302%,0%);fill-opacity:1;" d="M 403.453125 645.359375 C 403.453125 645.328125 402.679688 633.929688 414.425781 636.144531 L 413.929688 638.792969 C 405.601563 637.222656 406.144531 645.191406 406.144531 645.214844 Z M 403.453125 645.359375 "/>
<path style=" stroke:none;fill-rule:evenodd;fill:rgb(0%,0.784302%,0%);fill-opacity:1;" d="M 405.210938 636.082031 C 405.203125 636.050781 404.433594 624.652344 416.179688 626.867188 L 415.683594 629.511719 C 407.351563 627.941406 407.894531 635.914063 407.894531 635.933594 Z M 405.210938 636.082031 "/>
<path style=" stroke:none;fill-rule:evenodd;fill:rgb(0%,0.784302%,0%);fill-opacity:1;" d="M 417.023438 634.304688 C 417.019531 634.277344 416.253906 622.878906 427.996094 625.09375 L 427.503906 627.738281 C 419.171875 626.167969 419.714844 634.140625 419.714844 634.160156 Z M 417.023438 634.304688 "/>
<path style=" stroke:none;fill-rule:evenodd;fill:rgb(0%,0.784302%,0%);fill-opacity:1;" d="M 409.214844 625.238281 C 409.214844 625.207031 409.777344 613.785156 421.1875 617.355469 L 420.386719 619.929688 C 412.296875 617.398438 411.902344 625.363281 411.902344 625.386719 Z M 409.214844 625.238281 "/>
<path style=" stroke:none;fill-rule:evenodd;fill:rgb(0%,0.784302%,0%);fill-opacity:1;" d="M 395.714844 633.578125 C 395.71875 633.546875 396.28125 622.125 407.691406 625.695313 L 406.886719 628.265625 C 398.796875 625.738281 398.40625 633.703125 398.40625 633.722656 Z M 395.714844 633.578125 "/>
<path style=" stroke:none;fill-rule:evenodd;fill:rgb(0%,0.784302%,0%);fill-opacity:1;" d="M 397.3125 624.945313 C 397.316406 624.914063 397.878906 613.492188 409.285156 617.0625 L 408.484375 619.636719 C 400.398438 617.101563 400.003906 625.070313 400.003906 625.089844 Z M 397.3125 624.945313 "/>
<path style=" stroke:none;fill-rule:evenodd;fill:rgb(0%,0.784302%,0%);fill-opacity:1;" d="M 389.90625 622.144531 C 389.90625 622.113281 390.472656 610.691406 401.882813 614.261719 L 401.078125 616.832031 C 392.988281 614.304688 392.597656 622.269531 392.597656 622.289063 Z M 389.90625 622.144531 "/>
<path style=" stroke:none;fill-rule:evenodd;fill:rgb(0%,0.784302%,0%);fill-opacity:1;" d="M 403.097656 614.835938 C 403.105469 614.804688 405.433594 603.621094 416.144531 608.917969 L 414.960938 611.332031 C 407.351563 607.570313 405.726563 615.390625 405.722656 615.414063 Z M 403.097656 614.835938 "/>
<path style=" stroke:none;fill-rule:evenodd;fill:rgb(0%,0.784302%,0%);fill-opacity:1;" d="M 392.460938 612.765625 C 392.464844 612.734375 393.023438 601.3125 404.433594 604.882813 L 403.632813 607.457031 C 395.546875 604.925781 395.148438 612.894531 395.148438 612.914063 Z M 392.460938 612.765625 "/>
<path style=" stroke:none;fill-rule:evenodd;fill:rgb(0%,0.784302%,0%);fill-opacity:1;" d="M 646.742188 540.136719 C 646.757813 540.148438 653.027344 545.074219 656.421875 537.3125 L 658.886719 538.386719 C 654.097656 549.34375 645.101563 542.277344 645.078125 542.257813 Z M 646.742188 540.136719 "/>
<path style=" stroke:none;fill-rule:evenodd;fill:rgb(0%,0.784302%,0%);fill-opacity:1;" d="M 636.359375 548.414063 C 636.378906 548.425781 642.644531 553.351563 646.035156 545.585938 L 648.503906 546.660156 C 643.714844 557.621094 634.714844 550.550781 634.695313 550.53125 Z M 636.359375 548.414063 "/>
<path style=" stroke:none;fill-rule:evenodd;fill:rgb(0%,0.784302%,0%);fill-opacity:1;" d="M 629.695313 558.195313 C 629.714844 558.207031 635.984375 563.132813 639.378906 555.371094 L 641.839844 556.445313 C 637.050781 567.402344 628.054688 560.332031 628.03125 560.316406 Z M 629.695313 558.195313 "/>
<path style=" stroke:none;fill-rule:evenodd;fill:rgb(0%,0.784302%,0%);fill-opacity:1;" d="M 648.671875 553.386719 C 648.6875 553.398438 654.960938 558.324219 658.347656 550.5625 L 660.8125 551.636719 C 656.023438 562.59375 647.027344 555.527344 647.003906 555.507813 Z M 648.671875 553.386719 "/>
<path style=" stroke:none;fill-rule:evenodd;fill:rgb(0%,0.784302%,0%);fill-opacity:1;" d="M 641.921875 562.664063 C 641.941406 562.675781 648.214844 567.601563 651.601563 559.839844 L 654.066406 560.914063 C 649.277344 571.871094 640.28125 564.800781 640.257813 564.785156 Z M 641.921875 562.664063 "/>
<path style=" stroke:none;fill-rule:evenodd;fill:rgb(0%,0.784302%,0%);fill-opacity:1;" d="M 632.730469 570.925781 C 632.753906 570.941406 639.019531 575.863281 642.410156 568.101563 L 644.878906 569.175781 C 640.089844 580.132813 631.089844 573.066406 631.066406 573.046875 Z M 632.730469 570.925781 "/>
<path style=" stroke:none;fill-rule:evenodd;fill:rgb(0%,0.784302%,0%);fill-opacity:1;" d="M 650.128906 567.503906 C 650.140625 567.515625 656.410156 572.441406 659.800781 564.679688 L 662.269531 565.753906 C 657.480469 576.710938 648.480469 569.640625 648.464844 569.625 Z M 650.128906 567.503906 "/>
<path style=" stroke:none;fill-rule:evenodd;fill:rgb(0%,0.784302%,0%);fill-opacity:1;" d="M 645.507813 576.324219 C 645.523438 576.335938 651.796875 581.261719 655.183594 573.496094 L 657.652344 574.570313 C 652.863281 585.53125 643.867188 578.460938 643.84375 578.441406 Z M 645.507813 576.324219 "/>
<path style=" stroke:none;fill-rule:evenodd;fill:rgb(0%,0.784302%,0%);fill-opacity:1;" d="M 635.976563 584.164063 C 635.996094 584.175781 642.265625 589.101563 645.65625 581.339844 L 648.121094 582.414063 C 643.339844 593.371094 634.339844 586.300781 634.3125 586.285156 Z M 635.976563 584.164063 "/>
<path style=" stroke:none;fill-rule:evenodd;fill:rgb(0%,0.784302%,0%);fill-opacity:1;" d="M 651.183594 583.371094 C 651.199219 583.382813 657.46875 588.308594 660.859375 580.542969 L 663.328125 581.617188 C 658.539063 592.578125 649.539063 585.507813 649.519531 585.488281 Z M 651.183594 583.371094 "/>
<path style=" stroke:none;fill-rule:evenodd;fill:rgb(0%,0.784302%,0%);fill-opacity:1;" d="M 644.4375 591.71875 C 644.453125 591.730469 650.722656 596.65625 654.113281 588.894531 L 656.585938 589.96875 C 651.796875 600.925781 642.796875 593.859375 642.773438 593.839844 Z M 644.4375 591.71875 "/>
<path style=" stroke:none;fill-rule:evenodd;fill:rgb(0%,0.784302%,0%);fill-opacity:1;" d="M 636.398438 600.296875 C 636.414063 600.308594 642.683594 605.234375 646.074219 597.472656 L 648.546875 598.546875 C 643.753906 609.503906 634.757813 602.4375 634.734375 602.417969 Z M 636.398438 600.296875 "/>
<path style=" stroke:none;fill-rule:evenodd;fill:rgb(0%,0.784302%,0%);fill-opacity:1;" d="M 651.03125 597.367188 C 651.050781 597.378906 657.320313 602.304688 660.714844 594.539063 L 663.175781 595.613281 C 658.386719 606.574219 649.390625 599.503906 649.367188 599.484375 Z M 651.03125 597.367188 "/>
<path style=" stroke:none;fill-rule:evenodd;fill:rgb(0%,0.784302%,0%);fill-opacity:1;" d="M 647.53125 605.164063 C 647.546875 605.175781 653.816406 610.101563 657.214844 602.339844 L 659.675781 603.410156 C 654.886719 614.371094 645.890625 607.300781 645.867188 607.285156 Z M 647.53125 605.164063 "/>
<path style=" stroke:none;fill-rule:evenodd;fill:rgb(0%,0.784302%,0%);fill-opacity:1;" d="M 411.964844 463.527344 C 414.023438 463.527344 415.894531 464.367188 417.246094 465.71875 C 418.601563 467.070313 419.4375 468.941406 419.4375 471.003906 C 419.4375 473.066406 418.601563 474.941406 417.246094 476.292969 C 415.894531 477.644531 414.023438 478.480469 411.964844 478.480469 C 409.898438 478.480469 408.027344 477.644531 406.671875 476.292969 C 405.320313 474.941406 404.484375 473.066406 404.484375 471.003906 C 404.484375 468.941406 405.320313 467.070313 406.671875 465.71875 C 408.027344 464.367188 409.898438 463.527344 411.964844 463.527344 Z M 414.339844 468.628906 C 413.730469 468.019531 412.890625 467.644531 411.964844 467.644531 C 411.03125 467.644531 410.191406 468.019531 409.585938 468.628906 C 408.976563 469.234375 408.601563 470.078125 408.601563 471.003906 C 408.601563 471.933594 408.976563 472.773438 409.585938 473.382813 C 410.191406 473.988281 411.03125 474.363281 411.964844 474.363281 C 412.890625 474.363281 413.730469 473.988281 414.339844 473.382813 C 414.945313 472.773438 415.320313 471.933594 415.320313 471.003906 C 415.320313 470.078125 414.945313 469.234375 414.339844 468.628906 Z M 414.339844 468.628906 "/>
</g>
</svg>
