<?xml version="1.0" encoding="UTF-8" standalone="no"?>
<svg
   xmlns:dc="http://purl.org/dc/elements/1.1/"
   xmlns:cc="http://creativecommons.org/ns#"
   xmlns:rdf="http://www.w3.org/1999/02/22-rdf-syntax-ns#"
   xmlns:svg="http://www.w3.org/2000/svg"
   xmlns="http://www.w3.org/2000/svg"
   xmlns:xlink="http://www.w3.org/1999/xlink"
   xmlns:sodipodi="http://sodipodi.sourceforge.net/DTD/sodipodi-0.dtd"
   xmlns:inkscape="http://www.inkscape.org/namespaces/inkscape"
   width="314.237"
   height="475.2"
   viewBox="0 0 83.142 125.73"
   version="1.1"
   id="svg649"
   sodipodi:docname="Seal of Temanggung Regency (1).svg"
   inkscape:version="1.0.1 (3bc2e813f5, 2020-09-07)">
  <metadata
     id="metadata653">
    <rdf:RDF>
      <cc:Work
         rdf:about="">
        <dc:format>image/svg+xml</dc:format>
        <dc:type
           rdf:resource="http://purl.org/dc/dcmitype/StillImage" />
      </cc:Work>
    </rdf:RDF>
  </metadata>
  <sodipodi:namedview
     pagecolor="#ffffff"
     bordercolor="#666666"
     borderopacity="1"
     objecttolerance="10"
     gridtolerance="10"
     guidetolerance="10"
     inkscape:pageopacity="0"
     inkscape:pageshadow="2"
     inkscape:window-width="1366"
     inkscape:window-height="705"
     id="namedview651"
     showgrid="false"
     inkscape:zoom="0.6695119"
     inkscape:cx="60.596575"
     inkscape:cy="202.62336"
     inkscape:window-x="-8"
     inkscape:window-y="-8"
     inkscape:window-maximized="1"
     inkscape:current-layer="svg649" />
  <style
     id="style2"><![CDATA[.B{opacity:.998}.C{stroke-width:.265}.D{fill:none}.E{fill:#ffeba3}.F{fill:#f5c742}.G{stroke:#a07843}.H{fill:#007d44}.I{fill:#feef00}.J{fill:#008b48}.K{stroke:#006e39}.L{stroke:#00552d}.M{fill:#fff}.N{stroke-width:.6}.O{stroke-linejoin:round}.P{stroke:#005e31}.Q{fill:#fff000}.R{fill:#006e39}.S{stroke-width:.165}.T{stroke:#005d31}.U{fill:#e8e8e8}.V{stroke:#a6a6a6}.W{fill:#00ab59}.X{stroke:#8b0000}.Y{stroke-width:.873}.Z{stroke-width:.558}.a{stroke-linecap:round}.b{stroke-opacity:.996}]]></style>
  <defs
     id="defs55">
    <linearGradient
       id="A"
       x1="75.379"
       y1="194.253"
       x2="134.62"
       y2="194.253"
       gradientUnits="userSpaceOnUse">
      <stop
         offset="0"
         stop-color="#0090d8"
         id="stop4" />
      <stop
         offset=".154"
         stop-color="#55c6ff"
         id="stop6" />
      <stop
         offset=".5"
         stop-color="#0090d8"
         id="stop8" />
      <stop
         offset=".827"
         stop-color="#6ecfff"
         id="stop10" />
      <stop
         offset="1"
         stop-color="#0090d8"
         id="stop12" />
    </linearGradient>
    <linearGradient
       id="B"
       x1="576.923"
       y1="250.265"
       x2="576.923"
       y2="332.143"
       gradientUnits="userSpaceOnUse"
       gradientTransform="matrix(0.264583,0,0,0.264583,-125.39132,1.16e-4)">
      <stop
         offset="0"
         stop-color="#0090d8"
         id="stop15" />
      <stop
         offset="1"
         stop-color="#00649a"
         id="stop17" />
    </linearGradient>
    <linearGradient
       id="C"
       gradientUnits="userSpaceOnUse">
      <stop
         stop-color="#ad8900"
         offset="0"
         id="stop20" />
      <stop
         stop-color="#ffd631"
         offset=".382"
         id="stop22" />
      <stop
         stop-color="#fff9c7"
         offset=".505"
         id="stop24" />
      <stop
         stop-color="#ffd631"
         offset=".613"
         id="stop26" />
      <stop
         stop-color="#ad8900"
         offset="1"
         id="stop28" />
    </linearGradient>
    <linearGradient
       xlink:href="#C"
       id="D"
       x1="104.075"
       y1="153.35"
       x2="105.823"
       y2="153.35"
       gradientTransform="translate(0,-8.5220003)" />
    <linearGradient
       xlink:href="#C"
       id="E"
       x1="104.075"
       y1="127.784"
       x2="105.823"
       y2="127.784" />
    <linearGradient
       xlink:href="#C"
       id="F"
       x1="104.075"
       y1="153.349"
       x2="105.823"
       y2="153.349"
       gradientTransform="translate(0,-17.042999)" />
    <linearGradient
       xlink:href="#C"
       id="G"
       x1="104.075"
       y1="119.262"
       x2="105.823"
       y2="119.262" />
    <filter
       id="H"
       x="0"
       width="1"
       y="0"
       height="1"
       color-interpolation-filters="sRGB">
      <feGaussianBlur
         stdDeviation="0"
         id="feGaussianBlur35" />
    </filter>
    <path
       id="I"
       d="M270.157 191.598c-1.243-.393-1.488-1.392-.611-2.494.371-.467.419-.691.177-.821-.199-.106-.472-.055-1.053.198-1.526.664-2.2.855-3.398.961-2.405.214-5.079-.269-7.2-1.299-.808-.393-1.93-1.116-2.44-1.573l-.315-.282.344-.042a15.95 15.95 0 0 0 1.01-.181c2.303-.482 2.688-1.127 1.252-2.102-.434-.295-1.955-1.032-2.954-1.432-1.381-.553-2.39-1.123-3.372-1.904a15.04 15.04 0 0 1-2.238-2.342c-.405-.575-.891-1.383-.853-1.421.019-.019 1.873 1.025 3.183 1.792.495.29.823.105.76-.427a3.24 3.24 0 0 0-.16-.613c-.113-.303-.255-.471-1.263-1.506-1.648-1.691-2.893-3.167-3.518-4.173-.804-1.294-1.781-4.013-2.612-7.27-.222-.872-.236-.959-.123-.806.721.984 1.799 2.149 2.44 2.636.49.373 1.018.615 1.341.614.37-.001.821-.226 1.003-.501.223-.337.285-.779.181-1.281-.151-.722-.479-1.311-1.157-2.076-1.536-1.732-3.214-5.043-4.176-8.242-.592-1.969-.959-4.998-1.113-9.188l-.035-.949.396 1.036c1.302 3.409 2.615 5.79 3.793 6.88.846.783 1.282.66 1.283-.36 0-.923-.226-1.628-.959-2.995-.854-1.59-1.205-2.543-1.46-3.958-.115-.638-.131-.94-.146-2.711-.025-3.066-.117-3.528-1.174-5.947-1.246-2.849-1.572-4.719-1.233-7.078.207-1.441.773-3.22 1.441-4.532l.169-.333.07.661c.119 1.117.369 2.002.78 2.759.105.193.47.792.811 1.33 1.08 1.703 1.854 3.431 2.05 4.573.035.205.082.9.103 1.545.038 1.138.043 1.175.174 1.281.091.074.226.11.415.11.36 0 .608-.206.823-.684.542-1.207.628-2.919.292-5.817-.183-1.578-.39-2.651-1.056-5.472l-.707-3.821c-.093-.804-.094-3.77-.001-4.776l.338-2.83c.011.011.096.29.19.619.468 1.657 1.337 3.425 2.888 5.877.375.593.772 1.295.881 1.56.362.875.599 2.004.721 3.432.068.793.07 3.738.004 5.063-.071 1.436.059 2.099.439 2.228.604.206 1.274-.731 1.451-2.027.25-1.834.396-5.654.301-7.89-.103-2.444-.212-3.283-.785-6.088-.547-2.676-.722-4.375-.61-5.922.165-2.273.78-4.976 1.884-8.28l.458-1.29c.011.011-.011.174-.05.361-.044.21-.07.815-.069 1.578.002 1.02.025 1.372.134 2.009.355 2.081.956 3.923 2.345 7.192l.741 1.862c.182.576.401 1.778.522 2.861.125 1.119.174 5.275.086 7.25l-.02 3.855c.167.305.536.477.936.435.792-.084 1.69-.807 2.114-1.7.538-1.135.523-1.426-.237-4.545-.803-3.293-1.127-5.473-1.128-7.599-.002-2.559.52-4.654 1.589-6.386.12-.195.229-.326.24-.29s-.007.373-.041.75c-.092 1.01-.078 3.116.027 4.031.203 1.776.535 3.042 1.666 6.358 1.542 4.521 2.174 7.278 2.479 10.817.117 1.359.087 3.933-.058 5.029-.334 2.518-1.014 4.677-2.25 7.14-.199.396-.987 1.897-1.752 3.337-1.643 3.091-3.467 6.728-4.138 8.249-1.995 4.52-3.168 8.574-3.597 12.435-.345 3.097-.271 4.327.377 6.249 1.187 3.524 4.464 7.605 9.025 11.243a27.79 27.79 0 0 0 3.826 2.618c1.74 1.004 2.673 1.73 3.042 2.366.674 1.161-.117 2.599-1.686 3.064-.368.109-.917.114-1.241.012z" />
    <path
       id="J"
       d="M82.98 163.123c3.97 1.442 4.326-1.497 8.519 1.604-3.365 1.357-6.038.223-8.519-1.604z" />
    <path
       id="K"
       d="M91.261 164.721l1.837.134" />
    <path
       id="L"
       d="M85.684 163.869c1.467.141 2.243-.754 4.418.449-1.767.3-2.784-.222-4.418-.449z" />
    <path
       id="M"
       d="M91.181 172.951h.423a.93.93 0 0 1 .93.93v1.859a.93.93 0 0 1-.93.93h-.423a.93.93 0 0 1-.93-.93v-1.859a.93.93 0 0 1 .93-.93z" />
    <path
       id="N"
       d="M224.975 160.597l2.41 1.63-2.244 1.843 2.611-1.458 1.948 2.946c0-.095-1.41-3.13-1.41-3.13l3.938-.579-3.945.118.921-2.173-1.512 1.961z" />
    <path
       id="O"
       d="M232.204 159.983c-.288-1.204.863-4.004 2.835-2.079 2.78-1.508 3.054 1.503 1.677 2.173 1.445 2.187-1.376 4.007-3.189 1.937z" />
    <path
       id="P"
       d="M236.471 158.323c-.64-.329-1.312.215-1.96.047-.505-.454-1.547-.368-1.443.493.148.884 1.207.518 1.751.932.674.415.119 1.043-.062 1.534.079.607.851.763 1.335.548.436-.496.008-1.134-.013-1.684.143-.582.852-1.031.55-1.703l-.065-.094z" />
    <path
       id="Q"
       d="M232.245 159.242c-.105 1.474-2.658 1.746-2.89 3.358 1.914 1.24 2.917-.827 5.496.267-1.497-1.376-.719-1.747-.401-2.322-.89-.152-1.792-.283-2.205-1.303z" />
    <path
       id="R"
       d="M233.598 160.812c-.869.172-.934.023-1.236-.535-.317.415-.262.894.067 1.42.321.331.782.459 1.303.501-.404-.106-.897-1.088-.134-1.386z" />
    <path
       id="S"
       d="M118.764 161.187c-.687-.713-1.811-.771-2.858-.945-.045 1.497-.05 2.95 1.016 3.213-.494.262-.658.965-.78 1.725 1.436.759 2.616 1.143 3.236.709.378.554 1.452.387 2.315 1.323.521-.973 1.6-1.834 1.276-2.977.509-.815 1.668-1.143 2.646-1.606-.89-.335-1.604-.801-2.717-.969-.528-.758-1.055-1.703-1.583-2.646-.759.894-2.501 1.1-2.551 2.173z" />
    <path
       id="T"
       d="M105.823 157.608s-.381-.902-.381-1.852v-4.5c0-1.269.381-2.17.381-2.17h-1.748s.381.901.381 2.17v4.5c0 .95-.381 1.852-.381 1.852h1.748z" />
    <path
       id="U"
       d="M118.763 184.127c0 .09-.036.176-.099.239s-.149.099-.239.099-.176-.036-.239-.099-.099-.149-.099-.239.036-.176.099-.239.149-.099.239-.099a.34.34 0 0 1 .338.338z" />
    <path
       id="V"
       d="M210.295 171.169c.073-.108-.169-.382-.048-.416 1.482-.418 1.396-1.909 2.273-2.537 1.691-1.209 3.787-1.294 5.343 1.082-1.616.377-2.31 1.955-4.761 1.453-.878-.18-1.806.032-2.806.418z" />
    <path
       id="W"
       d="M210.624 170.873c1.078-.393 1.811-1.07 2.563-1.536 1.627-1.006 2.083-.451 2.752-.366-.315-.333-1.6-.876-3.083.295l-2.232 1.606z" />
    <path
       id="X"
       d="M210.345 181.559c5.056-.813 5.673 3.763 8.452 5.713-7.513 1.69-6.517-5.562-8.519-5.045z" />
    <path
       id="Y"
       d="M210.721 181.693l.017.292c2.455.325 3.436 4.387 5.414 4.22-2.705-1.486-2.666-4.41-5.431-4.512z" />
    <linearGradient
       inkscape:collect="always"
       xlink:href="#C"
       id="linearGradient2268"
       x1="104.075"
       y1="153.35"
       x2="105.823"
       y2="153.35" />
  </defs>
  <path
     d="M 41.571,0.437 C 35.905,8.544 26.073,7.912 18.938,23.285 3.035,28.601 6.191,46.446 0.437,57.71 c 4.19,5.733 0.612,19.938 9.573,26.601 -1.403,9.881 6.01,13.906 5.615,22.275 12.587,-1.389 13.345,3.044 25.947,4.05 12.602,-1.006 13.36,-5.438 25.947,-4.05 -0.395,-8.369 7.018,-12.394 5.615,-22.275 8.96,-6.663 5.382,-20.868 9.573,-26.601 C 76.953,46.446 80.109,28.601 64.206,23.285 57.07,7.912 47.239,8.544 41.573,0.437 Z"
     opacity="0.997"
     class="G O Y"
     id="path57" />
  <g
     id="g1786">
    <path
       d="m 31.7,13.274 5.913,4.36 -0.002,0.01"
       class="E"
       id="path59" />
    <path
       d="m 31.662,13.247 0.037,0.027 5.911,4.37 -2.16,7.264 0.046,-0.031 6.075,-4.369 0.011,-0.009 6.139,4.144 -0.004,-0.013 -2.258,-7.063 0.002,-0.001 6.038,-4.311 0.011,-0.008 -7.377,0.016 h -0.018 l -2.532,-7.227 -0.011,0.034 -2.506,7.182 -0.004,0.011 z"
       class="M"
       id="path61" />
    <path
       fill="#a07843"
       d="m 35.451,25.346 a 0.44,0.44 0 0 1 -0.42,-0.563 l 2.071,-6.97 -5.7,-4.214 a 0.44,0.44 0 0 1 0.26,-0.791 h 0.001 l 7.088,0.015 2.419,-6.932 a 0.44,0.44 0 0 1 0.414,-0.294 v 0 a 0.44,0.44 0 0 1 0.414,0.294 l 2.429,6.933 7.083,-0.015 h 0.001 a 0.44,0.44 0 0 1 0.417,0.304 c 0.059,0.182 -0.007,0.38 -0.162,0.491 l -5.791,4.134 2.146,6.714 c 0.028,0.057 0.043,0.122 0.043,0.19 a 0.44,0.44 0 0 1 -0.554,0.423 0.42,0.42 0 0 1 -0.134,-0.06 l -5.884,-3.972 -5.884,4.231 a 0.43,0.43 0 0 1 -0.254,0.081 z m -2.453,-11.658 4.874,3.603 a 0.44,0.44 0 0 1 0.16,0.478 l -1.793,6.035 5.079,-3.652 c 0.149,-0.107 0.361,-0.119 0.513,-0.016 L 46.92,23.571 45.044,17.7 a 0.44,0.44 0 0 1 0.159,-0.488 l 4.936,-3.524 -6.005,0.013 h -10e-4 a 0.46,0.46 0 0 1 -0.43,-0.294 l -2.117,-6.042 -2.105,6.032 c -0.061,0.176 -0.232,0.305 -0.418,0.305 h -0.001 l -6.064,-0.013 z"
       id="path63" />
    <path
       d="m 41.572,6.07 v 10.282 l 2.561,-3.089 H 44.115 L 41.583,6.036 Z"
       class="F"
       id="path65" />
    <g
       class="E"
       id="g71"
       transform="translate(-63.414,-81.6)">
      <path
         d="m 101.027,99.234 -0.002,0.01 3.962,-1.283 v -0.008 l -9.872,-3.079 z"
         id="path67" />
      <path
         d="m 104.986,87.67 -2.506,7.182 2.499,3.099 0.007,0.002 z"
         id="path69" />
    </g>
    <path
       d="m 31.662,13.247 0.037,0.027 9.866,3.077 -2.499,-3.099 -0.004,0.011 z"
       class="F"
       id="path73" />
    <path
       d="m 44.133,13.263 -2.554,3.082 9.921,-3.09 0.011,-0.008 z"
       class="E"
       id="path75" />
    <path
       d="m 41.572,16.353 3.889,1.213 6.038,-4.311 -9.921,3.09 -0.007,0.007 z"
       class="F"
       id="path77" />
    <path
       d="m 41.572,16.353 v 0.008 l 6.145,8.269 -2.258,-7.063 0.002,-0.001 z"
       class="E"
       id="path79" />
    <path
       d="m 41.583,20.499 6.139,4.144 -0.004,-0.013 -6.145,-8.269 v 4.147 z m -6.132,4.409 0.046,-0.031 6.055,-8.51 -3.942,1.276 z"
       class="F"
       id="path81" />
    <path
       d="m 41.572,20.508 v -4.147 l -0.02,0.007 -6.055,8.51 z"
       class="E"
       id="path83" />
  </g>
  <g
     class="G O Y"
     id="g95"
     transform="translate(-63.414,-81.6)">
    <path
       d="m 80.556,203.635 c -0.393,4.351 7.635,4.195 7.749,0.425 l 0.803,-13.276 c -1.755,-1.704 -4.793,-1.707 -6.189,-0.142 z m 48.888,0 c 0.393,4.351 -7.635,4.195 -7.749,0.425 l -0.803,-13.276 c 1.755,-1.704 4.793,-1.707 6.189,-0.142 z"
       fill="#006395"
       id="path85" />
    <path
       d="m 82.919,190.642 -2.362,12.993 c 1.75,-1.014 2.801,-0.491 3.685,0.283 l 0.959,-14.394 c -0.889,0.279 -1.318,0.08 -2.282,1.118 z"
       id="path87" />
    <path
       d="m 76.353,196.827 2.7,-9.285 10.055,3.241 -0.803,13.276 c -3.813,-5.51 -15.369,1.76 -11.952,-7.233 z m 50.728,-6.185 2.362,12.993 c -1.75,-1.014 -2.801,-0.491 -3.685,0.283 l -0.959,-14.394 c 0.889,0.279 1.318,0.08 2.282,1.118 z"
       id="path89" />
    <path
       d="m 133.647,196.827 -2.7,-9.285 -10.055,3.241 0.803,13.276 c 3.813,-5.51 15.369,1.76 11.952,-7.233 z"
       id="path91" />
    <path
       d="m 83.265,187.276 c -1.25,0.01 -2.639,0.093 -4.212,0.266 l -3.239,11.116 c 1.277,-4.385 10.949,-0.902 12.836,-0.302 2.839,0.901 10.468,2.875 16.35,2.875 5.882,0 13.512,-1.974 16.35,-2.875 1.887,-0.599 11.558,-4.083 12.835,0.302 l -3.239,-11.116 c -1.573,-0.174 -2.962,-0.256 -4.212,-0.266 -8.75,-0.068 -10.708,3.436 -21.735,4.316 -11.027,-0.88 -12.985,-4.384 -21.735,-4.316 z"
       fill="url(#A)"
       id="path93"
       style="fill:url(#A);" />
  </g>
  <g
     class="M"
     id="g105"
     transform="translate(-63.414,-81.6)">
    <path
       d="m 82.744,190.598 q 0.011,0.193 0.08,0.294 0.127,0.184 0.471,0.212 0.206,0.017 0.338,-0.018 0.251,-0.067 0.27,-0.303 0.011,-0.138 -0.103,-0.223 -0.115,-0.084 -0.369,-0.162 l -0.289,-0.091 q -0.426,-0.134 -0.583,-0.263 -0.265,-0.216 -0.231,-0.626 0.031,-0.374 0.324,-0.599 0.293,-0.225 0.819,-0.181 0.44,0.037 0.73,0.297 0.292,0.258 0.27,0.703 l -0.559,-0.047 q 0.006,-0.252 -0.189,-0.375 -0.13,-0.081 -0.332,-0.098 -0.225,-0.019 -0.366,0.061 -0.142,0.079 -0.155,0.242 -0.012,0.149 0.114,0.234 0.081,0.056 0.353,0.145 l 0.47,0.155 q 0.309,0.102 0.459,0.242 0.233,0.217 0.202,0.589 -0.032,0.381 -0.346,0.61 -0.312,0.227 -0.844,0.183 -0.544,-0.045 -0.835,-0.319 -0.291,-0.275 -0.255,-0.71 z m 0.732,-1.962 z m 2.396,0.427 -0.027,1.641 -0.03,0.451 0.184,-0.403 0.693,-1.485 0.598,0.149 -0.064,1.632 -0.025,0.453 0.186,-0.395 0.752,-1.478 0.576,0.143 -1.437,2.521 -0.541,-0.134 0.067,-1.666 0.035,-0.548 -0.226,0.5 -0.721,1.504 -0.526,-0.131 -0.095,-2.902 z m 3.34,2.758 0.673,0.222 0.014,-1.153 z m 0.579,-1.639 0.626,0.207 0.063,2.962 -0.601,-0.199 0.009,-0.602 -0.977,-0.323 -0.364,0.485 -0.579,-0.191 z m 0.309,0.102 z m 1.967,1.177 -0.564,1.733 0.512,0.167 q 0.393,0.128 0.674,-0.209 0.154,-0.185 0.249,-0.479 0.132,-0.405 0.074,-0.663 -0.055,-0.259 -0.434,-0.382 z m 0.755,-0.264 q 0.246,0.084 0.392,0.191 0.249,0.183 0.343,0.484 0.074,0.243 0.05,0.49 -0.025,0.247 -0.093,0.456 -0.172,0.53 -0.505,0.828 -0.45,0.402 -1.051,0.206 l -1.144,-0.372 0.864,-2.656 z m 1.676,2.331 0.683,0.19 -0.041,-1.152 z m 0.501,-1.664 0.635,0.177 0.202,2.956 -0.61,-0.17 -0.019,-0.601 -0.991,-0.276 -0.34,0.501 -0.588,-0.164 z m 0.314,0.088 z m 2.686,0.645 0.646,0.142 -1.287,1.502 -0.226,1.025 -0.57,-0.126 0.226,-1.025 -0.569,-1.91 0.672,0.148 0.305,1.313 z m -0.566,-0.125 z m 1.506,2.051 0.7,0.107 -0.178,-1.139 z m 0.299,-1.712 0.652,0.1 0.555,2.91 -0.626,-0.096 -0.091,-0.595 -1.017,-0.156 -0.278,0.538 -0.603,-0.092 z m 0.322,0.049 z m 2.857,0.8 -0.032,0.615 0.685,0.036 q 0.184,0.01 0.301,-0.053 0.119,-0.064 0.128,-0.24 0.01,-0.195 -0.138,-0.265 -0.128,-0.05 -0.331,-0.061 z m -0.056,1.077 -0.039,0.744 0.685,0.036 q 0.184,0.01 0.288,-0.034 0.19,-0.081 0.204,-0.338 0.011,-0.218 -0.164,-0.308 -0.098,-0.051 -0.279,-0.062 z m 0.88,-1.519 q 0.512,0.034 0.711,0.335 0.119,0.185 0.106,0.432 -0.013,0.255 -0.15,0.404 -0.076,0.083 -0.22,0.148 0.21,0.089 0.309,0.263 0.101,0.174 0.088,0.414 -0.013,0.248 -0.148,0.438 -0.086,0.126 -0.21,0.209 -0.14,0.095 -0.325,0.123 -0.184,0.028 -0.397,0.017 l -1.264,-0.066 0.146,-2.789 z m 1.288,2.842 -0.043,-2.793 0.578,-0.009 0.017,1.065 1.091,-0.017 -0.017,-1.065 0.58,-0.009 0.043,2.793 -0.58,0.009 -0.019,-1.247 -1.091,0.017 0.019,1.247 z m 2.567,-2.845 0.591,-0.051 0.147,1.71 q 0.025,0.287 0.104,0.413 0.126,0.225 0.481,0.195 0.353,-0.03 0.439,-0.273 0.057,-0.138 0.032,-0.425 l -0.147,-1.71 0.591,-0.051 0.147,1.71 q 0.038,0.444 -0.079,0.703 -0.218,0.475 -0.941,0.537 -0.723,0.062 -1.021,-0.369 -0.159,-0.236 -0.197,-0.679 z m 1.12,-0.096 z m 3.276,-0.435 0.828,-0.138 0.461,2.755 -0.536,0.09 -0.312,-1.863 q -0.013,-0.08 -0.036,-0.225 -0.022,-0.146 -0.036,-0.225 l -0.135,2.399 -0.559,0.094 -0.904,-2.225 q 0.013,0.078 0.039,0.224 0.026,0.144 0.039,0.224 l 0.312,1.863 -0.536,0.09 -0.461,-2.755 0.837,-0.14 0.863,2.082 z m 2.336,2.361 -0.566,0.128 -0.617,-2.724 0.566,-0.128 z m -0.911,-2.714 z m 3.454,0.049 q -0.062,-0.209 -0.199,-0.265 -0.135,-0.057 -0.333,0.002 l -0.521,0.154 0.233,0.789 0.521,-0.154 q 0.198,-0.059 0.279,-0.187 0.082,-0.129 0.02,-0.338 z m 0.553,-0.168 q 0.14,0.474 -0.041,0.741 -0.182,0.267 -0.627,0.399 l -0.569,0.168 0.285,0.963 -0.556,0.165 -0.792,-2.678 1.166,-0.345 q 0.403,-0.119 0.704,0.017 0.301,0.136 0.43,0.57 z m 0.957,1.686 -0.883,-2.65 0.548,-0.183 0.337,1.01 1.035,-0.345 -0.337,-1.01 0.55,-0.183 0.883,2.65 -0.55,0.183 -0.394,-1.183 -1.035,0.345 0.394,1.183 z m 3.057,-2.139 0.675,-0.215 -0.666,-0.941 z m -0.493,-1.667 0.628,-0.2 1.79,2.361 -0.603,0.192 -0.346,-0.492 -0.98,0.312 -0.01,0.606 -0.581,0.185 z m 0.311,-0.099 z m 1.804,-0.557 0.568,-0.135 0.529,2.229 1.346,-0.319 0.116,0.489 -1.914,0.454 z"
       id="path97" />
    <path
       d="m 126.182,190.494 0.706,-0.064 -0.446,-1.063 z m -0.12,-1.734 0.657,-0.059 1.236,2.693 -0.63,0.057 -0.231,-0.556 -1.025,0.092 -0.141,0.589 -0.608,0.055 z m 0.325,-0.029 z m -41.301,3.99 0.292,0.073 -0.27,1.077 1.347,-0.807 0.414,0.104 -1.142,0.66 0.614,1.556 -0.389,-0.098 -0.495,-1.302 -0.438,0.25 -0.193,0.77 -0.292,-0.073 z m 2.892,2.226 -0.018,-1.064 -0.66,0.843 z m -0.067,-1.435 0.332,0.108 0.082,2.421 -0.321,-0.104 -0.009,-0.72 -0.857,-0.278 -0.445,0.573 -0.301,-0.098 z m 0.152,0.049 z m 1.763,1.626 q 0.184,0.065 0.305,0.05 0.189,-0.024 0.263,-0.232 0.074,-0.21 -0.071,-0.344 -0.082,-0.075 -0.272,-0.142 L 89.532,194.335 89.297,195 Z m -0.253,1.026 q 0.267,0.095 0.436,-0.02 0.106,-0.073 0.155,-0.211 0.083,-0.234 -0.096,-0.393 -0.095,-0.085 -0.278,-0.149 l -0.577,-0.204 -0.267,0.756 z m -0.24,-2.221 0.922,0.326 q 0.377,0.133 0.457,0.415 0.046,0.166 -0.015,0.34 -0.072,0.203 -0.233,0.292 -0.084,0.048 -0.217,0.065 0.143,0.121 0.197,0.229 0.095,0.191 0.008,0.438 -0.073,0.208 -0.263,0.33 -0.283,0.183 -0.707,0.033 l -0.908,-0.321 z m 2.305,0.819 -0.458,1.331 q -0.081,0.235 -0.046,0.42 0.05,0.279 0.359,0.386 0.371,0.128 0.592,-0.08 0.119,-0.113 0.199,-0.346 l 0.458,-1.331 0.296,0.102 -0.416,1.21 q -0.137,0.397 -0.317,0.575 -0.331,0.322 -0.876,0.135 -0.545,-0.187 -0.606,-0.644 -0.033,-0.251 0.103,-0.648 l 0.416,-1.21 z m 0.553,0.19 z m 1.259,0.427 0.979,0.302 q 0.29,0.09 0.417,0.309 0.127,0.218 0.036,0.514 -0.079,0.255 -0.296,0.395 -0.217,0.139 -0.545,0.038 l -0.684,-0.211 -0.284,0.92 -0.295,-0.091 z m 1.134,1.035 q 0.074,-0.24 -0.077,-0.381 -0.084,-0.076 -0.254,-0.129 l -0.587,-0.181 -0.233,0.754 0.587,0.181 q 0.198,0.061 0.348,0.015 0.15,-0.046 0.216,-0.259 z m 1.336,1.076 -0.078,-1.061 -0.612,0.879 z m -0.147,-1.429 0.337,0.089 0.218,2.413 -0.327,-0.086 -0.049,-0.718 -0.871,-0.23 -0.412,0.597 -0.306,-0.081 z m 0.154,0.041 z m 2.544,0.58 -0.056,0.265 -0.751,-0.159 -0.416,1.962 -0.306,-0.065 0.416,-1.962 -0.751,-0.159 0.056,-0.265 z m 0.184,0.03 1.641,0.254 -0.043,0.276 -1.344,-0.208 -0.106,0.683 1.242,0.193 -0.04,0.26 -1.242,-0.193 -0.118,0.763 1.367,0.212 -0.042,0.268 -1.664,-0.258 z m 0.832,0.129 z m 1.099,0.162 0.363,0.034 0.972,1.945 0.174,-1.837 0.292,0.028 -0.214,2.267 -0.344,-0.032 -0.989,-1.945 -0.173,1.835 -0.293,-0.028 z m 0.88,0.083 z m 3.716,0.174 -0.005,0.271 -0.767,-0.015 -0.038,2.006 -0.313,-0.006 0.038,-2.006 -0.767,-0.015 0.005,-0.271 z m 0.202,-0.004 1.66,-0.05 0.008,0.279 -1.359,0.041 0.021,0.691 1.257,-0.038 0.008,0.263 -1.257,0.038 0.023,0.772 1.382,-0.042 0.008,0.271 -1.683,0.051 z m 0.841,-0.025 z m 1.1,-0.034 0.44,-0.04 0.827,1.858 0.471,-1.977 0.435,-0.04 0.208,2.268 -0.292,0.027 -0.123,-1.339 q -0.006,-0.07 -0.018,-0.23 -0.012,-0.161 -0.028,-0.345 l -0.472,1.972 -0.304,0.028 -0.827,-1.853 0.006,0.07 q 0.008,0.083 0.026,0.254 0.02,0.169 0.028,0.25 l 0.123,1.339 -0.293,0.027 z m 3.858,0.899 -0.498,-0.94 -0.207,1.051 z m -0.709,-1.249 0.345,-0.054 1.169,2.122 -0.334,0.052 -0.334,-0.638 -0.89,0.14 -0.138,0.712 -0.312,0.049 z m 0.158,-0.025 z m 1.144,-0.188 0.356,-0.078 1.518,1.556 -0.394,-1.802 0.286,-0.063 0.487,2.225 -0.338,0.074 -1.534,-1.551 0.394,1.801 -0.288,0.063 z m 0.863,-0.189 z m 2.176,-0.606 q 0.309,-0.087 0.568,-0.031 0.375,0.08 0.569,0.489 l -0.294,0.083 q -0.121,-0.225 -0.321,-0.287 -0.2,-0.063 -0.456,0.009 -0.304,0.086 -0.449,0.373 -0.143,0.287 -0.016,0.739 0.11,0.391 0.351,0.589 0.241,0.196 0.629,0.087 0.297,-0.084 0.443,-0.31 0.147,-0.228 0.043,-0.614 l -0.686,0.193 -0.069,-0.246 0.963,-0.271 0.33,1.173 -0.191,0.054 -0.151,-0.262 q -0.104,0.208 -0.202,0.305 -0.164,0.165 -0.466,0.25 -0.389,0.11 -0.741,-0.064 -0.395,-0.23 -0.55,-0.782 -0.155,-0.551 0.052,-0.96 0.196,-0.39 0.647,-0.517 z m -0.05,0.011 z"
       id="path99" />
    <path
       d="m 117.069,195.19 q 0.305,-0.101 0.566,-0.058 0.378,0.062 0.591,0.462 l -0.29,0.096 q -0.132,-0.219 -0.334,-0.271 -0.202,-0.054 -0.455,0.031 -0.3,0.1 -0.431,0.393 -0.13,0.293 0.019,0.739 0.128,0.385 0.378,0.572 0.249,0.185 0.632,0.058 0.293,-0.097 0.428,-0.33 0.136,-0.235 0.014,-0.616 l -0.677,0.225 -0.081,-0.243 0.949,-0.316 0.385,1.156 -0.188,0.063 -0.163,-0.255 q -0.094,0.213 -0.188,0.314 -0.157,0.173 -0.454,0.272 -0.384,0.128 -0.743,-0.029 -0.405,-0.212 -0.586,-0.756 -0.181,-0.543 0.007,-0.961 0.178,-0.399 0.622,-0.547 z m -0.049,0.013 z m 1.747,-0.537 0.47,1.327 q 0.083,0.234 0.225,0.358 0.213,0.188 0.521,0.078 0.37,-0.131 0.413,-0.431 0.023,-0.163 -0.059,-0.395 l -0.47,-1.327 0.295,-0.105 0.427,1.206 q 0.14,0.396 0.109,0.647 -0.058,0.458 -0.602,0.651 -0.544,0.193 -0.876,-0.127 -0.182,-0.176 -0.323,-0.572 l -0.427,-1.206 z m 0.551,-0.195 z m 1.33,-0.48 0.346,-0.115 1.676,1.385 -0.585,-1.75 0.278,-0.093 0.722,2.16 -0.328,0.11 -1.692,-1.378 0.584,1.748 -0.279,0.093 z m 0.838,-0.28 z m 2.427,-0.798 q 0.311,-0.08 0.568,-0.019 0.373,0.088 0.558,0.501 l -0.296,0.076 q -0.116,-0.228 -0.314,-0.294 -0.198,-0.067 -0.456,-0.001 -0.306,0.079 -0.457,0.363 -0.149,0.284 -0.032,0.738 0.101,0.393 0.338,0.596 0.236,0.202 0.626,0.101 0.299,-0.077 0.449,-0.3 0.152,-0.225 0.056,-0.613 l -0.691,0.178 -0.064,-0.248 0.968,-0.25 0.304,1.18 -0.192,0.05 -0.145,-0.265 q -0.109,0.206 -0.209,0.3 -0.168,0.162 -0.471,0.24 -0.392,0.101 -0.739,-0.08 -0.39,-0.239 -0.533,-0.794 -0.143,-0.554 0.073,-0.959 0.205,-0.386 0.658,-0.503 z m -0.05,0.01 z"
       id="path101" />
    <path
       d="m 104.985,104.563 -28.302,23.691 13.427,48.944 h 14.875 14.875 l 13.427,-48.944 z"
       opacity="0.997"
       stroke="#e9967a"
       stroke-width="0.183"
       id="path103"
       style="stroke:none;" />
  </g>
  <path
     d="m 66.038714,60.628252 c -4.642373,-0.169333 -10.479339,-0.760411 -16.001186,-5.570795 -0.60907,0.310091 -1.300161,-0.196585 -1.767415,0.216958 -0.804861,0.698764 -1.378742,1.585381 -2.141535,2.321716 -0.60563,0.688974 -1.706295,1.165223 -2.373574,1.401496 -1.022877,0.120121 -2.069832,-0.04127 -3.105675,0.0016 -1.140353,-0.03863 -2.412468,-0.365654 -3.106733,-1.336409 -0.545835,-0.989541 -1.591203,-1.685923 -2.205035,-2.739493 -0.724958,0.219075 -1.751275,-0.462226 -2.211649,0.40005 -0.619654,0.881855 -1.493836,1.549663 -2.257687,2.296051 -0.796924,0.842697 -1.913464,1.29778 -2.880515,1.948125 -0.887147,0.560122 -1.897854,0.55536 -2.873107,1.135855 l -4.042035,0.63447 c -1.174748,0.458787 -2.457447,0.179652 -3.666326,0.395816 l 9.289773,33.863978 h 14.875121 14.874592 z"
     fill="url(#B)"
     class="B"
     id="path107"
     style="fill:url(#B);stroke-width:0.264583;" />
  <g
     stroke="#ffffff"
     stroke-width="0.565"
     class="D"
     id="g113"
     transform="translate(-63.414,-81.6)">
    <path
       d="m 103.166,140.086 c 5.179,2.077 6.295,4.717 18.504,5.258 -7.981,-0.057 -8.076,3.283 -18.007,4.343 -3.657,0.39 -7.17,0.583 -10.49,1.47"
       class="B"
       id="path109" />
    <path
       d="m 90.667,147.816 c 3.484,-1.617 6.753,-3.465 12.495,-1.403 4.536,1.629 8.212,-1.833 18.508,-1.069"
       class="B"
       id="path111" />
  </g>
  <path
     d="m 33.689,55.87 c -1.27,0.349 -1.885,1.575 -2.725,2.446 -0.727,0.57 -2.092,0.994 -2.346,1.791 1.186,-0.195 2.058,-1.065 3.091,-1.594 0.64,-0.33 1.295,-0.375 1.762,0.168 0.761,-0.774 1.711,0.247 2.563,-0.221 0.773,0.253 2.004,1.355 2.519,1.16 -1.005,-0.633 -2.063,-1.412 -2.397,-2.614 -0.395,-0.927 -1.427,-1.426 -2.389,-1.137 0.112,-0.038 -0.103,0.014 -0.078,0 z M 48.3,55.759 c -1.074,0.803 -2.056,1.742 -2.752,2.878 -0.511,0.297 -0.764,0.412 -0.052,0.123 0.877,-0.21 1.838,-1.336 2.549,-0.631 0.841,-0.233 1.633,-1.054 2.359,-0.231 1.083,-0.321 1.927,0.453 2.916,0.75 1.005,0.272 1.996,0.503 2.925,0.999 1.17,0.324 -0.63,-0.435 -1.03,-0.601 -0.946,-0.443 -2.016,-0.54 -2.906,-1.101 -1.071,-0.391 -1.903,-1.1 -2.482,-2.066 -0.479,-0.725 -0.991,0.077 -1.526,-0.119 z"
     class="B"
     fill="#009ce9"
     id="path115" />
  <g
     transform="matrix(0.688785,0,0,0.688785,-150.26635,-56.702693)"
     id="g127">
    <path
       id="use117"
       d="m 270.157,191.598 c -1.243,-0.393 -1.488,-1.392 -0.611,-2.494 0.371,-0.467 0.419,-0.691 0.177,-0.821 -0.199,-0.106 -0.472,-0.055 -1.053,0.198 -1.526,0.664 -2.2,0.855 -3.398,0.961 -2.405,0.214 -5.079,-0.269 -7.2,-1.299 -0.808,-0.393 -1.93,-1.116 -2.44,-1.573 l -0.315,-0.282 0.344,-0.042 a 15.95,15.95 0 0 0 1.01,-0.181 c 2.303,-0.482 2.688,-1.127 1.252,-2.102 -0.434,-0.295 -1.955,-1.032 -2.954,-1.432 -1.381,-0.553 -2.39,-1.123 -3.372,-1.904 a 15.04,15.04 0 0 1 -2.238,-2.342 c -0.405,-0.575 -0.891,-1.383 -0.853,-1.421 0.019,-0.019 1.873,1.025 3.183,1.792 0.495,0.29 0.823,0.105 0.76,-0.427 a 3.24,3.24 0 0 0 -0.16,-0.613 c -0.113,-0.303 -0.255,-0.471 -1.263,-1.506 -1.648,-1.691 -2.893,-3.167 -3.518,-4.173 -0.804,-1.294 -1.781,-4.013 -2.612,-7.27 -0.222,-0.872 -0.236,-0.959 -0.123,-0.806 0.721,0.984 1.799,2.149 2.44,2.636 0.49,0.373 1.018,0.615 1.341,0.614 0.37,-10e-4 0.821,-0.226 1.003,-0.501 0.223,-0.337 0.285,-0.779 0.181,-1.281 -0.151,-0.722 -0.479,-1.311 -1.157,-2.076 -1.536,-1.732 -3.214,-5.043 -4.176,-8.242 -0.592,-1.969 -0.959,-4.998 -1.113,-9.188 l -0.035,-0.949 0.396,1.036 c 1.302,3.409 2.615,5.79 3.793,6.88 0.846,0.783 1.282,0.66 1.283,-0.36 0,-0.923 -0.226,-1.628 -0.959,-2.995 -0.854,-1.59 -1.205,-2.543 -1.46,-3.958 -0.115,-0.638 -0.131,-0.94 -0.146,-2.711 -0.025,-3.066 -0.117,-3.528 -1.174,-5.947 -1.246,-2.849 -1.572,-4.719 -1.233,-7.078 0.207,-1.441 0.773,-3.22 1.441,-4.532 l 0.169,-0.333 0.07,0.661 c 0.119,1.117 0.369,2.002 0.78,2.759 0.105,0.193 0.47,0.792 0.811,1.33 1.08,1.703 1.854,3.431 2.05,4.573 0.035,0.205 0.082,0.9 0.103,1.545 0.038,1.138 0.043,1.175 0.174,1.281 0.091,0.074 0.226,0.11 0.415,0.11 0.36,0 0.608,-0.206 0.823,-0.684 0.542,-1.207 0.628,-2.919 0.292,-5.817 -0.183,-1.578 -0.39,-2.651 -1.056,-5.472 l -0.707,-3.821 c -0.093,-0.804 -0.094,-3.77 -0.001,-4.776 l 0.338,-2.83 c 0.011,0.011 0.096,0.29 0.19,0.619 0.468,1.657 1.337,3.425 2.888,5.877 0.375,0.593 0.772,1.295 0.881,1.56 0.362,0.875 0.599,2.004 0.721,3.432 0.068,0.793 0.07,3.738 0.004,5.063 -0.071,1.436 0.059,2.099 0.439,2.228 0.604,0.206 1.274,-0.731 1.451,-2.027 0.25,-1.834 0.396,-5.654 0.301,-7.89 -0.103,-2.444 -0.212,-3.283 -0.785,-6.088 -0.547,-2.676 -0.722,-4.375 -0.61,-5.922 0.165,-2.273 0.78,-4.976 1.884,-8.28 l 0.458,-1.29 c 0.011,0.011 -0.011,0.174 -0.05,0.361 -0.044,0.21 -0.07,0.815 -0.069,1.578 0.002,1.02 0.025,1.372 0.134,2.009 0.355,2.081 0.956,3.923 2.345,7.192 l 0.741,1.862 c 0.182,0.576 0.401,1.778 0.522,2.861 0.125,1.119 0.174,5.275 0.086,7.25 l -0.02,3.855 c 0.167,0.305 0.536,0.477 0.936,0.435 0.792,-0.084 1.69,-0.807 2.114,-1.7 0.538,-1.135 0.523,-1.426 -0.237,-4.545 -0.803,-3.293 -1.127,-5.473 -1.128,-7.599 -0.002,-2.559 0.52,-4.654 1.589,-6.386 0.12,-0.195 0.229,-0.326 0.24,-0.29 0.011,0.036 -0.007,0.373 -0.041,0.75 -0.092,1.01 -0.078,3.116 0.027,4.031 0.203,1.776 0.535,3.042 1.666,6.358 1.542,4.521 2.174,7.278 2.479,10.817 0.117,1.359 0.087,3.933 -0.058,5.029 -0.334,2.518 -1.014,4.677 -2.25,7.14 -0.199,0.396 -0.987,1.897 -1.752,3.337 -1.643,3.091 -3.467,6.728 -4.138,8.249 -1.995,4.52 -3.168,8.574 -3.597,12.435 -0.345,3.097 -0.271,4.327 0.377,6.249 1.187,3.524 4.464,7.605 9.025,11.243 a 27.79,27.79 0 0 0 3.826,2.618 c 1.74,1.004 2.673,1.73 3.042,2.366 0.674,1.161 -0.117,2.599 -1.686,3.064 -0.368,0.109 -0.917,0.114 -1.241,0.012 z"
       style="fill:#ff0000;stroke:#8b0000;stroke-width:0.558;" />
    <path
       d="m 259.238,122.354 c 0,0.016 -0.002,0.034 -0.002,0.051 0,0.017 0.004,0.023 0.004,0.037 z m 6.266,7.158 c -0.855,0.908 -2.037,1.714 -3.594,1.816 a 3.45,3.45 0 0 1 -1.18,-0.127 c -0.658,-0.19 -1.304,-0.74 -1.826,-1.344 -0.052,0.499 0.008,0.963 -0.066,1.467 a 3.45,3.45 0 0 1 -0.104,0.475 c -0.114,0.385 -0.285,1.891 -2.037,3.066 a 3.45,3.45 0 0 1 -2.801,0.471 c -0.14,0.98 -0.421,2.034 -1.131,3.123 a 3.45,3.45 0 0 1 -3.213,1.549 c -0.265,-0.025 -0.483,-0.261 -0.74,-0.371 0.477,2.981 0.197,5.256 0.605,6.348 l 0.1,0.314 c 0.079,0.293 0.405,0.92 0.906,1.887 0.499,0.961 1.178,2.355 1.215,4.176 0.011,0.372 0.089,0.888 -0.416,1.844 -0.495,0.938 -2.23,1.875 -3.32,1.838 0.077,0.19 0.107,0.412 0.191,0.598 l 0.047,0.109 c 0.808,1.951 1.837,3.725 3.115,5.178 a 3.45,3.45 0 0 1 0.285,0.375 c 0.306,0.461 0.726,1.095 0.998,2.15 0.272,1.055 0.203,3.036 -1.061,4.361 a 3.45,3.45 0 0 1 -0.816,0.633 c -0.305,0.17 -0.637,0.093 -0.963,0.17 0.143,0.298 0.246,0.662 0.406,0.936 0.967,1.444 2.547,2.912 4.236,4.865 a 3.45,3.45 0 0 1 0.4,0.572 c 0.126,0.226 0.255,0.446 0.398,0.895 0.118,0.367 0.302,1.191 -0.152,2.342 0.386,0.205 0.732,0.481 1.143,0.631 a 3.45,3.45 0 0 1 0.33,0.139 c 0.719,0.351 2.52,0.738 4.236,2.537 a 3.45,3.45 0 0 1 0.732,3.596 c 0.333,0.08 0.644,0.262 0.98,0.305 l 0.104,0.016 a 9.23,9.23 0 0 0 2.934,-0.029 c -2.764,-2.036 -5.339,-4.308 -7.473,-6.957 l -0.021,-0.025 c -2.361,-2.989 -4.707,-7.044 -4.199,-11.885 0.456,-7.492 3.337,-14.259 6.549,-20.352 1.615,-3.295 3.376,-6.129 4.438,-8.898 0.8,-2.155 1.112,-4.55 1.014,-7 l -0.002,-0.07 c -0.011,-0.565 -0.194,-1.151 -0.248,-1.721 z"
       fill="#ff4e4e"
       id="path119" />
    <g
       transform="matrix(-1,0,0,1,811.18629,0)"
       id="g125">
      <path
         id="use121"
         d="m 525.745,191.598 c -1.243,-0.393 -1.488,-1.392 -0.611,-2.494 0.371,-0.467 0.419,-0.691 0.177,-0.821 -0.199,-0.106 -0.472,-0.055 -1.053,0.198 -1.526,0.664 -2.2,0.855 -3.398,0.961 -2.405,0.214 -5.079,-0.269 -7.2,-1.299 -0.808,-0.393 -1.93,-1.116 -2.44,-1.573 l -0.315,-0.282 0.344,-0.042 a 15.95,15.95 0 0 0 1.01,-0.181 c 2.303,-0.482 2.688,-1.127 1.252,-2.102 -0.434,-0.295 -1.955,-1.032 -2.954,-1.432 -1.381,-0.553 -2.39,-1.123 -3.372,-1.904 a 15.04,15.04 0 0 1 -2.238,-2.342 c -0.405,-0.575 -0.891,-1.383 -0.853,-1.421 0.019,-0.019 1.873,1.025 3.183,1.792 0.495,0.29 0.823,0.105 0.76,-0.427 a 3.24,3.24 0 0 0 -0.16,-0.613 c -0.113,-0.303 -0.255,-0.471 -1.263,-1.506 -1.648,-1.691 -2.893,-3.167 -3.518,-4.173 -0.804,-1.294 -1.781,-4.013 -2.612,-7.27 -0.222,-0.872 -0.236,-0.959 -0.123,-0.806 0.721,0.984 1.799,2.149 2.44,2.636 0.49,0.373 1.018,0.615 1.341,0.614 0.37,-10e-4 0.821,-0.226 1.003,-0.501 0.223,-0.337 0.285,-0.779 0.181,-1.281 -0.151,-0.722 -0.479,-1.311 -1.157,-2.076 -1.536,-1.732 -3.214,-5.043 -4.176,-8.242 -0.592,-1.969 -0.959,-4.998 -1.113,-9.188 l -0.035,-0.949 0.396,1.036 c 1.302,3.409 2.615,5.79 3.793,6.88 0.846,0.783 1.282,0.66 1.283,-0.36 0,-0.923 -0.226,-1.628 -0.959,-2.995 -0.854,-1.59 -1.205,-2.543 -1.46,-3.958 -0.115,-0.638 -0.131,-0.94 -0.146,-2.711 -0.025,-3.066 -0.117,-3.528 -1.174,-5.947 -1.246,-2.849 -1.572,-4.719 -1.233,-7.078 0.207,-1.441 0.773,-3.22 1.441,-4.532 l 0.169,-0.333 0.07,0.661 c 0.119,1.117 0.369,2.002 0.78,2.759 0.105,0.193 0.47,0.792 0.811,1.33 1.08,1.703 1.854,3.431 2.05,4.573 0.035,0.205 0.082,0.9 0.103,1.545 0.038,1.138 0.043,1.175 0.174,1.281 0.091,0.074 0.226,0.11 0.415,0.11 0.36,0 0.608,-0.206 0.823,-0.684 0.542,-1.207 0.628,-2.919 0.292,-5.817 -0.183,-1.578 -0.39,-2.651 -1.056,-5.472 l -0.707,-3.821 c -0.093,-0.804 -0.094,-3.77 -10e-4,-4.776 l 0.338,-2.83 c 0.011,0.011 0.096,0.29 0.19,0.619 0.468,1.657 1.337,3.425 2.888,5.877 0.375,0.593 0.772,1.295 0.881,1.56 0.362,0.875 0.599,2.004 0.721,3.432 0.068,0.793 0.07,3.738 0.004,5.063 -0.071,1.436 0.059,2.099 0.439,2.228 0.604,0.206 1.274,-0.731 1.451,-2.027 0.25,-1.834 0.396,-5.654 0.301,-7.89 -0.103,-2.444 -0.212,-3.283 -0.785,-6.088 -0.547,-2.676 -0.722,-4.375 -0.61,-5.922 0.165,-2.273 0.78,-4.976 1.884,-8.28 l 0.458,-1.29 c 0.011,0.011 -0.011,0.174 -0.05,0.361 -0.044,0.21 -0.07,0.815 -0.069,1.578 0.002,1.02 0.025,1.372 0.134,2.009 0.355,2.081 0.956,3.923 2.345,7.192 l 0.741,1.862 c 0.182,0.576 0.401,1.778 0.522,2.861 0.125,1.119 0.174,5.275 0.086,7.25 l -0.02,3.855 c 0.167,0.305 0.536,0.477 0.936,0.435 0.792,-0.084 1.69,-0.807 2.114,-1.7 0.538,-1.135 0.523,-1.426 -0.237,-4.545 -0.803,-3.293 -1.127,-5.473 -1.128,-7.599 -0.002,-2.559 0.52,-4.654 1.589,-6.386 0.12,-0.195 0.229,-0.326 0.24,-0.29 0.011,0.036 -0.007,0.373 -0.041,0.75 -0.092,1.01 -0.078,3.116 0.027,4.031 0.203,1.776 0.535,3.042 1.666,6.358 1.542,4.521 2.174,7.278 2.479,10.817 0.117,1.359 0.087,3.933 -0.058,5.029 -0.334,2.518 -1.014,4.677 -2.25,7.14 -0.199,0.396 -0.987,1.897 -1.752,3.337 -1.643,3.091 -3.467,6.728 -4.138,8.249 -1.995,4.52 -3.168,8.574 -3.597,12.435 -0.345,3.097 -0.271,4.327 0.377,6.249 1.187,3.524 4.464,7.605 9.025,11.243 a 27.79,27.79 0 0 0 3.826,2.618 c 1.74,1.004 2.673,1.73 3.042,2.366 0.674,1.161 -0.117,2.599 -1.686,3.064 -0.368,0.109 -0.917,0.114 -1.241,0.012 z"
         style="fill:#ff0000;stroke:#8b0000;stroke-width:0.558;" />
      <path
         d="m 514.826,122.354 c 0,0.016 -0.002,0.034 -0.002,0.051 0,0.017 0.004,0.023 0.004,0.037 z m 6.266,7.158 c -0.855,0.908 -2.037,1.714 -3.594,1.816 a 3.449,3.449 0 0 1 -1.18,-0.127 c -0.658,-0.19 -1.304,-0.74 -1.826,-1.344 -0.052,0.499 0.008,0.963 -0.066,1.467 a 3.449,3.449 0 0 1 -0.104,0.475 c -0.114,0.385 -0.285,1.891 -2.037,3.066 a 3.449,3.449 0 0 1 -2.801,0.471 c -0.14,0.98 -0.421,2.034 -1.131,3.123 a 3.449,3.449 0 0 1 -3.213,1.549 c -0.265,-0.025 -0.483,-0.261 -0.74,-0.371 0.477,2.981 0.197,5.256 0.605,6.348 a 3.449,3.449 0 0 1 0.1,0.314 c 0.079,0.293 0.405,0.92 0.906,1.887 0.499,0.961 1.178,2.355 1.215,4.176 0.011,0.372 0.089,0.888 -0.416,1.844 -0.495,0.938 -2.23,1.875 -3.32,1.838 0.077,0.19 0.107,0.412 0.191,0.598 a 3.449,3.449 0 0 1 0.047,0.109 c 0.808,1.951 1.837,3.725 3.115,5.178 a 3.449,3.449 0 0 1 0.285,0.375 c 0.306,0.461 0.726,1.095 0.998,2.15 0.272,1.055 0.203,3.036 -1.061,4.361 a 3.449,3.449 0 0 1 -0.816,0.633 c -0.305,0.17 -0.637,0.093 -0.963,0.17 0.143,0.298 0.246,0.662 0.406,0.936 0.967,1.444 2.547,2.912 4.236,4.865 a 3.449,3.449 0 0 1 0.4,0.572 c 0.126,0.226 0.255,0.446 0.398,0.895 0.118,0.367 0.302,1.191 -0.152,2.342 0.386,0.205 0.732,0.481 1.143,0.631 a 3.449,3.449 0 0 1 0.33,0.139 c 0.719,0.351 2.52,0.738 4.236,2.537 a 3.449,3.449 0 0 1 0.732,3.596 c 0.333,0.08 0.644,0.262 0.98,0.305 a 3.449,3.449 0 0 1 0.104,0.016 9.23,9.23 0 0 0 2.934,-0.029 c -2.764,-2.036 -5.339,-4.308 -7.473,-6.957 a 3.449,3.449 0 0 1 -0.021,-0.025 c -2.361,-2.989 -4.707,-7.044 -4.199,-11.885 0.456,-7.492 3.337,-14.259 6.549,-20.352 1.615,-3.295 3.376,-6.129 4.438,-8.898 0.8,-2.155 1.112,-4.55 1.014,-7 a 3.449,3.449 0 0 1 -0.002,-0.07 c -0.011,-0.565 -0.194,-1.151 -0.248,-1.721 z"
         fill="#ff4e4e"
         id="path123" />
    </g>
  </g>
  <g
     id="g2588">
    <g
       class="G"
       id="g137"
       transform="translate(-63.414,-81.6)">
      <path
         d="m 76.494,120.621 c -3.282,15.673 -6.244,30.573 17.84,44.968"
         stroke-width="0.665"
         class="D"
         id="path129" />
      <g
         class="C"
         id="g135">
        <path
           id="use131"
           d="m 82.98,163.123 c 3.97,1.442 4.326,-1.497 8.519,1.604 -3.365,1.357 -6.038,0.223 -8.519,-1.604 z"
           style="fill:#f5c742;" />
        <path
           id="use133"
           d="m 91.261,164.721 1.837,0.134"
           style="fill:none;" />
      </g>
    </g>
    <path
       id="use139"
       d="m 22.27,82.269 c 1.467,0.141 2.243,-0.754 4.418,0.449 -1.767,0.3 -2.784,-0.222 -4.418,-0.449 z"
       style="fill:#ffeba3;" />
    <g
       transform="rotate(6.4449776,869.37139,-1585.642)"
       id="g149">
      <g
         class="C G"
         id="g145">
        <path
           id="use141"
           d="m 208.345,163.123 c 3.97,1.442 4.326,-1.497 8.519,1.604 -3.365,1.357 -6.038,0.223 -8.519,-1.604 z"
           style="fill:#f5c742;" />
        <path
           id="use143"
           d="m 216.626,164.721 1.837,0.134"
           style="fill:none;" />
      </g>
      <path
         id="use147"
         d="m 211.049,163.869 c 1.467,0.141 2.243,-0.754 4.418,0.449 -1.767,0.3 -2.784,-0.222 -4.418,-0.449 z"
         style="fill:#ffeba3;" />
    </g>
    <g
       transform="rotate(30.912012,285.09733,-246.21337)"
       id="g169">
      <g
         class="C G"
         id="g165">
        <path
           id="use161"
           d="m 208.345,163.123 c 3.97,1.442 4.326,-1.497 8.519,1.604 -3.365,1.357 -6.038,0.223 -8.519,-1.604 z"
           style="fill:#f5c742;" />
        <path
           id="use163"
           d="m 216.626,164.721 1.837,0.134"
           style="fill:none;" />
      </g>
      <path
         id="use167"
         d="m 211.049,163.869 c 1.467,0.141 2.243,-0.754 4.418,0.449 -1.767,0.3 -2.784,-0.222 -4.418,-0.449 z"
         style="fill:#ffeba3;" />
    </g>
    <g
       transform="matrix(0.700907,0.662779,-0.639694,0.726201,-34.29509,-197.98574)"
       id="g179">
      <g
         class="C G"
         id="g175">
        <path
           id="use171"
           d="m 208.345,163.123 c 3.97,1.442 4.326,-1.497 8.519,1.604 -3.365,1.357 -6.038,0.223 -8.519,-1.604 z"
           style="fill:#f5c742;" />
        <path
           id="use173"
           d="m 216.626,164.721 1.837,0.134"
           style="fill:none;" />
      </g>
      <path
         id="use177"
         d="m 211.049,163.869 c 1.467,0.141 2.243,-0.754 4.418,0.449 -1.767,0.3 -2.784,-0.222 -4.418,-0.449 z"
         style="fill:#ffeba3;" />
    </g>
    <g
       transform="matrix(0.5281,0.807253,-0.790662,0.558058,26.58559,-207.76652)"
       id="g189">
      <g
         class="C G"
         id="g185">
        <path
           id="use181"
           d="m 208.345,163.123 c 3.97,1.442 4.326,-1.497 8.519,1.604 -3.365,1.357 -6.038,0.223 -8.519,-1.604 z"
           style="fill:#f5c742;" />
        <path
           id="use183"
           d="m 216.626,164.721 1.837,0.134"
           style="fill:none;" />
      </g>
      <path
         id="use187"
         d="m 211.049,163.869 c 1.467,0.141 2.243,-0.754 4.418,0.449 -1.767,0.3 -2.784,-0.222 -4.418,-0.449 z"
         style="fill:#ffeba3;" />
    </g>
    <g
       transform="matrix(0.366123,0.892469,-0.881836,0.398675,76.41345,-206.95685)"
       id="g199">
      <g
         class="C G"
         id="g195">
        <path
           id="use191"
           d="m 208.345,163.123 c 3.97,1.442 4.326,-1.497 8.519,1.604 -3.365,1.357 -6.038,0.223 -8.519,-1.604 z"
           style="fill:#f5c742;" />
        <path
           id="use193"
           d="m 216.626,164.721 1.837,0.134"
           style="fill:none;" />
      </g>
      <path
         id="use197"
         d="m 211.049,163.869 c 1.467,0.141 2.243,-0.754 4.418,0.449 -1.767,0.3 -2.784,-0.222 -4.418,-0.449 z"
         style="fill:#ffeba3;" />
    </g>
    <g
       transform="matrix(0.282574,0.830101,-0.818871,0.31386,84.7881,-186.63549)"
       id="g209">
      <g
         class="C G"
         id="g205">
        <path
           id="use201"
           d="m 208.345,163.123 c 3.97,1.442 4.326,-1.497 8.519,1.604 -3.365,1.357 -6.038,0.223 -8.519,-1.604 z"
           style="fill:#f5c742;" />
        <path
           id="use203"
           d="m 216.626,164.721 1.837,0.134"
           style="fill:none;" />
      </g>
      <path
         id="use207"
         d="m 211.049,163.869 c 1.467,0.141 2.243,-0.754 4.418,0.449 -1.767,0.3 -2.784,-0.222 -4.418,-0.449 z"
         style="fill:#ffeba3;" />
    </g>
    <g
       transform="matrix(0.240448,0.85257,0.844593,-0.242719,-161.86372,-62.750397)"
       id="g219">
      <g
         class="C G"
         id="g215">
        <path
           id="use211"
           d="m 208.345,163.123 c 3.97,1.442 4.326,-1.497 8.519,1.604 -3.365,1.357 -6.038,0.223 -8.519,-1.604 z"
           style="fill:#f5c742;" />
        <path
           id="use213"
           d="m 216.626,164.721 1.837,0.134"
           style="fill:none;" />
      </g>
      <path
         id="use217"
         d="m 211.049,163.869 c 1.467,0.141 2.243,-0.754 4.418,0.449 -1.767,0.3 -2.784,-0.222 -4.418,-0.449 z"
         style="fill:#ffeba3;" />
    </g>
    <g
       transform="matrix(0.193867,0.907645,1.021553,-0.17225,-184.71514,-88.810233)"
       id="g229">
      <g
         class="C G"
         id="g225">
        <path
           id="use221"
           d="m 208.345,163.123 c 3.97,1.442 4.326,-1.497 8.519,1.604 -3.365,1.357 -6.038,0.223 -8.519,-1.604 z"
           style="fill:#f5c742;" />
        <path
           id="use223"
           d="m 216.626,164.721 1.837,0.134"
           style="fill:none;" />
      </g>
      <path
         id="use227"
         d="m 211.049,163.869 c 1.467,0.141 2.243,-0.754 4.418,0.449 -1.767,0.3 -2.784,-0.222 -4.418,-0.449 z"
         style="fill:#ffeba3;" />
    </g>
    <g
       transform="matrix(0.015943,0.973342,1.129016,0.030019,-168.15157,-140.10955)"
       id="g239">
      <g
         class="C G"
         id="g235">
        <path
           id="use231"
           d="m 208.345,163.123 c 3.97,1.442 4.326,-1.497 8.519,1.604 -3.365,1.357 -6.038,0.223 -8.519,-1.604 z"
           style="fill:#f5c742;" />
        <path
           id="use233"
           d="m 216.626,164.721 1.837,0.134"
           style="fill:none;" />
      </g>
      <path
         id="use237"
         d="m 211.049,163.869 c 1.467,0.141 2.243,-0.754 4.418,0.449 -1.767,0.3 -2.784,-0.222 -4.418,-0.449 z"
         style="fill:#ffeba3;" />
    </g>
    <g
       transform="matrix(-0.174631,0.848567,0.905553,0.2427,-94.397768,-152.69783)"
       id="g249">
      <g
         class="C G"
         id="g245">
        <path
           id="use241"
           d="m 208.345,163.123 c 3.97,1.442 4.326,-1.497 8.519,1.604 -3.365,1.357 -6.038,0.223 -8.519,-1.604 z"
           style="fill:#f5c742;" />
        <path
           d="m 216.626,164.721 1.785,0.456"
           class="D"
           id="path243" />
      </g>
      <path
         id="use247"
         d="m 211.049,163.869 c 1.467,0.141 2.243,-0.754 4.418,0.449 -1.767,0.3 -2.784,-0.222 -4.418,-0.449 z"
         style="fill:#ffeba3;" />
    </g>
    <g
       transform="matrix(-0.37333,0.857733,0.883488,0.466515,-50.87265,-197.225)"
       id="g259">
      <g
         class="C G"
         id="g255">
        <path
           id="use251"
           d="m 208.345,163.123 c 3.97,1.442 4.326,-1.497 8.519,1.604 -3.365,1.357 -6.038,0.223 -8.519,-1.604 z"
           style="fill:#f5c742;" />
        <path
           d="m 216.626,164.721 1.642,0.278"
           class="D"
           id="path253" />
      </g>
      <path
         id="use257"
         d="m 211.049,163.869 c 1.467,0.141 2.243,-0.754 4.418,0.449 -1.767,0.3 -2.784,-0.222 -4.418,-0.449 z"
         style="fill:#ffeba3;" />
    </g>
    <g
       transform="matrix(-0.639983,0.775643,0.784401,0.751428,21.29816,-233.221)"
       id="g269">
      <g
         class="C G"
         id="g265">
        <path
           id="use261"
           d="m 208.345,163.123 c 3.97,1.442 4.326,-1.497 8.519,1.604 -3.365,1.357 -6.038,0.223 -8.519,-1.604 z"
           style="fill:#f5c742;" />
        <path
           d="m 216.626,164.721 1.515,0.467"
           class="D"
           id="path263" />
      </g>
      <path
         id="use267"
         d="m 211.049,163.869 c 1.467,0.141 2.243,-0.754 4.418,0.449 -1.767,0.3 -2.784,-0.222 -4.418,-0.449 z"
         style="fill:#ffeba3;" />
    </g>
    <g
       transform="matrix(-0.639983,0.775643,0.784401,0.751428,21.10917,-239.74109)"
       id="g279">
      <g
         class="C G"
         id="g275">
        <path
           id="use271"
           d="m 208.345,163.123 c 3.97,1.442 4.326,-1.497 8.519,1.604 -3.365,1.357 -6.038,0.223 -8.519,-1.604 z"
           style="fill:#f5c742;" />
        <path
           d="m 216.626,164.721 1.675,0.176"
           class="D"
           id="path273" />
      </g>
      <path
         id="use277"
         d="m 211.049,163.869 c 1.467,0.141 2.243,-0.754 4.418,0.449 -1.767,0.3 -2.784,-0.222 -4.418,-0.449 z"
         style="fill:#ffeba3;" />
    </g>
    <g
       transform="matrix(-0.670351,0.644402,0.650753,0.763233,50.24224,-219.32546)"
       id="g289">
      <g
         class="C G"
         id="g285">
        <path
           id="use281"
           d="m 208.345,163.123 c 3.97,1.442 4.326,-1.497 8.519,1.604 -3.365,1.357 -6.038,0.223 -8.519,-1.604 z"
           style="fill:#f5c742;" />
        <path
           d="m 216.626,164.721 1.675,0.176"
           class="D"
           id="path283" />
      </g>
      <path
         id="use287"
         d="m 211.049,163.869 c 1.467,0.141 2.243,-0.754 4.418,0.449 -1.767,0.3 -2.784,-0.222 -4.418,-0.449 z"
         style="fill:#ffeba3;" />
    </g>
    <g
       transform="matrix(-0.146315,0.864585,-0.86959,-0.113454,187.94806,-129.18161)"
       id="g299">
      <g
         class="C G"
         id="g295">
        <path
           id="use291"
           d="m 208.345,163.123 c 3.97,1.442 4.326,-1.497 8.519,1.604 -3.365,1.357 -6.038,0.223 -8.519,-1.604 z"
           style="fill:#f5c742;" />
        <path
           id="use293"
           d="m 216.626,164.721 1.837,0.134"
           style="fill:none;" />
      </g>
      <path
         id="use297"
         d="m 211.049,163.869 c 1.467,0.141 2.243,-0.754 4.418,0.449 -1.767,0.3 -2.784,-0.222 -4.418,-0.449 z"
         style="fill:#ffeba3;" />
    </g>
  </g>
  <g
     stroke="#ffff00"
     class="D N"
     id="g325"
     transform="translate(-63.414,-81.6)">
    <g
       class="O"
       id="g309">
      <path
         id="use301"
         d="m 91.181,172.951 h 0.423 a 0.93,0.93 0 0 1 0.93,0.93 v 1.859 a 0.93,0.93 0 0 1 -0.93,0.93 h -0.423 a 0.93,0.93 0 0 1 -0.93,-0.93 v -1.859 a 0.93,0.93 0 0 1 0.93,-0.93 z"
         style="opacity:0.998;" />
      <path
         id="use303"
         d="m 94.223604,167.63746 0.306645,0.29137 a 0.93,0.93 0 0 1 0.03358,1.31479 l -1.280522,1.34764 a 0.93,0.93 0 0 1 -1.31479,0.0336 l -0.306645,-0.29137 a 0.93,0.93 0 0 1 -0.03358,-1.31479 l 1.280521,-1.34765 a 0.93,0.93 0 0 1 1.31479,-0.0336 z"
         style="opacity:0.998;" />
      <path
         transform="rotate(58.333)"
         d="m 190.981,2.449 h 0.423 a 0.93,0.93 0 0 1 0.93,0.93 v 1.859 a 0.93,0.93 0 0 1 -0.93,0.93 h -0.423 a 0.93,0.93 0 0 1 -0.93,-0.93 v -1.86 a 0.93,0.93 0 0 1 0.93,-0.93 z"
         class="B"
         id="path305" />
      <path
         id="use307"
         d="m 103.66855,162.31326 0.0132,0.42279 a 0.93,0.93 0 0 1 -0.90048,0.95862 l -1.8581,0.0581 a 0.93,0.93 0 0 1 -0.958608,-0.90048 l -0.01322,-0.4228 a 0.93,0.93 0 0 1 0.900478,-0.95861 l 1.85809,-0.0581 a 0.93,0.93 0 0 1 0.95862,0.90048 z"
         style="opacity:0.998;" />
    </g>
    <path
       d="m 92.345,169.732 -0.935,3.842 m 2.138,-5.145 2.539,-3.007 m 1.369,-0.968 3.475,-1.637"
       class="a"
       id="path311" />
    <g
       class="O"
       id="g321">
      <path
         d="m 118.788,172.951 h -0.423 a 0.93,0.93 0 0 0 -0.93,0.93 v 1.859 a 0.93,0.93 0 0 0 0.93,0.93 h 0.423 a 0.93,0.93 0 0 0 0.93,-0.93 v -1.859 a 0.93,0.93 0 0 0 -0.93,-0.93 z"
         class="B"
         id="path313" />
      <path
         id="use315"
         d="m 115.74577,167.63773 -0.30665,0.29137 a 0.92999965,0.92999965 0 0 0 -0.0336,1.31479 l 1.28052,1.34764 a 0.92999965,0.92999965 0 0 0 1.31479,0.0336 l 0.30665,-0.29137 a 0.92999965,0.92999965 0 0 0 0.0336,-1.31479 l -1.28052,-1.34764 a 0.92999965,0.92999965 0 0 0 -1.31479,-0.0336 z"
         style="opacity:0.998;" />
      <path
         id="use317"
         d="m 111.79294,163.83248 -0.22206,0.36002 a 0.92999998,0.92999998 0 0 0 0.30331,1.27977 l 1.58222,0.97593 a 0.92999998,0.92999998 0 0 0 1.27977,-0.30331 l 0.22206,-0.36003 a 0.92999998,0.92999998 0 0 0 -0.30331,-1.27976 l -1.58222,-0.97593 a 0.92999998,0.92999998 0 0 0 -1.27977,0.30331 z"
         style="opacity:0.998;" />
      <path
         id="use319"
         d="m 106.30136,162.31349 -0.0132,0.42279 a 0.93000043,0.93000043 0 0 0 0.90048,0.95861 l 1.85809,0.0581 a 0.93000043,0.93000043 0 0 0 0.95861,-0.90048 l 0.0132,-0.42279 a 0.93000043,0.93000043 0 0 0 -0.90048,-0.95862 l -1.85809,-0.0581 a 0.93000043,0.93000043 0 0 0 -0.95861,0.90048 z"
         style="opacity:0.998;" />
    </g>
    <path
       d="m 117.625,169.732 0.935,3.842 m -2.138,-5.145 -2.539,-3.007 m -1.37,-0.968 -3.475,-1.637 m -6.309,-0.306 h 4.512"
       class="a"
       id="path323" />
  </g>
  <g
     id="g2455">
    <path
       d="m 67.303,40.537 c 0.426,-1.266 0.837,-2.59 1.63,-2.386 -0.108,-0.349 -0.104,-1.258 -0.024,-2.551 2.188,-0.163 2.13,0.305 2.386,0.685 0.564,-1.18 1.669,-0.495 2.788,0.236 0.04,1.032 0.373,2.298 -0.472,2.622 1.171,0.077 1.294,1.857 1.488,3.52 -0.962,-0.254 -2.236,0.219 -2.858,-0.827 -0.021,1.01 -0.861,1.929 -1.394,2.882 -0.697,-1.047 -1.732,-2.095 -1.488,-3.142 -1.028,0.125 -1.513,-0.496 -2.055,-1.039 z"
       class="C J K"
       id="path327" />
    <path
       d="m 68.39,40.419 2.575,-0.307 -0.142,3.142 0.614,-3.118 2.788,1.323 -2.457,-1.795 1.654,-2.575 -2.055,2.221 -1.677,-2.835 1.181,3.142 z"
       class="R"
       id="path329" />
    <g
       transform="rotate(-66.381997,75.158631,231.38361)"
       id="g335">
      <path
         d="m 227.226,160.651 c -0.687,-0.713 -1.957,-0.854 -3.004,-1.027 -0.045,1.497 -0.266,2.789 0.8,3.052 -0.494,0.262 -0.658,0.965 -0.78,1.725 1.436,0.759 1.824,0.833 2.445,0.399 0.125,1.091 1.319,1.052 2.327,1.683 0.521,-0.973 2.322,-1.603 1.997,-2.745 0.509,-0.815 1.728,-1.424 2.705,-1.888 -0.89,-0.335 -2.573,-0.851 -3.687,-1.018 0.605,-0.67 -0.152,-1.223 -0.68,-2.165 -0.759,0.894 -2.072,0.913 -2.123,1.986 z"
         class="C J K"
         id="path331" />
      <path
         id="use333"
         d="m 224.975,160.597 2.41,1.63 -2.244,1.843 2.611,-1.458 1.948,2.946 c 0,-0.095 -1.41,-3.13 -1.41,-3.13 l 3.938,-0.579 -3.945,0.118 0.921,-2.173 -1.512,1.961 z"
         style="fill:#006e39;" />
    </g>
    <g
       transform="rotate(-39.885988,27.00199,339.94672)"
       id="g349">
      <path
         d="m 226.865,160.408 c -0.578,-1.325 -1.808,-0.792 -2.858,-0.945 -0.045,1.497 -0.05,2.95 1.016,3.213 -0.494,0.262 -0.658,0.965 -0.78,1.725 1.436,0.759 2.36,0.929 2.98,0.494 0.869,1.53 2.946,-0.411 3.399,-0.079 0.521,-0.973 0.783,-1.168 0.458,-2.31 1.304,-0.151 1.539,-0.728 2.517,-1.192 -0.89,-0.335 -1.766,-0.502 -2.88,-0.669 -0.466,-1.327 -0.772,-1.478 -1.301,-2.41 -1.054,0.593 -2.832,0.762 -2.551,2.173 z"
         class="C J K"
         id="path337" />
      <path
         d="m 224.975,160.597 2.41,1.63 -2.244,1.843 2.611,-1.458 1.518,1.585 c 0,-0.095 -0.98,-1.769 -0.98,-1.769 l 3.938,-0.579 -3.945,0.118 0.921,-2.173 -1.512,1.961 z"
         class="R"
         id="path339" />
      <path
         id="use341"
         d="m 232.204,159.983 c -0.288,-1.204 0.863,-4.004 2.835,-2.079 2.78,-1.508 3.054,1.503 1.677,2.173 1.445,2.187 -1.376,4.007 -3.189,1.937 z"
         style="fill:#e8e8e8;stroke:#a6a6a6;stroke-width:0.265;" />
      <path
         id="use343"
         d="m 236.471,158.323 c -0.64,-0.329 -1.312,0.215 -1.96,0.047 -0.505,-0.454 -1.547,-0.368 -1.443,0.493 0.148,0.884 1.207,0.518 1.751,0.932 0.674,0.415 0.119,1.043 -0.062,1.534 0.079,0.607 0.851,0.763 1.335,0.548 0.436,-0.496 0.008,-1.134 -0.013,-1.684 0.143,-0.582 0.852,-1.031 0.55,-1.703 l -0.065,-0.094 z"
         style="fill:#ffffff;" />
      <path
         id="use345"
         d="m 232.245,159.242 c -0.105,1.474 -2.658,1.746 -2.89,3.358 1.914,1.24 2.917,-0.827 5.496,0.267 -1.497,-1.376 -0.719,-1.747 -0.401,-2.322 -0.89,-0.152 -1.792,-0.283 -2.205,-1.303 z"
         style="fill:#008b48;stroke:#006e39;stroke-width:0.265;" />
      <path
         id="use347"
         d="m 233.598,160.812 c -0.869,0.172 -0.934,0.023 -1.236,-0.535 -0.317,0.415 -0.262,0.894 0.067,1.42 0.321,0.331 0.782,0.459 1.303,0.501 -0.404,-0.106 -0.897,-1.088 -0.134,-1.386 z"
         style="fill:#00ab59;" />
    </g>
    <path
       id="use351"
       d="m 55.35,79.587 c -0.687,-0.713 -1.811,-0.771 -2.858,-0.945 -0.045,1.497 -0.05,2.95 1.016,3.213 -0.494,0.262 -0.658,0.965 -0.78,1.725 1.436,0.759 2.616,1.143 3.236,0.709 0.378,0.554 1.452,0.387 2.315,1.323 0.521,-0.973 1.6,-1.834 1.276,-2.977 0.509,-0.815 1.668,-1.143 2.646,-1.606 -0.89,-0.335 -1.604,-0.801 -2.717,-0.969 -0.528,-0.758 -1.055,-1.703 -1.583,-2.646 -0.759,0.894 -2.501,1.1 -2.551,2.173 z"
       style="fill:#008b48;stroke:#006e39;stroke-width:0.265;" />
    <path
       id="use353"
       d="m 53.460002,79.776 2.41,1.63 -2.244,1.843 2.611,-1.458 1.948,2.946 c 0,-0.095 -1.41,-3.13 -1.41,-3.13 l 3.938,-0.579 -3.945,0.118 0.921,-2.173 -1.512,1.961 z"
       style="fill:#006e39;" />
    <path
       id="use355"
       d="m 60.689002,79.162 c -0.288,-1.204 0.863,-4.004 2.835,-2.079 2.78,-1.508 3.054,1.503 1.677,2.173 1.445,2.187 -1.376,4.007 -3.189,1.937 z"
       style="fill:#e8e8e8;stroke:#a6a6a6;stroke-width:0.265;" />
    <path
       id="use357"
       d="m 64.956002,77.502 c -0.64,-0.329 -1.312,0.215 -1.96,0.047 -0.505,-0.454 -1.547,-0.368 -1.443,0.493 0.148,0.884 1.207,0.518 1.751,0.932 0.674,0.415 0.119,1.043 -0.062,1.534 0.079,0.607 0.851,0.763 1.335,0.548 0.436,-0.496 0.008,-1.134 -0.013,-1.684 0.143,-0.582 0.852,-1.031 0.55,-1.703 l -0.065,-0.094 z"
       style="fill:#ffffff;" />
    <path
       id="use359"
       d="m 60.729003,78.421 c -0.105,1.474 -2.658,1.746 -2.89,3.358 1.914,1.24 2.917,-0.827 5.496,0.267 -1.497,-1.376 -0.719,-1.747 -0.401,-2.322 -0.89,-0.152 -1.792,-0.283 -2.205,-1.303 z"
       style="fill:#008b48;stroke:#006e39;stroke-width:0.265;" />
    <path
       id="use361"
       d="m 62.083002,79.991 c -0.869,0.172 -0.934,0.023 -1.236,-0.535 -0.317,0.415 -0.262,0.894 0.067,1.42 0.321,0.331 0.782,0.459 1.303,0.501 -0.404,-0.106 -0.897,-1.088 -0.134,-1.386 z"
       style="fill:#00ab59;" />
    <g
       transform="matrix(-0.097914,-0.751507,0.792306,-0.075431,-32.24726,234.65375)"
       id="g367">
      <path
         id="use363"
         d="m 226.865,160.408 c -0.687,-0.713 -1.811,-0.771 -2.858,-0.945 -0.045,1.497 -0.05,2.95 1.016,3.213 -0.494,0.262 -0.658,0.965 -0.78,1.725 1.436,0.759 2.616,1.143 3.236,0.709 0.378,0.554 1.452,0.387 2.315,1.323 0.521,-0.973 1.6,-1.834 1.276,-2.977 0.509,-0.815 1.668,-1.143 2.646,-1.606 -0.89,-0.335 -1.604,-0.801 -2.717,-0.969 -0.528,-0.758 -1.055,-1.703 -1.583,-2.646 -0.759,0.894 -2.501,1.1 -2.551,2.173 z"
         style="fill:#008b48;stroke:#006e39;stroke-width:0.265;" />
      <path
         id="use365"
         d="m 224.975,160.597 2.41,1.63 -2.244,1.843 2.611,-1.458 1.948,2.946 c 0,-0.095 -1.41,-3.13 -1.41,-3.13 l 3.938,-0.579 -3.945,0.118 0.921,-2.173 -1.512,1.961 z"
         style="fill:#006e39;" />
    </g>
    <g
       transform="matrix(0.521104,-0.925584,1.191767,0.404715,-239.0287,209.00619)"
       id="g377">
      <path
         id="use369"
         d="m 232.204,159.983 c -0.288,-1.204 0.863,-4.004 2.835,-2.079 2.78,-1.508 3.054,1.503 1.677,2.173 1.445,2.187 -1.376,4.007 -3.189,1.937 z"
         style="fill:#e8e8e8;stroke:#a6a6a6;stroke-width:0.265;" />
      <path
         id="use371"
         d="m 236.471,158.323 c -0.64,-0.329 -1.312,0.215 -1.96,0.047 -0.505,-0.454 -1.547,-0.368 -1.443,0.493 0.148,0.884 1.207,0.518 1.751,0.932 0.674,0.415 0.119,1.043 -0.062,1.534 0.079,0.607 0.851,0.763 1.335,0.548 0.436,-0.496 0.008,-1.134 -0.013,-1.684 0.143,-0.582 0.852,-1.031 0.55,-1.703 l -0.065,-0.094 z"
         style="fill:#ffffff;" />
      <path
         id="use373"
         d="m 232.245,159.242 c -0.105,1.474 -2.658,1.746 -2.89,3.358 1.914,1.24 2.917,-0.827 5.496,0.267 -1.497,-1.376 -0.719,-1.747 -0.401,-2.322 -0.89,-0.152 -1.792,-0.283 -2.205,-1.303 z"
         style="fill:#008b48;stroke:#006e39;stroke-width:0.265;" />
      <path
         id="use375"
         d="m 233.598,160.812 c -0.869,0.172 -0.934,0.023 -1.236,-0.535 -0.317,0.415 -0.262,0.894 0.067,1.42 0.321,0.331 0.782,0.459 1.303,0.501 -0.404,-0.106 -0.897,-1.088 -0.134,-1.386 z"
         style="fill:#00ab59;" />
    </g>
    <g
       transform="matrix(0.581307,-0.878168,1.047645,0.560224,-230.96244,160.633)"
       id="g387">
      <path
         id="use379"
         d="m 232.204,159.983 c -0.288,-1.204 0.863,-4.004 2.835,-2.079 2.78,-1.508 3.054,1.503 1.677,2.173 1.445,2.187 -1.376,4.007 -3.189,1.937 z"
         style="fill:#e8e8e8;stroke:#a6a6a6;stroke-width:0.265;" />
      <path
         id="use381"
         d="m 236.471,158.323 c -0.64,-0.329 -1.312,0.215 -1.96,0.047 -0.505,-0.454 -1.547,-0.368 -1.443,0.493 0.148,0.884 1.207,0.518 1.751,0.932 0.674,0.415 0.119,1.043 -0.062,1.534 0.079,0.607 0.851,0.763 1.335,0.548 0.436,-0.496 0.008,-1.134 -0.013,-1.684 0.143,-0.582 0.852,-1.031 0.55,-1.703 l -0.065,-0.094 z"
         style="fill:#ffffff;" />
      <path
         id="use383"
         d="m 232.245,159.242 c -0.105,1.474 -2.658,1.746 -2.89,3.358 1.914,1.24 2.917,-0.827 5.496,0.267 -1.497,-1.376 -0.719,-1.747 -0.401,-2.322 -0.89,-0.152 -1.792,-0.283 -2.205,-1.303 z"
         style="fill:#008b48;stroke:#006e39;stroke-width:0.265;" />
      <path
         id="use385"
         d="m 233.598,160.812 c -0.869,0.172 -0.934,0.023 -1.236,-0.535 -0.317,0.415 -0.262,0.894 0.067,1.42 0.321,0.331 0.782,0.459 1.303,0.501 -0.404,-0.106 -0.897,-1.088 -0.134,-1.386 z"
         style="fill:#00ab59;" />
    </g>
  </g>
  <g
     transform="matrix(0.995643,0,0,1.057612,-62.956779,-90.683628)"
     id="g409">
    <g
       class="G"
       id="g405">
      <g
         stroke-width="0.281"
         class="O"
         id="g401">
        <path
           id="use391"
           d="m 105.823,157.608 c 0,0 -0.381,-0.902 -0.381,-1.852 v -4.5 c 0,-1.269 0.381,-2.17 0.381,-2.17 h -1.748 c 0,0 0.381,0.901 0.381,2.17 v 4.5 c 0,0.95 -0.381,1.852 -0.381,1.852 z"
           style="fill:url(#linearGradient2268);" />
        <path
           id="use393"
           d="m 105.823,149.086 c 0,0 -0.381,-0.902 -0.381,-1.852 v -4.5 c 0,-1.269 0.381,-2.17 0.381,-2.17 h -1.748 c 0,0 0.381,0.901 0.381,2.17 v 4.5 c 0,0.95 -0.381,1.852 -0.381,1.852 z"
           style="fill:url(#D);" />
        <path
           id="use395"
           d="m 105.823,140.565 c 0,0 -0.381,-0.902 -0.381,-1.852 v -4.5 c 0,-1.269 0.381,-2.17 0.381,-2.17 h -1.748 c 0,0 0.381,0.901 0.381,2.17 v 4.5 c 0,0.95 -0.381,1.852 -0.381,1.852 z"
           style="fill:url(#F);" />
        <path
           fill="url(#E)"
           d="m 105.823,132.043 c 0,0 -0.381,-0.902 -0.381,-1.852 v -4.5 c 0,-1.269 0.381,-2.17 0.381,-2.17 h -1.748 c 0,0 0.381,0.901 0.381,2.17 v 4.5 c 0,0.95 -0.381,1.852 -0.381,1.852 h 1.747 z"
           id="path397"
           style="fill:url(#E);" />
        <path
           fill="url(#G)"
           d="m 105.823,123.521 c 0,0 -0.381,-0.902 -0.381,-1.852 v -6.304 h -0.985 v 6.304 c 0,0.95 -0.381,1.852 -0.381,1.852 z"
           id="path399"
           style="fill:url(#G);" />
      </g>
      <path
         d="m 104.985,111.358 c -1.05,2.086 -1.068,4.235 0,4.235 1.068,0 1.05,-2.15 0,-4.235 z"
         fill="#b19009"
         stroke-width="0.143"
         id="path403" />
    </g>
    <path
       d="m 104.985,111.922 c -0.384,0.896 -0.579,1.751 -0.581,2.379 -10e-4,0.406 0.078,0.705 0.176,0.863 a 0.39,0.39 0 0 0 0.404,0.219 0.39,0.39 0 0 0 0.404,-0.219 c 0.098,-0.158 0.177,-0.457 0.176,-0.863 -0.002,-0.627 -0.196,-1.483 -0.581,-2.379 z"
       fill="#685405"
       id="path407" />
  </g>
  <g
     opacity="0.995"
     id="g563"
     transform="translate(-63.414,-81.6)">
    <path
       d="m 118.332,182.142 c -0.597,1.854 -1.853,2.996 -3.614,3.591 l 0.638,0.827 c 1.889,-2.118 10.533,-5.025 13.589,-4.65 l -0.1,-0.434 -1.687,-0.301 c 1.526,-1.652 2.925,-2.67 4.262,-3.38 l -0.331,-0.567 -1.24,0.626 c 0.687,-2.228 1.996,-3.745 3.083,-5.516 l -0.331,-0.26 c -0.524,0.529 -1.034,1.186 -1.536,1.937 -0.338,-3.58 0.755,-6.72 2.032,-9.804 0.56,-0.899 1.402,-1.327 2.221,-1.795 l -0.283,-0.307 c -0.468,0.222 -0.789,0.222 -1.417,0.685 l 0.496,-3.213 h -0.543 c -0.242,1.936 -0.644,3.576 -1.606,5.646 -0.962,2.07 -1.318,4.669 -1.748,7.111 -0.495,2.806 -0.205,5.857 -4.026,8.586 -3.53,1.601 -5.972,2.386 -7.904,2.789 l 0.449,-1.547 z"
       fill="#844938"
       id="path411" />
    <path
       d="m 119.544,183.701 c 0.874,-5.307 3.665,-5.005 6.166,-5.552 -0.223,4.743 -3.759,4.255 -6.166,5.552 z"
       class="H P S b"
       id="path413" />
    <path
       d="m 125.107,178.586 c -2.89,2.193 -3.339,3.208 -4.288,4.583 l -0.39,0.13 c 1.478,-2.955 3.522,-3.935 4.677,-4.713 z"
       class="Q"
       id="path415" />
    <path
       d="m 119.105,184.081 c 1.719,-1.139 3.507,-2.112 7.016,1.069 -4.045,2.881 -6.228,-0.004 -7.016,-1.069 z"
       class="H P S"
       id="path417" />
    <path
       d="m 119.74,183.948 c 1.078,1.016 3.692,1.502 5.479,1.27 -2.255,-0.342 -4.053,-0.77 -5.479,-1.27 z"
       class="Q"
       id="path419" />
    <path
       d="m 125.355,168.251 c 1.902,1.335 4.741,1.602 3.685,6.307 -4.388,-1.61 -4.031,-3.96 -3.685,-6.307 z"
       class="H P S"
       id="path421" />
    <path
       d="m 125.804,168.96 c 1.152,0.853 1.819,2.328 2.504,4.866 -0.803,-1.44 -1.324,-3.416 -2.504,-4.866 z"
       class="Q"
       id="path423" />
    <path
       d="m 129.93,174.192 c -1.072,-3.75 1.33,-4.794 3.591,-5.947 1.364,4.392 -2.524,6.055 -3.591,5.947 z"
       class="H P S"
       id="path425" />
    <path
       d="m 130.231,173.942 -0.267,0.017 c 1.351,-2.177 2.674,-3.152 3.274,-5.045 -0.138,1.649 -1.458,3.335 -3.007,5.028 z"
       class="Q"
       id="path427" />
    <path
       d="m 131.45,162.936 c 0.341,1.056 1.769,1.087 0.626,3.544 -0.787,-0.242 -2.052,-2.424 -0.626,-3.544 z"
       class="H P S"
       id="path429" />
    <path
       d="m 131.462,163.267 c 0.345,1.088 0.063,1.833 0.378,2.906 l 0.236,-0.047 c -0.499,-0.879 -0.243,-2.414 -0.614,-2.858 z"
       class="Q"
       id="path431" />
    <g
       fill="#ff0000"
       fill-rule="evenodd"
       stroke-width="0.1"
       class="O X"
       id="g561">
      <path
         id="use433"
         d="m 118.763,184.127 c 0,0.09 -0.036,0.176 -0.099,0.239 -0.063,0.063 -0.149,0.099 -0.239,0.099 -0.09,0 -0.176,-0.036 -0.239,-0.099 -0.063,-0.063 -0.099,-0.149 -0.099,-0.239 0,-0.09 0.036,-0.176 0.099,-0.239 0.063,-0.063 0.149,-0.099 0.239,-0.099 a 0.34,0.34 0 0 1 0.338,0.338 z"
         style="opacity:0.998;" />
      <path
         id="use435"
         d="m 119.164,183.551 c 0,0.09 -0.036,0.176 -0.099,0.239 -0.063,0.063 -0.149,0.099 -0.239,0.099 -0.09,0 -0.176,-0.036 -0.239,-0.099 -0.063,-0.063 -0.099,-0.149 -0.099,-0.239 0,-0.09 0.036,-0.176 0.099,-0.239 0.063,-0.063 0.149,-0.099 0.239,-0.099 a 0.34,0.34 0 0 1 0.338,0.338 z"
         style="opacity:0.998;" />
      <path
         id="use437"
         d="m 119.623,184.202 c 0,0.09 -0.036,0.176 -0.099,0.239 -0.063,0.063 -0.149,0.099 -0.239,0.099 -0.09,0 -0.176,-0.036 -0.239,-0.099 -0.063,-0.063 -0.099,-0.149 -0.099,-0.239 0,-0.09 0.036,-0.176 0.099,-0.239 0.063,-0.063 0.149,-0.099 0.239,-0.099 a 0.34,0.34 0 0 1 0.338,0.338 z"
         style="opacity:0.998;" />
      <path
         id="use439"
         d="m 119.423,182.883 c 0,0.09 -0.036,0.176 -0.099,0.239 -0.063,0.063 -0.149,0.099 -0.239,0.099 -0.09,0 -0.176,-0.036 -0.239,-0.099 -0.063,-0.063 -0.099,-0.149 -0.099,-0.239 0,-0.09 0.036,-0.176 0.099,-0.239 0.063,-0.063 0.149,-0.099 0.239,-0.099 a 0.34,0.34 0 0 1 0.338,0.338 z"
         style="opacity:0.998;" />
      <path
         id="use441"
         d="m 119.757,183.275 c 0,0.09 -0.036,0.176 -0.099,0.239 -0.063,0.063 -0.149,0.099 -0.239,0.099 -0.09,0 -0.176,-0.036 -0.239,-0.099 -0.063,-0.063 -0.099,-0.149 -0.099,-0.239 0,-0.09 0.036,-0.176 0.099,-0.239 0.063,-0.063 0.149,-0.099 0.239,-0.099 a 0.34,0.34 0 0 1 0.338,0.338 z"
         style="opacity:0.998;" />
      <path
         id="use443"
         d="m 120.275,182.54 c 0,0.09 -0.036,0.176 -0.099,0.239 -0.063,0.063 -0.149,0.099 -0.239,0.099 -0.09,0 -0.176,-0.036 -0.239,-0.099 -0.063,-0.063 -0.099,-0.149 -0.099,-0.239 0,-0.09 0.036,-0.176 0.099,-0.239 0.063,-0.063 0.149,-0.099 0.239,-0.099 a 0.34,0.34 0 0 1 0.338,0.338 z"
         style="opacity:0.998;" />
      <path
         id="use445"
         d="m 121.436,183.776 c 0,0.09 -0.036,0.176 -0.099,0.239 -0.063,0.063 -0.149,0.099 -0.239,0.099 -0.09,0 -0.176,-0.036 -0.239,-0.099 -0.063,-0.063 -0.099,-0.149 -0.099,-0.239 0,-0.09 0.036,-0.176 0.099,-0.239 0.063,-0.063 0.149,-0.099 0.239,-0.099 a 0.34,0.34 0 0 1 0.338,0.338 z"
         style="opacity:0.998;" />
      <path
         id="use447"
         d="m 120.918,183.651 c 0,0.09 -0.036,0.176 -0.099,0.239 -0.063,0.063 -0.149,0.099 -0.239,0.099 -0.09,0 -0.176,-0.036 -0.239,-0.099 -0.063,-0.063 -0.099,-0.149 -0.099,-0.239 0,-0.09 0.036,-0.176 0.099,-0.239 0.063,-0.063 0.149,-0.099 0.239,-0.099 a 0.34,0.34 0 0 1 0.338,0.338 z"
         style="opacity:0.998;" />
      <path
         id="use449"
         d="m 120.484,183.208 c 0,0.09 -0.036,0.176 -0.099,0.239 -0.063,0.063 -0.149,0.099 -0.239,0.099 -0.09,0 -0.176,-0.036 -0.239,-0.099 -0.063,-0.063 -0.099,-0.149 -0.099,-0.239 0,-0.09 0.036,-0.176 0.099,-0.239 0.063,-0.063 0.149,-0.099 0.239,-0.099 a 0.34,0.34 0 0 1 0.338,0.338 z"
         style="opacity:0.998;" />
      <path
         id="use451"
         d="m 120.358,183.918 c 0,0.09 -0.036,0.176 -0.099,0.239 -0.063,0.063 -0.149,0.099 -0.239,0.099 -0.09,0 -0.176,-0.036 -0.239,-0.099 -0.063,-0.063 -0.099,-0.149 -0.099,-0.239 0,-0.09 0.036,-0.176 0.099,-0.239 0.063,-0.063 0.149,-0.099 0.239,-0.099 a 0.34,0.34 0 0 1 0.338,0.338 z"
         style="opacity:0.998;" />
      <path
         id="use453"
         d="m 120.834,184.386 c 0,0.09 -0.036,0.176 -0.099,0.239 -0.063,0.063 -0.149,0.099 -0.239,0.099 -0.09,0 -0.176,-0.036 -0.239,-0.099 -0.063,-0.063 -0.099,-0.149 -0.099,-0.239 0,-0.09 0.036,-0.176 0.099,-0.239 0.063,-0.063 0.149,-0.099 0.239,-0.099 a 0.34,0.34 0 0 1 0.338,0.338 z"
         style="opacity:0.998;" />
      <path
         id="use455"
         d="m 121.227,183.033 c 0,0.09 -0.036,0.176 -0.099,0.239 -0.063,0.063 -0.149,0.099 -0.239,0.099 -0.09,0 -0.176,-0.036 -0.239,-0.099 -0.063,-0.063 -0.099,-0.149 -0.099,-0.239 0,-0.09 0.036,-0.176 0.099,-0.239 0.063,-0.063 0.149,-0.099 0.239,-0.099 a 0.34,0.34 0 0 1 0.338,0.338 z"
         style="opacity:0.998;" />
      <path
         id="use457"
         d="m 122.129,183.843 c 0,0.09 -0.036,0.176 -0.099,0.239 -0.063,0.063 -0.149,0.099 -0.239,0.099 -0.09,0 -0.176,-0.036 -0.239,-0.099 -0.063,-0.063 -0.099,-0.149 -0.099,-0.239 0,-0.09 0.036,-0.176 0.099,-0.239 0.063,-0.063 0.149,-0.099 0.239,-0.099 a 0.34,0.34 0 0 1 0.338,0.338 z"
         style="opacity:0.998;" />
      <path
         id="use459"
         d="m 128.994,180.794 c 0,0.09 -0.036,0.176 -0.099,0.239 -0.063,0.063 -0.149,0.099 -0.239,0.099 -0.09,0 -0.176,-0.036 -0.239,-0.099 -0.063,-0.063 -0.099,-0.149 -0.099,-0.239 0,-0.09 0.036,-0.176 0.099,-0.239 0.063,-0.063 0.149,-0.099 0.239,-0.099 a 0.34,0.34 0 0 1 0.338,0.338 z"
         style="opacity:0.998;" />
      <path
         id="use461"
         d="m 128.785,180.235 c 0,0.09 -0.036,0.176 -0.099,0.239 -0.063,0.063 -0.149,0.099 -0.239,0.099 -0.09,0 -0.176,-0.036 -0.239,-0.099 -0.063,-0.063 -0.099,-0.149 -0.099,-0.239 0,-0.09 0.036,-0.176 0.099,-0.239 0.063,-0.063 0.149,-0.099 0.239,-0.099 a 0.34,0.34 0 0 1 0.338,0.338 z"
         style="opacity:0.998;" />
      <path
         id="use463"
         d="m 128.384,180.644 c 0,0.09 -0.036,0.176 -0.099,0.239 -0.063,0.063 -0.149,0.099 -0.239,0.099 -0.09,0 -0.176,-0.036 -0.239,-0.099 -0.063,-0.063 -0.099,-0.149 -0.099,-0.239 0,-0.09 0.036,-0.176 0.099,-0.239 0.063,-0.063 0.149,-0.099 0.239,-0.099 a 0.34,0.34 0 0 1 0.338,0.338 z"
         style="opacity:0.998;" />
      <path
         id="use465"
         d="m 128.016,180.168 c 0,0.09 -0.036,0.176 -0.099,0.239 -0.063,0.063 -0.149,0.099 -0.239,0.099 -0.09,0 -0.176,-0.036 -0.239,-0.099 -0.063,-0.063 -0.099,-0.149 -0.099,-0.239 0,-0.09 0.036,-0.176 0.099,-0.239 0.063,-0.063 0.149,-0.099 0.239,-0.099 a 0.34,0.34 0 0 1 0.338,0.338 z"
         style="opacity:0.998;" />
      <path
         id="use467"
         d="m 127.532,180.285 c 0,0.09 -0.036,0.176 -0.099,0.239 -0.063,0.063 -0.149,0.099 -0.239,0.099 -0.09,0 -0.176,-0.036 -0.239,-0.099 -0.063,-0.063 -0.099,-0.149 -0.099,-0.239 0,-0.09 0.036,-0.176 0.099,-0.239 0.063,-0.063 0.149,-0.099 0.239,-0.099 a 0.34,0.34 0 0 1 0.338,0.338 z"
         style="opacity:0.998;" />
      <path
         id="use469"
         d="m 127.165,179.424 c 0,0.09 -0.036,0.176 -0.099,0.239 -0.063,0.063 -0.149,0.099 -0.239,0.099 -0.09,0 -0.176,-0.036 -0.239,-0.099 -0.063,-0.063 -0.099,-0.149 -0.099,-0.239 0,-0.09 0.036,-0.176 0.099,-0.239 0.063,-0.063 0.149,-0.099 0.239,-0.099 a 0.34,0.34 0 0 1 0.338,0.338 z"
         style="opacity:0.998;" />
      <path
         id="use471"
         d="m 127.749,179.291 c 0,0.09 -0.036,0.176 -0.099,0.239 -0.063,0.063 -0.149,0.099 -0.239,0.099 -0.09,0 -0.176,-0.036 -0.239,-0.099 -0.063,-0.063 -0.099,-0.149 -0.099,-0.239 0,-0.09 0.036,-0.176 0.099,-0.239 0.063,-0.063 0.149,-0.099 0.239,-0.099 a 0.34,0.34 0 0 1 0.338,0.338 z"
         style="opacity:0.998;" />
      <path
         id="use473"
         d="m 127.632,179.792 c 0,0.09 -0.036,0.176 -0.099,0.239 -0.063,0.063 -0.149,0.099 -0.239,0.099 -0.09,0 -0.176,-0.036 -0.239,-0.099 -0.063,-0.063 -0.099,-0.149 -0.099,-0.239 0,-0.09 0.036,-0.176 0.099,-0.239 0.063,-0.063 0.149,-0.099 0.239,-0.099 a 0.34,0.34 0 0 1 0.338,0.338 z"
         style="opacity:0.998;" />
      <path
         id="use475"
         d="m 126.906,180.017 c 0,0.09 -0.036,0.176 -0.099,0.239 -0.063,0.063 -0.149,0.099 -0.239,0.099 -0.09,0 -0.176,-0.036 -0.239,-0.099 -0.063,-0.063 -0.099,-0.149 -0.099,-0.239 0,-0.09 0.036,-0.176 0.099,-0.239 0.063,-0.063 0.149,-0.099 0.239,-0.099 a 0.34,0.34 0 0 1 0.338,0.338 z"
         style="opacity:0.998;" />
      <path
         id="use477"
         d="m 128.96,179.182 c 0,0.09 -0.036,0.176 -0.099,0.239 -0.063,0.063 -0.149,0.099 -0.239,0.099 -0.09,0 -0.176,-0.036 -0.239,-0.099 -0.063,-0.063 -0.099,-0.149 -0.099,-0.239 0,-0.09 0.036,-0.176 0.099,-0.239 0.063,-0.063 0.149,-0.099 0.239,-0.099 a 0.34,0.34 0 0 1 0.338,0.338 z"
         style="opacity:0.998;" />
      <path
         id="use479"
         d="m 128.434,179.558 c 0,0.09 -0.036,0.176 -0.099,0.239 -0.063,0.063 -0.149,0.099 -0.239,0.099 -0.09,0 -0.176,-0.036 -0.239,-0.099 -0.063,-0.063 -0.099,-0.149 -0.099,-0.239 0,-0.09 0.036,-0.176 0.099,-0.239 0.063,-0.063 0.149,-0.099 0.239,-0.099 a 0.34,0.34 0 0 1 0.338,0.338 z"
         style="opacity:0.998;" />
      <path
         id="use481"
         d="m 128.334,178.823 c 0,0.09 -0.036,0.176 -0.099,0.239 -0.063,0.063 -0.149,0.099 -0.239,0.099 -0.09,0 -0.176,-0.036 -0.239,-0.099 -0.063,-0.063 -0.099,-0.149 -0.099,-0.239 0,-0.09 0.036,-0.176 0.099,-0.239 0.063,-0.063 0.149,-0.099 0.239,-0.099 a 0.34,0.34 0 0 1 0.338,0.338 z"
         style="opacity:0.998;" />
      <path
         id="use483"
         d="m 129.921,179.951 c 0,0.09 -0.036,0.176 -0.099,0.239 -0.063,0.063 -0.149,0.099 -0.239,0.099 -0.09,0 -0.176,-0.036 -0.239,-0.099 -0.063,-0.063 -0.099,-0.149 -0.099,-0.239 0,-0.09 0.036,-0.176 0.099,-0.239 0.063,-0.063 0.149,-0.099 0.239,-0.099 a 0.34,0.34 0 0 1 0.338,0.338 z"
         style="opacity:0.998;" />
      <path
         id="use485"
         d="m 129.336,179.758 c 0,0.09 -0.036,0.176 -0.099,0.239 -0.063,0.063 -0.149,0.099 -0.239,0.099 -0.09,0 -0.176,-0.036 -0.239,-0.099 -0.063,-0.063 -0.099,-0.149 -0.099,-0.239 0,-0.09 0.036,-0.176 0.099,-0.239 0.063,-0.063 0.149,-0.099 0.239,-0.099 a 0.34,0.34 0 0 1 0.338,0.338 z"
         style="opacity:0.998;" />
      <path
         id="use487"
         d="m 130.414,175.474 c 0,0.09 -0.036,0.176 -0.099,0.239 -0.063,0.063 -0.149,0.099 -0.239,0.099 -0.09,0 -0.176,-0.036 -0.239,-0.099 -0.063,-0.063 -0.099,-0.149 -0.099,-0.239 0,-0.09 0.036,-0.176 0.099,-0.239 0.063,-0.063 0.149,-0.099 0.239,-0.099 a 0.34,0.34 0 0 1 0.338,0.338 z"
         style="opacity:0.998;" />
      <path
         id="use489"
         d="m 130.556,173.962 c 0,0.09 -0.036,0.176 -0.099,0.239 -0.063,0.063 -0.149,0.099 -0.239,0.099 -0.09,0 -0.176,-0.036 -0.239,-0.099 -0.063,-0.063 -0.099,-0.149 -0.099,-0.239 0,-0.09 0.036,-0.176 0.099,-0.239 0.063,-0.063 0.149,-0.099 0.239,-0.099 a 0.34,0.34 0 0 1 0.338,0.338 z"
         style="opacity:0.998;" />
      <path
         id="use491"
         d="m 131.14,174.338 c 0,0.09 -0.036,0.176 -0.099,0.239 -0.063,0.063 -0.149,0.099 -0.239,0.099 -0.09,0 -0.176,-0.036 -0.239,-0.099 -0.063,-0.063 -0.099,-0.149 -0.099,-0.239 0,-0.09 0.036,-0.176 0.099,-0.239 0.063,-0.063 0.149,-0.099 0.239,-0.099 a 0.34,0.34 0 0 1 0.338,0.338 z"
         style="opacity:0.998;" />
      <path
         id="use493"
         d="m 130.372,174.588 c 0,0.09 -0.036,0.176 -0.099,0.239 -0.063,0.063 -0.149,0.099 -0.239,0.099 -0.09,0 -0.176,-0.036 -0.239,-0.099 -0.063,-0.063 -0.099,-0.149 -0.099,-0.239 0,-0.09 0.036,-0.176 0.099,-0.239 0.063,-0.063 0.149,-0.099 0.239,-0.099 a 0.34,0.34 0 0 1 0.338,0.338 z"
         style="opacity:0.998;" />
      <path
         id="use495"
         d="m 129.912,174.096 c 0,0.09 -0.036,0.176 -0.099,0.239 -0.063,0.063 -0.149,0.099 -0.239,0.099 -0.09,0 -0.176,-0.036 -0.239,-0.099 -0.063,-0.063 -0.099,-0.149 -0.099,-0.239 0,-0.09 0.036,-0.176 0.099,-0.239 0.063,-0.063 0.149,-0.099 0.239,-0.099 a 0.34,0.34 0 0 1 0.338,0.338 z"
         style="opacity:0.998;" />
      <path
         id="use497"
         d="m 129.336,174.188 c 0,0.09 -0.036,0.176 -0.099,0.239 -0.063,0.063 -0.149,0.099 -0.239,0.099 -0.09,0 -0.176,-0.036 -0.239,-0.099 -0.063,-0.063 -0.099,-0.149 -0.099,-0.239 0,-0.09 0.036,-0.176 0.099,-0.239 0.063,-0.063 0.149,-0.099 0.239,-0.099 a 0.34,0.34 0 0 1 0.338,0.338 z"
         style="opacity:0.998;" />
      <path
         id="use499"
         d="m 129.729,174.697 c 0,0.09 -0.036,0.176 -0.099,0.239 -0.063,0.063 -0.149,0.099 -0.239,0.099 -0.09,0 -0.176,-0.036 -0.239,-0.099 -0.063,-0.063 -0.099,-0.149 -0.099,-0.239 0,-0.09 0.036,-0.176 0.099,-0.239 0.063,-0.063 0.149,-0.099 0.239,-0.099 a 0.34,0.34 0 0 1 0.338,0.338 z"
         style="opacity:0.998;" />
      <path
         id="use501"
         d="m 128.543,174.714 c 0,0.09 -0.036,0.176 -0.099,0.239 -0.063,0.063 -0.149,0.099 -0.239,0.099 -0.09,0 -0.176,-0.036 -0.239,-0.099 -0.063,-0.063 -0.099,-0.149 -0.099,-0.239 0,-0.09 0.036,-0.176 0.099,-0.239 0.063,-0.063 0.149,-0.099 0.239,-0.099 a 0.34,0.34 0 0 1 0.338,0.338 z"
         style="opacity:0.998;" />
      <path
         id="use503"
         d="m 128.985,174.505 c 0,0.09 -0.036,0.176 -0.099,0.239 -0.063,0.063 -0.149,0.099 -0.239,0.099 -0.09,0 -0.176,-0.036 -0.239,-0.099 -0.063,-0.063 -0.099,-0.149 -0.099,-0.239 0,-0.09 0.036,-0.176 0.099,-0.239 0.063,-0.063 0.149,-0.099 0.239,-0.099 a 0.34,0.34 0 0 1 0.338,0.338 z"
         style="opacity:0.998;" />
      <path
         id="use505"
         d="m 129.353,175.048 c 0,0.09 -0.036,0.176 -0.099,0.239 -0.063,0.063 -0.149,0.099 -0.239,0.099 -0.09,0 -0.176,-0.036 -0.239,-0.099 -0.063,-0.063 -0.099,-0.149 -0.099,-0.239 0,-0.09 0.036,-0.176 0.099,-0.239 0.063,-0.063 0.149,-0.099 0.239,-0.099 a 0.34,0.34 0 0 1 0.338,0.338 z"
         style="opacity:0.998;" />
      <path
         id="use507"
         d="m 129.963,175.123 c 0,0.09 -0.036,0.176 -0.099,0.239 -0.063,0.063 -0.149,0.099 -0.239,0.099 -0.09,0 -0.176,-0.036 -0.239,-0.099 -0.063,-0.063 -0.099,-0.149 -0.099,-0.239 0,-0.09 0.036,-0.176 0.099,-0.239 0.063,-0.063 0.149,-0.099 0.239,-0.099 a 0.34,0.34 0 0 1 0.338,0.338 z"
         style="opacity:0.998;" />
      <path
         id="use509"
         d="m 128.476,174.213 c 0,0.09 -0.036,0.176 -0.099,0.239 -0.063,0.063 -0.149,0.099 -0.239,0.099 -0.09,0 -0.176,-0.036 -0.239,-0.099 -0.063,-0.063 -0.099,-0.149 -0.099,-0.239 0,-0.09 0.036,-0.176 0.099,-0.239 0.063,-0.063 0.149,-0.099 0.239,-0.099 a 0.34,0.34 0 0 1 0.338,0.338 z"
         style="opacity:0.998;" />
      <path
         id="use511"
         d="m 128.518,173.544 c 0,0.09 -0.036,0.176 -0.099,0.239 -0.063,0.063 -0.149,0.099 -0.239,0.099 -0.09,0 -0.176,-0.036 -0.239,-0.099 -0.063,-0.063 -0.099,-0.149 -0.099,-0.239 0,-0.09 0.036,-0.176 0.099,-0.239 0.063,-0.063 0.149,-0.099 0.239,-0.099 a 0.34,0.34 0 0 1 0.338,0.338 z"
         style="opacity:0.998;" />
      <path
         id="use513"
         d="m 127.916,173.828 c 0,0.09 -0.036,0.176 -0.099,0.239 -0.063,0.063 -0.149,0.099 -0.239,0.099 -0.09,0 -0.176,-0.036 -0.239,-0.099 -0.063,-0.063 -0.099,-0.149 -0.099,-0.239 0,-0.09 0.036,-0.176 0.099,-0.239 0.063,-0.063 0.149,-0.099 0.239,-0.099 a 0.34,0.34 0 0 1 0.338,0.338 z"
         style="opacity:0.998;" />
      <path
         id="use515"
         d="m 130.839,174.806 c 0,0.09 -0.036,0.176 -0.099,0.239 -0.063,0.063 -0.149,0.099 -0.239,0.099 -0.09,0 -0.176,-0.036 -0.239,-0.099 -0.063,-0.063 -0.099,-0.149 -0.099,-0.239 0,-0.09 0.036,-0.176 0.099,-0.239 0.063,-0.063 0.149,-0.099 0.239,-0.099 a 0.34,0.34 0 0 1 0.338,0.338 z"
         style="opacity:0.998;" />
      <path
         id="use517"
         d="m 131.708,174.697 c 0,0.09 -0.036,0.176 -0.099,0.239 -0.063,0.063 -0.149,0.099 -0.239,0.099 -0.09,0 -0.176,-0.036 -0.239,-0.099 -0.063,-0.063 -0.099,-0.149 -0.099,-0.239 0,-0.09 0.036,-0.176 0.099,-0.239 0.063,-0.063 0.149,-0.099 0.239,-0.099 a 0.34,0.34 0 0 1 0.338,0.338 z"
         style="opacity:0.998;" />
      <path
         id="use519"
         d="m 132.226,174.213 c 0,0.09 -0.036,0.176 -0.099,0.239 -0.063,0.063 -0.149,0.099 -0.239,0.099 -0.09,0 -0.176,-0.036 -0.239,-0.099 -0.063,-0.063 -0.099,-0.149 -0.099,-0.239 0,-0.09 0.036,-0.176 0.099,-0.239 0.063,-0.063 0.149,-0.099 0.239,-0.099 a 0.34,0.34 0 0 1 0.338,0.338 z"
         style="opacity:0.998;" />
      <path
         id="use521"
         d="m 131.792,173.862 c 0,0.09 -0.036,0.176 -0.099,0.239 -0.063,0.063 -0.149,0.099 -0.239,0.099 -0.09,0 -0.176,-0.036 -0.239,-0.099 -0.063,-0.063 -0.099,-0.149 -0.099,-0.239 0,-0.09 0.036,-0.176 0.099,-0.239 0.063,-0.063 0.149,-0.099 0.239,-0.099 a 0.34,0.34 0 0 1 0.338,0.338 z"
         style="opacity:0.998;" />
      <path
         id="use523"
         d="m 129.553,168.709 c 0,0.09 -0.036,0.176 -0.099,0.239 -0.063,0.063 -0.149,0.099 -0.239,0.099 -0.09,0 -0.176,-0.036 -0.239,-0.099 -0.063,-0.063 -0.099,-0.149 -0.099,-0.239 0,-0.09 0.036,-0.176 0.099,-0.239 0.063,-0.063 0.149,-0.099 0.239,-0.099 a 0.34,0.34 0 0 1 0.338,0.338 z"
         style="opacity:0.998;" />
      <path
         id="use525"
         d="m 129.361,169.343 c 0,0.09 -0.036,0.176 -0.099,0.239 -0.063,0.063 -0.149,0.099 -0.239,0.099 -0.09,0 -0.176,-0.036 -0.239,-0.099 -0.063,-0.063 -0.099,-0.149 -0.099,-0.239 0,-0.09 0.036,-0.176 0.099,-0.239 0.063,-0.063 0.149,-0.099 0.239,-0.099 a 0.34,0.34 0 0 1 0.338,0.338 z"
         style="opacity:0.998;" />
      <path
         id="use527"
         d="m 128.969,168.834 c 0,0.09 -0.036,0.176 -0.099,0.239 -0.063,0.063 -0.149,0.099 -0.239,0.099 -0.09,0 -0.176,-0.036 -0.239,-0.099 -0.063,-0.063 -0.099,-0.149 -0.099,-0.239 0,-0.09 0.036,-0.176 0.099,-0.239 0.063,-0.063 0.149,-0.099 0.239,-0.099 a 0.34,0.34 0 0 1 0.338,0.338 z"
         style="opacity:0.998;" />
      <path
         id="use529"
         d="m 129.228,168.09 c 0,0.09 -0.036,0.176 -0.099,0.239 -0.063,0.063 -0.149,0.099 -0.239,0.099 -0.09,0 -0.176,-0.036 -0.239,-0.099 -0.063,-0.063 -0.099,-0.149 -0.099,-0.239 0,-0.09 0.036,-0.176 0.099,-0.239 0.063,-0.063 0.149,-0.099 0.239,-0.099 a 0.34,0.34 0 0 1 0.338,0.338 z"
         style="opacity:0.998;" />
      <path
         id="use531"
         d="m 130.272,166.846 c 0,0.09 -0.036,0.176 -0.099,0.239 -0.063,0.063 -0.149,0.099 -0.239,0.099 -0.09,0 -0.176,-0.036 -0.239,-0.099 -0.063,-0.063 -0.099,-0.149 -0.099,-0.239 0,-0.09 0.036,-0.176 0.099,-0.239 0.063,-0.063 0.149,-0.099 0.239,-0.099 a 0.34,0.34 0 0 1 0.338,0.338 z"
         style="opacity:0.998;" />
      <path
         id="use533"
         d="m 130.898,167.389 c 0,0.09 -0.036,0.176 -0.099,0.239 -0.063,0.063 -0.149,0.099 -0.239,0.099 -0.09,0 -0.176,-0.036 -0.239,-0.099 -0.063,-0.063 -0.099,-0.149 -0.099,-0.239 0,-0.09 0.036,-0.176 0.099,-0.239 0.063,-0.063 0.149,-0.099 0.239,-0.099 a 0.34,0.34 0 0 1 0.338,0.338 z"
         style="opacity:0.998;" />
      <path
         id="use535"
         d="m 130.99,166.587 c 0,0.09 -0.036,0.176 -0.099,0.239 -0.063,0.063 -0.149,0.099 -0.239,0.099 -0.09,0 -0.176,-0.036 -0.239,-0.099 -0.063,-0.063 -0.099,-0.149 -0.099,-0.239 0,-0.09 0.036,-0.176 0.099,-0.239 0.063,-0.063 0.149,-0.099 0.239,-0.099 a 0.34,0.34 0 0 1 0.338,0.338 z"
         style="opacity:0.998;" />
      <path
         id="use537"
         d="m 130.681,167.088 c 0,0.09 -0.036,0.176 -0.099,0.239 -0.063,0.063 -0.149,0.099 -0.239,0.099 -0.09,0 -0.176,-0.036 -0.239,-0.099 -0.063,-0.063 -0.099,-0.149 -0.099,-0.239 0,-0.09 0.036,-0.176 0.099,-0.239 0.063,-0.063 0.149,-0.099 0.239,-0.099 a 0.34,0.34 0 0 1 0.338,0.338 z"
         style="opacity:0.998;" />
      <path
         id="use539"
         d="m 130.238,167.414 c 0,0.09 -0.036,0.176 -0.099,0.239 -0.063,0.063 -0.149,0.099 -0.239,0.099 -0.09,0 -0.176,-0.036 -0.239,-0.099 -0.063,-0.063 -0.099,-0.149 -0.099,-0.239 0,-0.09 0.036,-0.176 0.099,-0.239 0.063,-0.063 0.149,-0.099 0.239,-0.099 a 0.34,0.34 0 0 1 0.338,0.338 z"
         style="opacity:0.998;" />
      <path
         id="use541"
         d="m 129.854,167.848 c 0,0.09 -0.036,0.176 -0.099,0.239 -0.063,0.063 -0.149,0.099 -0.239,0.099 -0.09,0 -0.176,-0.036 -0.239,-0.099 -0.063,-0.063 -0.099,-0.149 -0.099,-0.239 0,-0.09 0.036,-0.176 0.099,-0.239 0.063,-0.063 0.149,-0.099 0.239,-0.099 a 0.34,0.34 0 0 1 0.338,0.338 z"
         style="opacity:0.998;" />
      <path
         id="use543"
         d="m 130.814,167.898 c 0,0.09 -0.036,0.176 -0.099,0.239 -0.063,0.063 -0.149,0.099 -0.239,0.099 -0.09,0 -0.176,-0.036 -0.239,-0.099 -0.063,-0.063 -0.099,-0.149 -0.099,-0.239 0,-0.09 0.036,-0.176 0.099,-0.239 0.063,-0.063 0.149,-0.099 0.239,-0.099 a 0.34,0.34 0 0 1 0.338,0.338 z"
         style="opacity:0.998;" />
      <path
         id="use545"
         d="m 130.414,168.149 c 0,0.09 -0.036,0.176 -0.099,0.239 -0.063,0.063 -0.149,0.099 -0.239,0.099 -0.09,0 -0.176,-0.036 -0.239,-0.099 -0.063,-0.063 -0.099,-0.149 -0.099,-0.239 0,-0.09 0.036,-0.176 0.099,-0.239 0.063,-0.063 0.149,-0.099 0.239,-0.099 a 0.34,0.34 0 0 1 0.338,0.338 z"
         style="opacity:0.998;" />
      <path
         id="use547"
         d="m 131.524,167.13 c 0,0.09 -0.036,0.176 -0.099,0.239 -0.063,0.063 -0.149,0.099 -0.239,0.099 -0.09,0 -0.176,-0.036 -0.239,-0.099 -0.063,-0.063 -0.099,-0.149 -0.099,-0.239 0,-0.09 0.036,-0.176 0.099,-0.239 0.063,-0.063 0.149,-0.099 0.239,-0.099 a 0.34,0.34 0 0 1 0.338,0.338 z"
         style="opacity:0.998;" />
      <path
         id="use549"
         d="m 131.65,166.629 c 0,0.09 -0.036,0.176 -0.099,0.239 -0.063,0.063 -0.149,0.099 -0.239,0.099 -0.09,0 -0.176,-0.036 -0.239,-0.099 -0.063,-0.063 -0.099,-0.149 -0.099,-0.239 0,-0.09 0.036,-0.176 0.099,-0.239 0.063,-0.063 0.149,-0.099 0.239,-0.099 a 0.34,0.34 0 0 1 0.338,0.338 z"
         style="opacity:0.998;" />
      <path
         id="use551"
         d="m 132.184,167.03 c 0,0.09 -0.036,0.176 -0.099,0.239 -0.063,0.063 -0.149,0.099 -0.239,0.099 -0.09,0 -0.176,-0.036 -0.239,-0.099 -0.063,-0.063 -0.099,-0.149 -0.099,-0.239 0,-0.09 0.036,-0.176 0.099,-0.239 0.063,-0.063 0.149,-0.099 0.239,-0.099 a 0.34,0.34 0 0 1 0.338,0.338 z"
         style="opacity:0.998;" />
      <path
         id="use553"
         d="m 132.276,166.395 c 0,0.09 -0.036,0.176 -0.099,0.239 -0.063,0.063 -0.149,0.099 -0.239,0.099 -0.09,0 -0.176,-0.036 -0.239,-0.099 -0.063,-0.063 -0.099,-0.149 -0.099,-0.239 0,-0.09 0.036,-0.176 0.099,-0.239 0.063,-0.063 0.149,-0.099 0.239,-0.099 a 0.34,0.34 0 0 1 0.338,0.338 z"
         style="opacity:0.998;" />
      <path
         id="use555"
         d="m 132.936,166.453 c 0,0.09 -0.036,0.176 -0.099,0.239 -0.063,0.063 -0.149,0.099 -0.239,0.099 -0.09,0 -0.176,-0.036 -0.239,-0.099 -0.063,-0.063 -0.099,-0.149 -0.099,-0.239 0,-0.09 0.036,-0.176 0.099,-0.239 0.063,-0.063 0.149,-0.099 0.239,-0.099 a 0.34,0.34 0 0 1 0.338,0.338 z"
         style="opacity:0.998;" />
      <path
         id="use557"
         d="m 133.011,167.523 c 0,0.09 -0.036,0.176 -0.099,0.239 -0.063,0.063 -0.149,0.099 -0.239,0.099 -0.09,0 -0.176,-0.036 -0.239,-0.099 -0.063,-0.063 -0.099,-0.149 -0.099,-0.239 0,-0.09 0.036,-0.176 0.099,-0.239 0.063,-0.063 0.149,-0.099 0.239,-0.099 a 0.34,0.34 0 0 1 0.338,0.338 z"
         style="opacity:0.998;" />
      <path
         id="use559"
         d="m 132.844,167.088 c 0,0.09 -0.036,0.176 -0.099,0.239 -0.063,0.063 -0.149,0.099 -0.239,0.099 -0.09,0 -0.176,-0.036 -0.239,-0.099 -0.063,-0.063 -0.099,-0.149 -0.099,-0.239 0,-0.09 0.036,-0.176 0.099,-0.239 0.063,-0.063 0.149,-0.099 0.239,-0.099 a 0.34,0.34 0 0 1 0.338,0.338 z"
         style="opacity:0.998;" />
    </g>
  </g>
  <g
     id="g2505">
    <g
       transform="rotate(20.236008,366.21726,-432.75085)"
       id="g159">
      <g
         class="C G"
         id="g155">
        <path
           id="use151"
           d="m 208.345,163.123 c 3.97,1.442 4.326,-1.497 8.519,1.604 -3.365,1.357 -6.038,0.223 -8.519,-1.604 z"
           style="fill:#f5c742;" />
        <path
           id="use153"
           d="m 216.626,164.721 1.837,0.134"
           style="fill:none;" />
      </g>
      <path
         id="use157"
         d="m 211.049,163.869 c 1.467,0.141 2.243,-0.754 4.418,0.449 -1.767,0.3 -2.784,-0.222 -4.418,-0.449 z"
         style="fill:#ffeba3;" />
    </g>
    <path
       d="m 15.497,81.832 c 0.349,0.948 0.218,1.766 1.181,2.882 0.957,1.254 1.426,2.752 2.032,4.181 0.284,-1.106 -0.089,-2.088 -0.449,-3.071 l 1.89,2.811 c -0.066,-1.788 -0.694,-3.044 -1.347,-4.276 0.795,1.283 2.091,1.915 3.166,2.835 l -1.772,-2.811 1.701,0.992 c -1.016,-2.032 -1.734,-4.246 -5.977,-4.299 z"
       class="C H T"
       id="path565" />
    <path
       d="m 16.324,81.678 c -0.391,0.538 0.01,1.2 0.367,1.637 0.4,0.53 0.898,1.031 1.201,1.607 0.018,-0.437 0.061,-0.911 -0.237,-1.274 -0.4,-0.505 0.461,-0.595 0.693,-0.247 0.247,0.175 0.632,0.616 0.795,0.594 -0.072,-0.385 -0.417,-0.73 -0.388,-1.106 0.487,-0.136 0.856,0.363 1.246,0.571 0.262,-0.032 -0.289,-0.478 -0.441,-0.608 -0.705,-0.537 -1.537,-0.853 -2.325,-1.243 -0.302,-0.092 -0.615,0.001 -0.911,0.068 z"
       fill="#009d55"
       id="path567" />
    <g
       class="H"
       id="g573"
       transform="translate(-63.414,-81.6)">
      <path
         d="m 75.598,154.509 -0.557,0.365 c 0.735,1.123 1.806,1.844 2.306,2.873 l 0.014,0.029 0.018,0.025 c 0.548,0.731 0.871,1.592 1.105,2.506 l 0.004,0.018 0.008,0.016 c 0.167,0.449 0.373,0.904 0.467,1.324 0.091,0.412 0.076,0.76 -0.143,1.107 -0.268,0.251 -0.69,0.494 -1.062,0.834 -0.388,0.354 -0.707,0.894 -0.561,1.578 l -0.004,-0.02 0.448,3.402 c 0.218,1.036 0.29,2.02 0.913,2.867 0.571,0.91 1.269,1.784 2.404,2.412 2.354,1.301 3.878,2.677 4.464,5.343 a 15.89,15.89 0 0 0 3.007,6.08 c -0.224,-2.707 -1.61,-4.359 -1.704,-5.913 -1.403,-3.277 -2.304,-4.267 -4.384,-5.384 -2.08,-1.117 -2.647,-1.97 -3.238,-2.91 l -0.006,-0.011 -0.008,-0.01 c -0.477,-0.649 -0.565,-1.528 -0.879,-2.43 l -0.36,-3.545 -0.002,-0.01 -0.002,-0.01 c -0.097,-0.453 0.056,-0.672 0.359,-0.949 0.303,-0.277 0.758,-0.525 1.123,-0.885 l 0.026,-0.025 0.019,-0.029 c 0.346,-0.53 0.354,-1.118 0.238,-1.637 -0.116,-0.519 -0.34,-0.999 -0.494,-1.412 -0.243,-0.937 -0.591,-1.865 -1.195,-2.68 -0.605,-1.218 -1.696,-1.958 -2.326,-2.92 z"
         class="C P b"
         id="path569" />
      <path
         d="m 86.919,181.386 0.307,0.732 c 0.469,-0.195 0.774,-0.614 1.441,-0.071 0.697,0.568 0.161,3.784 4.961,5.15 -0.17,-3.078 -2.594,-6.505 -6.709,-5.811 z"
         id="path571" />
    </g>
    <path
       d="m 26.102,100.445 c 1.618,0.931 2.642,2.237 3.057,3.926 -0.818,-1.409 -1.884,-2.694 -3.057,-3.926 z"
       class="I"
       id="path575" />
    <path
       d="m 23.813,100.518 c 0.469,-0.195 0.774,-0.614 1.441,-0.071 0.697,0.568 0.161,3.784 4.961,5.15 -0.17,-3.078 -2.594,-6.505 -6.709,-5.811"
       class="C D T"
       id="path577" />
    <path
       d="m 13.572,75.064 -0.661,1.075 c -1.056,1.599 -0.698,3.296 0.059,5.02 0.603,-0.711 1.732,-1.408 1.382,-3.78 -0.106,-0.717 -0.665,-1.37 -0.508,-2.02 z"
       class="H"
       id="path579" />
    <path
       d="m 13.076,80.663 c 0.371,-2.039 -0.448,-3.245 0.602,-4.855 -0.684,2.16 0.335,1.751 -0.602,4.855 z"
       class="I"
       id="path581" />
    <path
       d="m 13.572,75.064 -0.661,1.075 c -1.056,1.599 -0.698,3.296 0.059,5.02 0.603,-0.711 1.732,-1.408 1.382,-3.78 -0.106,-0.717 -0.665,-1.37 -0.508,-2.02"
       class="C D T"
       id="path583" />
    <path
       d="m 14.061,82.62 0.287,0.042 c 0.161,1.324 1.468,1.809 1.809,3.035 0.41,1.475 -0.481,3.744 0.252,5.341 -1.559,-0.803 -2.894,-2.558 -3.086,-4.272 -0.361,-3.212 0.555,-2.952 0.738,-4.145 z"
       class="H"
       id="path585" />
    <path
       d="m 14.174,83.627 c 0.318,1.118 0.796,1.808 0.752,3.421 -0.044,1.613 0.759,2.726 1.119,3.441 -0.418,-1.122 -0.761,-1.76 -0.752,-3.241 0.009,-1.481 -0.636,-2.636 -1.12,-3.622 z"
       class="I"
       id="path587" />
    <g
       class="C T"
       id="g593"
       transform="translate(-63.414,-81.6)">
      <path
         d="m 77.762,164.261 c 0.161,1.324 1.468,1.809 1.809,3.035 0.41,1.475 -0.481,3.744 0.252,5.341 -1.559,-0.803 -2.894,-2.558 -3.086,-4.272 -0.361,-3.212 0.555,-2.952 0.738,-4.145"
         class="D"
         id="path589" />
      <path
         d="m 81.38,173.708 c 0.756,0.028 1.423,-0.063 2.445,0.319 3.205,2.087 2.328,3.701 3.036,5.363 -3.507,-0.535 -3.691,-3.716 -4.512,-4.985 -0.257,-0.364 -0.664,-0.389 -1.039,-0.484 z"
         class="H"
         id="path591" />
    </g>
    <path
       d="m 19.277,92.64 c 0.656,0.766 1.519,1.37 1.807,2.398 0.393,1.401 1.221,1.536 1.831,2.303 -0.538,-0.835 -1.218,-1.479 -1.595,-2.528 -0.45,-1.254 -1.331,-1.53 -2.043,-2.173 z"
       class="Q"
       id="path595" />
    <path
       d="m 18.155,92.462 -0.035,1.453 c -3.78,1.931 -2.317,5.486 -1.63,7.406 0.266,-1.406 0.167,-2.691 0.189,-4.016 0.266,1.61 0.628,3.027 1.205,4.016 0.253,-1.209 -0.277,-2.73 0.213,-3.544 0.115,1.517 0.868,2.035 1.063,4.252 0.322,-0.787 0.22,-2.162 -0.26,-4.063 l 1.63,3.614 c 0.497,-1.743 -0.395,-3.059 -0.992,-4.465 -0.303,-0.872 -0.509,-1.802 -1.016,-2.551 l 0.012,-2.079 z"
       class="C H T"
       id="path597" />
    <path
       d="m 17.549,95.066 c -0.232,-0.041 -0.412,0.16 -0.567,0.301 l -0.648,0.828 c -0.1,0.195 -0.147,0.409 -0.182,0.622 -0.071,0.238 -0.124,0.48 -0.169,0.718 -0.03,-0.209 0.209,-0.544 0.421,-0.704 0.132,-0.163 0.415,-0.284 0.585,-0.11 0.043,0.238 0.202,0.468 0.18,0.715 0.011,0.352 0.302,0 0.369,-0.144 0.129,-0.202 0.187,-0.456 0.368,-0.62 0.211,-0.141 0.444,0.048 0.513,0.251 0.096,0.133 0.048,0.517 0.116,0.526 0.066,-0.198 0.094,-0.564 0.367,-0.555 0.225,0.064 0.205,0.33 0.296,0.501 0.055,0.105 0.14,0.401 0.053,0.114 -0.046,-0.328 -0.115,-0.667 -0.33,-0.93 -0.137,-0.203 -0.229,-0.432 -0.348,-0.645 -0.122,-0.223 -0.09,-0.56 -0.356,-0.684 -0.182,-0.127 -0.416,-0.124 -0.62,-0.191 l -0.048,0.005 z"
       fill="#009d55"
       id="path599" />
  </g>
  <g
     id="g2480">
    <g
       transform="translate(-168.473,-81.6)"
       filter="url(#H)"
       id="g643">
      <g
         transform="matrix(1.158279,0,0,1.148184,-32.9125,-20.741145)"
         id="g605">
        <path
           id="use601"
           d="m 210.295,171.169 c 0.073,-0.108 -0.169,-0.382 -0.048,-0.416 1.482,-0.418 1.396,-1.909 2.273,-2.537 1.691,-1.209 3.787,-1.294 5.343,1.082 -1.616,0.377 -2.31,1.955 -4.761,1.453 -0.878,-0.18 -1.806,0.032 -2.806,0.418 z"
           style="fill:#007d44;stroke:#00552d;stroke-width:0.265;" />
        <path
           id="use603"
           d="m 210.624,170.873 c 1.078,-0.393 1.811,-1.07 2.563,-1.536 1.627,-1.006 2.083,-0.451 2.752,-0.366 -0.315,-0.333 -1.6,-0.876 -3.083,0.295 l -2.232,1.606 z"
           style="fill:#feef00;" />
      </g>
      <g
         transform="matrix(1.129205,0.266531,-0.249134,1.187094,15.617222,-78.847394)"
         id="g611">
        <path
           id="use607"
           d="m 210.295,171.169 c 0.073,-0.108 -0.169,-0.382 -0.048,-0.416 1.482,-0.418 1.396,-1.909 2.273,-2.537 1.691,-1.209 3.787,-1.294 5.343,1.082 -1.616,0.377 -2.31,1.955 -4.761,1.453 -0.878,-0.18 -1.806,0.032 -2.806,0.418 z"
           style="fill:#007d44;stroke:#00552d;stroke-width:0.265;" />
        <path
           id="use609"
           d="m 210.624,170.873 c 1.078,-0.393 1.811,-1.07 2.563,-1.536 1.627,-1.006 2.083,-0.451 2.752,-0.366 -0.315,-0.333 -1.6,-0.876 -3.083,0.295 l -2.232,1.606 z"
           style="fill:#feef00;" />
      </g>
      <path
         id="use613"
         d="m 210.345,181.559 c 5.056,-0.813 5.673,3.763 8.452,5.713 -7.513,1.69 -6.517,-5.562 -8.519,-5.045 z"
         style="fill:#007d44;stroke:#00552d;stroke-width:0.265;" />
      <path
         id="use615"
         d="m 210.721,181.693 0.017,0.292 c 2.455,0.325 3.436,4.387 5.414,4.22 -2.705,-1.486 -2.666,-4.41 -5.431,-4.512 z"
         style="fill:#feef00;" />
      <path
         id="use617"
         d="m 210.295,171.169 c 0.073,-0.108 -0.169,-0.382 -0.048,-0.416 1.482,-0.418 1.396,-1.909 2.273,-2.537 1.691,-1.209 3.787,-1.294 5.343,1.082 -1.616,0.377 -2.31,1.955 -4.761,1.453 -0.878,-0.18 -1.806,0.032 -2.806,0.418 z"
         style="fill:#007d44;stroke:#00552d;stroke-width:0.265;" />
      <path
         id="use619"
         d="m 210.624,170.873 c 1.078,-0.393 1.811,-1.07 2.563,-1.536 1.627,-1.006 2.083,-0.451 2.752,-0.366 -0.315,-0.333 -1.6,-0.876 -3.083,0.295 l -2.232,1.606 z"
         style="fill:#feef00;" />
      <g
         transform="matrix(-1.158279,0,0,1.148184,453.00028,-20.741145)"
         id="g625">
        <path
           id="use621"
           d="m 210.295,171.169 c 0.073,-0.108 -0.169,-0.382 -0.048,-0.416 1.482,-0.418 1.396,-1.909 2.273,-2.537 1.691,-1.209 3.787,-1.294 5.343,1.082 -1.616,0.377 -2.31,1.955 -4.761,1.453 -0.878,-0.18 -1.806,0.032 -2.806,0.418 z"
           style="fill:#007d44;stroke:#00552d;stroke-width:0.265;" />
        <path
           id="use623"
           d="m 210.624,170.873 c 1.078,-0.393 1.811,-1.07 2.563,-1.536 1.627,-1.006 2.083,-0.451 2.752,-0.366 -0.315,-0.333 -1.6,-0.876 -3.083,0.295 l -2.232,1.606 z"
           style="fill:#feef00;" />
      </g>
      <g
         transform="matrix(-1.129205,0.266531,0.249134,1.187094,404.47055,-78.847394)"
         id="g631">
        <path
           id="use627"
           d="m 210.295,171.169 c 0.073,-0.108 -0.169,-0.382 -0.048,-0.416 1.482,-0.418 1.396,-1.909 2.273,-2.537 1.691,-1.209 3.787,-1.294 5.343,1.082 -1.616,0.377 -2.31,1.955 -4.761,1.453 -0.878,-0.18 -1.806,0.032 -2.806,0.418 z"
           style="fill:#007d44;stroke:#00552d;stroke-width:0.265;" />
        <path
           id="use629"
           d="m 210.624,170.873 c 1.078,-0.393 1.811,-1.07 2.563,-1.536 1.627,-1.006 2.083,-0.451 2.752,-0.366 -0.315,-0.333 -1.6,-0.876 -3.083,0.295 l -2.232,1.606 z"
           style="fill:#feef00;" />
      </g>
      <g
         transform="matrix(-1,0,0,1,420.08778,0)"
         id="g641">
        <path
           id="use633"
           d="m 210.345,181.559 c 5.056,-0.813 5.673,3.763 8.452,5.713 -7.513,1.69 -6.517,-5.562 -8.519,-5.045 z"
           style="fill:#007d44;stroke:#00552d;stroke-width:0.265;" />
        <path
           id="use635"
           d="m 210.721,181.693 0.017,0.292 c 2.455,0.325 3.436,4.387 5.414,4.22 -2.705,-1.486 -2.666,-4.41 -5.431,-4.512 z"
           style="fill:#feef00;" />
        <path
           id="use637"
           d="m 210.295,171.169 c 0.073,-0.108 -0.169,-0.382 -0.048,-0.416 1.482,-0.418 1.396,-1.909 2.273,-2.537 1.691,-1.209 3.787,-1.294 5.343,1.082 -1.616,0.377 -2.31,1.955 -4.761,1.453 -0.878,-0.18 -1.806,0.032 -2.806,0.418 z"
           style="fill:#007d44;stroke:#00552d;stroke-width:0.265;" />
        <path
           id="use639"
           d="m 210.624,170.873 c 1.078,-0.393 1.811,-1.07 2.563,-1.536 1.627,-1.006 2.083,-0.451 2.752,-0.366 -0.315,-0.333 -1.6,-0.876 -3.083,0.295 l -2.232,1.606 z"
           style="fill:#feef00;" />
      </g>
    </g>
    <path
       d="m 554.107,320.09 c -1.603,3.051 -4.464,6.065 -2.41,16.875 v 72.768 c 0,1.635 1.042,2.768 2.41,2.768 1.368,0 2.41,-1.132 2.41,-2.768 v -72.768 c 2.054,-10.81 -0.807,-13.824 -2.41,-16.875 z"
       transform="matrix(0.264583,0,0,0.264583,-105.03685,1.16e-4)"
       filter="url(#H)"
       class="H L"
       id="path645" />
  </g>
</svg>
