<?xml version="1.0" encoding="UTF-8" standalone="no"?>
<svg
   xmlns:dc="http://purl.org/dc/elements/1.1/"
   xmlns:cc="http://creativecommons.org/ns#"
   xmlns:rdf="http://www.w3.org/1999/02/22-rdf-syntax-ns#"
   xmlns:svg="http://www.w3.org/2000/svg"
   xmlns="http://www.w3.org/2000/svg"
   xmlns:sodipodi="http://sodipodi.sourceforge.net/DTD/sodipodi-0.dtd"
   xmlns:inkscape="http://www.inkscape.org/namespaces/inkscape"
   width="283.181"
   height="335.509"
   viewBox="0 0 74.925 88.77"
   version="1.1"
   id="svg333"
   sodipodi:docname="Seal of Tangerang Regency (1).svg"
   inkscape:version="1.0.1 (3bc2e813f5, 2020-09-07)">
  <metadata
     id="metadata337">
    <rdf:RDF>
      <cc:Work
         rdf:about="">
        <dc:format>image/svg+xml</dc:format>
        <dc:type
           rdf:resource="http://purl.org/dc/dcmitype/StillImage" />
      </cc:Work>
    </rdf:RDF>
  </metadata>
  <sodipodi:namedview
     pagecolor="#ffffff"
     bordercolor="#666666"
     borderopacity="1"
     objecttolerance="10"
     gridtolerance="10"
     guidetolerance="10"
     inkscape:pageopacity="0"
     inkscape:pageshadow="2"
     inkscape:window-width="1366"
     inkscape:window-height="705"
     id="namedview335"
     showgrid="false"
     inkscape:zoom="1.2875078"
     inkscape:cx="168.41727"
     inkscape:cy="103.63568"
     inkscape:window-x="-8"
     inkscape:window-y="-8"
     inkscape:window-maximized="1"
     inkscape:current-layer="svg333" />
  <style
     id="style2"><![CDATA[.B{opacity:.999}.C{stroke-miterlimit:10}.D{stroke:#000}.E{stroke-width:.503}.F{fill:#fff}.G{stroke-linejoin:round}.H{fill-rule:evenodd}.I{stroke-width:.318}.J{stroke-width:.794}.K{stroke-width:.322}.L{stroke-width:.467}.M{stroke-width:.265}]]></style>
  <path
     d="M37.463 17.732l-31.467.01 5.512 6.414V50.2h25.955 25.956V24.157l5.512-6.414z"
     fill="#228b22"
     class="D G J"
     id="path4" />
  <g
     id="g1410">
    <g
       fill="red"
       stroke="#8b0000"
       class="H C"
       id="g132">
      <g
         class="I"
         id="g40">
        <path
           d="M5.996 15.256h6.993v2.477H5.996z"
           class="B"
           id="path6" />
        <path
           id="use8"
           d="m 12.989,15.256 h 6.993 v 2.477 h -6.993 z"
           style="opacity:0.999" />
        <path
           id="use10"
           d="m 19.981,15.256 h 6.993 v 2.477 h -6.993 z"
           style="opacity:0.999" />
        <path
           id="use12"
           d="m 26.974,15.256 h 6.993 v 2.477 h -6.993 z"
           style="opacity:0.999" />
        <path
           id="use14"
           d="m 33.967001,15.256 h 6.993 v 2.477 h -6.993 z"
           style="opacity:0.999" />
        <path
           d="M40.96 15.256h6.993v2.477H40.96z"
           class="B"
           id="path16" />
        <path
           id="use18"
           d="m 47.953001,15.256 h 6.993 v 2.477 h -6.993 z"
           style="opacity:0.999" />
        <path
           id="use20"
           d="m 54.945001,15.256 h 6.993 v 2.477 h -6.993 z"
           style="opacity:0.999" />
        <path
           id="use22"
           d="m 61.938001,15.256 h 6.993 v 2.477 h -6.993 z"
           style="opacity:0.999" />
        <path
           d="M9.492 12.779h6.993v2.476H9.492z"
           class="B"
           id="path24" />
        <path
           id="use26"
           d="m 16.485,12.779 h 6.993 v 2.476 h -6.993 z"
           style="opacity:0.999" />
        <path
           id="use28"
           d="m 23.478,12.779 h 6.993 v 2.476 h -6.993 z"
           style="opacity:0.999" />
        <path
           id="use30"
           d="m 30.471,12.779 h 6.993 v 2.476 h -6.993 z"
           style="opacity:0.999" />
        <path
           id="use32"
           d="m 37.463001,12.779 h 6.993 v 2.476 h -6.993 z"
           style="opacity:0.999" />
        <path
           id="use34"
           d="m 44.456001,12.779 h 6.993 v 2.476 h -6.993 z"
           style="opacity:0.999" />
        <path
           id="use36"
           d="m 51.449001,12.779 h 6.993 v 2.476 h -6.993 z"
           style="opacity:0.999" />
        <path
           id="use38"
           d="m 58.442001,12.779 h 6.993 v 2.476 h -6.993 z"
           style="opacity:0.999" />
      </g>
      <path
         d="M65.435 12.779h3.496v2.476h-3.496zm-59.439 0h3.496v2.476H5.996z"
         class="B K"
         id="path42" />
      <g
         class="I"
         id="g78">
        <path
           d="M5.996 10.303h6.993v2.477H5.996z"
           class="B"
           id="path44" />
        <path
           id="use46"
           d="m 12.989,10.303 h 6.993 v 2.477 h -6.993 z"
           style="opacity:0.999" />
        <path
           id="use48"
           d="m 19.981,10.303 h 6.993 v 2.477 h -6.993 z"
           style="opacity:0.999" />
        <path
           id="use50"
           d="m 26.974,10.303 h 6.993 v 2.477 h -6.993 z"
           style="opacity:0.999" />
        <path
           id="use52"
           d="m 33.967001,10.303 h 6.993 v 2.477 h -6.993 z"
           style="opacity:0.999" />
        <path
           d="M40.96 10.303h6.993v2.477H40.96z"
           class="B"
           id="path54" />
        <path
           id="use56"
           d="m 47.953001,10.303 h 6.993 v 2.477 h -6.993 z"
           style="opacity:0.999" />
        <path
           id="use58"
           d="m 54.945001,10.303 h 6.993 v 2.477 h -6.993 z"
           style="opacity:0.999" />
        <path
           id="use60"
           d="m 61.938001,10.303 h 6.993 v 2.477 h -6.993 z"
           style="opacity:0.999" />
        <path
           d="M9.492 7.826h6.993v2.476H9.492z"
           class="B"
           id="path62" />
        <path
           id="use64"
           d="m 16.485,7.8259999 h 6.993 V 10.302 h -6.993 z"
           style="opacity:0.999" />
        <path
           id="use66"
           d="m 23.478,7.8259999 h 6.993 V 10.302 h -6.993 z"
           style="opacity:0.999" />
        <path
           id="use68"
           d="m 30.471,7.8259999 h 6.993 V 10.302 h -6.993 z"
           style="opacity:0.999" />
        <path
           id="use70"
           d="m 37.463001,7.8259999 h 6.993 V 10.302 h -6.993 z"
           style="opacity:0.999" />
        <path
           id="use72"
           d="m 44.456001,7.8259999 h 6.993 V 10.302 h -6.993 z"
           style="opacity:0.999" />
        <path
           id="use74"
           d="m 51.449001,7.8259999 h 6.993 V 10.302 h -6.993 z"
           style="opacity:0.999" />
        <path
           id="use76"
           d="m 58.442001,7.8259999 h 6.993 V 10.302 h -6.993 z"
           style="opacity:0.999" />
      </g>
      <path
         d="M65.435 7.826h3.496v2.476h-3.496zm-59.439 0h3.496v2.476H5.996z"
         class="B K"
         id="path80" />
      <g
         class="I"
         id="g116">
        <path
           d="M5.996 5.35h6.993v2.477H5.996z"
           class="B"
           id="path82" />
        <path
           id="use84"
           d="m 12.989,5.3499999 h 6.993 v 2.477 h -6.993 z"
           style="opacity:0.999" />
        <path
           id="use86"
           d="m 19.981,5.3499999 h 6.993 v 2.477 h -6.993 z"
           style="opacity:0.999" />
        <path
           id="use88"
           d="m 26.974,5.3499999 h 6.993 v 2.477 h -6.993 z"
           style="opacity:0.999" />
        <path
           id="use90"
           d="m 33.967001,5.3499999 h 6.993 v 2.477 h -6.993 z"
           style="opacity:0.999" />
        <path
           d="M40.96 5.35h6.993v2.477H40.96z"
           class="B"
           id="path92" />
        <path
           id="use94"
           d="m 47.953001,5.3499999 h 6.993 v 2.477 h -6.993 z"
           style="opacity:0.999" />
        <path
           id="use96"
           d="m 54.945001,5.3499999 h 6.993 v 2.477 h -6.993 z"
           style="opacity:0.999" />
        <path
           id="use98"
           d="m 61.938001,5.3499999 h 6.993 v 2.477 h -6.993 z"
           style="opacity:0.999" />
        <path
           d="M9.492 2.873h6.993V5.35H9.492z"
           class="B"
           id="path100" />
        <path
           d="M16.485 2.873h6.993V5.35h-6.993z"
           class="B"
           id="path102" />
        <path
           d="M23.478 2.873h6.993V5.35h-6.993z"
           class="B"
           id="path104" />
        <path
           d="M30.471 2.873h6.993V5.35h-6.993z"
           class="B"
           id="path106" />
        <path
           d="M37.463 2.873h6.993V5.35h-6.993z"
           class="B"
           id="path108" />
        <path
           d="M44.456 2.873h6.993V5.35h-6.993z"
           class="B"
           id="path110" />
        <path
           d="M51.449 2.873h6.993V5.35h-6.993z"
           class="B"
           id="path112" />
        <path
           d="M58.442 2.873h6.993V5.35h-6.993z"
           class="B"
           id="path114" />
      </g>
      <path
         d="M65.435 2.873h3.496V5.35h-3.496zm-59.439 0h3.496V5.35H5.996z"
         class="B K"
         id="path118" />
      <g
         class="I"
         id="g130">
        <path
           id="use120"
           d="M 33.967,0.39700003 H 40.96 V 2.873 h -6.993 z"
           style="opacity:0.999" />
        <path
           d="M5.996.397h6.993v2.476H5.996z"
           class="B"
           id="path122" />
        <path
           id="use124"
           d="m 61.937999,0.39700003 h 6.993 V 2.873 h -6.993 z"
           style="opacity:0.999" />
        <path
           id="use126"
           d="m 47.953,0.39700003 h 6.993 V 2.873 h -6.993 z"
           style="opacity:0.999" />
        <path
           d="M26.974.397h-6.993v2.476h6.993z"
           class="B"
           id="path128" />
      </g>
    </g>
    <path
       d="M5.995.397v17.346h62.935V.397h-6.993v2.476h-6.993V.397h-6.993v2.476h-6.993V.397h-6.993v2.476h-6.993V.397h-6.993v2.476h-6.993V.397z"
       fill="none"
       class="D G J"
       id="path134" />
  </g>
  <g
     opacity=".998"
     fill="#ff0"
     class="D"
     id="g224"
     style="stroke-width:0.26458343;stroke-miterlimit:4;stroke-dasharray:none;stroke-linejoin:round">
    <g
       class="E G H"
       id="g156"
       style="stroke-width:0.26458343;stroke-miterlimit:4;stroke-dasharray:none;stroke-linejoin:round">
      <path
         id="use136"
         d="m 18.538,19.888 h 3.438 v 2.887 h -3.438 z"
         style="opacity:0.999;stroke-width:0.26458343;stroke-miterlimit:4;stroke-dasharray:none;stroke-linejoin:round" />
      <path
         id="use138"
         d="m 21.977,19.888 h 3.438 v 2.887 h -3.438 z"
         style="opacity:0.999;stroke-width:0.26458343;stroke-miterlimit:4;stroke-dasharray:none;stroke-linejoin:round" />
      <path
         id="use140"
         d="m 25.415,19.888 h 3.438 v 2.887 h -3.438 z"
         style="opacity:0.999;stroke-width:0.26458343;stroke-miterlimit:4;stroke-dasharray:none;stroke-linejoin:round" />
      <path
         id="use142"
         d="m 28.853,19.888 h 3.438 v 2.887 h -3.438 z"
         style="opacity:0.999;stroke-width:0.26458343;stroke-miterlimit:4;stroke-dasharray:none;stroke-linejoin:round" />
      <path
         id="use144"
         d="m 32.292,19.888 h 3.438 v 2.887 h -3.438 z"
         style="opacity:0.999;stroke-width:0.26458343;stroke-miterlimit:4;stroke-dasharray:none;stroke-linejoin:round" />
      <path
         d="M35.73 19.888h3.438v2.887H35.73z"
         class="B"
         id="path146"
         style="stroke-width:0.26458343;stroke-miterlimit:4;stroke-dasharray:none;stroke-linejoin:round" />
      <path
         id="use148"
         d="m 39.167999,19.888 h 3.438 v 2.887 h -3.438 z"
         style="opacity:0.999;stroke-width:0.26458343;stroke-miterlimit:4;stroke-dasharray:none;stroke-linejoin:round" />
      <path
         id="use150"
         d="m 42.606001,19.888 h 3.438 v 2.887 h -3.438 z"
         style="opacity:0.999;stroke-width:0.26458343;stroke-miterlimit:4;stroke-dasharray:none;stroke-linejoin:round" />
      <path
         id="use152"
         d="m 46.045,19.888 h 3.438 v 2.887 h -3.438 z"
         style="opacity:0.999;stroke-width:0.26458343;stroke-miterlimit:4;stroke-dasharray:none;stroke-linejoin:round" />
      <path
         id="use154"
         d="m 49.483,19.888 h 3.438 v 2.887 h -3.438 z"
         style="opacity:0.999;stroke-width:0.26458343;stroke-miterlimit:4;stroke-dasharray:none;stroke-linejoin:round" />
    </g>
    <path
       d="M17.006 22.748h1.561v-2.831h-3.945zm40.914 0h-1.56v-2.831h3.945z"
       class="E"
       id="path158"
       style="stroke-width:0.26458343;stroke-miterlimit:4;stroke-dasharray:none;stroke-linejoin:round" />
    <g
       class="G H E"
       id="g180"
       style="stroke-width:0.26458343;stroke-miterlimit:4;stroke-dasharray:none;stroke-linejoin:round">
      <path
         id="use160"
         d="m 18.567,47.694 h 3.779 v -2.831 h -3.779 z"
         style="opacity:0.999;stroke-width:0.26458343;stroke-miterlimit:4;stroke-dasharray:none;stroke-linejoin:round" />
      <path
         id="use162"
         d="m 22.346,47.694 h 3.779 v -2.831 h -3.779 z"
         style="opacity:0.999;stroke-width:0.26458343;stroke-miterlimit:4;stroke-dasharray:none;stroke-linejoin:round" />
      <path
         id="use164"
         d="m 26.125,47.694 h 3.779 v -2.831 h -3.779 z"
         style="opacity:0.999;stroke-width:0.26458343;stroke-miterlimit:4;stroke-dasharray:none;stroke-linejoin:round" />
      <path
         id="use166"
         d="m 29.905,47.694 h 3.779 v -2.831 h -3.779 z"
         style="opacity:0.999;stroke-width:0.26458343;stroke-miterlimit:4;stroke-dasharray:none;stroke-linejoin:round" />
      <path
         id="use168"
         d="m 33.684,47.694 h 3.779 v -2.831 h -3.779 z"
         style="opacity:0.999;stroke-width:0.26458343;stroke-miterlimit:4;stroke-dasharray:none;stroke-linejoin:round" />
      <path
         id="use170"
         d="m 37.463,47.694 h 3.779 v -2.831 h -3.779 z"
         style="opacity:0.999;stroke-width:0.26458343;stroke-miterlimit:4;stroke-dasharray:none;stroke-linejoin:round" />
      <path
         id="use172"
         d="m 41.241999,47.694 h 3.779 v -2.831 h -3.779 z"
         style="opacity:0.999;stroke-width:0.26458343;stroke-miterlimit:4;stroke-dasharray:none;stroke-linejoin:round" />
      <path
         id="use174"
         d="m 45.022,47.694 h 3.779 v -2.831 h -3.779 z"
         style="opacity:0.999;stroke-width:0.26458343;stroke-miterlimit:4;stroke-dasharray:none;stroke-linejoin:round" />
      <path
         id="use176"
         d="m 48.800999,47.694 h 3.779 v -2.831 h -3.779 z"
         style="opacity:0.999;stroke-width:0.26458343;stroke-miterlimit:4;stroke-dasharray:none;stroke-linejoin:round" />
      <path
         d="M52.58 47.694h3.779v-2.831H52.58z"
         class="B"
         id="path178"
         style="stroke-width:0.26458343;stroke-miterlimit:4;stroke-dasharray:none;stroke-linejoin:round" />
    </g>
    <path
       d="M17.006 44.863h1.561v2.831h-3.945zm40.914 0h-1.56v2.831h3.945z"
       class="E"
       id="path182"
       style="stroke-width:0.26458343;stroke-miterlimit:4;stroke-dasharray:none;stroke-linejoin:round" />
    <path
       d="M14.622 43.512v4.183l2.384-2.831v-1.352zm0-19.413v-4.183l2.384 2.831v1.352z"
       class="E"
       id="path184"
       style="stroke-width:0.26458343;stroke-miterlimit:4;stroke-dasharray:none;stroke-linejoin:round" />
    <g
       class="G H"
       id="g204"
       style="stroke-width:0.26458343;stroke-miterlimit:4;stroke-dasharray:none;stroke-linejoin:round">
      <g
         class="L"
         id="g198"
         style="stroke-width:0.26458343;stroke-miterlimit:4;stroke-dasharray:none;stroke-linejoin:round">
        <path
           id="use186"
           d="m 14.622,24.081 v 2.776 h 2.402 v -2.776 z"
           style="opacity:0.999;stroke-width:0.26458343;stroke-miterlimit:4;stroke-dasharray:none;stroke-linejoin:round" />
        <path
           id="use188"
           d="m 14.622,26.857 v 2.776 h 2.402 v -2.776 z"
           style="opacity:0.999;stroke-width:0.26458343;stroke-miterlimit:4;stroke-dasharray:none;stroke-linejoin:round" />
        <path
           id="use190"
           d="m 14.622,29.633 v 2.776 h 2.402 v -2.776 z"
           style="opacity:0.999;stroke-width:0.26458343;stroke-miterlimit:4;stroke-dasharray:none;stroke-linejoin:round" />
        <path
           id="use192"
           d="m 14.622,32.408 v 2.776 h 2.402 v -2.776 z"
           style="opacity:0.999;stroke-width:0.26458343;stroke-miterlimit:4;stroke-dasharray:none;stroke-linejoin:round" />
        <path
           id="use194"
           d="m 14.622,35.184 v 2.776 h 2.402 v -2.776 z"
           style="opacity:0.999;stroke-width:0.26458343;stroke-miterlimit:4;stroke-dasharray:none;stroke-linejoin:round" />
        <path
           d="M14.622 37.96v2.776h2.402V37.96h-2.402z"
           class="B"
           id="path196"
           style="stroke-width:0.26458343;stroke-miterlimit:4;stroke-dasharray:none;stroke-linejoin:round" />
      </g>
      <path
         id="use200"
         d="m 52.920999,19.888 h 3.438 v 2.887 h -3.438 z"
         style="opacity:0.999;stroke-width:0.26458343;stroke-miterlimit:4;stroke-dasharray:none;stroke-linejoin:round" />
      <path
         id="use202"
         d="m 14.622,40.736001 v 2.776 h 2.402 v -2.776 z"
         style="opacity:0.999;stroke-width:0.26458343;stroke-miterlimit:4;stroke-dasharray:none;stroke-linejoin:round" />
    </g>
    <path
       d="M60.305 43.512v4.183l-2.384-2.831v-1.352zm0-19.413v-4.183l-2.384 2.831v1.352z"
       class="E"
       id="path206"
       style="stroke-width:0.26458343;stroke-miterlimit:4;stroke-dasharray:none;stroke-linejoin:round" />
    <g
       class="G H L"
       id="g222"
       style="stroke-width:0.26458343;stroke-miterlimit:4;stroke-dasharray:none;stroke-linejoin:round">
      <path
         id="use208"
         d="m 60.304,24.081 v 2.776 h -2.402 v -2.776 z"
         style="opacity:0.999;stroke-width:0.26458343;stroke-miterlimit:4;stroke-dasharray:none;stroke-linejoin:round" />
      <path
         id="use210"
         d="m 60.304,26.857 v 2.776 h -2.402 v -2.776 z"
         style="opacity:0.999;stroke-width:0.26458343;stroke-miterlimit:4;stroke-dasharray:none;stroke-linejoin:round" />
      <path
         id="use212"
         d="m 60.304,29.633 v 2.776 h -2.402 v -2.776 z"
         style="opacity:0.999;stroke-width:0.26458343;stroke-miterlimit:4;stroke-dasharray:none;stroke-linejoin:round" />
      <path
         id="use214"
         d="m 60.304,32.408 v 2.776 h -2.402 v -2.776 z"
         style="opacity:0.999;stroke-width:0.26458343;stroke-miterlimit:4;stroke-dasharray:none;stroke-linejoin:round" />
      <path
         id="use216"
         d="M 60.304,35.184 V 37.96 H 57.902 V 35.184 Z"
         style="opacity:0.999;stroke-width:0.26458343;stroke-miterlimit:4;stroke-dasharray:none;stroke-linejoin:round" />
      <path
         d="M60.304 37.96v2.776h-2.402V37.96h2.402z"
         class="B"
         id="path218"
         style="stroke-width:0.26458343;stroke-miterlimit:4;stroke-dasharray:none;stroke-linejoin:round" />
      <path
         id="use220"
         d="m 60.305,40.736001 v 2.776 h -2.402 v -2.776 z"
         style="opacity:0.999;stroke-width:0.26458343;stroke-miterlimit:4;stroke-dasharray:none;stroke-linejoin:round" />
    </g>
  </g>
  <g
     class="D"
     id="g256">
    <path
       d="M33.459 43.185a19.94 19.94 0 0 0-.509.004l3.627.638c-1.016.28-1.984.657-2.832 1.15h1.514c.52-.366 1.282-.666 2.198-.925.916.259 1.677.56 2.197.925h1.515c-.849-.493-1.816-.87-2.832-1.15 1.075-.249 2.305-.456 3.627-.638-1.424-.03-2.996.098-4.506.424a19.68 19.68 0 0 0-3.998-.427z"
       class="M"
       id="path226" />
    <path
       d="M32.95 43.189c-8.817-.825-17.738-11.228-5.586-17.702"
       fill="none"
       stroke-width=".365"
       id="path228" />
    <g
       fill="#ff0"
       id="g254">
      <path
         d="M30.202 44.479c1.11.283 1.867-.234 2.369-1.331-1.355.072-1.966.633-2.369 1.331z"
         class="M"
         id="path230" />
      <path
         d="M27.998 44.194c1.201.306 2.02-.253 2.563-1.441-1.466.077-2.128.684-2.563 1.441zm-1.829-.799c1.163.427 2.036-.046 2.697-1.172-1.466-.072-2.187.464-2.697 1.172z"
         stroke-width=".286"
         id="path232" />
      <path
         d="M24.217 42.453c1.148.617 2.127.255 2.982-.82-1.516-.293-2.346.158-2.982.82z"
         stroke-width=".301"
         id="path234" />
      <path
         d="M22.497 41.401c1.209.65 2.24.268 3.141-.863-1.597-.309-2.471.167-3.141.863z"
         stroke-width=".317"
         id="path236" />
      <path
         d="M20.983 40.107c1.197.806 2.315.514 3.376-.576-1.638-.49-2.602-.083-3.376.576z"
         stroke-width=".334"
         id="path238" />
      <path
         d="M20.013 38.177c.945.988 2.038.944 3.239.15-1.417-.784-2.391-.603-3.239-.15z"
         stroke-width=".316"
         id="path240" />
      <path
         d="M18.88 35.746c.691 1.367 1.877 1.676 3.424 1.216-1.263-1.302-2.366-1.425-3.424-1.216zm-.394-2.479c.364 1.488 1.451 2.056 3.061 1.958-.937-1.554-1.983-1.923-3.061-1.958zm.697-3.17c-.187 1.52.627 2.437 2.167 2.916-.324-1.785-1.172-2.501-2.167-2.916zm.978-2.423c-.48 1.454.139 2.513 1.556 3.283.03-1.814-.661-2.682-1.556-3.283zm1.631-2.164c-.809 1.301-.455 2.475.741 3.557.456-1.756-.012-2.762-.741-3.557zm2.494-1.018c-1.239.9-1.355 2.121-.654 3.574 1.084-1.455 1.03-2.563.654-3.574zm2.627-1.109c-1.448.499-1.915 1.632-1.67 3.227 1.462-1.075 1.734-2.151 1.67-3.227zm3.658.497c-1.474-.417-2.504.247-3.213 1.697 1.814-.048 2.651-.776 3.213-1.697z"
         stroke-width=".354"
         id="path242" />
      <path
         d="M31.189 39.694c.979.632 1.138 1.722.702 3.144-.896-1.158-.921-2.172-.702-3.144zm-1.986-.546c.979.632 1.138 1.722.702 3.144-.896-1.158-.921-2.172-.702-3.144zm-1.955-1.084c.893.748.917 1.849.309 3.206-.746-1.26-.647-2.269-.309-3.206zm-1.462-1.316c.754.888.591 1.977-.238 3.213-.522-1.368-.254-2.345.238-3.213z"
         stroke-width=".293"
         id="path244" />
      <path
         d="M24.709 35.528c.54 1.017.151 2.034-.911 3.051-.214-1.431.252-2.318.911-3.051z"
         stroke-width=".29"
         id="path246" />
      <path
         d="M24.299 33.997c.21 1.212-.521 2.115-1.937 2.795.257-1.524 1.025-2.269 1.937-2.795z"
         stroke-width=".309"
         id="path248" />
      <path
         d="M24.443 32.222c-.185 1.26-1.198 1.913-2.81 2.124.746-1.417 1.743-1.901 2.81-2.124z"
         stroke-width=".32"
         id="path250" />
      <path
         d="M25.058 30.696c-.615.973-1.691 1.141-3.1.724 1.136-.897 2.137-.932 3.1-.724zm1.233-1.343c-.855.772-1.936.643-3.181-.138 1.336-.557 2.309-.321 3.181.138zm1.644-1.427c-.935.673-1.995.426-3.146-.488 1.389-.407 2.331-.065 3.146.488zm1.896-1.352c-.935.673-1.995.426-3.146-.488 1.389-.407 2.331-.065 3.146.488z"
         stroke-width=".29"
         id="path252" />
    </g>
  </g>
  <g
     id="g1343">
    <path
       d="M46.494 24.419c.148.377.348.736.455 1.128.042.229-.022.463.061.688.059.244-.203.4-.347.557l-.779.662c-.196.089-.44.14-.648.062-.321-.186-.396-.591-.401-.932-.006-.241.178-.537-.055-.727-.213-.062-.414-.272-.294-.506.06-.215.244-.361.46-.389.23-.087.28-.34.391-.528.15-.281.5-.333.787-.318.134.023.399.142.368.303z"
       class="F"
       id="path258" />
    <path
       d="M46.534 24.319c-.036.388.019.777.031 1.165-.149.237-.461.138-.687.181-.352.129.082.429.257.51.257.211-.031.621-.192.824-.243.111-.167.651.122.379.237-.174.535-.222.791-.366.267-.124.54-.252.757-.46.252-.07.477-.351.112-.455-.312-.271-.466-.676-.679-1.023-.11-.293-.259-.571-.511-.754z"
       id="path260" />
    <path
       d="M47.971 24.63c-.235-.018-.525-.028-.647.22-.175.16-.088.403-.174.588-.127.196-.451.179-.499.439-.08.304.123.558.402.63.128.246-.08.569.12.797.185.237.525.245.779.128.208-.065.402-.176.534-.352.194-.201.383-.41.632-.545.234-.131.198-.442.068-.634-.094-.216-.17-.446-.304-.645-.099-.172-.103-.435-.312-.515-.184-.109-.398-.069-.597-.109z"
       class="F"
       id="path262" />
    <path
       d="M48.492 24.592c-.015.252.158.477.123.733-.025.242-.129.485-.293.664-.114.078-.34.19-.086.272.184.138.349.412.236.644-.146.116-.351.457-.007.372.32-.029.584-.236.881-.341a2.8 2.8 0 0 1 .604-.309c.13-.184-.192-.375-.271-.553-.285-.266-.496-.598-.642-.958-.089-.264-.396-.35-.546-.526z"
       id="path264" />
    <path
       d="M50.565 25.014c-.31-.093-.542.163-.576.449-.091.369-.579.362-.659.717-.109.365.219.626.291.956.073.273.18.764.559.668.415-.148.746-.458 1.082-.73.28-.28.154-.68.103-1.019-.039-.367-.089-.824-.48-.986-.1-.046-.212-.069-.321-.055z"
       class="F"
       id="path266" />
    <path
       d="M51.012 25.201c.046.338.361.838-.043 1.067-.247.228-.672.047-.863.233.078.388.446.616.623.947.07.231-.69.366-.315.447.471-.016.954.054 1.413-.077.31-.101.758-.014.951-.288-.242-.276-.289-.656-.429-.988-.051-.346-.395-.442-.641-.614-.298-.176-.456-.545-.696-.725z"
       id="path268" />
    <path
       d="M52.502 26.492c.12.205-.276.293-.276.067.004-.13-.181-.159-.285-.159-.139.001-.299.043-.278.209-.064.178-.265.267-.312.454.044.306.199.635.042.933-.132.284-.041.649.217.83.303.228.719.201 1.059.079.214-.073.416-.189.644-.212.211-.04.447-.155.498-.384.107-.322-.019-.656-.061-.978-.087-.277-.177-.588-.422-.767-.247-.132-.566-.213-.826-.072z"
       class="F"
       id="path270" />
    <path
       d="M53.607 27.075c-.013.21.052.465-.115.631-.112.105-.27.124-.416.096-.113-.018-.319-.032-.332.121-.003.213.042.434-.028.641-.157.182-.449.109-.608.289-.158.074-.018.159.095.126.302-.02.617-.1.911.018.175.058.295.233.49.237.162.023.311-.092.355-.245.103-.239.232-.48.247-.744-.012-.281-.247-.473-.35-.72l-.249-.45z"
       id="path272" />
    <path
       d="M52.876 30.829c-.128-.332-.459-.744-.387-1.061.288.005.634-.039.404-.414-.125-.324.156-.461.428-.44.254-.11.377-.552.656-.189.365.032.258-.619.61-.66.476-.059.664.413.841.751.313.17.423.513.137.765-.161.386.004.913-.383 1.191-.362.242-.79.386-1.217.455-.398.046-.673-.287-1.036-.371z"
       class="F"
       id="path274" />
    <path
       d="M54.474 29.907c-.173.198-.256.539-.577.542-.337-.055-.482.262-.777.311-.251.061-.259.273.028.256.364.206.764.476 1.205.355.346-.184.73-.294 1.068-.495.303-.302.095-.769.28-1.121.19-.453-.434-.312-.362.069-.128.272-.591.227-.83.158l-.021-.033-.015-.042z"
       id="path276" />
    <path
       d="M54.368 30.732c-.036.151.004.391-.21.414-.195.073-.145.284-.166.441-.053.148-.216.195-.323.294-.062.13-.007.299-.024.446.038.135.155.236.188.38.049.19.223.297.383.384.151.089.332.053.498.06.206-.007.379-.14.583-.16.165-.03.358-.062.475-.193.055-.181.191-.334.217-.523.074-.13.145-.259.263-.366.087-.14-.046-.321-.135-.434-.11-.095-.258-.143-.393-.183-.171.033-.275-.085-.322-.232-.076-.119.058-.37-.152-.37l-.541-.026c-.112-.003-.259-.018-.343.071z"
       class="F"
       id="path278" />
    <path
       d="M53.482 33.752l.053-1.046c-.108-.247.201-.514.318-.2-.071.238.088.422.342.344.235.045.553-.118.455-.397-.095-.34.38-.567.545-.228.143.115.418.185.549.023.04-.179.329-.475.44-.196l.052.752c-.017.303.02.607 0 .91-.167.274-.495.357-.766.491-.379.09-.776.069-1.164.074-.295.009-.597-.148-.696-.437a.26.26 0 0 0-.127-.091z"
       id="path280" />
    <path
       d="M54.637 33.245c-.206-.026-.405.105-.531.256-.094.166-.304.103-.459.137-.096.133-.065.326-.092.486-.018.269.033.565.243.753.116.113.278.157.417.237a1.83 1.83 0 0 1 .432.16c.21.055.431.169.636.198l.71.082c.212-.037.382-.188.552-.31.176-.194.145-.504.004-.709-.218-.099-.036-.337-.073-.504-.01-.217-.136-.388-.36-.402-.194-.052-.389-.174-.591-.09-.172.063-.272-.095-.302-.223-.15-.093-.322-.126-.495-.1-.032.001-.066.009-.092.029z"
       class="F"
       id="path282" />
    <path
       d="M55.084 34.313c-.298-.033-.511.212-.749.347-.141.105-.328.039-.488.026-.091-.043-.254-.348-.301-.14.078.194.15.393.158.605.065.257-.247.48-.077.72.192.245.496.355.768.486-.033-.061.186.061.113.024.209.052.432.084.63-.028l.679-.324c.183-.099.389-.159.578-.236.311-.012-.067-.308-.094-.451-.261-.151-.577-.091-.859-.158-.202 0-.284-.214-.266-.386-.085-.201.364-.35.045-.442-.047-.016-.108.012-.136-.044z"
       id="path284" />
    <path
       d="M53.321 35.566c-.22.066-.438.171-.521.402-.164.25-.17.561-.094.842.039.238.072.478.193.692.07.263.275.461.517.574.282.139.607.142.915.155.315.003.602-.133.89-.239.268-.104.372-.408.361-.675l.001-.842c-.093-.216-.379-.159-.554-.265-.178-.016-.428-.044-.448-.271-.13-.522-.861-.379-1.262-.374z"
       class="F"
       id="path286" />
    <path
       d="M52.713 36.138c-.142-.007-.328-.033-.422.1-.02.138-.015.328-.212.328-.226-.024-.315.207-.235.39.013.225.088.44.185.641.076.285.094.623.334.828.145.108.321.16.492.213.281-.018.563.007.842.023.205-.002.414.023.614-.034.23-.033.502-.012.675-.197.123-.168-.079-.288-.228-.284-.151-.092-.331-.119-.478-.217-.206-.134-.225-.405-.213-.627.012-.206.091-.4.159-.591-.008-.207-.278-.202-.431-.193-.284.006-.569.019-.852-.014-.154-.054-.171-.236-.23-.365z"
       id="path288" />
    <path
       d="M52.452 37.453c-.248.021-.213-.307-.293-.462-.123-.178-.415-.161-.547-.001-.161.18-.284.399-.32.641-.057.3-.048.608-.042.912-.008.35.192.652.393.921.097.192.278.345.506.317.296-.02.597.025.889-.043.204.026.426-.027.573-.176.147-.107.317-.246.291-.45-.024-.182.077-.434-.128-.541-.136-.012-.239-.064-.211-.224.017-.197.011-.407-.113-.572a.41.41 0 0 0-.501-.324c-.166-.036-.344.108-.494.002z"
       class="F"
       id="path290" />
    <path
       d="M51.285 37.304c-.111.219-.246.425-.438.58-.16.128-.225.363-.427.416.065.137-.037.325-.004.492-.057.271.13.495.265.708.143.201.207.46.398.624.303.187.683.133 1.018.085.21-.03.415-.088.589-.214.167-.081.366-.077.53-.174.097-.033.387-.158.137-.206-.198-.08-.407-.121-.613-.176a.38.38 0 0 1-.291-.489c-.016-.205.089-.379.09-.58.059-.172-.192-.162-.305-.195-.148-.013-.29-.06-.43-.104-.207.014-.498-.018-.454-.298-.038-.157-.008-.321-.066-.47z"
       id="path292" />
    <path
       d="M50.702 37.9c-.283.008-.571-.019-.85.041-.187.118-.376.29-.426.512-.051.331-.009.667-.026.999-.074.262.117.496.202.73.11.22.196.489.425.611.294.122.579.325.911.299.298.01.596.06.895.036.211-.07.433-.147.542-.356.069-.181.092-.409.02-.591s-.394-.175-.332-.416c.027-.252.174-.525.039-.767-.187-.124-.458-.132-.591-.344-.189-.077-.405.02-.593-.08-.213-.036-.19-.281-.166-.441.005-.079.002-.166-.048-.232z"
       class="F"
       id="path294" />
    <path
       d="M49.485 38.211c-.283.057-.024.437-.22.583-.156.166-.388.081-.583.099-.182.071-.45.142-.436.39-.013.281.152.531.146.809s.105.553.073.835c-.05.268.161.518.439.453.357-.005.713.033 1.069.055l1.075-.002c.172-.054.432-.021.549-.131-.006-.243-.312-.26-.458-.394-.221-.139-.427-.308-.684-.375-.257.015-.274-.227-.273-.422.056-.237.44-.051.526-.301.161-.235-.091-.391-.308-.364-.233.016-.494-.039-.577-.289-.15-.175-.188-.354-.178-.583-.025-.129-.035-.288-.159-.362z"
       id="path296" />
    <path
       d="M46.655 38.893c.247-.048.548-.137.737.089.203.038.413.026.615.081.215-.009.447.019.47.28.152.196-.003.58.276.647.177.027.456-.165.479.132.041.21.006.383-.064.568.03.239.344.292.396.533.082.284-.062.585-.248.797-.098.261-.507-.01-.545.261.099.27-.155.485-.395.543-.236.02-.475.099-.712.056-.187-.081-.317-.25-.457-.393-.167-.174-.318-.366-.415-.588-.151-.255-.214-.552-.382-.798-.094-.235-.322-.461-.234-.731.095-.236.178-.475.236-.723.086-.194.119-.405.189-.604.036-.04.077-.092.053-.15z"
       class="F"
       id="path298" />
    <path
       d="M46.556 38.906c-.089.319-.168.643-.181.975-.023.259-.329.263-.503.375-.212.156-.462.334-.484.622-.056.228-.047.477.064.687.045.222.145.425.146.655.021.309.31.494.576.582.348.135.717.204 1.077.303.233.032.469-.025.698.041.112.029.376.004.367-.096-.221-.056-.446-.175-.438-.437-.036-.215-.115-.434-.042-.65.094-.316.113-.647.149-.973-.016-.135.107-.412-.154-.324a2.14 2.14 0 0 1-.804-.075c-.241-.059-.277-.322-.285-.53-.055-.232-.093-.459-.118-.697-.04-.151-.041-.308-.07-.456z"
       id="path300" />
    <path
       d="M44.42 40.358c.427-.228.875-.352 1.465.236 1.076.3.703.754.956 1.142.307.566-.163.682-.447.906.878.824-.205.923-.521 1.539l-2.632-1.08z"
       class="F"
       id="path302" />
    <path
       d="M44.326 40.309c-.595.527-.408 1.377-1.58 1.703-.541.151-.885.718-1.299 1.159.535.51 1.285.765 2.335.667 1.041-.174 1.522.351 2.282.527-.576-.399-.415-.837-1.791-1.194.407-.157.819-.285 1.159-.895-.329-.133-.643-.293-1.176-.018-.293-.664.523-.99.07-1.949z"
       id="path304" />
  </g>
  <path
     d="M37.463 25.614c-1.767.264-4.154.023-4.74 3.757-.636 4.051-4.517 3.029-4.915 5.899-.35 2.519 5.498 2.249 9.656 2.493 4.158-.244 10.006.026 9.656-2.493-.399-2.871-4.28-1.848-4.915-5.899-.586-3.734-2.973-3.492-4.74-3.757z"
     fill="#ff0"
     class="D M"
     id="path306" />
  <g
     id="g1317">
    <path
       id="use308"
       d="M 11.508,50.2 C 18.453,75.499 32.384,70.064 37.463,76.044 42.542,70.063 56.473,75.499 63.418,50.2 H 37.463 Z"
       style="fill:#0d0eff" />
    <path
       d="M19.287 52.011c-1.674 0-2.931.538-3.992.951-.876.341-1.651.623-2.726.712l1.09 2.929c1.1-.185 2-.508 2.744-.797 1.116-.435 1.848-.746 2.885-.746 1.129 0 1.705.216 2.549.516s1.964.691 3.51.691 2.664-.391 3.508-.691 1.422-.516 2.551-.516 1.707.216 2.551.516 1.961.691 3.508.691 2.664-.391 3.508-.691 1.422-.516 2.551-.516 1.707.216 2.551.516 1.961.691 3.508.691 2.665-.391 3.509-.691 1.42-.516 2.549-.516c1.037 0 1.769.311 2.885.746.743.29 1.643.612 2.743.797l1.091-2.929c-1.076-.089-1.851-.371-2.726-.712-1.061-.413-2.318-.951-3.992-.951-1.581 0-2.721.387-3.572.689s-1.406.516-2.486.516-1.635-.213-2.487-.516-1.991-.689-3.572-.689-2.72.387-3.572.689-1.407.516-2.487.516-1.635-.213-2.486-.516-1.991-.689-3.572-.689-2.72.387-3.572.689-1.407.516-2.487.516-1.635-.213-2.486-.516-1.991-.689-3.572-.689zm0 7.25c-1.653 0-2.898.524-3.951.935l1.582 2.659c.84-.324 1.504-.545 2.369-.545 1.129 0 1.705.216 2.549.516s1.964.689 3.51.689 2.664-.389 3.508-.689 1.422-.516 2.551-.516 1.707.216 2.551.516 1.961.689 3.508.689 2.664-.389 3.508-.689 1.422-.516 2.551-.516 1.707.216 2.551.516 1.961.689 3.508.689 2.665-.389 3.509-.689 1.42-.516 2.549-.516c.865 0 1.529.221 2.369.545.54-.809 1.068-1.695 1.581-2.659-1.052-.411-2.298-.935-3.95-.935-1.581 0-2.721.387-3.572.689s-1.406.516-2.486.516-1.635-.213-2.487-.516-1.991-.689-3.572-.689-2.72.387-3.572.689-1.407.516-2.487.516-1.635-.213-2.486-.516-1.991-.689-3.572-.689-2.72.387-3.572.689-1.407.516-2.487.516-1.635-.213-2.486-.516-1.991-.689-3.572-.689zm0 6.553l-.061.003a20.58 20.58 0 0 0 5.342 4.216l.778.038c1.546 0 2.664-.389 3.508-.689s1.422-.516 2.551-.516 1.707.216 2.551.516 1.961.689 3.508.689 2.664-.389 3.508-.689 1.422-.516 2.551-.516 1.707.216 2.551.516 1.961.689 3.508.689l.778-.038a20.58 20.58 0 0 0 5.342-4.216l-.061-.003c-1.581 0-2.721.389-3.572.691s-1.406.516-2.486.516-1.635-.213-2.487-.516-1.991-.691-3.572-.691-2.72.389-3.572.691-1.407.516-2.487.516-1.635-.213-2.486-.516-1.991-.691-3.572-.691-2.72.389-3.572.691-1.407.516-2.487.516-1.635-.213-2.486-.516-1.991-.691-3.572-.691z"
       class="F"
       id="path310" />
  </g>
  <g
     id="g1171">
    <g
       class="G"
       id="g316"
       style="stroke:#000000;">
      <path
         id="use312"
         d="M 11.508,50.2 C 18.453,75.499 32.384,70.064 37.463,76.044 42.542,70.063 56.473,75.499 63.418,50.2 H 37.463 Z"
         style="fill:none;stroke-width:0.794" />
      <path
         d="m 0.42,58.855 c 1.615,6.892 5.134,13.345 10.142,18.353 7.042,7.042 16.941,11.142 26.9,11.142 9.959,0 19.858,-4.1 26.901,-11.142 C 69.372,72.2 72.89,65.747 74.507,58.855 h -9.68 c -1.405,4.422 -3.84,8.554 -7.052,11.765 -5.235,5.235 -12.91,8.412 -20.312,8.412 -7.402,0 -15.079,-3.178 -20.313,-8.412 -3.211,-3.211 -5.647,-7.343 -7.051,-11.765 z"
         opacity="0.997"
         stroke-width="0.838"
         fill="#9f6f12"
         class="H"
         id="path314" />
    </g>
    <path
       d="M 4.034,58.859 H 14.585 C 11.776,54.667 11.228,50.164 11.493,46.686 l -4.515,4.869 -4.76,-3.428 c 0.182,5.907 0.903,9.985 1.816,10.732 z m 66.858,0 H 60.341 c 2.809,-4.192 3.357,-8.695 3.092,-12.173 l 4.515,4.869 4.76,-3.428 c -0.182,5.907 -0.903,9.985 -1.816,10.732 z"
       fill="#9f6f12"
       stroke-width="0.96"
       id="path318"
       style="stroke:#000000;" />
    <path
       d="M6.14 64.401l.239.373q-.221.151-.32.33-.096.181-.078.444.02.262.159.529.124.237.289.382.165.145.333.169.171.025.316-.051.147-.077.212-.219.066-.144.039-.379-.017-.152-.14-.637-.121-.486-.119-.708 0-.286.115-.487.118-.201.334-.313.237-.124.513-.096.278.026.52.229.242.203.407.519.182.348.207.673.028.325-.115.582-.143.257-.413.412L8.4 65.77q.28-.187.335-.452.056-.263-.133-.624-.197-.376-.426-.477-.226-.1-.421.002-.169.088-.214.267-.046.177.102.741.151.566.164.799.017.339-.11.571-.124.231-.376.363-.25.131-.547.104-.295-.028-.56-.233-.261-.204-.437-.539-.222-.425-.249-.779-.026-.351.136-.645.165-.293.475-.466zm.557 3.479l3.706-.78.274.423-2.183 3.135-.289-.448.675-.928-.803-1.241-1.11.255zm1.773.068l.651 1.006.622-.842q.283-.384.479-.609-.322.128-.67.207zm.771 3.63l2.45-1.929-.72-.915.328-.258 1.733 2.202-.328.258-.723-.919-2.45 1.929zm2.209 2.568l1.082-1.036.529-2.393.394.411-.288 1.241q-.083.346-.183.673.31-.077.718-.153l1.224-.224.377.394-2.448.39-1.082 1.036zm1.268 1.306l3.337-1.79.382.329-1.213 3.622-.404-.348.387-1.08-1.119-.965-.993.557zm1.721-.433l.908.783.36-.982q.164-.448.289-.719-.273.213-.585.387zm2.418 3.763l1.906-2.978.394.252-.945 1.477 2.424-.53.534.342-2.021.407.171 2.606-.52-.333-.096-2.186-.792.163-.66 1.032zm2.705 1.715l2.817-2.531.449.229-.319 3.807-.475-.242.12-1.141-1.317-.672-.833.777zm1.569-.829l1.068.545.117-1.04q.052-.474.11-.767-.215.272-.477.515zm1.984 2.59l1.289-3.292 1.46.572q.44.172.634.352.195.177.244.455.049.278-.057.55-.137.35-.458.502-.321.151-.82.031.14.151.199.267.122.25.19.579l.222 1.12-.548-.215-.167-.855q-.075-.371-.137-.577-.062-.206-.136-.307-.072-.101-.163-.165-.068-.045-.236-.111l-.505-.198-.572 1.462zm1.156-1.668l.936.367q.299.117.491.122.193.003.333-.097.141-.103.204-.262.091-.234-.02-.451-.109-.216-.476-.36l-1.042-.408zm3.312 3.25l.413-1.44-.748-2.334.547.157.376 1.217q.103.341.181.674.229-.223.543-.494l.945-.81.524.15-1.918 1.57-.413 1.44zm1.752.494l2.001-3.215.495.095.753 3.745-.523-.101-.203-1.129-1.452-.279-.584.978zm1.276-1.233l1.177.227-.177-1.031q-.081-.47-.108-.767-.131.321-.315.627zm3.971 2.062l.164-3.532.467.022-.082 1.751 1.835-1.67.634.03-1.548 1.362 1.449 2.173-.617-.029-1.174-1.846-.604.537-.057 1.224zm3.597.112l-.202-3.53 2.552-.146.024.417-2.085.119.062 1.081 1.953-.112.024.414-1.953.112.069 1.201 2.167-.124.024.417zm3.559-.255l-.567-3.49 1.547-.251q.467-.076.725-.02.258.053.442.268.184.214.231.502.06.371-.139.665-.199.294-.69.444.198.058.307.129.232.153.459.402l.761.851-.581.094-.58-.651q-.253-.281-.411-.427-.158-.145-.274-.195-.113-.05-.225-.059-.081-.004-.26.025l-.536.087.252 1.55zm.145-2.025l.993-.161q.317-.051.485-.145.168-.096.237-.254.069-.16.042-.329-.04-.248-.247-.378-.204-.13-.592-.067l-1.104.179zm4.411 1.133l-.781-3.019-1.128.292-.105-.404 2.713-.702.105.404-1.132.293.781 3.019zm1.587-.415l.11-3.786.476-.167 2.536 2.857-.503.177-.744-.874-1.395.49-.012 1.139zm.482-1.708l1.131-.397-.672-.802q-.307-.365-.479-.609.049.343.044.7zm4.496-.22l-1.627-3.139 1.392-.722q.42-.218.682-.245.262-.03.503.117.242.146.376.405.173.334.076.675-.097.341-.517.637.206-.006.332.026.269.073.561.239l.989.571-.522.271-.754-.438q-.329-.188-.524-.277-.195-.089-.321-.1-.123-.012-.232.014-.078.022-.239.105l-.482.25.723 1.394zm-.494-1.969l.893-.463q.285-.148.415-.289.129-.143.146-.315.016-.174-.063-.326-.115-.223-.353-.282-.235-.06-.584.121l-.993.515zm3.547.364l-.8-3.702.422-.276 3.147 2.166-.446.292-.931-.67-1.237.809.261 1.109zm.059-1.773l1.003-.656-.845-.617q-.386-.281-.611-.476.13.321.21.669zm3.24-.441l-2.231-2.742.363-.295.916 1.126 1.425-1.16-.916-1.126.363-.295 2.231 2.742-.363.295-1.052-1.293-1.425 1.16 1.052 1.293zm2.657-2.187l-1.558-3.452.355-.358 3.531 1.458-.375.379-1.051-.46-1.04 1.051.488 1.029zm-.314-1.746l.843-.852-.955-.426q-.436-.194-.697-.337.194.287.346.61zm3.067-1.11l-2.772-2.194.973-1.229q.293-.371.522-.504.226-.134.507-.1.28.034.509.215.295.234.346.585.051.351-.21.793.185-.09.313-.112.275-.044.61-.012l1.136.115-.365.461-.867-.09q-.377-.037-.591-.038-.215-.001-.333.041-.117.039-.205.108-.063.052-.175.194l-.337.425 1.231.974zm-1.258-1.593l.624-.788q.199-.251.26-.434.059-.184.004-.347-.057-.165-.191-.271-.197-.156-.437-.112-.239.042-.483.35l-.695.877zm2.606-1.805l.181-.386q.349.206.548.174.199-.032.329-.232.096-.148.099-.298.001-.152-.088-.267-.091-.117-.346-.282l-2.044-1.325.255-.393 2.021 1.311q.372.241.518.465.147.222.127.487-.019.264-.189.527-.253.391-.613.453-.358.061-.796-.235zm2.259-1.631l-2.484-2.859.237-.445 3.801.382-.25.471-1.139-.139-.694 1.305.763.846zm-.803-1.582l.563-1.058-1.038-.134q-.473-.06-.765-.123.269.219.507.485z"
       class="F"
       id="path322" />
  </g>
  <defs
     id="defs331">
    <path
       id="B"
       d="M12.989 15.256h6.993v2.477h-6.993z" />
    <path
       id="C"
       d="M16.485 12.779h6.993v2.476h-6.993z" />
    <path
       id="D"
       d="M18.538 19.888h3.438v2.887h-3.438z" />
    <path
       id="E"
       d="M18.567 47.694h3.779v-2.831h-3.779z" />
    <path
       id="F"
       d="M14.622 24.081v2.776h2.402v-2.776h-2.402z" />
    <path
       id="G"
       d="M60.304 24.081v2.776h-2.402v-2.776h2.402z" />
    <path
       id="H"
       d="M11.508 50.2c6.945 25.299 20.876 19.864 25.955 25.844 5.079-5.981 19.01-.545 25.955-25.844H37.463z" />
  </defs>
</svg>
