<?xml version="1.0" encoding="UTF-8" standalone="no"?>
<svg
   xmlns:dc="http://purl.org/dc/elements/1.1/"
   xmlns:cc="http://creativecommons.org/ns#"
   xmlns:rdf="http://www.w3.org/1999/02/22-rdf-syntax-ns#"
   xmlns:svg="http://www.w3.org/2000/svg"
   xmlns="http://www.w3.org/2000/svg"
   xmlns:xlink="http://www.w3.org/1999/xlink"
   xmlns:sodipodi="http://sodipodi.sourceforge.net/DTD/sodipodi-0.dtd"
   xmlns:inkscape="http://www.inkscape.org/namespaces/inkscape"
   width="488.391"
   height="649.145"
   viewBox="0 0 129.22 171.753"
   version="1.1"
   id="svg403"
   sodipodi:docname="Seal of pati regency.svg"
   inkscape:version="1.0.1 (3bc2e813f5, 2020-09-07)">
  <metadata
     id="metadata407">
    <rdf:RDF>
      <cc:Work
         rdf:about="">
        <dc:format>image/svg+xml</dc:format>
        <dc:type
           rdf:resource="http://purl.org/dc/dcmitype/StillImage" />
      </cc:Work>
    </rdf:RDF>
  </metadata>
  <sodipodi:namedview
     pagecolor="#ffffff"
     bordercolor="#666666"
     borderopacity="1"
     objecttolerance="10"
     gridtolerance="10"
     guidetolerance="10"
     inkscape:pageopacity="0"
     inkscape:pageshadow="2"
     inkscape:window-width="1366"
     inkscape:window-height="705"
     id="namedview405"
     showgrid="false"
     inkscape:zoom="0.98021875"
     inkscape:cx="312.44842"
     inkscape:cy="401.82736"
     inkscape:window-x="-8"
     inkscape:window-y="-8"
     inkscape:window-maximized="1"
     inkscape:current-layer="svg403" />
  <style
     id="style2"><![CDATA[.B{opacity:.998}.C{stroke:#a07843}.D{fill:#f5c742}.E{fill:#ffeba3}.F{stroke-opacity:1}.G{stroke-width:.455}.H{fill-rule:evenodd}.I{fill:none}.J{fill:#fff}.K{stroke-width:.265}.L{stroke:none}.M{stroke-linecap:butt}.N{stroke-linejoin:round}.O{fill-opacity:1}.P{stroke:#000}.Q{fill:#53b343}.R{stroke-linecap:square}.S{stroke-width:1.122}.T{fill:#e4e4e4}.U{stroke:#adadad}.V{stroke:#34712a}.W{stroke-width:.529}.X{stroke-linecap:round}.Y{stroke-width:.725}.Z{stroke-width:.865}]]></style>
  <defs
     id="defs121">
    <pattern
       xlink:href="#F"
       id="A"
       patternTransform="matrix(0.24782674,0,0,0.2999792,58.936276,75.980055)" />
    <linearGradient
       id="B"
       gradientUnits="userSpaceOnUse">
      <stop
         stop-color="#ad8900"
         offset="0"
         id="stop5" />
      <stop
         stop-color="#ffd631"
         offset=".382"
         id="stop7" />
      <stop
         stop-color="#fff9c7"
         offset=".505"
         id="stop9" />
      <stop
         stop-color="#ffd631"
         offset=".613"
         id="stop11" />
      <stop
         stop-color="#ad8900"
         offset="1"
         id="stop13" />
    </linearGradient>
    <linearGradient
       xlink:href="#B"
       id="C"
       x1="287.332"
       y1="392.096"
       x2="292.711"
       y2="392.096" />
    <linearGradient
       xlink:href="#B"
       id="D"
       x1="287.332"
       y1="363.087"
       x2="292.711"
       y2="363.087"
       gradientTransform="translate(0,-29.009001)" />
    <linearGradient
       xlink:href="#B"
       id="E"
       x1="287.332"
       y1="305.07"
       x2="292.711"
       y2="305.07" />
    <pattern
       patternUnits="userSpaceOnUse"
       width="14.912"
       height="89.192"
       patternTransform="translate(222.75311,290.62109)"
       id="F">
      <g
         stroke-width="1.326"
         class="I L"
         id="g29">
        <path
           d="M0 0h14.912v17.28H0z"
           id="path19" />
        <path
           d="M0 17.281h14.912v17.28H0z"
           id="path21" />
        <path
           d="M0 34.561h14.912v17.28H0z"
           id="path23" />
        <path
           d="M0 51.841h14.912v17.28H0z"
           id="path25" />
        <path
           d="M0 68.736h14.912v17.28H0z"
           id="path27" />
      </g>
      <g
         stroke-width=".796"
         stroke-miterlimit="4"
         stroke-dasharray="none"
         class="N"
         id="g75">
        <path
           d="M.453 0h14.006v17.28H.453z"
           fill="red"
           class="B F H L O R"
           id="path31" />
        <g
           class="I M P"
           id="g37">
          <path
             d="M14.459 0c0 1.534-3.135 2.777-7.003 2.777S.453 1.534.453 0"
             class="B F"
             id="path33" />
          <path
             d="M.453 0v17.28"
             class="F"
             id="path35" />
        </g>
        <path
           d="M.453 17.28h14.006v17.28H.453z"
           fill="red"
           class="B F H L O R"
           id="path39" />
        <g
           class="I M P"
           id="g45">
          <path
             d="M14.459 17.28c0 1.534-3.135 2.777-7.003 2.777S.453 18.814.453 17.28"
             class="B F"
             id="path41" />
          <path
             d="M.453 17.28v17.28"
             class="F"
             id="path43" />
        </g>
        <path
           d="M.453 34.561h14.006v17.28H.453z"
           fill="red"
           class="B F H L O R"
           id="path47" />
        <g
           class="I M P"
           id="g53">
          <path
             d="M14.459 34.561c0 1.534-3.135 2.777-7.003 2.777S.453 36.095.453 34.561"
             class="B F"
             id="path49" />
          <path
             d="M.453 34.561v17.28"
             class="F"
             id="path51" />
        </g>
        <path
           d="M.453 51.841h14.006v17.28H.453z"
           fill="red"
           class="B F H L O R"
           id="path55" />
        <g
           class="I M P"
           id="g61">
          <path
             d="M14.459 51.841c0 1.534-3.135 2.777-7.003 2.777S.453 53.375.453 51.841"
             class="B F"
             id="path57" />
          <path
             d="M.453 51.841v17.28"
             class="F"
             id="path59" />
        </g>
        <path
           d="M.453 68.736h14.006v17.28H.453z"
           fill="red"
           class="B F H L O R"
           id="path63" />
        <g
           class="I M P"
           id="g69">
          <path
             d="M14.459 68.736c0 1.534-3.135 2.777-7.003 2.777S.453 70.27.453 68.736"
             class="B F"
             id="path65" />
          <path
             d="M.453 68.736v17.28"
             class="F"
             id="path67" />
        </g>
        <path
           d="M14.459 86.017c0 1.534-3.135 2.777-7.003 2.777S.453 87.55.453 86.017z"
           fill="red"
           class="B F H L M O"
           id="path71" />
        <path
           d="M14.459 86.017c0 1.534-3.135 2.777-7.003 2.777S.453 87.55.453 86.017"
           class="B F I M P"
           id="path73" />
      </g>
    </pattern>
    <linearGradient
       id="G"
       x1="678.437"
       y1="255.516"
       x2="1037.358"
       y2="255.516"
       gradientUnits="userSpaceOnUse">
      <stop
         offset="0"
         stop-color="#fff"
         id="stop78" />
      <stop
         offset=".317"
         stop-color="#fff"
         id="stop80" />
      <stop
         offset=".381"
         stop-color="#e3e3e3"
         id="stop82" />
      <stop
         offset=".428"
         stop-color="#fff"
         id="stop84" />
      <stop
         offset=".648"
         stop-color="#fff"
         id="stop86" />
      <stop
         offset=".695"
         stop-color="#dcdcdc"
         id="stop88" />
      <stop
         offset=".735"
         stop-color="#fff"
         id="stop90" />
    </linearGradient>
    <linearGradient
       id="H"
       x1="675.094"
       y1="274.46"
       x2="1033.27"
       y2="274.46"
       gradientUnits="userSpaceOnUse">
      <stop
         offset="0"
         stop-color="red"
         id="stop93" />
      <stop
         offset=".317"
         stop-color="red"
         id="stop95" />
      <stop
         offset=".381"
         stop-color="#8b0000"
         id="stop97" />
      <stop
         offset=".428"
         stop-color="red"
         id="stop99" />
      <stop
         offset=".648"
         stop-color="red"
         id="stop101" />
      <stop
         offset=".695"
         stop-color="#8b0000"
         id="stop103" />
      <stop
         offset=".735"
         stop-color="red"
         id="stop105" />
    </linearGradient>
    <linearGradient
       xlink:href="#B"
       id="I"
       x1="287.332"
       y1="392.096"
       x2="292.711"
       y2="392.096" />
    <path
       id="J"
       d="M299.092 205.138c1.465 1.717 2.495 3.833 7.137 2.627l2.131.446-2.181-.644c-2.946-3.565-2.094-1.924-7.088-2.429z" />
    <path
       id="K"
       d="M300.757 205.961c1.248.152 2.551-.857 3.715 1.051-.916-.673-2.351-.827-3.715-1.051z" />
    <path
       id="L"
       d="M171.238 113.385c0 1.511-1.225 2.735-2.735 2.735s-2.735-1.225-2.735-2.735 1.225-2.735 2.735-2.735 2.735 1.225 2.735 2.735z" />
    <path
       id="M"
       d="M178.886 113.385c0 1.511 1.225 2.735 2.735 2.735s2.735-1.225 2.735-2.735-1.225-2.735-2.735-2.735-2.735 1.225-2.735 2.735z" />
    <path
       id="N"
       d="M288.04 348.583h3.962v29.009h-3.962z" />
    <path
       id="O"
       d="M288.04 285.416l3.962 6.571v27.587h-3.962z" />
    <path
       id="P"
       d="M189.972 193.094c-.705-.207-.228 1.112-.529.957-.105-.644-.98-.736-1.156-.083-.308.591-.494 1.312-.314 1.966.13.549 1.341.875.617 1.37-.507.544.744.675.221 1.172-.669.302-.484 1.006-.621 1.587-.104.697-.16 1.413-.103 2.116.191.75.582 1.436.928 2.124.438.7 1.145 1.341 2.015 1.355.561-.004 1.149.065 1.69-.1.653-.266 1.333-.641 1.624-1.321.249-.569.621-1.098.673-1.731.126-.899.284-1.811.738-2.612.204-.726.754-1.343.685-2.142-.225-.727.492-1.286.388-1.992-.316-.56-.376-1.2-.503-1.78-.474-.356-1.209.842-1.312-.101-.01-.597-.609-.459-.806-.056-.604.406-1.155-.167-1.25-.744-.312-.394-1.423-.752-1.544-.076.158.393-.207.82-.5.382-.169-.391-.543-.349-.842-.221l-.1-.073z" />
    <path
       id="Q"
       d="M187.275 196.217c.648 2.755 1.027 5.749 2.804 7.5.421-4.684 2.418-7.201 3.785-10.584-.132 3.785.252 7.57-.841 11.355 1.442-.732 1.384-.872 3.505-5.117-.953 6.306-3.235 7.294-5.327 9.042-.486 1.521-1.768 2.565-3.575 3.294 1.174-1.346 2.381-2.697 1.752-3.785-3.709-4.154-2.449-8.612-2.103-11.706z" />
    <path
       id="R"
       d="M187.31 199.372c.503 1.757.041 5.155 3.435 7.009 1.844-3.435 1.818-6.869 2.664-10.304-.503 3.334.54 5.724-1.542 10.023 2.808-.793 2.739-2.545 3.785-3.925-.846 2.872-2.913 4.726-5.432 6.203-2.36-2.773-3.013-5.627-2.909-9.007z" />
    <path
       id="S"
       d="M219.841 166.29c-2.857-1.472-7.151 2.289-.283 5.736 6.66 3.343 7.678-2.563 4.306-4.25 1.132-3.154-3.271-4.002-4.023-1.487z" />
    <path
       id="T"
       d="M215.582 169.006c1.336-.089 2.741-.367 3.569.942-.074-1.885 1.555-1.675 2.658-2.736.091 1.572 1.235 2.707.266 3.926 2.044-.061 2.234 1.321 3.222 2.082-1.953 1.068-3.753 2.636-6.592.793-2.768-1.143-3.381-2.942-3.123-5.006z" />
    <path
       id="U"
       d="M221.768 165.486c-1.135-.174-1.215 2.15-2.519 1.25-.879-.331-1.907.111-2.422.839-.336 1.042 1.399.882 2.083.888.864-.709 1.166-1.272 2.372-1.621 1.396-.703 1.562.9 1.712 1.765.808.765-.93 2.206.582 2.106.732.777 2.113.358 1.622-.837-.365-1.171-2.131-1.555-1.753-2.988.15-1.018-.853-1.37-1.676-1.403z" />
    <linearGradient
       inkscape:collect="always"
       xlink:href="#B"
       id="linearGradient1278"
       x1="287.332"
       y1="363.087"
       x2="292.711"
       y2="363.087" />
    <linearGradient
       inkscape:collect="always"
       xlink:href="#B"
       id="linearGradient1282"
       x1="287.332"
       y1="363.087"
       x2="292.711"
       y2="363.087"
       gradientTransform="translate(0,-29.009001)" />
    <linearGradient
       inkscape:collect="always"
       xlink:href="#B"
       id="linearGradient1286"
       x1="287.332"
       y1="305.07"
       x2="292.711"
       y2="305.07" />
    <linearGradient
       inkscape:collect="always"
       xlink:href="#B"
       id="linearGradient1290"
       x1="287.332"
       y1="363.087"
       x2="292.711"
       y2="363.087" />
  </defs>
  <path
     d="M 28.726,1 C 28.726,7.932 7.945,28.726 1,28.726 v 85.596 c 5.486,30.586 26.096,46.079 63.61,56.394 37.514,-10.315 58.124,-25.808 63.61,-56.394 V 28.726 C 121.272,28.726 100.494,7.931 100.494,1 Z"
     fill="#fff000"
     stroke-width="2"
     class="C"
     id="path123" />
  <g
     transform="rotate(0.504,10348.242,-31074.778)"
     id="g223">
    <path
       d="m 309.699,212.523 c -0.666,-3.001 -2.158,-5.503 -3.668,-8.129 -0.164,-2.924 -1.211,-5.456 -2.28,-8.129 -2.34,-3.7 -3.819,-7.729 -5.353,-11.796 -1.674,-2.768 -2.302,-5.036 -2.676,-8.129 l -1.289,-2.974 -0.843,-1.388"
       class="C I W"
       id="path125" />
    <path
       d="m 299.121,205.156 c 1.542,1.896 2.627,4.232 7.514,2.901 l 1.802,0.653 -1.854,-0.872 c -3.101,-3.937 -2.204,-2.125 -7.461,-2.682 z"
       stroke-width="0.53"
       class="C D"
       id="path127" />
    <path
       d="m 300.873,206.064 c 1.314,0.167 2.685,-0.946 3.911,1.161 -0.964,-0.743 -2.475,-0.913 -3.911,-1.161 z"
       class="E"
       id="path129" />
    <path
       d="m 296.606,200.993 c 1.605,2.002 2.733,4.469 7.818,3.063 l 1.946,0.828 -2,-1.059 c -3.227,-4.157 -2.293,-2.244 -7.764,-2.832 z"
       class="C D W"
       id="path131" />
    <path
       d="m 298.43,201.952 c 1.367,0.177 2.794,-0.999 4.069,1.226 -1.003,-0.785 -2.575,-0.964 -4.069,-1.226 z"
       class="E"
       id="path133" />
    <g
       transform="matrix(1.174492,0.241781,-0.250434,1.099024,-4.468168,-101.97527)"
       id="g139">
      <path
         id="use135"
         d="m 299.092,205.138 c 1.465,1.717 2.495,3.833 7.137,2.627 l 2.131,0.446 -2.181,-0.644 c -2.946,-3.565 -2.094,-1.924 -7.088,-2.429 z"
         style="fill:#f5c742;stroke:#a07843;stroke-width:0.455" />
      <path
         id="use137"
         d="m 300.757,205.961 c 1.248,0.152 2.551,-0.857 3.715,1.051 -0.916,-0.673 -2.351,-0.827 -3.715,-1.051 z"
         style="fill:#ffeba3" />
    </g>
    <g
       transform="matrix(1.147427,0.348282,-0.349991,1.071483,23.023566,-133.33948)"
       id="g145">
      <path
         d="m 299.092,205.138 c 1.465,1.717 2.495,3.833 7.137,2.627 l 2.394,0.516 -2.444,-0.714 c -2.946,-3.565 -2.094,-1.924 -7.088,-2.429 z"
         class="C D G"
         id="path141" />
      <path
         id="use143"
         d="m 300.757,205.961 c 1.248,0.152 2.551,-0.857 3.715,1.051 -0.916,-0.673 -2.351,-0.827 -3.715,-1.051 z"
         style="fill:#ffeba3" />
    </g>
    <g
       transform="matrix(1.128864,0.404419,-0.402382,1.052929,36.860471,-152.2034)"
       id="g151">
      <path
         d="m 299.092,205.138 c 1.465,1.717 2.495,3.833 7.137,2.627 l 2.246,0.398 -2.295,-0.597 c -2.946,-3.565 -2.094,-1.924 -7.088,-2.429 z"
         class="C D G"
         id="path147" />
      <path
         id="use149"
         d="m 300.757,205.961 c 1.248,0.152 2.551,-0.857 3.715,1.051 -0.916,-0.673 -2.351,-0.827 -3.715,-1.051 z"
         style="fill:#ffeba3" />
    </g>
    <g
       transform="matrix(1.128864,0.404419,-0.402382,1.052929,35.125729,-157.11024)"
       id="g157">
      <path
         d="m 299.092,205.138 c 1.465,1.717 2.495,3.833 7.137,2.627 l 2.015,0.375 -2.065,-0.574 c -2.946,-3.565 -2.094,-1.924 -7.088,-2.429 z"
         class="C D G"
         id="path153" />
      <path
         id="use155"
         d="m 300.757,205.961 c 1.248,0.152 2.551,-0.857 3.715,1.051 -0.916,-0.673 -2.351,-0.827 -3.715,-1.051 z"
         style="fill:#ffeba3" />
    </g>
    <g
       transform="matrix(1.128864,0.404419,-0.402382,1.052929,33.04404,-162.31447)"
       id="g163">
      <path
         id="use159"
         d="m 299.092,205.138 c 1.465,1.717 2.495,3.833 7.137,2.627 l 2.131,0.446 -2.181,-0.644 c -2.946,-3.565 -2.094,-1.924 -7.088,-2.429 z"
         style="fill:#f5c742;stroke:#a07843;stroke-width:0.455" />
      <path
         id="use161"
         d="m 300.757,205.961 c 1.248,0.152 2.551,-0.857 3.715,1.051 -0.916,-0.673 -2.351,-0.827 -3.715,-1.051 z"
         style="fill:#ffeba3" />
    </g>
    <g
       transform="matrix(1.128864,0.404419,-0.402382,1.052929,31.85244,-167.15097)"
       id="g169">
      <path
         d="m 299.092,205.138 c 1.465,1.717 2.495,3.833 7.137,2.627 l 1.921,0.534 -1.971,-0.732 c -2.946,-3.565 -2.094,-1.924 -7.088,-2.429 z"
         class="C D G"
         id="path165" />
      <path
         id="use167"
         d="m 300.757,205.961 c 1.248,0.152 2.551,-0.857 3.715,1.051 -0.916,-0.673 -2.351,-0.827 -3.715,-1.051 z"
         style="fill:#ffeba3" />
    </g>
    <g
       transform="matrix(-0.495817,1.091813,1.035894,0.444402,232.87471,-252.01342)"
       id="g175">
      <path
         d="m 299.092,205.138 c 1.465,1.717 2.495,3.833 7.137,2.627 l 2.241,0.72 -2.291,-0.918 c -2.946,-3.565 -2.094,-1.924 -7.088,-2.429 z"
         class="C D G"
         id="path171" />
      <path
         id="use173"
         d="m 300.757,205.961 c 1.248,0.152 2.551,-0.857 3.715,1.051 -0.916,-0.673 -2.351,-0.827 -3.715,-1.051 z"
         style="fill:#ffeba3" />
    </g>
    <g
       transform="matrix(-0.572233,1.053774,1.001654,0.51697,264.95169,-250.25474)"
       id="g181">
      <path
         d="m 299.092,205.138 c 1.465,1.717 2.495,3.833 7.137,2.627 l 2.066,0.708 -2.116,-0.906 c -2.946,-3.565 -2.094,-1.924 -7.088,-2.429 z"
         class="C D G"
         id="path177" />
      <path
         id="use179"
         d="m 300.757,205.961 c 1.248,0.152 2.551,-0.857 3.715,1.051 -0.916,-0.673 -2.351,-0.827 -3.715,-1.051 z"
         style="fill:#ffeba3" />
    </g>
    <g
       transform="matrix(-0.572233,1.053774,1.001654,0.51697,266.87928,-245.45329)"
       id="g187">
      <path
         d="m 299.092,205.138 c 1.465,1.717 2.495,3.833 7.137,2.627 l 2.095,0.926 -2.145,-1.124 c -2.946,-3.565 -2.094,-1.924 -7.088,-2.429 z"
         class="C D G"
         id="path183" />
      <path
         id="use185"
         d="m 300.757,205.961 c 1.248,0.152 2.551,-0.857 3.715,1.051 -0.916,-0.673 -2.351,-0.827 -3.715,-1.051 z"
         style="fill:#ffeba3" />
    </g>
    <g
       transform="matrix(-0.572233,1.053774,1.001654,0.51697,268.94955,-240.5552)"
       id="g193">
      <path
         d="m 299.092,205.138 c 1.465,1.717 2.495,3.833 7.137,2.627 l 2.22,1.052 -2.27,-1.25 c -2.946,-3.565 -2.094,-1.924 -7.088,-2.429 z"
         class="C D G"
         id="path189" />
      <path
         id="use191"
         d="m 300.757,205.961 c 1.248,0.152 2.551,-0.857 3.715,1.051 -0.916,-0.673 -2.351,-0.827 -3.715,-1.051 z"
         style="fill:#ffeba3" />
    </g>
    <g
       transform="matrix(-0.572233,1.053774,1.001654,0.51697,270.98167,-236.44139)"
       id="g199">
      <path
         d="m 299.092,205.138 c 1.465,1.717 2.495,3.833 7.137,2.627 l 1.902,0.884 -1.952,-1.082 c -2.946,-3.565 -2.094,-1.924 -7.088,-2.429 z"
         class="C D G"
         id="path195" />
      <path
         id="use197"
         d="m 300.757,205.961 c 1.248,0.152 2.551,-0.857 3.715,1.051 -0.916,-0.673 -2.351,-0.827 -3.715,-1.051 z"
         style="fill:#ffeba3" />
    </g>
    <g
       transform="matrix(-0.572233,1.053774,1.001654,0.51697,273.06336,-231.8815)"
       id="g205">
      <path
         d="m 299.092,205.138 c 1.465,1.717 2.495,3.833 7.137,2.627 l 2.112,0.711 -2.162,-0.909 c -2.946,-3.565 -2.094,-1.924 -7.088,-2.429 z"
         class="C D G"
         id="path201" />
      <path
         id="use203"
         d="m 300.757,205.961 c 1.248,0.152 2.551,-0.857 3.715,1.051 -0.916,-0.673 -2.351,-0.827 -3.715,-1.051 z"
         style="fill:#ffeba3" />
    </g>
    <g
       transform="matrix(-0.572233,1.053774,1.001654,0.51697,274.69897,-226.6277)"
       id="g211">
      <path
         id="use207"
         d="m 299.092,205.138 c 1.465,1.717 2.495,3.833 7.137,2.627 l 2.131,0.446 -2.181,-0.644 c -2.946,-3.565 -2.094,-1.924 -7.088,-2.429 z"
         style="fill:#f5c742;stroke:#a07843;stroke-width:0.455" />
      <path
         id="use209"
         d="m 300.757,205.961 c 1.248,0.152 2.551,-0.857 3.715,1.051 -0.916,-0.673 -2.351,-0.827 -3.715,-1.051 z"
         style="fill:#ffeba3" />
    </g>
    <g
       transform="matrix(-0.572233,1.053774,1.001654,0.51697,276.43371,-222.26607)"
       id="g217">
      <path
         id="use213"
         d="m 299.092,205.138 c 1.465,1.717 2.495,3.833 7.137,2.627 l 2.131,0.446 -2.181,-0.644 c -2.946,-3.565 -2.094,-1.924 -7.088,-2.429 z"
         style="fill:#f5c742;stroke:#a07843;stroke-width:0.455" />
      <path
         id="use215"
         d="m 300.757,205.961 c 1.248,0.152 2.551,-0.857 3.715,1.051 -0.916,-0.673 -2.351,-0.827 -3.715,-1.051 z"
         style="fill:#ffeba3" />
    </g>
    <path
       d="m 293.591,171.98 c -5.874,-2.734 -3.167,-7.313 -2.719,-10.095 0.022,3.123 3.893,4.552 2.719,10.095 z"
       class="C D W"
       id="path219" />
    <path
       d="m 291.126,165.028 c 0.842,1.495 2.237,2.709 1.965,5.116 -2.14,-2.274 -1.134,-3.627 -1.965,-5.116 z"
       class="E"
       id="path221" />
  </g>
  <g
     id="g1562">
    <path
       d="m 64.61,14.323 c -3.718,0 -7.802,1.62 -12.957,5.923 -3.888,0.005 -7.438,1.757 -10.541,5.818 -5.796,-0.019 -5.788,0.424 -8.017,5.497 L 25.111,43.93 c -2.183,1.045 -5.93,0.527 -5.432,4.254 l 0.916,3.337 c -1.632,2.683 -3.363,4.917 -4.667,9.077 l 7.404,10.366 26.439,63.671 h 29.677 l 26.439,-63.671 7.404,-10.366 c -1.304,-4.16 -3.035,-6.394 -4.667,-9.077 l 0.916,-3.337 c 0.498,-3.726 -3.249,-3.208 -5.432,-4.254 L 96.124,31.561 C 93.895,26.488 93.903,26.045 88.107,26.064 85.004,22.003 81.454,20.251 77.566,20.246 72.411,15.943 68.327,14.323 64.609,14.323 Z"
       id="path225" />
    <path
       d="M 64.609,38.552 C 58.797,39 54.055,41.88 51.146,48.926 c -3.411,0.336 -6.814,0.981 -10.095,5.989 -2.407,3.79 -1.027,9.911 -4.759,12.739 -3.044,1.792 -6.088,8.353 -9.132,12.532 l 8.433,20.307 h 29.016 29.017 l 8.433,-20.307 C 99.015,76.007 95.971,69.447 92.927,67.654 89.195,64.825 90.575,58.705 88.168,54.915 84.887,49.907 81.484,49.262 78.073,48.926 75.164,41.88 70.422,39 64.61,38.552 Z"
       class="B Q"
       id="path253" />
    <path
       d="m 20.183,60.404 1.279,-0.999 c 0.67,-0.743 1.546,-0.702 1.717,0.035 l 0.35,1.314 C 26.057,49.119 33.51,40.585 43.05,33.356 c 0.689,-0.368 0.822,-1.264 -0.595,-1.239 l -4.461,-0.545 c -1.087,-0.264 -1.353,0.777 -0.545,0.843 l 1.041,0.496 c 0.549,0.463 0.182,0.925 -0.347,1.388 -5.891,3.639 -10.09,10.711 -11.994,14.473 l -2.924,0.743 c -1.547,0.392 0.249,1.049 0.843,1.239 0.545,0.226 0.514,0.716 0.099,1.586 z m 88.853,0 -1.279,-0.999 c -0.67,-0.743 -1.546,-0.702 -1.717,0.035 l -0.35,1.314 C 103.162,49.119 95.709,40.585 86.169,33.356 85.48,32.988 85.347,32.092 86.764,32.117 l 4.461,-0.545 c 1.087,-0.264 1.353,0.777 0.545,0.843 l -1.041,0.496 c -0.549,0.463 -0.182,0.925 0.347,1.388 5.891,3.639 10.09,10.711 11.994,14.473 l 2.924,0.743 c 1.547,0.392 -0.249,1.049 -0.843,1.239 -0.545,0.226 -0.514,0.716 -0.099,1.586 z"
       fill="#fff000"
       id="path263" />
    <g
       stroke="#fff000"
       class="I S"
       id="g283"
       transform="translate(-110.452,-89.604)">
      <g
         class="N"
         id="g271">
        <path
           d="m 177.797,111.367 c 0,1.511 -1.225,2.735 -2.735,2.735 -0.725,0 -1.421,-0.288 -1.934,-0.801 -0.513,-0.513 -0.801,-1.209 -0.801,-1.934 0,-0.725 0.288,-1.421 0.801,-1.934 0.513,-0.513 1.209,-0.801 1.934,-0.801 1.511,0 2.735,1.225 2.735,2.735 z"
           class="B"
           id="path265" />
        <path
           id="use267"
           d="m 171.238,113.385 c 0,1.511 -1.225,2.735 -2.735,2.735 -1.51,0 -2.735,-1.225 -2.735,-2.735 0,-1.51 1.225,-2.735 2.735,-2.735 1.51,0 2.735,1.225 2.735,2.735 z"
           style="opacity:0.998" />
        <path
           id="use269"
           d="m 165.056,116.539 c 0,1.511 -1.225,2.735 -2.735,2.735 -1.51,0 -2.735,-1.225 -2.735,-2.735 0,-1.51 1.225,-2.735 2.735,-2.735 1.51,0 2.735,1.225 2.735,2.735 z"
           style="opacity:0.998" />
      </g>
      <path
         d="m 163.439,115.766 3.7,-2.187 m 2.565,-0.925 4.373,-1.135"
         class="X"
         id="path273" />
      <g
         class="N"
         id="g279">
        <path
           id="use275"
           d="m 178.886,113.385 c 0,1.511 1.225,2.735 2.735,2.735 1.51,0 2.735,-1.225 2.735,-2.735 0,-1.51 -1.225,-2.735 -2.735,-2.735 -1.51,0 -2.735,1.225 -2.735,2.735 z"
           style="opacity:0.998" />
        <path
           id="use277"
           d="m 185.067,116.539 c 0,1.511 1.225,2.735 2.735,2.735 1.51,0 2.735,-1.225 2.735,-2.735 0,-1.51 -1.225,-2.735 -2.735,-2.735 -1.51,0 -2.735,1.225 -2.735,2.735 z"
           style="opacity:0.998" />
      </g>
      <path
         d="m 186.684,115.766 -3.7,-2.187 m -2.565,-0.925 -4.373,-1.135"
         class="X"
         id="path281" />
    </g>
  </g>
  <g
     id="g1547">
    <path
       d="m 64.61,52.34 c -6.909,6.721 -14.698,13.926 -28.886,15.848 -4.168,5.674 -4.585,1.244 -11.032,6.053 l 7.722,18.597 32.196,0.682 32.196,-0.682 7.722,-18.597 C 98.081,69.432 97.664,73.862 93.496,68.188 79.308,66.266 71.52,59.061 64.61,52.34 Z"
       fill="#00ced1"
       id="path255" />
    <path
       d="m 31.753,91.247 1.17,2.819 c 1.168,-0.061 2.267,-0.45 3.335,-0.984 2.69,1.556 4.95,1.068 7.088,0 2.69,1.556 4.949,1.068 7.087,0 2.69,1.556 4.95,1.068 7.088,0 2.69,1.556 4.95,1.068 7.088,0 2.69,1.556 4.949,1.068 7.087,0 2.69,1.556 4.949,1.068 7.087,0 2.69,1.556 4.949,1.068 7.087,0 2.69,1.556 4.95,1.068 7.088,0 1.185,0.685 2.286,0.974 3.331,0.991 l 1.177,-2.831 c -1.48,0.162 -2.982,-0.032 -4.508,-0.639 -2.309,0.888 -4.668,0.962 -7.088,0 -2.309,0.888 -4.667,0.962 -7.087,0 -2.309,0.888 -4.667,0.962 -7.087,0 -2.309,0.888 -4.667,0.962 -7.087,0 -2.309,0.888 -4.668,0.962 -7.088,0 -2.309,0.888 -4.668,0.962 -7.088,0 -2.309,0.888 -4.667,0.962 -7.087,0 -2.309,0.888 -4.668,0.962 -7.088,0 -1.481,0.569 -2.981,0.802 -4.506,0.643 z m -2.211,-5.325 1.2,2.891 c 1.447,0.054 2.79,-0.367 4.089,-0.984 2.825,1.556 5.199,1.068 7.445,0 2.825,1.556 5.199,1.068 7.445,0 2.825,1.556 5.199,1.068 7.445,0 2.825,1.556 5.199,1.068 7.445,0 2.825,1.556 5.199,1.068 7.445,0 2.825,1.556 5.198,1.068 7.444,0 2.825,1.556 5.199,1.068 7.445,0 2.825,1.556 5.199,1.068 7.445,0 1.473,0.811 2.822,1.063 4.095,0.971 l 1.198,-2.886 c -1.735,0.276 -3.497,0.116 -5.293,-0.564 -2.426,0.888 -4.902,0.962 -7.445,0 -2.426,0.888 -4.902,0.962 -7.445,0 -2.426,0.888 -4.902,0.962 -7.444,0 -2.426,0.888 -4.902,0.962 -7.445,0 -2.426,0.888 -4.903,0.962 -7.445,0 -2.426,0.888 -4.902,0.962 -7.445,0 -2.426,0.888 -4.902,0.962 -7.445,0 -2.426,0.888 -4.902,0.962 -7.445,0 -1.735,0.635 -3.497,0.851 -5.29,0.572 z m -2.196,-5.29 1.228,2.957 c 1.805,0.259 3.445,-0.195 5.025,-0.916 2.942,1.556 5.414,1.068 7.753,0 2.942,1.556 5.414,1.068 7.753,0 2.942,1.556 5.414,1.068 7.753,0 2.942,1.556 5.414,1.068 7.753,0 2.942,1.556 5.414,1.068 7.753,0 2.942,1.556 5.414,1.068 7.752,0 2.942,1.556 5.414,1.068 7.753,0 2.942,1.556 5.414,1.068 7.753,0 1.835,0.97 3.487,1.146 5.038,0.881 l 1.218,-2.933 a 11.02,11.02 0 0 1 -6.256,-0.426 c -2.526,0.888 -5.105,0.962 -7.753,0 -2.526,0.888 -5.105,0.962 -7.753,0 -2.526,0.888 -5.105,0.962 -7.752,0 -2.526,0.888 -5.105,0.962 -7.753,0 -2.526,0.888 -5.105,0.962 -7.753,0 -2.526,0.888 -5.105,0.962 -7.753,0 -2.526,0.888 -5.105,0.962 -7.753,0 -2.526,0.888 -5.105,0.962 -7.753,0 -2.046,0.719 -4.128,0.904 -6.252,0.437 z"
       class="B H J"
       id="path257" />
  </g>
  <g
     id="g1566">
    <path
       d="m 62.51,73.936 -0.535,2.044 h -2.794 l -0.939,-2.006 h -0.669 l 0.515,2.568 -1.115,2.674 -1.337,-1.487 -0.198,0.471 0.978,2.353 -0.19,0.456 -1.025,2.457 -1.337,-1.486 -0.198,0.471 0.978,2.353 -1.194,2.863 -1.337,-1.487 -0.198,0.471 0.978,2.353 -1.194,2.863 -1.337,-1.487 -0.198,0.471 0.978,2.353 -0.271,0.651 -1.786,0.732 -1.813,-1.934 -0.368,0.105 0.719,2.428 -1.919,0.787 -1.813,-1.934 -0.368,0.105 0.719,2.428 -1.919,0.787 -1.813,-1.934 -0.368,0.105 0.719,2.428 -1.919,0.787 -1.813,-1.934 -0.368,0.105 0.719,2.428 -0.565,0.232 -1.813,-1.934 -0.368,0.105 0.719,2.428 -0.778,0.319 h 29.935 0.002 29.935 l -0.778,-0.319 0.719,-2.428 -0.368,-0.105 -1.813,1.934 -3.289,-1.348 0.719,-2.428 -0.368,-0.105 -1.813,1.934 -2.576,-1.056 0.719,-2.428 -0.368,-0.105 -1.813,1.934 -1.919,-0.787 0.719,-2.428 -0.368,-0.105 -1.813,1.934 -1.786,-0.732 -0.271,-0.651 0.978,-2.353 -0.198,-0.471 -1.337,1.487 -1.194,-2.863 0.978,-2.353 -0.198,-0.471 -1.337,1.487 -1.194,-2.863 0.978,-2.353 -0.198,-0.471 -1.337,1.486 -1.025,-2.457 -0.19,-0.456 0.978,-2.353 -0.198,-0.471 -1.337,1.487 -1.115,-2.674 0.515,-2.568 H 70.98 l -0.939,2.006 h -2.794 l -0.535,-2.044 h -0.386 l -0.535,2.044 h -1.179 -1.179 l -0.535,-2.044 z"
       fill="#cd0000"
       id="path259" />
    <path
       d="m 58.932807,76.893665 -7.219676,17.313253 -15.700884,6.286492 0.828938,1.99575 h 11.118572 33.301739 11.118042 l 0.828939,-1.99575 -15.700355,-6.286492 -7.219677,-17.313253 h -5.678216 z"
       fill="url(#A)"
       id="path261"
       style="stroke-width:0.264583" />
  </g>
  <g
     opacity="0.997"
     class="H"
     id="g291"
     transform="translate(-110.452,-89.604)">
    <path
       d="m 177.713,130.817 c 0,0.52 -1.187,0.942 -2.652,0.942 -1.465,0 -2.652,-0.422 -2.652,-0.942 0,-0.25 0.279,-0.489 0.777,-0.666 0.498,-0.177 1.172,-0.276 1.875,-0.276 0.703,0 1.378,0.099 1.875,0.276 0.497,0.177 0.777,0.416 0.777,0.666 z"
       class="B"
       id="path285" />
    <path
       d="m 178.969,138.227 c 0,0.766 -1.75,1.388 -3.908,1.388 -2.158,0 -3.908,-0.621 -3.908,-1.388 m 0,0 1.256,-7.41 c 0,0.52 1.187,0.942 2.652,0.942 1.465,0 2.652,-0.422 2.652,-0.942 l 1.256,7.41"
       class="B"
       id="path287" />
    <path
       d="m 172.41,130.817 -0.085,0.538 c 0,0.234 0.243,0.447 0.631,0.615 l -0.752,4.817 0.498,0.078 0.739,-4.729 a 6.3,6.3 0 0 0 1.369,0.183 v 4.784 h 0.504 v -4.783 c 0.51,-0.017 0.979,-0.08 1.369,-0.182 l 0.738,4.728 0.498,-0.078 -0.752,-4.814 c 0.392,-0.168 0.638,-0.382 0.638,-0.618 l -0.091,-0.538 c 0,0.52 -1.188,0.942 -2.652,0.942 -1.464,0 -2.652,-0.421 -2.652,-0.942 z"
       fill="#ffd700"
       class="B"
       id="path289" />
  </g>
  <g
     transform="matrix(0.409894,-0.170208,0.170208,0.409894,-144.45485,4.840608)"
     class="C H N Y"
     id="g301">
    <path
       d="m 288.04,377.591 h 3.962 V 406.6 h -3.962 z"
       fill="url(#C)"
       class="B"
       id="path293"
       style="fill:url(#C)" />
    <path
       id="use295"
       d="m 288.04,348.583 h 3.962 v 29.009 h -3.962 z"
       style="opacity:0.998;fill:url(#linearGradient1278)" />
    <path
       id="use297"
       d="m 288.04,319.574 h 3.962 v 29.009 h -3.962 z"
       style="opacity:0.998;fill:url(#linearGradient1282)" />
    <path
       id="use299"
       d="m 288.04,285.416 3.962,6.571 v 27.587 h -3.962 z"
       style="opacity:0.998;fill:url(#linearGradient1286)" />
  </g>
  <path
     d="m 27.161,80.186 -1.624,0.674 m 6.561,11.216 -1.624,0.674 m 6.561,11.217 -1.624,0.674 m 6.562,11.216 -1.624,0.674"
     class="C I K"
     id="path303" />
  <g
     transform="matrix(-0.409894,-0.170208,-0.170208,0.409894,273.98223,4.4768321)"
     class="C H N Y"
     id="g313">
    <path
       d="m 288.04,377.591 h 3.962 V 406.6 h -3.962 z"
       fill="url(#I)"
       class="B"
       id="path305"
       style="fill:url(#I)" />
    <path
       id="use307"
       d="m 288.04,348.583 h 3.962 v 29.009 h -3.962 z"
       style="opacity:0.998;fill:url(#linearGradient1290)" />
    <path
       id="use309"
       d="m 288.04,319.574 h 3.962 v 29.009 h -3.962 z"
       style="opacity:0.998;fill:url(#D)" />
    <path
       id="use311"
       d="m 288.04,285.416 3.962,6.571 v 27.587 h -3.962 z"
       style="opacity:0.998;fill:url(#E)" />
  </g>
  <g
     id="g1543">
    <g
       class="K"
       id="g337"
       transform="translate(-110.452,-89.604)">
      <path
         id="use333"
         d="m 219.841,166.29 c -2.857,-1.472 -7.151,2.289 -0.283,5.736 6.66,3.343 7.678,-2.563 4.306,-4.25 1.132,-3.154 -3.271,-4.002 -4.023,-1.487 z"
         style="fill:#e4e4e4;stroke:#adadad" />
      <path
         id="use335"
         d="m 215.582,169.006 c 1.336,-0.089 2.741,-0.367 3.569,0.942 -0.074,-1.885 1.555,-1.675 2.658,-2.736 0.091,1.572 1.235,2.707 0.266,3.926 2.044,-0.061 2.234,1.321 3.222,2.082 -1.953,1.068 -3.753,2.636 -6.592,0.793 -2.768,-1.143 -3.381,-2.942 -3.123,-5.006 z"
         style="fill:#53b343;stroke:#34712a" />
    </g>
    <path
       id="use339"
       d="m 111.316,75.882 c -1.135,-0.174 -1.215,2.15 -2.519,1.25 -0.879,-0.331 -1.907,0.111 -2.422,0.839 -0.336,1.042 1.399,0.882 2.083,0.888 0.864,-0.709 1.166,-1.272 2.372,-1.621 1.396,-0.703 1.562,0.9 1.712,1.765 0.808,0.765 -0.93,2.206 0.582,2.106 0.732,0.777 2.113,0.358 1.622,-0.837 -0.365,-1.171 -2.131,-1.555 -1.753,-2.988 0.15,-1.018 -0.853,-1.37 -1.676,-1.403 z"
       style="fill:#ffffff" />
    <g
       class="K"
       id="g345"
       transform="translate(-110.452,-89.604)">
      <path
         id="use341"
         d="m 216.272,174.914 c -2.857,-1.472 -7.151,2.289 -0.283,5.736 6.66,3.343 7.678,-2.563 4.306,-4.25 1.132,-3.154 -3.271,-4.002 -4.023,-1.487 z"
         style="fill:#e4e4e4;stroke:#adadad" />
      <path
         id="use343"
         d="m 212.013,177.63 c 1.336,-0.089 2.741,-0.367 3.569,0.942 -0.074,-1.885 1.555,-1.675 2.658,-2.736 0.091,1.572 1.235,2.707 0.266,3.926 2.044,-0.061 2.234,1.321 3.222,2.082 -1.953,1.068 -3.753,2.636 -6.592,0.793 -2.768,-1.143 -3.381,-2.942 -3.123,-5.006 z"
         style="fill:#53b343;stroke:#34712a" />
    </g>
    <path
       id="use347"
       d="m 107.747,84.506 c -1.135,-0.174 -1.215,2.15 -2.519,1.25 -0.879,-0.331 -1.907,0.111 -2.422,0.839 -0.336,1.042 1.399,0.882 2.083,0.888 0.864,-0.709 1.166,-1.272 2.372,-1.621 1.396,-0.703 1.562,0.9 1.712,1.765 0.808,0.765 -0.93,2.206 0.582,2.106 0.732,0.777 2.113,0.358 1.622,-0.837 -0.365,-1.171 -2.131,-1.555 -1.753,-2.988 0.15,-1.018 -0.853,-1.37 -1.676,-1.403 z"
       style="fill:#ffffff" />
    <g
       class="K"
       id="g353"
       transform="translate(-110.452,-89.604)">
      <path
         id="use349"
         d="m 212.703,184.529 c -2.857,-1.472 -7.151,2.289 -0.283,5.736 6.66,3.343 7.678,-2.563 4.306,-4.25 1.132,-3.154 -3.271,-4.002 -4.023,-1.487 z"
         style="fill:#e4e4e4;stroke:#adadad" />
      <path
         id="use351"
         d="m 208.444,187.245 c 1.336,-0.089 2.741,-0.367 3.569,0.942 -0.074,-1.885 1.555,-1.675 2.658,-2.736 0.091,1.572 1.235,2.707 0.266,3.926 2.044,-0.061 2.234,1.321 3.222,2.082 -1.953,1.068 -3.753,2.636 -6.592,0.793 -2.768,-1.143 -3.381,-2.942 -3.123,-5.006 z"
         style="fill:#53b343;stroke:#34712a" />
    </g>
    <path
       id="use355"
       d="m 104.178,94.121 c -1.135,-0.174 -1.215,2.15 -2.519,1.25 -0.879,-0.331 -1.907,0.111 -2.422,0.839 -0.336,1.042 1.399,0.882 2.083,0.888 0.864,-0.709 1.166,-1.272 2.372,-1.621 1.396,-0.703 1.562,0.9 1.712,1.765 0.808,0.765 -0.93,2.206 0.582,2.106 0.732,0.777 2.113,0.358 1.622,-0.837 -0.365,-1.171 -2.131,-1.555 -1.753,-2.988 0.15,-1.018 -0.853,-1.37 -1.676,-1.403 z"
       style="fill:#ffffff" />
    <g
       class="K"
       id="g361"
       transform="translate(-110.452,-89.604)">
      <path
         id="use357"
         d="m 208.738,193.55 c -2.857,-1.472 -7.151,2.289 -0.283,5.736 6.66,3.343 7.678,-2.563 4.306,-4.25 1.132,-3.154 -3.271,-4.002 -4.023,-1.487 z"
         style="fill:#e4e4e4;stroke:#adadad" />
      <path
         id="use359"
         d="m 204.479,196.266 c 1.336,-0.089 2.741,-0.367 3.569,0.942 -0.074,-1.885 1.555,-1.675 2.658,-2.736 0.091,1.572 1.235,2.707 0.266,3.926 2.044,-0.061 2.234,1.321 3.222,2.082 -1.953,1.068 -3.753,2.636 -6.592,0.793 -2.768,-1.143 -3.381,-2.942 -3.123,-5.006 z"
         style="fill:#53b343;stroke:#34712a" />
    </g>
    <path
       id="use363"
       d="m 100.213,103.142 c -1.135,-0.174 -1.215,2.15 -2.519,1.25 -0.879,-0.331 -1.907,0.111 -2.422,0.839 -0.336,1.042 1.399,0.882 2.083,0.888 0.864,-0.709 1.166,-1.272 2.372,-1.621 1.396,-0.703 1.562,0.9 1.712,1.765 0.808,0.765 -0.93,2.206 0.582,2.106 0.732,0.777 2.113,0.358 1.622,-0.837 -0.365,-1.171 -2.131,-1.555 -1.753,-2.988 0.15,-1.018 -0.853,-1.37 -1.676,-1.403 z"
       style="fill:#ffffff" />
    <g
       class="K"
       id="g369"
       transform="translate(-110.452,-89.604)">
      <path
         id="use365"
         d="m 205.467,202.769 c -2.857,-1.472 -7.151,2.289 -0.283,5.736 6.66,3.343 7.678,-2.563 4.306,-4.25 1.132,-3.154 -3.271,-4.002 -4.023,-1.487 z"
         style="fill:#e4e4e4;stroke:#adadad" />
      <path
         id="use367"
         d="m 201.208,205.485 c 1.336,-0.089 2.741,-0.367 3.569,0.942 -0.074,-1.885 1.555,-1.675 2.658,-2.736 0.091,1.572 1.235,2.707 0.266,3.926 2.044,-0.061 2.234,1.321 3.222,2.082 -1.953,1.068 -3.753,2.636 -6.592,0.793 -2.768,-1.143 -3.381,-2.942 -3.123,-5.006 z"
         style="fill:#53b343;stroke:#34712a" />
    </g>
    <path
       id="use371"
       d="m 96.942,112.361 c -1.135,-0.174 -1.215,2.15 -2.519,1.25 -0.879,-0.331 -1.907,0.111 -2.422,0.839 -0.336,1.042 1.399,0.882 2.083,0.888 0.864,-0.709 1.166,-1.272 2.372,-1.621 1.396,-0.703 1.562,0.9 1.712,1.765 0.808,0.765 -0.93,2.206 0.582,2.106 0.732,0.777 2.113,0.358 1.622,-0.837 -0.365,-1.171 -2.131,-1.555 -1.753,-2.988 0.15,-1.018 -0.853,-1.37 -1.676,-1.403 z"
       style="fill:#ffffff" />
  </g>
  <g
     transform="matrix(0.264583,0,0,0.264583,-164.03941,2.89e-4)"
     id="g399">
    <path
       d="m 864.186,103.035 c -41.367,0 -42.615,25.425 -76.771,36.871 -13.138,4.403 -28.182,11.33 -41.687,36.156 -15.119,25.456 -29.371,71.83 -43.564,76.93 3.327,-21.704 -25.638,-14.841 -24.602,-1.717 1.978,25.052 32.835,15.114 37.375,9.344 14.775,-18.777 19.782,-41.92 31.063,-63.639 8.908,-16.317 17.473,-29.311 29.201,-36.662 18.787,-11.776 23.911,-8.648 41.264,-19.84 16.885,-10.89 25.152,-22.875 47.723,-23.807 22.571,0.932 30.837,12.916 47.723,23.807 17.353,11.192 22.475,8.064 41.262,19.84 11.728,7.351 20.295,20.345 29.203,36.662 11.28,21.718 16.288,44.862 31.062,63.639 4.54,5.77 35.397,15.708 37.375,-9.344 1.036,-13.124 -27.928,-19.987 -24.601,1.717 -14.194,-5.1 -28.445,-51.473 -43.564,-76.93 -13.506,-24.826 -28.549,-31.753 -41.687,-36.156 -34.156,-11.446 -35.405,-36.871 -76.771,-36.871 z"
       fill="url(#H)"
       stroke="#8b0000"
       id="path395"
       style="fill:url(#H)" />
    <path
       d="m 864.186,116.672 c -22.571,0.932 -30.837,12.916 -47.723,23.807 -17.353,11.192 -22.477,8.064 -41.264,19.84 -11.728,7.351 -20.293,20.345 -29.201,36.662 -11.28,21.718 -16.288,44.862 -31.062,63.639 -4.54,5.77 -35.397,15.708 -37.375,-9.344 -7.438,13.466 6.736,31.038 24.602,30.506 34.952,-1.041 40.951,-54.257 55.482,-79.725 13.506,-24.826 28.417,-34.533 41.555,-38.936 34.156,-11.446 40.762,-32.943 64.986,-32.943 24.224,0 30.83,21.497 64.986,32.943 13.138,4.403 28.049,14.109 41.555,38.936 14.531,25.468 20.531,78.684 55.482,79.725 17.865,0.532 32.04,-17.04 24.601,-30.506 -1.978,25.052 -32.835,15.114 -37.375,9.344 -14.775,-18.777 -19.782,-41.92 -31.062,-63.639 -8.908,-16.317 -17.475,-29.311 -29.203,-36.662 -18.787,-11.776 -23.909,-8.648 -41.262,-19.84 -16.885,-10.89 -25.152,-22.875 -47.723,-23.807 z"
       fill="url(#G)"
       stroke="#c0c0c0"
       id="path397"
       style="fill:url(#G)" />
  </g>
  <g
     id="g1605">
    <path
       d="m 64.61,120.858 c -3.206,0.11 -6.633,0.602 -9.274,1.958 -3.499,1.797 -8.252,2.399 -14.443,0.617 a 7.03,7.03 0 0 1 0.283,1.347 c 0.242,2.127 -1.899,3.605 -4.867,3.733 -0.009,1.595 2.739,2.28 5.575,2.834 5.365,1.05 4.66,4.606 5.292,7.182 H 64.61 82.044 c 0.632,-2.576 -0.074,-6.132 5.292,-7.182 2.837,-0.555 5.584,-1.24 5.575,-2.834 -2.968,-0.128 -5.109,-1.605 -4.867,-3.733 a 7.03,7.03 0 0 1 0.283,-1.347 c -6.191,1.783 -10.944,1.18 -14.443,-0.617 -2.641,-1.356 -6.068,-1.848 -9.274,-1.958 z"
       fill="#ff0000"
       id="path373" />
    <path
       d="m 53.675,120.212 c -2.177,-0.463 -4.19,-0.417 -6.238,0.491 -7.98,3.539 -5.912,-1.011 -8.667,-0.415 l 2.103,3.146 c 6.191,1.783 10.943,1.18 14.442,-0.617 2.641,-1.356 6.069,-1.848 9.275,-1.958 3.206,0.11 6.632,0.602 9.273,1.958 3.499,1.797 8.252,2.399 14.443,0.617 -0.005,0.016 -0.009,0.034 -0.014,0.05 l 0.057,-0.05 2.103,-3.146 c -2.755,-0.595 -0.687,3.955 -8.668,0.415 -2.048,-0.908 -4.172,-1.317 -6.238,-0.491 -4.289,1.716 -7.048,-3.051 -10.934,-3.051 -3.886,0 -7.102,3.866 -10.935,3.051 z"
       class="C D Z"
       id="path375" />
    <path
       d="m 44.615,122.77 c 2.994,0.4 5.928,0.979 9.918,-1.612 -7.332,-0.506 -5.63,0.687 -9.918,1.612 z m 19.995,-4.731 c -1.794,0 -3.303,1.192 -4.855,2.068 1.541,-0.313 3.011,-0.946 4.855,-0.946 1.844,0 3.314,0.633 4.855,0.946 -1.552,-0.876 -3.061,-2.068 -4.855,-2.068 z m 19.995,4.731 c -2.994,0.4 -5.928,0.979 -9.918,-1.612 7.332,-0.506 5.63,0.687 9.918,1.612 z"
       class="E"
       id="path377" />
    <g
       class="C Z"
       id="g385"
       transform="translate(-110.452,-89.604)">
      <path
         d="m 146.294,209.493 c -0.302,0.014 -0.591,0.055 -0.856,0.119 -5.186,1.264 -4.581,6.819 -3.83,8.421 1.474,3.146 3.26,4.43 5.815,5.186 -2.444,2.629 -1.751,5.79 -0.378,7.371 3.191,3.673 3.782,5.298 4.158,7.559 h 5.575 c 0.971,-1.532 1.912,-3.088 4.725,-3.024 h 27.12 c 2.812,-0.065 3.754,1.492 4.725,3.024 h 5.575 c 0.376,-2.261 0.967,-3.886 4.158,-7.559 1.373,-1.58 2.066,-4.742 -0.378,-7.371 2.555,-0.756 4.341,-2.04 5.815,-5.186 0.751,-1.603 1.356,-7.158 -3.83,-8.421 -2.125,-0.518 -5.702,0.486 -6.189,4.772 -0.242,2.127 1.898,3.605 4.866,3.733 0.009,1.595 -2.739,2.28 -5.575,2.834 -5.365,1.05 -4.66,4.606 -5.292,7.182 H 174.92 157.628 c -0.632,-2.576 0.074,-6.132 -5.292,-7.182 -2.837,-0.555 -5.584,-1.24 -5.575,-2.834 2.968,-0.128 5.109,-1.605 4.867,-3.733 a 7.03,7.03 0 0 0 -0.283,-1.347 c -0.864,-2.704 -3.213,-3.627 -5.051,-3.544 z"
         class="D"
         id="path379" />
      <path
         d="m 157.628,228.133 c -2.522,5.574 -8.248,3.644 -8.032,0.945 0.099,-1.233 0.637,-2.765 4.158,-0.945 2.985,-2.667 -2.471,-8.571 -6.331,-4.914 m -0.662,-5.103 c -3.614,-0.88 -3.41,-5.007 0.013,-5.535 2.651,-0.408 3.381,3.391 0.568,3.007 m 45.154,12.545 c 2.522,5.574 8.248,3.644 8.032,0.945 -0.099,-1.233 -0.637,-2.765 -4.158,-0.945 -2.985,-2.667 2.471,-8.571 6.331,-4.914 m 0.662,-5.103 c 3.614,-0.88 3.41,-5.007 -0.013,-5.535 -2.651,-0.408 -3.381,3.391 -0.568,3.007"
         class="I"
         id="path381" />
      <path
         d="m 160.83,228.584 h 28.464 v 8.954 H 160.83 Z"
         class="B D H N"
         id="path383" />
    </g>
    <g
       class="E"
       id="g391"
       transform="translate(-110.452,-89.604)">
      <path
         d="m 155.761,227.282 c -0.037,2.891 -5.224,0.444 -4.471,2.877 1.613,1.219 4.54,-0.231 4.676,-2.227 l -0.059,-0.329 z m 2.498,2.539 c -0.077,0.613 -0.482,1.11 -0.771,1.638 l -0.601,0.811 c -0.498,0.464 -1.176,0.665 -1.835,0.759 -0.525,0.273 -1.141,0.274 -1.718,0.329 -0.375,0.06 -0.852,-0.128 -1.164,0.068 -0.045,0.351 0.289,0.559 0.425,0.849 0.153,0.259 0.359,0.477 0.524,0.709 0.325,0.339 0.162,0.813 0.176,1.229 -0.057,0.366 0.171,0.858 0.604,0.763 0.617,-0.035 1.247,0.068 1.855,-0.071 0.368,0.049 0.51,-0.452 0.644,-0.711 0.3,-0.499 0.851,-0.736 1.36,-0.96 0.407,-0.221 0.796,-0.503 1.271,-0.555 0.442,-0.012 0.774,-0.337 0.742,-0.787 0.076,-0.814 -0.022,-1.633 0.085,-2.446 l 0.041,-1.324 c -0.272,-0.3 -0.605,-0.423 -1.01,-0.35 l -0.627,0.049 z m -8.719,-6.214 c -0.565,0.172 -1.082,0.46 -1.537,0.834 -0.466,0.342 -0.994,0.747 -0.957,1.391 -0.029,0.633 -0.034,1.274 0.051,1.901 0.169,0.302 0.304,0.8 0.586,0.937 0.392,-0.307 0.157,-0.914 0.466,-1.276 0.145,-0.572 0.665,-1.007 1.152,-1.328 0.219,-0.07 0.479,-0.205 0.479,-0.275 0.402,-0.166 0.672,-0.153 1.024,-0.245 0.553,-0.039 1.173,-0.09 1.636,0.278 0.292,0.079 0.856,0.692 0.871,0.07 0.094,-0.371 0.075,-0.813 -0.255,-1.065 -0.337,-0.365 -0.734,-0.642 -1.154,-0.907 -0.428,-0.307 -0.955,-0.365 -1.453,-0.475 -0.309,-0.079 -0.608,0.128 -0.912,0.16 z m -5.279,-5.045 c 0.798,0.493 1.35,1.315 2.166,1.77 0.568,1.117 -0.777,1.262 -1.298,0.461 -0.852,-0.566 -1.296,-1.523 -1.837,-2.356 -0.853,-1.471 -0.949,-3.241 -0.909,-4.902 0.137,-1.133 0.974,-2.129 1.971,-2.636 0.841,-0.31 1.75,-0.539 2.646,-0.512 0.935,0.221 1.835,0.67 2.278,1.565 0.816,1.003 1.196,2.493 0.702,3.718 -0.663,0.987 -1.92,1.43 -3.076,1.241 -1.118,0.086 -1.697,-1.028 -1.551,-2.009 -0.465,-1.183 2.236,-1.323 1.145,-0.248 -1.264,0.175 -0.8,1.527 0.222,1.678 1.026,0.292 2.291,-0.067 2.934,-0.931 0.189,-0.73 0.395,-1.646 -0.08,-2.319 -0.545,-0.976 -1.744,-1.083 -2.621,-1.62 -0.788,-0.462 -1.629,0.067 -2.216,0.601 -0.681,0.618 -1.275,1.41 -1.52,2.305 -0.106,0.947 -0.315,1.964 0.212,2.837 0.227,0.483 0.582,0.893 0.833,1.358 z m 50.101,8.72 c 0.037,2.891 5.224,0.444 4.471,2.877 -1.613,1.219 -4.54,-0.231 -4.676,-2.227 l 0.059,-0.329 z m -2.498,2.539 c 0.077,0.613 0.482,1.11 0.771,1.638 l 0.601,0.811 c 0.498,0.464 1.176,0.665 1.835,0.759 0.525,0.273 1.141,0.274 1.718,0.329 0.375,0.06 0.852,-0.128 1.164,0.068 0.045,0.351 -0.289,0.559 -0.425,0.849 -0.153,0.259 -0.359,0.477 -0.524,0.709 -0.325,0.339 -0.162,0.813 -0.176,1.229 0.057,0.366 -0.171,0.858 -0.604,0.763 -0.617,-0.035 -1.247,0.068 -1.855,-0.071 -0.368,0.049 -0.51,-0.452 -0.644,-0.711 -0.3,-0.499 -0.851,-0.736 -1.36,-0.96 -0.407,-0.221 -0.796,-0.503 -1.271,-0.555 -0.442,-0.012 -0.774,-0.337 -0.742,-0.787 -0.076,-0.814 0.022,-1.633 -0.085,-2.446 l -0.041,-1.324 c 0.272,-0.3 0.605,-0.423 1.01,-0.35 l 0.627,0.049 z m 8.72,-6.214 c 0.565,0.172 1.082,0.46 1.537,0.834 0.466,0.342 0.994,0.747 0.957,1.391 0.029,0.633 0.034,1.274 -0.051,1.901 -0.169,0.302 -0.304,0.8 -0.586,0.937 -0.392,-0.307 -0.157,-0.914 -0.466,-1.276 -0.145,-0.572 -0.665,-1.007 -1.152,-1.328 -0.219,-0.07 -0.479,-0.205 -0.479,-0.275 -0.402,-0.166 -0.672,-0.153 -1.024,-0.245 -0.553,-0.039 -1.173,-0.09 -1.636,0.278 -0.292,0.079 -0.856,0.692 -0.871,0.07 -0.094,-0.371 -0.075,-0.813 0.255,-1.065 0.337,-0.365 0.734,-0.642 1.154,-0.907 0.428,-0.307 0.955,-0.365 1.453,-0.475 0.309,-0.079 0.608,0.128 0.912,0.16 z m 5.278,-5.045 c -0.798,0.493 -1.35,1.315 -2.166,1.77 -0.568,1.117 0.777,1.262 1.298,0.461 0.852,-0.566 1.296,-1.523 1.837,-2.356 0.853,-1.471 0.949,-3.241 0.909,-4.902 -0.137,-1.133 -0.974,-2.129 -1.971,-2.636 -0.841,-0.31 -1.75,-0.539 -2.646,-0.512 -0.935,0.221 -1.835,0.67 -2.278,1.565 -0.816,1.003 -1.196,2.493 -0.702,3.718 0.663,0.987 1.92,1.43 3.076,1.241 1.118,0.086 1.697,-1.028 1.551,-2.009 0.465,-1.183 -2.236,-1.323 -1.145,-0.248 1.264,0.175 0.8,1.527 -0.222,1.678 -1.026,0.292 -2.291,-0.067 -2.934,-0.931 -0.189,-0.73 -0.395,-1.646 0.08,-2.319 0.545,-0.976 1.744,-1.083 2.621,-1.62 0.788,-0.462 1.629,0.067 2.216,0.601 0.681,0.618 1.275,1.41 1.52,2.305 0.106,0.947 0.315,1.964 -0.212,2.837 -0.227,0.483 -0.582,0.893 -0.833,1.358 z"
         id="path387" />
      <path
         d="m 162.219,229.973 v 6.176 h 25.686 v -6.176 z"
         class="B H"
         id="path389" />
    </g>
    <path
       d="m 55.855,141.012 h 2.618 q 0.497,0 0.824,0.103 0.33,0.099 0.565,0.306 0.238,0.206 0.366,0.49 0.128,0.281 0.128,0.597 0,0.636 -0.49,1.066 -0.487,0.43 -1.346,0.43 h -0.845 v 0.927 q 0,0.174 0.025,0.22 0.032,0.067 0.096,0.099 0.068,0.032 0.224,0.032 h 0.252 v 0.686 h -2.416 v -0.686 h 0.167 q 0.22,0 0.291,-0.032 0.071,-0.032 0.103,-0.099 0.032,-0.071 0.032,-0.288 v -2.725 q 0,-0.227 -0.028,-0.298 -0.028,-0.075 -0.092,-0.107 -0.06,-0.036 -0.234,-0.036 h -0.238 z m 1.819,0.81 v 1.407 h 0.423 q 0.387,0 0.568,-0.078 0.181,-0.082 0.291,-0.245 0.11,-0.167 0.11,-0.394 0,-0.341 -0.263,-0.54 -0.195,-0.149 -0.579,-0.149 z m 4.763,-0.81 h 1.112 l 1.488,3.826 q 0.121,0.306 0.213,0.377 0.096,0.071 0.348,0.068 v 0.686 h -2.345 v -0.686 l 0.142,-0.003 q 0.195,0 0.274,-0.05 0.078,-0.053 0.078,-0.128 0,-0.064 -0.068,-0.263 l -0.146,-0.451 h -1.51 l -0.185,0.501 q -0.057,0.16 -0.057,0.21 0,0.057 0.039,0.103 0.043,0.046 0.135,0.068 0.06,0.014 0.334,0.014 v 0.686 h -1.918 v -0.686 q 0.185,0 0.27,-0.032 0.085,-0.032 0.139,-0.096 0.057,-0.064 0.124,-0.238 z m -0.153,2.668 h 0.991 l -0.483,-1.364 z m 3.944,-2.835 h 0.469 l 0.05,0.167 h 2.796 l 0.06,-0.167 h 0.472 l 0.615,1.737 -0.661,0.231 q -0.22,-0.433 -0.316,-0.565 -0.188,-0.259 -0.433,-0.409 -0.185,-0.114 -0.366,-0.114 -0.085,0 -0.117,0.043 -0.032,0.039 -0.032,0.185 v 2.849 q 0,0.252 0.018,0.316 0.018,0.064 0.06,0.103 0.043,0.036 0.117,0.05 0.075,0.011 0.398,0.011 v 0.686 h -2.416 v -0.686 h 0.146 q 0.242,0 0.309,-0.028 0.067,-0.032 0.103,-0.107 0.036,-0.078 0.036,-0.32 v -2.913 q 0,-0.124 -0.028,-0.156 -0.028,-0.032 -0.121,-0.032 -0.185,0 -0.412,0.139 -0.227,0.139 -0.405,0.391 -0.071,0.099 -0.302,0.558 l -0.65,-0.231 z m 4.721,0.167 h 2.416 v 0.686 h -0.22 q -0.192,0 -0.256,0.036 -0.06,0.032 -0.092,0.107 -0.028,0.071 -0.028,0.277 v 2.742 q 0,0.224 0.025,0.288 0.025,0.064 0.085,0.092 0.075,0.043 0.224,0.043 h 0.263 v 0.686 H 70.95 v -0.686 h 0.195 q 0.21,0 0.274,-0.028 0.064,-0.032 0.092,-0.096 0.032,-0.067 0.032,-0.263 v -2.753 q 0,-0.231 -0.032,-0.302 -0.028,-0.075 -0.099,-0.114 -0.05,-0.028 -0.242,-0.028 h -0.22 z m -11.03,-17.766 a 4.2,4.2 0 0 0 0.895,2.135 c 0.137,1.274 -0.499,2.755 -0.103,3.392 0.396,0.62 0.913,0.654 1.343,0.465 0.43,-0.189 1.412,-1.481 2.961,-1.188 1.549,0.293 1.877,1.343 2.927,0.861 1.05,-0.499 1.222,-0.913 1.016,-2.359 -0.189,-1.446 -0.293,-2.669 1.05,-3.185 0,0 -0.62,1.291 -0.138,2.393 0.499,1.119 0.517,3.289 -0.069,3.874 -0.586,0.585 -1.222,0.517 -1.222,0.517 a 1.48,1.48 0 0 0 0.62,0.689 c 0.189,0.465 0.189,0.758 0.189,0.758 0,0 -0.396,-0.172 -1.016,-0.327 l -1.05,-0.293 c 0,0 -0.172,1.842 -0.465,2.135 -0.293,0.293 -0.258,0.362 -0.465,1.119 -0.189,0.758 -0.396,1.946 -1.377,2.066 -0.981,0.138 -1.618,-0.138 -1.98,-0.499 -0.362,-0.361 0.034,-1.309 -0.327,-2.101 -0.361,-0.792 -0.551,-1.705 -0.689,-1.877 -0.138,-0.172 -0.172,-0.258 -0.172,-0.258 0,0 -0.585,0.034 -0.758,0.138 -0.173,0.104 -0.43,0.327 -0.43,0.327 0,0 -0.172,-0.62 -0.103,-0.981 l 0.069,-0.362 c 0,0 -2.032,-0.43 -1.584,-2.789 0.517,-2.376 1.154,-2.479 0.878,-4.649 z"
       id="path393" />
  </g>
  <g
     id="g1368"
     transform="matrix(0.89795499,0,0,0.89795499,7.0234124,15.504866)"
     style="stroke:#000000;stroke-width:0.39088829;stroke-miterlimit:4;stroke-dasharray:none">
    <path
       style="fill:#ffffff;stroke:#000000;stroke-width:0.39088829;stroke-linecap:butt;stroke-linejoin:miter;stroke-opacity:1;stroke-miterlimit:4;stroke-dasharray:none"
       d="m 68.09852,110.32263 c -1.051473,-0.12445 -3.386354,-2.67018 -7.935405,-1.57946 0.963639,-1.3955 2.885229,-3.36762 2.643794,-5.91698 -0.169818,-1.79313 0.266133,-2.891993 0.705547,-4.056905 0.544447,-1.443353 0.434282,-2.916498 0.0441,-4.365579 -0.546532,-2.029719 -0.264996,-2.532108 0,-3.439547 0.381582,-1.306674 0.0029,-2.638556 -0.02206,-3.902563 -0.02581,-1.302139 0.534164,-2.094045 0.374822,-3.108821 -0.2463,-1.568572 0.404783,-2.184604 0.264584,-3.086773 -0.30374,-1.954499 0.241703,-2.762422 0.35277,-4.145095 -0.254344,3.666404 0.230124,2.81024 0.264581,4.497869 0.01137,0.556675 -0.319665,1.070985 -0.324622,1.631244 -0.0059,0.670949 0.337738,1.386485 0.302568,2.050835 -0.453882,1.876882 -0.42872,3.079311 -0.103674,4.724405 0.284708,1.440948 0.0049,2.414159 -0.09751,3.308599 -0.210888,1.842055 0.885471,2.794422 0.730343,4.247943 -0.179054,1.677691 -0.932079,2.50963 -0.683499,4.409678 0.470771,3.59836 1.201837,6.33321 3.483644,8.73115 z"
       id="path1352"
       sodipodi:nodetypes="ccssssssscsscsssscc" />
    <path
       id="path1354"
       style="fill:#ffffff;stroke:#000000;stroke-width:0.39088829;stroke-linecap:butt;stroke-linejoin:miter;stroke-opacity:1;stroke-miterlimit:4;stroke-dasharray:none"
       d="m 64.195925,108.91988 c 0.494406,-0.1023 1.179952,0.34607 0.948461,0.9005 -0.187725,0.55091 -0.722311,0.97888 -0.639371,1.61268 0.02524,0.66497 0.282098,1.29548 0.289603,1.96553 0.09452,0.65983 0.301573,1.31008 0.203387,1.98875 -0.0197,0.57106 -0.94184,0.99714 -1.361151,1.29966 -0.346976,0.48361 -1.070831,0.80081 -1.527977,0.26199 -0.397535,-0.44555 -0.53742,-1.21618 -0.20656,-1.68944 0.364565,-0.52148 1.292078,-1.05651 0.969935,-1.72183 -0.207282,-0.6734 -0.01229,-1.36745 0.07602,-2.03868 0.225404,-0.53228 0.112247,-1.09434 -0.04615,-1.62565 -0.216722,-0.52669 0.134898,-1.10038 0.720155,-1.06741 0.194605,-0.0178 0.431608,-0.0594 0.573644,0.1139 z"
       sodipodi:nodetypes="cccccccsccccc" />
  </g>
  <g
     id="g1592">
    <g
       id="g1572">
      <g
         class="K"
         id="g319"
         transform="translate(-110.452,-89.604)">
        <path
           id="use315"
           d="m 189.972,193.094 c -0.705,-0.207 -0.228,1.112 -0.529,0.957 -0.105,-0.644 -0.98,-0.736 -1.156,-0.083 -0.308,0.591 -0.494,1.312 -0.314,1.966 0.13,0.549 1.341,0.875 0.617,1.37 -0.507,0.544 0.744,0.675 0.221,1.172 -0.669,0.302 -0.484,1.006 -0.621,1.587 -0.104,0.697 -0.16,1.413 -0.103,2.116 0.191,0.75 0.582,1.436 0.928,2.124 0.438,0.7 1.145,1.341 2.015,1.355 0.561,-0.004 1.149,0.065 1.69,-0.1 0.653,-0.266 1.333,-0.641 1.624,-1.321 0.249,-0.569 0.621,-1.098 0.673,-1.731 0.126,-0.899 0.284,-1.811 0.738,-2.612 0.204,-0.726 0.754,-1.343 0.685,-2.142 -0.225,-0.727 0.492,-1.286 0.388,-1.992 -0.316,-0.56 -0.376,-1.2 -0.503,-1.78 -0.474,-0.356 -1.209,0.842 -1.312,-0.101 -0.01,-0.597 -0.609,-0.459 -0.806,-0.056 -0.604,0.406 -1.155,-0.167 -1.25,-0.744 -0.312,-0.394 -1.423,-0.752 -1.544,-0.076 0.158,0.393 -0.207,0.82 -0.5,0.382 -0.169,-0.391 -0.543,-0.349 -0.842,-0.221 l -0.1,-0.073 z"
           style="fill:#ffffff;stroke:#dcdcdc" />
        <path
           id="use317"
           d="m 187.275,196.217 c 0.648,2.755 1.027,5.749 2.804,7.5 0.421,-4.684 2.418,-7.201 3.785,-10.584 -0.132,3.785 0.252,7.57 -0.841,11.355 1.442,-0.732 1.384,-0.872 3.505,-5.117 -0.953,6.306 -3.235,7.294 -5.327,9.042 -0.486,1.521 -1.768,2.565 -3.575,3.294 1.174,-1.346 2.381,-2.697 1.752,-3.785 -3.709,-4.154 -2.449,-8.612 -2.103,-11.706 z"
           style="fill:#f5c742;stroke:#a07843" />
      </g>
      <path
         id="use321"
         d="m 76.858,109.768 c 0.503,1.757 0.041,5.155 3.435,7.009 1.844,-3.435 1.818,-6.869 2.664,-10.304 -0.503,3.334 0.54,5.724 -1.542,10.023 2.808,-0.793 2.739,-2.545 3.785,-3.925 -0.846,2.872 -2.913,4.726 -5.432,6.203 -2.36,-2.773 -3.013,-5.627 -2.909,-9.007 z"
         style="fill:#ffeba3" />
    </g>
    <g
       id="g1579">
      <g
         transform="matrix(-1,0,0,1,403.41169,-89.604)"
         id="g331">
        <g
           class="K"
           id="g327">
          <path
             id="use323"
             d="m 353.71201,193.094 c -0.705,-0.207 -0.228,1.112 -0.529,0.957 -0.105,-0.644 -0.98,-0.736 -1.156,-0.083 -0.308,0.591 -0.494,1.312 -0.314,1.966 0.13,0.549 1.341,0.875 0.617,1.37 -0.507,0.544 0.744,0.675 0.221,1.172 -0.669,0.302 -0.484,1.006 -0.621,1.587 -0.104,0.697 -0.16,1.413 -0.103,2.116 0.191,0.75 0.582,1.436 0.928,2.124 0.438,0.7 1.145,1.341 2.015,1.355 0.561,-0.004 1.149,0.065 1.69,-0.1 0.653,-0.266 1.333,-0.641 1.624,-1.321 0.249,-0.569 0.621,-1.098 0.673,-1.731 0.126,-0.899 0.284,-1.811 0.738,-2.612 0.204,-0.726 0.754,-1.343 0.685,-2.142 -0.225,-0.727 0.492,-1.286 0.388,-1.992 -0.316,-0.56 -0.376,-1.2 -0.503,-1.78 -0.474,-0.356 -1.209,0.842 -1.312,-0.101 -0.01,-0.597 -0.609,-0.459 -0.806,-0.056 -0.604,0.406 -1.155,-0.167 -1.25,-0.744 -0.312,-0.394 -1.423,-0.752 -1.544,-0.076 0.158,0.393 -0.207,0.82 -0.5,0.382 -0.169,-0.391 -0.543,-0.349 -0.842,-0.221 l -0.1,-0.073 z"
             style="fill:#ffffff;stroke:#dcdcdc" />
          <path
             id="use325"
             d="m 351.01501,196.217 c 0.648,2.755 1.027,5.749 2.804,7.5 0.421,-4.684 2.418,-7.201 3.785,-10.584 -0.132,3.785 0.252,7.57 -0.841,11.355 1.442,-0.732 1.384,-0.872 3.505,-5.117 -0.953,6.306 -3.235,7.294 -5.327,9.042 -0.486,1.521 -1.768,2.565 -3.575,3.294 1.174,-1.346 2.381,-2.697 1.752,-3.785 -3.709,-4.154 -2.449,-8.612 -2.103,-11.706 z"
             style="fill:#f5c742;stroke:#a07843" />
        </g>
        <path
           id="use329"
           d="m 351.05001,199.372 c 0.503,1.757 0.041,5.155 3.435,7.009 1.844,-3.435 1.818,-6.869 2.664,-10.304 -0.503,3.334 0.54,5.724 -1.542,10.023 2.808,-0.793 2.739,-2.545 3.785,-3.925 -0.846,2.872 -2.913,4.726 -5.432,6.203 -2.36,-2.773 -3.013,-5.627 -2.909,-9.007 z"
           style="fill:#ffeba3" />
      </g>
    </g>
  </g>
  <g
     id="g1620">
    <path
       d="m 56.482,9.067 4.861,3.584 -0.002,0.008"
       class="E"
       id="path227" />
    <path
       d="m 61.341,12.659 -1.775,5.971 0.038,-0.025 4.994,-3.592 0.009,-0.007 5.046,3.406 -0.004,-0.011 -1.856,-5.807 h 0.002 L 72.759,9.05 72.768,9.044 66.703,9.057 h -0.014 l -2.082,-5.941 -0.009,0.028 -2.06,5.904 -0.004,0.009 -6.083,-0.013 0.031,0.023 z"
       class="J"
       id="path229" />
    <path
       fill="#a07843"
       d="M 59.566,18.991 A 0.36,0.36 0 0 1 59.22,18.528 l 1.702,-5.73 -4.686,-3.464 A 0.36,0.36 0 0 1 56.45,8.683 h 10e-4 l 5.827,0.013 1.988,-5.699 a 0.36,0.36 0 0 1 0.34,-0.242 v 0 a 0.36,0.36 0 0 1 0.34,0.241 l 1.997,5.699 5.823,-0.013 h 10e-4 a 0.36,0.36 0 0 1 0.21,0.654 l -4.761,3.398 1.764,5.52 a 0.36,0.36 0 0 1 -0.325,0.517 c -0.033,0 -0.065,-0.004 -0.095,-0.013 -0.038,-0.01 -0.076,-0.026 -0.11,-0.049 l -4.837,-3.265 -4.837,3.478 c -0.061,0.045 -0.135,0.067 -0.209,0.067 z m -2.017,-9.584 4.007,2.962 a 0.36,0.36 0 0 1 0.131,0.393 l -1.474,4.961 4.176,-3.002 c 0.122,-0.088 0.296,-0.097 0.422,-0.013 l 4.184,2.824 -1.543,-4.827 a 0.36,0.36 0 0 1 0.131,-0.401 l 4.058,-2.897 -4.936,0.011 h -0.001 c -0.153,0 -0.303,-0.097 -0.353,-0.241 L 64.61,4.209 62.88,9.168 C 62.83,9.313 62.69,9.419 62.536,9.419 H 62.535 L 57.55,9.408 Z"
       id="path231" />
    <path
       d="M 66.703,9.058 H 66.689 L 64.607,3.117 64.598,3.145 v 8.453 z"
       class="D"
       id="path233" />
    <g
       class="E"
       id="g239"
       transform="translate(-110.452,-89.604)">
      <path
         d="m 175.05,101.209 v -0.007 l -8.116,-2.531 4.861,3.584 -0.002,0.008 z"
         id="path235" />
      <path
         d="m 175.045,101.2 0.005,10e-4 v -8.453 l -2.06,5.904 z"
         id="path237" />
    </g>
    <path
       d="M 64.593,11.596 62.538,9.048 62.534,9.057 56.451,9.044 56.482,9.067 Z"
       class="D"
       id="path241" />
    <path
       d="m 72.759,9.051 0.009,-0.006 -6.065,0.013 -2.1,2.534 z"
       class="E"
       id="path243" />
    <path
       d="m 72.759,9.051 -8.155,2.54 -0.005,0.006 v 0.001 l 3.197,0.997 z"
       class="D"
       id="path245" />
    <path
       d="m 69.65,18.402 -1.856,-5.807 h 0.002 l -3.197,-0.997 v 0.007 z"
       class="E"
       id="path247" />
    <path
       d="m 69.65,18.402 -5.052,-6.797 v 3.409 l 0.009,-0.007 5.046,3.406 z m -5.068,-6.792 -3.241,1.049 -1.775,5.971 0.038,-0.025 z"
       class="D"
       id="path249" />
    <path
       d="m 64.582,11.61 -4.978,6.996 4.994,-3.592 v -3.409 z"
       class="E"
       id="path251" />
  </g>
</svg>
