<?xml version="1.0" encoding="UTF-8" standalone="no"?>
<svg
   xmlns:dc="http://purl.org/dc/elements/1.1/"
   xmlns:cc="http://creativecommons.org/ns#"
   xmlns:rdf="http://www.w3.org/1999/02/22-rdf-syntax-ns#"
   xmlns:svg="http://www.w3.org/2000/svg"
   xmlns="http://www.w3.org/2000/svg"
   xmlns:xlink="http://www.w3.org/1999/xlink"
   xmlns:sodipodi="http://sodipodi.sourceforge.net/DTD/sodipodi-0.dtd"
   xmlns:inkscape="http://www.inkscape.org/namespaces/inkscape"
   width="310.482"
   height="396.871"
   viewBox="0 0 82.148 105.005"
   version="1.1"
   id="svg308"
   sodipodi:docname="Seal_of_Trenggalek_Regency (1) (1).svg"
   inkscape:version="1.0.1 (3bc2e813f5, 2020-09-07)">
  <metadata
     id="metadata312">
    <rdf:RDF>
      <cc:Work
         rdf:about="">
        <dc:format>image/svg+xml</dc:format>
        <dc:type
           rdf:resource="http://purl.org/dc/dcmitype/StillImage" />
      </cc:Work>
    </rdf:RDF>
  </metadata>
  <sodipodi:namedview
     pagecolor="#ffffff"
     bordercolor="#666666"
     borderopacity="1"
     objecttolerance="10"
     gridtolerance="10"
     guidetolerance="10"
     inkscape:pageopacity="0"
     inkscape:pageshadow="2"
     inkscape:window-width="1366"
     inkscape:window-height="705"
     id="namedview310"
     showgrid="false"
     inkscape:zoom="0.80165106"
     inkscape:cx="226.71244"
     inkscape:cy="201.49309"
     inkscape:window-x="-8"
     inkscape:window-y="-8"
     inkscape:window-maximized="1"
     inkscape:current-layer="svg308" />
  <style
     id="style2"><![CDATA[.S{stroke:#a07843}.T{fill:#f5c742}.U{fill:#ffeba3}.V{opacity:.998}.W{stroke-width:.413}.X{fill:#fff}.Y{stroke:#005b31}.Z{fill:#c8d3d9}.a{stroke:#7c909b}.b{fill:#018f50}.c{fill:#00a75d}.d{fill-rule:evenodd}.e{stroke-width:.265}.f{opacity:.999}.g{stroke-width:.454}.h{stroke-linejoin:round}.i{opacity:.997}.j{stroke-width:.529}.k{stroke-width:.106}]]></style>
  <defs
     id="defs16">
    <linearGradient
       id="A"
       gradientUnits="userSpaceOnUse">
      <stop
         offset="0"
         stop-color="red"
         id="stop4" />
      <stop
         offset="1"
         stop-color="#8b0000"
         id="stop6" />
    </linearGradient>
    <linearGradient
       xlink:href="#A"
       id="B"
       x1="18.142"
       y1="85.214"
       x2="31.976"
       y2="76.584" />
    <linearGradient
       xlink:href="#A"
       id="C"
       x1="64.006"
       y1="91.987"
       x2="50.172"
       y2="69.81" />
    <path
       id="D"
       d="M179.529 185.154c-.474-.515-1.444-.529-1.597-1.312-.201-.93-.275-1.961.18-2.831.373-.677.74-1.631 1.64-1.686.911-.128 1.704.612 2.626.411.663.176 1.55.558 1.364 1.406.111.724.01 1.533-.645 1.981-.742.697-1.718 1.033-2.53 1.624-.272.266-.624.606-1.038.406z" />
    <path
       id="E"
       d="M180.889 184.02c-.468.148-1.061.713-.932 1.071.199.229.701-.059 1.054-.122.556-.093 1.054-.014 1.637-.186.403-.078.611-.52.607-.785.04-.577.268-1.207.353-1.797.063-.239-.026-.801-.411-.33-.147.353-.601.329-.696.655-.302.277-.672.358-.949.663-.547.232-.193.655-.664.83z" />
    <path
       id="F"
       d="M179.301 180.107c-.611.447-.475 1.273-.707 1.903-.009.376-.26 1.112.137 1.239.18-.42.506-.702 1.008-.651.639-.145.565-1.046 1.181-1.227.292-.422.964-.326 1.145-.743-.314-.496-1.032-.519-1.548-.708-.406-.076-.867-.059-1.216.187z" />
    <path
       id="G"
       d="M180.457 183.401c-.712-.028-1.164.418-1.298 1.053-.684.682-.147 1.652.753 1.701.863.415 1.828-.087 2.697.158.603.396 1.23 1.141 2.052.807.341-.987-.619-1.84-.317-2.841.49-.958.45-1.956.035-2.926.004-.986-.408-.698-.962-.298-1.019-.601-.763 1.251-1.862.667-.156.729-1.04.656-.897 1.56-.039.066-.128.175-.202.12z" />
    <path
       id="H"
       d="M27.568 44.593c.826.111 1.843.919 2.602.112s2.041.119 3.051.164c1.069.047 1.514-1.353 2.675-.651.812.491 1.777.773 2.728.698.693-.055 1.545-1.341 2.323-.512.873.93 1.643-.391 2.528-.32.901.073 1.855 1.257 2.679.44.774-.768 1.484-.134 2.197.254 1.195.65 2.264-.87 3.469-.495.917.285 1.775.586 2.743.397" />
  </defs>
  <g
     id="g1244">
    <path
       d="M8.784.265v1.154c0 5.387-3.44 9.504-7.365 9.504H.265v58.959c0 6.488 1.883 11.434 4.895 15.209s7.098 6.376 11.453 8.437c8.71 4.122 18.597 6.261 23.725 10.52l.736.613.738-.613c5.128-4.259 15.015-6.398 23.725-10.52 4.355-2.061 8.44-4.662 11.451-8.437s4.896-8.721 4.896-15.209V10.923H80.73c-3.925 0-7.365-4.116-7.365-9.504V.265H41.073zm2.121 2.308h30.168 30.17c.448 5.377 3.791 9.69 8.332 10.373v56.936c0 6.049-1.694 10.386-4.392 13.768s-6.456 5.813-10.634 7.791c-8.056 3.813-17.502 5.834-23.475 10.369-5.973-4.534-15.417-6.557-23.473-10.369-4.179-1.978-7.936-4.409-10.634-7.791s-4.393-7.719-4.393-13.768V12.946c4.541-.683 7.884-4.996 8.332-10.373z"
       class="S T i j"
       id="path18" />
    <path
       d="M10.905 2.573h30.168 30.17c.448 5.377 3.791 9.69 8.332 10.373v56.936c0 6.049-1.694 10.385-4.393 13.768s-6.456 5.813-10.635 7.791c-8.056 3.813-17.502 5.834-23.475 10.369-5.973-4.534-15.417-6.556-23.473-10.369-4.179-1.978-7.937-4.409-10.635-7.791s-4.393-7.719-4.393-13.768V12.946c4.541-.683 7.884-4.996 8.332-10.373z"
       fill="#66b82e"
       class="i"
       id="path20" />
    <path
       d="M9.499.98v.439c0 5.692-3.655 10.219-8.08 10.219H.98v58.244c0 6.35 1.826 11.112 4.739 14.763s6.899 6.201 11.2 8.237c8.607 4.074 18.491 6.144 23.876 10.616a.715.715 0 0 1 .001.001l.28.233.281-.233c5.385-4.473 15.269-6.543 23.876-10.616 4.301-2.036 8.283-4.583 11.198-8.237s4.74-8.413 4.74-14.763V11.638h-.439c-4.425 0-8.08-4.527-8.08-10.219V.98H41.073zm1.403.878a.715.715 0 0 1 .003 0h30.168 30.17a.715.715 0 0 1 .713.656c.427 5.115 3.572 9.101 7.726 9.725a.715.715 0 0 1 .609.707v56.936c0 6.182-1.756 10.713-4.549 14.214s-6.654 5.987-10.888 7.991c-8.163 3.864-17.583 5.915-23.348 10.292a.715.715 0 0 1-.865 0c-5.765-4.377-15.184-6.429-23.346-10.292-4.234-2.004-8.092-4.487-10.888-7.991s-4.549-8.031-4.549-14.214V12.946a.715.715 0 0 1 .609-.707c4.154-.625 7.3-4.61 7.726-9.725a.715.715 0 0 1 .71-.656z"
       class="U i"
       id="path22" />
  </g>
  <g
     id="g1198">
    <path
       d="M20.989 60.305l4.03 3.856"
       fill="none"
       stroke-width=".661"
       class="Y"
       id="path24" />
    <g
       transform="matrix(-.066448 .868691 -.838261 -.102544 193.16927 -122.64416)"
       id="g36">
      <g
         class="e"
         id="g30">
        <path
           id="use26"
           d="m 179.529,185.154 c -0.474,-0.515 -1.444,-0.529 -1.597,-1.312 -0.201,-0.93 -0.275,-1.961 0.18,-2.831 0.373,-0.677 0.74,-1.631 1.64,-1.686 0.911,-0.128 1.704,0.612 2.626,0.411 0.663,0.176 1.55,0.558 1.364,1.406 0.111,0.724 0.01,1.533 -0.645,1.981 -0.742,0.697 -1.718,1.033 -2.53,1.624 -0.272,0.266 -0.624,0.606 -1.038,0.406 z"
           style="fill:#c8d3d9;stroke:#7c909b" />
        <path
           d="M180.457 183.401c-.712-.028-1.164.418-1.298 1.053-.684.682-.147 1.652.753 1.701.927.489 2.066-.267 2.926.299.454.44 1.452 1.152 1.881.474.133-.966-.687-1.786-.352-2.767.62-.968.28-1.997-.023-2.983.011-1.231-.605.132-1.175-.21-.795-.132-.615 1.25-1.613.753-.254.695-.96.752-.947 1.63.066.056-.22.079-.152.05z"
           class="Y b"
           id="path28" />
      </g>
      <path
         id="use32"
         d="m 180.889,184.02 c -0.468,0.148 -1.061,0.713 -0.932,1.071 0.199,0.229 0.701,-0.059 1.054,-0.122 0.556,-0.093 1.054,-0.014 1.637,-0.186 0.403,-0.078 0.611,-0.52 0.607,-0.785 0.04,-0.577 0.268,-1.207 0.353,-1.797 0.063,-0.239 -0.026,-0.801 -0.411,-0.33 -0.147,0.353 -0.601,0.329 -0.696,0.655 -0.302,0.277 -0.672,0.358 -0.949,0.663 -0.547,0.232 -0.193,0.655 -0.664,0.83 z"
         style="fill:#00a75d" />
      <path
         id="use34"
         d="m 179.301,180.107 c -0.611,0.447 -0.475,1.273 -0.707,1.903 -0.009,0.376 -0.26,1.112 0.137,1.239 0.18,-0.42 0.506,-0.702 1.008,-0.651 0.639,-0.145 0.565,-1.046 1.181,-1.227 0.292,-0.422 0.964,-0.326 1.145,-0.743 -0.314,-0.496 -1.032,-0.519 -1.548,-0.708 -0.406,-0.076 -0.867,-0.059 -1.216,0.187 z"
         style="fill:#ffffff" />
    </g>
    <g
       transform="matrix(-.009039 .948891 -.918448 -.050479 191.60085 -143.88902)"
       id="g48">
      <g
         class="e"
         id="g42">
        <path
           id="use38"
           d="m 179.529,185.154 c -0.474,-0.515 -1.444,-0.529 -1.597,-1.312 -0.201,-0.93 -0.275,-1.961 0.18,-2.831 0.373,-0.677 0.74,-1.631 1.64,-1.686 0.911,-0.128 1.704,0.612 2.626,0.411 0.663,0.176 1.55,0.558 1.364,1.406 0.111,0.724 0.01,1.533 -0.645,1.981 -0.742,0.697 -1.718,1.033 -2.53,1.624 -0.272,0.266 -0.624,0.606 -1.038,0.406 z"
           style="fill:#c8d3d9;stroke:#7c909b" />
        <path
           id="use40"
           d="m 180.457,183.401 c -0.712,-0.028 -1.164,0.418 -1.298,1.053 -0.684,0.682 -0.147,1.652 0.753,1.701 0.863,0.415 1.828,-0.087 2.697,0.158 0.603,0.396 1.23,1.141 2.052,0.807 0.341,-0.987 -0.619,-1.84 -0.317,-2.841 0.49,-0.958 0.45,-1.956 0.035,-2.926 0.004,-0.986 -0.408,-0.698 -0.962,-0.298 -1.019,-0.601 -0.763,1.251 -1.862,0.667 -0.156,0.729 -1.04,0.656 -0.897,1.56 -0.039,0.066 -0.128,0.175 -0.202,0.12 z"
           style="fill:#018f50;stroke:#005b31" />
      </g>
      <path
         id="use44"
         d="m 180.889,184.02 c -0.468,0.148 -1.061,0.713 -0.932,1.071 0.199,0.229 0.701,-0.059 1.054,-0.122 0.556,-0.093 1.054,-0.014 1.637,-0.186 0.403,-0.078 0.611,-0.52 0.607,-0.785 0.04,-0.577 0.268,-1.207 0.353,-1.797 0.063,-0.239 -0.026,-0.801 -0.411,-0.33 -0.147,0.353 -0.601,0.329 -0.696,0.655 -0.302,0.277 -0.672,0.358 -0.949,0.663 -0.547,0.232 -0.193,0.655 -0.664,0.83 z"
         style="fill:#00a75d" />
      <path
         id="use46"
         d="m 179.301,180.107 c -0.611,0.447 -0.475,1.273 -0.707,1.903 -0.009,0.376 -0.26,1.112 0.137,1.239 0.18,-0.42 0.506,-0.702 1.008,-0.651 0.639,-0.145 0.565,-1.046 1.181,-1.227 0.292,-0.422 0.964,-0.326 1.145,-0.743 -0.314,-0.496 -1.032,-0.519 -1.548,-0.708 -0.406,-0.076 -0.867,-0.059 -1.216,0.187 z"
         style="fill:#ffffff" />
    </g>
    <g
       transform="matrix(.100246 .947526 -.921931 .055406 167.24901 -158.68252)"
       id="g60">
      <g
         class="e"
         id="g54">
        <path
           id="use50"
           d="m 179.529,185.154 c -0.474,-0.515 -1.444,-0.529 -1.597,-1.312 -0.201,-0.93 -0.275,-1.961 0.18,-2.831 0.373,-0.677 0.74,-1.631 1.64,-1.686 0.911,-0.128 1.704,0.612 2.626,0.411 0.663,0.176 1.55,0.558 1.364,1.406 0.111,0.724 0.01,1.533 -0.645,1.981 -0.742,0.697 -1.718,1.033 -2.53,1.624 -0.272,0.266 -0.624,0.606 -1.038,0.406 z"
           style="fill:#c8d3d9;stroke:#7c909b" />
        <path
           id="use52"
           d="m 180.457,183.401 c -0.712,-0.028 -1.164,0.418 -1.298,1.053 -0.684,0.682 -0.147,1.652 0.753,1.701 0.863,0.415 1.828,-0.087 2.697,0.158 0.603,0.396 1.23,1.141 2.052,0.807 0.341,-0.987 -0.619,-1.84 -0.317,-2.841 0.49,-0.958 0.45,-1.956 0.035,-2.926 0.004,-0.986 -0.408,-0.698 -0.962,-0.298 -1.019,-0.601 -0.763,1.251 -1.862,0.667 -0.156,0.729 -1.04,0.656 -0.897,1.56 -0.039,0.066 -0.128,0.175 -0.202,0.12 z"
           style="fill:#018f50;stroke:#005b31" />
      </g>
      <path
         id="use56"
         d="m 180.889,184.02 c -0.468,0.148 -1.061,0.713 -0.932,1.071 0.199,0.229 0.701,-0.059 1.054,-0.122 0.556,-0.093 1.054,-0.014 1.637,-0.186 0.403,-0.078 0.611,-0.52 0.607,-0.785 0.04,-0.577 0.268,-1.207 0.353,-1.797 0.063,-0.239 -0.026,-0.801 -0.411,-0.33 -0.147,0.353 -0.601,0.329 -0.696,0.655 -0.302,0.277 -0.672,0.358 -0.949,0.663 -0.547,0.232 -0.193,0.655 -0.664,0.83 z"
         style="fill:#00a75d" />
      <path
         id="use58"
         d="m 179.301,180.107 c -0.611,0.447 -0.475,1.273 -0.707,1.903 -0.009,0.376 -0.26,1.112 0.137,1.239 0.18,-0.42 0.506,-0.702 1.008,-0.651 0.639,-0.145 0.565,-1.046 1.181,-1.227 0.292,-0.422 0.964,-0.326 1.145,-0.743 -0.314,-0.496 -1.032,-0.519 -1.548,-0.708 -0.406,-0.076 -0.867,-0.059 -1.216,0.187 z"
         style="fill:#ffffff" />
    </g>
    <g
       transform="matrix(.381346 .954691 -.94123 .327289 114.60531 -204.50799)"
       id="g72">
      <g
         class="e"
         id="g66">
        <path
           id="use62"
           d="m 179.529,185.154 c -0.474,-0.515 -1.444,-0.529 -1.597,-1.312 -0.201,-0.93 -0.275,-1.961 0.18,-2.831 0.373,-0.677 0.74,-1.631 1.64,-1.686 0.911,-0.128 1.704,0.612 2.626,0.411 0.663,0.176 1.55,0.558 1.364,1.406 0.111,0.724 0.01,1.533 -0.645,1.981 -0.742,0.697 -1.718,1.033 -2.53,1.624 -0.272,0.266 -0.624,0.606 -1.038,0.406 z"
           style="fill:#c8d3d9;stroke:#7c909b" />
        <path
           d="M180.457 183.401c-.553.03-1.144.266-1.21.86-.558.667-.543 1.722.507 1.841.852.451 1.858.036 2.75.176.657.312 1.15 1.082 2.003.911.688-.695-.339-1.695-.207-2.539.027-.875.825-1.73.272-2.603-.266-.408-.118-1.415-.509-1.43-.505.77-1.579-.06-1.742 1.131-.968-.332-.816.655-1.575.789-.08.276.129.843-.289.863z"
           class="Y b"
           id="path64" />
      </g>
      <path
         id="use68"
         d="m 180.889,184.02 c -0.468,0.148 -1.061,0.713 -0.932,1.071 0.199,0.229 0.701,-0.059 1.054,-0.122 0.556,-0.093 1.054,-0.014 1.637,-0.186 0.403,-0.078 0.611,-0.52 0.607,-0.785 0.04,-0.577 0.268,-1.207 0.353,-1.797 0.063,-0.239 -0.026,-0.801 -0.411,-0.33 -0.147,0.353 -0.601,0.329 -0.696,0.655 -0.302,0.277 -0.672,0.358 -0.949,0.663 -0.547,0.232 -0.193,0.655 -0.664,0.83 z"
         style="fill:#00a75d" />
      <path
         id="use70"
         d="m 179.301,180.107 c -0.611,0.447 -0.475,1.273 -0.707,1.903 -0.009,0.376 -0.26,1.112 0.137,1.239 0.18,-0.42 0.506,-0.702 1.008,-0.651 0.639,-0.145 0.565,-1.046 1.181,-1.227 0.292,-0.422 0.964,-0.326 1.145,-0.743 -0.314,-0.496 -1.032,-0.519 -1.548,-0.708 -0.406,-0.076 -0.867,-0.059 -1.216,0.187 z"
         style="fill:#ffffff" />
    </g>
    <g
       transform="matrix(.721872 .708706 -.718008 .667848 9.56886 -215.30615)"
       id="g84">
      <g
         class="e"
         id="g78">
        <path
           id="use74"
           d="m 179.529,185.154 c -0.474,-0.515 -1.444,-0.529 -1.597,-1.312 -0.201,-0.93 -0.275,-1.961 0.18,-2.831 0.373,-0.677 0.74,-1.631 1.64,-1.686 0.911,-0.128 1.704,0.612 2.626,0.411 0.663,0.176 1.55,0.558 1.364,1.406 0.111,0.724 0.01,1.533 -0.645,1.981 -0.742,0.697 -1.718,1.033 -2.53,1.624 -0.272,0.266 -0.624,0.606 -1.038,0.406 z"
           style="fill:#c8d3d9;stroke:#7c909b" />
        <path
           d="M180.457 183.401c-.553.03-1.144.266-1.21.86-.558.667-.543 1.722.507 1.841.852.451 1.858.036 2.75.176.657.312 1.15 1.082 2.003.911.688-.695-.339-1.695-.207-2.539.104-.968.821-1.912.195-2.876-.272-.321-.004-1.546-.591-1.052-.468.62-1.458-.109-1.584 1.026-.968-.332-.816.655-1.575.789-.08.276.129.843-.289.863z"
           class="Y b"
           id="path76" />
      </g>
      <path
         id="use80"
         d="m 180.889,184.02 c -0.468,0.148 -1.061,0.713 -0.932,1.071 0.199,0.229 0.701,-0.059 1.054,-0.122 0.556,-0.093 1.054,-0.014 1.637,-0.186 0.403,-0.078 0.611,-0.52 0.607,-0.785 0.04,-0.577 0.268,-1.207 0.353,-1.797 0.063,-0.239 -0.026,-0.801 -0.411,-0.33 -0.147,0.353 -0.601,0.329 -0.696,0.655 -0.302,0.277 -0.672,0.358 -0.949,0.663 -0.547,0.232 -0.193,0.655 -0.664,0.83 z"
         style="fill:#00a75d" />
      <path
         id="use82"
         d="m 179.301,180.107 c -0.611,0.447 -0.475,1.273 -0.707,1.903 -0.009,0.376 -0.26,1.112 0.137,1.239 0.18,-0.42 0.506,-0.702 1.008,-0.651 0.639,-0.145 0.565,-1.046 1.181,-1.227 0.292,-0.422 0.964,-0.326 1.145,-0.743 -0.314,-0.496 -1.032,-0.519 -1.548,-0.708 -0.406,-0.076 -0.867,-0.059 -1.216,0.187 z"
         style="fill:#ffffff" />
    </g>
    <g
       transform="matrix(.874079 .62453 -.643192 .818939 -31.254533 -220.78494)"
       id="g96">
      <g
         class="e"
         id="g90">
        <path
           id="use86"
           d="m 179.529,185.154 c -0.474,-0.515 -1.444,-0.529 -1.597,-1.312 -0.201,-0.93 -0.275,-1.961 0.18,-2.831 0.373,-0.677 0.74,-1.631 1.64,-1.686 0.911,-0.128 1.704,0.612 2.626,0.411 0.663,0.176 1.55,0.558 1.364,1.406 0.111,0.724 0.01,1.533 -0.645,1.981 -0.742,0.697 -1.718,1.033 -2.53,1.624 -0.272,0.266 -0.624,0.606 -1.038,0.406 z"
           style="fill:#c8d3d9;stroke:#7c909b" />
        <path
           d="M180.457 183.401c-.357.077-.785.106-1.034.403-.09.269-.198.517-.317.773-.054.238-.316.407-.299.683.009.411.464.695.813.816l.774.224a9.72 9.72 0 0 0 1.07.005 3.43 3.43 0 0 1 .864-.08c.239.048.44.166.615.317.13.121.282.235.422.333.233.217.554.312.873.31.369.119.562-.192.482-.524.105-.366-.167-.661-.217-.996-.122-.269-.201-.57-.196-.866-.021-.396.061-.805.264-1.151.163-.415.282-.921.102-1.344-.124-.244-.158-.522-.26-.776-.051-.189-.074-.373-.113-.565-.049-.138.022-.534-.208-.368-.262.109-.387.529-.676.46-.309-.115-.799-.221-.863.246.019.371-.32.55-.644.428-.267-.041-.569.009-.513.366.031.415-.69.055-.669.535-.033.282.102.644-.219.784l-.06-.01z"
           class="Y b"
           id="path88" />
      </g>
      <path
         id="use92"
         d="m 180.889,184.02 c -0.468,0.148 -1.061,0.713 -0.932,1.071 0.199,0.229 0.701,-0.059 1.054,-0.122 0.556,-0.093 1.054,-0.014 1.637,-0.186 0.403,-0.078 0.611,-0.52 0.607,-0.785 0.04,-0.577 0.268,-1.207 0.353,-1.797 0.063,-0.239 -0.026,-0.801 -0.411,-0.33 -0.147,0.353 -0.601,0.329 -0.696,0.655 -0.302,0.277 -0.672,0.358 -0.949,0.663 -0.547,0.232 -0.193,0.655 -0.664,0.83 z"
         style="fill:#00a75d" />
      <path
         id="use94"
         d="m 179.301,180.107 c -0.611,0.447 -0.475,1.273 -0.707,1.903 -0.009,0.376 -0.26,1.112 0.137,1.239 0.18,-0.42 0.506,-0.702 1.008,-0.651 0.639,-0.145 0.565,-1.046 1.181,-1.227 0.292,-0.422 0.964,-0.326 1.145,-0.743 -0.314,-0.496 -1.032,-0.519 -1.548,-0.708 -0.406,-0.076 -0.867,-0.059 -1.216,0.187 z"
         style="fill:#ffffff" />
    </g>
    <g
       transform="matrix(1.060646 .170532 -.211773 1.019562 -141.61937 -167.52269)"
       id="g108">
      <g
         class="e"
         id="g102">
        <path
           id="use98"
           d="m 179.529,185.154 c -0.474,-0.515 -1.444,-0.529 -1.597,-1.312 -0.201,-0.93 -0.275,-1.961 0.18,-2.831 0.373,-0.677 0.74,-1.631 1.64,-1.686 0.911,-0.128 1.704,0.612 2.626,0.411 0.663,0.176 1.55,0.558 1.364,1.406 0.111,0.724 0.01,1.533 -0.645,1.981 -0.742,0.697 -1.718,1.033 -2.53,1.624 -0.272,0.266 -0.624,0.606 -1.038,0.406 z"
           style="fill:#c8d3d9;stroke:#7c909b" />
        <path
           d="M180.457 183.401c-.39.099-1.051.111-1.104.631-.147.453-.499.818-.551 1.308.164.558.791.742 1.285.885.465.129 1.034.116 1.472.053.415-.064.932-.123 1.279.176.389.309.767.726 1.31.726.788.226.656-.854.425-1.287-.214-.537-.369-1.143-.206-1.732.179-.517.467-1.025.386-1.598-.155-.5-.368-1.004-.437-1.527.024-.457-.21-.615-.504-.203-.254.584-1.233-.336-1.256.557-.092.792-1.329-.134-1.192.84-.392.042-.826.339-.631.876.01.102-.158.364-.275.296z"
           class="Y b"
           id="path100" />
      </g>
      <path
         id="use104"
         d="m 180.889,184.02 c -0.468,0.148 -1.061,0.713 -0.932,1.071 0.199,0.229 0.701,-0.059 1.054,-0.122 0.556,-0.093 1.054,-0.014 1.637,-0.186 0.403,-0.078 0.611,-0.52 0.607,-0.785 0.04,-0.577 0.268,-1.207 0.353,-1.797 0.063,-0.239 -0.026,-0.801 -0.411,-0.33 -0.147,0.353 -0.601,0.329 -0.696,0.655 -0.302,0.277 -0.672,0.358 -0.949,0.663 -0.547,0.232 -0.193,0.655 -0.664,0.83 z"
         style="fill:#00a75d" />
      <path
         id="use106"
         d="m 179.301,180.107 c -0.611,0.447 -0.475,1.273 -0.707,1.903 -0.009,0.376 -0.26,1.112 0.137,1.239 0.18,-0.42 0.506,-0.702 1.008,-0.651 0.639,-0.145 0.565,-1.046 1.181,-1.227 0.292,-0.422 0.964,-0.326 1.145,-0.743 -0.314,-0.496 -1.032,-0.519 -1.548,-0.708 -0.406,-0.076 -0.867,-0.059 -1.216,0.187 z"
         style="fill:#ffffff" />
    </g>
    <g
       transform="matrix(1.208269 -.125417 .125417 1.208269 -125.34335 .249646)"
       id="g120">
      <g
         stroke-width=".272"
         id="g114">
        <path
           d="M110.101 60.368c-.486-.528-1.481-.542-1.638-1.345-.206-.954-.282-2.011.185-2.903.382-.694.759-1.673 1.682-1.729.934-.131 1.747.628 2.693.421.68.18 1.589.572 1.399 1.442.114.742.01 1.572-.661 2.031-.761.715-1.762 1.059-2.594 1.665-.279.273-.64.621-1.064.416z"
           class="Z a"
           id="path110" />
        <path
           d="M111.053 58.57c-.419.095-1.079.128-1.15.665-.136.416-.394.756-.536 1.172-.062.439.424.737.763.883.514.188 1.065.323 1.634.267.434.021.828-.167 1.279-.066.385.07.619.388.935.603.353.295 1.067.562 1.432.197.118-.57-.09-1.083-.28-1.586-.208-.572-.182-1.229.086-1.785.356-.611.285-1.336 0-1.949a4.26 4.26 0 0 1-.252-1.203c-.278-.395-.561.635-.95.381-.527-.32-.852.138-.934.62-.365.262-1.195-.19-1.101.599-.217.113-.815.131-.656.629.047.212-.01.602-.271.573z"
           class="Y b"
           id="path112" />
      </g>
      <path
         d="M111.496 59.205c-.48.152-1.088.731-.956 1.098.204.235.719-.06 1.081-.125.57-.095 1.081-.014 1.679-.191.413-.08.627-.533.622-.805.041-.592.275-1.238.362-1.843.065-.245-.027-.821-.421-.338-.151.362-.616.337-.714.672-.31.284-.689.367-.973.68-.561.238-.198.672-.681.851z"
         class="c"
         id="path116" />
      <path
         d="M109.868 55.192c-.627.458-.487 1.305-.725 1.951-.009.386-.267 1.14.14 1.271.185-.431.519-.72 1.034-.668.655-.149.579-1.073 1.211-1.258.299-.433.989-.334 1.174-.762-.322-.509-1.058-.532-1.587-.726-.416-.078-.889-.06-1.247.192z"
         class="X"
         id="path118" />
    </g>
  </g>
  <g
     transform="matrix(1.044558 0 0 1.044558 -68.604875 -132.10757)"
     class="f"
     id="g130">
    <g
       class="d"
       id="g126">
      <path
         d="M105 132.702l-1.455 4.476h-4.707l3.808 2.767-1.455 4.476 3.808-2.767 3.808 2.767-1.455-4.476 3.808-2.767h-4.707z"
         class="U V"
         id="path122" />
      <path
         d="M105 132.702l-1.455 4.476 1.454 2.002-6.161-2.002 3.808 2.767 2.353-.765-3.808 5.241 3.808-2.767v-2.474l3.808 5.241-1.455-4.476-2.353-.765 6.161-2.002h-4.707L105 139.181z"
         class="T V"
         id="path124" />
    </g>
    <path
       d="M98.839 137.179l3.808 2.767-1.455 4.476 3.808-2.767 3.808 2.767-1.455-4.476 3.808-2.767h-4.707L105 132.702l-1.455 4.476z"
       fill="none"
       stroke-width=".465"
       class="S"
       id="path128" />
  </g>
  <path
     d="M18.968 62.568h8.221v1.811h9.774v-1.811h8.222v1.811h9.774v-1.811h8.221v5.25H18.968z"
     stroke="#fff"
     stroke-width=".53"
     class="d f"
     id="path132" />
  <g
     transform="matrix(1.071261 -.030175 .030175 1.071261 -110.04822 -.637921)"
     id="g234">
    <path
       d="M163.416 27.14l-1.354-.586c-.197.071-4.786.705-5.667-2.498-1.112-.742-1.133-1.37-1.309-2.014.374.566.392 1.023 1.53 1.82 1.407.287 3.708-.487 5.527 2.344z"
       class="S T W"
       id="path134" />
    <path
       d="M157.304 24.417c1.189.205 2.566-.122 3.368 1.172-1.515.064-2.293-.726-3.368-1.172z"
       class="U"
       id="path136" />
    <g
       transform="rotate(348.458 168.876 84.718)"
       id="g142">
      <path
         d="M173.642 24.021l-1.534-2.101c-.009-.23-1.255-5.172-4.884-4.749-1.215-.828-1.864-.59-2.594-.504.732.148 1.205-.023 2.487.81.873 1.316 1.033 3.983 4.669 4.669z"
         class="S T g"
         id="path138" />
      <path
         d="M167.967 17.949c.7 1.128.933 2.667 2.584 2.952-.559-1.572-1.686-2.039-2.584-2.952z"
         class="U"
         id="path140" />
    </g>
    <g
       transform="rotate(5.898 158.472 55.885)"
       id="g148">
      <path
         d="M158.869 61.252l-.32-1.926c-.149-.147-2.702-4.013-.193-6.19.189-1.323.091-1.218.596-1.655-.349.582-.098.4-.325 1.771.348 1.393 2.04 3.135.271 5.997z"
         class="S T W"
         id="path144" />
      <path
         d="M158.423 54.112c.328 1.161 1.218 2.262.397 3.544-.712-1.339-.335-2.382-.397-3.544z"
         class="U"
         id="path146" />
    </g>
    <g
       transform="rotate(4.785 158.919 -137.377)"
       id="g154">
      <path
         d="M177.715 57.806l-.193-1.462c-.162-.132-3.064-3.744-.768-6.145.065-1.335.086-1.764.548-2.246-.293.612-.169.95-.268 2.336.476 1.355 2.323 2.931.828 5.946z"
         class="S T W"
         id="path150" />
      <path
         d="M176.911 51.164c.435 1.125 1.423 2.139.725 3.492-.834-1.267-.555-2.34-.725-3.492z"
         class="U"
         id="path152" />
    </g>
    <g
       transform="rotate(13.462 159.797 -15.248)"
       id="g160">
      <path
         d="M180.804 52.079l-.535-1.375c-.189-.09-3.865-2.91-2.205-5.787-.254-1.312-.411-1.627-.076-2.205-.14.664.137.856.37 2.226.784 1.203 2.952 2.296 2.215 5.579z"
         class="S T W"
         id="path156" />
      <path
         d="M178.447 45.817c.689.99 1.89 1.74 1.533 3.22-1.11-1.033-1.095-2.142-1.533-3.22z"
         class="U"
         id="path158" />
    </g>
    <g
       transform="matrix(1.044772 .114737 -.117688 1.018573 -16.953917 -18.526943)"
       id="g166">
      <path
         d="M181.832 47.318l-.85-1.876c-.199-.066-4.197-2.405-2.909-5.467-.415-1.27-.043-1.777.217-2.392-.056.676-.325 1.046.077 2.377.928 1.096 3.216 1.91 2.894 5.26z"
         class="S T W"
         id="path162" />
      <path
         d="M178.565 40.82c.807.896 2.092 1.491 1.923 3.004-1.231-.886-1.353-1.989-1.923-3.004z"
         class="U"
         id="path164" />
    </g>
    <g
       transform="rotate(15.431 159.239 -6.998)"
       id="g172">
      <path
         d="M182.236 40.762l-1.63-1.741c-.209-.008-4.701-1.142-4.316-4.441-.752-1.104-.536-1.695-.458-2.358.135.665-.021 1.095.736 2.261 1.196.794 3.62.94 4.244 4.246z"
         class="S T W"
         id="path168" />
      <path
         d="M176.997 35.256c1.025.636 2.425.849 2.683 2.349-1.429-.509-1.854-1.533-2.683-2.349z"
         class="U"
         id="path170" />
    </g>
    <g
       transform="rotate(10.404 156.851 -32.93)"
       id="g178">
      <path
         d="M178.654 30.115l-1.995-1.224c-.197.07-4.79.679-5.653-2.528-1.108-.748-1.125-1.376-1.298-2.021.371.568.386 1.025 1.521 1.828 1.405.295 3.711-.467 5.514 2.374z"
         class="S T W"
         id="path174" />
      <path
         d="M171.913 26.729c1.188.212 2.567-.109 3.362 1.19-1.515.056-2.289-.738-3.362-1.19z"
         class="U"
         id="path176" />
    </g>
    <g
       transform="rotate(11.804 155.779 -19.595)"
       id="g184">
      <path
         d="M180.368 35.423l-1.299-1.772c-.206.036-4.836-.138-5.146-3.446-.966-.924-.877-1.546-.938-2.211.27.623.208 1.076 1.19 2.058 1.335.528 3.737.166 5.034 3.27z"
         class="S T W"
         id="path180" />
      <path
         d="M174.756 30.719c1.135.409 2.548.326 3.113 1.74-1.503-.2-2.132-1.114-3.113-1.74z"
         class="U"
         id="path182" />
    </g>
    <g
       transform="rotate(4.413 184.309 -127.505)"
       id="g190">
      <path
         d="M174.582 61.49c.991.119 1.99.48 2.951-.289.207.032 4.833-.212 5.093-3.524.952-.938.853-1.559.905-2.225-.261.627-.191 1.079-1.159 2.076-1.327.548-3.734.223-4.984 3.346-.89.79-1.852.648-2.805.615z"
         class="S T W"
         id="path186" />
      <path
         d="M181.801 58.204c-1.129.426-2.543.365-3.086 1.787 1.5-.223 2.115-1.146 3.086-1.787z"
         class="U"
         id="path188" />
    </g>
    <path
       d="M166.726 51.912l1.42-1.229c.209-.009 4.696-1.163 4.296-4.46.748-1.108.528-1.697.447-2.36-.132.666.026 1.095-.726 2.264-1.193.799-3.616.956-4.225 4.265z"
       class="S T W"
       id="path192" />
    <path
       d="M171.738 46.902c-1.022.641-2.421.86-2.672 2.362 1.426-.515 1.847-1.541 2.672-2.362z"
       class="U"
       id="path194" />
    <g
       transform="rotate(24.547 161.962 14.053)"
       id="g200">
      <path
         d="M181.041 51.93l1.26-1.573c.205-.041 4.467-1.859 3.573-5.058.572-1.208.266-1.758.085-2.401-.03.678.191 1.079-.376 2.348-1.058.97-3.43 1.491-3.532 4.854z"
         class="S T W"
         id="path196" />
      <path
         d="M185.266 45.825c-.914.788-2.263 1.216-2.285 2.738 1.332-.725 1.593-1.803 2.285-2.738z"
         class="U"
         id="path198" />
    </g>
    <g
       transform="rotate(9.284 166.459 -40.876)"
       id="g206">
      <path
         d="M182.605 45.248l.783-1.76c.202-.11 4.085-3.411 2.102-6.48.206-1.456-.294-1.933-.694-2.549.19.722.553 1.071.372 2.589-.795 1.365-3.116 2.686-2.125 6.252z"
         class="S T g"
         id="path202" />
      <path
         d="M185.12 38.019c-.703 1.126-1.98 2.016-1.506 3.622 1.163-1.196 1.084-2.414 1.506-3.622z"
         class="U"
         id="path204" />
    </g>
    <g
       transform="rotate(10.888 161.615 -29.052)"
       id="g212">
      <path
         d="M182.08 39.131l.37-2.444c.175-.15 3.279-4.191.696-6.776-.104-1.466-.693-1.828-1.213-2.347.337.666.765.931.907 2.453-.491 1.501-2.484 3.28-.767 6.559z"
         class="S T g"
         id="path208" />
      <path
         d="M182.996 30.976c-.451 1.248-1.513 2.386-.713 3.857.886-1.413.554-2.587.713-3.857z"
         class="U"
         id="path210" />
    </g>
    <g
       transform="rotate(4.016 126.943 -128.45)"
       id="g218">
      <path
         d="M179.578 33.062l.601-2.916c.146-.178 2.492-4.702-.505-6.793-.36-1.425-1.004-1.678-1.607-2.098.449.596.917.782 1.324 2.256-.22 1.564-1.869 3.665.397 6.591z"
         class="S T W"
         id="path214" />
      <path
         d="M179.713 24.428c-.225 1.308-1.071 2.615-.024 3.923.624-1.547.091-2.644.024-3.923z"
         class="U"
         id="path216" />
    </g>
    <g
       transform="rotate(338.582 171.206 53.746)"
       id="g224">
      <path
         d="M173.887 25.984l.36-2.624c.121-.196 1.84-4.993-1.409-6.665-.547-1.364-1.219-1.529-1.873-1.864.525.531 1.013.653 1.613 2.059-.008 1.579-1.362 3.882 1.275 6.479z"
         class="S T g"
         id="path220" />
      <path
         d="M173.022 17.756c-.048 1.326-.711 2.735.5 3.891.411-1.617-.263-2.633-.5-3.891z"
         class="U"
         id="path222" />
    </g>
    <g
       transform="rotate(355.46 206.456 164.955)"
       id="g230">
      <path
         d="M176.999 28.946l.311-2.441c.137-.185 2.254-4.821-.843-6.76-.43-1.406-1.086-1.626-1.709-2.015.478.573.955.736 1.434 2.187-.141 1.573-1.684 3.754.725 6.563z"
         class="S T g"
         id="path226" />
      <path
         d="M176.56 20.817c-.159 1.317-.939 2.665.171 3.919.546-1.576-.041-2.646-.171-3.919z"
         class="U"
         id="path228" />
    </g>
    <path
       d="M160.931 23.832c6.456 6.9 8.753 14.433 7.694 22.692-.619 4.83-5.878 12.582-12.807 16.566"
       fill="none"
       class="S j"
       id="path232" />
  </g>
  <g
     id="g1226"
     transform="translate(-9.9826297e-4)">
    <path
       d="m 27.746,43.359 h 26.656 c 0.07,-0.557 0.106,-1.118 0.106,-1.68 0,-3.563 -1.415,-6.98 -3.934,-9.499 -2.519,-2.519 -5.936,-3.935 -9.499,-3.935 -3.563,0 -6.98,1.415 -9.5,3.934 -2.52,2.519 -3.935,5.936 -3.935,9.499 0,0.562 0.036,1.123 0.106,1.68 z"
       fill="#fdd105"
       stroke="#1ca4d5"
       class="V d h k"
       id="path236" />
    <path
       d="M 27.143,43.359 V 41.95 c 2.202,0.254 3.626,-2.993 5.416,-4.593 2.015,-2.432 3.322,-1.114 4.03,-0.26 -0.04,0.442 2.355,3.239 3.596,3.206 1.667,-0.044 4.134,-3.858 4.72,-5.169 0.695,-1.552 1.877,-1.647 2.536,-1.58 2.11,4.253 6.141,7.837 7.563,8.266 v 1.539 z"
       id="path238" />
    <path
       d="m 36.21,40.801 c -0.083,1.209 1.663,2.564 2.63,1.662 -0.484,-0.785 -1.611,-1.43 -2.473,-1.743 z m 0.062,-2.374 c 0.51,1.123 1.106,2.266 2.206,2.923 0.831,0.44 2.422,1.572 3.055,0.839 C 40.524,41.22 39.232,40.634 38.069,39.89 37.52,39.377 37.115,38.456 36.272,38.428 Z m 11.562,-2.631 c -0.233,1.07 0.8,1.857 1.26,2.714 0.674,1.186 1.733,2.068 2.925,2.698 0.911,0.097 -0.814,-1.61 -1.231,-2.128 -0.856,-0.859 -1.502,-1.881 -2.228,-2.84 -0.193,-0.211 -0.435,-0.4 -0.726,-0.445 z"
       class="X"
       id="path240" />
    <path
       d="M 54.403,43.35 H 27.745 c 0.842,6.721 6.556,11.763 13.329,11.763 6.773,0 12.487,-5.043 13.329,-11.763 z"
       fill="#35a4c9"
       stroke="#ff0000"
       stroke-width="0.087"
       class="V d h"
       id="path242" />
    <g
       fill="none"
       stroke="#ffffff"
       class="f"
       id="g256">
      <g
         stroke-width="0.582"
         id="g248">
        <path
           id="use244"
           d="m 27.568,44.593 c 0.826,0.111 1.843,0.919 2.602,0.112 0.759,-0.807 2.041,0.119 3.051,0.164 1.069,0.047 1.514,-1.353 2.675,-0.651 0.812,0.491 1.777,0.773 2.728,0.698 0.693,-0.055 1.545,-1.341 2.323,-0.512 0.873,0.93 1.643,-0.391 2.528,-0.32 0.901,0.073 1.855,1.257 2.679,0.44 0.774,-0.768 1.484,-0.134 2.197,0.254 1.195,0.65 2.264,-0.87 3.469,-0.495 0.917,0.285 1.775,0.586 2.743,0.397" />
        <path
           id="use246"
           d="m 27.568,46.56 c 0.826,0.111 1.843,0.919 2.602,0.112 0.759,-0.807 2.041,0.119 3.051,0.164 1.069,0.047 1.514,-1.353 2.675,-0.651 0.812,0.491 1.777,0.773 2.728,0.698 0.693,-0.055 1.545,-1.341 2.323,-0.512 0.873,0.93 1.643,-0.391 2.528,-0.32 0.901,0.073 1.855,1.257 2.679,0.44 0.774,-0.768 1.484,-0.134 2.197,0.254 1.195,0.65 2.264,-0.87 3.469,-0.495 0.917,0.285 1.775,0.586 2.743,0.397" />
      </g>
      <path
         d="m 28.524,48.51 c 0.76,0.112 1.695,0.925 2.393,0.113 0.698,-0.812 1.877,0.12 2.806,0.165 0.983,0.047 1.392,-1.362 2.461,-0.655 0.747,0.494 1.634,0.779 2.509,0.702 0.637,-0.055 1.421,-1.35 2.136,-0.515 0.803,0.936 1.511,-0.394 2.325,-0.322 0.828,0.073 1.706,1.265 2.463,0.443 0.712,-0.773 1.365,-0.135 2.021,0.256 1.099,0.655 2.082,-0.875 3.19,-0.498 0.843,0.287 1.632,0.59 2.523,0.4"
         stroke-width="0.56"
         id="path250" />
      <path
         d="m 30.173,50.591 c 0.652,0.113 1.455,0.936 2.055,0.114 0.6,-0.822 1.611,0.122 2.409,0.167 0.844,0.048 1.195,-1.378 2.112,-0.663 0.641,0.5 1.403,0.788 2.154,0.711 0.547,-0.056 1.22,-1.366 1.834,-0.522 0.69,0.948 1.297,-0.399 1.996,-0.326 0.711,0.074 1.465,1.28 2.115,0.448 0.611,-0.782 1.172,-0.136 1.735,0.259 0.944,0.663 1.787,-0.886 2.739,-0.504 0.724,0.29 1.401,0.597 2.166,0.405"
         stroke-width="0.522"
         id="path252" />
      <path
         d="m 32.864,52.845 c 0.505,0.116 1.126,0.956 1.591,0.117 0.465,-0.839 1.247,0.124 1.865,0.17 0.654,0.049 0.925,-1.407 1.635,-0.677 0.496,0.51 1.086,0.804 1.667,0.726 0.423,-0.057 0.944,-1.394 1.42,-0.532 0.534,0.967 1.004,-0.407 1.545,-0.333 0.551,0.075 1.134,1.307 1.637,0.457 0.473,-0.798 0.907,-0.139 1.343,0.264 0.731,0.676 1.384,-0.904 2.12,-0.515 0.56,0.296 1.085,0.609 1.677,0.413"
         stroke-width="0.464"
         id="path254" />
    </g>
    <g
       class="d h"
       id="g286">
      <path
         d="m 41.008,22.036 c -10.822,0.037 -19.576,8.82 -19.576,19.643 0,5.21 2.07,10.206 5.753,13.89 a 19.64,19.64 0 0 0 13.89,5.753 c 10.848,0 19.643,-8.794 19.643,-19.643 0,-10.849 -8.794,-19.643 -19.643,-19.643 z m 0.067,6.209 c 7.419,0 13.433,6.014 13.433,13.433 0,7.419 -6.014,13.433 -13.433,13.433 -3.563,0 -6.98,-1.415 -9.499,-3.934 -2.519,-2.519 -3.935,-5.936 -3.935,-9.499 A 13.43,13.43 0 0 1 41.075,28.245 Z"
         fill="#ff0000"
         stroke="#8b0000"
         stroke-width="0.872"
         class="V"
         id="path258" />
      <g
         stroke="#ff0000"
         class="X k"
         id="g284">
        <path
           d="m 39.145,56.329 c -0.479,0.046 -0.88,0.429 -0.953,0.921 l -0.266,1.777 c -0.092,0.615 0.399,1.155 1.008,1.219 a 17.9,17.9 0 0 0 1.962,0.096 C 40.494,60.193 40.192,59.83 40.179,59.383 L 39.032,59.302 C 38.891,59.287 38.858,59.209 38.864,59.167 L 39.13,57.39 c 0.014,-0.093 0.072,-0.125 0.121,-0.119 l 0.975,0.072 1.09,0.004 c 0.04,-0.001 0.082,0.02 0.103,0.072 0.006,0.015 0.011,0.032 0.012,0.053 l 0.129,1.789 c 0.003,0.044 -0.035,0.12 -0.174,0.125 l -0.253,0.004 c 0.018,0.038 0.068,0.08 0.176,0.076 l 1.188,-0.075 a 0.88,0.88 0 0 0 0.009,-0.197 l -0.129,-1.789 c -0.001,-0.018 -0.007,-0.034 -0.009,-0.051 -0.05,-0.416 -0.334,-0.763 -0.713,-0.895 -0.117,-0.041 -0.242,-0.064 -0.372,-0.059 -0.646,0.023 -1.29,0 -1.928,-0.07 a 1.02,1.02 0 0 0 -0.209,-0.002 z"
           class="V"
           id="path260" />
        <path
           d="m 43.362,56.279 a 1.03,1.03 0 0 0 -0.209,0.014 c -0.498,0.084 -0.998,0.14 -1.499,0.168 0.379,0.132 0.663,0.479 0.713,0.895 l 0.944,-0.128 c 0.051,-0.009 0.113,0.02 0.131,0.11 l 0.365,1.755 c 0.009,0.043 -0.021,0.124 -0.158,0.147 l -1.153,0.153 -1.188,0.075 C 41.201,59.471 41.15,59.43 41.132,59.392 41.126,59.38 41.124,59.368 41.124,59.357 l 0.025,-1.797 c 10e-4,-0.094 0.057,-0.132 0.106,-0.133 l 0.163,-0.007 c -0.021,-0.052 -0.063,-0.073 -0.103,-0.072 a 14.45,14.45 0 0 1 -1.09,-0.004 c -0.013,0.066 -0.022,0.133 -0.023,0.202 l -0.027,1.795 c 0,0.015 0.004,0.029 0.004,0.043 0.013,0.446 0.315,0.81 0.717,0.959 a 1.17,1.17 0 0 0 0.439,0.072 c 0.805,-0.023 1.603,-0.105 2.393,-0.234 a 0.53,0.53 0 0 0 0.079,-0.008 c 0.602,-0.101 1.055,-0.665 0.93,-1.271 l -0.365,-1.758 c -0.101,-0.489 -0.526,-0.847 -1.008,-0.865 z"
           class="V"
           id="path262" />
        <path
           d="m 47.713,54.93 a 1.05,1.05 0 0 0 -0.803,0.035 15.7,15.7 0 0 1 -1.832,0.727 c -0.544,0.177 -0.843,0.772 -0.687,1.322 l 0.488,1.729 c 0.168,0.595 0.829,0.891 1.41,0.705 a 19.55,19.55 0 0 0 2.299,-0.9 c 0.553,-0.258 0.836,-0.926 0.555,-1.477 l -0.822,-1.609 a 1.09,1.09 0 0 0 -0.607,-0.531 z m -0.398,0.893 c 0.052,-0.025 0.12,-0.011 0.162,0.07 l 0.822,1.609 c 0.022,0.043 0.013,0.128 -0.111,0.186 a 18.61,18.61 0 0 1 -2.187,0.857 c -0.131,0.042 -0.195,-0.017 -0.207,-0.061 l -0.49,-1.729 c -0.025,-0.088 0.015,-0.145 0.068,-0.162 a 16.66,16.66 0 0 0 1.943,-0.771 z m 3.872,-3.326 a 1.06,1.06 0 0 0 -0.77,0.236 16.68,16.68 0 0 1 -1.604,1.176 c -0.483,0.312 -0.623,0.967 -0.328,1.461 l 0.926,1.553 c 0.317,0.531 1.033,0.647 1.547,0.316 a 20.11,20.11 0 0 0 1.99,-1.459 c 0.47,-0.391 0.574,-1.108 0.162,-1.57 l -1.201,-1.35 c -0.191,-0.215 -0.453,-0.339 -0.723,-0.363 z m -0.164,0.965 c 0.046,-0.038 0.117,-0.041 0.178,0.027 l 1.201,1.352 c 0.032,0.036 0.047,0.123 -0.059,0.211 a 19.26,19.26 0 0 1 -1.898,1.391 c -0.116,0.074 -0.194,0.036 -0.219,-0.006 l -0.928,-1.553 c -0.047,-0.079 -0.021,-0.145 0.029,-0.178 a 17.65,17.65 0 0 0 1.695,-1.244 z"
           class="V"
           id="path264" />
        <path
           d="m 53.918,49.288 c -0.265,0.046 -0.512,0.189 -0.678,0.422 -0.379,0.532 -0.795,1.043 -1.242,1.527 -0.39,0.422 -0.361,1.091 0.049,1.494 l 1.287,1.266 c 0.441,0.434 1.162,0.366 1.574,-0.084 0.556,-0.607 1.074,-1.251 1.549,-1.924 0.351,-0.498 0.268,-1.216 -0.25,-1.555 L 54.705,49.45 c -0.239,-0.157 -0.522,-0.208 -0.787,-0.162 z m 0.268,0.955 1.504,0.984 c 0.037,0.024 0.074,0.104 -0.006,0.217 a 18.51,18.51 0 0 1 -1.475,1.828 c -0.093,0.101 -0.177,0.082 -0.211,0.049 l -1.285,-1.266 c -0.065,-0.064 -0.057,-0.134 -0.018,-0.176 a 16.48,16.48 0 0 0 1.316,-1.619 c 0.032,-0.045 0.097,-0.068 0.174,-0.018 z"
           class="V"
           id="path266" />
        <path
           d="m 56.398,45.516 c -0.508,-0.15 -1.059,0.118 -1.227,0.617 -0.205,0.611 -0.458,1.208 -0.752,1.787 -0.239,0.47 -0.047,1.052 0.416,1.311 l 1.568,0.871 c 0.499,0.278 1.125,0.036 1.383,-0.473 a 17.89,17.89 0 0 0 0.949,-2.24 l 0.016,-0.039 c 0.186,-0.542 -0.079,-1.162 -0.629,-1.324 z m -0.223,0.758 1.725,0.508 c 0.087,0.026 0.162,0.141 0.104,0.313 a 17.14,17.14 0 0 1 -0.922,2.18 c -0.081,0.159 -0.215,0.183 -0.295,0.139 l -1.566,-0.871 c -0.115,-0.064 -0.141,-0.179 -0.098,-0.264 0.311,-0.612 0.579,-1.243 0.797,-1.893 0.029,-0.088 0.127,-0.149 0.256,-0.111 z"
           class="V"
           id="path268" />
        <path
           d="m 58.625,41.124 -1.793,0.055 c -0.529,0.016 -0.968,0.437 -0.977,0.963 a 12.19,12.19 0 0 1 -0.182,1.92 c -0.081,0.534 0.277,1.024 0.801,1.133 l 1.77,0.369 c 0.559,0.117 1.092,-0.301 1.191,-0.873 0.126,-0.82 0.186,-1.628 0.195,-2.434 l 0.006,-0.07 c 0.005,-0.573 -0.44,-1.079 -1.012,-1.062 z m 0.023,0.789 c 0.09,-0.003 0.201,0.083 0.199,0.266 a 16.5,16.5 0 0 1 -0.191,2.379 c -0.035,0.191 -0.159,0.254 -0.252,0.234 L 56.636,44.423 C 56.507,44.396 56.44,44.277 56.452,44.194 l -0.002,0.004 a 12.88,12.88 0 0 0 0.193,-2.043 c 10e-4,-0.093 0.078,-0.184 0.211,-0.187 z m -0.98,-5.573 -1.711,0.557 c -0.506,0.165 -0.807,0.703 -0.66,1.211 a 14.43,14.43 0 0 1 0.416,1.912 c 0.076,0.521 0.571,0.884 1.098,0.828 l 1.781,-0.189 c 0.568,-0.06 0.941,-0.619 0.859,-1.184 A 18.6,18.6 0 0 0 58.935,37.067 C 58.779,36.518 58.21,36.164 57.667,36.34 Z m 0.244,0.75 c 0.089,-0.029 0.215,0.023 0.264,0.193 a 17.79,17.79 0 0 1 0.494,2.305 c 0.026,0.177 -0.07,0.276 -0.16,0.285 l -1.783,0.189 C 56.595,40.076 56.508,40 56.495,39.906 a 15.23,15.23 0 0 0 -0.437,-2.018 c -0.027,-0.094 0.019,-0.201 0.145,-0.242 z m -1.664,-5.228 c -0.257,-0.071 -0.54,-0.042 -0.779,0.113 l -1.518,0.984 c -0.449,0.291 -0.599,0.892 -0.324,1.348 0.344,0.571 0.653,1.161 0.924,1.766 0.217,0.484 0.792,0.703 1.287,0.504 l 1.672,-0.674 c 0.529,-0.214 0.739,-0.849 0.508,-1.371 A 19.97,19.97 0 0 0 56.887,32.348 C 56.74,32.103 56.506,31.933 56.248,31.862 Z m -0.35,0.775 c 0.081,-0.053 0.22,-0.035 0.311,0.117 0.405,0.676 0.77,1.376 1.088,2.096 0.072,0.162 0.006,0.285 -0.082,0.32 l -1.672,0.676 C 55.421,35.895 55.313,35.843 55.272,35.75 54.988,35.116 54.663,34.498 54.303,33.9 54.25,33.812 54.27,33.693 54.381,33.621 Z m -2.943,-4.713 c -0.288,-0.004 -0.573,0.104 -0.781,0.332 l -1.215,1.33 c -0.387,0.424 -0.384,1.094 0.025,1.496 0.471,0.463 0.914,0.956 1.328,1.475 0.359,0.45 1.024,0.524 1.486,0.18 l 1.451,-1.082 c 0.497,-0.37 0.54,-1.093 0.158,-1.57 -0.506,-0.633 -1.052,-1.234 -1.631,-1.801 A 0.21,0.21 0 0 0 53.751,28.255 L 53.743,28.249 C 53.659,28.172 53.55,28.127 53.436,28.124 53.277,28.043 53.128,27.927 52.954,27.925 Z m -0.08,0.971 c 0.032,-0.035 0.116,-0.057 0.215,0.039 0.566,0.553 1.09,1.132 1.578,1.742 0.086,0.107 0.055,0.19 0.016,0.219 l -1.449,1.08 c -0.074,0.055 -0.143,0.037 -0.18,-0.01 -0.437,-0.548 -0.908,-1.068 -1.406,-1.559 -0.042,-0.041 -0.052,-0.112 0.01,-0.18 z m -4.123,-3.832 a 1.02,1.02 0 0 0 -0.664,0.527 l -0.805,1.602 c -0.256,0.509 -0.079,1.147 0.42,1.424 a 14.62,14.62 0 0 1 1.639,1.059 c 0.46,0.342 1.119,0.239 1.477,-0.209 l 1.123,-1.406 c 0.385,-0.484 0.239,-1.195 -0.252,-1.557 a 18.87,18.87 0 0 0 -2.082,-1.332 1.17,1.17 0 0 0 -0.855,-0.107 z m 0.398,0.938 a 17.87,17.87 0 0 1 1.977,1.266 c 0.111,0.082 0.101,0.165 0.072,0.201 l -1.121,1.408 c -0.057,0.072 -0.126,0.07 -0.17,0.037 -0.558,-0.415 -1.14,-0.792 -1.744,-1.127 -0.046,-0.025 -0.077,-0.086 -0.035,-0.168 l 0.807,-1.602 C 48.955,25.978 49.029,25.933 49.151,26 Z m -5,-2.626 c -0.249,0.06 -0.47,0.215 -0.598,0.398 a 1.01,1.01 0 0 0 -0.172,0.424 l -0.287,1.791 c -0.023,0.145 -0.017,0.29 0.014,0.424 0.092,0.392 0.402,0.727 0.82,0.809 0.629,0.123 1.247,0.295 1.85,0.514 0.535,0.194 1.133,-0.089 1.35,-0.615 l 0.684,-1.658 c 0.236,-0.573 -0.106,-1.212 -0.68,-1.424 -0.78,-0.288 -1.574,-0.52 -2.148,-0.643 -0.315,-0.067 -0.583,-0.079 -0.832,-0.02 z m 0.221,0.92 c 0.053,-0.013 0.187,-0.021 0.414,0.027 0.508,0.108 1.279,0.331 2.018,0.604 0.133,0.049 0.147,0.135 0.131,0.174 l -0.684,1.658 c -0.035,0.086 -0.102,0.103 -0.148,0.086 -0.647,-0.235 -1.313,-0.42 -1.992,-0.553 -0.035,-0.007 -0.062,-0.031 -0.076,-0.09 V 26.2 a 0.17,0.17 0 0 1 -0.002,-0.062 l 0.285,-1.791 c 0.002,-0.014 0.007,-0.021 0.014,-0.031 0.007,-0.01 -0.009,-0.008 0.041,-0.02 z m -2.406,-1.273 a 17.8,17.8 0 0 0 -2.49,0.1 c -0.607,0.067 -1.091,0.607 -1,1.219 l 0.264,1.773 c 0.084,0.564 0.599,0.98 1.166,0.918 a 12.9,12.9 0 0 1 1.922,-0.068 c 0.57,0.023 1.052,-0.434 1.096,-1.002 l 0.137,-1.797 c 0.048,-0.621 -0.481,-1.124 -1.094,-1.143 z m -0.029,0.947 c 0.143,0.004 0.181,0.081 0.178,0.123 l -0.137,1.797 c -0.007,0.096 -0.063,0.129 -0.111,0.127 a 13.87,13.87 0 0 0 -2.064,0.074 c -0.05,0.006 -0.111,-0.026 -0.125,-0.117 L 39.413,24.2 c -0.006,-0.043 0.027,-0.121 0.166,-0.137 0.78,-0.086 1.567,-0.118 2.357,-0.094 z m -5.131,-0.353 a 19.29,19.29 0 0 0 -2.344,0.779 c -0.566,0.229 -0.882,0.881 -0.629,1.445 l 0.738,1.646 c 0.235,0.524 0.85,0.786 1.381,0.568 0.609,-0.25 1.23,-0.461 1.859,-0.629 0.552,-0.147 0.883,-0.724 0.758,-1.281 l -0.395,-1.75 C 38.037,23.79 37.394,23.46 36.804,23.615 Z m 0.24,0.918 c 0.134,-0.035 0.195,0.027 0.205,0.07 l 0.393,1.75 c 0.02,0.089 -0.024,0.142 -0.076,0.156 a 16.22,16.22 0 0 0 -1.975,0.666 c -0.053,0.022 -0.121,0.006 -0.158,-0.078 l -0.736,-1.646 c -0.019,-0.043 -0.008,-0.126 0.119,-0.178 a 18.34,18.34 0 0 1 2.229,-0.74 z m -4.164,0.923 a 1.17,1.17 0 0 0 -0.854,0.121 20.19,20.19 0 0 0 -2.062,1.357 c -0.489,0.366 -0.628,1.078 -0.24,1.561 l 1.133,1.41 c 0.361,0.449 1.024,0.546 1.484,0.201 a 16.67,16.67 0 0 1 1.66,-1.096 c 0.498,-0.287 0.67,-0.933 0.4,-1.441 L 33.554,25.974 A 1.03,1.03 0 0 0 32.88,25.456 Z M 32.498,26.4 c 0.119,-0.068 0.196,-0.025 0.219,0.018 l 0.848,1.596 c 0.043,0.081 0.014,0.146 -0.037,0.176 a 17.61,17.61 0 0 0 -1.754,1.158 c -0.048,0.036 -0.12,0.037 -0.178,-0.035 l -1.133,-1.41 c -0.031,-0.038 -0.04,-0.127 0.07,-0.209 a 19.07,19.07 0 0 1 1.965,-1.293 z m -3.789,1.968 a 1.17,1.17 0 0 0 -0.797,0.334 19.68,19.68 0 0 0 -1.646,1.838 c -0.377,0.479 -0.33,1.202 0.168,1.568 l 1.447,1.064 c 0.461,0.339 1.124,0.267 1.48,-0.182 a 15.92,15.92 0 0 1 1.324,-1.465 c 0.411,-0.402 0.416,-1.072 0.027,-1.496 l -1.223,-1.332 c -0.209,-0.228 -0.493,-0.335 -0.781,-0.33 z m 0.084,0.971 1.221,1.332 c 0.062,0.068 0.052,0.137 0.01,0.178 a 16.76,16.76 0 0 0 -1.404,1.553 c -0.035,0.044 -0.102,0.062 -0.176,0.008 l -1.449,-1.064 c -0.037,-0.027 -0.068,-0.109 0.018,-0.217 0.485,-0.615 1.008,-1.2 1.566,-1.75 0.098,-0.096 0.182,-0.075 0.215,-0.039 z"
           class="V"
           id="path270" />
        <path
           d="m 25.422,32.249 a 1.17,1.17 0 0 0 -0.678,0.533 c -0.413,0.714 -0.781,1.457 -1.096,2.225 -0.232,0.566 0.012,1.252 0.596,1.463 l 1.688,0.611 c 0.535,0.194 1.147,-0.058 1.361,-0.586 0.242,-0.595 0.529,-1.174 0.855,-1.734 A 1.08,1.08 0 0 0 27.779,33.32 l -1.518,-0.959 a 1.02,1.02 0 0 0 -0.84,-0.111 z m 0.334,0.914 1.518,0.957 c 0.077,0.049 0.083,0.117 0.057,0.162 -0.348,0.598 -0.655,1.217 -0.914,1.855 -0.019,0.046 -0.074,0.083 -0.162,0.051 l -1.687,-0.609 c -0.039,-0.014 -0.092,-0.083 -0.039,-0.213 a 17.3,17.3 0 0 1 1.037,-2.109 c 0.069,-0.12 0.154,-0.117 0.191,-0.094 z"
           class="V"
           id="path272" />
        <path
           d="m 24.146,36.766 c -0.595,-0.163 -1.196,0.253 -1.338,0.854 l -0.211,1.031 -0.162,1.475 c -0.041,0.615 0.408,1.19 1.023,1.209 l 1.797,0.055 c 0.569,0.018 1.074,-0.407 1.119,-0.975 l 0.141,-1.113 0.148,-0.797 c 0.123,-0.556 -0.234,-1.111 -0.783,-1.262 z m -0.252,0.914 1.736,0.477 c 0.092,0.025 0.118,0.094 0.107,0.143 l -0.156,0.838 -0.152,1.201 c -0.004,0.049 -0.05,0.106 -0.145,0.104 L 23.487,40.386 C 23.44,40.384 23.369,40.345 23.38,40.191 l 0.15,-1.377 0.002,-0.01 0.199,-0.965 c 0.036,-0.152 0.117,-0.171 0.162,-0.158 z m 1.362,3.879 -1.791,0.086 c -0.62,0.029 -1.055,0.612 -1.002,1.221 a 18.43,18.43 0 0 0 0.385,2.447 c 0.135,0.595 0.727,1.013 1.324,0.854 l 1.734,-0.465 c 0.552,-0.148 0.91,-0.709 0.781,-1.266 a 13.87,13.87 0 0 1 -0.303,-1.914 c -0.049,-0.568 -0.56,-0.99 -1.129,-0.963 z m 0.045,0.947 c 0.093,-0.004 0.134,0.048 0.139,0.098 a 14.82,14.82 0 0 0 0.324,2.045 c 0.012,0.052 -0.013,0.113 -0.102,0.137 l -1.734,0.465 c -0.043,0.012 -0.126,-0.014 -0.156,-0.148 a 17.41,17.41 0 0 1 -0.363,-2.32 c -0.012,-0.14 0.06,-0.187 0.102,-0.189 z"
           class="V"
           id="path274" />
        <path
           d="m 25.961,45.874 -1.701,0.584 c -0.585,0.201 -0.844,0.877 -0.627,1.447 a 19.77,19.77 0 0 0 1.021,2.246 c 0.287,0.539 0.97,0.787 1.506,0.477 l 1.564,-0.906 c 0.498,-0.288 0.694,-0.929 0.422,-1.436 A 16.06,16.06 0 0 1 27.32,46.489 c -0.207,-0.534 -0.818,-0.801 -1.359,-0.615 z m 0.309,0.896 c 0.087,-0.03 0.145,0.007 0.166,0.061 a 17.03,17.03 0 0 0 0.875,1.904 c 0.028,0.052 0.019,0.12 -0.061,0.166 l -1.564,0.906 c -0.042,0.024 -0.129,0.02 -0.193,-0.102 a 18.84,18.84 0 0 1 -0.975,-2.139 c -0.049,-0.129 0.007,-0.198 0.051,-0.213 z"
           class="V"
           id="path276" />
        <path
           d="m 28.617,49.713 c -0.267,-0.045 -0.552,0.01 -0.791,0.17 l -1.504,1.006 c -0.514,0.344 -0.593,1.065 -0.236,1.561 a 20.15,20.15 0 0 0 1.561,1.912 c 0.415,0.448 1.136,0.515 1.576,0.08 l 1.285,-1.27 c 0.409,-0.404 0.438,-1.073 0.049,-1.496 -0.448,-0.487 -0.866,-1.002 -1.254,-1.541 -0.168,-0.234 -0.418,-0.377 -0.686,-0.422 z m -0.264,0.957 c 0.076,-0.051 0.145,-0.029 0.18,0.02 a 17.56,17.56 0 0 0 1.326,1.629 c 0.04,0.044 0.048,0.115 -0.018,0.18 l -1.285,1.27 c -0.034,0.034 -0.12,0.05 -0.213,-0.051 a 19.19,19.19 0 0 1 -1.488,-1.82 c -0.08,-0.112 -0.047,-0.193 -0.006,-0.221 z"
           class="V"
           id="path278" />
        <path
           d="m 31.363,52.938 c -0.269,0.024 -0.53,0.148 -0.721,0.363 l -1.195,1.35 c -0.41,0.463 -0.302,1.181 0.17,1.568 0.636,0.522 1.305,1.004 2.004,1.441 0.517,0.323 1.232,0.2 1.541,-0.336 l 0.895,-1.555 c 0.285,-0.494 0.141,-1.141 -0.342,-1.445 -0.55,-0.347 -1.08,-0.733 -1.586,-1.152 -0.221,-0.183 -0.497,-0.259 -0.766,-0.234 z m 0.162,0.965 a 16.05,16.05 0 0 0 1.684,1.223 c 0.045,0.029 0.073,0.092 0.027,0.172 l -0.896,1.555 c -0.022,0.038 -0.098,0.079 -0.215,0.006 a 18.21,18.21 0 0 1 -1.906,-1.371 c -0.106,-0.087 -0.094,-0.172 -0.062,-0.207 l 1.195,-1.35 c 0.061,-0.069 0.13,-0.063 0.174,-0.027 z m 3.274,1.406 c -0.25,0.098 -0.466,0.286 -0.59,0.543 l -0.777,1.615 c -0.269,0.558 0.034,1.217 0.594,1.461 a 17.64,17.64 0 0 0 2.352,0.834 c 0.592,0.164 1.249,-0.163 1.387,-0.771 l 0.398,-1.76 c 0.126,-0.556 -0.2,-1.135 -0.752,-1.281 -0.619,-0.164 -1.226,-0.375 -1.816,-0.631 A 1.04,1.04 0 0 0 34.8,55.309 Z m 0.418,0.879 a 13.7,13.7 0 0 0 1.951,0.68 c 0.047,0.012 0.09,0.06 0.068,0.154 l -0.398,1.76 c -0.009,0.042 -0.068,0.105 -0.207,0.066 a 16.86,16.86 0 0 1 -2.227,-0.789 c -0.129,-0.056 -0.138,-0.141 -0.119,-0.18 l 0.779,-1.615 c 0.04,-0.083 0.106,-0.096 0.152,-0.076 z m 10.855,0.78 c -0.055,0 -0.11,0.009 -0.162,0.027 l -1.494,0.441 -0.025,0.006 c -0.308,0.085 -0.92,0.211 -1.523,0.297 -0.125,0.018 -0.237,0.084 -0.313,0.185 a 0.47,0.47 0 0 0 -0.09,0.352 c 0.037,0.259 0.276,0.439 0.535,0.402 0.629,-0.09 1.233,-0.212 1.615,-0.316 l 0.006,-0.002 a 15.08,15.08 0 0 0 1.602,-0.471 c 0.247,-0.086 0.377,-0.357 0.291,-0.604 -0.065,-0.188 -0.242,-0.316 -0.441,-0.318 z m 4.151,-2.09 a 0.48,0.48 0 0 0 -0.264,0.082 l -1.342,0.818 -0.021,0.014 c -0.279,0.164 -0.842,0.449 -1.404,0.697 -0.239,0.106 -0.348,0.386 -0.242,0.625 0.106,0.239 0.386,0.348 0.625,0.242 l 1.48,-0.736 0.01,-0.006 c 0.35,-0.183 0.889,-0.508 1.424,-0.869 0.104,-0.07 0.177,-0.179 0.201,-0.302 0.024,-0.123 -0.002,-0.251 -0.072,-0.356 -0.088,-0.131 -0.236,-0.209 -0.395,-0.209 z m 3.494,-3.076 c -0.135,0.002 -0.263,0.06 -0.352,0.162 l -1.09,1.143 -1.199,1.033 c -0.099,0.078 -0.162,0.192 -0.177,0.317 a 0.47,0.47 0 0 0 0.099,0.349 c 0.078,0.098 0.192,0.162 0.317,0.176 0.125,0.014 0.25,-0.022 0.349,-0.1 l 1.266,-1.088 1.148,-1.205 c 0.083,-0.094 0.126,-0.218 0.118,-0.344 a 0.47,0.47 0 0 0 -0.479,-0.443 z m 2.541,-3.86 c -0.175,0.008 -0.332,0.113 -0.406,0.271 a 14.07,14.07 0 0 1 -0.738,1.363 L 55.1,49.599 c -0.157,0.276 -0.501,0.801 -0.867,1.293 -0.156,0.209 -0.113,0.505 0.096,0.662 0.101,0.075 0.228,0.107 0.352,0.089 a 0.47,0.47 0 0 0 0.312,-0.187 l 0.926,-1.383 c 0.214,-0.333 0.514,-0.877 0.789,-1.455 0.112,-0.236 0.011,-0.518 -0.225,-0.631 -0.07,-0.034 -0.147,-0.05 -0.225,-0.047 z m 1.357,-4.359 c -0.198,-10e-4 -0.366,0.145 -0.393,0.342 l -0.057,0.387 -0.24,1.15 -0.008,0.029 c -0.068,0.315 -0.249,0.916 -0.461,1.49 a 0.4,0.4 0 0 0 0.012,0.303 0.39,0.39 0 0 0 0.223,0.205 c 0.204,0.075 0.43,-0.029 0.506,-0.232 0.22,-0.595 0.399,-1.183 0.484,-1.57 l 0.002,-0.006 a 11.87,11.87 0 0 0 0.262,-1.242 l 0.061,-0.406 C 58.02,43.929 57.993,43.824 57.929,43.74 57.865,43.656 57.772,43.602 57.668,43.587 Z m -0.07,-4.625 c -0.031,-0.002 -0.062,0 -0.092,0.006 -0.215,0.037 -0.359,0.24 -0.322,0.455 a 13.78,13.78 0 0 1 0.184,1.549 l 0.002,0.025 c 0.032,0.321 0.049,0.946 0.025,1.559 -0.004,0.105 0.033,0.207 0.104,0.284 a 0.4,0.4 0 0 0 0.274,0.127 c 0.104,0.005 0.207,-0.034 0.284,-0.105 0.077,-0.071 0.122,-0.171 0.126,-0.276 0.025,-0.643 0.009,-1.269 -0.029,-1.658 a 14.07,14.07 0 0 0 -0.193,-1.637 c -0.03,-0.18 -0.181,-0.316 -0.363,-0.328 z m -1.414,-4.496 a 0.48,0.48 0 0 0 -0.217,0.045 c -0.237,0.112 -0.338,0.394 -0.227,0.631 l 0.602,1.443 0.008,0.025 a 15.26,15.26 0 0 1 0.467,1.488 c 0.067,0.253 0.325,0.404 0.578,0.338 0.253,-0.066 0.404,-0.325 0.338,-0.578 l -0.492,-1.572 a 15.77,15.77 0 0 0 -0.643,-1.549 c -0.076,-0.161 -0.236,-0.266 -0.414,-0.271 z m -2.516,-3.928 a 0.47,0.47 0 0 0 -0.314,0.111 c -0.096,0.081 -0.157,0.197 -0.168,0.322 -0.011,0.125 0.028,0.25 0.109,0.346 l 0.951,1.25 0.016,0.02 c 0.192,0.262 0.534,0.793 0.84,1.328 0.062,0.109 0.165,0.189 0.286,0.223 a 0.47,0.47 0 0 0 0.36,-0.045 c 0.227,-0.13 0.306,-0.419 0.176,-0.646 l -0.885,-1.4 -0.008,-0.01 C 54.76,31.703 54.382,31.2 53.968,30.705 53.88,30.6 53.751,30.538 53.614,30.535 Z M 50.192,27.38 c -0.155,0 -0.3,0.075 -0.389,0.201 -0.15,0.214 -0.099,0.51 0.115,0.66 l 1.232,0.959 0.02,0.018 c 0.25,0.202 0.714,0.628 1.145,1.068 0.183,0.187 0.483,0.19 0.67,0.008 0.187,-0.182 0.19,-0.483 0.008,-0.67 L 51.786,28.497 51.782,28.493 C 51.488,28.229 50.991,27.837 50.464,27.466 A 0.47,0.47 0 0 0 50.193,27.38 Z m -4.137,-2.1 c -0.196,0.008 -0.367,0.136 -0.43,0.322 -0.083,0.248 0.051,0.516 0.299,0.6 0.578,0.194 1.156,0.432 1.439,0.572 l 0.025,0.012 a 14.04,14.04 0 0 1 1.377,0.715 c 0.226,0.132 0.516,0.056 0.648,-0.17 0.132,-0.226 0.056,-0.516 -0.17,-0.648 -0.549,-0.321 -1.094,-0.602 -1.461,-0.758 -0.368,-0.179 -0.946,-0.416 -1.557,-0.621 -0.055,-0.018 -0.114,-0.026 -0.172,-0.023 z M 41.5,24.511 c -0.126,-10e-4 -0.247,0.048 -0.337,0.136 -0.09,0.088 -0.141,0.209 -0.142,0.335 -10e-4,0.261 0.209,0.475 0.471,0.477 0.609,0.005 1.236,0.052 1.549,0.1 0.032,0.005 0.065,0.006 0.098,0.004 -0.126,0.007 -0.04,0 -0.008,0.004 l 0.139,0.018 0.41,0.061 0.928,0.186 c 0.123,0.028 0.251,0.007 0.358,-0.06 0.107,-0.067 0.182,-0.173 0.211,-0.295 0.059,-0.254 -0.099,-0.509 -0.354,-0.568 l -0.99,-0.197 -0.437,-0.064 -0.158,-0.02 -0.053,-0.004 -0.098,-0.006 a 13.12,13.12 0 0 0 -1.586,-0.104 z m -1.453,0.054 a 14.17,14.17 0 0 0 -1.629,0.225 c -0.393,0.061 -1.008,0.205 -1.629,0.385 -0.251,0.072 -0.396,0.335 -0.324,0.586 0.035,0.121 0.116,0.223 0.227,0.284 0.111,0.061 0.24,0.075 0.361,0.04 l 1.512,-0.359 0.027,-0.004 c 0.311,-0.068 0.928,-0.16 1.535,-0.211 0.125,-0.01 0.242,-0.07 0.323,-0.166 0.081,-0.096 0.121,-0.22 0.111,-0.346 -0.01,-0.126 -0.07,-0.242 -0.167,-0.324 a 0.47,0.47 0 0 0 -0.347,-0.11 z m -8.58,3.244 a 0.47,0.47 0 0 0 -0.264,0.088 l -1.301,1.023 c -0.308,0.251 -0.775,0.682 -1.227,1.147 -0.088,0.09 -0.137,0.212 -0.135,0.338 0.002,0.126 0.054,0.246 0.145,0.334 0.188,0.182 0.488,0.178 0.67,-0.01 l 1.145,-1.074 0.02,-0.016 c 0.24,-0.218 0.734,-0.611 1.236,-0.971 0.102,-0.073 0.172,-0.184 0.192,-0.308 0.02,-0.124 -0.009,-0.251 -0.083,-0.354 a 0.47,0.47 0 0 0 -0.398,-0.197 z m -3.418,3.17 c -0.134,0.005 -0.26,0.067 -0.346,0.17 l -0.99,1.318 a 14.93,14.93 0 0 0 -0.879,1.424 c -0.125,0.229 -0.041,0.517 0.188,0.643 0.11,0.061 0.24,0.075 0.361,0.04 a 0.47,0.47 0 0 0 0.283,-0.227 14.56,14.56 0 0 1 0.814,-1.324 l 0.014,-0.021 c 0.172,-0.268 0.547,-0.773 0.939,-1.246 0.08,-0.097 0.119,-0.222 0.107,-0.347 -0.012,-0.125 -0.073,-0.241 -0.17,-0.321 a 0.47,0.47 0 0 0 -0.322,-0.107 z"
           class="V"
           id="path280" />
        <path
           d="m 25.651,34.909 c -0.196,-0.009 -0.378,0.103 -0.457,0.283 -0.255,0.582 -0.469,1.157 -0.58,1.543 -0.135,0.381 -0.299,0.991 -0.428,1.631 a 0.47,0.47 0 0 0 0.071,0.357 0.48,0.48 0 0 0 0.303,0.202 c 0.256,0.051 0.505,-0.115 0.557,-0.371 0.121,-0.601 0.286,-1.206 0.391,-1.502 l 0.01,-0.029 a 13.29,13.29 0 0 1 0.545,-1.449 c 0.106,-0.239 -0.003,-0.519 -0.242,-0.625 -0.053,-0.023 -0.11,-0.036 -0.168,-0.039 z m -1.221,4.484 c -0.239,0.005 -0.437,0.188 -0.461,0.426 -0.065,0.643 -0.089,1.265 -0.074,1.664 a 13.71,13.71 0 0 0 0.098,1.662 0.47,0.47 0 0 0 0.176,0.318 c 0.099,0.078 0.224,0.114 0.349,0.1 a 0.47,0.47 0 0 0 0.318,-0.176 c 0.078,-0.099 0.114,-0.224 0.1,-0.349 -0.068,-0.605 -0.101,-1.23 -0.094,-1.545 v -0.029 c -0.013,-0.314 0.009,-0.94 0.07,-1.549 a 0.47,0.47 0 0 0 -0.105,-0.348 c -0.08,-0.097 -0.195,-0.159 -0.321,-0.171 -0.019,-0.002 -0.038,-0.002 -0.057,-0.002 z m 0.267,4.618 a 0.48,0.48 0 0 0 -0.107,0.008 c -0.123,0.025 -0.232,0.098 -0.301,0.202 -0.069,0.104 -0.095,0.233 -0.07,0.356 l 0.41,1.609 c 0.11,0.393 0.316,0.976 0.559,1.566 0.1,0.241 0.376,0.356 0.617,0.258 0.241,-0.098 0.358,-0.375 0.26,-0.617 L 25.54,45.922 25.532,45.897 C 25.43,45.593 25.27,44.987 25.149,44.389 25.105,44.173 24.918,44.016 24.698,44.01 Z m 1.52,4.377 c -0.075,0 -0.148,0.017 -0.215,0.051 -0.233,0.118 -0.327,0.403 -0.209,0.637 l 0.822,1.455 a 16.18,16.18 0 0 0 0.939,1.373 0.47,0.47 0 0 0 0.313,0.184 c 0.125,0.017 0.251,-0.015 0.351,-0.091 0.1,-0.076 0.167,-0.188 0.184,-0.313 0.017,-0.125 -0.015,-0.251 -0.091,-0.351 l -0.889,-1.297 -0.014,-0.021 a 15.94,15.94 0 0 1 -0.771,-1.367 c -0.081,-0.159 -0.244,-0.259 -0.422,-0.26 z m 2.611,3.857 c -0.115,0.001 -0.225,0.043 -0.311,0.119 -0.094,0.083 -0.152,0.201 -0.16,0.326 -0.008,0.125 0.035,0.249 0.118,0.343 l 1.164,1.201 c 0.285,0.283 0.751,0.692 1.252,1.086 0.099,0.078 0.225,0.113 0.35,0.098 a 0.47,0.47 0 0 0 0.316,-0.178 0.48,0.48 0 0 0 0.098,-0.35 0.47,0.47 0 0 0 -0.178,-0.316 l -1.184,-1.023 -0.018,-0.018 c -0.24,-0.215 -0.682,-0.666 -1.09,-1.129 -0.091,-0.103 -0.222,-0.161 -0.359,-0.16 z m 3.491,3.057 c -0.155,0.004 -0.298,0.084 -0.383,0.213 -0.144,0.218 -0.085,0.512 0.133,0.656 l 1.416,0.838 c 0.357,0.201 0.922,0.468 1.518,0.709 0.117,0.047 0.247,0.046 0.363,-0.003 a 0.47,0.47 0 0 0 0.254,-0.259 c 0.047,-0.117 0.046,-0.247 -0.003,-0.363 A 0.47,0.47 0 0 0 35.358,56.839 C 34.793,56.611 34.23,56.341 33.954,56.185 L 33.929,56.171 A 14.33,14.33 0 0 1 32.593,55.38 C 32.512,55.327 32.417,55.299 32.32,55.302 Z m 4.156,1.972 c -0.195,0.015 -0.361,0.148 -0.418,0.336 -0.075,0.25 0.066,0.514 0.316,0.59 0.686,0.206 2.131,0.458 2.77,0.563 0.124,0.02 0.251,-0.009 0.353,-0.082 0.102,-0.073 0.171,-0.184 0.192,-0.308 A 0.47,0.47 0 0 0 39.605,58.019 C 39.531,57.917 39.42,57.848 39.296,57.828 l -2.648,-0.533 a 0.48,0.48 0 0 0 -0.172,-0.02 z m -0.903,-31.67 c -0.055,0.001 -0.11,0.011 -0.162,0.031 l -1.527,0.666 a 16.02,16.02 0 0 0 -1.463,0.795 c -0.224,0.136 -0.295,0.427 -0.16,0.65 0.065,0.108 0.17,0.186 0.293,0.216 0.123,0.03 0.252,0.01 0.359,-0.055 l 1.377,-0.75 0.023,-0.012 a 15.51,15.51 0 0 1 1.436,-0.625 0.47,0.47 0 0 0 0.264,-0.249 c 0.051,-0.115 0.056,-0.245 0.011,-0.363 -0.071,-0.186 -0.252,-0.308 -0.451,-0.305 z"
           class="V"
           id="path282" />
      </g>
    </g>
  </g>
  <g
     id="g1239">
    <g
       id="g1147">
      <g
         stroke="#fff"
         stroke-width=".503"
         class="h"
         id="g298">
        <path
           d="M27.396 75.641c-3.879 1.576-7.493 3.803-10.617 6.589l4.166 1.022.197 3.85a30.14 30.14 0 0 1 8.71-5.405z"
           fill="url(#B)"
           class="d f"
           id="path288" />
        <path
           d="M21.295 76.504l3.244 5.387 5.313-.196-2.457-6.054z"
           fill="#c00"
           id="path290" />
        <path
           d="M54.752 75.641c3.879 1.576 7.493 3.803 10.617 6.589l-4.166 1.022-.197 3.85a30.14 30.14 0 0 0-8.71-5.405z"
           fill="url(#C)"
           class="d f"
           id="path292" />
        <path
           d="M60.853 76.504l-3.244 5.387-5.313-.196 2.457-6.054z"
           fill="#c00"
           id="path294" />
        <path
           d="M41.074 71.008a38.341 38.341 0 0 0-19.779 5.496l3.244 5.387c4.888-2.922 10.547-4.565 16.244-4.616h.261a6.266 6.266 0 0 0 .029 0c5.794 0 11.563 1.646 16.533 4.617l3.245-5.389a38.341 38.341 0 0 0-19.777-5.495z"
           fill="red"
           class="d f"
           id="path296" />
      </g>
      <g
         fill="#f5f5f5"
         id="g306">
        <path
           d="M23.833 77.096l.351-.19.793 1.225q.192.297.221.477.029.18-.051.328-.078.147-.268.249-.25.135-.493.054-.243-.081-.45-.397l.304-.221q.116.167.204.216.12.067.232.006.11-.059.117-.157.006-.099-.151-.342zm2.229 1.424l-1.541-1.807.373-.172 1.033 1.253-.433-1.53.433-.2 1.092 1.255-.499-1.529.366-.169.673 2.207-.387.178-1.19-1.333.474 1.664zm3.67-1.54l-.409.156-.378-.409-.743.284.062.529-.4.153-.225-2.35.398-.152zm-1.068-.556l-.608-.672.1.866zm1.284.49l-.809-2.103.383-.123.672 1.746.957-.307.137.357zm1.608-.5l-.723-2.148.388-.109.723 2.148zm1.201-.32l-.525-1.804-.579.141-.107-.367 1.549-.376.107.367-.578.14.525 1.804zm2.808-.584l-.434.082-.286-.467-.789.149-.049.531-.424.08.27-2.346.422-.08zm-.932-.732l-.457-.765-.083.867zm1.819.608l-.299-2.231.65-.073q.363-.041.479-.021.185.032.323.188.139.156.175.422.032.242-.046.417-.078.174-.219.258-.141.082-.508.123l-.265.03.113.841zm.155-1.898l.085.633.223-.025q.225-.025.301-.063.078-.038.119-.118.041-.082.027-.191-.015-.111-.078-.181-.064-.07-.145-.087-.082-.017-.335.011zm1.715 1.699l-.149-2.243.856-.047q.328-.018.473.035.145.052.245.197.1.143.114.352.017.263-.111.432-.127.168-.379.224.136.078.229.176.092.096.257.351l.274.424-.484.027-.327-.472q-.177-.256-.238-.319-.061-.064-.127-.085-.065-.022-.206-.015l-.084.005.062.936zm.32-1.317l.302-.017q.277-.015.35-.041.074-.027.116-.097.042-.07.035-.182-.007-.107-.058-.169-.051-.063-.133-.083-.058-.014-.331.001l-.318.018zm3.53 1.221l-.443-.001-.175-.511-.806-.002-.168.51-.433-.001.793-2.245.431.001zm-.748-.891l-.274-.835-.276.833z"
           id="path300" />
        <path
           d="M43.259 72.904l.407.022-.091 1.42q-.022.344-.108.509-.086.164-.243.246-.155.082-.375.07-.29-.016-.442-.206-.153-.191-.131-.558l.387-.028q-.006.198.037.283.058.117.189.124.127.007.193-.071.066-.079.084-.361zm2.501 2.483l-.44-.046-.111-.526-.801-.084-.229.49-.43-.045 1.062-2.151.429.045zm-.634-.962l-.171-.857-.376.8zm1.524 1.1l.491-2.202.398.074-.218.978 1.026-.828.538.1-.937.719.485 1.49-.517-.096-.314-1.135-.406.308-.149.665z"
           id="path302" />
        <path
           d="M50.393 76.343l-.428-.106-.023-.535-.778-.193-.307.453-.418-.104 1.404-1.98.416.103zm-.469-1.038l-.028-.871-.504.739zm.674 1.102l.798-2.126.812.254q.311.097.423.197.112.098.145.267.033.168-.041.365-.094.249-.283.36-.187.111-.443.075.093.12.138.242.045.121.091.414l.076.487-.459-.144-.106-.55q-.057-.298-.087-.377-.03-.081-.082-.123-.051-.044-.184-.085l-.079-.025-.333.887zm.845-1.106l.286.089q.262.082.341.084.08.001.148-.049.068-.05.108-.156.038-.102.017-.176-.021-.076-.089-.123-.048-.033-.307-.114l-.302-.094zm2.754 2.359l-.409-.156.052-.533-.744-.283-.368.413-.4-.152L54 75.15l.398.152zm-.318-1.084l.096-.867-.604.674zm.516 1.172l1.091-2.014.355.16.012 1.68.729-1.345.34.154-1.091 2.014-.367-.166-.017-1.643-.712 1.314zm3.39 1.664l-.384-.202.127-.523-.698-.368-.423.366-.375-.198 1.911-1.587.374.197zm-.163-1.113l.217-.849-.694.597z"
           id="path304" />
      </g>
    </g>
  </g>
</svg>
