<?xml version="1.0" encoding="UTF-8" standalone="no"?>
<svg
   xmlns:dc="http://purl.org/dc/elements/1.1/"
   xmlns:cc="http://creativecommons.org/ns#"
   xmlns:rdf="http://www.w3.org/1999/02/22-rdf-syntax-ns#"
   xmlns:svg="http://www.w3.org/2000/svg"
   xmlns="http://www.w3.org/2000/svg"
   xmlns:xlink="http://www.w3.org/1999/xlink"
   xmlns:sodipodi="http://sodipodi.sourceforge.net/DTD/sodipodi-0.dtd"
   xmlns:inkscape="http://www.inkscape.org/namespaces/inkscape"
   width="343.087"
   height="489.137"
   viewBox="0 0 90.775 129.417"
   version="1.1"
   id="svg373"
   sodipodi:docname="Seal of Cilacap Regency.svg"
   inkscape:version="1.0.1 (3bc2e813f5, 2020-09-07)">
  <metadata
     id="metadata377">
    <rdf:RDF>
      <cc:Work
         rdf:about="">
        <dc:format>image/svg+xml</dc:format>
        <dc:type
           rdf:resource="http://purl.org/dc/dcmitype/StillImage" />
      </cc:Work>
    </rdf:RDF>
  </metadata>
  <sodipodi:namedview
     pagecolor="#ffffff"
     bordercolor="#666666"
     borderopacity="1"
     objecttolerance="10"
     gridtolerance="10"
     guidetolerance="10"
     inkscape:pageopacity="0"
     inkscape:pageshadow="2"
     inkscape:window-width="1366"
     inkscape:window-height="705"
     id="namedview375"
     showgrid="false"
     inkscape:zoom="0.91985469"
     inkscape:cx="163.41135"
     inkscape:cy="300.11355"
     inkscape:window-x="-8"
     inkscape:window-y="-8"
     inkscape:window-maximized="1"
     inkscape:current-layer="svg373" />
  <style
     id="style2"><![CDATA[.U{fill:#ffeba3}.V{fill:#f5c742}.W{stroke:#000}.X{stroke:#a07843}.Y{stroke-width:.472}.Z{fill:#00a870}.a{stroke-linejoin:round}.b{fill:#fff}.c{stroke-width:.302}.d{stroke-width:.27}.e{fill:#00c482}.f{fill-rule:evenodd}.g{opacity:.997}.h{stroke-width:.298}.i{opacity:.999}.j{stroke-width:.265}.k{stroke:#a8a8a8}.l{stroke-width:.079}.m{fill:#bcbcbc}.n{fill:#033157}.o{fill:#055698}.p{stroke-width:.053}.q{stroke-width:.106}]]></style>
  <defs
     id="defs41">
    <linearGradient
       id="A"
       gradientUnits="userSpaceOnUse">
      <stop
         offset="0"
         stop-color="#d3d3d3"
         id="stop4" />
      <stop
         offset="1"
         stop-color="#fff"
         id="stop6" />
    </linearGradient>
    <linearGradient
       xlink:href="#A"
       id="B"
       x1="-68.874"
       y1="100.937"
       x2="-64.468"
       y2="100.937" />
    <linearGradient
       xlink:href="#A"
       id="C"
       x1="-65.439"
       y1="100.123"
       x2="-62.314"
       y2="100.123" />
    <linearGradient
       xlink:href="#A"
       id="D"
       x1="-237.886"
       y1="373.92"
       x2="-222.301"
       y2="373.92" />
    <linearGradient
       xlink:href="#A"
       id="E"
       x1="-59.517"
       y1="99.937"
       x2="-54.479"
       y2="101.287" />
    <linearGradient
       xlink:href="#A"
       id="F"
       x1="-56.042"
       y1="100.749"
       x2="-52.927"
       y2="100.749" />
    <linearGradient
       xlink:href="#A"
       id="G"
       x1="-64.556"
       y1="111.343"
       x2="-60.826"
       y2="109.833" />
    <linearGradient
       xlink:href="#A"
       id="H"
       x1="-70.071"
       y1="107.862"
       x2="-59.618"
       y2="107.862" />
    <linearGradient
       xlink:href="#A"
       id="I"
       x1="-54.97"
       y1="111.343"
       x2="-58.701"
       y2="109.833" />
    <linearGradient
       xlink:href="#A"
       id="J"
       x1="-49.455"
       y1="107.862"
       x2="-59.908"
       y2="107.862" />
    <linearGradient
       xlink:href="#A"
       id="K"
       x1="-229.883"
       y1="415.084"
       x2="-221.869"
       y2="415.084" />
    <radialGradient
       id="L"
       cx="45.083"
       cy="17.141"
       fx="45.083"
       fy="17.141"
       r="43.496"
       gradientTransform="matrix(0.19241233,0,0,0.23794106,36.7127,22.193638)"
       gradientUnits="userSpaceOnUse">
      <stop
         offset="0"
         stop-color="#f5bc21"
         id="stop19" />
      <stop
         offset="1"
         stop-color="#cb0a1c"
         id="stop21" />
    </radialGradient>
    <path
       id="M"
       d="M19.166 18.093c-1.023-.041-2.338.657-3.086 1.593-1.878-1.024-2.569.114-2.061 1.667.766 1.313 2.386 2.267 5.147 2.306 2.76-.039 4.38-.993 5.147-2.306.509-1.554-.183-2.692-2.061-1.667-.748-.937-2.063-1.634-3.086-1.593z" />
    <path
       id="N"
       d="M19.166 19.96c-.81-.026-2.012.428-2.603 1.04-1.487-.668-2.035.075-1.632 1.089.607.857 2.05 2.378 4.235 2.404zm.144 0v4.533c2.186-.026 3.628-1.546 4.235-2.404.403-1.014-.145-1.757-1.632-1.089-.592-.612-1.794-1.066-2.603-1.04z" />
    <path
       id="O"
       d="M19.166 20.5c-1.705 1.977-3.562 2.004-5.463 1.457 1.187 2.917 3.6 1.75 5.463 3.205 1.864-1.455 4.276-.288 5.463-3.205-1.902.547-3.759.52-5.463-1.457z" />
    <path
       id="P"
       d="M19.166 21.138c-1.3 1.352-2.911 1.599-4.465 1.441.97.843 2.942.506 4.465.926 1.523-.421 3.495-.083 4.465-.926-1.554.158-3.117-.038-4.465-1.441z" />
    <path
       id="Q"
       d="M68.005 71.536c2.813 1.734 2.675 4.207 2.675 7.518-1.77-.672-2.954-2.569-2.675-7.518z" />
    <path
       id="R"
       d="M68.546 72.414c.22 1.22.147 2.241 1.37 3.737.034-1.392-.362-2.856-1.206-3.585l-.165-.152z" />
    <path
       id="S"
       d="M72.967 62.345c5.057 2.477 4.808 6.012 4.808 10.743-3.182-.961-5.31-3.67-4.808-10.743z" />
    <path
       id="T"
       d="M73.939 63.6c.396 1.743.264 3.202 2.462 5.34.061-1.989-.651-4.081-2.167-5.123l-.296-.218z" />
    <path
       id="U"
       d="M14.54 90.501l-1.611 5.396 4.551-3.101c-.562-.903-1.13-2.16-2.94-2.295z" />
    <path
       id="V"
       d="M14.54 90.501c-2.449-.596-6.85 1.83-4.148 4.188l6 6 4.309-.604c1.319-.291 1.163-1.586-.362-2.215-7.961-3.28-5.516-6.858-5.799-7.37z" />
    <path
       id="W"
       d="M27.542 92.126l-2.77-1.725c.417 1.092 1.205 1.971 2.151 2.76-1.118 4.678-.514 13.102 5.173 13.247 1.242-5.635-5.858-6.847-3.895-13.336.979-.574.993-1.363 1.353-2.075z" />
    <path
       id="X"
       d="M26.496 96.138c-.281 4.593.988 10.154 5.6 10.271a6.52 6.52 0 0 0 .093-.516c-1.495-.345-2.254-1.201-3.032-1.859-.619-.524-.996-1.364-1.29-2.106-.434-.547-.493-1.231-.627-1.886-.353-1.141-.072-2.373-.446-3.504-.066-.168-.17-.299-.298-.399z" />
    <path
       id="Y"
       d="M27.542 92.126l-2.77-1.725c.417 1.092 1.205 1.971 2.151 2.76-1.063 4.445-.57 12.272 4.361 13.165.259.047.529.075.813.082.974-4.421-3.186-6.12-4.076-9.78a5.81 5.81 0 0 1-.162-1.197c-.005-.161-.004-.327.005-.496.028-.571.134-1.189.338-1.863.979-.574.993-1.363 1.353-2.075z" />
    <path
       id="Z"
       d="M24.745 102.011c.674 1.303 1.871 2.008 3.873 1.794l-.712-1.652c-1.272.439-2.223.163-3.161-.142z" />
    <path
       id="a"
       d="M29.7 101.1l1.395 2.335c.429-1.224 1.219-2.505.769-3.588-.744 1.073-1.458 1.271-2.164 1.253z" />
    <path
       id="b"
       d="M26.553 95.034l-.071 1.367c-.806-.456-1.522-.642-1.381-1.694z" />
    <path
       id="c"
       d="M27.541 95.115l.057 1.467c.909-.186 1.419-.552 1.951-1.267-.74.09-1.409.168-2.008-.199z" />
  </defs>
  <g
     id="g1209"
     style="stroke-width:0.28574967;stroke-miterlimit:4;stroke-dasharray:none">
    <path
       d="M.304.304v.794 77.769.007c.229 13.029 6.279 24.475 14.84 33.199s19.635 14.754 30.076 16.998l.167.036.167-.036c10.441-2.244 21.515-8.275 30.076-16.998s14.611-20.169 14.84-33.199v-.007V.304H45.387z"
       stroke-width=".609"
       class="W b"
       id="path43"
       style="stroke-width:0.60324931;stroke-miterlimit:4;stroke-dasharray:none" />
    <g
       stroke-width=".243"
       id="g53"
       style="stroke-width:0.28574967;stroke-miterlimit:4;stroke-dasharray:none">
      <path
         d="M11.574 81.741c2.58 0 4.237.665 5.852 1.373s3.21 1.487 5.42 1.487 3.805-.778 5.42-1.487 3.271-1.373 5.851-1.373 4.235.665 5.85 1.373 3.21 1.487 5.42 1.487 3.807-.778 5.422-1.487 3.27-1.373 5.85-1.373 4.235.665 5.85 1.373S65.721 84.6 67.93 84.6s3.805-.778 5.42-1.487 3.269-1.373 5.849-1.373c2.32 0 3.892.539 5.361 1.162 1.247.529 2.43 1.136 3.857 1.461l-.374 2.11c-1.049-.33-2.042-.827-3.205-1.307-1.482-.612-3.238-1.168-5.639-1.168-2.814 0-4.738.765-6.383 1.487s-2.984 1.373-4.887 1.373-3.245-.652-4.889-1.373-3.568-1.487-6.383-1.487-4.739.765-6.383 1.487-2.986 1.373-4.889 1.373-3.245-.652-4.889-1.373-3.567-1.487-6.381-1.487-4.738.765-6.383 1.487-2.986 1.373-4.889 1.373-3.245-.652-4.889-1.373-3.569-1.487-6.383-1.487c-2.392 0-4.142.55-5.621 1.16l-3.222 1.314-.374-2.108c1.427-.326 2.61-.933 3.857-1.461 1.469-.623 3.039-1.162 5.359-1.162zm0 3.584c2.58 0 4.237.665 5.852 1.373s3.21 1.486 5.42 1.486 3.805-.778 5.42-1.486 3.271-1.373 5.851-1.373 4.235.665 5.85 1.373 3.21 1.486 5.42 1.486 3.807-.778 5.422-1.486 3.27-1.373 5.85-1.373 4.235.665 5.85 1.373 3.212 1.486 5.422 1.486 3.805-.778 5.42-1.486 3.269-1.373 5.849-1.373c2.201 0 3.727.485 5.133 1.066l3.426 1.383c-2.099 8.885-6.963 16.769-13.261 23.186-8.292 8.448-19.064 14.317-29.11 16.515-10.047-2.198-20.818-8.067-29.11-16.515-6.298-6.417-11.162-14.302-13.261-23.187 1.232-.369 2.301-.917 3.443-1.388 1.402-.578 2.922-1.06 5.115-1.06z"
         fill="#0094dc"
         stroke="#005e8c"
         id="path45"
         style="stroke-width:0.28574967;stroke-miterlimit:4;stroke-dasharray:none" />
      <path
         d="M64.235 19.055h16.486v61.439c-.478-.05-.983-.08-1.522-.08-2.814 0-4.738.765-6.383 1.486s-2.984 1.373-4.887 1.373c-1.425 0-2.536-.366-3.695-.853z"
         stroke="#00744d"
         class="Z"
         id="path47"
         style="stroke-width:0.28574967;stroke-miterlimit:4;stroke-dasharray:none" />
      <path
         d="M10.055 19.055h16.486v63.366c-1.159.487-2.27.853-3.695.853-1.902 0-3.245-.652-4.889-1.373s-3.569-1.486-6.383-1.486a14.47 14.47 0 0 0-1.519.08z"
         class="W"
         id="path49"
         style="stroke-width:0.28574967;stroke-miterlimit:4;stroke-dasharray:none" />
      <path
         d="M1.892 19.055h6.31v61.766c-.935.234-1.754.543-2.504.861-1.26.534-2.327 1.067-3.517 1.36l-.289-4.197zm26.501 0h33.988v62.563c-1.502-.625-3.276-1.204-5.723-1.204-2.814 0-4.739.765-6.383 1.486s-2.986 1.373-4.889 1.373-3.245-.652-4.889-1.373-3.567-1.486-6.381-1.486c-2.448 0-4.222.579-5.724 1.205zm54.18 0h6.311v59.791c-.025 1.419-.125 2.817-.289 4.196-1.19-.293-2.258-.825-3.518-1.36-.75-.318-1.569-.627-2.504-.861z"
         fill="url(#L)"
         stroke="#56040c"
         id="path51"
         style="stroke-width:0.28574967;stroke-miterlimit:4;stroke-dasharray:none" />
    </g>
    <path
       d="M1.892 1.892v15.576h86.992V1.892H45.387zm8.791 2.757c1.225 0 2.186.248 2.885.743s1.225 1.256 1.565 2.282l-2.653.59c-.093-.296-.19-.513-.292-.65-.168-.23-.374-.406-.617-.53a1.77 1.77 0 0 0-.815-.186c-.681 0-1.203.274-1.565.823-.274.407-.411 1.046-.411 1.917 0 1.079.164 1.82.491 2.222s.787.597 1.379.597c.575 0 1.008-.161 1.3-.484s.511-.791.643-1.406l2.633.796c-.177.738-.455 1.355-.836 1.851a3.62 3.62 0 0 1-1.419 1.121c-.562.252-1.278.378-2.149.378-1.057 0-1.921-.153-2.593-.458s-1.245-.851-1.731-1.625-.73-1.764-.73-2.971c0-1.61.427-2.846 1.28-3.708s2.07-1.3 3.635-1.3zm44.757 0c1.225 0 2.186.248 2.885.743s1.225 1.256 1.565 2.282l-2.653.59c-.093-.296-.19-.513-.292-.65-.168-.23-.373-.406-.617-.53s-.515-.186-.816-.186c-.681 0-1.203.274-1.565.823-.274.407-.411 1.046-.411 1.917 0 1.079.164 1.82.491 2.222s.787.597 1.38.597c.575 0 1.008-.161 1.3-.484s.511-.791.643-1.406l2.633.796c-.177.738-.455 1.355-.836 1.851a3.62 3.62 0 0 1-1.42 1.121c-.562.252-1.278.378-2.149.378-1.057 0-1.921-.153-2.593-.458s-1.245-.851-1.731-1.625-.73-1.764-.73-2.971c0-1.61.427-2.846 1.28-3.708s2.07-1.3 3.635-1.3zm-36.254.166h3.011v9.723h-3.011zm7.548 0h3.004v7.329h4.69v2.394h-7.694zm14.114 0h3.276l3.655 9.723h-3.143l-.477-1.605h-3.423l-.471 1.605h-3.071zm25.649 0h3.276l3.655 9.723h-3.143l-.478-1.605h-3.422l-.471 1.605h-3.071zm10.261 0h4.994c1.088 0 1.901.259 2.441.776s.816 1.254.816 2.209c0 .982-.296 1.749-.889 2.302s-1.488.829-2.7.829h-1.645v3.608h-3.017zm3.017 1.977V8.96h.736c.579 0 .986-.1 1.221-.299a.98.98 0 0 0 .351-.776 1.08 1.08 0 0 0-.305-.776c-.203-.212-.586-.318-1.148-.318zm-37.322.544l-1.068 3.495h2.142zm25.649 0l-1.068 3.495h2.143z"
       id="path371"
       style="stroke-width:0.28574967;stroke-miterlimit:4;stroke-dasharray:none" />
  </g>
  <g
     transform="matrix(.653512 0 0 1.069936 5.850445 1.780463)"
     id="g145">
    <use
       xlink:href="#M"
       class="U W c"
       id="use81" />
    <use
       xlink:href="#N"
       class="V"
       id="use83" />
    <use
       xlink:href="#O"
       class="W Z d"
       id="use85" />
    <use
       xlink:href="#P"
       class="e"
       id="use87" />
    <use
       xlink:href="#M"
       y="6.799"
       class="U W c"
       id="use89" />
    <use
       xlink:href="#N"
       y="6.799"
       class="V"
       id="use91" />
    <use
       xlink:href="#O"
       y="6.799"
       class="W Z d"
       id="use93" />
    <use
       xlink:href="#P"
       y="6.799"
       class="e"
       id="use95" />
    <use
       xlink:href="#M"
       y="13.598"
       class="U W c"
       id="use97" />
    <use
       xlink:href="#N"
       y="13.598"
       class="V"
       id="use99" />
    <use
       xlink:href="#O"
       y="13.598"
       class="W Z d"
       id="use101" />
    <use
       xlink:href="#P"
       y="13.598"
       class="e"
       id="use103" />
    <use
       xlink:href="#M"
       y="20.397"
       class="U W c"
       id="use105" />
    <use
       xlink:href="#N"
       y="20.397"
       class="V"
       id="use107" />
    <use
       xlink:href="#O"
       y="20.397"
       class="W Z d"
       id="use109" />
    <use
       xlink:href="#P"
       y="20.397"
       class="e"
       id="use111" />
    <use
       xlink:href="#M"
       y="27.196"
       class="U W c"
       id="use113" />
    <use
       xlink:href="#N"
       y="27.196"
       class="V"
       id="use115" />
    <use
       xlink:href="#O"
       y="27.196"
       class="W Z d"
       id="use117" />
    <use
       xlink:href="#P"
       y="27.196"
       class="e"
       id="use119" />
    <use
       xlink:href="#M"
       y="33.995"
       class="U W c"
       id="use121" />
    <use
       xlink:href="#N"
       y="33.995"
       class="V"
       id="use123" />
    <use
       xlink:href="#O"
       y="33.995"
       class="W Z d"
       id="use125" />
    <use
       xlink:href="#P"
       y="33.995"
       class="e"
       id="use127" />
    <use
       xlink:href="#M"
       y="40.795"
       class="U W c"
       id="use129" />
    <use
       xlink:href="#N"
       y="40.794"
       class="V"
       id="use131" />
    <use
       xlink:href="#O"
       y="40.794"
       class="W Z d"
       id="use133" />
    <use
       xlink:href="#P"
       y="40.794"
       class="e"
       id="use135" />
    <use
       xlink:href="#M"
       y="47.594"
       class="U W c"
       id="use137" />
    <use
       xlink:href="#N"
       y="47.593"
       class="V"
       id="use139" />
    <use
       xlink:href="#O"
       y="47.593"
       class="W Z d"
       id="use141" />
    <use
       xlink:href="#P"
       y="47.593"
       class="e"
       id="use143" />
  </g>
  <g
     id="g1257">
    <use
       xlink:href="#Q"
       class="V X h"
       id="use147" />
    <use
       xlink:href="#R"
       class="U"
       id="use149" />
    <g
       transform="matrix(-.555076 .036904 .046424 .698263 115.571683 24.547611)"
       id="g155">
      <use
         xlink:href="#S"
         class="V X Y"
         id="use151" />
      <use
         xlink:href="#T"
         class="U"
         id="use153" />
    </g>
    <g
       transform="matrix(-.532777 .16006 .201349 .670213 99.47436 16.997431)"
       id="g161">
      <use
         xlink:href="#S"
         class="V X Y"
         id="use157" />
      <use
         xlink:href="#T"
         class="U"
         id="use159" />
    </g>
    <use
       xlink:href="#Q"
       y="-9.454"
       class="V X h"
       id="use163" />
    <use
       xlink:href="#R"
       y="-9.454"
       class="U"
       id="use165" />
    <g
       transform="matrix(-.555076 .036904 .046424 .698263 115.571683 15.776883)"
       id="g171">
      <use
         xlink:href="#S"
         class="V X Y"
         id="use167" />
      <use
         xlink:href="#T"
         class="U"
         id="use169" />
    </g>
    <g
       transform="matrix(-.532777 .16006 .201349 .670213 99.47436 7.54327)"
       id="g177">
      <use
         xlink:href="#S"
         class="V X Y"
         id="use173" />
      <use
         xlink:href="#T"
         class="U"
         id="use175" />
    </g>
    <use
       xlink:href="#Q"
       x="-0.057"
       y="-19.364"
       class="V X h"
       id="use179" />
    <use
       xlink:href="#R"
       x="-0.057"
       y="-19.364"
       class="U"
       id="use181" />
    <g
       transform="matrix(-.555076 .036904 .046424 .698263 115.742541 5.810147)"
       id="g187">
      <use
         xlink:href="#S"
         class="V X Y"
         id="use183" />
      <use
         xlink:href="#T"
         class="U"
         id="use185" />
    </g>
    <g
       transform="matrix(-.532777 .16006 .201349 .670213 99.531313 -2.366514)"
       id="g193">
      <use
         xlink:href="#S"
         class="V X Y"
         id="use189" />
      <use
         xlink:href="#T"
         class="U"
         id="use191" />
    </g>
    <g
       transform="matrix(-.555076 .036904 .046424 .698263 115.628636 -3.416203)"
       id="g199">
      <use
         xlink:href="#S"
         class="V X Y"
         id="use195" />
      <use
         xlink:href="#T"
         class="U"
         id="use197" />
    </g>
    <g
       transform="matrix(-.555076 .036904 .046424 .698263 115.571683 -13.610751)"
       id="g205">
      <use
         xlink:href="#S"
         class="V X Y"
         id="use201" />
      <use
         xlink:href="#T"
         class="U"
         id="use203" />
    </g>
    <g
       transform="matrix(-.532777 .16006 .201349 .670213 99.417407 -11.649817)"
       id="g211">
      <use
         xlink:href="#S"
         class="V X Y"
         id="use207" />
      <use
         xlink:href="#T"
         class="U"
         id="use209" />
    </g>
    <use
       xlink:href="#Q"
       x="-0.171"
       y="-28.647"
       class="V X h"
       id="use213" />
    <use
       xlink:href="#R"
       x="-0.171"
       y="-28.647"
       class="U"
       id="use215" />
    <use
       xlink:href="#Q"
       x="-0.057"
       y="-38.842"
       class="V X h"
       id="use217" />
    <use
       xlink:href="#R"
       x="-0.057"
       y="-38.841"
       class="U"
       id="use219" />
    <g
       transform="matrix(-.532777 .16006 .201349 .670213 99.531313 -21.844364)"
       id="g225">
      <use
         xlink:href="#S"
         class="V X Y"
         id="use221" />
      <use
         xlink:href="#T"
         class="U"
         id="use223" />
    </g>
    <g
       transform="matrix(.524194 .186259 -.234306 .659414 47.231173 -32.14239)"
       id="g231">
      <use
         xlink:href="#S"
         class="V X Y"
         id="use227" />
      <use
         xlink:href="#T"
         class="U"
         id="use229" />
    </g>
    <g
       transform="matrix(-.516275 .207197 .260646 .649454 96.414454 -32.988116)"
       id="g237">
      <use
         xlink:href="#S"
         class="V X Y"
         id="use233" />
      <use
         xlink:href="#T"
         class="U"
         id="use235" />
    </g>
  </g>
  <g
     id="g1410">
    <g
       stroke="#033a66"
       class="j"
       id="g255">
      <use
         xlink:href="#U"
         class="n"
         id="use239" />
      <use
         xlink:href="#V"
         class="o"
         id="use241" />
      <use
         xlink:href="#U"
         class="n"
         id="use243" />
      <use
         xlink:href="#V"
         class="o"
         id="use245" />
      <path
         d="M76.236 90.501l1.611 5.396-4.551-3.101c.562-.903 1.13-2.16 2.94-2.295z"
         class="n"
         id="path247" />
      <g
         class="o"
         id="g253">
        <path
           d="M76.236 90.501c2.449-.596 6.85 1.83 4.148 4.188l-6 6-4.309-.604c-1.319-.291-1.163-1.586.362-2.215 7.961-3.28 5.516-6.858 5.799-7.37z"
           id="path249" />
        <path
           d="M18.164 97.83l-5.316.322c4.245 7.4 13.339 21.67 32.54 22.955 19.201-1.284 28.294-15.555 32.54-22.955l-5.316-.322c-4.983 7.212-12.7 17.356-27.224 18.444-14.524-1.088-22.241-11.232-27.224-18.444z"
           id="path251" />
      </g>
    </g>
    <path
       d="M17.072 101.448q-.295.193-.516.212-.404.033-.7-.421-.171-.262-.151-.54.022-.279.385-.516l.167-.109.194.297-.167.109q-.19.124-.232.272-.039.148.078.327.165.252.388.217.137-.022.433-.214l1.553-1.014.204.313zm1.529 1.646l.754-1.059-1.261.351zm.975-1.46l.248.347-1.675 2.441-.24-.336.514-.715-.641-.895-.853.24-.225-.314zm.114.159zm1.013 1.378l.235.295-1.919 1.527.878 1.103-.259.206-1.113-1.398zm1.147 3.927l.639-1.132-1.218.481zm.817-1.554l.283.319-1.411 2.603-.274-.309.436-.765-.731-.823-.823.328-.257-.289zm.13.146zm1.827 3.543q.175.162.317.204.224.065.408-.133.185-.2.087-.42-.056-.124-.236-.291l-.493-.457-.586.632zm-.78 1.028q.254.236.499.189.154-.03.277-.162.206-.222.082-.487-.066-.141-.239-.302l-.549-.509-.666.718zm.806-2.609l.877.813q.359.332.312.687-.028.209-.182.374-.179.193-.403.215-.118.013-.275-.032.102.205.11.352.014.261-.204.496-.183.197-.455.242-.406.068-.809-.306l-.863-.8zm1.963 1.794l.298.237-.715.901 1.134.899.715-.901.298.237L26.614 113l-.298-.237.809-1.02-1.134-.899-.809 1.02-.298-.237zm2.568 1.96l-.951 1.434q-.168.253-.184.483-.027.346.306.567.4.265.724.087.176-.097.342-.348l.951-1.434.319.212-.864 1.303q-.284.428-.552.582-.49.28-1.078-.11-.587-.39-.519-.949.038-.307.321-.735l.864-1.303zm.595.395zm1.402.911l.476.255-.404 2.452 1.809-1.701.471.252-1.312 2.455-.316-.169.774-1.449q.04-.075.136-.247.096-.172.202-.371l-1.807 1.696-.329-.176.401-2.447-.04.075q-.048.09-.144.278-.093.187-.14.273l-.774 1.449-.318-.17zm3.023 1.538l.348.155-1.134 2.542-.348-.155zm2.27.951l-.174 2.318 1.275-1.974.391.122-.074 2.349 1.176-2.005.394.123-1.528 2.439-.378-.118.075-2.394-1.305 2.01-.378-.118.135-2.874zm3.475 1.001l.371.086L39.69 119l-.371-.086zm2.093 2.41q-.062.347-.2.52-.253.316-.787.22-.308-.055-.496-.261-.188-.207-.111-.634l.035-.196.349.063-.035.196q-.04.224.038.355.081.13.291.168.297.053.424-.133.078-.115.141-.462l.329-1.826.367.066zm2.232-.027l-.279-1.27-.587 1.17zm-.428-1.703l.424.049.685 2.881-.41-.047-.185-.861-1.094-.126-.395.794-.384-.044zm.194.022zm.848.146l.439-.028.882 1.285.714-1.385.441-.028-.945 1.724.07 1.12-.376.024-.07-1.12zm1.242-.078zm2.938 1.266l-.61-1.148-.25 1.285zm-.87-1.525l.421-.067 1.434 2.59-.408.065-.41-.779-1.087.173-.167.871-.382.061zm.193-.031zm1.605-.279l.357-.086.318 1.319 1.001-1.637.507-.122-.863 1.362 1.546 1.337-.477.115-1.274-1.13-.333.519.227.943-.357.086zm2.928-.762l.544 1.632q.096.288.267.442.256.234.635.108.455-.151.515-.517.032-.198-.063-.484l-.544-1.632.363-.121.494 1.483q.162.487.118.793-.082.558-.75.781-.669.223-1.067-.176-.219-.219-.381-.706l-.494-1.483zm.678-.226zm2.579 1.065q.106.212.255.309.282.179.717-.009.195-.084.331-.209.263-.242.142-.52-.09-.209-.259-.241-.17-.03-.479.028l-.38.072q-.372.07-.553.039-.313-.055-.45-.373-.149-.344-.006-.668.143-.324.579-.513.402-.174.766-.1.365.071.55.497l-.325.141q-.115-.194-.248-.267-.245-.131-.624.033-.306.132-.384.319-.078.187-.004.357.081.188.275.207.127.011.524-.062l.394-.073q.285-.053.47-.011.321.074.469.415.184.424-.047.741-.229.316-.637.493-.476.206-.851.079-.374-.125-.548-.541zm-.08-2.102zm1.852-.783l.818 1.513q.144.267.34.389.293.186.644-.004.422-.228.417-.598-.003-.201-.146-.466l-.818-1.513.337-.182.744 1.375q.244.452.254.761.016.564-.604.899-.62.335-1.081.012-.253-.178-.498-.629l-.744-1.375zm.628-.34zm1.462-.811l.449-.301 1.974 1.51-.651-2.397.444-.297 1.55 2.312-.297.199-.915-1.365q-.047-.071-.154-.237-.107-.166-.232-.353l.647 2.392-.31.208-1.971-1.505.047.071q.057.085.177.258.121.17.176.252l.915 1.365-.299.2zm4.833-1.469l-1.098-.696.418 1.241zm-1.51-.895l.333-.266 2.528 1.542-.322.258-.741-.474-.859.688.286.839-.302.242zm.152-.122zm2.811-2.63q.375-.373.778-.381.403-.008.676.221l-.261.259q-.234-.147-.478-.126-.243.019-.482.257-.292.29-.267.674.024.382.445.805.345.347.721.403.376.053.698-.266.296-.294.225-.675-.037-.201-.19-.436l.261-.259q.275.347.288.753.017.488-.354.856l.031.209q.027-.051.089-.112.094-.094.208-.1.117-.006.217.094.102.102.094.256-.007.154-.174.32-.071.071-.168.127-.054.032-.153.077l-.061-.156q.07-.032.106-.052.07-.04.114-.084.05-.049.071-.1.042-.098-.032-.172-.043-.043-.111-.039-.066.004-.125.063-.03.029-.048.059-.018.028-.038.072l-.102-.008-.05-.324q-.235.234-.656.281-.608.014-1.18-.561-.434-.437-.481-.946-.052-.552.388-.989zm3.419-1.158l-1.203-.493.628 1.148zm-1.644-.617l.281-.321 2.759 1.076-.272.311-.813-.338-.726.828.428.776-.255.291zm.129-.147zm1.092-1.28l.225-.29 1.072.832-.24-1.904.32-.412.176 1.602 2.042.079-.301.388-1.7-.087.064.613.766.595-.225.29zm2.803-3.817l.272.19-.536.77 2.012 1.402-.219.314-2.012-1.402-.536.77-.272-.19zm.322-.51l.207-.32 2.335 1.515-.207.32z"
       class="b g"
       id="path257" />
  </g>
  <g
     stroke="silver"
     transform="translate(105.151 -.191)"
     id="g281">
    <path
       d="M-225.877 406.434l-3.49 11.188 1.52 7.291h1.971 1.971l1.521-7.291z"
       transform="scale(.26458349)"
       fill="url(#K)"
       id="path259" />
    <g
       class="j"
       id="g277">
      <path
         d="M-69.824 108.837c4.557-1.643 9.704 2.631 10.061-1.301-4.798.099-8.062-3.189-10.061 1.301z"
         fill="url(#H)"
         id="path261" />
      <path
         d="M-66.322 112.88c-.066-4.129 3.985-.778 6.558-5.345-.234 1.025-.085 1.596-.394 2.178-1.601 3.013-4.475 1.146-6.164 3.167z"
         fill="url(#G)"
         id="path263" />
      <path
         d="M-49.702 108.837c-4.557-1.643-9.704 2.631-10.061-1.301 4.798.099 8.062-3.189 10.061 1.301z"
         fill="url(#J)"
         id="path265" />
      <path
         d="M-53.205 112.88c.066-4.129-3.985-.778-6.558-5.345.234 1.025.085 1.596.394 2.178 1.601 3.013 4.475 1.146 6.164 3.167z"
         fill="url(#I)"
         id="path267" />
      <path
         d="M-68.742 94.485c.589 1.762 1.572 2.173 1.481 6.265-.315 5.262 4.063 3.507 5.695 6.55l.703.064c-.863-6.354-3.585-10.854-7.879-12.878z"
         fill="url(#B)"
         id="path269" />
      <path
         d="M-60.191 107.455l-.672-.092c-2.107-2.086-4.774-3.857-4.576-7.24.409-3.012-.203-5.515-.94-7.632 2.789 1.12 4.528 3.257 4.813 6.806.075 2.762.618 5.472 1.375 8.158z"
         fill="url(#C)"
         id="path271" />
      <path
         d="M-50.784 94.485c-.589 1.762-1.572 2.173-1.481 6.265.315 5.262-4.063 3.507-5.695 6.55l-.703.064c.863-6.354 3.585-10.854 7.879-12.878z"
         fill="url(#F)"
         id="path273" />
      <path
         d="M-59.335 107.455l.672-.092c2.107-2.086 4.774-3.857 4.576-7.24-.409-3.012.203-5.515.94-7.632-2.789 1.12-4.528 3.257-4.813 6.806-.075 2.762-.618 5.472-1.375 8.158z"
         fill="url(#E)"
         id="path275" />
    </g>
    <path
       d="M-225.877 341.631c-9.712 10.394-14.164 22.081-9.893 35.92l8.275 28.578 1.617.305 1.617-.305 8.277-28.578c4.272-13.839-.183-25.526-9.895-35.92z"
       transform="scale(.26458349)"
       fill="url(#D)"
       id="path279" />
  </g>
  <g
     fill="none"
     class="k"
     id="g317"
     transform="matrix(-1,0,0,1,-15.09827,-0.191)">
    <use
       xlink:href="#Y"
       x="-105.874"
       y="0.191"
       class="a l"
       id="use313"
       width="100%"
       height="100%" />
    <path
       d="m -76.836,104.451 c 0.369,0.598 1.34,1.5 2.695,2.116"
       class="p"
       id="path315" />
  </g>
  <g
     id="g1289">
    <g
       transform="matrix(.760493 0 0 .760493 8.54399 8.196717)"
       id="g79">
      <path
         d="M42.762 21.993l3.4 2.507-.001.006"
         class="U"
         id="path55" />
      <path
         d="M48.439 17.851l-1.441 4.13-.003.006-4.255-.009.021.016 3.399 2.513-1.242 4.177.026-.018 3.493-2.513.006-.005 3.53 2.383-.003-.008-1.299-4.062.001-.001 3.472-2.479.006-.005-4.242.009h-.01l-1.456-4.156z"
         class="b"
         id="path57" />
      <path
         d="M49.911 21.987h-.01l-1.456-4.156-.006.019v5.913z"
         class="V"
         id="path59" />
      <g
         class="U"
         id="g65">
        <path
           d="M48.439 23.769v-.005l-5.677-1.77 3.4 2.507-.001.006z"
           id="path61" />
        <path
           d="M46.998 21.981l1.437 1.782.004.001v-5.913z"
           id="path63" />
      </g>
      <path
         d="M48.435 23.763l-1.437-1.782-.003.006-4.255-.009.021.016z"
         class="V"
         id="path67" />
      <path
         d="M48.443 23.759l5.705-1.777.006-.005-4.242.009z"
         class="U"
         id="path69" />
      <path
         d="M54.147 21.982l-5.705 1.777-.004.004h0l2.236.697z"
         class="V"
         id="path71" />
      <path
         d="M51.973 28.523l-1.299-4.062.001-.001-2.236-.697v.005z"
         class="U"
         id="path73" />
      <path
         d="M51.973 28.523l-3.534-4.755v2.385l.006-.005 3.53 2.383zm-7.028.143l3.482-4.893-2.267.734-1.242 4.177z"
         class="V"
         id="path75" />
      <path
         d="M48.439 23.769l-.011.004-3.482 4.893 3.493-2.513z"
         class="U"
         id="path77" />
    </g>
    <path
       d="M45.387 32.158c-1.742 1.205-3.419 1.719-3.112 6.607-1.387-.843-1.18-2.042-1.708-3.076-.16 2.646-.911 4.872-.114 8.202-2.34-1.045-2.106-2.558-2.962-3.873-.568 2.178-1.1 4.37.114 7.29-2.095-1.367-2.149-2.734-2.848-4.101-.742 3.186-2.229 6.258.797 10.024-2.673-.845-3.919-1.929-4.784-3.075-.416 12.364 3.582 16.407 6.948 21.642h7.669 7.669c3.366-5.235 7.365-9.278 6.948-21.642-.865 1.147-2.111 2.23-4.784 3.075 3.026-3.766 1.539-6.837.797-10.024-.699 1.367-.752 2.734-2.847 4.101 1.215-2.92.681-5.112.114-7.29-.855 1.315-.621 2.828-2.962 3.873.796-3.33.047-5.555-.114-8.202-.529 1.034-.321 2.232-1.708 3.076.306-4.888-1.371-5.402-3.113-6.607z"
       class="V i"
       id="path337" />
    <path
       d="M38.848 71.916h2.131l4.263-29.112h-.853zm13.079 0h-2.131l-4.263-29.112h.853z"
       stroke="gray"
       stroke-width=".256"
       class="b"
       id="path339" />
    <path
       d="M40.681 62.287h9.412l-1.853-.988h-5.706zm1.083-5.687h7.247l-1.559-.688h-4.128z"
       id="path341" />
    <g
       fill="none"
       class="W j"
       id="g347">
      <path
         d="M42.39 62.287l6.655 4.507"
         id="path343" />
      <path
         d="M48.385 62.287l-6.655 4.507"
         id="path345" />
    </g>
    <g
       stroke="#696969"
       id="g369">
      <g
         stroke-width=".213"
         id="g363">
        <path
           d="M34.643 72.936l-.342 2.962h11.086 11.086l-.342-2.962H45.387z"
           fill="gray"
           class="g"
           id="path349" />
        <g
           class="b"
           id="g355">
          <path
             d="M35.583 69.969l-.312 2.974h10.116 10.116l-.312-2.974h-9.805z"
             class="g"
             id="path351" />
          <path
             d="M38.28 73.748h14.216v2.215H38.28z"
             
             class="a f i"
             id="path353" />
        </g>
        <path
           d="M39.423 71.423h11.929v2.325H39.423z"
           fill="gray"
           
           class="a f i"
           id="path357" />
        <path
           d="M38.041 69.024h14.693v2.399H38.041z"
           
           class="a b f i"
           id="path359" />
        <path
           d="M40.403 67.029h9.969v1.995h-9.969z"
           
           fill="gray"
           class="a f i"
           id="path361" />
      </g>
      <path
         d="M44.39 40.957h1.995v1.846H44.39z"
         fill="gray"
         stroke-width=".212"
         
         class="a f g"
         id="path365" />
      <path
         d="M45.387 38.58c-.41 0-.763 1.391-.763 1.907 0 .47.492.443.763.47.271-.027.763 0 .763-.47 0-.517-.353-1.907-.763-1.907z"
         fill="gray"
         class="j"
         id="path367" />
    </g>
  </g>
  <g
     id="g1398">
    <g
       id="g1304">
      <use
         xlink:href="#W"
         fill="#cdcdcd"
         id="use283" />
      <use
         xlink:href="#X"
         class="b"
         id="use285" />
      <g
         fill="none"
         class="k"
         id="g291">
        <use
           xlink:href="#Y"
           class="a l"
           id="use287" />
        <path
           d="M29.038 104.26c.369.598 1.34 1.5 2.695 2.116"
           class="p"
           id="path289" />
      </g>
      <path
         d="M31.107 104.717c0 .032-.013.063-.035.085s-.053.035-.085.035-.063-.013-.085-.035-.035-.053-.035-.085c0-.067.054-.121.121-.121s.121.054.121.121z"
         
         class="f g"
         id="path293" />
      <g
         class="k"
         id="g307">
        <g
           class="l"
           id="g299">
          <use
             xlink:href="#Z"
             class="m"
             id="use295" />
          <use
             xlink:href="#a"
             fill="#b7b7b7"
             class="a"
             id="use297" />
        </g>
        <g
           class="m q"
           id="g305">
          <use
             xlink:href="#b"
             id="use301" />
          <use
             xlink:href="#c"
             id="use303" />
        </g>
      </g>
    </g>
    <g
       id="g1368"
       transform="matrix(-1,0,0,1,90.77573,0)">
      <use
         xlink:href="#W"
         fill="#cdcdcd"
         id="use1342"
         x="0"
         y="0"
         width="100%"
         height="100%" />
      <use
         xlink:href="#X"
         class="b"
         id="use1344"
         x="0"
         y="0"
         width="100%"
         height="100%" />
      <g
         fill="none"
         class="k"
         id="g1350">
        <use
           xlink:href="#Y"
           class="a l"
           id="use1346"
           x="0"
           y="0"
           width="100%"
           height="100%" />
        <path
           d="m 29.038,104.26 c 0.369,0.598 1.34,1.5 2.695,2.116"
           class="p"
           id="path1348" />
      </g>
      <path
         d="m 31.107,104.717 c 0,0.032 -0.013,0.063 -0.035,0.085 -0.022,0.022 -0.053,0.035 -0.085,0.035 -0.032,0 -0.063,-0.013 -0.085,-0.035 -0.022,-0.022 -0.035,-0.053 -0.035,-0.085 0,-0.067 0.054,-0.121 0.121,-0.121 0.067,0 0.121,0.054 0.121,0.121 z"
         
         class="f g"
         id="path1352" />
      <g
         class="k"
         id="g1366">
        <g
           class="l"
           id="g1358">
          <use
             xlink:href="#Z"
             class="m"
             id="use1354"
             x="0"
             y="0"
             width="100%"
             height="100%" />
          <use
             xlink:href="#a"
             fill="#b7b7b7"
             class="a"
             id="use1356"
             x="0"
             y="0"
             width="100%"
             height="100%" />
        </g>
        <g
           class="m q"
           id="g1364">
          <use
             xlink:href="#b"
             id="use1360"
             x="0"
             y="0"
             width="100%"
             height="100%" />
          <use
             xlink:href="#c"
             id="use1362"
             x="0"
             y="0"
             width="100%"
             height="100%" />
        </g>
      </g>
    </g>
  </g>
</svg>
