<?xml version="1.0" encoding="UTF-8" standalone="no"?>
<svg
   xmlns:dc="http://purl.org/dc/elements/1.1/"
   xmlns:cc="http://creativecommons.org/ns#"
   xmlns:rdf="http://www.w3.org/1999/02/22-rdf-syntax-ns#"
   xmlns:svg="http://www.w3.org/2000/svg"
   xmlns="http://www.w3.org/2000/svg"
   xmlns:sodipodi="http://sodipodi.sourceforge.net/DTD/sodipodi-0.dtd"
   xmlns:inkscape="http://www.inkscape.org/namespaces/inkscape"
   width="277.44067"
   height="354.20395"
   viewBox="0 0 73.406126 93.716374"
   version="1.1"
   id="svg493"
   sodipodi:docname="Seal_of_Mojokerto_Regency.svg"
   inkscape:version="1.0.1 (3bc2e813f5, 2020-09-07)">
  <metadata
     id="metadata497">
    <rdf:RDF>
      <cc:Work
         rdf:about="">
        <dc:format>image/svg+xml</dc:format>
        <dc:type
           rdf:resource="http://purl.org/dc/dcmitype/StillImage" />
        <dc:title></dc:title>
      </cc:Work>
    </rdf:RDF>
  </metadata>
  <sodipodi:namedview
     pagecolor="#ffffff"
     bordercolor="#666666"
     borderopacity="1"
     objecttolerance="10"
     gridtolerance="10"
     guidetolerance="10"
     inkscape:pageopacity="0"
     inkscape:pageshadow="2"
     inkscape:window-width="1366"
     inkscape:window-height="705"
     id="namedview495"
     showgrid="false"
     inkscape:zoom="1.4665527"
     inkscape:cx="140.90162"
     inkscape:cy="205.37026"
     inkscape:window-x="-8"
     inkscape:window-y="-8"
     inkscape:window-maximized="1"
     inkscape:current-layer="svg493"
     inkscape:document-rotation="0"
     inkscape:snap-bbox="true"
     inkscape:bbox-paths="true"
     inkscape:bbox-nodes="true"
     inkscape:snap-bbox-edge-midpoints="true"
     inkscape:snap-bbox-midpoints="true"
     inkscape:object-paths="true"
     inkscape:snap-smooth-nodes="true"
     inkscape:snap-intersection-paths="true"
     inkscape:snap-midpoints="true"
     inkscape:snap-object-midpoints="true"
     inkscape:snap-center="true"
     fit-margin-top="0"
     fit-margin-left="0"
     fit-margin-right="0"
     fit-margin-bottom="0"
     inkscape:snap-global="true"
     showguides="true"
     inkscape:guide-bbox="true" />
  <style
     id="style2"><![CDATA[.B{fill:#ff0}.C{stroke:#ffba00}.D{fill:#ffffb9}.E{stroke-width:.238}.F{opacity:.999}.G{fill-rule:evenodd}.H{stroke-width:.265}.I{stroke-linejoin:round}.J{fill:#fff}.K{fill:#018f50}.L{stroke:#005b31}.M{fill:#f3f3f3}.N{stroke:#e2e2e2}.O{fill:#005b31}.P{fill:#ff4747}.Q{fill:#ff8787}.R{stroke:#8b0000}.S{stroke-width:.278}.T{stroke-width:.247}.U{stroke-width:.302}.V{stroke-width:.305}]]></style>
  <g
     id="g1046"
     transform="translate(-94.957397,-4.1906624)">
    <path
       style="fill:#ff0000;stroke:none;stroke-width:2.44984;stroke-linecap:butt;stroke-linejoin:miter;stroke-miterlimit:4;stroke-dasharray:none;stroke-opacity:1"
       d="M 131.66057,96.330978 V 5.6801659 c -6.61213,0 -11.79596,0.4428527 -18.64974,1.8547481 -0.73367,4.936009 -7.77409,12.758132 -16.56393,14.606141 v 36.97904 c 0,16.913872 30.12563,35.44601 35.21367,37.210883 z"
       id="path1040"
       sodipodi:nodetypes="cccccc" />
    <path
       style="fill:#ffffff;stroke:none;stroke-width:2.44984;stroke-linecap:butt;stroke-linejoin:miter;stroke-miterlimit:4;stroke-dasharray:none;stroke-opacity:1"
       d="M 131.66057,96.330978 V 5.6801655 c 6.61214,0 11.79596,0.4428527 18.64975,1.8547481 0.73366,4.9360094 7.77408,12.7581324 16.56393,14.6061414 v 36.97904 c 0,16.913872 -30.12564,35.44601 -35.21368,37.210883 z"
       id="path1042"
       sodipodi:nodetypes="cccccc" />
  </g>
  <g
     id="g2635"
     transform="translate(0.59618214,-4.1906624)">
    <g
       id="g2448">
      <path
         d="m 36.107,16.801 c -16.844,0 -30.493,13.648 -30.493,30.493 0,16.845 13.648,30.493 30.493,30.493 16.845,0 30.492,-13.648 30.492,-30.493 0,-16.845 -13.648,-30.493 -30.493,-30.493 z m 0,1.877 A 28.58,28.58 0 0 1 64.722,47.293 28.58,28.58 0 0 1 36.107,75.908 28.58,28.58 0 0 1 7.492,47.293 c 0,-15.833 12.783,-28.615 28.615,-28.615 z"
         stroke-width="0.3"
         class="B C"
         id="path14"
         style="fill:#aaaa00;fill-opacity:1;fill-rule:evenodd;stroke:#3c3c00;stroke-opacity:1" />
    </g>
    <path
       d="m 36.107,18.678 c 15.833,0 28.615,12.782 28.615,28.615 0,15.833 -12.783,28.615 -28.615,28.615 -15.832,0 -28.615,-12.782 -28.615,-28.615 0,-15.833 12.782,-28.615 28.615,-28.615 z"
       fill="#393939"
       id="path12"
       style="fill-rule:evenodd" />
    <path
       d="m 36.107,17.396 c -16.522,0 -29.897,13.375 -29.897,29.897 0,16.522 13.374,29.897 29.897,29.897 16.523,0 29.897,-13.375 29.897,-29.897 0,-16.522 -13.375,-29.897 -29.897,-29.897 z m 0,0.686 c 16.153,0 29.211,13.057 29.211,29.211 0,16.154 -13.058,29.211 -29.211,29.211 -16.153,0 -29.211,-13.058 -29.211,-29.211 0,-16.153 13.057,-29.211 29.211,-29.211 z"
       class="D"
       id="path16"
       style="fill:#ffff00;fill-opacity:1;fill-rule:evenodd" />
  </g>
  <g
     id="g2476"
     transform="translate(0.59618214,-4.1906624)">
    <path
       id="use24"
       d="m 25.927503,22.893426 c 0.288329,-0.552735 0.259956,-1.394255 0.881524,-1.69396 0.661511,-0.02908 1.141381,-0.882969 1.789292,-0.339183 0.529638,0.227975 1.258521,-0.225136 1.400551,0.640093 0.393518,0.234933 1.274169,0.198147 1.349858,0.952367 0.309589,0.56271 -0.162724,1.179691 -0.540654,1.37204 0.200382,0.509065 0.0175,1.432424 -0.686872,1.31884 -0.59763,-0.228996 -0.803731,0.175956 -0.735545,0.697038 -0.310902,0.657408 -1.081825,0.246791 -1.567069,0.05949 a 5.11,5.11 0 0 0 -1.578125,-0.669762 c -0.502928,-0.541609 -0.315935,-1.4059 -0.319682,-2.089033 l 0.0038,-0.122956 z"
       style="fill:#f3f3f3;stroke:#e2e2e2;stroke-width:0.265" />
    <path
       id="use26"
       d="m 28.630802,21.627857 c -0.293887,-0.409457 -0.939282,-0.188119 -0.969589,0.298481 -0.233465,0.162514 -0.629005,-0.337479 -0.822459,0.157674 -0.156077,0.403703 -0.207615,0.838978 -0.242051,1.26751 -0.150597,0.371781 -0.279992,0.796887 -0.01128,1.15096 0.107368,0.442661 0.594835,0.28196 0.910773,0.421717 0.367962,0.138539 0.780199,0.325747 1.17582,0.220673 0.185876,-0.190232 0.0439,-0.659415 0.488646,-0.505723 0.314589,0.02972 0.811251,0.189198 0.928663,-0.237088 0.201111,-0.33902 -0.351721,-0.887379 0.225204,-0.944727 0.395631,-0.03907 0.627399,-0.42163 0.476895,-0.788931 -0.1319,-0.474033 -0.718918,-0.543851 -1.121869,-0.416885 -0.197801,-0.147985 -0.007,-0.66618 -0.433504,-0.702585 -0.370616,-0.161581 -0.478669,0.773902 -0.604268,0.07994 z"
       style="fill:#ffffff" />
    <path
       id="use28"
       d="m 26.083495,22.428715 c -0.404667,1.174058 -0.09662,1.639734 0.941405,1.379285 -0.918048,1.06234 0.300056,1.397661 0.69787,2.012701 -0.999196,0.272034 -2.074711,0.364902 -3.504922,-0.364647 0.289676,-1.308799 1.034237,-2.206725 1.865647,-3.027339 z"
       style="fill:#018f50;stroke:#005b31;stroke-width:0.265" />
    <path
       id="use30"
       d="m 19.991291,28.926009 c -1.071839,-1.8843 -0.495839,-2.812759 -0.454245,-4.051274 0.359633,0.160415 0.606771,0.486161 0.870313,0.785151 0.09305,-0.868702 0.34333,-1.685037 1.211629,-2.298074 0.296302,0.448498 0.308131,0.859722 0.165218,1.252621 0.519231,-0.944313 1.233362,-1.480655 2.085259,-1.733898 0.147539,0.831308 0.121782,1.34798 0.0824,1.839444 0.577343,-0.751419 1.169335,-0.213473 1.733869,-0.378019 0.0017,1.285171 -0.508358,1.352523 -0.801166,1.937194 0.541166,-0.206901 0.838928,0.277623 1.24324,0.459711 -0.439917,0.657472 -1.128733,0.973169 -2.000776,1.036088 0.403426,-0.09196 0.736251,0.122064 0.982397,0.713825 -0.715008,0.328305 -1.481299,0.541828 -2.43225,0.331531 0.467221,0.122027 0.530486,0.438012 0.613898,0.744298 -0.951682,-0.02829 -1.508735,0.437405 -3.299802,-0.637598 z"
       style="fill:#018f50;stroke:#005b31;stroke-width:0.265" />
    <path
       id="use34"
       d="m 20.033226,26.132324 c 0.60276,1.153176 0.65317,2.059035 -0.05855,2.701425 0.82641,-0.287629 1.628052,-0.457616 2.298567,-0.0205 -0.256309,-0.247875 -0.271038,-0.599136 -0.927959,-0.676004 0.658201,-0.408167 1.431063,-0.326558 2.226512,-0.150599 l -1.387462,-0.645897 c 0.692018,-0.595681 1.428044,-0.458619 2.157932,-0.445662 -0.351484,-0.170295 -0.649818,-0.4168 -1.190453,-0.311903 0.785437,-0.556274 0.995478,-0.957167 1.473629,-1.430043 -0.526014,0.330142 -1.047946,0.388315 -1.578553,1.024423 0.126851,-0.522155 0.1319,-0.925125 0.111576,-1.303473 -0.354173,0.741768 -0.36972,1.577629 -1.392131,2.130346 -0.09213,-1.191517 -0.231513,-1.033591 -0.291172,-1.456534 -0.325377,1.355269 0.348642,1.292378 -0.619107,2.06794 -0.0041,-0.79415 -0.503467,-1.038673 -0.823826,-1.483531 z"
       style="fill:#005b31" />
    <path
       id="use38"
       d="m 15.486429,31.121105 c 0.02182,-0.623036 -0.366638,-1.370074 0.06495,-1.908499 0.58432,-0.311468 0.6491,-1.288819 1.468159,-1.077553 0.576173,-0.02268 1.03844,-0.74579 1.539665,-0.02637 0.456356,0.04229 1.235073,-0.370627 1.628575,0.277243 0.521964,0.374221 0.361848,1.134555 0.103795,1.471063 0.4003,0.372907 0.633436,1.284875 -0.05107,1.486109 -0.63796,0.05108 -0.649306,0.505318 -0.3631,0.94607 0.003,0.727211 -0.869677,0.68914 -1.388258,0.729373 a 5.11,5.11 0 0 0 -1.712675,0.07617 c -0.687308,-0.271817 -0.891263,-1.132263 -1.189203,-1.747013 l -0.04955,-0.112597 z"
       style="fill:#f3f3f3;stroke:#e2e2e2;stroke-width:0.265" />
    <path
       id="use40"
       d="m 17.379816,28.8136 c -0.441716,-0.242717 -0.928593,0.235275 -0.746122,0.687383 -0.140573,0.247298 -0.713045,-0.03328 -0.674087,0.496897 0.03325,0.431545 0.174434,0.8465 0.328141,1.247996 0.02443,0.40038 0.09098,0.839731 0.486106,1.04333 0.287745,0.353101 0.658275,-0.0021 1.003596,-0.01221 0.391734,-0.03366 0.844401,-0.0425 1.156049,-0.307895 0.08568,-0.251786 -0.24472,-0.613896 0.222825,-0.666992 0.296659,-0.108828 0.813541,-0.179097 0.735668,-0.614345 0.03527,-0.392601 -0.699971,-0.64899 -0.204161,-0.949496 0.340118,-0.205839 0.384277,-0.650948 0.09011,-0.917454 -0.323406,-0.370828 -0.883155,-0.180708 -1.191976,0.107597 -0.242278,-0.04823 -0.293566,-0.59805 -0.69408,-0.446995 -0.404065,0.01402 -0.09819,0.904659 -0.510739,0.332679 z"
       style="fill:#ffffff" />
    <path
       id="use42"
       d="m 15.426797,30.634551 c 0.141124,1.233797 0.619856,1.521133 1.444125,0.838555 -0.370252,1.354361 0.873384,1.131676 1.497514,1.515071 -0.784239,0.676287 -1.714592,1.223827 -3.31959,1.182273 -0.302974,-1.305786 -0.01836,-2.436996 0.377951,-3.535899 z"
       style="fill:#018f50;stroke:#005b31;stroke-width:0.265" />
    <path
       id="use44"
       d="m 12.731585,39.123698 c -1.779567,-1.237968 -1.660204,-2.324046 -2.156708,-3.459446 0.393652,-0.01033 0.757094,0.177013 1.123799,0.333143 -0.290619,-0.823918 -0.416794,-1.668384 0.102305,-2.595904 0.460729,0.276901 0.648716,0.642832 0.689185,1.058952 0.06131,-1.075904 0.474375,-1.86775 1.133815,-2.463568 0.491569,0.68644 0.691111,1.16372 0.867493,1.62413 0.196912,-0.92692 0.963,-0.696812 1.401407,-1.088695 0.555694,1.158823 0.12452,1.439527 0.112433,2.093309 0.399061,-0.420023 0.87664,-0.111246 1.31995,-0.121289 -0.113427,0.782898 -0.598795,1.364749 -1.358476,1.797532 0.324346,-0.25692 0.716924,-0.207328 1.194172,0.22046 -0.503563,0.60452 -1.10289,1.127589 -2.051575,1.347885 0.474173,-0.09136 0.667503,0.166462 0.874829,0.406847 -0.870864,0.384831 -1.172671,1.045201 -3.252211,0.847553 z"
       style="fill:#018f50;stroke:#005b31;stroke-width:0.265" />
    <path
       id="use48"
       d="m 11.564819,36.584979 c 1.041083,0.780566 1.477161,1.576152 1.111992,2.462642 0.621617,-0.615855 1.271611,-1.114886 2.065069,-1.009613 -0.338138,-0.113131 -0.502887,-0.423709 -1.128746,-0.209809 0.417873,-0.652081 1.150386,-0.911697 1.94396,-1.095924 l -1.530357,0.01549 c 0.367532,-0.83585 1.09072,-1.029549 1.754856,-1.332578 -0.390559,-0.0021 -0.766024,-0.09587 -1.208589,0.231891 0.468812,-0.840576 0.485464,-1.292854 0.712983,-1.925685 -0.332249,0.524686 -0.778085,0.802223 -0.98255,1.604951 -0.110694,-0.525818 -0.279894,-0.891579 -0.46137,-1.224184 2.84e-4,0.821984 0.346669,1.582853 -0.337489,2.5224 -0.59689,-1.035337 -0.654557,-0.832745 -0.890753,-1.188626 0.290799,1.363107 0.871824,1.015734 0.333074,2.132776 -0.346111,-0.714773 -0.902123,-0.720067 -1.382989,-0.983311 z"
       style="fill:#005b31" />
    <path
       id="use52"
       d="M 10.089854,43.926403 C 9.8250097,43.362039 9.1385108,42.874513 9.2769085,42.198484 9.6547623,41.65473 9.2664965,40.755475 10.091729,40.569779 c 0.502362,-0.283058 0.583798,-1.137428 1.358047,-0.725927 0.425386,-0.170578 0.929939,-0.893299 1.575685,-0.496323 0.635209,0.09486 0.839627,0.844498 0.763527,1.261676 0.526346,0.149199 1.149883,0.85435 0.632584,1.345722 -0.544388,0.336516 -0.34724,0.745902 0.108533,1.007527 0.334412,0.645765 -0.45947,1.01002 -0.902575,1.282421 a 5.11,5.11 0 0 0 -1.489281,0.849177 c -0.735619,0.0717 -1.309683,-0.600916 -1.855282,-1.01202 l -0.09546,-0.07759 z"
       style="fill:#f3f3f3;stroke:#e2e2e2;stroke-width:0.265" />
    <path
       id="use54"
       d="m 10.721906,41.009212 c -0.503801,-0.01445 -0.71897,0.633026 -0.350325,0.952086 -0.01226,0.284194 -0.6496875,0.295713 -0.3731327,0.749714 0.2264767,0.368842 0.5414317,0.673678 0.8613887,0.960822 0.20441,0.345134 0.464083,0.705728 0.908577,0.706629 0.417151,0.182927 0.584818,-0.302189 0.887482,-0.468754 0.333228,-0.208682 0.732002,-0.423075 0.88824,-0.801423 -0.03863,-0.263145 -0.497852,-0.434625 -0.10603,-0.695189 0.214332,-0.232189 0.642222,-0.530543 0.374347,-0.882321 -0.147734,-0.365451 -0.918972,-0.258149 -0.614876,-0.751766 0.208742,-0.338344 0.04496,-0.754574 -0.338402,-0.857512 -0.456972,-0.182431 -0.868326,0.242131 -1.011595,0.639578 -0.237597,0.06762 -0.534088,-0.398239 -0.821569,-0.08109 -0.353164,0.196826 0.325373,0.849813 -0.3027,0.529058 z"
       style="fill:#ffffff" />
    <path
       id="use56"
       d="m 9.8148028,43.520648 c 0.6884922,1.033512 1.2455892,1.070781 1.6676462,0.08732 0.28845,1.374109 1.293506,0.60855 2.023812,0.66496 -0.389306,0.959602 -0.967372,1.871301 -2.414546,2.566595 -0.86536,-1.023728 -1.1282034,-2.160194 -1.2769122,-3.318873 z"
       style="fill:#018f50;stroke:#005b31;stroke-width:0.265" />
    <path
       id="use58"
       d="M 11.289583,52.304429 C 9.1412109,52.014735 8.7519093,50.993825 7.7920727,50.210011 8.1376521,50.021215 8.5465374,50.022107 8.9440848,49.993734 8.3095683,49.39316 7.8120076,48.699274 7.8507547,47.63708 8.3870706,47.673277 8.7213065,47.913134 8.94717,48.264957 8.5108487,47.279588 8.5171447,46.3865 8.8321108,45.555443 c 0.7506098,0.386557 1.1459296,0.720226 1.5129432,1.049451 -0.247679,-0.914665 0.539013,-1.059425 0.750337,-1.608165 1.023193,0.777652 0.767581,1.224159 1.05511,1.811444 0.163473,-0.555829 0.729326,-0.498956 1.119226,-0.71015 0.256259,0.748416 0.08982,1.487625 -0.388732,2.219339 0.171402,-0.376602 0.543365,-0.511584 1.163223,-0.348657 -0.172289,0.767683 -0.466956,1.506578 -1.210638,2.135441 0.380262,-0.297636 0.669928,-0.156417 0.964092,-0.0371 -0.599365,0.739772 -0.566639,1.465103 -2.507303,2.238003 z"
       style="fill:#018f50;stroke:#005b31;stroke-width:0.265" />
    <path
       id="use62"
       d="m 9.0930541,50.57767 c 1.2825409,0.2196 2.0335689,0.728598 2.1130779,1.684052 0.272168,-0.831631 0.622888,-1.572252 1.37698,-1.840585 -0.352509,0.0536 -0.640811,-0.1476 -1.100144,0.328285 0.07434,-0.77091 0.607719,-1.336136 1.229833,-1.862135 l -1.354729,0.712 c -0.0543,-0.91147 0.500855,-1.413784 0.953585,-1.986444 -0.348496,0.176326 -0.72539,0.264184 -0.969669,0.757761 0.03367,-0.961883 -0.157865,-1.371942 -0.244132,-2.038874 -0.05627,0.618481 -0.326373,1.068859 -0.142077,1.876456 -0.338403,-0.417398 -0.655843,-0.665675 -0.9690797,-0.878848 0.3752787,0.731316 1.0306537,1.250343 0.8505157,2.398546 -1.0035122,-0.648971 -0.9623961,-0.442383 -1.3349448,-0.651303 0.8806788,1.080291 1.2392198,0.50609 1.2694548,1.745898 -0.634099,-0.478133 -1.1312851,-0.229167 -1.679289,-0.244023 z"
       style="fill:#005b31" />
    <path
       id="use66"
       d="m 11.636999,58.201002 c -0.557,-0.28 -1.398,-0.239 -1.7070001,-0.856 -0.039,-0.661 -0.9,-1.128 -0.366,-1.784 0.22,-0.533 -0.244,-1.255 0.6190001,-1.41 0.229,-0.397 0.179,-1.277 0.932,-1.364 0.558,-0.318 1.182,0.145 1.38,0.52 0.506,-0.208 1.432,-0.039 1.329,0.667 -0.22,0.601 0.188,0.801 0.708,0.725 0.662,0.301 0.263,1.078 0.083,1.566 a 5.11,5.11 0 0 0 -0.646,1.588 c -0.534,0.511 -1.401,0.337 -2.084,0.351 l -0.123,-0.002 z"
       style="fill:#f3f3f3;stroke:#e2e2e2;stroke-width:0.265" />
    <path
       id="use68"
       d="m 10.330999,55.517002 c -0.4050001,0.3 -0.174,0.942 0.313,0.965 0.166,0.231 -0.328,0.634 0.17,0.82 0.406,0.15 0.842,0.195 1.271,0.223 0.374,0.145 0.801,0.268 1.151,-0.006 0.441,-0.114 0.273,-0.599 0.408,-0.917 0.133,-0.37 0.314,-0.785 0.203,-1.179 -0.193,-0.183 -0.66,-0.034 -0.513,-0.481 0.025,-0.315 0.177,-0.814 -0.251,-0.925 -0.342,-0.196 -0.882,0.365 -0.948,-0.211 -0.045,-0.395 -0.431,-0.621 -0.796,-0.465 -0.472,0.139 -0.533,0.727 -0.4,1.128 -0.145,0.2 -0.666,0.017 -0.696,0.444 -0.156,0.373 0.781,0.467 0.089,0.603 z"
       style="fill:#ffffff" />
    <path
       id="use70"
       d="m 11.169999,58.052002 c 1.18,0.387 1.641,0.072 1.365,-0.962 1.076,0.902 1.393,-0.321 2.002,-0.728 0.287,0.995 0.396,2.069 -0.312,3.51 -1.313,-0.27 -2.222,-1.001 -3.055,-1.82 z"
       style="fill:#018f50;stroke:#005b31;stroke-width:0.265" />
    <path
       id="use72"
       d="m 17.757999,64.046002 c -1.868,1.1 -2.805,0.538 -4.044,0.515 0.155,-0.362 0.477,-0.614 0.772,-0.882 -0.87,-0.08 -1.69,-0.318 -2.316,-1.177 0.444,-0.303 0.855,-0.321 1.25,-0.184 -0.952,-0.505 -1.499,-1.211 -1.765,-2.059 0.829,-0.16 1.346,-0.142 1.838,-0.11 -0.76,-0.566 -0.231,-1.166 -0.404,-1.728 1.285,-0.021 1.36,0.488 1.949,0.772 -0.215,-0.538 0.265,-0.843 0.441,-1.25 0.664,0.43 0.99,1.114 1.066,1.985 -0.098,-0.402 0.111,-0.738 0.699,-0.993 0.339,0.71 0.564,1.473 0.368,2.427 0.115,-0.469 0.43,-0.537 0.735,-0.625 -0.014,0.952 0.46,1.502 -0.588,3.309 z"
       style="fill:#018f50;stroke:#005b31;stroke-width:0.265" />
    <path
       id="use76"
       d="m 14.963999,64.046002 c 1.144,-0.62 2.049,-0.684 2.702,0.018 -0.3,-0.822 -0.482,-1.621 -0.055,-2.298 -0.244,0.26 -0.595,0.28 -0.662,0.938 -0.418,-0.652 -0.348,-1.426 -0.184,-2.224 l -0.625,1.397 c -0.606,-0.683 -0.48,-1.421 -0.478,-2.151 -0.165,0.354 -0.407,0.656 -0.294,1.195 -0.568,-0.777 -0.972,-0.981 -1.452,-1.452 0.338,0.521 0.404,1.042 1.048,1.563 -0.524,-0.119 -0.927,-0.118 -1.305,-0.092 0.747,0.343 1.583,0.346 2.151,1.36 -1.19,0.11 -1.03,0.247 -1.452,0.313 1.36,0.305 1.287,-0.368 2.077,0.588 -0.794,0.016 -1.031,0.519 -1.471,0.846 z"
       style="fill:#005b31" />
  </g>
  <g
     id="g2511"
     transform="translate(0.59618214,-4.1906624)">
    <path
       id="use82"
       d="m 22.903,65.049 a 1.26,1.26 0 0 1 -1.259,1.259 1.26,1.26 0 0 1 -1.259,-1.259 1.26,1.26 0 0 1 1.259,-1.259 1.26,1.26 0 0 1 1.259,1.259 z"
       style="fill:#ffff00;fill-rule:evenodd" />
    <path
       id="use84"
       d="m 22.489,64.764 a 0.66,0.66 0 0 1 -0.662,0.662 0.66,0.66 0 0 1 -0.662,-0.662 0.66,0.66 0 0 1 0.662,-0.662 0.66,0.66 0 0 1 0.662,0.662 z"
       style="fill:#ffff75;fill-rule:evenodd" />
    <path
       id="use86"
       d="m 22.25,64.654 a 0.33,0.33 0 0 1 -0.331,0.331 0.33,0.33 0 0 1 -0.331,-0.331 0.33,0.33 0 0 1 0.331,-0.331 0.33,0.33 0 0 1 0.331,0.331 z"
       style="fill:#ffffaf;fill-rule:evenodd" />
    <path
       id="use88"
       d="m 25.971,67.051 a 1.26,1.26 0 0 1 -1.259,1.259 1.26,1.26 0 0 1 -1.259,-1.259 1.26,1.26 0 0 1 1.259,-1.259 1.26,1.26 0 0 1 1.259,1.259 z"
       style="fill:#ff0000;fill-rule:evenodd" />
    <path
       id="use90"
       d="m 25.557,66.766 a 0.66,0.66 0 0 1 -0.662,0.662 0.66,0.66 0 0 1 -0.662,-0.662 0.66,0.66 0 0 1 0.662,-0.662 0.66,0.66 0 0 1 0.662,0.662 z"
       style="fill:#ff4747;fill-rule:evenodd" />
    <path
       id="use92"
       d="m 25.318,66.656 a 0.33,0.33 0 0 1 -0.331,0.331 0.33,0.33 0 0 1 -0.331,-0.331 0.33,0.33 0 0 1 0.331,-0.331 0.33,0.33 0 0 1 0.331,0.331 z"
       style="fill:#ff8787;fill-rule:evenodd" />
    <path
       id="use94"
       d="m 29.119,68.418 a 1.26,1.26 0 0 1 -1.259,1.259 1.26,1.26 0 0 1 -1.259,-1.259 1.26,1.26 0 0 1 1.259,-1.259 1.26,1.26 0 0 1 1.259,1.259 z"
       style="fill:#ffff00;fill-rule:evenodd" />
    <path
       id="use96"
       d="m 28.705,68.133 a 0.66,0.66 0 0 1 -0.662,0.662 0.66,0.66 0 0 1 -0.662,-0.662 0.66,0.66 0 0 1 0.662,-0.662 0.66,0.66 0 0 1 0.662,0.662 z"
       style="fill:#ffff75;fill-rule:evenodd" />
    <path
       id="use98"
       d="m 28.466,68.023 a 0.33,0.33 0 0 1 -0.331,0.331 0.33,0.33 0 0 1 -0.331,-0.331 0.33,0.33 0 0 1 0.331,-0.331 0.33,0.33 0 0 1 0.331,0.331 z"
       style="fill:#ffffaf;fill-rule:evenodd" />
    <path
       id="use100"
       d="m 32.87,69.585 a 1.26,1.26 0 0 1 -1.259,1.259 1.26,1.26 0 0 1 -1.259,-1.259 1.26,1.26 0 0 1 1.259,-1.259 1.26,1.26 0 0 1 1.259,1.259 z"
       style="fill:#ff0000;fill-rule:evenodd" />
    <path
       id="use102"
       d="M 32.456,69.3 A 0.66,0.66 0 0 1 31.794,69.962 0.66,0.66 0 0 1 31.132,69.3 0.66,0.66 0 0 1 31.794,68.638 0.66,0.66 0 0 1 32.456,69.3 Z"
       style="fill:#ff4747;fill-rule:evenodd" />
    <path
       id="use104"
       d="m 32.217,69.19 a 0.33,0.33 0 0 1 -0.331,0.331 0.33,0.33 0 0 1 -0.331,-0.331 0.33,0.33 0 0 1 0.331,-0.331 0.33,0.33 0 0 1 0.331,0.331 z"
       style="fill:#ff8787;fill-rule:evenodd" />
    <path
       id="use108"
       d="m 39.13653,69.626663 a 1.259,1.259 0 1 0 2.518,0 1.259,1.259 0 1 0 -2.518,0 z"
       style="fill:#32cd32;fill-rule:evenodd" />
    <path
       id="use110"
       d="m 39.55053,69.341663 a 0.662,0.662 0 1 0 1.324,0 0.662,0.662 0 1 0 -1.324,0 z"
       style="fill:#61d861;fill-rule:evenodd" />
    <path
       id="use112"
       d="m 39.78953,69.231663 a 0.331,0.331 0 1 0 0.662,0 0.331,0.331 0 1 0 -0.662,0 z"
       style="fill:#b4edb4;fill-rule:evenodd" />
    <path
       id="use116"
       d="m 42.07241,68.784587 a 1.259,1.259 0 1 0 2.518,0 1.259,1.259 0 1 0 -2.518,0 z"
       style="fill:#d9d9d9;fill-rule:evenodd" />
    <path
       id="use118"
       d="m 42.48641,68.499587 a 0.662,0.662 0 1 0 1.324,0 0.662,0.662 0 1 0 -1.324,0 z"
       style="fill:#eaeaea;fill-rule:evenodd" />
    <path
       id="use120"
       d="m 42.72541,68.389587 a 0.331,0.331 0 1 0 0.662,0 0.331,0.331 0 1 0 -0.662,0 z"
       style="fill:#fcfcfc;fill-rule:evenodd" />
    <path
       id="use124"
       d="m 45.0764,67.626464 a 1.259,1.259 0 1 0 2.518,0 1.259,1.259 0 1 0 -2.518,0 z"
       style="fill:#ff0000;fill-rule:evenodd" />
    <path
       id="use126"
       d="m 45.4904,67.341464 a 0.662,0.662 0 1 0 1.324,0 0.662,0.662 0 1 0 -1.324,0 z"
       style="fill:#ff4747;fill-rule:evenodd" />
    <path
       id="use128"
       d="m 45.7294,67.231464 a 0.331,0.331 0 1 0 0.662,0 0.331,0.331 0 1 0 -0.662,0 z"
       style="fill:#ff8787;fill-rule:evenodd" />
    <path
       id="use132"
       d="m 47.98501,65.95362 a 1.259,1.259 0 1 0 2.518,0 1.259,1.259 0 1 0 -2.518,0 z"
       style="fill:#d9d9d9;fill-rule:evenodd" />
    <path
       id="use134"
       d="m 48.39901,65.66862 a 0.662,0.662 0 1 0 1.324,0 0.662,0.662 0 1 0 -1.324,0 z"
       style="fill:#eaeaea;fill-rule:evenodd" />
    <path
       id="use136"
       d="m 48.63801,65.55862 a 0.331,0.331 0 1 0 0.662,0 0.331,0.331 0 1 0 -0.662,0 z"
       style="fill:#fcfcfc;fill-rule:evenodd" />
    <path
       id="use140"
       d="m 50.53345,63.922225 a 1.259,1.259 0 1 0 2.518,0 1.259,1.259 0 1 0 -2.518,0 z"
       style="fill:#ff0000;fill-rule:evenodd" />
    <path
       id="use142"
       d="m 50.94745,63.637225 a 0.662,0.662 0 1 0 1.324,0 0.662,0.662 0 1 0 -1.324,0 z"
       style="fill:#ff4747;fill-rule:evenodd" />
    <path
       id="use144"
       d="m 51.18645,63.527225 a 0.331,0.331 0 1 0 0.662,0 0.331,0.331 0 1 0 -0.662,0 z"
       style="fill:#ff8787;fill-rule:evenodd" />
    <path
       d="m 14.834,65.772 c 2.051,-0.933 3.746,-0.746 5.11,0.478 -2.847,1.859 -3.865,0.49 -5.11,-0.478 z"
       class="H"
       id="path148"
       style="fill:#018f50;stroke:#005b31" />
    <path
       d="m 17.317,68.127 c 2.049,-1.19 3.844,-1.173 5.403,-0.041 -2.785,2.24 -3.996,0.919 -5.403,0.041 z m 2.839,2.21 c 1.913,-1.399 3.699,-1.571 5.368,-0.609 -2.534,2.521 -3.877,1.334 -5.368,0.609 z m 3.179,1.922 c 1.745,-1.603 3.501,-1.973 5.267,-1.202 -2.238,2.787 -3.704,1.757 -5.267,1.202 z m 3.921,1.346 c 1.745,-1.603 3.501,-1.973 5.267,-1.202 -2.238,2.787 -3.704,1.757 -5.267,1.202 z"
       class="S"
       id="path150"
       style="fill:#018f50;stroke:#005b31" />
    <path
       d="m 57.38,65.772 c -2.051,-0.933 -3.746,-0.746 -5.11,0.478 2.847,1.859 3.865,0.49 5.11,-0.478 z"
       class="H"
       id="path152"
       style="fill:#018f50;stroke:#005b31" />
    <path
       d="m 54.897,68.127 c -2.049,-1.19 -3.844,-1.173 -5.403,-0.041 2.785,2.24 3.996,0.919 5.403,0.041 z m -2.84,2.21 c -1.913,-1.399 -3.699,-1.571 -5.368,-0.609 2.534,2.521 3.877,1.334 5.368,0.609 z m -3.178,1.922 c -1.745,-1.603 -3.501,-1.973 -5.267,-1.202 2.238,2.787 3.704,1.757 5.267,1.202 z m -3.922,1.346 c -1.745,-1.603 -3.501,-1.973 -5.267,-1.202 2.238,2.787 3.704,1.757 5.267,1.202 z"
       class="S"
       id="path154"
       style="fill:#018f50;stroke:#005b31" />
    <path
       d="m 37.831,73.92 c 1.195,-0.159 0.464,1.332 -1.81,1.332 -1.242,0 -1.912,-0.752 -2.206,-1.718"
       stroke-width="0.672"
       id="path158"
       style="fill:none;stroke:#ff0000;stroke-linecap:round" />
    <path
       d="m 37.147,70.141 c 0.108,-0.555 -0.102,-1.291 -0.799,-1.229 -0.605,-0.134 -1.427,-0.01 -1.639,0.668 -0.23,0.498 0.032,0.982 0.092,1.477 -0.054,0.471 0.127,0.918 0.119,1.391 0.034,0.38 -0.012,0.911 0.381,1.12 0.342,0.078 0.694,0.044 1.041,0.05 m -0.836,-2.962 c 0.596,-0.167 1.313,-0.226 1.892,-0.049 0.292,0.464 0.182,1.097 0.147,1.624 -0.18,0.322 -0.07,0.853 -0.365,1.065"
       stroke-width="0.67"
       id="path160"
       style="fill:none;stroke:#ff0000;stroke-linecap:round" />
  </g>
  <g
     id="g2584"
     transform="translate(0.59618214,-4.1906624)">
    <path
       d="m 44.890576,23.623825 c 23.692712,12.880837 15.198377,32.954541 10.775641,39.067558 l -1.421829,1.699291"
       fill="none"
       stroke-width="0.43983"
       id="path164"
       style="stroke:#ffba00" />
    <path
       d="m 54.803367,57.861948 c 0.979216,1.071118 1.871526,2.110576 1.127844,4.195842 -1.797903,-1.040677 -1.202654,-2.782723 -1.127844,-4.195842 z"
       class="B T"
       id="path166"
       style="stroke:#ffba00" />
    <path
       d="m 55.180575,58.796434 c 0.19748,0.541388 0.96426,1.179267 0.648666,2.33134 -0.163143,-0.769568 -0.51568,-1.77431 -0.648666,-2.33134 z"
       class="D"
       id="path170"
       style="stroke-width:0.966659" />
    <path
       d="m 56.12245,55.918029 c 0.979215,1.071119 1.871526,2.110576 1.127844,4.195842 -1.797903,-1.040677 -1.202654,-2.782723 -1.127844,-4.195842 z"
       class="B C T"
       id="path172" />
    <path
       d="m 56.499658,56.852515 c 0.19748,0.541388 0.96426,1.179267 0.648665,2.33134 -0.163143,-0.769568 -0.515679,-1.77431 -0.648665,-2.33134 z"
       class="D"
       id="path174"
       style="stroke-width:0.966659" />
    <path
       id="use176"
       d="m 56.925899,53.274957 c 1.115116,0.933882 2.139711,1.847143 1.683129,4.010729 -1.922363,-0.796815 -1.567,-2.600938 -1.683129,-4.010729 z"
       style="fill:#ffff00;stroke:#ffba00;stroke-width:0.238798" />
    <path
       id="use178"
       d="m 57.424876,54.151444 c 0.268122,0.510385 1.114765,1.042903 0.95654,2.22582 -0.265385,-0.740864 -0.749995,-1.691316 -0.95654,-2.22582 z"
       style="fill:#ffffb9;stroke-width:1.00335" />
    <path
       id="use182"
       d="m 57.138,50.913674 c 1.283951,0.692596 2.474992,1.383004 2.471346,3.592215 C 57.562662,54.10805 57.540855,52.270926 57.138,50.913674 Z"
       style="fill:#ffff00;stroke:#ffba00;stroke-width:0.238798" />
    <path
       id="use184"
       d="m 57.806566,51.672616 c 0.367329,0.4464 1.305961,0.79941 1.393517,1.989092 -0.41191,-0.67261 -1.081568,-1.50683 -1.393517,-1.989092 z"
       style="fill:#ffffb9;stroke-width:1.00335" />
    <path
       id="use188"
       d="m 57.643481,46.504788 c 1.385971,0.464936 2.68001,0.943435 3.061732,3.119899 -2.08614,-0.0456 -2.428046,-1.851293 -3.061732,-3.119899 z"
       style="fill:#ffff00;stroke:#ffba00;stroke-width:0.238798" />
    <path
       id="use190"
       d="m 58.434639,47.139171 c 0.439815,0.377518 1.42629,0.566413 1.72006,1.723317 -0.523197,-0.592771 -1.32856,-1.30111 -1.72006,-1.723317 z"
       style="fill:#ffffb9;stroke-width:1.00335" />
    <path
       id="use194"
       d="m 57.529601,43.907908 c 1.385971,0.464936 2.68001,0.943435 3.061732,3.119899 -2.08614,-0.0456 -2.428046,-1.851293 -3.061732,-3.119899 z"
       style="fill:#ffff00;stroke:#ffba00;stroke-width:0.238798" />
    <path
       id="use196"
       d="m 58.320759,44.542291 c 0.439815,0.377518 1.42629,0.566413 1.72006,1.723317 -0.523197,-0.592771 -1.32856,-1.30111 -1.72006,-1.723317 z"
       style="fill:#ffffb9;stroke-width:1.00335" />
    <path
       id="use200"
       d="m 57.282102,41.638828 c 1.424515,0.334002 2.758796,0.690049 3.347395,2.821044 -2.081476,0.148473 -2.594907,-1.617153 -3.347395,-2.821044 z"
       style="fill:#ffff00;stroke:#ffba00;stroke-width:0.238798" />
    <path
       id="use202"
       d="m 58.130614,42.196775 c 0.474081,0.334912 1.474382,0.431267 1.877725,1.555558 -0.577726,-0.541429 -1.447468,-1.171672 -1.877725,-1.555558 z"
       style="fill:#ffffb9;stroke-width:1.00335" />
    <path
       id="use206"
       d="m 56.757952,39.077217 c 1.44772,0.217599 2.807339,0.464465 3.571749,2.540401 -2.062295,0.316334 -2.721309,-1.401589 -3.571749,-2.540401 z"
       style="fill:#ffff00;stroke:#ffba00;stroke-width:0.238798" />
    <path
       id="use208"
       d="m 57.650228,39.564574 c 0.500466,0.295392 1.505537,0.31049 2.001332,1.398225 -0.620996,-0.492802 -1.540462,-1.050486 -2.001332,-1.398225 z"
       style="fill:#ffffb9;stroke-width:1.00335" />
    <path
       id="use212"
       d="m 57.51796,48.668217 c 1.283951,0.692596 2.474992,1.383004 2.471346,3.592215 -2.046684,-0.397839 -2.068491,-2.234963 -2.471346,-3.592215 z"
       style="fill:#ffff00;stroke:#ffba00;stroke-width:0.238798" />
    <path
       id="use214"
       d="m 58.186526,49.427159 c 0.367329,0.4464 1.305961,0.79941 1.393517,1.989092 -0.41191,-0.67261 -1.081568,-1.50683 -1.393517,-1.989092 z"
       style="fill:#ffffb9;stroke-width:1.00335" />
    <path
       id="use218"
       d="m 55.628698,36.793312 c 1.464668,0.01646 2.846226,0.07401 3.897456,2.024173 -1.997692,0.596607 -2.893808,-1.013603 -3.897456,-2.024173 z"
       style="fill:#ffff00;stroke:#ffba00;stroke-width:0.238797" />
    <path
       id="use220"
       d="m 56.581472,37.153177 c 0.537522,0.223664 1.535092,0.100481 2.18026,1.109222 -0.684868,-0.402538 -1.674537,-0.828291 -2.18026,-1.109222 z"
       style="fill:#ffffb9;stroke-width:1.00335" />
    <path
       id="use224"
       d="m 54.518098,34.446082 c 1.464668,0.01646 2.846226,0.07401 3.897456,2.024173 -1.997692,0.596607 -2.893808,-1.013603 -3.897456,-2.024173 z"
       style="fill:#ffff00;stroke:#ffba00;stroke-width:0.238797" />
    <path
       id="use226"
       d="m 55.470872,34.805947 c 0.537522,0.223664 1.535092,0.100481 2.18026,1.109222 -0.684868,-0.402538 -1.674537,-0.828291 -2.18026,-1.109222 z"
       style="fill:#ffffb9;stroke-width:1.00335" />
    <path
       id="use230"
       d="m 52.789488,32.570695 c 1.440063,-0.265906 2.806755,-0.47553 4.225162,1.234032 -1.841226,0.969618 -3.039976,-0.436512 -4.225162,-1.234032 z"
       style="fill:#ffff00;stroke:#ffba00;stroke-width:0.238798" />
    <path
       id="use232"
       d="m 53.795578,32.740044 c 0.571698,0.115776 1.525828,-0.197094 2.358992,0.667664 -0.751754,-0.262776 -1.807118,-0.489618 -2.358992,-0.667664 z"
       style="fill:#ffffb9;stroke-width:1.00335" />
    <path
       id="use236"
       d="m 50.796868,30.579555 c 1.440063,-0.265906 2.806755,-0.47553 4.225162,1.234032 -1.841226,0.969618 -3.039976,-0.436512 -4.225162,-1.234032 z"
       style="fill:#ffff00;stroke:#ffba00;stroke-width:0.238798" />
    <path
       id="use238"
       d="m 51.802958,30.748904 c 0.571698,0.115776 1.525828,-0.197094 2.358992,0.667664 -0.751754,-0.262776 -1.807118,-0.489618 -2.358992,-0.667664 z"
       style="fill:#ffffb9;stroke-width:1.00335" />
    <path
       id="use242"
       d="m 48.500637,28.851147 c 1.387816,-0.463381 2.711048,-0.860854 4.360556,0.634077 -1.684181,1.215677 -3.072699,-0.0095 -4.360556,-0.634077 z"
       style="fill:#ffff00;stroke:#ffba00;stroke-width:0.238798" />
    <path
       id="use244"
       d="m 49.521123,28.878906 c 0.58268,0.03512 1.482601,-0.407194 2.431529,0.332916 -0.782037,-0.155589 -1.859554,-0.233405 -2.431529,-0.332916 z"
       style="fill:#ffffb9;stroke-width:1.00335" />
    <path
       id="use248"
       d="m 46.230735,27.829636 c 1.244328,-0.76281 2.441021,-1.446961 4.393834,-0.362507 -1.358716,1.561614 -2.994843,0.681124 -4.393834,0.362507 z"
       style="fill:#ffff00;stroke:#ffba00;stroke-width:0.238798" />
    <path
       id="use250"
       d="m 47.231067,27.627387 c 0.575636,-0.09672 1.349659,-0.729417 2.445301,-0.222247 -0.797705,0.02426 -1.865176,0.190599 -2.445301,0.222247 z"
       style="fill:#ffffb9;stroke-width:1.00335" />
    <path
       id="use254"
       d="m 44.156508,26.797501 c 1.122272,-0.928602 2.208697,-1.772708 4.298215,-0.971912 -1.120603,1.735153 -2.867224,1.092032 -4.298215,0.971912 z"
       style="fill:#ffff00;stroke:#ffba00;stroke-width:0.238798" />
    <path
       id="use256"
       d="m 45.117846,26.457742 c 0.556026,-0.176056 1.231366,-0.910251 2.389137,-0.561188 -0.786324,0.135324 -1.819304,0.448913 -2.389137,0.561188 z"
       style="fill:#ffffb9;stroke-width:1.00335" />
    <path
       id="use260"
       d="m 42.074024,25.541521 c 1.122272,-0.928602 2.208697,-1.772708 4.298215,-0.971912 -1.120603,1.735153 -2.867224,1.092032 -4.298215,0.971912 z"
       style="fill:#ffff00;stroke:#ffba00;stroke-width:0.238798" />
    <path
       id="use262"
       d="m 43.035362,25.201762 c 0.556026,-0.176056 1.231366,-0.910251 2.389137,-0.561188 -0.786324,0.135324 -1.819304,0.448913 -2.389137,0.561188 z"
       style="fill:#ffffb9;stroke-width:1.00335" />
    <path
       id="use266"
       d="m 40.881654,22.365036 c 1.445849,-0.233208 2.817034,-0.411809 4.195076,1.329499 -1.863336,0.927665 -3.028876,-0.505305 -4.195076,-1.329499 z"
       style="fill:#ffff00;stroke:#ffba00;stroke-width:0.238798" />
    <path
       id="use268"
       d="m 41.883489,22.557146 c 0.568824,0.128706 1.52998,-0.162468 2.342692,0.720972 -0.745391,-0.279753 -1.795142,-0.53046 -2.342692,-0.720972 z"
       style="fill:#ffffb9;stroke-width:1.00335" />
    <path
       id="use272"
       d="m 60.371796,60.642372 c -1.416231,-0.216675 -2.757144,-0.378373 -4.006217,1.435171 1.857339,0.924395 2.915842,-0.568526 4.006217,-1.435171 z"
       style="fill:#ffff00;stroke:#ffba00;stroke-width:0.238798" />
    <path
       id="use274"
       d="m 59.40863,60.856111 c -0.545861,0.141552 -1.494314,-0.142548 -2.238328,0.779365 0.709602,-0.29978 1.716299,-0.574572 2.238328,-0.779365 z"
       style="fill:#ffffb9;stroke-width:1.00335" />
    <path
       id="use278"
       d="m 61.480987,57.950155 c -1.431284,-0.03755 -2.781263,-0.02997 -3.804418,1.926747 1.953473,0.684751 2.825767,-0.929825 3.804418,-1.926747 z"
       style="fill:#ffff00;stroke:#ffba00;stroke-width:0.238798" />
    <path
       id="use280"
       d="m 60.55067,58.283048 c -0.524808,0.208929 -1.499926,0.04582 -2.128263,1.054181 0.66842,-0.386514 1.634652,-0.785465 2.128263,-1.054181 z"
       style="fill:#ffffb9;stroke-width:1.00335" />
    <path
       id="use284"
       d="m 62.255273,54.445535 c -1.40762,0.266668 -2.726604,0.560263 -3.332577,2.69197 2.049012,0.255974 2.576458,-1.508937 3.332577,-2.69197 z"
       style="fill:#ffff00;stroke:#ffba00;stroke-width:0.238798" />
    <path
       id="use286"
       d="m 61.412438,54.968514 c -0.471194,0.315707 -1.457942,0.3628 -1.869084,1.482768 0.575834,-0.519932 1.440471,-1.115168 1.869084,-1.482768 z"
       style="fill:#ffffb9;stroke-width:1.00335" />
    <path
       id="use290"
       d="m 63.192183,51.693856 c -1.40762,0.266668 -2.726604,0.560263 -3.332577,2.69197 2.049012,0.255974 2.576458,-1.508937 3.332577,-2.69197 z"
       style="fill:#ffff00;stroke:#ffba00;stroke-width:0.238798" />
    <path
       id="use292"
       d="m 62.349348,52.216835 c -0.471194,0.315707 -1.457942,0.3628 -1.869084,1.482768 0.575834,-0.519932 1.440471,-1.115168 1.869084,-1.482768 z"
       style="fill:#ffffb9;stroke-width:1.00335" />
    <path
       id="use296"
       d="m 63.795263,49.410372 c -1.40762,0.266668 -2.726604,0.560263 -3.332577,2.69197 2.049012,0.255974 2.576458,-1.508937 3.332577,-2.69197 z"
       style="fill:#ffff00;stroke:#ffba00;stroke-width:0.238798" />
    <path
       id="use298"
       d="m 62.952428,49.933351 c -0.471194,0.315707 -1.457942,0.3628 -1.869084,1.482768 0.575834,-0.519932 1.440471,-1.115168 1.869084,-1.482768 z"
       style="fill:#ffffb9;stroke-width:1.00335" />
    <path
       id="use302"
       d="m 64.217893,46.903214 c -1.40762,0.266668 -2.726604,0.560263 -3.332577,2.69197 2.049012,0.255974 2.576458,-1.508937 3.332577,-2.69197 z"
       style="fill:#ffff00;stroke:#ffba00;stroke-width:0.238798" />
    <path
       id="use304"
       d="m 63.375058,47.426193 c -0.471194,0.315707 -1.457942,0.3628 -1.869084,1.482768 0.575834,-0.519932 1.440471,-1.115168 1.869084,-1.482768 z"
       style="fill:#ffffb9;stroke-width:1.00335" />
    <path
       id="use308"
       d="m 63.655968,43.677283 c -1.315685,0.577361 -2.539147,1.161026 -2.67296,3.377587 2.053342,-0.211906 2.189236,-2.052871 2.67296,-3.377587 z"
       style="fill:#ffff00;stroke:#ffba00;stroke-width:0.238798" />
    <path
       id="use310"
       d="m 62.946101,44.377487 c -0.391851,0.41422 -1.344146,0.682501 -1.504933,1.867953 0.450109,-0.637071 1.165741,-1.412692 1.504933,-1.867953 z"
       style="fill:#ffffb9;stroke-width:1.00335" />
    <path
       id="use314"
       d="m 62.649968,40.672942 c -1.162274,0.855704 -2.233199,1.697102 -1.895683,3.891273 1.959466,-0.662498 1.703306,-2.490359 1.895683,-3.891273 z"
       style="fill:#ffff00;stroke:#ffba00;stroke-width:0.238798" />
    <path
       id="use316"
       d="m 62.104963,41.51419 c -0.294996,0.491427 -1.167849,0.964689 -1.074427,2.157962 0.304795,-0.721968 0.839499,-1.638141 1.074427,-2.157962 z"
       style="fill:#ffffb9;stroke-width:1.00335" />
    <path
       id="use320"
       d="m 61.518788,37.398906 c -0.955866,1.091522 -1.825524,2.148983 -1.036691,4.218324 1.774768,-1.078058 1.142049,-2.807428 1.036691,-4.218324 z"
       style="fill:#ffff00;stroke:#ffba00;stroke-width:0.238798" />
    <path
       id="use322"
       d="m 61.162664,38.340582 c -0.185209,0.544954 -0.9385,1.199219 -0.597517,2.344423 0.146523,-0.772331 0.476907,-1.784938 0.597517,-2.344423 z"
       style="fill:#ffffb9;stroke-width:1.00335" />
    <path
       id="use326"
       d="m 60.18891,34.400493 c -0.832203,1.193236 -1.582409,2.34285 -0.575354,4.31038 1.647449,-1.272618 0.832195,-2.919908 0.575354,-4.31038 z"
       style="fill:#ffff00;stroke:#ffba00;stroke-width:0.238798" />
    <path
       id="use328"
       d="m 59.93655,35.376845 c -0.12529,0.562656 -0.803332,1.298317 -0.340987,2.398004 0.06233,-0.784282 0.28146,-1.828223 0.340987,-2.398004 z"
       style="fill:#ffffb9;stroke-width:1.00335" />
    <path
       id="use332"
       d="m 58.671173,32.049609 c -0.710889,1.273048 -1.344481,2.494242 -0.149676,4.348254 1.514141,-1.436025 0.541551,-2.991146 0.149676,-4.348254 z"
       style="fill:#ffff00;stroke:#ffba00;stroke-width:0.238798" />
    <path
       id="use334"
       d="m 58.515864,33.047113 c -0.06947,0.572769 -0.671862,1.374632 -0.10406,2.421226 -0.01491,-0.786808 0.100718,-1.848142 0.10406,-2.421226 z"
       style="fill:#ffffb9;stroke-width:1.00335" />
    <path
       id="use338"
       d="m 57.104383,29.449429 c -0.710889,1.273048 -1.344481,2.494242 -0.149676,4.348254 1.514141,-1.436025 0.541551,-2.991146 0.149676,-4.348254 z"
       style="fill:#ffff00;stroke:#ffba00;stroke-width:0.238798" />
    <path
       id="use340"
       d="m 56.949074,30.446933 c -0.06947,0.572769 -0.671862,1.374632 -0.10406,2.421226 -0.01491,-0.786808 0.100718,-1.848142 0.10406,-2.421226 z"
       style="fill:#ffffb9;stroke-width:1.00335" />
    <path
       id="use344"
       d="m 55.351873,27.287529 c -0.710889,1.273048 -1.344481,2.494242 -0.149676,4.348254 1.514141,-1.436025 0.541551,-2.991146 0.149676,-4.348254 z"
       style="fill:#ffff00;stroke:#ffba00;stroke-width:0.238798" />
    <path
       id="use346"
       d="m 55.196564,28.285033 c -0.06947,0.572769 -0.671862,1.374632 -0.10406,2.421226 -0.01491,-0.786808 0.100718,-1.848142 0.10406,-2.421226 z"
       style="fill:#ffffb9;stroke-width:1.00335" />
    <path
       id="use350"
       d="m 53.162601,25.464985 c -0.588238,1.337266 -1.104403,2.615304 0.258502,4.343299 1.372427,-1.578582 0.258697,-3.030915 -0.258502,-4.343299 z"
       style="fill:#ffff00;stroke:#ffba00;stroke-width:0.238798" />
    <path
       id="use352"
       d="m 53.1015,26.473261 c -0.01546,0.577014 -0.539876,1.434549 0.123323,2.420507 -0.08857,-0.781778 -0.07295,-1.849689 -0.123323,-2.420507 z"
       style="fill:#ffffb9;stroke-width:1.00335" />
    <path
       id="use356"
       d="m 51.053709,23.528194 c -0.498393,1.375154 -0.928802,2.686205 0.545173,4.315639 1.264763,-1.670421 0.05761,-3.042123 -0.545173,-4.315639 z"
       style="fill:#ffff00;stroke:#ffba00;stroke-width:0.238798" />
    <path
       id="use358"
       d="m 51.059444,24.538464 c 0.02274,0.5768 -0.44371,1.46886 0.283133,2.406534 -0.140068,-0.773879 -0.195119,-1.84049 -0.283133,-2.406534 z"
       style="fill:#ffffb9;stroke-width:1.00335" />
    <path
       id="use362"
       d="m 48.609941,22.16995 c -0.334692,1.426442 -0.609356,2.780916 1.043596,4.218646 1.061126,-1.813354 -0.296943,-3.027792 -1.043596,-4.218646 z"
       style="fill:#ffff00;stroke:#ffba00;stroke-width:0.238798" />
    <path
       id="use364"
       d="m 48.73324,23.172421 c 0.08972,0.569967 -0.269499,1.512801 0.56122,2.355 -0.229137,-0.751312 -0.407952,-1.803697 -0.56122,-2.355 z"
       style="fill:#ffffb9;stroke-width:1.00335" />
    <path
       id="use368"
       d="m 45.840196,21.497457 c -0.0315,1.467056 -0.01926,2.850706 1.893491,3.896242 0.661066,-2.003316 -0.917329,-2.894777 -1.893491,-3.896242 z"
       style="fill:#ffff00;stroke:#ffba00;stroke-width:0.238798" />
    <path
       id="use370"
       d="m 46.168324,22.45045 c 0.205725,0.537567 0.05008,1.537277 1.036153,2.179669 -0.379502,-0.684475 -0.772208,-1.674173 -1.036153,-2.179669 z"
       style="fill:#ffffb9;stroke-width:1.00335" />
  </g>
  <g
     id="g1074"
     transform="translate(0.26458311,0.26458311)">
    <path
       d="m 36.438599,22.031754 c -11.604,0 -20.806,9.202 -20.806,20.806001 0,11.604 9.202,20.805999 20.806,20.805999 11.604,0 20.806,-9.201999 20.806,-20.805999 0,-11.604 -9.202,-20.806 -20.806,-20.806001 z"
       stroke="#ff8200"
       stroke-width="0.506"
       class="B"
       id="path18"
       style="fill-rule:evenodd;stroke:#ff0000;stroke-width:0.902758;stroke-miterlimit:4;stroke-dasharray:none;stroke-opacity:1" />
    <path
       d="m 36.438599,27.960754 c -8.47,0 -14.877,6.407 -14.877,14.877001 0,8.47 6.407,14.876999 14.877,14.876999 8.47,0 14.877,-6.406999 14.877,-14.876999 0,-8.47 -6.407,-14.877001 -14.877,-14.877001 z"
       fill="#b9d9ff"
       id="path20"
       style="fill-rule:evenodd" />
    <path
       d="m 20.62019,46.137738 0.167112,0.516061 -1.842934,1.248109 2.072194,0.005 0.125267,0.385306 -1.674876,1.218764 2.224543,-0.07052 0.167112,0.516061 -3.031795,0.0667 -0.155725,-0.478679 1.623163,-1.191898 -2.012722,-0.01126 -0.155724,-0.478679 z m 1.644674,4.36844 0.248524,0.459192 -2.554297,1.382916 -0.248525,-0.459191 z m -1.16235,3.70598 c -0.113431,-0.154874 -0.178958,-0.314906 -0.196582,-0.480096 -0.01563,-0.165266 0.01013,-0.323497 0.07731,-0.474693 0.06786,-0.15056 0.168298,-0.282134 0.301311,-0.394724 l 0.351914,0.37859 c -0.118207,0.100742 -0.193927,0.2108 -0.22716,0.330175 -0.03194,0.118659 -0.0045,0.237029 0.08231,0.355108 0.0721,0.09808 0.145816,0.160265 0.221134,0.186566 0.07731,0.02622 0.157506,0.02415 0.240598,-0.0062 0.08511,-0.02981 0.182175,-0.08496 0.291209,-0.165441 l 1.116954,-0.820155 -0.646912,-0.881774 0.386192,-0.283539 0.956668,1.302789 -1.496382,1.098456 c -0.267144,0.196032 -0.527315,0.288628 -0.780511,0.277785 -0.252509,-0.0102 -0.478525,-0.15113 -0.678047,-0.422789 z m 5.184796,1.290653 -1.987678,2.1175 -0.380963,-0.357569 0.509937,-2.321481 -1.3968,1.48873 -0.365484,-0.343238 1.987678,-2.117501 0.377868,0.354704 -0.499196,2.316091 1.390148,-1.480511 z m 1.451751,1.00412 0.331399,0.207209 -0.558552,3.076712 -0.477204,-0.298142 0.137931,-0.658148 -0.943211,-0.589748 -0.533577,0.410613 -0.482326,-0.301928 z m -0.469897,1.861157 0.231174,-1.106584 -0.895003,0.69121 z m 6.532676,0.52333 -0.723956,2.812371 -0.485469,-0.124661 0.540349,-2.099724 -1.174633,1.676249 -0.489521,-0.126495 -0.219475,-2.034709 -0.540348,2.099723 -0.485469,-0.124662 0.723955,-2.812371 0.680468,0.174892 0.231507,2.192485 1.261132,-1.807952 z m 1.733402,0.123499 0.389809,0.01787 1.023089,2.954255 -0.562296,-0.02617 -0.202766,-0.641079 -1.110604,-0.05089 -0.262835,0.619156 -0.569252,-0.0259 z m 0.50308,1.852642 -0.340949,-1.077641 -0.440656,1.04198 z m 3.903743,-2.13537 0.393183,2.877936 -0.517775,0.07064 -1.482552,-1.857812 0.27673,2.022559 -0.496983,0.06785 -0.393184,-2.877937 0.512807,-0.07045 1.485113,1.846767 -0.275354,-2.01266 z m 1.66075,0.0198 -0.865934,0.282063 -0.144413,-0.443287 2.226257,-0.725428 0.144412,0.443287 -0.863946,0.281986 0.755807,2.317643 -0.496375,0.16138 z m 1.836852,-1.173236 0.829977,-0.440908 c 0.16188,-0.0865 0.326217,-0.13494 0.493012,-0.145327 0.167355,-0.01307 0.321433,0.01685 0.462233,0.08973 0.140086,0.07159 0.251251,0.184745 0.333494,0.33949 0.0558,0.105338 0.08651,0.213962 0.09213,0.325871 0.005,0.11061 -0.01382,0.21848 -0.05623,0.323609 -0.04113,0.103753 -0.101511,0.198627 -0.181141,0.284618 l 1.320056,0.762371 -0.528602,0.281047 -1.214491,-0.760455 -0.149216,0.07938 -0.159956,0.08477 0.5825,1.096227 -0.461331,0.244626 z m 1.452305,0.629906 c 0.119403,-0.0696 0.197823,-0.152567 0.235259,-0.24888 0.03745,-0.09565 0.03044,-0.191915 -0.02105,-0.288794 -0.05652,-0.106637 -0.14025,-0.170763 -0.251213,-0.192376 -0.111679,-0.02291 -0.232863,3.24e-4 -0.363555,0.0697 l -0.368646,0.196281 0.361531,0.680761 z m 1.091716,-2.124885 0.421051,-0.30876 1.71812,2.342382 -0.421051,0.308762 z m 1.020936,-0.625387 0.370909,-0.396403 1.983397,1.009574 -0.997271,-1.815746 0.277265,-0.295277 1.876768,0.876333 -1.137344,-1.912871 0.370911,-0.396403 1.524824,2.621496 -0.344154,0.36751 -1.827771,-0.844379 0.963562,1.767281 -0.344153,0.367511 z m 3.020425,-3.549453 0.280636,-0.440705 2.449428,1.560926 -0.280636,0.440705 z m 0.843553,-1.382886 0.386068,-0.856766 c 0.07518,-0.167427 0.175333,-0.30629 0.300472,-0.416588 0.124399,-0.112259 0.264328,-0.182985 0.419785,-0.212178 0.154768,-0.02983 0.312158,-0.0086 0.472171,0.06347 0.108696,0.0489 0.199517,0.116073 0.272463,0.201511 0.07159,0.08483 0.122742,0.181387 0.15344,0.28968 0.03133,0.107605 0.04161,0.219667 0.03083,0.336188 l 1.510785,-0.205322 -0.245746,0.545852 -1.425626,0.142337 -0.06972,0.153949 -0.07427,0.16507 1.132215,0.509839 -0.214593,0.475986 z m 1.533497,-0.3913 c 0.05212,-0.128724 0.06335,-0.242276 0.03369,-0.340657 -0.02902,-0.09907 -0.09348,-0.1709 -0.193385,-0.215496 -0.110047,-0.04951 -0.21551,-0.04876 -0.316389,0.0022 -0.102229,0.05037 -0.183591,0.14306 -0.244089,0.27808 l -0.171475,0.380781 0.702819,0.316346 z m -0.250309,-3.018772 0.09293,-0.378759 3.097476,-0.429482 -0.134256,0.546544 -0.667905,0.07442 -0.266029,1.080056 0.556928,0.378676 -0.136015,0.552584 z m 1.914579,-0.13425 -1.123722,0.125766 0.935985,0.63481 z"
       class="F"
       id="path78"
       style="stroke-width:0.994466"
       sodipodi:nodetypes="cccccccccccccccccccccccccsccccccccccccccccccccccccccccccccccccccccccccccccccccccccccccccccccccccccccccccccccccccccccccccccccccccccccccccccccccccccccccccccccccccccccccccccccccccccccccccccccccccc" />
    <path
       d="m 51.189599,44.835754 h -29.502 c 0.921,7.458 6.962,12.879 14.751,12.879 7.789,0 13.83,-5.42 14.751,-12.879 z"
       class="K"
       id="path80"
       style="fill-rule:evenodd" />
    <path
       d="m 17.204599,43.640754 -1.285,0.071 0.105,1.065 c 1.777,-0.175 2.694,0.009 3.632,0.245 0.938,0.236 1.921,0.546 3.563,0.546 1.642,0 2.629,-0.327 3.545,-0.506 0.916,-0.179 1.805,-0.247 3.561,0.224 h 12.226 c 1.757,-0.471 2.645,-0.402 3.561,-0.224 0.916,0.178 1.899,0.506 3.546,0.506 1.647,0 2.623,-0.309 3.561,-0.546 0.938,-0.237 1.856,-0.42 3.633,-0.245 l 0.105,-1.065 c -1.891,-0.186 -3.021,0.025 -4,0.272 -0.979,0.247 -1.786,0.513 -3.299,0.513 -1.513,0 -2.331,-0.29 -3.341,-0.487 -1.01,-0.197 -2.167,-0.261 -4.044,0.241 h -11.67 c -1.877,-0.503 -3.034,-0.438 -4.044,-0.241 -1.01,0.197 -1.833,0.487 -3.34,0.487 -1.507,0 -2.322,-0.266 -3.301,-0.513 -0.735,-0.186 -1.552,-0.351 -2.713,-0.343 z"
       stroke="#797979"
       stroke-width="0.195"
       class="J"
       id="path392" />
    <g
       id="g2626"
       transform="translate(0.33159903,-4.4552455)">
      <path
         d="m 35.807,48.865 c -2.218,0.446 -3.635,1.019 -4.807,1.519 -1.172,0.5 -2.081,0.914 -3.376,1.108 -1.181,0.176 -1.903,0.102 -2.707,0.046 a 9.8,9.8 0 0 0 -3.009,0.197 l 0.179,0.836 c 1.242,-0.266 1.984,-0.234 2.77,-0.179 0.786,0.055 1.623,0.135 2.891,-0.054 1.414,-0.211 2.423,-0.671 3.584,-1.166 1.161,-0.495 2.493,-1.035 4.642,-1.467 z"
         id="path380"
         style="fill:#ff0000;stroke:#8b0000;stroke-width:0.261" />
      <path
         d="m 35.56,49.015 c -1.427,1.761 -2.156,3.107 -2.743,4.242 -0.587,1.135 -1.023,2.034 -1.899,3.01 -0.671,0.749 -1.206,1.153 -1.749,1.544 -0.543,0.391 -1.103,0.769 -1.741,1.422 l 0.608,0.598 c 0.58,-0.593 1.074,-0.926 1.629,-1.326 0.555,-0.4 1.164,-0.861 1.885,-1.665 0.956,-1.066 1.441,-2.066 2.022,-3.19 0.581,-1.124 1.266,-2.39 2.649,-4.097 z"
         id="path382"
         style="fill:#ff0000;stroke:#8b0000;stroke-width:0.261" />
      <path
         d="m 36.537,49.015 c 1.427,1.761 2.156,3.107 2.743,4.242 0.587,1.135 1.023,2.034 1.899,3.01 0.671,0.749 1.206,1.153 1.749,1.544 0.543,0.391 1.103,0.769 1.741,1.422 l -0.608,0.598 c -0.58,-0.593 -1.074,-0.926 -1.629,-1.326 A 10.78,10.78 0 0 1 40.547,56.84 c -0.956,-1.066 -1.441,-2.066 -2.022,-3.19 -0.581,-1.124 -1.266,-2.39 -2.649,-4.097 z"
         id="path386"
         style="fill:#ff0000;stroke:#8b0000;stroke-width:0.261" />
      <path
         d="m 36.688,49.282 -0.95,0.004 c 0.004,1.148 -0.146,1.84 -0.31,2.717 a 18.1,18.1 0 0 0 -0.335,3.645 c 0,1.569 0.158,2.587 0.29,3.481 0.132,0.894 0.237,1.657 0.16,2.829 l 0.948,0.064 c 0.083,-1.259 -0.034,-2.131 -0.167,-3.032 -0.133,-0.901 -0.281,-1.837 -0.281,-3.342 0,-1.661 0.157,-2.608 0.317,-3.47 0.16,-0.862 0.332,-1.661 0.327,-2.897 z"
         id="path388"
         style="fill:#ff0000;stroke:#8b0000;stroke-width:0.261" />
      <path
         d="m 36.291,48.865 c 2.218,0.446 3.635,1.019 4.807,1.519 1.172,0.5 2.081,0.914 3.376,1.108 1.181,0.176 1.903,0.102 2.707,0.046 a 9.8,9.8 0 0 1 3.009,0.197 l -0.179,0.836 c -1.242,-0.266 -1.984,-0.234 -2.77,-0.179 -0.786,0.055 -1.623,0.135 -2.891,-0.054 -1.414,-0.211 -2.423,-0.671 -3.584,-1.166 -1.161,-0.495 -2.493,-1.035 -4.642,-1.467 z"
         id="path384"
         style="fill:#ff0000;stroke:#8b0000;stroke-width:0.261" />
    </g>
    <g
       id="g2619"
       transform="matrix(0.97522942,0,0,0.91433976,1.2264829,-0.2256147)">
      <path
         d="m 35.746,41.021 c -0.223,0.822 -0.22,1.644 -0.193,2.467 -0.203,-0.815 -0.773,-1.306 -1.29,-1.842 h -0.846 c 0.758,0.721 1.527,1.439 1.718,2.372 v 3.463 c -0.029,1.101 -0.781,1.037 -1.227,1.81 h 2.199 2.199 c -0.446,-0.773 -1.199,-0.709 -1.227,-1.81 v -3.463 c 0.191,-0.934 0.96,-1.651 1.718,-2.372 h -0.846 c -0.517,0.537 -1.086,1.027 -1.29,1.842 0.027,-0.822 0.031,-1.644 -0.193,-2.467 h -0.361 z"
         fill="#aa4701"
         stroke="#712f01"
         class="H"
         id="path376" />
      <path
         d="m 36.107,26.459 c -0.963,0.331 -1.08,0.465 -1.729,0.964 -0.649,0.499 -1.687,-0.426 -2.949,0.609 -1.262,1.035 -0.357,1.669 -1.249,2.029 -0.892,0.36 -1.559,-0.376 -2.561,0.93 -1.002,1.306 -0.318,1.825 -0.818,2.593 -0.5,0.768 -1.12,0.077 -1.822,1.58 -0.702,1.503 0.324,1.788 -0.141,3.254 -0.465,1.466 -1.223,1.374 -1.098,2.514 0.125,1.14 1.152,2.614 1.086,3.955 1.287,0.076 0.549,-1.99 1.48,-2.281 0.535,-0.167 0.877,0.722 1.12,2.227 1.024,-0.282 0.023,-2.483 1.806,-3.266 0.827,-0.363 1.226,-0.297 2.196,0.647 0.379,-2.585 2.867,-1.728 2.443,-0.214 0.958,-0.963 1.656,1.144 2.236,1.144 0.58,0 1.277,-2.107 2.235,-1.144 -0.424,-1.514 2.064,-2.371 2.443,0.214 0.97,-0.944 1.369,-0.683 2.196,-0.32 1.783,0.783 0.782,2.657 1.806,2.939 0.243,-1.505 0.585,-2.394 1.12,-2.227 0.931,0.291 0.192,2.356 1.48,2.281 -0.067,-1.341 0.961,-2.815 1.086,-3.955 0.125,-1.14 -0.634,-1.048 -1.098,-2.514 -0.464,-1.466 0.562,-1.75 -0.14,-3.254 -0.702,-1.504 -1.322,-0.812 -1.822,-1.58 -0.5,-0.768 0.184,-1.287 -0.818,-2.593 -1.002,-1.306 -1.669,-0.569 -2.561,-0.93 -0.892,-0.361 0.014,-0.994 -1.249,-2.029 -1.263,-1.035 -2.3,-0.109 -2.949,-0.609 -0.649,-0.5 -0.765,-0.633 -1.728,-0.964 z"
         stroke-width="0.269"
         class="K L"
         id="path378" />
    </g>
    <g
       id="g2625">
      <path
         d="m 38.285046,37.661322 h 3.252766 v 2.480067 l 0.90037,0.330612 v 2.241874 l 1.506334,0.551655 v 2.351443 h -5.65947 z"
         id="path410"
         style="opacity:0.999;fill:#ff0000;stroke:#8b0000;stroke-width:0.252485" />
      <path
         d="m 39.030115,29.14544 1.193824,1.892207 v 0.936575 h -1.956995 v -0.936575 -0.698383 -0.56023 -0.633594 z"
         class="F G"
         id="path394"
         style="fill:#ff0000;stroke:#8b0000;stroke-width:0.252485;stroke-linejoin:round" />
      <path
         d="m 40.223939,31.974222 h -1.956995 v 0.72506 h 1.468222 z"
         id="path396"
         style="opacity:0.999;fill:#ff0000;stroke:#8b0000;stroke-width:0.252485;stroke-linejoin:round" />
      <path
         d="m 39.718016,32.718338 v 1.213832 h -0.523072 -0.523072 -0.386826 v -1.213832 h 0.386826 0.523072 z"
         class="F G I U"
         id="path400"
         style="fill:#ff0000;stroke:#8b0000" />
      <path
         d="m 39.718016,33.93217 h -1.43297 v 0.679327 h 1.984626 z"
         class="I"
         id="path402"
         style="opacity:0.999;fill:#ff0000;stroke:#8b0000;stroke-width:0.252485" />
      <path
         d="m 40.270625,34.611497 v 1.597799 h -1.194777 -0.395401 -0.395401 v -1.597799 h 0.395401 0.395401 z"
         class="F"
         id="path404"
         style="fill:#ff0000;fill-rule:evenodd;stroke:#8b0000;stroke-width:0.252485;stroke-linejoin:round" />
      <path
         d="m 41.537812,36.210249 h -3.252766 v 1.452026 h 3.252766 z"
         class="F"
         id="path406"
         style="fill:#ff0000;fill-rule:evenodd;stroke:#8b0000;stroke-width:0.252485;stroke-linejoin:round" />
      <path
         d="m 38.285046,37.661322 h 2.462918 v 3.251813 l 0.845109,0.294406 v 2.094195 l 1.525389,0.643121 v 3.251813 h -4.832463 z"
         id="path412"
         style="opacity:0.999;fill:#ff0000;stroke:#8b0000;stroke-width:0.252485" />
      <path
         d="m 38.285046,37.661322 v 10.644375 h 3.620536 v -3.717718 l -1.525389,-0.5326 v -2.27808 l -1.010891,-0.294406 v -3.821571 z"
         id="path414"
         style="opacity:0.999;fill:#ff0000;stroke:#8b0000;stroke-width:0.252485" />
      <path
         d="M 39.553187,44.662295 V 42.20033 h -0.734588 v -4.539008 h -0.533553 v 11.630495 h 2.775427 v -4.152183 z"
         id="path416"
         style="opacity:0.999;fill:#ff0000;stroke:#8b0000;stroke-width:0.252485" />
      <path
         d="m 38.285046,42.971123 v 0.882268 7.165803 h 1.837899 v -5.016348 l -1.139516,-0.385873 v -1.764535 -0.348715 -0.5326 z"
         id="path418"
         style="opacity:0.999;fill:#ff0000;stroke:#8b0000;stroke-width:0.252485" />
      <path
         d="m 38.285046,46.637392 h 0.912757 v 3.335657 h -0.912757 z"
         class="F"
         id="path422"
         style="fill:#ff0000;fill-rule:evenodd;stroke:#8b0000;stroke-width:0.290596;stroke-linejoin:round" />
      <path
         d="m 39.197803,46.638345 v 3.335657 h 0.925142 v -3.335657 z"
         class="F"
         id="path424"
         style="fill:#ff0000;fill-rule:evenodd;stroke:#8b0000;stroke-width:0.290596;stroke-linejoin:round" />
      <path
         d="m 33.847079,29.14544 -1.193824,1.892207 v 0.936575 h 1.956995 v -0.936575 -0.698383 -0.56023 -0.633594 z"
         class="F G"
         id="path430"
         style="fill:#ff0000;stroke:#8b0000;stroke-width:0.252485;stroke-linejoin:round" />
      <path
         d="m 32.653255,31.974222 h 1.956995 v 0.72506 h -1.468222 z"
         id="path432"
         style="opacity:0.999;fill:#ff0000;stroke:#8b0000;stroke-width:0.252485;stroke-linejoin:round" />
      <path
         d="m 33.159178,32.718338 v 1.213832 h 0.523072 0.523072 0.386826 V 32.718338 H 34.205322 33.68225 Z"
         class="F G I U"
         id="path436"
         style="fill:#ff0000;stroke:#8b0000" />
      <path
         d="m 33.159178,33.93217 h 1.43297 v 0.679327 h -1.984626 z"
         class="I"
         id="path438"
         style="opacity:0.999;fill:#ff0000;stroke:#8b0000;stroke-width:0.252485" />
      <path
         d="m 32.606569,34.611497 v 1.597799 h 1.194777 0.395401 0.395401 v -1.597799 h -0.395401 -0.395401 z"
         class="F"
         id="path440"
         style="fill:#ff0000;fill-rule:evenodd;stroke:#8b0000;stroke-width:0.252485;stroke-linejoin:round" />
      <path
         d="m 31.339382,36.210249 h 3.252766 v 1.452026 h -3.252766 z"
         class="F"
         id="path442"
         style="fill:#ff0000;fill-rule:evenodd;stroke:#8b0000;stroke-width:0.252485;stroke-linejoin:round" />
      <path
         d="m 34.592148,37.661322 h -3.252766 v 2.480067 l -0.90037,0.330612 v 2.241874 l -1.506334,0.551655 v 2.351443 h 5.65947 z"
         id="path446"
         style="opacity:0.999;fill:#ff0000;stroke:#8b0000;stroke-width:0.252485" />
      <path
         d="M 34.592148,37.661322 H 32.12923 v 3.251813 l -0.845109,0.294406 v 2.094195 l -1.525389,0.643121 v 3.251813 h 4.832463 z"
         id="path448"
         style="opacity:0.999;fill:#ff0000;stroke:#8b0000;stroke-width:0.252485" />
      <path
         d="m 34.592148,37.661322 v 10.644375 h -3.620536 v -3.716766 l 1.525389,-0.5326 v -2.278079 l 1.010891,-0.294407 v -3.82157 z"
         id="path450"
         style="opacity:0.999;fill:#ff0000;stroke:#8b0000;stroke-width:0.252485" />
      <path
         d="M 33.324007,44.662295 V 42.20033 h 0.734588 v -4.538055 h 0.533553 V 49.29277 h -2.775427 v -4.152183 z"
         id="path452"
         style="opacity:0.999;fill:#ff0000;stroke:#8b0000;stroke-width:0.252485" />
      <path
         d="m 34.592148,42.971123 v 0.882268 7.165803 h -1.837899 v -5.016348 l 1.139516,-0.385873 v -1.764535 -0.348715 -0.5326 z"
         id="path454"
         style="opacity:0.999;fill:#ff0000;stroke:#8b0000;stroke-width:0.252485" />
      <path
         d="m 34.592148,46.637392 h -0.912757 v 3.335657 h 0.912757 z"
         class="F"
         id="path458"
         style="fill:#ff0000;fill-rule:evenodd;stroke:#8b0000;stroke-width:0.290596;stroke-linejoin:round" />
      <path
         d="m 33.679391,46.638345 v 3.335657 h -0.925142 v -3.335657 z"
         class="F"
         id="path460"
         style="fill:#ff0000;fill-rule:evenodd;stroke:#8b0000;stroke-width:0.290596;stroke-linejoin:round" />
      <path
         style="fill:#ff0000;fill-rule:evenodd;stroke:#8b0000;stroke-width:0.273444;stroke-linejoin:round"
         d="M 34.619226,48.255906 H 38.2677 v 1.708076 h -3.648474 z"
         id="path2526" />
      <path
         style="fill:#ff0000;fill-rule:evenodd;stroke:#8b0000;stroke-width:0.273444;stroke-linejoin:round"
         d="m 34.601167,44.843112 h 3.684597 v 2.138176 h -3.684597 z"
         id="path468" />
      <path
         d="m 34.5921,49.973049 h 3.692946 v 1.046145 H 34.5921 Z"
         class="F"
         id="path470"
         style="fill:#ff0000;fill-rule:evenodd;stroke:#8b0000;stroke-width:0.252485;stroke-linejoin:round" />
      <path
         style="fill:#ff0000;fill-rule:evenodd;stroke:#8b0000;stroke-width:0.273444;stroke-linejoin:round"
         d="m 34.619229,46.981288 h 3.666535 v 1.274618 h -3.666535 z"
         id="path2530" />
      <path
         style="fill:#ff0000;fill-rule:evenodd;stroke:#8b0000;stroke-width:0.252485;stroke-linejoin:round"
         d="m 32.28639,51.019194 h 8.305319 v 1.084255 H 32.28639 Z"
         id="path472" />
    </g>
  </g>
  <path
     d="m 36.70381,15.948295 c -0.37101,0.382304 -0.43504,1.160097 -0.28186,1.721311 -0.48463,-0.32204 -1.24297,-0.505972 -1.72257,-0.273701 0.24671,0.473956 0.96988,0.779675 1.55119,0.808551 -0.45638,0.361589 -0.86695,1.03015 -0.79224,1.55935 0.52731,-0.09039 1.03958,-0.685511 1.24485,-1.231032 0.20527,0.545521 0.71752,1.140636 1.24485,1.231032 0.0746,-0.5292 -0.33586,-1.197761 -0.79224,-1.55935 0.58193,-0.02888 1.30448,-0.334595 1.55119,-0.808551 -0.47961,-0.232271 -1.23794,-0.04834 -1.72257,0.273701 0.15318,-0.561214 0.0898,-1.339007 -0.28186,-1.721311 z"
     class="J"
     id="path476"
     style="stroke-width:0.627758" />
  <defs
     id="defs491">
    <path
       id="B"
       d="m 162.885,117.801 c -0.557,-0.28 -1.398,-0.239 -1.707,-0.856 -0.039,-0.661 -0.9,-1.128 -0.366,-1.784 0.22,-0.533 -0.244,-1.255 0.619,-1.41 0.229,-0.397 0.179,-1.277 0.932,-1.364 0.558,-0.318 1.182,0.145 1.38,0.52 0.506,-0.208 1.432,-0.039 1.329,0.667 -0.22,0.601 0.188,0.801 0.708,0.725 0.662,0.301 0.263,1.078 0.083,1.566 a 5.11,5.11 0 0 0 -0.646,1.588 c -0.534,0.511 -1.401,0.337 -2.084,0.351 l -0.123,-0.002 z" />
    <path
       id="C"
       d="m 161.579,115.117 c -0.405,0.3 -0.174,0.942 0.313,0.965 0.166,0.231 -0.328,0.634 0.17,0.82 0.406,0.15 0.842,0.195 1.271,0.223 0.374,0.145 0.801,0.268 1.151,-0.006 0.441,-0.114 0.273,-0.599 0.408,-0.917 0.133,-0.37 0.314,-0.785 0.203,-1.179 -0.193,-0.183 -0.66,-0.034 -0.513,-0.481 0.025,-0.315 0.177,-0.814 -0.251,-0.925 -0.342,-0.196 -0.882,0.365 -0.948,-0.211 -0.045,-0.395 -0.431,-0.621 -0.796,-0.465 -0.472,0.139 -0.533,0.727 -0.4,1.128 -0.145,0.2 -0.666,0.017 -0.696,0.444 -0.156,0.373 0.781,0.467 0.089,0.603 z" />
    <path
       id="D"
       d="m 162.418,117.652 c 1.18,0.387 1.641,0.072 1.365,-0.962 1.076,0.902 1.393,-0.321 2.002,-0.728 0.287,0.995 0.396,2.069 -0.312,3.51 -1.313,-0.27 -2.222,-1.001 -3.055,-1.82 z" />
    <path
       id="E"
       d="m 169.006,123.646 c -1.868,1.1 -2.805,0.538 -4.044,0.515 0.155,-0.362 0.477,-0.614 0.772,-0.882 -0.87,-0.08 -1.69,-0.318 -2.316,-1.177 0.444,-0.303 0.855,-0.321 1.25,-0.184 -0.952,-0.505 -1.499,-1.211 -1.765,-2.059 0.829,-0.16 1.346,-0.142 1.838,-0.11 -0.76,-0.566 -0.231,-1.166 -0.404,-1.728 1.285,-0.021 1.36,0.488 1.949,0.772 -0.215,-0.538 0.265,-0.843 0.441,-1.25 0.664,0.43 0.99,1.114 1.066,1.985 -0.098,-0.402 0.111,-0.738 0.699,-0.993 0.339,0.71 0.564,1.473 0.368,2.427 0.115,-0.469 0.43,-0.537 0.735,-0.625 -0.014,0.952 0.46,1.502 -0.588,3.309 z" />
    <path
       id="F"
       d="m 166.212,123.646 c 1.144,-0.62 2.049,-0.684 2.702,0.018 -0.3,-0.822 -0.482,-1.621 -0.055,-2.298 -0.244,0.26 -0.595,0.28 -0.662,0.938 -0.418,-0.652 -0.348,-1.426 -0.184,-2.224 l -0.625,1.397 c -0.606,-0.683 -0.48,-1.421 -0.478,-2.151 -0.165,0.354 -0.407,0.656 -0.294,1.195 -0.568,-0.777 -0.972,-0.981 -1.452,-1.452 0.338,0.521 0.404,1.042 1.048,1.563 -0.524,-0.119 -0.927,-0.118 -1.305,-0.092 0.747,0.343 1.583,0.346 2.151,1.36 -1.19,0.11 -1.03,0.247 -1.452,0.313 1.36,0.305 1.287,-0.368 2.077,0.588 -0.794,0.016 -1.031,0.519 -1.471,0.846 z" />
    <path
       id="G"
       d="m 22.903,65.049 a 1.26,1.26 0 0 1 -1.259,1.259 1.26,1.26 0 0 1 -1.259,-1.259 1.26,1.26 0 0 1 1.259,-1.259 1.26,1.26 0 0 1 1.259,1.259 z" />
    <path
       id="H"
       d="m 22.489,64.764 a 0.66,0.66 0 0 1 -0.662,0.662 0.66,0.66 0 0 1 -0.662,-0.662 0.66,0.66 0 0 1 0.662,-0.662 0.66,0.66 0 0 1 0.662,0.662 z" />
    <path
       id="I"
       d="m 22.25,64.654 a 0.33,0.33 0 0 1 -0.331,0.331 0.33,0.33 0 0 1 -0.331,-0.331 0.33,0.33 0 0 1 0.331,-0.331 0.33,0.33 0 0 1 0.331,0.331 z" />
    <path
       id="J"
       d="m 173.896,124.961 a 1.259,1.259 0 1 1 -2.518,0 1.259,1.259 0 1 1 2.518,0 z" />
    <path
       id="K"
       d="m 173.482,124.676 a 0.662,0.662 0 1 1 -1.324,0 0.662,0.662 0 1 1 1.324,0 z" />
    <path
       id="L"
       d="m 173.243,124.566 a 0.331,0.331 0 1 1 -0.662,0 0.331,0.331 0 1 1 0.662,0 z" />
    <path
       id="M"
       d="m 205.809,118.812 c 0.937,1.105 1.789,2.175 0.993,4.246 -1.747,-1.099 -1.108,-2.83 -0.993,-4.246 z" />
    <path
       id="N"
       d="m 206.154,119.761 c 0.179,0.549 0.919,1.213 0.573,2.36 -0.139,-0.777 -0.458,-1.797 -0.573,-2.36 z" />
  </defs>
  <g
     id="g2434"
     transform="translate(0.26458311,0.26458311)">
    <path
       style="color:#000000;font-style:normal;font-variant:normal;font-weight:normal;font-stretch:normal;font-size:medium;line-height:normal;font-family:sans-serif;font-variant-ligatures:normal;font-variant-position:normal;font-variant-caps:normal;font-variant-numeric:normal;font-variant-alternates:normal;font-variant-east-asian:normal;font-feature-settings:normal;font-variation-settings:normal;text-indent:0;text-align:start;text-decoration:none;text-decoration-line:none;text-decoration-style:solid;text-decoration-color:#000000;letter-spacing:normal;word-spacing:normal;text-transform:none;writing-mode:lr-tb;direction:ltr;text-orientation:mixed;dominant-baseline:auto;baseline-shift:baseline;text-anchor:start;white-space:normal;shape-padding:0;shape-margin:0;inline-size:0;clip-rule:nonzero;display:inline;overflow:visible;visibility:visible;opacity:1;isolation:auto;mix-blend-mode:normal;color-interpolation:sRGB;color-interpolation-filters:linearRGB;solid-color:#000000;solid-opacity:1;vector-effect:none;fill:#aaaa00;fill-opacity:1;fill-rule:nonzero;stroke:#3c3c00;stroke-width:0.529166;stroke-linecap:butt;stroke-linejoin:miter;stroke-miterlimit:4;stroke-dasharray:none;stroke-dashoffset:0;stroke-opacity:1;color-rendering:auto;image-rendering:auto;shape-rendering:auto;text-rendering:auto;enable-background:accumulate;stop-color:#000000;stop-opacity:1"
       d="M 36.439453,0 C 29.772579,0 24.464711,0.45456107 17.541016,1.8808594 l -0.837891,0.171875 -0.125,0.8476562 C 16.281233,4.8978273 14.492649,7.9834225 11.683594,10.652344 8.8745388,13.321265 5.0915056,15.620366 0.97265625,16.486328 L 0,16.691406 v 37.972656 c 0,9.184184 7.8542021,18.159312 16.128906,25.21875 4.137352,3.52972 8.420576,6.568159 12.003906,8.845704 3.583331,2.277544 6.35879,3.768602 7.904297,4.304687 l 0.402344,0.138672 0.400391,-0.138672 c 1.545508,-0.536085 4.320965,-2.027143 7.904297,-4.304687 3.583331,-2.277545 7.866554,-5.315984 12.003906,-8.845704 8.274704,-7.059438 16.128906,-16.034566 16.128906,-25.21875 V 16.691406 L 71.904297,16.486328 C 67.785447,15.620367 64.002283,13.321257 61.193359,10.652344 58.384436,7.9834304 56.597674,4.8978671 56.300781,2.9003906 L 56.173828,2.0527344 55.335938,1.8808594 C 48.41222,0.45455881 43.106342,0 36.439453,0 Z m 0,2.4492188 c 6.306451,0 11.289394,0.4469747 17.691406,1.7207031 0.687899,2.7002171 2.594288,5.6176572 5.375,8.2597661 2.870632,2.727545 6.659573,5.053179 10.921875,6.166015 v 36.068359 c 0,7.72969 -7.209324,16.479026 -15.269531,23.355469 -4.030103,3.438222 -8.232247,6.420371 -11.728515,8.642578 -3.306709,2.101725 -5.856601,3.392393 -6.992188,3.835938 C 35.301455,90.054168 32.753264,88.763383 29.447266,86.662109 25.950997,84.439902 21.748853,81.457753 17.71875,78.019531 9.6585431,71.143088 2.4492187,62.393752 2.4492188,54.664062 V 18.595703 c 4.2623087,-1.112834 8.0511252,-3.438477 10.9218752,-6.166015 2.780827,-2.6421019 4.687067,-5.5595231 5.375,-8.2597661 6.4029,-1.2740283 11.386301,-1.7207031 17.693359,-1.7207031 z"
       id="path1069" />
    <path
       id="path2429"
       style="color:#000000;font-style:normal;font-variant:normal;font-weight:normal;font-stretch:normal;font-size:medium;line-height:normal;font-family:sans-serif;font-variant-ligatures:normal;font-variant-position:normal;font-variant-caps:normal;font-variant-numeric:normal;font-variant-alternates:normal;font-variant-east-asian:normal;font-feature-settings:normal;font-variation-settings:normal;text-indent:0;text-align:start;text-decoration:none;text-decoration-line:none;text-decoration-style:solid;text-decoration-color:#000000;letter-spacing:normal;word-spacing:normal;text-transform:none;writing-mode:lr-tb;direction:ltr;text-orientation:mixed;dominant-baseline:auto;baseline-shift:baseline;text-anchor:start;white-space:normal;shape-padding:0;shape-margin:0;inline-size:0;clip-rule:nonzero;display:inline;overflow:visible;visibility:visible;opacity:1;isolation:auto;mix-blend-mode:normal;color-interpolation:sRGB;color-interpolation-filters:linearRGB;solid-color:#000000;solid-opacity:1;vector-effect:none;fill:#ffff00;fill-opacity:1;fill-rule:nonzero;stroke:none;stroke-width:0.529166;stroke-linecap:butt;stroke-linejoin:miter;stroke-miterlimit:4;stroke-dasharray:none;stroke-dashoffset:0;stroke-opacity:1;color-rendering:auto;image-rendering:auto;shape-rendering:auto;text-rendering:auto;enable-background:accumulate;stop-color:#000000;stop-opacity:1"
       sodipodi:type="inkscape:offset"
       inkscape:radius="-0.75278139"
       inkscape:original="M 36.439453 0 C 29.772579 0 24.464711 0.45456105 17.541016 1.8808594 L 16.703125 2.0527344 L 16.578125 2.9003906 C 16.281233 4.8978273 14.492649 7.9834223 11.683594 10.652344 C 8.8745386 13.321265 5.0915056 15.620366 0.97265625 16.486328 L 0 16.691406 L 0 54.664062 C 0 63.848247 7.8542023 72.823374 16.128906 79.882812 C 20.266258 83.412532 24.549482 86.450971 28.132812 88.728516 C 31.716144 91.00606 34.491602 92.497118 36.037109 93.033203 L 36.439453 93.171875 L 36.839844 93.033203 C 38.385352 92.497118 41.160809 91.00606 44.744141 88.728516 C 48.327472 86.450971 52.610695 83.412532 56.748047 79.882812 C 65.022751 72.823374 72.876953 63.848246 72.876953 54.664062 L 72.876953 16.691406 L 71.904297 16.486328 C 67.785447 15.620367 64.002283 13.321257 61.193359 10.652344 C 58.384436 7.9834302 56.597674 4.8978671 56.300781 2.9003906 L 56.173828 2.0527344 L 55.335938 1.8808594 C 48.412219 0.45455878 43.106342 -2.9605947e-16 36.439453 0 z M 36.439453 2.4492188 C 42.745904 2.4492188 47.728847 2.8961935 54.130859 4.1699219 C 54.818758 6.870139 56.725147 9.7875786 59.505859 12.429688 C 62.376491 15.157233 66.165432 17.482867 70.427734 18.595703 L 70.427734 54.664062 C 70.427734 62.393752 63.21841 71.143088 55.158203 78.019531 C 51.1281 81.457753 46.925955 84.439902 43.429688 86.662109 C 40.122979 88.763834 37.573087 90.054502 36.4375 90.498047 C 35.301455 90.054168 32.753264 88.763383 29.447266 86.662109 C 25.950997 84.439902 21.748853 81.457753 17.71875 78.019531 C 9.6585431 71.143088 2.4492186 62.393752 2.4492188 54.664062 L 2.4492188 18.595703 C 6.7115275 17.482869 10.500344 15.157226 13.371094 12.429688 C 16.151921 9.7875856 18.058161 6.8701649 18.746094 4.1699219 C 25.148994 2.8958936 30.132395 2.4492187 36.439453 2.4492188 z "
       d="m 36.439453,0.75195312 c -6.632656,0 -11.865908,0.44789898 -18.746094,1.86523438 a 0.75285667,0.75285667 0 0 1 -0.002,0.00195 l -0.320312,0.064453 -0.04883,0.3261718 a 0.75285667,0.75285667 0 0 1 0,0.00195 C 16.977308,5.3325294 15.104588,8.43869 12.201172,11.197266 9.3039514,13.949953 5.4175135,16.320593 1.1269531,17.222656 l -0.37499998,0.08008 v 37.361328 c 0,8.755006 7.65126628,17.638863 15.86523488,24.646485 4.104467,3.501665 8.363199,6.522569 11.919921,8.783203 3.560349,2.262936 6.345268,3.742616 7.746094,4.228516 l 0.15625,0.05273 0.154297,-0.05273 c 1.400827,-0.4859 4.185745,-1.96558 7.746094,-4.228516 3.556723,-2.260634 7.815454,-5.281538 11.919922,-8.783203 C 64.473734,72.302925 72.125,63.419067 72.125,54.664062 V 17.302734 l -0.375,-0.08008 h -0.002 C 67.458218,16.320303 63.572473,13.949571 60.675781,11.197266 57.772388,8.4385903 55.901532,5.3321231 55.556641,3.0117188 l -0.04883,-0.328125 -0.322265,-0.064453 a 0.75285667,0.75285667 0 0 1 -0.002,-0.00195 C 48.303356,1.1998441 43.072125,0.75195312 36.439453,0.75195312 Z m 0,0.94531248 c 6.34202,0 11.395616,0.452636 17.837891,1.734375 a 0.75285667,0.75285667 0 0 1 0.582031,0.5527344 c 0.637783,2.5034959 2.459404,5.3305436 5.164063,7.900391 2.785746,2.64689 6.473978,4.906798 10.59375,5.982422 a 0.75285667,0.75285667 0 0 1 0.5625,0.728515 v 36.068359 c 0,8.19776 -7.401752,16.990511 -15.533204,23.927735 -4.063156,3.466421 -8.289373,6.465799 -11.8125,8.705078 -3.336817,2.120862 -5.882199,3.417685 -7.123046,3.902344 a 0.75285667,0.75285667 0 0 1 -0.546876,0 C 34.92266,90.714174 32.378973,89.417221 29.042969,87.296875 25.51984,85.057596 21.293625,82.058218 17.230469,78.591797 9.0990174,71.654573 1.6972654,62.861822 1.6972656,54.664062 V 18.595703 a 0.75285667,0.75285667 0 0 1 0.5625,-0.728515 C 6.3795395,16.791568 10.067634,14.531669 12.853516,11.884766 15.558274,9.3149371 17.379755,6.4879295 18.017578,3.984375 A 0.75285667,0.75285667 0 0 1 18.599609,3.4316406 C 25.042802,2.149595 30.096853,1.6972655 36.439453,1.6972656 Z" />
  </g>
</svg>
