<?xml version="1.0" encoding="UTF-8" standalone="no"?>
<svg
   xmlns:dc="http://purl.org/dc/elements/1.1/"
   xmlns:cc="http://creativecommons.org/ns#"
   xmlns:rdf="http://www.w3.org/1999/02/22-rdf-syntax-ns#"
   xmlns:svg="http://www.w3.org/2000/svg"
   xmlns="http://www.w3.org/2000/svg"
   xmlns:xlink="http://www.w3.org/1999/xlink"
   xmlns:sodipodi="http://sodipodi.sourceforge.net/DTD/sodipodi-0.dtd"
   xmlns:inkscape="http://www.inkscape.org/namespaces/inkscape"
   width="399.628"
   height="495.987"
   viewBox="0 0 105.735 131.23"
   version="1.1"
   id="svg281"
   sodipodi:docname="Seal of Ponorogo Regency (1).svg"
   inkscape:version="1.0.1 (3bc2e813f5, 2020-09-07)">
  <metadata
     id="metadata285">
    <rdf:RDF>
      <cc:Work
         rdf:about="">
        <dc:format>image/svg+xml</dc:format>
        <dc:type
           rdf:resource="http://purl.org/dc/dcmitype/StillImage" />
      </cc:Work>
    </rdf:RDF>
  </metadata>
  <sodipodi:namedview
     pagecolor="#ffffff"
     bordercolor="#666666"
     borderopacity="1"
     objecttolerance="10"
     gridtolerance="10"
     guidetolerance="10"
     inkscape:pageopacity="0"
     inkscape:pageshadow="2"
     inkscape:window-width="1366"
     inkscape:window-height="705"
     id="namedview283"
     showgrid="false"
     inkscape:zoom="0.90715071"
     inkscape:cx="273.47704"
     inkscape:cy="220.83214"
     inkscape:window-x="-8"
     inkscape:window-y="-8"
     inkscape:window-maximized="1"
     inkscape:current-layer="svg281" />
  <style
     id="style2"><![CDATA[.B{fill:#fff}.C{fill:#f5c742}.D{stroke:#005b31}.E{fill:#ffeba3}.F{fill:#c8d3d9}.G{stroke:#7c909b}.H{stroke-width:.665}.I{fill:#018f50}.J{stroke-width:.765}.K{stroke-linejoin:round}.L{stroke:#a07843}.M{stroke-width:.265}.N{fill-rule:evenodd}.O{opacity:.999}.P{stroke-width:.714}.Q{stroke-linecap:round}.R{stroke-width:.794}]]></style>
  <defs
     id="defs21">
    <linearGradient
       id="A"
       gradientUnits="userSpaceOnUse">
      <stop
         offset="0"
         stop-color="#fff"
         id="stop4" />
      <stop
         offset="1"
         stop-color="#dcdcdc"
         id="stop6" />
    </linearGradient>
    <linearGradient
       id="B"
       x1="396.852"
       y1="1038.55"
       x2="396.852"
       y2="973.866"
       gradientUnits="userSpaceOnUse"
       gradientTransform="matrix(0.26458333,0,0,0.26458333,-52.133,-143.553)">
      <stop
         offset="0"
         stop-color="#006c94"
         id="stop9" />
      <stop
         offset="1"
         stop-color="#0095cc"
         id="stop11" />
    </linearGradient>
    <linearGradient
       xlink:href="#A"
       id="C"
       x1="65.821"
       y1="174.944"
       x2="90.738"
       y2="174.944" />
    <linearGradient
       xlink:href="#A"
       id="D"
       x1="144.179"
       y1="174.944"
       x2="119.262"
       y2="174.944" />
    <path
       id="E"
       d="M95.194 226.284v7.525h-1.883v2.268h6.741v-2.268-7.525z" />
    <path
       id="F"
       d="M-13.936 237.13c-1.61.941-3.478 1.647-4.752 3.034-.923 1.65-.047 3.722 1.108 5.02 1.586 1.576 4.063 2.91 6.291 1.944 1.081-.917 1.487-2.418 2.821-3.099 1.467-1.189-.295-2.702.389-4.099.29-1.873-2.159-1.584-3.338-1.918-.892-.384-1.418-1.109-2.519-.883z" />
    <path
       id="G"
       d="M-16.56 237.83c-2.14 2.318-5.326 1.407-6.397 6.685.613 2.708 4.253 3.565 9.615 3.37l-1.933-2.627 2.478-2.577-3.321-.397z" />
    <path
       id="H"
       d="M-13.317 240.129c.291-.7-.146-1.569-.981-1.413-1.027-.084-1.63 1.269-1.093 2.066.591.99 1.892.893 2.877.746.733-.102 1.348.755.875 1.376-.487.644-1.185 1.115-1.6 1.811-.414.958.872 1.525 1.638 1.223.943-.117 1.365-1.323.813-2.055.036-.621 1.153-.561 1.074-1.346.479-.824-.749-1.065-.591-1.764.336-.768-.407-1.632-1.211-1.353-.628.186-1.096.752-1.8.709z" />
    <path
       id="I"
       d="M75.993 217.672l-.643 3.689c-2.085 3.568-.46 7.028.946 10.495.092.228.87 2.755.96 2.983.018-.232-.639-2.755-.6-2.972.499-2.828 2.442-4.588-1.218-10.487z" />
  </defs>
  <path
     d="M 52.867,0 C 39.105,0 26.684,2.355 13.747,12.897 14.362,27.436 3.004,33.435 0.188,33.364 c -2.136,38.931 14.354,79.762 24.209,86.962 l 28.47,10.904 28.469,-10.904 C 91.191,113.127 107.681,72.295 105.545,33.364 102.729,33.434 91.371,27.436 91.986,12.897 79.049,2.355 66.629,0 52.866,0 Z"
     fill="#00afef"
     id="path23" />
  <path
     d="m 16.505,92.524 v 1.301 h -1.363 v -1.301 h -2.856 c 2.087,5.879 4.349,11.056 6.564,15.22 a 57.67,57.67 0 0 0 2.236,3.846 H 84.65 c 0.733,-1.154 1.486,-2.437 2.236,-3.846 2.215,-4.164 4.477,-9.341 6.564,-15.22 h -2.856 v 1.301 h -1.363 v -1.301 h -1.363 v 1.301 H 86.505 V 92.524 H 19.231 v 1.301 h -1.364 v -1.301 z"
     fill="#00a870"
     class="N"
     id="path25" />
  <g
     id="g1313">
    <path
       d="m 28.907551,109.01296 c -2.034117,0.0328 -4.536017,0.69506 -7.820289,2.58074 1.928018,3.03266 3.720306,5.14562 4.94956,6.09732 l 26.829808,10.27536 26.830337,-10.27536 c 1.230313,-0.9525 3.024188,-3.06758 4.953794,-6.10393 -12.652375,-7.257 -13.658321,3.70099 -21.261652,-1.53935 -2.277004,1.17105 -3.266017,1.17105 -5.257006,0 -2.277004,1.17105 -3.266017,1.17105 -5.257006,0 -2.277005,1.17105 -3.266017,1.17105 -5.257007,0 -2.277004,1.17105 -3.266016,1.17105 -5.257006,0 -5.633243,3.8825 -7.644077,-1.12845 -13.453533,-1.03452 z"
       fill="url(#B)"
       stroke="#ffffff"
       stroke-width="1.16496"
       id="path27"
       style="fill:url(#B)" />
    <path
       d="m 34.713,113.412 c 2.863,0.58 5.774,2.928 8.551,0.421 1.544,0.547 3.404,0.849 4.907,0 1.255,0.658 3.178,1.168 4.696,0 1.519,1.168 3.441,0.658 4.696,0 1.503,0.849 3.362,0.547 4.907,0 2.778,2.507 5.689,0.159 8.551,-0.421 m -29.195,3.843 c 0.483,-0.178 0.962,-0.465 1.438,-0.894 1.544,0.547 3.404,0.849 4.907,0 1.255,0.658 3.178,1.168 4.696,0 1.519,1.168 3.441,0.658 4.696,0 1.503,0.849 3.362,0.547 4.907,0 0.476,0.429 0.956,0.716 1.438,0.894 m -19.758,2.273 a 4.33,4.33 0 0 0 0.601,-0.546 c 1.302,0.554 2.869,0.86 4.136,0 1.058,0.666 2.679,1.182 3.959,0 1.28,1.182 2.901,0.666 3.959,0 1.267,0.86 2.834,0.554 4.136,0 a 4.27,4.27 0 0 0 0.646,0.579 m -14.61,2.268 a 3.8,3.8 0 0 0 1.478,-0.498 c 1.205,0.666 3.051,1.182 4.509,0 1.458,1.182 3.304,0.666 4.509,0 0.404,0.24 0.834,0.39 1.277,0.468"
       stroke="#ade9ff"
       stroke-width="0.503"
       id="path29"
       style="fill:none" />
  </g>
  <g
     id="g1303">
    <path
       d="M 81.708,103.229 H 60.359 m 21.349,-0.789 h -3.172 m 3.172,-1.577 h -3.172 m 3.172,0.788 h -3.172"
       class="O"
       id="path31"
       style="fill:none;stroke:#005337;stroke-width:0.566" />
    <path
       d="m 81.708,100.074 h -3.172 m 3.172,-0.789 h -25.94 m 22.768,0 v 3.943 m -54.51,0.001 h 18.79"
       class="O"
       id="path33"
       style="fill:none;stroke:#005337;stroke-width:0.566" />
    <path
       d="m 24.026,102.44 h 3.172 m -3.172,-1.577 h 3.172 m -3.172,0.788 h 3.172 m -3.172,-1.577 h 3.172 m -3.172,-0.789 h 27.026 m -23.854,0 v 3.943"
       class="O"
       id="path35"
       style="fill:none;stroke:#005337;stroke-width:0.566" />
  </g>
  <g
     class="B"
     id="g45"
     transform="translate(-52.133,-143.553)">
    <path
       d="m 102.629,241.998 -0.434,0.6 c -1.463,2.026 -8.099,4.397 -13.639,5.629 -5.54,1.232 -12.213,1.407 -18.301,-0.516 l -0.393,1.24 c 6.368,2.011 13.245,1.819 18.975,0.545 5.396,-1.2 11.919,-3.299 13.973,-5.701 2.023,1.023 1.984,3.438 8.647,3.68 -4.475,-1.125 -6.333,-3.129 -8.289,-4.969 z"
       id="path41" />
    <path
       d="m 107.703,242.529 -2.395,2.076 0.852,0.982 1.721,-1.492 c 6.716,3.867 9.472,5.677 14.529,5.906 5.178,0.234 10.409,-1.099 17.807,-3.205 l -0.355,-1.252 c -7.38,2.102 -12.477,3.381 -17.391,3.158 -4.914,-0.223 -7.492,-1.929 -14.365,-5.939 z"
       id="path43" />
  </g>
  <g
     id="g1240">
    <path
       d="m 52.867,1.549 c -13.204,0 -24.852,2.184 -37.101,11.775 l -0.561,0.44 -0.016,0.711 C 15.046,21.279 12.45,26.413 9.382,29.672 7.701,31.458 5.916,32.743 4.314,33.604 3.74,33.912 3.237,34.127 2.666,34.362 l -0.895,0.367 -0.033,0.965 c -0.674,18.505 2.688,37.369 7.533,52.582 2.519,7.91 5.411,14.829 8.254,20.174 2.785,5.235 5.496,8.803 7.594,10.427 l 0.174,0.137 27.574,10.558 27.575,-10.559 0.174,-0.137 c 2.098,-1.624 4.809,-5.192 7.594,-10.427 2.843,-5.345 5.734,-12.263 8.254,-20.174 4.845,-15.214 8.207,-34.077 7.533,-52.582 l -0.033,-0.965 -0.895,-0.367 c -0.571,-0.235 -1.075,-0.45 -1.648,-0.758 -1.602,-0.861 -3.388,-2.146 -5.068,-3.932 -3.068,-3.259 -5.664,-8.393 -5.807,-15.197 L 90.53,13.763 89.969,13.323 C 77.719,3.732 66.071,1.548 52.867,1.548 Z m -13.769,4.138 0.837,0.727 c 0.713,-0.608 3.334,0.496 2.663,4.03 1.56,-0.024 2.024,1.414 2.208,3.225 l 0.596,10.9 c 1.787,1.708 0.473,4.31 0.296,4.32 0.871,0.518 2.07,0.873 2.157,2.444 0.057,1.03 -0.007,2.043 -1.138,2.989 0.948,0.541 1.805,1.159 2.294,2.093 0.12,1.714 -0.459,2.346 -1.049,2.962 0.46,0.774 0.959,1.256 1.294,2.961 h 3.611 3.61 c 0.336,-1.705 0.835,-2.187 1.294,-2.961 -0.59,-0.616 -1.169,-1.248 -1.049,-2.962 0.489,-0.934 1.347,-1.552 2.294,-2.093 -1.131,-0.946 -1.195,-1.959 -1.138,-2.989 0.087,-1.571 1.286,-1.926 2.157,-2.444 -0.177,-0.011 -1.491,-2.612 0.296,-4.32 l 0.596,-10.9 c 0.184,-1.811 0.648,-3.249 2.208,-3.225 -0.671,-3.534 1.95,-4.638 2.663,-4.03 l 0.837,-0.727 c 7.124,1.375 13.878,4.219 21.002,9.688 0.356,7.114 3.1,12.709 6.529,16.351 1.913,2.032 3.949,3.511 5.83,4.522 0.366,0.196 0.662,0.307 0.989,0.453 0.519,17.784 -2.713,35.999 -7.383,50.664 -2.471,7.759 -5.308,14.533 -8.043,19.674 -2.613,4.912 -5.363,8.295 -6.687,9.361 L 52.867,126.361 26.861,116.4 c -1.325,-1.066 -4.074,-4.449 -6.687,-9.361 C 17.439,101.899 14.602,95.125 12.131,87.365 7.461,72.7 4.229,54.484 4.748,36.701 5.075,36.554 5.371,36.444 5.737,36.248 7.618,35.237 9.654,33.759 11.567,31.726 14.996,28.083 17.74,22.488 18.096,15.375 25.22,9.906 31.975,7.062 39.098,5.687 Z"
       fill="#dcdcdc"
       stroke="#848484"
       stroke-width="0.6"
       id="path47" />
    <path
       d="m 52.867,2.531 c -13.096,0 -24.427,2.117 -36.496,11.566 l -0.194,0.152 -0.005,0.246 C 16.024,21.538 13.329,26.911 10.098,30.344 8.34,32.211 6.473,33.558 4.779,34.468 4.162,34.8 3.618,35.031 3.04,35.269 L 2.731,35.396 2.72,35.727 c -0.668,18.364 2.674,37.135 7.487,52.251 2.504,7.861 5.377,14.733 8.185,20.011 2.748,5.165 5.457,8.663 7.328,10.112 l 0.064,0.05 27.083,10.369 27.084,-10.37 0.056,-0.044 c 1.879,-1.454 4.588,-4.952 7.335,-10.117 2.808,-5.278 5.681,-12.15 8.185,-20.011 4.814,-15.115 8.156,-33.887 7.487,-52.248 l -0.011,-0.333 -0.307,-0.126 c -0.579,-0.238 -1.123,-0.47 -1.74,-0.802 -1.693,-0.91 -3.561,-2.257 -5.319,-4.124 -3.231,-3.433 -5.926,-8.806 -6.074,-15.849 V 14.495 L 89.558,14.249 89.364,14.097 89.363,14.096 C 77.295,4.648 65.963,2.53 52.868,2.53 Z M 39.082,4.706 a 0.98,0.98 0 0 1 0.659,0.24 l 0.397,0.345 a 2.31,2.31 0 0 1 0.817,0.04 c 0.536,0.117 1.058,0.398 1.514,0.841 0.76,0.739 1.243,1.963 1.173,3.512 0.613,0.246 1.128,0.673 1.428,1.197 0.462,0.805 0.615,1.727 0.713,2.689 a 0.98,0.98 0 0 1 0.004,0.045 l 0.58,10.608 c 0.866,1.055 1.033,2.326 0.892,3.285 -0.057,0.388 -0.171,0.677 -0.278,0.971 0.23,0.132 0.473,0.277 0.719,0.483 0.57,0.476 1.079,1.287 1.136,2.317 0.045,0.825 -0.039,1.889 -0.657,2.856 0.66,0.474 1.283,1.023 1.703,1.824 a 0.98,0.98 0 0 1 0.11,0.387 c 0.102,1.45 -0.346,2.445 -0.828,3.119 a 6.96,6.96 0 0 1 0.847,1.891 h 2.856 2.857 a 6.96,6.96 0 0 1 0.847,-1.891 c -0.483,-0.674 -0.93,-1.669 -0.828,-3.119 a 0.98,0.98 0 0 1 0.11,-0.387 c 0.42,-0.802 1.044,-1.35 1.703,-1.824 -0.619,-0.967 -0.703,-2.031 -0.657,-2.856 0.057,-1.03 0.565,-1.841 1.136,-2.317 0.246,-0.205 0.488,-0.35 0.719,-0.483 -0.106,-0.294 -0.221,-0.583 -0.278,-0.971 -0.141,-0.958 0.026,-2.23 0.892,-3.285 l 0.58,-10.608 a 0.98,0.98 0 0 1 0.004,-0.045 c 0.098,-0.962 0.251,-1.884 0.713,-2.689 0.3,-0.523 0.815,-0.951 1.428,-1.197 -0.071,-1.549 0.412,-2.773 1.173,-3.512 0.456,-0.443 0.979,-0.724 1.514,-0.841 a 2.31,2.31 0 0 1 0.817,-0.04 l 0.397,-0.345 a 0.98,0.98 0 0 1 0.829,-0.223 c 7.257,1.401 14.183,4.322 21.414,9.873 a 0.98,0.98 0 0 1 0.383,0.73 c 0.344,6.888 2.999,12.26 6.263,15.728 1.838,1.952 3.791,3.368 5.58,4.329 0.305,0.164 0.565,0.261 0.926,0.423 a 0.98,0.98 0 0 1 0.579,0.867 c 0.523,17.922 -2.727,36.226 -7.429,50.991 -2.487,7.809 -5.341,14.629 -8.112,19.837 -2.659,4.999 -5.341,8.379 -6.938,9.665 a 0.98,0.98 0 0 1 -0.265,0.152 l -26.006,9.961 a 0.98,0.98 0 0 1 -0.703,0 l -26.006,-9.961 a 0.98,0.98 0 0 1 -0.265,-0.152 C 24.647,115.88 21.965,112.5 19.306,107.501 16.536,102.293 13.681,95.474 11.194,87.664 6.492,72.9 3.242,54.595 3.765,36.673 a 0.98,0.98 0 0 1 0.579,-0.867 c 0.361,-0.162 0.621,-0.259 0.926,-0.423 1.789,-0.962 3.742,-2.377 5.58,-4.329 3.264,-3.468 5.918,-8.84 6.263,-15.728 a 0.98,0.98 0 0 1 0.383,-0.73 C 24.727,9.044 31.653,6.123 38.91,4.723 a 0.98,0.98 0 0 1 0.171,-0.018 z"
       class="B"
       id="path49" />
  </g>
  <g
     id="g1290">
    <g
       stroke="#c0c0c0"
       stroke-width="0.679"
       class="K"
       id="g61"
       transform="translate(-52.133,-143.553)">
      <path
         d="m 80.803,166.054 4.929,9.42 c -4.963,2.4 -9.395,3.438 -15.175,7.933 l 1.74,-6.247 -5.896,-1.388 c 4.032,-5.462 9.457,-6.894 14.402,-9.718 z"
         fill="url(#C)"
         id="path51"
         style="fill:url(#C)" />
      <path
         d="m 71.647,164.579 4.511,9.536 9.574,1.359 -4.929,-9.42 z"
         fill="#dddddd"
         id="path53" />
      <path
         d="m 129.197,166.054 -4.929,9.42 c 4.963,2.4 9.395,3.438 15.175,7.933 l -1.74,-6.247 5.896,-1.388 c -4.032,-5.462 -9.457,-6.894 -14.402,-9.718 z"
         fill="url(#D)"
         id="path55"
         style="fill:url(#D)" />
      <path
         d="m 138.353,164.579 -4.511,9.536 -9.574,1.359 4.929,-9.42 z"
         fill="#dddddd"
         id="path57" />
      <path
         d="m 105,156.867 c -9.895,0 -20.773,2.229 -33.353,7.713 l 4.511,9.536 c 8.898,-3.944 20.69,-6.872 28.842,-6.872 8.152,0 19.944,2.928 28.842,6.872 l 4.511,-9.536 c -12.58,-5.483 -23.458,-7.713 -33.353,-7.713 z"
         class="B"
         id="path59" />
    </g>
    <path
       d="m 26.551,27.599 -2.376,-6.191 2.006,-0.77 q 1.14,-0.438 1.522,-0.478 0.586,-0.065 1.125,0.266 0.537,0.327 0.821,1.066 0.219,0.57 0.161,1.038 -0.058,0.468 -0.293,0.815 -0.232,0.341 -0.534,0.539 -0.414,0.26 -1.263,0.586 l -0.815,0.313 0.896,2.336 z m -0.724,-5.624 0.674,1.757 0.684,-0.263 q 0.739,-0.284 0.951,-0.476 0.212,-0.193 0.272,-0.453 0.064,-0.262 -0.041,-0.537 -0.13,-0.338 -0.412,-0.481 -0.283,-0.143 -0.608,-0.082 -0.24,0.044 -0.916,0.303 z m 5.316,0.381 q -0.288,-0.971 -0.194,-1.717 0.073,-0.55 0.331,-1.047 0.263,-0.498 0.654,-0.817 0.519,-0.428 1.296,-0.658 1.405,-0.417 2.505,0.205 1.104,0.621 1.565,2.173 0.457,1.539 -0.121,2.66 -0.579,1.116 -1.98,1.532 -1.418,0.421 -2.511,-0.193 -1.094,-0.619 -1.545,-2.137 z m 1.31,-0.436 q 0.321,1.08 0.985,1.491 0.664,0.407 1.431,0.179 0.768,-0.228 1.094,-0.924 0.33,-0.702 10e-4,-1.808 -0.324,-1.093 -0.966,-1.488 -0.637,-0.396 -1.43,-0.16 -0.794,0.236 -1.117,0.926 -0.325,0.686 10e-4,1.783 z m 6.822,1.499 -1.352,-6.492 1.275,-0.266 3.56,3.782 -0.903,-4.336 1.218,-0.254 1.352,6.492 -1.315,0.274 -3.499,-3.689 0.882,4.234 z m 5.969,-4.579 q -0.096,-1.009 0.141,-1.722 0.177,-0.526 0.527,-0.963 0.354,-0.438 0.799,-0.676 0.592,-0.32 1.398,-0.396 1.459,-0.138 2.419,0.684 0.964,0.822 1.117,2.434 0.152,1.599 -0.632,2.586 -0.784,0.983 -2.238,1.121 -1.473,0.14 -2.427,-0.674 -0.955,-0.818 -1.104,-2.395 z m 1.369,-0.175 q 0.106,1.121 0.679,1.653 0.573,0.527 1.37,0.452 0.797,-0.076 1.252,-0.696 0.459,-0.625 0.35,-1.773 -0.108,-1.135 -0.66,-1.646 -0.548,-0.511 -1.372,-0.433 -0.824,0.078 -1.275,0.693 -0.451,0.611 -0.343,1.75 z m 6.401,2.844 0.449,-6.616 2.812,0.191 q 1.061,0.072 1.527,0.285 0.471,0.209 0.729,0.684 0.258,0.475 0.218,1.062 -0.051,0.745 -0.521,1.202 -0.471,0.453 -1.35,0.52 0.416,0.282 0.675,0.604 0.264,0.322 0.69,1.126 l 0.72,1.346 -1.598,-0.109 -0.868,-1.505 Q 56.035,19.492 55.859,19.281 55.683,19.065 55.476,18.978 55.269,18.887 54.809,18.856 L 54.538,18.838 54.35,21.6 Z m 1.595,-3.727 0.988,0.067 q 0.961,0.065 1.206,0 0.245,-0.065 0.394,-0.254 0.149,-0.189 0.169,-0.487 0.023,-0.334 -0.144,-0.549 -0.162,-0.22 -0.483,-0.296 -0.161,-0.034 -0.973,-0.089 l -1.043,-0.071 z m 5.415,1.027 q 0.189,-0.995 0.615,-1.614 0.317,-0.455 0.774,-0.778 0.462,-0.322 0.956,-0.426 0.658,-0.142 1.453,0.009 1.44,0.274 2.132,1.331 0.697,1.058 0.394,2.649 -0.3,1.578 -1.327,2.308 -1.027,0.726 -2.462,0.453 -1.453,-0.276 -2.143,-1.324 -0.689,-1.052 -0.393,-2.607 z m 1.364,0.213 q -0.21,1.107 0.192,1.777 0.403,0.666 1.19,0.816 0.787,0.15 1.396,-0.319 0.615,-0.473 0.83,-1.606 0.213,-1.12 -0.176,-1.765 -0.384,-0.644 -1.197,-0.799 -0.813,-0.155 -1.417,0.311 -0.603,0.461 -0.817,1.585 z m 8.993,2.974 0.305,-1.075 2.776,0.789 -0.722,2.541 q -0.516,0.277 -1.371,0.358 -0.85,0.078 -1.638,-0.146 -1.001,-0.284 -1.626,-0.914 -0.624,-0.634 -0.777,-1.519 -0.152,-0.89 0.109,-1.808 0.283,-0.996 0.921,-1.652 0.638,-0.656 1.56,-0.84 0.704,-0.143 1.618,0.116 1.188,0.338 1.711,1.027 0.529,0.686 0.471,1.62 l -1.347,-0.124 q -10e-4,-0.508 -0.299,-0.884 -0.292,-0.379 -0.849,-0.538 -0.844,-0.24 -1.497,0.153 -0.648,0.394 -0.947,1.447 -0.323,1.136 0.02,1.849 0.344,0.709 1.162,0.942 0.405,0.115 0.854,0.073 0.455,-0.045 0.811,-0.188 l 0.23,-0.809 z m 4.186,0.363 q 0.357,-0.948 0.883,-1.485 0.39,-0.394 0.896,-0.634 0.51,-0.238 1.015,-0.256 0.672,-0.027 1.43,0.258 1.372,0.516 1.873,1.677 0.505,1.162 -0.066,2.677 -0.566,1.503 -1.703,2.046 -1.136,0.539 -2.503,0.024 -1.384,-0.521 -1.884,-1.671 -0.498,-1.154 0.06,-2.636 z m 1.307,0.444 q -0.397,1.054 -0.116,1.784 0.283,0.725 1.032,1.007 0.749,0.282 1.43,-0.075 0.687,-0.36 1.093,-1.44 0.402,-1.067 0.129,-1.769 -0.268,-0.7 -1.043,-0.992 -0.775,-0.292 -1.45,0.063 -0.673,0.351 -1.077,1.422 z"
       id="path63" />
    <g
       id="g1261">
      <g
         transform="matrix(1.161492,0,0,1.161492,-69.089658,-167.61971)"
         id="g101">
        <path
           d="m 101.013,171.871 2.385,1.758 -10e-4,0.004"
           class="E"
           id="path65" />
        <path
           d="m 103.982,171.866 -2.984,-0.006 0.015,0.011 2.384,1.762 -0.871,2.93 0.019,-0.012 2.45,-1.762 0.004,-0.004 2.476,1.671 -0.002,-0.005 -0.911,-2.849 h 0.001 l 2.435,-1.738 0.004,-0.003 -2.975,0.006 h -0.007 l -1.021,-2.915 -0.004,0.014 -1.011,2.897 z"
           class="B"
           id="path67" />
        <path
           d="m 104.999,168.952 -0.004,0.014 v 4.147 l 1.033,-1.246 h -0.007 z"
           class="C"
           id="path69" />
        <g
           class="E"
           id="g75">
          <path
             d="m 101.013,171.871 2.385,1.758 -10e-4,0.004 1.598,-0.517 v -0.003 z"
             id="path71" />
          <path
             d="m 104.994,173.112 v -4.147 l -1.011,2.897 1.008,1.25 z"
             id="path73" />
        </g>
        <path
           d="m 103.982,171.866 -2.984,-0.006 0.015,0.011 3.979,1.241 -1.008,-1.25 z"
           class="C"
           id="path77" />
        <path
           d="m 109.002,171.86 -2.975,0.006 -1.03,1.243 4.001,-1.246 z"
           class="E"
           id="path79" />
        <path
           d="m 104.994,173.112 v 0 l 1.569,0.489 2.435,-1.738 -4.001,1.246 z"
           class="C"
           id="path81" />
        <path
           d="m 106.563,173.601 -1.569,-0.489 v 0.003 l 2.478,3.335 -0.911,-2.849 z"
           class="E"
           id="path83" />
        <g
           class="C"
           id="g89">
          <path
             d="m 104.994,174.788 0.004,-0.004 2.476,1.671 -0.002,-0.005 -2.478,-3.335 z"
             id="path85" />
          <path
             d="m 103.396,173.633 -0.871,2.93 0.019,-0.012 2.442,-3.432 z"
             id="path87" />
        </g>
        <path
           d="m 102.544,176.55 2.45,-1.762 v -1.672 l -0.008,0.003 z"
           class="E"
           id="path91" />
        <g
           class="N"
           id="g97">
          <path
             d="m 105,168.43 -1.04,3.201 h -3.366 l 2.723,1.978 -1.04,3.201 2.723,-1.979 2.723,1.979 -1.04,-3.201 2.723,-1.978 h -3.366 z"
             class="C"
             id="path93" />
          <path
             d="m 105,168.43 -1.04,3.201 1.04,1.431 -4.406,-1.431 2.723,1.978 1.683,-0.547 -2.723,3.748 2.723,-1.979 v -1.769 l 2.723,3.748 -1.04,-3.201 -1.683,-0.547 4.406,-1.431 h -3.366 l -1.04,1.431 z"
             class="E"
             id="path95" />
        </g>
        <path
           d="m 100.594,171.631 h 3.366 l 1.04,-3.201 1.04,3.201 h 3.366 l -2.723,1.978 1.04,3.201 -2.723,-1.979 -2.723,1.979 1.04,-3.201 z"
           fill="none"
           class="L M"
           id="path99" />
      </g>
    </g>
  </g>
  <g
     id="g1395">
    <g
       stroke="#848484"
       class="P"
       id="g113"
       transform="translate(-52.133,-143.553)">
      <g
         class="B"
         id="g109">
        <path
           d="m 105,185.89 v 50.187 c -5.342,0 -19.231,-2.227 -19.231,-14.808 0,-4.946 1.624,-7.734 4.183,-10.76 4.876,-5.765 -0.031,-24.62 15.048,-24.62 z"
           id="path103" />
        <path
           d="m 105,185.89 v 50.187 c 5.342,0 19.231,-2.227 19.231,-14.808 0,-4.946 -1.624,-7.734 -4.183,-10.76 -4.876,-5.765 0.031,-24.62 -15.048,-24.62 z"
           id="path105" />
        <path
           d="m 102.82,225.928 -1.19,1.487 v 5.154 l 1.239,1.239 h 2.131 2.131 l 1.239,-1.239 v -5.154 l -1.19,-1.487 H 105 Z"
           id="path107" />
      </g>
      <path
         d="m 101.63,227.416 -15.837,-7.16 m 17.026,5.672 -11.346,-18.416 m 27.054,0.001 -11.346,18.416 m 1.19,1.487 15.837,-7.16"
         fill="none"
         id="path111" />
    </g>
    <g
       transform="matrix(-1,0,0,1,157.86708,-143.553)"
       class="C K L M N"
       id="g149">
      <use
         xlink:href="#E"
         id="use115"
         x="0"
         y="0"
         width="100%"
         height="100%" />
      <path
         d="m 93.707,224.251 h 6.344 v 2.032 h -6.344 z"
         id="path117" />
      <path
         d="m 91.427,222.269 h 8.624 v 1.983 h -8.624 z"
         id="path119" />
      <path
         d="m 89.89,218.205 h 10.161 v 4.064 H 89.89 Z"
         id="path121" />
      <path
         d="m 91.33,216.49 h 8.721 v 1.714 H 91.33 Z m 3.64,-14.407 h 5.081 v 2.068 H 94.97 Z"
         id="path123" />
      <path
         d="m 96.657,200.607 h 3.394 v 1.476 h -3.394 z"
         id="path125" />
      <path
         d="m 97.174,199.08 h 2.877 v 1.528 h -2.877 z"
         id="path127" />
      <path
         d="m 97.747,197.486 h 2.304 v 1.593 h -2.304 z"
         id="path129" />
      <path
         d="m 98.175,195.836 h 1.876 v 1.651 h -1.876 z"
         id="path131" />
      <path
         d="m 98.641,194.112 h 1.41 v 1.724 h -1.41 z"
         id="path133" />
      <path
         d="m 99.116,192.294 h 0.935 v 1.817 h -0.935 z m -6.623,22.482 h 7.559 v 1.714 h -7.559 z"
         id="path135" />
      <path
         d="m 93.436,213.062 h 6.615 v 1.714 h -6.615 z"
         id="path137" />
      <path
         d="m 94.117,211.287 h 5.934 v 1.775 h -5.934 z"
         id="path139" />
      <path
         d="m 95.006,209.573 h 5.045 v 1.714 h -5.045 z"
         id="path141" />
      <path
         d="m 95.886,207.859 h 4.165 v 1.714 h -4.165 z"
         id="path143" />
      <path
         d="m 96.828,206.095 h 3.223 v 1.764 h -3.223 z"
         id="path145" />
      <path
         d="m 97.434,204.151 h 2.617 v 1.945 h -2.617 z"
         id="path147" />
    </g>
    <g
       class="K N M"
       id="g193"
       transform="translate(-52.133,-143.553)">
      <g
         class="C L"
         id="g185">
        <use
           xlink:href="#E"
           id="use151"
           x="0"
           y="0"
           width="100%"
           height="100%" />
        <path
           d="m 93.707,224.251 h 6.344 v 2.032 h -6.344 z"
           id="path153" />
        <path
           d="m 91.427,222.269 h 8.624 v 1.983 h -8.624 z"
           id="path155" />
        <path
           d="m 89.89,218.205 h 10.161 v 4.064 H 89.89 Z"
           id="path157" />
        <path
           d="m 91.33,216.49 h 8.721 v 1.714 H 91.33 Z m 3.64,-14.407 h 5.081 v 2.068 H 94.97 Z"
           id="path159" />
        <path
           d="m 96.657,200.607 h 3.394 v 1.476 h -3.394 z"
           id="path161" />
        <path
           d="m 97.174,199.08 h 2.877 v 1.528 h -2.877 z"
           id="path163" />
        <path
           d="m 97.747,197.486 h 2.304 v 1.593 h -2.304 z"
           id="path165" />
        <path
           d="m 98.175,195.836 h 1.876 v 1.651 h -1.876 z"
           id="path167" />
        <path
           d="m 98.641,194.112 h 1.41 v 1.724 h -1.41 z"
           id="path169" />
        <path
           d="m 99.116,192.294 h 0.935 v 1.817 h -0.935 z m -6.623,22.482 h 7.559 v 1.714 h -7.559 z"
           id="path171" />
        <path
           d="m 93.436,213.062 h 6.615 v 1.714 h -6.615 z"
           id="path173" />
        <path
           d="m 94.117,211.287 h 5.934 v 1.775 h -5.934 z"
           id="path175" />
        <path
           d="m 95.006,209.573 h 5.045 v 1.714 h -5.045 z"
           id="path177" />
        <path
           d="m 95.886,207.859 h 4.165 v 1.714 h -4.165 z"
           id="path179" />
        <path
           d="m 96.828,206.095 h 3.223 v 1.764 h -3.223 z"
           id="path181" />
        <path
           d="m 97.434,204.151 h 2.617 v 1.945 h -2.617 z"
           id="path183" />
      </g>
      <g
         stroke="#000000"
         class="B"
         id="g191">
        <path
           d="m 100.051,233.809 v 2.268 h 9.898 v -2.268 z"
           id="path187" />
        <path
           d="m 97.703,236.077 v 2.268 h 14.593 v -2.268 z m -2.237,2.286 v 2.233 h 19.068 v -2.233 z"
           id="path189" />
      </g>
    </g>
  </g>
  <g
     id="g1407">
    <g
       class="K L"
       id="g267"
       transform="translate(-52.133,-143.553)">
      <path
         d="m 110.444,250.81 c -2.078,-3.762 -6.527,-6.309 -10.867,-5.395 -3.229,1.026 -6.745,1.564 -8.902,-1.498 -2.973,-2.845 -7.95,-2.415 -10.534,-6.114 -2.671,-2.192 -4.946,-5.119 -6.619,-7.996 -2.583,-2.29 -3.269,-5.46 -4.942,-8.223 1.032,-3.189 -0.988,-6.746 0.125,-10.098 0.195,-3.402 1.607,-6.419 2.797,-9.481 0.899,-4.434 5.848,-5.991 7.062,-10.262 3.257,-1.365 5.296,-3.856 8.798,-4.555"
         fill="none"
         stroke-width="1.1"
         class="Q"
         id="path259" />
      <g
         class="C R"
         id="g265">
        <path
           d="m 66.58,230.538 3.717,3.073 c 7.183,2.015 7.195,5.375 9.913,8.228 3.52,0.734 6.431,0.96 9.412,1.245 -2.993,-0.287 -5.797,-0.385 -9.313,-1.195 -4.692,-0.097 -9.793,-2.636 -10.111,-8.228 z m -3.585,-11.638 2.261,3.364 c 5.307,3.339 4.514,6.05 6.023,8.997 2.661,1.432 2.153,1.071 4.487,2.012 -2.343,-0.946 -1.779,-0.456 -4.419,-1.948 -3.757,-1.199 -7.262,-4.463 -6.182,-9.045 z m 4.574,-24.621 -0.118,4.769 c 1.888,6.042 0.014,7.46 -0.612,10.444 0.235,1.179 0.807,2.228 1.55,3.915 -0.367,-0.886 -1.355,-2.451 -1.84,-4.091 -2.014,-3.539 -2.251,-6.719 0.027,-10.486 z m 17.391,-12.095 -3.053,3.666 c -2.27,5.909 -4.619,5.857 -6.963,7.809 -0.547,1.07 -0.751,2.248 -1.215,4.032 0.262,-0.922 0.459,-2.763 1.096,-4.35 0.617,-4.025 2.405,-6.665 6.53,-8.204 z m 2.352,4.985 c 6.346,-3.515 7.086,-3.708 13.814,-3.593 -5.93,4.472 -6.471,3.529 -13.814,3.593 z m -9.65,56.275 4.685,1.145 c 7.343,-1.318 8.819,1.701 12.508,3.084 3.488,-0.874 4.875,-1.308 7.682,-2.352 -2.818,1.046 -4.054,1.549 -7.571,2.353 -4.265,1.958 -9.963,1.896 -12.686,-2.998 z m 6.986,-10.416 2.629,3.925 c 1.145,5.608 6.41,6.888 11.145,8.727 -2.634,-3.149 -1.448,-7.09 -11.04,-8.797 z m -6.473,-8.422 0.735,4.079 c -0.983,4.607 2.287,7.425 5.305,10.35 0.199,0.192 2.113,2.435 2.308,2.629 -0.072,-0.247 -1.845,-2.54 -1.887,-2.78 -0.557,-3.129 0.988,-5.817 -5.617,-10.218 z"
           id="path261" />
        <use
           xlink:href="#I"
           id="use263"
           x="0"
           y="0"
           width="100%"
           height="100%" />
      </g>
    </g>
    <path
       d="m 23.709,79.144 c -0.328,-0.644 -0.988,0.38 -0.678,0.808 0.316,0.46 0.235,1.024 0.37,1.542 0.32,0.601 -0.47,0.814 -0.381,1.379 0.102,0.73 0.869,-0.105 1.077,0.614 -0.001,0.604 0.972,0.698 0.979,0.079 -0.109,-0.662 -0.025,-1.402 -0.406,-1.975 l -0.929,-2.294 -0.02,-0.075 z"
       class="E"
       id="path269" />
    <g
       class="C K L R"
       id="g275"
       transform="translate(-52.133,-143.553)">
      <use
         xlink:href="#I"
         id="use271"
         x="0"
         y="0"
         width="100%"
         height="100%" />
      <path
         d="m 77.23,206.813 -1.666,3.728 c -3.328,2.45 -4.013,7.147 -4.096,10.887 -0.005,0.246 -1.169,2.91 -1.177,3.154 0.109,-0.206 1.381,-2.817 1.502,-3.002 1.578,-2.399 4.867,-4.121 3.843,-10.987 z m -14.772,-2.723 0.759,5.299 c 4.228,4.631 2.882,7.015 3.552,10.258 0.704,0.985 0.873,1.346 2.25,2.506 -0.701,-0.624 -1.465,-1.223 -2.587,-2.497 -3.303,-2.155 -5.848,-5.971 -3.589,-10.101 z m 13.002,-16.996 -1.806,4.416 c -0.383,6.319 -2.639,6.977 -4.285,9.545 -0.199,1.185 0.408,3.782 0.503,5.623 -0.028,-0.958 -0.841,-4.186 -0.712,-5.891 -0.625,-4.024 0.284,-7.08 3.753,-9.791 z m 20.606,-7.602 -3.634,2.321 c -3.58,4.476 -5.585,3.78 -8.136,4.816 -0.765,0.773 -1.265,1.734 -2.156,3.147 0.48,-0.724 1.157,-2.26 2.142,-3.455 1.641,-3.307 3.905,-5.092 7.874,-5.278 z m -14.853,10.932 c 6.74,-2.684 7.498,-2.783 14.157,-1.818 -6.447,3.686 -6.866,2.682 -14.157,1.818 z m -5.691,5.672 c 5.314,-3.102 7.258,-4.053 11.127,-2.881 0.728,0.22 2.839,-1.202 3.795,-1.135 -0.887,0.642 -2.986,1.247 -3.532,1.848 -2.985,3.286 -5.577,2.087 -11.39,2.168 z m -4.758,7.953 c 0.56,-0.51 2.678,-1.415 3.01,-1.948 1.917,-3.087 3.784,-4.136 7.567,-4.706 1.122,-0.169 2.023,-0.859 3.542,-1.152 -1.266,0.612 -2.534,1.261 -2.907,1.959 -2.35,4.396 -5.825,4.435 -7.983,4.167 -0.599,-0.074 -2.526,1.507 -3.228,1.681 z m -2.4,11.273 c 0.757,-1.372 2.503,-2.805 2.255,-4.114 0.241,-4.867 3.647,-6.157 5.824,-7.286 1.804,-0.339 2.561,-1.702 3.916,-2.528 -1.198,0.966 -2.139,2.065 -3.73,2.726 -0.036,6.169 -3.743,5.646 -5.687,8.475 0,0 -2.676,3.123 -2.577,2.726 z"
         id="path273" />
    </g>
    <path
       d="m 32.514,101.854 c 4.613,-0.932 4.877,0.903 6.945,1.735 -2.315,-0.734 -4.63,-1.372 -6.945,-1.735 z M 19.872,91.552 c 4.518,1.318 3.899,3.066 5.343,4.763 -1.709,-1.726 -3.462,-3.366 -5.343,-4.763 z M 14.049,80.727 c 3.304,2.003 2.522,3.403 3.36,5.15 -1.04,-1.823 -2.129,-3.58 -3.36,-5.15 z M 11.374,67.588 c 2.672,2.79 1.554,3.94 1.91,5.845 -0.532,-2.03 -1.129,-4.01 -1.91,-5.845 z m 3.122,-10.736 c 1.719,3.46 0.31,4.224 0.082,6.149 0.097,-2.096 0.117,-4.164 -0.082,-6.149 z m 5.978,-7.828 c 0.17,3.86 -1.429,3.987 -2.417,5.655 0.938,-1.877 1.794,-3.759 2.417,-5.655 z m 7.601,-5.804 c -0.955,3.743 -2.522,3.403 -3.95,4.713 1.442,-1.525 2.805,-3.079 3.95,-4.713 z M 39.03,38.369 c -2.103,3.24 -3.479,2.416 -5.251,3.2 1.854,-0.983 3.644,-2.018 5.251,-3.2 z m 6.317,2.825 c -2.98,2.459 -4.044,1.259 -5.97,1.474 2.064,-0.38 4.082,-0.83 5.97,-1.474 z m -5.971,4.36 c -3.18,2.194 -4.137,0.907 -6.075,0.956 2.089,-0.202 4.138,-0.477 6.075,-0.956 z m -6.134,4.827 c -3.067,2.348 -4.087,1.111 -6.02,1.255 2.076,-0.305 4.109,-0.681 6.02,-1.255 z m -4.658,4.73 c -2.17,3.196 -3.528,2.344 -5.316,3.091 1.874,-0.945 3.685,-1.943 5.316,-3.091 z m -4.975,6.876 c -1.041,3.72 -2.6,3.343 -4.058,4.62 1.477,-1.491 2.876,-3.013 4.058,-4.62 z m 14.187,33.002 c 4.66,0.662 4.296,2.48 5.967,3.954 -1.937,-1.465 -3.906,-2.839 -5.967,-3.954 z m -9.955,-7.948 c 3.939,2.576 2.838,4.068 3.727,6.112 -1.133,-2.148 -2.333,-4.228 -3.727,-6.112 z m -4.012,-6.528 c 1.674,2.678 0.583,3.277 0.548,4.772 -0.085,-1.627 -0.23,-3.232 -0.548,-4.772 z M 22.677,70.019 c 0.426,3.129 -0.815,3.227 -1.461,4.576 0.591,-1.519 1.118,-3.041 1.461,-4.576 z"
       class="E"
       id="path277" />
  </g>
  <g
     id="g1347">
    <path
       d="m 48.758,107.703 c 1.314,-4.266 7.034,-6.751 14.027,-6.939"
       fill="none"
       stroke-width="1.1"
       class="D K Q"
       id="path195" />
    <g
       transform="matrix(-0.707936,-0.615396,0.615396,-0.707936,-91.23753,204.3656)"
       id="g203">
      <use
         xlink:href="#F"
         class="F G H"
         id="use197"
         x="0"
         y="0"
         width="100%"
         height="100%" />
      <use
         xlink:href="#G"
         class="D I J"
         id="use199"
         x="0"
         y="0"
         width="100%"
         height="100%" />
      <use
         xlink:href="#H"
         class="B"
         id="use201"
         x="0"
         y="0"
         width="100%"
         height="100%" />
    </g>
    <g
       transform="rotate(-120.87801,-24.801141,118.60989)"
       id="g211">
      <use
         xlink:href="#F"
         class="F G H"
         id="use205"
         x="0"
         y="0"
         width="100%"
         height="100%" />
      <use
         xlink:href="#G"
         class="D I J"
         id="use207"
         x="0"
         y="0"
         width="100%"
         height="100%" />
      <use
         xlink:href="#H"
         class="B"
         id="use209"
         x="0"
         y="0"
         width="100%"
         height="100%" />
    </g>
    <g
       transform="rotate(-120.87801,-19.877141,119.61589)"
       id="g219">
      <use
         xlink:href="#F"
         class="F G H"
         id="use213"
         x="0"
         y="0"
         width="100%"
         height="100%" />
      <use
         xlink:href="#G"
         class="D I J"
         id="use215"
         x="0"
         y="0"
         width="100%"
         height="100%" />
      <use
         xlink:href="#H"
         class="B"
         id="use217"
         x="0"
         y="0"
         width="100%"
         height="100%" />
    </g>
    <g
       transform="rotate(-95.174997,-46.406664,104.98483)"
       id="g227">
      <use
         xlink:href="#F"
         class="F G H"
         id="use221"
         x="0"
         y="0"
         width="100%"
         height="100%" />
      <use
         xlink:href="#G"
         class="D I J"
         id="use223"
         x="0"
         y="0"
         width="100%"
         height="100%" />
      <use
         xlink:href="#H"
         class="B"
         id="use225"
         x="0"
         y="0"
         width="100%"
         height="100%" />
    </g>
    <g
       transform="rotate(-70.2,-84.120614,83.141418)"
       id="g235">
      <use
         xlink:href="#F"
         class="F G H"
         id="use229"
         x="0"
         y="0"
         width="100%"
         height="100%" />
      <use
         xlink:href="#G"
         class="D I J"
         id="use231"
         x="0"
         y="0"
         width="100%"
         height="100%" />
      <use
         xlink:href="#H"
         class="B"
         id="use233"
         x="0"
         y="0"
         width="100%"
         height="100%" />
    </g>
    <g
       transform="rotate(-43.76499,-161.30639,37.026201)"
       id="g243">
      <use
         xlink:href="#F"
         class="F G H"
         id="use237"
         x="0"
         y="0"
         width="100%"
         height="100%" />
      <use
         xlink:href="#G"
         class="D I J"
         id="use239"
         x="0"
         y="0"
         width="100%"
         height="100%" />
      <use
         xlink:href="#H"
         class="B"
         id="use241"
         x="0"
         y="0"
         width="100%"
         height="100%" />
    </g>
    <g
       transform="matrix(0.923539,-0.383506,0.383506,0.923539,-0.594909,-136.11732)"
       id="g251">
      <use
         xlink:href="#F"
         class="F G H"
         id="use245"
         x="0"
         y="0"
         width="100%"
         height="100%" />
      <use
         xlink:href="#G"
         class="D I J"
         id="use247"
         x="0"
         y="0"
         width="100%"
         height="100%" />
      <use
         xlink:href="#H"
         class="B"
         id="use249"
         x="0"
         y="0"
         width="100%"
         height="100%" />
    </g>
    <use
       xlink:href="#F"
       x="135.495"
       class="F G H"
       id="use253"
       y="0"
       width="100%"
       height="100%"
       transform="translate(-52.133,-143.553)" />
    <use
       xlink:href="#G"
       x="135.495"
       class="D I J"
       id="use255"
       y="0"
       width="100%"
       height="100%"
       transform="translate(-52.133,-143.553)" />
    <use
       xlink:href="#H"
       x="135.495"
       class="B"
       id="use257"
       y="0"
       width="100%"
       height="100%"
       transform="translate(-52.133,-143.553)" />
  </g>
</svg>
