<?xml version="1.0" encoding="UTF-8" standalone="no"?>
<svg
   xmlns:dc="http://purl.org/dc/elements/1.1/"
   xmlns:cc="http://creativecommons.org/ns#"
   xmlns:rdf="http://www.w3.org/1999/02/22-rdf-syntax-ns#"
   xmlns:svg="http://www.w3.org/2000/svg"
   xmlns="http://www.w3.org/2000/svg"
   xmlns:xlink="http://www.w3.org/1999/xlink"
   xmlns:sodipodi="http://sodipodi.sourceforge.net/DTD/sodipodi-0.dtd"
   xmlns:inkscape="http://www.inkscape.org/namespaces/inkscape"
   width="404.708"
   height="384.896"
   viewBox="0 0 107.079 101.837"
   version="1.1"
   id="svg1049"
   sodipodi:docname="Seal of Pamekasan Regency (1).svg"
   inkscape:version="1.0.1 (3bc2e813f5, 2020-09-07)">
  <metadata
     id="metadata1053">
    <rdf:RDF>
      <cc:Work
         rdf:about="">
        <dc:format>image/svg+xml</dc:format>
        <dc:type
           rdf:resource="http://purl.org/dc/dcmitype/StillImage" />
      </cc:Work>
    </rdf:RDF>
  </metadata>
  <sodipodi:namedview
     pagecolor="#ffffff"
     bordercolor="#666666"
     borderopacity="1"
     objecttolerance="10"
     gridtolerance="10"
     guidetolerance="10"
     inkscape:pageopacity="0"
     inkscape:pageshadow="2"
     inkscape:window-width="1366"
     inkscape:window-height="705"
     id="namedview1051"
     showgrid="false"
     inkscape:zoom="3.151803"
     inkscape:cx="191.4042"
     inkscape:cy="234.12633"
     inkscape:window-x="-8"
     inkscape:window-y="-8"
     inkscape:window-maximized="1"
     inkscape:current-layer="svg1049"
     inkscape:document-rotation="0" />
  <style
     id="style2"><![CDATA[.B{fill:#a07843}.C{fill:#fff}.D{stroke-width:.265}.E{fill:#f5c742}.F{fill:#ffeba3}.G{stroke:#a07843}.H{fill:#f5c743}.I{fill:#7c909b}.J{fill:#00a75d}.K{fill:#005b31}.L{fill:#018f50}.M{stroke:#005b31}.N{fill:#c8d3d9}.O{opacity:.996}.P{fill:#eaeaea}.Q{stroke:silver}.R{stroke-miterlimit:7}.S{fill-rule:evenodd}.T{stroke-width:.865}]]></style>
  <defs
     id="defs411">
    <linearGradient
       id="A"
       y2="311.614"
       x2="168.525"
       y1="311.614"
       x1="84.438"
       xlink:href="#AC"
       gradientTransform="translate(-51.461,-84.5)">
      <stop
         stop-color="#d2091e"
         offset="0"
         id="stop4" />
      <stop
         stop-color="#930f0f"
         offset=".124"
         id="stop6" />
      <stop
         stop-color="#970f10"
         offset=".127"
         id="stop8" />
      <stop
         stop-color="#ac0e16"
         offset=".147"
         id="stop10" />
      <stop
         stop-color="#bd0d19"
         offset=".169"
         id="stop12" />
      <stop
         stop-color="#c90b1c"
         offset=".191"
         id="stop14" />
      <stop
         stop-color="#d0091d"
         offset=".216"
         id="stop16" />
      <stop
         stop-color="#d2091e"
         offset=".247"
         id="stop18" />
      <stop
         stop-color="#930f0f"
         offset=".355"
         id="stop20" />
      <stop
         stop-color="#d2091e"
         offset=".446"
         id="stop22" />
      <stop
         stop-color="#d2091e"
         offset=".559"
         id="stop24" />
      <stop
         stop-color="#930f0f"
         offset=".651"
         id="stop26" />
      <stop
         stop-color="#d2091e"
         offset=".753"
         id="stop28" />
      <stop
         stop-color="#930f0f"
         offset=".866"
         id="stop30" />
      <stop
         stop-color="#970f10"
         offset=".869"
         id="stop32" />
      <stop
         stop-color="#ac0e16"
         offset=".891"
         id="stop34" />
      <stop
         stop-color="#bd0d19"
         offset=".914"
         id="stop36" />
      <stop
         stop-color="#c90b1c"
         offset=".939"
         id="stop38" />
      <stop
         stop-color="#d0091d"
         offset=".966"
         id="stop40" />
      <stop
         stop-color="#d2091e"
         offset="1"
         id="stop42" />
    </linearGradient>
    <linearGradient
       id="B"
       y2="233.977"
       x2="126.678"
       y1="286.825"
       x1="126.678"
       xlink:href="#AC"
       gradientTransform="translate(-51.461,-84.5)">
      <stop
         stop-color="#647a84"
         offset="0"
         id="stop45" />
      <stop
         stop-color="#3f4e55"
         offset=".495"
         id="stop47" />
      <stop
         stop-color="#2a363b"
         offset="1"
         id="stop49" />
    </linearGradient>
    <linearGradient
       id="C"
       y2="224.59"
       x2="127.681"
       y1="224.59"
       x1="125.282"
       xlink:href="#AC">
      <stop
         stop-color="#ad8900"
         offset="0"
         id="stop52" />
      <stop
         stop-color="#ffd631"
         offset=".382"
         id="stop54" />
      <stop
         stop-color="#fff9c7"
         offset=".505"
         id="stop56" />
      <stop
         stop-color="#ffd631"
         offset=".613"
         id="stop58" />
      <stop
         stop-color="#ad8900"
         offset="1"
         id="stop60" />
    </linearGradient>
    <linearGradient
       id="D"
       y2="294.757"
       x2="128.74"
       y1="294.757"
       x1="124.223"
       xlink:href="#AC">
      <stop
         stop-color="#ad8900"
         offset="0"
         id="stop63" />
      <stop
         stop-color="#ffd631"
         offset=".382"
         id="stop65" />
      <stop
         stop-color="#fff9c7"
         offset=".505"
         id="stop67" />
      <stop
         stop-color="#ffd631"
         offset=".613"
         id="stop69" />
      <stop
         stop-color="#ad8900"
         offset="1"
         id="stop71" />
    </linearGradient>
    <linearGradient
       id="E"
       y2="285.846"
       x2="128.74"
       y1="285.846"
       x1="124.223"
       xlink:href="#AC">
      <stop
         stop-color="#ad8900"
         offset="0"
         id="stop74" />
      <stop
         stop-color="#ffd631"
         offset=".382"
         id="stop76" />
      <stop
         stop-color="#fff9c7"
         offset=".505"
         id="stop78" />
      <stop
         stop-color="#ffd631"
         offset=".613"
         id="stop80" />
      <stop
         stop-color="#ad8900"
         offset="1"
         id="stop82" />
    </linearGradient>
    <linearGradient
       id="F"
       y2="276.221"
       x2="128.197"
       y1="276.221"
       x1="124.766"
       xlink:href="#AC">
      <stop
         stop-color="#ad8900"
         offset="0"
         id="stop85" />
      <stop
         stop-color="#ffd631"
         offset=".382"
         id="stop87" />
      <stop
         stop-color="#fff9c7"
         offset=".505"
         id="stop89" />
      <stop
         stop-color="#ffd631"
         offset=".613"
         id="stop91" />
      <stop
         stop-color="#ad8900"
         offset="1"
         id="stop93" />
    </linearGradient>
    <linearGradient
       id="G"
       y2="267.246"
       x2="128.197"
       y1="267.246"
       x1="124.766"
       xlink:href="#AC">
      <stop
         stop-color="#ad8900"
         offset="0"
         id="stop96" />
      <stop
         stop-color="#ffd631"
         offset=".382"
         id="stop98" />
      <stop
         stop-color="#fff9c7"
         offset=".505"
         id="stop100" />
      <stop
         stop-color="#ffd631"
         offset=".613"
         id="stop102" />
      <stop
         stop-color="#ad8900"
         offset="1"
         id="stop104" />
    </linearGradient>
    <linearGradient
       id="H"
       y2="258.118"
       x2="128.11"
       y1="258.118"
       x1="124.85"
       xlink:href="#AC">
      <stop
         stop-color="#ad8900"
         offset="0"
         id="stop107" />
      <stop
         stop-color="#ffd631"
         offset=".382"
         id="stop109" />
      <stop
         stop-color="#fff9c7"
         offset=".505"
         id="stop111" />
      <stop
         stop-color="#ffd631"
         offset=".613"
         id="stop113" />
      <stop
         stop-color="#ad8900"
         offset="1"
         id="stop115" />
    </linearGradient>
    <linearGradient
       id="I"
       y2="248.514"
       x2="128.046"
       y1="248.514"
       x1="124.916"
       xlink:href="#AC">
      <stop
         stop-color="#ad8900"
         offset="0"
         id="stop118" />
      <stop
         stop-color="#ffd631"
         offset=".382"
         id="stop120" />
      <stop
         stop-color="#fff9c7"
         offset=".505"
         id="stop122" />
      <stop
         stop-color="#ffd631"
         offset=".613"
         id="stop124" />
      <stop
         stop-color="#ad8900"
         offset="1"
         id="stop126" />
    </linearGradient>
    <linearGradient
       id="J"
       y2="239.364"
       x2="127.763"
       y1="239.364"
       x1="125.197"
       xlink:href="#AC">
      <stop
         stop-color="#ad8900"
         offset="0"
         id="stop129" />
      <stop
         stop-color="#ffd631"
         offset=".382"
         id="stop131" />
      <stop
         stop-color="#fff9c7"
         offset=".505"
         id="stop133" />
      <stop
         stop-color="#ffd631"
         offset=".613"
         id="stop135" />
      <stop
         stop-color="#ad8900"
         offset="1"
         id="stop137" />
    </linearGradient>
    <linearGradient
       id="K"
       y2="231.689"
       x2="127.763"
       y1="231.689"
       x1="125.197"
       xlink:href="#AC">
      <stop
         stop-color="#ad8900"
         offset="0"
         id="stop140" />
      <stop
         stop-color="#ffd631"
         offset=".382"
         id="stop142" />
      <stop
         stop-color="#fff9c7"
         offset=".505"
         id="stop144" />
      <stop
         stop-color="#ffd631"
         offset=".613"
         id="stop146" />
      <stop
         stop-color="#ad8900"
         offset="1"
         id="stop148" />
    </linearGradient>
    <linearGradient
       id="L"
       y2="324.565"
       x2="174.253"
       y1="324.565"
       x1="157.508"
       xlink:href="#AC"
       gradientTransform="translate(-51.461,-84.5)">
      <stop
         stop-color="#c8d3d9"
         offset=".5"
         id="stop151" />
      <stop
         stop-color="#dee5e9"
         offset=".599"
         id="stop153" />
      <stop
         stop-color="#f1f4f5"
         offset=".715"
         id="stop155" />
      <stop
         stop-color="#fcfcfd"
         offset=".842"
         id="stop157" />
      <stop
         stop-color="#fff"
         offset="1"
         id="stop159" />
    </linearGradient>
    <linearGradient
       id="M"
       y2="329.854"
       x2="168.705"
       y1="329.854"
       x1="157.542"
       xlink:href="#AC"
       gradientTransform="translate(-51.461,-84.5)">
      <stop
         stop-color="#c8d3d9"
         offset="0"
         id="stop162" />
      <stop
         stop-color="#afbfc8"
         offset=".197"
         id="stop164" />
      <stop
         stop-color="#9cafbb"
         offset=".429"
         id="stop166" />
      <stop
         stop-color="#90a6b2"
         offset=".683"
         id="stop168" />
      <stop
         stop-color="#8da3b0"
         offset="1"
         id="stop170" />
    </linearGradient>
    <linearGradient
       id="N"
       y2="324.565"
       x2="95.646"
       y1="324.565"
       x1="78.902"
       xlink:href="#AC"
       gradientTransform="translate(-51.461,-84.5)">
      <stop
         stop-color="#fff"
         offset="0"
         id="stop173" />
      <stop
         stop-color="#c8d3d9"
         offset=".618"
         id="stop175" />
    </linearGradient>
    <linearGradient
       id="O"
       y2="329.854"
       x2="95.611"
       y1="329.854"
       x1="84.451"
       xlink:href="#AC"
       gradientTransform="translate(-51.461,-84.5)">
      <stop
         stop-color="#8da3b0"
         offset="0"
         id="stop178" />
      <stop
         stop-color="#c8d3d9"
         offset="1"
         id="stop180" />
    </linearGradient>
    <linearGradient
       id="P"
       y2="324.602"
       x2="168.705"
       y1="324.602"
       x1="84.438"
       xlink:href="#AC"
       gradientTransform="translate(-51.461,-84.5)">
      <stop
         stop-color="#c8d3d9"
         offset="0"
         id="stop183" />
      <stop
         stop-color="#fff"
         offset=".188"
         id="stop185" />
      <stop
         stop-color="#fbfcfd"
         offset=".227"
         id="stop187" />
      <stop
         stop-color="#eff3f5"
         offset=".261"
         id="stop189" />
      <stop
         stop-color="#dce3e7"
         offset=".293"
         id="stop191" />
      <stop
         stop-color="#c8d3d9"
         offset=".317"
         id="stop193" />
      <stop
         stop-color="#fff"
         offset=".452"
         id="stop195" />
      <stop
         stop-color="#fff"
         offset=".565"
         id="stop197" />
      <stop
         stop-color="#c8d3d9"
         offset=".694"
         id="stop199" />
      <stop
         stop-color="#fff"
         offset=".812"
         id="stop201" />
      <stop
         stop-color="#fbfcfd"
         offset=".868"
         id="stop203" />
      <stop
         stop-color="#eff3f5"
         offset=".918"
         id="stop205" />
      <stop
         stop-color="#dce3e7"
         offset=".965"
         id="stop207" />
      <stop
         stop-color="#c8d3d9"
         offset="1"
         id="stop209" />
    </linearGradient>
    <linearGradient
       id="Q"
       y2="219.814"
       x2="180.373"
       y1="219.814"
       x1="72.904"
       xlink:href="#AC">
      <stop
         stop-color="#d2091e"
         offset="0"
         id="stop212" />
      <stop
         stop-color="#930f0f"
         offset=".048"
         id="stop214" />
      <stop
         stop-color="#d2091e"
         offset=".086"
         id="stop216" />
      <stop
         stop-color="#930f0f"
         offset=".124"
         id="stop218" />
      <stop
         stop-color="#970f10"
         offset=".125"
         id="stop220" />
      <stop
         stop-color="#ac0e16"
         offset=".136"
         id="stop222" />
      <stop
         stop-color="#bd0d19"
         offset=".147"
         id="stop224" />
      <stop
         stop-color="#c90b1c"
         offset=".159"
         id="stop226" />
      <stop
         stop-color="#d0091d"
         offset=".172"
         id="stop228" />
      <stop
         stop-color="#d2091e"
         offset=".188"
         id="stop230" />
      <stop
         stop-color="#d00a1d"
         offset=".204"
         id="stop232" />
      <stop
         stop-color="#c80b1c"
         offset=".219"
         id="stop234" />
      <stop
         stop-color="#bc0d19"
         offset=".232"
         id="stop236" />
      <stop
         stop-color="#aa0e15"
         offset=".246"
         id="stop238" />
      <stop
         stop-color="#930f0f"
         offset=".258"
         id="stop240" />
      <stop
         stop-color="#aa0e15"
         offset=".271"
         id="stop242" />
      <stop
         stop-color="#bc0d19"
         offset=".284"
         id="stop244" />
      <stop
         stop-color="#c80b1c"
         offset=".297"
         id="stop246" />
      <stop
         stop-color="#d00a1d"
         offset=".312"
         id="stop248" />
      <stop
         stop-color="#d2091e"
         offset=".328"
         id="stop250" />
      <stop
         stop-color="#930f0f"
         offset=".398"
         id="stop252" />
      <stop
         stop-color="#d2091e"
         offset=".468"
         id="stop254" />
      <stop
         stop-color="#d2091e"
         offset=".548"
         id="stop256" />
      <stop
         stop-color="#930f0f"
         offset=".618"
         id="stop258" />
      <stop
         stop-color="#d2091e"
         offset=".677"
         id="stop260" />
      <stop
         stop-color="#930f0f"
         offset=".737"
         id="stop262" />
      <stop
         stop-color="#aa0e15"
         offset=".749"
         id="stop264" />
      <stop
         stop-color="#bc0d19"
         offset=".762"
         id="stop266" />
      <stop
         stop-color="#c80b1c"
         offset=".776"
         id="stop268" />
      <stop
         stop-color="#d00a1d"
         offset=".79"
         id="stop270" />
      <stop
         stop-color="#d2091e"
         offset=".807"
         id="stop272" />
      <stop
         stop-color="#d00a1d"
         offset=".82"
         id="stop274" />
      <stop
         stop-color="#c80b1c"
         offset=".832"
         id="stop276" />
      <stop
         stop-color="#bc0d19"
         offset=".844"
         id="stop278" />
      <stop
         stop-color="#aa0e15"
         offset=".855"
         id="stop280" />
      <stop
         stop-color="#930f0f"
         offset=".866"
         id="stop282" />
      <stop
         stop-color="#970f10"
         offset=".867"
         id="stop284" />
      <stop
         stop-color="#ac0e16"
         offset=".874"
         id="stop286" />
      <stop
         stop-color="#bd0d19"
         offset=".881"
         id="stop288" />
      <stop
         stop-color="#c90b1c"
         offset=".889"
         id="stop290" />
      <stop
         stop-color="#d0091d"
         offset=".898"
         id="stop292" />
      <stop
         stop-color="#d2091e"
         offset=".909"
         id="stop294" />
      <stop
         stop-color="#930f0f"
         offset=".952"
         id="stop296" />
      <stop
         stop-color="#d2091e"
         offset="1"
         id="stop298" />
    </linearGradient>
    <linearGradient
       id="R"
       y2="226.164"
       x2="183.114"
       y1="226.164"
       x1="69.728"
       xlink:href="#AC">
      <stop
         stop-color="#fff"
         offset="0"
         id="stop301" />
      <stop
         stop-color="#c8d3d9"
         offset=".048"
         id="stop303" />
      <stop
         stop-color="#fff"
         offset=".086"
         id="stop305" />
      <stop
         stop-color="#c8d3d9"
         offset=".124"
         id="stop307" />
      <stop
         stop-color="#dee5e9"
         offset=".136"
         id="stop309" />
      <stop
         stop-color="#f1f4f5"
         offset=".151"
         id="stop311" />
      <stop
         stop-color="#fcfcfd"
         offset=".168"
         id="stop313" />
      <stop
         stop-color="#fff"
         offset=".188"
         id="stop315" />
      <stop
         stop-color="#fbfcfd"
         offset=".209"
         id="stop317" />
      <stop
         stop-color="#eff3f5"
         offset=".228"
         id="stop319" />
      <stop
         stop-color="#dce3e7"
         offset=".245"
         id="stop321" />
      <stop
         stop-color="#c8d3d9"
         offset=".258"
         id="stop323" />
      <stop
         stop-color="#dce3e7"
         offset=".271"
         id="stop325" />
      <stop
         stop-color="#eff3f5"
         offset=".289"
         id="stop327" />
      <stop
         stop-color="#fbfcfd"
         offset=".307"
         id="stop329" />
      <stop
         stop-color="#fff"
         offset=".328"
         id="stop331" />
      <stop
         stop-color="#c8d3d9"
         offset=".398"
         id="stop333" />
      <stop
         stop-color="#fff"
         offset=".468"
         id="stop335" />
      <stop
         stop-color="#fff"
         offset=".548"
         id="stop337" />
      <stop
         stop-color="#c8d3d9"
         offset=".618"
         id="stop339" />
      <stop
         stop-color="#fff"
         offset=".677"
         id="stop341" />
      <stop
         stop-color="#c8d3d9"
         offset=".737"
         id="stop343" />
      <stop
         stop-color="#dce3e7"
         offset=".75"
         id="stop345" />
      <stop
         stop-color="#eff3f5"
         offset=".767"
         id="stop347" />
      <stop
         stop-color="#fbfcfd"
         offset=".786"
         id="stop349" />
      <stop
         stop-color="#fff"
         offset=".807"
         id="stop351" />
      <stop
         stop-color="#fbfcfd"
         offset=".824"
         id="stop353" />
      <stop
         stop-color="#eff3f5"
         offset=".84"
         id="stop355" />
      <stop
         stop-color="#dce3e7"
         offset=".855"
         id="stop357" />
      <stop
         stop-color="#c8d3d9"
         offset=".866"
         id="stop359" />
      <stop
         stop-color="#dee5e9"
         offset=".874"
         id="stop361" />
      <stop
         stop-color="#f1f4f5"
         offset=".884"
         id="stop363" />
      <stop
         stop-color="#fcfcfd"
         offset=".895"
         id="stop365" />
      <stop
         stop-color="#fff"
         offset=".909"
         id="stop367" />
      <stop
         stop-color="#c8d3d9"
         offset=".952"
         id="stop369" />
      <stop
         stop-color="#fff"
         offset="1"
         id="stop371" />
    </linearGradient>
    <path
       id="S"
       d="M182.45 257.697s-.563-1.386-1.645-2.035-3.205-.26-4.505-.866-1.126-2.557-1.473-3.553-1.861-.13-1.861-.13.648-1.039 1.255-1.083 1.689.216 1.863.736 1.169.779 2.035.606 1.083-1.949 1.083-1.949l1.82.953s.952-.736 1.472-.779 1.473.346 1.776.779l1.819-.953s.217 1.776 1.083 1.949 1.863-.086 2.036-.606 1.257-.779 1.862-.736 1.256 1.083 1.256 1.083-1.517-.866-1.863.13-.172 2.946-1.472 3.553-3.422.216-4.505.866-1.646 2.035-1.646 2.035h-.384z" />
    <path
       id="T"
       d="M183.886 251.157s1.256 0 1.473.087 2.381.736 3.032.606 1.341-.996 1.386-1.689-.008-1.434-.303-2.079c-.229-.501-.67-1.04-1.691-1.213s-1.551-.235-1.998.434c-.528.79.526 1.646 1.392 1.603s.693-.954.693-.954.347.477-.043 1.04-1.763.14-2.122-.953c-.308-.935.78-1.227.78-1.227v-.332s-.217-.651-1.3-1.171-2.295-1.299-2.295-1.299h-.309s-1.213.779-2.297 1.299-1.299 1.171-1.299 1.171v.38s1.222.163.833 1.246-1.785 1.448-2.174.885-.044-1.04-.044-1.04-.173.91.693.954 1.979-1.095 1.484-1.6c-.579-.59-1.05-.445-2.089-.437-.817.006-1.467.73-1.69 1.213-.297.645-.348 1.387-.304 2.079s.736 1.559 1.386 1.689 2.817-.52 3.032-.606 1.473-.087 1.473-.087h2.302z" />
    <path
       id="U"
       d="M181.188 267.212s-.348-1.493-1.34-2.323-3.202-.775-4.421-1.596-.731-2.768-.924-3.831-1.863-.429-1.863-.429.822-.948 1.443-.895 1.675.489 1.768 1.043 1.059.976 1.963.939 1.407-1.799 1.407-1.799l1.689 1.255s1.082-.593 1.614-.554 1.436.586 1.673 1.073l1.993-.674s-.064 1.832.785 2.145 1.899.211 2.157-.288 1.396-.588 2.002-.448 1.099 1.296 1.099 1.296-1.397-1.119-1.906-.166-.645 2.955-2.058 3.361-3.498-.327-4.698.157-1.991 1.797-1.991 1.797l-.386-.061z" />
    <path
       id="V"
       d="M183.685 260.819s1.271.201 1.477.323 2.293 1.126 2.972 1.098 1.517-.794 1.672-1.488.221-1.453.025-2.153c-.152-.544-.512-1.16-1.517-1.498s-1.532-.486-2.091.12c-.66.715.27 1.75 1.153 1.845s.854-.855.854-.855.274.538-.21 1.046-1.807-.14-1.996-1.303c-.162-.995.986-1.118.986-1.118l.053-.335s-.115-.694-1.129-1.393-2.116-1.681-2.116-1.681l-.312-.049s-1.353.595-2.532.948-1.501.978-1.501.978l-.061.384s1.211.36.644 1.395-2.038 1.181-2.342.549.122-1.06.122-1.06-.321.894.549 1.076 2.178-.793 1.757-1.382c-.492-.69-.992-.618-2.045-.776-.828-.124-1.601.505-1.904.958-.404.606-.573 1.348-.64 2.056s.496 1.695 1.133 1.931 2.934-.076 3.166-.129 1.505.148 1.505.148l2.326.373z" />
    <path
       id="W"
       d="M176.999 276.89s-.016-1.601-.839-2.673-3.09-1.519-4.146-2.632-.117-2.988-.071-4.117-1.802-.86-1.802-.86 1.054-.78 1.675-.585 1.597.879 1.566 1.465.858 1.236 1.789 1.403 1.844-1.515 1.844-1.515l1.438 1.664s1.238-.359 1.772-.198 1.331.924 1.463 1.474l2.185-.234s-.482 1.853.313 2.366 1.889.646 2.266.196 1.558-.283 2.144-.002.826 1.572.826 1.572-1.17-1.458-1.906-.603-1.329 2.866-2.862 2.96-3.493-1.129-4.827-.908-2.438 1.381-2.438 1.381l-.384-.151z" />
    <path
       id="X"
       d="M181 270.942s1.251.493 1.433.665 2.082 1.669 2.781 1.795 1.727-.465 2.044-1.137.555-1.431.515-2.19c-.031-.589-.259-1.299-1.207-1.873s-1.452-.843-2.16-.353c-.836.58-.123 1.845.757 2.143s1.065-.678 1.065-.678.157.611-.452 1.019-1.811-.553-1.74-1.783c.061-1.052 1.259-.916 1.259-.916l.13-.33s.04-.734-.835-1.677-1.775-2.195-1.775-2.195l-.307-.121s-1.514.3-2.798.391-1.753.656-1.753.656l-.149.378s1.153.643.339 1.568-2.346.741-2.513.027.365-1.053.365-1.053-.53.838.315 1.222 2.401-.314 2.106-1.01c-.345-.816-.871-.856-1.909-1.256-.816-.315-1.748.151-2.159.545-.55.526-.891 1.244-1.12 1.951s.121 1.842.716 2.226 3.009.589 3.258.587 1.501.493 1.501.493l2.289.905z" />
    <path
       id="Y"
       d="M172.882 285.457s.035-1.601-.754-2.699-3.04-1.616-4.06-2.762-.022-2.991.06-4.117-1.774-.917-1.774-.917 1.078-.746 1.693-.532 1.568.93 1.518 1.514.819 1.262 1.744 1.459 1.891-1.456 1.891-1.456l1.384 1.708s1.249-.319 1.778-.141 1.301.965 1.415 1.52l2.192-.165s-.54 1.837.238 2.375 1.867.706 2.258.268 1.566-.233 2.143.066.776 1.597.776 1.597-1.123-1.495-1.886-.663-1.42 2.823-2.955 2.867-3.455-1.239-4.796-1.06-2.481 1.302-2.481 1.302l-.381-.167z" />
    <path
       id="Z"
       d="M177.071 279.636s1.234.533 1.412.71 2.028 1.734 2.723 1.883 1.741-.41 2.079-1.072.601-1.413.584-2.172c-.013-.59-.217-1.307-1.147-1.91s-1.424-.889-2.148-.421c-.854.553-.181 1.841.688 2.166s1.086-.643 1.086-.643.138.616-.484 1.004-1.792-.61-1.682-1.837c.094-1.049 1.288-.875 1.288-.875l.141-.326s.063-.732-.781-1.703-1.705-2.251-1.705-2.251l-.303-.131s-1.523.251-2.809.302-1.773.6-1.773.6l-.161.373s1.132.679.289 1.578-2.369.666-2.513-.052.398-1.041.398-1.041-.557.821.276 1.231 2.41-.237 2.137-.943c-.319-.826-.843-.883-1.868-1.316-.806-.341-1.752.095-2.176.476-.566.508-.93 1.215-1.181 1.915s.062 1.845.645 2.248 2.989.684 3.237.691 1.485.54 1.485.54l2.262.971z" />
    <path
       id="a"
       d="M166.329 294.474s.277-1.662-.379-2.923-2.922-2.139-3.812-3.486.427-3.117.68-4.278-1.709-1.222-1.709-1.222 1.235-.615 1.843-.299 1.494 1.204 1.353 1.804.663 1.437 1.596 1.782 2.188-1.232 2.188-1.232l1.185 1.987s1.348-.145 1.872.12 1.21 1.201 1.245 1.795l2.307.158s-.839 1.832-.11 2.508 1.838 1.016 2.311.619 1.666-.007 2.221.391.568 1.78.568 1.78-.945-1.725-1.864-.974-1.902 2.726-3.507 2.541-3.412-1.809-4.834-1.825-2.779.983-2.779.983l-.384-.228z" />
    <path
       id="b"
       d="M171.562 289.045s1.205.74 1.363.951 1.851 2.11 2.552 2.369 1.875-.165 2.325-.804.838-1.381.935-2.174c.075-.616-.03-1.393-.907-2.161s-1.349-1.14-2.173-.761c-.972.447-.465 1.889.391 2.359s1.227-.507 1.227-.507.051.662-.655.973-1.775-.905-1.475-2.165c.256-1.078 1.472-.718 1.472-.718l.196-.318s.176-.753-.557-1.89-1.437-2.6-1.437-2.6l-.296-.182s-1.624.033-2.97-.107-1.936.358-1.936.358l-.224.364s1.077.877.064 1.687-2.566.338-2.609-.432.571-1.024.571-1.024-.703.772.103 1.323 2.545.115 2.367-.661c-.208-.908-.745-1.046-1.747-1.651-.788-.475-1.838-.164-2.337.169-.666.444-1.151 1.126-1.518 1.816s-.212 1.93.334 2.438 3.009 1.162 3.267 1.205 1.465.786 1.465.786l2.212 1.352z" />
    <path
       id="c"
       d="M127.266 301.766c4.229 0 8.517 1.716 12.195 2.696s6.435.98 8.887.736 6.331-2.851 6.331-2.851 1.666-1.211 3.027-2.27 3.557-1.362 4.388-1.211 4.692.832 5.373-1.816-1.816-3.104-1.816-3.104 1.135-.075 1.513 1.136.303 3.177-2.346 3.329-3.481-1.664-2.875-4.691 3.708-4.012 6.735-3.482 5.751 2.725 4.919 7.492-5.221 6.13-6.204 6.205-4.615.075-6.583.68-2.195 3.936-.682 4.087 1.816-1.816 1.816-1.816-.075 1.059-1.059 1.437-2.043-1.362-1.211-2.648 2.649-1.59 3.86-.454 1.06 3.102.454 4.162-4.616 1.437-6.205 1.437-3.33.151-4.919.908-4.085 3.179-7.113 3.784-7.05-2.041-10.231-2.041c-3.051 0-6.757 1.461-8.561 1.461h-.954c-1.803 0-5.508-1.461-8.559-1.461-3.182 0-7.206 2.646-10.232 2.041s-5.524-3.026-7.112-3.784-3.329-.908-4.918-.908-5.6-.377-6.205-1.437-.758-3.027.454-4.162a2.51 2.51 0 0 1 3.858.454c.833 1.286-.226 3.027-1.21 2.648s-1.059-1.437-1.059-1.437.302 1.967 1.816 1.816 1.286-3.48-.681-4.087-5.6-.605-6.583-.68-5.372-1.437-6.205-6.205 1.893-6.962 4.919-7.492 6.129.456 6.735 3.482-.226 4.844-2.875 4.691-2.724-2.119-2.347-3.329 1.513-1.136 1.513-1.136-2.496.454-1.817 3.104 4.542 1.968 5.373 1.816 3.027.152 4.389 1.211 3.027 2.27 3.027 2.27 3.88 2.606 6.331 2.851 5.21.244 8.886-.736 7.967-2.696 12.196-2.696h1.561z" />
    <path
       id="d"
       d="M127.681 228.347s-.445-.614-.52-.935-.058-4.6-.136-5.269.328-1.31.328-1.31h-1.745s.405.642.328 1.31-.059 4.947-.136 5.269-.52.935-.52.935h2.405z" />
    <path
       id="e"
       d="M128.74 298.062s-.985-.7-.985-1.437v-3.492c0-.985.615-1.684.615-1.684h-3.778a2.78 2.78 0 0 0 .617 1.684v3.492c0 .737-.986 1.437-.986 1.437h4.516z" />
    <path
       id="f"
       d="M128.74 290.519s-.985-.987-.985-2.033v-4.932c0-1.392.615-2.38.615-2.38h-3.778s.617.988.617 2.38v4.932c0 1.046-.986 2.033-.986 2.033h4.516z" />
    <path
       id="g"
       d="M128.197 280.459s-.749-.895-.749-1.843v-4.475c0-1.264.469-2.158.469-2.158h-2.872s.468.895.468 2.158v4.475l-.748 1.843h3.434z" />
    <path
       id="h"
       d="M128.197 271.18s-.749-.831-.749-1.712v-4.154c0-1.172.469-2.005.469-2.005h-2.872s.468.832.468 2.005v4.154c0 .881-.748 1.712-.748 1.712h3.434z" />
    <path
       id="i"
       d="M128.11 262.335s-.71-.89-.71-1.833v-4.452c0-1.257.444-2.148.444-2.148h-2.726s.444.891.444 2.148v4.452c0 .943-.711 1.833-.711 1.833h3.257z" />
    <path
       id="j"
       d="M128.046 252.924s-.683-.931-.683-1.918v-4.658c0-1.315.426-2.248.426-2.248h-2.617s.428.933.428 2.248v4.658c0 .987-.683 1.918-.683 1.918h3.127z" />
    <path
       id="k"
       d="M127.763 243.473s-.559-.868-.559-1.787v-4.337c0-1.225.35-2.095.35-2.095h-2.147s.35.869.35 2.095v4.337c0 .919-.56 1.787-.56 1.787h2.566z" />
    <path
       id="l"
       d="M127.763 234.499s-.559-.593-.559-1.221v-2.964c0-.838.35-1.432.35-1.432h-2.147s.35.593.35 1.432v2.964c0 .627-.56 1.221-.56 1.221h2.566z" />
    <path
       id="m"
       d="M75.838 238.391c-.546-2.131 1.926-2.29 1.926-2.29s-2.015-2.288-3.905-.562c-2.827 2.582 1.306 6.651 3.575 6.651 5.17 0 6.372-3.872 6.838-6.935s4.03-3.479 6.991-10.252c2.734-6.252 7.432-3.958 11.557-5.857 2.439-1.124 4.661-7.192 7.596-7.659s6.322-1.224 8.495-3.096 6.64-1.95 6.64-1.95h1.882s4.467.079 6.64 1.95 5.56 2.629 8.495 3.096 5.157 6.535 7.596 7.659c4.125 1.9 8.724.067 11.457 6.319 2.962 6.773 6.256 7.2 6.722 10.263s3.1 6.692 7.51 6.83c2.268.071 6.123-3.813 3.797-6.854-1.918-2.507-4.431.398-4.431.398s2.472.159 1.926 2.29c-.337 1.318-1.635 1.336-2.734.894l.042.026s-1.742-.514-2.613-1.541-.373-1.925-.498-3.851-2.364-3.981-2.364-3.981 3.733-.257 4.107-2.568-2.029-5.19-3.982-3.981c-1.149.711-1.084 1.799-.616 2.251.404.391 1.711.442 1.711.442s-.615 1.497-3.238.482c-1.282-.496-2.212-3.047-2.71-4.972s-2.241-3.802-3.858-3.852c-1.226-.038-2.168-.769-2.168-.769s2.045-1.028 1.173-3.596-4.663-2.251-5.036.06 2.299 1.224 2.299 1.224-.374 1.413-2.614 1.285-2.155-5.182-3.398-6.98-4.528-2.116-4.528-2.116.788-.091 1.404-1.322c.544-1.087.425-3.707-2.438-4.092s-4.604 2.311-3.11 3.466 1.794-1.038 1.794-1.038.335.397.212 1.166-1.058 1.412-3.252.899c-1.714-.4-3.235-2.054-6.097-5.007s-8.212-3.853-8.212-3.853-5.35.9-8.213 3.853-4.383 4.606-6.097 5.007c-2.194.512-3.127-.128-3.252-.899s.212-1.166.212-1.166.301 2.194 1.794 1.038-.248-3.851-3.11-3.466-2.982 3.004-2.438 4.092c.615 1.231 1.404 1.322 1.404 1.322s-3.283.319-4.528 2.116-1.159 6.852-3.398 6.98-2.614-1.285-2.614-1.285 2.673 1.086 2.299-1.224-4.165-2.629-5.036-.06 1.173 3.596 1.173 3.596-.942.731-2.168.769c-1.618.05-3.361 1.926-3.858 3.852s-1.428 4.475-2.71 4.972c-2.623 1.015-3.238-.482-3.238-.482s1.307-.051 1.711-.442c.468-.452.532-1.54-.616-2.251-1.953-1.209-4.355 1.669-3.982 3.981s4.107 2.568 4.107 2.568-2.239 2.055-2.364 3.981.372 2.824-.498 3.851c-.548.647-1.441 1.09-2.028 1.33-1.17.619-2.765.781-3.144-.701z" />
    <path
       id="n"
       d="M177.465 230.985c-1.094.032-2.266.137-3.382 1.137-4.124 3.694-.773 6.411.152 7.048l.177.116c1.099.442 2.397.423 2.734-.894.546-2.131-1.926-2.29-1.926-2.29s2.513-2.905 4.431-.398c2.326 3.041-1.528 6.924-3.797 6.854-4.41-.138-7.044-3.767-7.51-6.83s-3.761-3.49-6.722-10.263c-2.734-6.252-7.333-4.419-11.457-6.319-2.439-1.124-4.661-7.192-7.596-7.659s-6.322-1.224-8.495-3.096-6.64-1.951-6.64-1.951h-1.882s-4.467.079-6.64 1.951-5.56 2.629-8.495 3.096-5.157 6.535-7.596 7.659c-4.125 1.9-8.823-.394-11.557 5.857-2.962 6.773-6.525 7.188-6.991 10.252s-1.667 6.935-6.838 6.935c-2.269 0-6.402-4.069-3.575-6.651 1.89-1.726 3.905.562 3.905.562s-2.472.159-1.926 2.29c.38 1.483 1.974 1.321 3.134.709-.345.141-.585.212-.585.212s.084-.05.22-.143c.926-.637 4.276-3.354.152-7.048-1.115-1-2.288-1.105-3.382-1.137-3.542-.104-6.442 3.823-5.454 7.941.906 3.777 5.806 7.425 9.042 6.912s3.652-.492 5.518-3.061c0 0 2.509-5.024 5.539-9.284s5.29-5.175 11.263-7.278c3.652-1.286 4.853-.899 7.716-3.98s5.6-7.062 8.461-7.319 6.223.513 7.219.513h3.482c.996 0 4.355-.77 7.219-.513s5.6 4.238 8.461 7.319 4.063 2.694 7.716 3.98c5.973 2.104 8.233 3.019 11.263 7.278s5.539 9.284 5.539 9.284c1.866 2.569 2.283 2.547 5.518 3.061s8.136-3.136 9.042-6.912c.99-4.122-1.91-8.049-5.453-7.943z" />
    <path
       id="o"
       d="M82.22 175.878v-3.998h1.437v.472h-1.174v1.224h1.1v.469h-1.1v1.361h1.22v.472z" />
    <path
       id="p"
       d="M84.056 175.878v-3.998h.263v1.983l.987-1.983h.357l-.834 1.62.871 2.378h-.347l-.708-2.024-.325.638v1.385z" />
    <path
       id="q"
       d="M87.553 175.878l.763-3.998h.283l.814 3.998h-.3l-.232-1.211h-.831l-.218 1.211zm.574-1.642h.674l-.207-1.107q-.095-.505-.141-.829-.038.385-.107.764z" />
    <path
       id="r"
       d="M92.113 174.743l.237-.065q.009.458.085.627.076.169.21.169.099 0 .171-.09.072-.093.099-.248.027-.158.027-.502v-2.754h.263v2.724q0 .502-.061.777-.06.275-.191.42-.13.145-.306.145-.262 0-.401-.303-.138-.303-.133-.9z" />
    <path
       id="s"
       d="M96.976 175.878v-3.998h.27l1.044 3.139v-3.139h.252v3.998h-.27l-1.044-3.142v3.142z" />
    <path
       id="t"
       d="M118.557 135.749c2.875 0 3.36-2.071 5.458-2.071 2.399.097 2.471 1.938 4.715 1.938m-30.519.267c2.875 0 3.36-2.071 5.458-2.071 2.399.097 2.471 1.938 4.715 1.938 2.875 0 3.36-1.938 5.458-1.938 2.399.097 2.471 1.938 4.715 1.938m-30.519.267c2.875 0 3.36-2.071 5.458-2.071 2.399.097 2.471 1.938 4.715 1.938" />
    <path
       id="u"
       d="M119.51 114.974c-.291.62-.158 1.345.257 1.875.42.507.658 1.157 1.153 1.596.659.535 1.559.443 2.35.556.607-.019 1.254-.233 1.58-.782.378-.569 1.264-.816 1.25-1.609-.013-.567-.265-1.101-.391-1.648-.284-.663-.744-1.249-1.263-1.742-.602-.32-.988-1.129-1.737-1.086-.743.21-1.207.93-1.82 1.366-.567.367-.881.98-1.312 1.478l-.04-.003z" />
    <path
       id="v"
       d="M121.352 111.384c-.058-.66-.451-1.349-1.048-1.651-.684-.194-1.54-.124-1.984.505-.531.636-.627 1.912.283 2.258.762.592-.549.884-.482 1.55-.123.634-.064 1.343.408 1.828.46.503 1.304.654 1.902.303.542-.19.708-.756.973-1.201.016-.589.431-1.037.994-.637.698.317 1.62.049 1.759-.781.218-.693.253-1.458-.085-2.119-.229-.663-1.071-.624-1.645-.591-.385-.016-1.022.552-1.074.538z" />
    <path
       id="w"
       d="M119.25 110.887c-.399.359-.37 1.277.232 1.765.709.574-.912.971-.496 1.877.293 1.005 1.79.712 2.003-.197.126-.969.927-1.336 1.806-1.223 1.017-.296.213-1.598-.632-1.226-.682.391-1.043.602-1.358-.356-.339-1.03-1.34-.833-1.555-.64z" />
    <path
       id="x"
       d="M124.589 115.069c.205.355.37.762.264 1.176-.13.293-.439.468-.577.765-.242.345-.605.636-.971.818-.546.01-1.146.027-1.627-.27-.231-.225-.66-.368-.736-.679.218-.222.551-.299.731-.572.294-.298.539-.658.643-1.069.337-.102.703-.076 1.025-.239.372.029.705-.407 1.037-.19.103.076.08.227.213.26z" />
    <path
       id="y"
       d="M126.737 121.758c-2.555 1.727-5.724-3.902-6.284-1.701-.133-1.741.642-2.459 2.646-1.795-.247-.624-.439-1.279-.378-2.079.751.208 1.208.121 1.89 1.039-.461-3.069 2.354-2.556 2.74-2.551-3.227 1.74 2.837 4.634-.614 7.087z" />
    <path
       id="z"
       d="M123.052 118.805c-.357-.076-1.492-.287-1.193.308.625.087 1.047.552 1.57.8.743.014 1.421-.431 2.032-.806.605-.395 1.144-1.173.609-1.846-.198-.341-.196-1.678-.607-.781-.045.512-.062 1.443-.81 1.329-.325-.084-1.416-.892-.978-.065.43.55.101 1.182-.623 1.061z" />
    <path
       id="AA"
       d="M90.036 153.556c5.138-2.843 5.919-.314 8.686-.234-3.088 2.048-5.954 1.833-8.686.234z" />
    <path
       id="AB"
       d="M91.729 153.41c2.432-1.351 3.282-.488 4.536-.189-1.268-.041-2.827.042-4.536.189z" />
    <linearGradient
       id="AC"
       gradientUnits="userSpaceOnUse" />
  </defs>
  <g
     id="g2203">
    <path
       d="m 53.539,2.141 -1.301,2.08 C 49.867,8.01 45.48,9.719 40.75,11.922 36.252,14.016 31.526,16.791 28.988,22.504 22.77,23.152 18.669,26.789 15.287,30.42 11.73,34.239 8.751,37.883 4.414,38.967 l -2.379,0.596 1.576,1.879 c 2.871,3.426 3.138,8.125 3.771,13.305 0.602,4.925 1.782,10.278 6.432,14.457 -1.305,6.114 0.887,11.138 3.295,15.477 2.532,4.563 5.076,8.521 4.768,12.98 l -0.17,2.447 2.275,-0.916 c 4.146,-1.672 8.698,-0.477 13.82,0.521 4.87,0.949 10.325,1.482 15.736,-1.648 5.411,3.131 10.866,2.598 15.736,1.648 5.122,-0.998 9.675,-2.193 13.82,-0.521 l 2.275,0.916 -0.17,-2.447 c -0.309,-4.459 2.235,-8.418 4.768,-12.98 2.408,-4.338 4.6,-9.362 3.295,-15.477 4.65,-4.179 5.83,-9.532 6.432,-14.457 0.633,-5.18 0.9,-9.878 3.771,-13.305 l 1.576,-1.881 -2.379,-0.594 C 98.325,37.883 95.346,34.239 91.789,30.42 88.407,26.789 84.306,23.152 78.088,22.504 75.55,16.791 70.824,14.016 66.326,11.922 61.595,9.719 57.209,8.01 54.838,4.221 Z"
       stroke="#000000"
       stroke-width="2.27"
       class="C O S"
       id="path413" />
    <g
       class="S"
       id="g775"
       transform="translate(-51.461,-84.5)">
      <path
         d="m 105,91.895 c 3.085,3.647 7.471,5.436 11.492,7.309 4.588,2.136 8.608,4.384 10.635,9.709 l 0.357,0.938 1,0.051 c 5.69,0.282 9.07,3.41 12.52,7.113 3.024,3.246 6.082,6.865 10.504,8.672 -2.515,4.061 -2.862,8.784 -3.4,13.187 -0.614,5.024 -1.51,9.542 -5.947,13.115 l -0.781,0.629 0.264,0.967 c 1.49,5.499 -0.44,9.68 -2.896,14.105 -2.153,3.879 -4.649,7.905 -5.002,12.668 -4.639,-1.137 -9.242,-0.007 -13.596,0.842 -4.968,0.968 -9.539,1.512 -14.309,-1.604 l -0.84,-0.549 -0.84,0.549 c -4.769,3.116 -9.341,2.572 -14.309,1.604 -4.354,-0.849 -8.956,-1.979 -13.596,-0.842 -0.353,-4.763 -2.849,-8.789 -5.002,-12.668 -2.456,-4.425 -4.386,-8.606 -2.896,-14.105 l 0.264,-0.967 -0.781,-0.631 c -4.438,-3.573 -5.333,-8.088 -5.947,-13.111 -0.538,-4.403 -0.886,-9.128 -3.4,-13.189 4.422,-1.807 7.48,-5.426 10.504,-8.672 3.45,-3.704 6.829,-6.831 12.52,-7.113 l 1,-0.051 0.357,-0.937 c 2.027,-5.325 6.047,-7.573 10.635,-9.709 4.022,-1.873 8.407,-3.662 11.492,-7.309 z"
         fill="#00a870"
         class="O"
         id="path769" />
      <path
         d="m 105,94.613 -1.62,4.987 h -5.243 l 4.242,3.082 -1.62,4.986 4.242,-3.081 4.242,3.081 -1.62,-4.986 4.242,-3.082 h -5.243 z"
         class="F O"
         id="path771" />
      <path
         d="m 105,94.613 -1.62,4.987 1.621,2.23 -6.863,-2.23 4.242,3.082 2.622,-0.852 -4.242,5.838 4.242,-3.081 v -2.757 l 4.242,5.838 -1.62,-4.986 -2.622,-0.852 6.863,-2.23 h -5.243 l -1.62,2.23 z"
         class="E O"
         id="path773" />
    </g>
  </g>
  <g
     id="g2196">
    <path
       d="m 46.676,15.1 4.241,3.082 -1.62,4.986 4.242,-3.081 4.242,3.081 -1.62,-4.986 4.241,-3.082 h -5.243 l -1.62,-4.987 -1.62,4.986 z"
       fill="none"
       stroke-width="0.465"
       class="G"
       id="path777" />
  </g>
  <g
     id="g2448">
    <g
       stroke="#016ba4"
       id="g851"
       transform="translate(-51.461,-84.5)">
      <path
         d="m 85.275,133.275 c 6.421,6.835 15.863,22.692 19.277,20.489 18.311,-0.593 22.096,-15.368 23.151,-20.489 z"
         fill="#0192e1"
         class="D"
         id="path831" />
      <g
         fill="none"
         id="g849">
        <g
           stroke-width="0.457"
           id="g837">
          <path
             id="use833"
             d="m 118.557,135.749 c 2.875,0 3.36,-2.071 5.458,-2.071 2.399,0.097 2.471,1.938 4.715,1.938 m -30.519,0.267 c 2.875,0 3.36,-2.071 5.458,-2.071 2.399,0.097 2.471,1.938 4.715,1.938 2.875,0 3.36,-1.938 5.458,-1.938 2.399,0.097 2.471,1.938 4.715,1.938 m -30.519,0.267 c 2.875,0 3.36,-2.071 5.458,-2.071 2.399,0.097 2.471,1.938 4.715,1.938" />
          <path
             id="use835"
             d="m 118.557,138.756 c 2.875,0 3.36,-2.071 5.458,-2.071 2.399,0.097 2.471,1.938 4.715,1.938 m -30.519,0.267 c 2.875,0 3.36,-2.071 5.458,-2.071 2.399,0.097 2.471,1.938 4.715,1.938 2.875,0 3.36,-1.938 5.458,-1.938 2.399,0.097 2.471,1.938 4.715,1.938 m -30.519,0.267 c 2.875,0 3.36,-2.071 5.458,-2.071 2.399,0.097 2.471,1.938 4.715,1.938" />
        </g>
        <path
           d="m 117.338,141.896 c 2.559,0 2.991,-2.071 4.857,-2.071 2.135,0.097 2.199,1.938 4.196,1.938 M 99.23,142.03 c 2.559,0 2.991,-2.071 4.857,-2.071 2.135,0.097 2.199,1.938 4.196,1.938 2.559,0 2.991,-1.938 4.857,-1.938 2.135,0.097 2.199,1.938 4.196,1.938 m -27.161,0.267 c 2.559,0 2.991,-2.071 4.857,-2.071 2.135,0.097 2.199,1.938 4.196,1.938"
           stroke-width="0.431"
           id="path839" />
        <path
           d="m 116.086,144.636 c 2.272,0 2.655,-2.071 4.312,-2.071 1.895,0.097 1.952,1.938 3.726,1.938 m -24.114,0.267 c 2.272,0 2.655,-2.071 4.312,-2.071 1.895,0.097 1.952,1.938 3.726,1.938 2.272,0 2.655,-1.938 4.312,-1.938 1.895,0.097 1.952,1.938 3.726,1.938 m -24.114,0.267 c 2.272,0 2.655,-2.071 4.312,-2.071 1.895,0.097 1.952,1.938 3.726,1.938"
           stroke-width="0.406"
           id="path841" />
        <path
           d="m 99.767,147.51 c 2.001,0 2.338,-2.075 3.798,-2.075 1.669,0.097 1.719,1.941 3.281,1.941 2.001,0 2.338,-1.941 3.798,-1.941 1.669,0.097 1.719,1.941 3.281,1.941 2.001,0 2.338,-2.075 3.798,-2.075 m -21.238,0.268 c 1.669,0.097 1.719,1.941 3.281,1.941"
           stroke-width="0.382"
           id="path843" />
        <path
           d="m 112.368,150.3 c 1.73,0 2.022,-1.753 3.285,-1.753 m -15.53,1.866 c 1.73,0 2.022,-1.753 3.285,-1.753 1.444,0.082 1.487,1.64 2.838,1.64 1.73,0 2.022,-1.64 3.285,-1.64 1.444,0.082 1.487,1.64 2.838,1.64 m -15.083,-1.527 c 1.444,0.082 1.487,1.64 2.838,1.64"
           stroke-width="0.326"
           id="path845" />
        <path
           d="m 101.874,152.771 c 0.335,-0.426 0.634,-0.84 1.11,-0.84 1.123,0.083 1.157,1.645 2.207,1.645 1.346,0 1.573,-1.758 2.555,-1.758 0.538,0.04 0.826,0.532 1.095,0.916 l 0.273,0.594"
           stroke-width="0.288"
           id="path847" />
      </g>
    </g>
    <path
       d="m 50.162,34.396 c -1.968,0.095 -2.848,1.767 -2.047,3.374 l -3.768,6.406 -13.529,3.164 v 1.436 H 53.539 76.26 V 47.34 L 62.731,44.176 58.963,37.77 c 0.802,-1.607 -0.079,-3.279 -2.047,-3.374 1.354,1.105 1.317,2.159 0.222,2.363 H 53.539 49.94 c -1.095,-0.204 -1.132,-1.258 0.222,-2.363 z"
       fill="#da251c"
       stroke="#8e1812"
       stroke-width="0.267"
       id="path853" />
    <path
       d="m 31.817,48.775 c 3.232,7.75 11.605,14.063 19.086,20.113 L 35.869,48.775 Z"
       class="D L M"
       id="path1013" />
    <path
       d="m 51.82,24.197 c -0.365,0.011 -0.652,0.193 -0.704,0.732 -0.19,1.075 1.245,0.753 1.371,1.572 0.141,0.47 0.115,0.96 0.122,1.201 l 0.007,1.652 c -0.025,-0.006 -0.049,-0.013 -0.072,-0.024 -0.713,-0.263 -1.941,-0.95 -2.217,0.234 0.119,0.845 1.002,1.371 1.528,1.961 0.251,0.07 0.508,0.108 0.768,0.128 l 0.385,14.885 c 0.797,0.197 1.396,-0.383 1.124,-1.172 l 0.408,-13.752 0.247,-0.006 c 0.925,-0.378 1.623,-1.185 2.65,-1.35 0.927,-0.154 1.208,-1.752 0.14,-1.768 a 1.34,1.34 0 0 0 -0.108,0.003 c -1.263,0.082 -2.394,0.901 -3.672,0.854 0.257,-1.398 -0.123,-2.659 -0.265,-3.951 -0.234,-0.209 -0.026,-0.649 -0.251,-0.798 -0.393,-0.148 -0.991,-0.415 -1.46,-0.4 z"
       id="path1045" />
  </g>
  <g
     class="C"
     id="g829"
     transform="translate(-51.461,-84.5)">
    <path
       d="m 79.893,175.878 v -3.998 h 0.396 l 0.471,2.831 q 0.065,0.395 0.095,0.592 0.034,-0.218 0.106,-0.641 l 0.476,-2.782 h 0.354 v 3.998 h -0.254 v -3.346 l -0.578,3.346 h -0.237 l -0.575,-3.404 v 3.404 z"
       id="path779" />
    <path
       id="use781"
       d="m 82.22,175.878 v -3.998 h 1.437 v 0.472 h -1.174 v 1.224 h 1.1 v 0.469 h -1.1 v 1.361 h 1.22 v 0.472 z" />
    <path
       id="use783"
       d="m 84.056,175.878 v -3.998 h 0.263 v 1.983 l 0.987,-1.983 h 0.357 l -0.834,1.62 0.871,2.378 h -0.347 l -0.708,-2.024 -0.325,0.638 v 1.385 z" />
    <path
       id="use785"
       d="m 85.909,175.878 v -3.998 h 0.263 v 1.983 l 0.987,-1.983 h 0.357 l -0.834,1.62 0.871,2.378 h -0.347 l -0.708,-2.024 -0.325,0.638 v 1.385 z" />
    <path
       id="use787"
       d="m 87.553,175.878 0.763,-3.998 h 0.283 l 0.814,3.998 h -0.3 l -0.232,-1.211 H 88.05 l -0.218,1.211 z m 0.574,-1.642 h 0.674 l -0.207,-1.107 q -0.095,-0.505 -0.141,-0.829 -0.038,0.385 -0.107,0.764 z" />
    <path
       d="m 89.534,174.593 0.248,-0.044 q 0.018,0.3 0.081,0.494 0.065,0.191 0.201,0.311 0.136,0.117 0.305,0.117 0.151,0 0.266,-0.09 0.115,-0.09 0.171,-0.245 0.057,-0.158 0.057,-0.344 0,-0.188 -0.054,-0.327 -0.054,-0.142 -0.179,-0.237 -0.08,-0.063 -0.354,-0.194 -0.274,-0.134 -0.384,-0.251 -0.142,-0.15 -0.213,-0.371 -0.069,-0.224 -0.069,-0.499 0,-0.303 0.085,-0.565 0.085,-0.265 0.25,-0.401 0.164,-0.136 0.365,-0.136 0.221,0 0.389,0.145 0.169,0.142 0.26,0.42 0.091,0.278 0.098,0.63 l -0.252,0.038 q -0.02,-0.379 -0.138,-0.573 -0.117,-0.194 -0.346,-0.194 -0.239,0 -0.348,0.177 -0.108,0.175 -0.108,0.423 0,0.215 0.077,0.355 0.076,0.139 0.396,0.286 0.321,0.145 0.441,0.254 0.174,0.161 0.256,0.409 0.083,0.245 0.083,0.567 0,0.319 -0.091,0.603 -0.091,0.281 -0.262,0.439 -0.17,0.155 -0.382,0.155 -0.27,0 -0.453,-0.158 -0.182,-0.158 -0.286,-0.475 -0.103,-0.319 -0.108,-0.72 z"
       id="path789" />
    <path
       id="use791"
       d="m 92.113,174.743 0.237,-0.065 q 0.009,0.458 0.085,0.627 0.076,0.169 0.21,0.169 0.099,0 0.171,-0.09 0.072,-0.093 0.099,-0.248 0.027,-0.158 0.027,-0.502 v -2.754 h 0.263 v 2.724 q 0,0.502 -0.061,0.777 -0.06,0.275 -0.191,0.42 -0.13,0.145 -0.306,0.145 -0.262,0 -0.401,-0.303 -0.138,-0.303 -0.133,-0.9 z" />
    <path
       id="use793"
       d="m 93.418,175.878 0.763,-3.998 h 0.283 l 0.814,3.998 h -0.3 l -0.232,-1.211 h -0.831 l -0.218,1.211 z m 0.574,-1.642 h 0.674 l -0.207,-1.107 q -0.095,-0.505 -0.141,-0.829 -0.038,0.385 -0.107,0.764 z" />
    <path
       d="m 95.788,175.878 v -3.526 h -0.655 v -0.472 h 1.576 v 0.472 h -0.658 v 3.526 z"
       id="path795" />
    <path
       id="use797"
       d="m 96.976,175.878 v -3.998 h 0.27 l 1.044,3.139 v -3.139 h 0.252 v 3.998 h -0.27 l -1.044,-3.142 v 3.142 z" />
    <path
       id="use799"
       d="m 98.766,175.878 0.763,-3.998 h 0.283 l 0.814,3.998 h -0.3 l -0.232,-1.211 h -0.831 l -0.218,1.211 z m 0.574,-1.642 h 0.674 l -0.207,-1.107 q -0.095,-0.505 -0.141,-0.829 -0.038,0.385 -0.107,0.764 z" />
    <path
       d="m 101.455,175.878 v -3.998 h 0.75 q 0.198,0 0.302,0.038 0.146,0.049 0.245,0.188 0.099,0.136 0.159,0.385 0.061,0.248 0.061,0.545 0,0.51 -0.161,0.865 -0.161,0.352 -0.583,0.352 h -0.51 v 1.625 z m 0.263,-2.097 h 0.514 q 0.255,0 0.362,-0.191 0.107,-0.191 0.107,-0.537 0,-0.251 -0.064,-0.428 -0.062,-0.18 -0.165,-0.237 -0.066,-0.035 -0.245,-0.035 h -0.508 z"
       id="path801" />
    <path
       id="use803"
       d="m 102.883,175.878 0.763,-3.998 h 0.283 l 0.814,3.998 h -0.3 l -0.232,-1.211 h -0.831 l -0.218,1.211 z m 0.574,-1.642 h 0.674 l -0.207,-1.107 q -0.095,-0.505 -0.141,-0.829 -0.038,0.385 -0.107,0.764 z" />
    <path
       id="use805"
       d="m 104.942,175.878 v -3.998 h 0.263 v 1.983 l 0.987,-1.983 h 0.357 l -0.834,1.62 0.871,2.378 h -0.347 l -0.708,-2.024 -0.325,0.638 v 1.385 z" />
    <path
       d="m 106.716,174.593 0.248,-0.044 q 0.018,0.3 0.081,0.494 0.065,0.191 0.201,0.311 0.136,0.117 0.305,0.117 0.151,0 0.266,-0.09 0.115,-0.09 0.171,-0.245 0.057,-0.158 0.057,-0.344 0,-0.188 -0.054,-0.327 -0.054,-0.142 -0.179,-0.237 -0.08,-0.063 -0.354,-0.194 -0.274,-0.134 -0.384,-0.251 -0.142,-0.15 -0.213,-0.371 -0.069,-0.224 -0.069,-0.499 0,-0.303 0.085,-0.565 0.085,-0.265 0.249,-0.401 0.164,-0.136 0.365,-0.136 0.221,0 0.389,0.145 0.169,0.142 0.26,0.42 0.091,0.278 0.098,0.63 l -0.252,0.038 q -0.02,-0.379 -0.138,-0.573 -0.117,-0.194 -0.346,-0.194 -0.239,0 -0.348,0.177 -0.108,0.175 -0.108,0.423 0,0.215 0.077,0.355 0.076,0.139 0.396,0.286 0.321,0.145 0.441,0.254 0.174,0.161 0.256,0.409 0.083,0.245 0.083,0.567 0,0.319 -0.091,0.603 -0.091,0.281 -0.262,0.439 -0.169,0.155 -0.382,0.155 -0.27,0 -0.453,-0.158 -0.182,-0.158 -0.286,-0.475 -0.103,-0.319 -0.108,-0.72 z"
       id="path807" />
    <path
       id="use809"
       d="m 108.439,175.878 0.763,-3.998 h 0.283 l 0.814,3.998 h -0.3 l -0.232,-1.211 h -0.831 l -0.218,1.211 z m 0.574,-1.642 h 0.674 l -0.207,-1.107 q -0.095,-0.505 -0.141,-0.829 -0.038,0.385 -0.107,0.764 z" />
    <path
       id="use811"
       d="m 110.994,174.743 0.237,-0.065 q 0.009,0.458 0.085,0.627 0.076,0.169 0.21,0.169 0.099,0 0.171,-0.09 0.072,-0.093 0.099,-0.248 0.027,-0.158 0.027,-0.502 v -2.754 h 0.263 v 2.724 q 0,0.502 -0.061,0.777 -0.06,0.275 -0.191,0.42 -0.13,0.145 -0.306,0.145 -0.262,0 -0.401,-0.303 -0.138,-0.303 -0.133,-0.9 z" />
    <path
       id="use813"
       d="m 112.522,175.878 v -3.998 h 1.437 v 0.472 h -1.174 v 1.224 h 1.1 v 0.469 h -1.1 v 1.361 h 1.22 v 0.472 z" />
    <path
       id="use815"
       d="m 114.366,175.878 v -3.998 h 0.27 l 1.044,3.139 v -3.139 h 0.252 v 3.998 h -0.27 l -1.044,-3.142 v 3.142 z" />
    <path
       id="use817"
       d="m 116.372,175.878 v -3.998 h 0.27 l 1.044,3.139 v -3.139 h 0.252 v 3.998 h -0.27 l -1.044,-3.142 v 3.142 z" />
    <path
       id="use819"
       d="m 118.386,175.878 v -3.998 h 1.437 v 0.472 h -1.174 v 1.224 h 1.1 v 0.469 h -1.1 v 1.361 h 1.22 v 0.472 z" />
    <path
       id="use821"
       d="m 120.23,175.878 v -3.998 h 0.27 l 1.044,3.139 v -3.139 h 0.252 v 3.998 h -0.27 l -1.044,-3.142 v 3.142 z" />
    <path
       d="m 123.168,174.31 v -0.469 l 0.842,-0.003 v 1.484 q -0.194,0.311 -0.4,0.469 -0.206,0.155 -0.423,0.155 -0.293,0 -0.533,-0.251 -0.239,-0.254 -0.361,-0.731 -0.122,-0.477 -0.122,-1.066 0,-0.584 0.121,-1.088 0.122,-0.507 0.35,-0.753 0.228,-0.245 0.525,-0.245 0.216,0 0.389,0.142 0.175,0.139 0.274,0.39 0.099,0.251 0.151,0.655 l -0.237,0.131 q -0.045,-0.305 -0.111,-0.48 -0.066,-0.175 -0.19,-0.278 -0.123,-0.106 -0.274,-0.106 -0.18,0 -0.312,0.112 -0.132,0.109 -0.213,0.289 -0.08,0.18 -0.125,0.395 -0.076,0.371 -0.076,0.805 0,0.535 0.091,0.895 0.092,0.36 0.267,0.535 0.175,0.175 0.372,0.175 0.171,0 0.334,-0.131 0.163,-0.134 0.247,-0.284 v -0.745 z m 2.001,1.568 v -3.998 h 0.685 q 0.232,0 0.354,0.057 0.171,0.079 0.292,0.286 0.157,0.267 0.235,0.685 0.079,0.415 0.079,0.949 0,0.455 -0.053,0.807 -0.053,0.352 -0.136,0.584 -0.083,0.229 -0.182,0.363 -0.098,0.131 -0.237,0.199 -0.138,0.068 -0.319,0.068 z m 0.263,-0.472 h 0.424 q 0.197,0 0.308,-0.074 0.113,-0.074 0.179,-0.207 0.094,-0.188 0.145,-0.505 0.053,-0.319 0.053,-0.772 0,-0.627 -0.103,-0.963 -0.102,-0.338 -0.248,-0.453 -0.106,-0.082 -0.34,-0.082 h -0.418 z m 1.788,0.472 v -3.998 h 0.263 v 3.998 z m 0.716,0 v -3.998 h 0.746 q 0.228,0 0.365,0.123 0.138,0.12 0.216,0.374 0.079,0.251 0.079,0.526 0,0.256 -0.069,0.483 -0.069,0.226 -0.209,0.365 0.18,0.106 0.277,0.363 0.098,0.256 0.098,0.605 0,0.281 -0.06,0.524 -0.058,0.24 -0.145,0.371 -0.087,0.131 -0.218,0.199 -0.13,0.065 -0.32,0.065 z m 0.263,-2.318 h 0.43 q 0.175,0 0.251,-0.046 0.1,-0.06 0.151,-0.199 0.052,-0.139 0.052,-0.349 0,-0.199 -0.047,-0.349 -0.047,-0.153 -0.136,-0.207 -0.088,-0.057 -0.302,-0.057 h -0.397 z m 0,1.846 h 0.495 q 0.127,0 0.179,-0.019 0.091,-0.033 0.152,-0.109 0.061,-0.076 0.1,-0.221 0.039,-0.147 0.039,-0.338 0,-0.224 -0.057,-0.387 -0.057,-0.166 -0.159,-0.232 -0.1,-0.068 -0.29,-0.068 h -0.46 z m 1.644,0.472 v -3.998 h 0.263 v 3.998 z m -59.71,-45.464 4.679,-0.109 0.022,0.932 -3.287,1.185 q -0.459,0.164 -0.687,0.24 0.257,0.074 0.756,0.231 l 3.282,1.044 0.019,0.833 -4.679,0.109 -0.014,-0.597 3.916,-0.091 -3.948,-1.268 -0.013,-0.559 3.951,-1.446 -3.983,0.093 z m 0.153,4.955 4.91,1.011 0.109,0.658 -4.306,2.652 -0.115,-0.696 1.31,-0.769 -0.319,-1.931 -1.482,-0.276 z m 2.116,1.019 0.258,1.565 1.199,-0.693 q 0.546,-0.317 0.903,-0.486 -0.459,-0.015 -0.923,-0.103 z m -1.269,3.784 4.478,-1.359 0.468,1.543 q 0.159,0.522 0.178,0.817 0.028,0.412 -0.121,0.754 -0.192,0.445 -0.606,0.761 -0.411,0.318 -1.009,0.5 -0.51,0.155 -0.94,0.155 -0.43,0 -0.746,-0.107 -0.313,-0.108 -0.531,-0.286 -0.213,-0.175 -0.385,-0.467 -0.171,-0.288 -0.294,-0.695 z m 0.708,0.432 0.29,0.956 q 0.134,0.443 0.293,0.668 0.159,0.229 0.355,0.333 0.275,0.147 0.664,0.155 0.394,0.011 0.901,-0.143 0.703,-0.213 1.008,-0.559 0.309,-0.344 0.337,-0.713 0.019,-0.266 -0.141,-0.795 l -0.286,-0.941 z m 6.266,4.903 0.259,0.563 -2.456,1.13 q -0.641,0.295 -1.085,0.323 -0.444,0.028 -0.856,-0.242 -0.408,-0.269 -0.691,-0.884 -0.275,-0.597 -0.244,-1.072 0.031,-0.475 0.345,-0.816 0.317,-0.343 0.993,-0.653 l 2.456,-1.13 0.259,0.563 -2.454,1.129 q -0.554,0.255 -0.771,0.478 -0.213,0.224 -0.24,0.539 -0.026,0.318 0.141,0.68 0.286,0.621 0.688,0.755 0.403,0.135 1.203,-0.234 z m 0.198,5.699 0.446,-0.321 1.161,1.607 -1.409,1.015 q -0.562,-0.158 -0.996,-0.443 -0.431,-0.287 -0.73,-0.702 -0.403,-0.56 -0.495,-1.19 -0.088,-0.629 0.198,-1.189 0.285,-0.56 0.845,-0.963 0.554,-0.399 1.2,-0.514 0.65,-0.114 1.196,0.153 0.547,0.267 0.955,0.835 0.297,0.412 0.401,0.84 0.109,0.429 0.007,0.79 -0.102,0.361 -0.415,0.735 l -0.451,-0.364 q 0.229,-0.294 0.303,-0.541 0.074,-0.246 0.003,-0.553 -0.069,-0.308 -0.276,-0.596 -0.248,-0.345 -0.535,-0.519 -0.285,-0.177 -0.568,-0.209 -0.281,-0.03 -0.547,0.032 -0.457,0.109 -0.869,0.405 -0.508,0.366 -0.725,0.786 -0.215,0.422 -0.14,0.876 0.075,0.454 0.346,0.829 0.235,0.326 0.583,0.548 0.351,0.219 0.609,0.277 l 0.707,-0.509 z m -0.074,2.996 4.632,-1.918 0.459,0.484 -2.076,4.611 -0.486,-0.512 0.652,-1.372 -1.347,-1.42 -1.382,0.603 z m 2.324,-0.343 1.092,1.151 0.604,-1.246 q 0.275,-0.569 0.475,-0.909 -0.388,0.245 -0.822,0.432 z m 1.067,3.84 2.95,-3.633 0.493,0.4 -0.408,4.402 2.316,-2.853 0.461,0.374 -2.95,3.633 -0.493,-0.4 0.41,-4.405 -2.318,2.855 z m 3.716,2.928 2.433,-3.998 1.377,0.838 q 0.466,0.284 0.677,0.49 0.295,0.288 0.412,0.643 0.154,0.46 0.055,0.972 -0.094,0.511 -0.419,1.045 -0.277,0.455 -0.598,0.742 -0.32,0.287 -0.628,0.418 -0.306,0.128 -0.586,0.14 -0.276,0.011 -0.598,-0.091 -0.32,-0.101 -0.682,-0.322 z m 0.816,-0.15 0.854,0.52 q 0.395,0.241 0.664,0.303 0.271,0.064 0.486,0.012 0.303,-0.074 0.599,-0.327 0.301,-0.254 0.576,-0.707 0.382,-0.627 0.379,-1.089 10e-4,-0.463 -0.224,-0.756 -0.163,-0.211 -0.635,-0.498 l -0.84,-0.511 z m 2.793,2.322 3.554,-3.536 0.609,0.273 -0.165,5.054 -0.644,-0.288 0.081,-1.517 -1.786,-0.8 -1.049,1.083 z m 2.018,-1.202 1.448,0.649 0.084,-1.383 q 0.038,-0.63 0.094,-1.021 -0.266,0.374 -0.596,0.713 z m 3.822,3.604 1.077,-4.555 0.907,0.214 0.316,3.48 q 0.043,0.486 0.058,0.726 0.136,-0.23 0.415,-0.673 l 1.84,-2.911 0.811,0.192 -1.077,4.555 -0.581,-0.137 0.901,-3.812 -2.225,3.499 -0.544,-0.129 -0.401,-4.189 -0.917,3.877 z m 4.833,1.103 2.216,-4.497 0.664,0.061 1.482,4.835 -0.703,-0.064 -0.415,-1.461 -1.949,-0.178 -0.641,1.365 z m 1.52,-1.791 1.58,0.144 -0.368,-1.335 q -0.169,-0.608 -0.242,-0.997 -0.13,0.44 -0.332,0.867 z m 3.336,2.182 -0.176,-4.677 0.635,-0.024 2.595,3.579 -0.138,-3.672 0.593,-0.022 0.176,4.677 -0.635,0.024 -2.595,-3.583 0.138,3.675 z m 6.558,-2.429 -0.097,-0.54 1.951,-0.354 0.307,1.709 q -0.385,0.439 -0.83,0.707 -0.445,0.265 -0.948,0.355 -0.679,0.122 -1.287,-0.067 -0.606,-0.193 -0.987,-0.692 -0.382,-0.499 -0.504,-1.178 -0.121,-0.672 0.054,-1.304 0.178,-0.635 0.655,-1.013 0.477,-0.378 1.165,-0.501 0.5,-0.09 0.931,0.001 0.434,0.087 0.715,0.335 0.281,0.248 0.484,0.691 l -0.523,0.25 q -0.167,-0.333 -0.357,-0.507 -0.19,-0.173 -0.497,-0.241 -0.308,-0.071 -0.657,-0.009 -0.418,0.075 -0.7,0.259 -0.282,0.18 -0.433,0.422 -0.148,0.241 -0.207,0.508 -0.099,0.459 -0.009,0.959 0.111,0.616 0.396,0.993 0.288,0.376 0.73,0.505 0.441,0.128 0.897,0.046 0.396,-0.071 0.746,-0.29 0.349,-0.222 0.513,-0.43 l -0.154,-0.858 z m 3.171,1.198 -1.447,-4.451 3.218,-1.046 0.171,0.525 -2.629,0.855 0.443,1.363 2.462,-0.8 0.17,0.522 -2.462,0.8 0.492,1.515 2.732,-0.888 0.171,0.525 z m 3.285,-2.676 0.507,-0.295 q 0.187,0.3 0.42,0.441 0.234,0.137 0.583,0.128 0.347,-0.012 0.708,-0.182 0.321,-0.151 0.521,-0.362 0.201,-0.211 0.241,-0.431 0.042,-0.225 -0.05,-0.421 -0.094,-0.199 -0.279,-0.292 -0.186,-0.096 -0.5,-0.072 -0.202,0.014 -0.85,0.15 -0.65,0.133 -0.942,0.119 -0.378,-0.016 -0.638,-0.179 -0.259,-0.167 -0.396,-0.459 -0.151,-0.321 -0.1,-0.684 0.05,-0.366 0.331,-0.675 0.281,-0.309 0.709,-0.51 0.471,-0.222 0.901,-0.237 0.432,-0.02 0.764,0.183 0.332,0.203 0.522,0.569 l -0.518,0.294 q -0.232,-0.381 -0.58,-0.468 -0.345,-0.088 -0.833,0.142 -0.508,0.239 -0.654,0.537 -0.144,0.294 -0.02,0.556 0.107,0.228 0.341,0.298 0.231,0.071 0.986,-0.094 0.757,-0.169 1.065,-0.174 0.45,-0.004 0.75,0.176 0.299,0.177 0.459,0.518 0.159,0.338 0.107,0.729 -0.053,0.389 -0.338,0.728 -0.283,0.335 -0.737,0.548 -0.575,0.271 -1.043,0.287 -0.466,0.015 -0.846,-0.215 -0.379,-0.234 -0.59,-0.654 z"
       id="path823" />
    <path
       d="m 123.245,161.501 -2.194,-3.496 -1.306,0.82 -0.294,-0.468 3.142,-1.972 0.294,0.468 -1.311,0.823 2.194,3.496 z m 2.41,-1.626 -2.809,-3.743 0.495,-0.372 2.809,3.743 z m 3.514,-2.965 -2.889,-2.948 -1.101,1.079 -0.387,-0.395 2.65,-2.596 0.387,0.395 -1.106,1.084 2.889,2.948 z m 0.221,-7.308 0.385,-0.485 2.117,1.682 q 0.552,0.439 0.778,0.822 0.226,0.383 0.171,0.873 -0.056,0.486 -0.477,1.016 -0.409,0.515 -0.847,0.701 -0.438,0.187 -0.884,0.06 -0.449,-0.128 -1.031,-0.591 l -2.117,-1.682 0.385,-0.485 2.115,1.68 q 0.477,0.379 0.774,0.472 0.296,0.089 0.59,-0.029 0.295,-0.12 0.543,-0.433 0.425,-0.535 0.363,-0.955 -0.062,-0.42 -0.752,-0.968 z m 4.636,1.579 -4.024,-2.39 0.324,-0.546 4.415,-0.237 -3.159,-1.876 0.303,-0.511 4.024,2.39 -0.324,0.546 -4.417,0.235 3.162,1.878 z m 1.514,-6.825 -0.507,-0.211 0.759,-1.831 1.603,0.668 q 0.16,0.561 0.145,1.08 -0.019,0.518 -0.215,0.989 -0.265,0.637 -0.754,1.045 -0.49,0.405 -1.116,0.455 -0.626,0.05 -1.263,-0.215 -0.631,-0.263 -1.067,-0.752 -0.438,-0.494 -0.497,-1.099 -0.059,-0.606 0.21,-1.251 0.195,-0.469 0.506,-0.782 0.309,-0.318 0.669,-0.42 0.361,-0.102 0.844,-0.032 l -0.073,0.575 q -0.371,-0.04 -0.619,0.026 -0.249,0.066 -0.472,0.287 -0.227,0.22 -0.363,0.547 -0.163,0.392 -0.161,0.728 -0.001,0.335 0.12,0.593 0.122,0.255 0.314,0.449 0.332,0.332 0.801,0.527 0.578,0.241 1.049,0.205 0.472,-0.038 0.819,-0.34 0.347,-0.302 0.525,-0.729 0.155,-0.371 0.161,-0.784 0.003,-0.414 -0.083,-0.664 l -0.805,-0.335 z"
       id="path825" />
    <path
       d="m 137.038,139.783 -0.532,-0.135 0.483,-1.923 1.684,0.426 q 0.241,0.532 0.302,1.048 0.057,0.515 -0.068,1.01 -0.169,0.669 -0.592,1.144 -0.426,0.472 -1.038,0.614 -0.612,0.142 -1.281,-0.027 -0.662,-0.167 -1.165,-0.588 -0.505,-0.424 -0.652,-1.014 -0.147,-0.59 0.024,-1.268 0.124,-0.492 0.386,-0.848 0.259,-0.359 0.601,-0.513 0.342,-0.154 0.83,-0.156 l 0.012,0.579 q -0.372,0.015 -0.609,0.116 -0.236,0.102 -0.425,0.353 -0.192,0.251 -0.279,0.595 -0.104,0.412 -0.053,0.744 0.048,0.332 0.205,0.569 0.158,0.234 0.377,0.398 0.377,0.28 0.869,0.404 0.607,0.153 1.068,0.049 0.462,-0.107 0.761,-0.456 0.299,-0.349 0.412,-0.798 0.099,-0.39 0.044,-0.799 -0.058,-0.41 -0.179,-0.645 l -0.845,-0.214 z m 2.341,-1.87 -4.451,-2.307 0.074,-0.663 4.864,-1.382 -0.079,0.701 -1.469,0.385 -0.218,1.945 1.351,0.669 z m -1.759,-1.556 0.177,-1.577 -1.342,0.341 q -0.612,0.156 -1.001,0.222 0.437,0.139 0.86,0.35 z m 2.224,-3.272 -4.68,0.011 -10e-4,-0.619 4.128,-0.01 -0.005,-2.305 0.552,-0.001 z"
       id="path827" />
  </g>
  <g
     id="g2432">
    <path
       d="m 71.981,29.388 c 1.907,2.589 3.531,5.492 4.523,8.574 1.021,2.485 1.27,5.155 1.089,7.814 -0.554,2.333 -0.094,4.887 -0.832,7.229 -1.497,3.416 -3.255,6.906 -6.202,9.309 -2.142,2.401 -5.177,3.739 -7.833,5.522 -2.277,1.087 -5.229,0.844 -7.682,1.278 -1.433,2.222 -4.71,2.472 -7.119,4.553"
       fill="none"
       class="M T"
       id="path855" />
    <g
       class="D P Q"
       id="g861"
       transform="translate(-51.461,-84.5)">
      <path
         id="use857"
         d="m 119.51,114.974 c -0.291,0.62 -0.158,1.345 0.257,1.875 0.42,0.507 0.658,1.157 1.153,1.596 0.659,0.535 1.559,0.443 2.35,0.556 0.607,-0.019 1.254,-0.233 1.58,-0.782 0.378,-0.569 1.264,-0.816 1.25,-1.609 -0.013,-0.567 -0.265,-1.101 -0.391,-1.648 -0.284,-0.663 -0.744,-1.249 -1.263,-1.742 -0.602,-0.32 -0.988,-1.129 -1.737,-1.086 -0.743,0.21 -1.207,0.93 -1.82,1.366 -0.567,0.367 -0.881,0.98 -1.312,1.478 l -0.04,-0.003 z" />
      <path
         id="use859"
         d="m 121.352,111.384 c -0.058,-0.66 -0.451,-1.349 -1.048,-1.651 -0.684,-0.194 -1.54,-0.124 -1.984,0.505 -0.531,0.636 -0.627,1.912 0.283,2.258 0.762,0.592 -0.549,0.884 -0.482,1.55 -0.123,0.634 -0.064,1.343 0.408,1.828 0.46,0.503 1.304,0.654 1.902,0.303 0.542,-0.19 0.708,-0.756 0.973,-1.201 0.016,-0.589 0.431,-1.037 0.994,-0.637 0.698,0.317 1.62,0.049 1.759,-0.781 0.218,-0.693 0.253,-1.458 -0.085,-2.119 -0.229,-0.663 -1.071,-0.624 -1.645,-0.591 -0.385,-0.016 -1.022,0.552 -1.074,0.538 z" />
    </g>
    <g
       class="C"
       id="g867"
       transform="translate(-51.461,-84.5)">
      <path
         id="use863"
         d="m 119.25,110.887 c -0.399,0.359 -0.37,1.277 0.232,1.765 0.709,0.574 -0.912,0.971 -0.496,1.877 0.293,1.005 1.79,0.712 2.003,-0.197 0.126,-0.969 0.927,-1.336 1.806,-1.223 1.017,-0.296 0.213,-1.598 -0.632,-1.226 -0.682,0.391 -1.043,0.602 -1.358,-0.356 -0.339,-1.03 -1.34,-0.833 -1.555,-0.64 z" />
      <path
         id="use865"
         d="m 124.589,115.069 c 0.205,0.355 0.37,0.762 0.264,1.176 -0.13,0.293 -0.439,0.468 -0.577,0.765 -0.242,0.345 -0.605,0.636 -0.971,0.818 -0.546,0.01 -1.146,0.027 -1.627,-0.27 -0.231,-0.225 -0.66,-0.368 -0.736,-0.679 0.218,-0.222 0.551,-0.299 0.731,-0.572 0.294,-0.298 0.539,-0.658 0.643,-1.069 0.337,-0.102 0.703,-0.076 1.025,-0.239 0.372,0.029 0.705,-0.407 1.037,-0.19 0.103,0.076 0.08,0.227 0.213,0.26 z" />
    </g>
    <path
       id="use869"
       d="m 75.276,37.258 c -2.555,1.727 -5.724,-3.902 -6.284,-1.701 -0.133,-1.741 0.642,-2.459 2.646,-1.795 -0.247,-0.624 -0.439,-1.279 -0.378,-2.079 0.751,0.208 1.208,0.121 1.89,1.039 -0.461,-3.069 2.354,-2.556 2.74,-2.551 -3.227,1.74 2.837,4.634 -0.614,7.087 z"
       style="fill:#018f50;stroke:#005b31;stroke-width:0.265;stroke-miterlimit:7;" />
    <path
       id="use871"
       d="m 71.591,34.305 c -0.357,-0.076 -1.492,-0.287 -1.193,0.308 0.625,0.087 1.047,0.552 1.57,0.8 0.743,0.014 1.421,-0.431 2.032,-0.806 0.605,-0.395 1.144,-1.173 0.609,-1.846 -0.198,-0.341 -0.196,-1.678 -0.607,-0.781 -0.045,0.512 -0.062,1.443 -0.81,1.329 -0.325,-0.084 -1.416,-0.892 -0.978,-0.065 0.43,0.55 0.101,1.182 -0.623,1.061 z"
       style="fill:#00a75d;" />
    <g
       transform="rotate(30.826033,174.65433,208.04065)"
       id="g889">
      <g
         class="D P Q"
         id="g877">
        <path
           id="use873"
           d="m 2.324003,114.974 c -0.291,0.62 -0.158,1.345 0.257,1.875 0.42,0.507 0.658,1.157 1.153,1.596 0.659,0.535 1.559,0.443 2.35,0.556 0.607,-0.019 1.254,-0.233 1.58,-0.782 0.378,-0.569 1.264,-0.816 1.25,-1.609 -0.013,-0.567 -0.265,-1.101 -0.391,-1.648 -0.284,-0.663 -0.744,-1.249 -1.263,-1.742 -0.602,-0.32 -0.988,-1.129 -1.737,-1.086 -0.743,0.21 -1.207,0.93 -1.82,1.366 -0.567,0.367 -0.881,0.98 -1.312,1.478 l -0.04,-0.003 z" />
        <path
           id="use875"
           d="m 4.166003,111.384 c -0.058,-0.66 -0.451,-1.349 -1.048,-1.651 -0.684,-0.194 -1.54,-0.124 -1.984,0.505 -0.53100001,0.636 -0.62700001,1.912 0.283,2.258 0.762,0.592 -0.54900001,0.884 -0.48200001,1.55 -0.123,0.634 -0.064,1.343 0.40800001,1.828 0.46,0.503 1.304,0.654 1.902,0.303 0.542,-0.19 0.708,-0.756 0.973,-1.201 0.016,-0.589 0.431,-1.037 0.994,-0.637 0.698,0.317 1.62,0.049 1.759,-0.781 0.218,-0.693 0.253,-1.458 -0.085,-2.119 -0.229,-0.663 -1.071,-0.624 -1.645,-0.591 -0.385,-0.016 -1.022,0.552 -1.074,0.538 z" />
      </g>
      <g
         class="C"
         id="g883">
        <path
           id="use879"
           d="m 2.064003,110.887 c -0.399,0.359 -0.37,1.277 0.232,1.765 0.709,0.574 -0.912,0.971 -0.496,1.877 0.293,1.005 1.79,0.712 2.003,-0.197 0.126,-0.969 0.927,-1.336 1.806,-1.223 1.017,-0.296 0.213,-1.598 -0.632,-1.226 -0.682,0.391 -1.043,0.602 -1.358,-0.356 -0.339,-1.03 -1.34,-0.833 -1.555,-0.64 z" />
        <path
           id="use881"
           d="m 7.403003,115.069 c 0.205,0.355 0.37,0.762 0.264,1.176 -0.13,0.293 -0.439,0.468 -0.577,0.765 -0.242,0.345 -0.605,0.636 -0.971,0.818 -0.546,0.01 -1.146,0.027 -1.627,-0.27 -0.231,-0.225 -0.66,-0.368 -0.736,-0.679 0.218,-0.222 0.551,-0.299 0.731,-0.572 0.294,-0.298 0.539,-0.658 0.643,-1.069 0.337,-0.102 0.703,-0.076 1.025,-0.239 0.372,0.029 0.705,-0.407 1.037,-0.19 0.103,0.076 0.08,0.227 0.213,0.26 z" />
      </g>
      <path
         id="use885"
         d="m 9.551003,121.758 c -2.555,1.727 -5.724,-3.902 -6.284,-1.701 -0.133,-1.741 0.642,-2.459 2.646,-1.795 -0.247,-0.624 -0.439,-1.279 -0.378,-2.079 0.751,0.208 1.208,0.121 1.89,1.039 -0.461,-3.069 2.354,-2.556 2.74,-2.551 -3.227,1.74 2.837,4.634 -0.614,7.087 z"
         style="fill:#018f50;stroke:#005b31;stroke-width:0.265;stroke-miterlimit:7;" />
      <path
         id="use887"
         d="m 5.866003,118.805 c -0.357,-0.076 -1.492,-0.287 -1.193,0.308 0.625,0.087 1.047,0.552 1.57,0.8 0.743,0.014 1.421,-0.431 2.032,-0.806 0.605,-0.395 1.144,-1.173 0.609,-1.846 -0.198,-0.341 -0.196,-1.678 -0.607,-0.781 -0.045,0.512 -0.062,1.443 -0.81,1.329 -0.325,-0.084 -1.416,-0.892 -0.978,-0.065 0.43,0.55 0.101,1.182 -0.623,1.061 z"
         style="fill:#00a75d;" />
    </g>
    <g
       transform="rotate(69.122006,85.453722,135.55436)"
       id="g907">
      <g
         class="D P Q"
         id="g895">
        <path
           id="use891"
           d="m 2.324003,114.974 c -0.291,0.62 -0.158,1.345 0.257,1.875 0.42,0.507 0.658,1.157 1.153,1.596 0.659,0.535 1.559,0.443 2.35,0.556 0.607,-0.019 1.254,-0.233 1.58,-0.782 0.378,-0.569 1.264,-0.816 1.25,-1.609 -0.013,-0.567 -0.265,-1.101 -0.391,-1.648 -0.284,-0.663 -0.744,-1.249 -1.263,-1.742 -0.602,-0.32 -0.988,-1.129 -1.737,-1.086 -0.743,0.21 -1.207,0.93 -1.82,1.366 -0.567,0.367 -0.881,0.98 -1.312,1.478 l -0.04,-0.003 z" />
        <path
           id="use893"
           d="m 4.166003,111.384 c -0.058,-0.66 -0.451,-1.349 -1.048,-1.651 -0.684,-0.194 -1.54,-0.124 -1.984,0.505 -0.53100001,0.636 -0.62700001,1.912 0.283,2.258 0.762,0.592 -0.54900001,0.884 -0.48200001,1.55 -0.123,0.634 -0.064,1.343 0.40800001,1.828 0.46,0.503 1.304,0.654 1.902,0.303 0.542,-0.19 0.708,-0.756 0.973,-1.201 0.016,-0.589 0.431,-1.037 0.994,-0.637 0.698,0.317 1.62,0.049 1.759,-0.781 0.218,-0.693 0.253,-1.458 -0.085,-2.119 -0.229,-0.663 -1.071,-0.624 -1.645,-0.591 -0.385,-0.016 -1.022,0.552 -1.074,0.538 z" />
      </g>
      <g
         class="C"
         id="g901">
        <path
           id="use897"
           d="m 2.064003,110.887 c -0.399,0.359 -0.37,1.277 0.232,1.765 0.709,0.574 -0.912,0.971 -0.496,1.877 0.293,1.005 1.79,0.712 2.003,-0.197 0.126,-0.969 0.927,-1.336 1.806,-1.223 1.017,-0.296 0.213,-1.598 -0.632,-1.226 -0.682,0.391 -1.043,0.602 -1.358,-0.356 -0.339,-1.03 -1.34,-0.833 -1.555,-0.64 z" />
        <path
           id="use899"
           d="m 7.403003,115.069 c 0.205,0.355 0.37,0.762 0.264,1.176 -0.13,0.293 -0.439,0.468 -0.577,0.765 -0.242,0.345 -0.605,0.636 -0.971,0.818 -0.546,0.01 -1.146,0.027 -1.627,-0.27 -0.231,-0.225 -0.66,-0.368 -0.736,-0.679 0.218,-0.222 0.551,-0.299 0.731,-0.572 0.294,-0.298 0.539,-0.658 0.643,-1.069 0.337,-0.102 0.703,-0.076 1.025,-0.239 0.372,0.029 0.705,-0.407 1.037,-0.19 0.103,0.076 0.08,0.227 0.213,0.26 z" />
      </g>
      <path
         id="use903"
         d="m 9.551003,121.758 c -2.555,1.727 -5.724,-3.902 -6.284,-1.701 -0.133,-1.741 0.642,-2.459 2.646,-1.795 -0.247,-0.624 -0.439,-1.279 -0.378,-2.079 0.751,0.208 1.208,0.121 1.89,1.039 -0.461,-3.069 2.354,-2.556 2.74,-2.551 -3.227,1.74 2.837,4.634 -0.614,7.087 z"
         style="fill:#018f50;stroke:#005b31;stroke-width:0.265;stroke-miterlimit:7;" />
      <path
         id="use905"
         d="m 5.866003,118.805 c -0.357,-0.076 -1.492,-0.287 -1.193,0.308 0.625,0.087 1.047,0.552 1.57,0.8 0.743,0.014 1.421,-0.431 2.032,-0.806 0.605,-0.395 1.144,-1.173 0.609,-1.846 -0.198,-0.341 -0.196,-1.678 -0.607,-0.781 -0.045,0.512 -0.062,1.443 -0.81,1.329 -0.325,-0.084 -1.416,-0.892 -0.978,-0.065 0.43,0.55 0.101,1.182 -0.623,1.061 z"
         style="fill:#00a75d;" />
    </g>
    <g
       transform="rotate(92.611012,61.410706,119.44902)"
       id="g925">
      <g
         class="D P Q"
         id="g913">
        <path
           id="use909"
           d="m 2.324003,114.974 c -0.291,0.62 -0.158,1.345 0.257,1.875 0.42,0.507 0.658,1.157 1.153,1.596 0.659,0.535 1.559,0.443 2.35,0.556 0.607,-0.019 1.254,-0.233 1.58,-0.782 0.378,-0.569 1.264,-0.816 1.25,-1.609 -0.013,-0.567 -0.265,-1.101 -0.391,-1.648 -0.284,-0.663 -0.744,-1.249 -1.263,-1.742 -0.602,-0.32 -0.988,-1.129 -1.737,-1.086 -0.743,0.21 -1.207,0.93 -1.82,1.366 -0.567,0.367 -0.881,0.98 -1.312,1.478 l -0.04,-0.003 z" />
        <path
           id="use911"
           d="m 4.166003,111.384 c -0.058,-0.66 -0.451,-1.349 -1.048,-1.651 -0.684,-0.194 -1.54,-0.124 -1.984,0.505 -0.53100001,0.636 -0.62700001,1.912 0.283,2.258 0.762,0.592 -0.54900001,0.884 -0.48200001,1.55 -0.123,0.634 -0.064,1.343 0.40800001,1.828 0.46,0.503 1.304,0.654 1.902,0.303 0.542,-0.19 0.708,-0.756 0.973,-1.201 0.016,-0.589 0.431,-1.037 0.994,-0.637 0.698,0.317 1.62,0.049 1.759,-0.781 0.218,-0.693 0.253,-1.458 -0.085,-2.119 -0.229,-0.663 -1.071,-0.624 -1.645,-0.591 -0.385,-0.016 -1.022,0.552 -1.074,0.538 z" />
      </g>
      <g
         class="C"
         id="g919">
        <path
           id="use915"
           d="m 2.064003,110.887 c -0.399,0.359 -0.37,1.277 0.232,1.765 0.709,0.574 -0.912,0.971 -0.496,1.877 0.293,1.005 1.79,0.712 2.003,-0.197 0.126,-0.969 0.927,-1.336 1.806,-1.223 1.017,-0.296 0.213,-1.598 -0.632,-1.226 -0.682,0.391 -1.043,0.602 -1.358,-0.356 -0.339,-1.03 -1.34,-0.833 -1.555,-0.64 z" />
        <path
           id="use917"
           d="m 7.403003,115.069 c 0.205,0.355 0.37,0.762 0.264,1.176 -0.13,0.293 -0.439,0.468 -0.577,0.765 -0.242,0.345 -0.605,0.636 -0.971,0.818 -0.546,0.01 -1.146,0.027 -1.627,-0.27 -0.231,-0.225 -0.66,-0.368 -0.736,-0.679 0.218,-0.222 0.551,-0.299 0.731,-0.572 0.294,-0.298 0.539,-0.658 0.643,-1.069 0.337,-0.102 0.703,-0.076 1.025,-0.239 0.372,0.029 0.705,-0.407 1.037,-0.19 0.103,0.076 0.08,0.227 0.213,0.26 z" />
      </g>
      <path
         id="use921"
         d="m 9.551003,121.758 c -2.555,1.727 -5.724,-3.902 -6.284,-1.701 -0.133,-1.741 0.642,-2.459 2.646,-1.795 -0.247,-0.624 -0.439,-1.279 -0.378,-2.079 0.751,0.208 1.208,0.121 1.89,1.039 -0.461,-3.069 2.354,-2.556 2.74,-2.551 -3.227,1.74 2.837,4.634 -0.614,7.087 z"
         style="fill:#018f50;stroke:#005b31;stroke-width:0.265;stroke-miterlimit:7;" />
      <path
         id="use923"
         d="m 5.866003,118.805 c -0.357,-0.076 -1.492,-0.287 -1.193,0.308 0.625,0.087 1.047,0.552 1.57,0.8 0.743,0.014 1.421,-0.431 2.032,-0.806 0.605,-0.395 1.144,-1.173 0.609,-1.846 -0.198,-0.341 -0.196,-1.678 -0.607,-0.781 -0.045,0.512 -0.062,1.443 -0.81,1.329 -0.325,-0.084 -1.416,-0.892 -0.978,-0.065 0.43,0.55 0.101,1.182 -0.623,1.061 z"
         style="fill:#00a75d;" />
    </g>
  </g>
  <g
     id="g2394">
    <path
       d="m 35.165,29.388 c -1.907,2.589 -3.531,5.492 -4.523,8.574 -1.021,2.485 -1.27,5.155 -1.089,7.814 0.554,2.333 0.094,4.887 0.832,7.229 1.497,3.416 3.255,6.906 6.202,9.309 2.142,2.401 5.177,3.739 7.833,5.522 2.277,1.087 5.229,0.844 7.682,1.278 1.433,2.222 4.71,2.472 7.119,4.553"
       fill="none"
       class="T"
       id="path927"
       style="stroke:#a07843;" />
    <path
       id="use929"
       d="m 38.575,69.056 c 5.138,-2.843 5.919,-0.314 8.686,-0.234 -3.088,2.048 -5.954,1.833 -8.686,0.234 z"
       style="fill:#f5c743;stroke:#a07843;stroke-width:0.265;" />
    <path
       id="use933"
       d="M 40.268,68.91 C 42.7,67.559 43.55,68.422 44.804,68.721 43.536,68.68 41.977,68.763 40.268,68.91 Z"
       style="fill:#ffeba3;" />
    <path
       id="use935"
       d="m 33.838556,64.823108 c 5.703195,-1.398305 5.794674,1.246961 8.444165,2.048761 -3.516547,1.16788 -6.226231,0.209866 -8.444165,-2.048761 z"
       style="fill:#f5c743;stroke:#a07843;stroke-width:0.265;" />
    <path
       id="use937"
       d="m 35.510709,65.125547 c 2.700917,-0.666989 3.295261,0.388484 4.427202,1.005434 -1.213014,-0.371619 -2.739346,-0.69977 -4.427202,-1.005434 z"
       style="fill:#ffeba3;" />
    <path
       id="use941"
       d="m 30.106634,60.680112 c 5.848517,-0.525874 5.541662,2.103126 8.040676,3.293762 -3.652064,0.626478 -6.187127,-0.727641 -8.040676,-3.293762 z"
       style="fill:#f5c743;stroke:#a07843;stroke-width:0.265;" />
    <path
       id="use943"
       d="m 31.714396,61.230263 c 2.770455,-0.253769 3.199536,0.878998 4.225976,1.658957 -1.143441,-0.549588 -2.603174,-1.103258 -4.225976,-1.658957 z"
       style="fill:#ffeba3;" />
    <path
       id="use947"
       d="m 27.766909,55.76783 c 5.812208,0.836622 4.907523,3.32406 7.064728,5.058752 -3.698115,-0.232353 -5.852708,-2.134434 -7.064728,-5.058752 z"
       style="fill:#f5c743;stroke:#a07843;stroke-width:0.265;" />
    <path
       id="use949"
       d="m 29.204529,56.673819 c 2.75433,0.391774 2.910702,1.592947 3.729679,2.588534 -0.985936,-0.798395 -2.278703,-1.67368 -3.729679,-2.588534 z"
       style="fill:#ffeba3;" />
    <path
       id="use953"
       d="m 26.169253,50.141661 c 5.469281,2.137442 4.022232,4.353712 5.728037,6.53383 -3.54819,-1.067894 -5.213356,-3.410414 -5.728037,-6.53383 z"
       style="fill:#f5c743;stroke:#a07843;stroke-width:0.265;" />
    <path
       id="use955"
       d="m 27.362956,51.351056 c 2.59289,1.008339 2.471788,2.213579 3.042693,3.369427 -0.778361,-1.001828 -1.838,-2.148359 -3.042693,-3.369427 z"
       style="fill:#ffeba3;" />
    <path
       id="use959"
       d="m 25.832099,44.804374 c 4.943546,3.169075 3.08975,5.058319 4.33461,7.53077 -3.269669,-1.743362 -4.442813,-4.367083 -4.33461,-7.53077 z"
       style="fill:#f5c743;stroke:#a07843;stroke-width:0.265;" />
    <path
       id="use961"
       d="m 26.765288,46.224487 c 2.344626,1.497516 1.989386,2.655563 2.32239,3.900964 -0.566649,-1.135083 -1.380716,-2.467248 -2.32239,-3.900964 z"
       style="fill:#ffeba3;" />
    <path
       id="use965"
       d="m 26.554303,39.409728 c 4.199404,4.104474 2.001447,5.57919 2.719854,8.252499 -2.848906,-2.369341 -3.466451,-5.176265 -2.719854,-8.252499 z"
       style="fill:#f5c743;stroke:#a07843;stroke-width:0.265;" />
    <path
       id="use967"
       d="m 27.180591,40.989389 c 1.992811,1.94127 1.410429,3.003391 1.484345,4.290424 -0.325059,-1.226312 -0.852502,-2.695725 -1.484345,-4.290424 z"
       style="fill:#ffeba3;" />
    <path
       id="use971"
       d="m 28.074728,34.017866 c 3.504388,4.711789 1.102504,5.823885 1.393148,8.576741 -2.442456,-2.786478 -2.612547,-5.655493 -1.393148,-8.576741 z"
       style="fill:#f5c743;stroke:#a07843;stroke-width:0.265;" />
    <path
       id="use973"
       d="m 28.445758,35.676148 c 1.664011,2.22955 0.922396,3.187296 0.79373,4.470013 -0.128889,-1.262099 -0.41957,-2.796007 -0.79373,-4.470013 z"
       style="fill:#ffeba3;" />
    <path
       id="use977"
       d="m 30.42817,28.544729 c 2.932505,5.087446 0.417564,5.912596 0.386013,8.680573 -2.101742,-3.051677 -1.936944,-5.921001 -0.386013,-8.680573 z"
       style="fill:#f5c743;stroke:#a07843;stroke-width:0.265;" />
    <path
       id="use979"
       d="m 30.603784,30.234914 c 1.393365,2.407978 0.545376,3.272954 0.268373,4.531996 0.0188,-1.268523 -0.09148,-2.825831 -0.268373,-4.531996 z"
       style="fill:#ffeba3;" />
    <path
       id="use983"
       d="m 34.341869,24.186191 c 1.728986,5.6118 -0.906424,5.857606 -1.552125,8.549401 -1.371253,-3.442341 -0.573119,-6.203349 1.552125,-8.549401 z"
       style="fill:#f5c743;stroke:#a07843;stroke-width:0.265;" />
    <path
       id="use985"
       d="m 34.1376,25.873152 c 0.823584,2.657355 -0.195378,3.312325 -0.745169,4.478364 0.300145,-1.232647 0.538597,-2.775537 0.745169,-4.478364 z"
       style="fill:#ffeba3;" />
    <path
       id="use989"
       d="m 41.391714,23.680185 c -2.010404,5.517243 -4.259542,4.121828 -6.399634,5.877588 0.985563,-3.571934 3.288954,-5.290821 6.399634,-5.877588 z"
       style="fill:#f5c743;stroke:#a07843;stroke-width:0.265;" />
    <path
       id="use991"
       d="m 40.210244,24.901534 c -0.948114,2.615513 -2.155832,2.522312 -3.29817,3.119791 0.983562,-0.801318 2.105285,-1.887186 3.29817,-3.119791 z"
       style="fill:#ffeba3;" />
    <path
       id="use995"
       d="m 41.686419,28.339478 c -3.585764,4.650161 -5.307163,2.639542 -7.878237,3.665344 2.020288,-3.106201 4.735845,-4.047441 7.878237,-3.665344 z"
       style="fill:#f5c743;stroke:#a07843;stroke-width:0.265;" />
    <path
       id="use997"
       d="m 40.190742,29.146025 c -1.695163,2.205957 -2.818048,1.751647 -4.087632,1.975417 1.179939,-0.466099 2.57767,-1.161597 4.087632,-1.975417 z"
       style="fill:#ffeba3;" />
    <path
       id="use1001"
       d="m 37.309984,32.242326 c -2.033303,5.508845 -4.276625,4.1041 -6.423991,5.850956 1.000391,-3.56781 3.310901,-5.277115 6.423991,-5.850956 z"
       style="fill:#f5c743;stroke:#a07843;stroke-width:0.265;" />
    <path
       id="use1003"
       d="m 36.123452,33.458757 c -0.95897,2.611552 -2.16629,2.513336 -3.3111,3.106064 0.986882,-0.797225 2.113105,-1.878424 3.3111,-3.106064 z"
       style="fill:#ffeba3;" />
    <path
       id="use1007"
       d="m 34.56459,37.091719 c -0.668614,5.833922 -3.181113,5.001367 -4.852855,7.207714 0.125579,-3.703279 1.964716,-5.911843 4.852855,-7.207714 z"
       style="fill:#f5c743;stroke:#a07843;stroke-width:0.265;" />
    <path
       id="use1009"
       d="m 33.700448,38.554874 c -0.312159,2.764486 -1.508321,2.955442 -2.47987,3.802797 0.769623,-1.008557 1.607252,-2.326034 2.47987,-3.802797 z"
       style="fill:#ffeba3;" />
    <path
       id="use1015"
       d="m 32.493548,42.724328 c 1.361649,5.712058 -1.284151,5.786546 -2.10295,8.430834 -1.145272,-3.523975 -0.169875,-6.227451 2.10295,-8.430834 z"
       style="fill:#f5c743;stroke:#a07843;stroke-width:0.265;" />
    <path
       id="use1017"
       d="m 32.180375,44.394504 c 0.64963,2.705145 -0.409639,3.292699 -1.033845,4.420654 0.379402,-1.210603 0.717348,-2.734795 1.033845,-4.420654 z"
       style="fill:#ffeba3;" />
    <path
       id="use1021"
       d="m 32.581377,47.924325 c 2.726701,5.200653 0.180773,5.924565 0.03855,8.689066 -1.978017,-3.133289 -1.698601,-5.993727 -0.03855,-8.689066 z"
       style="fill:#f5c743;stroke:#a07843;stroke-width:0.265;" />
    <path
       id="use1023"
       d="m 32.689256,49.620181 c 1.29595,2.461775 0.414048,3.292147 0.08691,4.539103 0.06951,-1.266757 0.0216,-2.827229 -0.08691,-4.539103 z"
       style="fill:#ffeba3;" />
    <path
       id="use1027"
       d="m 33.982497,53.203137 c 3.935906,4.357791 1.650457,5.692904 2.201151,8.40573 -2.695978,-2.541998 -3.137692,-5.381905 -2.201151,-8.40573 z"
       style="fill:#f5c743;stroke:#a07843;stroke-width:0.265;" />
    <path
       id="use1029"
       d="m 34.509292,54.818703 c 1.868173,2.061493 1.220839,3.085323 1.214538,4.374461 -0.248133,-1.24416 -0.683134,-2.743541 -1.214538,-4.374461 z"
       style="fill:#ffeba3;" />
    <path
       id="use1033"
       d="m 37.326054,58.470649 c 4.993254,3.090163 3.169697,5.00861 4.453666,7.460979 -3.296944,-1.691214 -4.51161,-4.295973 -4.453666,-7.460979 z"
       style="fill:#f5c743;stroke:#a07843;stroke-width:0.265;" />
    <path
       id="use1035"
       d="m 38.28168,59.875762 c 2.368114,1.46009 2.03131,2.623633 2.384052,3.863589 -0.584605,-1.125941 -1.419727,-2.44501 -2.384052,-3.863589 z"
       style="fill:#ffeba3;" />
    <path
       id="use1039"
       d="m 41.796763,62.862712 c 5.682444,1.480379 4.505671,3.851245 6.455691,5.815961 -3.649045,-0.64383 -5.577778,-2.774597 -6.455691,-5.815961 z"
       style="fill:#f5c743;stroke:#a07843;stroke-width:0.265;" />
    <path
       id="use1041"
       d="m 43.12423,63.923559 c 2.693361,0.696872 2.714633,1.907994 3.417321,2.988801 -0.890622,-0.903491 -2.07757,-1.917653 -3.417321,-2.988801 z"
       style="fill:#ffeba3;" />
  </g>
</svg>
