<svg id="f38513bb-3e2a-4737-a87f-50060d6ae2f5" data-name="Layer 1" xmlns="http://www.w3.org/2000/svg" viewBox="0 0 425 465"><path d="M253.676,402.351c36.9-12.458,60.014-33.732,72-45,25.513-23.984,38.878-47.926,46.195-61.287A267.983,267.983,0,0,0,390.616,253.4V7.749H34.384V253.4a268.023,268.023,0,0,0,18.745,42.669c7.317,13.361,20.682,37.3,46.2,61.287,11.986,11.268,35.1,32.542,72,45a111.016,111.016,0,0,0,82.352,0Z" style="fill:#fef200;stroke:#000;stroke-miterlimit:10;stroke-width:4px"/><path d="M253.676,402.351c36.9-12.458,60.014-33.732,72-45,25.513-23.984,38.878-47.926,46.195-61.287A267.983,267.983,0,0,0,390.616,253.4V209.009H34.384V253.4a268.023,268.023,0,0,0,18.745,42.669c7.317,13.361,20.682,37.3,46.2,61.287,11.986,11.268,35.1,32.542,72,45a111.016,111.016,0,0,0,82.352,0Z" style="fill:#0072bb;stroke:#000;stroke-miterlimit:10;stroke-width:4px"/><polygon points="38.82 209.009 386.18 209.009 212.5 82.671 38.82 209.009" style="fill:#00a652;stroke:#000;stroke-miterlimit:10;stroke-width:4px"/><path d="M171.552,371.179a67.97,67.97,0,0,1,10.639-11.609,59.672,59.672,0,0,1,13.157-8.686,62.78,62.78,0,0,1,22.621-6.139c.652-.051,1.307-.089,1.958-.118.669-.027,1.266-.039,1.808-.109l1.684-.159c.564-.06,1.146-.2,1.72-.3a73.872,73.872,0,0,0,13.768-4.333,137.838,137.838,0,0,0,13.254-6.413,167.148,167.148,0,0,0,24.45-16.646c1.87-1.613,3.769-3.2,5.6-4.859l2.7-2.538c.908-.839,1.805-1.69,2.652-2.591,3.516-3.479,6.728-7.247,9.9-11.043a138.083,138.083,0,0,0,16.041-24.989,147.969,147.969,0,0,0,10.648-27.833c1.312-4.808,2.386-9.682,3.255-14.6.83-4.92,1.446-9.881,1.8-14.865-.212,4.992-.683,9.976-1.372,14.933-.727,4.951-1.662,9.875-2.84,14.746a149.312,149.312,0,0,1-9.92,28.378,140.374,140.374,0,0,1-15.546,25.841c-3.117,3.959-6.286,7.9-9.771,11.558-.839.945-1.728,1.84-2.63,2.723l-2.685,2.672c-1.82,1.75-3.71,3.426-5.575,5.131a171.035,171.035,0,0,1-24.545,17.776,142.247,142.247,0,0,1-13.522,7.036,78.571,78.571,0,0,1-14.642,5.06c-.654.132-1.285.3-1.959.4l-2.041.255c-.7.1-1.349.131-1.927.172-.6.044-1.188.1-1.78.16a56.355,56.355,0,0,0-41.18,25.01Z"/><line x1="243.381" y1="341.601" x2="264.551" y2="341.601" style="fill:none;stroke:#000;stroke-miterlimit:10;stroke-width:1.5px"/><path d="M261.3,343.071a19.7,19.7,0,0,1,5.52-5.04,19.976,19.976,0,0,1,10.08-2.88,30.224,30.224,0,0,1,15.84,3.96c-1.343,1.225-11.9,10.561-24.045,7.491A21.32,21.32,0,0,1,261.3,343.071Z" style="fill:#fef200;stroke:#000;stroke-miterlimit:10"/><line x1="248.897" y1="338.357" x2="248.897" y2="327.601" style="fill:none;stroke:#000;stroke-miterlimit:10;stroke-width:2px"/><path d="M248.482,330.64a19.689,19.689,0,0,1-4.555-5.927,19.972,19.972,0,0,1-2.017-10.287,30.221,30.221,0,0,1,5.287-15.448c1.106,1.442,9.517,12.747,5.429,24.593A21.283,21.283,0,0,1,248.482,330.64Z" style="fill:#fef200;stroke:#000;stroke-miterlimit:10"/><line x1="259.788" y1="331.502" x2="280.958" y2="331.502" style="fill:none;stroke:#000;stroke-miterlimit:10;stroke-width:1.5px"/><path d="M277.869,332.268a19.707,19.707,0,0,1,5.218-5.352,19.973,19.973,0,0,1,9.9-3.46,30.218,30.218,0,0,1,16.043,3.033c-1.27,1.3-11.263,11.235-23.57,8.875A21.278,21.278,0,0,1,277.869,332.268Z" style="fill:#fef200;stroke:#000;stroke-miterlimit:10"/><line x1="263.476" y1="327.688" x2="263.476" y2="316.933" style="fill:none;stroke:#000;stroke-miterlimit:10;stroke-width:2px"/><path d="M263.953,320.341a19.691,19.691,0,0,1-4.726-5.791,19.97,19.97,0,0,1-2.317-10.224,30.24,30.24,0,0,1,4.833-15.6c1.148,1.409,9.885,12.464,6.146,24.424A21.322,21.322,0,0,1,263.953,320.341Z" style="fill:#fef200;stroke:#000;stroke-miterlimit:10"/><line x1="275.974" y1="320.632" x2="292.679" y2="318.669" style="fill:none;stroke:#000;stroke-miterlimit:10;stroke-width:2px"/><path d="M288.874,319.753a19.7,19.7,0,0,1,4.9-5.646,19.989,19.989,0,0,1,9.678-4.029,30.234,30.234,0,0,1,16.193,2.1c-1.192,1.373-10.592,11.87-23.016,10.229A21.293,21.293,0,0,1,288.874,319.753Z" style="fill:#fef200;stroke:#000;stroke-miterlimit:10"/><line x1="276.9" y1="318.808" x2="276.9" y2="304.535" style="fill:none;stroke:#000;stroke-miterlimit:10;stroke-width:2px"/><path d="M276.377,307.774a19.7,19.7,0,0,1-4.847-5.69A19.972,19.972,0,0,1,269,291.911a30.236,30.236,0,0,1,4.5-15.695c1.179,1.385,10.148,12.252,6.662,24.289A21.3,21.3,0,0,1,276.377,307.774Z" style="fill:#fef200;stroke:#000;stroke-miterlimit:10"/><line x1="289.661" y1="306.498" x2="306.367" y2="304.535" style="fill:none;stroke:#000;stroke-miterlimit:10;stroke-width:2px"/><path d="M303.16,305.03a19.364,19.364,0,0,1,4.133-6.082,19.646,19.646,0,0,1,8.99-5.055,29.73,29.73,0,0,1,16.062.178c-1.006,1.478-8.977,12.82-21.3,12.653A20.961,20.961,0,0,1,303.16,305.03Z" style="fill:#fef200;stroke:#000;stroke-miterlimit:10"/><line x1="290.957" y1="305.517" x2="290.957" y2="291.244" style="fill:none;stroke:#000;stroke-miterlimit:10;stroke-width:2px"/><path d="M291.306,293.8a19.7,19.7,0,0,1-5.888-4.606,19.974,19.974,0,0,1-4.515-9.461,30.226,30.226,0,0,1,1.272-16.278c1.431,1.121,12.392,9.976,11.384,22.467A21.3,21.3,0,0,1,291.306,293.8Z" style="fill:#fef200;stroke:#000;stroke-miterlimit:10"/><line x1="303.217" y1="290.49" x2="319.716" y2="287.22" style="fill:none;stroke:#000;stroke-miterlimit:10;stroke-width:2px"/><path d="M318.281,287.709a19.014,19.014,0,0,1,3.432-6.342,19.271,19.271,0,0,1,8.271-5.819,29.17,29.17,0,0,1,15.688-1.413c-.836,1.542-7.492,13.394-19.535,14.448A20.563,20.563,0,0,1,318.281,287.709Z" style="fill:#fef200;stroke:#000;stroke-miterlimit:10"/><line x1="301.314" y1="292.868" x2="300.56" y2="274.022" style="fill:none;stroke:#000;stroke-miterlimit:10;stroke-width:2px"/><path d="M301.1,276.79a19.7,19.7,0,0,1-5.977-4.489,19.972,19.972,0,0,1-4.7-9.37,30.23,30.23,0,0,1,.951-16.3c1.453,1.092,12.586,9.729,11.825,22.238A21.316,21.316,0,0,1,301.1,276.79Z" style="fill:#fef200;stroke:#000;stroke-miterlimit:10"/><line x1="312.404" y1="274.79" x2="328.636" y2="267.394" style="fill:none;stroke:#000;stroke-miterlimit:10;stroke-width:2px"/><path d="M327.414,268.684a19,19,0,0,1,2.014-6.924,19.276,19.276,0,0,1,6.855-7.435,29.179,29.179,0,0,1,15.035-4.695c-.49,1.684-4.492,14.674-16.041,18.248A20.534,20.534,0,0,1,327.414,268.684Z" style="fill:#fef200;stroke:#000;stroke-miterlimit:10"/><line x1="313.711" y1="271.883" x2="309.112" y2="256.959" style="fill:none;stroke:#000;stroke-miterlimit:10;stroke-width:2px"/><path d="M310.3,259.371a19.2,19.2,0,0,1-6.594-3.106,19.473,19.473,0,0,1-6.339-8.019,29.488,29.488,0,0,1-2.311-15.751c1.6.756,13.94,6.8,15.682,18.9A20.768,20.768,0,0,1,310.3,259.371Z" style="fill:#fef200;stroke:#000;stroke-miterlimit:10"/><line x1="321.906" y1="252.454" x2="336.047" y2="242.499" style="fill:none;stroke:#000;stroke-miterlimit:10;stroke-width:1.5px"/><path d="M332.473,245.234a18.922,18.922,0,0,1,1.412-7.044,19.193,19.193,0,0,1,6.173-7.962,29.038,29.038,0,0,1,14.526-5.938c-.345,1.713-3.214,14.948-14.374,19.477A20.479,20.479,0,0,1,332.473,245.234Z" style="fill:#fef200;stroke:#000;stroke-miterlimit:10"/><line x1="321.477" y1="253.395" x2="317.62" y2="240.879" style="fill:none;stroke:#000;stroke-miterlimit:10;stroke-width:1.5px"/><path d="M318.752,244.818a19.633,19.633,0,0,1-6.737-3.173,19.9,19.9,0,0,1-6.476-8.193,30.11,30.11,0,0,1-2.361-16.094c1.638.773,14.242,6.953,16.022,19.309A21.229,21.229,0,0,1,318.752,244.818Z" style="fill:#fef200;stroke:#000;stroke-miterlimit:10"/><line x1="325.53" y1="238.917" x2="338.523" y2="222.993" style="fill:none;stroke:#000;stroke-miterlimit:10"/><path d="M337.9,224.009a18.79,18.79,0,0,1-1.526-6.968,19.066,19.066,0,0,1,2.438-9.7,28.843,28.843,0,0,1,10.841-11.193c.37,1.695,3.04,14.875-5.3,23.445A20.333,20.333,0,0,1,337.9,224.009Z" style="fill:#fef200;stroke:#000;stroke-miterlimit:10"/><line x1="326.201" y1="237.054" x2="316.992" y2="218.415" style="fill:none;stroke:#000;stroke-miterlimit:10"/><path d="M317.613,221.6a19.226,19.226,0,0,1-5.713-4.527,19.487,19.487,0,0,1-4.344-9.254A29.481,29.481,0,0,1,308.9,191.95c1.388,1.1,12.021,9.805,10.961,21.978A20.78,20.78,0,0,1,317.613,221.6Z" style="fill:#fef200;stroke:#000;stroke-miterlimit:10"/><path d="M328.976,182.809a27.618,27.618,0,0,0-5.139,18.425,26.977,26.977,0,0,0,5.139,13.387,24.2,24.2,0,0,0,5.337-10.6C336.692,192.979,330.078,184.22,328.976,182.809Z" style="fill:#fef200;stroke:#000;stroke-miterlimit:10"/><path d="M247.719,375.2A57.632,57.632,0,0,0,226.9,356.355a56.955,56.955,0,0,0-20.358-6.163c-.592-.064-1.183-.116-1.78-.16-.578-.041-1.23-.072-1.927-.172l-2.041-.255c-.674-.1-1.305-.268-1.959-.4a78.571,78.571,0,0,1-14.642-5.06,142.247,142.247,0,0,1-13.522-7.036,171.035,171.035,0,0,1-24.545-17.776c-1.865-1.705-3.755-3.381-5.575-5.131l-2.685-2.672c-.9-.883-1.791-1.778-2.63-2.723-3.485-3.657-6.654-7.6-9.771-11.558a140.374,140.374,0,0,1-15.546-25.841A149.312,149.312,0,0,1,100,243.03c-1.178-4.871-2.113-9.795-2.84-14.746-.689-4.957-1.16-9.941-1.372-14.933.358,4.984.974,9.945,1.8,14.865.869,4.914,1.943,9.788,3.255,14.6a147.969,147.969,0,0,0,10.648,27.833,138.083,138.083,0,0,0,16.041,24.989c3.174,3.8,6.386,7.564,9.9,11.043.847.9,1.744,1.752,2.652,2.591l2.7,2.538c1.83,1.66,3.729,3.246,5.6,4.859a167.148,167.148,0,0,0,24.45,16.646,137.838,137.838,0,0,0,13.254,6.413,73.872,73.872,0,0,0,13.768,4.333c.574.1,1.156.242,1.72.3l1.684.159c.542.07,1.139.082,1.808.109.651.029,1.306.067,1.958.118a62.78,62.78,0,0,1,22.621,6.139,59.672,59.672,0,0,1,13.157,8.686,67.97,67.97,0,0,1,10.639,11.609Z"/><line x1="181.619" y1="341.601" x2="160.449" y2="341.601" style="fill:none;stroke:#000;stroke-miterlimit:10;stroke-width:1.5px"/><path d="M163.7,343.071a19.7,19.7,0,0,0-5.52-5.04,19.976,19.976,0,0,0-10.08-2.88,30.224,30.224,0,0,0-15.84,3.96c1.343,1.225,11.9,10.561,24.045,7.491A21.32,21.32,0,0,0,163.7,343.071Z" style="fill:#fef200;stroke:#000;stroke-miterlimit:10"/><line x1="176.103" y1="338.357" x2="176.103" y2="327.601" style="fill:none;stroke:#000;stroke-miterlimit:10;stroke-width:2px"/><path d="M176.518,330.64a19.689,19.689,0,0,0,4.555-5.927,19.972,19.972,0,0,0,2.017-10.287,30.221,30.221,0,0,0-5.287-15.448c-1.106,1.442-9.517,12.747-5.429,24.593A21.283,21.283,0,0,0,176.518,330.64Z" style="fill:#fef200;stroke:#000;stroke-miterlimit:10"/><line x1="165.212" y1="331.502" x2="144.042" y2="331.502" style="fill:none;stroke:#000;stroke-miterlimit:10;stroke-width:1.5px"/><path d="M147.131,332.268a19.707,19.707,0,0,0-5.218-5.352,19.973,19.973,0,0,0-9.9-3.46,30.218,30.218,0,0,0-16.043,3.033c1.27,1.3,11.263,11.235,23.57,8.875A21.278,21.278,0,0,0,147.131,332.268Z" style="fill:#fef200;stroke:#000;stroke-miterlimit:10"/><line x1="161.524" y1="327.688" x2="161.524" y2="316.933" style="fill:none;stroke:#000;stroke-miterlimit:10;stroke-width:2px"/><path d="M161.047,320.341a19.691,19.691,0,0,0,4.726-5.791,19.97,19.97,0,0,0,2.317-10.224,30.24,30.24,0,0,0-4.833-15.6c-1.148,1.409-9.885,12.464-6.146,24.424A21.322,21.322,0,0,0,161.047,320.341Z" style="fill:#fef200;stroke:#000;stroke-miterlimit:10"/><line x1="149.026" y1="320.632" x2="132.321" y2="318.669" style="fill:none;stroke:#000;stroke-miterlimit:10;stroke-width:2px"/><path d="M136.126,319.753a19.7,19.7,0,0,0-4.9-5.646,19.989,19.989,0,0,0-9.678-4.029,30.234,30.234,0,0,0-16.193,2.1c1.192,1.373,10.592,11.87,23.016,10.229A21.293,21.293,0,0,0,136.126,319.753Z" style="fill:#fef200;stroke:#000;stroke-miterlimit:10"/><line x1="148.1" y1="318.808" x2="148.1" y2="304.535" style="fill:none;stroke:#000;stroke-miterlimit:10;stroke-width:2px"/><path d="M148.623,307.774a19.7,19.7,0,0,0,4.847-5.69A19.972,19.972,0,0,0,156,291.911a30.236,30.236,0,0,0-4.5-15.695c-1.179,1.385-10.148,12.252-6.662,24.289A21.3,21.3,0,0,0,148.623,307.774Z" style="fill:#fef200;stroke:#000;stroke-miterlimit:10"/><line x1="135.339" y1="306.498" x2="118.633" y2="304.535" style="fill:none;stroke:#000;stroke-miterlimit:10;stroke-width:2px"/><path d="M121.84,305.03a19.364,19.364,0,0,0-4.133-6.082,19.646,19.646,0,0,0-8.99-5.055,29.73,29.73,0,0,0-16.062.178c1.006,1.478,8.977,12.82,21.3,12.653A20.961,20.961,0,0,0,121.84,305.03Z" style="fill:#fef200;stroke:#000;stroke-miterlimit:10"/><line x1="134.043" y1="305.517" x2="134.043" y2="291.244" style="fill:none;stroke:#000;stroke-miterlimit:10;stroke-width:2px"/><path d="M133.694,293.8a19.7,19.7,0,0,0,5.888-4.606,19.974,19.974,0,0,0,4.515-9.461,30.226,30.226,0,0,0-1.272-16.278c-1.431,1.121-12.392,9.976-11.384,22.467A21.3,21.3,0,0,0,133.694,293.8Z" style="fill:#fef200;stroke:#000;stroke-miterlimit:10"/><line x1="121.783" y1="290.49" x2="105.284" y2="287.22" style="fill:none;stroke:#000;stroke-miterlimit:10;stroke-width:2px"/><path d="M106.719,287.709a19.014,19.014,0,0,0-3.432-6.342,19.271,19.271,0,0,0-8.271-5.819,29.17,29.17,0,0,0-15.688-1.413c.836,1.542,7.492,13.394,19.535,14.448A20.563,20.563,0,0,0,106.719,287.709Z" style="fill:#fef200;stroke:#000;stroke-miterlimit:10"/><line x1="123.686" y1="292.868" x2="124.44" y2="274.022" style="fill:none;stroke:#000;stroke-miterlimit:10;stroke-width:2px"/><path d="M123.9,276.79a19.7,19.7,0,0,0,5.977-4.489,19.972,19.972,0,0,0,4.7-9.37,30.23,30.23,0,0,0-.951-16.3c-1.453,1.092-12.586,9.729-11.825,22.238A21.316,21.316,0,0,0,123.9,276.79Z" style="fill:#fef200;stroke:#000;stroke-miterlimit:10"/><line x1="112.596" y1="274.79" x2="96.364" y2="267.394" style="fill:none;stroke:#000;stroke-miterlimit:10;stroke-width:2px"/><path d="M97.586,268.684a19,19,0,0,0-2.014-6.924,19.276,19.276,0,0,0-6.855-7.435,29.179,29.179,0,0,0-15.035-4.695c.49,1.684,4.492,14.674,16.041,18.248A20.534,20.534,0,0,0,97.586,268.684Z" style="fill:#fef200;stroke:#000;stroke-miterlimit:10"/><line x1="111.289" y1="271.883" x2="115.888" y2="256.959" style="fill:none;stroke:#000;stroke-miterlimit:10;stroke-width:2px"/><path d="M114.7,259.371a19.2,19.2,0,0,0,6.594-3.106,19.473,19.473,0,0,0,6.339-8.019,29.488,29.488,0,0,0,2.311-15.751c-1.6.756-13.94,6.8-15.682,18.9A20.768,20.768,0,0,0,114.7,259.371Z" style="fill:#fef200;stroke:#000;stroke-miterlimit:10"/><line x1="103.094" y1="252.454" x2="88.953" y2="242.499" style="fill:none;stroke:#000;stroke-miterlimit:10;stroke-width:1.5px"/><path d="M92.527,245.234a18.922,18.922,0,0,0-1.412-7.044,19.193,19.193,0,0,0-6.173-7.962,29.038,29.038,0,0,0-14.526-5.938c.345,1.713,3.214,14.948,14.374,19.477A20.479,20.479,0,0,0,92.527,245.234Z" style="fill:#fef200;stroke:#000;stroke-miterlimit:10"/><line x1="103.523" y1="253.395" x2="107.38" y2="240.879" style="fill:none;stroke:#000;stroke-miterlimit:10;stroke-width:1.5px"/><path d="M106.248,244.818a19.633,19.633,0,0,0,6.737-3.173,19.9,19.9,0,0,0,6.476-8.193,30.11,30.11,0,0,0,2.361-16.094c-1.638.773-14.242,6.953-16.022,19.309A21.229,21.229,0,0,0,106.248,244.818Z" style="fill:#fef200;stroke:#000;stroke-miterlimit:10"/><line x1="99.47" y1="238.917" x2="86.477" y2="222.993" style="fill:none;stroke:#000;stroke-miterlimit:10"/><path d="M87.1,224.009a18.79,18.79,0,0,0,1.526-6.968,19.066,19.066,0,0,0-2.438-9.7,28.843,28.843,0,0,0-10.841-11.193c-.37,1.695-3.04,14.875,5.3,23.445A20.333,20.333,0,0,0,87.1,224.009Z" style="fill:#fef200;stroke:#000;stroke-miterlimit:10"/><line x1="98.799" y1="237.054" x2="108.008" y2="218.415" style="fill:none;stroke:#000;stroke-miterlimit:10"/><path d="M107.387,221.6a19.226,19.226,0,0,0,5.713-4.527,19.487,19.487,0,0,0,4.344-9.254A29.481,29.481,0,0,0,116.1,191.95c-1.388,1.1-12.021,9.805-10.961,21.978A20.78,20.78,0,0,0,107.387,221.6Z" style="fill:#fef200;stroke:#000;stroke-miterlimit:10"/><path d="M96.024,182.809a27.618,27.618,0,0,1,5.139,18.425,26.977,26.977,0,0,1-5.139,13.387,24.2,24.2,0,0,1-5.337-10.6C88.308,192.979,94.922,184.22,96.024,182.809Z" style="fill:#fef200;stroke:#000;stroke-miterlimit:10"/><path d="M375.884,326.931l.6,35.64,41.76-8.1c-8.077,10-17.282,20.544-27.72,31.32-10.924,11.275-22.425,21.378-32.58,30.06-11.77-11.77-22.76-23.72-34.53-35.49q4.8-4.056,9.617-8.373A425.134,425.134,0,0,0,375.884,326.931Z" style="fill:#fef200"/><path d="M375.884,326.931l.6,35.64,41.76-8.1c-8.077,10-17.282,20.544-27.72,31.32-10.924,11.275-22.425,21.378-32.58,30.06-11.77-11.77-22.76-23.72-34.53-35.49q4.8-4.056,9.617-8.373A425.134,425.134,0,0,0,375.884,326.931Z" style="fill:none;stroke:#000;stroke-miterlimit:10;stroke-width:4px"/><path d="M49.116,326.931l-.6,35.64-41.76-8.1c8.077,10,17.282,20.544,27.72,31.32,10.924,11.275,22.425,21.378,32.58,30.06,11.77-11.77,22.76-23.72,34.53-35.49q-4.8-4.056-9.617-8.373A425.134,425.134,0,0,1,49.116,326.931Z" style="fill:#fef200"/><path d="M49.116,326.931l-.6,35.64-41.76-8.1c8.077,10,17.282,20.544,27.72,31.32,10.924,11.275,22.425,21.378,32.58,30.06,11.77-11.77,22.76-23.72,34.53-35.49q-4.8-4.056-9.617-8.373A425.134,425.134,0,0,1,49.116,326.931Z" style="fill:none;stroke:#000;stroke-miterlimit:10;stroke-width:4px"/><path d="M358.48,392.091a256.752,256.752,0,0,1-41.58,32.04c-13.52,8.36-35.3,21.57-66.63,28.57a190.951,190.951,0,0,1-37.77,4.55,190.951,190.951,0,0,1-37.77-4.55c-31.33-7-53.11-20.21-66.63-28.57a256.752,256.752,0,0,1-41.58-32.04l31.87-35.62c.31.29.62.59.93.88,11.99,11.27,35.1,32.54,72,45a111.011,111.011,0,0,0,82.36,0c36.9-12.46,60.01-33.73,72-45,.31-.29.62-.58.92-.88Z" style="fill:#fef200"/><path d="M358.48,392.091a256.752,256.752,0,0,1-41.58,32.04c-13.52,8.36-35.3,21.57-66.63,28.57a190.951,190.951,0,0,1-37.77,4.55,190.951,190.951,0,0,1-37.77-4.55c-31.33-7-53.11-20.21-66.63-28.57a256.752,256.752,0,0,1-41.58-32.04l31.87-35.62c.31.29.62.59.93.88,11.99,11.27,35.1,32.54,72,45a111.011,111.011,0,0,0,82.36,0c36.9-12.46,60.01-33.73,72-45,.31-.29.62-.58.92-.88Z" style="fill:none;stroke:#000;stroke-miterlimit:10;stroke-width:4px"/><path d="M99.969,395.174l3.944,2.21a5.5,5.5,0,0,0-.547,3.674,4.986,4.986,0,0,0,2.145,2.786,5.154,5.154,0,0,0,3.3,1.146,2.81,2.81,0,0,0,2.193-1.169,2.088,2.088,0,0,0,.4-1.407,3.82,3.82,0,0,0-.8-1.765q-.505-.693-2.469-2.934a12.565,12.565,0,0,1-2.991-4.84,5.96,5.96,0,0,1,.9-4.989,5.888,5.888,0,0,1,2.683-2.12,6.205,6.205,0,0,1,3.673-.273,11.476,11.476,0,0,1,4.156,1.919q3.54,2.463,4.25,5.259a6.677,6.677,0,0,1-1,5.451l-3.913-2.475a3.929,3.929,0,0,0,.4-2.811,4.662,4.662,0,0,0-1.964-2.308,5.284,5.284,0,0,0-3.063-1.122,1.672,1.672,0,0,0-1.416.748,1.761,1.761,0,0,0-.229,1.534,12.141,12.141,0,0,0,2.615,3.684,22.414,22.414,0,0,1,3.157,4.2,6.43,6.43,0,0,1,.749,3.357,7.217,7.217,0,0,1-4.336,5.92,6.562,6.562,0,0,1-4,.331,12.964,12.964,0,0,1-4.57-2.161q-3.566-2.48-4.331-5.457A8.734,8.734,0,0,1,99.969,395.174Z"/><path d="M129.343,396.386l4.027,2.273-6.1,10.8a25.5,25.5,0,0,0-1.732,3.418,3.7,3.7,0,0,0,.121,2.661,4.924,4.924,0,0,0,2.241,2.243,4.654,4.654,0,0,0,2.981.759,3.179,3.179,0,0,0,2.019-1.129,25.794,25.794,0,0,0,2.09-3.288l6.23-11.035,4.028,2.274-5.916,10.477a31.019,31.019,0,0,1-3.191,4.89,6.443,6.443,0,0,1-2.618,1.824,6.967,6.967,0,0,1-3.265.3,11.71,11.71,0,0,1-4.179-1.56,12.675,12.675,0,0,1-3.961-3.107,7.111,7.111,0,0,1-1.366-3.032,6.315,6.315,0,0,1,.12-2.848,27.806,27.806,0,0,1,2.462-5.285Z"/><path d="M155.724,425.656l1.39-3.6,9.3,3.59-3.287,8.513a12.55,12.55,0,0,1-4.82.794,15.337,15.337,0,0,1-5.6-1.014,12.535,12.535,0,0,1-5.3-3.664,9.581,9.581,0,0,1-2.193-5.468,13.939,13.939,0,0,1,.945-6.177,13.178,13.178,0,0,1,3.69-5.392,10.1,10.1,0,0,1,5.632-2.4,11.852,11.852,0,0,1,5.527.912,10.938,10.938,0,0,1,5.573,4.069,8.086,8.086,0,0,1,1.1,5.725l-4.595-.854a4.846,4.846,0,0,0-.739-3.14,5.5,5.5,0,0,0-2.76-2.113,6.266,6.266,0,0,0-5.189.057,8.1,8.1,0,0,0-3.723,4.676q-1.47,3.8-.513,6.359a6.057,6.057,0,0,0,3.7,3.614,7.981,7.981,0,0,0,2.924.517,10,10,0,0,0,2.838-.387l1.047-2.711Z"/><path d="M170.553,439.3l5.59-22.214,4.485,1.129-5.59,22.214Z"/><path d="M183.89,442.519l2.983-22.711,4.585.6-1.174,8.939,8.986,1.179,1.173-8.938,4.586.6L202.047,444.9l-4.586-.6,1.3-9.931-8.985-1.18-1.3,9.931Z"/><path d="M225.433,444.8l-3.548-22.63,6.839-1.072,6.525,14.793,1.641-16.074,6.853-1.074,3.548,22.63-4.245.665-2.793-17.813-1.7,18.518-4.4.69-7.269-17.113,2.793,17.814Z"/><path d="M249.374,417.218l4.384-1.476,3.956,11.759a25.615,25.615,0,0,0,1.385,3.573,3.7,3.7,0,0,0,2.059,1.689,4.93,4.93,0,0,0,3.167-.167,4.666,4.666,0,0,0,2.558-1.709,3.19,3.19,0,0,0,.51-2.258,25.987,25.987,0,0,0-1.049-3.752l-4.042-12.01,4.384-1.475,3.837,11.4a30.883,30.883,0,0,1,1.5,5.643,6.449,6.449,0,0,1-.393,3.166,6.983,6.983,0,0,1-1.959,2.629,11.728,11.728,0,0,1-3.954,2.065,12.712,12.712,0,0,1-4.959.869,7.1,7.1,0,0,1-3.167-1.012,6.284,6.284,0,0,1-2.039-1.992,27.863,27.863,0,0,1-2.284-5.365Z"/><path d="M283.1,429.2l-10.482-20.368,4.113-2.116,4.654,9.045,3.654-13.321,5.529-2.844-3.586,11.879,14.485,8.273-5.321,2.738-10.519-6.676-1.582,5.119,3.167,6.155Z"/><path d="M311.6,413.261l-10.279-16.018-5.72,3.671-2.092-3.261,15.319-9.831,2.093,3.261-5.707,3.663L315.5,410.763Z"/><path d="M326.927,402.837,313.17,384.521l3.7-2.777,13.758,18.315Z"/></svg>