<?xml version="1.0" encoding="UTF-8"?>
<!DOCTYPE svg PUBLIC "-//W3C//DTD SVG 1.1//EN" "http://www.w3.org/Graphics/SVG/1.1/DTD/svg11.dtd">
<!-- Creator: CorelDRAW X5 -->
<svg xmlns="http://www.w3.org/2000/svg" xml:space="preserve" width="157mm" height="215mm" style="shape-rendering:geometricPrecision; text-rendering:geometricPrecision; image-rendering:optimizeQuality; fill-rule:evenodd; clip-rule:evenodd"
viewBox="0 0 15700 21500"
 xmlns:xlink="http://www.w3.org/1999/xlink">
 <defs>
  <style type="text/css">
   <![CDATA[
    .str0 {stroke:#373435;stroke-width:17.64}
    .fil3 {fill:#006CB5}
    .fil8 {fill:#00804B}
    .fil9 {fill:#00A859}
    .fil0 {fill:#201E1E}
    .fil2 {fill:#91D8F7}
    .fil5 {fill:#A45E4D}
    .fil4 {fill:#FEFEFE}
    .fil1 {fill:#FFF212}
    .fil10 {fill:#00804B;fill-rule:nonzero}
    .fil6 {fill:#201E1E;fill-rule:nonzero}
    .fil7 {fill:#373435;fill-rule:nonzero}
   ]]>
  </style>
 </defs>
 <g id="Layer_x0020_1">
  <metadata id="CorelCorpID_0Corel-Layer"/>
  <g id="_190236208">
   <path class="fil0" d="M74 200l3880 0 8308 0 3419 0 0 12009c0,762 5,1490 -139,2244 -674,3506 -3495,5533 -7665,6905 -4170,-1372 -6991,-3399 -7665,-6905 -145,-753 -139,-1481 -139,-2244l0 -12009z"/>
   <path class="fil1" d="M199 326l0 11884c0,746 -5,1483 137,2220 174,904 502,1751 1005,2524 1446,2225 4098,3467 6537,4273 2439,-806 5091,-2048 6537,-4273 502,-773 831,-1619 1005,-2524 142,-737 137,-1473 137,-2220l0 -11884 -15358 0z"/>
   <path class="fil0" d="M575 701l0 11509c0,717 -6,1442 130,2149 164,855 475,1659 951,2390 1371,2109 3904,3304 6222,4082 2318,-778 4852,-1973 6222,-4082 475,-731 786,-1534 951,-2390 136,-707 130,-1432 130,-2149l0 -11509 -14606 0z"/>
   <path class="fil2" d="M663 789l0 11421c0,711 -6,1431 129,2132 162,843 470,1638 938,2359 1355,2085 3864,3268 6149,4037 2285,-769 4794,-1952 6149,-4037 469,-721 776,-1515 938,-2359 135,-701 129,-1421 129,-2132l0 -11421 -14431 0z"/>
   <polygon class="fil0" points="663,1030 663,4211 15094,4211 15094,1030 "/>
   <polygon class="fil3" points="663,789 663,3970 15094,3970 15094,789 "/>
   <path class="fil4" d="M2465 1311l952 0c159,0 280,46 365,136 85,91 128,203 128,337 0,113 -30,209 -91,290 -41,54 -100,96 -177,127 118,33 205,90 261,169 56,80 84,181 84,302 0,99 -20,187 -59,266 -40,79 -94,141 -163,187 -43,28 -107,49 -193,62 -115,17 -190,26 -228,26l-878 0 0 -1903zm513 747l221 0c79,0 134,-16 166,-47 31,-32 46,-78 46,-137 0,-55 -15,-99 -46,-130 -31,-31 -85,-47 -162,-47l-225 0 0 361zm0 748l259 0c88,0 149,-18 185,-54 36,-36 54,-84 54,-145 0,-56 -18,-101 -53,-136 -36,-34 -98,-51 -187,-51l-258 0 0 386zm2345 95l-579 0 -80 314 -520 0 618 -1903 554 0 619 1903 -532 0 -81 -314zm-107 -412l-182 -684 -181 684 363 0zm983 -1177l475 0 620 1053 0 -1053 479 0 0 1903 -479 0 -616 -1045 0 1045 -478 0 0 -1903zm2694 0l510 0 0 1035c0,217 -17,382 -50,496 -33,113 -100,210 -201,288 -101,78 -229,118 -387,118 -166,0 -295,-26 -386,-78 -92,-52 -162,-128 -211,-228 -38,-77 -65,-168 -79,-273l492 0c1,5 2,9 4,13 12,41 32,74 61,98 20,17 47,25 83,25 57,0 98,-24 125,-73 26,-49 40,-132 40,-247l0 -1174zm1899 1589l-579 0 -80 314 -520 0 618 -1903 554 0 619 1903 -532 0 -81 -314zm-107 -412l-182 -684 -181 684 363 0zm987 726l0 -1903 847 0c157,0 277,16 360,47 83,31 150,89 201,173 51,84 76,187 76,308 0,106 -20,197 -58,273 -39,77 -93,139 -161,187 -44,30 -103,55 -179,75 61,23 105,47 133,70 18,16 46,49 81,100 36,51 59,90 71,118l246 552 -575 0 -272 -582c-34,-75 -65,-124 -92,-147 -36,-29 -78,-44 -125,-44l-45 0 0 772 -511 0zm511 -1132l215 0c23,0 68,-8 134,-26 34,-8 61,-28 83,-60 21,-32 32,-69 32,-110 0,-62 -17,-109 -51,-141 -34,-33 -97,-50 -190,-50l-223 0 0 387z"/>
   <path class="fil5 str0" d="M2636 12686c350,-302 711,-495 1095,-341 230,92 387,290 619,387 221,92 441,101 662,28 318,-105 519,-412 857,-445 587,-57 1225,602 1869,897 644,-296 1282,-955 1869,-897 339,33 539,340 857,445 221,73 441,63 662,-28 233,-97 390,-295 619,-387 384,-154 745,39 1095,341 -463,939 -836,1722 -1300,2661 -1268,-147 -2535,-295 -3803,-442 -1268,147 -2535,295 -3803,442 -463,-939 -836,-1722 -1300,-2661z"/>
   <path class="fil4" d="M2636 12686c350,-302 711,-495 1095,-341 230,92 387,290 619,387 221,92 441,101 662,28 318,-105 519,-412 857,-445 587,-57 1225,602 1869,897 644,-296 1282,-955 1869,-897 339,33 539,340 857,445 221,73 441,63 662,-28 233,-97 390,-295 619,-387 384,-154 745,39 1095,341 -116,234 -225,459 -332,678 -246,-145 -498,-202 -762,-97 -230,92 -387,290 -619,387 -221,92 -441,101 -662,28 -318,-105 -519,-412 -857,-445 -257,-25 -524,87 -796,246 -350,204 -632,519 -994,8 -441,568 -802,196 -1152,-8 -273,-159 -539,-271 -796,-246 -339,33 -539,340 -857,445 -221,73 -441,63 -662,-28 -233,-97 -390,-295 -619,-387 -264,-106 -516,-48 -762,97 -107,-220 -217,-444 -332,-678z"/>
   <path class="fil6" d="M2607 12653c179,-154 361,-281 548,-350 192,-70 388,-81 592,1 121,48 221,123 321,199 94,71 189,142 299,188 106,44 211,68 316,73 105,4 210,-11 315,-45 132,-44 245,-125 357,-206 154,-111 306,-221 510,-241 397,-39 807,231 1226,507 214,141 431,284 647,386 216,-102 433,-244 647,-386 419,-276 829,-546 1226,-507 204,20 356,130 510,241 112,81 225,162 357,206 105,35 211,50 315,45 105,-4 210,-29 316,-73 111,-46 205,-117 299,-188 100,-75 200,-150 321,-199 203,-81 400,-71 592,-1 187,69 369,196 548,350l26 22 -15 31c-66,134 -122,248 -169,344 -30,61 -86,176 -163,334l-21 43 -41 -24c-118,-69 -238,-118 -359,-137 -119,-18 -241,-7 -365,43 -110,44 -205,116 -301,187 -99,74 -198,149 -318,199 -115,48 -230,74 -346,79 -116,5 -231,-12 -346,-50 -144,-48 -263,-133 -381,-218 -145,-104 -287,-207 -467,-225 -122,-12 -247,9 -374,52 -129,44 -262,110 -396,188 -53,31 -103,63 -152,95 -291,189 -549,356 -865,-53 -388,462 -715,251 -1027,49l0 0c-49,-32 -98,-64 -146,-91 -134,-78 -266,-145 -396,-188 -127,-43 -252,-64 -374,-52 -180,18 -322,120 -467,225 -118,85 -237,171 -381,218 -115,38 -231,55 -346,50 -116,-5 -231,-31 -346,-79 -120,-50 -220,-125 -318,-199 -95,-72 -190,-143 -301,-187 -124,-50 -245,-61 -365,-43 -121,18 -241,67 -359,137l-41 24 -21 -43c-77,-158 -133,-273 -163,-334 -47,-97 -103,-210 -169,-344l-15 -31 26 -22zm579 -267c-167,61 -332,174 -495,312 46,93 97,198 154,314 65,132 111,227 143,292 114,-63 230,-106 349,-124 134,-20 271,-8 411,48 121,48 221,123 321,199 94,71 189,142 299,188 106,44 211,68 316,73 105,4 210,-11 315,-45 132,-44 245,-125 357,-206 154,-111 306,-221 510,-241 135,-13 272,9 410,56 136,46 274,115 412,195 50,29 100,61 150,93l0 0c288,186 591,382 946,-75l36 -47 34 48c283,400 516,249 780,77 51,-33 103,-67 156,-98 138,-81 276,-150 412,-195 138,-47 275,-69 410,-56 203,20 356,130 510,241 112,81 225,162 357,206 105,35 211,50 315,45 105,-4 210,-29 316,-73 111,-46 205,-117 299,-188 100,-75 200,-150 321,-199 140,-56 277,-69 411,-48 118,18 234,62 349,124 31,-64 78,-159 143,-292 57,-116 109,-221 154,-314 -163,-138 -328,-250 -495,-312 -172,-63 -348,-73 -529,0 -110,44 -205,116 -301,187 -99,74 -198,149 -318,199 -115,48 -230,74 -346,79 -116,5 -231,-12 -346,-50 -144,-48 -263,-133 -381,-218 -145,-104 -287,-207 -467,-225 -367,-36 -764,226 -1170,493 -223,147 -449,296 -677,401l-18 8 -18 -8c-228,-105 -454,-254 -677,-401 -406,-267 -803,-529 -1170,-493 -180,18 -322,120 -467,225 -118,85 -237,171 -381,218 -115,38 -231,55 -346,50 -116,-5 -231,-31 -346,-79 -120,-50 -220,-125 -318,-199 -95,-72 -190,-143 -301,-187 -181,-72 -356,-63 -529,0z"/>
   <path class="fil4" d="M7712 13335c-193,-95 -524,-141 -703,-259 -275,-180 -773,-545 -1115,-512 -50,5 -96,20 -142,42 -94,45 -185,116 -270,177 -123,88 -246,166 -392,214 -281,93 -563,79 -836,-35 -198,-82 -324,-207 -496,-320 -38,-25 -78,-48 -120,-65 -244,-98 -488,26 -689,177 -37,63 -226,67 -264,135 -187,329 -204,719 91,407 30,-32 291,-304 310,-265 237,-86 487,-98 739,3 74,30 143,68 209,111 131,86 271,217 414,277 162,67 321,77 487,22 93,-31 179,-90 258,-146 112,-80 219,-161 344,-221 98,-47 201,-79 310,-89 338,-33 662,113 947,278 69,40 136,85 204,128 252,161 525,151 717,-60z"/>
   <path class="fil6" d="M7635 13349c-72,-29 -156,-53 -243,-78 -149,-43 -302,-88 -408,-157 -22,-15 -58,-38 -96,-64 -279,-187 -701,-470 -991,-441 -22,2 -43,7 -64,13 -21,6 -42,15 -63,25 -73,35 -146,88 -216,139l0 0c-19,14 -38,28 -48,34 -63,45 -126,87 -191,125 -67,38 -137,71 -212,96 -145,48 -290,68 -434,62 -146,-6 -291,-39 -433,-98 -138,-57 -241,-134 -348,-213 -49,-37 -99,-74 -156,-111l0 0c-17,-11 -36,-23 -56,-34 -19,-10 -38,-20 -57,-27 -111,-45 -223,-38 -331,-4 -109,35 -213,99 -309,171 -29,40 -88,58 -148,76l0 0c-49,15 -100,31 -111,50 -84,147 -132,305 -131,401 0,24 4,43 10,52 1,2 4,3 9,2 28,-5 71,-35 132,-100l0 0c19,-20 127,-133 211,-207 26,-23 51,-43 70,-55 23,-15 44,-23 63,-20 122,-42 247,-66 374,-65 125,0 252,24 379,75 39,15 76,33 112,52 36,19 71,40 105,63 46,30 93,66 140,102 87,66 177,134 266,171 76,32 152,50 227,53 75,4 151,-7 229,-33 43,-14 85,-35 125,-59 41,-25 82,-53 121,-81l0 0 40 -29 0 0c99,-71 197,-141 310,-196 51,-25 104,-45 158,-61 54,-16 110,-27 167,-32 176,-17 347,12 511,67 162,54 317,133 462,217 54,32 106,65 158,99l0 0c19,12 39,25 47,30l0 0c120,77 244,112 360,102 92,-8 180,-44 256,-111zm-218 -163c115,33 227,66 315,109l52 26 -39 43c-102,113 -226,173 -358,184 -135,11 -278,-29 -415,-116l0 0c-23,-15 -35,-23 -47,-30l0 0c-51,-33 -103,-67 -155,-97 -140,-82 -290,-158 -445,-210 -153,-51 -313,-78 -475,-63 -52,5 -102,15 -151,29 -49,14 -97,33 -144,56 -106,51 -201,119 -297,188l0 0 -40 29 0 0c-40,29 -82,58 -127,85 -46,27 -93,51 -143,68 -88,29 -175,41 -261,37 -86,-4 -171,-24 -257,-60 -99,-41 -194,-113 -285,-182 -46,-35 -91,-69 -135,-98 -32,-21 -65,-41 -98,-59 -33,-18 -68,-34 -103,-48 -116,-47 -232,-68 -346,-69 -122,0 -243,23 -361,66l-37 14 -1 -2c-14,10 -31,24 -50,41 -82,72 -187,182 -205,201l0 0c-75,80 -136,118 -181,126 -43,7 -75,-8 -97,-40 -16,-24 -25,-59 -25,-101 -1,-109 51,-285 142,-445 28,-50 96,-71 162,-91l0 0c47,-14 93,-29 103,-45l12 -13c104,-78 219,-149 341,-189 126,-41 258,-47 390,6 23,9 45,20 67,32 20,11 41,24 61,37l0 0c56,37 108,76 160,114 102,76 200,149 329,203 133,55 267,86 402,92 134,6 269,-13 403,-58 70,-23 134,-53 196,-88 63,-36 123,-76 184,-120 21,-15 35,-25 47,-34l0 0c72,-53 148,-108 229,-147 24,-12 49,-22 75,-30 26,-8 53,-14 81,-16 321,-31 759,262 1048,456 30,20 59,39 95,63 96,63 242,105 384,147z"/>
   <g>
    <polygon class="fil0" points="7878,5024 8217,6142 9416,6141 8456,6808 8828,7948 7897,7242 6928,7948 7312,6844 6340,6141 7509,6165 "/>
    <polygon class="fil1" points="7875,5317 7572,6254 6619,6234 7416,6811 7103,7713 7898,7133 8658,7709 8353,6774 9136,6229 8151,6230 "/>
   </g>
   <g>
    <path class="fil0" d="M8716 10459c427,-420 854,-839 1281,-1260 18,-18 34,-37 51,-54 550,-511 -89,-1040 -435,-385 -9,17 -18,35 -27,52 -290,549 -580,1098 -870,1646zm-841 -108c-92,-592 -184,-1183 -275,-1775 -4,-25 -5,-50 -9,-74 -136,-738 692,-782 579,-49 -3,19 -6,39 -9,58 -95,613 -190,1227 -285,1840zm-1646 572c-562,-207 -1124,-413 -1686,-620 -24,-9 -46,-20 -69,-28 -711,-239 -348,-984 237,-530 15,12 31,24 46,36 490,381 981,761 1471,1142zm811 -464c-427,-420 -854,-839 -1281,-1260 -18,-18 -34,-37 -51,-54 -550,-511 89,-1040 435,-385 9,17 18,35 27,52 290,549 580,1098 870,1646zm2487 464c562,-207 1124,-413 1686,-620 24,-9 46,-20 69,-28 711,-239 348,-984 -237,-530 -15,12 -31,24 -46,36 -490,381 -981,761 -1471,1142z"/>
    <path class="fil4" d="M8911 10197c350,-344 701,-689 1050,-1033 18,-18 34,-37 52,-55 97,-91 191,-217 198,-355 4,-84 -27,-169 -100,-216 -64,-41 -139,-40 -208,-12 -111,46 -193,156 -247,258 -9,17 -18,35 -27,52 -240,454 -479,907 -719,1361zm-1036 -173c79,-507 157,-1014 236,-1521 3,-19 6,-39 9,-58 18,-115 17,-252 -44,-355 -38,-64 -98,-110 -174,-115 -87,-6 -162,44 -209,114 -77,115 -77,272 -53,403 5,25 5,50 9,75 75,485 150,971 226,1456zm-1932 740c-405,-315 -811,-629 -1216,-944 -15,-12 -31,-24 -46,-36 -524,-407 -826,229 -191,443 24,8 46,20 70,28 461,170 922,339 1383,509zm902 -567c-240,-454 -479,-907 -719,-1361 -9,-17 -18,-35 -27,-52 -54,-102 -137,-212 -247,-258 -68,-28 -144,-29 -208,12 -73,47 -104,132 -100,216 7,138 101,264 198,355 19,17 34,37 52,55 350,345 700,689 1050,1033zm2968 567c461,-169 922,-339 1383,-509 24,-9 46,-20 70,-28 636,-214 333,-850 -191,-443 -15,12 -31,24 -46,36 -405,315 -811,629 -1216,944z"/>
   </g>
   <path class="fil4" d="M7712 13335c193,-95 524,-141 703,-259 275,-180 773,-545 1115,-512 50,5 96,20 142,42 94,45 185,116 270,177 123,88 246,166 392,214 281,93 563,79 836,-35 198,-82 324,-207 496,-320 38,-25 78,-48 120,-65 244,-98 488,26 689,177 37,63 226,67 264,135 187,329 204,719 -91,407 -30,-32 -291,-304 -310,-265 -237,-86 -487,-98 -739,3 -74,30 -143,68 -209,111 -131,86 -271,217 -414,277 -162,67 -321,77 -487,22 -93,-31 -179,-90 -258,-146 -112,-80 -219,-161 -344,-221 -98,-47 -201,-79 -310,-89 -338,-33 -662,113 -947,278 -69,40 -136,85 -204,128 -252,161 -525,151 -717,-60z"/>
   <path class="fil6" d="M7692 13295c87,-43 200,-76 315,-109 142,-41 288,-84 384,-147 36,-24 65,-43 95,-63 289,-194 727,-487 1048,-456 28,3 55,8 81,16 26,8 51,18 75,30 81,39 157,94 229,147l0 0c12,9 26,19 47,34 61,43 121,84 184,120 62,35 126,65 196,88 135,44 270,63 403,58 135,-6 270,-36 402,-92 129,-53 227,-127 329,-203 51,-38 104,-77 160,-114l0 0c21,-14 41,-26 61,-37 21,-12 43,-22 67,-32 133,-53 265,-46 390,-6 122,39 237,111 341,189l12 13c9,16 56,30 103,45l0 0c66,20 134,41 162,91 91,160 143,336 142,445 0,42 -9,77 -25,101 -22,32 -54,47 -97,40 -46,-8 -106,-46 -181,-126l0 0c-18,-19 -123,-129 -205,-201 -19,-16 -36,-30 -50,-41l-1 2 -37 -14c-118,-43 -239,-67 -361,-66 -114,0 -230,22 -346,69 -35,14 -69,30 -103,48 -33,18 -66,38 -98,59 -44,29 -89,63 -135,98 -92,69 -186,141 -285,182 -85,36 -171,56 -257,60 -86,4 -173,-8 -261,-37 -49,-16 -97,-40 -143,-68 -45,-27 -87,-56 -127,-85l0 0 -40 -29 0 0c-96,-69 -191,-137 -297,-188 -47,-23 -95,-41 -144,-56 -49,-14 -99,-24 -151,-29 -162,-16 -322,11 -475,63 -155,52 -305,128 -445,210 -52,30 -104,64 -155,97l0 0c-12,8 -24,16 -47,30l0 0c-136,87 -279,127 -415,116 -132,-11 -256,-71 -358,-184l-39 -43 52 -26zm339 -25c-86,25 -171,50 -243,78 76,67 164,103 256,111 116,10 240,-25 360,-102l0 0 47 -30 0 0c52,-34 104,-67 158,-99 145,-84 299,-163 462,-217 164,-55 336,-84 511,-67 57,6 113,17 167,32 54,16 106,36 158,61 114,55 211,125 310,196l0 0 40 29 0 0c39,28 79,56 121,81 40,24 82,45 125,59 78,26 154,37 229,33 75,-4 151,-22 227,-53 89,-37 179,-105 266,-171 47,-36 94,-71 140,-102 34,-22 69,-43 105,-63 36,-19 73,-37 112,-52 127,-51 254,-74 379,-75 127,0 252,23 374,65 18,-3 39,5 63,20 20,13 44,32 70,55 84,74 192,187 211,207l0 0c61,65 104,95 132,100 5,1 8,0 9,-2 7,-10 10,-28 10,-52 1,-96 -47,-254 -131,-401 -11,-20 -62,-35 -111,-50l0 0c-60,-18 -119,-36 -148,-76 -95,-71 -200,-135 -309,-171 -107,-35 -219,-41 -331,4 -19,8 -38,17 -57,27 -20,11 -38,22 -56,34l0 0c-56,37 -106,74 -156,111 -107,79 -209,156 -348,213 -142,59 -287,92 -433,98 -145,6 -290,-14 -434,-62 -75,-25 -145,-58 -212,-96 -66,-37 -129,-80 -191,-125 -10,-7 -28,-20 -48,-34l0 0c-70,-51 -143,-104 -216,-139 -21,-10 -42,-18 -63,-25 -21,-6 -42,-11 -64,-13 -290,-28 -712,255 -991,441 -38,25 -73,49 -96,64 -106,70 -259,114 -408,157z"/>
   <g>
    <polygon class="fil0" points="7878,10712 6783,10712 6161,11352 7878,13932 9595,11352 8974,10712 "/>
    <polygon class="fil4" points="7857,13757 7857,11855 7330,11361 6777,11842 "/>
    <polygon class="fil4" points="7917,13757 7917,11855 8444,11361 8997,11842 "/>
    <polygon class="fil4" points="7473,11414 8283,11414 7890,11807 "/>
    <polygon class="fil4" points="7396,11332 8360,11332 7878,10812 "/>
    <g>
     <g>
      <polygon class="fil4" points="6281,11332 7245,11332 6785,10836 "/>
      <polygon class="fil4" points="6855,10788 7774,10788 7301,11318 "/>
      <polygon class="fil4" points="6332,11414 7207,11396 6749,11807 "/>
     </g>
     <g>
      <polygon class="fil4" points="9475,11332 8511,11332 8971,10836 "/>
      <polygon class="fil4" points="8901,10788 7982,10788 8455,11318 "/>
      <polygon class="fil4" points="9424,11414 8549,11396 9007,11807 "/>
     </g>
    </g>
   </g>
   <g>
    <g>
     <path class="fil4" d="M4221 14422c-183,-160 -261,-305 -507,-285 -208,17 -206,7 -312,186 -142,241 -116,288 -65,566l527 0 357 -466z"/>
     <path class="fil7" d="M4191 14425c-33,-29 -62,-58 -90,-85 -115,-112 -202,-196 -386,-182l0 0 -32 2c-165,13 -168,13 -263,173 -126,213 -115,270 -75,483 3,15 6,31 9,49l498 0 338 -441zm-59 -116c32,31 65,64 103,97l16 14 -13 16 -357 466 -7 9 -11 0 -527 0 -18 0 -3 -18c-4,-22 -8,-45 -13,-67 -43,-227 -54,-287 80,-514 106,-179 110,-180 298,-194l32 -2 0 0c204,-16 296,74 420,194z"/>
     <path class="fil8" d="M4290 14432c-31,-87 -140,-142 -283,-263 -25,145 -89,280 -76,434 -97,-94 -209,-161 -337,-200 -29,130 -30,255 1,372 -121,-42 -244,-12 -365,-18 36,146 43,222 86,281 57,77 178,133 292,179 205,83 254,28 460,-56 106,-120 161,-191 187,-282 35,-121 78,-324 35,-446z"/>
     <path class="fil7" d="M4270 14439c-20,-55 -77,-98 -157,-159 -28,-21 -58,-44 -91,-71 -8,36 -17,72 -27,108 -25,93 -50,185 -41,284l-37 18c-47,-46 -98,-85 -153,-117 -48,-29 -99,-52 -153,-70 -11,55 -17,109 -17,162 0,60 7,119 22,176l11 40 -39 -14c-76,-26 -156,-23 -235,-19 -32,2 -63,3 -95,3 6,24 11,46 15,67l0 0c19,85 31,138 61,178 26,36 69,67 118,95 51,29 109,54 165,76 164,66 223,40 355,-18 26,-11 54,-24 84,-36 51,-57 89,-103 118,-146 29,-42 48,-81 61,-124 20,-69 43,-165 50,-257l0 0c5,-65 2,-127 -15,-175l0 0zm-130 -194c86,65 148,112 172,179l0 0c19,54 23,123 17,193l0 0c-7,95 -31,195 -52,266 -14,48 -35,91 -67,137 -31,45 -72,93 -125,154l-8 6c-34,14 -62,26 -88,38 -144,63 -208,91 -389,19 -58,-23 -117,-49 -170,-79 -54,-31 -101,-66 -132,-107l0 0c-35,-48 -48,-104 -68,-195l0 0c-6,-28 -13,-59 -22,-94l-7 -29 29 1c40,2 80,0 120,-2 71,-3 142,-7 214,10 -10,-49 -15,-99 -15,-149 0,-64 8,-129 23,-196l5 -23 23 7c66,20 128,48 185,82 43,25 84,55 122,88 2,-86 23,-165 44,-245 13,-47 25,-93 33,-141l7 -38 29 25c43,36 83,66 118,93z"/>
     <path class="fil4" d="M3610 13629c-197,-172 -280,-327 -544,-306 -223,18 -221,7 -335,199 -153,258 -124,309 -70,607l565 0 383 -500z"/>
     <path class="fil7" d="M3580 13632c-36,-32 -67,-63 -97,-92 -124,-121 -217,-211 -415,-195l0 0 -34 3c-178,14 -182,14 -283,186 -135,229 -124,290 -80,520 3,16 6,34 10,54l536 0 364 -475zm-66 -123c34,33 70,68 111,104l16 14 -13 16 -383 500 -7 9 -11 0 -565 0 -18 0 -3 -18c-4,-23 -9,-48 -13,-72 -46,-243 -58,-307 86,-550 113,-192 118,-192 318,-207l34 -3 0 0c218,-17 317,79 449,208z"/>
     <path class="fil8" d="M3684 13639c-33,-94 -150,-152 -304,-282 -27,155 -95,301 -81,465 -104,-101 -225,-172 -362,-215 -31,140 -33,273 1,399 -130,-45 -261,-13 -392,-19 38,157 47,239 92,301 61,83 191,142 313,192 220,89 272,30 494,-60 114,-129 173,-205 201,-302 38,-130 84,-348 37,-478z"/>
     <path class="fil7" d="M3663 13647c-21,-59 -83,-106 -169,-171 -30,-23 -64,-48 -100,-77 -8,40 -19,79 -29,118 -27,99 -53,199 -44,305l-37 18c-51,-49 -105,-91 -164,-126 -52,-31 -107,-56 -166,-76 -12,60 -18,119 -18,176 0,65 8,128 24,189l11 40 -39 -14c-82,-29 -168,-24 -253,-20 -35,2 -69,3 -104,3 6,27 12,51 17,73l0 0c20,91 33,148 65,192l0 0c28,38 74,72 127,102 54,31 117,58 177,82 176,71 240,43 382,-19 28,-12 58,-26 91,-39 55,-62 96,-111 127,-157 31,-45 52,-87 65,-133 22,-74 46,-177 54,-276 5,-70 3,-137 -16,-189l0 0zm-142 -206c92,70 158,120 184,192l0 0c21,58 24,131 18,207 -8,102 -33,209 -55,285 -15,51 -38,97 -71,146 -33,48 -77,100 -134,165l-8 6c-37,15 -67,28 -94,40 -154,67 -223,98 -416,20 -62,-25 -126,-53 -182,-85 -58,-33 -108,-70 -141,-114l0 0c-38,-51 -51,-111 -73,-208l0 0c-7,-30 -14,-64 -23,-101l-7 -29 29 1c43,2 86,0 129,-2 77,-4 154,-8 232,12 -11,-53 -16,-107 -16,-162 0,-68 8,-138 24,-209l5 -23 23 7c70,22 137,51 198,88 47,28 91,60 133,96 1,-93 24,-180 48,-266 13,-50 27,-100 36,-151l7 -38 29 25c46,39 89,71 127,100z"/>
     <path class="fil4" d="M2186 12996c31,-252 -12,-418 199,-575 178,-133 170,-139 384,-75 288,86 301,141 462,392l-421 369 -623 -110z"/>
     <path class="fil7" d="M2164 12994c6,-53 10,-101 13,-147 12,-179 20,-313 195,-443l0 0 28 -21 0 0c159,-119 163,-122 376,-58 271,81 306,136 436,340 13,21 27,42 38,60l10 16 -14 13 -421 369 -8 7 -10 -2 -623 -110 -21 -4 3 -21zm57 -144c-3,41 -5,83 -10,129l593 105 399 -350c-11,-17 -20,-31 -28,-45 -123,-194 -156,-245 -411,-322 -192,-58 -196,-55 -337,51l0 0 -28 21 0 0c-158,118 -166,243 -177,411z"/>
     <path class="fil8" d="M2137 13052c-38,-89 9,-207 36,-401 125,94 274,155 375,282 9,-140 51,-271 125,-391 117,80 209,175 269,288 66,-117 186,-180 279,-270 77,138 127,202 134,277 10,99 -46,227 -104,342 -104,207 -182,199 -409,279 -172,-18 -267,-35 -354,-87 -116,-69 -298,-195 -351,-320z"/>
     <path class="fil7" d="M2117 13061c-30,-69 -14,-148 8,-259 9,-46 19,-97 27,-154l5 -37 30 22c41,30 85,58 129,85 76,47 152,95 216,161 7,-54 18,-106 34,-157 21,-67 51,-131 89,-193l12 -20 19 13c60,41 113,86 160,135 38,40 70,83 98,128 45,-65 105,-112 165,-160 34,-27 67,-53 97,-83l21 -20 14 25c20,35 36,63 51,88 49,84 80,136 87,198 6,53 -7,113 -28,175 -20,60 -50,122 -79,180 -92,182 -163,206 -324,257 -29,9 -61,20 -98,33l-9 1c-87,-9 -155,-18 -212,-31 -58,-13 -106,-31 -152,-58 -68,-40 -159,-101 -234,-169 -55,-50 -103,-106 -126,-161zm51 -250c-20,103 -35,177 -10,233 21,49 64,99 115,146 72,66 160,124 227,164 42,25 85,41 139,53 54,12 119,21 201,30 34,-12 65,-22 94,-31 148,-48 214,-69 298,-235 28,-57 57,-117 76,-174 19,-56 30,-110 26,-156 -5,-52 -34,-101 -81,-180 -12,-20 -24,-42 -37,-64 -26,23 -53,45 -80,66 -66,53 -133,105 -175,179l-20 35 -19 -35c-29,-54 -66,-105 -110,-151 -39,-41 -83,-80 -133,-115 -30,52 -54,107 -72,163 -20,63 -33,129 -37,198l-39 12c-65,-82 -152,-136 -239,-190 -34,-21 -69,-43 -102,-66 -7,45 -15,84 -22,121z"/>
     <path class="fil4" d="M2004 11957c64,-248 43,-418 277,-550 199,-111 191,-119 400,-29 281,120 287,177 418,446l-476 317 -619 -185z"/>
     <path class="fil7" d="M1983 11951c13,-50 23,-99 32,-145 35,-177 62,-310 256,-418l0 0 31 -17c177,-100 181,-102 389,-13 265,113 293,172 398,392 8,17 17,36 31,65l8 17 -16 11 -476 317 -9 6 -10 -3 -619 -185 -20 -6 5 -21zm75 -137c-8,40 -16,81 -27,127l588 176 452 -301 -23 -48c-99,-208 -126,-263 -375,-370 -188,-81 -192,-79 -350,11l-31 17 0 0c-176,99 -201,223 -234,388z"/>
     <path class="fil8" d="M1948 12007c-27,-94 36,-206 89,-395 115,109 258,187 344,326 28,-139 87,-264 178,-375 109,94 189,200 235,319 83,-109 212,-157 319,-235 60,147 102,217 100,292 -3,100 -77,221 -151,329 -133,194 -211,177 -451,229 -172,-39 -266,-67 -348,-129 -108,-82 -276,-230 -315,-361z"/>
     <path class="fil7" d="M1926 12013c-21,-72 5,-149 42,-257 15,-44 32,-94 48,-151l10 -35 27 25c37,35 78,68 120,101 71,57 143,113 199,188 14,-53 32,-104 56,-153 30,-64 69,-124 115,-181l14 -18 17 15c55,48 104,99 144,154 33,44 61,91 83,140 54,-60 122,-100 190,-140 38,-22 75,-45 110,-71l23 -17 11 26c14,35 28,66 40,93 39,90 63,146 62,208 -1,54 -22,112 -51,171 -29,58 -66,115 -104,170 -117,170 -193,185 -362,217 -31,6 -64,12 -103,21l-9 0c-87,-20 -154,-36 -211,-56 -57,-20 -103,-44 -146,-76 -64,-49 -148,-120 -215,-196 -50,-57 -90,-118 -107,-176zm83 -243c-34,100 -58,172 -41,231 15,51 52,106 98,159 65,75 147,143 209,190 39,30 81,51 134,70 53,19 118,35 201,54 36,-8 70,-14 100,-20 157,-30 227,-43 333,-199 37,-53 73,-110 101,-165 27,-54 45,-106 46,-152 1,-52 -22,-105 -58,-189 -9,-21 -19,-43 -30,-69 -29,20 -60,38 -90,57 -74,44 -148,89 -201,158l-24 31 -14 -37c-22,-58 -53,-112 -91,-164 -34,-46 -75,-90 -120,-131 -38,49 -69,100 -95,154 -29,61 -50,125 -64,193l-40 7c-55,-89 -136,-154 -218,-218 -32,-26 -65,-51 -96,-79 -13,44 -26,83 -39,119z"/>
     <path class="fil4" d="M2011 10861c112,-230 124,-402 380,-484 217,-70 210,-79 398,51 252,173 247,230 322,519l-529 217 -570 -303z"/>
     <path class="fil7" d="M1991 10852c23,-48 42,-93 60,-136 69,-167 121,-291 333,-360l33 -11 0 0c193,-63 197,-64 384,64 237,163 253,226 313,462 6,25 13,52 18,70l5 19 -18 7 -529 217 -10 4 -9 -5 -570 -303 -19 -10 9 -19zm101 -119c-16,37 -32,77 -52,119l542 288 502 -206c-6,-22 -9,-37 -13,-51 -56,-223 -71,-283 -295,-437 -169,-116 -172,-115 -345,-59l0 0 -33 11c-192,62 -241,179 -306,335z"/>
     <path class="fil8" d="M1946 10899c-8,-97 76,-194 166,-370 91,129 216,234 273,387 55,-131 137,-241 248,-332 88,114 146,233 168,359 102,-90 239,-112 359,-168 30,156 57,232 41,306 -22,98 -119,202 -212,293 -168,164 -242,132 -488,136 -161,-72 -248,-118 -316,-195 -90,-102 -226,-280 -237,-416z"/>
     <path class="fil7" d="M1924 10901c-6,-75 35,-145 91,-244 24,-41 50,-87 77,-138l17 -33 21 30c30,42 64,82 97,122 59,70 118,139 158,223 24,-49 52,-96 85,-139 42,-57 92,-108 149,-155l18 -14 14 18c45,58 82,118 111,179 24,50 42,101 54,154 65,-48 139,-74 213,-100 42,-15 83,-30 121,-47l26 -12 5 28c7,36 14,70 21,99 21,96 34,155 20,216 -12,52 -43,106 -84,157 -40,51 -88,100 -135,146 -148,144 -225,143 -397,142 -31,0 -66,-1 -106,0l-9 -2c-81,-36 -144,-66 -195,-97 -52,-31 -93,-63 -128,-104l0 0c-53,-60 -121,-146 -172,-235 -37,-66 -65,-133 -70,-193zm130 -222c-53,91 -91,157 -86,218 5,53 30,115 65,175 49,86 115,169 167,228l0 0c32,37 69,66 118,95 48,29 108,58 186,92 38,-1 71,0 102,0 160,1 231,2 366,-129 46,-45 93,-93 131,-142 37,-47 65,-95 75,-140 12,-51 0,-107 -20,-197 -5,-22 -10,-46 -15,-73 -33,14 -66,26 -100,38 -81,29 -163,58 -228,115l-30 26 -7 -39c-11,-61 -30,-121 -57,-179 -25,-52 -55,-103 -92,-153 -47,40 -88,85 -124,133 -40,54 -74,113 -100,176l-41 -1c-36,-99 -103,-178 -170,-257 -27,-32 -54,-63 -79,-96 -22,41 -42,76 -61,109z"/>
     <path class="fil4" d="M3280 10214c45,-252 133,-401 -19,-614 -129,-180 -119,-184 -339,-184 -296,-1 -324,49 -548,244l288 479 618 75z"/>
     <path class="fil7" d="M3262 10189c9,-46 19,-88 28,-128 39,-165 68,-289 -47,-449l-20 -28c-102,-144 -104,-147 -302,-147 -262,-1 -308,40 -480,191 -13,11 -26,23 -40,35l273 454 587 71zm71 -118c-11,45 -22,93 -31,146l-4 21 -21 -3 -618 -75 -11 -1 -6 -9 -288 -479 -10 -16 14 -12c20,-18 38,-33 54,-47 182,-160 230,-203 509,-202 220,0 222,4 337,166l20 28c126,176 95,308 54,484z"/>
     <path class="fil8" d="M3309 10282c62,-75 52,-203 83,-398 -145,54 -303,70 -434,163 32,-138 31,-276 -3,-414 -134,44 -247,109 -336,200 -28,-132 -122,-228 -184,-342 -113,111 -178,158 -207,228 -39,93 -23,233 -2,361 37,230 113,246 303,388 167,33 261,44 358,19 129,-33 337,-102 423,-207z"/>
     <path class="fil7" d="M3292 10268c39,-47 47,-123 58,-228 4,-37 8,-78 14,-123 -38,13 -76,23 -115,34 -98,27 -195,54 -280,114l-34 -23c16,-68 23,-135 23,-202l0 0c0,-59 -7,-119 -20,-178 -57,20 -109,44 -158,72 -55,32 -104,70 -147,114l-29 29 -9 -40c-18,-84 -65,-154 -112,-224 -19,-28 -38,-57 -55,-86 -20,19 -37,35 -53,51 -67,63 -108,102 -128,151 -18,43 -23,99 -22,158 2,61 11,128 21,191l0 0c30,184 86,225 211,314 24,17 49,35 79,57 80,16 143,26 198,30 54,4 100,1 146,-11 74,-19 174,-50 261,-92 62,-30 117,-66 151,-107zm102 -224c-12,113 -20,194 -68,252 -38,47 -99,86 -166,119 -91,44 -193,76 -269,95 -51,13 -101,16 -160,12 -58,-4 -124,-15 -208,-31l-9 -4c-29,-22 -57,-42 -82,-60 -135,-97 -196,-140 -229,-343l0 0c-10,-65 -20,-133 -22,-197 -2,-66 4,-127 25,-176 24,-57 68,-99 139,-166 22,-21 47,-44 73,-70l21 -21 14 26c20,37 44,73 67,108 43,63 85,127 109,202 39,-36 82,-67 129,-95 58,-34 121,-62 189,-84l23 -7 6 23c17,70 26,141 27,212 0,54 -4,107 -13,161 79,-45 164,-69 249,-92 49,-14 98,-27 146,-45l35 -13 -6 37c-9,58 -15,110 -19,157z"/>
     <path class="fil4" d="M3772 9208c45,-272 133,-432 -19,-662 -129,-195 -119,-199 -339,-199 -296,-1 -324,53 -548,263l288 517 618 81z"/>
     <path class="fil7" d="M3754 9184c9,-50 19,-96 28,-139 39,-179 68,-313 -47,-487l-20 -30 0 0c-102,-155 -105,-159 -301,-159 -261,-1 -307,43 -479,206 -13,13 -27,26 -41,39l275 492 586 77zm71 -129c-11,49 -22,102 -31,158l-3 21 -21 -3 -618 -81 -11 -1 -5 -10 -288 -517 -8 -15 12 -12c20,-18 37,-35 54,-51 182,-173 230,-219 509,-218 220,1 223,4 338,179l0 0 20 30c125,189 95,331 54,520z"/>
     <path class="fil8" d="M3801 9282c62,-81 52,-219 83,-430 -145,59 -303,75 -434,176 32,-149 31,-298 -3,-447 -134,47 -247,117 -336,216 -28,-143 -122,-246 -184,-369 -113,120 -178,171 -207,247 -39,100 -23,252 -2,390 37,249 113,265 303,419 167,35 261,48 358,21 129,-35 337,-110 423,-223z"/>
     <path class="fil7" d="M3784 9269c40,-52 48,-134 59,-248 4,-41 8,-86 15,-135 -38,14 -76,25 -115,37 -97,29 -195,58 -280,123l-35 -22c16,-73 23,-146 23,-219 0,-65 -7,-129 -21,-194 -56,21 -109,47 -157,78 -55,35 -104,76 -147,123l-29 32 -9 -43c-18,-91 -65,-167 -112,-243 -19,-31 -38,-61 -55,-93 -19,19 -36,37 -52,54 -67,68 -108,110 -129,163 -18,47 -23,107 -22,172 2,66 11,138 21,206 30,200 86,243 212,340 24,18 50,38 79,62 80,17 143,28 197,32 54,4 100,1 146,-12 73,-20 173,-53 260,-99 62,-33 117,-71 151,-116zm103 -243c-12,121 -20,209 -67,270 -39,50 -99,93 -166,128 -90,48 -193,82 -269,103 -51,14 -101,18 -160,13 -58,-4 -124,-16 -208,-34l-9 -4c-30,-24 -57,-45 -82,-65 -135,-104 -196,-151 -229,-368 -10,-70 -20,-143 -22,-212 -2,-70 4,-136 25,-189 24,-62 68,-106 138,-178 21,-22 45,-46 73,-75l22 -23 14 28c20,40 44,79 68,117 42,68 85,137 108,218 39,-38 82,-72 128,-102 58,-37 121,-67 189,-91l23 -8 6 24c17,76 26,152 27,228 0,58 -4,117 -14,175 79,-49 164,-74 249,-100 49,-15 98,-29 146,-49l36 -14 -6 38c-9,64 -15,120 -20,170z"/>
     <path class="fil4" d="M4364 8309c45,-272 133,-432 -19,-662 -129,-195 -119,-199 -339,-199 -296,-1 -324,53 -548,263l288 517 618 81z"/>
     <path class="fil7" d="M4346 8285c9,-50 19,-96 28,-139 39,-179 68,-313 -47,-487l-20 -30 0 0c-102,-155 -105,-159 -301,-159 -261,-1 -307,43 -479,206 -13,13 -27,26 -41,39l275 492 586 77zm71 -129c-11,49 -22,102 -31,158l-3 21 -21 -3 -618 -81 -11 -1 -5 -10 -288 -517 -8 -15 13 -12c20,-18 37,-35 54,-51 182,-173 230,-219 509,-218 220,1 223,4 338,179l0 0 20 30c125,189 95,331 54,520z"/>
     <path class="fil8" d="M4394 8383c62,-81 52,-219 83,-430 -145,59 -303,75 -434,176 32,-149 31,-298 -3,-447 -134,47 -247,117 -336,216 -28,-143 -123,-246 -184,-369 -113,120 -178,171 -207,247 -39,100 -23,252 -2,390 37,249 113,265 303,419 167,35 261,48 358,21 129,-35 337,-110 423,-223z"/>
     <path class="fil7" d="M4376 8369c40,-52 48,-134 59,-248 4,-41 8,-86 15,-135 -38,14 -76,25 -115,37 -97,29 -195,58 -280,123l-35 -22c16,-73 23,-146 23,-219 0,-65 -7,-129 -21,-194 -56,21 -109,47 -157,78 -55,35 -104,76 -147,123l-29 32 -9 -43c-18,-91 -65,-167 -112,-243 -19,-31 -38,-61 -55,-93 -19,19 -36,37 -52,54 -67,68 -108,110 -129,163 -18,47 -23,107 -22,172 2,66 11,138 21,206 30,200 86,243 212,340 24,18 50,38 79,62 80,17 143,28 197,32 54,4 100,1 146,-12 73,-20 173,-53 260,-99 62,-33 117,-71 151,-116zm103 -243c-12,121 -20,209 -67,270 -39,50 -99,93 -166,128 -90,48 -193,82 -269,103 -51,14 -101,18 -160,13 -58,-4 -124,-16 -208,-34l-9 -4c-30,-24 -57,-45 -82,-65 -135,-104 -196,-151 -229,-368 -10,-70 -20,-143 -22,-212 -2,-70 4,-136 25,-189 24,-62 68,-106 138,-178 21,-22 45,-46 73,-75l22 -23 14 28c20,40 44,78 68,117 42,68 85,137 108,218 39,-38 82,-72 128,-101 58,-37 121,-67 189,-91l23 -8 6 24c17,76 26,152 27,228 0,58 -4,117 -14,175 79,-49 164,-74 249,-100 49,-15 98,-29 146,-49l36 -14 -6 38c-9,64 -15,120 -20,170z"/>
     <path class="fil4" d="M4470 6767c266,-8 432,-77 626,110 165,158 170,148 135,373 -46,302 -102,323 -337,523l-446 -365 21 -641z"/>
     <path class="fil7" d="M4470 6745c54,-2 106,-6 155,-10 187,-16 327,-28 488,126l25 24c148,141 151,144 117,368 -44,284 -95,327 -288,489 -18,15 -38,32 -57,48l-14 12 -14 -12 -446 -365 -8 -7 0 -11 21 -641 1 -21 21 -1zm158 34c-42,4 -87,7 -136,10l-20 610 423 346c16,-13 30,-25 43,-36 183,-153 231,-194 272,-461 31,-202 28,-204 -103,-330l0 0 -25 -24c-146,-140 -278,-129 -453,-114z"/>
     <path class="fil8" d="M4405 6726c87,-52 216,-23 421,-26 -79,140 -119,298 -236,419 147,-12 288,9 424,64 -66,130 -151,236 -258,314 131,48 214,159 321,238 -131,99 -191,158 -267,177 -101,26 -243,-11 -371,-51 -230,-72 -234,-152 -350,-366 -7,-175 -4,-273 37,-368 54,-126 158,-328 279,-401z"/>
     <path class="fil7" d="M4394 6708c66,-40 151,-37 268,-32 49,2 103,4 164,3l38 0 -19 33c-25,45 -47,94 -69,142 -38,84 -76,167 -135,241 57,-2 113,2 168,10 72,11 143,31 213,59l22 9 -11 21c-34,66 -72,127 -116,180 -36,44 -75,83 -118,118 74,35 132,88 191,141 32,29 65,59 100,85l24 18 -24 18c-31,24 -59,45 -83,64 -80,62 -129,101 -192,117l0 0c-54,14 -118,11 -184,-1 -65,-11 -133,-31 -198,-51 -202,-63 -237,-132 -315,-284 -14,-28 -30,-60 -48,-93l-3 -10c-3,-89 -4,-158 1,-217 5,-61 17,-111 38,-161 32,-74 81,-175 140,-260 44,-63 94,-119 148,-151zm267 12c-110,-4 -189,-7 -244,26 -48,29 -93,80 -134,139 -58,83 -105,180 -136,252 -19,45 -30,92 -35,147 -5,56 -4,122 -1,206 18,34 33,63 46,89 72,141 104,204 289,262 63,20 130,39 192,50 61,11 119,13 166,1l0 0c54,-14 100,-50 175,-109 18,-14 39,-30 61,-47 -28,-22 -54,-46 -80,-70 -64,-58 -129,-117 -212,-147l-39 -14 34 -24c52,-38 99,-82 141,-133 37,-45 70,-96 100,-151 -59,-22 -119,-38 -180,-47 -69,-10 -139,-13 -211,-7l-18 -37c75,-78 119,-173 162,-269 17,-38 34,-75 54,-113 -47,0 -90,-2 -129,-3z"/>
    </g>
    <g>
     <g>
      <path class="fil0" d="M11619 14936c243,-266 615,-552 962,-705 -202,377 -527,713 -841,1012 -55,-144 -67,-162 -122,-306z"/>
      <path class="fil1" d="M12455 14348c-282,150 -568,375 -778,599 27,69 56,138 83,207 252,-242 507,-509 695,-806z"/>
      <path class="fil0" d="M11359 15300c89,-62 178,-123 266,-185 237,-165 248,-376 282,-637 28,-212 157,-342 277,-516 -164,122 -327,243 -491,365 -340,253 -278,558 -336,972z"/>
      <path class="fil1" d="M11421 15196c58,-41 117,-81 175,-122 222,-154 229,-356 261,-602 15,-110 54,-198 105,-281 -79,59 -159,118 -238,177 -105,78 -181,169 -226,293 -33,92 -46,192 -56,290 -8,82 -13,163 -22,245z"/>
      <path class="fil0" d="M11359 15300c85,-67 162,-145 255,-200 226,-135 408,-207 667,-163 211,35 262,-79 464,-143 -164,120 -360,561 -554,623 -231,74 -419,-50 -832,-117z"/>
      <path class="fil1" d="M12546 14943c-74,38 -150,64 -274,43 -250,-42 -422,30 -633,157 -60,36 -113,81 -167,127 104,21 205,47 309,74 89,23 188,49 281,45 39,-2 76,-8 113,-20 118,-38 246,-253 371,-426z"/>
     </g>
     <g>
      <path class="fil0" d="M12108 14494c202,-298 529,-635 851,-837 -146,402 -418,782 -686,1122 -75,-135 -90,-151 -164,-286z"/>
      <path class="fil1" d="M12850 13791c-257,190 -508,453 -683,705 37,65 75,129 112,193 214,-276 428,-577 571,-898z"/>
      <path class="fil0" d="M11902 14891c79,-74 158,-148 237,-221 211,-197 191,-407 188,-671 -3,-214 106,-361 200,-550 -144,144 -289,288 -433,432 -300,300 -194,593 -192,1010z"/>
      <path class="fil1" d="M11949 14779c52,-49 104,-97 156,-145 197,-184 175,-385 172,-633 -1,-111 25,-204 63,-293 -70,70 -140,140 -210,210 -93,92 -155,193 -181,322 -20,96 -18,197 -13,295 4,82 10,164 14,246z"/>
      <path class="fil0" d="M11902 14891c75,-78 140,-167 224,-235 205,-166 374,-263 637,-257 214,5 248,-116 439,-209 -145,143 -276,607 -459,696 -218,107 -422,11 -840,4z"/>
      <path class="fil1" d="M13026 14367c-68,48 -139,85 -265,82 -253,-6 -413,91 -604,246 -54,44 -100,97 -147,150 106,6 209,17 316,29 92,10 193,21 284,4 38,-7 74,-19 109,-36 112,-55 207,-286 306,-475z"/>
     </g>
     <g>
      <path class="fil0" d="M12533 13887c129,-337 370,-739 637,-1009 -50,425 -229,857 -412,1249 -104,-114 -122,-127 -225,-241z"/>
      <path class="fil1" d="M13096 13033c-207,243 -391,557 -504,842 51,55 102,108 153,163 146,-317 285,-659 351,-1005z"/>
      <path class="fil0" d="M12424 14321c60,-90 120,-180 180,-270 160,-240 93,-440 30,-696 -51,-207 21,-375 69,-581 -108,173 -215,346 -323,519 -224,360 -54,621 44,1027z"/>
      <path class="fil1" d="M12444 14201c39,-59 79,-118 118,-177 150,-224 82,-415 23,-656 -27,-107 -23,-204 -6,-300 -52,84 -104,168 -157,252 -69,111 -106,224 -103,355 3,98 27,196 54,290 23,79 47,157 70,236z"/>
      <path class="fil0" d="M12424 14321c55,-93 98,-194 164,-280 161,-209 304,-341 561,-396 209,-44 215,-169 379,-303 -109,172 -130,654 -288,783 -188,154 -409,107 -817,196z"/>
      <path class="fil1" d="M13399 13554c-55,63 -116,115 -239,141 -248,52 -381,183 -532,377 -42,55 -76,117 -108,179 104,-18 208,-31 314,-44 92,-11 193,-23 278,-61 35,-16 68,-36 98,-60 96,-79 137,-326 190,-532z"/>
     </g>
     <g>
      <path class="fil0" d="M12815 13314c70,-335 240,-748 459,-1041 22,405 -82,837 -196,1233 -121,-91 -141,-100 -263,-191z"/>
      <path class="fil1" d="M13226 12429c-163,259 -292,581 -356,865 59,44 119,86 178,129 90,-319 171,-661 177,-994z"/>
      <path class="fil0" d="M12780 13737c44,-93 88,-187 132,-280 118,-249 18,-426 -88,-656 -86,-186 -43,-355 -29,-555 -77,178 -154,357 -231,535 -160,371 51,590 216,956z"/>
      <path class="fil1" d="M12780 13621c29,-61 58,-123 87,-184 110,-233 11,-401 -88,-618 -44,-97 -57,-188 -56,-280 -37,87 -75,173 -112,260 -49,114 -67,225 -42,348 19,92 60,179 102,263 36,71 73,140 108,210z"/>
      <path class="fil0" d="M12780 13737c38,-96 64,-197 115,-287 124,-220 242,-366 487,-456 199,-73 184,-191 323,-341 -78,178 -18,632 -152,777 -159,173 -385,162 -772,307z"/>
      <path class="fil1" d="M13612 12871c-44,67 -95,125 -212,168 -236,87 -345,229 -461,434 -33,58 -55,121 -77,184 100,-33 200,-60 303,-89 89,-24 186,-51 264,-99 32,-20 61,-44 86,-71 81,-88 80,-326 97,-527z"/>
     </g>
     <g>
      <path class="fil0" d="M12978 12684c1,-334 85,-761 240,-1079 103,387 89,820 56,1220 -137,-68 -159,-73 -296,-141z"/>
      <path class="fil1" d="M13202 11765c-108,277 -169,608 -174,892 67,32 134,63 201,95 24,-323 34,-665 -27,-987z"/>
      <path class="fil0" d="M13029 13098c24,-97 49,-194 73,-291 65,-260 -69,-414 -218,-618 -121,-166 -113,-335 -141,-530 -40,185 -79,369 -119,554 -82,384 169,560 404,885z"/>
      <path class="fil1" d="M13006 12986c16,-64 32,-128 48,-191 61,-243 -70,-388 -211,-581 -63,-86 -93,-172 -111,-261 -19,90 -38,179 -58,269 -25,118 -20,228 29,342 37,85 95,163 153,237 49,62 100,123 149,185z"/>
      <path class="fil0" d="M13029 13098c18,-98 23,-200 55,-295 77,-232 163,-392 385,-519 180,-103 141,-215 248,-382 -41,184 110,612 8,773 -121,193 -345,219 -695,423z"/>
      <path class="fil1" d="M13670 12127c-29,72 -68,136 -174,197 -213,122 -292,277 -364,494 -20,61 -29,126 -38,190 91,-48 184,-91 279,-135 82,-38 172,-80 238,-139 28,-25 51,-52 70,-83 62,-98 13,-327 -11,-524z"/>
     </g>
     <g>
      <path class="fil0" d="M13076 12020c-35,-341 1,-785 120,-1127 145,383 178,826 190,1238 -144,-54 -166,-57 -310,-111z"/>
      <path class="fil1" d="M13198 11057c-77,294 -102,639 -75,930 70,25 140,49 210,74 -11,-332 -39,-682 -135,-1004z"/>
      <path class="fil0" d="M13172 12436c14,-102 27,-204 41,-305 36,-272 -114,-414 -285,-606 -139,-155 -149,-329 -198,-525 -19,193 -38,385 -57,578 -40,401 230,552 499,858z"/>
      <path class="fil1" d="M13136 12325c9,-67 18,-134 27,-201 34,-254 -112,-388 -273,-569 -72,-80 -112,-165 -139,-253 -9,94 -19,187 -28,281 -12,124 5,235 67,346 46,83 112,156 179,224 56,58 113,114 168,172z"/>
      <path class="fil0" d="M13172 12436c7,-102 1,-207 22,-307 51,-246 119,-418 326,-573 168,-125 117,-235 204,-418 -20,193 176,612 92,788 -100,210 -318,263 -644,510z"/>
      <path class="fil1" d="M13702 11373c-21,76 -53,146 -151,220 -199,149 -260,316 -308,545 -13,65 -15,132 -17,198 85,-59 173,-114 262,-169 77,-48 162,-101 222,-169 25,-28 45,-59 61,-92 51,-107 -23,-335 -68,-533z"/>
     </g>
     <g>
      <path class="fil0" d="M13084 11318c-71,-357 -83,-832 0,-1208 185,389 265,855 320,1290 -149,-41 -171,-42 -320,-82z"/>
      <path class="fil1" d="M13104 10284c-45,320 -33,689 24,993 72,19 145,36 217,55 -46,-350 -111,-718 -241,-1048z"/>
      <path class="fil0" d="M13224 11748c3,-109 5,-219 8,-328 7,-292 -157,-426 -347,-609 -155,-149 -183,-331 -252,-533 1,206 3,412 4,619 3,429 287,559 587,852z"/>
      <path class="fil1" d="M13177 11634c2,-72 4,-144 5,-216 7,-273 -153,-399 -332,-571 -80,-77 -128,-162 -165,-253 1,100 1,200 2,300 1,132 30,249 103,359 55,82 128,152 201,218 62,55 124,108 185,163z"/>
      <path class="fil0" d="M13224 11748c-4,-109 -21,-219 -11,-328 25,-266 74,-457 263,-643 153,-152 91,-262 159,-465 0,206 240,628 176,824 -77,234 -289,314 -587,613z"/>
      <path class="fil1" d="M13639 10562c-13,83 -37,161 -127,250 -182,180 -225,364 -248,612 -7,70 -1,141 4,212 78,-73 159,-140 243,-209 72,-59 151,-125 202,-204 22,-33 38,-67 50,-104 39,-120 -59,-352 -125,-557z"/>
     </g>
     <g>
      <path class="fil0" d="M12965 10561c-132,-338 -225,-804 -206,-1189 252,349 412,792 541,1210 -156,-12 -179,-9 -335,-21z"/>
      <path class="fil1" d="M12808 9539c9,324 84,684 193,973 76,5 151,9 227,14 -106,-336 -234,-686 -420,-987z"/>
      <path class="fil0" d="M13179 10958c-16,-108 -32,-216 -48,-325 -43,-289 -230,-390 -453,-535 -180,-118 -241,-292 -344,-478 37,203 73,405 110,608 76,422 383,497 735,729z"/>
      <path class="fil1" d="M13112 10855c-10,-71 -21,-142 -31,-213 -40,-270 -221,-364 -431,-501 -94,-61 -157,-135 -209,-218 18,98 36,197 53,295 24,130 72,239 165,334 69,71 155,126 239,177 71,43 143,83 214,126z"/>
      <path class="fil0" d="M13179 10958c-22,-107 -58,-212 -67,-321 -21,-266 -3,-463 154,-683 128,-178 47,-275 80,-488 35,203 348,574 317,779 -37,245 -236,363 -484,713z"/>
      <path class="fil1" d="M13393 9714c1,84 -10,165 -85,270 -152,211 -164,400 -145,649 5,70 23,139 40,208 66,-86 136,-167 208,-251 62,-72 130,-151 168,-238 16,-36 27,-73 33,-112 19,-125 -119,-336 -220,-525z"/>
     </g>
     <g>
      <path class="fil0" d="M12772 9838c-147,-332 -260,-793 -258,-1178 267,338 446,773 594,1185 -157,-5 -179,-1 -335,-7z"/>
      <path class="fil1" d="M12570 8825c23,323 114,680 236,964 76,2 152,2 227,4 -121,-331 -264,-675 -463,-968z"/>
      <path class="fil0" d="M13003 10226c-21,-107 -41,-215 -62,-322 -55,-287 -247,-380 -476,-515 -185,-110 -253,-281 -365,-463 46,201 91,402 137,603 95,418 405,480 766,696z"/>
      <path class="fil1" d="M12932 10126c-14,-71 -27,-141 -41,-212 -52,-268 -237,-354 -452,-481 -96,-57 -162,-128 -218,-208 22,98 44,195 66,293 29,129 83,236 179,326 72,68 160,119 247,166 73,39 147,77 219,117z"/>
      <path class="fil0" d="M13003 10226c-27,-106 -68,-209 -81,-318 -32,-265 -24,-463 124,-689 120,-183 35,-277 59,-491 44,201 373,558 351,764 -26,246 -220,373 -453,733z"/>
      <path class="fil1" d="M13162 8973c5,84 -2,165 -73,274 -142,217 -146,407 -116,654 9,70 29,138 49,206 63,-89 129,-173 197,-260 59,-75 123,-157 158,-245 14,-37 24,-74 28,-114 13,-126 -134,-330 -243,-515z"/>
     </g>
     <g>
      <path class="fil0" d="M12498 9012c-202,-302 -393,-736 -459,-1116 321,286 573,685 790,1064 -155,22 -176,30 -331,52z"/>
      <path class="fil1" d="M12124 8049c79,314 230,650 399,908 75,-11 150,-24 224,-36 -176,-305 -377,-619 -624,-873z"/>
      <path class="fil0" d="M12792 9354c-39,-102 -78,-204 -117,-307 -104,-273 -309,-331 -558,-424 -202,-76 -298,-233 -440,-392 80,190 159,380 239,570 166,396 482,402 875,553z"/>
      <path class="fil1" d="M12705 9268c-26,-67 -51,-134 -77,-201 -97,-255 -295,-308 -529,-396 -104,-39 -182,-98 -251,-167 39,92 77,184 116,277 51,122 122,218 233,290 83,54 178,90 272,121 79,26 158,50 236,77z"/>
      <path class="fil0" d="M12792 9354c-45,-100 -103,-194 -135,-299 -78,-256 -104,-452 3,-700 87,-201 -13,-279 -27,-494 78,191 464,485 478,692 17,247 -152,406 -319,800z"/>
      <path class="fil1" d="M12732 8093c19,82 26,163 -25,282 -103,239 -74,426 -1,665 20,67 52,131 84,194 46,-98 97,-193 149,-290 45,-84 94,-176 113,-269 8,-39 10,-77 8,-117 -9,-126 -189,-302 -328,-465z"/>
     </g>
     <g>
      <path class="fil0" d="M12154 8419c-241,-272 -488,-677 -604,-1044 357,241 660,602 925,949 -151,42 -171,53 -321,95z"/>
      <path class="fil1" d="M11655 7515c120,301 315,613 517,847 73,-21 145,-44 218,-65 -216,-279 -456,-563 -735,-781z"/>
      <path class="fil0" d="M12492 8718c-52,-96 -105,-192 -157,-288 -140,-257 -351,-287 -609,-346 -210,-48 -327,-191 -488,-330 104,178 209,355 313,533 217,370 531,334 941,431z"/>
      <path class="fil1" d="M12394 8645c-34,-63 -69,-126 -103,-189 -131,-240 -333,-265 -577,-321 -109,-25 -194,-73 -271,-132 51,86 101,172 152,259 67,114 150,200 270,256 89,43 188,65 285,83 82,15 163,29 244,45z"/>
      <path class="fil0" d="M12492 8718c-58,-93 -128,-179 -173,-278 -111,-243 -163,-434 -91,-694 59,-211 -51,-274 -93,-485 103,178 524,418 566,621 50,242 -96,422 -209,836z"/>
      <path class="fil1" d="M12263 7476c30,79 48,158 13,283 -70,250 -16,432 88,659 29,64 70,123 110,181 33,-104 70,-204 109,-307 33,-89 70,-187 76,-282 3,-39 0,-78 -8,-117 -25,-124 -228,-274 -388,-417z"/>
     </g>
     <g>
      <path class="fil0" d="M11752 7842c-269,-244 -558,-620 -712,-974 380,201 720,528 1022,844 -145,58 -164,71 -309,129z"/>
      <path class="fil1" d="M11158 6996c152,286 379,576 605,787 70,-29 140,-59 209,-88 -244,-254 -514,-511 -814,-698z"/>
      <path class="fil0" d="M12119 8103c-62,-90 -125,-180 -187,-270 -166,-240 -379,-247 -643,-279 -214,-25 -345,-155 -521,-276 123,165 246,331 368,496 256,344 564,275 982,328z"/>
      <path class="fil1" d="M12014 8041c-41,-59 -82,-118 -123,-177 -155,-225 -360,-228 -608,-258 -111,-13 -200,-52 -284,-103 60,80 119,161 179,241 79,106 171,182 296,226 93,33 194,44 293,52 83,7 165,11 247,18z"/>
      <path class="fil0" d="M12119 8103c-67,-86 -146,-164 -202,-258 -137,-230 -209,-414 -165,-680 36,-216 -80,-267 -145,-473 122,166 566,360 629,557 75,236 -51,430 -118,853z"/>
      <path class="fil1" d="M11759 6893c38,75 65,152 44,280 -42,256 31,431 158,645 36,60 82,115 128,168 21,-107 48,-210 75,-317 23,-92 49,-193 45,-288 -2,-40 -8,-78 -20,-115 -38,-120 -256,-248 -430,-373z"/>
     </g>
     <g>
      <path class="fil0" d="M11238 7360c-312,-185 -671,-495 -894,-811 413,121 812,372 1171,622 -131,86 -146,103 -277,189z"/>
      <path class="fil1" d="M10486 6651c206,250 487,488 751,649 63,-42 125,-86 187,-129 -290,-200 -606,-397 -938,-520z"/>
      <path class="fil0" d="M11650 7542c-79,-76 -158,-151 -237,-227 -211,-202 -422,-166 -686,-144 -215,18 -369,-82 -565,-165 154,137 307,275 461,412 320,286 608,156 1028,124z"/>
      <path class="fil1" d="M11534 7502c-52,-50 -104,-99 -156,-149 -197,-189 -398,-151 -647,-130 -111,9 -207,-11 -299,-43 75,67 149,133 224,200 99,88 204,144 335,162 98,13 199,4 297,-8 82,-10 164,-22 246,-32z"/>
      <path class="fil0" d="M11650 7542c-83,-71 -176,-131 -250,-212 -180,-197 -288,-363 -298,-633 -8,-219 -132,-246 -237,-434 153,138 627,238 729,419 121,216 37,432 56,860z"/>
      <path class="fil1" d="M11054 6429c53,66 94,136 99,265 10,260 117,416 285,600 47,52 104,96 160,139 -1,-109 5,-216 10,-326 5,-95 9,-199 -14,-291 -10,-38 -24,-74 -43,-109 -62,-110 -301,-192 -497,-279z"/>
     </g>
    </g>
   </g>
   <g>
    <path class="fil9" d="M9575 17158c-1376,-1726 -3109,-960 -4664,-1440 87,-25 174,-50 261,-75 1475,361 2682,-294 4425,1082 -7,144 -15,289 -22,433z"/>
    <path class="fil7" d="M9550 17178c-908,-1139 -1976,-1182 -3045,-1225 -540,-22 -1081,-43 -1603,-205l1 -63 261 -75 17 0c488,119 948,127 1408,134 929,15 1859,30 3030,954l13 11 -1 17 -22 433 -33 -2 -26 21zm-3042 -1291c1063,43 2125,85 3040,1183l17 -330c-1147,-900 -2062,-915 -2977,-929 -461,-7 -922,-15 -1414,-134l-142 41c480,130 978,150 1476,170z"/>
    <path class="fil9" d="M6181 17158c1376,-1726 3109,-960 4664,-1440 -87,-25 -174,-50 -261,-75 -1475,361 -2682,-294 -4425,1082 7,144 15,289 22,433z"/>
    <path class="fil7" d="M6209 17070c914,-1098 1977,-1140 3040,-1183 498,-20 996,-40 1476,-170l-142 -41c-492,119 -953,127 -1414,134 -915,15 -1829,30 -2977,929l17 330zm3042 -1117c-1069,43 -2137,86 -3045,1225l-26 -21 -33 2 -22 -433 -1 -17 13 -11c1171,-924 2101,-939 3030,-954 460,-7 920,-15 1408,-134l17 0 261 75 1 63c-522,161 -1063,183 -1603,205z"/>
   </g>
   <g>
    <path class="fil0" d="M2723 15938c293,-257 662,-491 1326,-637 272,225 544,450 816,675 -640,228 -1224,527 -1753,894 59,-246 122,-494 302,-759 -165,-97 -431,-134 -691,-174z"/>
    <path class="fil4" d="M3192 16756c491,-328 1019,-592 1573,-796 -243,-201 -486,-403 -730,-604 -458,103 -837,259 -1196,550 201,30 441,71 599,164l46 27 -30 44c-137,201 -205,394 -263,615z"/>
    <path class="fil0" d="M4262 16061c202,-39 398,-102 603,-85 -127,-105 -255,-211 -382,-316 -74,134 -147,267 -221,401z"/>
    <path class="fil4" d="M4358 15990c122,-27 243,-56 367,-64 -76,-63 -152,-126 -228,-189 -46,84 -93,168 -139,253z"/>
    <path class="fil0" d="M13033 15938c-293,-257 -662,-491 -1326,-637 -272,225 -544,450 -816,675 640,228 1224,527 1753,894 -59,-246 -122,-494 -302,-759 165,-97 431,-134 691,-174z"/>
    <path class="fil4" d="M12564 16756c-491,-328 -1019,-592 -1573,-796 243,-201 486,-403 730,-604 458,103 837,259 1196,550 -201,30 -441,71 -599,164l-46 27 30 44c137,201 205,394 263,615z"/>
    <path class="fil0" d="M11494 16061c-202,-39 -398,-102 -603,-85 127,-105 255,-211 382,-316 74,134 147,267 221,401z"/>
    <path class="fil4" d="M11398 15990c-122,-27 -243,-56 -367,-64 76,-63 152,-126 228,-189 46,84 93,168 139,253z"/>
    <path class="fil0" d="M11494 16061c135,-270 270,-539 405,-809 -2308,-1474 -5733,-1474 -8041,0 135,270 270,539 405,809 2193,-1164 5039,-1164 7232,0z"/>
    <path class="fil4" d="M11472 15993c120,-241 241,-482 361,-723 -2278,-1432 -5633,-1432 -7911,0 120,241 241,482 361,723 2187,-1140 5002,-1140 7188,0z"/>
    <path class="fil10" d="M5120 14806l213 -70c42,-14 74,-22 96,-25 22,-3 43,0 63,8 20,8 39,21 56,40 17,19 30,42 38,70 9,30 10,60 3,89 -6,30 -19,54 -39,74 36,1 66,12 91,33 25,22 43,51 54,88 8,29 11,59 7,91 -3,31 -13,58 -27,81 -15,23 -36,41 -64,54 -17,8 -60,24 -128,47l-181 60 -182 -641zm138 71l42 148 70 -23c42,-14 68,-23 77,-28 18,-9 30,-21 37,-37 7,-16 7,-35 2,-55 -6,-20 -15,-35 -27,-44 -13,-9 -28,-12 -47,-9 -11,2 -42,11 -92,28l-62 20zm72 255l49 171 99 -33c39,-13 63,-22 73,-28 15,-9 26,-22 32,-38 6,-17 6,-37 0,-59 -5,-19 -14,-34 -26,-45 -12,-11 -26,-17 -42,-18 -16,-1 -49,6 -98,22l-87 29zm1259 -25l-121 23 -72 -141 -219 42 -21 159 -117 22 105 -701 117 -22 328 619zm-247 -223l-116 -231 -34 259 150 -28zm568 172l-54 -668 236 -22c59,-6 103,-4 131,6 28,9 51,29 70,58 19,29 29,64 33,103 4,50 -5,93 -27,128 -22,35 -57,59 -105,72 26,15 47,32 65,50 17,19 42,53 72,102l78 124 -134 13 -93 -138c-33,-49 -55,-80 -67,-93 -12,-13 -24,-21 -36,-25 -12,-4 -31,-5 -57,-2l-23 2 23 279 -112 11zm81 -396l83 -8c54,-5 87,-11 100,-18 13,-7 23,-17 29,-31 6,-14 9,-31 7,-51 -2,-23 -8,-40 -19,-53 -11,-13 -26,-20 -44,-22 -9,-1 -36,1 -82,6l-87 8 14 169zm1236 345l-122 0 -49 -152 -223 0 -46 152 -119 0 217 -671 119 0 223 671zm-207 -265l-77 -249 -75 249 152 0zm529 289l54 -668 112 11 -24 297 250 -275 151 14 -230 241 187 429 -145 -14 -127 -328 -100 103 -16 202 -112 -11zm1304 232l-120 -27 -18 -160 -218 -50 -74 139 -117 -27 341 -607 116 27 89 706zm-151 -306l-27 -261 -122 227 149 34zm528 425l151 -533 -158 -52 31 -109 423 139 -31 109 -158 -52 -151 533 -108 -35z"/>
   </g>
  </g>
 </g>
</svg>
