<svg id="a9685747-760c-45f8-bcbc-8451e3fd8bdb" data-name="Layer 2" xmlns="http://www.w3.org/2000/svg" xmlns:xlink="http://www.w3.org/1999/xlink" width="350" height="380" viewBox="0 0 350 380"><defs><clipPath id="ed0691df-b990-48c4-8a3f-8051d84bfb1f"><path d="M57.28,23.98V203.86a117.72,117.72,0,0,0,235.44,0V23.98Z" style="fill:none"/></clipPath></defs><rect width="350" height="380" style="fill:none"/><path d="M339.14,303.14a79.266,79.266,0,0,0-45.49,32,78.307,78.307,0,0,0-4.89,8.14c0,.01-.01.02-.02.04-.65,1.02-2.4,2.3-3.47,2.22-.1-.03-.21-.06-.33-.1s-.27-.08-.42-.13a2.832,2.832,0,0,1-1.09-1.01,3.934,3.934,0,0,1-.3-2.22,3.169,3.169,0,0,1,.3-1.35,10.166,10.166,0,0,1,1.32-2.7,20.225,20.225,0,0,1,1.53-2.07c.28-.33,7.08-8.37,4.77-13.08a4.448,4.448,0,0,0-.97-1.3l-5.91-5.48-9.84-9.12a35.859,35.859,0,0,1,14.06-19.61c11.9-8.1,24.5-5.83,26.88-5.36a52.155,52.155,0,0,0-20.07,24.66,44.16,44.16,0,0,1,43.94-3.53Z" style="fill:#fff212;stroke:#221f1f;stroke-miterlimit:10"/><path d="M286.28,335.96a20.225,20.225,0,0,0-1.53,2.07,10.166,10.166,0,0,0-1.32,2.7,3.169,3.169,0,0,0-.3,1.35,3.934,3.934,0,0,0,.3,2.22,2.832,2.832,0,0,0,1.09,1.01c-3.31-1.05-9.96-3.17-15.92-5.07a154.868,154.868,0,0,0,21.48-18.66,4.448,4.448,0,0,1,.97,1.3C293.36,327.59,286.56,335.63,286.28,335.96Z" style="fill:#fff212;stroke:#221f1f;stroke-miterlimit:10"/><path d="M284.17,316.1l-9.84-9.12-8.12-7.53a132.134,132.134,0,0,1-182.42,0l-8.12,7.53-9.84,9.12-5.91,5.48A154.868,154.868,0,0,0,81.4,340.24c.66.49,1.33.96,2,1.42,40.58,28.23,82.93,28.73,91.6,28.76,8.67-.03,51.02-.53,91.6-28.76.67-.46,1.34-.93,2-1.42a154.868,154.868,0,0,0,21.48-18.66Z" style="fill:#fff212;stroke:#221f1f;stroke-miterlimit:10"/><path d="M10.86,303.14a79.558,79.558,0,0,1,30.46,15.55,79.557,79.557,0,0,1,15.03,16.45,78.307,78.307,0,0,1,4.89,8.14c0,.01.01.02.02.04.65,1.02,2.4,2.3,3.47,2.22.1-.03.21-.06.33-.1s.27-.08.42-.13a2.832,2.832,0,0,0,1.09-1.01,3.934,3.934,0,0,0,.3-2.22,3.169,3.169,0,0,0-.3-1.35,10.166,10.166,0,0,0-1.32-2.7,20.225,20.225,0,0,0-1.53-2.07c-.28-.33-7.08-8.37-4.77-13.08a4.448,4.448,0,0,1,.97-1.3l5.91-5.48,9.84-9.12a35.859,35.859,0,0,0-14.06-19.61c-11.9-8.1-24.5-5.83-26.88-5.36a52.4,52.4,0,0,1,13.66,12.97,51.99,51.99,0,0,1,6.41,11.69,44.16,44.16,0,0,0-43.94-3.53Z" style="fill:#fff212;stroke:#221f1f;stroke-miterlimit:10"/><path d="M63.72,335.96a20.225,20.225,0,0,1,1.53,2.07,10.166,10.166,0,0,1,1.32,2.7,3.169,3.169,0,0,1,.3,1.35,3.934,3.934,0,0,1-.3,2.22,2.832,2.832,0,0,1-1.09,1.01c3.31-1.05,9.96-3.17,15.92-5.07a154.868,154.868,0,0,1-21.48-18.66,4.448,4.448,0,0,0-.97,1.3C56.64,327.59,63.44,335.63,63.72,335.96Z" style="fill:#fff212;stroke:#221f1f;stroke-miterlimit:10"/><path d="M77.238,318.034l1.854,1.294a2.745,2.745,0,0,0-.453,1.8,2.487,2.487,0,0,0,.93,1.493,2.582,2.582,0,0,0,1.588.733,1.405,1.405,0,0,0,1.148-.474,1.036,1.036,0,0,0,.267-.68,1.9,1.9,0,0,0-.31-.917q-.219-.37-1.084-1.582a6.275,6.275,0,0,1-1.25-2.556,2.981,2.981,0,0,1,.693-2.438,2.944,2.944,0,0,1,1.44-.923,3.1,3.1,0,0,1,1.84.046,5.723,5.723,0,0,1,1.974,1.159,4.832,4.832,0,0,1,1.855,2.826,3.329,3.329,0,0,1-.767,2.663l-1.825-1.424a1.964,1.964,0,0,0,.34-1.379,2.332,2.332,0,0,0-.863-1.245,2.646,2.646,0,0,0-1.469-.71.836.836,0,0,0-.741.3.88.88,0,0,0-.19.752,6.085,6.085,0,0,0,1.119,1.962,11.163,11.163,0,0,1,1.364,2.247,3.223,3.223,0,0,1,.208,1.707,3.411,3.411,0,0,1-.837,1.685,3.371,3.371,0,0,1-1.612,1.047,3.27,3.27,0,0,1-2.006-.032,6.489,6.489,0,0,1-2.167-1.3,4.959,4.959,0,0,1-1.887-2.928A4.367,4.367,0,0,1,77.238,318.034Z"/><path d="M84.447,328.923,88.85,318l1.929,1.37-3.148,7.414,6.263-5.2,2.242,1.591-2.995,7.686,6.065-5.5,1.9,1.348-8.9,7.727-2-1.421,3.1-8.3-6.812,5.665Z"/><path d="M103.406,341.205l-2.164-1.283.466-2.748-3.939-2.334-2.14,1.757-2.11-1.251,9.676-7.579,2.1,1.247Zm-1.353-6.069.809-4.461-3.5,2.868Z"/><path d="M105.552,342.221l4.322-8.477-3.028-1.544.881-1.726,8.108,4.134-.88,1.727-3.021-1.541-4.322,8.477Z"/><path d="M120.171,348.951l-2.308-1,.118-2.784-4.2-1.823-1.9,2.011-2.25-.976,8.649-8.732,2.244.973Zm-2.1-5.852.243-4.526-3.11,3.283Z"/><path d="M121.084,349.26l3.765-10.816,2.125.739,1.913,8.765,2.514-7.224,2.029.706-3.765,10.817-2.191-.763-1.906-8.571-2.455,7.053Z"/><path d="M134.226,353.547l2.522-9.174-3.276-.9.513-1.868,8.776,2.413-.514,1.868-3.269-.9-2.523,9.176Z"/><path d="M140.956,355.355l2.3-11.219,4.768.98a8.3,8.3,0,0,1,2.551.839,2.627,2.627,0,0,1,1.084,1.342,3.3,3.3,0,0,1,.127,1.869,3.062,3.062,0,0,1-1.17,1.933,3.642,3.642,0,0,1-2.432.581,5.383,5.383,0,0,1,1.019,1.191,13.007,13.007,0,0,1,.916,2.086l.92,2.469-2.709-.555-1.137-2.779a15.962,15.962,0,0,0-.855-1.893,1.774,1.774,0,0,0-.585-.608,3.869,3.869,0,0,0-1.114-.36l-.459-.094-.962,4.684Zm3.594-6.009,1.676.344a8.8,8.8,0,0,0,2.064.28,1.239,1.239,0,0,0,.732-.343,1.488,1.488,0,0,0,.4-.8,1.382,1.382,0,0,0-.114-.977,1.423,1.423,0,0,0-.763-.615q-.269-.094-1.646-.378l-1.767-.362Z"/><path d="M162.238,358.9l-2.494-.329-.651-2.71-4.539-.6-1.278,2.456-2.432-.321,5.922-10.77,2.424.319Zm-3.629-5.05-1.008-4.42-2.09,4.012Z"/><path d="M168.481,359.336l-2.565-11.493,2.366.035,1.612,7.892,2.209-7.836,2.749.04,1.89,8.029,1.875-7.973,2.328.034L178,359.475l-2.453-.036-2.155-8.6-2.4,8.529Z"/><path d="M181.6,359.251l-.677-11.434,2.308-.137.677,11.434Z"/><path d="M184.634,347.647l4.55-.512a13.292,13.292,0,0,1,2.027-.114,2.987,2.987,0,0,1,1.24.336,2.94,2.94,0,0,1,.981.854,2.6,2.6,0,0,1,.5,1.292,2.715,2.715,0,0,1-1.322,2.648,3.022,3.022,0,0,1,1.716.852,2.766,2.766,0,0,1,.752,1.654,3.414,3.414,0,0,1-.191,1.55,3.062,3.062,0,0,1-.855,1.283,3.283,3.283,0,0,1-1.479.714q-.569.126-2.764.388l-3.874.437Zm2.511,1.636.3,2.632,1.506-.169q1.344-.151,1.665-.227a1.529,1.529,0,0,0,.882-.513,1.211,1.211,0,0,0,.237-.926,1.257,1.257,0,0,0-.387-.826,1.325,1.325,0,0,0-.91-.3c-.232,0-.887.06-1.969.181Zm.509,4.526.343,3.043,2.127-.239a10.526,10.526,0,0,0,1.568-.247,1.439,1.439,0,0,0,.784-.548,1.409,1.409,0,0,0,.212-1,1.5,1.5,0,0,0-.345-.842,1.419,1.419,0,0,0-.777-.439,7.9,7.9,0,0,0-2.056.066Z"/><path d="M207.257,355.8l-2.473.461-1.459-2.375-4.5.837-.453,2.732-2.412.448,2.291-12.076,2.4-.448Zm-5.015-3.675-2.329-3.89-.743,4.462Z"/><path d="M208.87,355.4l-5.592-10.363,2.287-.61,3.695,7.157,0-8.14,2.657-.709,4,7.214-.361-8.183,2.249-.6.261,11.784-2.37.631-4.409-7.686.008,8.858Z"/><path d="M230.467,348.7l-2.373.835-1.808-2.122-4.318,1.52-.028,2.768-2.314.814.405-12.284,2.307-.812Zm-5.522-2.861-2.9-3.485L222,346.876Z"/><path d="M234.749,346.929l-4.916-10.344,3.125-1.486,5.23,6.164-1.5-7.937,3.133-1.49,4.916,10.345-1.94.922-3.87-8.142,1.816,9.118-2.011.956-5.916-7.17,3.87,8.142Z"/><path d="M240.715,331.326l2-1.162,3.118,5.362a12.6,12.6,0,0,0,1.036,1.611,1.851,1.851,0,0,0,1.179.621,2.46,2.46,0,0,0,1.534-.4,2.326,2.326,0,0,0,1.081-1.095,1.594,1.594,0,0,0,.024-1.156,12.931,12.931,0,0,0-.89-1.732l-3.185-5.478,2-1.163,3.024,5.2a15.569,15.569,0,0,1,1.3,2.613,3.253,3.253,0,0,1,.125,1.59,3.513,3.513,0,0,1-.7,1.486,5.874,5.874,0,0,1-1.729,1.407,6.358,6.358,0,0,1-2.342.923,3.567,3.567,0,0,1-1.653-.177,3.173,3.173,0,0,1-1.2-.772,13.948,13.948,0,0,1-1.657-2.4Z"/><path d="M256.2,335.473l-6.5-9.429,1.905-1.312,2.886,4.187.959-6.839,2.56-1.766-1.018,6.121,7.713,3.175-2.463,1.7-5.643-2.637-.457,2.64,1.965,2.85Z"/><path d="M267.389,327.389l-5.959-7.42-2.65,2.128-1.213-1.511,7.1-5.7,1.213,1.51-2.644,2.123,5.958,7.42Z"/><path d="M272.725,322.958l-7.6-8.573,1.73-1.533,7.6,8.572Z"/><path d="M42.88,9.58V203.86a132.12,132.12,0,0,0,264.24,0V9.58Z" style="fill:#fff212;stroke:#221f1f;stroke-miterlimit:10;stroke-width:0.75px"/><path d="M57.28,23.98V203.86a117.72,117.72,0,0,0,235.44,0V23.98Z" style="fill:#1fff12;stroke:#221f1f;stroke-miterlimit:10;stroke-width:0.5px"/><g style="clip-path:url(#ed0691df-b990-48c4-8a3f-8051d84bfb1f)"><rect x="59.92" y="231.14" width="230.16" height="90.44" style="fill:#00abeb"/><path d="M59.92,238.94c28.769,0,28.769,8,57.537,8s28.77-8,57.539-8,28.771,8,57.542,8,28.771-8,57.542-8" style="fill:none;stroke:#fff;stroke-miterlimit:10;stroke-width:5px"/><path d="M59.92,252.94c28.769,0,28.769,8,57.537,8s28.77-8,57.539-8,28.771,8,57.542,8,28.771-8,57.542-8" style="fill:none;stroke:#fff;stroke-miterlimit:10;stroke-width:5px"/><path d="M59.92,266.94c28.769,0,28.769,8,57.537,8s28.77-8,57.539-8,28.771,8,57.542,8,28.771-8,57.542-8" style="fill:none;stroke:#fff;stroke-miterlimit:10;stroke-width:5px"/><path d="M59.92,280.94c28.769,0,28.769,8,57.537,8s28.77-8,57.539-8,28.771,8,57.542,8,28.771-8,57.542-8" style="fill:none;stroke:#fff;stroke-miterlimit:10;stroke-width:5px"/><path d="M59.92,294.94c28.769,0,28.769,8,57.537,8s28.77-8,57.539-8,28.771,8,57.542,8,28.771-8,57.542-8" style="fill:none;stroke:#fff;stroke-miterlimit:10;stroke-width:5px"/><path d="M59.92,308.94c28.769,0,28.769,8,57.537,8s28.77-8,57.539-8,28.771,8,57.542,8,28.771-8,57.542-8" style="fill:none;stroke:#fff;stroke-miterlimit:10;stroke-width:5px"/></g><polygon points="59.5 173.71 78.349 154.71 166.442 154.71 175 163.336 183.558 154.71 271.651 154.71 290.5 173.71 59.5 173.71"/><polyline points="68.757 174.71 79.257 164.21 165.692 164.216 175 173.593 184.311 164.213 270.743 164.21 281.243 174.71" style="fill:none;stroke:#fff;stroke-miterlimit:10;stroke-width:2.5px"/><g style="clip-path:url(#ed0691df-b990-48c4-8a3f-8051d84bfb1f)"><rect x="167.75" y="174.71" width="14.5" height="9.172" style="fill:#ed3237;stroke:#fff;stroke-miterlimit:10"/><rect x="153.25" y="174.71" width="14.5" height="9.172" style="fill:#ed3237;stroke:#fff;stroke-miterlimit:10"/><rect x="138.75" y="174.71" width="14.5" height="9.172" style="fill:#ed3237;stroke:#fff;stroke-miterlimit:10"/><rect x="124.25" y="174.71" width="14.5" height="9.172" style="fill:#ed3237;stroke:#fff;stroke-miterlimit:10"/><rect x="109.75" y="174.71" width="14.5" height="9.172" style="fill:#ed3237;stroke:#fff;stroke-miterlimit:10"/><rect x="95.25" y="174.71" width="14.5" height="9.172" style="fill:#ed3237;stroke:#fff;stroke-miterlimit:10"/><rect x="80.75" y="174.71" width="14.5" height="9.172" style="fill:#ed3237;stroke:#fff;stroke-miterlimit:10"/><rect x="66.25" y="174.71" width="14.5" height="9.172" style="fill:#ed3237;stroke:#fff;stroke-miterlimit:10"/><rect x="57.28" y="174.71" width="8.97" height="9.172" style="fill:#ed3237;stroke:#fff;stroke-miterlimit:10"/><rect x="182.25" y="174.71" width="14.5" height="9.172" style="fill:#ed3237;stroke:#fff;stroke-miterlimit:10"/><rect x="196.75" y="174.71" width="14.5" height="9.172" style="fill:#ed3237;stroke:#fff;stroke-miterlimit:10"/><rect x="211.25" y="174.71" width="14.5" height="9.172" style="fill:#ed3237;stroke:#fff;stroke-miterlimit:10"/><rect x="225.75" y="174.71" width="14.5" height="9.172" style="fill:#ed3237;stroke:#fff;stroke-miterlimit:10"/><rect x="240.25" y="174.71" width="14.5" height="9.172" style="fill:#ed3237;stroke:#fff;stroke-miterlimit:10"/><rect x="254.75" y="174.71" width="14.5" height="9.172" style="fill:#ed3237;stroke:#fff;stroke-miterlimit:10"/><rect x="269.25" y="174.71" width="14.5" height="9.172" style="fill:#ed3237;stroke:#fff;stroke-miterlimit:10"/><rect x="283.75" y="174.71" width="8.97" height="9.172" style="fill:#ed3237;stroke:#fff;stroke-miterlimit:10"/><rect x="175" y="183.882" width="14.5" height="9.172" style="fill:#ed3237;stroke:#fff;stroke-miterlimit:10"/><rect x="160.5" y="183.882" width="14.5" height="9.172" style="fill:#ed3237;stroke:#fff;stroke-miterlimit:10"/><rect x="146" y="183.882" width="14.5" height="9.172" style="fill:#ed3237;stroke:#fff;stroke-miterlimit:10"/><rect x="131.5" y="183.882" width="14.5" height="9.172" style="fill:#ed3237;stroke:#fff;stroke-miterlimit:10"/><rect x="117" y="183.882" width="14.5" height="9.172" style="fill:#ed3237;stroke:#fff;stroke-miterlimit:10"/><rect x="102.5" y="183.882" width="14.5" height="9.172" style="fill:#ed3237;stroke:#fff;stroke-miterlimit:10"/><rect x="88" y="183.882" width="14.5" height="9.172" style="fill:#ed3237;stroke:#fff;stroke-miterlimit:10"/><rect x="73.5" y="183.882" width="14.5" height="9.172" style="fill:#ed3237;stroke:#fff;stroke-miterlimit:10"/><rect x="59" y="183.882" width="14.5" height="9.172" style="fill:#ed3237;stroke:#fff;stroke-miterlimit:10"/><rect x="57.28" y="183.882" width="1.72" height="9.172" style="fill:#ed3237;stroke:#fff;stroke-miterlimit:10"/><rect x="189.5" y="183.882" width="14.5" height="9.172" style="fill:#ed3237;stroke:#fff;stroke-miterlimit:10"/><rect x="204" y="183.882" width="14.5" height="9.172" style="fill:#ed3237;stroke:#fff;stroke-miterlimit:10"/><rect x="218.5" y="183.882" width="14.5" height="9.172" style="fill:#ed3237;stroke:#fff;stroke-miterlimit:10"/><rect x="233" y="183.882" width="14.5" height="9.172" style="fill:#ed3237;stroke:#fff;stroke-miterlimit:10"/><rect x="247.5" y="183.882" width="14.5" height="9.172" style="fill:#ed3237;stroke:#fff;stroke-miterlimit:10"/><rect x="262" y="183.882" width="14.5" height="9.172" style="fill:#ed3237;stroke:#fff;stroke-miterlimit:10"/><rect x="276.5" y="183.882" width="14.5" height="9.172" style="fill:#ed3237;stroke:#fff;stroke-miterlimit:10"/><rect x="291" y="183.882" width="1.72" height="9.172" style="fill:#ed3237;stroke:#fff;stroke-miterlimit:10"/><rect x="167.75" y="193.538" width="14.5" height="9.172" style="fill:#ed3237;stroke:#fff;stroke-miterlimit:10"/><rect x="153.25" y="193.538" width="14.5" height="9.172" style="fill:#ed3237;stroke:#fff;stroke-miterlimit:10"/><rect x="138.75" y="193.538" width="14.5" height="9.172" style="fill:#ed3237;stroke:#fff;stroke-miterlimit:10"/><rect x="124.25" y="193.538" width="14.5" height="9.172" style="fill:#ed3237;stroke:#fff;stroke-miterlimit:10"/><rect x="109.75" y="193.538" width="14.5" height="9.172" style="fill:#ed3237;stroke:#fff;stroke-miterlimit:10"/><rect x="95.25" y="193.538" width="14.5" height="9.172" style="fill:#ed3237;stroke:#fff;stroke-miterlimit:10"/><rect x="80.75" y="193.538" width="14.5" height="9.172" style="fill:#ed3237;stroke:#fff;stroke-miterlimit:10"/><rect x="66.25" y="193.538" width="14.5" height="9.172" style="fill:#ed3237;stroke:#fff;stroke-miterlimit:10"/><rect x="57.28" y="193.538" width="8.97" height="9.172" style="fill:#ed3237;stroke:#fff;stroke-miterlimit:10"/><rect x="182.25" y="193.538" width="14.5" height="9.172" style="fill:#ed3237;stroke:#fff;stroke-miterlimit:10"/><rect x="196.75" y="193.538" width="14.5" height="9.172" style="fill:#ed3237;stroke:#fff;stroke-miterlimit:10"/><rect x="211.25" y="193.538" width="14.5" height="9.172" style="fill:#ed3237;stroke:#fff;stroke-miterlimit:10"/><rect x="225.75" y="193.538" width="14.5" height="9.172" style="fill:#ed3237;stroke:#fff;stroke-miterlimit:10"/><rect x="240.25" y="193.538" width="14.5" height="9.172" style="fill:#ed3237;stroke:#fff;stroke-miterlimit:10"/><rect x="254.75" y="193.538" width="14.5" height="9.172" style="fill:#ed3237;stroke:#fff;stroke-miterlimit:10"/><rect x="269.25" y="193.538" width="14.5" height="9.172" style="fill:#ed3237;stroke:#fff;stroke-miterlimit:10"/><rect x="283.75" y="193.538" width="8.97" height="9.172" style="fill:#ed3237;stroke:#fff;stroke-miterlimit:10"/><rect x="175" y="202.71" width="14.5" height="9.172" style="fill:#ed3237;stroke:#fff;stroke-miterlimit:10"/><rect x="160.5" y="202.71" width="14.5" height="9.172" style="fill:#ed3237;stroke:#fff;stroke-miterlimit:10"/><rect x="146" y="202.71" width="14.5" height="9.172" style="fill:#ed3237;stroke:#fff;stroke-miterlimit:10"/><rect x="131.5" y="202.71" width="14.5" height="9.172" style="fill:#ed3237;stroke:#fff;stroke-miterlimit:10"/><rect x="117" y="202.71" width="14.5" height="9.172" style="fill:#ed3237;stroke:#fff;stroke-miterlimit:10"/><rect x="102.5" y="202.71" width="14.5" height="9.172" style="fill:#ed3237;stroke:#fff;stroke-miterlimit:10"/><rect x="88" y="202.71" width="14.5" height="9.172" style="fill:#ed3237;stroke:#fff;stroke-miterlimit:10"/><rect x="73.5" y="202.71" width="14.5" height="9.172" style="fill:#ed3237;stroke:#fff;stroke-miterlimit:10"/><rect x="59" y="202.71" width="14.5" height="9.172" style="fill:#ed3237;stroke:#fff;stroke-miterlimit:10"/><rect x="57.28" y="202.71" width="1.72" height="9.172" style="fill:#ed3237;stroke:#fff;stroke-miterlimit:10"/><rect x="189.5" y="202.71" width="14.5" height="9.172" style="fill:#ed3237;stroke:#fff;stroke-miterlimit:10"/><rect x="204" y="202.71" width="14.5" height="9.172" style="fill:#ed3237;stroke:#fff;stroke-miterlimit:10"/><rect x="218.5" y="202.71" width="14.5" height="9.172" style="fill:#ed3237;stroke:#fff;stroke-miterlimit:10"/><rect x="233" y="202.71" width="14.5" height="9.172" style="fill:#ed3237;stroke:#fff;stroke-miterlimit:10"/><rect x="247.5" y="202.71" width="14.5" height="9.172" style="fill:#ed3237;stroke:#fff;stroke-miterlimit:10"/><rect x="262" y="202.71" width="14.5" height="9.172" style="fill:#ed3237;stroke:#fff;stroke-miterlimit:10"/><rect x="276.5" y="202.71" width="14.5" height="9.172" style="fill:#ed3237;stroke:#fff;stroke-miterlimit:10"/><rect x="291" y="202.71" width="1.72" height="9.172" style="fill:#ed3237;stroke:#fff;stroke-miterlimit:10"/><rect x="167.75" y="212.365" width="14.5" height="9.172" style="fill:#ed3237;stroke:#fff;stroke-miterlimit:10"/><rect x="153.25" y="212.365" width="14.5" height="9.172" style="fill:#ed3237;stroke:#fff;stroke-miterlimit:10"/><rect x="138.75" y="212.365" width="14.5" height="9.172" style="fill:#ed3237;stroke:#fff;stroke-miterlimit:10"/><rect x="124.25" y="212.365" width="14.5" height="9.172" style="fill:#ed3237;stroke:#fff;stroke-miterlimit:10"/><rect x="109.75" y="212.365" width="14.5" height="9.172" style="fill:#ed3237;stroke:#fff;stroke-miterlimit:10"/><rect x="95.25" y="212.365" width="14.5" height="9.172" style="fill:#ed3237;stroke:#fff;stroke-miterlimit:10"/><rect x="80.75" y="212.365" width="14.5" height="9.172" style="fill:#ed3237;stroke:#fff;stroke-miterlimit:10"/><rect x="66.25" y="212.365" width="14.5" height="9.172" style="fill:#ed3237;stroke:#fff;stroke-miterlimit:10"/><rect x="57.28" y="212.365" width="8.97" height="9.172" style="fill:#ed3237;stroke:#fff;stroke-miterlimit:10"/><rect x="182.25" y="212.365" width="14.5" height="9.172" style="fill:#ed3237;stroke:#fff;stroke-miterlimit:10"/><rect x="196.75" y="212.365" width="14.5" height="9.172" style="fill:#ed3237;stroke:#fff;stroke-miterlimit:10"/><rect x="211.25" y="212.365" width="14.5" height="9.172" style="fill:#ed3237;stroke:#fff;stroke-miterlimit:10"/><rect x="225.75" y="212.365" width="14.5" height="9.172" style="fill:#ed3237;stroke:#fff;stroke-miterlimit:10"/><rect x="240.25" y="212.365" width="14.5" height="9.172" style="fill:#ed3237;stroke:#fff;stroke-miterlimit:10"/><rect x="254.75" y="212.365" width="14.5" height="9.172" style="fill:#ed3237;stroke:#fff;stroke-miterlimit:10"/><rect x="269.25" y="212.365" width="14.5" height="9.172" style="fill:#ed3237;stroke:#fff;stroke-miterlimit:10"/><rect x="283.75" y="212.365" width="8.97" height="9.172" style="fill:#ed3237;stroke:#fff;stroke-miterlimit:10"/><rect x="175" y="221.538" width="14.5" height="9.172" style="fill:#ed3237;stroke:#fff;stroke-miterlimit:10"/><rect x="160.5" y="221.538" width="14.5" height="9.172" style="fill:#ed3237;stroke:#fff;stroke-miterlimit:10"/><rect x="146" y="221.538" width="14.5" height="9.172" style="fill:#ed3237;stroke:#fff;stroke-miterlimit:10"/><rect x="131.5" y="221.538" width="14.5" height="9.172" style="fill:#ed3237;stroke:#fff;stroke-miterlimit:10"/><rect x="117" y="221.538" width="14.5" height="9.172" style="fill:#ed3237;stroke:#fff;stroke-miterlimit:10"/><rect x="102.5" y="221.538" width="14.5" height="9.172" style="fill:#ed3237;stroke:#fff;stroke-miterlimit:10"/><rect x="88" y="221.538" width="14.5" height="9.172" style="fill:#ed3237;stroke:#fff;stroke-miterlimit:10"/><rect x="73.5" y="221.538" width="14.5" height="9.172" style="fill:#ed3237;stroke:#fff;stroke-miterlimit:10"/><rect x="59" y="221.538" width="14.5" height="9.172" style="fill:#ed3237;stroke:#fff;stroke-miterlimit:10"/><rect x="57.28" y="221.538" width="1.72" height="9.172" style="fill:#ed3237;stroke:#fff;stroke-miterlimit:10"/><rect x="189.5" y="221.538" width="14.5" height="9.172" style="fill:#ed3237;stroke:#fff;stroke-miterlimit:10"/><rect x="204" y="221.538" width="14.5" height="9.172" style="fill:#ed3237;stroke:#fff;stroke-miterlimit:10"/><rect x="218.5" y="221.538" width="14.5" height="9.172" style="fill:#ed3237;stroke:#fff;stroke-miterlimit:10"/><rect x="233" y="221.538" width="14.5" height="9.172" style="fill:#ed3237;stroke:#fff;stroke-miterlimit:10"/><rect x="247.5" y="221.538" width="14.5" height="9.172" style="fill:#ed3237;stroke:#fff;stroke-miterlimit:10"/><rect x="262" y="221.538" width="14.5" height="9.172" style="fill:#ed3237;stroke:#fff;stroke-miterlimit:10"/><rect x="276.5" y="221.538" width="14.5" height="9.172" style="fill:#ed3237;stroke:#fff;stroke-miterlimit:10"/><rect x="291" y="221.538" width="1.72" height="9.172" style="fill:#ed3237;stroke:#fff;stroke-miterlimit:10"/></g><path d="M183.666,33.32v86.16h-6.91a69.265,69.265,0,0,1-11.99-38.64C164.736,54.07,180.306,36.87,183.666,33.32Z" style="fill:#fff;stroke:#000;stroke-linecap:round;stroke-linejoin:round;stroke-width:0.5px"/><path d="M183.666,119.48h-6.91c-2.111,3.672-4.808,9.337-3.47,12.66a28.454,28.454,0,0,0,1.818,3.99c.978,1.513,1.879,2.293,1.662,3.33a2.306,2.306,0,0,1-1.44,1.56c-1.45.545-2.54-1.082-4.32-1.14-2.241-.073-4.934,2.362-4.98,4.68-.059,2.968,4.238,5,7.08,5.46a10.9,10.9,0,0,0,10.38-4.44c1.612-2.316,1.651-4.747,1.74-8.22.081-3.173-.426-4.459-.96-9C184.022,126.291,183.738,123.247,183.666,119.48Z" style="stroke:#000;stroke-linecap:round;stroke-linejoin:round;stroke-width:0.5px"/><path d="M107.831,86.066c0-4.034-5.975-10.657-13.345-10.657S81.14,82.032,81.14,86.066s5.975,7.3,13.346,7.3S107.831,90.1,107.831,86.066Z" style="fill:#fff212;stroke:#221f1f;stroke-miterlimit:10;stroke-width:0.5px"/><path d="M110.949,98.169c-1.6-3.9-10-9.285-17.117-8.039s-10.265,8.652-8.665,12.549,8.668,6.046,15.787,4.8S112.548,102.066,110.949,98.169Z" style="fill:#fff212;stroke:#221f1f;stroke-miterlimit:10;stroke-width:0.5px"/><path d="M118.759,109.334c-3.09-3.494-13.339-7.28-19.722-4.875s-6.484,10.092-3.393,13.586,10.769,4.376,17.153,1.97S121.849,112.827,118.759,109.334Z" style="fill:#fff212;stroke:#221f1f;stroke-miterlimit:10;stroke-width:0.5px"/><path d="M130.73,118.8c-4.371-2.853-15.771-4.778-20.983-1.376s-2.261,10.843,2.109,13.695,12.138,2.408,17.35-.994S135.1,121.65,130.73,118.8Z" style="fill:#fff212;stroke:#221f1f;stroke-miterlimit:10;stroke-width:0.5px"/><path d="M146.045,125.917c-5.352-2.017-17.127-1.951-20.813,2.216s2.115,10.855,7.468,12.872,12.679.275,16.364-3.891S151.4,127.934,146.045,125.917Z" style="fill:#fff212;stroke:#221f1f;stroke-miterlimit:10;stroke-width:0.5px"/><path d="M109.619,73.849c1.6-3.9-1.545-11.3-8.665-12.549s-15.517,4.143-17.117,8.04,2.875,8.065,9.995,9.31S108.019,77.746,109.619,73.849Z" style="fill:#fff212;stroke:#221f1f;stroke-miterlimit:10;stroke-width:0.5px"/><path d="M116.19,62.35c3.091-3.494,2.99-11.18-3.393-13.586s-16.632,1.381-19.722,4.875-.421,8.276,5.962,10.681S113.1,65.844,116.19,62.35Z" style="fill:#fff212;stroke:#221f1f;stroke-miterlimit:10;stroke-width:0.5px"/><path d="M127.1,52.353c4.371-2.853,7.321-10.294,2.109-13.7s-16.612-1.476-20.982,1.376-3.688,7.923,1.523,11.325S122.727,55.205,127.1,52.353Z" style="fill:#fff212;stroke:#221f1f;stroke-miterlimit:10;stroke-width:0.5px"/><path d="M226.561,62.626c4.232-.988,8-1.627,11.847-.647a10.146,10.146,0,0,1,5.43,3.624,37.529,37.529,0,0,0,3.276,3.176l.554-.568c-1.912-2.424-2.692-5.8-5.954-7.091-1.1-.432-2.171-.93-3.242-1.431a21.532,21.532,0,0,0-7.95-2.3c-5.422-.315-9.226-3.867-13.256-7.643,4.672-.4,9.02-.657,13.055,1.644a6.7,6.7,0,0,1,2.551,2.221c1.612,2.845,4.555,2.96,7.142,3.96-2.7-2.812-5.356-5.672-8.135-8.393-.5-.493-1.5-.492-2.286-.6A23.041,23.041,0,0,1,214.97,40.7c-1-1.143-2.147-2.15-3.42-3.411a12.191,12.191,0,0,1,1.391-.2c4.4-.045,8.752.243,12.861,2.126a12.456,12.456,0,0,1,6.978,7.837,4.143,4.143,0,0,0,.853,1.557c3.418,3.6,6.871,7.167,10.319,10.737a2.314,2.314,0,0,0,.526.273c-.031-2.474.026-4.643-2.243-6.345a24.289,24.289,0,0,1-9.657-15.451c-.04-.219-.1-.434-.128-.654a1.128,1.128,0,0,1,.048-.319c6.07-.124,11.876,5.334,12.937,12.327.55,3.627.956,7.286,1.24,10.947a10.856,10.856,0,0,0,1.726,5.451c1.216,1.808,2.283,3.726,3.415,5.6l.52-.123a23.594,23.594,0,0,0-.388-3.265c-.738-2.851-1.712-5.638-2.371-8.507-.9-3.912-.4-7.833.286-12.007a14.507,14.507,0,0,1,6.108,11.567,34.3,34.3,0,0,1-.586,5.3c-.481,3.8-1.028,7.6-1.424,11.412a7.421,7.421,0,0,0,.616,2.4q.669,2.486,1.331,4.974l.446.108a19.091,19.091,0,0,0,.775-4.356c-.339-6.334.526-12.358,3.717-18.172a13.848,13.848,0,0,1,2.85,6.757c.624,4.656-.934,8.58-3.485,12.338a22.286,22.286,0,0,0-3.9,10.954c-.1,1.3-.206,2.608-.335,4.223,1.46-1.368,2.567-2.5,2.946-4.338a29.069,29.069,0,0,1,8.043-14.79,14.6,14.6,0,0,1-.8,12.479,18.726,18.726,0,0,1-6.632,6.637A14.181,14.181,0,0,0,254,101.237c-1.058,2.544-2.374,4.971-3.641,7.584,1.363-.072,2.524-.214,3.207-1.756a15.515,15.515,0,0,1,8.848-8.48c1.835-.716,3.623-1.564,5.66-2.451a12.858,12.858,0,0,1-3.032,8.666,15.364,15.364,0,0,1-8.158,4.661c-2.74.713-5.463,1.5-8.179,2.306a3.283,3.283,0,0,0-1.348.811c-2.605,2.637-5.177,5.308-7.755,7.973a4.185,4.185,0,0,0-.357.648c1.949-.155,3.723-.27,5.49-.463a1.5,1.5,0,0,0,.907-.607c3.927-5.454,9.389-7.641,15.666-8.178,1.475-.127,2.934-.472,4.676-.762-.188.73-.289,1.3-.478,1.827-2.274,6.4-7.674,10.048-14.945,10.178-4.416.079-8.833.176-13.244.394a6.06,6.06,0,0,0-2.769,1.024c-1.986,1.256-3.883,2.663-6.15,4.241,2.975.236,5.395.945,7.874-1.11a15.575,15.575,0,0,1,12.409-3.242c2.521.329,5.062.487,7.8.741a14.252,14.252,0,0,1-8.568,7.617c-3.938,1.246-7.75.408-11.66-.52a97.323,97.323,0,0,0-11.053-1.438,1.436,1.436,0,0,0-.761.2c-3.385,1.764-6.763,3.54-10.4,5.448,1.379.647,2.434,1.254,3.9.414A20.847,20.847,0,0,1,233.9,134.7c2.312.577,4.648,1.054,6.973,1.577l.182.53a45.185,45.185,0,0,1-5.144,3.176,22.649,22.649,0,0,1-15.688.874c-2.679-.729-5.286-1.747-7.967-2.468a5.183,5.183,0,0,0-2.878.108c-2.533.863-5.02,1.882-7.492,2.926a1.373,1.373,0,0,1-2.085-.708c-.526-1.02-1.165-1.977-1.722-2.908.138-.21.185-.362.251-.372,2.738-.408,4.194-2.351,5.263-4.774a7.415,7.415,0,0,1,.653-1.151,12.7,12.7,0,0,0,2.391-7.586,15.025,15.025,0,0,1,4.13-10.427c1.528-1.687,3.193-3.239,4.962-5.019.931,4.808,1.935,9.482.038,14.178a9.562,9.562,0,0,1-4.682,5.086,10.58,10.58,0,0,0-4.143,4.016c-.661,1.008-1.378,1.976-2.292,3.277.758-.217,1.2-.3,1.6-.466,3.131-1.274,6.243-2.6,9.392-3.826a2.756,2.756,0,0,0,1.75-2.132,34.781,34.781,0,0,0,1.6-10.822,14.611,14.611,0,0,1,1.654-6.505,53.9,53.9,0,0,1,4.268-6.536c3.784,6.874,2.251,14.263-3.43,19-1.149.959-1.454,3.027-2.347,5.029a8.826,8.826,0,0,0,1.389-.381c2.975-1.631,5.966-3.234,8.889-4.962a2.964,2.964,0,0,0,1.137-1.769,10.278,10.278,0,0,0-.29-5.742,14.462,14.462,0,0,1,.438-10.612c.761-1.816,1.563-3.613,2.391-5.521,4.9,7.18,5.349,13.945.436,19.187a6.326,6.326,0,0,0-.808,1.75l.573.5c2.941-2.525,5.957-4.965,8.749-7.659.463-.447.15-2.081-.175-3.026a11.081,11.081,0,0,0-1.687-2.42,15.913,15.913,0,0,1-3.006-10.684c.184-2.316.42-4.628.665-7.3,6.337,5.617,10.6,11.544,6.843,20.521a4.485,4.485,0,0,0,.75-.613c.722-.9,1.332-1.905,2.127-2.718,2.935-3,2.813-6.493,1.563-10.155a3.052,3.052,0,0,0-1.185-1.448c-5.244-3.347-7.362-8.853-9.473-14.889,5.105,2.351,9.852,4.568,12.518,9.729a10.984,10.984,0,0,1,.8,7.338,1.564,1.564,0,0,0,.04.969,4.892,4.892,0,0,0,.441-.82,28.75,28.75,0,0,0,1.358-11.871,2.262,2.262,0,0,0-.471-1.338c-1.645-1.463-3.107-3.126-5.408-3.686a17.61,17.61,0,0,1-9.856-6.471c-1.079-1.377-2.243-2.681-3.369-4.018l.111-.514a47.894,47.894,0,0,1,7.355,1.337,18.3,18.3,0,0,1,6.593,3.524c1.774,1.647,2.784,4.195,4.13,6.348l.44-.2c-1.061-2.823-2.1-5.655-3.208-8.457-.14-.353-.615-.59-.973-.812-.642-.4-1.336-.7-1.968-1.117a15.237,15.237,0,0,0-8.105-2.555,17.935,17.935,0,0,1-6.515-1.961A51.534,51.534,0,0,1,226.561,62.626Z" style="fill:#fff212;stroke:#221f1f;stroke-miterlimit:10;stroke-width:0.5px"/><path d="M57.28,23.98V203.86a117.72,117.72,0,0,0,235.44,0V23.98Z" style="fill:none;stroke:#000;stroke-miterlimit:10"/></svg>