<?xml version="1.0" encoding="UTF-8" standalone="no"?>
<svg
   xmlns:dc="http://purl.org/dc/elements/1.1/"
   xmlns:cc="http://creativecommons.org/ns#"
   xmlns:rdf="http://www.w3.org/1999/02/22-rdf-syntax-ns#"
   xmlns:svg="http://www.w3.org/2000/svg"
   xmlns="http://www.w3.org/2000/svg"
   xmlns:xlink="http://www.w3.org/1999/xlink"
   xmlns:sodipodi="http://sodipodi.sourceforge.net/DTD/sodipodi-0.dtd"
   xmlns:inkscape="http://www.inkscape.org/namespaces/inkscape"
   width="607.627"
   height="861.184"
   viewBox="0 0 160.768 227.855"
   version="1.1"
   id="svg331"
   sodipodi:docname="Seal_of_the_City_of_Salatiga (1) (1).svg"
   inkscape:version="1.0.1 (3bc2e813f5, 2020-09-07)">
  <metadata
     id="metadata335">
    <rdf:RDF>
      <cc:Work
         rdf:about="">
        <dc:format>image/svg+xml</dc:format>
        <dc:type
           rdf:resource="http://purl.org/dc/dcmitype/StillImage" />
      </cc:Work>
    </rdf:RDF>
  </metadata>
  <sodipodi:namedview
     pagecolor="#ffffff"
     bordercolor="#666666"
     borderopacity="1"
     objecttolerance="10"
     gridtolerance="10"
     guidetolerance="10"
     inkscape:pageopacity="0"
     inkscape:pageshadow="2"
     inkscape:window-width="1366"
     inkscape:window-height="705"
     id="namedview333"
     showgrid="false"
     inkscape:zoom="0.70937044"
     inkscape:cx="205.5331"
     inkscape:cy="545.89857"
     inkscape:window-x="-8"
     inkscape:window-y="-8"
     inkscape:window-maximized="1"
     inkscape:current-layer="svg331" />
  <style
     id="style2"><![CDATA[.a{stroke-opacity:1}.b{fill:#fff}.c{stroke-width:.665}.d{fill:none}.e{stroke:#3f3f3f}.f{fill:#009b4c}.g{stroke:#006c35}.h{stroke-width:.565}.i{fill:#3f3f3f}.j{fill-rule:evenodd}.k{opacity:.997}.l{stroke-width:.465}.m{stroke-linecap:round}.n{stroke-width:.265}.o{opacity:.995}.p{stroke-dasharray:none}.q{stroke-linejoin:miter}.r{stroke-miterlimit:4}.s{stroke:#424200}.t{stroke-width:2.513}.u{stroke-width:.688}.v{stroke-width:.989}.w{stroke-width:.889}.x{stroke-width:.842}.y{stroke-width:.709}]]></style>
  <defs
     id="defs107">
    <linearGradient
       id="linearGradient1168"
       x1="45.422"
       y1="193.229"
       x2="118.139"
       y2="193.229"
       gradientUnits="userSpaceOnUse"
       spreadMethod="pad">
      <stop
         offset="0"
         stop-color="#ff0"
         id="stop1162" />
      <stop
         offset=".504"
         stop-color="#ffffb5"
         id="stop1164"
         style="stop-color:#ffff62;stop-opacity:1" />
      <stop
         offset="1"
         stop-color="#ff0"
         id="stop1166" />
    </linearGradient>
    <linearGradient
       id="A"
       gradientUnits="userSpaceOnUse"
       spreadMethod="pad">
      <stop
         offset="0"
         stop-color="#fffaa2"
         id="stop4" />
      <stop
         offset="1"
         stop-color="#ffee0a"
         id="stop6" />
    </linearGradient>
    <pattern
       xlink:href="#F"
       id="B"
       patternTransform="matrix(0.24217559,0,0,0.24217559,299.57692,123.12126)" />
    <radialGradient
       id="C"
       cx="104.98"
       cy="137.641"
       fx="104.98"
       fy="137.641"
       r="74.884"
       gradientTransform="matrix(0.34962833,0,0,0.35887073,43.660034,3.962892)"
       gradientUnits="userSpaceOnUse">
      <stop
         offset="0"
         stop-color="#42c5ff"
         id="stop10" />
      <stop
         offset="1"
         stop-color="#00a2e9"
         id="stop12" />
    </radialGradient>
    <linearGradient
       id="D"
       x1="45.422"
       y1="193.229"
       x2="118.139"
       y2="193.229"
       gradientUnits="userSpaceOnUse"
       spreadMethod="pad">
      <stop
         offset="0"
         stop-color="#ff0"
         id="stop15" />
      <stop
         offset=".504"
         stop-color="#ffffb5"
         id="stop17" />
      <stop
         offset="1"
         stop-color="#ff0"
         id="stop19" />
    </linearGradient>
    <linearGradient
       xlink:href="#A"
       id="E"
       x1="67.142"
       y1="118.26"
       x2="104.44"
       y2="118.26" />
    <pattern
       patternUnits="userSpaceOnUse"
       width="64.663"
       height="191.277"
       patternTransform="translate(1039.266,256.8664)"
       id="F">
      <path
         d="M1.283 2.141l-.02 82.758c2.125 3.417.329 7.51 8.611 9.727-5.105 1.356-8.679 3.752-8.617 8.615l1.102 48.01c1.073 20.654 14.474 38.77 29.973 38.77s28.902-18.116 29.975-38.77l1.1-48.01c.062-4.863-3.512-7.259-8.617-8.615 8.282-2.216 6.489-6.31 8.613-9.727l-.02-82.758c-12.733 7.114-21.9 15.247-31.051 23.385C23.181 17.389 14.016 9.256 1.283 2.141z"
         fill="#008d62"
         fill-opacity="1"
         stroke="#007a55"
         class="a p q r t"
         id="path23" />
      <g
         stroke="#f5c742"
         class="d"
         id="g93">
        <g
           transform="matrix(3.779528 0 0 3.779528 -1132.3028 -517.86725)"
           class="l m p q r"
           id="g29">
          <path
             d="M305.193 185.127l2.155-.191.218-2.073"
             class="a"
             id="path25" />
          <path
             d="M305.166 181.882l3.3 4.5"
             class="a"
             id="path27" />
        </g>
        <g
           class="l m p q r"
           id="g91">
          <g
             transform="matrix(3.779528 0 0 3.779528 -1113.644 -532.15289)"
             id="g35">
            <path
               d="M305.193 185.127l2.155-.191.218-2.073"
               class="a"
               id="path31" />
            <path
               d="M305.166 181.882l3.3 4.5"
               class="a"
               id="path33" />
          </g>
          <g
             transform="matrix(3.779528 0 0 3.779528 -1142.6526 -546.14699)"
             id="g41">
            <path
               d="M305.193 185.127l2.155-.191.218-2.073"
               class="a"
               id="path37" />
            <path
               d="M305.166 181.882l3.3 4.5"
               class="a"
               id="path39" />
          </g>
          <g
             transform="matrix(3.779528 0 0 3.779528 -1120.9326 -560.28687)"
             id="g47">
            <path
               d="M305.193 185.127l2.155-.191.218-2.073"
               class="a"
               id="path43" />
            <path
               d="M305.166 181.882l3.3 4.5"
               class="a"
               id="path45" />
          </g>
          <g
             transform="matrix(3.779528 0 0 3.779528 -1105.335 -571.65707)"
             id="g53">
            <path
               d="M305.193 185.127l2.155-.191.218-2.073"
               class="a"
               id="path49" />
            <path
               d="M305.166 181.882l3.3 4.5"
               class="a"
               id="path51" />
          </g>
          <g
             transform="matrix(3.779528 0 0 3.779528 -1148.0461 -625.88421)"
             id="g59">
            <path
               d="M305.193 185.127l2.155-.191.218-2.073"
               class="a"
               id="path55" />
            <path
               d="M305.166 181.882l3.3 4.5"
               class="a"
               id="path57" />
          </g>
          <g
             transform="matrix(3.779528 0 0 3.779528 -1129.8246 -633.31858)"
             id="g65">
            <path
               d="M305.193 185.127l2.155-.191.218-2.073"
               class="a"
               id="path61" />
            <path
               d="M305.166 181.882l3.3 4.5"
               class="a"
               id="path63" />
          </g>
          <g
             transform="matrix(3.779528 0 0 3.779528 -1104.1688 -628.79965)"
             id="g71">
            <path
               d="M305.193 185.127l2.155-.191.218-2.073"
               class="a"
               id="path67" />
            <path
               d="M305.166 181.882l3.3 4.5"
               class="a"
               id="path69" />
          </g>
          <g
             transform="matrix(3.779528 0 0 3.779528 -1122.8276 -654.89281)"
             id="g77">
            <path
               d="M305.193 185.127l2.155-.191.218-2.073"
               class="a"
               id="path73" />
            <path
               d="M305.166 181.882l3.3 4.5"
               class="a"
               id="path75" />
          </g>
          <g
             transform="matrix(3.779528 0 0 3.779528 -1109.8539 -674.71779)"
             id="g83">
            <path
               d="M305.193 185.127l2.155-.191.218-2.073"
               class="a"
               id="path79" />
            <path
               d="M305.166 181.882l3.3 4.5"
               class="a"
               id="path81" />
          </g>
          <g
             transform="matrix(3.779528 0 0 3.779528 -1146.5884 -665.09685)"
             id="g89">
            <path
               d="M305.193 185.127l2.155-.191.218-2.073"
               class="a"
               id="path85" />
            <path
               d="M305.166 181.882l3.3 4.5"
               class="a"
               id="path87" />
          </g>
        </g>
      </g>
    </pattern>
    <linearGradient
       xlink:href="#A"
       id="G"
       x1="103.362"
       y1="180.222"
       x2="85.156"
       y2="180.222" />
    <linearGradient
       xlink:href="#A"
       id="H"
       x1="136.562"
       y1="184.272"
       x2="83.078"
       y2="184.272" />
    <linearGradient
       xlink:href="#A"
       id="I"
       x1="63.024"
       y1="123.631"
       x2="98.117"
       y2="123.631" />
    <linearGradient
       xlink:href="#linearGradient1168"
       id="J"
       x1="275.605"
       y1="238.865"
       x2="302.366"
       y2="263.892" />
    <linearGradient
       xlink:href="#D"
       id="K"
       x1="145.04"
       y1="171.805"
       x2="113.089"
       y2="198.828" />
    <path
       id="L"
       d="M23.488 43.831c4.338 8.327 3.041 14.222.744 19.683-2.035-3.846-6.193-4.468-.744-19.683z" />
    <path
       id="M"
       d="M23.561 68.361c3.476 6.69 2.437 11.425.596 15.813-1.631-3.09-4.961-3.589-.596-15.813z" />
    <path
       id="N"
       d="M252.12 112.887c4.338 8.327 3.041 14.222.744 19.683-3.964-8.139-1.784-6.842-.744-19.683z" />
    <path
       id="O"
       d="M248.22 110.29c10.901 10.888 7.046 16.859 4.644 22.28-8.584-12.634-1.509-13.877-4.644-22.28z" />
    <path
       id="P"
       d="M127.541 56.483l8.213 3.722 7.93-3.601c1.015-.28 2.475-1.659 1.457-3.439 1.061-3.248-.609-6.269-3.682-6.635-.45-3.955-9.625-7.696-11.976-.202-2.175-.284-7.316 2.01-4.815 7.081-.36 1.302 1.667 2.688 2.873 3.075z" />
    <path
       id="Q"
       d="M127.096 56.807c2.552 2.028 2.571 5.866 7.849 5.948 2.093.687 4.681-.061 9.023-5.907-2.128.039-3.624-1.548-6.433.243-.595-2.607-1.519-3.239-2.306-4.693-1.028 1.335-2.26 2.575-1.942 4.532-2.141-1.753-4.151-.602-6.19-.121z" />
    <linearGradient
       inkscape:collect="always"
       xlink:href="#D"
       id="linearGradient1160"
       gradientUnits="userSpaceOnUse"
       x1="25.841999"
       y1="182.44901"
       x2="134.92599"
       y2="182.44901"
       spreadMethod="pad" />
  </defs>
  <path
     d="M5.5 34.169h149.768V136.92c-.545 9.412-5.055 27.734-16.596 45.056-11.481 17.23-29.802 33.581-58.287 40.224-28.485-6.644-46.807-22.994-58.287-40.224-11.541-17.322-16.052-35.643-16.596-45.056z"
     fill="url(#C)"
     id="path109" />
  <path
     d="M5.5 5.501h149.768v23.668H5.5z"
     opacity=".998"
     class="j"
     id="path111" />
  <path
     d="M67.81 47.557l7.524 5.548-.003.012"
     fill="#ffeba3"
     id="path113" />
  <g
     stroke="#000"
     id="g137">
    <g
       fill="#ff0"
       id="g121">
      <path
         d="M83.607 47.543l-3.222-9.196-.014.043-3.189 9.139-.005.013-9.415-.021.047.035 7.521 5.561-2.748 9.242.059-.039 7.73-5.56.014-.012 7.811 5.272-.005-.017-2.873-8.987.003-.001 7.682-5.485.014-.01-9.387.021z"
         stroke-width=".892"
         id="path115" />
      <path
         d="M38.864 7.136l-2.908.023-2.909.023-2.756 10.307-2.758 10.416c-.002.084.495.109 2.205.109h2.207l.05-.195.544-2.057.494-1.862 3.049-.023 3.049-.023.086.326.441 1.755.441 1.754.085.325h2.168c2.024 0 2.165-.01 2.123-.151a8237.75 8237.75 0 0 1-2.696-9.983L38.996 7.593zm9.281.003v10.438 10.438h7.363 7.362v-1.646-1.646h-4.937-4.937v-8.792-8.792h-2.425zm24.116 0l-2.757 10.328-2.799 10.438c-.032.085.444.109 2.207.109h2.248l.264-1.018.544-2.078.281-1.061h3.055 3.055l.502 2.079.502 2.079h2.186 2.186l-.153-.542-2.827-10.438-2.673-9.896h-2.91zm12.004 0v1.646 1.645h3.075 3.075v8.792 8.792h2.598 2.598l.022-8.77.022-8.771 2.967-.023 2.967-.023V8.782 7.138h-8.662zm20.096 0v10.438 10.438h2.425 2.425V17.576 7.138h-2.425zm36.756 0l-2.756 10.329-2.796 10.438c-.031.085.446.109 2.201.109h2.241l.469-1.797.545-2.08.076-.283 3.049.023 3.049.023.519 2.057.519 2.057h2.155 2.154l-.043-.224c-.024-.123-1.285-4.82-2.802-10.438l-2.76-10.213h-2.909zm-127.012.01c-2.105.001-3.148.026-3.423.079-.987.189-1.69.724-2.184 1.662l-.241.458-.025 4.017c-.022 3.518-.008 4.069.115 4.44.19.572.861 1.294 1.445 1.555.453.203.486.205 4.484.251 4.405.051 4.381.048 4.861.575.314.345.427.727.484 1.635.097 1.556-.274 2.299-1.295 2.596-.412.12-.813.14-2.311.117-1.671-.026-1.831-.042-2.052-.206-.382-.285-.569-.595-.617-1.024l-.045-.4H10.75 8.199l.03 1.451c.029 1.384.04 1.471.267 1.902.465.886 1.116 1.418 2.003 1.637.337.083 1.76.105 5.946.093l5.502-.016.577-.284c.705-.347 1.288-.965 1.536-1.629.169-.45.178-.652.174-3.829-.005-3.885-.07-5.01-.32-5.577a3.08 3.08 0 0 0-1.185-1.312c-.343-.184-.459-.19-4.337-.239-4.093-.051-4.291-.068-4.868-.422-.5-.307-.561-.545-.53-2.082.04-2.018.006-1.994 2.948-1.993 1.109 0 2.16.04 2.334.088.354.098.825.577.894.908l.089.431.045.217h2.467 2.467v-1.339c0-1.139-.027-1.411-.178-1.815-.248-.663-.831-1.282-1.536-1.629l-.577-.284-5.372-.027-2.469-.006zm101.213.034l-.491.23c-.966.453-1.612 1.272-1.796 2.276-.131.714-.13 15.066 0 15.773.052.281.172.663.266.847.388.761 1.221 1.417 2.043 1.611.179.042 3.23.08 6.782.085 5.538.007 6.53-.01 6.973-.124h.001c.674-.173 1.338-.635 1.717-1.194.576-.851.575-.84.575-6.311v-4.922h-5.154-5.154v2.166 2.165h3.162 3.162l-.001 1.191c-.001 1.075-.021 1.234-.209 1.639-.262.563-.808 1.098-1.454 1.424-.891.45-1.301.51-3.461.51-1.773 0-2.019-.017-2.444-.177-.646-.242-1.608-1.136-1.933-1.798l-.242-.494v-4.764c0-4.475.01-4.79.165-5.197.255-.671.611-1.131 1.03-1.334.361-.175.5-.182 3.618-.18 2.974.002 3.272.016 3.597.163.412.187.694.593.778 1.117l.058.364h2.241 2.241v-1.151c0-1.365-.135-1.994-.566-2.625-.346-.506-.847-.89-1.469-1.127-.412-.157-.759-.165-7.233-.165zm-40.03 5.241a408.13 408.13 0 0 1 2.221 7.859c0 .085-.473.11-2.117.11-1.164 0-2.136-.031-2.16-.069s.418-1.86.982-4.049 1.047-3.922 1.074-3.85zm68.842.026c.071.133 2.241 7.738 2.241 7.855 0 .108-4.212.123-4.278.016-.024-.04.411-1.85.968-4.023s1.038-3.904 1.069-3.847zm-108.128.017c.079.081.522 1.504 1.185 3.813l1.108 4.048c-.019.036-.988.065-2.152.065-1.922 0-2.117-.013-2.117-.145 0-.119 1.789-7.202 1.965-7.779z"
         stroke-width=".287"
         id="path117" />
      <path
         d="M.5.5V3v134.092l.004.071c.602 10.581 5.315 29.4 17.432 47.585s31.763 35.609 61.893 42.468l.555.127.555-.127c30.131-6.859 49.777-24.283 61.893-42.468s16.829-37.004 17.431-47.585l.004-.071V.5H80.384zm5 5h74.884 74.884v23.668H5.5zm0 28.668h149.768v102.751c-.545 9.412-5.055 27.734-16.596 45.056-11.481 17.23-29.802 33.581-58.287 40.224-28.485-6.644-46.807-22.994-58.287-40.224-11.541-17.322-16.052-35.643-16.596-45.056z"
         id="path119" />
    </g>
    <g
       stroke-width=".556"
       id="g135">
      <path
         d="M291.505 245.578l-.416 6.447-6.967-.52c5.535 8.082 16.877 14.283 21.838 16.378l3.88-9.394z"
         fill="url(#J)"
         transform="translate(-258.28 -69.056)"
         id="path123"
         style="fill:#ffff00;fill-opacity:1" />
      <path
         d="M45.57 180.805l-6.949 9.731c1.45 2.407 3.456 5.216 9.059 8.292l3.88-9.394c-4.028-4.012-5.256-6.458-5.989-8.629z"
         fill="#efef00"
         id="path125"
         style="fill:#d1d100;fill-opacity:1" />
      <path
         d="M127.543 176.522l.416 6.447 6.967-.52c-5.535 8.082-16.877 14.283-21.838 16.378l-3.88-9.394z"
         fill="url(#K)"
         id="path127"
         style="fill:#ffff00;fill-opacity:1" />
      <path
         d="M115.198 180.805l6.949 9.731c-1.45 2.407-3.456 5.216-9.059 8.292l-3.88-9.394c4.028-4.012 5.256-6.458 5.989-8.629z"
         fill="#efef00"
         id="path129"
         style="fill:#d1d100;fill-opacity:1" />
      <path
         d="M45.57 180.805l-.412.577-6.538 9.154.58.411c11.949 8.465 26.521 13.229 41.183 13.229s29.233-4.764 41.182-13.229l.581-.411-6.95-9.731-.577.412a58.91 58.91 0 0 1-68.474 0z"
         fill="url(#D)"
         class="j k"
         id="path131"
         style="fill:url(#linearGradient1160);fill-opacity:1.0" />
      <path
         d="M45.916 182.76a60.31 60.31 0 0 0 68.936 0l5.299 7.42c-11.6 8.04-25.65 12.58-39.767 12.58s-28.167-4.54-39.767-12.58z"
         class="d k"
         id="path133"
         style="fill:#ffff00;fill-opacity:1" />
    </g>
  </g>
  <g
     fill="#494396"
     stroke="#211e44"
     stroke-width=".595"
     id="g143">
    <path
       d="M139.256 121.089H28.857c11.241-5.388 18.806-8.453 33.891-16.965 3.182-1.451 15.397 4.131 23.263 4.408 7.743 1.643 14.712 5.712 22.42 7.471 9.566 3.301 19.789 3.464 29.684 5.136l.57-.025.57-.025z"
       id="path139" />
    <path
       d="M28.857 121.089c4.885-1.327 10.157-1.488 14.618-4.042 4.566-.958 9.025-2.293 13.215-4.38 3.457-1.902 6.973-3.624 10.857-4.431 4.122-1.145 7.947-3.119 11.464-5.519 4.381-1.361 8.864-3.709 13.492-3.44 4.425 1.542 9.315 1.656 13.225 4.508 5.048 3.462 18.426 15.791 32.38 17.303z"
       id="path141" />
  </g>
  <g
     class="s n"
     id="g153">
    <g
       transform="translate(-24.616 -69.056)"
       class="j"
       id="g149">
      <path
         d="M122.73 181.885c0-3.044-7.938-5.511-17.73-5.511s-17.73 2.468-17.73 5.511v2.184m0 0c0-3.044 7.938-5.511 17.73-5.511s17.73 2.468 17.73 5.511v-2.184"
         fill="url(#G)"
         class="k"
         id="path145" />
      <path
         d="M122.73 184.069c0-3.044-7.938-5.511-17.73-5.511s-17.73 2.468-17.73 5.511l.783.559c2.231-2.251 8.974-3.886 16.947-3.886 7.778 0 14.387 1.557 16.776 3.723l.954-.395"
         fill="url(#H)"
         class="k"
         id="path147" />
    </g>
    <path
       d="M80.384 111.685c7.295 0 13.561 1.369 16.282 3.326-2.72 1.958-8.985 3.329-16.282 3.329s-13.56-1.37-16.281-3.328c2.721-1.957 8.985-3.327 16.281-3.327zm16.933 1.689a3.38 3.38 0 0 1 .437.528 3.38 3.38 0 0 0-.437-.528z"
       fill="#fff131"
       class="o"
       id="path151" />
  </g>
  <g
     transform="translate(-227.63 -69.056)"
     id="g177">
    <g
       stroke="#003726"
       id="g159">
      <path
         d="M307.866 148.801l4.409-5.563c.05-3.547-3.015-7.494-4.627-9.873-2.101 3.461-4.281 6.351-5.945 7.636z"
         fill="url(#B)"
         class="c"
         id="path155" />
      <path
         d="M1040.549 259.008l-.02 82.758c2.125 3.417.329 7.51 8.611 9.727-5.105 1.356-8.679 3.752-8.617 8.615l1.102 48.01c1.073 20.654 14.474 38.77 29.973 38.77s28.902-18.116 29.975-38.77l1.1-48.01c.062-4.863-3.512-7.259-8.617-8.615 8.282-2.216 6.489-6.31 8.613-9.727l-.02-82.758c-12.733 7.114-21.9 15.247-31.051 23.385-9.151-8.138-18.316-16.271-31.049-23.385z"
         transform="matrix(.264583 0 0 .264583 24.615987 69.056475)"
         fill="url(#F)"
         class="t"
         id="path157" />
    </g>
    <g
       fill="#ff0"
       class="s"
       id="g169">
      <path
         d="M315.786 160.827c1.463.155 1.224 1.862 0 2.021-8.018.749-11.033.337-15.39.136-1.56-.149-1.542-2.237 0-2.132 5.699.525 10.854.54 15.39-.026z"
         class="l"
         id="path161" />
      <g
         class="n"
         id="g167">
        <path
           d="M307.557 162.297l2.584 3.934 1.62-1.196c-.884-.863-2.297-2.192-2.912-3.49-.406.29-.857.51-1.292.752z"
           id="path163" />
        <path
           d="M304.356 164.861l3.394-3.529c1.288-1.293 1.855-.212 1.408.386-1.454 1.433-2.34 2.867-3.028 4.3z"
           id="path165" />
      </g>
    </g>
    <g
       stroke="#f5c742"
       class="d l m"
       id="g175">
      <path
         d="M301.143 169.16l2.155-.191.218-2.073"
         id="path171" />
      <path
         d="M301.116 165.915l3.3 4.5"
         id="path173" />
    </g>
  </g>
  <g
     class="n s"
     id="g183">
    <path
       d="M64.353 116.925c1.315 8.088 7.461 13.006 16.031 13.006s14.716-4.918 16.031-13.006l-16.031 2.564z"
       fill="url(#I)"
       class="o"
       id="path179" />
    <path
       d="M62.654 115.013c0 3.044 7.938 5.511 17.73 5.511s17.73-2.468 17.73-5.511v-2.184c0 3.044-7.938 5.511-17.73 5.511s-17.73-2.468-17.73-5.511z"
       fill="url(#E)"
       class="j k"
       id="path181" />
  </g>
  <g
     stroke="#000"
     id="g199">
    <g
       stroke-width=".083"
       id="g189">
      <path
         d="M97.277 124.93h-.002a22.49 22.49 0 0 0-1.83.06l-.625.052.964.847c2.092 1.839 2.468 2.551 1.928 3.649-.143.29-.336.597-.429.681-.166.15-.179.145-.65-.305-.592-.564-1.093-.773-1.726-.721-.552.046-1.001.351-1.214.826l-.143.32-.308-.404c-.245-.321-.617-.64-1.044-.895-.015-.009.063-.161.172-.337.244-.394.518-1.036.645-1.517l.142-.48c.034-.089-.025-.121-.234-.123l-.281-.003c-1.643.054-2.653.437-3.182 1.514H71.707c-.536-.799-1.212-1.486-2.706-1.514l-.564.003c-.489.003-.564.023-.564.155 0 .236.391 1.329.625 1.748l.211.408c0 .017-.101.031-.224.031-.625 0-1.457.732-2.131 1.877-.372.631-.378.636-.502.446-.069-.106-.154-.379-.188-.608-.074-.496-.319-1.005-.625-1.295-.122-.116-.289-.389-.371-.606-.144-.383-.864-1.148-1.086-1.154-.052-.002-.196-.168-.318-.37-.252-.416-.963-.878-1.352-.879-.133-.001-.351-.095-.491-.214-.64-.538-1.149-.645-3.029-.634l-1.434.004c-.855 0-1.176.098-1.633.499-.164.144-.369.261-.458.261-.306 0-1.027.429-1.257.749a1.33 1.33 0 0 1-.507.418c-.606.219-1.268 1.095-1.27 1.681 0 .119-.081.288-.179.376-.231.205-.486.761-.488 1.065 0 .149-.111.366-.297.583-.402.47-.592 1.133-.48 1.678a1.39 1.39 0 0 1-.035.794c-.134.433-.096.932.107 1.406.076.178.141.587.151.942.018.679.137.99.535 1.391a2.78 2.78 0 0 1 .425.63 2.68 2.68 0 0 0 .517.689l.329.298.003.731c0 .553.043.823.171 1.107a2.76 2.76 0 0 0 1.097 1.176c.514.265.953 1.352 1.192 2.95.116.775.115.839-.026 1.044a2.25 2.25 0 0 0-.342 1.782c.086.358.193.527.573.901s.533.614.829 1.311c.673 1.583 1.586 3.021 2.49 3.925.6.6 1.591 1.12 2.545 1.336l.593.134-.05.25c-.028.138-.05.618-.05 1.067v.817l-.362.212c-.455.267-1.294 1.156-1.596 1.693-.323.573-.694 1.729-.763 2.372-.052.48-.091.57-.339.779-.67.561-1.46 1.823-1.815 2.897-.378 1.144-.362 2.33.044 3.275.171.397.17.409.016.579-.129.142-.165.35-.199 1.147-.023.544-.088 1.053-.146 1.155-.24.421-.091 1.067.353 1.53l.28.293v9.657h44.164 1.451 1.451v-9.981l.211-.277c.294-.386.347-.933.125-1.309a.67.67 0 0 1-.098-.61c.04-.176.097-.64.126-1.031a5.93 5.93 0 0 1 .27-1.337c.31-.896.307-2.097-.008-3.049s-.926-1.984-1.582-2.669c-.439-.459-.564-.644-.565-.839 0-.471-.34-1.67-.649-2.298-.386-.782-1.255-1.722-1.902-2.058l-.46-.239.062-.585a15.04 15.04 0 0 0 .061-1.295v-.71l.714-.418c.49-.287.979-.679 1.561-1.253.876-.864 1.374-1.552 1.91-2.635.278-.563.351-.646.683-.784a3.13 3.13 0 0 0 1.346-1.322c.233-.499.245-1.164.029-1.588l-.156-.306.379-.568c.345-.516 1.09-1.31 2.246-2.392a2.41 2.41 0 0 0 .842-1.78c.058-.862-.09-1.4-.446-1.62-.213-.132-.294-.249-.33-.482-.123-.791-.199-.932-.671-1.234-.336-.215-.504-.394-.643-.685-.165-.345-.264-.432-.789-.696a5.67 5.67 0 0 1-.994-.648c-.465-.409-1.002-.594-1.861-.64l-.615-.033-.752-.687c-.72-.658-.744-.691-.555-.768.312-.127 2.061-.114 2.536.019.811.226 1.507.667 2.598 1.646l1.092.925c.061-.061-.408-3.056-.598-3.816-.513-2.057-1.391-3.764-2.63-5.115-1.38-1.505-3.517-2.605-5.637-2.899-.34-.047-.925-.073-1.556-.076zm-39.637 4.497l.793.044c.918.046 1.492.194 1.823.474.146.123.339.247.429.276a.37.37 0 0 1 .213.209c.028.086.199.305.38.487s.33.375.33.428.061.216.136.361c.207.4.385 1.298.37 1.862-.008.278.025.607.073.734.073.193.054.283-.122.561-.115.182-.241.331-.28.331s-.201.088-.36.196c-.396.269-.63.296-1.071.126-.328-.127-.718-.146-3.049-.152l-2.674-.007-.149-.323c-.104-.226-.133-.421-.096-.65a1.75 1.75 0 0 0-.028-.62c-.1-.362.118-1.314.366-1.597.308-.351.362-.451.471-.863.149-.563.457-.996.795-1.118a2.12 2.12 0 0 0 .547-.331c.236-.204.874-.45 1.102-.425zm37.491 4.782c.02.006.059.069.136.195.443.727 1.467 1.201 2.369 1.095l.441-.052.729.671.728.671-.243.336c-.308.425-.456 1.12-.388 1.827.029.299.202 1.108.385 1.797l.386 1.76.052.507-.385.147c-.77.294-1.406 1.145-1.521 2.035-.052.401-.135.537-.229.376-.039-.067-.236-1.219-.394-2.304-.316-2.174-1.503-3.694-3.441-4.404l-.551-.212c-.015-.011.149-.258.364-.55.782-1.062 1.534-2.89 1.542-3.747 0-.103.003-.154.021-.149zm-29.314 2.579c.015.019.129.222.252.452a11.93 11.93 0 0 0 .715 1.086l.491.668-.305.159c-.845.439-1.923 1.427-2.526 2.313a8.72 8.72 0 0 0-1.171 2.63l-.209.85c-.059.205-.177.099-.28-.251a3.02 3.02 0 0 0-.919-1.42c-.401-.361-.413-.385-.336-.665.044-.16.273-.606.509-.993.53-.868 1.056-1.941 1.12-2.283.038-.2.141-.309.463-.488.285-.159.503-.37.699-.677.175-.274.386-.488.544-.554.142-.059.408-.277.591-.484s.345-.363.36-.344z"
         id="path185" />
      <path
         d="M97.026 125.43a6.95 6.95 0 0 0-.363.003l-.745.026.751.599c.788.629 1.348 1.274 1.586 1.828.222.517.191 1.325-.071 1.834s-.878 1.295-1.015 1.295c-.055 0-.287-.192-.515-.428-.647-.668-1.073-.909-1.607-.909-.385 0-.484.035-.694.244a.69.69 0 0 0-.244.589c0 .472.137.696.864 1.414.56.553.618.639.549.82-.199.522.01 1.362.436 1.753.11.101.385.266.612.366.351.155.507.175 1.05.133l.637-.049 1.832 1.681 1.857 1.742c.014.034-.087.191-.224.347s-.271.376-.299.488c-.073.298.269.916.64 1.155.198.127.329.287.363.443.079.36.608.877.966.945.246.046.325.115.444.384.141.32.592.745.791.745.055 0 .169.162.254.36.166.387.568.779.88.858.184.046.17.078-.328.739-.287.38-.626.885-.755 1.121s-.258.43-.286.43a9.76 9.76 0 0 1-.661-.169c-1.008-.279-1.568-.612-2.339-1.391l-.696-.704.066-.435c.127-.832.041-1.599-.346-3.105-.433-1.683-.479-2.336-.197-2.799l.176-.288-.188-.153c-.177-.144-.197-.144-.345-.01-.086.078-.217.349-.291.602-.176.607-.119 1.107.316 2.75.277 1.044.349 1.468.356 2.065l.009.752-.377.043a1.96 1.96 0 0 0-.678.23c-.55.34-.966 1.18-.884 1.788.041.302.022.343-.24.512-.282.183-.356.403-.212.631.057.09.143.067.425-.111.194-.123.361-.211.37-.196a10.41 10.41 0 0 0 1.503 1.667c.678.571 1.871 1.204 2.429 1.288.208.031.378.091.378.133 0 .154-.534 1.132-.939 1.72-.498.722-1.442 1.64-2.093 2.035-.439.266-.472.308-.474.602-.002.302.007.312.186.218.103-.054.458-.285.79-.512 1.132-.778 2.161-2.015 2.845-3.42.301-.619.328-.647.772-.815.69-.261 1.263-.841 1.424-1.441a.91.91 0 0 0-.043-.696c-.074-.194-.209-.42-.299-.502-.163-.147-.162-.152.056-.532.449-.782 1.12-1.584 2.067-2.468.779-.727.993-.976 1.072-1.25.054-.188.153-.427.219-.531.271-.429-.095-1.386-.621-1.626-.146-.066-.2-.159-.2-.339 0-.366-.283-.761-.705-.985-.226-.12-.391-.273-.421-.39-.082-.327-.615-.847-.929-.906-.218-.041-.328-.13-.468-.379-.218-.388-.427-.536-1.057-.747-.622-.208-.752-.211-.572-.012.126.14.124.161-.037.298-.194.166-.003.321-2.297-1.878l-.929-.89.303-.087c.751-.216 1.369-.3 2.182-.297.73.002.988.04 1.536.228.735.252 1.542.744 2.206 1.345.243.22.455.386.471.368s-.024-.389-.089-.825c-.824-5.554-3.819-8.792-8.573-9.273-.388-.039-.911-.067-1.321-.072zm-38.595.664c-.207 0-.417.053-.627.16-.312.159-.349.161-.663.035-.513-.205-1.004-.099-1.409.306-.21.21-.403.326-.541.326-.373 0-.887.31-1.106.667-.154.25-.289.358-.535.426-.181.05-.45.212-.598.36-.271.271-.502.884-.416 1.107.027.071-.071.222-.24.371-.32.281-.498.717-.444 1.086.03.202-.015.284-.251.464-.476.363-.667 1.121-.409 1.617.094.18.086.253-.053.526a1.42 1.42 0 0 0 .123 1.407c.195.253.2.284.09.618-.162.493-.031.937.39 1.317.178.161.368.426.422.589.126.383.376.695.68.853.242.125.243.13.244.897 0 .424.04.913.088 1.086.109.394.532.884.892 1.035.719.3 1.435 2.125 1.582 4.033.046.59.033.657-.173.961-.278.41-.333.627-.28 1.103.046.41.37.835.698.918.132.033.232.186.366.561.555 1.552 1.69 3.478 2.583 4.386.774.786 2.049 1.326 2.942 1.245.446-.04.496-.03.445.093-.237.572-.323 1.141-.323 2.118v1.06l-.337.151c-.543.243-1.398 1.147-1.753 1.853-.349.694-.632 1.697-.632 2.24 0 .341-.044.411-.711 1.124-1.32 1.411-1.912 3.082-1.627 4.593.212 1.124 1.02 2.253 2.19 3.059 1.205.83 1.765 1.029 3.35 1.191 1.571.16 3.094-.093 5.052-.839 1.911-.728 2.189-.824 2.189-.748 0 .155.546.696.816.809.212.088.352.095.603.027.547-.147.821-.44 1.034-1.104.101-.314.843.115 1.975 1.143 1.344 1.221 1.911 1.478 2.614 1.184v.001c1.128-.471 1.988-3.277 1.879-6.128-.036-.93-.063-1.075-.284-1.506-.184-.36-.344-.538-.653-.73-.363-.225-.495-.257-1.168-.282-.633-.023-1.034.029-2.419.314-.913.188-1.722.341-1.796.341s-.211-.139-.303-.31a1.41 1.41 0 0 0-.442-.469c-.483-.28-1.353-.168-1.671.215-.08.096-.25.04-1.009-.331-1.073-.525-1.431-.866-1.633-1.559-.167-.575-.092-.738.45-.979l.373-.166.629.286c.346.157 1.175.445 1.841.639 1.495.436 2.075.695 2.699 1.204l.486.396.559-.126c1.968-.445 3.389-.151 4.472.925.388.386.589.692.978 1.496.579 1.194.663 1.288.908 1.025.096-.103.174-.221.174-.262s.167-.424.372-.851c.587-1.223 1.393-1.99 2.469-2.353.623-.21 1.969-.208 2.907.005l.694.157.35-.334c.193-.184.489-.416.657-.516.303-.181 2.472-.93 2.691-.93.069 0 .136.136.17.347.145.91.936 1.365 1.526.878l.236-.195.271.185c.329.226.335.22-.792.768-.725.352-.87.397-.954.296-.321-.387-1.189-.5-1.674-.219a1.41 1.41 0 0 0-.442.469c-.092.17-.228.309-.303.31s-.864-.15-1.754-.333c-2.024-.417-2.828-.444-3.478-.121-.882.439-1.168 1.3-1.082 3.253.134 3.02 1.038 5.145 2.248 5.282.618.07.903-.106 2.691-1.661.613-.532.998-.775 1.328-.836.114-.021.182.057.268.306.23.665 1.003 1.084 1.566.849.154-.064.42-.281.592-.481l.312-.364.602.221 1.497.563c1.955.747 3.479 1 5.055.84 1.611-.164 2.122-.346 3.351-1.193 1.134-.782 1.858-1.746 2.143-2.853.388-1.511-.21-3.343-1.557-4.765-.63-.666-.808-.954-.518-.843.121.046.119.027-.01-.171-.08-.123-.234-.575-.34-1.004-.251-1.013-.613-1.736-1.185-2.369-.381-.421-1.167-.997-1.365-1-.054-.001-.271.67-.228.707.015.013.147.084.293.159.396.201 1.043.895 1.301 1.396.125.243.212.456.194.474s-.215-.097-.438-.256c-.502-.357-1.076-.646-1.783-.897l-.566-.208c-.013-.009.106-.207.264-.442.63-.936.877-2.381.721-4.216-.155-1.827-.457-3.294-1.502-7.286-.359-1.372-.64-2.649-.717-3.258-.231-1.828-.628-2.791-1.492-3.621-.586-.562-1.412-1.014-2.311-1.263-.331-.092-.619-.184-.639-.204s.142-.256.36-.524c1.206-1.481 1.936-3.204 1.853-4.373-.07-.982-1.095-3.105-1.921-3.98-.576-.609-.751-.666-1.395-.449-.553.186-1.12.507-1.233.697-.038.063-.234.168-.436.232l-.368.117-.154.767c-.29 1.443-1.501 4.9-2.214 6.317-.157.312-.263.604-.235.649.075.122-.188.859-.603 1.691-.328.658-.387.73-.552.68-.853-.255-1.228-.938-1.055-1.926.188-1.078.189-1.115.033-1.288-.169-.187-.584-.219-.91-.07-.161.073-.233.199-.309.541l-.1.445-.297-.261c-.163-.143-.505-.358-.76-.478-.43-.202-.548-.217-1.633-.217-.994 0-1.264.03-1.794.196-.694.218-1.333.518-1.719.807l-.255.191-.149-.577c-.166-.643-.34-.827-.786-.827-.328 0-.562.11-.634.296-.028.073.024.42.116.77s.166.791.166.979c0 .482-.308 1.043-.673 1.229-.427.217-1.213.344-1.77.287-.276-.028-.48-.017-.48.028 0 .157.938.743 1.348.841.467.112 1.039.064 1.39-.118l.228-.118-.03 1.042c-.068 2.371.37 5.021 1.145 6.94l.177.439-.665.334a10.26 10.26 0 0 1-2.569.884c-.637.122-1.914.156-2.458.066l-.306-.05.046-.782c.053-.884-.056-1.299-.482-1.834-.191-.24-.226-.34-.161-.461a69.22 69.22 0 0 1 .743-1.243c.684-1.128.869-1.642.761-2.119-.149-.66-.523-.974-1.51-1.269-.71-.212-.98-.245-1.313-.156-.222.06-.251.198-.042.198.358 0 1.461.447 1.73.701.577.544.501.994-.427 2.513-.495.81-.674 1.04-.775.997-1.187-.513-2.1-.639-3.033-.42l-.562.133-.356-.241a7.44 7.44 0 0 0-.753-.432c-.377-.183-.393-.206-.358-.489a29.06 29.06 0 0 0 .086-.882 6.54 6.54 0 0 1 2.55-4.628c.718-.541.778-.564 3.237-1.257 2.096-.59 3.022-1.088 3.425-1.843.358-.672.179-1.267-.664-2.218-.282-.317-.603-.777-.715-1.021-.193-.422-.203-.522-.194-1.947.006-.845-.026-1.569-.072-1.655-.094-.176-.678-.304-.763-.167-.064.103-.54-.124-1.576-.753-.869-.528-1.162-.555-1.69-.152-.483.368-.977 1.08-1.523 2.19-.588 1.197-.751 1.716-.747 2.381.008 1.215.796 2.875 2.09 4.4.384.453.429.539.302.583-.862.293-1.669.842-2.452 1.67-1.122 1.186-1.774 2.617-2.007 4.397-.058.448-.129.814-.157.814s-.291-.16-.584-.355c-.499-.332-.542-.388-.685-.864-.172-.574-.661-1.2-1.071-1.369-.233-.097-.254-.138-.254-.512 0-.517.199-1.04.736-1.927.571-.945.911-1.68 1.019-2.202.084-.404.111-.438.416-.529.423-.127.809-.518.921-.934.069-.258.129-.33.274-.33.272-.001.706-.293.896-.605a1.21 1.21 0 0 0 .096-1.257l-.176-.418.245-.279a1.22 1.22 0 0 0 .248-1.23c-.06-.191-.113-.629-.116-.973-.005-.51-.04-.676-.193-.89-.124-.174-.188-.384-.188-.619 0-.421-.302-.991-.614-1.158-.148-.079-.227-.209-.266-.438-.069-.406-.393-.801-.811-.988-.227-.102-.373-.249-.505-.51-.216-.429-.743-.743-1.245-.743-.245 0-.345-.047-.455-.213-.281-.429-1.121-.677-1.538-.454-.12.064-.236.044-.474-.083-.2-.107-.405-.161-.612-.161zm39.744.085c.13-.004.381.043.788.114 3.107.544 5.462 2.626 6.57 5.809.27.775.477 1.576.421 1.631-.019.019-.174-.06-.343-.175s-.309-.255-.309-.311-.161-.459-.358-.895c-1.139-2.525-2.878-4.081-5.367-4.802-.406-.118-.746-.222-.755-.233s-.207-.273-.441-.583c-.303-.402-.423-.548-.206-.555zm-39.721.679c.036.002.071.006.103.014.185.046.209.085.153.24a1.96 1.96 0 0 0-.065.54c.002.347-.005.355-.274.355-.152 0-.29-.047-.308-.104a4.59 4.59 0 0 1-.078-.489c-.041-.343-.024-.396.154-.491.086-.046.208-.07.316-.065zm-1.778.083c.072-.002.138.015.216.05.182.083.205.146.205.557 0 .421-.02.471-.214.545-.118.045-.221.081-.23.081s-.119-.223-.245-.495-.23-.511-.23-.532.115-.086.255-.144c.096-.04.172-.06.244-.062zm3.285.064c.251 0 .562.224.559.402-.002.078-.058.214-.125.304a.63.63 0 0 0-.123.313c0 .117-.066.152-.288.152-.158 0-.306-.03-.329-.067s-.006-.121.036-.188.077-.3.078-.518c.001-.357.021-.397.192-.397zm32.484.142l-.61.056c-.689.063-1.269.312-1.513.648-.114.158-.158.353-.154.692.003.26.028.508.055.553.099.16.729.085 1.096-.13h0c.384-.225.685-.659.962-1.389zm-23.642.035c-.262.013-.208.166.036.719.373.844.938 1.293 1.58 1.255.305-.018.337-.043.397-.312.207-.927-.376-1.508-1.641-1.638-.162-.017-.285-.028-.372-.023zm-13.606.495c.089.005.146.056.146.152 0 .085.092.291.205.457.184.271.192.316.078.43-.203.203-.388.148-.679-.203-.32-.385-.338-.533-.086-.709.127-.089.248-.131.336-.126zm6.442.082c.107.008.222.074.345.198l.211.211-.379.379c-.208.208-.41.379-.448.379s-.136-.075-.218-.165c-.144-.159-.144-.18.022-.564.132-.306.287-.452.466-.438zm37.483.432l.369.111c1.635.492 2.988 1.466 3.898 2.806.319.47 1.093 1.927 1.048 1.973-.01.01-.167-.024-.348-.077s-.762-.097-1.29-.098c-1.407-.003-2.464.249-4.277 1.023-.858.366-1.26.42-1.703.227-.432-.188-.643-.529-.594-.964.035-.311.095-.413.363-.619.714-.548 1.993-1.932 2.222-2.406.287-.593.431-1.247.365-1.658zm-41.526.358c.058-.004.114.029.215.095.167.11.332.129.773.092.397-.033.622-.013.77.069.115.064.37.117.567.119.308.003.404.051.676.337.183.193.429.356.581.386.194.039.265.099.265.225 0 .097.182.348.418.575.269.26.418.473.418.6 0 .108.094.335.209.504a1.15 1.15 0 0 1 .208.641c0 .183.057.469.127.635a.79.79 0 0 1 .043.6c-.09.325-.006.78.195 1.054.105.143.092.185-.122.399-.131.131-.279.387-.327.568-.066.246-.132.33-.258.33-.197 0-.464.127-.701.333a1.11 1.11 0 0 1-.46.195 10.66 10.66 0 0 0-.46.088c-.092.021-.317-.051-.501-.159-.334-.197-.339-.197-3.133-.195-1.539.001-2.864-.023-2.943-.054s-.168-.188-.198-.347a1.38 1.38 0 0 0-.254-.527c-.167-.198-.185-.273-.115-.459.118-.309.105-.797-.028-1.051-.097-.185-.091-.252.042-.5a1.62 1.62 0 0 0 .154-.643c0-.309.044-.396.328-.653.326-.295.453-.599.441-1.062a.39.39 0 0 1 .181-.354c.103-.068.272-.274.376-.458.121-.215.247-.335.354-.335.241 0 .609-.21.838-.477.147-.171.287-.238.532-.253a1.24 1.24 0 0 0 .562-.19c.109-.08.169-.121.227-.125zm-3.718.178c.059.008.093.051.139.141a2.22 2.22 0 0 0 .292.396c.183.197.188.226.068.397-.153.219-.172.219-.495.011-.138-.088-.315-.161-.392-.161-.21-.001-.263-.148-.151-.418a.62.62 0 0 1 .342-.324c.053-.018.095-.031.13-.038.026-.005.048-.007.068-.004zm9.11.245c.114-.007.201.077.28.252.122.267.121.287-.016.287-.062 0-.268.113-.459.251-.4.289-.368.28-.498.151-.163-.163-.119-.279.246-.644.191-.191.333-.289.447-.296zm5.529 1.207c.065 0 .497.224.96.497s1.044.581 1.291.684l.45.186v.528c0 .29-.028.527-.063.527s-.265-.077-.513-.171c-1.781-.677-2.977.087-3.082 1.97-.073 1.306.489 2.701 1.518 3.767.332.344.579.641.549.66s-.206.058-.39.088l-.335.054-.583-.698c-.782-.937-1.061-1.363-1.489-2.27s-.583-1.629-.463-2.167c.283-1.262 1.69-3.655 2.15-3.655zm23.165.032c.022 0 .042.002.06.006.284.071.878.874 1.36 1.838.765 1.528.891 2.15.622 3.059-.274.924-1.238 2.54-1.978 3.316-.251.263-.503.325-.896.218-.092-.025-.012-.158.292-.485 1.037-1.116 1.648-2.726 1.507-3.972-.064-.57-.459-1.41-.771-1.638-.486-.357-1.153-.459-1.808-.277-.177.049-.34.07-.363.047-.04-.04.181-1.129.239-1.178.015-.013.381-.237.814-.499.507-.307.768-.431.922-.434zm-27.785.031l.152.187c.246.304.199.502-.12.503a1.31 1.31 0 0 0-.511.125c-.277.145-.26.141-.331.069-.124-.124-.045-.347.139-.393.107-.027.302-.148.434-.27zm-10.968.057c.043-.007.083.019.145.074a2 2 0 0 0 .45.252c.3.124.308.138.221.386-.049.142-.159.294-.243.339-.182.097-.138.103-.498-.07-.161-.077-.32-.178-.354-.224-.116-.158-.063-.46.11-.633.077-.077.125-.118.168-.125zm42.177.131c.184 0 .405.14.883.563l.638.563-.236.188c-.13.104-.257.189-.282.189s-.316-.258-.647-.574c-.671-.64-.782-.93-.356-.93zm-8.093 1.239c-.262 0-1.889.773-2.115 1.02-.347.378-.258.917.189 1.142.198.1.308.089.733-.07.281-.105.587-.467.874-1.034.28-.553.414-.95.353-1.049-.004-.008-.016-.01-.033-.01zm-13.48.034c-.015.002-.025.007-.028.016-.105.274.71 1.786 1.065 1.976.498.266.826.262 1.114-.015.112-.108.165-.269.165-.503a.58.58 0 0 0-.267-.567c-.362-.302-1.824-.938-2.05-.906zm-21.255.201c.071-.001.16.038.333.115.323.145.351.182.351.475v.317l-.519.005c-.369.003-.533-.029-.564-.111-.099-.258-.034-.516.168-.675.105-.083.159-.124.231-.125zm12.193.001c.052-.005.074.023.096.08.128.333.063.41-.347.409-.218 0-.482.03-.585.067-.156.057-.188.04-.188-.104 0-.129.054-.173.212-.173.117 0 .357-.074.535-.164.142-.072.224-.11.277-.115zm30.165.415c-.006.004-.007.014 0 .031a19.23 19.23 0 0 1 .152.451l.106.325.077-.23c.065-.196.042-.263-.152-.451-.094-.091-.164-.138-.182-.127zm-8.382.115c.137 0-.22.633-.468.827-.272.214-.584.229-.636.029a.53.53 0 0 1-.002-.253c.036-.108.943-.603 1.106-.603zm-11.994.019c.024-.024.29.077.589.224.486.239.545.294.545.513 0 .2-.035.244-.188.24a1.04 1.04 0 0 1-.358-.089c-.182-.088-.661-.814-.587-.889zm16.582.492c.416.023.681.231.867.643.579 1.282-.22 3.486-1.645 4.537-.397.293-.668.299-1.617.039-.379-.104-.711-.21-.736-.235s.234-.755.577-1.622.729-1.905.858-2.309l.235-.733.534-.165c.373-.115.677-.168.927-.155zm-21.284.022a2.79 2.79 0 0 1 1.029.245c.555.257.625.332.628.659.002.41.327 1.109.752 1.615.84 1.002.92 1.131.92 1.484 0 .28-.053.385-.323.642-.324.308-1.472.838-1.814.837-.096 0-.381-.148-.633-.329-1.652-1.183-2.406-4.016-1.326-4.977.147-.131.435-.189.767-.176zm-4.89.516c.045.006.069.036.09.09.157.408-.408.872-.814.669-.219-.109-.421-.44-.362-.593.022-.057.156-.083.325-.063a1.46 1.46 0 0 0 .544-.056c.106-.037.172-.054.217-.047zm-12.375.317c.537-.012.623.043.626.397.002.279-.121.374-.558.429-.27.034-.381.01-.486-.106-.084-.093-.126-.257-.109-.43l.026-.279zm47.203.561c.046 0 .817.71 1.713 1.578 1.624 1.573 1.628 1.579 1.462 1.741s-.175.156-1.947-1.477l-1.78-1.64.234-.101c.129-.055.272-.101.317-.101zm-35.606.842c.151.001.308.062.438.192.251.251.259.456.032.745-.234.298-.564.29-.86-.019-.179-.187-.217-.287-.173-.462.073-.293.311-.458.563-.456zm-11.011.218c.075.003.122.028.172.078.183.183.148.257-.209.439-.181.092-.383.244-.448.338-.093.132-.137.147-.201.064-.309-.399-.177-.728.343-.86.165-.042.268-.062.343-.059zm17.547.27c-.026 0-.122.122-.213.272-.183.3-.213.654-.077.908.215.402 1.02.64 1.246.368.056-.068.106-.256.111-.418.007-.229-.057-.361-.28-.594-.255-.265-.652-.536-.786-.536zm19.325.031c-.028 0-.06.006-.097.017-.494.153-.977.679-.977 1.063 0 .59.61.752 1.125.3.244-.215.296-.316.296-.589 0-.181-.058-.443-.13-.581-.078-.151-.132-.21-.217-.211zm-27.22.779c.147-.005.279.082.481.299.227.243.186.576-.095.773-.252.176-.279.16-.336-.198a1.39 1.39 0 0 0-.226-.543l-.174-.222.194-.073c.056-.021.107-.033.156-.035zm-3.453.285c.117-.008.236.042.367.148.183.148.197.223.222 1.274.02.8-.003 1.174-.081 1.319-.113.213-.409.33-.693.275-.329-.064-.376-.247-.376-1.458 0-1.118.007-1.164.205-1.362.123-.123.238-.188.355-.196zm-3.825.013a.68.68 0 0 1 .129.013c.424.083.463.213.463 1.557 0 .882-.03 1.25-.105 1.309-.138.108-.396.159-.621.124-.329-.052-.369-.205-.386-1.48-.016-1.21-.014-1.228.189-1.393.112-.091.211-.131.331-.131zm1.999.007c.149.004.294.052.386.143.123.123.166 2.563.048 2.705-.113.136-.307.183-.603.147-.403-.049-.445-.192-.445-1.5 0-1.181.004-1.209.206-1.372.106-.086.259-.127.408-.123zm3.888.256c.026.007.058.068.088.195a8.94 8.94 0 0 0 .098.375c.027.092-.002.147-.079.147-.082 0-.133-.112-.155-.34-.024-.246.004-.388.047-.376zm-8.094.132c.069 0 .125.054.125.121 0 .14-.119.233-.197.156-.099-.1-.053-.276.072-.276zm51.125.135c.02-.003.038-.003.055.001s.04.013.06.023a.76.76 0 0 1 .268.263c.079.147-.028.293-.89 1.21l-.986 1.036a3.85 3.85 0 0 0-.184-.092.64.64 0 0 1-.26-.266c-.072-.158.035-.303.897-1.213.683-.722.903-.939 1.041-.962zm-23.875.88a7.71 7.71 0 0 1 .361.006c.92.038 1.297.191 1.776.722.694.768.856 2.188.568 4.968-.299 2.883-.239 3.786.305 4.586.614.904 1.498 1.206 4.212 1.439 2.165.186 2.871.395 3.948 1.165 1.282.917 2.209 2.17 2.529 3.416.498 1.943-.764 4.005-2.772 4.528-.469.122-1.058.152-1.418.071-1.045-.235-1.494-.761-1.342-1.572.04-.215.222-.457.692-.924.718-.714.704-.711 1.469-.27.584.337.616.574.121.893-.172.111-.314.255-.314.32 0 .221.473.606.745.606.366 0 .696-.513.742-1.156.039-.54-.054-.673-.59-.845a1.23 1.23 0 0 1-.531-.385c-.119-.156-.34-.36-.49-.453-.17-.105-.291-.259-.321-.407-.122-.612-.867-1.076-2.106-1.311-.589-.112-1.302-.145-3.339-.158-2.36-.015-2.648-.032-3.243-.196-1.989-.547-3.348-2.04-4.272-4.696-.722-2.074-1.03-4.896-.796-7.295.128-1.319.564-1.929 1.811-2.53a5.12 5.12 0 0 1 2.255-.521zm25.24.193c.121-.012.194.073.277.228s-.022.287-1.022 1.289c-.613.614-1.156 1.117-1.206 1.117s-.177-.091-.282-.203-.177-.238-.16-.282.526-.556 1.134-1.14c.726-.698 1.058-.99 1.26-1.01zm-51.595.003c.041.026.065.239.065.601 0 .773.103 1.196.343 1.413.141.127.304.159.828.159.564 0 .681-.026.855-.19l.202-.19.241.19c.342.269 1.201.274 1.466.008l.182-.181.233.172c.284.21.918.282 1.383.157.26-.07.377-.159.478-.364.11-.223.134-.239.136-.09 0 .101-.112.276-.255.397l-.257.216-2.729-.003c-1.786-.002-2.783-.034-2.884-.092-.264-.154-.389-.603-.389-1.402 0-.412.037-.773.083-.801zm33.528.321c.097-.037 1.277.262 1.36.345.076.076-.149 1.119-.367 1.701-.306.816-.97 1.972-1.661 2.895-.737.983-2.238 2.662-2.805 3.137l-.414.347v-.907c0-.499.033-1.02.073-1.16s.369-.634.731-1.099a26.54 26.54 0 0 0 1.117-1.558c.344-.533.526-.735.725-.805.314-.111 1.03-.641 1.03-.762 0-.053-.14-.064-.376-.028-.207.031-.376.041-.376.022s.146-.333.325-.698.374-.828.434-1.028.152-.38.205-.401zm-25.838.237c.06-.004.102-.003.111.006.018.018-.115.33-.295.695l-.327.662-.006-.638-.001-.001-.006-.638.301-.056a2.09 2.09 0 0 1 .222-.03zm28.03.235c.025 0 .472.079.993.176 1.097.205 1.052.135.78 1.21-.369 1.455-1.508 3.362-3.164 5.297-.528.617-2.855 3.008-2.928 3.008-.026 0-.273-.108-.549-.24s-.593-.339-.704-.46l-.203-.22 1.25-1.274c1.762-1.795 2.858-3.222 3.595-4.681.339-.672.747-1.863.827-2.42.032-.218.078-.397.103-.397zm16.89.342c.165.022.43.272.407.415-.031.192-1.888 2.25-2.03 2.25-.054 0-.18-.087-.28-.193s-.181-.222-.181-.258c0-.076 1.912-2.167 2.02-2.209.018-.007.04-.009.063-.005zm-14.179.181l.388.116c.782.234 1.598.686 2.046 1.133.76.76 1.001 1.407 1.348 3.616a26.32 26.32 0 0 0 .226 1.26c.09.4.079.464-.19 1.119-.394.96-.489 1.019-1.677 1.051-.521.014-1.219-.006-1.551-.044-1.006-.115-1.379-.45-1.701-1.53l-.217-.697c-.033-.086.046-.115.32-.115.811 0 1.288-.513 1.268-1.365-.015-.634-.153-.789-.232-.26-.132.877-.403 1.041-1.388.835-.336-.07-.642-.159-.68-.197s.122-.361.356-.716c.847-1.285 1.499-2.803 1.631-3.799zm-11.893.594c-.837-.04-1.748.348-2.126 1.072l-.118.225.531-.249a4.74 4.74 0 0 1 1.023-.329c.566-.093 1.288.007 1.86.259.439.193.428.192.428.036 0-.069-.137-.276-.303-.461-.318-.352-.794-.529-1.296-.553zm27.018.545l.198.186c.109.103.198.261.198.352 0 .191-1.636 1.921-1.854 1.961-.078.014-.221-.053-.318-.151s-.166-.213-.152-.255.454-.531.976-1.086zm-46.901.265l-.3.632c-.263.554-.301.715-.308 1.301-.008.658-.013.673-.3.917-.736.623-1.941 1.346-2.57 1.54l-.667.199c-.011 0-.021-.106-.021-.236 0-.794-.492-2.761-.887-3.542-.11-.217-.199-.414-.199-.439s1.044-.044 2.32-.044c2.147 0 2.342-.012 2.626-.164zm23.32.083l.313.212c.172.117.417.233.543.259s.23.072.23.104c0 .064-.744 1.159-1.02 1.502l-.173.215.052-.585a15.67 15.67 0 0 0 .053-1.146zm-3.751 1.272a1.47 1.47 0 0 0-.878.319c-.202.159-.715.945-.718 1.099-.001.109.142.067.261-.076.197-.238.926-.528 1.326-.527.383.001 1.006.233 1.272.474.137.124.148.121.148-.049 0-.101-.077-.334-.17-.518a1.34 1.34 0 0 0-1.241-.721zm-19.435 1.77c.02-.001.037 0 .052.005.251.079.591.658.639 1.087.042.369.029.395-.365.775-1.048 1.009-3.752 1.924-4.746 1.605-.292-.094-.38-.216-.382-.53-.002-.395.361-.67 1.168-.884.823-.218 1.545-.616 2.7-1.486.528-.398.793-.562.933-.571zm39.133.048c.074.002.267.192.428.423.766 1.099 2.002 1.903 3.506 2.28.972.244 1.109.381.86.862-.352.681-1.114.968-1.986.746-.671-.171-1.588-.705-2.226-1.295-.684-.633-1.409-1.618-1.409-1.914 0-.455.492-1.112.826-1.103zm-19.445.622c-.702-.038-1.465.434-1.724 1.286l-.061.199.283-.216a4.1 4.1 0 0 1 .657-.385c.492-.223 1.017-.214 1.606.028.526.216.579.171.314-.265-.255-.418-.654-.624-1.075-.647zm9.436.364c.038-.002.073.016.113.042.116.076.298.482.554 1.233l.444 1.254c.046.099-.015.181-.229.307-.383.226-.584.548-.636 1.018l-.043.383-.459-.104c-.253-.057-.93-.144-1.504-.194l-1.402-.134-.357-.044 1.015-1.06c.559-.583 1.337-1.445 1.73-1.916.503-.603.659-.78.775-.785zm-27.851.905l.493.296c.271.163.989.547 1.595.853 1.314.664 1.566.906 1.506 1.443-.058.515-.479 1.155-1.465 2.224-.474.514-1.08 1.254-1.348 1.644s-.561.777-.652.859c-.233.211-.593.29-.982.218-.543-.101-1.27-.466-1.682-.846-.697-.643-1.686-2.22-2.24-3.575l-.287-.701.726-.147c.841-.17 1.766-.483 2.481-.841.649-.325 1.485-.919 1.692-1.204zm18.378 1.197c-.683 0-1.442.698-1.538 1.415l-.048.356.42-.42c.307-.307.539-.455.863-.551.539-.16.597-.161 1.146-.019.479.124.523.078.27-.279-.19-.267-.713-.502-1.113-.502zm16.414.295c.079.014.183.425.554 1.93.686 2.783.872 3.8.984 5.38.06.852-.062 2.09-.25 2.536-.095.225-.114-.047-.145-2.038l-.035-2.298-.266-.771a12.59 12.59 0 0 0-.52-1.275c-.233-.462-.245-.524-.14-.733.327-.65.218-1.311-.296-1.8-.301-.287-.322-.332-.21-.46a2.3 2.3 0 0 0 .245-.38c.029-.058.053-.097.079-.093zm-29.686.248c1.239 0 2.337.515 2.744 1.287.218.414.254 1.156.083 1.692l-.098.306-.217-.282c-.538-.699-1.737-1.429-2.708-1.649l-.5-.114-.047-.578c-.026-.318-.032-.598-.014-.621s.358-.041.757-.041zm-4.632.606c-.277-.017-.607.051-1.01.201-1.798.673-2.554 2.612-1.272 3.265.385.196.875.182 1.331-.04l.376-.183-.639-.045c-.743-.053-.991-.209-.988-.622.003-.376.266-.898.592-1.173.605-.511 1.554-.789 1.812-.531.15.15.121.763-.059 1.236-.087.23-.138.419-.113.419s.169-.093.317-.207c.362-.276.623-.833.623-1.332a.74.74 0 0 0-.284-.684c-.187-.187-.41-.288-.686-.305zm29.52.25l1.042.006c2.351.024 2.649.054 3.014.299.228.153.274.239.295.561.018.273-.018.429-.126.553-.14.161-.263.175-1.821.211-.919.022-1.901.013-2.182-.019-.498-.057-1.046-.306-1.265-.574-.122-.15-.137-.751-.024-.93.049-.077.249-.106 1.067-.108zm-25.932 1.118c.099.011.318.056.567.117 1.247.305 2.461 1.139 2.649 1.818.079.287-.012 1.037-.14 1.153-.03.027-.236-.077-.459-.229-.601-.412-1.124-.545-2.319-.591-1.149-.045-1.703.057-2.393.438-.324.179-.347.182-.269.035.047-.088.423-.519.834-.956.588-.626 1.198-1.363 1.474-1.784.003-.004.022-.004.055-.001zm15.942.24c-.4 0-.864.316-1.054.717-.184.387-.141 1.089.086 1.427l.16.237.049-.501c.027-.276.111-.619.186-.763.163-.312.594-.69.914-.802.413-.144.227-.315-.341-.315zm3.491.431c-.553.02-1.081.519-1.081 1.132a1.64 1.64 0 0 0 .146.577l.147.307.054-.378a2.86 2.86 0 0 1 .198-.681c.151-.318.439-.565.843-.725.223-.088.228-.1.073-.163a.91.91 0 0 0-.38-.067zm-8.426.018l.301.494c.243.401.279.51.185.572-.064.042-.793.414-1.62.825-2.202 1.095-4.069 1.67-5.424 1.67-.593 0-.634-.012-.743-.221-.092-.175-.095-.266-.016-.439a29.41 29.41 0 0 0 .384-.95c.219-.563.314-.72.411-.679.269.112 2.188.138 2.822.037.819-.13 2.209-.583 3.052-.993zm11.19.006c-.701-.006-1.25.761-1.009 1.566.117.391.158.374.268-.112.114-.506.441-.894.936-1.113l.423-.187-.31-.102c-.104-.035-.208-.051-.308-.052zm8.042.576l.229.508c.362.802.513 1.303.561 1.859l.044.516-.59.297c-.324.163-.752.319-.951.346a11.32 11.32 0 0 0-.551.087c-.11.022-.203-.006-.222-.068a12.76 12.76 0 0 1-.127-.513c-.177-.759-.8-1.836-1.495-2.58l-.37-.397.742-.014 1.736-.027zm-5.736.403c-.674-.016-1.252.658-1.095 1.476l.059.307.187-.42c.103-.231.305-.52.449-.64.243-.205.575-.347.975-.421.143-.026.129-.051-.1-.173-.158-.084-.319-.124-.474-.128zm-12.36.609l.139.185c.077.102.384.366.682.587s.543.422.543.447c0 .103-2.478 1.585-3.718 2.222-2.095 1.078-3.779 1.679-5.133 1.832l-.464.052v-1.303-1.303h.471c1.348 0 3.313-.631 5.718-1.836zm-12.044.761c1.449.006 1.899.148 2.504.794.984 1.052 1.146 2.542.499 4.589-.261.825-.635 1.387-1.153 1.734-.464.31-.679.341-.8.113h-.001c-.063-.117-.056-.17.025-.201.061-.023.176-.18.256-.347.156-.33.097-.679-.163-.967-.111-.123-.112-.152-.003-.242.068-.056.165-.228.215-.381.184-.557-.341-1.211-.973-1.212h-.263l-.059-.668-.059-.668h-.952-.952v.662.662l-.689.03c-.379.017-.755.061-.835.099-.129.06-.146.02-.145-.337.006-1.531.767-2.908 1.901-3.44.449-.21.548-.223 1.647-.219zm25.992.124c-.069-.001-.153.006-.263.014-.334.028-.517.092-.674.24-.25.234-.451.589-.451.798 0 .12.04.106.23-.075a2.11 2.11 0 0 1 .54-.349c.367-.153.692-.165 1.06-.037.388.135.407.038.059-.31-.219-.219-.293-.28-.501-.282zm-11.709.731c.048.006.388.093.755.194.613.169.884.186 3.262.206 3.144.026 4.174.173 4.631.66.283.301.167.576-.543 1.281s-.919 1.162-.858 1.899c.064.767.722 1.481 1.579 1.712.249.067.314.13.357.345.029.145.043.273.031.284-.046.042-2.451.208-4.157.287-2.049.095-5.61.091-7.519-.008h0c-2.293-.119-4.286-.359-5.493-.662-.587-.147-2.088-.817-2.475-1.105-.119-.089-.143-.176-.1-.369.055-.251.061-.254.741-.307 1.308-.102 2.932-.637 4.961-1.634 1.414-.695 2.782-1.481 3.991-2.291.412-.276.788-.497.836-.491zm16.544 1.686c.03.002.05.012.061.029.035.054.065.343.067.642a21.67 21.67 0 0 0 .083 1.415c.043.48.068.884.054.898s-.131-.086-.26-.221a.81.81 0 0 0-.998-.22c-.289.121-.317.117-.606-.079-.364-.247-.649-.259-1.002-.044-.145.088-.284.14-.309.116s.07-.25.211-.499a5.74 5.74 0 0 0 .404-.931l.147-.476.49-.061c.285-.036.734-.182 1.074-.349.315-.155.495-.224.585-.219zm-32.08 1.841c1.662 0 1.867.015 1.979.146.227.264.234.333.06.554l-.172.219H64.91h-1.868l-.172-.219c-.174-.221-.166-.29.06-.554.113-.131.318-.146 1.98-.146zm29.95.968c.157 0 .315.092.414.277.132.247.216 3.277.097 3.499-.137.256-.547.252-.717-.008v-.001c-.161-.245-.338-3.244-.207-3.49.099-.185.256-.277.413-.278zm-1.158.118c.115 0 .152.301.237 1.947.074 1.433.068 1.687-.042 1.9-.161.312-.464.328-.693.037-.143-.181-.172-.401-.225-1.678l-.061-1.469.362-.369c.199-.203.389-.369.422-.369zm2.647.048c.064-.004.125.005.175.032.524.281.85 1.837.584 2.793-.096.347-.41.72-.606.72-.066 0-.206-.071-.313-.157-.181-.147-.197-.238-.263-1.525-.038-.753-.051-1.447-.027-1.542.042-.17.259-.308.45-.321zm-34.172.041l.052.206a.98.98 0 0 1 .002.403c-.058.23.153.788.322.853.096.037.088.103-.045.372-.194.391-.146.721.15 1.041.192.207.196.234.078.462-.069.133-.127.328-.13.434-.004.154-.121.248-.587.47-.703.335-1.464 1.018-1.778 1.595-.127.233-.21.424-.185.424s.243-.126.485-.281c.591-.377 1.495-.825 2.132-1.056.469-.17.559-.179.898-.084.207.058.376.148.376.199-.002.23-.422 1.918-.627 2.52a11.29 11.29 0 0 1-.549 1.286c-.177.342-.311.633-.298.646.053.053 1.204-.755 1.545-1.085.746-.721 1.41-1.827 1.768-2.944.179-.557.208-.596.555-.74l.366-.152.349.349c.228.228.675.506 1.286.798.515.247.96.486.988.532s-.023.452-.115.902c-.295 1.447-.307 2.59-.042 3.868.041.197-.004.226-.816.531-3.103 1.162-4.271 1.4-6.008 1.226-1.234-.124-1.719-.293-2.746-.962-1.572-1.023-2.302-2.47-2.011-3.986.212-1.105 1.182-2.665 1.921-3.09.321-.185.325-.194.38-.816.031-.346.111-.869.177-1.163.239-1.059 1.037-2.216 1.793-2.602zm2.774.242c.809.005 1.612.046 1.786.119.369.154.438.425.175.687-.198.198-.213.199-1.979.197-1.044-.002-1.839-.038-1.924-.087-.406-.237-.347-.66.114-.82.202-.07 1.018-.101 1.828-.096zm27.45.693c.01.011.045.645.078 1.41.058 1.345.055 1.395-.116 1.567-.239.239-.477.223-.653-.045-.112-.172-.159-.492-.203-1.4l-.044-1.179a22.77 22.77 0 0 0 .467-.187c.249-.102.462-.176.472-.165zm-22.848.066c.027-.003.422.203.877.456 1.242.69 2.42.99 4.913 1.25 3 .312 8.513.373 11.902.132l1.838-.13.722-.05-.733.255c-.896.312-1.254.491-1.771.886l-.399.305-.554-.112c-.886-.179-2.365-.135-3.018.09-1.255.432-2 1.114-2.889 2.643-.08.137-.122.095-.362-.354-.584-1.095-1.601-1.956-2.719-2.303-.701-.217-2.097-.253-2.98-.075l-.553.111-.407-.313c-.564-.433-1.197-.706-2.702-1.163-.711-.216-1.433-.449-1.603-.517l-.31-.124.349-.49c.192-.27.371-.492.398-.494zm-4.644.748c1.626 0 1.638.001 1.842.205.113.113.205.246.205.296s-.092.184-.205.297c-.204.204-.216.205-1.842.205s-1.638-.001-1.842-.205c-.113-.113-.205-.246-.205-.297s.092-.183.205-.296c.204-.204.215-.205 1.842-.205zm32.858.869c.44-.016 3.207.619 3.382.792.035.035.088.312.116.616.048.511.07.561.294.653.368.152 1.105 1.021 1.483 1.747 1.25 2.402.423 4.497-2.321 5.885-.764.387-2.412.595-3.688.465-1.002-.102-2.027-.384-3.593-.99-1.217-.471-1.46-.593-1.451-.728a14.72 14.72 0 0 1 .115-.788c.129-.775.06-2.077-.167-3.175-.194-.933-.248-.843.808-1.336.917-.428 1.364-.749 1.614-1.162.16-.264.258-.342.418-.334.449.021.581-.016.841-.235.235-.198.258-.204.174-.047-.162.303-.115.358.308.358 1.021 0 3.156.778 4.513 1.645.246.157.461.273.478.256.075-.075-.351-.726-.726-1.111-.589-.604-1.538-1.127-2.842-1.566-.124-.042-.124-.081.008-.472.079-.234.16-.442.179-.461.007-.007.026-.011.056-.012zm-32.874.635c1.526 0 1.659.029 1.767.395.079.265-.249.564-.795.726s-1.593.165-2.042.006c-.349-.123-.71-.466-.71-.673 0-.066.075-.196.167-.288.154-.154.278-.167 1.613-.167zm25.482 2.543c.248-.005.453.18.579.534.24.674.402 1.599.451 2.562.059 1.161-.092 1.937-.511 2.627-.306.504-.414.594-.629.525-.225-.073-.418-.291-.418-.475 0-.099.08-.497.178-.885.151-.598.171-.846.127-1.624a18.57 18.57 0 0 0-.207-1.796c-.174-.984-.142-1.248.168-1.399a.63.63 0 0 1 .262-.068zm-19.596.007c.075-.003.152.01.23.04.366.139.386.376.153 1.77-.242 1.444-.237 2.548.015 3.284.18.526.181.758.002.955-.212.234-.454.267-.635.086-.333-.333-.672-1.165-.768-1.884-.145-1.081.079-2.89.475-3.836.108-.258.305-.406.528-.414zm5.472.29c.719 0 1.105.169 1.356.594.151.255.167.427.162 1.745-.005 1.187-.041 1.627-.193 2.337-.326 1.516-.902 2.598-1.378 2.588-.098-.002-.318-.078-.489-.168l-.311-.164.245-.354c.999-1.443 1.12-5.017.209-6.21-.115-.151-.209-.295-.209-.321s.273-.047.607-.047zm8.644 0c.334 0 .607.019.607.042s-.107.191-.238.372c-.421.582-.556 1.222-.552 2.635.003 1.002.04 1.4.186 1.984.178.71.5 1.469.741 1.743.104.119.092.152-.1.278a1.49 1.49 0 0 1-.487.186c-.233.038-.308-.001-.568-.288v-.001c-.704-.779-1.222-3.104-1.139-5.114.06-1.454.384-1.839 1.549-1.839zm1.484.147l-.315.269c-.173.148-.371.375-.439.507-.156.301-.159.752-.006.96.104.142.094.187-.084.398-.241.287-.249.429-.046.828l.155.304-.238.176-.238.176.002-.734c.003-1.378.353-2.404.931-2.728zm-11.362.134c.014 0 .056.024.126.067.276.171.648.913.756 1.506a6.92 6.92 0 0 1 .062 1.184l-.024.708-.213-.184c-.212-.182-.212-.186-.063-.432.203-.335.19-.565-.049-.849-.178-.211-.187-.257-.083-.398.141-.192.153-.655.023-.907-.052-.1-.212-.312-.355-.47s-.201-.226-.178-.225zm12.157.117l.954.15.954.15.137.717c.192 1.007.251 2.21.135 2.768l-.097.464-.464.097a3.29 3.29 0 0 0-.873.349c-.781.481-1.622.773-1.777.618-.031-.031-.055-.182-.055-.336 0-.306.079-.363.735-.529.74-.187.49-.584-.368-.584-.588 0-.785-.052-.785-.209 0-.145.419-.284.696-.231.334.064 1.272-.056 1.447-.186.284-.21.005-.33-.869-.376-.801-.042-.807-.044-.961-.309l-.155-.266.23-.152c.167-.109.435-.159.966-.18.593-.024.735-.054.735-.158 0-.223-.276-.351-.767-.353-.868-.005-1.13-.225-.862-.724.102-.19.298-.353.598-.5zm-13.441.071a2.48 2.48 0 0 1 .195.001c.409.018.659.151.942.434.539.539.252.929-.688.937-.523.004-.793.128-.793.363 0 .115.103.137.647.137.451 0 .734.045.935.147.361.183.388.271.168.55-.163.208-.22.223-.832.223-1.502 0-1.442.507.065.552.869.026 1.105.077 1.105.239s-.194.212-.764.212c-.542 0-.823.101-.823.297 0 .137.195.237.735.373.405.102.586.384.432.672-.114.213-.353.199-.939-.053a8.36 8.36 0 0 1-.891-.459 3.29 3.29 0 0 0-.873-.349l-.464-.097-.096-.464c-.116-.557-.064-1.59.135-2.684l.146-.8.904-.145c.301-.048.547-.077.755-.084zm11.662 4.085c.03.003.073.021.128.05l.205.11c.01.007-.034.161-.096.341l-.113.328-.092-.331c-.105-.378-.124-.506-.033-.497zm-9.648.007c.09-.016.081.096.012.442-.066.331-.136.33-.262-.005-.055-.146-.092-.269-.081-.272s.104-.053.207-.111c.053-.03.094-.049.124-.054zm10.085 1.538c.024.005.06.025.107.064a.74.74 0 0 0 .304.116c.197.029.197.029.03.179s-.172.144-.345-.075c-.138-.175-.169-.299-.096-.284zm-10.468.029c.011.01-.005.047-.043.118-.168.313-.307.369-.471.187-.147-.162-.145-.167.035-.167a.89.89 0 0 0 .353-.09c.075-.04.114-.058.126-.048zm27.961.981c-.303-.028-.916.234-2.46.988-5.484 2.678-10.662 4.172-16.407 4.734-1.945.19-5.849.191-7.769.002-5.57-.548-10.783-1.967-16.293-4.435l-1.858-.865c-.841-.419-1.071-.473-1.324-.307-.484.317-.143.718 1.116 1.311 7.257 3.42 13.574 5.113 20.197 5.413 1.979.09 2.028.09 3.905.002h0c5.553-.26 10.642-1.417 15.979-3.633 1.604-.666 4.476-2.051 4.861-2.345.311-.238.431-.561.277-.747-.055-.066-.121-.108-.222-.117zm-5.583.775l-.835.327a45.96 45.96 0 0 1-13.783 3.065c-6.089.393-12.817-.675-19.092-3.03-.768-.288-.836-.299-2.105-.324-.722-.014-1.285-.003-1.253.026.184.162 2.856 1.19 4.653 1.789 4.595 1.533 8.666 2.327 13.2 2.576a66.75 66.75 0 0 0 6.075-.154c5.016-.487 9.465-1.641 14.373-3.727l1.066-.453-1.149-.047z"
         class="b"
         id="path187" />
    </g>
    <g
       stroke-width=".084"
       id="g197">
      <path
         d="M70.944 129.716c-.011-.01-.148.002-.304.026l-.284.043.2.11c.172.094.215.09.304-.026.057-.075.095-.144.084-.153z"
         class="d"
         id="path191" />
      <path
         d="M83.618 131.178c2.597-.195 6.067-.84 6.186-1.15.03-.077.074-.516.099-.976.106-1.982-.71-3.61-2.36-4.714-.544-.364-1.715-.841-2.065-.842-.055 0-.206-.168-.335-.373-.546-.864-1.448-1.451-2.438-1.586l-.418-.057-.191-.684c-.359-1.284-.736-1.594-1.939-1.593-1.348.001-1.949.534-2.237 1.988-.064.323-.072.329-.588.434-.288.059-.73.201-.982.317-.546.25-1.375 1.013-1.574 1.45-.117.256-.25.364-.743.602-.788.381-1.654 1.236-2.084 2.06-.485.928-.674 1.862-.627 3.103l.082 1.068c.076.076 1.969.454 3.105.62l3.518.366c.852.068 4.54.046 5.593-.034z"
         class="b"
         id="path193" />
      <path
         d="M79.188 128.906c.079-.495.395-1.153.854-1.778l.39-.531.46.559c.534.65.756 1.104.826 1.687l.049.418H80.45h-1.317z"
         id="path195" />
    </g>
  </g>
  <path
     d="M78.151 130.71c-2.878-.198-6.105-.69-6.275-.959-.04-.063-.073-.29-.074-.505l-.001-.391.268.077c.455.131 2.879.486 4.327.635 1.941.2 6.553.2 8.355 0l3.994-.627.684-.159v.177a4.1 4.1 0 0 1-.052.486l-.051.308-.924.221c-1.175.281-3.341.591-4.92.704a65.73 65.73 0 0 1-5.331.033zm-1.236-1.594c-.358-.02-.541-.068-.572-.149-.104-.272.654-1.388 1.214-1.787l.233-.166.351.66c.217.407.371.821.401 1.082l.05.422-.576-.016-1.102-.046zm5.414-.395c0-.571.18-1.111.564-1.688l.298-.448.319.44c.361.498.609 1.093.692 1.661l.056.385-.317.052a7.83 7.83 0 0 1-.964.053l-.647.001zm-7.551.152l-.865-.147c-.094-.094.272-.926.582-1.326.486-.627.468-.613.604-.432.275.366.718 1.903.57 1.979-.036.018-.437-.015-.891-.074zm10.009-.212c.071-.442.233-.784.559-1.18l.257-.311.338.268c.322.255.731.95.733 1.247.001.104-.152.155-.688.23l-.971.096h-.282l.056-.35zm-12.17-.126c-.46-.089-.647-.16-.647-.248 0-.125.892-1.114 1.005-1.114.119 0 .415.831.415 1.164 0 .187-.028.336-.063.331zm14.661-.423c.023-.31.091-.668.151-.796l.108-.232.285.274c.295.284.605.803.605 1.016 0 .079-.149.154-.422.212-.781.168-.776.171-.728-.473zm1.609-.269c-.067-.575.018-1.261.133-1.079.083.131.284.818.355 1.215.035.192.012.277-.081.313-.292.112-.349.05-.407-.449zm-12.825.058c0-.127-.977-2.15-1.037-2.15-.024 0-.106.122-.182.272s-.348.547-.604.884c-.542.712-.57.704-.861-.256l-.171-.563-.264.315c-.145.173-.429.464-.631.646-.332.299-.361.311-.302.122.371-1.186 1.205-2.201 2.246-2.73l.407-.207.596.302c1.072.543 1.905.665 4.564.669 2.487.004 3.24-.071 4.381-.431.478-.151.748-.292.955-.498l.288-.288.551.169c.725.222 1.51.694 2.076 1.25l.458.45-.058.509c-.09.796-.126.809-.635.231-.246-.28-.472-.481-.502-.447s-.161.375-.292.759l-.238.697-.507-.53-.638-.735-.131-.205-.211.42a6.15 6.15 0 0 1-.507.808l-.297.389-.168-.322c-.185-.356-1.117-1.668-1.183-1.666s-.984 1.427-1.111 1.731c-.077.183-.133.239-.163.162-.025-.065-.279-.408-.564-.763s-.605-.822-.712-1.039l-.193-.395-.141.334c-.078.184-.366.65-.641 1.036l-.59.898c-.049.108-.115.196-.145.196-.057 0-.781-1.412-.879-1.713-.046-.143-.192-.026-1.009.813-.525.539-.955.934-.955.877zm1.254-3.275c-.994-.145-1.847-.408-2.05-.632-.152-.168-.152-.179.004-.469.35-.65 1.194-1.193 2.207-1.421.755-.17 3.668-.245 4.733-.122 1.31.151 2.168.672 2.611 1.584.129.265.127.286-.025.397-.272.199-1.021.446-1.782.587-1.01.188-4.6.235-5.698.076zm1.129-3.469c.079-.43.324-.935.556-1.148.455-.418 1.762-.431 2.17-.023.187.187.632 1.306.551 1.387-.013.013-.768.036-1.678.05l-1.654.026z"
     id="path201" />
  <g
     fill="#ff0"
     stroke="#000"
     id="g271">
    <g
       class="u"
       id="g209">
      <use
         xlink:href="#L"
         id="use203" />
      <use
         xlink:href="#M"
         id="use205" />
      <use
         xlink:href="#M"
         x="-1.144"
         y="18.883"
         id="use207" />
    </g>
    <use
       xlink:href="#L"
       x="228.632"
       y="69.056"
       stroke-width=".917"
       transform="matrix(.801831 .109448 -.128921 .68445 -162.54816 1.171351)"
       id="use211" />
    <use
       xlink:href="#L"
       x="228.632"
       y="69.056"
       stroke-width=".804"
       transform="matrix(.844983 -.2399 .147014 .825539 -206.97981 95.84755)"
       id="use213" />
    <g
       stroke-width=".852"
       id="g219">
      <use
         xlink:href="#L"
         x="228.632"
         y="69.056"
         transform="matrix(.733141 -.415939 .353154 .689708 -197.5133 176.40491)"
         id="use215" />
      <use
         xlink:href="#L"
         x="228.632"
         y="69.056"
         transform="matrix(.840812 -.059469 .021525 .774565 -175.53916 77.70835)"
         id="use217" />
    </g>
    <use
       xlink:href="#L"
       x="228.632"
       y="69.056"
       stroke-width=".916"
       transform="matrix(.725716 .012904 -.038724 .776851 -144.62189 44.98278)"
       id="use221" />
    <g
       class="v"
       id="g229">
      <use
         xlink:href="#L"
         x="228.632"
         y="69.056"
         transform="matrix(.606831 .235065 -.25211 .699461 -91.33021 -14.407003)"
         id="use223" />
      <use
         xlink:href="#L"
         x="228.632"
         y="69.056"
         transform="matrix(.566019 .321126 -.35151 .655168 -70.3202 -41.077894)"
         id="use225" />
      <use
         xlink:href="#L"
         x="228.632"
         y="69.056"
         transform="matrix(.566019 .321126 -.35151 .655168 -68.48918 -54.810556)"
         id="use227" />
    </g>
    <use
       xlink:href="#L"
       x="228.632"
       y="69.056"
       stroke-width=".964"
       transform="matrix(.574168 .352135 -.402382 .640714 -65.73537 -71.793216)"
       id="use231" />
    <g
       class="w"
       id="g237">
      <use
         xlink:href="#L"
         x="228.632"
         y="69.056"
         transform="matrix(.66746 .313043 -.370121 .724161 -93.00705 -81.832183)"
         id="use233" />
      <use
         xlink:href="#L"
         x="228.632"
         y="69.056"
         transform="matrix(.645349 .356403 -.417099 .69816 -81.31742 -101.13917)"
         id="use235" />
    </g>
    <use
       xlink:href="#L"
       x="228.632"
       y="69.056"
       transform="matrix(.718628 .288401 -.340254 .793163 -109.76986 -107.97992)"
       class="x"
       id="use239" />
    <use
       xlink:href="#N"
       transform="matrix(-.677217 .757236 .628944 .688393 114.22579 -123.17469)"
       class="y"
       id="use241" />
    <use
       xlink:href="#O"
       transform="matrix(-.566019 .321126 .35151 .655168 115.14659 -35.241513)"
       class="v"
       id="use243" />
    <path
       d="M251.442 112.865c6.477 7.77 5.974 13.714 1.422 19.706-6.671-8.359 1.256-13.142-1.422-19.706z"
       stroke-width=".88"
       transform="matrix(-.665466 .272228 .27845 .804679 151.19763 -54.062404)"
       id="path245" />
    <use
       xlink:href="#L"
       x="228.632"
       y="69.056"
       stroke-width=".829"
       transform="matrix(-.625757 .436833 .438536 .794824 121.72576 -108.02434)"
       id="use247" />
    <g
       class="w"
       id="g253">
      <use
         xlink:href="#L"
         x="228.632"
         y="69.056"
         transform="matrix(-.691816 .254734 .306747 .753196 153.13243 -69.53992)"
         id="use249" />
      <path
         d="M252.349 112.839c4.338 8.327 3.532 14.599.254 19.366-2.035-3.846-5.703-4.151-.254-19.366z"
         transform="matrix(-.6825 .278733 .332858 .742027 147.80544 -85.882598)"
         id="path251" />
    </g>
    <use
       xlink:href="#L"
       x="228.632"
       y="69.056"
       transform="matrix(-.718628 .288401 .340254 .793163 156.31283 -106.83554)"
       class="x"
       id="use255" />
    <use
       xlink:href="#O"
       stroke-width=".886"
       transform="matrix(-.529949 .497262 .556629 .61558 83.88533 -59.078365)"
       id="use257" />
    <use
       xlink:href="#N"
       transform="matrix(-.327583 .961623 .847891 .387989 8.09145 -124.6767)"
       class="y"
       id="use259" />
    <g
       class="u"
       id="g269">
      <path
         d="M26.162 159.009c1.469 1.415 3.666 2.012 5.988 2.468m2.496 1.427l4.005 5.55m-5.035-17.509c-.019 1.415-.038 2.831-.801 3.948m-9.441-6.98c1.371 2.6 2.319 3.006 3.891 3.948m-.961-7.579l.951 4.936m-.391-8c.734-1.061 1.443-2.151 1.802-3.662m-10.27-5.035c1.001 1.746 2.207 2.538 3.433 3.233"
         id="path261" />
      <path
         d="M25.949 126.97c-.106 1.417-1.001 2.308-1.717 3.319m-1.201-10.814c.308 2.547.939 4.709-.401 9.212m-2.804-7.381c-.028 2.498.998 4.934 2.804 7.324m-1.121-21.167c.443.77.423 1.541 1.476 2.311m5.079 3.272c-.975 1.171-1.789 1.859-2.549 2.387m-2.428-12.704c.57 1.564-.003 4.474.769 5.341m2.423-6.044c-.409 1.564-.474 2.786-1.422 4.35"
         class="d"
         id="path263" />
      <path
         d="M18.796 94.347c.623 1.565 1.014 1.288 1.379 1.989m6.506-3.546c-.21.977-1.246 1.862-2.105 2.767m-.458-11.785c-.121 1.423-.279 2.835-.991 4.553"
         id="path265" />
      <path
         d="M19.304 82.458c1.942 1.861 4.41 2.691 4.41 2.691m2.691-3.277c-.556.737-1.676 1.812-2.462 2.473m-4.431-13.392c.738.853 1.6 1.519 2.489 2.146m4.978-3.205l-1.574 2.689m-1.173-9.326c.039 1.698-.062 3.395-.629 5.093m14.82 99.876c-1.057.828-.764 1.571-.286 2.003 4.932 4.463 9.919 8.506 16.937 12.073l1.202-3.033c-6.222-2.56-11.525-5.892-15.564-10.242-.55-.592-.587-1.826-2.289-.801z"
         id="path267" />
    </g>
  </g>
  <use
     xlink:href="#P"
     class="b c e"
     id="use273" />
  <use
     xlink:href="#Q"
     class="f g h"
     id="use275" />
  <use
     xlink:href="#P"
     y="20.256"
     class="b c e"
     id="use277" />
  <use
     xlink:href="#Q"
     y="20.256"
     class="f g h"
     id="use279" />
  <path
     d="M137.084 71.838c-.156-.376-.784-.93-1.358-1.197-.708-.329-1.694-.363-2.251-.078-.34.174-.389.183-.32.055.273-.51 1.353-.832 2.248-.669.996.181 1.586.679 1.769 1.493.119.533.068.769-.087.396zm5.886 2.8c-.004-.368-.236-.763-.62-1.056-.359-.274-1.279-.696-1.804-.829-.401-.101-.461-.25-.101-.25.298 0 1.293-.325 1.404-.459.053-.064.075-.176.047-.248-.058-.15-.662-.428-1.257-.578-.223-.056-.424-.132-.446-.167s.177-.154.444-.262a3.23 3.23 0 0 0 .853-.55c.3-.287.369-.41.369-.658 0-.581-.777-1.028-2.275-1.309-.768-.144-2.107-.139-2.463.009-.154.064-.159.056-.049-.078.162-.199 1.227-.785 1.736-.956.223-.075.384-.172.357-.216-.156-.253-1.363-.704-2.385-.89l-.341-.062.299-.131c.164-.072.495-.173.735-.224s.445-.13.457-.177-.081-.162-.207-.256c-.459-.343-2.148-.27-3.091.135-.203.087-.369.14-.369.117 0-.109.87-.574 1.354-.724.683-.211 1.7-.222 2.281-.025.654.223 1.3.923 1.647 1.788.153.381.381.792.508.912s.611.355 1.078.521c1.689.602 2.052 1.252 1.819 3.252-.108.921-.106.949.097 1.451a3.93 3.93 0 0 1 .246 1.152c.035.558.017.668-.138.854l-.178.213-.003-.299z"
     class="i"
     id="path281" />
  <use
     xlink:href="#P"
     y="40.397"
     class="b c e"
     id="use283" />
  <use
     xlink:href="#Q"
     y="40.397"
     class="f g h"
     id="use285" />
  <path
     d="M136.842 92.652c-.442-.768-1.4-1.293-2.454-1.346-.595-.03-.734-.008-1.084.172-.339.175-.389.183-.32.055.241-.45.986-.706 1.927-.663.875.04 1.414.298 1.793.861.226.335.456 1.122.357 1.221-.016.016-.114-.119-.218-.3zm6.382 2.945c0-.718-.937-1.444-2.434-1.885l-.511-.151.558-.105c.668-.126 1.104-.298 1.275-.503.112-.135.105-.168-.074-.312-.109-.089-.521-.259-.915-.38l-.716-.254c0-.02.144-.11.32-.2.475-.243.696-.524.756-.958.046-.335.023-.418-.182-.661-.289-.344-1.012-.714-1.753-.898-.622-.154-1.742-.185-2.081-.056-.361.137-.259-.062.173-.335.215-.137.58-.316.811-.399s.419-.196.419-.252c0-.148-.618-.682-1.035-.895a3 3 0 0 0-.751-.244l-.391-.061.341-.15a4.8 4.8 0 0 1 .796-.242l.455-.093-.204-.204c-.463-.463-1.982-.456-3.158.014-.472.189-.51.194-.322.043.743-.597 2.091-.954 2.977-.789 1.08.201 1.682.703 2.145 1.786.391.917.602 1.18 1.087 1.357 1.612.59 2.39 1.032 2.63 1.494.177.343.174 1-.008 1.725-.145.577-.145.577.079 1.255.273.826.295 1.587.06 2.104-.201.442-.348.546-.348.246z"
     class="i"
     id="path287" />
  <use
     xlink:href="#P"
     y="59.508"
     class="b c e"
     id="use289" />
  <use
     xlink:href="#Q"
     y="59.508"
     class="f g h"
     id="use291" />
  <path
     d="M138.541 111.078c-.026-.282-.785-1.003-1.347-1.28-.78-.384-1.684-.438-2.273-.135-.479.247-.52.179-.109-.181.796-.699 2.588-.569 3.32.241.336.371.515.858.459 1.241-.021.14-.043.191-.05.114zm4.548 3.367c.198-.637-.501-1.432-1.812-2.061l-.827-.397.384-.024c.666-.041 1.256-.192 1.408-.36.14-.155.136-.172-.083-.375-.127-.117-.498-.318-.825-.446s-.611-.26-.631-.292.13-.123.333-.2c.528-.202.753-.475.801-.974.036-.376.013-.446-.24-.734-.568-.647-1.996-1.178-3.175-1.181l-.662-.032c0-.066.835-.447 1.195-.545l.496-.137c.087-.025.077-.093-.043-.301-.229-.398-.908-.901-1.446-1.07l-.473-.149.322-.111a4.61 4.61 0 0 1 .775-.165c.249-.03.453-.084.453-.121 0-.128-.45-.421-.801-.522-.501-.144-1.886-.118-2.397.045-.577.184-.597.105-.038-.154.642-.297 1.284-.414 2.037-.369.767.046 1.357.282 1.824.733.391.377.555.685.858 1.604.27.818.437.995 1.364 1.446 2.037.991 2.332 1.499 1.812 3.124-.23.719-.232.747-.101 1.189.291.979.119 2.163-.377 2.599l-.194.171z"
     class="i"
     id="path293" />
  <path
     d="M126.616 133.885l7.411 5.137 8.448-2.118c1.049-.093 2.733-1.187 2.051-3.122 1.627-3.005.526-6.276-2.43-7.189.268-3.971-8.087-9.299-11.745-2.35-2.089-.67-7.558.664-6.008 6.101-.588 1.216 1.158 2.944 2.274 3.541z"
     class="b c e"
     id="path295" />
  <path
     d="M126.12 134.123c2.146 2.454 1.476 6.233 6.654 7.261 1.936 1.051 4.615.78 9.937-4.191-2.101-.344-3.287-2.173-6.372-.916-.117-2.671-.913-3.46-1.426-5.031-1.251 1.129-2.686 2.128-2.724 4.109-1.792-2.109-3.975-1.338-6.068-1.231z"
     class="f g h"
     id="path297" />
  <path
     d="M137.12 130.737c-.721-1.101-2.415-1.633-3.481-1.093-.306.155-.378.169-.321.063.299-.559 1.254-.85 2.247-.684 1.015.169 1.676.783 1.81 1.681.031.208.044.389.029.401s-.143-.153-.284-.368zm4.76 4.557c.136-.442-.034-.889-.554-1.459-.244-.267-.697-.663-1.007-.881l-.563-.396.905.031c.726.025.926.006 1.011-.096.143-.172-.179-.552-.86-1.015-.527-.358-.544-.493-.064-.497.302-.002.737-.29.892-.591.283-.547.126-.967-.607-1.62-.649-.578-1.727-1.108-2.431-1.196l-.543-.067.32-.143c.176-.079.608-.167.96-.197.745-.063.778-.121.399-.717-.297-.466-.875-.997-1.165-1.07-.119-.03-.216-.093-.216-.141 0-.055.282-.073.768-.05.814.039.882.003.617-.327-.366-.455-1.458-.796-2.575-.804l-.817-.006.341-.131c.209-.08.64-.134 1.11-.139 1.114-.011 1.802.235 2.44.873.553.553.715.951.839 2.06.045.402.128.833.185.958s.384.443.727.705a11.19 11.19 0 0 1 1.136 1.025c.771.824.801 1.304.15 2.424-.37.636-.377.665-.41 1.544-.028.768-.067.966-.272 1.384-.198.406-.592.833-.767.833-.024 0-.002-.134.048-.297z"
     class="i"
     id="path299" />
  <g
     transform="matrix(.898311 .439359 -.439359 .898311 -144.14148 -119.78381)"
     id="g305">
    <use
       xlink:href="#P"
       x="228.323"
       y="69.056"
       class="b c e"
       id="use301" />
    <use
       xlink:href="#Q"
       x="228.323"
       y="69.056"
       class="f g h"
       id="use303" />
  </g>
  <path
     d="M131.662 147.303c-.091-.203-.369-.555-.618-.782-1.193-1.091-2.843-1.408-4.06-.78-.526.271-.535.241-.076-.267.251-.278.945-.554 1.577-.629a4 4 0 0 1 2.151.426c.781.429 1.283 1.289 1.217 2.086l-.026.314zm3.233 8.246c.078-.112.133-.369.133-.627 0-.655-.384-1.344-1.269-2.278-.406-.428-.661-.749-.567-.714.288.108 1.526.392 1.712.393a.66.66 0 0 0 .331-.113c.242-.177.105-.429-.665-1.231l-.694-.723.341.021c.794.05.908.015 1.295-.388.448-.467.483-.805.152-1.468-.422-.846-2.019-2.161-2.941-2.421-.856-.241-.505-.377.824-.317l.897.04-.057-.306c-.129-.698-.747-1.594-1.366-1.981l-.256-.16.384.001c.211 0 .576.053.811.117l.555.148c.192.048.12-.346-.109-.596-.579-.633-1.909-1.21-3.092-1.343l-.598-.067.384-.074c1.361-.263 3.304.43 4.049 1.446.534.728.64 1.344.54 3.142-.034.607.019.713.793 1.595 1.161 1.324 1.534 1.951 1.532 2.579-.001.378-.341 1.043-.811 1.587-.575.664-.609.735-.717 1.492-.099.691-.372 1.411-.689 1.813-.242.307-.686.623-.876.623-.147 0-.149-.014-.026-.19z"
     class="i"
     id="path307" />
  <path
     d="M112.613 161.45l3.709 8.22 8.333 2.534c.948.46 2.954.389 3.365-1.62 2.942-1.738 3.683-5.109 1.618-7.414 2.274-3.266-2.144-12.136-8.859-8.062-1.446-1.65-6.821-3.322-8.292 2.136-1.13.74-.523 3.12.126 4.206z"
     class="b c e"
     id="path309" />
  <path
     d="M112.065 161.399c.553 3.074-1.734 5.86 1.512 9.208-2.485 2.665-4.846 5.37-8.442 7.688l1.345 1.374c3.083-1.856 5.833-4.6 8.525-7.499 1.452 1.149 4.151 1.588 9.702.402-1.624-1.376-1.699-3.555-4.99-4.066 1.275-2.35.999-3.436 1.368-5.047-1.653.323-3.398.441-4.451 2.12-.45-2.73-2.719-3.194-4.568-4.18z"
     class="f g h"
     id="path311" />
  <path
     d="M123.768 162.351c-.173-.483-.968-1.24-1.631-1.551-1.166-.548-2.184-.589-3.083-.125-.563.291-.581.167-.044-.305.449-.394 1.074-.573 1.975-.566 1.022.008 1.628.235 2.232.834.484.48.747 1.133.697 1.73l-.027.317zm1.764 8.562c.221-.235.362-.593.362-.914 0-.573-.519-1.769-1.241-2.861l-.168-.254.555.309c.982.547 1.707.664 1.707.276 0-.176-.3-.75-.703-1.344-.185-.274-.322-.513-.302-.532s.166.003.327.049c.703.202 1.178.065 1.635-.47.196-.23.194-.87-.004-1.392-.374-.985-1.589-2.378-2.429-2.784l-.446-.216.482-.003c.401-.003 1.156.17 1.761.402.114.044.125-.031.082-.545-.058-.695-.34-1.391-.752-1.861l-.287-.326.296.061c.163.034.555.19.872.349l.576.288v-.214c0-.342-.206-.651-.809-1.216a5.53 5.53 0 0 0-2.093-1.219l-.47-.152.345-.005c.881-.012 2.105.523 2.873 1.256.977.932 1.223 1.963.809 3.401-.371 1.29-.372 1.364-.021 1.998.805 1.454 1.189 2.32 1.226 2.77.068.823-.11 1.09-1.501 2.248-.327.273-.463.456-.535.724a4.81 4.81 0 0 1-.814 1.57c-.29.357-1.033.798-1.346.798-.165 0-.165-.004.011-.192zM136.56 50.461c-.269-.433-1.013-.972-1.568-1.137-.623-.185-1.479-.165-1.889.044s-.411.211-.294-.008c.053-.098.313-.279.579-.401.562-.258 1.343-.302 2-.112.773.222 1.496 1.111 1.415 1.739-.027.21-.036.205-.242-.125zm6.493 3.902c-.025-1.005-.87-1.694-2.314-1.887l-.465-.062.512-.114c.627-.139 1.128-.353 1.186-.506.061-.16-.303-.424-.873-.631-.87-.316-.876-.331-.142-.338 1.223-.011 1.579-.22 1.579-.925 0-.47-.147-.751-.625-1.192-1.028-.948-2.771-1.269-4.214-.778-.337.115-.593.175-.567.133.091-.147 1.016-.695 1.563-.926.304-.128.566-.272.581-.319.054-.162-.591-.77-.969-.915-.28-.107-.54-.134-.998-.103-.563.038-.596.032-.363-.069a4.82 4.82 0 0 1 .715-.21l.459-.099-.208-.208c-.435-.435-1.892-.45-2.996-.03-.519.197-.516.197-.445.082.111-.18 1.11-.614 1.696-.737.78-.164 1.394-.094 2.075.234.636.307.954.68 1.349 1.589.442 1.016.607 1.183 1.292 1.302 1.07.186 1.641.545 1.961 1.232.328.704.245 1.792-.216 2.834l-.159.359.305.201c.698.46.886 1.21.499 1.994l-.21.427z"
     class="i"
     id="path313" />
  <g
     stroke="#520000"
     id="g323">
    <g
       stroke-width=".45"
       class="m"
       id="g319">
      <path
         d="M101.997 177.85l-1.454-3.077 3.816-1.873 5.621 10.279a61.68 61.68 0 0 1-29.596 7.563 61.69 61.69 0 0 1-29.596-7.563l5.621-10.279h0a51.25 51.25 0 0 0 3.816 1.873l-1.373 3.113 5.32 2.019 1.033-3.241c1.772.57 3.575 1.042 5.399 1.414l-.716 3.326 6.682.929.26-3.392 3.552.132 3.552-.132.26 3.392 6.682-.929-.716-3.326m0 0a50.58 50.58 0 0 0 5.399-1.414l1.033 3.241 5.402-2.056"
         fill="red"
         class="j o"
         id="path315" />
      <path
         d="M51.432 182.052c8.848 4.804 18.88 7.443 28.952 7.443s20.098-2.637 28.944-7.439m-56.204-3.146l.035.019c8.321 4.515 17.755 6.995 27.225 6.995 9.484 0 18.93-2.487 27.259-7.014l.028-.015m-52.885-3.004l.202.109c7.773 4.181 16.567 6.475 25.396 6.475 8.906 0 17.777-2.335 25.6-6.585"
         class="d o"
         id="path317" />
    </g>
    <path
       d="M56.635 180.667l-1.646 3.169m5.986-1.384l1.378-3.237m.492 3.883l-1.043 3.412m5.889-5.603l-.961 3.313m3.001.668l-.728 3.494m5.443-6.25l-.447 3.42m7.059-3.081l.055 3.449m-.884.004l.051 3.57m7.258-7.625l.65 3.499m2.75-.461l.628 3.513m2.776-7.844l1.151 3.258m2.124-.637l1.183 3.367m.865-7.826l1.499 3.194m2.921-1.242l1.627 3.179"
       stroke-width=".45"
       class="d"
       id="path321" />
  </g>
  <path
     d="M43.958 187.95l.595.281q-.317.715.202 1.039.257.161.488.119.232-.044.356-.242.073-.117.073-.231 0-.114-.073-.231-.072-.119-.399-.496-.294-.336-.382-.57-.088-.234-.059-.505.033-.272.184-.512.175-.28.442-.426.269-.144.565-.118.296.026.626.232.496.31.606.752.11.443-.186.953l-.587-.324q.135-.299.08-.486-.055-.187-.284-.33-.229-.143-.413-.125-.184.018-.273.161-.088.14-.035.306.052.166.385.533.35.391.454.647.107.255.072.535-.034.278-.227.586-.279.446-.745.578-.463.133-1.048-.232-1.033-.645-.415-1.894zm2.541-1.945l.701-.534.605.378-.965.369zm-.413 4.808l1.975-3.525 1.229.689q.471.264.619.473.149.207.147.515-.001.306-.184.633-.232.414-.573.554-.339.142-.74.002.112.24.144.47.034.227.014.76l-.034.884-.695-.389.007-1.004q.005-.544-.019-.693-.022-.152-.092-.241-.068-.092-.27-.205l-.12-.067-.825 1.471zm1.722-1.708l.433.243q.397.222.524.249.128.025.255-.043.127-.068.225-.244.094-.168.084-.307-.009-.141-.103-.244-.067-.072-.459-.292l-.457-.256zm1.266 3.347l1.852-3.591.593.306-1.852 3.591zm1.241.645l1.726-3.653 1.273.602q.488.231.651.429.163.196.183.504.02.305-.14.644-.203.429-.533.593-.328.165-.739.053.128.231.177.458.049.225.066.757l.027.885-.72-.34-.063-1.002q-.033-.543-.067-.69-.033-.15-.109-.234-.075-.087-.284-.186l-.125-.059-.721 1.525zm1.599-1.823l.449.212q.411.194.54.212.13.016.251-.061.122-.077.208-.259.082-.174.062-.312-.019-.14-.12-.237-.072-.067-.478-.259l-.473-.224zm5.404 4.837l-.677-.266.066-.96-1.232-.483-.589.755-.662-.26 2.676-3.29.659.259zm-.563-1.938l.124-1.562-.966 1.232zm1.223.774l.643.137q-.144.769.435.965.287.097.502.004.216-.096.291-.317.044-.131.018-.241-.026-.111-.124-.208-.097-.1-.502-.391-.363-.26-.502-.467-.139-.207-.173-.478-.03-.272.061-.541.106-.313.332-.516.229-.202.523-.245.294-.043.662.082.553.188.762.593.209.406.037.97l-.646-.181q.063-.322-.034-.492-.097-.17-.352-.256-.256-.087-.43-.027-.175.06-.229.219-.053.157.036.306.089.15.497.431.431.3.59.526.163.224.192.505.031.278-.086.623-.169.498-.592.733-.42.236-1.073.014-1.154-.391-.839-1.749z"
     id="path325" />
  <path
     d="M61.428 197.451l.938-3.223-.945-.275.191-.656 2.527.736-.191.656-.942-.274-.938 3.223zm3.01-3.339l.648.157-.514 2.127q-.12.496-.132.651-.02.27.106.451.129.181.394.246.225.054.391-.01.167-.067.26-.232.097-.167.239-.753l.525-2.173.651.157-.499 2.063q-.191.79-.362 1.123-.168.331-.518.479-.347.146-.832.029-.504-.122-.744-.37-.237-.25-.287-.608-.046-.36.167-1.241zm3.799 3.658l.657.033q-.021.782.582.884.299.051.496-.075.198-.129.237-.36.023-.136-.021-.241-.044-.105-.156-.186-.112-.083-.557-.307-.4-.199-.57-.382-.17-.183-.246-.444-.073-.264-.025-.544.055-.326.246-.562.194-.236.477-.324.283-.089.667-.024.576.098.846.465.27.367.191.952l-.666-.077q.011-.328-.111-.48-.122-.152-.389-.197-.266-.045-.429.042-.163.087-.191.253-.028.163.084.297.112.134.559.346.473.228.666.426.196.195.27.468.074.27.014.628-.088.519-.469.818-.378.299-1.057.184-1.201-.204-1.105-1.594zm3.503 1.898l-.333-4.104.682.077.182 2.813.914-2.69.791.089.261 2.87.823-2.747.668.075-1.253 3.925-.707-.08-.319-3.076-.99 2.928zm6.653.55l-.727-.04-.239-.932-1.321-.072-.323.901-.71-.039 1.509-3.964.707.039zm-1.143-1.664l-.372-1.522-.531 1.472zm1.394.352l.654-.074q.106.775.718.778.303.002.478-.155.174-.159.176-.393.001-.138-.059-.235-.06-.097-.184-.158-.124-.064-.6-.213-.427-.132-.624-.284-.198-.153-.315-.398-.114-.249-.113-.533.002-.331.152-.595.153-.264.418-.398.265-.134.654-.132.584.003.911.322.326.319.343.908l-.67.032q-.042-.325-.188-.456-.145-.13-.416-.132-.27-.001-.417.111-.147.112-.147.28-.001.165.131.279.132.114.608.251.504.149.726.312.225.161.342.418.117.254.115.618-.003.526-.33.883-.324.357-1.013.353-1.218-.006-1.349-1.393z"
     id="path327" />
  <path
     d="M82.704 200.185l-.141-3.354-.983.041-.029-.683 2.63-.11.029.683-.98.041.141 3.354zm2.151-.115l-.303-4.029.665-.05.303 4.029zm2.788-.245l-.527-4.006 1.066-.14q.596-.078.786-.045.305.054.533.333.231.278.294.756.057.434-.068.751-.125.314-.356.467-.23.15-.832.229l-.434.057.199 1.511zm.223-3.415l.15 1.137.366-.048q.369-.048.493-.118.127-.07.194-.215.067-.148.041-.345-.026-.199-.132-.325-.105-.125-.24-.155-.135-.03-.55.025zm2.899 2.988l-.722-3.975 1.386-.252q.531-.097.779-.03.247.064.442.303.194.236.261.605.085.466-.089.792-.171.325-.569.473.239.113.41.27.171.154.494.577l.537.704-.784.142-.634-.778q-.343-.422-.456-.522-.114-.103-.225-.127-.111-.027-.339.014l-.136.025.302 1.66zm.239-2.413l.488-.089q.447-.081.563-.141.115-.063.169-.196.054-.133.018-.331-.034-.19-.131-.29-.097-.103-.235-.123-.098-.013-.54.067l-.515.094zm6.008 1.107l-.708.166-.491-.828-1.288.302-.056.956-.692.162.335-4.228.69-.161zm-1.564-1.276l-.785-1.356-.096 1.562zm2.028-3.058l.645-.181.693 2.462q.168.597.131.922-.037.325-.232.549-.192.223-.54.321-.459.129-.808-.113-.349-.243-.531-.879l.584-.256q.107.339.224.461.159.167.366.109.202-.057.258-.224.055-.17-.082-.658zm5.324 2.554l-.691.228-.562-.781-1.257.414.028.957-.675.222-.039-4.241.673-.222zm-1.67-1.133l-.901-1.282.042 1.565zm.606-2.784l1.237-.476q.507-.195.748-.182.241.013.473.193.232.18.345.475.105.273.069.54-.037.265-.189.445.313-.008.558.169.248.176.379.516.158.412.07.773-.089.359-.334.53-.17.119-.854.382l-1.052.405zm.864.388l.336.872.412-.158q.37-.143.453-.189.15-.087.198-.23.047-.145-.025-.333-.064-.167-.179-.241-.113-.078-.228-.063-.113.014-.607.204zm.577 1.5l.388 1.008.579-.223q.381-.146.474-.227.092-.083.12-.226.029-.147-.04-.327-.071-.185-.197-.273-.124-.091-.272-.084-.146.003-.548.158zm3.181.643l-1.634-3.695.61-.27.643 1.454 1.2-.531-.643-1.454.613-.271 1.634 3.695-.613.271-.714-1.616-1.2.531.714 1.616zm3.885-1.785l-.758-1.522-2.129-1.554.701-.349 1.411 1.083-.027-1.772.688-.343-.045 2.643.756 1.517zm4.277-2.283l-.636.353-.698-.662-1.157.642.207.935-.622.345-.832-4.159.619-.344zm-1.853-.8l-1.125-1.09.334 1.529zm2.212.583l-2.127-3.435.567-.351.837 1.352 1.115-.691-.837-1.352.569-.353 2.127 3.435-.569.353-.93-1.502-1.115.691.93 1.502z"
     id="path329" />
</svg>
