<?xml version="1.0" encoding="UTF-8" standalone="no"?>
<svg
   xmlns:dc="http://purl.org/dc/elements/1.1/"
   xmlns:cc="http://creativecommons.org/ns#"
   xmlns:rdf="http://www.w3.org/1999/02/22-rdf-syntax-ns#"
   xmlns:svg="http://www.w3.org/2000/svg"
   xmlns="http://www.w3.org/2000/svg"
   xmlns:sodipodi="http://sodipodi.sourceforge.net/DTD/sodipodi-0.dtd"
   xmlns:inkscape="http://www.inkscape.org/namespaces/inkscape"
   width="366.792"
   height="406.363"
   viewBox="0 0 97.047 107.517"
   version="1.1"
   id="svg42"
   sodipodi:docname="Seal of the City of Mojokerto (1).svg"
   inkscape:version="1.0.1 (3bc2e813f5, 2020-09-07)">
  <metadata
     id="metadata48">
    <rdf:RDF>
      <cc:Work
         rdf:about="">
        <dc:format>image/svg+xml</dc:format>
        <dc:type
           rdf:resource="http://purl.org/dc/dcmitype/StillImage" />
      </cc:Work>
    </rdf:RDF>
  </metadata>
  <defs
     id="defs46" />
  <sodipodi:namedview
     pagecolor="#ffffff"
     bordercolor="#666666"
     borderopacity="1"
     objecttolerance="10"
     gridtolerance="10"
     guidetolerance="10"
     inkscape:pageopacity="0"
     inkscape:pageshadow="2"
     inkscape:window-width="1366"
     inkscape:window-height="705"
     id="namedview44"
     showgrid="false"
     inkscape:zoom="1.1072242"
     inkscape:cx="206.01117"
     inkscape:cy="295.70828"
     inkscape:window-x="-8"
     inkscape:window-y="-8"
     inkscape:window-maximized="1"
     inkscape:current-layer="svg42"
     inkscape:snap-global="false" />
  <path
     d="M9.963.583c1.152.829 2.052 2.228 1.884 3.667v60.865c0 1.466-1.156 3.249-3.172 3.667l39.85 24.98 39.849-24.98c-2.017-.419-3.172-2.201-3.172-3.667V4.25c-.168-1.439.731-2.838 1.883-3.667h-38.56z"
     fill="#fac600"
     stroke="#b08b00"
     stroke-width="1.165"
     id="path2" />
  <g
     id="g884">
    <path
       d="M74.448 72.267c1.306-1.142.953-.871 2.097-2.359l1.35-1.627c1.255-1.334 1.893-2.639 2.214-4.533.258-1.516.516-2.308.956-2.931.791-1.118 1.25-1.482.542-.429-.619.92-.925 2.258-.93 4.067-.003.997-.241 1.92-.756 2.933a15.56 15.56 0 0 0-.688 1.69c-.389 1.153-.595 1.581-1.049 2.186-.517.689-1.638 1.734-2.453 2.29l-.813.584c-.053.061-.702.427-1.377.777-1.182.612-3.422 1.259-6.007 1.734-4.036.742-5.592 1.244-6.289 2.03-.258.291-.469.559-.47.596s.6.049 1.334.027c1.603-.048 1.892.012 2.049.426.148.39-.04.785-.714 1.497-.598.632-1.272 1.088-2.819 1.907l-1.439.765a7.7 7.7 0 0 1-.623.282c-.219.088-.37.204-.337.258s-.029.099-.138.099c-.28 0-1.779 1.015-2.407 1.63-.538.527-1.163 1.513-1.163 1.835 0 .099-.058.143-.129.1-.167-.103-.029-.865.26-1.442.359-.715 1.117-1.401 2.672-2.419l1.512-.955c.194 0 2.882-1.958 3.251-2.369.454-.505.368-.635-.418-.635-.567 0-.831.072-1.272.35-.889.559-2.339 1.123-3.623 1.409-1.48.33-1.742.429-2.751 1.041-.906.55-2.008 1.027-3.319 1.439l-1.126.381-.544.219c-.27.104-.225.147.56.542 1.145.575 2.14 1.181 2.573 1.567.374.334.373.314.084 1.469-.065.258-.129.468-.144.466s-.426-.382-.913-.845v-.001c-1.303-1.236-1.995-1.743-3.162-2.316-.654-.321-.681-.324-1.189-.124-.286.112-.548.239-.582.282s-.274.176-.532.296c-.694.323-1.976 1.199-2.055 1.405-.126.329-.263.253-1.403-.788-.318-.291-.621-.53-.673-.532s-.094-.06-.094-.129.296-.125.657-.125c1.032 0 4.224-.756 4.224-1 0-.041-.352-.194-.782-.339l-4.254-1.554c-.12-.061-.28-.111-.356-.111s-.288-.105-.471-.234c-.617-.434-.834-.432-1.799.018-1.239.577-2.12.764-3.175.671-1.408-.123-1.943-.225-1.898-.359.023-.07.391-.303.816-.518s.775-.419.777-.454-.374-.077-.835-.095a6.37 6.37 0 0 1-1.569-.291c-.762-.27-.957-.366-1.785-.872l-.501-.306.626-.083 1.189-.104c.31-.012.479-.049.375-.083-1.073-.355-2.119-1.292-2.682-2.405l-.326-.642.346-.013c.19-.007.507-.002.705.011.485.033.39-.202-.295-.726-.505-.386-.588-.409-1.179-.329-.35.048-.766.136-.926.197s-.88.11-1.601.11c-.998 0-1.512-.064-2.151-.269-.462-.148-.858-.317-.881-.375s-.094-.106-.158-.106c-.167 0-.986-.545-.987-.657-.001-.052.333-.094.742-.094s.778-.056.821-.125-.06-.125-.238-.125c-.703 0-2.691-.969-2.987-1.456-.053-.087-.176-.238-.273-.335-.152-.152-.042-.189.785-.27l1.161-.107c.162-.01.133-.118-.153-.568-.194-.306-.41-.731-.481-.946-.084-.255-.292-.476-.598-.637l-.532-.31c-.034-.035-.231-.148-.436-.251a4.07 4.07 0 0 1-1.008-.719.62.62 0 0 0-.363-.156c-.109 0-.296-.05-.416-.111l-.593-.282c-.207-.094-.48-.265-.608-.38s-.395-.277-.594-.359-.362-.195-.362-.25-.169-.137-.375-.182c-.403-.089-.457-.181-.235-.403.103-.103.007-.208-.367-.399-.279-.142-.543-.317-.587-.388s-.118-.106-.165-.077-.349-.28-.67-.685c-.759-.955-.972-1.789-.742-2.904.353-1.711 1.1-2.519 2.911-3.15.299-.104.639-.19.756-.191.389-.003.015-.727-.508-.983-1.273-.623-2.264-1.535-2.792-2.573-.324-.636-.639-2.078-.454-2.078.034 0 .242.09.463.201.377.188.739.142.422-.054-.08-.049-.289-.398-.464-.775-.316-.679-.387-1.179-.244-1.712l.074-.276.39.276.565.438c.272.253.309.089.08-.356-.502-.97-.843-2.112-.921-3.082-.045-.562-.039-.995.014-.963s.096 0 .096-.073.31.191.688.587c.801.839.876.805 1.014-.465.149-1.364.137-1.41-.491-2.067-.663-.692-1.037-1.389-1.159-2.161l-.084-.532.36.072.36.072-.041-.808c-.033-.643.015-.919.235-1.349l.276-.541.264.495.264.495.038-.375c.055-.535.264-1.023.789-1.841l.459-.714.161.758c.13.615.184.715.286.533.154-.275-.072-1.472-.439-2.328-.308-.719-1.153-1.351-1.805-1.351-.315 0-.408-.189-.142-.287.101-.037-.006-.23-.3-.542-.251-.267-.617-.795-.813-1.173-.301-.581-.356-.834-.352-1.627.004-.774.065-1.054.348-1.599.631-1.213 1.402-1.773 2.875-2.088.377-.081.59-.464.59-1.062 0-.271-.155-.484-.672-.926-.37-.316-.707-.548-.751-.516s-.053.023-.022-.02-.076-.254-.238-.469-.384-.693-.493-1.062l-.197-.671.357.052.357.052-.063-1.015c-.05-.793-.018-1.103.144-1.415.114-.22.23-.4.258-.4s.18.258.337.574.298.527.312.469.06-.365.103-.682c.072-.535.857-1.968 1.192-2.175.081-.05.129.208.132.711l.004.79.246-.295c.462-.555.224-1.895-.336-1.895-1.686 0-3.916-1.402-4.218-2.652-.074-.306-.046-.34.316-.375.517-.051.552-.205.153-.665-.408-.47-.55-.832-.55-1.4 0-.341.037-.415.156-.318.086.07.375.249.642.398.437.244.476.248.39.045-.287-.682-.457-1.809-.408-2.698.03-.534.086-1.002.125-1.042s.269.12.511.355.778.646 1.193.915.862.678.995.911l.242.423.088-.703c.048-.387.128-.703.177-.703s.192.173.317.385c.224.379.23.381.408.128.416-.594.563-1.143.421-1.574-.138-.418-.245-.486-1.315-.838-.275-.091-.529-.196-.563-.235s-.26-.144-.501-.234c-1.363-.51-1.724-.814-2.219-1.87-.413-.879-.357-1.985.154-3.056.36-.753 1.227-1.637 1.722-1.755l1.06-.263c.995-.25 1.761-.078 2.703.604 1.25.906 1.684 2.122 1.28 3.593l-.247 1.064c-.049.455-.733 1.715-1.172 2.155-.284.286-.405.514-.379.717.036.279.081.257.727-.359.379-.361.885-.794 1.126-.963l.67-.52c.128-.117.395-.28.594-.363s.362-.2.362-.26.057-.11.127-.11.328-.127.574-.282c.351-.221.575-.551 1.042-1.533s.766-1.421 1.39-2.044c.65-.648 1.754-1.398 2.057-1.398.037 0 .067.197.067.438 0 .478.068.52.441.277.68-.443 2.137-.733 2.815-.561l.49.124-.564.564c-.586.586-.651.787-.172.531.304-.163 1.588-.104 2.435.112l1.116.274c.7.167.666.202-.598.625l-.859.287.598.235c.607.238 1.799.456 3.074.561.703.058.703.058.993-.422.52-.86 1.443-1.65 2.602-2.226 1.022-.508 1.135-.541 2.131-.624.903-.075 1.103-.013.831.26-.215.215-.255.671-.058.671.072 0 .563-.089 1.092-.199.787-.163 1.052-.171 1.465-.047l.629.184c.069.018-.016.09-.188.159a2.56 2.56 0 0 0-.584.359l-.501.388c-.196.133-.16.144.244.079.907-.146 3.499.383 4.527.924l.382.201-.393.083c-.216.046-.921.345-1.565.665l-1.328.582c-.086 0-.155.05-.155.112s-.267.16-.593.22l-.593.108.812.365.812.365-.751.173c-.773.178-2.671.171-3.129-.011-.138-.055-.033.094.234.33.404.358.449.443.271.511-.468.18-1.584.074-2.379-.226l-.816-.307v.307c0 .346-.182.385-.714.156-.765-.33-1.455-.909-1.885-1.582-.598-.936-.632-.964-1.283-1.071l-1.844-.267c-.017.014.264.216.626.448s.676.467.699.522.111.1.197.1.376.109.647.241l.492.241-.501.213c-.929.394-2.918.361-4.683-.079-.476-.119-.454-.088.406.558.498.374.564.467.375.526l-.516.188c-.447.179-1.276.129-1.997-.12-.758-.262-.893-.097-.34.415l.317.293-.796.139c-1.141.199-1.766.167-2.919-.147-1.074-.293-1.37-.46-2.292-1.298-.46-.418-.64-.508-.914-.455-.188.036-.311.115-.274.176s-.033.111-.158.112c-.511.003-3.009 2.16-3.911 3.378-.676.913-.813 1.231-.818 1.908-.004.565.154.608.348.094.176-.467.229-.467.501-.006.252.427.362 1.426.202 1.846-.122.32 0 .369.393.159.209-.112.242-.087.242.183 0 .596-.498 1.652-1.053 2.231-.656.685-.719.853-.601 1.617l.09.585.893-.675c.491-.371.926-.761.966-.866.138-.359.331-.191.331.287 0 .618-.309 1.651-.765 2.554l-.361.786c0 .08.774-.446.89-.605.128-.175.205.201.15.73-.029.275-.191.748-.36 1.052-.344.615-.328.727.071.513.149-.08.301-.116.338-.079.143.143-.262 1.377-.633 1.929-.419.623-1.676 1.592-2.23 1.719-.426.098-.56.263-.665.824l-.084.451.628.074c.825.098 1.45.432 2.181 1.167 1.255 1.261 1.56 2.766.86 4.24-.199.419-.538.889-.767 1.064-.683.52-2.044 1.983-2.209 2.374-.226.537-.352 1.505-.196 1.505.071 0 .148-.046.171-.101s.312-.285.642-.511.79-.599 1.022-.831c.522-.522.568-.436.568 1.05 0 .963-.083 1.45-.448 2.645-.08.261-.066.289.082.17.207-.166 1.097-.67 1.183-.67.032 0 .059.162.059.36 0 .467-.28 1.11-.682 1.568-.176.2-.32.405-.32.456 0 .136.575.256.804.168.248-.095.249.048.005.632-.255.61-1.088 1.502-1.594 1.707-.222.09-.432.198-.466.24-.102.126-1.779.61-2.253.651-.381.032-.457.097-.588.496-.082.252-.201.844-.264 1.314l-.114.855.552.486c.304.267.624.662.713.877.161.39.161.39.251-.4.16-1.395.2-1.401.882-.124.47.879.63 1.325.686 1.906l.073.758.424-.663c.451-.704.523-.707.747-.035.186.558.177 1.287-.028 2.157l-.166.705.386-.111.418-.111c.149 0-.038.726-.347 1.345-.352.705-.828 1.228-1.679 1.846-.924.671-.945.697-.945 1.174 0 .458.014.472.657.647.361.098.731.171.822.161s.136.012.1.047.278.322.696.636c1.6 1.203 1.953 3.177.864 4.834-.259.394-.337.702-.398 1.566-.042.6-.165 1.249-.278 1.466-.239.462-.166.58.832 1.337.666.505.884.572.79.24-.034-.12-.101-.579-.148-1.02l-.086-.801.54.086c.297.048.599.131.671.185s.328.176.569.271c.54.213.617.27 1.468 1.1l.685.667-.082-.542-.148-.886c-.055-.29-.03-.333.163-.27.803.259 1.122.533 1.637 1.409.274.466.338.513.441.329.066-.118.091-.434.055-.701-.08-.595.031-.608.707-.081 1.46 1.139 2.105 2.639 2.103 4.885l-.001 1.347.576.468.835.732c.207.211.46.277 1.261.327.787.049.934.034.688-.073-.172-.074-.341-.166-.375-.203s-.276-.179-.537-.316l-.475-.249.412-.094c.772-.176 2.101.033 3.081.485l.972.423c.1 0-.109-.681-.299-.974-.282-.436-.098-.475.797-.168 1.951.669 3.31 1.934 4.054 3.77l.47 1.151c.117.282.483.696.939 1.062.411.33.852.746.979.924.132.185.489.411.832.526l1.898.659c.713.252 1.417.429 1.564.395.675-.156 1.793-.476 2.02-.578l1.117-.445c1.364-.523 2.541-1.271 3.451-2.191.103-.105.554-.498 1.001-.875l.876-.753c.034-.037.371-.32.747-.629l.886-.749c.339-.316 3.984-3.283 4.733-3.852l.892-.69c.103-.085.385-.292.626-.46l.501-.381c.034-.042.936-.658 2.002-1.37 3.654-2.438 4.362-3.504 5.141-7.736.371-2.017.768-3.464 1.02-3.721.08-.082.096.048.044.375-.043.275-.128 1.824-.188 3.442-.096 2.573-.144 3.035-.39 3.692-.745 1.995-2.179 3.702-4.35 5.176-.42.285-.812.518-.872.518s-.218.101-.351.224-.426.299-.649.391-.407.206-.407.254-.197.164-.438.258-.438.218-.438.274-.058.102-.129.102c-.213 0-1.798 1.089-2.134 1.466-.532.597-.554.681-.156.594.609-.134 1.927-.561 2.467-.799l4.221-1.662c1.887-.673 3.573-1.236 5.275-2.354z"
       fill="#629a6a"
       id="path12" />
    <path
       d="M37.9 82.073a6.62 6.62 0 0 0 1.148-.639c.567-.399.662-.426 1.247-.348.624.083.63.081.41-.163a1.25 1.25 0 0 0-.524-.322c-.221-.056-.415-.314-.734-.981-.379-.793-1.072-1.808-1.074-1.573 0 .046.146.376.326.734s.356.869.392 1.137c.065.484.064.486-.372.486a9.19 9.19 0 0 1-1.015-.079c-.528-.072-.6-.125-.837-.615-.26-.537-1.234-1.74-1.331-1.643-.028.028.142.383.379.788s.466.858.51 1.008c.08.271.079.272-.708.092-1.038-.236-2.673-.773-3.254-1.067-.255-.129-.534-.235-.62-.235-.561 0 1.829 1.221 3.304 1.687l1.243.393-.48.207a8.14 8.14 0 0 1-1.012.341c-.293.074-.532.161-.532.194 0 .131 1.487-.102 2.179-.341.7-.242 1.82-.276 2.034-.061.129.129-.222.462-.891.845-.702.403-.607.474.21.158zm-8.602-6.485c-.207-.169-.404-.31-.438-.312s-.063-.593-.063-1.312-.056-1.364-.125-1.432c-.083-.083-.13.115-.138.594-.012.651-.238 1.646-.374 1.646-.03 0-.42-.238-.866-.53l-.812-.53-.001-.69c-.001-.64-.266-1.939-.429-2.101-.039-.039-.035.271.009.688s.04.97-.009 1.229l-.088.47-.272-.259-1.023-.948a15.58 15.58 0 0 1-1.436-1.567c-.377-.483-.705-.859-.729-.835-.132.132 1.928 3.161 2.241 3.296.244.105.779.651.707.723-.079.079-1.267-.092-1.784-.257-.138-.044.003.06.313.231s.957.382 1.439.468c.914.164 2.217.879 1.927 1.057-.078.048-.571.126-1.097.173-.897.08-.926.092-.472.188.266.056.942.076 1.502.042.685-.041 1.14-.007 1.393.103.207.09.516.166.688.168l.313.005-.375-.308zm-12.091-9.13c.238-.176.681-.339 1.057-.389.356-.048.733-.162.838-.255s.415-.241.688-.331c.415-.136.556-.276.852-.851.304-.591.346-.795.298-1.443-.098-1.321-.817-2.285-2.149-2.882-1.078-.483-1.586-.504-2.67-.109-1.179.43-1.896 1.091-2.21 2.036-.234.704-.278 1.916-.088 2.403s1.006 1.362 1.635 1.757c.703.442 1.211.46 1.749.063zm.311-8.474c.043-.215.078-.5.078-.633s.166-.45.37-.704c.385-.481.816-1.383.711-1.488-.033-.033-.144.099-.246.295s-.323.485-.492.642l-.307.286-.074-.625c-.05-.425-.016-.741.107-.987.192-.384.436-1.508.425-1.951-.004-.145-.106.046-.228.426-.376 1.175-.452 1.24-.642.542-.236-.869-1.689-3.652-1.832-3.509-.026.026.13.436.346.911.449.988 1.111 2.84 1.111 3.111 0 .156-.066.154-.469-.014a5.16 5.16 0 0 1-.831-.453c-.199-.141-.34-.197-.313-.125.065.177 1.108 1.038 1.441 1.191.26.119.422.719.422 1.566 0 .289-.03.304-.469.223-.258-.047-.709-.219-1.001-.381s-.532-.268-.532-.235c0 .156.755.692 1.338.95.643.284.785.476.788 1.069.003.417.209.341.299-.11zm-1.116-12.482c.057-.181.247-.251.85-.314 1.06-.111 1.367-.406.372-.357-1.035.05-1.13-.047-.864-.888l.215-.682.811-.052c.446-.028.877-.117.957-.198.111-.111.038-.129-.306-.073-.248.04-.598.037-.776-.008l-.324-.081.599-.771c.801-1.031 1.286-1.757 1.287-1.927 0-.107-2.157 2.025-2.356 2.329-.08.121-.388-.412-.311-.537.043-.07.016-.088-.062-.04-.086.053-.185-.072-.258-.325l-.119-.411-.011.461c-.012.483.176 1.112.367 1.23.062.038.011.395-.113.797l-.225.728-.395-.597c-.217-.328-.395-.539-.395-.469 0 .259.297.987.521 1.277.127.164.23.488.23.72 0 .454.187.568.307.188zm-.157-10.329c.048-.074.125-.357.171-.628l.084-.494.165.479c.091.263.25.564.353.668.168.168.196.156.252-.112l.176-.802.113-.501.161.782c.21 1.022.347 1.016.691-.031.073-.222.102-.204.254.156.095.224.245.413.335.421.948.084 1.816-.987 1.945-2.4.053-.585.009-.835-.245-1.386-.407-.883-1.205-1.684-2.077-2.083-.681-.312-.74-.318-1.807-.183-1.283.162-1.779.419-2.414 1.25-.428.561-.809 1.555-.809 2.114 0 .594.527 1.681 1.143 2.355.569.622.661.677 1.024.607.219-.043.438-.138.486-.212zm1.223-8.449c.102-.378.208-.506.474-.571.376-.091 1.337-.68 1.251-.766-.03-.03-.218.025-.418.122a4.05 4.05 0 0 1-.777.262l-.413.086.085-.668c.088-.695.229-.981.48-.981.182 0 1.231-.76 1.155-.836-.03-.03-.271.061-.536.203-1.006.539-1.012.294-.048-1.713l.563-1.283c-.113 0-1.272 1.84-1.498 2.378-.253.601-.437.883-.446.682-.003-.065-.084-.4-.179-.745l-.174-.626-.003.563a3.67 3.67 0 0 0 .179 1.064c.235.646.126 1.652-.153 1.42-.1-.083-.288-.352-.418-.598-.173-.328-.237-.38-.24-.197-.002.138.162.55.363.916s.404.915.45 1.22.103.555.127.555.103-.219.175-.487zm.814-9.775c.184-.208.566-1.08.566-1.291 0-.074-.168.13-.373.453s-.398.588-.429.588-.142-.294-.247-.653c-.164-.56-.167-.681-.017-.847.171-.189.494-1.365.401-1.459-.026-.026-.149.179-.274.455-.377.836-.506.865-1.036.238-1.835-2.171-2.3-2.209-.604-.05l.688.876-.401.086c-.22.047-.541.061-.713.031-.281-.05-.274-.037.063.127.207.101.585.185.84.188.505.006.683.208.854.964.088.389.076.404-.392.483-.266.045-.667.046-.892.004l-.409-.078.313.188c.172.103.571.19.887.192.499.004.597.05.748.349l.174.344.044-.501c.024-.275.118-.585.21-.688zm-1.248-8.636c.043-.069.244-.125.447-.125s.669-.169 1.035-.375.83-.376 1.031-.377.434-.045.517-.098c.255-.162.65-1.195.736-1.923.138-1.177-.539-2.318-1.728-2.911-1.628-.811-3.772-.022-4.496 1.656-.543 1.258-.409 2.501.37 3.426.533.634 1.861 1.097 2.089.728zm10.611-.464c-.17-.061-.956-1.112-1.07-1.43-.061-.172.083-.228.88-.347l.953-.142.508.483c.428.407 1.339 1.024 1.511 1.024.027 0-.271-.324-.664-.72l-.714-.72.787-.037c.655-.031 3.416.339 4.139.555.113.034.064-.021-.108-.122-.548-.32-2.655-.84-3.731-.92-1.183-.088-1.185-.14-.024-.788.508-.284.59-.362.313-.299-.725.164-1.363.43-1.763.735s-1.804.592-1.804.365c0-.059.296-.411.657-.783l.657-.675-.563.341c-.31.188-.817.584-1.126.88-.328.314-.786.603-1.097.694-.293.086-.6.237-.683.336-.128.154-.048.167.562.091.671-.084.718-.072.826.207.171.44 1.491 1.561 1.642 1.395.034-.038-.006-.094-.09-.124zm12.997-.847l-.517-.594c0-.019.368-.029.818-.022.679.01.862.06 1.082.296.281.302 1.167.751 1.48.75.114 0 .065-.078-.125-.197-.405-.253-.786-.766-.688-.925.042-.068.188-.124.324-.124.404 0 3.545-.768 3.681-.9.081-.079-.072-.097-.438-.052l-3.71.288c-.042-.042.006-.33.108-.639.178-.541.176-.557-.051-.435-.13.07-.358.377-.506.683l-.27.556h-.914c-.648 0-.914-.046-.913-.156.002-.387.298-1.185.543-1.467l.27-.309-.438.32c-.241.176-.578.579-.748.896-.317.589-.523.711-1.202.714-.693.003-.588.183.22.379.513.124.78.249.757.354-.019.089.019.129.085.089s.194.029.285.155c.138.192 1.186.896 1.339.9.026.001-.185-.251-.469-.559z"
       fill="#fff"
       id="path14"
       style="fill:#ffffff" />
  </g>
  <g
     id="g893">
    <path
       d="M79.537 2.743c-.269-.021-.44.079-.498.301-.096.368.131.623.631.711.662.116.987.356 1.293.958.439.861.294 2.077-.55 4.603-.823 2.463-1.045 3.841-.842 5.254.16 1.116.743 2.45 1.31 3 .386.374.399.418.274.888-.153.573-.237.611-.428.193-.076-.166-.465-.743-.865-1.284s-.908-1.376-1.128-1.857c-.579-1.265-.695-2.229-.593-4.942.126-3.372.112-3.422-1.538-5.205-1.746-1.887-2.189-2.119-4.038-2.112-1.209.005-1.425.045-2.691.5l-1.377.495-3.087.001-3.176.089c-.049.049-.055.175-.015.282.061.16.348.194 1.674.194 2.792.002 3.72.266 5.465 1.557 1.443 1.067 1.9 1.237 3.479 1.297 1.128.043 1.47.007 2.189-.225.468-.151 1.09-.436 1.381-.633l.53-.357.243.31c.233.296.278.477.454 1.836.088.68.069.689-.86.407-1.563-.474-2.752-.582-7.589-.691l-5.532-.246c-.612-.118-.814-.235-1.414-.821-.77-.752-1.424-1.133-2.377-1.388-1.343-.359-2.655-.159-5.194.791-1.966.736-2.22.789-3.817.791-2.025.003-2.889.253-2.182.631.178.095.841.111 2.126.05l1.867-.089 2.223 1.068 2.81 1.207c1.601.377 3.219-.077 4.556-1.279.607-.546.64-.558 1.182-.456.307.058 2.079.165 3.937.239 5.628.224 7.262.383 9.219.901l.959.254-.02 2.148c-.018 1.94.009 2.239.275 3.087.372 1.185.486 1.407 1.532 2.969 1.422 2.126 1.411 2.094 1.312 3.847-.047.829-.172 1.844-.277 2.257-.236.927-.914 2.241-1.525 2.955l-.459.538-.083-.745c-.079-.71-.061-.779.371-1.433.802-1.215 1.071-2.044 1.077-3.318.007-1.352-.268-2.26-1.134-3.754l-.89-1.54c-.209-.364-.346-.862-.421-1.53-.135-1.207-.392-1.995-.908-2.785-.401-.615-.739-.8-1.196-.655-.389.123-.324.276.418.984.801.764 1.076 1.505 1.073 2.89-.003.729-.081 1.072-.449 1.949-1.168 2.783-1.168 2.782-1.168 3.692 0 1.457.618 2.809 1.948 4.261l.682.745-.047 1.001c-.041.872-.122 1.163-.624 2.253-.702 1.523-.834 2.069-.836 3.442-.003 2.151.513 3.376 2.496 5.929 1.722 2.218 1.861 2.529 1.952 4.396.131 2.673-.491 4.708-1.93 6.319l-.614.688-.09-.658c-.082-.598-.056-.711.289-1.251.909-1.42 1.242-2.785 1.025-4.203-.212-1.386-.701-2.319-2.698-5.15-.887-1.257-1.288-3.473-.881-4.873.254-.874.172-1.736-.16-1.672-.395.076-.547.921-.488 2.727.047 1.44.107 1.837.406 2.691.482 1.376.46 1.992-.117 3.383-.892 2.149-.979 3.046-.438 4.494.316.845.808 1.578 1.66 2.475.674.709.68.723.767 1.689.077.855.444 3.259.636 4.175.051.245-.048.468-.422.938-1.681 2.12-1.985 4.715-.831 7.09.22.452.219.494-.03 1.506-.141.573-.582 1.799-.979 2.726l-.942 2.403c-.155.508-.421.948-.906 1.502-.648.74-2.216 3.041-2.216 3.252 0 .128-.041.138.781-.196.395-.161.689-.323.653-.359-.145-.145 1.571-2.24 3.279-4.003 1.889-1.95 2.615-2.918 3.042-4.058.3-.802.512-2.499.417-3.332-.059-.509-.021-.655.266-1.03.932-1.222 1.26-3.231.888-5.447-.317-1.885-.281-2.357.291-3.881a25.21 25.21 0 0 0 .777-2.51c.252-1.064.264-1.236.107-1.563-.206-.43-.543-.541-.669-.22-.049.124-.195.913-.326 1.753-.324 2.091-.791 3.246-1.734 4.281l-.732.803-.218-1.211-.218-1.211.877-.924c.483-.508 1.027-1.179 1.21-1.491.852-1.454 1.153-3.215.954-5.593l-.271-3.344-.14-1.78.649-.723c1.396-1.557 2.014-3.005 2.098-4.916.053-1.209.031-1.384-.283-2.19-1.105-2.837-1.307-3.582-1.306-4.819 0-1.282.203-2.453.625-3.61.265-.726.298-1.605.059-1.56-.46.087-1.162 2.626-1.291 4.666l-.1 1.589-.963 1.465c-1.616 2.458-1.965 3.349-1.962 5.014.003 1.242.463 2.681 1.242 3.877.479.736.518.857.483 1.516l-.038.716-.828-1.048c-.987-1.249-1.583-2.179-1.996-3.112-.263-.595-.304-.875-.302-2.065.003-1.323.024-1.43.541-2.747.459-1.169.65-1.49 1.298-2.183.985-1.053 1.648-2.089 1.956-3.056.362-1.137.373-1.212.517-3.594.159-2.646.305-3.242 1.05-4.286.983-1.378 1.373-2.36 1.433-3.609.047-.981.018-1.154-.307-1.879-.197-.439-.683-1.187-1.08-1.661s-.759-1.008-.804-1.186-.016-.779.065-1.334c.196-1.358.184-2.565-.031-3.078-.334-.794-.946-1.499-1.524-1.754-.229-.101-.426-.158-.587-.171zm-.59 59.398v.656c0 .877-.295 1.961-.787 2.889-.397.751-2.193 2.749-2.033 2.263l.635-1.776c.304-.839.621-1.882.703-2.318.144-.758.179-.813.815-1.254z"
       fill="#9d7e00"
       id="path16" />
    <path
       d="M74.441 6.929c.574-.129 1.878-.725 1.877-.858-.001-.189-1.583-1.675-2.045-1.922-.426-.227-.725-.278-1.647-.278-.979-.001-1.319.064-2.597.49l-1.471.568c0 .169 2.353 1.743 2.879 1.925.644.224 2.172.262 3.004.075zM60.174 9.538c.461-.137 2.002-1.165 2.002-1.336 0-.227-1.111-1.175-1.736-1.48-.582-.285-.838-.33-1.878-.335-1.076-.005-1.347.044-2.537.46l-1.865.692-.533.226 1.677.829c2.458 1.215 3.364 1.391 4.868.944zm21.995 7.005c.778-1.149 1.072-2.079 1.003-3.175-.066-1.053-.332-1.596-1.424-2.901-.559-.669-.762-.838-.839-.701-.056.1-.241.729-.412 1.398-.565 2.222-.347 4.366.575 5.639.208.287.42.521.472.521s.332-.352.624-.782zm-3.904 8.478c.888-1.516 1.08-3.032.573-4.525-.315-.926-1.671-3.287-1.744-3.036-.028.098-.341.825-.694 1.617-.613 1.372-.642 1.489-.638 2.503.004.904.057 1.173.357 1.794.357.739 1.489 2.211 1.7 2.211.063 0 .264-.254.446-.564zm3.768 11.044c.76-1.25.968-1.991.972-3.471.004-1.285-.009-1.345-.574-2.691l-.668-1.801-.09-.424-.967 1.488c-1.245 1.916-1.523 2.589-1.603 3.879-.08 1.279.209 2.309 1.048 3.736l.586.996.429-.496a11.08 11.08 0 0 0 .868-1.217zm-3.875 11.459c.466-.944.476-.994.471-2.347-.004-1.15-.051-1.483-.279-1.982-.297-.649-1.675-2.841-1.787-2.842-.038 0-.188.351-.334.782l-.601 1.582a4.49 4.49 0 0 0 .099 3.526c.323.666 1.622 2.245 1.847 2.245.059 0 .322-.434.584-.964zm.954 13.491c.736-.787 1.152-1.663 1.356-2.854.133-.774.122-1.135-.076-2.565l-.317-1.832c-.061-.117-.381.152-1.053.884-1.658 1.806-2.177 2.821-2.294 4.483-.066.941.091 1.776.538 2.849l.173.415.535-.368c.294-.202.806-.658 1.138-1.013z"
       fill="#f7c707"
       id="path18" />
    <path
       d="M78.196 60.44c0-.103.194-.458.431-.788.561-.78.692-1.132.877-2.341l.153-1.001.155.722c.23 1.072-.039 1.939-.951 3.064-.448.553-.665.665-.665.344zm-1.491-14c-.632-1.022-.809-2.265-.447-3.131.104-.249.203-.453.219-.453s.031.493.032 1.095c.002.926.055 1.209.344 1.83.188.404.341.812.341.907 0 .3-.22.188-.49-.248zm4.119-11.017c0-.095.183-.56.407-1.033.381-.805.407-.944.404-2.204l-.002-1.345.232.452c.337.656.404 1.627.169 2.434-.314 1.076-1.209 2.33-1.209 1.694zm-3.758-11.872c-.327-.531-.622-1.525-.62-2.088.001-.246.128-.719.282-1.052l.28-.605v1.356c0 1.154.042 1.442.282 1.928.155.314.282.638.282.72 0 .279-.254.149-.504-.259zm4.585-7.457c-.035-.057.022-.381.128-.72.233-.748.168-2.478-.123-3.275-.283-.775-.032-.651.38.188.294.598.353.879.351 1.658-.003 1.271-.457 2.598-.735 2.149zM60.08 8.189c-.923-.413-1.919-.548-2.934-.398-.499.074-.928.113-.954.087-.141-.141.902-.487 1.621-.538 1.222-.088 3.286.598 2.916.968-.075.075-.315.031-.65-.119zm11.946-1.925c-.581-.217-1.514-.822-1.417-.918.039-.039.368.064.731.228.571.258.862.3 2.13.308l1.544.084c.345.345-2.187.598-2.988.298z"
       fill="#9d7e00"
       id="path20" />
  </g>
  <g
     id="g910">
    <path
       d="M24.981 12.329V54.31c1.599 16.461 19.188 21.211 23.543 21.709 4.354-.498 21.945-5.248 23.543-21.709V12.329H48.524z"
       fill="#4b7138"
       id="path4" />
    <path
       d="M37.79 52.873a27.44 27.44 0 0 0-1.044.011c-2.989.086-5.368.766-7.365 1.065-1.579.236-2.881.303-4.4-.128v.49c.165 1.699.503 3.271.976 4.728 1.486.141 2.884.044 4.162-.147 2.431-.363 4.498-.944 6.772-1.01 2.456-.071 3.667.189 5.224.52s3.463.744 6.408.744 4.852-.413 6.41-.744 2.769-.591 5.224-.52c2.273.066 4.338.646 6.77 1.01 1.279.191 2.677.289 4.163.147.473-1.458.811-3.03.976-4.728v-.49c-1.519.43-2.82.364-4.399.128-1.998-.299-4.376-.978-7.365-1.065-2.904-.084-4.82.289-6.41.627s-2.856.635-5.369.635-3.778-.296-5.369-.635c-1.392-.296-3.031-.618-5.365-.638z"
       fill="#5ca0c5"
       stroke="#1f4558"
       stroke-width=".794"
       id="path6" />
    <path
       d="M24.081 11.429v.9 42.025l.004.043c.829 8.538 5.853 14.103 11.148 17.51s10.825 4.736 13.187 5.006l.104.012.102-.012c2.362-.27 7.894-1.6 13.189-5.006s10.319-8.971 11.148-17.51l.004-.043V11.429H48.524zm1.801 1.801h22.643 22.643v41.012c-.775 7.912-5.34 12.947-10.324 16.152-4.937 3.176-10.277 4.458-12.318 4.705-2.04-.247-7.381-1.529-12.318-4.705-4.984-3.206-9.549-8.241-10.324-16.152z"
       fill="#c00000"
       stroke="#8b0000"
       stroke-width=".5"
       id="path8" />
    <path
       d="M24.688 12.036v.293 41.998l.002.016-.002-.004c.809 8.329 5.684 13.721 10.873 17.059s10.683 4.655 12.928 4.912l.035.004.031-.004c2.247-.257 7.737-1.571 12.932-4.912s10.064-8.73 10.873-17.059l-.002.004.002-.016V12.036H48.524zm1.193.586h22.643 22.643c.161 0 .316.064.43.178s.178.268.178.43v41.012c0 .02-.002.039-.004.059-.795 8.117-5.514 13.333-10.6 16.604-5.042 3.243-10.41 4.537-12.574 4.799-.048.006-.097.006-.145 0-2.164-.262-7.531-1.555-12.574-4.799-5.085-3.271-9.805-8.487-10.6-16.604-.002-.019-.004-.039-.004-.059V13.229c0-.161.064-.316.178-.43s.268-.178.43-.178z"
       fill="red"
       id="path10" />
    <path
       d="M37.19 40.928c.891-.373 1.486-1.076 1.486-1.757 0-.364-.044-.373-.792-.173-.486.13-.609.115-1.124-.134-.479-.232-.593-.354-.659-.709-.084-.45-.167-.514-.383-.299-.072.072-.322.23-.557.353-.285.149-.54.442-.766.884l-.466.814c-.178.214.148.643.719.944.562.297 1.919.339 2.543.078zm23.902-2.898c.757-.74.988-1.145.988-1.738v-.444h-.622c-.548 0-.656-.045-.904-.381-.269-.363-.312-.377-.932-.3-.687.086-.746.053-1.347-.758-.619-.836-1.364 1.54-.895 2.856.355.995 1.185 1.498 2.357 1.427.674-.041.766-.086 1.355-.661zm-22.098.069c.689-.334 1.074-.856 1.154-1.566.111-.988.015-1.125-1.031-1.477-.516-.173-.959-.277-.985-.231s-.088.309-.138.583c-.133.736-.278.933-.876 1.189-.297.127-.577.291-.623.364-.117.19.148 1.091.395 1.337.275.275 1.332.175 2.105-.199zm14.115-3.768c.601-.309.943-.769 1.156-1.555.207-.765.206-.806-.027-1.207-.212-.365-.319-.423-.882-.48-.371-.038-.748-.163-.898-.298-.242-.219-.277-.22-.574-.026-.199.13-.316.323-.316.521 0 .438-.282 1.056-.672 1.47-.181.193-.329.399-.329.459 0 .182 1.128 1.112 1.417 1.169.523.102.854.086 1.126-.053zm-3.314-1.679c.59-.299.896-.861.896-1.645 0-.628-.016-.658-.504-.933-.313-.176-.48-.348-.439-.454.049-.127-.039-.16-.34-.131-.354.034-.427.105-.57.558-.175.553-.297.615-1.455.734-.287.029-.541.137-.609.258-.064.114-.222.314-.352.444-.325.325-.301.424.198.805.892.68 2.245.836 3.174.365zm-7.857-3.952c.766-.432.781-.486.243-.876-.499-.362-1.001-1.157-1.001-1.587 0-.399-.156-.419-.524-.066l-.354.339-.499-.487-.499-.487-.438.425c-.535.519-.579 1.067-.151 1.889.41.788 1.141 1.152 2.16 1.078.417-.03.895-.133 1.064-.228zm3.22-1.413c1.306-.667 1.86-1.623 1.748-3.016-.036-.448-.135-.898-.22-1.001-.178-.214-.64-.247-.828-.058-.071.071-.423.163-.783.206-.646.076-.66.087-1.016.779l-.657 1.178-.296.477-.486-.445c-.545-.499-.598-.517-.801-.272-.193.233-.004 1.061.358 1.571.627.881 1.908 1.131 2.982.582zm13.471-2.323c.282-.107.305-.16.196-.446-.068-.179-.123-.677-.123-1.108 0-.653-.047-.826-.282-1.041a3.3 3.3 0 0 0-1.422-.716c-.354-.076-.408-.045-.594.348-.227.478-.271 1.518-.085 2.006.066.173.299.486.519.696.318.304.509.382.936.382.295 0 .68-.055.856-.121zm-3.462-.709c.261-.07.28-.139.255-.906a10.39 10.39 0 0 1 .078-1.543l.106-.713-.589-.286c-.577-.28-.592-.281-.725-.045-.235.421-.747.819-1.053.819-.264 0-.294.056-.292.532.003.578.336 1.432.665 1.704.175.145 1.013.498 1.21.51.034.002.19-.03.345-.072z"
       fill="#758ba0"
       id="path22" />
    <path
       d="M30.492 42.911c.057-.228.172-.299.53-.329.425-.035.471-.08.645-.627.184-.578.196-.588.684-.563.47.024.497.005.513-.35l.036-.72a1.13 1.13 0 0 1 .298-.623c.153-.153.454-.618.667-1.033.313-.608.503-.814.98-1.066.4-.211.711-.506.96-.907.325-.525.419-.594.803-.594.511 0 .756-.297.877-1.064l.135-.776c.045-.22-.038-.319-.414-.492a6.65 6.65 0 0 1-.814-.453c-.407-.28-.632-.225-1.22.297-.241.214-.72.575-1.064.803l-1.259.922c-.591.474-.659.498-1.019.362-.316-.119-.488-.107-.949.07-1.132.432-1.767 1.161-2.329 2.669-.284.762-.285.786-.072 1.439.119.365.263.723.319.795s.163.41.236.751.288.964.476 1.384c.333.743.349.759.625.579.156-.101.316-.315.356-.475zM68.4 41.359c0-1.715.004-1.737.323-1.988.299-.235.336-.377.489-1.886.155-1.521.151-1.667-.062-2.139-.466-1.034-1.967-2.698-2.302-2.553-.807.348-1.316.102-1.452-.703-.069-.406-.14-.495-.456-.564-.272-.06-.354-.136-.3-.277.043-.113-.036-.298-.191-.442-.202-.189-.254-.361-.22-.726.044-.466.033-.481-.418-.557-.332-.056-.631-.004-1.051.182-.323.143-.655.26-.738.26s-.287-.211-.454-.469c-.336-.52-.676-.636-1.054-.358-.221.163-.246.311-.222 1.315l.027 1.132-.622.221c-.342.121-.622.266-.622.322s.113.322.25.591c.402.787.295.83-.41.163-.94-.889-1.059-.937-1.787-.717-.336.101-.664.237-.729.302-.134.134.403.378.83.378.146 0 .498.113.783.251.403.195.58.388.798.87.314.694.627.867 1.042.577.394-.276.548-.247.951.175.322.337.42.368 1.096.344l.742-.026-.037.999c-.056 1.494-.04 1.525.861 1.63.707.082.756.108.677.357-.209.656-.196.952.069 1.568.312.726.493.763.656.135l.11-.425.396.649.749 1.238.353.589.284-.356c.378-.474.618-.356.792.392a8.25 8.25 0 0 0 .346 1.094c.357.848.5.404.5-1.545zm-27.077-.318c.082-.138.216-.473.297-.746.115-.386.227-.517.51-.592.2-.053.56-.271.801-.485 1.229-1.092 1.815-1.343 1.439-.616-.284.55-.241.55.47.001.656-.507 2.511-1.503 2.798-1.503.084 0 .189.219.234.487s.217.613.385.772c.285.268.317.272.534.075.127-.115.367-.488.533-.829s.353-.622.415-.625.298.136.524.308.44.313.476.313.334-.287.662-.637l.596-.637.55.582.55.582.273-.257a1.64 1.64 0 0 1 .681-.338c.582-.116 1.175.48 1.526 1.537.145.435.31.82.368.855s.204.484.325.997c.228.968.35 1.078.49.44.125-.571.283-.336.38.567.048.447.123.812.166.812s.264-.113.49-.251c.349-.213.419-.222.469-.062.199.636.204.641.322.332.082-.213.174-.271.332-.21a4.3 4.3 0 0 0 .562.154l.344.069v-.947c0-1.183-.219-1.484-1.314-1.808-.698-.207-.788-.278-1.28-1.009-.656-.976-.838-1.583-.822-2.744.007-.499-.017-.907-.054-.907s-.287.199-.556.442-.544.409-.61.368-.122-.423-.123-.849l-.003-.775-.216.348c-.5.807-2.003 1.179-3.094.765l-.939-.319a2.19 2.19 0 0 1-.73-.399c-.244-.226-.447-.271-1.252-.275-.658-.004-1.058-.069-1.273-.206a2.83 2.83 0 0 0-.582-.281c-.239-.071-.267-.034-.25.327.016.35-.029.417-.323.474-.188.037-.444.155-.569.262-.408.352-.496.368-1.017.184l-.515-.182.08.339.095.453c.02.153-.495.296-1.119.311-.556.014-.979.357-1.353 1.099-.232.459-.542.596-.977.431-.276-.105-.354-.053-.774.513-.465.626-.467.631-.227.896a1.62 1.62 0 0 1 .32.6c.068.286.014.374-.372.613-.392.242-.924.896-.925 1.136 0 .044.209-.026.464-.156s.53-.237.609-.237c.091 0 .167.34.204.918.082 1.286.199 1.393.552.506l.442-.986zm.356-5.223c.603-.781.818-1 1.151-1.172.251-.13.346-.255.296-.387-.041-.107-.005-.389.08-.625.124-.344.206-.415.409-.358a8.27 8.27 0 0 0 .784.149c.738.108.909-.068.911-.941.002-.985.103-1.302.391-1.227.243.064.734-.429.734-.737 0-.091.317-.25.72-.361.96-.265 1.059-.33 1.311-.855.188-.392.29-.461.789-.536.388-.058.742-.228 1.098-.525.626-.523.749-.351.345.484-.142.293-.258.573-.258.622 0 .201.431.231.786.054.21-.105.401-.17.425-.146s-.039.278-.14.564c-.21.594-.117.657.306.207.37-.394.508-.392.886.012.262.28.375.315.828.254.519-.07.529-.064 1.018.624l.493.695.154-.642c.085-.353.201-.625.258-.605s.234.23.393.465.345.445.414.464.284-.215.479-.522l.353-.558.397.298c.477.358 1.071.502 1.599.386.387-.085.388-.088.308-.73-.044-.354-.103-1.17-.13-1.813-.061-1.413-.188-1.644-1.015-1.845-.338-.082-.803-.227-1.033-.32-.386-.157-.434-.149-.626.098-.114.147-.304.443-.421.657-.162.295-.3.389-.572.389-.573 0-.853-.434-.892-1.382-.018-.444-.056-.83-.085-.859s-.273.015-.543.096c-.693.208-1.055.013-1.379-.741-.142-.331-.259-.661-.259-.735 0-.2-.322-.16-.507.063-.215.259-.817.566-.916.467-.043-.043-.079-.463-.079-.934 0-.836-.007-.855-.323-.855-.178 0-.833.253-1.456.563s-1.252.563-1.398.563c-.243 0-.261.057-.222.688l.043.689h.614c.676 0 .697.026.426.546l-.187.359.876-.083c.976-.092 1.083.007.63.583-.415.527-1.424.882-2.342.824l-.791-.05v.519.519l-1.283.425c-1.097.364-1.289.467-1.324.716-.03.215-.096.27-.25.209-.115-.045-.502-.114-.86-.152-.7-.074-.687-.087-.816.771-.027.183-.345.357-1.288.707l-1.69.539c-.241.042-.911.367-1.488.724l-1.05.648.605.177c.575.168.884.161 1.746-.04l.375-.087-.497.451c-.558.506-.536.562.348.887.331.122.668.328.75.459.217.348.426.292.744-.199.502-.775.582-.546.283.812-.249 1.134-.246 1.166.094.987.155-.081.366-.257.469-.391zm-9.074-2.5c.499-1.072.722-1.187 1.288-.662.186.172.388.313.45.313s.401-.288.752-.639c.621-.621.651-.635 1.046-.492s.627.119 1.3-.138c.432-.165.69-.878.774-2.143.06-.895.041-1-.239-1.332-.173-.205-.303-.521-.303-.734 0-.511-.137-1.155-.246-1.155-.049 0-.149.131-.222.291s-.499.681-.946 1.158l-1.108 1.211c-.361.423-.986.572-1.258.301-.145-.145-.226-.156-.336-.046s-.204.108-.391-.008c-.481-.3-.73-.193-.877.379-.076.293-.255.823-.399 1.179-.243.601-.326.679-1.151 1.087-.489.242-1.142.671-1.452.953-.551.503-.555.512-.187.429.207-.046.734-.217 1.173-.38s.899-.296 1.024-.296c.299 0 .364.516.156 1.252l-.161.602c-.001.022.232-.091.518-.25.373-.208.597-.456.794-.879zm36.237-3.228c.451 0 .457-.075.06-.769s-.393-.905.01-1.198l.324-.236-.637-.552c-.688-.597-.778-.851-.387-1.095.327-.204.321-.716-.011-.949-.251-.176-.253-.195-.046-.512.118-.181.194-.347.167-.369a30.62 30.62 0 0 0-.705-.476c-.707-.469-.724-.602-.081-.602.634 0 .609-.202-.047-.379l-.681-.208c-.144-.077.142-.697.408-.883.294-.206.32-.602.046-.707-.109-.042-.387-.076-.618-.076s-.569-.057-.751-.126c-.296-.113-.327-.181-.29-.644.041-.505.027-.525-.576-.852-.34-.184-.639-.396-.664-.471s.043-.35.152-.61c.238-.571.199-.62-.889-1.093s-1.361-.445-2.006.229c-.606.632-.777.678-1.117.301-.249-.275-1.115-.708-2.68-1.339-.812-.327-1.143-.387-2.449-.44-1.427-.058-1.56-.086-2.406-.512-1.187-.598-1.33-.587-1.6.122-.183.48-.261.561-.48.5-1.176-.328-2.918-.206-3.397.238-.288.267-.303.333-.187.835l.129.613c.002.037-.309.174-.69.304-.608.207-.671.258-.51.419.127.127.502.19 1.225.206l1.042.022-.041.656-.041.656.479-.09c.263-.049.663-.166.887-.26.591-.247.93-.136 1.583.518.57.57.593.58 1.296.543.631-.033.734-.076.872-.366.218-.457.485-.65.882-.638.45.014 1.727.587 1.814.814.04.104.309.206.643.244.81.091 1.953.694 2.294 1.209.223.337.282.603.282 1.283 0 1.047.14 1.095 1.019.354.799-.674 2.226-1.624 2.439-1.624.101 0 .171.134.171.326 0 .371-.776 2.087-1.434 3.17-.244.401-.443.78-.443.841s.579.091 1.29.064l1.29-.048.142.483a10.51 10.51 0 0 1 .244 1.171c.11.745.091.735 1.008.553.51-.101.526.062.089.884-.175.329-.297.619-.271.645s.313-.033.638-.131c.728-.219.772-.15.578.916-.204 1.123-.044 1.291.55.581.261-.312.549-.568.641-.568.217 0 .604.559.823 1.189.172.495.174.487.209-.782l.036-1.283zm-38.927-2.215c0-.09.114-.163.254-.163.42 0 1.065-.324 1.593-.801.443-.4.573-.45 1.171-.448 1.21.003 1.264.044 1.23.923-.038.96-.018 1.203.101 1.2.292-.008 1.796-1.677 2.284-2.533.602-1.057.784-1.152 1.416-.735l.352.232.488-.483c.268-.266.544-.483.612-.483s.274.197.458.438.37.438.413.437.426-.31.85-.688.851-.688.948-.688.309.141.471.313.343.313.403.313c.121 0 .849-1.475.849-1.721 0-.105.215-.157.657-.157.436 0 .795-.085 1.067-.25.296-.181.631-.25 1.208-.25.691 0 .905-.062 1.593-.458l1.451-.823c.713-.396.878-.68.313-.541-1.835.453-2.176.395-2.418-.411-.144-.481-.162-.493-.814-.547-.452-.037-.821-.163-1.149-.39-.552-.383-1.045-.421-1.731-.134-.603.252-1.196.163-1.69-.252-.638-.537-1.209-.62-4.307-.628-3.538-.009-4.502.146-3.41.551 1.512.56 2.4 1.129 2.15 1.377-.146.145-1.993.38-2.991.38-.728.001-1.272.191-2.162.757-.54.343-.364.432 1.255.633.635.079 1.199.184 1.253.233.121.11-1.716.589-2.665.694-.732.082-1.752.468-1.752.665 0 .065.152.217.338.339.315.207.322.227.094.312-.134.05-.705.131-1.268.181-.694.061-1.045.147-1.091.265-.087.225.355.634.867.804l.401.132-.166.465c-.222.623-.216 1.099.024 1.913.293.992.399 1.076.755.595.163-.221.296-.475.296-.565z"
       fill="#6b9786"
       id="path24" />
    <path
       d="M51.392 72.141c-.545-.502-.545-.503-.625-1.596l-.15-1.782-.07-.688.917.913c1.095 1.091 1.178 1.147 1.692 1.15.579.003.617-.204.071-.379-.259-.083-.575-.243-.703-.354-.27-.236-.706-1.048-.706-1.314 0-.1-.149-.291-.332-.424s-.296-.3-.252-.371c.151-.245 2.294.664 3.325 1.41.297.215.59.308.97.308.3 0 .545-.027.545-.059s-.155-.144-.344-.247-.58-.407-.868-.675c-.323-.3-.739-.542-1.084-.629-.783-.197-1.588-.842-1.943-1.557-.164-.329-.27-.626-.237-.659.096-.096 2.288.525 2.618.741.205.134.567.192 1.138.183.803-.014.866.008 1.529.519 1.042.804 1.769 1.016 2.552.743.54-.188.495-.317-.09-.261-.594.057-1.007-.154-1.831-.931-.625-.589-.628-.59-1.724-.673-1.001-.075-1.134-.116-1.502-.468a4.64 4.64 0 0 0-1.03-.679c-.571-.268-.596-.297-.289-.332.185-.021 1.002.082 1.815.23 1.225.222 1.729.254 2.945.185 1.457-.083 1.472-.081 2.284.302.954.451.975.452 1.63.145l.501-.235-.626.016c-.458.012-.818-.079-1.342-.338-.647-.32-.869-.359-2.315-.405-2.521-.082-3.863-.406-4.086-.989-.091-.237.277-.236 1.611.004 1.287.233 2.261.232 3.484-.002.605-.116 1.713-.188 2.891-.188 1.054 0 2.085-.061 2.301-.136.393-.137.795-.659.956-1.24.079-.285.065-.279-.153.063-.488.764-.401.747-4.085.798-5.502.077-6.28.05-7.246-.248-.468-.145-1.088-.443-1.377-.663-.551-.42-1.385-1.734-1.52-2.395l-.077-.379.008-3.531v-.426c0-.235.092-.762.205-1.172l.215-.965c.005-.12.044-.219.085-.219.124 0 .6-1.487.881-2.753.355-1.603.38-3.025.064-3.729l-.24-.536-.542.532-.542.532v1.345c0 .74-.064 1.502-.143 1.695-.375.92-.639 1.462-.774 1.591-.292.28-.871.699-.966.699-.053 0-.186-.263-.296-.585-.227-.666-.26-1.883-.07-2.568.212-.763 1.268-2.156 3.062-4.039l2.505-2.735c.626-.757 1.439-1.978 1.432-2.147-.003-.07-.163-.431-.355-.802l-.349-.675-.532.987c-.712 1.32-1.59 2.382-3.205 3.876l-2.29 2.149c-.88.844-1.273 1.085-1.273.783 0-.149-.303-.52-1.344-1.646-.43-.465-.953-1.115-1.163-1.446-.373-.587-.906-2.135-1.058-3.072-.042-.258-.116-.469-.164-.468s-.329.225-.623.498c-.456.424-.523.548-.454.843.121.518.688 1.947.857 2.161.082.103.385.594.675 1.09s.855 1.317 1.258 1.823l.888 1.212c.088.164.206 1.148.269 2.244.129 2.228.314 3.093.913 4.268.432.847.536 1.071.551 1.569l.109 3.579-.088.461c-.218 1.144-1.056 2.296-2.003 2.753-.549.265-3.21.271-4.631.01-.658-.121-1.799-.164-3.817-.144-1.583.016-2.98-.004-3.104-.043s-.399-.306-.611-.592c-.369-.5-.381-.506-.297-.146.264 1.135.718 1.313 3.352 1.317l2.596.132c1.016.234 3.29.491 4.347.491.992 0 1.034.011.893.238-.295.472-.981.678-3.591 1.078-1.379.211-2.04.424-2.81.903-.394.245-.574.282-1.033.214-.305-.046-.555-.056-.555-.024s.258.158.574.279c.548.209.597.209 1.095-.006.287-.124.606-.293.709-.376.277-.223 1.351-.407 3.254-.557l2.378-.193c.587-.05.653-.036.451.1l-.813.591c-.515.386-.684.439-1.585.501-1.009.069-1.009.069-1.752.737-.859.772-1.178.929-1.87.915l-.501-.01.438.192c.697.306 1.766.014 2.566-.7.497-.444.979-.602 1.636-.538.544.053.733.007 1.324-.327.706-.399 1.38-.536 1.139-.233-.068.086-.194.372-.279.637s-.402.759-.705 1.099-.55.672-.55.736c0 .207-.788 1.022-1.105 1.142-.421.16-.256.279.238.17.238-.052.633-.326.966-.668a11.63 11.63 0 0 1 .971-.893c.224-.173.737-.707 1.14-1.187l.732-.873.065.435c.036.239.015.745-.046 1.123l-.127 1.021c-.009.183-.053.31-.097.283s-.117.201-.163.507c-.09.598-.563 1.123-1.142 1.269-.375.094-.274.299.148.299.744 0 1.428-.627 1.743-1.598.199-.614.377-.879.504-.752.104.104.299 1.358.329 2.111.029.742.017.775-.449 1.189-.425.378-.448.426-.203.426.461 0 .994-.404 1.261-.955.234-.484.242-.599.103-1.567-.145-1.01-.075-2.234.127-2.234.22 0 .763 2.345.763 3.295 0 .393.092.824.232 1.087.271.509.932.999 1.348.999.263 0 .239-.049-.254-.503zM50.19 42.736c0-.05-.326-.48-.725-.955-1.112-1.327-1.742-2.219-2.103-2.983-.182-.383-.389-.697-.461-.697s-.381.147-.687.326c-.5.293-.549.362-.483.688.109.544.882 1.68 2.193 3.222L49.1 43.72l.545-.447c.3-.246.545-.488.545-.537z"
       fill="#967f67"
       id="path26" />
  </g>
  <g
     id="g880">
    <g
       stroke="#b08b00"
       stroke-width=".529"
       id="g38">
      <path
         d="M6.064 92.127c2.822 1.476 1.861 5.561 6.081 3.56l5.653-3.312-3.903-4.312c-2.492 1.032-5.588 1.776-7.831 4.064z"
         fill="#c59c00"
         id="path28" />
      <path
         d="M9.137 77.952l-7.422 3.85c-6.557 5.218 11.294 10.949 10.43 13.885l6.939-4.065c-.4-5.771-6.603-9.125-9.948-13.67z"
         fill="#d1a500"
         id="path30" />
      <path
         d="M90.984 92.127c-2.822 1.476-1.861 5.561-6.081 3.56l-5.653-3.312 3.903-4.312c2.492 1.032 5.588 1.776 7.831 4.064z"
         fill="#c59c00"
         id="path32" />
      <path
         d="M87.911 77.952l7.422 3.85c6.557 5.218-11.294 10.949-10.43 13.885l-6.939-4.065c.4-5.771 6.602-9.125 9.948-13.67z"
         fill="#d1a500"
         id="path34" />
      <path
         d="M11.12 77.369c-.54-.015-1.19.146-1.983.583l-7.461 3.871c1.956-.881 2.69.712 3.347 1.78 4.619 7.508 6.283 8.197 10.697 12.196 10.17 9.213 24.235 11.455 32.804 11.455s22.635-2.242 32.804-11.455c4.414-3.999 6.078-4.687 10.697-12.196.657-1.067 1.391-2.661 3.347-1.78l-7.461-3.871c-2.539-1.399-3.61.035-4.287.991-7.821 11.043-18.363 18.777-35.1 18.777s-27.279-7.733-35.1-18.777c-.466-.657-1.117-1.541-2.304-1.574zm84.252 4.453l.469.243c-.165-.098-.319-.176-.469-.243zm-93.697 0c-.15.067-.305.146-.469.243z"
         fill="#fac600"
         id="path36" />
    </g>
    <path
       d="M11.229 80.388l.671.932-1.867 1.343 3.127.407.881 1.224-3.204-.515-1.262 3.872-.876-1.218.974-2.825-.79-.118-1.517 1.091-.671-.932zm2.505 10.061q.513.467 1.157.362.647-.103 1.282-.8.633-.695.675-1.349.047-.654-.465-1.121-.513-.467-1.163-.367-.65.1-1.285.798-.635.698-.675 1.354-.039.656.474 1.123zm3.302.348q-1.013 1.112-2.176 1.134-.907.056-1.792-.751-.885-.806-.914-1.714-.089-1.163.924-2.275 1.033-1.135 2.179-1.132.907-.056 1.792.751.885.806.914 1.714.107 1.138-.927 2.272zm.012-3.987zm6.787 5.951l-.603.784-1.325-1.019-2.802 3.644-.931-.716 2.802-3.644-1.331-1.023.603-.784zm.623 4.303l1.251.667.419-2.268zm1.699-3.033l1.164.62-.883 5.86-1.117-.596.223-1.183-1.816-.968-.881.831-1.077-.574zm.575.307zm10.576 3.867l1.627.415-1.379 5.413-1.054-.269.933-3.661q.04-.158.116-.44.077-.286.116-.44l-2.182 4.281-1.098-.28.14-4.802q-.039.154-.109.442-.068.284-.109.442l-.933 3.661-1.054-.269 1.379-5.413 1.645.419-.1 4.507zm5.696 5.759q.69.074 1.147-.391.462-.465.563-1.403.101-.934-.252-1.487-.348-.556-1.038-.63-.69-.074-1.155.39-.465.464-.566 1.403-.101.938.255 1.491.356.553 1.045.627zm2.871-1.669q-.161 1.496-1.087 2.2-.699.58-1.89.452-1.191-.128-1.75-.844-.758-.886-.597-2.382.164-1.526 1.091-2.2.699-.58 1.89-.452 1.191.128 1.75.844.758.855.594 2.381zm-2.344-3.225zm5.409 3.921l.004.129q.033.647.165.909.136.258.553.246.413-.011.538-.303.075-.173.064-.578l-.108-3.906 1.167-.032.107 3.887q.02.712-.215 1.136-.397.716-1.484.746-1.087.03-1.474-.528-.387-.562-.414-1.547l-.004-.129zm7.854.61q.685-.107 1.007-.675.326-.569.18-1.501-.145-.929-.628-1.371-.48-.447-1.165-.34-.685.107-1.015.676-.329.569-.184 1.501.145.932.632 1.374.487.442 1.172.335zm2.34-2.356q.232 1.487-.48 2.407-.525.742-1.708.926-1.183.185-1.909-.362-.962-.659-1.194-2.146-.237-1.516.484-2.407.525-.742 1.708-.926 1.183-.185 1.909.362.954.63 1.19 2.146zm-3.099-2.508zm4.617-.713l1.1-.33.662 2.203 1.403-2.823 1.444-.434-1.53 2.862 3.25 2.454-1.437.432-2.354-1.841-.369.708.538 1.789-1.1.33zm10.446-2.919l-2.675 1.258.505 1.073 2.456-1.154.413.878-2.456 1.154.611 1.3 2.798-1.316.427.909-3.831 1.801-2.377-5.055 3.707-1.743zm2.776-1.72l.865 1.226 1.081-.762q.322-.227.431-.415.193-.331-.078-.715-.293-.415-.669-.363-.212.029-.521.247zm.748-1.714q.487-.329.82-.402.337-.075.665.009.271.069.506.218.235.149.425.419.229.325.288.757.056.429-.23.825.405-.096.701.048.297.138.635.618l.216.307q.221.313.324.407.162.15.357.138l.081.115-1.05.74q-.15-.121-.234-.201-.173-.166-.318-.365l-.305-.42q-.314-.432-.572-.469-.254-.038-.676.258l-.985.694 1.262 1.79-.932.657-3.219-4.565zm6.108-5.305l.662.735-1.242 1.118 3.075 3.417-.873.786-3.075-3.417-1.248 1.123-.662-.735zm6.482.151q.44-.536.301-1.174-.136-.641-.866-1.239-.727-.596-1.382-.604-.656-.013-1.095.523-.44.536-.306 1.18.134.644.864 1.242.73.598 1.387.603.658.005 1.097-.531zm.175-3.316q1.164.954 1.246 2.114.103.903-.656 1.829-.759.926-1.664 1.002-1.157.15-2.32-.804-1.187-.973-1.244-2.117-.103-.903.656-1.829.759-.926 1.664-1.002 1.131-.166 2.318.807zm-3.982.195z"
       fill="red"
       id="path40" />
  </g>
</svg>
