<svg xmlns="http://www.w3.org/2000/svg" xmlns:xlink="http://www.w3.org/1999/xlink" width="3779" zoomAndPan="magnify" viewBox="0 0 2835 3542.999855" height="4724" preserveAspectRatio="xMidYMid meet" version="1.0"><path fill="#000200" d="M 2713.65625 28.851562 L 2713.65625 2295.796875 C 2713.65625 3010.597656 2128.796875 3508.847656 1413.96875 3508.847656 C 737.996094 3508.847656 114.269531 3029.285156 114.269531 2295.796875 L 114.269531 28.851562 Z M 2659.53125 82.980469 L 168.402344 82.980469 L 168.402344 2295.800781 C 168.402344 2984.617188 751.527344 3454.722656 1413.96875 3454.722656 C 2085.539062 3454.722656 2659.53125 2992.328125 2659.53125 2295.800781 Z M 2659.53125 82.980469 " fill-opacity="1" fill-rule="evenodd"/><path fill="#f9c13b" d="M 2659.527344 82.980469 L 168.402344 82.980469 L 168.402344 2295.800781 C 168.402344 2984.621094 751.527344 3454.722656 1413.964844 3454.722656 C 2085.539062 3454.722656 2659.527344 2992.328125 2659.527344 2295.800781 Z M 2659.527344 82.980469 " fill-opacity="1" fill-rule="evenodd"/><path fill="#000200" d="M 210.570312 116.269531 L 2617.363281 116.269531 L 2617.363281 616.078125 L 210.570312 616.078125 Z M 243.050781 148.753906 L 2584.878906 148.753906 L 2584.878906 583.597656 L 243.050781 583.597656 Z M 243.050781 148.753906 " fill-opacity="1" fill-rule="evenodd"/><path fill="#000200" d="M 315.921875 215.253906 L 437.625 215.253906 C 457.886719 215.253906 473.445312 222.363281 484.3125 236.515625 C 495.175781 250.660156 500.605469 268.195312 500.605469 289.109375 C 500.605469 306.640625 496.738281 321.691406 488.960938 334.183594 C 483.820312 342.605469 476.234375 349.160156 466.304688 354.0625 C 481.421875 359.167969 492.480469 367.933594 499.625 380.425781 C 506.722656 392.925781 510.292969 408.589844 510.292969 427.433594 C 510.292969 442.828125 507.75 456.632812 502.710938 468.917969 C 497.621094 481.203125 490.675781 490.867188 481.914062 498.042969 C 476.429688 502.460938 468.210938 505.707031 457.199219 507.710938 C 442.570312 510.402344 432.875 511.785156 428.082031 511.785156 L 315.921875 511.785156 Z M 381.402344 331.628906 L 409.734375 331.628906 C 419.863281 331.628906 426.957031 329.140625 430.917969 324.242188 C 434.886719 319.273438 436.894531 312.164062 436.894531 302.84375 C 436.894531 294.21875 434.886719 287.453125 430.917969 282.621094 C 426.957031 277.722656 420.011719 275.304688 410.175781 275.304688 L 381.402344 275.304688 Z M 381.402344 448 L 414.53125 448 C 425.734375 448 433.609375 445.175781 438.214844 439.582031 C 442.8125 433.992188 445.109375 426.542969 445.109375 417.082031 C 445.109375 408.316406 442.863281 401.273438 438.308594 395.960938 C 433.753906 390.644531 425.785156 387.953125 414.378906 387.953125 L 381.402344 387.953125 Z M 668.3125 462.914062 L 594.710938 462.914062 L 584.140625 511.785156 L 517.832031 511.785156 L 596.960938 215.253906 L 668.0625 215.253906 L 746.851562 511.785156 L 678.832031 511.785156 Z M 654.558594 398.722656 L 631.609375 292.148438 L 608.558594 398.722656 Z M 767.941406 215.253906 L 828.574219 215.253906 L 907.40625 378.980469 L 907.40625 215.253906 L 968.773438 215.253906 L 968.773438 511.785156 L 907.40625 511.785156 L 829.011719 348.953125 L 829.011719 511.785156 L 767.941406 511.785156 Z M 1099.433594 215.253906 L 1164.613281 215.253906 L 1164.613281 376.289062 C 1164.613281 410.109375 1162.507812 435.851562 1158.253906 453.523438 C 1153.992188 471.128906 1145.429688 486.105469 1132.558594 498.390625 C 1119.691406 510.609375 1103.199219 516.75 1083.132812 516.75 C 1061.894531 516.75 1045.457031 512.679688 1033.808594 504.601562 C 1022.109375 496.527344 1013.105469 484.722656 1006.746094 469.125 C 1000.382812 453.59375 996.617188 434.335938 995.488281 411.421875 L 1057.445312 399.546875 C 1057.539062 412.527344 1058.371094 422.1875 1059.886719 428.472656 C 1061.40625 434.820312 1064.003906 439.863281 1067.667969 443.792969 C 1070.164062 446.347656 1073.683594 447.589844 1078.289062 447.589844 C 1085.578125 447.589844 1090.914062 443.792969 1094.339844 436.199219 C 1097.71875 428.609375 1099.433594 415.769531 1099.433594 397.753906 Z M 1329.523438 462.914062 L 1255.921875 462.914062 L 1245.351562 511.785156 L 1179.046875 511.785156 L 1258.175781 215.253906 L 1329.277344 215.253906 L 1408.066406 511.785156 L 1340.046875 511.785156 Z M 1315.773438 398.722656 L 1292.820312 292.148438 L 1269.769531 398.722656 Z M 1429.453125 511.785156 L 1429.453125 215.253906 L 1537.691406 215.253906 C 1557.757812 215.253906 1573.121094 217.667969 1583.695312 222.570312 C 1594.316406 227.402344 1602.875 236.441406 1609.382812 249.558594 C 1615.894531 262.742188 1619.121094 278.828125 1619.121094 297.742188 C 1619.121094 314.167969 1616.628906 328.386719 1611.636719 340.324219 C 1606.691406 352.335938 1599.84375 362.003906 1591.085938 369.453125 C 1585.558594 374.148438 1577.917969 378.078125 1568.28125 381.1875 C 1576.011719 384.84375 1581.636719 388.4375 1585.160156 392.09375 C 1587.511719 394.511719 1590.988281 399.757812 1595.535156 407.691406 C 1600.039062 415.628906 1603.074219 421.773438 1604.589844 426.125 L 1636.148438 511.785156 L 1562.75 511.785156 L 1528.058594 421.359375 C 1523.652344 409.625 1519.734375 402.03125 1516.308594 398.515625 C 1511.613281 393.957031 1506.28125 391.679688 1500.359375 391.679688 L 1494.632812 391.679688 L 1494.632812 511.785156 Z M 1494.632812 335.769531 L 1522.085938 335.769531 C 1525.019531 335.769531 1530.792969 334.390625 1539.308594 331.699219 C 1543.617188 330.523438 1547.136719 327.421875 1549.828125 322.382812 C 1552.570312 317.339844 1553.9375 311.609375 1553.9375 305.121094 C 1553.9375 295.53125 1551.785156 288.144531 1547.484375 283.035156 C 1543.175781 277.863281 1535.101562 275.304688 1523.207031 275.304688 L 1494.632812 275.304688 Z M 1657.242188 215.253906 L 1778.949219 215.253906 C 1799.207031 215.253906 1814.765625 222.363281 1825.632812 236.515625 C 1836.5 250.660156 1841.925781 268.195312 1841.925781 289.109375 C 1841.925781 306.640625 1838.058594 321.691406 1830.28125 334.183594 C 1825.144531 342.605469 1817.558594 349.160156 1807.625 354.0625 C 1822.742188 359.167969 1833.800781 367.933594 1840.949219 380.425781 C 1848.042969 392.925781 1851.613281 408.589844 1851.613281 427.433594 C 1851.613281 442.828125 1849.074219 456.632812 1844.035156 468.917969 C 1838.941406 481.203125 1831.992188 490.867188 1823.234375 498.042969 C 1817.753906 502.460938 1809.53125 505.707031 1798.523438 507.710938 C 1783.890625 510.402344 1774.199219 511.785156 1769.410156 511.785156 L 1657.242188 511.785156 Z M 1722.722656 331.628906 L 1751.058594 331.628906 C 1761.179688 331.628906 1768.277344 329.140625 1772.246094 324.242188 C 1776.207031 319.273438 1778.214844 312.164062 1778.214844 302.84375 C 1778.214844 294.21875 1776.207031 287.453125 1772.246094 282.621094 C 1768.277344 277.722656 1761.335938 275.304688 1751.496094 275.304688 L 1722.722656 275.304688 Z M 1722.722656 448 L 1755.851562 448 C 1767.058594 448 1774.933594 445.175781 1779.535156 439.582031 C 1784.132812 433.992188 1786.433594 426.542969 1786.433594 417.082031 C 1786.433594 408.316406 1784.183594 401.273438 1779.632812 395.960938 C 1775.082031 390.644531 1767.101562 387.953125 1755.703125 387.953125 L 1722.722656 387.953125 Z M 2009.628906 462.914062 L 1936.03125 462.914062 L 1925.460938 511.785156 L 1859.15625 511.785156 L 1938.285156 215.253906 L 2009.382812 215.253906 L 2088.167969 511.785156 L 2020.15625 511.785156 Z M 1995.882812 398.722656 L 1972.929688 292.148438 L 1949.878906 398.722656 Z M 2109.5625 511.785156 L 2109.5625 215.253906 L 2217.804688 215.253906 C 2237.867188 215.253906 2253.230469 217.667969 2263.800781 222.570312 C 2274.421875 227.402344 2282.984375 236.441406 2289.492188 249.558594 C 2296 262.742188 2299.230469 278.828125 2299.230469 297.742188 C 2299.230469 314.167969 2296.738281 328.386719 2291.746094 340.324219 C 2286.800781 352.335938 2279.953125 362.003906 2271.195312 369.453125 C 2265.664062 374.148438 2258.027344 378.078125 2248.390625 381.1875 C 2256.121094 384.84375 2261.746094 388.4375 2265.273438 392.09375 C 2267.621094 394.511719 2271.09375 399.757812 2275.644531 407.691406 C 2280.144531 415.628906 2283.179688 421.773438 2284.691406 426.125 L 2316.261719 511.785156 L 2242.863281 511.785156 L 2208.164062 421.359375 C 2203.761719 409.625 2199.839844 402.03125 2196.417969 398.515625 C 2191.722656 393.957031 2186.386719 391.679688 2180.464844 391.679688 L 2174.742188 391.679688 L 2174.742188 511.785156 Z M 2174.742188 335.769531 L 2202.191406 335.769531 C 2205.132812 335.769531 2210.902344 334.390625 2219.417969 331.699219 C 2223.726562 330.523438 2227.246094 327.421875 2229.9375 322.382812 C 2232.679688 317.339844 2234.046875 311.609375 2234.046875 305.121094 C 2234.046875 295.53125 2231.894531 288.144531 2227.589844 283.035156 C 2223.285156 277.863281 2215.210938 275.304688 2203.316406 275.304688 L 2174.742188 275.304688 Z M 2468.84375 215.253906 L 2533.730469 215.253906 L 2533.730469 391.886719 C 2533.730469 409.355469 2531.773438 425.917969 2527.902344 441.445312 C 2524.042969 457.046875 2517.972656 470.644531 2509.703125 482.3125 C 2501.4375 493.976562 2492.773438 502.117188 2483.71875 506.878906 C 2471.09375 513.4375 2455.925781 516.75 2438.257812 516.75 C 2428.03125 516.75 2416.875 515.722656 2404.789062 513.714844 C 2392.699219 511.710938 2382.574219 507.710938 2374.445312 501.707031 C 2366.324219 495.699219 2358.882812 487.210938 2352.179688 476.164062 C 2345.425781 465.125 2340.824219 453.734375 2338.328125 441.996094 C 2334.320312 423.15625 2332.3125 406.453125 2332.3125 391.886719 L 2332.3125 215.253906 L 2397.199219 215.253906 L 2397.199219 396.097656 C 2397.199219 412.25 2400.378906 424.878906 2406.695312 433.921875 C 2413.054688 443.035156 2421.867188 447.589844 2433.125 447.589844 C 2444.230469 447.589844 2452.988281 443.101562 2459.351562 434.132812 C 2465.660156 425.222656 2468.84375 412.527344 2468.84375 396.097656 Z M 2468.84375 215.253906 " fill-opacity="1" fill-rule="evenodd"/><path fill="#000200" d="M 1621.074219 990.925781 C 1677.425781 1009.160156 1730.511719 1034.621094 1779.277344 1066.214844 L 1800.695312 1029.609375 C 1850.894531 1061.957031 1896.828125 1100.402344 1937.375 1143.914062 L 1907.050781 1173.511719 C 1968.367188 1239.496094 2016.613281 1317.796875 2047.660156 1404.285156 L 2087.699219 1390.398438 C 2107.367188 1445.285156 2120.507812 1503.285156 2126.226562 1563.433594 L 2083.929688 1566.238281 C 2085.238281 1579.835938 2086.203125 1593.519531 2086.703125 1607.335938 L 1928.246094 1607.335938 C 1915.429688 1334.242188 1689.917969 1116.6875 1413.660156 1116.6875 C 1137.410156 1116.6875 911.898438 1334.242188 899.078125 1607.335938 L 740.625 1607.335938 C 740.96875 1597.742188 741.546875 1588.203125 742.292969 1578.707031 L 699.929688 1577.03125 C 705.199219 1507.75 720.304688 1441.222656 743.882812 1378.855469 L 784.320312 1391.707031 C 815.140625 1311.003906 861.023438 1237.742188 918.5625 1175.375 L 885.308594 1148.972656 C 929.394531 1100.738281 979.96875 1058.558594 1035.683594 1023.828125 L 1060.800781 1058.136719 C 1106.019531 1030.25 1154.785156 1007.578125 1206.253906 990.925781 L 1206.253906 946.507812 C 1271.914062 926.652344 1341.539062 915.964844 1413.660156 915.964844 C 1485.785156 915.964844 1555.433594 926.640625 1621.074219 946.507812 Z M 1621.074219 990.925781 " fill-opacity="1" fill-rule="evenodd"/><path fill="#000200" d="M 1478.957031 880.578125 L 1679.359375 878.894531 L 1515.007812 1005.609375 L 1578.773438 1204.855469 L 1411.710938 1080.363281 L 1249.753906 1205.214844 L 1311.625 1000.964844 L 1148.558594 879.441406 L 1352.890625 877.71875 L 1413.761719 676.816406 Z M 1478.957031 880.578125 " fill-opacity="1" fill-rule="evenodd"/><path fill="#ffec00" d="M 1414.042969 713.222656 L 1471.078125 891.46875 L 1647.242188 889.988281 L 1502.382812 1001.660156 L 1558.171875 1176 L 1411.609375 1066.78125 L 1269.910156 1176 L 1324.191406 996.832031 L 1180.847656 889.988281 L 1360.949219 888.476562 Z M 1414.042969 713.222656 " fill-opacity="1" fill-rule="evenodd"/><path fill="#e30016" d="M 637.3125 1570.808594 L 785.5 1570.808594 L 785.5 1890.179688 L 637.3125 1890.179688 Z M 637.3125 1570.808594 " fill-opacity="1" fill-rule="evenodd"/><path fill="#000200" d="M 637.308594 1561.257812 L 795.050781 1561.257812 L 795.050781 1899.726562 L 627.761719 1899.726562 L 627.761719 1561.257812 Z M 775.949219 1580.355469 L 646.855469 1580.355469 L 646.855469 1880.632812 L 775.949219 1880.632812 Z M 775.949219 1580.355469 " fill-opacity="1" fill-rule="evenodd"/><path fill="#e30016" d="M 637.3125 1890.179688 L 785.5 1890.179688 L 785.5 2224.886719 L 637.3125 2224.886719 Z M 637.3125 1890.179688 " fill-opacity="1" fill-rule="evenodd"/><path fill="#000200" d="M 646.855469 2215.339844 L 775.949219 2215.339844 L 775.949219 1899.726562 L 646.855469 1899.726562 Z M 785.5 2234.4375 L 627.761719 2234.4375 L 627.761719 1880.632812 L 795.050781 1880.632812 L 795.050781 2234.4375 Z M 785.5 2234.4375 " fill-opacity="1" fill-rule="evenodd"/><path fill="#e30016" d="M 637.3125 2224.886719 L 785.5 2224.886719 L 785.5 2557.035156 L 637.3125 2557.035156 Z M 637.3125 2224.886719 " fill-opacity="1" fill-rule="evenodd"/><path fill="#000200" d="M 637.308594 2215.339844 L 795.050781 2215.339844 L 795.050781 2566.585938 L 627.761719 2566.585938 L 627.761719 2215.339844 Z M 775.949219 2234.4375 L 646.855469 2234.4375 L 646.855469 2547.488281 L 775.949219 2547.488281 Z M 775.949219 2234.4375 " fill-opacity="1" fill-rule="evenodd"/><path fill="#e30016" d="M 637.3125 2557.035156 L 785.5 2557.035156 L 785.5 2845.753906 L 637.3125 2845.753906 Z M 637.3125 2557.035156 " fill-opacity="1" fill-rule="evenodd"/><path fill="#000200" d="M 646.855469 2836.207031 L 775.949219 2836.207031 L 775.949219 2566.585938 L 646.855469 2566.585938 Z M 785.5 2855.300781 L 627.761719 2855.300781 L 627.761719 2547.488281 L 795.050781 2547.488281 L 795.050781 2855.300781 Z M 785.5 2855.300781 " fill-opacity="1" fill-rule="evenodd"/><path fill="#e30016" d="M 785.5 1430.277344 L 933.6875 1430.277344 L 933.6875 1545.257812 L 785.5 1545.257812 Z M 785.5 1430.277344 " fill-opacity="1" fill-rule="evenodd"/><path fill="#000200" d="M 924.140625 1439.828125 L 795.050781 1439.828125 L 795.050781 1535.707031 L 924.140625 1535.707031 Z M 785.5 1420.730469 L 943.242188 1420.730469 L 943.242188 1554.804688 L 775.949219 1554.804688 L 775.949219 1420.730469 Z M 785.5 1420.730469 " fill-opacity="1" fill-rule="evenodd"/><path fill="#e30016" d="M 785.5 1545.253906 L 933.6875 1545.253906 L 933.6875 1744.546875 L 785.5 1744.546875 Z M 785.5 1545.253906 " fill-opacity="1" fill-rule="evenodd"/><path fill="#000200" d="M 933.6875 1754.09375 L 775.949219 1754.09375 L 775.949219 1535.703125 L 943.242188 1535.703125 L 943.242188 1754.09375 Z M 795.050781 1735 L 924.140625 1735 L 924.140625 1554.804688 L 795.050781 1554.804688 Z M 795.050781 1735 " fill-opacity="1" fill-rule="evenodd"/><path fill="#e30016" d="M 785.5 1744.546875 L 933.6875 1744.546875 L 933.6875 2056.253906 L 785.5 2056.253906 Z M 785.5 1744.546875 " fill-opacity="1" fill-rule="evenodd"/><path fill="#000200" d="M 924.140625 1754.09375 L 795.050781 1754.09375 L 795.050781 2046.707031 L 924.140625 2046.707031 Z M 785.5 1735 L 943.242188 1735 L 943.242188 2065.808594 L 775.949219 2065.808594 L 775.949219 1735 Z M 785.5 1735 " fill-opacity="1" fill-rule="evenodd"/><path fill="#e30016" d="M 785.5 2056.253906 L 933.6875 2056.253906 L 933.6875 2403.738281 L 785.5 2403.738281 Z M 785.5 2056.253906 " fill-opacity="1" fill-rule="evenodd"/><path fill="#000200" d="M 933.6875 2413.285156 L 775.949219 2413.285156 L 775.949219 2046.707031 L 943.242188 2046.707031 L 943.242188 2413.285156 Z M 795.050781 2394.1875 L 924.140625 2394.1875 L 924.140625 2065.808594 L 795.050781 2065.808594 Z M 795.050781 2394.1875 " fill-opacity="1" fill-rule="evenodd"/><path fill="#e30016" d="M 785.5 2403.738281 L 933.6875 2403.738281 L 933.6875 2702.667969 L 785.5 2702.667969 Z M 785.5 2403.738281 " fill-opacity="1" fill-rule="evenodd"/><path fill="#000200" d="M 924.140625 2413.285156 L 795.050781 2413.285156 L 795.050781 2693.121094 L 924.140625 2693.121094 Z M 785.5 2394.1875 L 943.242188 2394.1875 L 943.242188 2712.222656 L 775.949219 2712.222656 L 775.949219 2394.1875 Z M 785.5 2394.1875 " fill-opacity="1" fill-rule="evenodd"/><path fill="#e30016" d="M 785.5 2702.667969 L 933.6875 2702.667969 L 933.6875 2848.308594 L 785.5 2848.308594 Z M 785.5 2702.667969 " fill-opacity="1" fill-rule="evenodd"/><path fill="#000200" d="M 933.6875 2857.855469 L 775.949219 2857.855469 L 775.949219 2693.121094 L 943.242188 2693.121094 L 943.242188 2857.855469 Z M 795.050781 2838.761719 L 924.140625 2838.761719 L 924.140625 2712.222656 L 795.050781 2712.222656 Z M 795.050781 2838.761719 " fill-opacity="1" fill-rule="evenodd"/><path fill="#e30016" d="M 2043.777344 1570.808594 L 2191.964844 1570.808594 L 2191.964844 1890.179688 L 2043.777344 1890.179688 Z M 2043.777344 1570.808594 " fill-opacity="1" fill-rule="evenodd"/><path fill="#000200" d="M 2191.960938 1561.257812 L 2034.222656 1561.257812 L 2034.222656 1899.726562 L 2201.515625 1899.726562 L 2201.515625 1561.257812 Z M 2053.324219 1580.355469 L 2182.414062 1580.355469 L 2182.414062 1880.632812 L 2053.324219 1880.632812 Z M 2053.324219 1580.355469 " fill-opacity="1" fill-rule="evenodd"/><path fill="#e30016" d="M 2043.773438 1890.179688 L 2191.964844 1890.179688 L 2191.964844 2224.886719 L 2043.773438 2224.886719 Z M 2043.773438 1890.179688 " fill-opacity="1" fill-rule="evenodd"/><path fill="#000200" d="M 2182.414062 2215.339844 L 2053.324219 2215.339844 L 2053.324219 1899.726562 L 2182.414062 1899.726562 Z M 2043.773438 2234.4375 L 2201.515625 2234.4375 L 2201.515625 1880.632812 L 2034.222656 1880.632812 L 2034.222656 2234.4375 Z M 2043.773438 2234.4375 " fill-opacity="1" fill-rule="evenodd"/><path fill="#e30016" d="M 2043.773438 2224.886719 L 2191.964844 2224.886719 L 2191.964844 2557.035156 L 2043.773438 2557.035156 Z M 2043.773438 2224.886719 " fill-opacity="1" fill-rule="evenodd"/><path fill="#000200" d="M 2191.960938 2215.339844 L 2034.222656 2215.339844 L 2034.222656 2566.585938 L 2201.515625 2566.585938 L 2201.515625 2215.339844 Z M 2053.324219 2234.4375 L 2182.414062 2234.4375 L 2182.414062 2547.488281 L 2053.324219 2547.488281 Z M 2053.324219 2234.4375 " fill-opacity="1" fill-rule="evenodd"/><path fill="#e30016" d="M 2043.773438 2557.035156 L 2191.964844 2557.035156 L 2191.964844 2845.753906 L 2043.773438 2845.753906 Z M 2043.773438 2557.035156 " fill-opacity="1" fill-rule="evenodd"/><path fill="#000200" d="M 2182.414062 2836.207031 L 2053.324219 2836.207031 L 2053.324219 2566.585938 L 2182.414062 2566.585938 Z M 2043.773438 2855.300781 L 2201.515625 2855.300781 L 2201.515625 2547.488281 L 2034.222656 2547.488281 L 2034.222656 2855.300781 Z M 2043.773438 2855.300781 " fill-opacity="1" fill-rule="evenodd"/><path fill="#e30016" d="M 1895.582031 1430.277344 L 2043.777344 1430.277344 L 2043.777344 1545.257812 L 1895.582031 1545.257812 Z M 1895.582031 1430.277344 " fill-opacity="1" fill-rule="evenodd"/><path fill="#000200" d="M 1905.132812 1439.828125 L 2034.222656 1439.828125 L 2034.222656 1535.707031 L 1905.132812 1535.707031 Z M 2043.773438 1420.730469 L 1886.035156 1420.730469 L 1886.035156 1554.804688 L 2053.324219 1554.804688 L 2053.324219 1420.730469 Z M 2043.773438 1420.730469 " fill-opacity="1" fill-rule="evenodd"/><path fill="#e30016" d="M 1895.582031 1545.253906 L 2043.777344 1545.253906 L 2043.777344 1744.546875 L 1895.582031 1744.546875 Z M 1895.582031 1545.253906 " fill-opacity="1" fill-rule="evenodd"/><path fill="#000200" d="M 1895.582031 1754.09375 L 2053.324219 1754.09375 L 2053.324219 1535.707031 L 1886.035156 1535.707031 L 1886.035156 1754.09375 Z M 2034.222656 1735 L 1905.132812 1735 L 1905.132812 1554.804688 L 2034.222656 1554.804688 Z M 2034.222656 1735 " fill-opacity="1" fill-rule="evenodd"/><path fill="#e30016" d="M 1895.582031 1744.546875 L 2043.777344 1744.546875 L 2043.777344 2056.253906 L 1895.582031 2056.253906 Z M 1895.582031 1744.546875 " fill-opacity="1" fill-rule="evenodd"/><path fill="#000200" d="M 1905.132812 1754.09375 L 2034.222656 1754.09375 L 2034.222656 2046.707031 L 1905.132812 2046.707031 Z M 2043.773438 1735 L 1886.035156 1735 L 1886.035156 2065.808594 L 2053.324219 2065.808594 L 2053.324219 1735 Z M 2043.773438 1735 " fill-opacity="1" fill-rule="evenodd"/><path fill="#e30016" d="M 1895.582031 2056.253906 L 2043.777344 2056.253906 L 2043.777344 2403.738281 L 1895.582031 2403.738281 Z M 1895.582031 2056.253906 " fill-opacity="1" fill-rule="evenodd"/><path fill="#000200" d="M 1895.582031 2413.285156 L 2053.324219 2413.285156 L 2053.324219 2046.707031 L 1886.035156 2046.707031 L 1886.035156 2413.285156 Z M 2034.222656 2394.1875 L 1905.132812 2394.1875 L 1905.132812 2065.808594 L 2034.222656 2065.808594 Z M 2034.222656 2394.1875 " fill-opacity="1" fill-rule="evenodd"/><path fill="#e30016" d="M 1895.582031 2403.738281 L 2043.777344 2403.738281 L 2043.777344 2702.667969 L 1895.582031 2702.667969 Z M 1895.582031 2403.738281 " fill-opacity="1" fill-rule="evenodd"/><path fill="#000200" d="M 1905.132812 2413.285156 L 2034.222656 2413.285156 L 2034.222656 2693.121094 L 1905.132812 2693.121094 Z M 2043.773438 2394.1875 L 1886.035156 2394.1875 L 1886.035156 2712.222656 L 2053.324219 2712.222656 L 2053.324219 2394.1875 Z M 2043.773438 2394.1875 " fill-opacity="1" fill-rule="evenodd"/><path fill="#e30016" d="M 1895.582031 2702.667969 L 2043.777344 2702.667969 L 2043.777344 2848.308594 L 1895.582031 2848.308594 Z M 1895.582031 2702.667969 " fill-opacity="1" fill-rule="evenodd"/><path fill="#000200" d="M 1895.582031 2857.855469 L 2053.324219 2857.855469 L 2053.324219 2693.121094 L 1886.035156 2693.121094 L 1886.035156 2857.855469 Z M 2034.222656 2838.761719 L 1905.132812 2838.761719 L 1905.132812 2712.222656 L 2034.222656 2712.222656 Z M 2034.222656 2838.761719 " fill-opacity="1" fill-rule="evenodd"/><path fill="#000200" d="M 1413.957031 2563.359375 L 1194.8125 2514.757812 L 1189.949219 2494.730469 L 1195.925781 2355.875 L 1413.957031 2400.738281 L 1631.984375 2355.875 L 1638.375 2494.796875 L 1633.101562 2514.757812 Z M 1413.957031 2563.359375 " fill-opacity="1" fill-rule="evenodd"/><path fill="#ffffff" d="M 1413.957031 2376.328125 L 1413.957031 2538.957031 L 1194.8125 2490.359375 L 1195.925781 2331.46875 Z M 1413.957031 2376.328125 " fill-opacity="1" fill-rule="evenodd"/><path fill="#000200" d="M 1419.367188 2376.332031 L 1419.367188 2545.671875 L 1412.796875 2544.222656 L 1193.652344 2495.617188 L 1189.394531 2494.667969 L 1189.417969 2490.335938 L 1190.535156 2331.453125 L 1190.585938 2324.859375 L 1197.007812 2326.1875 L 1415.039062 2371.054688 L 1419.367188 2371.9375 Z M 1408.539062 2532.234375 L 1408.539062 2380.734375 L 1201.273438 2338.078125 L 1200.234375 2486.039062 Z M 1408.539062 2532.234375 " fill-opacity="1" fill-rule="evenodd"/><path fill="#ffffff" d="M 1413.957031 2376.328125 L 1413.957031 2538.957031 L 1633.101562 2490.359375 L 1631.984375 2331.46875 Z M 1413.957031 2376.328125 " fill-opacity="1" fill-rule="evenodd"/><path fill="#000200" d="M 1419.367188 2380.734375 L 1419.367188 2532.234375 L 1627.675781 2486.039062 L 1626.636719 2338.074219 Z M 1408.539062 2538.957031 L 1408.539062 2371.9375 L 1412.871094 2371.054688 L 1630.902344 2326.1875 L 1637.332031 2324.859375 L 1637.378906 2331.453125 L 1638.492188 2490.335938 L 1638.523438 2494.667969 L 1634.261719 2495.617188 L 1415.109375 2544.222656 L 1408.539062 2545.671875 Z M 1408.539062 2538.957031 " fill-opacity="1" fill-rule="evenodd"/><path fill="#000200" d="M 1417.796875 2093.316406 C 1278.214844 2101.171875 1138.617188 2109.023438 999.023438 2116.875 C 998.03125 2131.910156 1282.933594 2275.011719 1417.796875 2336.027344 C 1552.660156 2275.011719 1831.199219 2134.316406 1828.492188 2116.875 C 1688.898438 2109.023438 1557.382812 2101.171875 1417.796875 2093.316406 Z M 1417.796875 2093.316406 " fill-opacity="1" fill-rule="evenodd"/><path fill="#ffffff" d="M 1413.675781 2059.667969 L 1828.90625 2093.347656 L 1828.90625 2113.96875 C 1828.90625 2143.960938 1642.964844 2168.285156 1413.675781 2168.285156 C 1184.382812 2168.285156 998.441406 2143.960938 998.441406 2113.96875 L 998.441406 2093.347656 C 1051.003906 2071.25 1227.980469 2044.617188 1413.675781 2059.667969 Z M 1413.675781 2059.667969 " fill-opacity="1" fill-rule="evenodd"/><path fill="#000200" d="M 1413.671875 2039.046875 C 1642.996094 2039.046875 1828.90625 2063.351562 1828.90625 2093.34375 C 1828.90625 2123.335938 1642.996094 2147.644531 1413.671875 2147.644531 C 1184.351562 2147.644531 998.441406 2123.335938 998.441406 2093.34375 C 998.441406 2063.351562 1184.351562 2039.046875 1413.671875 2039.046875 Z M 1413.671875 2039.046875 " fill-opacity="1" fill-rule="evenodd"/><path fill="#ffffff" d="M 1082.113281 1880.628906 L 1740.703125 1880.628906 L 1740.703125 2013.558594 L 1082.113281 2013.558594 Z M 1082.113281 1880.628906 " fill-opacity="1" fill-rule="evenodd"/><path fill="#000200" d="M 1082.117188 1875.21875 L 1746.113281 1875.21875 L 1746.113281 2018.972656 L 1076.703125 2018.972656 L 1076.703125 1875.21875 Z M 1735.289062 1886.042969 L 1087.535156 1886.042969 L 1087.535156 2008.140625 L 1735.289062 2008.140625 Z M 1735.289062 1886.042969 " fill-opacity="1" fill-rule="evenodd"/><path fill="#ffffff" d="M 1030.28125 1880.632812 L 1804.242188 1880.632812 L 1644.898438 1761.410156 L 1177.917969 1761.410156 Z M 1030.28125 1880.632812 " fill-opacity="1" fill-rule="evenodd"/><path fill="#000200" d="M 1045.578125 1875.21875 L 1788.015625 1875.21875 L 1643.136719 1766.824219 L 1179.8125 1766.824219 Z M 1804.242188 1886.042969 L 1030.28125 1886.042969 L 1026.90625 1876.417969 L 1174.542969 1757.203125 L 1177.917969 1756 L 1644.898438 1756 L 1648.140625 1757.105469 L 1807.480469 1876.324219 Z M 1804.242188 1886.042969 " fill-opacity="1" fill-rule="evenodd"/><path fill="#ffffff" d="M 1177.917969 1629.6875 L 1422.613281 1502.339844 L 1644.898438 1629.6875 L 1644.898438 1880.632812 L 1177.917969 1880.632812 Z M 1177.917969 1629.6875 " fill-opacity="1" fill-rule="evenodd"/><path fill="#000200" d="M 1175.429688 1624.894531 L 1420.128906 1497.542969 L 1422.753906 1496.179688 L 1425.300781 1497.640625 L 1647.585938 1624.988281 L 1650.316406 1626.550781 L 1650.316406 1886.042969 L 1172.507812 1886.042969 L 1172.507812 1626.40625 Z M 1422.488281 1508.5 L 1183.332031 1632.960938 L 1183.332031 1875.21875 L 1639.488281 1875.21875 L 1639.488281 1632.828125 Z M 1422.488281 1508.5 " fill-opacity="1" fill-rule="evenodd"/><path fill="#e30016" d="M 1280.652344 1290.726562 L 1542.171875 1290.726562 L 1542.171875 1541.667969 L 1280.652344 1541.667969 Z M 1280.652344 1290.726562 " fill-opacity="1" fill-rule="evenodd"/><path fill="#000200" d="M 1280.652344 1285.316406 L 1547.582031 1285.316406 L 1547.582031 1547.082031 L 1275.234375 1547.082031 L 1275.234375 1285.316406 Z M 1536.757812 1296.140625 L 1286.066406 1296.140625 L 1286.066406 1536.257812 L 1536.757812 1536.257812 Z M 1536.757812 1296.140625 " fill-opacity="1" fill-rule="evenodd"/><path fill="#e30016" d="M 1280.652344 1541.667969 L 1542.171875 1541.667969 L 1542.171875 1788.871094 L 1280.652344 1788.871094 Z M 1280.652344 1541.667969 " fill-opacity="1" fill-rule="evenodd"/><path fill="#000200" d="M 1286.066406 1783.457031 L 1536.757812 1783.457031 L 1536.757812 1547.082031 L 1286.066406 1547.082031 Z M 1542.171875 1794.28125 L 1275.234375 1794.28125 L 1275.234375 1536.257812 L 1547.582031 1536.257812 L 1547.582031 1794.28125 Z M 1542.171875 1794.28125 " fill-opacity="1" fill-rule="evenodd"/><path fill="#ffffff" d="M 1247.035156 1788.871094 L 1575.785156 1788.871094 L 1575.785156 1880.628906 L 1247.035156 1880.628906 Z M 1247.035156 1788.871094 " fill-opacity="1" fill-rule="evenodd"/><path fill="#000200" d="M 1247.035156 1783.457031 L 1581.199219 1783.457031 L 1581.199219 1886.042969 L 1241.625 1886.042969 L 1241.625 1783.457031 Z M 1570.375 1794.28125 L 1252.449219 1794.28125 L 1252.449219 1875.21875 L 1570.375 1875.21875 Z M 1570.375 1794.28125 " fill-opacity="1" fill-rule="evenodd"/><path fill="#ffffff" d="M 1207.800781 2056.667969 L 1615.019531 2056.667969 L 1615.019531 2088.507812 L 1207.800781 2088.507812 Z M 1207.800781 2056.667969 " fill-opacity="1" fill-rule="evenodd"/><path fill="#000200" d="M 1213.210938 2083.09375 L 1609.605469 2083.09375 L 1609.605469 2062.082031 L 1213.210938 2062.082031 Z M 1615.019531 2093.917969 L 1202.386719 2093.917969 L 1202.386719 2051.253906 L 1620.4375 2051.253906 L 1620.4375 2093.917969 Z M 1615.019531 2093.917969 " fill-opacity="1" fill-rule="evenodd"/><path fill="#ffffff" d="M 1247.035156 2114.730469 L 1575.785156 2114.730469 L 1575.785156 2150.300781 L 1247.035156 2150.300781 Z M 1247.035156 2114.730469 " fill-opacity="1" fill-rule="evenodd"/><path fill="#000200" d="M 1252.449219 2144.890625 L 1570.375 2144.890625 L 1570.375 2120.140625 L 1252.449219 2120.140625 Z M 1575.785156 2155.714844 L 1241.625 2155.714844 L 1241.625 2109.316406 L 1581.199219 2109.316406 L 1581.199219 2155.714844 Z M 1575.785156 2155.714844 " fill-opacity="1" fill-rule="evenodd"/><path fill="#ffffff" d="M 1207.800781 1880.628906 L 1615.019531 1880.628906 L 1615.019531 2056.667969 L 1207.800781 2056.667969 Z M 1207.800781 1880.628906 " fill-opacity="1" fill-rule="evenodd"/><path fill="#000200" d="M 1207.800781 1875.21875 L 1620.4375 1875.21875 L 1620.4375 2062.082031 L 1202.386719 2062.082031 L 1202.386719 1875.21875 Z M 1609.605469 1886.042969 L 1213.210938 1886.042969 L 1213.210938 2051.253906 L 1609.605469 2051.253906 Z M 1609.605469 1886.042969 " fill-opacity="1" fill-rule="evenodd"/><path fill="#ffffff" d="M 1288.117188 1880.628906 L 1534.699219 1880.628906 L 1534.699219 2114.730469 L 1288.117188 2114.730469 Z M 1288.117188 1880.628906 " fill-opacity="1" fill-rule="evenodd"/><path fill="#000200" d="M 1288.121094 1875.21875 L 1540.113281 1875.21875 L 1540.113281 2120.140625 L 1282.707031 2120.140625 L 1282.707031 1875.21875 Z M 1529.285156 1886.042969 L 1293.53125 1886.042969 L 1293.53125 2109.316406 L 1529.285156 2109.316406 Z M 1529.285156 1886.042969 " fill-opacity="1" fill-rule="evenodd"/><path fill="#000200" d="M 1318.011719 1875.21875 L 1510.222656 1875.21875 L 1510.222656 2120.140625 L 1312.601562 2120.140625 L 1312.601562 1875.21875 Z M 1499.398438 1886.042969 L 1323.425781 1886.042969 L 1323.425781 2109.316406 L 1499.398438 2109.316406 Z M 1499.398438 1886.042969 " fill-opacity="1" fill-rule="evenodd"/><path fill="#000200" d="M 1318.011719 1875.21875 L 1349.582031 1875.21875 L 1349.582031 2120.140625 L 1312.601562 2120.140625 L 1312.601562 1875.21875 Z M 1338.753906 1886.042969 L 1323.425781 1886.042969 L 1323.425781 2109.316406 L 1338.753906 2109.316406 Z M 1338.753906 1886.042969 " fill-opacity="1" fill-rule="evenodd"/><path fill="#000200" d="M 1318.011719 1964.902344 L 1344.167969 1964.902344 L 1344.167969 2114.730469 L 1318.011719 2114.730469 Z M 1318.011719 1964.902344 " fill-opacity="1" fill-rule="evenodd"/><path fill="#000200" d="M 1318.011719 1959.492188 L 1349.582031 1959.492188 L 1349.582031 2120.140625 L 1312.601562 2120.140625 L 1312.601562 1959.492188 Z M 1338.753906 1970.316406 L 1323.425781 1970.316406 L 1323.425781 2109.316406 L 1338.753906 2109.316406 Z M 1338.753906 1970.316406 " fill-opacity="1" fill-rule="evenodd"/><path fill="#000200" d="M 1480.523438 1875.21875 L 1512.09375 1875.21875 L 1512.09375 2120.140625 L 1475.113281 2120.140625 L 1475.113281 1875.21875 Z M 1501.269531 1886.042969 L 1485.9375 1886.042969 L 1485.9375 2109.316406 L 1501.269531 2109.316406 Z M 1501.269531 1886.042969 " fill-opacity="1" fill-rule="evenodd"/><path fill="#000200" d="M 1480.527344 1964.902344 L 1506.679688 1964.902344 L 1506.679688 2114.730469 L 1480.527344 2114.730469 Z M 1480.527344 1964.902344 " fill-opacity="1" fill-rule="evenodd"/><path fill="#000200" d="M 1480.523438 1959.492188 L 1512.09375 1959.492188 L 1512.09375 2120.140625 L 1475.113281 2120.140625 L 1475.113281 1959.492188 Z M 1501.269531 1970.316406 L 1485.9375 1970.316406 L 1485.9375 2109.316406 L 1501.269531 2109.316406 Z M 1501.269531 1970.316406 " fill-opacity="1" fill-rule="evenodd"/><path fill="#000200" d="M 1368.453125 1875.21875 L 1459.78125 1875.21875 L 1459.78125 2120.140625 L 1363.039062 2120.140625 L 1363.039062 1875.21875 Z M 1448.953125 1886.042969 L 1373.863281 1886.042969 L 1373.863281 2109.316406 L 1448.953125 2109.316406 Z M 1448.953125 1886.042969 " fill-opacity="1" fill-rule="evenodd"/><path fill="#000200" d="M 1368.453125 1880.628906 L 1454.371094 1880.628906 L 1454.371094 1931.203125 L 1368.453125 1931.203125 Z M 1368.453125 1880.628906 " fill-opacity="1" fill-rule="evenodd"/><path fill="#000200" d="M 1368.453125 1875.21875 L 1459.78125 1875.21875 L 1459.78125 1936.617188 L 1363.039062 1936.617188 L 1363.039062 1875.21875 Z M 1448.953125 1886.042969 L 1373.863281 1886.042969 L 1373.863281 1925.785156 L 1448.953125 1925.785156 Z M 1448.953125 1886.042969 " fill-opacity="1" fill-rule="evenodd"/><path fill="#ffffff" d="M 1392.734375 1880.628906 L 1430.085938 1880.628906 L 1430.085938 1931.203125 L 1392.734375 1931.203125 Z M 1392.734375 1880.628906 " fill-opacity="1" fill-rule="evenodd"/><path fill="#000200" d="M 1392.734375 1875.21875 L 1435.496094 1875.21875 L 1435.496094 1936.617188 L 1387.320312 1936.617188 L 1387.320312 1875.21875 Z M 1424.671875 1886.042969 L 1398.144531 1886.042969 L 1398.144531 1925.785156 L 1424.671875 1925.785156 Z M 1424.671875 1886.042969 " fill-opacity="1" fill-rule="evenodd"/><path fill="#000200" d="M 1368.453125 1952.34375 L 1454.371094 1952.34375 L 1454.371094 1963.175781 L 1368.453125 1963.175781 Z M 1368.453125 1952.34375 " fill-opacity="1" fill-rule="evenodd"/><path fill="#000200" d="M 1368.453125 1980.242188 L 1454.371094 1980.242188 L 1454.371094 1991.074219 L 1368.453125 1991.074219 Z M 1368.453125 1980.242188 " fill-opacity="1" fill-rule="evenodd"/><path fill="#000200" d="M 1368.453125 2008.140625 L 1454.371094 2008.140625 L 1454.371094 2018.972656 L 1368.453125 2018.972656 Z M 1368.453125 2008.140625 " fill-opacity="1" fill-rule="evenodd"/><path fill="#000200" d="M 1368.453125 2036.046875 L 1454.371094 2036.046875 L 1454.371094 2046.871094 L 1368.453125 2046.871094 Z M 1368.453125 2036.046875 " fill-opacity="1" fill-rule="evenodd"/><path fill="#000200" d="M 1368.453125 2063.945312 L 1454.371094 2063.945312 L 1454.371094 2074.769531 L 1368.453125 2074.769531 Z M 1368.453125 2063.945312 " fill-opacity="1" fill-rule="evenodd"/><path fill="#000200" d="M 1368.453125 2091.84375 L 1454.371094 2091.84375 L 1454.371094 2102.667969 L 1368.453125 2102.667969 Z M 1368.453125 2091.84375 " fill-opacity="1" fill-rule="evenodd"/><path fill="#82ba1a" d="M 513.113281 2998.835938 L 877.585938 2841.769531 L 1030.628906 2932.386719 L 678.234375 3105.5625 L 702.394531 2992.796875 Z M 513.113281 2998.835938 " fill-opacity="1" fill-rule="evenodd"/><path fill="#000200" d="M 510.976562 2993.867188 L 875.457031 2836.800781 L 877.976562 2835.707031 L 880.335938 2837.113281 L 1033.375 2927.726562 L 1041.976562 2932.808594 L 1033 2937.226562 L 680.605469 3110.402344 L 670.621094 3115.308594 L 672.953125 3104.4375 L 695.675781 2998.402344 L 513.285156 3004.230469 Z M 877.199219 2847.820312 L 541.386719 2992.535156 L 702.222656 2987.40625 L 709.128906 2987.179688 L 707.679688 2993.921875 L 685.84375 3095.820312 L 1019.285156 2931.953125 Z M 877.199219 2847.820312 " fill-opacity="1" fill-rule="evenodd"/><path fill="#82ba1a" d="M 871.546875 2916.277344 L 1030.628906 2932.386719 L 877.585938 2841.769531 Z M 871.546875 2916.277344 " fill-opacity="1" fill-rule="evenodd"/><path fill="#000200" d="M 877.359375 2911.4375 L 1006.777344 2924.546875 L 882.277344 2850.832031 Z M 1030.101562 2937.753906 L 871.015625 2921.648438 L 865.734375 2921.101562 L 866.15625 2915.851562 L 872.195312 2841.347656 L 872.902344 2832.707031 L 880.335938 2837.113281 L 1033.375 2927.726562 Z M 1030.101562 2937.753906 " fill-opacity="1" fill-rule="evenodd"/><path fill="#82ba1a" d="M 2317.378906 2998.835938 L 1952.898438 2841.769531 L 1799.859375 2932.386719 L 2152.253906 3105.5625 L 2128.089844 2992.796875 Z M 2317.378906 2998.835938 " fill-opacity="1" fill-rule="evenodd"/><path fill="#000200" d="M 2289.097656 2992.535156 L 1953.289062 2847.820312 L 1811.207031 2931.949219 L 2144.640625 3095.820312 L 2122.804688 2993.917969 L 2121.363281 2987.175781 L 2128.261719 2987.402344 Z M 1955.03125 2836.800781 L 2319.507812 2993.867188 L 2317.203125 3004.230469 L 2134.8125 2998.402344 L 2157.539062 3104.4375 L 2159.875 3115.308594 L 2149.878906 3110.402344 L 1797.484375 2937.226562 L 1788.523438 2932.808594 L 1797.109375 2927.726562 L 1950.148438 2837.113281 L 1952.515625 2835.707031 Z M 1955.03125 2836.800781 " fill-opacity="1" fill-rule="evenodd"/><path fill="#82ba1a" d="M 1958.9375 2916.277344 L 1799.859375 2932.386719 L 1952.898438 2841.769531 Z M 1958.9375 2916.277344 " fill-opacity="1" fill-rule="evenodd"/><path fill="#000200" d="M 1959.46875 2921.648438 L 1800.390625 2937.753906 L 1797.109375 2927.726562 L 1950.148438 2837.113281 L 1957.597656 2832.707031 L 1958.289062 2841.347656 L 1964.328125 2915.851562 L 1964.765625 2921.101562 Z M 1823.707031 2924.546875 L 1953.125 2911.4375 L 1948.207031 2850.832031 Z M 1823.707031 2924.546875 " fill-opacity="1" fill-rule="evenodd"/><path fill="#82ba1a" d="M 1415.242188 2858.65625 C 1199.277344 2861.753906 1017.726562 2870.222656 871.546875 2916.277344 C 797.039062 2879.355469 722.53125 2842.441406 648.03125 2805.523438 C 901.363281 2731.375 1156.527344 2684.324219 1415.242188 2690.742188 C 1673.957031 2684.324219 1929.121094 2731.375 2182.460938 2805.523438 C 2107.953125 2842.441406 2033.445312 2879.355469 1958.9375 2916.277344 C 1812.765625 2870.222656 1631.207031 2861.753906 1415.242188 2858.65625 Z M 1415.242188 2858.65625 " fill-opacity="1" fill-rule="evenodd"/><path fill="#000200" d="M 1415.242188 2864.050781 C 1307.425781 2865.585938 1208.160156 2868.488281 1117.714844 2876.730469 C 1027.46875 2884.945312 945.890625 2898.519531 873.152344 2921.4375 L 869.152344 2921.117188 L 645.636719 2810.363281 L 646.519531 2800.335938 C 773.351562 2763.226562 900.714844 2732.855469 1028.777344 2712.589844 C 1156.820312 2692.335938 1285.597656 2682.15625 1415.242188 2685.351562 C 1544.886719 2682.15625 1673.667969 2692.335938 1801.707031 2712.589844 C 1929.773438 2732.855469 2057.132812 2763.226562 2183.964844 2800.335938 L 2184.851562 2810.363281 L 1961.332031 2921.117188 L 1957.339844 2921.4375 C 1884.59375 2898.519531 1803.015625 2884.945312 1712.769531 2876.730469 C 1622.328125 2868.488281 1523.0625 2865.585938 1415.242188 2864.050781 Z M 1116.742188 2865.984375 C 1207.539062 2857.714844 1307.078125 2854.816406 1415.179688 2853.265625 L 1415.304688 2853.265625 C 1523.40625 2854.816406 1622.945312 2857.714844 1713.746094 2865.984375 C 1803.960938 2874.203125 1885.601562 2887.726562 1958.492188 2910.472656 L 2167.648438 2806.835938 C 2045.570312 2771.570312 1923.074219 2742.71875 1800.019531 2723.242188 C 1672.550781 2703.074219 1544.378906 2692.941406 1415.375 2696.136719 L 1415.109375 2696.136719 C 1286.105469 2692.941406 1157.933594 2703.074219 1030.464844 2723.242188 C 907.417969 2742.71875 784.914062 2771.570312 662.835938 2806.835938 L 871.992188 2910.472656 C 944.886719 2887.726562 1026.523438 2874.203125 1116.742188 2865.984375 Z M 1116.742188 2865.984375 " fill-opacity="1" fill-rule="evenodd"/><path fill="#000200" d="M 861.816406 2835.902344 C 860.605469 2831.195312 859.515625 2826.464844 858.554688 2821.742188 C 870.636719 2819.261719 882.839844 2816.75 895.160156 2814.371094 C 896.25 2819.933594 897.535156 2825.507812 898.667969 2831.039062 C 899.8125 2836.59375 901.082031 2842.160156 902.292969 2847.714844 C 899.515625 2851.773438 895.035156 2855.839844 888.878906 2859.882812 C 882.839844 2863.910156 876.429688 2866.648438 869.660156 2868.109375 C 861.101562 2869.949219 853.226562 2869.746094 845.867188 2867.429688 C 838.613281 2865.121094 832.574219 2860.890625 827.613281 2854.707031 C 825.203125 2851.640625 823.144531 2848.308594 821.335938 2844.757812 C 819.523438 2841.203125 818.390625 2837.375 817.347656 2833.332031 C 816.226562 2828.984375 815.648438 2824.796875 815.648438 2820.691406 C 815.648438 2816.632812 816.140625 2812.671875 817.105469 2808.878906 C 819.160156 2801.300781 823.144531 2794.925781 829.550781 2789.792969 C 834.140625 2785.832031 840.910156 2782.949219 849.007812 2781.367188 C 859.628906 2779.292969 868.34375 2779.863281 875.226562 2783.035156 C 882.21875 2786.25 887.308594 2791.558594 890.6875 2798.949219 C 885.132812 2801.0625 879.820312 2803.226562 874.382812 2805.40625 C 872.207031 2801.542969 869.304688 2798.710938 865.320312 2796.992188 C 861.578125 2795.261719 857.097656 2794.890625 852.148438 2795.886719 C 844.777344 2797.367188 839.328125 2801.007812 836.082031 2806.636719 C 832.8125 2812.277344 832.300781 2819.726562 834.5 2828.996094 C 835.667969 2833.964844 837.429688 2838.140625 839.339844 2841.726562 C 841.167969 2845.183594 843.6875 2848.003906 846.460938 2850.03125 C 852.03125 2854.089844 858.308594 2855.339844 865.320312 2853.851562 C 868.804688 2853.105469 872.207031 2851.652344 875.34375 2849.542969 C 878.605469 2847.402344 881.148438 2845.058594 883.328125 2842.542969 C 882.597656 2839.007812 881.757812 2835.445312 881.03125 2831.90625 C 874.5 2833.25 868.214844 2834.582031 861.820312 2835.902344 Z M 996.0625 2843.179688 C 989.78125 2844.132812 983.609375 2845.070312 977.445312 2846.003906 C 973.820312 2840.101562 970.207031 2834.257812 966.582031 2828.367188 C 955.460938 2830.347656 944.101562 2832.371094 932.867188 2834.382812 C 931.652344 2841.164062 930.691406 2847.894531 929.597656 2854.628906 C 923.554688 2855.734375 917.515625 2856.832031 911.722656 2857.917969 C 914.136719 2843.015625 916.855469 2828.027344 919.457031 2813.078125 C 922.039062 2798.191406 925.007812 2783.238281 927.789062 2768.359375 C 933.949219 2767.339844 940.109375 2766.320312 946.402344 2765.292969 C 954.859375 2778.289062 963.199219 2791.21875 971.40625 2804.203125 C 979.625 2817.183594 987.964844 2830.195312 996.0625 2843.179688 Z M 958.367188 2815.296875 C 955.460938 2810.480469 952.351562 2805.628906 949.539062 2800.835938 C 946.679688 2795.976562 943.617188 2791.203125 940.597656 2786.339844 C 939.632812 2791.847656 938.660156 2797.378906 937.816406 2802.871094 C 936.972656 2808.355469 936.003906 2813.890625 935.160156 2819.382812 C 943.011719 2818.003906 950.621094 2816.640625 958.367188 2815.296875 Z M 1010.554688 2840.992188 C 1004.882812 2827.664062 998.996094 2814.269531 993.277344 2800.929688 C 987.527344 2787.515625 981.5625 2774.183594 975.636719 2760.832031 C 981.5625 2759.9375 987.722656 2759.070312 993.769531 2758.234375 C 997.628906 2767.472656 1001.335938 2776.703125 1005.117188 2785.886719 C 1008.933594 2795.097656 1012.613281 2804.289062 1016.605469 2813.457031 C 1017.570312 2803.585938 1018.609375 2793.699219 1019.628906 2783.835938 C 1020.65625 2773.972656 1021.925781 2764.113281 1023.121094 2754.269531 C 1030.257812 2753.371094 1037.386719 2752.496094 1044.398438 2751.605469 C 1048.382812 2760.941406 1052.550781 2770.21875 1056.484375 2779.558594 C 1060.398438 2788.863281 1064.328125 2798.222656 1068.445312 2807.546875 C 1069.167969 2797.652344 1070.011719 2787.742188 1070.859375 2777.871094 C 1071.691406 2768.011719 1072.671875 2758.113281 1073.511719 2748.21875 C 1079.679688 2747.539062 1085.601562 2746.867188 1091.761719 2746.191406 C 1089.945312 2760.367188 1088.125 2774.59375 1086.566406 2788.746094 C 1084.996094 2802.90625 1083.179688 2817.136719 1081.730469 2831.3125 C 1075.566406 2832.058594 1069.410156 2832.800781 1063.246094 2833.53125 C 1058.777344 2823.582031 1054.46875 2813.609375 1050.074219 2803.679688 C 1045.65625 2793.710938 1041.25 2783.761719 1036.773438 2773.832031 C 1035.335938 2784.546875 1034.050781 2795.261719 1032.910156 2805.964844 C 1031.761719 2816.675781 1030.5 2827.433594 1029.285156 2838.164062 C 1023.121094 2839.105469 1016.84375 2840.046875 1010.554688 2840.992188 Z M 1110.96875 2827.78125 C 1109.277344 2814.050781 1107.53125 2800.304688 1105.785156 2786.574219 C 1104.027344 2772.851562 1102.160156 2759.097656 1100.339844 2745.359375 C 1106.261719 2744.773438 1112.421875 2744.179688 1118.464844 2743.597656 C 1120.164062 2757.324219 1121.910156 2771.042969 1123.539062 2784.757812 C 1125.160156 2798.464844 1126.925781 2812.199219 1128.496094 2825.898438 C 1122.695312 2826.425781 1116.773438 2827.089844 1110.96875 2827.78125 Z M 1171.878906 2794.980469 C 1177.550781 2793.960938 1183.238281 2792.945312 1189.039062 2791.925781 C 1190.609375 2797.25 1192.902344 2801.082031 1196.410156 2803.414062 C 1199.898438 2805.726562 1204.273438 2806.746094 1209.695312 2806.414062 C 1215.378906 2806.0625 1219.730469 2804.632812 1222.148438 2802.210938 C 1224.925781 2799.773438 1226.289062 2797.015625 1226.011719 2794 C 1225.828125 2792.066406 1224.925781 2790.429688 1223.597656 2789.152344 C 1222.382812 2787.84375 1220.078125 2786.800781 1216.945312 2785.980469 C 1214.894531 2785.4375 1209.8125 2784.546875 1202.449219 2783.277344 C 1192.535156 2781.714844 1185.53125 2779.539062 1181.425781 2776.621094 C 1175.503906 2772.539062 1172.054688 2767.25 1171.394531 2760.722656 C 1170.980469 2756.554688 1172.039062 2752.535156 1174.171875 2748.671875 C 1176.273438 2744.875 1179.847656 2741.789062 1184.570312 2739.503906 C 1189.277344 2737.273438 1195.199219 2735.824219 1202.082031 2735.367188 C 1213.429688 2734.625 1222.023438 2736.40625 1228.070312 2740.574219 C 1234.109375 2744.765625 1237.851562 2750.609375 1238.578125 2758.167969 C 1232.539062 2758.792969 1226.496094 2759.429688 1220.574219 2760.03125 C 1219.480469 2755.820312 1217.558594 2752.871094 1214.769531 2751.203125 C 1212.121094 2749.496094 1208.113281 2748.824219 1203.050781 2749.160156 C 1197.851562 2749.503906 1193.746094 2750.796875 1190.96875 2752.972656 C 1189.164062 2754.375 1188.3125 2756.164062 1188.554688 2758.261719 C 1188.78125 2760.214844 1189.847656 2761.871094 1191.6875 2763.070312 C 1194.195312 2764.714844 1199.910156 2766.125 1208.851562 2767.433594 C 1217.675781 2768.835938 1224.449219 2770.398438 1228.789062 2772.179688 C 1233.144531 2773.964844 1236.644531 2776.558594 1239.308594 2779.941406 C 1241.839844 2783.363281 1243.519531 2787.648438 1243.898438 2792.855469 C 1244.234375 2797.5625 1243.285156 2802.070312 1240.636719 2806.367188 C 1238.09375 2810.667969 1234.445312 2813.910156 1229.519531 2816.25 C 1224.667969 2818.546875 1218.386719 2819.960938 1210.789062 2820.417969 C 1199.667969 2821.09375 1191.074219 2819.335938 1184.6875 2815.066406 C 1178.277344 2810.792969 1173.9375 2804.074219 1171.878906 2794.980469 Z M 1339.835938 2813.15625 C 1333.308594 2813.367188 1326.792969 2813.578125 1320.503906 2813.785156 C 1317.597656 2807.613281 1314.828125 2801.441406 1311.929688 2795.261719 C 1300.082031 2795.667969 1288.359375 2796.074219 1276.511719 2796.472656 C 1274.464844 2802.785156 1272.410156 2809.09375 1270.472656 2815.390625 C 1264.074219 2815.710938 1257.667969 2816.085938 1251.503906 2816.476562 C 1256.21875 2802.433594 1261.097656 2788.394531 1265.882812 2774.375 C 1270.636719 2760.453125 1275.671875 2746.433594 1280.863281 2732.457031 C 1287.15625 2732.210938 1293.554688 2731.96875 1300.082031 2731.710938 C 1306.96875 2745.253906 1313.550781 2758.808594 1320.144531 2772.414062 C 1326.707031 2785.957031 1333.308594 2799.597656 1339.835938 2813.15625 Z M 1305.519531 2781.519531 C 1302.984375 2776.519531 1300.570312 2771.464844 1298.394531 2766.4375 C 1296.21875 2761.417969 1293.671875 2756.382812 1291.378906 2751.339844 C 1289.691406 2756.523438 1287.738281 2761.730469 1286.0625 2766.882812 C 1284.371094 2772.046875 1282.683594 2777.234375 1281.117188 2782.382812 C 1289.082031 2782.105469 1297.300781 2781.824219 1305.519531 2781.519531 Z M 1346.246094 2730.289062 C 1358.328125 2730.089844 1370.410156 2729.8125 1382.730469 2729.648438 C 1389.734375 2729.554688 1395.183594 2729.835938 1398.691406 2730.402344 C 1402.304688 2730.910156 1405.59375 2732 1408.347656 2733.753906 C 1411.019531 2735.457031 1413.394531 2737.828125 1415.242188 2740.6875 C 1417.128906 2743.605469 1418.148438 2746.84375 1418.148438 2750.429688 C 1418.148438 2754.324219 1417.289062 2757.917969 1414.992188 2761.15625 C 1412.699219 2764.441406 1409.558594 2766.90625 1405.929688 2768.550781 C 1411.25 2769.980469 1415.523438 2772.492188 1418.503906 2776.085938 C 1421.4375 2779.636719 1422.785156 2783.886719 1422.855469 2788.710938 C 1422.898438 2792.496094 1422.042969 2796.214844 1420.308594 2799.730469 C 1418.542969 2803.304688 1415.808594 2806.085938 1412.582031 2808.230469 C 1409.417969 2810.320312 1405.574219 2811.699219 1400.734375 2812.246094 C 1397.714844 2812.546875 1390.714844 2812.765625 1379.355469 2812.90625 C 1369.3125 2812.953125 1359.175781 2813.003906 1349.265625 2813.070312 C 1348.777344 2799.285156 1348.359375 2785.472656 1347.933594 2771.667969 C 1347.527344 2757.902344 1346.84375 2744.085938 1346.246094 2730.289062 Z M 1365.101562 2743.789062 C 1365.335938 2750.1875 1365.453125 2756.585938 1365.574219 2762.984375 C 1369.566406 2762.945312 1373.433594 2762.867188 1377.414062 2762.832031 C 1384.421875 2762.757812 1388.886719 2762.632812 1390.714844 2762.414062 C 1393.734375 2762.078125 1396.265625 2761.058594 1397.964844 2759.414062 C 1399.644531 2757.765625 1400.433594 2755.582031 1400.375 2752.871094 C 1400.324219 2750.320312 1399.609375 2748.253906 1398.082031 2746.628906 C 1396.601562 2745.058594 1394.21875 2744.078125 1391.0625 2743.75 C 1389.378906 2743.5625 1384.179688 2743.519531 1375.488281 2743.628906 C 1371.992188 2743.671875 1368.59375 2743.75 1365.101562 2743.789062 Z M 1366.058594 2776.796875 C 1366.179688 2780.5 1366.296875 2784.222656 1366.417969 2787.910156 C 1366.535156 2791.601562 1366.664062 2795.300781 1366.785156 2799.003906 C 1372.21875 2798.949219 1377.90625 2798.886719 1383.339844 2798.871094 C 1389.734375 2798.855469 1393.734375 2798.660156 1395.667969 2798.300781 C 1398.199219 2797.839844 1400.375 2796.707031 1401.949219 2794.945312 C 1403.636719 2793.183594 1404.308594 2790.820312 1404.363281 2787.875 C 1404.417969 2785.378906 1403.636719 2783.253906 1402.304688 2781.519531 C 1401.105469 2779.777344 1399.046875 2778.5 1396.632812 2777.730469 C 1394.21875 2776.957031 1388.878906 2776.550781 1380.6875 2776.621094 C 1375.726562 2776.660156 1371.019531 2776.722656 1366.0625 2776.796875 Z M 1517.585938 2815.804688 C 1511.066406 2815.492188 1504.535156 2815.15625 1498.128906 2814.867188 C 1495.71875 2808.371094 1493.183594 2801.839844 1490.757812 2795.355469 C 1478.925781 2795.042969 1467.199219 2794.785156 1455.351562 2794.546875 C 1452.820312 2800.867188 1450.40625 2807.1875 1447.859375 2813.46875 C 1441.699219 2813.308594 1435.421875 2813.179688 1429.253906 2813.054688 C 1434.933594 2799.222656 1440.6875 2785.367188 1446.296875 2771.496094 C 1451.910156 2757.578125 1458.019531 2743.671875 1464.179688 2729.695312 C 1470.457031 2729.8125 1476.984375 2729.933594 1483.515625 2730.050781 C 1489.316406 2744.210938 1495.121094 2758.394531 1500.792969 2772.679688 C 1506.464844 2786.957031 1511.90625 2801.386719 1517.585938 2815.804688 Z M 1485.441406 2780.992188 C 1483.261719 2775.75 1481.207031 2770.488281 1479.277344 2765.238281 C 1477.351562 2760.007812 1475.417969 2754.746094 1473.238281 2749.519531 C 1471.179688 2754.660156 1468.953125 2759.824219 1466.957031 2764.996094 C 1464.976562 2770.144531 1462.847656 2775.335938 1461.035156 2780.492188 C 1469.007812 2780.65625 1477.222656 2780.820312 1485.441406 2780.992188 Z M 1526.898438 2816.25 C 1527.371094 2802.113281 1527.921875 2787.917969 1528.347656 2773.765625 C 1528.753906 2759.628906 1529.191406 2745.441406 1529.664062 2731.28125 C 1542.351562 2731.695312 1555.171875 2732.226562 1568.101562 2732.8125 C 1577.769531 2733.253906 1584.644531 2734.40625 1589.007812 2736.167969 C 1593.457031 2737.976562 1596.699219 2740.859375 1599.148438 2745.015625 C 1601.523438 2749.050781 1602.429688 2753.71875 1602.171875 2758.792969 C 1601.835938 2765.214844 1599.636719 2770.445312 1595.40625 2774.398438 C 1591.300781 2778.304688 1585.261719 2780.601562 1577.515625 2781.183594 C 1581.144531 2783.632812 1584.285156 2786.132812 1586.710938 2789 C 1588.992188 2791.695312 1592.144531 2796.671875 1596.128906 2803.648438 C 1599.382812 2809.496094 1602.539062 2815.351562 1605.796875 2821.222656 C 1598.664062 2820.691406 1591.660156 2820.167969 1584.652344 2819.664062 C 1580.539062 2813.109375 1576.671875 2806.585938 1572.574219 2800.085938 C 1568.457031 2793.140625 1565.507812 2788.773438 1563.867188 2786.917969 C 1562.265625 2785.125 1560.488281 2783.828125 1558.554688 2783.078125 C 1556.863281 2782.359375 1553.949219 2781.90625 1549.609375 2781.734375 C 1548.398438 2781.691406 1547.3125 2781.59375 1546.101562 2781.539062 C 1545.859375 2787.476562 1545.613281 2793.421875 1545.375 2799.34375 C 1545.136719 2805.253906 1545.019531 2811.183594 1544.652344 2817.105469 C 1538.730469 2816.835938 1532.816406 2816.535156 1526.898438 2816.25 Z M 1546.589844 2767.941406 C 1551.058594 2768.128906 1555.304688 2768.335938 1559.765625 2768.558594 C 1568.457031 2768.992188 1573.890625 2768.992188 1576.1875 2768.398438 C 1578.363281 2767.824219 1580.179688 2766.710938 1581.382812 2765.074219 C 1582.714844 2763.40625 1583.453125 2761.296875 1583.554688 2758.722656 C 1583.679688 2755.863281 1582.960938 2753.484375 1581.511719 2751.605469 C 1580.070312 2749.757812 1577.769531 2748.542969 1574.863281 2747.90625 C 1573.417969 2747.640625 1568.941406 2747.308594 1561.453125 2746.972656 C 1556.621094 2746.757812 1552.140625 2746.542969 1547.433594 2746.332031 C 1547.191406 2753.523438 1546.824219 2760.746094 1546.589844 2767.941406 Z M 1693.761719 2829.191406 C 1687.480469 2828.5625 1680.957031 2827.910156 1674.675781 2827.304688 C 1672.617188 2820.472656 1670.6875 2813.632812 1668.871094 2806.796875 C 1657.15625 2805.695312 1645.550781 2804.625 1633.824219 2803.578125 C 1630.6875 2809.929688 1628.03125 2816.28125 1625.136719 2822.636719 C 1618.839844 2822.171875 1612.5625 2821.707031 1606.402344 2821.265625 C 1612.933594 2807.296875 1619.742188 2793.332031 1626.335938 2779.367188 C 1632.898438 2765.445312 1639.875 2751.480469 1646.761719 2737.515625 C 1653.160156 2737.953125 1659.566406 2738.421875 1666.101562 2738.882812 C 1670.808594 2753.878906 1675.636719 2768.871094 1680.230469 2783.945312 C 1684.808594 2798.941406 1689.289062 2814.0625 1693.761719 2829.191406 Z M 1664.28125 2791.632812 C 1662.710938 2786.078125 1660.835938 2780.484375 1659.449219 2774.957031 C 1658.078125 2769.445312 1656.300781 2763.894531 1654.617188 2758.394531 C 1652.199219 2763.582031 1649.707031 2768.800781 1647.371094 2773.964844 C 1645 2779.179688 1642.414062 2784.335938 1640.234375 2789.488281 C 1648.21875 2790.191406 1656.300781 2790.90625 1664.28125 2791.632812 Z M 1713.46875 2831.3125 C 1714.800781 2819.21875 1715.945312 2807.132812 1717.210938 2795.042969 C 1718.464844 2782.949219 1719.625 2770.847656 1720.957031 2758.742188 C 1712.136719 2757.832031 1703.191406 2756.976562 1694.613281 2756.1875 C 1695.09375 2751.285156 1695.460938 2746.378906 1695.941406 2741.429688 C 1719.625 2743.671875 1743.433594 2745.996094 1766.992188 2748.648438 C 1766.382812 2753.632812 1765.785156 2758.582031 1765.183594 2763.539062 C 1756.355469 2762.554688 1747.65625 2761.527344 1738.84375 2760.585938 C 1737.628906 2772.71875 1736.289062 2784.859375 1734.964844 2797.015625 C 1733.644531 2809.160156 1732.3125 2821.308594 1730.984375 2833.441406 C 1725.058594 2832.730469 1719.386719 2832.027344 1713.46875 2831.3125 Z M 1835.867188 2847.648438 C 1829.707031 2846.71875 1823.296875 2845.808594 1817.253906 2844.929688 C 1815.6875 2837.875 1813.996094 2830.800781 1812.546875 2823.730469 C 1801.070312 2822.109375 1789.582031 2820.496094 1778.109375 2818.929688 C 1774.730469 2825.304688 1771.699219 2831.679688 1768.441406 2838.046875 C 1762.28125 2837.289062 1756.121094 2836.527344 1750.074219 2835.789062 C 1757.320312 2821.816406 1764.734375 2807.777344 1772.066406 2793.863281 C 1779.472656 2779.800781 1787.167969 2765.886719 1794.78125 2751.964844 C 1801.070312 2752.777344 1807.351562 2753.578125 1813.761719 2754.390625 C 1817.628906 2769.851562 1821.433594 2785.414062 1825.117188 2800.953125 C 1828.796875 2816.5 1832.484375 2832.070312 1835.867188 2847.648438 Z M 1809.039062 2808.089844 C 1807.839844 2802.351562 1806.5 2796.578125 1805.292969 2790.882812 C 1804.09375 2785.136719 1802.640625 2779.433594 1801.304688 2773.707031 C 1798.644531 2778.890625 1795.863281 2784.097656 1793.207031 2789.28125 C 1790.558594 2794.449219 1787.894531 2799.644531 1785.359375 2804.828125 C 1793.332031 2805.890625 1801.304688 2806.984375 1809.039062 2808.089844 Z M 1921.058594 2861.644531 C 1914.894531 2860.605469 1908.855469 2859.5625 1902.6875 2858.53125 C 1901.238281 2851.417969 1900.035156 2844.28125 1898.703125 2837.167969 C 1887.460938 2835.253906 1876.105469 2833.402344 1864.871094 2831.515625 C 1861.246094 2837.828125 1857.984375 2844.152344 1854.476562 2850.410156 C 1848.433594 2849.453125 1842.394531 2848.589844 1836.355469 2847.714844 C 1844.085938 2833.757812 1851.988281 2819.84375 1859.789062 2805.953125 C 1867.550781 2792.140625 1875.5 2778.289062 1883.714844 2764.425781 C 1889.878906 2765.378906 1896.035156 2766.332031 1902.328125 2767.351562 C 1905.585938 2783.089844 1908.84375 2798.832031 1912 2814.550781 C 1915.125 2830.195312 1918.039062 2845.949219 1921.058594 2861.644531 Z M 1895.800781 2821.316406 C 1894.71875 2815.507812 1893.453125 2809.65625 1892.542969 2803.878906 C 1891.640625 2798.117188 1890.484375 2792.269531 1889.402344 2786.511719 C 1886.5 2791.671875 1883.550781 2796.871094 1880.820312 2801.972656 C 1878 2807.210938 1875.140625 2812.3125 1872.363281 2817.496094 C 1880.207031 2818.734375 1888.074219 2820.007812 1895.800781 2821.316406 Z M 1930.238281 2863.3125 C 1933.019531 2848.589844 1935.566406 2833.867188 1938.335938 2819.148438 C 1941.121094 2804.4375 1943.773438 2789.714844 1946.554688 2774.96875 C 1952.226562 2776.007812 1957.792969 2777.035156 1963.597656 2778.101562 C 1967.460938 2789.011719 1971.375 2799.914062 1975.191406 2810.902344 C 1978.976562 2821.824219 1982.804688 2832.757812 1986.664062 2843.675781 C 1988.605469 2833.875 1990.601562 2824.066406 1992.585938 2814.292969 C 1994.582031 2804.492188 1996.585938 2794.695312 1998.632812 2784.886719 C 2003.941406 2785.949219 2009.269531 2787.011719 2014.828125 2788.082031 C 2011.683594 2802.71875 2008.71875 2817.402344 2005.640625 2832.015625 C 2002.570312 2846.640625 1999.484375 2861.277344 1996.332031 2875.914062 C 1990.542969 2874.84375 1984.980469 2873.785156 1979.300781 2872.691406 C 1975.675781 2862.023438 1971.867188 2851.363281 1968.183594 2840.707031 C 1964.503906 2830.046875 1960.695312 2819.351562 1956.949219 2808.667969 C 1954.886719 2818.285156 1953.246094 2827.886719 1951.382812 2837.480469 C 1949.507812 2847.082031 1947.757812 2856.679688 1945.828125 2866.289062 C 1940.632812 2865.304688 1935.316406 2864.296875 1930.238281 2863.3125 Z M 1930.238281 2863.3125 " fill-opacity="1" fill-rule="evenodd"/></svg>